<?xml version="1.0" encoding="UTF-8" standalone="no"?>
<!-- Created with Inkscape (http://www.inkscape.org/) -->

<svg
   width="74.803703mm"
   height="48.322788mm"
   viewBox="0 0 74.803704 48.322789"
   version="1.1"
   id="svg1"
   inkscape:version="1.3 (0e150ed, 2023-07-21)"
   sodipodi:docname="MUTCD_E4-3.svg"
   xmlns:inkscape="http://www.inkscape.org/namespaces/inkscape"
   xmlns:sodipodi="http://sodipodi.sourceforge.net/DTD/sodipodi-0.dtd"
   xmlns="http://www.w3.org/2000/svg"
   xmlns:svg="http://www.w3.org/2000/svg">
  <sodipodi:namedview
     id="namedview1"
     pagecolor="#ffffff"
     bordercolor="#666666"
     borderopacity="1.0"
     inkscape:showpageshadow="2"
     inkscape:pageopacity="0.0"
     inkscape:pagecheckerboard="0"
     inkscape:deskcolor="#d1d1d1"
     inkscape:document-units="mm"
     inkscape:zoom="1.1893044"
     inkscape:cx="97.956419"
     inkscape:cy="-0.84082763"
     inkscape:window-width="1440"
     inkscape:window-height="855"
     inkscape:window-x="0"
     inkscape:window-y="23"
     inkscape:window-maximized="1"
     inkscape:current-layer="layer1" />
  <defs
     id="defs1" />
  <g
     inkscape:label="Layer 1"
     inkscape:groupmode="layer"
     id="layer1"
     transform="translate(-122.83497,-148.72138)">
    <path
       id="path52"
       d="m 127.73854,196.99993 c -2.6797,0 -4.85916,-2.17981 -4.85916,-4.85916 v -38.51663 c 0,-2.67899 2.17946,-4.85881 4.85916,-4.85881 h 64.99683 c 2.6797,0 4.85952,2.17982 4.85952,4.85881 v 38.51663 c 0,2.67935 -2.17982,4.85916 -4.85952,4.85916 z"
       style="fill:#ffffff;fill-opacity:1;fill-rule:nonzero;stroke:none;stroke-width:0.352778" />
    <path
       id="path53"
       d="m 192.73541,148.72138 h -64.99683 c -2.70369,0 -4.90361,2.19957 -4.90361,4.90291 v 38.51662 c 0,2.70369 2.19992,4.90326 4.90361,4.90326 h 64.99683 c 2.70369,0 4.90326,-2.19957 4.90326,-4.90326 v -38.51662 c 0,-2.70334 -2.19957,-4.90291 -4.90326,-4.90291 m 0,0.0882 c 2.65889,0 4.81506,2.15583 4.81506,4.81472 v 38.51662 c 0,2.65924 -2.15617,4.81507 -4.81506,4.81507 h -64.99683 c -2.65889,0 -4.81542,-2.15583 -4.81542,-4.81507 V 153.6243 c 0,-2.65889 2.15653,-4.81472 4.81542,-4.81472 z"
       style="fill:#000000;fill-opacity:1;fill-rule:nonzero;stroke:none;stroke-width:0.352778" />
    <path
       id="path54"
       d="m 126.1769,195.83859 c -0.47801,-0.20249 -0.90664,-0.49212 -1.27529,-0.86042 -0.36865,-0.36901 -0.65864,-0.79764 -0.86043,-1.2753 -0.20884,-0.49424 -0.31467,-1.01988 -0.31467,-1.5621 v -38.51663 c 0,-0.54221 0.10583,-1.0675 0.31467,-1.56139 0.20179,-0.47731 0.49178,-0.90664 0.86043,-1.27564 0.36865,-0.36866 0.79728,-0.65793 1.27529,-0.86008 0.49389,-0.20919 1.01988,-0.31467 1.56175,-0.31467 h 64.99683 c 0.54187,0 1.06751,0.10548 1.56175,0.31467 0.47766,0.20215 0.90664,0.49142 1.27529,0.86008 0.36865,0.369 0.65722,0.79833 0.85972,1.27564 0.2092,0.49389 0.31503,1.01918 0.31503,1.56139 v 38.51663 c 0,0.54222 -0.10583,1.06786 -0.31503,1.5621 -0.2025,0.47766 -0.49107,0.90629 -0.85972,1.2753 -0.36865,0.3683 -0.79763,0.65793 -1.27529,0.86042 -0.49424,0.20884 -1.01988,0.31468 -1.56175,0.31468 h -64.99683 c -0.54187,0 -1.06786,-0.10584 -1.56175,-0.31468"
       style="fill:#006f51;fill-opacity:1;fill-rule:nonzero;stroke:none;stroke-width:0.352778" />
    <path
       id="path55"
       d="m 188.63409,183.89526 c 0.002,-0.004 0.005,-0.008 0.008,-0.0127 0.0134,-0.0261 0.0247,-0.0543 0.0321,-0.0818 10e-4,-0.003 0.004,-0.005 0.004,-0.008 h -0.001 c 0.002,-0.009 0.005,-0.019 0.007,-0.0289 l 0.0134,-0.0938 1.3395,-6.91656 0.018,-0.12983 c 0.0187,-0.12982 -0.0243,-0.25964 -0.11042,-0.34607 -0.0995,-0.0991 -0.2286,-0.14217 -0.35242,-0.11748 l -0.0861,0.0173 -6.93702,1.35149 -0.12206,0.0194 c -0.0797,0.0183 -0.14217,0.0557 -0.20391,0.11712 -0.15487,0.15451 -0.15945,0.40816 0,0.56868 0.0187,0.0183 0.0505,0.037 0.0737,0.0494 l 0.0737,0.0409 2.4698,1.51765 -6.03426,5.54072 2.01894,2.01966 5.54002,-6.02227 v -0.0127 l 1.49543,2.43205 0.0624,0.0878 c 0.0187,0.031 0.0367,0.0621 0.0617,0.0868 0.15346,0.15452 0.41416,0.15452 0.56868,0 0.0236,-0.0247 0.043,-0.0512 0.0603,-0.079"
       style="fill:#ffffff;fill-opacity:1;fill-rule:nonzero;stroke:none;stroke-width:0.352778" />
    <path
       id="path56"
       d="m 167.45856,160.85446 c 0,3.98851 -3.23286,7.22207 -7.22136,7.22207 -3.9878,0 -7.22171,-3.23356 -7.22171,-7.22207 0,-3.98851 3.23391,-7.22207 7.22171,-7.22207 3.9885,0 7.22136,3.23356 7.22136,7.22207"
       style="fill:#ffffff;fill-opacity:1;fill-rule:nonzero;stroke:none;stroke-width:0.352778" />
    <path
       id="path57"
       d="m 156.67443,164.53813 v -5.85364 h -0.65158 v -0.91193 h 0.0751 c 0.29986,0 0.62689,-0.17745 0.82691,-0.4565 h 0.90347 v 7.22207 z"
       style="fill:#000000;fill-opacity:1;fill-rule:nonzero;stroke:none;stroke-width:0.352778" />
    <path
       id="path58"
       d="m 161.24258,164.66496 c -0.63288,0 -1.26682,-0.15205 -1.77306,-0.40534 l 0.55668,-1.01388 c 0.30445,0.15204 0.83679,0.25364 1.36878,0.25364 1.03822,0 1.84926,-0.68403 1.84926,-1.62172 0,-0.70979 -0.58279,-1.26717 -1.29152,-1.26717 -0.50765,0 -0.73448,0.15204 -1.16593,0.76023 l -1.14018,-0.32949 0.17675,-3.72498 h 4.15678 v 1.14053 h -3.04095 l -0.0762,1.19062 c 0.53199,-0.15169 0.75918,-0.20249 1.11443,-0.20249 1.31797,0 2.40806,1.11513 2.40806,2.43275 0,1.59632 -1.31833,2.7873 -3.1429,2.7873"
       style="fill:#000000;fill-opacity:1;fill-rule:nonzero;stroke:none;stroke-width:0.352778" />
    <path
       id="path59"
       d="m 138.13825,186.59729 c 0.95709,0.23601 2.03694,0.74154 2.03694,2.03906 0,0.67345 -0.35983,1.32432 -0.92393,1.6383 -0.38311,0.22471 -1.05904,0.35948 -1.66581,0.35948 -0.72143,0 -1.41923,-0.20215 -1.98226,-0.5835 -0.20391,-0.11218 -0.33867,-0.22401 -0.63147,-0.49353 l 0.90064,-0.89782 c 0.54187,0.49353 1.03717,0.69532 1.78047,0.69532 0.7433,0 1.26047,-0.24659 1.26047,-0.69532 0,-0.17992 -0.11148,-0.42651 -0.2921,-0.5387 -0.22507,-0.13511 -0.45085,-0.20214 -1.28411,-0.35948 -0.67592,-0.15734 -1.08126,-0.29139 -1.35184,-0.47131 -0.42827,-0.2921 -0.69744,-0.85337 -0.69744,-1.39206 0,-0.65052 0.33655,-1.23437 0.90064,-1.57092 0.35983,-0.22401 0.7874,-0.31397 1.35149,-0.31397 0.72143,0 1.39594,0.15699 1.9364,0.49354 0.13511,0.0899 0.20249,0.13511 0.4064,0.29174 l -0.78846,1.01001 c -0.51859,-0.38136 -0.99166,-0.51576 -1.59985,-0.51576 -0.5849,0 -0.94615,0.20178 -0.94615,0.60536 0,0.58209 0.74083,0.49001 1.58997,0.69956"
       style="fill:#ffffff;fill-opacity:1;fill-rule:nonzero;stroke:none;stroke-width:0.352778" />
    <path
       id="path60"
       d="m 144.1723,186.91941 c -0.29351,0 -0.54187,0.13476 -0.72249,0.44873 v 1.52683 c 0.18062,0.31397 0.42898,0.44873 0.74436,0.44873 0.52,0 0.92569,-0.53869 0.92569,-1.2125 0,-0.6731 -0.40569,-1.21179 -0.94756,-1.21179 m 0.20285,3.63643 c -0.33796,0 -0.6537,-0.09 -0.92534,-0.29174 v 1.6383 l -1.28517,0.47131 v -6.55426 h 1.28517 v 0.20214 c 0.22613,-0.22437 0.58738,-0.31432 0.94862,-0.31432 1.08126,0 2.00625,1.12218 2.00625,2.42393 0,1.3021 -0.92499,2.42464 -2.02953,2.42464"
       style="fill:#ffffff;fill-opacity:1;fill-rule:nonzero;stroke:none;stroke-width:0.352778" />
    <path
       id="path61"
       d="m 150.83931,188.63621 c -0.38347,-0.13406 -0.83432,-0.20179 -1.08232,-0.20179 -0.4057,0 -0.72143,0.22507 -0.72143,0.51647 0,0.29174 0.38347,0.53869 0.83432,0.53869 0.27058,0 0.6096,-0.0452 0.96943,-0.24695 z m 0,1.8856 v -0.15699 c -0.45085,0.17921 -0.87983,0.22437 -1.24001,0.22437 -1.03788,0 -1.78118,-0.65088 -1.78118,-1.57092 0,-0.9652 0.83291,-1.68346 1.93887,-1.68346 0.26987,0 0.69885,0.0448 1.08232,0.17921 -0.0219,-0.44908 -0.35983,-0.62829 -0.83432,-0.62829 -0.4512,0 -0.87947,0.11218 -1.33068,0.35912 l -0.47307,-1.01035 c 0.69779,-0.35878 1.17228,-0.49318 1.80375,-0.49318 1.28517,0 2.05176,0.62829 2.05176,1.93004 v 2.85045 z"
       style="fill:#ffffff;fill-opacity:1;fill-rule:nonzero;stroke:none;stroke-width:0.352778" />
    <path
       id="path62"
       d="m 166.50755,188.63621 c -0.38347,-0.13406 -0.83432,-0.20179 -1.08232,-0.20179 -0.40675,0 -0.72143,0.22507 -0.72143,0.51647 0,0.29174 0.38241,0.53869 0.83432,0.53869 0.27164,0 0.60854,-0.0452 0.96943,-0.24695 z m 0,1.8856 v -0.15699 c -0.45085,0.17921 -0.87983,0.22437 -1.24072,0.22437 -1.03717,0 -1.78188,-0.65088 -1.78188,-1.57092 0,-0.9652 0.83573,-1.68346 1.94028,-1.68346 0.27023,0 0.69885,0.0448 1.08232,0.17921 -0.0219,-0.44908 -0.36089,-0.62829 -0.83432,-0.62829 -0.4505,0 -0.87947,0.11218 -1.33068,0.35912 l -0.47413,-1.01035 c 0.70026,-0.35878 1.17334,-0.49318 1.80481,-0.49318 1.28517,0 2.05211,0.62829 2.05211,1.93004 v 2.85045 z"
       style="fill:#ffffff;fill-opacity:1;fill-rule:nonzero;stroke:none;stroke-width:0.352778" />
    <path
       id="path63"
       d="m 157.40528,187.32363 c -0.18062,-0.2921 -0.49742,-0.40428 -0.74542,-0.40428 -0.5655,0 -0.74612,0.3369 -0.74612,0.98742 v 2.58128 h -1.28764 v -4.66866 h 1.28764 v 0.22436 c 0.31573,-0.24659 0.58843,-0.33655 0.92639,-0.33655 0.38453,0 0.67839,0.09 0.99554,0.33655 z"
       style="fill:#ffffff;fill-opacity:1;fill-rule:nonzero;stroke:none;stroke-width:0.352778" />
    <path
       id="path64"
       d="m 160.81385,186.94157 v 1.75119 c 0,0.42615 0.0896,0.67345 0.56409,0.6283 0.33796,-0.0226 0.40534,-0.11219 0.63147,-0.33655 l -0.33796,1.32397 c -0.42862,0.17956 -0.38453,0.2473 -0.83643,0.2473 -0.87877,0 -1.28553,-0.51682 -1.28553,-1.43687 v -2.17734 h -0.87982 v -1.09961 h 0.87982 v -1.36913 l 1.26436,-0.49353 v 1.84008 h 1.19556 v 1.12219 z"
       style="fill:#ffffff;fill-opacity:1;fill-rule:nonzero;stroke:none;stroke-width:0.352778" />
    <path
       id="path65"
       d="m 136.72403,179.23542 h -1.34902 l -0.98919,-3.83857 -1.10102,3.83857 h -1.34902 l -1.01142,-6.4195 h 1.28165 l 0.56162,3.45652 0.89923,-3.45652 h 1.34796 l 0.89959,3.45652 0.53904,-3.45652 h 1.28164 z"
       style="fill:#ffffff;fill-opacity:1;fill-rule:nonzero;stroke:none;stroke-width:0.352778" />
    <path
       id="path66"
       d="m 148.52692,177.34975 c -0.38206,-0.13476 -0.83432,-0.20179 -1.08126,-0.20179 -0.4057,0 -0.72249,0.22437 -0.72249,0.51611 0,0.2921 0.38347,0.53834 0.83432,0.53834 0.27128,0 0.60924,-0.0444 0.96943,-0.24624 z m 0,1.8856 v -0.15734 c -0.44979,0.17991 -0.87842,0.22436 -1.24001,0.22436 -1.03788,0 -1.78153,-0.65087 -1.78153,-1.57127 0,-0.96484 0.83432,-1.68275 1.94028,-1.68275 0.27022,0 0.6992,0.0445 1.08126,0.17921 -0.0219,-0.44873 -0.36019,-0.62829 -0.83432,-0.62829 -0.4512,0 -0.87842,0.11218 -1.32962,0.35912 l -0.47448,-1.0107 c 0.69955,-0.35843 1.17263,-0.49319 1.8041,-0.49319 1.28623,0 2.05317,0.6283 2.05317,1.93005 v 2.8508 z"
       style="fill:#ffffff;fill-opacity:1;fill-rule:nonzero;stroke:none;stroke-width:0.352778" />
    <path
       id="path67"
       d="m 142.25203,179.23542 v -2.80564 c 0,-0.42686 -0.31609,-0.76377 -0.7433,-0.76377 -0.45262,0 -0.94756,0.33691 -0.94756,0.71861 v 2.8508 h -1.28623 v -6.01592 l 1.28623,-0.49389 v 2.08774 c 0.54186,-0.29175 0.85654,-0.38135 1.28552,-0.38135 0.92392,0 1.66828,0.69532 1.66828,1.57092 v 3.2325 z"
       style="fill:#ffffff;fill-opacity:1;fill-rule:nonzero;stroke:none;stroke-width:0.352778" />
    <path
       id="path68"
       d="m 170.50939,179.20166 v -2.80564 c 0,-0.42686 -0.29351,-0.76306 -0.78987,-0.76306 -0.4512,0 -0.90205,0.35842 -0.90205,0.74048 v 2.82822 h -1.28517 v -4.66901 h 1.28517 v 0.24694 c 0.42898,-0.26917 0.83432,-0.35913 1.2633,-0.35913 0.96943,0 1.69192,0.67346 1.69192,1.57092 v 3.21028 z"
       style="fill:#ffffff;fill-opacity:1;fill-rule:nonzero;stroke:none;stroke-width:0.352778" />
    <path
       id="path69"
       d="m 163.33501,175.63289 c -0.49495,0 -0.87842,0.53834 -0.87842,1.23437 0,0.6731 0.38347,1.21179 0.87842,1.21179 0.47307,0 0.90205,-0.53869 0.90205,-1.21179 0,-0.69603 -0.42898,-1.23437 -0.90205,-1.23437 m 0,3.65866 c -1.17087,0 -2.16112,-1.07739 -2.16112,-2.42429 0,-1.39171 0.94615,-2.44651 2.16112,-2.44651 1.12677,0 2.20698,1.0996 2.20698,2.44651 0,1.3469 -1.05798,2.42429 -2.20698,2.42429"
       style="fill:#ffffff;fill-opacity:1;fill-rule:nonzero;stroke:none;stroke-width:0.352778" />
    <path
       id="path70"
       d="m 155.09296,176.03685 c -0.18062,-0.29175 -0.49636,-0.40393 -0.74436,-0.40393 -0.56656,0 -0.74718,0.33655 -0.74718,0.98707 v 2.58163 h -1.28764 v -4.66901 h 1.28764 v 0.22472 c 0.31714,-0.24695 0.58702,-0.33655 0.92745,-0.33655 0.38347,0 0.67839,0.0896 0.99448,0.33655 z"
       style="fill:#ffffff;fill-opacity:1;fill-rule:nonzero;stroke:none;stroke-width:0.352778" />
    <path
       id="path71"
       d="m 158.50154,175.65532 v 1.75048 c 0,0.42686 0.0896,0.6731 0.56515,0.62865 0.33796,-0.0226 0.40534,-0.11218 0.63041,-0.3369 l -0.33796,1.32433 c -0.42898,0.17991 -0.38347,0.2473 -0.83573,0.2473 -0.87983,0 -1.28623,-0.51612 -1.28623,-1.43652 v -2.17734 h -0.87841 v -1.09996 h 0.87841 v -1.36913 l 1.26436,-0.49424 v 1.84079 h 1.19556 v 1.12254 z"
       style="fill:#ffffff;fill-opacity:1;fill-rule:nonzero;stroke:none;stroke-width:0.352778" />
  </g>
</svg>
