<?xml version="1.0" encoding="UTF-8" standalone="no"?>
<!-- Created with Inkscape (http://www.inkscape.org/) -->

<svg
   width="105.51548mm"
   height="17.732727mm"
   viewBox="0 0 105.51548 17.732727"
   version="1.1"
   id="svg1"
   inkscape:version="1.3 (0e150ed, 2023-07-21)"
   sodipodi:docname="MUTCD_E2-1P.svg"
   xmlns:inkscape="http://www.inkscape.org/namespaces/inkscape"
   xmlns:sodipodi="http://sodipodi.sourceforge.net/DTD/sodipodi-0.dtd"
   xmlns="http://www.w3.org/2000/svg"
   xmlns:svg="http://www.w3.org/2000/svg">
  <sodipodi:namedview
     id="namedview1"
     pagecolor="#ffffff"
     bordercolor="#666666"
     borderopacity="1.0"
     inkscape:showpageshadow="2"
     inkscape:pageopacity="0.0"
     inkscape:pagecheckerboard="0"
     inkscape:deskcolor="#d1d1d1"
     inkscape:document-units="mm"
     inkscape:zoom="1"
     inkscape:cx="197.5"
     inkscape:cy="33"
     inkscape:window-width="1440"
     inkscape:window-height="431"
     inkscape:window-x="0"
     inkscape:window-y="23"
     inkscape:window-maximized="0"
     inkscape:current-layer="layer1" />
  <defs
     id="defs1" />
  <g
     inkscape:label="Layer 1"
     inkscape:groupmode="layer"
     id="layer1"
     transform="translate(-52.3875,-139.7)">
    <g
       id="g81"
       transform="matrix(0.26458333,0,0,0.26458333,37.574746,70.9144)">
      <path
         id="path82"
         d="M 0,0 C -3.499,0 -6.346,2.847 -6.346,6.346 V 43.67 c 0,3.499 2.847,6.346 6.346,6.346 h 286.157 c 3.499,0 6.346,-2.847 6.346,-6.346 V 6.346 C 292.503,2.847 289.656,0 286.157,0 Z"
         style="fill:#ffffff;fill-opacity:1;fill-rule:nonzero;stroke:none"
         transform="matrix(1.3333333,0,0,-1.3333333,64.613333,326.83187)" />
    </g>
    <g
       id="g82"
       transform="matrix(0.26458333,0,0,0.26458333,37.574746,70.9144)">
      <path
         id="path83"
         d="m 0,0 h -286.157 c -3.568,0 -6.471,-2.903 -6.471,-6.471 v -37.325 c 0,-3.568 2.903,-6.47 6.471,-6.47 H 0 c 3.568,0 6.471,2.902 6.471,6.47 V -6.471 C 6.471,-2.903 3.568,0 0,0 m 0,-0.25 c 3.421,0 6.221,-2.799 6.221,-6.221 v -37.325 c 0,-3.421 -2.8,-6.22 -6.221,-6.22 h -286.157 c -3.421,0 -6.221,2.799 -6.221,6.22 v 37.325 c 0,3.422 2.8,6.221 6.221,6.221 z"
         style="fill:#000000;fill-opacity:1;fill-rule:nonzero;stroke:none"
         transform="matrix(1.3333333,0,0,-1.3333333,446.15587,259.97707)" />
    </g>
    <g
       id="g83"
       transform="matrix(0.26458333,0,0,0.26458333,37.574746,70.9144)">
      <path
         id="path84"
         d="M 0,0 C -0.824,0 -1.603,0.325 -2.194,0.916 -2.785,1.507 -3.11,2.286 -3.11,3.11 v 37.325 c 0,0.824 0.325,1.603 0.916,2.194 0.591,0.591 1.37,0.917 2.194,0.917 h 286.157 c 0.824,0 1.603,-0.326 2.194,-0.917 0.591,-0.591 0.916,-1.37 0.916,-2.194 V 3.11 c 0,-0.824 -0.325,-1.603 -0.916,-2.194 C 287.76,0.325 286.981,0 286.157,0 Z"
         style="fill:#006f51;fill-opacity:1;fill-rule:nonzero;stroke:none"
         transform="matrix(1.3333333,0,0,-1.3333333,64.613467,322.5184)" />
    </g>
    <g
       id="g84"
       transform="matrix(0.26458333,0,0,0.26458333,37.574746,70.9144)">
      <path
         id="path85"
         d="M 0,0 V 16.589 H 12.15 V 13.62 H 3.037 V 10.535 H 8.002 V 7.509 H 3.037 v -4.54 h 9.405 V 0 Z"
         style="fill:#ffffff;fill-opacity:1;fill-rule:nonzero;stroke:none"
         transform="matrix(1.3333333,0,0,-1.3333333,394.20547,304.5472)" />
    </g>
    <g
       id="g85"
       transform="matrix(0.26458333,0,0,0.26458333,37.574746,70.9144)">
      <path
         id="path86"
         d="m 273.093,580.178 h 2.986 v -16.589 h -2.986 z"
         style="fill:#ffffff;fill-opacity:1;fill-rule:nonzero;stroke:none"
         transform="matrix(1.3333333,0,0,-1.3333333,0,1056)" />
      <path
         id="path87"
         d="M 0,0 V 16.589 H 2.979 V 2.561 h 9.463 V 0 Z"
         style="fill:#ffffff;fill-opacity:1;fill-rule:nonzero;stroke:none"
         transform="matrix(1.3333333,0,0,-1.3333333,373.8564,304.5472)" />
    </g>
    <g
       id="g87"
       transform="matrix(0.26458333,0,0,0.26458333,37.574746,70.9144)">
      <path
         id="path88"
         d="M 0,0 V 10.128 L -4.908,0 -9.758,10.128 V 0 h -2.922 v 16.589 h 2.922 L -4.908,6.752 0,16.589 H 2.922 V 0 Z"
         style="fill:#ffffff;fill-opacity:1;fill-rule:nonzero;stroke:none"
         transform="matrix(1.3333333,0,0,-1.3333333,354.478,304.5472)" />
    </g>
    <g
       id="g88"
       transform="matrix(0.26458333,0,0,0.26458333,37.574746,70.9144)">
      <path
         id="path89"
         d="m 0,0 c -0.738,0.207 -2.595,0.658 -3.222,1.031 -1.248,0.742 -2.203,1.956 -2.203,3.755 0,2.773 2.339,4.662 5.729,4.662 2.455,0 4.501,-0.827 6.197,-2.597 L 4.279,4.845 C 3.227,5.966 1.882,6.497 0.304,6.497 c -1.695,0 -2.689,-0.649 -2.689,-1.711 0,-0.944 0.584,-1.357 2.631,-1.829 C 2.467,2.485 3.928,2.013 4.864,1.541 6.325,0.773 7.26,-0.82 7.26,-2.649 7.26,-4.36 6.501,-5.658 4.922,-6.602 3.753,-7.311 2.233,-7.724 0.713,-7.724 c -2.864,0 -5.027,1.063 -6.898,3.246 l 2.397,1.888 c 1.228,-1.475 2.572,-2.124 4.443,-2.124 2.104,0 3.624,0.944 3.624,2.183 C 4.279,-0.952 2.585,-0.723 0,0"
         style="fill:#ffffff;fill-opacity:1;fill-rule:nonzero;stroke:none"
         transform="matrix(1.3333333,0,0,-1.3333333,422.1372,294.63747)" />
    </g>
    <g
       id="g89"
       transform="matrix(0.26458333,0,0,0.26458333,37.574746,70.9144)">
      <path
         id="path90"
         d="m 0,0 c -3.069,0 -5.173,-1.222 -5.173,-3.056 0,-1.921 2.104,-3.143 5.173,-3.143 3.157,0 5.261,1.222 5.261,3.056 C 5.261,-1.222 3.157,0 0,0 m 0.175,-10.739 c -2.981,0 -5.611,0.96 -7.628,2.707 -2.017,1.746 -2.982,4.19 -2.982,7.595 0,5.239 2.368,9.779 6.577,12.66 2.894,2.009 5.787,2.794 10.084,2.794 V 10.565 H 5.787 c -2.63,0 -4.472,-0.437 -6.225,-1.485 -2.28,-1.309 -3.595,-2.794 -4.823,-5.413 2.192,0.611 3.595,0.786 5.612,0.786 5.436,0 9.382,-3.143 9.382,-7.509 0,-4.453 -3.946,-7.683 -9.558,-7.683"
         style="fill:#ffffff;fill-opacity:1;fill-rule:nonzero;stroke:none"
         transform="matrix(1.3333333,0,0,-1.3333333,296.94533,296.34013)" />
    </g>
    <g
       id="g90"
       transform="matrix(0.26458333,0,0,0.26458333,37.574746,70.9144)">
      <path
         id="path91"
         d="M 0,0 V 16.589 H 12.15 V 13.62 H 3.038 V 10.535 H 8.002 V 7.509 H 3.038 v -4.54 h 9.404 V 0 Z"
         style="fill:#ffffff;fill-opacity:1;fill-rule:nonzero;stroke:none"
         transform="matrix(1.3333333,0,0,-1.3333333,107.61173,304.5472)" />
    </g>
    <g
       id="g91"
       transform="matrix(0.26458333,0,0,0.26458333,37.574746,70.9144)">
      <path
         id="path92"
         d="M 0,0 -7.95,11.408 V 0 h -2.923 V 16.589 H -7.95 L -0.292,5.646 V 16.589 H 2.572 V 0 Z"
         style="fill:#ffffff;fill-opacity:1;fill-rule:nonzero;stroke:none"
         transform="matrix(1.3333333,0,0,-1.3333333,98.4316,304.5472)" />
    </g>
    <g
       id="g92"
       transform="matrix(0.26458333,0,0,0.26458333,37.574746,70.9144)">
      <path
         id="path93"
         d="M 0,0 V -13.678 H -2.907 V 0 H -7.674 V 2.91 H 4.767 V 0 Z"
         style="fill:#ffffff;fill-opacity:1;fill-rule:nonzero;stroke:none"
         transform="matrix(1.3333333,0,0,-1.3333333,159.21653,286.3092)" />
    </g>
    <g
       id="g93"
       transform="matrix(0.26458333,0,0,0.26458333,37.574746,70.9144)">
      <path
         id="path94"
         d="M 0,0 -3.742,5.879 -7.425,0 h -3.508 l 5.437,8.731 -4.969,7.858 h 3.566 l 3.157,-5.064 3.157,5.064 H 2.982 L -1.929,8.731 3.508,0 Z"
         style="fill:#ffffff;fill-opacity:1;fill-rule:nonzero;stroke:none"
         transform="matrix(1.3333333,0,0,-1.3333333,141.87413,304.5472)" />
    </g>
    <g
       id="g94"
       transform="matrix(0.26458333,0,0,0.26458333,37.574746,70.9144)">
      <path
         id="path95"
         d="M 0,0 V 16.589 H 12.15 V 13.62 H 3.037 V 10.535 H 8.002 V 7.509 H 3.037 v -4.54 h 9.405 V 0 Z"
         style="fill:#ffffff;fill-opacity:1;fill-rule:nonzero;stroke:none"
         transform="matrix(1.3333333,0,0,-1.3333333,187.69133,304.5472)" />
    </g>
    <g
       id="g95"
       transform="matrix(0.26458333,0,0,0.26458333,37.574746,70.9144)">
      <path
         id="path96"
         d="m 173.291,580.178 h 2.986 v -16.589 h -2.986 z"
         style="fill:#ffffff;fill-opacity:1;fill-rule:nonzero;stroke:none"
         transform="matrix(1.3333333,0,0,-1.3333333,0,1056)" />
      <path
         id="path97"
         d="M 0,0 V -13.678 H -2.907 V 0 H -7.674 V 2.91 H 4.767 V 0 Z"
         style="fill:#ffffff;fill-opacity:1;fill-rule:nonzero;stroke:none"
         transform="matrix(1.3333333,0,0,-1.3333333,249.02813,286.3092)" />
    </g>
    <g
       id="g97"
       transform="matrix(0.26458333,0,0,0.26458333,37.574746,70.9144)">
      <path
         id="path98"
         d="M 0,0 -3.742,5.879 -7.425,0 h -3.508 l 5.437,8.731 -4.969,7.858 h 3.566 l 3.157,-5.064 3.157,5.064 H 2.982 L -1.929,8.731 3.508,0 Z"
         style="fill:#ffffff;fill-opacity:1;fill-rule:nonzero;stroke:none"
         transform="matrix(1.3333333,0,0,-1.3333333,221.9536,304.5472)" />
    </g>
  </g>
</svg>
