<?xml version="1.0" encoding="UTF-8" standalone="no"?>
<!-- Created with Inkscape (http://www.inkscape.org/) -->

<svg
   width="39.095539mm"
   height="18.611849mm"
   viewBox="0 0 39.095539 18.611849"
   version="1.1"
   id="svg1"
   inkscape:version="1.3 (0e150ed, 2023-07-21)"
   sodipodi:docname="MUTCD_E1-5fP.svg"
   xmlns:inkscape="http://www.inkscape.org/namespaces/inkscape"
   xmlns:sodipodi="http://sodipodi.sourceforge.net/DTD/sodipodi-0.dtd"
   xmlns="http://www.w3.org/2000/svg"
   xmlns:svg="http://www.w3.org/2000/svg">
  <sodipodi:namedview
     id="namedview1"
     pagecolor="#ffffff"
     bordercolor="#666666"
     borderopacity="1.0"
     inkscape:showpageshadow="2"
     inkscape:pageopacity="0.0"
     inkscape:pagecheckerboard="0"
     inkscape:deskcolor="#d1d1d1"
     inkscape:document-units="mm"
     inkscape:zoom="1"
     inkscape:cx="73.5"
     inkscape:cy="34"
     inkscape:window-width="1440"
     inkscape:window-height="431"
     inkscape:window-x="0"
     inkscape:window-y="23"
     inkscape:window-maximized="0"
     inkscape:current-layer="layer1" />
  <defs
     id="defs1" />
  <g
     inkscape:label="Layer 1"
     inkscape:groupmode="layer"
     id="layer1"
     transform="translate(-85.460416,-139.17083)">
    <g
       id="g179"
       transform="matrix(0.26458333,0,0,0.26458333,48.11871,-46.003177)">
      <path
         id="path180"
         d="m 0,0 c -1.67,0 -3.028,1.358 -3.028,3.027 v 46.452 c 0,1.67 1.358,3.029 3.028,3.029 h 104.516 c 1.67,0 3.028,-1.359 3.028,-3.029 V 3.027 C 107.544,1.358 106.186,0 104.516,0 Z"
         style="fill:#ffffff;fill-opacity:1;fill-rule:nonzero;stroke:none"
         transform="matrix(1.3333333,0,0,-1.3333333,145.33787,770.0472)" />
    </g>
    <g
       id="g180"
       transform="matrix(0.26458333,0,0,0.26458333,48.11871,-46.003177)">
      <path
         id="path181"
         d="m 0,0 h -104.516 c -1.739,0 -3.153,-1.415 -3.153,-3.153 v -46.452 c 0,-1.739 1.414,-3.153 3.153,-3.153 H 0 c 1.739,0 3.153,1.414 3.153,3.153 V -3.153 C 3.153,-1.415 1.739,0 0,0 m 0,-0.25 c 1.603,0 2.903,-1.3 2.903,-2.903 v -46.452 c 0,-1.603 -1.3,-2.903 -2.903,-2.903 h -104.516 c -1.604,0 -2.903,1.3 -2.903,2.903 v 46.452 c 0,1.603 1.299,2.903 2.903,2.903 z"
         style="fill:#000000;fill-opacity:1;fill-rule:nonzero;stroke:none"
         transform="matrix(1.3333333,0,0,-1.3333333,284.69267,699.87027)" />
    </g>
    <g
       id="g181"
       transform="matrix(0.26458333,0,0,0.26458333,48.11871,-46.003177)">
      <path
         id="path182"
         d="m 0,0 v 46.452 c 0,0.533 0.434,0.967 0.968,0.967 h 104.516 c 0.533,0 0.968,-0.434 0.968,-0.967 V 0 c 0,-0.534 -0.435,-0.968 -0.968,-0.968 H 0.968 C 0.434,-0.968 0,-0.534 0,0"
         style="fill:#006f51;fill-opacity:1;fill-rule:nonzero;stroke:none"
         transform="matrix(1.3333333,0,0,-1.3333333,144.04733,766.01013)" />
    </g>
    <g
       id="g182"
       transform="matrix(0.26458333,0,0,0.26458333,48.11871,-46.003177)">
      <path
         id="path183"
         d="M 0,0 V 9.677 H 7.088 V 7.946 H 1.772 v -1.8 H 4.668 V 4.38 H 1.772 V 1.732 H 7.258 V 0 Z"
         style="fill:#ffffff;fill-opacity:1;fill-rule:nonzero;stroke:none"
         transform="matrix(1.3333333,0,0,-1.3333333,177.09093,756.97787)" />
    </g>
    <g
       id="g183"
       transform="matrix(0.26458333,0,0,0.26458333,48.11871,-46.003177)">
      <path
         id="path184"
         d="m 152.449,233.944 h 1.742 v -9.677 h -1.742 z"
         style="fill:#ffffff;fill-opacity:1;fill-rule:nonzero;stroke:none"
         transform="matrix(1.3333333,0,0,-1.3333333,0,1056)" />
      <path
         id="path185"
         d="M 0,0 V -7.98 H -1.696 V 0 H -4.477 V 1.698 H 2.781 V 0 Z"
         style="fill:#ffffff;fill-opacity:1;fill-rule:nonzero;stroke:none"
         transform="matrix(1.3333333,0,0,-1.3333333,214.1892,746.33827)" />
    </g>
    <g
       id="g185"
       transform="matrix(0.26458333,0,0,0.26458333,48.11871,-46.003177)">
      <path
         id="path186"
         d="M 0,0 -2.183,3.43 -4.332,0 h -2.046 l 3.172,5.093 -2.899,4.584 h 2.081 l 1.841,-2.954 1.842,2.954 h 2.08 L -1.126,5.093 2.046,0 Z"
         style="fill:#ffffff;fill-opacity:1;fill-rule:nonzero;stroke:none"
         transform="matrix(1.3333333,0,0,-1.3333333,197.43973,756.97787)" />
    </g>
    <g
       id="g186"
       transform="matrix(0.26458333,0,0,0.26458333,48.11871,-46.003177)">
      <path
         id="path187"
         d="M 0,0 C 0,-1.002 -0.812,-1.815 -1.815,-1.815 H -56.25 c -1.002,0 -1.814,0.813 -1.814,1.815 v 13.79 c 0,1.002 0.812,1.815 1.814,1.815 H -1.815 C -0.812,15.605 0,14.792 0,13.79 Z"
         style="fill:#ffd046;fill-opacity:1;fill-rule:nonzero;stroke:none"
         transform="matrix(1.3333333,0,0,-1.3333333,236.20387,730.6876)" />
    </g>
    <g
       id="g187"
       transform="matrix(0.26458333,0,0,0.26458333,48.11871,-46.003177)">
      <path
         id="path188"
         d="M 0,0 V 11.613 H 8.505 V 9.535 H 2.126 V 7.375 H 5.602 V 5.256 H 2.126 V 2.078 H 8.71 V 0 Z"
         style="fill:#000000;fill-opacity:1;fill-rule:nonzero;stroke:none"
         transform="matrix(1.3333333,0,0,-1.3333333,184.81667,729.23587)" />
      <path
         id="path189"
         d="M 0,0 V -2.363 H 3.639 V -4.482 H 0 V -9.535 H -2.126 V 2.078 H 6.583 V 0 Z"
         style="fill:#000000;fill-opacity:1;fill-rule:nonzero;stroke:none"
         transform="matrix(1.3333333,0,0,-1.3333333,203.1356,716.5228)" />
    </g>
    <g
       id="g189"
       transform="matrix(0.26458333,0,0,0.26458333,48.11871,-46.003177)">
      <path
         id="path190"
         d="M 0,0 V 11.613 H 2.085 V 1.793 H 8.71 V 0 Z"
         style="fill:#000000;fill-opacity:1;fill-rule:nonzero;stroke:none"
         transform="matrix(1.3333333,0,0,-1.3333333,169.91347,729.23587)" />
    </g>
    <g
       id="g190"
       transform="matrix(0.26458333,0,0,0.26458333,48.11871,-46.003177)">
      <path
         id="path191"
         d="M 0,0 V -9.576 H -2.035 V 0 H -5.372 V 2.037 H 3.337 V 0 Z"
         style="fill:#000000;fill-opacity:1;fill-rule:nonzero;stroke:none"
         transform="matrix(1.3333333,0,0,-1.3333333,220.62493,716.4684)" />
    </g>
    <g
       id="g191"
       transform="matrix(0.26458333,0,0,0.26458333,48.11871,-46.003177)">
      <path
         id="path192"
         d="M 0,0 V 2.548 H 11.766 V -0.051 C 9.434,-2.105 6.93,-6.81 6.93,-11.968 H 4.33 C 4.33,-7.86 5.605,-3.52 8.251,0 Z"
         style="fill:#ffffff;fill-opacity:1;fill-rule:nonzero;stroke:none"
         transform="matrix(1.3333333,0,0,-1.3333333,237.25213,744.2456)" />
    </g>
  </g>
</svg>
