<svg id="E5-1" xmlns="http://www.w3.org/2000/svg" width="72in" height="60in" viewBox="0 0 5184 4320">
  <defs>
    <style>
      .a {
        fill: #fff;
      }
    </style>
  </defs>
  <g>
    <rect class="a" y="0" width="5184" height="4320" rx="432" ry="432"/>
    <path d="M4752,2.2533c58.0161,0,114.2959,11.3627,167.2759,33.7707,51.1733,21.6447,97.1328,52.6313,136.6006,92.0993,39.4683,39.468,70.4551,85.4267,92.0996,136.6007,22.4077,52.98,33.7705,109.2593,33.7705,167.276v3456c0,58.0161-11.3628,114.2959-33.7705,167.2759-21.6445,51.1733-52.6313,97.1328-92.0996,136.6006-39.4678,39.4683-85.4272,70.4551-136.6006,92.0996-52.98,22.4077-109.2598,33.7705-167.2759,33.7705H432c-58.0167,0-114.296-11.3628-167.276-33.7705-51.174-21.6445-97.1327-52.6313-136.6007-92.0996-39.468-39.4678-70.4547-85.4272-92.0993-136.6006-22.408-52.98-33.7707-109.2598-33.7707-167.2759V432c0-58.0167,11.3627-114.296,33.7707-167.276,21.6447-51.174,52.6313-97.1327,92.0993-136.6007s85.4267-70.4547,136.6007-92.0993C317.704,13.616,373.9833,2.2533,432,2.2533h4320ZM4752,0H432C193.4127,0,0,193.4127,0,432v3456c0,238.5864,193.4127,432,432,432h4320c238.5864,0,432-193.4136,432-432V432c0-238.5873-193.4136-432-432-432h0Z"/>
  </g>
  <rect x="108" y="108" width="4968" height="4104" rx="324" ry="324" fill="#006b54"/>
  <path class="a" d="M3196.5763,3388.2445c-21.086,21.086-55.2816,21.086-76.3675,0-3.4012-3.4012-6.2509-7.1417-8.5488-11.1086l-226.9177-377.093-814.587,890.9545-305.4701-305.4701,890.9545-814.587-377.0929-226.9177c-3.967-2.298-7.7075-5.1477-11.1087-8.5489-21.086-21.086-21.086-55.2816,0-76.3675,7.87-7.87,17.5574-12.8057,27.7186-14.7927.806-.1555,1061.9611-209.8552,1062.7816-210.0106,17.0624-3.3588,35.433,1.5768,48.6488,14.7926s18.1514,31.5864,14.7926,48.6488c-.1555.8204-209.8552,1061.9755-210.0107,1062.7815-1.9868,10.1614-6.9226,19.8487-14.7926,27.7187Z"/>
  <g id="EXIT">
    <path class="a" d="M1005.48,720h632.8456v154.6561h-474.6076v160.5958h258.5826v157.6799h-258.5826v236.412h489.8373v154.6561h-648.0753v-864Z"/>
    <path class="a" d="M2298.2821,1277.82l-191.8301,306.18h-182.7571l283.2087-454.788-258.798-409.212h185.6734l164.5032,263.7362,164.3953-263.7362h185.7823l-255.7743,409.212,283.2097,454.788h-182.6502l-194.9627-306.18Z"/>
    <path class="a" d="M3051.8899,720h155.5386v864h-155.5386v-864Z"/>
    <path class="a" d="M3930.1992,1584h-151.4341v-712.3682h-248.3208v-151.6318h648.0758v151.6318h-248.3208v712.3682Z"/>
  </g>
</svg>