<?xml version="1.0" encoding="UTF-8" standalone="no"?>
<!-- Created with Inkscape (http://www.inkscape.org/) -->

<svg
   width="65.710854mm"
   height="24.751945mm"
   viewBox="0 0 65.710854 24.751945"
   version="1.1"
   id="svg1"
   inkscape:version="1.3 (0e150ed, 2023-07-21)"
   sodipodi:docname="MUTCD_E1-1.svg"
   xmlns:inkscape="http://www.inkscape.org/namespaces/inkscape"
   xmlns:sodipodi="http://sodipodi.sourceforge.net/DTD/sodipodi-0.dtd"
   xmlns="http://www.w3.org/2000/svg"
   xmlns:svg="http://www.w3.org/2000/svg">
  <sodipodi:namedview
     id="namedview1"
     pagecolor="#ffffff"
     bordercolor="#666666"
     borderopacity="1.0"
     inkscape:showpageshadow="2"
     inkscape:pageopacity="0.0"
     inkscape:pagecheckerboard="0"
     inkscape:deskcolor="#d1d1d1"
     inkscape:document-units="mm"
     inkscape:zoom="0.2102413"
     inkscape:cx="126.04564"
     inkscape:cy="47.564393"
     inkscape:window-width="1440"
     inkscape:window-height="431"
     inkscape:window-x="0"
     inkscape:window-y="23"
     inkscape:window-maximized="0"
     inkscape:current-layer="layer1" />
  <defs
     id="defs1" />
  <g
     inkscape:label="Layer 1"
     inkscape:groupmode="layer"
     id="layer1"
     transform="translate(-72.231245,-135.99583)">
    <g
       id="g32"
       transform="matrix(0.26458333,0,0,0.26458333,-36.53727,20.661773)">
      <path
         id="path33"
         d="M 0,0 C -4.87,0 -8.832,3.963 -8.832,8.834 V 61.08 c 0,4.871 3.962,8.833 8.832,8.833 h 168.352 c 4.87,0 8.833,-3.962 8.833,-8.833 V 8.834 C 177.185,3.963 173.222,0 168.352,0 Z"
         style="fill:#ffffff;fill-opacity:1;fill-rule:nonzero;stroke:none"
         transform="matrix(1.3333333,0,0,-1.3333333,423.0356,529.29213)" />
    </g>
    <g
       id="g33"
       transform="matrix(0.26458333,0,0,0.26458333,-36.53727,20.661773)">
      <path
         id="path34"
         d="m 0,0 h -168.352 c -4.939,0 -8.957,-4.018 -8.957,-8.958 v -52.245 c 0,-4.941 4.018,-8.96 8.957,-8.96 H 0 c 4.939,0 8.958,4.019 8.958,8.96 V -8.958 C 8.958,-4.018 4.939,0 0,0 m 0,-0.25 c 4.79,0 8.708,-3.919 8.708,-8.708 v -52.245 c 0,-4.792 -3.918,-8.71 -8.708,-8.71 h -168.352 c -4.789,0 -8.707,3.918 -8.707,8.71 v 52.245 c 0,4.789 3.918,8.708 8.707,8.708 z"
         style="fill:#000000;fill-opacity:1;fill-rule:nonzero;stroke:none"
         transform="matrix(1.3333333,0,0,-1.3333333,647.5056,435.90827)" />
    </g>
    <g
       id="g34"
       transform="matrix(0.26458333,0,0,0.26458333,-36.53727,20.661773)">
      <path
         id="path35"
         d="M 0,0 C -0.909,0 -1.792,0.176 -2.624,0.532 -3.431,0.872 -4.156,1.364 -4.782,1.989 -5.407,2.617 -5.897,3.34 -6.24,4.147 -6.594,4.979 -6.772,5.863 -6.772,6.772 v 52.246 c 0,0.908 0.178,1.791 0.532,2.622 0.343,0.808 0.833,1.535 1.458,2.159 0.626,0.625 1.351,1.115 2.158,1.458 0.832,0.355 1.715,0.534 2.624,0.534 h 168.352 c 0.909,0 1.792,-0.179 2.624,-0.534 0.807,-0.343 1.533,-0.833 2.158,-1.458 0.625,-0.624 1.115,-1.351 1.457,-2.159 0.355,-0.831 0.533,-1.714 0.533,-2.622 V 6.772 c 0,-0.909 -0.178,-1.793 -0.533,-2.625 C 174.249,3.34 173.759,2.617 173.134,1.989 172.509,1.364 171.783,0.872 170.976,0.532 170.144,0.176 169.261,0 168.352,0 Z"
         style="fill:#006f51;fill-opacity:1;fill-rule:nonzero;stroke:none"
         transform="matrix(1.3333333,0,0,-1.3333333,423.0356,526.5424)" />
    </g>
    <g
       id="g35"
       transform="matrix(0.26458333,0,0,0.26458333,-36.53727,20.661773)">
      <path
         id="path36"
         d="M 0,0 -1.896,-4.332 H 1.732 Z M 4.439,-11.044 2.977,-7.419 H -3.14 l -1.462,-3.625 h -3.303 l 6.227,15.48 h 3.193 l 6.227,-15.48 z"
         style="fill:#ffffff;fill-opacity:1;fill-rule:nonzero;stroke:none"
         transform="matrix(1.3333333,0,0,-1.3333333,585.9636,462.80067)" />
    </g>
    <g
       id="g36"
       transform="matrix(0.26458333,0,0,0.26458333,-36.53727,20.661773)">
      <path
         id="path37"
         d="M 0,0 V 15.48 H 3.027 V 2.923 h 8.436 V 0 Z"
         style="fill:#ffffff;fill-opacity:1;fill-rule:nonzero;stroke:none"
         transform="matrix(1.3333333,0,0,-1.3333333,437.90627,477.52587)" />
    </g>
    <g
       id="g37"
       transform="matrix(0.26458333,0,0,0.26458333,-36.53727,20.661773)">
      <path
         id="path38"
         d="m 0,0 c -0.925,-0.65 -2.067,-1.029 -3.208,-1.029 -3.21,0 -5.821,2.438 -5.821,5.849 0,3.356 2.611,5.845 5.821,5.845 1.306,0 2.664,-0.487 3.589,-1.354 C 0.653,9.095 0.816,8.877 1.196,8.444 L -0.87,5.902 c -0.435,1.189 -1.305,1.839 -2.338,1.839 -1.469,0 -2.775,-1.246 -2.775,-2.921 0,-1.68 1.306,-2.926 2.775,-2.926 0.923,0 1.63,0.435 2.229,1.462 L 1.196,1.191 C 0.708,0.596 0.489,0.324 0,0"
         style="fill:#ffffff;fill-opacity:1;fill-rule:nonzero;stroke:none"
         transform="matrix(1.3333333,0,0,-1.3333333,502.18613,476.3716)" />
    </g>
    <g
       id="g38"
       transform="matrix(0.26458333,0,0,0.26458333,-36.53727,20.661773)">
      <path
         id="path39"
         d="M 0,0 C -0.817,0 -1.577,-0.543 -1.904,-1.568 H 1.794 C 1.36,-0.434 0.869,0 0,0 m -2.067,-4.114 c 0.326,-1.299 1.25,-2.057 2.23,-2.057 0.653,0 1.251,0.379 1.74,1.029 L 4.024,-6.983 C 2.882,-8.336 1.686,-8.932 0.163,-8.932 c -2.882,0 -5.386,2.547 -5.386,5.848 0,3.247 2.448,5.845 5.223,5.845 1.849,0 3.535,-1.136 4.351,-2.924 0.436,-1.027 0.652,-2.112 0.652,-3.517 v -0.434 z"
         style="fill:#ffffff;fill-opacity:1;fill-rule:nonzero;stroke:none"
         transform="matrix(1.3333333,0,0,-1.3333333,625.96373,465.83333)" />
    </g>
    <g
       id="g39"
       transform="matrix(0.26458333,0,0,0.26458333,-36.53727,20.661773)">
      <path
         id="path40"
         d="M 0,0 C -0.815,0 -1.466,0.705 -1.466,1.516 -1.466,2.383 -0.815,3.03 0,3.03 0.869,3.03 1.521,2.383 1.521,1.516 1.521,0.705 0.869,0 0,0 M -1.52,-1.408 H 1.576 V -12.666 H -1.52 Z"
         style="fill:#ffffff;fill-opacity:1;fill-rule:nonzero;stroke:none"
         transform="matrix(1.3333333,0,0,-1.3333333,459.75933,460.63773)" />
    </g>
    <g
       id="g40"
       transform="matrix(0.26458333,0,0,0.26458333,-36.53727,20.661773)">
      <path
         id="path41"
         d="m 0,0 v 14.506 l 3.095,1.19 V 0 Z"
         style="fill:#ffffff;fill-opacity:1;fill-rule:nonzero;stroke:none"
         transform="matrix(1.3333333,0,0,-1.3333333,528.76467,477.52587)" />
    </g>
    <g
       id="g41"
       transform="matrix(0.26458333,0,0,0.26458333,-36.53727,20.661773)">
      <path
         id="path42"
         d="m 0,0 v 6.767 c 0,1.029 -0.708,1.841 -1.904,1.841 -1.088,0 -2.175,-0.867 -2.175,-1.788 V 0 h -3.1 v 11.257 h 3.1 v -0.593 c 1.033,0.649 2.012,0.865 3.046,0.865 2.337,0 4.078,-1.623 4.078,-3.788 L 3.045,0 Z"
         style="fill:#ffffff;fill-opacity:1;fill-rule:nonzero;stroke:none"
         transform="matrix(1.3333333,0,0,-1.3333333,479.68947,477.41733)" />
    </g>
    <g
       id="g42"
       transform="matrix(0.26458333,0,0,0.26458333,-36.53727,20.661773)">
      <path
         id="path43"
         d="M 0,0 V 6.767 C 0,7.796 -0.708,8.608 -1.904,8.608 -2.992,8.608 -4.08,7.741 -4.08,6.82 V 0 h -3.101 v 11.257 h 3.101 v -0.593 c 1.035,0.649 2.013,0.865 3.047,0.865 2.337,0 4.078,-1.623 4.078,-3.788 L 3.045,0 Z"
         style="fill:#ffffff;fill-opacity:1;fill-rule:nonzero;stroke:none"
         transform="matrix(1.3333333,0,0,-1.3333333,550.722,477.41733)" />
    </g>
    <g
       id="g43"
       transform="matrix(0.26458333,0,0,0.26458333,-36.53727,20.661773)">
      <path
         id="path44"
         d="m 0,0 c -1.195,0 -2.119,-1.299 -2.119,-2.979 0,-1.622 0.924,-2.921 2.119,-2.921 1.14,0 2.171,1.299 2.171,2.921 C 2.171,-1.299 1.14,0 0,0 m 0,-8.824 c -2.824,0 -5.214,2.597 -5.214,5.845 0,3.358 2.281,5.9 5.214,5.9 2.714,0 5.321,-2.652 5.321,-5.9 0,-3.248 -2.552,-5.845 -5.321,-5.845"
         style="fill:#ffffff;fill-opacity:1;fill-rule:nonzero;stroke:none"
         transform="matrix(1.3333333,0,0,-1.3333333,515.2712,465.93973)" />
    </g>
    <g
       id="g44"
       transform="matrix(0.26458333,0,0,0.26458333,-36.53727,20.661773)">
      <path
         id="path45"
         d="m 0,0 h -3.431 l -4.25,11.257 h 3.215 l 2.833,-7.198 2.613,7.198 h 3.268 z"
         style="fill:#ffffff;fill-opacity:1;fill-rule:nonzero;stroke:none"
         transform="matrix(1.3333333,0,0,-1.3333333,609.20907,477.41733)" />
    </g>
    <g
       id="g45"
       transform="matrix(0.26458333,0,0,0.26458333,-36.53727,20.661773)">
      <path
         id="path46"
         d="M 0,0 V 9.677 H 7.086 V 7.944 H 1.771 V 6.146 H 4.667 V 4.378 H 1.771 V 1.731 H 7.257 V 0 Z"
         style="fill:#ffffff;fill-opacity:1;fill-rule:nonzero;stroke:none"
         transform="matrix(1.3333333,0,0,-1.3333333,598.71733,509.12987)" />
    </g>
    <g
       id="g46"
       transform="matrix(0.26458333,0,0,0.26458333,-36.53727,20.661773)">
      <path
         id="path47"
         d="m 435.88,419.829 h 1.741 v -9.677 h -1.741 z"
         style="fill:#ffffff;fill-opacity:1;fill-rule:nonzero;stroke:none"
         transform="matrix(1.3333333,0,0,-1.3333333,0,1056)" />
      <path
         id="path48"
         d="M 0,0 V 9.677 H 1.738 V 1.495 H 7.257 V 0 Z"
         style="fill:#ffffff;fill-opacity:1;fill-rule:nonzero;stroke:none"
         transform="matrix(1.3333333,0,0,-1.3333333,586.8476,509.12987)" />
    </g>
    <g
       id="g48"
       transform="matrix(0.26458333,0,0,0.26458333,-36.53727,20.661773)">
      <path
         id="path49"
         d="M 0,0 V 5.907 L -2.863,0 -5.692,5.907 V 0 h -1.705 v 9.677 h 1.705 L -2.863,3.936 0,9.677 H 1.703 V 0 Z"
         style="fill:#ffffff;fill-opacity:1;fill-rule:nonzero;stroke:none"
         transform="matrix(1.3333333,0,0,-1.3333333,575.5472,509.12987)" />
    </g>
    <g
       id="g49"
       transform="matrix(0.26458333,0,0,0.26458333,-36.53727,20.661773)">
      <path
         id="path50"
         d="M 0,0 0.035,7.229 H -1.181 L -1.215,8.62 c 0.743,0.171 1.149,0.443 1.519,1.055 H 1.689 V 0 Z"
         style="fill:#ffffff;fill-opacity:1;fill-rule:nonzero;stroke:none"
         transform="matrix(1.3333333,0,0,-1.3333333,522.78893,505.90227)" />
    </g>
    <g
       id="g50"
       transform="matrix(0.26458333,0,0,0.26458333,-36.53727,20.661773)">
      <path
         id="path51"
         d="m 0,0 c 0,1.153 0.238,2.002 0.784,2.954 0.853,1.426 2.08,2.308 3.854,2.781 1.09,0.308 1.466,0.647 1.466,1.223 0,0.713 -0.683,1.122 -1.91,1.122 -1.261,0 -2.183,-0.308 -3,-1.054 L 0,8.351 c 1.124,0.985 2.523,1.493 4.091,1.493 2.285,0 3.75,-1.119 3.75,-2.886 C 7.841,6.143 7.501,5.397 6.853,4.855 6.546,4.616 6.104,4.38 5.421,4.175 4.125,3.802 3.75,3.632 3.17,3.122 2.727,2.748 2.455,2.374 2.113,1.73 H 7.841 V 0 Z"
         style="fill:#ffffff;fill-opacity:1;fill-rule:nonzero;stroke:none"
         transform="matrix(1.3333333,0,0,-1.3333333,535.87813,512.3532)" />
    </g>
    <g
       id="g51"
       transform="matrix(0.26458333,0,0,0.26458333,-36.53727,20.661773)">
      <path
         id="path52"
         d="M 0,0 H -1.73 L 6.71,14.513 H 8.438 Z"
         style="fill:#ffffff;fill-opacity:1;fill-rule:nonzero;stroke:none"
         transform="matrix(1.3333333,0,0,-1.3333333,526.3224,512.3532)" />
    </g>
    <g
       id="g52"
       transform="matrix(0.26458333,0,0,0.26458333,-36.53727,20.661773)">
      <path
         id="path53"
         d="M 0,0 V 9.677 H 7.086 V 7.944 H 1.771 V 6.146 H 4.667 V 4.378 H 1.771 V 1.731 H 7.257 V 0 Z"
         style="fill:#ffffff;fill-opacity:1;fill-rule:nonzero;stroke:none"
         transform="matrix(1.3333333,0,0,-1.3333333,462.14853,509.12987)" />
    </g>
    <g
       id="g53"
       transform="matrix(0.26458333,0,0,0.26458333,-36.53727,20.661773)">
      <path
         id="path54"
         d="m 365.581,419.829 h 1.741 v -9.677 h -1.741 z"
         style="fill:#ffffff;fill-opacity:1;fill-rule:nonzero;stroke:none"
         transform="matrix(1.3333333,0,0,-1.3333333,0,1056)" />
      <path
         id="path55"
         d="M 0,0 V -7.978 H -1.696 V 0 h -2.78 V 1.698 H 2.78 V 0 Z"
         style="fill:#ffffff;fill-opacity:1;fill-rule:nonzero;stroke:none"
         transform="matrix(1.3333333,0,0,-1.3333333,497.92387,498.492)" />
    </g>
    <g
       id="g55"
       transform="matrix(0.26458333,0,0,0.26458333,-36.53727,20.661773)">
      <path
         id="path56"
         d="M 0,0 -2.182,3.429 -4.331,0 h -2.045 l 3.17,5.092 -2.898,4.585 h 2.081 l 1.841,-2.955 1.841,2.955 H 1.74 L -1.126,5.092 2.046,0 Z"
         style="fill:#ffffff;fill-opacity:1;fill-rule:nonzero;stroke:none"
         transform="matrix(1.3333333,0,0,-1.3333333,482.132,509.12987)" />
    </g>
  </g>
</svg>
