<?xml version="1.0" encoding="UTF-8" standalone="no"?>
<!-- Created with Inkscape (http://www.inkscape.org/) -->

<svg
   width="57.532055mm"
   height="18.612202mm"
   viewBox="0 0 57.532055 18.612202"
   version="1.1"
   id="svg1"
   inkscape:version="1.3 (0e150ed, 2023-07-21)"
   sodipodi:docname="MUTCD_E1-5jP.svg"
   xmlns:inkscape="http://www.inkscape.org/namespaces/inkscape"
   xmlns:sodipodi="http://sodipodi.sourceforge.net/DTD/sodipodi-0.dtd"
   xmlns="http://www.w3.org/2000/svg"
   xmlns:svg="http://www.w3.org/2000/svg">
  <sodipodi:namedview
     id="namedview1"
     pagecolor="#ffffff"
     bordercolor="#666666"
     borderopacity="1.0"
     inkscape:showpageshadow="2"
     inkscape:pageopacity="0.0"
     inkscape:pagecheckerboard="0"
     inkscape:deskcolor="#d1d1d1"
     inkscape:document-units="mm"
     inkscape:zoom="1"
     inkscape:cx="107.5"
     inkscape:cy="34"
     inkscape:window-width="1440"
     inkscape:window-height="431"
     inkscape:window-x="0"
     inkscape:window-y="23"
     inkscape:window-maximized="0"
     inkscape:current-layer="layer1" />
  <defs
     id="defs1" />
  <g
     inkscape:label="Layer 1"
     inkscape:groupmode="layer"
     id="layer1"
     transform="translate(-76.199994,-139.17083)">
    <g
       id="g284"
       transform="matrix(0.26458333,0,0,0.26458333,-40.23364,-74.336277)">
      <path
         id="path285"
         d="M 0,0 C -1.67,0 -3.028,1.358 -3.028,3.028 V 49.48 c 0,1.67 1.358,3.029 3.028,3.029 h 156.776 c 1.67,0 3.029,-1.359 3.029,-3.029 V 3.028 C 159.805,1.358 158.446,0 156.776,0 Z"
         style="fill:#ffffff;fill-opacity:1;fill-rule:nonzero;stroke:none"
         transform="matrix(1.3333333,0,0,-1.3333333,444.26813,877.13467)" />
    </g>
    <g
       id="g285"
       transform="matrix(0.26458333,0,0,0.26458333,-40.23364,-74.336277)">
      <path
         id="path286"
         d="m 0,0 h -156.777 c -1.738,0 -3.153,-1.415 -3.153,-3.153 v -46.453 c 0,-1.738 1.415,-3.153 3.153,-3.153 H 0 c 1.739,0 3.153,1.415 3.153,3.153 V -3.153 C 3.153,-1.415 1.739,0 0,0 m 0,-0.25 c 1.603,0 2.903,-1.3 2.903,-2.903 v -46.453 c 0,-1.603 -1.3,-2.903 -2.903,-2.903 h -156.777 c -1.603,0 -2.903,1.3 -2.903,2.903 v 46.453 c 0,1.603 1.3,2.903 2.903,2.903 z"
         style="fill:#000000;fill-opacity:1;fill-rule:nonzero;stroke:none"
         transform="matrix(1.3333333,0,0,-1.3333333,653.30413,806.956)" />
    </g>
    <g
       id="g286"
       transform="matrix(0.26458333,0,0,0.26458333,-40.23364,-74.336277)">
      <path
         id="path287"
         d="m 0,0 v 46.452 c 0,0.534 0.434,0.968 0.968,0.968 h 156.776 c 0.534,0 0.968,-0.434 0.968,-0.968 V 0 c 0,-0.534 -0.434,-0.968 -0.968,-0.968 H 0.968 C 0.434,-0.968 0,-0.534 0,0"
         style="fill:#006f51;fill-opacity:1;fill-rule:nonzero;stroke:none"
         transform="matrix(1.3333333,0,0,-1.3333333,442.97787,873.0968)" />
      <path
         id="path288"
         d="m 0,0 c 0,-1.002 -0.812,-1.815 -1.815,-1.815 h -54.436 c -1.002,0 -1.814,0.813 -1.814,1.815 v 13.791 c 0,1.002 0.812,1.814 1.814,1.814 H -1.815 C -0.812,15.605 0,14.793 0,13.791 Z"
         style="fill:#ffd046;fill-opacity:1;fill-rule:nonzero;stroke:none"
         transform="matrix(1.3333333,0,0,-1.3333333,524.91467,837.77373)" />
    </g>
    <g
       id="g288"
       transform="matrix(0.26458333,0,0,0.26458333,-40.23364,-74.336277)">
      <path
         id="path289"
         d="M 0,0 V 11.613 H 8.505 V 9.535 H 2.126 V 7.375 H 5.602 V 5.256 H 2.126 V 2.078 H 8.71 V 0 Z"
         style="fill:#000000;fill-opacity:1;fill-rule:nonzero;stroke:none"
         transform="matrix(1.3333333,0,0,-1.3333333,473.52667,836.32213)" />
      <path
         id="path290"
         d="M 0,0 V -2.363 H 3.639 V -4.482 H 0 V -9.535 H -2.126 V 2.078 H 6.583 V 0 Z"
         style="fill:#000000;fill-opacity:1;fill-rule:nonzero;stroke:none"
         transform="matrix(1.3333333,0,0,-1.3333333,491.84613,823.6088)" />
    </g>
    <g
       id="g290"
       transform="matrix(0.26458333,0,0,0.26458333,-40.23364,-74.336277)">
      <path
         id="path291"
         d="M 0,0 V 11.613 H 2.085 V 1.793 H 8.71 V 0 Z"
         style="fill:#000000;fill-opacity:1;fill-rule:nonzero;stroke:none"
         transform="matrix(1.3333333,0,0,-1.3333333,458.6232,836.32213)" />
    </g>
    <g
       id="g291"
       transform="matrix(0.26458333,0,0,0.26458333,-40.23364,-74.336277)">
      <path
         id="path292"
         d="M 0,0 V -9.576 H -2.035 V 0 H -5.372 V 2.037 H 3.337 V 0 Z"
         style="fill:#000000;fill-opacity:1;fill-rule:nonzero;stroke:none"
         transform="matrix(1.3333333,0,0,-1.3333333,509.3356,823.5544)" />
    </g>
    <g
       id="g292"
       transform="matrix(0.26458333,0,0,0.26458333,-40.23364,-74.336277)">
      <path
         id="path293"
         d="m 452.012,149.987 h 7.258 v -2.598 h -7.258 z"
         style="fill:#ffffff;fill-opacity:1;fill-rule:nonzero;stroke:none"
         transform="matrix(1.3333333,0,0,-1.3333333,0,1056)" />
      <path
         id="path294"
         d="m 0,0 v -3.82 h 4.143 c 1.381,0 2.353,0.77 2.353,1.833 C 6.496,-0.866 5.473,0 4.143,0 Z M 0,5.5 V 2.597 h 4.143 c 1.125,0 1.892,0.611 1.892,1.477 C 6.035,4.939 5.319,5.5 4.143,5.5 Z M 7.213,1.274 c 1.279,-0.917 1.893,-2.038 1.893,-3.413 0,-2.403 -2.08,-4.279 -4.452,-4.279 H -2.66 V 8.098 h 7.202 c 2.951,0 4.103,-2.313 4.103,-3.819 0,-1.172 -0.459,-2.19 -1.432,-3.005"
         style="fill:#ffffff;fill-opacity:1;fill-rule:nonzero;stroke:none"
         transform="matrix(1.3333333,0,0,-1.3333333,625.58467,858.73293)" />
    </g>
    <g
       id="g294"
       transform="matrix(0.26458333,0,0,0.26458333,-40.23364,-74.336277)">
      <path
         id="path295"
         d="M 0,0 H 7.087 V -1.732 H 1.772 V -3.531 H 4.668 V -5.297 H 1.772 V -7.945 H 7.258 V -9.678 H 0 Z"
         style="fill:#ffffff;fill-opacity:1;fill-rule:nonzero;stroke:none"
         transform="matrix(1.3333333,0,0,-1.3333333,459.8464,851.16107)" />
      <path
         id="path296"
         d="m 0,0 -2.148,-3.429 h -2.047 l 3.172,5.094 -2.899,4.583 h 2.08 L 0,3.294 1.841,6.248 H 3.922 L 1.057,1.665 4.229,-3.429 H 2.183 Z"
         style="fill:#ffffff;fill-opacity:1;fill-rule:nonzero;stroke:none"
         transform="matrix(1.3333333,0,0,-1.3333333,477.28533,859.49173)" />
      <path
         id="path297"
         d="m 364.516,153.629 h 1.742 v -9.678 h -1.742 z"
         style="fill:#ffffff;fill-opacity:1;fill-rule:nonzero;stroke:none"
         transform="matrix(1.3333333,0,0,-1.3333333,0,1056)" />
      <path
         id="path298"
         d="M 0,0 H -1.696 V 7.979 H -4.477 V 9.678 H 2.781 V 7.979 H 0 Z"
         style="fill:#ffffff;fill-opacity:1;fill-rule:nonzero;stroke:none"
         transform="matrix(1.3333333,0,0,-1.3333333,496.94547,864.06453)" />
      <path
         id="path299"
         d="m 0,0 c -0.682,-0.413 -1.564,-0.654 -2.454,-0.654 -1.671,0 -2.934,0.619 -4.025,1.893 l 1.398,1.102 c 0.717,-0.86 1.5,-1.24 2.592,-1.24 1.227,0 2.114,0.577 2.114,1.274 0,0.983 -0.981,1.05 -3.689,1.811 -1.362,0.382 -1.972,1.418 -1.972,2.458 0,1.619 1.366,2.719 3.342,2.719 1.432,0 2.629,-0.48 3.616,-1.512 L -0.375,6.68 c -0.613,0.654 -1.398,0.964 -2.319,0.964 -1.061,0 -1.568,-0.431 -1.568,-0.987 0,-1.073 1.318,-0.836 3.725,-1.684 C 1.162,4.373 1.364,2.921 1.364,2.307 1.364,1.309 0.921,0.55 0,0"
         style="fill:#ffffff;fill-opacity:1;fill-rule:nonzero;stroke:none"
         transform="matrix(1.3333333,0,0,-1.3333333,510.99587,863.4208)" />
      <path
         id="path300"
         d="m 0,0 v 2.598 h 0.613 c 1.125,0 1.945,0.612 1.945,1.427 0,0.865 -1.023,1.527 -2.558,1.527 -1.228,0 -2.353,-0.509 -3.223,-1.426 l -1.943,1.782 c 1.432,1.477 3.223,2.239 5.32,2.239 2.916,0 5.064,-1.733 5.064,-4.075 0,-0.967 -0.308,-1.628 -1.177,-2.749 1.432,-1.274 1.842,-2.038 1.842,-3.413 0,-2.7 -2.508,-4.789 -5.781,-4.789 -1.183,0 -3.713,0.142 -5.985,2.954 l 2.098,1.579 c 1.023,-1.325 2.352,-1.884 4.041,-1.884 1.791,0 3.017,0.815 3.017,2.038 C 3.273,-1.844 3.056,0 0.717,0 Z"
         style="fill:#ffffff;fill-opacity:1;fill-rule:nonzero;stroke:none"
         transform="matrix(1.3333333,0,0,-1.3333333,540.0132,858.46187)" />
      <path
         id="path301"
         d="m 0,0 v 2.598 h 0.613 c 1.125,0 1.945,0.612 1.945,1.427 0,0.865 -1.023,1.527 -2.558,1.527 -1.228,0 -2.353,-0.509 -3.223,-1.426 l -1.943,1.782 c 1.432,1.477 3.223,2.239 5.32,2.239 2.916,0 5.065,-1.733 5.065,-4.075 0,-0.967 -0.309,-1.628 -1.178,-2.749 1.432,-1.274 1.842,-2.038 1.842,-3.413 0,-2.7 -2.508,-4.789 -5.781,-4.789 -1.183,0 -3.713,0.142 -5.985,2.954 l 2.098,1.579 c 1.023,-1.325 2.352,-1.884 4.041,-1.884 1.791,0 3.017,0.815 3.017,2.038 C 3.273,-1.844 3.056,0 0.717,0 Z"
         style="fill:#ffffff;fill-opacity:1;fill-rule:nonzero;stroke:none"
         transform="matrix(1.3333333,0,0,-1.3333333,558.95267,858.46187)" />
      <path
         id="path302"
         d="M 0,0 H 4.074 L 2.038,4.89 Z M 5.195,-2.597 H -1.12 L -2.546,-6.01 h -2.85 L 0.715,8.507 H 3.362 L 9.421,-6.01 H 6.619 Z"
         style="fill:#ffffff;fill-opacity:1;fill-rule:nonzero;stroke:none"
         transform="matrix(1.3333333,0,0,-1.3333333,583.66933,859.2772)" />
    </g>
  </g>
</svg>
