<?xml version="1.0" encoding="UTF-8" standalone="no"?>
<!-- Created with Inkscape (http://www.inkscape.org/) -->

<svg
   width="97.500305mm"
   height="26.062813mm"
   viewBox="0 0 97.500305 26.062813"
   version="1.1"
   id="svg1"
   inkscape:version="1.3 (0e150ed, 2023-07-21)"
   sodipodi:docname="MUTCD-OH_D5-H41.svg"
   xmlns:inkscape="http://www.inkscape.org/namespaces/inkscape"
   xmlns:sodipodi="http://sodipodi.sourceforge.net/DTD/sodipodi-0.dtd"
   xmlns="http://www.w3.org/2000/svg"
   xmlns:svg="http://www.w3.org/2000/svg">
  <sodipodi:namedview
     id="namedview1"
     pagecolor="#ffffff"
     bordercolor="#666666"
     borderopacity="1.0"
     inkscape:showpageshadow="2"
     inkscape:pageopacity="0.0"
     inkscape:pagecheckerboard="0"
     inkscape:deskcolor="#d1d1d1"
     inkscape:document-units="mm"
     inkscape:zoom="3.3638608"
     inkscape:cx="139.27449"
     inkscape:cy="35.673295"
     inkscape:window-width="1440"
     inkscape:window-height="855"
     inkscape:window-x="0"
     inkscape:window-y="23"
     inkscape:window-maximized="1"
     inkscape:current-layer="layer1" />
  <defs
     id="defs1" />
  <g
     inkscape:label="Layer 1"
     inkscape:groupmode="layer"
     id="layer1"
     transform="translate(-55.827081,-135.46666)">
    <path
       id="path1"
       style="fill:#ffffff;stroke:none;stroke-width:0.169333;stroke-linecap:square;stroke-linejoin:miter;stroke-miterlimit:1.414;stroke-dasharray:none;stroke-opacity:1"
       d="M 68.858485,161.40973 H 140.26071 L 153.20765,148.49807 140.26071,135.5864 H 68.858485 l -12.911667,12.91167 z"
       sodipodi:nodetypes="ccccccc" />
    <path
       id="path120"
       style="fill:none;stroke:#000000;stroke-width:0.169333;stroke-linecap:square;stroke-linejoin:miter;stroke-miterlimit:1.414;stroke-dasharray:none;stroke-opacity:1"
       d="M 68.858485,161.40973 H 140.26071 L 153.20765,148.49807 140.26071,135.5864 H 68.858485 l -12.911667,12.91167 z"
       sodipodi:nodetypes="ccccccc" />
    <path
       id="path121"
       d="m 57.534318,148.49807 11.782777,-11.78278 h 70.484995 l 11.78278,11.78278 -11.78278,11.78278 H 69.317095 L 57.534318,148.49807"
       style="fill:#003f87;fill-opacity:1;fill-rule:evenodd;stroke:none;stroke-width:0.352778" />
    <path
       id="path122"
       d="m 134.65154,154.60112 h -1.79917 l -4.86833,-8.255 v 8.255 h -2.04611 v -12.17083 h 2.04611 l 4.65667,7.76111 v -7.76111 h 2.01083 v 12.17083"
       style="fill:#ffffff;fill-opacity:1;fill-rule:evenodd;stroke:none;stroke-width:0.352778" />
    <path
       id="path123"
       d="m 122.51598,154.60112 h -7.9375 v -12.13555 h 7.54944 v 1.90499 h -5.53861 v 2.99862 h 3.73945 v 1.94027 h -3.73945 v 3.31611 h 5.92667 v 1.97556"
       style="fill:#ffffff;fill-opacity:1;fill-rule:evenodd;stroke:none;stroke-width:0.352778" />
    <path
       id="path124"
       d="m 111.22709,154.60112 h -2.04611 v -7.05556 l -2.96333,7.05556 -2.96334,-7.05556 v 7.05556 h -2.01083 v -12.17083 h 2.01083 l 2.96334,6.84389 2.96333,-6.84389 h 2.04611 v 12.17083"
       style="fill:#ffffff;fill-opacity:1;fill-rule:evenodd;stroke:none;stroke-width:0.352778" />
    <path
       id="path125"
       d="m 86.109318,142.43029 -1.869722,12.17083 h -1.799167 l -2.046111,-7.79639 -1.940277,7.79639 h -1.799167 l -1.905,-12.17083 h 2.081389 l 0.987778,6.42056 1.622777,-6.42056 h 1.975556 l 1.658055,6.42056 0.987778,-6.42056 h 2.046111"
       style="fill:#ffffff;fill-opacity:1;fill-rule:evenodd;stroke:none;stroke-width:0.352778" />
    <path
       id="path126"
       d="m 93.411818,154.81279 c -1.516944,0 -2.645833,-0.56444 -3.457222,-1.62278 -0.811389,-1.09361 -1.234722,-2.64583 -1.234722,-4.69194 0,-1.97556 0.423333,-3.4925 1.234722,-4.58611 0.811389,-1.12889 1.940278,-1.65806 3.457222,-1.65806 1.516944,0 2.681111,0.52917 3.4925,1.65806 0.811389,1.09361 1.199444,2.61055 1.199444,4.58611 0,2.04611 -0.388055,3.59833 -1.199444,4.69194 -0.811389,1.05834 -1.975556,1.62278 -3.4925,1.62278 m 0,-10.65389 c -0.881944,0 -1.552222,0.42333 -1.940278,1.19945 -0.423333,0.81138 -0.635,1.83444 -0.635,3.10444 0,1.44639 0.211667,2.50472 0.599723,3.24556 0.388055,0.74083 1.058333,1.09361 1.975555,1.09361 0.987778,-0.0353 1.658055,-0.38806 2.010833,-1.12889 0.352778,-0.74084 0.564445,-1.79917 0.599722,-3.21028 -0.03528,-1.34056 -0.246944,-2.39889 -0.635,-3.10444 -0.423333,-0.74084 -1.058333,-1.12889 -1.975555,-1.19945"
       style="fill:#ffffff;fill-opacity:1;fill-rule:evenodd;stroke:none;stroke-width:0.352778" />
  </g>
</svg>
