<svg width="6278.633" height="6278.633" viewBox="0 0 1661.222 1661.222" xmlns="http://www.w3.org/2000/svg">
    <g transform="rotate(-135 432.366 320.394)">
        <rect style="opacity:1;fill:#dd7500;fill-opacity:1;fill-rule:nonzero;stroke:none;stroke-width:8.763;stroke-linecap:round;stroke-linejoin:round;stroke-miterlimit:4;stroke-dasharray:none;stroke-opacity:1" x="-819.612" y="-368.382" rx="76.2" ry="76.2" height="1219.2" width="1219.2"/>
        <rect width="1149.35" height="1149.35" ry="41.275" rx="41.275" y="-333.457" x="-784.687" style="opacity:1;fill:none;fill-opacity:1;fill-rule:nonzero;stroke:#000;stroke-width:31.75;stroke-linecap:round;stroke-linejoin:round;stroke-miterlimit:4;stroke-dasharray:none;stroke-opacity:1"/>
    </g>
    <path d="M176.785 449.996H141.58V581.06H117.5V449.996H82.602V428.66h94.184zM303.276 581.06h-26.06l-24.841-66.294H223.57v66.294h-23.927v-152.4h50.14q17.221 0 27.432 4.877 9.906 5.03 16.307 15.697 6.553 10.668 6.553 22.25 0 12.04-6.553 22.86-6.401 10.821-16.917 15.698zm-27.432-109.575q0-10.973-9.448-16.002-5.03-2.896-14.021-2.896H223.57v37.643h28.804q9.449 0 14.02-2.59 9.45-4.878 9.45-16.155zM432.816 526.5q0 16.155-7.01 31.547-5.944 11.278-18.593 18.44-12.497 7.163-26.365 7.163-13.868 0-26.365-7.163-12.497-7.162-18.593-18.44-6.858-14.935-6.706-31.547v-97.84h23.927v97.84q0 14.935 7.62 23.775 7.62 8.839 20.117 8.839t20.117-8.84q7.772-8.839 7.772-23.774v-97.84h24.08zm137.312 23.47q-13.868 33.68-45.872 33.68-32.918 0-46.787-27.127-11.277-21.184-11.125-51.968 0-18.288 4.572-34.748 4.572-16.611 12.65-26.517 14.02-17.221 38.861-17.221 17.221 0 28.651 7.467 11.583 7.315 19.05 23.47l-22.402 9.753q-6.554-9.6-11.735-12.801-5.03-3.353-13.564-3.353-18.288 0-25.603 18.745-5.791 14.326-5.791 35.205 0 27.736 9.449 42.824 7.62 11.735 23.012 11.735 15.088 0 23.774-17.679zm139.75 31.09h-27.736l-38.557-72.086-16.002 19.66v52.425h-23.927v-152.4h23.927v60.503l48.158-60.503h30.938l-46.94 59.436zm118.873-43.892q0 21.336-14.935 34.747-13.26 11.735-33.071 11.735-19.05 0-33.528-10.21-14.326-10.364-22.098-28.195l22.86-8.534q10.21 22.403 32.766 22.403 10.21 0 16.764-6.401 6.705-6.4 6.705-16.002 0-5.791-2.438-10.21-2.286-4.42-7.468-7.468-5.029-3.2-9.296-5.03-4.267-1.828-12.344-4.572-7.925-2.743-11.888-4.267-29.565-11.735-29.413-37.947 0-21.336 12.802-31.242 12.954-9.906 34.9-9.906 30.48 0 43.129 30.937l-21.489 6.248q-.457-1.371-1.981-3.505-1.372-2.134-7.163-5.791-5.639-3.658-13.259-3.963-9.906-.457-17.068 3.963-7.163 4.42-6.401 13.868.457 7.62 8.23 12.192 7.924 4.42 18.592 7.468 10.82 3.048 21.489 7.467 10.668 4.42 18.135 14.936 7.468 10.515 7.468 27.28z" style="font-size:266.7px;line-height:1.25;font-family:'Roadgeek 2014 Series D';-inkscape-font-specification:'Roadgeek 2014 Series D';text-align:center;text-anchor:middle;stroke-width:19.05" aria-label="TRUCKS" transform="translate(373.41 249.545)"/>
    <path d="M308.763 270.47q0 21.335-14.935 34.746-13.26 11.735-33.071 11.735-19.05 0-33.528-10.21-14.326-10.364-22.098-28.195l22.86-8.534q10.21 22.403 32.766 22.403 10.21 0 16.764-6.401 6.706-6.4 6.706-16.002 0-5.791-2.439-10.21-2.286-4.42-7.467-7.468-5.03-3.2-9.297-5.03-4.267-1.828-12.344-4.572-7.925-2.743-11.887-4.267-29.566-11.735-29.414-37.947 0-21.336 12.802-31.242 12.954-9.906 34.9-9.906 30.48 0 43.129 30.937l-21.489 6.248q-.457-1.371-1.98-3.505-1.373-2.134-7.164-5.791-5.639-3.658-13.259-3.963-9.906-.457-17.068 3.963-7.163 4.42-6.401 13.868.457 7.62 8.23 12.192 7.924 4.42 18.592 7.468 10.82 3.048 21.489 7.467 10.668 4.42 18.135 14.936 7.468 10.515 7.468 27.28zm120.396 43.89H334.67v-152.4h23.926v129.998h70.562zm127.863-75.895q0 18.593-4.42 35.205-4.267 16.611-12.04 26.365-12.496 16.916-37.033 16.916-15.85 0-26.517-6.553-10.668-6.553-17.374-20.574-10.668-20.879-10.668-51.359 0-38.405 16.612-61.874 13.259-17.221 38.862-17.221 28.194 0 42.367 27.28 10.21 21.03 10.21 51.815zm-24.08 0q0-27.432-9.143-42.824-6.249-10.973-19.812-11.735-16.917-.762-24.537 18.745-5.791 14.326-5.791 35.814 0 27.89 8.992 42.215 6.858 11.735 20.878 11.735 15.85 0 23.47-19.355 5.944-15.24 5.944-34.595zm179.375-76.505-22.402 152.4h-21.489l-24.231-97.84-23.47 97.84h-21.488l-22.403-152.4h24.841l11.735 80.315 19.05-80.315h23.774l19.507 80.315 11.735-80.315z" style="font-size:266.7px;line-height:1.25;font-family:'Roadgeek 2014 Series D';-inkscape-font-specification:'Roadgeek 2014 Series D';text-align:center;text-anchor:middle;stroke-width:19.05" aria-label="SLOW" transform="translate(373.41 249.545)"/>
    <path d="M95.251 847.76H.763v-152.4h89.764v23.927H24.69v37.643h44.5v24.536h-44.5v41.758H95.25zm129.54 0h-21.489l-58.217-103.174V847.76H121.16v-152.4h23.926l55.626 97.384V695.36h24.08zm117.043-131.064h-35.205V847.76h-24.08V716.696H247.65V695.36h94.184zM459.18 847.76h-94.488v-152.4h89.764v23.927H388.62v37.643h44.501v24.536h-44.5v41.758h70.56zm129.54 0h-26.06l-24.841-66.294h-28.804v66.294h-23.927v-152.4h50.14q17.221 0 27.432 4.877 9.906 5.03 16.307 15.697 6.553 10.668 6.553 22.25 0 12.04-6.553 22.86-6.401 10.821-16.917 15.698zM561.29 738.185q0-10.973-9.449-16.002-5.029-2.896-14.02-2.896h-28.804v37.643h28.804q9.448 0 14.02-2.59 9.45-4.878 9.45-16.155zm77.876 109.575H614.63v-152.4h24.536zm140.208 0h-21.488l-58.217-103.174V847.76H675.74v-152.4h23.927l55.626 97.384V695.36h24.08zm137.312-45.415q0 20.574-13.716 34.29-13.564 13.716-34.595 13.716-17.22 0-27.889-6.553-10.668-6.553-17.526-21.031-10.21-20.879-10.058-50.902 0-18.288 4.572-35.052 4.724-16.764 12.649-26.822 14.02-17.221 38.862-17.221 17.678 0 28.956 7.772 11.277 7.772 18.745 25.908l-22.86 8.992q-5.03-9.906-10.516-14.021t-14.325-4.115q-18.288 0-25.603 18.745-5.792 14.326-5.792 35.814 0 26.67 7.316 41.758 6.858 12.344 20.878 12.192 11.43 0 19.05-6.553 7.62-6.554 7.62-16.917v-6.553h-27.736v-23.927h51.968z" style="font-size:266.7px;line-height:1.25;font-family:'Roadgeek 2014 Series D';-inkscape-font-specification:'Roadgeek 2014 Series D';text-align:center;text-anchor:middle;stroke-width:19.05" aria-label="ENTERING" transform="translate(373.41 249.545)"/>
</svg>
