<?xml version="1.0" encoding="UTF-8" standalone="no"?>
<!-- Created with Inkscape (http://www.inkscape.org/) -->

<svg
   xmlns:dc="http://purl.org/dc/elements/1.1/"
   xmlns:cc="http://creativecommons.org/ns#"
   xmlns:rdf="http://www.w3.org/1999/02/22-rdf-syntax-ns#"
   xmlns:svg="http://www.w3.org/2000/svg"
   xmlns="http://www.w3.org/2000/svg"
   xmlns:sodipodi="http://sodipodi.sourceforge.net/DTD/sodipodi-0.dtd"
   xmlns:inkscape="http://www.inkscape.org/namespaces/inkscape"
   width="30in"
   height="30in"
   viewBox="0 0 762.00001 762.00002"
   version="1.1"
   id="svg4493"
   enable-background="new"
   inkscape:version="0.92.2 5c3e80d, 2017-08-06"
   sodipodi:docname="Ohio_MUTCD_R12-H17.svg">
  <defs
     id="defs4487" />
  <sodipodi:namedview
     id="base"
     pagecolor="#ffffff"
     bordercolor="#666666"
     borderopacity="1.0"
     inkscape:pageopacity="0.0"
     inkscape:pageshadow="2"
     inkscape:zoom="0.175"
     inkscape:cx="1577.1429"
     inkscape:cy="1274.2857"
     inkscape:document-units="mm"
     inkscape:current-layer="g1551"
     showgrid="false"
     units="in"
     inkscape:window-width="1440"
     inkscape:window-height="855"
     inkscape:window-x="0"
     inkscape:window-y="1"
     inkscape:window-maximized="1" />
  <metadata
     id="metadata4490">
    <rdf:RDF>
      <cc:Work
         rdf:about="">
        <dc:format>image/svg+xml</dc:format>
        <dc:type
           rdf:resource="http://purl.org/dc/dcmitype/StillImage" />
        <dc:title></dc:title>
      </cc:Work>
    </rdf:RDF>
  </metadata>
  <g
     inkscape:label="Sign Back"
     inkscape:groupmode="layer"
     id="layer1"
     transform="translate(0,465.00002)"
     sodipodi:insensitive="true">
    <g
       id="g3578"
       transform="matrix(9.7313737,0,0,9.7313737,-2393.1978,2547.7564)">
      <g
         id="g3889">
        <g
           id="g3895">
          <rect
             style="opacity:1;fill:#ffffff;fill-opacity:1;stroke:#000000;stroke-width:0.18531813;stroke-linecap:round;stroke-linejoin:round;stroke-miterlimit:4;stroke-dasharray:none;stroke-opacity:1"
             id="rect3868"
             width="78.303436"
             height="78.303436"
             x="245.92599"
             y="-309.5921"
             rx="3.9151719"
             ry="3.9151719" />
          <rect
             style="opacity:1;fill:#ffffff;fill-opacity:1;stroke:#000000;stroke-width:1.63132155;stroke-linecap:round;stroke-linejoin:round;stroke-miterlimit:4;stroke-dasharray:none;stroke-opacity:1"
             id="rect3868-3"
             width="74.714531"
             height="74.714531"
             x="247.72046"
             y="-307.79764"
             rx="2.120718"
             ry="2.120718" />
        </g>
      </g>
    </g>
  </g>
  <g
     inkscape:groupmode="layer"
     id="layer3"
     inkscape:label="Legends"
     transform="matrix(9.7313737,0,0,9.7313737,-2393.1978,3012.7564)"
     style="">
    <g
       aria-label="REDUCED"
       transform="scale(1.0000012,0.99999881)"
       style="font-style:normal;font-variant:normal;font-weight:normal;font-stretch:normal;font-size:15.46128654px;line-height:125%;font-family:'Roadgeek 2014 Series C';-inkscape-font-specification:'Roadgeek 2014 Series C';text-align:center;letter-spacing:0px;word-spacing:0px;text-anchor:middle;display:inline;fill:#000000;fill-opacity:1;stroke:none;stroke-width:0.08052751px;stroke-linecap:butt;stroke-linejoin:miter;stroke-opacity:1"
       id="text3866-7-0-6-0-8-5-2-2">
      <path
         d="m 268.22775,-275.81113 h -1.30758 l -1.17506,-4.14362 h -1.2104 v 4.14362 h -1.27224 v -8.83502 h 2.65051 q 1.04253,0 1.67865,0.65379 0.63612,0.64496 0.63612,1.70516 0,1.66099 -1.27224,2.12924 z m -1.24574,-6.47607 q 0,-0.51243 -0.31806,-0.81282 -0.31806,-0.30922 -0.83049,-0.30922 h -1.29875 v 2.24409 h 1.29875 q 0.55661,0 0.84816,-0.29156 0.30039,-0.30039 0.30039,-0.83049 z"
         style="font-style:normal;font-variant:normal;font-weight:normal;font-stretch:normal;font-size:15.46128654px;font-family:'Roadgeek 2014 Series C';-inkscape-font-specification:'Roadgeek 2014 Series C';text-align:center;text-anchor:middle;stroke-width:0.08052751px"
         id="path1606" />
      <path
         d="m 274.22183,-275.81113 h -4.49703 v -8.83502 h 4.1613 v 1.23691 h -2.88905 v 2.24409 h 1.82885 v 1.2104 h -1.82885 v 2.90672 h 3.22478 z"
         style="font-style:normal;font-variant:normal;font-weight:normal;font-stretch:normal;font-size:15.46128654px;font-family:'Roadgeek 2014 Series C';-inkscape-font-specification:'Roadgeek 2014 Series C';text-align:center;text-anchor:middle;stroke-width:0.08052751px"
         id="path1608" />
      <path
         d="m 280.69945,-280.24631 q 0,3.03041 -1.27224,4.02877 -0.45058,0.40641 -1.24574,0.40641 h -2.4473 v -8.83502 h 2.2706 q 0.98069,0 1.42244,0.34457 0.83049,0.59194 1.0602,1.95254 0.21204,1.13088 0.21204,2.10273 z m -1.24573,0.0618 q 0,-1.714 -0.23855,-2.31478 -0.30039,-0.91 -1.14855,-0.91 h -1.0602 v 6.36121 h 1.0602 q 0.5301,0 0.84816,-0.3534 0.31806,-0.36224 0.42408,-0.91884 0.11486,-1.12205 0.11486,-1.86419 z"
         style="font-style:normal;font-variant:normal;font-weight:normal;font-stretch:normal;font-size:15.46128654px;font-family:'Roadgeek 2014 Series C';-inkscape-font-specification:'Roadgeek 2014 Series C';text-align:center;text-anchor:middle;stroke-width:0.08052751px"
         id="path1610" />
      <path
         d="m 287.43357,-278.44396 q 0,0.89233 -0.33573,1.54613 -0.33573,0.54777 -0.91884,0.89233 -0.58311,0.34457 -1.20157,0.34457 -0.65379,0 -1.24573,-0.33573 -0.58312,-0.34457 -0.91885,-0.90117 -0.34456,-0.6803 -0.34456,-1.54613 v -6.20219 h 1.27224 v 6.35238 q 0,0.61845 0.33573,1.00719 0.34457,0.38875 0.90117,0.38875 0.51244,0 0.84817,-0.38875 0.33573,-0.38874 0.33573,-1.00719 v -6.35238 h 1.27224 z"
         style="font-style:normal;font-variant:normal;font-weight:normal;font-stretch:normal;font-size:15.46128654px;font-family:'Roadgeek 2014 Series C';-inkscape-font-specification:'Roadgeek 2014 Series C';text-align:center;text-anchor:middle;stroke-width:0.08052751px"
         id="path1612" />
      <path
         d="m 294.13683,-282.2872 h -1.27224 q -0.18554,-1.27224 -1.06021,-1.27224 -0.76864,0 -1.07787,0.68913 -0.30922,0.68913 -0.30922,2.41196 0,1.90837 0.34456,2.73886 0.3534,0.82166 1.16622,0.82166 0.93652,0 0.93652,-1.27225 h 1.27224 q -0.0177,1.08671 -0.64496,1.80235 -0.62728,0.7068 -1.5638,0.7068 -1.40476,0 -2.06739,-1.15739 -0.65379,-1.15739 -0.65379,-3.60469 0,-2.14691 0.66262,-3.26012 0.67147,-1.11321 1.97021,-1.11321 1.12205,0 1.7405,0.89233 0.43292,0.55661 0.55661,1.61681 z"
         style="font-style:normal;font-variant:normal;font-weight:normal;font-stretch:normal;font-size:15.46128654px;font-family:'Roadgeek 2014 Series C';-inkscape-font-specification:'Roadgeek 2014 Series C';text-align:center;text-anchor:middle;stroke-width:0.08052751px"
         id="path1614" />
      <path
         d="m 300.40334,-275.81113 h -4.49702 v -8.83502 h 4.16129 v 1.23691 h -2.88905 v 2.24409 h 1.82885 v 1.2104 h -1.82885 v 2.90672 h 3.22478 z"
         style="font-style:normal;font-variant:normal;font-weight:normal;font-stretch:normal;font-size:15.46128654px;font-family:'Roadgeek 2014 Series C';-inkscape-font-specification:'Roadgeek 2014 Series C';text-align:center;text-anchor:middle;stroke-width:0.08052751px"
         id="path1616" />
      <path
         d="m 306.88097,-280.24631 q 0,3.03041 -1.27224,4.02877 -0.45059,0.40641 -1.24574,0.40641 h -2.4473 v -8.83502 h 2.2706 q 0.98069,0 1.42244,0.34457 0.83049,0.59194 1.0602,1.95254 0.21204,1.13088 0.21204,2.10273 z m -1.24574,0.0618 q 0,-1.714 -0.23854,-2.31478 -0.3004,-0.91 -1.14856,-0.91 h -1.0602 v 6.36121 h 1.0602 q 0.5301,0 0.84816,-0.3534 0.31807,-0.36224 0.42409,-0.91884 0.11485,-1.12205 0.11485,-1.86419 z"
         style="font-style:normal;font-variant:normal;font-weight:normal;font-stretch:normal;font-size:15.46128654px;font-family:'Roadgeek 2014 Series C';-inkscape-font-specification:'Roadgeek 2014 Series C';text-align:center;text-anchor:middle;stroke-width:0.08052751px"
         id="path1618" />
    </g>
    <g
       aria-label="FEB 1 - MAY 15"
       transform="scale(1.0000012,0.99999881)"
       style="font-style:normal;font-variant:normal;font-weight:normal;font-stretch:normal;font-size:8.98270607px;line-height:125%;font-family:'Roadgeek 2014 Series E';-inkscape-font-specification:'Roadgeek 2014 Series E';text-align:center;letter-spacing:0px;word-spacing:0px;text-anchor:middle;display:inline;fill:#000000;fill-opacity:1;stroke:none;stroke-width:0.04678491px;stroke-linecap:butt;stroke-linejoin:miter;stroke-opacity:1"
       id="text3866-7-0-6-0-8-5-2-2-2">
      <path
         d="m 260.99382,-242.11054 h -2.90013 v 1.04199 h 1.60662 v 0.9342 h -1.60662 v 2.23285 h -0.9342 v -5.13298 h 3.83433 z"
         style="font-style:normal;font-variant:normal;font-weight:normal;font-stretch:normal;font-size:8.98270607px;font-family:'Roadgeek 2014 Series E';-inkscape-font-specification:'Roadgeek 2014 Series E';text-align:center;text-anchor:middle;stroke-width:0.04678491px"
         id="path1559" />
      <path
         d="m 265.69571,-237.9015 h -3.83433 v -5.13298 h 3.74707 v 0.92394 h -2.81287 v 0.9496 h 1.52963 v 0.93933 h -1.52963 v 1.40644 h 2.90013 z"
         style="font-style:normal;font-variant:normal;font-weight:normal;font-stretch:normal;font-size:8.98270607px;font-family:'Roadgeek 2014 Series E';-inkscape-font-specification:'Roadgeek 2014 Series E';text-align:center;text-anchor:middle;stroke-width:0.04678491px"
         id="path1561" />
      <path
         d="m 270.86347,-239.41573 q 0,0.38497 -0.21045,0.74428 -0.21045,0.35417 -0.56463,0.54923 -0.39524,0.22072 -0.79048,0.22072 h -0.25664 -2.32011 v -5.13298 h 2.39197 q 0.52869,0 0.888,0.18479 0.69295,0.41577 0.69295,1.16518 0,0.64162 -0.49789,1.06766 0.66728,0.4825 0.66728,1.20112 z m -1.26784,-1.81708 q 0.18478,-0.14885 0.18478,-0.3747 0,-0.23099 -0.17965,-0.36444 -0.17965,-0.13859 -0.48763,-0.13859 h -1.45777 v 1.02659 h 1.45777 q 0.29771,0 0.4825,-0.14886 z m 0.34391,1.76575 q 0,-0.29771 -0.23612,-0.4979 -0.23612,-0.20532 -0.59029,-0.20532 h -1.45777 v 1.35511 h 1.45777 q 0.35931,0 0.59029,-0.18479 0.23612,-0.18479 0.23612,-0.4671 z"
         style="font-style:normal;font-variant:normal;font-weight:normal;font-stretch:normal;font-size:8.98270607px;font-family:'Roadgeek 2014 Series E';-inkscape-font-specification:'Roadgeek 2014 Series E';text-align:center;text-anchor:middle;stroke-width:0.04678491px"
         id="path1563" />
      <path
         d="m 276.35804,-237.9015 h -0.87774 v -3.83434 h -0.65189 l -0.0154,-0.73915 q 0.54409,-0.12319 0.81614,-0.55949 h 0.72888 z"
         style="font-style:normal;font-variant:normal;font-weight:normal;font-stretch:normal;font-size:8.98270607px;font-family:'Roadgeek 2014 Series E';-inkscape-font-specification:'Roadgeek 2014 Series E';text-align:center;text-anchor:middle;stroke-width:0.04678491px"
         id="path1565" />
      <path
         d="m 282.04502,-239.97523 h -1.80168 v -0.91367 h 1.80168 z"
         style="font-style:normal;font-variant:normal;font-weight:normal;font-stretch:normal;font-size:8.98270607px;font-family:'Roadgeek 2014 Series E';-inkscape-font-specification:'Roadgeek 2014 Series E';text-align:center;text-anchor:middle;stroke-width:0.04678491px"
         id="path1567" />
      <path
         d="m 290.74182,-237.9015 h -0.9034 v -3.13112 l -1.51423,3.13112 -1.4937,-3.13112 v 3.13112 h -0.89827 v -5.13298 h 0.89827 l 1.4937,3.03872 1.51423,-3.03872 h 0.9034 z"
         style="font-style:normal;font-variant:normal;font-weight:normal;font-stretch:normal;font-size:8.98270607px;font-family:'Roadgeek 2014 Series E';-inkscape-font-specification:'Roadgeek 2014 Series E';text-align:center;text-anchor:middle;stroke-width:0.04678491px"
         id="path1569" />
      <path
         d="m 296.84641,-237.9015 h -0.98553 l -0.50303,-1.20625 H 293.125 l -0.50816,1.20625 h -1.00607 l 2.15585,-5.13298 h 0.93934 z m -1.89407,-2.13019 -0.70835,-1.71955 -0.72375,1.71955 z"
         style="font-style:normal;font-variant:normal;font-weight:normal;font-stretch:normal;font-size:8.98270607px;font-family:'Roadgeek 2014 Series E';-inkscape-font-specification:'Roadgeek 2014 Series E';text-align:center;text-anchor:middle;stroke-width:0.04678491px"
         id="path1571" />
      <path
         d="m 302.49569,-243.03448 -2.15585,3.03872 v 2.09426 h -0.92394 v -2.09426 l -2.15585,-3.03872 h 1.13439 l 1.49883,2.08912 1.46803,-2.08912 z"
         style="font-style:normal;font-variant:normal;font-weight:normal;font-stretch:normal;font-size:8.98270607px;font-family:'Roadgeek 2014 Series E';-inkscape-font-specification:'Roadgeek 2014 Series E';text-align:center;text-anchor:middle;stroke-width:0.04678491px"
         id="path1573" />
      <path
         d="m 307.8326,-237.9015 h -0.87774 v -3.83434 h -0.65188 l -0.0154,-0.73915 q 0.54409,-0.12319 0.81614,-0.55949 h 0.72888 z"
         style="font-style:normal;font-variant:normal;font-weight:normal;font-stretch:normal;font-size:8.98270607px;font-family:'Roadgeek 2014 Series E';-inkscape-font-specification:'Roadgeek 2014 Series E';text-align:center;text-anchor:middle;stroke-width:0.04678491px"
         id="path1575" />
      <path
         d="m 312.99527,-239.66725 q 0,0.81101 -0.61082,1.33458 -0.61083,0.51843 -1.55016,0.51843 -1.03686,0 -1.98133,-0.56976 l 0.4825,-0.77508 q 0.67755,0.41577 1.49883,0.41577 0.58002,0 0.91367,-0.24639 0.33364,-0.24638 0.33364,-0.67755 0,-0.44657 -0.32851,-0.70322 -0.26178,-0.21045 -0.83154,-0.21045 -0.4671,0 -0.98553,0.18992 l -0.92394,-0.22585 0.16939,-2.41763 h 3.41856 l -0.0205,0.9034 h -2.54082 l -0.0513,0.73915 q 0.62622,-0.13345 0.99579,-0.13345 0.87261,0 1.44237,0.52869 0.56976,0.5287 0.56976,1.32944 z"
         style="font-style:normal;font-variant:normal;font-weight:normal;font-stretch:normal;font-size:8.98270607px;font-family:'Roadgeek 2014 Series E';-inkscape-font-specification:'Roadgeek 2014 Series E';text-align:center;text-anchor:middle;stroke-width:0.04678491px"
         id="path1577" />
    </g>
    <g
       aria-label="EFFECTIVE"
       transform="scale(1.0083245,0.99174423)"
       style="font-style:normal;font-variant:normal;font-weight:normal;font-stretch:normal;font-size:8.90855789px;line-height:125%;font-family:'Roadgeek 2014 Series E';-inkscape-font-specification:'Roadgeek 2014 Series E';text-align:center;letter-spacing:0px;word-spacing:0px;text-anchor:middle;display:inline;fill:#000000;fill-opacity:1;stroke:none;stroke-width:0.04639872px;stroke-linecap:butt;stroke-linejoin:miter;stroke-opacity:1"
       id="text3866-7-0-6-0-8-5-2-2-2-8">
      <path
         d="m 266.7649,-249.09163 h -3.80268 v -5.0906 h 3.71614 v 0.91631 h -2.78965 v 0.94176 h 1.517 v 0.93158 h -1.517 v 1.39482 h 2.87619 z"
         style="font-style:normal;font-variant:normal;font-weight:normal;font-stretch:normal;font-size:8.90855789px;font-family:'Roadgeek 2014 Series E';-inkscape-font-specification:'Roadgeek 2014 Series E';text-align:center;text-anchor:middle;stroke-width:0.04639872px"
         id="path1580" />
      <path
         d="m 271.58457,-253.26592 h -2.87619 v 1.03339 h 1.59336 v 0.92649 h -1.59336 v 2.21441 h -0.92649 v -5.0906 h 3.80268 z"
         style="font-style:normal;font-variant:normal;font-weight:normal;font-stretch:normal;font-size:8.90855789px;font-family:'Roadgeek 2014 Series E';-inkscape-font-specification:'Roadgeek 2014 Series E';text-align:center;text-anchor:middle;stroke-width:0.04639872px"
         id="path1582" />
      <path
         d="m 276.24765,-253.26592 h -2.8762 v 1.03339 h 1.59336 v 0.92649 h -1.59336 v 2.21441 h -0.92649 v -5.0906 h 3.80269 z"
         style="font-style:normal;font-variant:normal;font-weight:normal;font-stretch:normal;font-size:8.90855789px;font-family:'Roadgeek 2014 Series E';-inkscape-font-specification:'Roadgeek 2014 Series E';text-align:center;text-anchor:middle;stroke-width:0.04639872px"
         id="path1584" />
      <path
         d="m 280.91072,-249.09163 h -3.80268 v -5.0906 h 3.71614 v 0.91631 h -2.78965 v 0.94176 h 1.517 v 0.93158 h -1.517 v 1.39482 h 2.87619 z"
         style="font-style:normal;font-variant:normal;font-weight:normal;font-stretch:normal;font-size:8.90855789px;font-family:'Roadgeek 2014 Series E';-inkscape-font-specification:'Roadgeek 2014 Series E';text-align:center;text-anchor:middle;stroke-width:0.04639872px"
         id="path1586" />
      <path
         d="m 285.89838,-250.13011 q -0.27999,0.52942 -0.80941,0.82977 -0.52433,0.29525 -1.15557,0.29525 -1.00284,0 -1.58317,-0.71777 -0.57524,-0.71778 -0.57524,-1.92425 0,-1.21157 0.57524,-1.91407 0.58033,-0.70759 1.58317,-0.70759 0.62106,0 1.14539,0.29525 0.52942,0.29526 0.81959,0.82977 l -0.80432,0.42252 q -0.16799,-0.25453 -0.35634,-0.37161 -0.33089,-0.25963 -0.80432,-0.26472 -0.43779,0 -0.72286,0.2749 -0.28508,0.2698 -0.39707,0.63123 -0.1069,0.36143 -0.1069,0.78905 0,0.82976 0.3258,1.29301 0.3258,0.45815 0.90103,0.45815 0.34108,0 0.58033,-0.13235 0.23926,-0.13745 0.58033,-0.51415 z"
         style="font-style:normal;font-variant:normal;font-weight:normal;font-stretch:normal;font-size:8.90855789px;font-family:'Roadgeek 2014 Series E';-inkscape-font-specification:'Roadgeek 2014 Series E';text-align:center;text-anchor:middle;stroke-width:0.04639872px"
         id="path1588" />
      <path
         d="m 290.44286,-253.28629 h -1.4661 v 4.19466 h -0.90103 v -4.19466 h -1.45592 v -0.89594 h 3.82305 z"
         style="font-style:normal;font-variant:normal;font-weight:normal;font-stretch:normal;font-size:8.90855789px;font-family:'Roadgeek 2014 Series E';-inkscape-font-specification:'Roadgeek 2014 Series E';text-align:center;text-anchor:middle;stroke-width:0.04639872px"
         id="path1590" />
      <path
         d="m 292.21218,-249.09163 h -0.90613 v -5.0906 h 0.90613 z"
         style="font-style:normal;font-variant:normal;font-weight:normal;font-stretch:normal;font-size:8.90855789px;font-family:'Roadgeek 2014 Series E';-inkscape-font-specification:'Roadgeek 2014 Series E';text-align:center;text-anchor:middle;stroke-width:0.04639872px"
         id="path1592" />
      <path
         d="m 297.81948,-254.18223 -1.88861,5.0906 h -0.9774 l -1.87843,-5.0906 h 0.97739 l 1.39483,3.71105 1.39482,-3.71105 z"
         style="font-style:normal;font-variant:normal;font-weight:normal;font-stretch:normal;font-size:8.90855789px;font-family:'Roadgeek 2014 Series E';-inkscape-font-specification:'Roadgeek 2014 Series E';text-align:center;text-anchor:middle;stroke-width:0.04639872px"
         id="path1594" />
      <path
         d="m 302.48613,-249.09163 h -3.80268 v -5.0906 h 3.71614 v 0.91631 h -2.78965 v 0.94176 h 1.517 v 0.93158 h -1.517 v 1.39482 h 2.87619 z"
         style="font-style:normal;font-variant:normal;font-weight:normal;font-stretch:normal;font-size:8.90855789px;font-family:'Roadgeek 2014 Series E';-inkscape-font-specification:'Roadgeek 2014 Series E';text-align:center;text-anchor:middle;stroke-width:0.04639872px"
         id="path1596" />
    </g>
    <g
       aria-label="20%"
       transform="scale(1.0000012,0.99999881)"
       style="font-style:normal;font-variant:normal;font-weight:normal;font-stretch:normal;font-size:15.04390621px;line-height:125%;font-family:'Roadgeek 2005 Series D';-inkscape-font-specification:'Roadgeek 2005 Series D';text-align:center;letter-spacing:0px;word-spacing:0px;text-anchor:middle;display:inline;fill:#000000;fill-opacity:1;stroke:none;stroke-width:0.07835366px;stroke-linecap:butt;stroke-linejoin:miter;stroke-opacity:1"
       id="text3866-7-0-6-0-8-5-2-2-1">
      <path
         d="m 270.58811,-258.8757 q 0.0301,-0.88759 0.22566,-1.62474 0.19557,-0.73716 0.6168,-1.45926 0.31592,-0.57167 0.78228,-1.05308 0.46636,-0.49645 0.9929,-0.88759 0.13539,-0.0752 0.2407,-0.15044 0.10531,-0.0903 0.21062,-0.16548 l 0.54158,-0.28583 0.49644,-0.28584 0.48141,-0.27079 q 0.30088,-0.19557 0.4814,-0.4814 0.19558,-0.30088 0.19558,-0.6168 0,-0.28584 -0.15044,-0.52654 -0.15044,-0.25575 -0.40619,-0.43627 -0.2407,-0.18053 -0.57167,-0.28584 -0.33096,-0.1053 -0.70706,-0.1053 -0.76724,0 -1.24865,0.36105 -0.46636,0.36105 -0.58671,1.05307 l -1.59465,-0.34601 q 0.25574,-1.26368 1.17342,-1.97075 0.91768,-0.72211 2.25659,-0.72211 0.72211,0 1.33891,0.24071 0.63184,0.2407 1.08316,0.64688 0.46636,0.40619 0.73715,0.96281 0.27079,0.54159 0.27079,1.15839 0,0.58671 -0.27079,1.15838 -0.25575,0.55662 -0.7522,0.99289 -0.12035,0.0903 -0.22565,0.16549 -0.0903,0.0752 -0.19558,0.12035 l -0.49644,0.31592 -0.54158,0.28583 -0.49645,0.28584 q -0.36106,0.21061 -0.64689,0.45132 -0.27079,0.22565 -0.51149,0.49644 -0.22566,0.27079 -0.43628,0.60176 -0.19557,0.33097 -0.3761,0.7522 h 4.94945 v 1.62474 z"
         style="font-style:normal;font-variant:normal;font-weight:normal;font-stretch:normal;font-size:15.04390621px;font-family:'Roadgeek 2005 Series D';-inkscape-font-specification:'Roadgeek 2005 Series D';text-align:center;text-anchor:middle;stroke-width:0.07835366px"
         id="path1599" />
      <path
         d="m 286.57814,-263.90037 q 0,1.20352 -0.28584,2.30172 -0.28583,1.09821 -0.81237,1.77518 -0.84246,1.12829 -2.43711,1.12829 -1.06812,0 -1.76014,-0.43627 -0.69202,-0.43627 -1.14334,-1.36899 -0.31592,-0.64689 -0.51149,-1.56457 -0.19557,-0.93272 -0.19557,-1.83536 0,-1.24864 0.28583,-2.31676 0.30088,-1.06812 0.81238,-1.79022 0.45131,-0.57167 1.06811,-0.84246 0.63185,-0.28584 1.50439,-0.28584 0.96281,0 1.63979,0.43628 0.67697,0.43627 1.15838,1.36899 0.31592,0.67698 0.49645,1.57961 0.18053,0.90264 0.18053,1.8504 z m -1.59466,0 q 0,-0.8575 -0.15044,-1.57961 -0.15044,-0.73715 -0.45131,-1.24864 -0.24071,-0.39114 -0.55663,-0.57167 -0.30088,-0.18053 -0.75219,-0.21061 -0.58672,-0.0301 -0.97786,0.27079 -0.39114,0.30087 -0.64689,0.97785 -0.19557,0.45132 -0.30087,1.09821 -0.0903,0.63184 -0.0903,1.26368 0,0.81237 0.15044,1.56457 0.15044,0.75219 0.45132,1.2336 0.2407,0.39114 0.57167,0.58671 0.33096,0.19557 0.81237,0.19557 0.55662,0 0.91768,-0.30088 0.37609,-0.30087 0.63184,-0.97785 0.0752,-0.19557 0.15044,-0.46636 0.0752,-0.28583 0.12035,-0.58671 0.0602,-0.31592 0.0903,-0.63185 0.0301,-0.31592 0.0301,-0.6168 z"
         style="font-style:normal;font-variant:normal;font-weight:normal;font-stretch:normal;font-size:15.04390621px;font-family:'Roadgeek 2005 Series D';-inkscape-font-specification:'Roadgeek 2005 Series D';text-align:center;text-anchor:middle;stroke-width:0.07835366px"
         id="path1601" />
      <path
         d="m 293.89511,-266.15695 q 0,0.97785 -0.54158,1.66987 -0.60175,0.79733 -1.65483,0.79733 -1.03803,0 -1.65483,-0.78229 -0.52653,-0.69201 -0.52653,-1.68491 0,-0.97786 0.52653,-1.66988 0.6168,-0.79732 1.65483,-0.79732 1.05308,0 1.65483,0.78228 0.54158,0.69202 0.54158,1.68492 z m 4.90432,-2.4672 -7.19099,9.8688 h -1.33891 l 7.19099,-9.8688 z m 0.76724,7.4016 q 0,0.97785 -0.52654,1.66987 -0.6168,0.79733 -1.65483,0.79733 -1.05307,0 -1.66987,-0.78228 -0.52654,-0.69202 -0.52654,-1.68492 0,-0.97786 0.52654,-1.66987 0.6168,-0.79733 1.66987,-0.79733 1.03803,0 1.65483,0.78228 0.52654,0.69202 0.52654,1.68492 z m -6.93524,-4.9344 q 0,-0.63185 -0.15044,-0.96281 -0.22566,-0.49645 -0.78229,-0.49645 -0.52653,0 -0.73715,0.42123 -0.19557,0.42123 -0.19557,1.03803 0,0.63184 0.15044,0.96281 0.22566,0.49645 0.78228,0.49645 0.54158,0 0.76724,-0.48141 0.16549,-0.36105 0.16549,-0.97785 z m 5.68659,4.9344 q 0,-0.63185 -0.16548,-0.96281 -0.22566,-0.49645 -0.76724,-0.49645 -0.54158,0 -0.75219,0.42123 -0.19558,0.42123 -0.19558,1.03803 0,0.63184 0.16549,0.96281 0.22566,0.49645 0.78228,0.49645 0.52654,0 0.7522,-0.48141 0.18052,-0.36105 0.18052,-0.97785 z"
         style="font-style:normal;font-variant:normal;font-weight:normal;font-stretch:normal;font-family:'Roadgeek 2005 Series E';-inkscape-font-specification:'Roadgeek 2005 Series E'"
         id="path1603" />
    </g>
    <g
       transform="matrix(0.11988714,0,0,0.11988714,245.45699,-281.25077)"
       id="g6106">
      <g
         id="g1551"
         transform="translate(-60.390212)">
        <g
           id="g1557"
           transform="matrix(0.96991174,0,0,0.96991174,-14.61547,-3.7854912)">
          <g
             aria-label="WEIGHT"
             transform="scale(1.0000012,0.99999881)"
             style="font-style:normal;font-variant:normal;font-weight:normal;font-stretch:normal;font-size:128.96534729px;line-height:125%;font-family:'Roadgeek 2014 Series B';-inkscape-font-specification:'Roadgeek 2014 Series B';text-align:end;letter-spacing:0px;word-spacing:0px;text-anchor:end;display:inline;fill:#000000;fill-opacity:1;stroke:none;stroke-width:0.67169434px;stroke-linecap:butt;stroke-linejoin:miter;stroke-opacity:1"
             id="text3866-7-0-6-0-8-5-2">
            <path
               d="m 209.27286,-158.9474 -8.40117,73.694486 h -8.10639 l -6.92729,-41.416296 -6.70619,41.416296 h -8.1064 l -8.54856,-73.694486 h 9.58029 l 3.9058,34.19424 5.96926,-34.19424 h 8.03269 l 5.96926,34.19424 3.75842,-34.19424 z"
               style="font-style:normal;font-variant:normal;font-weight:normal;font-stretch:normal;font-size:128.96534729px;font-family:'Roadgeek 2014 Series B';-inkscape-font-specification:'Roadgeek 2014 Series B';text-align:end;text-anchor:end;stroke-width:0.67169434px"
               id="path1621" />
            <path
               d="M 247.80385,-85.252914 H 219.50516 V -158.9474 h 27.26696 v 9.58028 h -17.90776 v 18.93949 h 11.86482 v 9.72767 h -11.86482 v 25.866763 h 18.93949 z"
               style="font-style:normal;font-variant:normal;font-weight:normal;font-stretch:normal;font-size:128.96534729px;font-family:'Roadgeek 2014 Series B';-inkscape-font-specification:'Roadgeek 2014 Series B';text-align:end;text-anchor:end;stroke-width:0.67169434px"
               id="path1623" />
            <path
               d="m 268.91415,-85.252914 h -9.3592 V -158.9474 h 9.3592 z"
               style="font-style:normal;font-variant:normal;font-weight:normal;font-stretch:normal;font-size:128.96534729px;font-family:'Roadgeek 2014 Series B';-inkscape-font-specification:'Roadgeek 2014 Series B';text-align:end;text-anchor:end;stroke-width:0.67169434px"
               id="path1625" />
            <path
               d="m 314.57767,-102.05526 q 0,5.084923 -1.03172,9.580286 -1.10542,3.905808 -4.64275,6.190337 -3.53734,2.284529 -8.62226,2.284529 -10.83309,0 -14.14934,-9.801367 -3.16886,-9.359195 -3.09517,-28.446075 0,-18.79209 3.38995,-28.15129 3.31625,-9.58028 13.85456,-9.58028 6.19034,0 9.80137,3.75842 3.68472,3.68472 4.49536,10.53831 h -9.3592 q -0.73694,-4.64275 -4.64275,-4.71645 -5.306,0 -6.48511,7.22206 -1.54759,8.99073 -1.47389,20.92923 0,10.83309 1.2528,21.22402 1.54759,7.443139 6.19034,7.443139 5.15861,0 5.15861,-7.959009 v -9.87506 h -4.42167 v -9.58028 h 13.78087 z"
               style="font-style:normal;font-variant:normal;font-weight:normal;font-stretch:normal;font-size:128.96534729px;font-family:'Roadgeek 2014 Series B';-inkscape-font-specification:'Roadgeek 2014 Series B';text-align:end;text-anchor:end;stroke-width:0.67169434px"
               id="path1627" />
            <path
               d="m 360.40758,-85.252914 h -9.21181 v -34.341626 h -13.26501 v 34.341626 h -9.3592 V -158.9474 h 9.3592 v 29.77257 h 13.26501 v -29.77257 h 9.21181 z"
               style="font-style:normal;font-variant:normal;font-weight:normal;font-stretch:normal;font-size:128.96534729px;font-family:'Roadgeek 2014 Series B';-inkscape-font-specification:'Roadgeek 2014 Series B';text-align:end;text-anchor:end;stroke-width:0.67169434px"
               id="path1629" />
            <path
               d="m 398.79003,-149.36712 h -9.58028 v 64.114206 h -9.3592 v -64.114206 h -9.06442 v -9.58028 h 28.0039 z"
               style="font-style:normal;font-variant:normal;font-weight:normal;font-stretch:normal;font-size:128.96534729px;font-family:'Roadgeek 2014 Series B';-inkscape-font-specification:'Roadgeek 2014 Series B';text-align:end;text-anchor:end;stroke-width:0.67169434px"
               id="path1631" />
          </g>
          <g
             aria-label="LIMITS"
             transform="scale(1.0000012,0.99999881)"
             style="font-style:normal;font-variant:normal;font-weight:normal;font-stretch:normal;font-size:133.35015869px;line-height:125%;font-family:'Roadgeek 2014 Series B';-inkscape-font-specification:'Roadgeek 2014 Series B';text-align:start;letter-spacing:0px;word-spacing:0px;text-anchor:start;display:inline;fill:#000000;fill-opacity:1;stroke:none;stroke-width:0.69453192px;stroke-linecap:butt;stroke-linejoin:miter;stroke-opacity:1"
             id="text3866-7-0-6-0-8-5-2-7">
            <path
               d="M 478.2561,-84.000107 H 448.99526 V -160.2002 h 9.67741 v 67.360883 h 19.58343 z"
               style="font-style:normal;font-variant:normal;font-weight:normal;font-stretch:normal;font-size:133.35015869px;font-family:'Roadgeek 2014 Series B';-inkscape-font-specification:'Roadgeek 2014 Series B';text-align:start;text-anchor:start;stroke-width:0.69453192px"
               id="path1634" />
            <path
               d="m 498.52145,-84.000107 h -9.67741 V -160.2002 h 9.67741 z"
               style="font-style:normal;font-variant:normal;font-weight:normal;font-stretch:normal;font-size:133.35015869px;font-family:'Roadgeek 2014 Series B';-inkscape-font-specification:'Roadgeek 2014 Series B';text-align:start;text-anchor:start;stroke-width:0.69453192px"
               id="path1636" />
            <path
               d="m 553.12893,-84.000107 h -9.52501 v -45.186653 l -9.14401,28.57503 -9.37261,-28.57503 v 45.186653 h -9.67741 V -160.2002 h 9.67741 l 9.37261,26.97483 9.14401,-26.97483 h 9.52501 z"
               style="font-style:normal;font-variant:normal;font-weight:normal;font-stretch:normal;font-size:133.35015869px;font-family:'Roadgeek 2014 Series B';-inkscape-font-specification:'Roadgeek 2014 Series B';text-align:start;text-anchor:start;stroke-width:0.69453192px"
               id="path1638" />
            <path
               d="m 579.52125,-84.000107 h -9.67741 V -160.2002 h 9.67741 z"
               style="font-style:normal;font-variant:normal;font-weight:normal;font-stretch:normal;font-size:133.35015869px;font-family:'Roadgeek 2014 Series B';-inkscape-font-specification:'Roadgeek 2014 Series B';text-align:start;text-anchor:start;stroke-width:0.69453192px"
               id="path1640" />
            <path
               d="m 619.26972,-150.29419 h -9.90602 v 66.294083 h -9.67741 v -66.294083 h -9.37261 v -9.90601 h 28.95604 z"
               style="font-style:normal;font-variant:normal;font-weight:normal;font-stretch:normal;font-size:133.35015869px;font-family:'Roadgeek 2014 Series B';-inkscape-font-specification:'Roadgeek 2014 Series B';text-align:start;text-anchor:start;stroke-width:0.69453192px"
               id="path1642" />
            <path
               d="m 658.27792,-100.30693 q 0,8.839214 -6.24841,14.249421 -3.81001,3.429004 -9.75361,3.352804 -16.07822,0 -16.84022,-20.193025 h 9.75361 q 0,2.8956 0.9144,5.562607 1.143,4.724406 6.17221,4.724406 2.8956,0 4.4958,-1.981202 1.6002,-2.057403 1.6002,-5.715011 0,-9.37261 -8.30581,-19.20242 -4.191,-4.8006 -6.7056,-8.07721 -6.17221,-7.31521 -6.09601,-15.77342 0,-7.84861 4.3434,-12.87781 4.34341,-5.02921 11.12522,-5.02921 13.94461,0 15.54482,17.90702 h -9.90602 q -0.1524,-4.4196 -1.4478,-6.3246 -1.2954,-1.90501 -3.8862,-1.90501 -5.86741,0 -5.86741,8.22961 0,4.72441 5.33401,10.43941 6.2484,7.16281 8.22961,9.82982 2.0574,2.667 3.81,6.1722 3.73381,8.76301 3.73381,16.61162 z"
               style="font-style:normal;font-variant:normal;font-weight:normal;font-stretch:normal;font-size:133.35015869px;font-family:'Roadgeek 2014 Series B';-inkscape-font-specification:'Roadgeek 2014 Series B';text-align:start;text-anchor:start;stroke-width:0.69453192px"
               id="path1644" />
          </g>
        </g>
      </g>
    </g>
  </g>
</svg>
