<?xml version="1.0" encoding="UTF-8" standalone="no"?>
<!-- Created with Inkscape (http://www.inkscape.org/) -->

<svg
   xmlns:dc="http://purl.org/dc/elements/1.1/"
   xmlns:cc="http://creativecommons.org/ns#"
   xmlns:rdf="http://www.w3.org/1999/02/22-rdf-syntax-ns#"
   xmlns:svg="http://www.w3.org/2000/svg"
   xmlns="http://www.w3.org/2000/svg"
   xmlns:sodipodi="http://sodipodi.sourceforge.net/DTD/sodipodi-0.dtd"
   xmlns:inkscape="http://www.inkscape.org/namespaces/inkscape"
   width="24in"
   height="30in"
   viewBox="0 0 609.6 762"
   version="1.1"
   id="svg905"
   inkscape:version="0.92.2 5c3e80d, 2017-08-06"
   sodipodi:docname="MUTCD-OH_D5-H36.svg">
  <defs
     id="defs899" />
  <sodipodi:namedview
     id="base"
     pagecolor="#ffffff"
     bordercolor="#666666"
     borderopacity="1.0"
     inkscape:pageopacity="0.0"
     inkscape:pageshadow="2"
     inkscape:zoom="0.24748737"
     inkscape:cx="1219.0191"
     inkscape:cy="1367.281"
     inkscape:document-units="in"
     inkscape:current-layer="layer3"
     showgrid="false"
     units="in"
     inkscape:window-width="1440"
     inkscape:window-height="855"
     inkscape:window-x="0"
     inkscape:window-y="1"
     inkscape:window-maximized="1" />
  <metadata
     id="metadata902">
    <rdf:RDF>
      <cc:Work
         rdf:about="">
        <dc:format>image/svg+xml</dc:format>
        <dc:type
           rdf:resource="http://purl.org/dc/dcmitype/StillImage" />
        <dc:title></dc:title>
      </cc:Work>
    </rdf:RDF>
  </metadata>
  <g
     inkscape:label="Sign Back"
     inkscape:groupmode="layer"
     id="layer1"
     transform="translate(0,465.00003)"
     sodipodi:insensitive="true">
    <rect
       style="opacity:1;fill:#ffffff;fill-opacity:1;fill-rule:nonzero;stroke:#000000;stroke-width:1.89473808;stroke-linecap:round;stroke-linejoin:round;stroke-miterlimit:4;stroke-dasharray:none;stroke-opacity:1"
       id="rect2300"
       width="607.69501"
       height="760.09497"
       x="0.94736904"
       y="-464.04236"
       rx="38.099998"
       ry="38.099998" />
    <rect
       style="opacity:1;fill:#002f6c;fill-opacity:1;fill-rule:nonzero;stroke:none;stroke-width:19.05000114;stroke-linecap:round;stroke-linejoin:round;stroke-miterlimit:4;stroke-dasharray:none;stroke-opacity:1"
       id="rect842"
       width="584.20001"
       height="736.59998"
       x="12.7"
       y="-452.30002"
       rx="25.4"
       ry="25.4" />
  </g>
  <g
     inkscape:groupmode="layer"
     id="layer3"
     inkscape:label="Legends">
    <g
       aria-label="DEPT OF TRANSPORTATION"
       style="font-style:normal;font-variant:normal;font-weight:normal;font-stretch:normal;font-size:66.67500305px;line-height:125%;font-family:'Roadgeek 2014 Series C';-inkscape-font-specification:'Roadgeek 2014 Series C';text-align:center;letter-spacing:0px;word-spacing:0px;text-anchor:middle;fill:#ffffff;fill-opacity:1;stroke:none;stroke-width:1.04179692px;stroke-linecap:butt;stroke-linejoin:miter;stroke-opacity:1"
       id="text3694">
      <path
         d="m 54.145278,681.90108 q 0,13.0683 -5.4864,17.3736 -1.9431,1.7526 -5.3721,1.7526 H 32.733077 v -38.1 h 9.791701 q 4.2291,0 6.1341,1.4859 3.5814,2.5527 4.572,8.4201 0.9144,4.8768 0.9144,9.0678 z m -5.3721,0.2667 q 0,-7.3914 -1.0287,-9.9822 -1.2954,-3.9243 -4.953,-3.9243 h -4.572 v 27.432 h 4.572 q 2.286,0 3.6576,-1.524 1.3716,-1.5621 1.8288,-3.9624 0.4953,-4.8387 0.4953,-8.0391 z"
         style="fill:#ffffff;stroke-width:1.04179692px"
         id="path3720" />
      <path
         d="M 81.166067,701.02728 H 61.773166 v -38.1 h 17.945101 v 5.334 H 67.259566 v 9.6774 h 7.886701 v 5.2197 h -7.886701 v 12.5349 h 13.906501 z"
         style="fill:#ffffff;stroke-width:1.04179692px"
         id="path3722" />
      <path
         d="m 109.10007,673.63338 q 0,5.1435 -2.5908,7.9248 -2.5908,2.7813 -7.391404,2.7813 h -5.9436 v 16.6878 h -5.4864 v -38.1 h 11.43 q 4.495804,0 7.239004,2.9337 2.7432,2.9337 2.7432,7.7724 z m -5.3721,0 q 0,-2.4003 -1.3716,-3.8862 -1.3716,-1.4859 -3.581404,-1.4859 h -5.6007 v 10.8204 h 5.6007 q 2.400304,0 3.657604,-1.4097 1.2954,-1.4097 1.2954,-4.0386 z"
         style="fill:#ffffff;stroke-width:1.04179692px"
         id="path3724" />
      <path
         d="m 133.07285,667.99458 h -6.9342 v 33.0327 h -5.4864 v -33.0327 h -6.9723 v -5.0673 h 19.3929 z"
         style="fill:#ffffff;stroke-width:1.04179692px"
         id="path3726" />
      <path
         d="m 176.18791,681.90108 q 0,8.4963 -2.1717,13.2588 -2.667,6.5151 -8.9535,6.5151 -3.3909,0 -5.5245,-1.524 -2.0955,-1.524 -3.5433,-4.9911 -2.1717,-4.8768 -2.1336,-13.2588 0,-8.4963 2.1336,-13.2588 1.4859,-3.3909 3.6195,-4.8768 2.1336,-1.4859 5.4483,-1.4859 3.3528,0 5.4102,1.4859 2.0955,1.4859 3.5433,5.0292 2.1717,4.8768 2.1717,13.1064 z m -5.2197,0 q 0,-5.2959 -1.1811,-9.4488 -1.2954,-4.8387 -4.7244,-4.8387 -3.3909,0 -4.7625,4.6863 -1.2573,3.9624 -1.2192,9.7536 0,4.8387 1.2192,9.6393 1.2954,4.6482 4.7625,4.6482 3.3909,0 4.7244,-4.6482 1.1811,-3.9243 1.1811,-9.7917 z"
         style="fill:#ffffff;stroke-width:1.04179692px"
         id="path3728" />
      <path
         d="m 203.18653,668.26128 h -13.90651 v 9.6774 h 7.62 v 5.2197 h -7.62 v 17.8689 h -5.4864 v -38.1 h 19.39291 z"
         style="fill:#ffffff;stroke-width:1.04179692px"
         id="path3730" />
      <path
         d="m 241.15928,667.99458 h -6.9342 v 33.0327 h -5.4864 v -33.0327 h -6.9723 v -5.0673 h 19.3929 z"
         style="fill:#ffffff;stroke-width:1.04179692px"
         id="path3732" />
      <path
         d="m 267.84387,701.02728 h -5.6388 l -5.0673,-17.8689 h -5.2197 v 17.8689 h -5.4864 v -38.1 h 11.43 q 4.4958,0 7.239,2.8194 2.7432,2.7813 2.7432,7.3533 0,7.1628 -5.4864,9.1821 z m -5.3721,-27.9273 q 0,-2.2098 -1.3716,-3.5052 -1.3716,-1.3335 -3.5814,-1.3335 h -5.6007 v 9.6774 h 5.6007 q 2.4003,0 3.6576,-1.2573 1.2954,-1.2954 1.2954,-3.5814 z"
         style="fill:#ffffff;stroke-width:1.04179692px"
         id="path3734" />
      <path
         d="m 295.59764,701.02728 h -5.4864 l -2.667,-10.4394 h -8.1534 l -2.5527,10.4394 h -5.4864 l 9.525,-38.1 h 5.334 z m -9.4869,-15.8115 -2.7813,-10.9347 -2.7051,10.9347 z"
         style="fill:#ffffff;stroke-width:1.04179692px"
         id="path3736" />
      <path
         d="m 322.40797,701.02728 h -4.1148 l -11.811,-25.527 v 25.527 h -5.4864 v -38.1 h 5.4864 l 10.4394,22.8981 v -22.8981 h 5.4864 z"
         style="fill:#ffffff;stroke-width:1.04179692px"
         id="path3738" />
      <path
         d="m 350.13392,690.58788 q 0,4.6482 -3.0861,7.8867 -3.04801,3.2004 -7.42951,3.2004 -4.8387,0 -7.7724,-3.4671 -2.9337,-3.5052 -2.9337,-8.4201 h 5.334 q 0,2.667 1.3716,4.6101 1.3716,1.9431 4.0005,1.9431 2.2098,0 3.7719,-1.7145 1.56211,-1.7526 1.56211,-4.0386 0,-3.0861 -3.12421,-5.4864 -0.1905,-0.1905 -0.1905,-0.2667 -0.1143,-0.1143 -2.8575,-2.0193 -1.9431,-1.2954 -3.3528,-2.2098 -4.6863,-3.3147 -4.6863,-8.4201 0,-4.1148 2.8194,-7.0104 2.8575,-2.8956 6.9723,-2.8956 4.0386,0 6.78181,2.8194 2.7432,2.7813 2.8194,7.0866 h -5.1816 q -0.0762,-1.9431 -1.33351,-3.2004 -1.2573,-1.2573 -3.0861,-1.2573 -1.905,0 -3.2385,1.2954 -1.3335,1.2573 -1.3335,3.1623 0,1.4478 0.7239,2.3622 0.762,0.9144 2.9337,2.1336 5.56261,3.2766 8.03911,6.5532 2.4765,3.2385 2.4765,7.3533 z"
         style="fill:#ffffff;stroke-width:1.04179692px"
         id="path3740" />
      <path
         d="m 378.0139,673.63338 q 0,5.1435 -2.5908,7.9248 -2.5908,2.7813 -7.3914,2.7813 h -5.9436 v 16.6878 h -5.4864 v -38.1 h 11.43 q 4.4958,0 7.239,2.9337 2.7432,2.9337 2.7432,7.7724 z m -5.3721,0 q 0,-2.4003 -1.3716,-3.8862 -1.3716,-1.4859 -3.5814,-1.4859 h -5.6007 v 10.8204 h 5.6007 q 2.4003,0 3.6576,-1.4097 1.2954,-1.4097 1.2954,-4.0386 z"
         style="fill:#ffffff;stroke-width:1.04179692px"
         id="path3742" />
      <path
         d="m 407.20637,681.90108 q 0,8.4963 -2.1717,13.2588 -2.667,6.5151 -8.9535,6.5151 -3.3909,0 -5.5245,-1.524 -2.0955,-1.524 -3.5433,-4.9911 -2.1717,-4.8768 -2.1336,-13.2588 0,-8.4963 2.1336,-13.2588 1.4859,-3.3909 3.6195,-4.8768 2.1336,-1.4859 5.4483,-1.4859 3.3528,0 5.4102,1.4859 2.0955,1.4859 3.5433,5.0292 2.1717,4.8768 2.1717,13.1064 z m -5.2197,0 q 0,-5.2959 -1.1811,-9.4488 -1.2954,-4.8387 -4.7244,-4.8387 -3.3909,0 -4.7625,4.6863 -1.2573,3.9624 -1.2192,9.7536 0,4.8387 1.2192,9.6393 1.2954,4.6482 4.7625,4.6482 3.3909,0 4.7244,-4.6482 1.1811,-3.9243 1.1811,-9.7917 z"
         style="fill:#ffffff;stroke-width:1.04179692px"
         id="path3744" />
      <path
         d="m 436.22429,701.02728 h -5.6388 l -5.0673,-17.8689 h -5.2197 v 17.8689 h -5.4864 v -38.1 h 11.43 q 4.4958,0 7.239,2.8194 2.7432,2.7813 2.7432,7.3533 0,7.1628 -5.4864,9.1821 z m -5.3721,-27.9273 q 0,-2.2098 -1.3716,-3.5052 -1.3716,-1.3335 -3.5814,-1.3335 h -5.6007 v 9.6774 h 5.6007 q 2.4003,0 3.6576,-1.2573 1.2954,-1.2954 1.2954,-3.5814 z"
         style="fill:#ffffff;stroke-width:1.04179692px"
         id="path3746" />
      <path
         d="m 459.02506,667.99458 h -6.9342 v 33.0327 h -5.4864 v -33.0327 h -6.9723 v -5.0673 h 19.3929 z"
         style="fill:#ffffff;stroke-width:1.04179692px"
         id="path3748" />
      <path
         d="m 485.59534,701.02728 h -5.4864 l -2.667,-10.4394 h -8.1534 l -2.5527,10.4394 h -5.4864 l 9.525,-38.1 h 5.334 z m -9.4869,-15.8115 -2.7813,-10.9347 -2.7051,10.9347 z"
         style="fill:#ffffff;stroke-width:1.04179692px"
         id="path3750" />
      <path
         d="m 507.33842,667.99458 h -6.93421 v 33.0327 h -5.4864 v -33.0327 h -6.9723 v -5.0673 h 19.39291 z"
         style="fill:#ffffff;stroke-width:1.04179692px"
         id="path3752" />
      <path
         d="m 517.94479,701.02728 h -5.334 v -38.1 h 5.334 z"
         style="fill:#ffffff;stroke-width:1.04179692px"
         id="path3754" />
      <path
         d="m 547.84898,681.90108 q 0,8.4963 -2.1717,13.2588 -2.667,6.5151 -8.9535,6.5151 -3.3909,0 -5.5245,-1.524 -2.0955,-1.524 -3.5433,-4.9911 -2.1717,-4.8768 -2.1336,-13.2588 0,-8.4963 2.1336,-13.2588 1.4859,-3.3909 3.6195,-4.8768 2.1336,-1.4859 5.4483,-1.4859 3.3528,0 5.4102,1.4859 2.0955,1.4859 3.5433,5.0292 2.1717,4.8768 2.1717,13.1064 z m -5.2197,0 q 0,-5.2959 -1.1811,-9.4488 -1.2954,-4.8387 -4.7244,-4.8387 -3.3909,0 -4.7625,4.6863 -1.2573,3.9624 -1.2192,9.7536 0,4.8387 1.2192,9.6393 1.2954,4.6482 4.7625,4.6482 3.3909,0 4.7244,-4.6482 1.1811,-3.9243 1.1811,-9.7917 z"
         style="fill:#ffffff;stroke-width:1.04179692px"
         id="path3756" />
      <path
         d="m 576.8669,701.02728 h -4.1148 l -11.811,-25.527 v 25.527 h -5.4864 v -38.1 h 5.4864 l 10.4394,22.8981 v -22.8981 h 5.4864 z"
         style="fill:#ffffff;stroke-width:1.04179692px"
         id="path3758" />
    </g>
    <g
       aria-label="OHIO DEPT OF HEALTH"
       style="font-style:normal;font-variant:normal;font-weight:normal;font-stretch:normal;font-size:66.67500305px;line-height:125%;font-family:'Roadgeek 2014 Series C';-inkscape-font-specification:'Roadgeek 2014 Series C';text-align:center;letter-spacing:0px;word-spacing:0px;text-anchor:middle;fill:#ffffff;fill-opacity:1;stroke:none;stroke-width:1.04179692px;stroke-linecap:butt;stroke-linejoin:miter;stroke-opacity:1"
       id="text3698">
      <path
         d="m 96.54624,599.35109 q 0,8.4963 -2.1717,13.2588 -2.667,6.5151 -8.953501,6.5151 -3.3909,0 -5.5245,-1.524 -2.0955,-1.524 -3.5433,-4.9911 -2.1717,-4.8768 -2.1336,-13.2588 0,-8.4963 2.1336,-13.2588 1.4859,-3.3909 3.6195,-4.8768 2.1336,-1.4859 5.4483,-1.4859 3.352801,0 5.410201,1.4859 2.0955,1.4859 3.5433,5.0292 2.1717,4.8768 2.1717,13.1064 z m -5.2197,0 q 0,-5.2959 -1.1811,-9.4488 -1.2954,-4.8387 -4.724401,-4.8387 -3.3909,0 -4.7625,4.6863 -1.2573,3.9624 -1.2192,9.7536 0,4.8387 1.2192,9.6393 1.2954,4.6482 4.7625,4.6482 3.390901,0 4.724401,-4.6482 1.1811,-3.9243 1.1811,-9.7917 z"
         style="fill:#ffffff;stroke-width:1.04179692px"
         id="path3761" />
      <path
         d="m 125.56415,618.47729 h -5.4864 v -17.2212 h -10.4394 v 17.2212 h -5.4864 v -38.1 h 5.4864 v 15.5067 h 10.4394 v -15.5067 h 5.4864 z"
         style="fill:#ffffff;stroke-width:1.04179692px"
         id="path3763" />
      <path
         d="m 139.30739,618.47729 h -5.334 v -38.1 h 5.334 z"
         style="fill:#ffffff;stroke-width:1.04179692px"
         id="path3765" />
      <path
         d="m 169.21158,599.35109 q 0,8.4963 -2.1717,13.2588 -2.667,6.5151 -8.9535,6.5151 -3.3909,0 -5.5245,-1.524 -2.0955,-1.524 -3.5433,-4.9911 -2.1717,-4.8768 -2.1336,-13.2588 0,-8.4963 2.1336,-13.2588 1.4859,-3.3909 3.6195,-4.8768 2.1336,-1.4859 5.4483,-1.4859 3.3528,0 5.4102,1.4859 2.0955,1.4859 3.5433,5.0292 2.1717,4.8768 2.1717,13.1064 z m -5.2197,0 q 0,-5.2959 -1.1811,-9.4488 -1.2954,-4.8387 -4.7244,-4.8387 -3.3909,0 -4.7625,4.6863 -1.2573,3.9624 -1.2192,9.7536 0,4.8387 1.2192,9.6393 1.2954,4.6482 4.7625,4.6482 3.3909,0 4.7244,-4.6482 1.1811,-3.9243 1.1811,-9.7917 z"
         style="fill:#ffffff;stroke-width:1.04179692px"
         id="path3767" />
      <path
         d="m 214.50757,599.35109 q 0,13.0683 -5.4864,17.3736 -1.9431,1.7526 -5.3721,1.7526 h -10.5537 v -38.1 h 9.7917 q 4.2291,0 6.1341,1.4859 3.5814,2.5527 4.572,8.4201 0.9144,4.8768 0.9144,9.0678 z m -5.3721,0.2667 q 0,-7.3914 -1.0287,-9.9822 -1.2954,-3.9243 -4.953,-3.9243 h -4.572 v 27.432 h 4.572 q 2.286,0 3.6576,-1.524 1.3716,-1.5621 1.8288,-3.9624 0.4953,-4.8387 0.4953,-8.0391 z"
         style="fill:#ffffff;stroke-width:1.04179692px"
         id="path3769" />
      <path
         d="m 241.52836,618.47729 h -19.3929 v -38.1 h 17.9451 v 5.334 h -12.4587 v 9.6774 h 7.8867 v 5.2197 h -7.8867 v 12.5349 h 13.9065 z"
         style="fill:#ffffff;stroke-width:1.04179692px"
         id="path3771" />
      <path
         d="m 269.46235,591.08339 q 0,5.1435 -2.5908,7.9248 -2.5908,2.7813 -7.3914,2.7813 h -5.9436 v 16.6878 h -5.4864 v -38.1 h 11.43 q 4.4958,0 7.239,2.9337 2.7432,2.9337 2.7432,7.7724 z m -5.3721,0 q 0,-2.4003 -1.3716,-3.8862 -1.3716,-1.4859 -3.5814,-1.4859 h -5.6007 v 10.8204 h 5.6007 q 2.4003,0 3.6576,-1.4097 1.2954,-1.4097 1.2954,-4.0386 z"
         style="fill:#ffffff;stroke-width:1.04179692px"
         id="path3773" />
      <path
         d="m 293.43514,585.44459 h -6.9342 v 33.0327 h -5.4864 v -33.0327 h -6.9723 v -5.0673 h 19.3929 z"
         style="fill:#ffffff;stroke-width:1.04179692px"
         id="path3775" />
      <path
         d="m 336.55021,599.35109 q 0,8.4963 -2.1717,13.2588 -2.667,6.5151 -8.9535,6.5151 -3.3909,0 -5.5245,-1.524 -2.0955,-1.524 -3.5433,-4.9911 -2.1717,-4.8768 -2.1336,-13.2588 0,-8.4963 2.1336,-13.2588 1.4859,-3.3909 3.6195,-4.8768 2.1336,-1.4859 5.4483,-1.4859 3.3528,0 5.4102,1.4859 2.0955,1.4859 3.5433,5.0292 2.1717,4.8768 2.1717,13.1064 z m -5.2197,0 q 0,-5.2959 -1.1811,-9.4488 -1.2954,-4.8387 -4.7244,-4.8387 -3.3909,0 -4.7625,4.6863 -1.2573,3.9624 -1.2192,9.7536 0,4.8387 1.2192,9.6393 1.2954,4.6482 4.7625,4.6482 3.3909,0 4.7244,-4.6482 1.1811,-3.9243 1.1811,-9.7917 z"
         style="fill:#ffffff;stroke-width:1.04179692px"
         id="path3777" />
      <path
         d="m 363.54883,585.71129 h -13.9065 v 9.6774 h 7.62 v 5.2197 h -7.62 v 17.8689 h -5.48641 v -38.1 h 19.39291 z"
         style="fill:#ffffff;stroke-width:1.04179692px"
         id="path3779" />
      <path
         d="m 406.58888,618.47729 h -5.4864 v -17.2212 h -10.4394 v 17.2212 h -5.4864 v -38.1 h 5.4864 v 15.5067 h 10.4394 v -15.5067 h 5.4864 z"
         style="fill:#ffffff;stroke-width:1.04179692px"
         id="path3781" />
      <path
         d="m 434.39102,618.47729 h -19.3929 v -38.1 h 17.9451 v 5.334 h -12.4587 v 9.6774 h 7.8867 v 5.2197 h -7.8867 v 12.5349 h 13.9065 z"
         style="fill:#ffffff;stroke-width:1.04179692px"
         id="path3783" />
      <path
         d="m 462.21072,618.47729 h -5.4864 l -2.667,-10.4394 h -8.1534 l -2.5527,10.4394 h -5.4864 l 9.525,-38.1 h 5.334 z m -9.4869,-15.8115 -2.7813,-10.9347 -2.7051,10.9347 z"
         style="fill:#ffffff;stroke-width:1.04179692px"
         id="path3785" />
      <path
         d="m 487.00177,618.47729 h -19.3929 v -38.1 h 5.4864 v 32.9946 h 13.9065 z"
         style="fill:#ffffff;stroke-width:1.04179692px"
         id="path3787" />
      <path
         d="m 508.69644,585.44459 h -6.9342 v 33.0327 h -5.4864 v -33.0327 h -6.9723 v -5.0673 h 19.3929 z"
         style="fill:#ffffff;stroke-width:1.04179692px"
         id="path3789" />
      <path
         d="m 535.38102,618.47729 h -5.4864 v -17.2212 h -10.4394 v 17.2212 h -5.4864 v -38.1 h 5.4864 v 15.5067 h 10.4394 v -15.5067 h 5.4864 z"
         style="fill:#ffffff;stroke-width:1.04179692px"
         id="path3791" />
    </g>
    <g
       aria-label="500"
       style="font-style:normal;font-variant:normal;font-weight:normal;font-stretch:normal;font-size:133.3500061px;line-height:125%;font-family:'Roadgeek 2014 Series D';-inkscape-font-specification:'Roadgeek 2014 Series D';text-align:start;letter-spacing:0px;word-spacing:0px;text-anchor:start;fill:#ffffff;fill-opacity:1;stroke:none;stroke-width:2.08359385px;stroke-linecap:butt;stroke-linejoin:miter;stroke-opacity:1"
       id="text3702">
      <path
         d="m 173.81221,507.238 q 0,12.6492 -9.3726,21.0312 -9.37261,8.3058 -23.77441,8.3058 -9.906,0 -18.7452,-4.2672 l 5.8674,-10.5918 q 5.4864,2.5908 14.478,2.5908 8.2296,0 13.7922,-4.8006 5.63881,-4.8768 5.63881,-12.2682 0,-5.6388 -3.9624,-9.4488 -3.96241,-3.8862 -9.60121,-3.8862 -4.0386,0 -6.477,1.6002 -2.4384,1.524 -5.7912,6.4008 l -12.0396,-3.5814 1.8288,-39.243 h 43.89121 V 471.043 H 137.3886 l -0.762,12.6492 q 7.9248,-2.2098 11.7348,-2.2098 10.28701,0 17.83081,7.6962 7.62,7.62 7.62,18.0594 z"
         style="font-style:normal;font-variant:normal;font-weight:normal;font-stretch:normal;font-family:'Roadgeek 2014 Series D';-inkscape-font-specification:'Roadgeek 2014 Series D';text-align:start;text-anchor:start;fill:#ffffff;stroke-width:2.08359385px"
         id="path3794" />
      <path
         d="m 243.14171,497.332 q 0,9.2964 -2.2098,17.6022 -2.1336,8.3058 -6.0198,13.1826 -6.2484,8.4582 -18.51661,8.4582 -7.9248,0 -13.2588,-3.2766 -5.334,-3.2766 -8.6868,-10.287 -5.334,-10.4394 -5.334,-25.6794 0,-19.2024 8.3058,-30.9372 6.6294,-8.6106 19.431,-8.6106 14.09701,0 21.18361,13.6398 5.1054,10.5156 5.1054,25.908 z m -12.0396,0 q 0,-13.716 -4.572,-21.4122 -3.12421,-5.4864 -9.90601,-5.8674 -8.4582,-0.381 -12.2682,9.3726 -2.8956,7.1628 -2.8956,17.907 0,13.9446 4.4958,21.1074 3.429,5.8674 10.4394,5.8674 7.9248,0 11.73481,-9.6774 2.9718,-7.62 2.9718,-17.2974 z"
         style="font-style:normal;font-variant:normal;font-weight:normal;font-stretch:normal;font-family:'Roadgeek 2014 Series D';-inkscape-font-specification:'Roadgeek 2014 Series D';text-align:start;text-anchor:start;fill:#ffffff;stroke-width:2.08359385px"
         id="path3796" />
      <path
         d="m 312.42121,497.332 q 0,9.2964 -2.2098,17.6022 -2.1336,8.3058 -6.0198,13.1826 -6.2484,8.4582 -18.5166,8.4582 -7.9248,0 -13.2588,-3.2766 -5.334,-3.2766 -8.6868,-10.287 -5.334,-10.4394 -5.334,-25.6794 0,-19.2024 8.3058,-30.9372 6.6294,-8.6106 19.431,-8.6106 14.097,0 21.1836,13.6398 5.1054,10.5156 5.1054,25.908 z m -12.0396,0 q 0,-13.716 -4.572,-21.4122 -3.1242,-5.4864 -9.906,-5.8674 -8.4582,-0.381 -12.2682,9.3726 -2.8956,7.1628 -2.8956,17.907 0,13.9446 4.4958,21.1074 3.429,5.8674 10.4394,5.8674 7.9248,0 11.7348,-9.6774 2.9718,-7.62 2.9718,-17.2974 z"
         style="font-style:normal;font-variant:normal;font-weight:normal;font-stretch:normal;font-family:'Roadgeek 2014 Series D';-inkscape-font-specification:'Roadgeek 2014 Series D';text-align:start;text-anchor:start;fill:#ffffff;stroke-width:2.08359385px"
         id="path3798" />
    </g>
    <g
       aria-label="FT"
       style="font-style:normal;font-variant:normal;font-weight:normal;font-stretch:normal;font-size:133.3500061px;line-height:125%;font-family:'Roadgeek 2014 Series D';-inkscape-font-specification:'Roadgeek 2014 Series D';text-align:end;letter-spacing:0px;word-spacing:0px;text-anchor:end;fill:#ffffff;fill-opacity:1;stroke:none;stroke-width:2.08359385px;stroke-linecap:butt;stroke-linejoin:miter;stroke-opacity:1"
       id="text3706">
      <path
         d="m 436.09261,471.043 h -35.2806 v 18.8214 h 22.2504 v 12.2682 h -22.2504 v 33.147 h -11.9634 v -76.2 h 47.244 z"
         style="font-style:normal;font-variant:normal;font-weight:normal;font-stretch:normal;font-family:'Roadgeek 2014 Series D';-inkscape-font-specification:'Roadgeek 2014 Series D';text-align:end;text-anchor:end;fill:#ffffff;stroke-width:2.08359385px"
         id="path3801" />
      <path
         d="m 487.68329,469.7476 h -17.6022 v 65.532 h -12.0396 v -65.532 h -17.4498 v -10.668 h 47.0916 z"
         style="font-style:normal;font-variant:normal;font-weight:normal;font-stretch:normal;font-family:'Roadgeek 2014 Series D';-inkscape-font-specification:'Roadgeek 2014 Series D';text-align:end;text-anchor:end;fill:#ffffff;stroke-width:2.08359385px"
         id="path3803" />
    </g>
    <g
       aria-label="WATER"
       style="font-style:normal;font-variant:normal;font-weight:normal;font-stretch:normal;font-size:177.80000305px;line-height:125%;font-family:'Roadgeek 2014 Series D';-inkscape-font-specification:'Roadgeek 2014 Series D';text-align:center;letter-spacing:0px;word-spacing:0px;text-anchor:middle;fill:#ffffff;fill-opacity:1;stroke:none;stroke-width:2.77812505px;stroke-linecap:butt;stroke-linejoin:miter;stroke-opacity:1"
       id="text3710">
      <path
         d="m 187.23531,314.32499 -14.9352,101.6 h -14.3256 l -16.1544,-65.2272 -15.6464,65.2272 h -14.3256 l -14.935203,-101.6 h 16.560803 l 7.8232,53.5432 12.7,-53.5432 h 15.8496 l 13.0048,53.5432 7.8232,-53.5432 z"
         style="font-style:normal;font-variant:normal;font-weight:normal;font-stretch:normal;font-family:'Roadgeek 2014 Series D';-inkscape-font-specification:'Roadgeek 2014 Series D';fill:#ffffff;stroke-width:2.77812505px"
         id="path3806" />
      <path
         d="m 279.40636,415.92499 h -17.0688 l -10.0584,-28.5496 h -31.6992 l -9.9568,28.5496 h -17.1704 l 34.9504,-101.6 h 16.0528 z m -32.7152,-44.9072 -10.0584,-28.5496 -10.2616,28.5496 z"
         style="font-style:normal;font-variant:normal;font-weight:normal;font-stretch:normal;font-family:'Roadgeek 2014 Series D';-inkscape-font-specification:'Roadgeek 2014 Series D';fill:#ffffff;stroke-width:2.77812505px"
         id="path3808" />
      <path
         d="m 348.26695,328.54899 h -23.4696 v 87.376 h -16.0528 v -87.376 h -23.2664 v -14.224 h 62.7888 z"
         style="font-style:normal;font-variant:normal;font-weight:normal;font-stretch:normal;font-family:'Roadgeek 2014 Series D';-inkscape-font-specification:'Roadgeek 2014 Series D';fill:#ffffff;stroke-width:2.77812505px"
         id="path3810" />
      <path
         d="m 426.37276,415.92499 h -62.992 v -101.6 h 59.8424 v 15.9512 h -43.8912 v 25.0952 h 29.6672 v 16.3576 h -29.6672 v 27.8384 h 47.0408 z"
         style="font-style:normal;font-variant:normal;font-weight:normal;font-stretch:normal;font-family:'Roadgeek 2014 Series D';-inkscape-font-specification:'Roadgeek 2014 Series D';fill:#ffffff;stroke-width:2.77812505px"
         id="path3812" />
      <path
         d="m 512.68711,415.92499 h -17.3736 l -16.5608,-44.196 h -19.2024 v 44.196 h -15.9512 v -101.6 h 33.4264 q 11.4808,0 18.288,3.2512 6.604,3.3528 10.8712,10.4648 4.3688,7.112 4.3688,14.8336 0,8.0264 -4.3688,15.24 -4.2672,7.2136 -11.2776,10.4648 z m -18.288,-73.0504 q 0,-7.3152 -6.2992,-10.668 -3.3528,-1.9304 -9.3472,-1.9304 h -19.2024 v 25.0952 h 19.2024 q 6.2992,0 9.3472,-1.7272 6.2992,-3.2512 6.2992,-10.7696 z"
         style="font-style:normal;font-variant:normal;font-weight:normal;font-stretch:normal;font-family:'Roadgeek 2014 Series D';-inkscape-font-specification:'Roadgeek 2014 Series D';fill:#ffffff;stroke-width:2.77812505px"
         id="path3814" />
    </g>
    <g
       aria-label="DRINKING"
       style="font-style:normal;font-variant:normal;font-weight:normal;font-stretch:normal;font-size:111.125px;line-height:125%;font-family:'Roadgeek 2014 Series D';-inkscape-font-specification:'Roadgeek 2014 Series D';text-align:center;letter-spacing:0px;word-spacing:0px;text-anchor:middle;fill:#ffffff;fill-opacity:1;stroke:none;stroke-width:1.73632812px;stroke-linecap:butt;stroke-linejoin:miter;stroke-opacity:1"
       id="text3714">
      <path
         d="m 160.0887,236.9185 q 0,19.685 -11.1125,28.2575 -3.683,3.2385 -9.144,3.6195 h -3.556 -19.3675 v -63.5 h 20.447 q 4.7625,0 7.239,0.635 2.54,0.635 5.0165,2.7305 10.4775,9.017 10.4775,28.2575 z m -10.2235,0 q 0,-13.462 -5.1435,-18.923 -2.7305,-2.7305 -6.477,-2.7305 h -11.3665 v 43.307 h 10.033 q 4.572,0 7.0485,-2.4765 5.9055,-5.9055 5.9055,-19.177 z"
         style="font-style:normal;font-variant:normal;font-weight:normal;font-stretch:normal;font-family:'Roadgeek 2014 Series D';-inkscape-font-specification:'Roadgeek 2014 Series D';fill:#ffffff;stroke-width:1.73632812px"
         id="path3817" />
      <path
         d="m 217.17048,268.7955 h -10.8585 l -10.3505,-27.6225 h -12.0015 v 27.6225 h -9.9695 v -63.5 h 20.8915 q 7.1755,0 11.43,2.032 4.1275,2.0955 6.7945,6.5405 2.7305,4.445 2.7305,9.271 0,5.0165 -2.7305,9.525 -2.667,4.5085 -7.0485,6.5405 z m -11.43,-45.6565 q 0,-4.572 -3.937,-6.6675 -2.0955,-1.2065 -5.842,-1.2065 h -12.0015 v 15.6845 h 12.0015 q 3.937,0 5.842,-1.0795 3.937,-2.032 3.937,-6.731 z"
         style="font-style:normal;font-variant:normal;font-weight:normal;font-stretch:normal;font-family:'Roadgeek 2014 Series D';-inkscape-font-specification:'Roadgeek 2014 Series D';fill:#ffffff;stroke-width:1.73632812px"
         id="path3819" />
      <path
         d="m 238.2572,268.7955 h -10.2235 v -63.5 h 10.2235 z"
         style="font-style:normal;font-variant:normal;font-weight:normal;font-stretch:normal;font-family:'Roadgeek 2014 Series D';-inkscape-font-specification:'Roadgeek 2014 Series D';fill:#ffffff;stroke-width:1.73632812px"
         id="path3821" />
      <path
         d="M 296.6075,268.7955 H 287.654 L 263.397,225.806 v 42.9895 h -9.9695 v -63.5 h 9.9695 l 23.1775,40.5765 v -40.5765 h 10.033 z"
         style="font-style:normal;font-variant:normal;font-weight:normal;font-stretch:normal;font-family:'Roadgeek 2014 Series D';-inkscape-font-specification:'Roadgeek 2014 Series D';fill:#ffffff;stroke-width:1.73632812px"
         id="path3823" />
      <path
         d="m 356.07103,268.7955 h -11.557 l -16.0655,-30.0355 -6.6675,8.1915 v 21.844 h -9.9695 v -63.5 h 9.9695 v 25.2095 l 20.066,-25.2095 h 12.8905 l -19.558,24.765 z"
         style="font-style:normal;font-variant:normal;font-weight:normal;font-stretch:normal;font-family:'Roadgeek 2014 Series D';-inkscape-font-specification:'Roadgeek 2014 Series D';fill:#ffffff;stroke-width:1.73632812px"
         id="path3825" />
      <path
         d="m 377.16345,268.7955 h -10.2235 v -63.5 h 10.2235 z"
         style="font-style:normal;font-variant:normal;font-weight:normal;font-stretch:normal;font-family:'Roadgeek 2014 Series D';-inkscape-font-specification:'Roadgeek 2014 Series D';fill:#ffffff;stroke-width:1.73632812px"
         id="path3827" />
      <path
         d="m 435.51375,268.7955 h -8.9535 l -24.257,-42.9895 v 42.9895 h -9.9695 v -63.5 h 9.9695 l 23.1775,40.5765 v -40.5765 h 10.033 z"
         style="font-style:normal;font-variant:normal;font-weight:normal;font-stretch:normal;font-family:'Roadgeek 2014 Series D';-inkscape-font-specification:'Roadgeek 2014 Series D';fill:#ffffff;stroke-width:1.73632812px"
         id="path3829" />
      <path
         d="m 492.69128,249.8725 q 0,8.5725 -5.715,14.2875 -5.6515,5.715 -14.4145,5.715 -7.1755,0 -11.6205,-2.7305 -4.445,-2.7305 -7.3025,-8.763 -4.2545,-8.6995 -4.191,-21.209 0,-7.62 1.905,-14.605 1.9685,-6.985 5.2705,-11.176 5.842,-7.1755 16.1925,-7.1755 7.366,0 12.065,3.2385 4.699,3.2385 7.8105,10.795 l -9.525,3.7465 q -2.0955,-4.1275 -4.3815,-5.842 -2.286,-1.7145 -5.969,-1.7145 -7.62,0 -10.668,7.8105 -2.413,5.969 -2.413,14.9225 0,11.1125 3.048,17.399 2.8575,5.1435 8.6995,5.08 4.7625,0 7.9375,-2.7305 3.175,-2.7305 3.175,-7.0485 v -2.7305 h -11.557 v -9.9695 h 21.6535 z"
         style="font-style:normal;font-variant:normal;font-weight:normal;font-stretch:normal;font-family:'Roadgeek 2014 Series D';-inkscape-font-specification:'Roadgeek 2014 Series D';fill:#ffffff;stroke-width:1.73632812px"
         id="path3831" />
    </g>
    <g
       aria-label="SAFE"
       style="font-style:normal;font-variant:normal;font-weight:normal;font-stretch:normal;font-size:177.80000305px;line-height:125%;font-family:'Roadgeek 2014 Series D';-inkscape-font-specification:'Roadgeek 2014 Series D';text-align:center;letter-spacing:0px;word-spacing:0px;text-anchor:middle;fill:#ffffff;fill-opacity:1;stroke:none;stroke-width:2.77812505px;stroke-linecap:butt;stroke-linejoin:miter;stroke-opacity:1"
       id="text3718">
      <path
         d="m 214.16762,130.937 q 0,14.224 -9.9568,23.1648 -8.8392,7.8232 -22.0472,7.8232 -12.7,0 -22.352,-6.8072 -9.5504,-6.9088 -14.732,-18.796 l 15.24,-5.6896 q 6.8072,14.9352 21.844,14.9352 6.8072,0 11.176,-4.2672 4.4704,-4.2672 4.4704,-10.668 0,-3.8608 -1.6256,-6.8072 -1.524,-2.9464 -4.9784,-4.9784 -3.3528,-2.1336 -6.1976,-3.3528 -2.8448,-1.2192 -8.2296,-3.048 -5.2832,-1.8288 -7.9248,-2.8448 -19.7104,-7.8232 -19.6088,-25.298402 0,-14.224 8.5344,-20.828 8.636,-6.604 23.2664,-6.604 20.32,0 28.7528,20.6248 l -14.3256,4.1656 q -0.3048,-0.9144 -1.3208,-2.3368 -0.9144,-1.4224 -4.7752,-3.8608 -3.7592,-2.4384 -8.8392,-2.6416 -6.604,-0.3048 -11.3792,2.6416 -4.7752,2.9464 -4.2672,9.2456 0.3048,5.08 5.4864,8.128001 5.2832,2.9464 12.3952,4.9784 7.2136,2.032 14.3256,4.978401 7.112,2.9464 12.0904,9.9568 4.9784,7.0104 4.9784,18.1864 z"
         style="font-style:normal;font-variant:normal;font-weight:normal;font-stretch:normal;font-family:'Roadgeek 2014 Series D';-inkscape-font-specification:'Roadgeek 2014 Series D';fill:#ffffff;stroke-width:2.77812505px"
         id="path3834" />
      <path
         d="m 308.17779,160.1978 h -17.0688 l -10.0584,-28.5496 h -31.6992 l -9.9568,28.5496 h -17.1704 l 34.9504,-101.600002 h 16.0528 z m -32.7152,-44.9072 -10.0584,-28.549602 -10.2616,28.549602 z"
         style="font-style:normal;font-variant:normal;font-weight:normal;font-stretch:normal;font-family:'Roadgeek 2014 Series D';-inkscape-font-specification:'Roadgeek 2014 Series D';fill:#ffffff;stroke-width:2.77812505px"
         id="path3836" />
      <path
         d="m 386.38559,74.548998 h -47.04081 v 25.095201 h 29.66721 V 116.0018 h -29.66721 v 44.196 h -15.9512 V 58.597798 h 62.99201 z"
         style="font-style:normal;font-variant:normal;font-weight:normal;font-stretch:normal;font-family:'Roadgeek 2014 Series D';-inkscape-font-specification:'Roadgeek 2014 Series D';fill:#ffffff;stroke-width:2.77812505px"
         id="path3838" />
      <path
         d="m 464.52035,160.1978 h -62.992 V 58.597798 h 59.8424 v 15.9512 h -43.8912 v 25.095201 h 29.6672 V 116.0018 h -29.6672 v 27.8384 h 47.0408 z"
         style="font-style:normal;font-variant:normal;font-weight:normal;font-stretch:normal;font-family:'Roadgeek 2014 Series D';-inkscape-font-specification:'Roadgeek 2014 Series D';fill:#ffffff;stroke-width:2.77812505px"
         id="path3840" />
    </g>
  </g>
</svg>
