<?xml version="1.0" encoding="UTF-8" standalone="no"?>
<!-- Created with Inkscape (http://www.inkscape.org/) -->

<svg
   width="37.126331mm"
   height="27.848276mm"
   viewBox="0 0 37.126331 27.848276"
   version="1.1"
   id="svg1"
   inkscape:version="1.3 (0e150ed, 2023-07-21)"
   sodipodi:docname="MUTCD-OH_M5-H7.svg"
   xmlns:inkscape="http://www.inkscape.org/namespaces/inkscape"
   xmlns:sodipodi="http://sodipodi.sourceforge.net/DTD/sodipodi-0.dtd"
   xmlns="http://www.w3.org/2000/svg"
   xmlns:svg="http://www.w3.org/2000/svg">
  <sodipodi:namedview
     id="namedview1"
     pagecolor="#ffffff"
     bordercolor="#666666"
     borderopacity="1.0"
     inkscape:showpageshadow="2"
     inkscape:pageopacity="0.0"
     inkscape:pagecheckerboard="0"
     inkscape:deskcolor="#d1d1d1"
     inkscape:document-units="mm"
     inkscape:zoom="1"
     inkscape:cx="71"
     inkscape:cy="52"
     inkscape:window-width="1440"
     inkscape:window-height="431"
     inkscape:window-x="0"
     inkscape:window-y="23"
     inkscape:window-maximized="0"
     inkscape:current-layer="layer1" />
  <defs
     id="defs1">
    <clipPath
       clipPathUnits="userSpaceOnUse"
       id="clipPath110">
      <path
         d="M 0,0 H 612.12 V 792.12 H 0 V 0"
         transform="translate(-483.30001,-404.60001)"
         clip-rule="evenodd"
         id="path110" />
    </clipPath>
    <clipPath
       clipPathUnits="userSpaceOnUse"
       id="clipPath112">
      <path
         d="M 0,0 H 612.12 V 792.12 H 0 V 0"
         transform="translate(-483.30001,-404.60001)"
         clip-rule="evenodd"
         id="path112" />
    </clipPath>
    <clipPath
       clipPathUnits="userSpaceOnUse"
       id="clipPath114">
      <path
         d="M 0,0 H 612.12 V 792.12 H 0 V 0"
         transform="translate(-581.70001,-399.60001)"
         clip-rule="evenodd"
         id="path114" />
    </clipPath>
    <clipPath
       clipPathUnits="userSpaceOnUse"
       id="clipPath268">
      <path
         d="M 0,0 H 612.12 V 792.12 H 0 V 0"
         transform="translate(-522.10001,-446.10001)"
         clip-rule="evenodd"
         id="path268" />
    </clipPath>
    <clipPath
       clipPathUnits="userSpaceOnUse"
       id="clipPath270">
      <path
         d="M 0,0 H 612.12 V 792.12 H 0 V 0"
         transform="translate(-528.30001,-446.10001)"
         clip-rule="evenodd"
         id="path270" />
    </clipPath>
    <clipPath
       clipPathUnits="userSpaceOnUse"
       id="clipPath272">
      <path
         d="M 0,0 H 612.12 V 792.12 H 0 V 0"
         transform="translate(-546.40001,-446.10001)"
         clip-rule="evenodd"
         id="path272" />
    </clipPath>
    <clipPath
       clipPathUnits="userSpaceOnUse"
       id="clipPath274">
      <path
         d="M 0,0 H 612.12 V 792.12 H 0 V 0"
         transform="translate(-557.50001,-446.10001)"
         clip-rule="evenodd"
         id="path274" />
    </clipPath>
    <clipPath
       clipPathUnits="userSpaceOnUse"
       id="clipPath276">
      <path
         d="M 0,0 H 612.12 V 792.12 H 0 V 0"
         transform="translate(-532.60001,-411.10001)"
         clip-rule="evenodd"
         id="path276" />
    </clipPath>
    <clipPath
       clipPathUnits="userSpaceOnUse"
       id="clipPath278">
      <path
         d="M 0,0 H 612.12 V 792.12 H 0 V 0"
         transform="translate(-551.70001,-416.50001)"
         clip-rule="evenodd"
         id="path278" />
    </clipPath>
  </defs>
  <g
     inkscape:label="Layer 1"
     inkscape:groupmode="layer"
     id="layer1"
     transform="translate(-85.989578,-134.67292)">
    <path
       id="path109"
       d="M 0,0 C 0,-0.8 0.1,-1.7 0.5,-2.5 0.8,-3.3 1.3,-4 1.9,-4.7 2.6,-5.3 3.3,-5.8 4.1,-6.1 5,-6.5 5.8,-6.6 6.6,-6.6 h 91.8 c 0.8,0 1.6,0.1 2.4,0.5 0.8,0.3 1.6,0.8 2.3,1.4 0.6,0.7 1.1,1.4 1.4,2.2 0.3,0.8 0.5,1.7 0.5,2.5 v 65.6 c 0,0.7 -0.2,1.6 -0.5,2.4 -0.3,0.8 -0.8,1.6 -1.4,2.2 -0.7,0.6 -1.5,1.1 -2.3,1.5 -0.8,0.3 -1.6,0.4 -2.4,0.4 H 6.6 C 5.8,72.1 5,72 4.1,71.7 3.3,71.3 2.6,70.8 1.9,70.2 1.3,69.6 0.8,68.8 0.5,68 0.1,67.2 0,66.3 0,65.6 V 0"
       style="fill:#ffffff;fill-opacity:1;fill-rule:evenodd;stroke:none"
       transform="matrix(0.35277776,0,0,-0.35277776,86.031911,160.15053)"
       clip-path="url(#clipPath110)" />
    <path
       id="path111"
       d="m 0,0 c 0,-1.8 0.7,-3.5 1.9,-4.7 1.3,-1.2 2.9,-1.9 4.7,-1.9 h 91.8 c 1.8,0 3.4,0.7 4.7,1.9 1.2,1.2 1.9,2.9 1.9,4.7 v 65.6 c 0,1.7 -0.7,3.4 -1.9,4.6 -1.3,1.2 -2.9,1.9 -4.7,1.9 H 6.6 C 4.8,72.1 3.2,71.4 1.9,70.2 0.7,69 0,67.3 0,65.6 V 0"
       style="fill:none;stroke:#000000;stroke-width:0.24;stroke-linecap:butt;stroke-linejoin:round;stroke-miterlimit:1.414;stroke-dasharray:none;stroke-opacity:1"
       transform="matrix(0.35277776,0,0,-0.35277776,86.031911,160.15053)"
       clip-path="url(#clipPath112)" />
    <path
       id="path113"
       d="m 0,0 h -91.8 c -0.6,0 -1.2,0.1 -1.9,0.4 -0.6,0.2 -1.1,0.6 -1.6,1.1 -0.5,0.5 -0.9,1 -1.1,1.6 -0.3,0.6 -0.4,1.3 -0.4,1.9 v 65.6 c 0,1.2 0.5,2.4 1.5,3.4 0.5,0.5 1,0.9 1.6,1.1 0.7,0.3 1.3,0.4 1.9,0.4 H 0 C 1.2,75.5 2.5,75 3.5,74 4,73.6 4.3,73 4.6,72.4 4.8,71.8 4.9,71.1 4.9,70.6 V 5 C 4.9,3.8 4.5,2.5 3.5,1.5 2.5,0.5 1.2,0 0,0 M -91.8,2.8 H 0 C 0.5,2.8 1.1,3 1.6,3.4 2,3.8 2.2,4.4 2.2,5 V 70.6 C 2.2,71.1 2,71.7 1.6,72.1 1.1,72.6 0.5,72.7 0,72.7 h -91.8 c -0.6,0 -1.1,-0.1 -1.6,-0.6 -0.4,-0.4 -0.6,-1 -0.6,-1.5 L -94,5 c 0,-1.3 1,-2.2 2.2,-2.2"
       style="fill:#000000;fill-opacity:1;fill-rule:evenodd;stroke:none"
       transform="matrix(0.35277776,0,0,-0.35277776,120.74524,161.91442)"
       clip-path="url(#clipPath114)" />
    <path
       id="path267"
       d="M 0,0 V 3.1 H -9.9 V 8 h 5.3 v 3.1 h -5.3 v 3.3 h 9.6 v 3.1 H -13.1 V 0 H 0"
       style="fill:#000000;fill-opacity:1;fill-rule:evenodd;stroke:none"
       transform="matrix(0.35277776,0,0,-0.35277776,99.719688,145.51025)"
       clip-path="url(#clipPath268)" />
    <path
       id="path269"
       d="M 0,0 3.9,6.3 7.8,0 h 3.7 L 5.8,9.2 11,17.5 H 7.2 L 3.9,12.2 0.5,17.5 H -3.2 L 2,9.2 -3.7,0 H 0"
       style="fill:#000000;fill-opacity:1;fill-rule:evenodd;stroke:none"
       transform="matrix(0.35277776,0,0,-0.35277776,101.90691,145.51025)"
       clip-path="url(#clipPath270)" />
    <path
       id="path271"
       d="M 0,0 V 17.5 H -3.1 V 0 H 0"
       style="fill:#000000;fill-opacity:1;fill-rule:evenodd;stroke:none"
       transform="matrix(0.35277776,0,0,-0.35277776,108.29219,145.51025)"
       clip-path="url(#clipPath272)" />
    <path
       id="path273"
       d="m 0,0 v 14.4 h 5.1 v 3.1 H -8.1 v -3.1 h 5 L -3.1,0 H 0"
       style="fill:#000000;fill-opacity:1;fill-rule:evenodd;stroke:none"
       transform="matrix(0.35277776,0,0,-0.35277776,112.20802,145.51025)"
       clip-path="url(#clipPath274)" />
    <path
       id="path275"
       d="m 0,0 v 4.6 h -15.5 c 1,2 2.3,3.6 4,4.8 0.7,0.5 2.5,1.2 5.2,2.1 2.3,0.7 3.9,1.6 4.8,2.9 1,1.3 1.5,2.8 1.5,4.3 0,2.8 -1,4.8 -3.2,6.2 -1.8,1.2 -4.2,1.8 -7.1,1.8 -4.2,0 -7.9,-1.3 -10.9,-4 l 3.2,-3.6 c 2.1,1.9 4.7,2.8 7.8,2.8 1.8,0 3.2,-0.2 4.1,-0.8 1,-0.5 1.4,-1.3 1.4,-2.3 0,-0.7 -0.3,-1.3 -0.9,-1.8 -0.4,-0.5 -1.4,-0.9 -3,-1.4 -1.9,-0.7 -3,-1.1 -3.4,-1.2 -1.4,-0.7 -2.7,-1.4 -3.8,-2.4 -1.1,-0.9 -2,-2 -2.9,-3.2 -0.9,-1.3 -1.5,-2.7 -1.9,-4 C -21,3.4 -21.2,1.9 -21.2,0.4 V 0 H 0"
       style="fill:#000000;fill-opacity:1;fill-rule:evenodd;stroke:none"
       transform="matrix(0.35277776,0,0,-0.35277776,103.42385,157.85747)"
       clip-path="url(#clipPath276)" />
    <path
       id="path277"
       d="M 0,0 V -5.4 H 4.6 V 0 H 8.5 V 4.2 H 4.6 V 20.9 H 0 L -16.2,4.2 V 0 H 0 M 0,14.7 V 4.2 H -10.2 L 0,14.7"
       style="fill:#000000;fill-opacity:1;fill-rule:evenodd;stroke:none"
       transform="matrix(0.35277776,0,0,-0.35277776,110.16191,155.95247)"
       clip-path="url(#clipPath278)" />
  </g>
</svg>
