<?xml version="1.0" encoding="UTF-8"?>
<svg width="4320px" height="2700px" viewBox="0 0 3456 2160" xmlns="http://www.w3.org/2000/svg">
<defs>
<style>.a{fill:#dd7500;}</style>
</defs>
<rect class="a" width="3456" height="2160" rx="135"/>
<path d="m3321 36h-3186a99.111 99.111 0 0 0-99 99v1890a99.111 99.111 0 0 0 99 99h3186a99.111 99.111 0 0 0 99-99v-1890a99.11 99.11 0 0 0-99-99zm45 1989a45.055 45.055 0 0 1-45 45h-3186a45.055 45.055 0 0 1-45-45v-1890a45.055 45.055 0 0 1 45-45h3186a45.055 45.055 0 0 1 45 45z"/>
<path d="m1172.7 626.4c-30.456 18.415-69.823 29.214-109.57 29.214-74.575 0-130.95-27.648-179.66-84.511l62.425-49.195c31.968 38.394 66.961 55.351 115.67 55.351 54.811 0 94.394-25.758 94.394-56.863 0-43.903-43.794-46.873-164.7-80.839-60.805-17.064-88.021-63.343-88.021-109.73 0-72.307 60.967-121.39 149.2-121.39 63.937 0 117.34 21.438 161.41 67.501l-57.889 52.272c-27.378-29.214-62.425-43.038-103.52-43.038-47.359 0-69.985 19.225-69.985 44.065 0 47.898 58.807 37.314 166.27 75.169 75.871 26.785 84.889 91.586 84.889 119.02 5e-4 44.551-19.818 78.409-60.913 102.98z"/>
<path d="m1306.6 215.94h77.599v365.32h246.41v66.691h-324z"/>
<path d="m1691.1 431.19c0-137.92 69.878-222.75 183.82-222.75 107.57 0 179.28 88.777 179.28 221.3 0 134.84-69.337 225.78-179.28 225.78-127.6-3e-4 -183.82-115.89-183.82-224.32zm79.004 0c0 92.449 39.475 146.99 104.82 146.99 82.027 0 101.79-80.354 101.79-146.99 0-91.748-37.639-145.53-101.79-145.53-65.341 0-104.82 54.595-104.82 145.53z"/>
<path d="m2413.3 647.95-69.823-289.5-68.257 289.5h-81.974l-78.895-432.01h80.407l47.034 278.91 63.775-278.91h77.383l66.799 278.91 43.957-278.91h78.896l-77.384 432.01z"/>
<path d="m436.02 1296h-75.709v-356.19h-124.15v-75.817h324v75.817h-124.15z"/>
<path d="m915.47 1111.1 78.788 184.9h-86.348l-69.715-169.78h-116.75v169.78h-77.329v-432.01h204.23c89.264 0 136.84 70.525 136.84 131.87 0 48.493-25.758 90.991-69.715 115.24zm-194.02-169.78v107.57h124.42c37.854 0 62.101-21.762 62.101-53.029 0-33.373-24.3-54.541-62.155-54.541z"/>
<path d="m1379.7 1194.4h-187.92l-42.444 101.58h-84.836l181.87-432.01h78.787l180.31 432.01h-83.377zm-154.6-77.275h121.23l-60.589-145.53z"/>
<path d="m1661 1077.7c0 94.016 39.367 148.5 104.55 148.5 39.421 0 60.643-13.662 98.552-54.595l68.203 36.396c-31.807 60.644-97.04 95.474-166.75 95.474-113.67 0-183.39-90.182-183.39-224.32 0-137.86 69.877-222.7 183.39-222.7 69.715 0 133.44 34.777 166.75 95.42l-68.203 36.396c-15.013-26.19-52.651-54.595-98.552-54.595-78.84 2e-4 -104.55 77.329-104.55 144.02z"/>
<path d="m2208.8 1296h-75.709v-356.19h-124.15v-75.817h324v75.817h-124.15z"/>
<path d="m2409.7 1079.2c0-137.92 69.877-222.75 183.82-222.75 107.57 0 179.28 88.778 179.28 221.3 0 134.84-69.337 225.78-179.28 225.78-127.6 2e-4 -183.82-115.89-183.82-224.32zm79.003 0c0 92.449 39.475 146.99 104.82 146.99 82.027 0 101.79-80.354 101.79-146.99 0-91.748-37.639-145.53-101.79-145.53-65.341 0-104.82 54.595-104.82 145.53z"/>
<path d="m3141.1 1111.1 78.787 184.9h-86.347l-69.716-169.78h-116.75v169.78h-77.329v-432.01h204.23c89.264 0 136.84 70.525 136.84 131.87-2e-4 48.493-25.758 90.991-69.715 115.24zm-194.03-169.78v107.57h124.42c37.855 0 62.102-21.762 62.102-53.029 0-33.373-24.301-54.541-62.155-54.541z"/>
<path d="m933.68 1842.4h-187.92l-42.445 101.58h-84.835l181.88-432.01h78.787l180.31 432.01h-83.378zm-154.6-77.275h121.23l-60.589-145.53z"/>
<path d="m1408.4 1756h-194.84v187.98h-77.653v-432.01h77.653v166.75h194.84v-166.75h77.653v432.01h-77.653z"/>
<path d="m1582.2 1511.9h316.39v77.329h-237.28v80.3h129.28v78.841h-129.28v118.21h244.89v77.329h-324.01z"/>
<path d="m2285.2 1842.4h-187.92l-42.444 101.58h-84.835l181.88-432.01h78.787l180.31 432.01h-83.376zm-154.6-77.275h121.23l-60.589-145.53z"/>
<path d="m2487.4 1511.9h139.48c124.53 0 210.6 90.506 210.6 215.25 0 118.69-76.951 216.76-206.77 216.76h-143.32zm78.733 77.329v277.35h59.887c69.23 0 134.3-45.686 134.3-139.43 0-87.158-54.595-137.92-133.71-137.92z"/>
</svg>
