<svg width="10800" height="5400" viewBox="0 0 8640 4320" xmlns="http://www.w3.org/2000/svg">
    <path style="fill:#fff" d="M0 0h8640v4320H0z"/>
    <path d="m1650.5 712.41-213.02 439.54-210.5-439.54v439.54h-126.8V431.98h126.8l210.5 426.94 213.02-426.94h126.81v719.97H1650.5zm291.03 78.297c0-229.85 116.46-371.24 306.35-371.24 179.27 0 298.79 147.95 298.79 368.81 0 224.72-115.56 376.27-298.79 376.27-212.66 0-306.35-193.13-306.35-373.84zm131.66 0c0 154.07 65.788 244.97 174.68 244.97 136.7 0 169.64-133.91 169.64-244.97 0-152.9-62.728-242.54-169.64-242.54-108.9 0-174.68 90.986-174.68 242.54zm866.55 361.24-261.62-719.97h136.97l194.39 525.49 194.3-525.49h137.06l-264.05 719.97zm543.64-719.97h527.29v128.88h-395.44v133.82h215.45v131.39h-215.45v197h408.13v128.87h-539.98zM4743.4 790.66c0-229.85 116.46-371.23 306.35-371.23 179.27 0 298.79 147.95 298.79 368.8 0 224.72-115.56 376.27-298.79 376.27-212.66 0-306.35-193.13-306.35-373.84zm131.66 0c0 154.07 65.787 244.97 174.68 244.97 136.7 0 169.64-133.91 169.64-244.97 0-152.9-62.728-242.54-169.64-242.54-108.9 0-174.68 90.986-174.68 242.54zm859.35 361.24-261.62-719.97h136.97l194.39 525.49 194.3-525.49h137.06l-264.05 719.97zm536.17-719.97h527.29V560.8h-395.44v133.82h215.45v131.39h-215.45v197h408.13v128.87h-539.98zm1138 411.82 131.3 308.15h-143.9l-116.19-282.95h-194.57v282.95h-128.88V431.93h340.37c148.76 0 228.05 117.54 228.05 219.77 0 80.817-42.928 151.64-116.19 192.05zM7085.22 560.8v179.27h207.35c63.088 0 103.5-36.268 103.5-88.376 0-55.618-40.499-90.896-103.59-90.896zM3868.3 1614.3h125.66v69.715H3868.3v187.98h-68.149v-432.01h267.95v68.203h-199.8zm572.65 41.688c0 15.498 3.294 223.56-153.47 223.56s-153.47-208.07-153.47-223.56-3.294-223.51 153.47-223.51 153.47 208.01 153.47 223.51zm-152.71 153.9c46.549 0 84.349-44.119 84.349-153.9s-37.8-153.9-84.349-153.9-84.35 44.064-84.35 153.9c0 109.78 37.801 153.9 84.35 153.9zm325.66-125.93v188.03h-68.148v-432.01h156.28c99.038 0 128.74 79.219 128.74 121.34 0 16.038-5.94 79.219-67.069 108.16l76.141 202.5h-74.306l-69.714-188.03zm85.808-69.661c54.217 0 62.749-39.097 62.749-53.029 0-18.847-14.094-53.083-59.454-53.083h-89.102v106.11zM314.64 2711l108.54-40.318c30.329 68.127 86.037 105.93 154.16 105.93 65.607 0 111.33-45.358 111.33-105.93 0-96.206-111.33-110.97-204.65-148.85-42.928-17.64-138.77-60.568-138.77-179.09 0-141.38 95.846-194.3 224.54-194.3 100.89 0 169.01 58.048 204.38 146.33l-100.98 30.239c-16.649-32.489-51.568-63.088-112.05-63.088-87.117 0-105.21 47.519-105.21 72.717 0 67.228 58.047 80.547 152.27 110.16 95.936 30.148 196.55 74.337 196.55 228.41-.09 155.33-126.17 219.41-227.42 219.41-123.65 0-214.73-73.077-262.7-181.61zm818.14 168.92h-114.2v-618.9H853.71v-101.07h446.56v101.07h-167.48zm762.76-359.99c0 25.829 5.49 372.58-255.77 372.58S1384 2545.75 1384 2519.93s-5.49-372.5 255.77-372.5 255.77 346.67 255.77 372.5zm-254.51 256.49c77.577 0 140.57-73.527 140.57-256.49s-62.998-256.49-140.57-256.49-140.57 73.436-140.57 256.49c0 182.96 62.998 256.49 140.58 256.49zm650.73-209.78h-134.09v313.28h-113.58v-719.97h272.15c169.37 0 217.97 137.69 217.97 202.13 0 44.728-24.569 204.56-242.45 204.56zm-134.09-116.18h160.28c90.356 0 99.986-65.158 99.986-88.377 0-33.748-25.379-88.466-96.116-88.466h-164.15zm722.36 116.18h-134.09v313.28h-113.58v-719.97h272.15c169.37 0 217.97 137.69 217.97 202.13 0 44.728-24.569 204.56-242.45 204.56zm-134.09-116.18h160.28c90.356 0 99.986-65.158 99.986-88.377 0-33.748-25.379-88.466-96.116-88.466h-164.15zm474.69-290.51h423.88v113.67H3334.2v176.84h209.42v116.18H3334.2v197.09h332.99v116.18h-446.56zm560.3 719.97v-719.97h259.73c181.7 0 230.39 239.3 230.39 343.79 0 270.08-138.86 376.18-229.94 376.18zm242.45-606.3H3894.5v490.03h120.86c104.76 0 139.13-126.89 139.13-262.43 0-64.438-18.359-227.6-131.12-227.6zM5003.2 2879.9l-228.14-719.97h119.16l154.61 479.95 152.09-479.95h121.67l-230.66 719.97zm383.55-719.97h423.88v113.66h-310.31v176.84h209.42v116.19h-209.42v197.09h332.99v116.19h-446.56zm902.26 406.69h-262.88v313.28h-113.58v-719.97h113.58v290.51h262.79v-290.51h113.76v719.97h-113.66zm243.32-406.69h115.2v719.97h-115.2zm230.41 358.73c0-101.25 20.339-371.24 265.22-371.24 104.4 0 175.49 42.478 224.9 146.51l-106.11 45.448c-36.809-52.918-55.168-75.776-118.71-75.776-150.65 0-149.03 209.96-149.03 255.14 0 44.638-2.79 257.75 154.07 257.75 54.988 0 86.577-33.208 111.15-83.426l108.63 40.408c-40.498 100.17-108.54 159.02-217.34 159.02-259.1 0-272.78-286.19-272.78-373.84zm605.37-358.73h113.58v613.87h332.99v106.1h-446.56zm510.71 0h423.88v113.66h-310.31v176.84h209.42v116.19h-209.42v197.09h332.99v116.19h-446.56zM603.51 3780l-68.473-277.4L468.13 3780h-60.859l-63.829-432.01h69.931l33.481 227.4 54.703-227.4h66.961l56.215 227.4 33.48-227.4h69.931L664.261 3780zm201-432.01h69.121V3780H804.51zM1115.07 3780h-68.527v-371.36h-98.929v-60.644h267.95v60.644h-100.5zm402.17-187.98H1359.5V3780h-68.149v-432.01h68.149v174.32h157.68v-174.32h68.257V3780h-68.203zM2036.3 3544.3h167.56v92.96H2036.3v250.65h-90.872v-576.05h357.29v90.943h-266.42zm342.57-232.44h90.872v491.15h266.42v84.895h-357.3zm715.72 414.32h-180.88l-56.957 161.73h-97.568l199.24-576.05h91.52l199.17 576.05h-97.568zm-148.33-92.96h115.86l-56.957-161.65zm337.41 119.53 86.84-32.259c24.266 54.509 68.838 84.751 123.35 84.751 52.492 0 89.071-36.291 89.071-84.751 0-76.975-89.071-88.784-163.74-119.1-34.347-14.113-111.03-48.46-111.03-143.29 0-113.12 76.686-155.46 179.66-155.46 80.719 0 135.23 46.443 163.53 117.08l-80.791 24.194c-13.321-25.994-41.26-50.477-89.648-50.477-69.701 0-84.175 38.02-84.175 58.181 0 53.789 46.444 64.446 121.84 88.136 76.758 24.122 157.26 59.478 157.26 182.75-.071 124.28-100.95 175.55-181.96 175.55-98.937 0-171.81-58.469-210.19-145.31zm779.74-115.5h-210.33v250.65h-90.872v-576.05h90.872v232.44h210.26v-232.44h91.016v576.05h-90.943zm217.65-325.4h92.168v576.05h-92.168zm309.76 185.99v390.06h-90.872v-576.05h90.872l210.26 367.88v-367.88h91.016v576.05h-80.862zm626.56-196c92.312 0 144.3 34.995 183.33 127.31l-86.911 34.275c-24.267-50.549-48.461-68.694-92.961-68.694-126.59 0-119.31 192.69-119.31 206.15 0 21.674-4.897 204.14 107.14 204.14 58.613 0 101.1-36.363 101.1-88.928v-24.194h-105.13v-91.016h196v115.21c0 105.06-76.759 181.89-181.96 181.89-20.882 0-210.11 17.209-210.11-298.11 0-44.14 2.447-298.03 208.82-298.03zM5868.7 3311.9h90.872v491.15h266.42v84.895h-357.29zm438.51 0h92.168v576.05h-92.168zm421.94-10.009c92.312 0 144.3 34.995 183.33 127.31l-86.911 34.275c-24.267-50.549-48.461-68.694-92.961-68.694-126.59 0-119.31 192.69-119.31 206.15 0 21.674-4.897 204.14 107.15 204.14 58.612 0 101.1-36.363 101.1-88.928v-24.194h-105.13v-91.016h196v115.21c0 105.06-76.759 181.89-181.96 181.89-20.881 0-210.11 17.209-210.11-298.11 0-44.141 2.447-298.03 208.82-298.03zm605.48 335.41H7124.3v250.65h-90.872v-576.05h90.872v232.44h210.26v-232.44h91.015v576.05h-90.943zm394.86 250.65h-91.376v-495.19h-131.92v-80.863h357.29v80.863h-134zm174.9-135.16 86.84-32.259c24.267 54.509 68.838 84.751 123.35 84.751 52.492 0 89.071-36.291 89.071-84.751 0-76.975-89.071-88.784-163.74-119.1-34.347-14.113-111.03-48.46-111.03-143.29 0-113.12 76.688-155.46 179.66-155.46 80.719 0 135.23 46.444 163.53 117.08l-80.791 24.194c-13.32-25.994-41.26-50.477-89.648-50.477-69.702 0-84.175 38.02-84.175 58.181 0 53.789 46.443 64.446 121.83 88.136 76.759 24.122 157.26 59.478 157.26 182.75-.072 124.28-100.95 175.55-181.96 175.55-98.937 0-171.81-58.47-210.19-145.31z"/>
    <path d="M8208 144a287.68 287.68 0 0 1 288 288v3456a287.68 287.68 0 0 1-288 288H432a287.68 287.68 0 0 1-288-288V432a287.68 287.68 0 0 1 288-288zm0-90H432C223.24 54 54 223.24 54 432v3456c0 208.76 169.24 378 378 378h7776c208.76 0 378-169.24 378-378V432c0-208.76-169.24-378-378-378z"/>
</svg>
