<?xml version="1.0" encoding="UTF-8" standalone="no"?>
<!-- Created with Inkscape (http://www.inkscape.org/) -->

<svg
   width="24in"
   height="30in"
   viewBox="0 0 609.6 762.00003"
   version="1.1"
   id="svg4493"
   enable-background="new"
   inkscape:version="1.3 (0e150ed, 2023-07-21)"
   sodipodi:docname="MUTCD-OH_R4-H3aL.svg"
   xmlns:inkscape="http://www.inkscape.org/namespaces/inkscape"
   xmlns:sodipodi="http://sodipodi.sourceforge.net/DTD/sodipodi-0.dtd"
   xmlns="http://www.w3.org/2000/svg"
   xmlns:svg="http://www.w3.org/2000/svg"
   xmlns:rdf="http://www.w3.org/1999/02/22-rdf-syntax-ns#"
   xmlns:cc="http://creativecommons.org/ns#"
   xmlns:dc="http://purl.org/dc/elements/1.1/">
  <defs
     id="defs4487">
    <rect
       x="680"
       y="1377.1429"
       width="3514.2859"
       height="360"
       id="rect91616" />
    <rect
       x="565.71429"
       y="1142.8571"
       width="3457.1428"
       height="1291.4286"
       id="rect64090" />
    <rect
       x="577.14288"
       y="1222.8571"
       width="3211.4287"
       height="422.85715"
       id="rect48968" />
  </defs>
  <sodipodi:namedview
     id="base"
     pagecolor="#ffffff"
     bordercolor="#666666"
     borderopacity="1.0"
     inkscape:pageopacity="0.0"
     inkscape:pageshadow="2"
     inkscape:zoom="0.175"
     inkscape:cx="1057.1429"
     inkscape:cy="1508.5714"
     inkscape:document-units="in"
     inkscape:current-layer="layer3"
     showgrid="false"
     units="in"
     inkscape:window-width="1440"
     inkscape:window-height="855"
     inkscape:window-x="0"
     inkscape:window-y="23"
     inkscape:window-maximized="1"
     inkscape:pagecheckerboard="0"
     showguides="true"
     width="18in"
     inkscape:showpageshadow="2"
     inkscape:deskcolor="#d1d1d1" />
  <metadata
     id="metadata4490">
    <rdf:RDF>
      <cc:Work
         rdf:about="">
        <dc:format>image/svg+xml</dc:format>
        <dc:type
           rdf:resource="http://purl.org/dc/dcmitype/StillImage" />
      </cc:Work>
    </rdf:RDF>
  </metadata>
  <g
     inkscape:label="Sign Back"
     inkscape:groupmode="layer"
     id="layer1"
     transform="translate(0,465.00002)"
     sodipodi:insensitive="true">
    <g
       id="g3578"
       transform="matrix(9.7313737,0,0,9.7313737,-2393.1978,2547.7564)">
      <g
         id="g3889">
        <g
           id="g3895">
          <rect
             style="opacity:1;fill:#ffffff;fill-opacity:1;stroke:#000000;stroke-width:0.185318;stroke-linecap:round;stroke-linejoin:round;stroke-miterlimit:4;stroke-dasharray:none;stroke-opacity:1"
             id="rect3868"
             width="62.64275"
             height="78.303436"
             x="245.92599"
             y="-309.5921"
             rx="3.9151719"
             ry="3.9151719" />
          <rect
             style="opacity:1;fill:#ffffff;fill-opacity:1;stroke:#000000;stroke-width:1.63132;stroke-linecap:round;stroke-linejoin:round;stroke-miterlimit:4;stroke-dasharray:none;stroke-opacity:1"
             id="rect3868-3"
             width="59.053844"
             height="74.714531"
             x="247.72046"
             y="-307.79764"
             rx="2.4469824"
             ry="2.4469824" />
        </g>
      </g>
    </g>
  </g>
  <g
     inkscape:groupmode="layer"
     id="layer3"
     inkscape:label="Legends"
     transform="matrix(9.7313737,0,0,9.7313737,-2393.1978,3012.7564)">
    <path
       d="m 255.98546,-300.37317 h -1.90016 v 9.05188 h -1.50343 v -9.05188 h -1.9106 v -1.38858 h 5.31419 z m 7.32918,9.05188 h -1.50342 v -4.71909 h -2.86069 v 4.71909 h -1.50342 v -10.44046 h 1.50342 v 4.24927 h 2.86069 v -4.24927 h 1.50342 z m 8.16441,0 h -1.54519 l -1.38858,-4.89657 h -1.43034 v 4.89657 h -1.50343 v -10.44046 h 3.13214 q 1.23198,0 1.98369,0.7726 0.75171,0.76215 0.75171,2.01501 0,1.9628 -1.50342,2.51615 z m -1.4721,-7.65285 q 0,-0.60555 -0.37586,-0.96053 -0.37586,-0.36541 -0.9814,-0.36541 h -1.53475 v 2.65187 h 1.53475 q 0.65775,0 1.00228,-0.34453 0.35498,-0.35498 0.35498,-0.9814 z m 9.15627,2.41174 q 0,2.32822 -0.5951,3.63328 -0.73084,1.78532 -2.45351,1.78532 -0.9292,0 -1.51387,-0.41762 -0.57422,-0.41762 -0.97096,-1.3677 -0.59511,-1.33638 -0.58467,-3.63328 0,-2.32822 0.58467,-3.63328 0.40718,-0.9292 0.99184,-1.33638 0.58467,-0.40717 1.49299,-0.40717 0.91876,0 1.48254,0.40717 0.57423,0.40718 0.97097,1.37814 0.5951,1.33638 0.5951,3.59152 z m -1.43034,0 q 0,-1.45122 -0.32366,-2.58923 -0.35497,-1.32594 -1.29461,-1.32594 -0.9292,0 -1.30506,1.28418 -0.34453,1.0858 -0.33409,2.67275 0,1.32594 0.33409,2.64144 0.35498,1.27373 1.30506,1.27373 0.9292,0 1.29461,-1.27373 0.32366,-1.07537 0.32366,-2.6832 z m 9.38596,2.12985 q 0,1.05449 -0.39674,1.82708 -0.39674,0.64731 -1.08581,1.05449 -0.68907,0.40718 -1.4199,0.40718 -0.77259,0 -1.4721,-0.39674 -0.68907,-0.40718 -1.08581,-1.06493 -0.40718,-0.80391 -0.40718,-1.82708 v -7.3292 h 1.50343 v 7.50669 q 0,0.73083 0.39673,1.19021 0.40718,0.45938 1.06493,0.45938 0.60555,0 1.00228,-0.45938 0.39674,-0.45938 0.39674,-1.19021 v -7.50669 h 1.50343 z m 7.91383,0.21925 q 0,0.98141 -0.30277,1.60783 -0.30277,0.69952 -0.91876,1.08581 -0.60555,0.37586 -1.38858,0.37586 -1.87928,0 -2.66232,-1.78532 -0.55334,-1.32594 -0.55334,-3.59152 0,-2.18205 0.48026,-3.50799 0.27145,-0.8248 1.00228,-1.3677 0.73083,-0.5429 1.62871,-0.5429 1.12757,0 1.88973,0.75171 0.77259,0.74127 0.82479,1.88972 h -1.50342 q -0.0313,-0.53246 -0.37586,-0.85612 -0.33409,-0.32365 -0.877,-0.32365 -0.78303,0 -1.15889,0.77259 -0.48026,0.877 -0.48026,2.93377 0,1.39902 0.20881,2.58924 0.34453,1.5765 1.54519,1.5765 1.14845,0 1.13801,-1.60783 v -0.69951 h -1.17978 v -1.4721 h 2.6832 z m 7.95561,2.89201 h -1.50343 v -4.71909 h -2.86069 v 4.71909 h -1.50342 v -10.44046 h 1.50342 v 4.24927 h 2.86069 v -4.24927 h 1.50343 z"
       id="text1"
       style="font-size:18.2708px;line-height:1.25;font-family:'Roadgeek 2014 Series C';-inkscape-font-specification:'Roadgeek 2014 Series C';text-align:center;text-anchor:middle;stroke-width:1.30506"
       aria-label="THROUGH" />
    <path
       d="m 259.92674,-284.71249 h -1.90017 v 9.05188 h -1.50342 v -9.05188 h -1.91061 v -1.38858 h 5.3142 z m 7.32918,9.05188 h -1.54519 l -1.38858,-4.89658 h -1.43034 v 4.89658 h -1.50343 v -10.44046 h 3.13214 q 1.23197,0 1.98369,0.77259 0.75171,0.76216 0.75171,2.01501 0,1.96281 -1.50343,2.51615 z m -1.47211,-7.65286 q 0,-0.60555 -0.37585,-0.96052 -0.37586,-0.36542 -0.98141,-0.36542 h -1.53474 v 2.65188 h 1.53474 q 0.65775,0 1.00229,-0.34454 0.35497,-0.35497 0.35497,-0.9814 z m 9.0832,7.65286 h -1.50343 l -0.73083,-2.86069 h -2.23426 l -0.69951,2.86069 h -1.50343 l 2.61012,-10.44046 h 1.46166 z m -2.59968,-4.33279 -0.76215,-2.99641 -0.74127,2.99641 z m 9.37551,-4.64601 h -3.81077 v 2.65188 h 2.0881 v 1.43034 h -2.0881 v 4.89658 h -1.50342 v -10.44046 h 5.31419 z m 6.77582,0 h -3.81076 v 2.65188 h 2.08809 v 1.43034 h -2.08809 v 4.89658 h -1.50343 v -10.44046 h 5.31419 z m 2.9233,8.9788 h -1.46166 v -10.44046 h 1.46166 z m 7.91385,-7.65286 h -1.50343 q -0.21925,-1.50342 -1.25285,-1.50342 -0.90832,0 -1.27374,0.81435 -0.36541,0.81436 -0.36541,2.85025 0,2.25513 0.40717,3.23654 0.41762,0.97096 1.37814,0.97096 1.10669,0 1.10669,-1.50343 h 1.50343 q -0.0209,1.28418 -0.76216,2.12986 -0.74127,0.83523 -1.84796,0.83523 -1.66003,0 -2.44306,-1.3677 -0.7726,-1.3677 -0.7726,-4.2597 0,-2.53703 0.78304,-3.85253 0.79347,-1.3155 2.32822,-1.3155 1.32594,0 2.05677,1.05449 0.51158,0.65775 0.65775,1.9106 z"
       id="text2"
       style="font-size:18.2708px;line-height:1.25;font-family:'Roadgeek 2014 Series C';-inkscape-font-specification:'Roadgeek 2014 Series C';text-align:center;text-anchor:middle;stroke-width:1.30506"
       aria-label="TRAFFIC" />
    <path
       d="m 266.52637,-257.3898 h -2.3752 l -3.3018,-6.17292 -1.37031,1.68352 v 4.4894 h -2.04894 v -13.05057 h 2.04894 v 5.18107 l 4.12398,-5.18107 h 2.64927 l -4.01958,5.08972 z m 10.30994,0 h -8.09136 v -13.05057 h 7.68679 v 2.04894 h -5.63785 v 3.22349 h 3.81077 v 2.10114 h -3.81077 v 3.57586 h 6.04242 z m 10.30992,0 h -8.09135 v -13.05057 h 7.68679 v 2.04894 h -5.63785 v 3.22349 h 3.81077 v 2.10114 h -3.81077 v 3.57586 h 6.04241 z m 11.09296,-9.38336 q 0,1.03099 -0.58727,1.95758 -0.57423,0.92659 -1.42251,1.30506 -1.0049,0.44372 -2.40131,0.44372 h -2.41435 v 5.677 h -2.04894 v -13.05057 h 4.46329 q 1.51387,0 2.38826,0.43067 0.88743,0.41762 1.44861,1.34421 0.57422,0.91354 0.57422,1.89233 z m -2.10114,0 q 0,-0.90049 -0.78303,-1.37031 -0.49592,-0.24796 -1.22676,-0.24796 h -2.71451 v 3.22349 h 2.71451 q 0.78304,0 1.22676,-0.22186 0.33931,-0.15661 0.56117,-0.54812 0.22186,-0.40457 0.22186,-0.83524 z"
       id="text3"
       style="font-size:22.8385px;line-height:1.25;font-family:'Roadgeek 2014 Series D';-inkscape-font-specification:'Roadgeek 2014 Series D';text-align:center;text-anchor:middle;stroke-width:1.63133"
       aria-label="KEEP" />
    <path
       d="m 267.27679,-239.119 h -8.09136 v -13.05057 h 2.04894 v 11.13213 h 6.04242 z m 10.0489,0 h -8.09135 v -13.05057 h 7.68679 v 2.04894 h -5.63785 v 3.22349 h 3.81077 v 2.10114 h -3.81077 v 3.57585 h 6.04241 z m 10.30993,-11.00163 h -6.04241 v 3.22349 h 3.81076 v 2.10114 h -3.81076 v 5.677 h -2.04894 v -13.05057 h 8.09135 z m 8.84826,-0.22186 h -3.01469 v 11.22349 h -2.06199 v -11.22349 h -2.98858 v -1.82708 h 8.06526 z"
       id="text4"
       style="font-size:22.8385px;line-height:1.25;font-family:'Roadgeek 2014 Series D';-inkscape-font-specification:'Roadgeek 2014 Series D';text-align:center;text-anchor:middle;stroke-width:1.63133"
       aria-label="LEFT" />
  </g>
</svg>
