<svg width="4708.975" height="4708.975" viewBox="0 0 1245.916 1245.916" xmlns="http://www.w3.org/2000/svg">
    <g transform="rotate(-135 285.534 259.576)">
        <rect style="opacity:1;fill:#dd7500;fill-opacity:1;fill-rule:nonzero;stroke:none;stroke-width:8.763;stroke-linecap:round;stroke-linejoin:round;stroke-miterlimit:4;stroke-dasharray:none;stroke-opacity:1" x="-667.211" y="-215.98" rx="57.15" ry="57.15" height="914.4" width="914.4"/>
        <rect width="860.425" height="860.425" ry="25.4" rx="25.4" y="-190.58" x="-641.811" style="opacity:1;fill:none;fill-opacity:1;fill-rule:nonzero;stroke:#000;stroke-width:19.05;stroke-linecap:round;stroke-linejoin:round;stroke-miterlimit:4;stroke-dasharray:none;stroke-opacity:1"/>
    </g>
    <g aria-label="WATCH" style="font-style:normal;font-variant:normal;font-weight:400;font-stretch:normal;font-size:214.94197083px;line-height:125%;font-family:'Roadgeek 2014 Series C';-inkscape-font-specification:'Roadgeek 2014 Series C';text-align:center;letter-spacing:0;word-spacing:0;text-anchor:middle;fill:#000;fill-opacity:1;stroke:none;stroke-width:3.35846829px;stroke-linecap:butt;stroke-linejoin:miter;stroke-opacity:1">
        <path d="m337.406 322.801-19.775 122.824h-15.23l-11.545-64.114-11.791 64.114h-15.353l-19.53-122.824h17.196l10.563 65.588 12.037-65.588h13.633l11.791 65.588 10.686-65.588zM423.421 445.625h-17.686l-8.598-33.653h-26.284l-8.23 33.653h-17.686l30.706-122.824h17.195zm-30.583-50.972-8.966-35.25-8.72 35.25zM493.515 339.137H471.16v106.488h-17.687V339.137h-22.477v-16.336h62.518zM576.59 355.595h-17.686q-2.58-17.686-14.739-17.686-10.685 0-14.984 9.58-4.299 9.58-4.299 33.531 0 26.53 4.79 38.075 4.913 11.423 16.213 11.423 13.02 0 13.02-17.687h17.686q-.246 15.108-8.966 25.057-8.72 9.825-21.74 9.825-19.53 0-28.74-16.09-9.09-16.09-9.09-50.112 0-29.846 9.212-45.322 9.335-15.476 27.39-15.476 15.598 0 24.196 12.406 6.018 7.738 7.738 22.476zM670.217 445.625h-17.686V390.11h-33.654v55.516H601.19V322.801h17.687v49.99h33.654V322.8h17.686z" style="stroke-width:3.35846829px" transform="translate(165.758 41.895)"/>
    </g>
    <g aria-label="FOR" style="font-style:normal;font-variant:normal;font-weight:400;font-stretch:normal;font-size:214.94197083px;line-height:125%;font-family:'Roadgeek 2014 Series C';-inkscape-font-specification:'Roadgeek 2014 Series C';text-align:end;letter-spacing:0;word-spacing:0;text-anchor:end;fill:#000;fill-opacity:1;stroke:none;stroke-width:3.35846829px;stroke-linecap:butt;stroke-linejoin:miter;stroke-opacity:1">
        <path d="M-434.965 536.847h-44.83v31.197h24.564v16.827h-24.565v57.604h-17.686V519.651h62.517zM-348.2 580.818q0 27.39-7.001 42.743-8.598 21.002-28.864 21.002-10.931 0-17.81-4.913-6.755-4.913-11.422-16.09-7-15.721-6.878-42.742 0-27.39 6.878-42.743 4.79-10.931 11.668-15.721 6.879-4.79 17.564-4.79 10.809 0 17.441 4.79 6.756 4.79 11.423 16.212 7 15.722 7 42.252zm-16.827 0q0-17.073-3.808-30.46-4.176-15.6-15.23-15.6-10.931 0-15.353 15.108-4.053 12.774-3.93 31.443 0 15.599 3.93 31.075 4.176 14.984 15.353 14.984 10.932 0 15.23-14.984 3.808-12.651 3.808-31.566zM-254.654 642.475h-18.178l-16.336-57.604h-16.827v57.604h-17.686V519.651h36.847q14.493 0 23.336 9.09 8.844 8.966 8.844 23.704 0 23.091-17.687 29.601zm-17.319-90.03q0-7.123-4.421-11.3-4.422-4.298-11.546-4.298h-18.055v31.197h18.055q7.738 0 11.791-4.053 4.176-4.176 4.176-11.546z" style="text-align:end;text-anchor:end;stroke-width:3.35846829px" transform="translate(658.182 41.895)"/>
    </g>
    <g aria-label="STOPPED" style="font-style:normal;font-variant:normal;font-weight:400;font-stretch:normal;font-size:214.94197083px;line-height:125%;font-family:'Roadgeek 2014 Series C';-inkscape-font-specification:'Roadgeek 2014 Series C';text-align:start;letter-spacing:0;word-spacing:0;text-anchor:start;fill:#000;fill-opacity:1;stroke:none;stroke-width:3.35846829px;stroke-linecap:butt;stroke-linejoin:miter;stroke-opacity:1">
        <path d="M-97.345 608.82q0 14.984-9.949 25.424-9.826 10.317-23.95 10.317-15.6 0-25.057-11.177-9.457-11.3-9.457-27.144h17.195q0 8.598 4.422 14.862 4.422 6.264 12.896 6.264 7.124 0 12.16-5.527 5.036-5.65 5.036-13.02 0-9.948-10.072-17.686-.614-.614-.614-.86-.368-.369-9.212-6.51-6.264-4.176-10.808-7.124-15.108-10.685-15.108-27.144 0-13.265 9.09-22.6 9.211-9.334 22.476-9.334 13.02 0 21.863 9.09 8.843 8.965 9.089 22.844h-16.704q-.246-6.264-4.3-10.317-4.052-4.053-9.948-4.053-6.141 0-10.44 4.176-4.299 4.053-4.299 10.194 0 4.668 2.334 7.615 2.456 2.948 9.457 6.879 17.933 10.562 25.916 21.125 7.984 10.44 7.984 23.705zM-23.803 535.985h-22.354v106.488h-17.687V535.985h-22.477v-16.336h62.518zM62.712 580.816q0 27.39-7.001 42.742-8.598 21.003-28.864 21.003-10.931 0-17.81-4.913-6.755-4.913-11.422-16.09-7.001-15.721-6.878-42.742 0-27.39 6.878-42.743 4.79-10.932 11.668-15.722 6.878-4.79 17.564-4.79 10.809 0 17.441 4.79 6.755 4.79 11.423 16.213 7 15.722 7 42.252zm-16.827 0q0-17.073-3.808-30.46-4.176-15.6-15.23-15.6-10.931 0-15.353 15.108-4.053 12.774-3.93 31.443 0 15.598 3.93 31.074 4.176 14.985 15.353 14.985 10.931 0 15.23-14.985 3.808-12.65 3.808-31.565zM156.258 554.163q0 16.58-8.353 25.547-8.352 8.966-23.827 8.966h-19.16v53.797H87.23V519.65h36.848q14.493 0 23.336 9.458 8.844 9.457 8.844 25.056zm-17.319 0q0-7.738-4.421-12.528-4.422-4.79-11.546-4.79h-18.055v34.882h18.055q7.738 0 11.791-4.545 4.176-4.544 4.176-13.02zM249.875 554.163q0 16.58-8.352 25.547-8.352 8.966-23.828 8.966h-19.16v53.797h-17.687V519.65h36.847q14.493 0 23.337 9.458 8.843 9.457 8.843 25.056zm-17.318 0q0-7.738-4.422-12.528t-11.545-4.79h-18.056v34.882h18.056q7.737 0 11.79-4.545 4.177-4.544 4.177-13.02zM336.982 642.473h-62.517V519.65h57.85v17.196h-40.163v31.197h25.424v16.827h-25.424v40.409h44.83zM427.034 580.816q0 42.128-17.687 56.007-6.264 5.65-17.318 5.65h-34.022V519.65h31.566q13.633 0 19.774 4.79 11.546 8.23 14.74 27.144 2.947 15.722 2.947 29.233zm-17.318.86q0-23.829-3.316-32.18-4.176-12.651-15.968-12.651h-14.738v88.433h14.738q7.37 0 11.792-4.913 4.421-5.036 5.895-12.774 1.597-15.599 1.597-25.916z" style="text-align:start;text-anchor:start;stroke-width:3.35846829px" transform="translate(658.182 41.895)"/>
    </g>
    <g aria-label="TRAFFIC" style="font-style:normal;font-variant:normal;font-weight:400;font-stretch:normal;font-size:214.94197083px;line-height:125%;font-family:'Roadgeek 2014 Series C';-inkscape-font-specification:'Roadgeek 2014 Series C';text-align:center;letter-spacing:0;word-spacing:0;text-anchor:middle;fill:#000;fill-opacity:1;stroke:none;stroke-width:3.35846829px;stroke-linecap:butt;stroke-linejoin:miter;stroke-opacity:1">
        <path d="M257.167 732.837h-22.354v106.488h-17.686V732.837H194.65v-16.336h62.517zM343.191 839.325h-18.178l-16.336-57.604h-16.826v57.604h-17.687V716.501h36.847q14.493 0 23.337 9.09 8.843 8.966 8.843 23.704 0 23.091-17.687 29.601zm-17.318-90.03q0-7.123-4.422-11.3-4.422-4.298-11.545-4.298H291.85v31.197h18.055q7.738 0 11.79-4.053 4.177-4.176 4.177-11.546zM432.662 839.325h-17.687l-8.598-33.653h-26.284l-8.23 33.653h-17.686l30.706-122.824h17.195zm-30.584-50.972-8.966-35.25-8.72 35.25zM512.581 733.697h-44.83v31.197h24.564v16.827H467.75v57.604h-17.686V716.501h62.517zM592.345 733.697h-44.831v31.197h24.565v16.827h-24.565v57.604h-17.687V716.501h62.518zM626.786 839.325h-17.195V716.501h17.195zM719.75 749.295h-17.687q-2.579-17.686-14.738-17.686-10.686 0-14.985 9.58-4.299 9.58-4.299 33.531 0 26.53 4.79 38.075 4.913 11.423 16.213 11.423 13.02 0 13.02-17.687h17.686q-.246 15.108-8.966 25.057-8.72 9.825-21.74 9.825-19.529 0-28.74-16.09-9.09-16.09-9.09-50.112 0-29.846 9.212-45.322 9.335-15.476 27.39-15.476 15.599 0 24.196 12.406 6.019 7.738 7.738 22.476z" style="stroke-width:3.35846829px" transform="translate(165.758 41.895)"/>
    </g>
</svg>
