<?xml version="1.0" encoding="UTF-8" standalone="no"?>
<!-- Created with Inkscape (http://www.inkscape.org/) -->

<svg
   xmlns:dc="http://purl.org/dc/elements/1.1/"
   xmlns:cc="http://creativecommons.org/ns#"
   xmlns:rdf="http://www.w3.org/1999/02/22-rdf-syntax-ns#"
   xmlns:svg="http://www.w3.org/2000/svg"
   xmlns="http://www.w3.org/2000/svg"
   xmlns:sodipodi="http://sodipodi.sourceforge.net/DTD/sodipodi-0.dtd"
   xmlns:inkscape="http://www.inkscape.org/namespaces/inkscape"
   width="48in"
   height="30in"
   viewBox="0 0 1219.2 762.00002"
   version="1.1"
   id="svg4184"
   inkscape:version="0.92.2 5c3e80d, 2017-08-06"
   sodipodi:docname="Ohio_MUTCD_R3-H8cs.svg">
  <defs
     id="defs4178" />
  <sodipodi:namedview
     id="base"
     pagecolor="#ffffff"
     bordercolor="#666666"
     borderopacity="1.0"
     inkscape:pageopacity="0.0"
     inkscape:pageshadow="2"
     inkscape:zoom="0.12374369"
     inkscape:cx="2248.252"
     inkscape:cy="1762.0305"
     inkscape:document-units="in"
     inkscape:current-layer="layer3"
     showgrid="false"
     units="in"
     inkscape:window-width="1440"
     inkscape:window-height="855"
     inkscape:window-x="0"
     inkscape:window-y="1"
     inkscape:window-maximized="1"
     inkscape:snap-bbox="false"
     inkscape:object-paths="false"
     inkscape:snap-midpoints="true" />
  <metadata
     id="metadata4181">
    <rdf:RDF>
      <cc:Work
         rdf:about="">
        <dc:format>image/svg+xml</dc:format>
        <dc:type
           rdf:resource="http://purl.org/dc/dcmitype/StillImage" />
        <dc:title></dc:title>
      </cc:Work>
    </rdf:RDF>
  </metadata>
  <g
     inkscape:label="Sign Back"
     inkscape:groupmode="layer"
     id="layer1"
     transform="translate(0,465.00002)"
     sodipodi:insensitive="true">
    <rect
       style="opacity:1;fill:#ffffff;fill-opacity:1;fill-rule:nonzero;stroke:#000000;stroke-width:1.89048338;stroke-linecap:round;stroke-linejoin:round;stroke-miterlimit:4;stroke-dasharray:none;stroke-opacity:1"
       id="rect2300"
       width="1217.3096"
       height="760.10956"
       x="0.94519043"
       y="-464.05478"
       rx="47.625"
       ry="47.62532" />
    <rect
       style="opacity:1;fill:#ffffff;fill-opacity:1;fill-rule:nonzero;stroke:#000000;stroke-width:19.05000114;stroke-linecap:round;stroke-linejoin:round;stroke-miterlimit:4;stroke-dasharray:none;stroke-opacity:1"
       id="rect2300-9"
       width="1174.75"
       height="717.54999"
       x="22.224854"
       y="-442.77499"
       rx="25.4"
       ry="25.4" />
    <rect
       y="-84.000031"
       x="404.62201"
       height="349.25"
       width="19.050001"
       id="rect4833"
       style="opacity:1;fill:#000000;fill-opacity:1;fill-rule:nonzero;stroke:none;stroke-width:17.28671455;stroke-linecap:round;stroke-linejoin:miter;stroke-miterlimit:4;stroke-dasharray:none;stroke-opacity:1" />
    <rect
       style="opacity:1;fill:#000000;fill-opacity:1;fill-rule:nonzero;stroke:none;stroke-width:17.28671455;stroke-linecap:round;stroke-linejoin:miter;stroke-miterlimit:4;stroke-dasharray:none;stroke-opacity:1"
       id="rect851"
       width="19.050001"
       height="349.25"
       x="795.52802"
       y="-84.000031" />
  </g>
  <g
     inkscape:groupmode="layer"
     id="layer3"
     inkscape:label="Legends">
    <g
       aria-label="ONLY"
       style="font-style:normal;font-variant:normal;font-weight:normal;font-stretch:normal;font-size:171.95358276px;line-height:125%;font-family:'Roadgeek 2014 Series D';-inkscape-font-specification:'Roadgeek 2014 Series D';text-align:center;letter-spacing:-6.61458349px;word-spacing:0px;text-anchor:middle;fill:#000000;fill-opacity:1;stroke:none;stroke-width:2.68677473px;stroke-linecap:butt;stroke-linejoin:miter;stroke-opacity:1"
       id="text7363"
       transform="translate(788.41284)">
      <path
         d="m 126.04423,635.1965 q 0,11.98762 -2.84951,22.69787 -2.75126,10.71026 -7.76248,16.99884 -8.05725,10.90677 -23.876981,10.90677 -10.218956,0 -17.097099,-4.22514 -6.878143,-4.22515 -11.201548,-13.26499 -6.878143,-13.46151 -6.878143,-33.11335 0,-24.76131 10.710252,-39.89323 8.548549,-11.10329 25.056093,-11.10329 18.177946,0 27.316056,17.5884 6.58336,13.55976 6.58336,33.40812 z m -15.52495,0 q 0,-17.68665 -5.89555,-27.61083 -4.02863,-7.07466 -12.773693,-7.56596 -10.90677,-0.4913 -15.81973,12.08588 -3.733849,9.23637 -3.733849,23.09091 0,17.98143 5.797292,27.2178 4.421664,7.56595 13.461509,7.56595 10.218961,0 15.131911,-12.47891 3.83211,-9.82592 3.83211,-22.30484 z"
         style="text-align:center;letter-spacing:-6.61458349px;text-anchor:middle;stroke-width:2.68677473px"
         id="path7507"
         inkscape:connector-curvature="0" />
      <path
         d="m 207.88057,684.12958 h -13.85454 l -37.53501,-66.52147 v 66.52147 h -15.42669 v -98.25919 h 15.42669 l 35.8646,62.78762 v -62.78762 h 15.52495 z"
         style="text-align:center;letter-spacing:-6.61458349px;text-anchor:middle;stroke-width:2.68677473px"
         id="path7509"
         inkscape:connector-curvature="0" />
      <path
         d="m 285.71325,684.12958 h -60.9207 v -98.25919 h 15.42669 v 83.81509 h 45.49401 z"
         style="text-align:center;letter-spacing:-6.61458349px;text-anchor:middle;stroke-width:2.68677473px"
         id="path7511"
         inkscape:connector-curvature="0" />
      <path
         d="m 368.81352,585.87039 -33.99768,55.51644 v 42.74275 h -15.62322 v -42.74275 l -34.29245,-55.51644 h 18.47272 l 23.58221,38.0263 23.68047,-38.0263 z"
         style="text-align:center;letter-spacing:-6.61458349px;text-anchor:middle;stroke-width:2.68677473px"
         id="path7513"
         inkscape:connector-curvature="0" />
    </g>
    <g
       transform="translate(5.5848318)"
       id="g10638"
       style="font-style:normal;font-variant:normal;font-weight:normal;font-stretch:normal;font-size:171.95358276px;line-height:125%;font-family:'Roadgeek 2014 Series D';-inkscape-font-specification:'Roadgeek 2014 Series D';text-align:center;letter-spacing:-6.61458349px;word-spacing:0px;text-anchor:middle;fill:#000000;fill-opacity:1;stroke:none;stroke-width:2.68677473px;stroke-linecap:butt;stroke-linejoin:miter;stroke-opacity:1"
       aria-label="ONLY">
      <path
         inkscape:connector-curvature="0"
         id="path10630"
         style="text-align:center;letter-spacing:-6.61458349px;text-anchor:middle;stroke-width:2.68677473px"
         d="m 126.04423,635.1965 q 0,11.98762 -2.84951,22.69787 -2.75126,10.71026 -7.76248,16.99884 -8.05725,10.90677 -23.876981,10.90677 -10.218956,0 -17.097099,-4.22514 -6.878143,-4.22515 -11.201548,-13.26499 -6.878143,-13.46151 -6.878143,-33.11335 0,-24.76131 10.710252,-39.89323 8.548549,-11.10329 25.056093,-11.10329 18.177946,0 27.316056,17.5884 6.58336,13.55976 6.58336,33.40812 z m -15.52495,0 q 0,-17.68665 -5.89555,-27.61083 -4.02863,-7.07466 -12.773693,-7.56596 -10.90677,-0.4913 -15.81973,12.08588 -3.733849,9.23637 -3.733849,23.09091 0,17.98143 5.797292,27.2178 4.421664,7.56595 13.461509,7.56595 10.218961,0 15.131911,-12.47891 3.83211,-9.82592 3.83211,-22.30484 z" />
      <path
         inkscape:connector-curvature="0"
         id="path10632"
         style="text-align:center;letter-spacing:-6.61458349px;text-anchor:middle;stroke-width:2.68677473px"
         d="m 207.88057,684.12958 h -13.85454 l -37.53501,-66.52147 v 66.52147 h -15.42669 v -98.25919 h 15.42669 l 35.8646,62.78762 v -62.78762 h 15.52495 z" />
      <path
         inkscape:connector-curvature="0"
         id="path10634"
         style="text-align:center;letter-spacing:-6.61458349px;text-anchor:middle;stroke-width:2.68677473px"
         d="m 285.71325,684.12958 h -60.9207 v -98.25919 h 15.42669 v 83.81509 h 45.49401 z" />
      <path
         inkscape:connector-curvature="0"
         id="path10636"
         style="text-align:center;letter-spacing:-6.61458349px;text-anchor:middle;stroke-width:2.68677473px"
         d="m 368.81352,585.87039 -33.99768,55.51644 v 42.74275 h -15.62322 v -42.74275 l -34.29245,-55.51644 h 18.47272 l 23.58221,38.0263 23.68047,-38.0263 z" />
    </g>
    <g
       id="g864"
       transform="translate(146.0303,274.50006)">
      <path
         style="opacity:1;fill:#000000;fill-opacity:1;fill-rule:nonzero;stroke:none;stroke-width:33.11999893;stroke-linecap:round;stroke-linejoin:round;stroke-miterlimit:4;stroke-dasharray:none;stroke-opacity:1"
         d="M 3390.9941,-4.4628906 3284.041,37.775391 A 672,672 0 0 0 2880,654.03906 v 372.48044 h 240 V 654.03906 A 432,432 0 0 1 3379.9453,258.3418 l -0.2012,-0.46485 106.9512,-42.24609 z"
         transform="scale(0.26458333)"
         id="path860"
         inkscape:connector-curvature="0" />
      <path
         style="opacity:1;fill:#000000;fill-opacity:1;fill-rule:nonzero;stroke:none;stroke-width:17.94890404;stroke-linecap:round;stroke-linejoin:round;stroke-miterlimit:4;stroke-dasharray:none;stroke-opacity:1"
         d="m 3295.2891,-181.16797 a 48,48 0 0 0 -18.6524,3.98047 48,48 0 0 0 -24.8789,63.1582 48,48 0 0 0 7.7442,12.2168 l -0.027,0.0469 179.3711,207.3496 29.3145,272.59571 0.01,0.002 a 48,48 0 0 0 3.6992,14.00586 48,48 0 0 0 63.1582,24.87891 48,48 0 0 0 21.5195,-18.60547 l 0.055,0.0117 294.9668,-472.345707 -546.6191,-106.412113 v 0.006 a 48,48 0 0 0 -9.6543,-0.88867 z"
         transform="scale(0.26458333)"
         id="path862"
         inkscape:connector-curvature="0" />
    </g>
    <g
       transform="matrix(-1,0,0,1,1073.163,274.50006)"
       id="g1536">
      <path
         inkscape:connector-curvature="0"
         id="path1532"
         transform="scale(0.26458333)"
         d="M 3390.9941,-4.4628906 3284.041,37.775391 A 672,672 0 0 0 2880,654.03906 v 372.48044 h 240 V 654.03906 A 432,432 0 0 1 3379.9453,258.3418 l -0.2012,-0.46485 106.9512,-42.24609 z"
         style="opacity:1;fill:#000000;fill-opacity:1;fill-rule:nonzero;stroke:none;stroke-width:33.11999893;stroke-linecap:round;stroke-linejoin:round;stroke-miterlimit:4;stroke-dasharray:none;stroke-opacity:1" />
      <path
         inkscape:connector-curvature="0"
         id="path1534"
         transform="scale(0.26458333)"
         d="m 3295.2891,-181.16797 a 48,48 0 0 0 -18.6524,3.98047 48,48 0 0 0 -24.8789,63.1582 48,48 0 0 0 7.7442,12.2168 l -0.027,0.0469 179.3711,207.3496 29.3145,272.59571 0.01,0.002 a 48,48 0 0 0 3.6992,14.00586 48,48 0 0 0 63.1582,24.87891 48,48 0 0 0 21.5195,-18.60547 l 0.055,0.0117 294.9668,-472.345707 -546.6191,-106.412113 v 0.006 a 48,48 0 0 0 -9.6543,-0.88867 z"
         style="opacity:1;fill:#000000;fill-opacity:1;fill-rule:nonzero;stroke:none;stroke-width:17.94890404;stroke-linecap:round;stroke-linejoin:round;stroke-miterlimit:4;stroke-dasharray:none;stroke-opacity:1" />
    </g>
    <g
       transform="translate(-3211.3115,344.35001)"
       id="g21040">
      <g
         id="g21027">
        <rect
           style="opacity:1;fill:#000000;fill-opacity:1;fill-rule:nonzero;stroke:none;stroke-width:35.94987869;stroke-linecap:round;stroke-linejoin:miter;stroke-miterlimit:4;stroke-dasharray:none;stroke-opacity:1"
           id="rect5070-3"
           width="63.5"
           height="462.07678"
           x="3778.25"
           y="-165.07678" />
        <path
           inkscape:connector-curvature="0"
           style="opacity:1;fill:#000000;fill-opacity:1;fill-rule:nonzero;stroke:none;stroke-width:17.94890404;stroke-linecap:round;stroke-linejoin:round;stroke-miterlimit:4;stroke-dasharray:none;stroke-opacity:1"
           d="m 14400,3563.5195 -315.551,458.8496 v 0.01 a 48,48 0 0 0 -8.453,27.1934 48,48 0 0 0 48,48 48,48 0 0 0 14.291,-2.2325 l 0.03,0.045 261.676,-81.8125 261.676,81.8125 v -0.01 a 48,48 0 0 0 14.32,2.1934 48,48 0 0 0 48,-48 48,48 0 0 0 -8.482,-27.1543 l 0.03,-0.045 z"
           transform="matrix(0.26458333,0,0,0.26458333,0,-1227)"
           id="path5072-1" />
      </g>
      <g
         id="g21012">
        <path
           style="opacity:1;fill:#000000;fill-opacity:1;fill-rule:nonzero;stroke:none;stroke-width:51.23628616;stroke-linecap:round;stroke-linejoin:round;stroke-miterlimit:4;stroke-dasharray:none;stroke-opacity:1"
           d="m 3985.7603,-123.5857 -32.3215,19.86235 A 400.04999,400.04999 0 0 0 3778.25,227.14998 h 63.5 a 336.55,336.55 0 0 1 147.5636,-278.085333 l -0.1793,-0.263552 32.3184,-19.867006 z"
           id="path5017-8-9"
           inkscape:connector-curvature="0" />
        <g
           transform="rotate(-34.2,2368.8565,-5940.6713)"
           id="g5078-9-3">
          <path
             inkscape:connector-curvature="0"
             id="circle4946-6-9"
             transform="matrix(0.21883174,0.14871789,-0.14871789,0.21883174,-2239.855,-3373.5802)"
             d="m 14946.98,4013.5957 a 48,48 0 0 0 -27.128,8.3008 48,48 0 0 0 -12.721,66.6797 48,48 0 0 0 9.879,10.5664 l -0.02,0.051 214.75,170.4414 79.418,262.414 v 0 a 48,48 0 0 0 6.236,13.0742 48,48 0 0 0 66.68,12.7208 48,48 0 0 0 17.691,-22.2793 h 0.06 l 202.139,-518.8965 -556.871,-3.0742 v 0.01 a 48,48 0 0 0 -0.114,-0.01 z"
             style="opacity:1;fill:#000000;fill-opacity:1;fill-rule:nonzero;stroke:none;stroke-width:17.94890404;stroke-linecap:round;stroke-linejoin:round;stroke-miterlimit:4;stroke-dasharray:none;stroke-opacity:1" />
        </g>
      </g>
      <g
         transform="matrix(-1,0,0,1,7619.9914,0)"
         id="g21020">
        <path
           inkscape:connector-curvature="0"
           id="path21014"
           d="m 3985.7603,-123.5857 -32.3215,19.86235 A 400.04999,400.04999 0 0 0 3778.25,227.14998 h 63.5 a 336.55,336.55 0 0 1 147.5636,-278.085333 l -0.1793,-0.263552 32.3184,-19.867006 z"
           style="opacity:1;fill:#000000;fill-opacity:1;fill-rule:nonzero;stroke:none;stroke-width:51.23628616;stroke-linecap:round;stroke-linejoin:round;stroke-miterlimit:4;stroke-dasharray:none;stroke-opacity:1" />
        <g
           id="g21018"
           transform="rotate(-34.2,2368.8565,-5940.6713)">
          <path
             inkscape:connector-curvature="0"
             id="path21016"
             transform="matrix(-0.21883174,-0.14871789,-0.14871789,0.21883174,4062.4919,909.49031)"
             d="m 13852.871,4013.5957 -556.871,3.0742 202.141,518.8965 h 0.05 a 48,48 0 0 0 17.694,22.2793 48,48 0 0 0 66.679,-12.7208 48,48 0 0 0 6.235,-13.0742 v 0 l 79.418,-262.414 214.75,-170.4414 -0.02,-0.053 a 48,48 0 0 0 9.877,-10.5644 48,48 0 0 0 -12.721,-66.6797 48,48 0 0 0 -27.242,-8.2949 z"
             style="opacity:1;fill:#000000;fill-opacity:1;fill-rule:nonzero;stroke:none;stroke-width:17.94890404;stroke-linecap:round;stroke-linejoin:round;stroke-miterlimit:4;stroke-dasharray:none;stroke-opacity:1" />
        </g>
      </g>
    </g>
  </g>
</svg>
