<?xml version="1.0" encoding="UTF-8"?>
<svg width="4414.284px" height="4414.284px" viewBox="0 0 3531.4 3531.4" xmlns="http://www.w3.org/2000/svg">
<defs>
<style>.a{fill:#dd7500;}</style>
</defs>
<rect class="a" transform="translate(-732.01 1765.7) rotate(-45)" x="470.16" y="470.16" width="2592" height="2592" rx="162"/>
<path transform="translate(-.445 -.445)" d="m3452.6 1683.4-1603.7-1603.7a117.13 117.13 0 0 0-165.46 0l-1603.7 1603.7a117.13 117.13 0 0 0 0 165.46l1603.7 1603.7a117.13 117.13 0 0 0 165.46 0l1603.7-1603.7a117.13 117.13 0 0 0 0-165.46zm-44.55 120.91-1603.7 1603.7a54.042 54.042 0 0 1-76.36 0l-1603.7-1603.7a54.042 54.042 0 0 1 0-76.36l1603.7-1603.7a54.042 54.042 0 0 1 76.36 0l1603.7 1603.7a54.042 54.042 0 0 1 0 76.36z"/>
<path transform="translate(-.445 -.445)" d="m841.63 1506c27.899 0 50.713-25.289 50.713-54.358-0.0449-76.677-134.41-76.497-134.41-174.37 0-51.792 40.588-93.416 92.561-93.416 50.758 0 90.086 39.104 91.346 93.461h-49.543c-1.26-25.244-19.034-41.668-41.848-41.668-24.119 0-43.108 17.639-43.108 41.623 0 21.554 13.544 30.149 30.329 40.679 48.688 29.384 104.13 64.842 104.13 133.73 0 58.272-44.413 104.85-100.21 104.85-63.402 0-101.43-53.638-101.43-112.5h50.803c0 30.644 15.165 61.962 50.668 61.962z"/>
<path transform="translate(-.445 -.445)" d="m1152 1387.2h-98.366v162.94h-51.658v-359.99h51.658v146.51h98.321v-146.51h51.703v359.99h-51.658z"/>
<path transform="translate(-.445 -.445)" d="m1275.2 1369.4c0-188.5 87.432-185.48 106.83-185.48s105.66-2.88 105.66 185.62c0 189.85-86.261 186.88-105.66 186.88s-106.83 2.9698-106.83-187.01zm106.24-134.99c-10.259 0-56.652-2.1152-56.652 135.26 0 138.37 46.393 136.25 56.652 136.25s56.608 2.1152 56.608-136.25c0-137.38-46.348-135.26-56.608-135.26z"/>
<path transform="translate(-.445 -.445)" d="m1559.3 1445.5v-255.36h51.658v258.92c0 33.884 19.799 56.878 50.398 56.878 27.719 0 47.923-22.724 47.923-56.878v-258.92h51.703v256.13c0 81.897-63.268 110.16-99.626 110.16-33.254 0-102.06-21.644-102.06-110.92z"/>
<path transform="translate(-.445 -.445)" d="m1839.8 1190.1h51.928v311.97h131.75v48.013h-183.68z"/>
<path transform="translate(-.445 -.445)" d="m2073.4 1550.1v-359.99h102.73c21.959 0 98.951 1.08 98.951 179.36 0 163.12-71.098 180.62-94.676 180.62zm92.022-309.45h-40.364v258.92h35.909c42.118 0 63.672-18.404 63.672-127.57-2e-4 -126.49-31.543-131.35-59.217-131.35z"/>
<path transform="translate(-.445 -.445)" d="m2346.7 1190.1h169.73v50.533h-117.8v90.941h74.697v49.273h-74.697v118.75h131.75v50.488h-183.68z"/>
<path transform="translate(-.445 -.445)" d="m2691.3 1380.9h-49.184v169.24h-51.657v-359.99h107.14c56.473 0 94.541 37.889 94.541 95.981 0 42.928-17.685 74.517-51.703 87.162l51.658 176.84h-52.873zm-49.184-140.21v90.941h52.918c30.329 0 46.663-16.424 46.663-45.493 0-27.809-18.898-45.448-46.618-45.448z"/>
<path transform="translate(-.445 -.445)" d="m1395.1 2125.7-34.199-188.18-34.244 188.18h-45.583l-57.058-359.98h50.713l30.418 192.01 35.458-192.01h40.588l34.199 192.01 31.679-192.01h50.713l-58.317 359.98z"/>
<path transform="translate(-.445 -.445)" d="m1547.2 1945c0-188.5 87.432-185.48 106.83-185.48s105.66-2.88 105.66 185.62c0 189.85-86.261 186.88-105.66 186.88s-106.83 2.9697-106.83-187.01zm106.24-134.99c-10.259 0-56.652-2.1153-56.652 135.26 0 138.37 46.393 136.25 56.652 136.25s56.608 2.1152 56.608-136.25c-2e-4 -137.38-46.349-135.26-56.608-135.26z"/>
<path transform="translate(-.445 -.445)" d="m1938.4 1956.5h-49.184v169.24h-51.658v-359.98h107.14c56.473 0 94.541 37.888 94.541 95.981 0 42.928-17.685 74.517-51.703 87.161l51.658 176.84h-52.873zm-49.184-140.21v90.941h52.918c30.329 0 46.663-16.425 46.663-45.493 0-27.809-18.899-45.448-46.618-45.448z"/>
<path transform="translate(-.445 -.445)" d="m2191.1 1950.2-32.804 60.568v115.01h-51.658v-359.98h51.658v143.99l81.941-143.99h59.308l-74.427 126.31 83.201 233.67h-54.178z"/>
<path transform="translate(-.445 -.445)" d="m1288.7 2603.6h-77.217l-24.074 98.501h-51.928l89.906-359.99h50.713l89.861 359.99h-51.928zm-64.573-50.533h51.928l-26.594-103.58z"/>
<path transform="translate(-.445 -.445)" d="m1566.8 2539.2h-98.366v162.94h-51.658v-359.99h51.658v146.52h98.321v-146.52h51.703v359.99h-51.658z"/>
<path transform="translate(-.445 -.445)" d="m1697.7 2342.1h169.73v50.533h-117.81v90.942h74.697v49.272h-74.697v118.75h131.75v50.487h-183.68z"/>
<path transform="translate(-.445 -.445)" d="m2067 2603.6h-77.217l-24.074 98.501h-51.928l89.906-359.99h50.713l89.861 359.99h-51.928zm-64.572-50.533h51.928l-26.594-103.58z"/>
<path transform="translate(-.445 -.445)" d="m2195.2 2702.1v-359.99h102.73c21.959 0 98.951 1.08 98.951 179.36 0 163.12-71.098 180.62-94.677 180.62zm92.02-309.45h-40.363v258.92h35.909c42.118 0 63.672-18.404 63.672-127.57 5e-4 -126.49-31.543-131.35-59.217-131.35z"/>
</svg>
