<?xml version="1.0" encoding="UTF-8" standalone="no"?>
<!-- Created with Inkscape (http://www.inkscape.org/) -->

<svg
   width="43.652721mm"
   height="43.652725mm"
   viewBox="0 0 43.652721 43.652725"
   version="1.1"
   id="svg1"
   inkscape:version="1.3 (0e150ed, 2023-07-21)"
   sodipodi:docname="MUTCD-OH_D5-H31.svg"
   xmlns:inkscape="http://www.inkscape.org/namespaces/inkscape"
   xmlns:sodipodi="http://sodipodi.sourceforge.net/DTD/sodipodi-0.dtd"
   xmlns="http://www.w3.org/2000/svg"
   xmlns:svg="http://www.w3.org/2000/svg">
  <sodipodi:namedview
     id="namedview1"
     pagecolor="#ffffff"
     bordercolor="#666666"
     borderopacity="1.0"
     inkscape:showpageshadow="2"
     inkscape:pageopacity="0.0"
     inkscape:pagecheckerboard="0"
     inkscape:deskcolor="#d1d1d1"
     inkscape:document-units="mm"
     inkscape:zoom="2.3786088"
     inkscape:cx="142.31008"
     inkscape:cy="77.356142"
     inkscape:window-width="1440"
     inkscape:window-height="855"
     inkscape:window-x="0"
     inkscape:window-y="23"
     inkscape:window-maximized="1"
     inkscape:current-layer="layer1" />
  <defs
     id="defs1" />
  <g
     inkscape:label="Layer 1"
     inkscape:groupmode="layer"
     id="layer1"
     transform="translate(-82.549994,-126.73542)">
    <path
       id="path2"
       style="fill:#ffffff;stroke:none;stroke-width:0.0846667;stroke-linecap:butt;stroke-linejoin:round;stroke-miterlimit:1.414;stroke-dasharray:none;stroke-opacity:1"
       d="m 83.862327,128.04775 c 0.846666,-0.81139 1.940277,-1.27 3.104444,-1.27 l 34.854439,0 c 1.16417,0 2.25778,0.45861 3.06917,1.27 0.81139,0.81139 1.27,1.905 1.27,3.06917 v 34.85444 c 0,1.16417 -0.45861,2.25778 -1.27,3.10445 -0.81139,0.81139 -1.905,1.27 -3.06917,1.27 H 86.966769 c -1.164165,0 -2.257776,-0.45861 -3.104442,-1.27 -0.811389,-0.84667 -1.27,-1.94028 -1.269999,-3.10445 v -34.85444 c -10e-7,-1.16417 0.45861,-2.25778 1.269999,-3.06917 z"
       sodipodi:nodetypes="cccsccccccccc" />
    <path
       id="path1277"
       style="fill:none;stroke:#000000;stroke-width:0.0846667;stroke-linecap:butt;stroke-linejoin:round;stroke-miterlimit:1.414;stroke-dasharray:none;stroke-opacity:1"
       d="m 83.862327,128.04775 c 0.846666,-0.81139 1.940277,-1.27 3.104444,-1.27 l 34.854439,0 c 1.16417,0 2.25778,0.45861 3.06917,1.27 0.81139,0.81139 1.27,1.905 1.27,3.06917 v 34.85444 c 0,1.16417 -0.45861,2.25778 -1.27,3.10445 -0.81139,0.81139 -1.905,1.27 -3.06917,1.27 H 86.966769 c -1.164165,0 -2.257776,-0.45861 -3.104442,-1.27 -0.811389,-0.84667 -1.27,-1.94028 -1.269999,-3.10445 v -34.85444 c -10e-7,-1.16417 0.45861,-2.25778 1.269999,-3.06917 z"
       sodipodi:nodetypes="cccsccccccccc" />
    <path
       id="path1"
       d="m 104.99371,128.22414 h 15.38111 c 0.49389,0 1.05833,0.0706 1.5875,0.28222 0.52917,0.24695 1.05833,0.56445 1.48167,0.98778 0.42333,0.42333 0.74083,0.91722 0.9525,1.48167 0.24694,0.52916 0.3175,1.09361 0.3175,1.5875 v 17.10972 14.85194 c 0,0.52917 -0.0706,1.05833 -0.3175,1.62278 -0.21167,0.52917 -0.52917,1.02305 -0.9525,1.44639 -0.42334,0.45861 -0.9525,0.77611 -1.48167,0.98778 -0.52917,0.21166 -1.09361,0.3175 -1.5875,0.3175 H 104.5351 88.413155 c -0.529166,0 -1.058333,-0.10584 -1.622777,-0.3175 -0.529167,-0.21167 -1.023056,-0.52917 -1.446389,-0.98778 -0.458611,-0.42334 -0.776111,-0.91722 -0.987778,-1.44639 -0.211667,-0.56445 -0.3175,-1.09361 -0.3175,-1.62278 v -15.34583 -16.61583 c 0,-0.49389 0.105833,-1.05834 0.3175,-1.5875 0.211667,-0.56445 0.529167,-1.05834 0.987778,-1.48167 0.423333,-0.42333 0.917222,-0.74083 1.446389,-0.98778 0.564444,-0.21166 1.093611,-0.28222 1.622777,-0.28222 h 16.580555"
       style="fill:#003f87;fill-opacity:1;fill-rule:evenodd;stroke:none;stroke-width:0.352778" />
    <path
       id="path1258"
       d="m 104.99371,128.22414 h 15.38111"
       style="fill:none;stroke:#0000e0;stroke-width:0.0846667;stroke-linecap:butt;stroke-linejoin:bevel;stroke-miterlimit:1.414;stroke-dasharray:none;stroke-opacity:1" />
    <path
       id="path1259"
       d="M 104.99371,128.22414 H 88.413155"
       style="fill:none;stroke:#0000e0;stroke-width:0.0846667;stroke-linecap:butt;stroke-linejoin:bevel;stroke-miterlimit:1.414;stroke-dasharray:none;stroke-opacity:1" />
    <path
       id="path1260"
       d="M 84.038715,149.17914 V 132.56331"
       style="fill:none;stroke:#0000e0;stroke-width:0.0846667;stroke-linecap:butt;stroke-linejoin:bevel;stroke-miterlimit:1.414;stroke-dasharray:none;stroke-opacity:1" />
    <path
       id="path1261"
       d="m 84.038715,149.17914 v 15.34583"
       style="fill:none;stroke:#0000e0;stroke-width:0.0846667;stroke-linecap:butt;stroke-linejoin:bevel;stroke-miterlimit:1.414;stroke-dasharray:none;stroke-opacity:1" />
    <path
       id="path1262"
       d="M 104.5351,168.89942 H 88.413156"
       style="fill:none;stroke:#0000e0;stroke-width:0.0846667;stroke-linecap:butt;stroke-linejoin:bevel;stroke-miterlimit:1.414;stroke-dasharray:none;stroke-opacity:1" />
    <path
       id="path1263"
       d="m 104.5351,168.89942 h 15.83972"
       style="fill:none;stroke:#0000e0;stroke-width:0.0846667;stroke-linecap:butt;stroke-linejoin:bevel;stroke-miterlimit:1.414;stroke-dasharray:none;stroke-opacity:1" />
    <path
       id="path1264"
       d="m 124.71399,149.67303 v 14.85194"
       style="fill:none;stroke:#0000e0;stroke-width:0.0846667;stroke-linecap:butt;stroke-linejoin:bevel;stroke-miterlimit:1.414;stroke-dasharray:none;stroke-opacity:1" />
    <path
       id="path1265"
       d="M 124.71399,149.67303 V 132.56331"
       style="fill:none;stroke:#0000e0;stroke-width:0.0846667;stroke-linecap:butt;stroke-linejoin:bevel;stroke-miterlimit:1.414;stroke-dasharray:none;stroke-opacity:1" />
    <path
       id="path1266"
       d="m 88.413161,128.22414 c -1.164167,0 -2.257778,0.45861 -3.069167,1.27 -0.846666,0.81139 -1.305277,1.94028 -1.305277,3.06917"
       style="fill:none;stroke:#0000e0;stroke-width:0.0846667;stroke-linecap:butt;stroke-linejoin:bevel;stroke-miterlimit:1.414;stroke-dasharray:none;stroke-opacity:1" />
    <path
       id="path1268"
       d="m 84.038715,164.52497 c 0,1.16417 0.458611,2.25778 1.305278,3.06917 0.811389,0.84666 1.905,1.30527 3.069166,1.30527"
       style="fill:none;stroke:#0000e0;stroke-width:0.0846667;stroke-linecap:butt;stroke-linejoin:bevel;stroke-miterlimit:1.414;stroke-dasharray:none;stroke-opacity:1" />
    <path
       id="path1273"
       d="m 120.37483,168.89942 c 1.12889,0 2.25778,-0.45861 3.06917,-1.30528 0.81139,-0.81139 1.27,-1.905 1.27,-3.06916"
       style="fill:none;stroke:#0000e0;stroke-width:0.0846667;stroke-linecap:butt;stroke-linejoin:bevel;stroke-miterlimit:1.414;stroke-dasharray:none;stroke-opacity:1" />
    <path
       id="path1274"
       d="m 124.71399,132.56331 c 0,-1.12889 -0.45861,-2.25778 -1.27,-3.06917 -0.81139,-0.81139 -1.94028,-1.27 -3.06917,-1.27"
       style="fill:none;stroke:#0000e0;stroke-width:0.0846667;stroke-linecap:butt;stroke-linejoin:bevel;stroke-miterlimit:1.414;stroke-dasharray:none;stroke-opacity:1" />
    <path
       id="path1278"
       d="m 89.189271,136.51442 0.141111,0.0353 0.105833,0.14111 0.105834,0.0353 0.246944,0.52916 0.141111,0.49389 1.128889,-0.0353 -0.176389,-0.81138 -0.141111,-0.28223 -0.07055,-0.17639 -0.211667,-0.28222 -0.141111,-0.17639 -0.176389,-0.17639 -0.3175,-0.21166 -0.211667,-0.10584 -0.105833,-0.0705 -0.529167,-0.10583 H 88.80122 l -0.352777,0.0353 -0.564445,0.24695 -0.388055,0.28222 -0.423334,0.52917 -0.211666,0.3175 -0.3175,0.70555 -0.07056,0.3175 -0.105833,0.52917 -0.03528,0.28222 v 0.42333 0.49389 l 0.105833,0.70556 0.07056,0.38805 0.07056,0.35278 0.246944,0.49389 0.105833,0.24695 0.352778,0.45861 0.211667,0.21166 0.141111,0.10584 0.07055,0.0705 0.352778,0.21167 0.176389,0.0705 0.705556,0.10584 0.3175,-0.0353 0.352777,-0.14111 0.141111,-0.0353 0.176389,-0.10583 0.07056,-0.0706 0.141111,-0.10583 0.246944,-0.28222 0.105834,-0.14111 0.07055,-0.10584 0.282222,-0.49389 0.105834,-0.35277 0.141111,-0.81139 -1.128889,-0.0353 -0.03528,0.45861 -0.105833,0.21167 -0.282222,0.45861 -0.352778,0.17639 -0.352778,0.10583 -0.423333,-0.10583 -0.211667,-0.17639 -0.529166,-0.84667 -0.07056,-0.24694 -0.07055,-0.21167 -0.03528,-0.28222 -0.03528,-0.52917 v -0.28222 -0.0706 -0.28222 l 0.03528,-0.35278 0.03528,-0.14111 0.141111,-0.45861 0.141111,-0.35278 0.105833,-0.24694 0.423333,-0.38806 0.529167,-0.17639 0.3175,0.0706"
       style="fill:#ffffff;fill-opacity:1;fill-rule:evenodd;stroke:none;stroke-width:0.352778" />
    <path
       id="path1279"
       d="m 94.057605,135.49136 h -0.881944 -0.3175 v 0.38806 6.84388 h 3.809999 v -1.23472 h -2.610555 v -5.99722"
       style="fill:#ffffff;fill-opacity:1;fill-rule:evenodd;stroke:none;stroke-width:0.352778" />
    <path
       id="path1280"
       d="m 101.81871,135.49136 -0.3175,-0.14111 -0.28222,-0.0353 h -0.21167 l -0.38805,0.0353 -0.35278,0.14111 -0.21167,0.10583 -0.246943,0.17639 -0.282222,0.28222 -0.3175,0.38806 -0.211667,0.35278 -0.211667,0.52916 -0.07055,0.3175 -0.105834,0.28223 -0.07055,0.74083 v 0.91722 l 0.105833,0.81139 0.141111,0.52917 0.105834,0.21166 0.07055,0.17639 0.211667,0.38806 0.352778,0.45861 0.07055,0.14111 0.211667,0.14111 0.246943,0.17639 0.21167,0.10583 0.28222,0.14112 0.3175,0.0353 h 0.21167 l 0.35277,-0.0353 0.38806,-0.14112 0.42333,-0.28222 0.24695,-0.21166 0.35278,-0.45862 0.28222,-0.45861 0.17639,-0.38805 0.0705,-0.35278 0.14111,-0.52917 0.0353,-0.49389 v -0.74083 l -0.0353,-0.52917 -0.10583,-0.45861 -0.17639,-0.635 -0.17639,-0.38805 -0.21166,-0.35278 -0.24695,-0.35278 -0.21167,-0.21166 -0.28222,-0.24695 -0.28222,-0.14111 m -0.88194,6.10306 -0.17639,-0.0706 -0.21167,-0.10583 -0.28222,-0.28223 -0.282224,-0.45861 -0.176389,-0.49389 -0.105834,-0.635 v -0.42333 -0.59972 l 0.03528,-0.24695 0.07056,-0.38805 0.176389,-0.52917 0.176388,-0.35278 0.28223,-0.28222 0.3175,-0.21166 0.3175,-0.0706 0.21166,0.0706 0.3175,0.17638 0.21167,0.21167 0.14111,0.17639 0.14111,0.35278 0.17639,0.635 0.10583,0.56444 v 0.77611 l -0.0353,0.3175 -0.14111,0.59973 -0.10584,0.3175 -0.14111,0.3175 -0.14111,0.17638 -0.21167,0.24695 -0.3175,0.14111 -0.35277,0.0706"
       style="fill:#ffffff;fill-opacity:1;fill-rule:evenodd;stroke:none;stroke-width:0.352778" />
    <path
       id="path1281"
       d="m 108.38038,135.49136 -0.14111,-0.0706 -0.45861,-0.10583 h -0.24695 l -0.3175,0.0353 -0.42333,0.17639 -0.17639,0.10583 -0.10583,0.0706 -0.10584,0.10583 -0.3175,0.28222 -0.38805,0.88195 v 1.19944 l 0.14111,0.38806 0.35278,0.45861 0.28222,0.24694 0.28222,0.10584 1.37584,0.45861 0.42333,0.28222 0.14111,0.28222 v 0.28222 0.17639 l -0.14111,0.38806 -0.35278,0.28222 -0.17639,0.0706 -0.21166,0.0705 h -0.35278 l -0.24695,-0.0705 -0.38805,-0.21167 -0.24695,-0.52917 -0.0705,-0.38805 v -0.17639 l -1.05834,0.0353 0.0353,0.24694 0.0353,0.21167 0.0353,0.24694 0.0705,0.10583 0.0353,0.10584 0.17639,0.42333 0.21167,0.3175 0.21166,0.24695 0.21167,0.21166 0.10583,0.0706 0.24695,0.17639 0.14111,0.0353 0.0706,0.0706 0.49389,0.10583 h 0.10584 l 0.45861,-0.0353 0.21166,-0.0706 0.10584,-0.0706 0.38805,-0.21166 0.14111,-0.10584 0.14112,-0.10583 0.0706,-0.14111 0.21167,-0.28222 0.14111,-0.21167 0.0705,-0.17639 0.10584,-0.17639 0.0705,-0.28222 0.0706,-0.28222 v -0.28222 l -0.0706,-0.42334 -0.0705,-0.3175 -0.0353,-0.17639 -0.38806,-0.56444 -0.17638,-0.17639 -0.59973,-0.28222 -0.24694,-0.0706 -0.9525,-0.35277 -0.28222,-0.17639 -0.14111,-0.10584 -0.0706,-0.10583 -0.10583,-0.17639 v -0.17639 -0.17639 l 0.0705,-0.21166 0.10584,-0.17639 0.21166,-0.17639 0.17639,-0.10583 0.14111,-0.0706 h 0.21167 0.24694 l 0.28223,0.0706 0.17638,0.10583 0.10584,0.10583 0.14111,0.24695 0.0705,0.21166 0.0706,0.45861 1.02306,-0.0353 -0.0353,-0.28223 -0.21167,-0.77611 -0.14111,-0.28222 -0.35278,-0.38805 -0.10583,-0.10584 -0.10583,-0.0705 -0.17639,-0.10584 -0.21167,-0.10583"
       style="fill:#ffffff;fill-opacity:1;fill-rule:evenodd;stroke:none;stroke-width:0.352778" />
    <path
       id="path1282"
       d="m 111.66121,135.49136 v 6.84389 0.38805 h 0.3175 3.91583 v -1.30527 h -2.96333 v -1.94028 h 2.57528 v -1.19945 h -2.57528 v -1.5875 h 2.96333 v -1.19944 h -4.23333"
       style="fill:#ffffff;fill-opacity:1;fill-rule:evenodd;stroke:none;stroke-width:0.352778" />
    <path
       id="path1283"
       d="m 117.76427,135.49136 v 7.23194 h 1.16417 0.98777 l 0.38806,-0.0353 0.28222,-0.0706 0.21167,-0.10583 0.24694,-0.17639 0.21167,-0.17639 0.14111,-0.10583 0.17639,-0.21167 0.17639,-0.24694 0.10583,-0.21167 0.14111,-0.24695 0.10584,-0.21166 0.0705,-0.24695 0.0706,-0.28222 0.0705,-0.17639 0.0353,-0.21166 0.0353,-0.28223 0.0353,-0.42333 v -0.45861 l -0.0353,-0.3175 -0.0353,-0.3175 -0.0353,-0.21167 -0.0705,-0.24694 -0.10584,-0.3175 -0.10583,-0.24695 -0.0706,-0.21166 -0.17639,-0.28223 -0.14111,-0.17638 -0.10584,-0.17639 -0.14111,-0.17639 -0.17639,-0.17639 -0.17639,-0.10583 -0.17639,-0.10584 -0.21166,-0.14111 -0.24695,-0.10583 -0.35277,-0.0353 h -2.29306 m 1.16417,5.92667 v -4.72723 h 0.88194 0.10583 l 0.21167,0.0353 0.14111,0.0706 0.17639,0.10583 0.17639,0.17639 0.17639,0.24694 0.17639,0.28223 0.10583,0.38805 0.10583,0.21167 0.0353,0.24694 0.0353,0.28223 v 0.35277 0.21167 l -0.0353,0.35278 -0.0353,0.21166 -0.0353,0.17639 -0.10584,0.24695 -0.0706,0.21166 -0.14111,0.24695 -0.14111,0.17639 -0.0706,0.10583 -0.35278,0.28222 -0.17639,0.0706 -0.21166,0.0353 h -0.9525"
       style="fill:#ffffff;fill-opacity:1;fill-rule:evenodd;stroke:none;stroke-width:0.352778" />
    <path
       id="path1284"
       d="m 117.83483,147.83859 h -1.02306 l -0.67027,3.91583 -0.0353,0.49389 -0.0706,-0.49389 -0.67027,-3.91583 h -0.84667 -0.17639 v 0.3175 5.46806 h 0.67028 v -4.02167 l -0.0353,-0.35278 0.0706,0.28222 0.67027,4.09223 h 0.74084 l 0.67027,-4.09223 0.0706,-0.28222 -0.0353,0.35278 v 4.02167 h 0.67028 v -5.78556"
       style="fill:#ffffff;fill-opacity:1;fill-rule:evenodd;stroke:none;stroke-width:0.352778" />
    <path
       id="path1285"
       d="m 112.01399,147.83859 h -0.81139 l -1.16417,5.78556 h 0.74084 l 0.24694,-1.23473 h 0.52917 0.67028 l 0.17639,1.23473 h 0.74083 l -1.12889,-5.78556 m -0.45861,3.59833 h -0.38806 l 0.45861,-2.50472 0.42334,2.50472 h -0.49389"
       style="fill:#ffffff;fill-opacity:1;fill-rule:evenodd;stroke:none;stroke-width:0.352778" />
    <path
       id="path1286"
       d="m 105.13483,147.90914 -0.17639,-0.14111 -0.28222,-0.0706 h -0.17639 l -0.17639,0.0353 -0.21167,0.10583 -0.14111,0.10584 -0.17639,0.21166 -0.14111,0.17639 -0.10583,0.17639 -0.14111,0.3175 -0.10583,0.3175 -0.0706,0.3175 -0.10583,0.52917 -0.0353,0.45861 v 0.35278 0.21166 l 0.0353,0.38806 0.0353,0.35278 0.0706,0.35278 0.14111,0.38805 0.0706,0.17639 0.14111,0.3175 0.17639,0.28222 0.24694,0.28222 0.21167,0.14112 0.14111,0.0353 0.10583,0.0353 h 0.21167 l 0.17639,-0.0353 0.24694,-0.14111 0.14111,-0.14111 0.21167,-0.28222 0.17639,-0.24695 0.17639,-0.42333 0.10583,-0.38805 0.0706,-0.38806 0.0705,-0.45861 0.0353,-0.38806 v -0.38805 l -0.0706,-0.59972 -0.0705,-0.28223 -0.0706,-0.35277 -0.0705,-0.28223 -0.10584,-0.28222 -0.10583,-0.21167 -0.14111,-0.17638 -0.10583,-0.21167 -0.21167,-0.17639 m -0.59972,4.79778 -0.10584,-0.0353 -0.0705,-0.0353 -0.14111,-0.14111 -0.0706,-0.17639 -0.0353,-0.14111 -0.0706,-0.17639 -0.0706,-0.21166 -0.0353,-0.24695 -0.0353,-0.21167 -0.0353,-0.3175 v -0.17638 -0.35278 l 0.0353,-0.38806 0.0353,-0.21166 0.0353,-0.24695 0.0706,-0.21167 0.0706,-0.28222 0.10584,-0.17639 0.14111,-0.17639 0.21167,-0.10583 0.21166,0.10583 0.14111,0.17639 0.0353,0.14111 0.14111,0.28223 v 0.14111 l 0.10584,0.35278 v 0.21166 l 0.0353,0.35278 v 0.24694 0.17639 l -0.0353,0.42334 v 0.24694 l -0.0706,0.24695 -0.0353,0.24694 -0.10583,0.21167 -0.14111,0.28222 -0.14111,0.14111 -0.17639,0.0353"
       style="fill:#ffffff;fill-opacity:1;fill-rule:evenodd;stroke:none;stroke-width:0.352778" />
    <path
       id="path1287"
       d="m 101.00733,148.6147 h 0.0706 l 0.0705,0.0353 0.14111,0.10583 0.0706,0.0706 0.0353,0.10583 0.0705,0.21167 0.0353,0.3175 -0.0706,0.24694 -0.0353,0.0706 -0.17639,0.24694 -0.17639,0.0706 -0.0706,0.0705 h -0.0705 -0.17639 v 0.81139 l 0.42333,0.0353 0.24695,0.21167 0.0353,0.0705 0.14111,0.38806 0.0353,0.21166 v 0.17639 l -0.10583,0.38806 -0.10583,0.10583 -0.24695,0.14111 h -0.35278 l -0.28222,-0.17639 -0.10583,-0.17639 -0.10584,-0.45861 v -0.28222 l -0.705551,0.0706 v 0.35277 l 0.07056,0.35278 0.105833,0.3175 0.246938,0.42334 0.0353,0.10583 0.17639,0.17639 0.10583,0.0706 0.24695,0.14111 0.21166,0.10584 h 0.10584 0.10583 0.14111 l 0.3175,-0.10584 0.14111,-0.0705 0.38806,-0.38806 0.17639,-0.35277 0.0706,-0.14112 0.0353,-0.14111 0.0353,-0.14111 0.0353,-0.17639 v -0.52916 l -0.0353,-0.21167 -0.0353,-0.14111 -0.0706,-0.24695 -0.0706,-0.14111 -0.0353,-0.10583 -0.35278,-0.28222 -0.14111,-0.0706 0.49389,-0.49389 0.0353,-0.14111 0.0353,-0.14111 0.0353,-0.42333 v -0.17639 l -0.0353,-0.14111 -0.0353,-0.28222 -0.10583,-0.17639 -0.0706,-0.14111 -0.0706,-0.14112 -0.14111,-0.17638 -0.24694,-0.17639 -0.3175,-0.14111 h -0.10583 -0.14112 l -0.21166,0.0353 -0.24695,0.10584 -0.0705,0.0353 -0.17639,0.14112 -0.14111,0.17638 -0.105832,0.17639 -0.07055,0.10584 -0.07056,0.17639 -0.07055,0.14111 -0.03528,0.24694 -0.03528,0.52917 0.705562,0.0353 v -0.21167 -0.14111 l 0.0705,-0.21167 0.0353,-0.10583 0.0353,-0.10584 0.0705,-0.0705 0.17639,-0.14111 0.21167,-0.0353"
       style="fill:#ffffff;fill-opacity:1;fill-rule:evenodd;stroke:none;stroke-width:0.352778" />
    <path
       id="path1288"
       d="m 98.573161,149.35553 -0.105833,-0.14111 -0.141111,-0.10583 -0.176389,-0.0353 -0.176389,0.0353 -0.141111,0.10583 -0.07056,0.14111 -0.03528,0.17639 0.03528,0.17639 0.07056,0.14111 0.176389,0.0705 0.141111,0.0353 0.176389,-0.0353 0.141111,-0.0705 0.105833,-0.14111 0.03528,-0.17639 -0.03528,-0.17639"
       style="fill:#ffffff;fill-opacity:1;fill-rule:evenodd;stroke:none;stroke-width:0.352778" />
    <path
       id="path1289"
       d="m 98.467328,151.75442 -0.141111,-0.10583 -0.176389,-0.0353 -0.176389,0.0353 -0.141111,0.10583 -0.07056,0.14111 -0.03528,0.14111 0.03528,0.17639 0.07056,0.14111 0.176389,0.10584 0.141111,0.0353 0.176389,-0.0353 0.141111,-0.10584 0.105833,-0.14111 0.03528,-0.17639 -0.03528,-0.14111 -0.105833,-0.14111"
       style="fill:#ffffff;fill-opacity:1;fill-rule:evenodd;stroke:none;stroke-width:0.352778" />
    <path
       id="path1290"
       d="m 96.315382,150.30803 0.03528,-0.38806 0.03528,-0.28222 v -0.21166 l -0.03528,-0.28223 -0.03528,-0.17639 v -0.10583 l -0.03528,-0.0705 -0.03528,-0.14112 -0.03528,-0.10583 -0.03528,-0.0705 -0.03528,-0.0706 -0.03528,-0.0353 -0.03528,-0.0353 v -0.0353 l -0.03528,-0.0706 -0.03528,-0.0353 -0.03528,-0.0353 -0.03528,-0.0706 -0.07055,-0.0353 -0.03528,-0.0353 -0.105833,-0.10583 -0.07056,-0.0353 -0.07055,-0.0353 -0.105834,-0.0706 h -0.141111 l -0.141111,-0.0353 h -0.141111 -0.141111 l -0.176389,0.0353 -0.141111,0.0706 -0.176389,0.0705 -0.07055,0.14111 -0.141112,0.14111 -0.07056,0.14111 -0.03528,0.17639 -0.07055,0.17639 -0.07056,0.24695 -0.03528,0.21166 -0.03528,0.24695 v 0.24694 0.14111 l 0.705556,0.0706 v -0.24695 l 0.03528,-0.35277 0.105833,-0.3175 0.141111,-0.14111 0.211667,-0.10584 h 0.176389 l 0.141111,0.14111 0.141111,0.14111 0.07055,0.3175 v 0.42334 l -0.03528,0.35278 -0.141111,0.3175 -0.211667,0.24694 -0.176389,0.24694 -0.176389,0.21167 -0.176389,0.21167 -0.211666,0.28222 -0.141111,0.28222 -0.141112,0.24695 -0.141111,0.38805 -0.105833,0.28222 -0.07056,0.3175 -0.03528,0.28223 -0.03528,0.24694 h 2.610555 v -0.98778 H 94.76316 l 0.141111,-0.28222 0.141111,-0.24694 0.141111,-0.17639 0.211667,-0.17639 0.211666,-0.17639 0.141112,-0.14111 0.141111,-0.17639 0.141111,-0.24694 0.141111,-0.21167 0.03528,-0.24695 0.105833,-0.24694"
       style="fill:#ffffff;fill-opacity:1;fill-rule:evenodd;stroke:none;stroke-width:0.352778" />
    <path
       id="path1291"
       d="m 92.611215,147.83859 h -0.635 l -0.141111,0.3175 -0.105833,0.17639 -0.105834,0.17639 -0.141111,0.14111 -0.105833,0.10583 -0.141111,0.0706 h -0.176389 -0.141111 v 0.74083 h 0.9525 v 4.05695 h 0.529166 0.211667 v -0.3175 -5.46806"
       style="fill:#ffffff;fill-opacity:1;fill-rule:evenodd;stroke:none;stroke-width:0.352778" />
    <path
       id="path1292"
       d="m 86.120105,157.25775 h -0.211667 v 0.3175 0.635 h 1.058334 v 4.86833 h 0.740833 v -4.86833 h 1.093611 v -0.9525 h -2.681111"
       style="fill:#ffffff;fill-opacity:1;fill-rule:evenodd;stroke:none;stroke-width:0.352778" />
    <path
       id="path1293"
       d="m 91.305938,157.1872 -0.246944,0.0706 -0.105834,0.10583 -0.141111,0.14111 -0.211667,0.21167 -0.176388,0.3175 -0.141112,0.28222 -0.141111,0.42333 -0.07055,0.24695 -0.03528,0.24694 -0.07055,0.59972 v 0.74084 l 0.105833,0.635 0.07055,0.38805 0.07056,0.21167 0.03528,0.10583 0.141111,0.35278 0.211666,0.35278 0.07056,0.10583 0.141111,0.10583 0.141111,0.14112 0.105834,0.10583 0.211666,0.0705 0.176389,0.0706 h 0.141111 l 0.211667,-0.0706 0.246944,-0.0705 0.282223,-0.24695 0.176388,-0.17638 0.211667,-0.35278 0.176389,-0.38806 0.105833,-0.3175 0.03528,-0.24694 0.105833,-0.42334 0.03528,-0.42333 v -0.59972 l -0.03528,-0.38806 -0.07055,-0.38805 -0.105834,-0.49389 -0.105833,-0.3175 -0.141111,-0.28222 -0.176389,-0.28223 -0.105833,-0.17638 -0.176389,-0.17639 -0.211667,-0.14111 -0.176389,-0.0706 -0.176388,-0.0706 h -0.141112 l -0.246944,0.0706 m 0.211667,4.97417 -0.105834,-0.0353 -0.141111,-0.10583 -0.211666,-0.21167 -0.141112,-0.38806 -0.105833,-0.38805 -0.105833,-0.52917 v -0.3175 -0.49389 l 0.03528,-0.17639 0.07055,-0.3175 0.105833,-0.42333 0.105834,-0.28222 0.176389,-0.21167 0.211666,-0.17639 0.176389,-0.0705 0.141111,0.0705 0.211667,0.10584 0.105833,0.21166 0.105834,0.14111 0.105833,0.24695 0.105833,0.52916 0.07056,0.45862 v 0.635 l -0.03528,0.21166 -0.105833,0.49389 -0.03528,0.24695 -0.105833,0.28222 -0.105834,0.14111 -0.105833,0.17639 -0.211667,0.14111 -0.211666,0.0353"
       style="fill:#ffffff;fill-opacity:1;fill-rule:evenodd;stroke:none;stroke-width:0.352778" />
    <path
       id="path1294"
       d="m 99.878438,158.17497 h 0.105833 l 0.176389,0.0353 0.14111,0.10583 0.10583,0.24695 0.0353,0.17638 h 0.59972 v -0.14111 l -0.0705,-0.24694 -0.10583,-0.35278 -0.17639,-0.3175 -0.10584,-0.14111 -0.21166,-0.14111 -0.24695,-0.14111 h -0.28222 l -0.141111,0.0706 -0.246944,0.10584 -0.211667,0.24694 -0.141111,0.28222 -0.141111,0.35278 -0.105834,0.49389 -0.105833,0.88194 v 0.74084 l 0.03528,0.49389 0.07055,0.49389 0.105834,0.49388 0.105833,0.35278 0.141111,0.35278 0.211667,0.17639 0.211667,0.17639 0.211666,0.10583 h 0.141111 0.211672 l 0.10583,-0.0353 0.17639,-0.14111 0.10583,-0.10583 0.10584,-0.14111 0.14111,-0.17639 0.10583,-0.17639 0.0706,-0.28222 0.0705,-0.28222 v -0.24695 -0.81139 l -0.0705,-0.38805 -0.10584,-0.3175 -0.14111,-0.3175 -0.0705,-0.10584 -0.24695,-0.21166 -0.24694,-0.14111 h -0.246949 l -0.176389,0.0705 -0.176389,0.14111 -0.211667,0.24695 v -0.38806 l 0.07056,-0.35278 0.03528,-0.24694 0.105834,-0.21167 0.105833,-0.14111 0.176389,-0.14111 m 0.141108,3.88056 h -0.141108 l -0.07056,-0.0353 -0.141111,-0.14111 -0.105833,-0.14111 -0.105833,-0.21167 v -0.17639 -0.21167 -0.38805 l 0.03528,-0.24695 0.105834,-0.17639 0.141111,-0.17638 0.211667,-0.10584 0.141103,0.0706 0.21167,0.0705 0.0706,0.14111 0.0353,0.10584 0.0353,0.14111 0.0706,0.24694 0.0353,0.21167 v 0.10583 l -0.0353,0.21167 -0.0706,0.3175 -0.0705,0.0706 -0.14111,0.24694 -0.10584,0.0706 h -0.10583"
       style="fill:#ffffff;fill-opacity:1;fill-rule:evenodd;stroke:none;stroke-width:0.352778" />
    <path
       id="path1295"
       d="m 102.80649,159.44497 0.17639,0.0353 0.17639,-0.0353 0.14111,-0.10583 0.0705,-0.14111 0.0353,-0.14112 -0.0353,-0.17638 -0.0705,-0.14112 -0.14111,-0.10583 -0.17639,-0.0353 -0.17639,0.0353 -0.14111,0.10583 -0.10583,0.14112 -0.0353,0.17638 0.0353,0.14112 0.10583,0.14111 0.14111,0.10583"
       style="fill:#ffffff;fill-opacity:1;fill-rule:evenodd;stroke:none;stroke-width:0.352778" />
    <path
       id="path1296"
       d="m 102.55955,161.73803 0.10583,0.14111 0.14111,0.10583 0.17639,0.0353 0.17639,-0.0353 0.14111,-0.10583 0.0706,-0.14111 0.0353,-0.17639 -0.0353,-0.17639 -0.0706,-0.14111 -0.14111,-0.0705 -0.17639,-0.0353 -0.17639,0.0353 -0.14111,0.0705 -0.10583,0.14111 -0.0353,0.17639 0.0353,0.17639"
       style="fill:#ffffff;fill-opacity:1;fill-rule:evenodd;stroke:none;stroke-width:0.352778" />
    <path
       id="path1297"
       d="m 106.19316,157.11664 h -0.17639 l -0.17639,0.0706 -0.17639,0.0705 -0.17639,0.14111 -0.17638,0.17639 -0.14112,0.17639 -0.10583,0.21167 -0.14111,0.3175 -0.10583,0.3175 -0.0706,0.3175 -0.0705,0.49389 -0.0706,0.45861 v 0.35277 0.24695 l 0.0353,0.35278 0.0353,0.38805 0.10583,0.35278 0.10583,0.35278 0.0706,0.21166 0.14111,0.3175 0.17639,0.28223 0.24694,0.24694 0.21167,0.14111 0.14111,0.0353 0.14111,0.0706 h 0.17639 l 0.17639,-0.0706 0.24694,-0.10583 0.14111,-0.14111 0.24695,-0.28223 0.14111,-0.28222 0.17639,-0.42333 0.10583,-0.35278 0.0706,-0.42333 0.0705,-0.45861 0.0353,-0.35278 v -0.42334 l -0.0705,-0.56444 -0.0353,-0.28222 -0.10584,-0.38806 -0.0705,-0.24694 -0.10583,-0.28222 -0.10584,-0.24695 -0.10583,-0.17639 -0.14111,-0.17639 -0.21167,-0.17639 -0.17639,-0.14111 -0.28222,-0.10583 m -0.14111,5.04472 -0.10583,-0.0353 -0.0706,-0.0705 -0.10583,-0.14111 -0.10584,-0.17639 -0.0353,-0.14111 -0.0706,-0.17639 -0.0353,-0.17639 -0.0705,-0.28222 -0.0353,-0.17639 v -0.3175 -0.17639 -0.38806 -0.35277 l 0.0353,-0.21167 0.0705,-0.24694 0.0353,-0.21167 0.10583,-0.28222 0.0706,-0.17639 0.14111,-0.21167 0.21167,-0.0705 0.21166,0.0705 0.14111,0.21167 0.0706,0.14111 0.10583,0.24694 0.0353,0.14111 0.0706,0.38806 0.0353,0.21167 v 0.3175 0.28222 0.17639 0.42333 l -0.0353,0.21167 -0.0706,0.28222 -0.0353,0.24694 -0.10583,0.21167 -0.10583,0.28222 -0.14111,0.14111 -0.21167,0.0353"
       style="fill:#ffffff;fill-opacity:1;fill-rule:evenodd;stroke:none;stroke-width:0.352778" />
    <path
       id="path1298"
       d="m 109.68566,157.11664 h -0.17639 l -0.17639,0.0706 -0.21166,0.0705 -0.14112,0.14111 -0.17638,0.17639 -0.14112,0.17639 -0.10583,0.21167 -0.14111,0.3175 -0.10583,0.3175 -0.0706,0.3175 -0.10583,0.49389 -0.0353,0.45861 v 0.35277 0.24695 l 0.0353,0.35278 0.0353,0.38805 0.0706,0.35278 0.14111,0.35278 0.0706,0.21166 0.14111,0.3175 0.17639,0.28223 0.24694,0.24694 0.21167,0.14111 0.14111,0.0353 0.10583,0.0706 h 0.21167 l 0.17639,-0.0706 0.24694,-0.10583 0.14111,-0.14111 0.21167,-0.28223 0.17639,-0.28222 0.17639,-0.42333 0.10583,-0.35278 0.0706,-0.42333 0.0706,-0.45861 0.0353,-0.35278 v -0.42334 l -0.0706,-0.56444 -0.0706,-0.28222 -0.0706,-0.38806 -0.0705,-0.24694 -0.10583,-0.28222 -0.10584,-0.24695 -0.14111,-0.17639 -0.10583,-0.17639 -0.21167,-0.17639 -0.17639,-0.14111 -0.28222,-0.10583 m -0.14111,5.04472 -0.10583,-0.0353 -0.0706,-0.0705 -0.14111,-0.14111 -0.0706,-0.17639 -0.0353,-0.14111 -0.0706,-0.17639 -0.0706,-0.17639 -0.0353,-0.28222 -0.0353,-0.17639 -0.0353,-0.3175 v -0.17639 -0.38806 l 0.0353,-0.35277 0.0353,-0.21167 0.0353,-0.24694 0.0706,-0.21167 0.0706,-0.28222 0.10583,-0.17639 0.14111,-0.21167 0.21167,-0.0705 0.21166,0.0705 0.14111,0.21167 0.0353,0.14111 0.14111,0.24694 v 0.14111 l 0.10584,0.38806 v 0.21167 l 0.0353,0.3175 v 0.28222 0.17639 l -0.0353,0.42333 v 0.21167 l -0.0706,0.28222 -0.0353,0.24694 -0.10583,0.21167 -0.14111,0.28222 -0.14111,0.14111 -0.17639,0.0353"
       style="fill:#ffffff;fill-opacity:1;fill-rule:evenodd;stroke:none;stroke-width:0.352778" />
    <path
       id="path1299"
       d="m 117.02344,157.25775 h -0.81139 l -1.16417,5.82083 h 0.74084 l 0.24694,-1.23472 h 0.52917 0.67028 l 0.17639,1.23472 h 0.74083 l -1.12889,-5.82083 m -0.45861,3.63361 h -0.38806 l 0.45861,-2.54 0.42334,2.54 h -0.49389"
       style="fill:#ffffff;fill-opacity:1;fill-rule:evenodd;stroke:none;stroke-width:0.352778" />
    <path
       id="path1300"
       d="m 120.37483,157.25775 h -0.84667 -0.17639 v 0.3175 5.50333 h 0.67028 v -4.02166 l -0.0353,-0.38806 0.0706,0.28222 0.67028,4.1275 h 0.74083 l 0.67028,-4.1275 0.0705,-0.28222 -0.0353,0.38806 v 4.02166 h 0.67027 v -5.82083 h -1.02305 l -0.67028,3.95111 -0.0353,0.49389 -0.0706,-0.49389 -0.67028,-3.95111"
       style="fill:#ffffff;fill-opacity:1;fill-rule:evenodd;stroke:none;stroke-width:0.352778" />
  </g>
</svg>
