<?xml version="1.0" encoding="UTF-8" standalone="no"?>
<!-- Created with Inkscape (http://www.inkscape.org/) -->

<svg
   width="37.126331mm"
   height="27.848276mm"
   viewBox="0 0 37.126331 27.848276"
   version="1.1"
   id="svg1"
   inkscape:version="1.3 (0e150ed, 2023-07-21)"
   sodipodi:docname="MUTCD-OH_M5-H7_(brown).svg"
   xmlns:inkscape="http://www.inkscape.org/namespaces/inkscape"
   xmlns:sodipodi="http://sodipodi.sourceforge.net/DTD/sodipodi-0.dtd"
   xmlns="http://www.w3.org/2000/svg"
   xmlns:svg="http://www.w3.org/2000/svg">
  <sodipodi:namedview
     id="namedview1"
     pagecolor="#ffffff"
     bordercolor="#666666"
     borderopacity="1.0"
     inkscape:showpageshadow="2"
     inkscape:pageopacity="0.0"
     inkscape:pagecheckerboard="0"
     inkscape:deskcolor="#d1d1d1"
     inkscape:document-units="mm"
     inkscape:zoom="1"
     inkscape:cx="70"
     inkscape:cy="53"
     inkscape:window-width="1440"
     inkscape:window-height="431"
     inkscape:window-x="0"
     inkscape:window-y="23"
     inkscape:window-maximized="0"
     inkscape:current-layer="layer1" />
  <defs
     id="defs1">
    <clipPath
       clipPathUnits="userSpaceOnUse"
       id="clipPath110">
      <path
         d="M 0,0 H 612.12 V 792.12 H 0 V 0"
         transform="translate(-483.30001,-404.60001)"
         clip-rule="evenodd"
         id="path110" />
    </clipPath>
    <clipPath
       clipPathUnits="userSpaceOnUse"
       id="clipPath112">
      <path
         d="M 0,0 H 612.12 V 792.12 H 0 V 0"
         transform="translate(-483.30001,-404.60001)"
         clip-rule="evenodd"
         id="path112" />
    </clipPath>
    <clipPath
       clipPathUnits="userSpaceOnUse"
       id="clipPath114">
      <path
         d="M 0,0 H 612.12 V 792.12 H 0 V 0"
         transform="translate(-581.70001,-399.60001)"
         clip-rule="evenodd"
         id="path114" />
    </clipPath>
    <clipPath
       clipPathUnits="userSpaceOnUse"
       id="clipPath268">
      <path
         d="M 0,0 H 612.12 V 792.12 H 0 V 0"
         transform="translate(-522.10001,-446.10001)"
         clip-rule="evenodd"
         id="path268" />
    </clipPath>
    <clipPath
       clipPathUnits="userSpaceOnUse"
       id="clipPath270">
      <path
         d="M 0,0 H 612.12 V 792.12 H 0 V 0"
         transform="translate(-528.30001,-446.10001)"
         clip-rule="evenodd"
         id="path270" />
    </clipPath>
    <clipPath
       clipPathUnits="userSpaceOnUse"
       id="clipPath272">
      <path
         d="M 0,0 H 612.12 V 792.12 H 0 V 0"
         transform="translate(-546.40001,-446.10001)"
         clip-rule="evenodd"
         id="path272" />
    </clipPath>
    <clipPath
       clipPathUnits="userSpaceOnUse"
       id="clipPath274">
      <path
         d="M 0,0 H 612.12 V 792.12 H 0 V 0"
         transform="translate(-557.50001,-446.10001)"
         clip-rule="evenodd"
         id="path274" />
    </clipPath>
    <clipPath
       clipPathUnits="userSpaceOnUse"
       id="clipPath276">
      <path
         d="M 0,0 H 612.12 V 792.12 H 0 V 0"
         transform="translate(-532.60001,-411.10001)"
         clip-rule="evenodd"
         id="path276" />
    </clipPath>
    <clipPath
       clipPathUnits="userSpaceOnUse"
       id="clipPath278">
      <path
         d="M 0,0 H 612.12 V 792.12 H 0 V 0"
         transform="translate(-551.70001,-416.50001)"
         clip-rule="evenodd"
         id="path278" />
    </clipPath>
    <clipPath
       clipPathUnits="userSpaceOnUse"
       id="clipPath10">
      <path
         d="M 0,0 H 612.12 V 792.12 H 0 V 0"
         transform="translate(-349.20001,-404.60001)"
         clip-rule="evenodd"
         id="path10" />
    </clipPath>
    <clipPath
       clipPathUnits="userSpaceOnUse"
       id="clipPath12">
      <path
         d="M 0,0 H 612.12 V 792.12 H 0 V 0"
         transform="translate(-349.20001,-404.60001)"
         clip-rule="evenodd"
         id="path12" />
    </clipPath>
    <clipPath
       clipPathUnits="userSpaceOnUse"
       id="clipPath14">
      <path
         d="M 0,0 H 612.12 V 792.12 H 0 V 0"
         transform="translate(-447.60001,-398.00001)"
         clip-rule="evenodd"
         id="path14" />
    </clipPath>
    <clipPath
       clipPathUnits="userSpaceOnUse"
       id="clipPath216">
      <path
         d="M 0,0 H 612.12 V 792.12 H 0 V 0"
         transform="translate(-388.00001,-446.10001)"
         clip-rule="evenodd"
         id="path216" />
    </clipPath>
    <clipPath
       clipPathUnits="userSpaceOnUse"
       id="clipPath218">
      <path
         d="M 0,0 H 612.12 V 792.12 H 0 V 0"
         transform="translate(-394.20001,-446.10001)"
         clip-rule="evenodd"
         id="path218" />
    </clipPath>
    <clipPath
       clipPathUnits="userSpaceOnUse"
       id="clipPath220">
      <path
         d="M 0,0 H 612.12 V 792.12 H 0 V 0"
         transform="translate(-412.30001,-446.10001)"
         clip-rule="evenodd"
         id="path220" />
    </clipPath>
    <clipPath
       clipPathUnits="userSpaceOnUse"
       id="clipPath222">
      <path
         d="M 0,0 H 612.12 V 792.12 H 0 V 0"
         transform="translate(-423.40001,-446.10001)"
         clip-rule="evenodd"
         id="path222" />
    </clipPath>
    <clipPath
       clipPathUnits="userSpaceOnUse"
       id="clipPath224">
      <path
         d="M 0,0 H 612.12 V 792.12 H 0 V 0"
         transform="translate(-383.00001,-415.70001)"
         clip-rule="evenodd"
         id="path224" />
    </clipPath>
    <clipPath
       clipPathUnits="userSpaceOnUse"
       id="clipPath226">
      <path
         d="M 0,0 H 612.12 V 792.12 H 0 V 0"
         transform="translate(-417.60001,-416.50001)"
         clip-rule="evenodd"
         id="path226" />
    </clipPath>
    <clipPath
       clipPathUnits="userSpaceOnUse"
       id="clipPath16">
      <path
         d="M 0,0 H 612.12 V 792.12 H 0 V 0"
         transform="translate(-348.90001,-295.80001)"
         clip-rule="evenodd"
         id="path16" />
    </clipPath>
    <clipPath
       clipPathUnits="userSpaceOnUse"
       id="clipPath18">
      <path
         d="M 0,0 H 612.12 V 792.12 H 0 V 0"
         transform="translate(-348.90001,-295.80001)"
         clip-rule="evenodd"
         id="path18" />
    </clipPath>
    <clipPath
       clipPathUnits="userSpaceOnUse"
       id="clipPath20">
      <path
         d="M 0,0 H 612.12 V 792.12 H 0 V 0"
         transform="translate(-447.30001,-289.20001)"
         clip-rule="evenodd"
         id="path20" />
    </clipPath>
    <clipPath
       clipPathUnits="userSpaceOnUse"
       id="clipPath192">
      <path
         d="M 0,0 H 612.12 V 792.12 H 0 V 0"
         transform="translate(-387.70001,-337.30001)"
         clip-rule="evenodd"
         id="path192" />
    </clipPath>
    <clipPath
       clipPathUnits="userSpaceOnUse"
       id="clipPath194">
      <path
         d="M 0,0 H 612.12 V 792.12 H 0 V 0"
         transform="translate(-393.90001,-337.30001)"
         clip-rule="evenodd"
         id="path194" />
    </clipPath>
    <clipPath
       clipPathUnits="userSpaceOnUse"
       id="clipPath196">
      <path
         d="M 0,0 H 612.12 V 792.12 H 0 V 0"
         transform="translate(-412.00001,-337.30001)"
         clip-rule="evenodd"
         id="path196" />
    </clipPath>
    <clipPath
       clipPathUnits="userSpaceOnUse"
       id="clipPath198">
      <path
         d="M 0,0 H 612.12 V 792.12 H 0 V 0"
         transform="translate(-423.10001,-337.30001)"
         clip-rule="evenodd"
         id="path198" />
    </clipPath>
    <clipPath
       clipPathUnits="userSpaceOnUse"
       id="clipPath200">
      <path
         d="M 0,0 H 612.12 V 792.12 H 0 V 0"
         transform="translate(-382.70001,-307.00001)"
         clip-rule="evenodd"
         id="path200" />
    </clipPath>
    <clipPath
       clipPathUnits="userSpaceOnUse"
       id="clipPath202">
      <path
         d="M 0,0 H 612.12 V 792.12 H 0 V 0"
         transform="translate(-417.30001,-307.70001)"
         clip-rule="evenodd"
         id="path202" />
    </clipPath>
    <clipPath
       clipPathUnits="userSpaceOnUse"
       id="clipPath82">
      <path
         d="M 0,0 H 612.12 V 792.12 H 0 V 0"
         transform="translate(-483.20001,-295.3)"
         clip-rule="evenodd"
         id="path82" />
    </clipPath>
    <clipPath
       clipPathUnits="userSpaceOnUse"
       id="clipPath84">
      <path
         d="M 0,0 H 612.12 V 792.12 H 0 V 0"
         transform="translate(-483.20001,-295.3)"
         clip-rule="evenodd"
         id="path84" />
    </clipPath>
    <clipPath
       clipPathUnits="userSpaceOnUse"
       id="clipPath86">
      <path
         d="M 0,0 H 612.12 V 792.12 H 0 V 0"
         transform="translate(-581.60002,-288.80001)"
         clip-rule="evenodd"
         id="path86" />
    </clipPath>
    <clipPath
       clipPathUnits="userSpaceOnUse"
       id="clipPath204">
      <path
         d="M 0,0 H 612.12 V 792.12 H 0 V 0"
         transform="translate(-522.10001,-336.90001)"
         clip-rule="evenodd"
         id="path204" />
    </clipPath>
    <clipPath
       clipPathUnits="userSpaceOnUse"
       id="clipPath206">
      <path
         d="M 0,0 H 612.12 V 792.12 H 0 V 0"
         transform="translate(-528.20002,-336.90001)"
         clip-rule="evenodd"
         id="path206" />
    </clipPath>
    <clipPath
       clipPathUnits="userSpaceOnUse"
       id="clipPath208">
      <path
         d="M 0,0 H 612.12 V 792.12 H 0 V 0"
         transform="translate(-546.40001,-336.90001)"
         clip-rule="evenodd"
         id="path208" />
    </clipPath>
    <clipPath
       clipPathUnits="userSpaceOnUse"
       id="clipPath210">
      <path
         d="M 0,0 H 612.12 V 792.12 H 0 V 0"
         transform="translate(-557.40001,-336.90001)"
         clip-rule="evenodd"
         id="path210" />
    </clipPath>
    <clipPath
       clipPathUnits="userSpaceOnUse"
       id="clipPath212">
      <path
         d="M 0,0 H 612.12 V 792.12 H 0 V 0"
         transform="translate(-551.60002,-307.20001)"
         clip-rule="evenodd"
         id="path212" />
    </clipPath>
    <clipPath
       clipPathUnits="userSpaceOnUse"
       id="clipPath214">
      <path
         d="M 0,0 H 612.12 V 792.12 H 0 V 0"
         transform="translate(-517.10002,-306.50001)"
         clip-rule="evenodd"
         id="path214" />
    </clipPath>
  </defs>
  <g
     inkscape:label="Layer 1"
     inkscape:groupmode="layer"
     id="layer1"
     transform="translate(-131.23333,-131.7625)">
    <path
       id="path81"
       d="M 0,0 C 0,-0.7 0.2,-1.6 0.5,-2.4 0.8,-3.2 1.3,-4 2,-4.6 2.6,-5.3 3.4,-5.7 4.2,-6.1 5,-6.4 5.8,-6.5 6.6,-6.5 h 91.8 c 0.8,0 1.7,0.1 2.5,0.4 0.8,0.4 1.5,0.8 2.2,1.5 0.6,0.6 1.1,1.4 1.4,2.2 0.4,0.8 0.5,1.7 0.5,2.4 v 65.6 c 0,0.8 -0.1,1.6 -0.5,2.5 -0.3,0.8 -0.8,1.5 -1.4,2.2 -0.7,0.6 -1.4,1.1 -2.2,1.4 -0.8,0.4 -1.7,0.5 -2.5,0.5 H 6.6 C 5.8,72.2 5,72.1 4.2,71.7 3.4,71.4 2.6,70.9 2,70.3 1.3,69.6 0.8,68.9 0.5,68.1 0.2,67.2 0,66.4 0,65.6 V 0"
       style="fill:#693f23;fill-opacity:1;fill-rule:evenodd;stroke:none"
       transform="matrix(0.35277776,0,0,-0.35277776,131.27566,157.27539)"
       clip-path="url(#clipPath82)" />
    <path
       id="path83"
       d="m 0,0 c 0,-1.7 0.7,-3.4 2,-4.6 1.2,-1.2 2.9,-1.9 4.6,-1.9 h 91.8 c 1.8,0 3.5,0.7 4.7,1.9 1.2,1.2 1.9,2.9 1.9,4.6 v 65.6 c 0,1.8 -0.7,3.4 -1.9,4.7 -1.2,1.2 -2.9,1.9 -4.7,1.9 H 6.6 C 4.9,72.2 3.2,71.5 2,70.3 0.7,69 0,67.4 0,65.6 V 0"
       style="fill:none;stroke:#000000;stroke-width:0.24;stroke-linecap:butt;stroke-linejoin:round;stroke-miterlimit:1.414;stroke-dasharray:none;stroke-opacity:1"
       transform="matrix(0.35277776,0,0,-0.35277776,131.27566,157.27539)"
       clip-path="url(#clipPath84)" />
    <path
       id="path85"
       d="m 0,0 h -91.8 c -0.8,0 -1.6,0.1 -2.4,0.4 -0.8,0.4 -1.6,0.8 -2.2,1.5 -0.7,0.6 -1.2,1.4 -1.5,2.2 -0.3,0.8 -0.5,1.7 -0.5,2.4 v 65.6 c 0,0.8 0.2,1.6 0.5,2.5 0.3,0.8 0.8,1.5 1.5,2.2 0.6,0.6 1.4,1.1 2.2,1.4 0.8,0.4 1.6,0.5 2.4,0.5 H 0 c 0.8,0 1.7,-0.1 2.5,-0.5 C 3.3,77.9 4,77.4 4.7,76.8 5.3,76.1 5.8,75.4 6.1,74.6 6.5,73.7 6.6,72.9 6.6,72.1 V 6.5 C 6.6,5.8 6.5,4.9 6.1,4.1 5.8,3.3 5.3,2.5 4.7,1.9 4,1.2 3.3,0.8 2.5,0.4 1.7,0.1 0.8,0 0,0 M -91.8,2.2 H 0 c 1.1,0 2.3,0.3 3.1,1.2 0.9,0.9 1.3,2.1 1.3,3.1 v 65.6 c 0,1.1 -0.4,2.2 -1.3,3.1 -0.8,0.9 -2,1.3 -3.1,1.3 h -91.8 c -1.1,0 -2.2,-0.4 -3.1,-1.3 -0.9,-0.9 -1.3,-2 -1.3,-3.1 V 6.5 c 0,-1.1 0.5,-2.2 1.3,-3.1 0.8,-0.8 1.9,-1.2 3.1,-1.2"
       style="fill:#ffffff;fill-opacity:1;fill-rule:evenodd;stroke:none"
       transform="matrix(0.35277776,0,0,-0.35277776,165.98899,159.56845)"
       clip-path="url(#clipPath86)" />
    <path
       id="path203"
       d="M 0,0 H -13.1 V 17.5 H -0.3 V 14.4 H -10 v -3.3 h 5.3 V 7.9 H -10 V 3.1 H 0"
       style="fill:#ffffff;fill-opacity:1;fill-rule:evenodd;stroke:none"
       transform="matrix(0.35277776,0,0,-0.35277776,144.99871,142.59984)"
       clip-path="url(#clipPath204)" />
    <path
       id="path205"
       d="M 0,0 H -3.7 L 2,9.2 -3.2,17.5 h 3.8 l 3.3,-5.3 3.3,5.3 H 11 L 5.8,9.2 11.5,0 H 7.8 L 3.9,6.2"
       style="fill:#ffffff;fill-opacity:1;fill-rule:evenodd;stroke:none"
       transform="matrix(0.35277776,0,0,-0.35277776,147.15066,142.59984)"
       clip-path="url(#clipPath206)" />
    <path
       id="path207"
       d="M 0,0 H -3.2 V 17.5 H 0"
       style="fill:#ffffff;fill-opacity:1;fill-rule:evenodd;stroke:none"
       transform="matrix(0.35277776,0,0,-0.35277776,153.57121,142.59984)"
       clip-path="url(#clipPath208)" />
    <path
       id="path209"
       d="m 0,0 h -3 v 14.4 h -5 v 3.1 H 5.1 V 14.4 H 0"
       style="fill:#ffffff;fill-opacity:1;fill-rule:evenodd;stroke:none"
       transform="matrix(0.35277776,0,0,-0.35277776,157.45177,142.59984)"
       clip-path="url(#clipPath210)" />
    <path
       id="path211"
       d="M 0,0 V -5.3 H 4.7 V 0 H 8.5 V 4.3 H 4.7 V 20.9 H 0 L -16.1,4.3 V 0 H 0 M 0,14.8 V 4.3 H -10.2 L 0,14.8"
       style="fill:#ffffff;fill-opacity:1;fill-rule:evenodd;stroke:none"
       transform="matrix(0.35277776,0,0,-0.35277776,155.40566,153.07734)"
       clip-path="url(#clipPath212)" />
    <path
       id="path213"
       d="M 0,0 H 15.5 V -4.6 H -5.8 v 0.4 c 0,1.5 0.2,3 0.6,4.3 0.4,1.4 1.1,2.7 2,4 0.8,1.3 1.8,2.4 2.9,3.3 1.1,0.9 2.3,1.7 3.7,2.4 0.4,0.1 1.5,0.5 3.5,1.2 1.5,0.5 2.5,0.9 3,1.3 0.6,0.6 0.9,1.2 0.9,1.8 0,2.1 -1.9,3.2 -5.6,3.2 -1.5,0 -3,-0.2 -4.3,-0.7 -1.3,-0.5 -2.4,-1.2 -3.5,-2.1 L -5.8,18 c 3.1,2.7 6.7,4.1 11,4.1 2.9,0 5.2,-0.6 7,-1.8 2.2,-1.4 3.3,-3.5 3.3,-6.2 C 15.5,12.5 15,11.1 14,9.8 13,8.5 11.4,7.5 9.2,6.8 6.4,6 4.7,5.3 3.9,4.8 2.2,3.6 0.9,2 0,0"
       style="fill:#ffffff;fill-opacity:1;fill-rule:evenodd;stroke:none"
       transform="matrix(0.35277776,0,0,-0.35277776,143.23482,153.32428)"
       clip-path="url(#clipPath214)" />
  </g>
</svg>
