<?xml version="1.0" encoding="UTF-8" standalone="no"?>
<!-- Created with Inkscape (http://www.inkscape.org/) -->

<svg
   xmlns:dc="http://purl.org/dc/elements/1.1/"
   xmlns:cc="http://creativecommons.org/ns#"
   xmlns:rdf="http://www.w3.org/1999/02/22-rdf-syntax-ns#"
   xmlns:svg="http://www.w3.org/2000/svg"
   xmlns="http://www.w3.org/2000/svg"
   xmlns:sodipodi="http://sodipodi.sourceforge.net/DTD/sodipodi-0.dtd"
   xmlns:inkscape="http://www.inkscape.org/namespaces/inkscape"
   width="64in"
   height="14in"
   viewBox="0 0 1625.6 355.60001"
   version="1.1"
   id="svg8"
   inkscape:version="0.92.2 5c3e80d, 2017-08-06"
   sodipodi:docname="MUTCD-OH_D5-H19_(open_text).svg">
  <defs
     id="defs2" />
  <sodipodi:namedview
     id="base"
     pagecolor="#ffffff"
     bordercolor="#666666"
     borderopacity="1.0"
     inkscape:pageopacity="0.0"
     inkscape:pageshadow="2"
     inkscape:zoom="0.175"
     inkscape:cx="3762.9762"
     inkscape:cy="870.71429"
     inkscape:document-units="in"
     inkscape:current-layer="layer2"
     showgrid="false"
     units="in"
     inkscape:window-width="1440"
     inkscape:window-height="855"
     inkscape:window-x="0"
     inkscape:window-y="1"
     inkscape:window-maximized="1" />
  <metadata
     id="metadata5">
    <rdf:RDF>
      <cc:Work
         rdf:about="">
        <dc:format>image/svg+xml</dc:format>
        <dc:type
           rdf:resource="http://purl.org/dc/dcmitype/StillImage" />
        <dc:title></dc:title>
      </cc:Work>
    </rdf:RDF>
  </metadata>
  <g
     inkscape:label="Sign Back"
     inkscape:groupmode="layer"
     id="layer1"
     transform="translate(0,58.600018)"
     sodipodi:insensitive="true">
    <rect
       style="opacity:1;fill:#002f6c;fill-opacity:1;fill-rule:nonzero;stroke:none;stroke-width:50.80000305;stroke-linecap:round;stroke-linejoin:round;stroke-miterlimit:4;stroke-dasharray:none;stroke-opacity:1"
       id="rect815"
       width="1625.6"
       height="355.60001"
       x="0"
       y="-58.600018" />
  </g>
  <g
     inkscape:groupmode="layer"
     id="layer2"
     inkscape:label="Legends">
    <path
       style="fill:#ffffff;stroke-width:2.20218158"
       d="m 228.59784,25.395683 c -84.03133,0 -152.397839,68.36444 -152.397839,152.397847 C 76.200001,261.83344 144.56651,330.2 228.59784,330.2 312.63343,330.2 381,261.83344 381,177.79353 381,93.760123 312.63343,25.395683 228.59784,25.395683 Z m -0.92044,4.739843 c 2.77545,-0.02471 10.05373,1.106376 10.13779,10.933502 0.0881,9.815058 -7.18295,11.071953 -9.95283,11.096926 -2.76356,0.02363 -10.05719,-1.117189 -10.14208,-10.93348 -0.0838,-9.815146 7.1884,-11.071975 9.95712,-11.096948 z m 15.14,1.040884 14.7357,2.05164 -0.50754,3.668879 -10.42165,-1.449498 -0.64946,4.666731 9.12271,1.273147 -0.51185,3.664563 -9.1184,-1.268831 -1.20863,8.714099 -4.33125,-0.606459 z m -38.18977,1.29464 0.8043,3.608649 -10.83456,2.404342 0.95055,4.292537 9.94853,-2.206498 0.80862,3.612965 -9.95285,2.206476 1.16991,5.294706 11.3206,-2.511875 0.7914,3.608671 -15.49697,3.440909 -4.52051,-20.426094 z m 23.07989,1.363459 c -2.35706,0.01931 -5.67154,1.496823 -5.62159,7.354934 0.0494,5.861371 3.38184,7.29389 5.75062,7.26894 2.35704,-0.01832 5.6589,-1.49788 5.61728,-7.359251 -0.0516,-5.852716 -3.37852,-7.281272 -5.74631,-7.264623 z m -41.97908,3.040904 1.28603,3.466719 -5.92698,2.193571 5.98289,16.142168 -4.09467,1.526905 -5.98718,-16.142168 -5.92698,2.197887 -1.29464,-3.475329 z m 88.66791,1.251632 c 1.83169,-0.116517 3.46296,0.290446 4.43876,0.640879 2.61076,0.929035 9.06247,4.509694 5.74633,13.755025 -3.31188,9.245244 -10.57221,7.914047 -13.17437,6.976446 -2.613,-0.933373 -9.06462,-4.514098 -5.74633,-13.759341 2.07397,-5.77498 5.68282,-7.419084 8.73561,-7.613009 z m 1.30755,3.785 c -2.04935,-0.0041 -4.45391,1.169403 -5.93127,5.303294 -1.97428,5.510806 0.66878,8.004578 2.88175,8.804433 2.22372,0.792455 5.84092,0.545172 7.81517,-4.972108 1.96994,-5.510894 -0.66237,-8.004578 -2.88175,-8.804433 -0.55649,-0.198086 -1.20056,-0.329864 -1.8839,-0.331186 z m 17.06691,3.015095 3.828,2.116165 -3.83661,6.942025 7.13559,3.948446 3.8366,-6.942026 3.82801,2.120459 -10.12486,18.305636 -3.83233,-2.116165 4.53771,-8.215173 -7.13989,-3.944151 -4.53339,8.206584 -3.82372,-2.11187 z m -129.20614,1.002169 16.16368,15.195913 -4.21513,2.176372 -3.17854,-3.212939 -6.85601,3.55703 0.68818,4.494697 -4.08608,2.116142 -2.99358,-22.008912 z m -0.086,5.359208 -0.0473,0.02151 1.42796,8.580757 4.73555,-2.447351 z m -10.60229,0.249463 2.08174,3.045221 -5.21298,3.578545 9.72917,14.202332 -3.60436,2.468866 -9.72917,-14.202354 -5.21296,3.56564 -2.09467,-3.049515 z m 158.61299,4.421584 3.58284,2.503242 -11.98727,17.140043 -3.58284,-2.503264 z m -83.20118,0.339775 c 66.91816,0 121.17159,54.268521 121.17159,121.188811 0,66.93967 -54.25343,121.18881 -121.17159,121.18881 -66.93751,0 -121.18881,-54.24914 -121.18881,-121.18881 0,-66.92029 54.2513,-121.188811 121.18881,-121.188811 z m 91.51098,7.957099 c 3.11045,-0.03004 5.60024,1.660555 6.76997,2.688225 2.07972,1.82693 6.76352,7.533443 0.27959,14.907735 -6.48395,7.371032 -12.75508,3.460244 -14.82172,1.630121 -2.07981,-1.834439 -6.76352,-7.53776 -0.27959,-14.912029 2.83674,-3.224919 5.63241,-4.289079 8.05175,-4.314052 z m -183.76605,1.660247 c 1.83402,0.187603 3.29255,1.151058 4.16349,2.094649 l -3.11402,2.80864 c -0.70747,-0.610158 -2.45371,-2.020105 -5.28609,0.541957 -1.22917,1.119369 -2.29362,2.895781 -1.02366,4.296831 1.10115,1.207192 2.32497,0.574593 3.11401,0.137636 l 4.61943,-2.490359 c 2.59151,-1.399134 5.31188,-2.294717 7.84096,0.494632 4.21938,4.662415 -0.16638,9.375436 -1.52691,10.606588 -5.66452,5.125182 -9.58292,2.738853 -11.32487,0.812913 l 3.10972,-2.80864 c 0.80567,0.844405 2.72262,2.090729 5.55276,-0.468822 1.53454,-1.387133 2.90542,-3.298935 1.42798,-4.937688 -1.10008,-1.212786 -2.56028,-0.481111 -4.55061,0.615047 l -2.01722,1.118312 c -3.03991,1.681784 -5.95488,3.304043 -9.0496,-0.103238 -1.5591,-1.732148 -3.38826,-5.614066 1.64302,-10.172186 2.37904,-2.147633 4.58759,-2.733546 6.42161,-2.546272 z m 184.3338,2.43874 c -1.57051,0.07932 -3.40438,0.902652 -5.34201,3.096818 -3.85966,4.397911 -2.33768,7.693674 -0.56777,9.247445 1.78068,1.562426 5.23884,2.660236 9.10122,-1.737653 3.86862,-4.40007 2.33334,-7.686121 0.56775,-9.243152 -0.88394,-0.776643 -2.18877,-1.446679 -3.75919,-1.363458 z M 164.73889,88.867558 c 35.99728,97.121782 80.65491,119.395222 80.65491,119.395222 -43.98235,11.6776 -118.19524,7.00225 -118.19524,7.00225 139.76972,34.82843 208.09327,-19.36801 208.09327,-19.36801 C 215.69013,206.39394 165.24641,89.27723 164.73889,88.867558 Z m 205.07386,46.835052 0.99787,4.24953 -12.54642,11.75071 0.0215,0.0602 14.51632,-3.4452 0.93335,3.97855 -20.35296,4.82156 -1.0624,-4.48177 12.26254,-11.44533 -0.0129,-0.0473 -14.18513,3.36348 0.004,-0.004 -0.93764,-3.97426 z m -281.913659,0.62797 20.378769,4.76566 -2.10755,8.98937 c -1.60863,6.87215 -7.781809,6.92591 -11.638859,6.0216 -4.37004,-1.02683 -10.26466,-4.22156 -8.6969,-10.9507 z m 2.55057,4.99363 -0.97207,4.14629 c -0.80859,3.45705 2.40437,5.44302 5.75063,6.22374 6.019419,1.40105 7.171179,-1.35051 7.591509,-3.16134 l 0.96345,-4.08606 z m 275.457669,16.46474 c 8.25545,0.20621 9.7765,6.67162 9.97003,9.26035 0.20434,2.7613 -0.46024,10.11473 -10.24101,10.83885 -9.80233,0.71397 -11.52446,-6.46461 -11.72919,-9.22593 -0.20003,-2.75814 0.46662,-10.11266 10.2582,-10.82597 0.61183,-0.0449 1.19158,-0.061 1.74197,-0.0473 z m -282.627669,0.47312 20.856199,1.72045 -1.27312,15.32926 -3.694669,-0.30108 0.920429,-11.06683 -4.382849,-0.35699 -0.84302,10.15928 -3.68178,-0.30538 0.83872,-10.16789 -5.40653,-0.4387 -0.95485,11.55714 -3.68607,-0.30538 z m 281.199689,3.93124 c -5.83448,0.42798 -7.04731,3.84733 -6.87753,6.19364 0.16997,2.35479 1.87107,5.5667 7.70764,5.13555 5.84739,-0.42905 7.0498,-3.84412 6.87752,-6.19793 -0.16987,-2.35488 -1.87315,-5.55824 -7.70763,-5.13126 z m -261.62091,15.54001 0.53333,9.54853 c 0.23764,4.04741 -2.22262,6.6342 -6.314049,6.86891 -1.89786,0.10962 -6.72331,-0.67962 -7.04958,-6.28397 l -0.27096,-5.00221 -7.54419,0.42152 -0.24517,-4.36136 z m 251.93904,2.66241 20.90352,0.74839 -0.15483,4.36136 -20.90353,-0.74841 z m -255.302539,1.9183 -6.1334,0.33548 h -0.004 l 0.22368,4.05598 c 0.19141,3.24945 2.51401,3.11664 3.4452,3.06672 2.03468,-0.11403 2.81401,-1.29467 2.66671,-4.00436 z m 255.375669,3.38068 3.66027,0.46885 -0.80432,6.27533 17.08842,2.18499 -0.56777,4.33125 -17.0712,-2.18928 -0.80862,6.27965 -3.66456,-0.47311 z m -272.089869,9.20444 21.927179,3.55273 0.90325,4.96352 -19.238979,11.01952 -0.86454,-4.66243 4.00007,-2.10326 -1.39359,-7.5915 -4.50328,-0.65378 z m 9.0969,5.6646 0.95916,5.24739 7.673219,-4.04308 -0.009,-0.0516 v -0.004 z m 281.776019,4.09899 -1.1785,4.60221 -4.5076,0.23226 -1.9011,7.48828 3.82371,2.46884 -1.1398,4.46459 -18.43898,-12.38297 1.24734,-4.8818 z m -9.4883,5.13985 -8.65389,0.46882 -0.0129,0.0559 v 0.004 l 7.36355,4.63233 z m -256.82944,1.8538 3.48821,9.97863 c 1.83878,5.25385 -1.70653,7.57618 -3.41078,8.17216 -2.17104,0.75916 -4.42269,0.30972 -5.77214,-1.41078 -0.14515,1.87531 -0.44629,2.96127 -4.133379,4.24521 -2.88409,1.01078 -3.6009,1.26238 -3.62587,2.26241 l -0.52474,0.18065 -1.58711,-4.56352 c 0.83872,-0.60001 1.79786,-1.1223 3.8323,-1.83228 2.68675,-0.9441 3.6883,-1.47101 2.61509,-4.52478 l -1.48819,-4.27104 -7.72483,2.70543 -1.41508,-4.04308 z m 242.02492,4.07317 3.44523,1.33765 -2.29681,5.89685 16.05183,6.25386 -1.59143,4.06886 -16.03893,-6.25384 -2.30539,5.89255 -3.44523,-1.34194 z m -244.02065,1.1656 -5.2818,1.84518 1.69465,4.83449 c 0.74843,2.13964 1.85274,2.92699 3.80222,2.24949 1.05154,-0.36132 2.4237,-1.36776 1.58282,-3.78929 z m 7.62592,10.82167 7.75925,15.14429 -3.29468,1.69464 -2.88176,-5.63018 -15.324929,7.84957 -1.99573,-3.88393 15.333549,-7.85817 -2.89037,-5.62589 z m 232.82909,5.87965 c 1.092,0.0688 2.03444,0.43332 2.628,0.76558 2.01281,1.114 3.18054,3.09687 2.77853,5.24309 1.4946,-1.13137 2.51406,-1.63012 5.92266,0.27098 2.67534,1.49002 3.32715,1.86214 4.0904,1.21292 l 0.48602,0.27097 -2.36133,4.22372 c -0.99995,-0.23006 -2.02801,-0.60857 -3.90973,-1.65163 -2.49679,-1.39782 -3.55056,-1.77857 -5.12265,1.04517 l -2.19789,3.94413 7.14419,3.98716 -2.08604,3.74199 -18.27124,-10.18938 5.15277,-9.24315 c 1.69491,-3.03496 3.92634,-3.7362 5.74631,-3.62155 z m -0.44301,4.38284 c -0.83117,-0.0416 -1.77018,0.33872 -2.55918,1.74197 l -2.64949,4.75275 4.87748,2.72692 2.50327,-4.48177 c 1.10756,-1.98285 0.95493,-3.3291 -0.85163,-4.33555 -0.36208,-0.20242 -0.82175,-0.37937 -1.32045,-0.40432 z m -224.37737,5.53127 3.742,5.16997 -11.13135,12.74427 0.0301,0.0387 15.54862,-6.64957 3.71189,5.12267 -16.9465,12.26683 -2.38712,-3.30327 14.15503,-10.24961 -0.0344,-0.0516 -16.45186,7.08398 -2.51185,-3.46243 11.91845,-13.34211 -0.0301,-0.0516 -14.15934,10.25822 -2.39144,-3.30327 z m 213.65034,8.03453 c 2.17836,-0.10042 4.75009,0.62308 7.63882,2.89897 7.70977,6.09683 4.13557,12.54424 2.41723,14.71418 -1.71398,2.17417 -7.15921,7.15064 -14.87332,1.07529 -7.70114,-6.0797 -4.12482,-12.5422 -2.42154,-14.7099 1.07259,-1.35892 3.60821,-3.81118 7.23881,-3.97854 z m -0.42581,4.20649 c -1.78458,0.0756 -3.10569,1.04337 -3.90544,2.05596 -1.44947,1.85166 -2.37424,5.37427 2.22799,8.98937 v -0.004 c 4.59367,3.63849 7.79799,1.93556 9.25604,0.0774 1.46022,-1.84516 2.37637,-5.35707 -2.21938,-8.98505 -1.72665,-1.36201 -3.2537,-1.97298 -4.56781,-2.10758 -0.27378,-0.028 -0.53648,-0.0366 -0.7914,-0.0258 z m -199.59423,5.89258 10.87327,10.88618 -2.61938,2.60218 -7.84957,-7.84098 -3.10543,3.11402 7.2001,7.20442 -2.61509,2.61938 -7.2044,-7.213 -3.84091,3.828 8.20656,8.19798 -2.6237,2.62368 -11.21736,-11.23886 z m 186.38543,5.08393 c 1.60916,0.0865 3.19788,0.8914 4.59792,2.38712 1.28992,1.39357 3.78715,5.6044 -0.33548,9.44532 l -3.66027,3.4108 5.14416,5.52265 -3.19576,2.98068 -14.26256,-15.29913 6.98935,-6.52053 c 1.48389,-1.37982 3.11349,-2.01341 4.72264,-1.92691 z m -0.90324,4.22802 c -0.77312,0.0853 -1.62151,0.59033 -2.61939,1.514 l -2.52907,2.36562 4.18932,4.49899 2.96777,-2.76992 c 2.3806,-2.22363 0.79325,-3.92667 0.15486,-4.61082 -0.6925,-0.75039 -1.39035,-1.08314 -2.16349,-0.99787 z m -173.00459,3.01941 3.70757,2.74841 -2.03873,16.6497 0.0516,0.0215 8.68829,-11.6776 3.27746,2.43015 -12.48619,16.78732 -3.50544,-2.60648 2.04735,-17.06691 -0.0387,-0.0301 -8.90336,11.96146 -3.27746,-2.43015 z m 158.63881,5.02802 c 2.53169,0.003 4.36752,1.45053 5.299,2.75702 l -3.43232,2.40434 c -0.62591,-0.69499 -2.19569,-2.31608 -5.31191,-0.12473 -1.36125,0.95484 -2.6409,2.58067 -1.5613,4.13768 0.9376,1.33763 2.2366,0.85768 3.07101,0.52476 l 4.89899,-1.89681 c 2.74201,-1.06453 5.56353,-1.60438 7.71625,1.47529 3.6022,5.14623 -1.3312,9.28402 -2.83445,10.33133 -6.25173,4.37642 -9.86245,1.51863 -11.33351,-0.60648 l 3.43662,-2.40432 c 0.69666,0.93985 2.42793,2.41483 5.56137,0.23656 1.70109,-1.18497 3.29036,-2.91399 2.03012,-4.72694 -0.93551,-1.34412 -2.47316,-0.79014 -4.58501,0.043 l -2.15056,0.86022 c -3.22157,1.28385 -6.32691,2.5377 -8.96786,-1.23012 -1.33331,-1.914 -2.65598,-5.99797 2.90325,-9.88832 1.97263,-1.37826 3.74129,-1.89454 5.26031,-1.89249 z m -144.33753,5.54417 14.95074,8.13774 -1.77207,3.25165 -5.55276,-3.0237 -8.23669,15.1228 -3.84091,-2.09465 8.23669,-15.11419 -5.54846,-3.03229 z m 131.31799,2.3183 9.33346,18.72715 -3.90114,1.94411 -14.30557,-9.53133 -0.0516,0.0258 6.66246,13.34644 -3.65166,1.81937 -9.33346,-18.71423 4.10757,-2.05595 13.94428,9.33346 0.0516,-0.0344 -6.50331,-13.02815 v -0.004 z M 186.89834,296.9221 c 0.44821,-0.0246 0.88145,-0.0184 1.29465,0.009 1.10183,0.072 2.05567,0.29734 2.71401,0.50754 2.64303,0.83656 9.21406,4.17205 6.24525,13.53998 -2.97647,9.35062 -10.27866,8.29262 -12.92062,7.44956 -2.63554,-0.84513 -9.21304,-4.18066 -6.23235,-13.54427 1.9462,-6.13634 5.76148,-7.7889 8.89906,-7.9614 z m 82.77105,0.22795 13.38085,17.68627 -4.53341,1.44519 -2.58067,-3.70758 -7.35495,2.34843 -0.086,4.55489 -4.38717,1.39787 0.76132,-22.19816 z m -81.77749,3.54415 c -2.04596,0.0654 -4.4044,1.33177 -5.73342,5.51404 -1.77318,5.57863 0.94943,7.97016 3.19144,8.69261 2.25376,0.70963 5.86032,0.33121 7.63882,-5.25599 1.7721,-5.57214 -0.95592,-7.96972 -3.20435,-8.67968 -0.56318,-0.18175 -1.21052,-0.29278 -1.89249,-0.27098 z m 14.23246,0.48173 14.69267,2.36992 -0.58065,3.65597 -10.37864,-1.67315 -0.76129,4.66244 9.0969,1.45808 -0.59355,3.65596 -9.09261,-1.46238 -1.39788,8.6797 -4.30974,-0.6925 z m 50.49534,0.70967 c 4.00062,0.20214 5.28291,3.37962 5.53125,4.93771 0.34834,2.27316 -0.49457,4.41291 -2.43013,5.41944 1.81078,0.486 2.83469,0.9807 3.4323,4.83018 0.46884,3.03231 0.58928,3.7763 1.56991,3.97854 l 0.0817,0.54194 -4.78285,0.74841 c -0.42824,-0.93337 -0.77233,-1.97212 -1.10109,-4.1033 -0.4344,-2.81741 -0.78279,-3.88855 -3.97855,-3.38498 l -4.46459,0.69248 1.26024,8.08183 -4.23233,0.66667 h -0.004 l -3.21294,-20.67556 10.44745,-1.62583 c 0.68737,-0.10592 1.31237,-0.1364 1.8839,-0.10753 z m 16.07333,0.52905 -0.0602,0.0172 -0.0301,8.7012 5.06244,-1.62154 z m -29.35955,1.29894 0.0559,3.70327 -6.33127,0.086 0.25378,17.21745 -4.37855,0.0602 -0.24088,-17.21315 -6.32266,0.0903 -0.0516,-3.69898 z m 11.99588,1.92261 c -0.26327,-0.006 -0.55163,0.011 -0.86883,0.0602 l -5.38504,0.83443 0.86454,5.53126 5.06673,-0.79571 c 2.24061,-0.34409 3.21109,-1.29466 2.89897,-3.33769 -0.15432,-0.95971 -0.73359,-2.24856 -2.57637,-2.2925 z"
       id="path5"
       inkscape:connector-curvature="0" />
    <g
       id="g1190">
      <text
         id="text1180"
         y="113.0046"
         x="1041.17"
         style="font-style:normal;font-variant:normal;font-weight:normal;font-stretch:normal;font-size:133.3500061px;line-height:125%;font-family:'Roadgeek 2014 Series D';-inkscape-font-specification:'Roadgeek 2014 Series D';text-align:center;letter-spacing:0px;word-spacing:0px;text-anchor:middle;fill:#ffffff;fill-opacity:1;stroke:none;stroke-width:2.08359385px;stroke-linecap:butt;stroke-linejoin:miter;stroke-opacity:1"
         xml:space="preserve"><tspan
           style="fill:#ffffff;stroke-width:2.08359385px"
           y="113.0046"
           x="1041.17"
           id="tspan1178"
           sodipodi:role="line">OHIO DEPARTMENT</tspan></text>
      <text
         xml:space="preserve"
         style="font-style:normal;font-variant:normal;font-weight:normal;font-stretch:normal;font-size:133.3500061px;line-height:125%;font-family:'Roadgeek 2014 Series D';-inkscape-font-specification:'Roadgeek 2014 Series D';text-align:center;letter-spacing:0px;word-spacing:0px;text-anchor:middle;fill:#ffffff;fill-opacity:1;stroke:none;stroke-width:2.08359385px;stroke-linecap:butt;stroke-linejoin:miter;stroke-opacity:1"
         x="1044.6248"
         y="214.6046"
         id="text1184"><tspan
           sodipodi:role="line"
           id="tspan1182"
           x="1044.6248"
           y="214.6046"
           style="fill:#ffffff;stroke-width:2.08359385px">OF TRANSPORTATION</tspan></text>
    </g>
    <g
       id="g1212"
       transform="translate(-1.8196588)">
      <text
         id="text1194"
         y="274.98041"
         x="746.86279"
         style="font-style:normal;font-variant:normal;font-weight:normal;font-stretch:normal;font-size:66.67500305px;line-height:125%;font-family:'Roadgeek 2014 Series D';-inkscape-font-specification:'Roadgeek 2014 Series D';text-align:center;letter-spacing:0px;word-spacing:0px;text-anchor:middle;fill:#ffffff;fill-opacity:1;stroke:none;stroke-width:1.04179692px;stroke-linecap:butt;stroke-linejoin:miter;stroke-opacity:1"
         xml:space="preserve"><tspan
           style="font-style:normal;font-variant:normal;font-weight:normal;font-stretch:normal;font-family:'Roadgeek 2014 Series D';-inkscape-font-specification:'Roadgeek 2014 Series D';fill:#ffffff;stroke-width:1.04179692px"
           y="274.98041"
           x="746.86279"
           id="tspan1192"
           sodipodi:role="line">MIKE DEWINE</tspan></text>
      <text
         xml:space="preserve"
         style="font-style:normal;font-variant:normal;font-weight:normal;font-stretch:normal;font-size:33.33750153px;line-height:125%;font-family:'Roadgeek 2014 Series E';-inkscape-font-specification:'Roadgeek 2014 Series E';text-align:center;letter-spacing:0px;word-spacing:0px;text-anchor:middle;fill:#ffffff;fill-opacity:1;stroke:none;stroke-width:0.52089846px;stroke-linecap:butt;stroke-linejoin:miter;stroke-opacity:1"
         x="747.93152"
         y="317.17615"
         id="text1202"><tspan
           sodipodi:role="line"
           id="tspan1200"
           x="747.93152"
           y="317.17615"
           style="font-style:normal;font-variant:normal;font-weight:normal;font-stretch:normal;font-family:'Roadgeek 2014 Series E';-inkscape-font-specification:'Roadgeek 2014 Series E';fill:#ffffff;stroke-width:0.52089846px">GOVERNOR</tspan></text>
    </g>
    <g
       id="g1218"
       transform="translate(-11.149671)">
      <text
         xml:space="preserve"
         style="font-style:normal;font-variant:normal;font-weight:normal;font-stretch:normal;font-size:66.67500305px;line-height:125%;font-family:'Roadgeek 2014 Series C';-inkscape-font-specification:'Roadgeek 2014 Series C';text-align:center;letter-spacing:0px;word-spacing:0px;text-anchor:middle;fill:#ffffff;fill-opacity:1;stroke:none;stroke-width:1.04179692px;stroke-linecap:butt;stroke-linejoin:miter;stroke-opacity:1"
         x="1266.8396"
         y="274.98041"
         id="text1198"><tspan
           sodipodi:role="line"
           id="tspan1196"
           x="1266.8396"
           y="274.98041"
           style="font-style:normal;font-variant:normal;font-weight:normal;font-stretch:normal;font-family:'Roadgeek 2014 Series C';-inkscape-font-specification:'Roadgeek 2014 Series C';fill:#ffffff;stroke-width:1.04179692px">JACK MARCHBANKS, PH.D.</tspan></text>
      <text
         id="text1206"
         y="317.17615"
         x="1266.0581"
         style="font-style:normal;font-variant:normal;font-weight:normal;font-stretch:normal;font-size:33.33750153px;line-height:125%;font-family:'Roadgeek 2014 Series E';-inkscape-font-specification:'Roadgeek 2014 Series E';text-align:center;letter-spacing:0px;word-spacing:0px;text-anchor:middle;fill:#ffffff;fill-opacity:1;stroke:none;stroke-width:0.52089846px;stroke-linecap:butt;stroke-linejoin:miter;stroke-opacity:1"
         xml:space="preserve"><tspan
           style="font-style:normal;font-variant:normal;font-weight:normal;font-stretch:normal;font-family:'Roadgeek 2014 Series E';-inkscape-font-specification:'Roadgeek 2014 Series E';fill:#ffffff;stroke-width:0.52089846px"
           y="317.17615"
           x="1266.0581"
           id="tspan1204"
           sodipodi:role="line">DIRECTOR</tspan></text>
    </g>
  </g>
</svg>
