<?xml version="1.0" encoding="UTF-8" standalone="no"?>
<!-- Created with Inkscape (http://www.inkscape.org/) -->

<svg
   xmlns:dc="http://purl.org/dc/elements/1.1/"
   xmlns:cc="http://creativecommons.org/ns#"
   xmlns:rdf="http://www.w3.org/1999/02/22-rdf-syntax-ns#"
   xmlns:svg="http://www.w3.org/2000/svg"
   xmlns="http://www.w3.org/2000/svg"
   xmlns:sodipodi="http://sodipodi.sourceforge.net/DTD/sodipodi-0.dtd"
   xmlns:inkscape="http://www.inkscape.org/namespaces/inkscape"
   width="40.876514in"
   height="40.876514in"
   viewBox="0 0 1038.2635 1038.2635"
   version="1.1"
   id="svg1530"
   inkscape:version="0.92.2 5c3e80d, 2017-08-06"
   sodipodi:docname="MUTCD-OH_W11-H13.svg">
  <defs
     id="defs1524" />
  <sodipodi:namedview
     id="base"
     pagecolor="#ffffff"
     bordercolor="#666666"
     borderopacity="1.0"
     inkscape:pageopacity="0.0"
     inkscape:pageshadow="2"
     inkscape:zoom="0.125"
     inkscape:cx="1187.0032"
     inkscape:cy="1962.9372"
     inkscape:document-units="in"
     inkscape:current-layer="layer2"
     showgrid="false"
     units="in"
     inkscape:window-width="1440"
     inkscape:window-height="855"
     inkscape:window-x="0"
     inkscape:window-y="1"
     inkscape:window-maximized="1"
     fit-margin-top="0"
     fit-margin-left="0"
     fit-margin-right="0"
     fit-margin-bottom="0" />
  <metadata
     id="metadata1527">
    <rdf:RDF>
      <cc:Work
         rdf:about="">
        <dc:format>image/svg+xml</dc:format>
        <dc:type
           rdf:resource="http://purl.org/dc/dcmitype/StillImage" />
        <dc:title></dc:title>
      </cc:Work>
    </rdf:RDF>
  </metadata>
  <g
     inkscape:label="Sign Back"
     inkscape:groupmode="layer"
     id="layer1"
     transform="translate(138.13177,603.13177)"
     sodipodi:insensitive="true">
    <rect
       style="opacity:1;fill:#fcd116;fill-opacity:1;fill-rule:nonzero;stroke:none;stroke-width:8.76299953;stroke-linecap:round;stroke-linejoin:round;stroke-miterlimit:4;stroke-dasharray:none;stroke-opacity:1"
       id="rect2075"
       x="-52.195347"
       y="-170.98929"
       rx="47.625"
       ry="47.625"
       height="762"
       width="762"
       transform="rotate(-45)" />
    <rect
       width="717.55005"
       height="717.55005"
       ry="25.400002"
       rx="25.400002"
       y="-148.76431"
       x="-29.970362"
       id="rect2115"
       style="opacity:1;fill:none;fill-opacity:1;fill-rule:nonzero;stroke:#000000;stroke-width:19.05000114;stroke-linecap:round;stroke-linejoin:round;stroke-miterlimit:4;stroke-dasharray:none;stroke-opacity:1"
       transform="rotate(-45)" />
  </g>
  <g
     inkscape:groupmode="layer"
     id="layer2"
     inkscape:label="Legends">
    <g
       aria-label="ENTRANCE"
       style="font-style:normal;font-variant:normal;font-weight:normal;font-stretch:normal;font-size:222.25px;line-height:125%;font-family:'Roadgeek 2014 Series C';-inkscape-font-specification:'Roadgeek 2014 Series C';text-align:center;letter-spacing:0px;word-spacing:0px;text-anchor:middle;fill:#000000;fill-opacity:1;stroke:none;stroke-width:3.35846829px;stroke-linecap:butt;stroke-linejoin:miter;stroke-opacity:1"
       id="text862">
      <path
         d="m 235.00741,644.04376 h -64.643 v -127 h 59.817 v 17.78 h -41.529 v 32.258 h 26.289 v 17.399 h -26.289 v 41.783 h 46.355 z"
         style="font-size:222.25px;stroke-width:3.35846829px"
         id="path915" />
      <path
         d="m 328.12073,644.04376 h -13.716 l -39.37,-85.09 v 85.09 h -18.288 v -127 h 18.288 l 34.798,76.327 v -76.327 h 18.288 z"
         style="font-size:222.25px;stroke-width:3.35846829px"
         id="path917" />
      <path
         d="m 410.63452,533.93476 h -23.114 v 110.109 h -18.288 v -110.109 h -23.241 v -16.891 h 64.643 z"
         style="font-size:222.25px;stroke-width:3.35846829px"
         id="path919" />
      <path
         d="m 499.58314,644.04376 h -18.796 l -16.891,-59.563 h -17.399 v 59.563 h -18.288 v -127 h 38.1 q 14.986,0 24.13,9.398 9.144,9.271 9.144,24.511 0,23.876 -18.288,30.607 z m -17.907,-93.091 q 0,-7.366 -4.572,-11.684 -4.572,-4.445 -11.938,-4.445 h -18.669 v 32.258 h 18.669 q 8.001,0 12.192,-4.191 4.318,-4.318 4.318,-11.938 z"
         style="font-size:222.25px;stroke-width:3.35846829px"
         id="path921" />
      <path
         d="m 592.09569,644.04376 h -18.288 l -8.89,-34.798 h -27.178 l -8.509,34.798 h -18.288 l 31.75,-127 h 17.78 z m -31.623,-52.705 -9.271,-36.449 -9.017,36.449 z"
         style="font-size:222.25px;stroke-width:3.35846829px"
         id="path923" />
      <path
         d="m 681.46351,644.04376 h -13.716 l -39.37,-85.09 v 85.09 h -18.288 v -127 h 18.288 l 34.798,76.327 v -76.327 h 18.288 z"
         style="font-size:222.25px;stroke-width:3.35846829px"
         id="path925" />
      <path
         d="m 777.82029,550.95276 h -18.288 q -2.667,-18.288 -15.24,-18.288 -11.049,0 -15.494,9.906 -4.445,9.906 -4.445,34.671 0,27.432 4.953,39.37 5.08,11.811 16.764,11.811 13.462,0 13.462,-18.288 h 18.288 q -0.254,15.621 -9.271,25.908 -9.017,10.16 -22.479,10.16 -20.193,0 -29.718,-16.637 -9.398,-16.637 -9.398,-51.816 0,-30.861 9.525,-46.863 9.652,-16.002 28.321,-16.002 16.129,0 25.019,12.827 6.223,8.001 8.001,23.241 z"
         style="font-size:222.25px;stroke-width:3.35846829px"
         id="path927" />
      <path
         d="m 867.89901,644.04376 h -64.643 v -127 h 59.817 v 17.78 h -41.529 v 32.258 h 26.289 v 17.399 h -26.289 v 41.783 h 46.355 z"
         style="font-size:222.25px;stroke-width:3.35846829px"
         id="path929" />
    </g>
    <g
       aria-label="PLANT"
       style="font-style:normal;font-variant:normal;font-weight:normal;font-stretch:normal;font-size:222.25px;line-height:125%;font-family:'Roadgeek 2014 Series C';-inkscape-font-specification:'Roadgeek 2014 Series C';text-align:center;letter-spacing:0px;word-spacing:0px;text-anchor:middle;fill:#000000;fill-opacity:1;stroke:none;stroke-width:3.47265625px;stroke-linecap:butt;stroke-linejoin:miter;stroke-opacity:1"
       id="text866">
      <path
         d="m 379.43049,324.13079 q 0,17.145 -8.636,26.416 -8.636,9.271 -24.638,9.271 h -19.812 v 55.626 h -18.288 v -127 h 38.1 q 14.986,0 24.13,9.779 9.144,9.779 9.144,25.908 z m -17.907,0 q 0,-8.001 -4.572,-12.954 -4.572,-4.953 -11.938,-4.953 h -18.669 v 36.068 h 18.669 q 8.001,0 12.192,-4.699 4.318,-4.699 4.318,-13.462 z"
         style="stroke-width:3.47265625px"
         id="path932" />
      <path
         d="m 469.49978,415.44379 h -64.643 v -127 h 18.288 v 109.982 h 46.355 z"
         style="stroke-width:3.47265625px"
         id="path934" />
      <path
         d="m 558.32537,415.44379 h -18.288 l -8.89,-34.798 h -27.178 l -8.509,34.798 h -18.288 l 31.75,-127 h 17.78 z m -31.623,-52.705 -9.271,-36.449 -9.017,36.449 z"
         style="stroke-width:3.47265625px"
         id="path936" />
      <path
         d="m 647.69318,415.44379 h -13.716 l -39.37,-85.09 v 85.09 h -18.288 v -127 h 18.288 l 34.798,76.327 v -76.327 h 18.288 z"
         style="stroke-width:3.47265625px"
         id="path938" />
      <path
         d="m 730.20697,305.33479 h -23.114 v 110.109 h -18.288 v -110.109 h -23.241 v -16.891 h 64.643 z"
         style="stroke-width:3.47265625px"
         id="path940" />
    </g>
  </g>
</svg>
