<?xml version="1.0" encoding="UTF-8" standalone="no"?>
<!-- Created with Inkscape (http://www.inkscape.org/) -->

<svg
   xmlns:dc="http://purl.org/dc/elements/1.1/"
   xmlns:cc="http://creativecommons.org/ns#"
   xmlns:rdf="http://www.w3.org/1999/02/22-rdf-syntax-ns#"
   xmlns:svg="http://www.w3.org/2000/svg"
   xmlns="http://www.w3.org/2000/svg"
   xmlns:sodipodi="http://sodipodi.sourceforge.net/DTD/sodipodi-0.dtd"
   xmlns:inkscape="http://www.inkscape.org/namespaces/inkscape"
   width="24in"
   height="18in"
   viewBox="0 0 609.6 457.20002"
   version="1.1"
   id="svg905"
   inkscape:version="0.92.2 5c3e80d, 2017-08-06"
   sodipodi:docname="MUTCD-OH_I-H2b.svg">
  <defs
     id="defs899" />
  <sodipodi:namedview
     id="base"
     pagecolor="#ffffff"
     bordercolor="#666666"
     borderopacity="1.0"
     inkscape:pageopacity="0.0"
     inkscape:pageshadow="2"
     inkscape:zoom="0.175"
     inkscape:cx="1990.3322"
     inkscape:cy="1483.2488"
     inkscape:document-units="in"
     inkscape:current-layer="layer3"
     showgrid="false"
     units="in"
     inkscape:window-width="1440"
     inkscape:window-height="855"
     inkscape:window-x="0"
     inkscape:window-y="1"
     inkscape:window-maximized="1" />
  <metadata
     id="metadata902">
    <rdf:RDF>
      <cc:Work
         rdf:about="">
        <dc:format>image/svg+xml</dc:format>
        <dc:type
           rdf:resource="http://purl.org/dc/dcmitype/StillImage" />
        <dc:title></dc:title>
      </cc:Work>
    </rdf:RDF>
  </metadata>
  <g
     inkscape:label="Sign Back"
     inkscape:groupmode="layer"
     id="layer1"
     transform="translate(0,160.20002)"
     sodipodi:insensitive="true">
    <rect
       style="opacity:1;fill:#ffffff;fill-opacity:1;fill-rule:nonzero;stroke:#000000;stroke-width:1.88789201;stroke-linecap:round;stroke-linejoin:round;stroke-miterlimit:4;stroke-dasharray:none;stroke-opacity:1"
       id="rect2300"
       width="607.7121"
       height="455.3121"
       x="0.943946"
       y="-159.25607"
       rx="38.100002"
       ry="38.100002" />
    <rect
       style="opacity:1;fill:#006747;fill-opacity:1;fill-rule:nonzero;stroke:none;stroke-width:19.05000114;stroke-linecap:round;stroke-linejoin:round;stroke-miterlimit:4;stroke-dasharray:none;stroke-opacity:1"
       id="rect842"
       width="584.20001"
       height="431.80002"
       x="12.7"
       y="-147.50003"
       rx="25.4"
       ry="25.4" />
  </g>
  <g
     inkscape:groupmode="layer"
     id="layer3"
     inkscape:label="Legends"
     transform="translate(0,-304.8)">
    <g
       aria-label="ENTER"
       style="font-style:normal;font-variant:normal;font-weight:normal;font-stretch:normal;font-size:222.25px;line-height:125%;font-family:'Roadgeek 2014 Series D';-inkscape-font-specification:'Roadgeek 2014 Series D';text-align:center;letter-spacing:0px;word-spacing:0px;text-anchor:middle;fill:#ffffff;fill-opacity:1;stroke:none;stroke-width:3.47265625px;stroke-linecap:butt;stroke-linejoin:miter;stroke-opacity:1"
       id="text2307">
      <path
         d="M 138.7289,501.64999 H 59.988901 v -127 H 134.7919 v 19.939 H 79.927901 v 31.369 H 117.0119 v 20.447 H 79.927901 v 34.798 H 138.7289 Z"
         style="fill:#ffffff;stroke-width:3.47265625px"
         id="path2322" />
      <path
         d="m 246.62185,501.64999 h -17.907 l -48.514,-85.979 v 85.979 h -19.939 v -127 h 19.939 l 46.355,81.153 v -81.153 h 20.066 z"
         style="fill:#ffffff;stroke-width:3.47265625px"
         id="path2324" />
      <path
         d="m 344.08592,392.42999 h -29.337 v 109.22 h -20.066 v -109.22 h -29.083 v -17.78 h 78.486 z"
         style="fill:#ffffff;stroke-width:3.47265625px"
         id="path2326" />
      <path
         d="m 441.71816,501.64999 h -78.74 v -127 h 74.803 v 19.939 h -54.864 v 31.369 h 37.084 v 20.447 h -37.084 v 34.798 h 58.801 z"
         style="fill:#ffffff;stroke-width:3.47265625px"
         id="path2328" />
      <path
         d="m 549.61111,501.64999 h -21.717 l -20.701,-55.245 h -24.003 v 55.245 h -19.939 v -127 h 41.783 q 14.351,0 22.86,4.064 8.255,4.191 13.589,13.081 5.461,8.89 5.461,18.542 0,10.033 -5.461,19.05 -5.334,9.017 -14.097,13.081 z m -22.86,-91.313 q 0,-9.144 -7.874,-13.335 -4.191,-2.413 -11.684,-2.413 h -24.003 v 31.369 h 24.003 q 7.874,0 11.684,-2.159 7.874,-4.064 7.874,-13.462 z"
         style="fill:#ffffff;stroke-width:3.47265625px"
         id="path2330" />
    </g>
    <g
       aria-label="CORP"
       style="font-style:normal;font-variant:normal;font-weight:normal;font-stretch:normal;font-size:222.25px;line-height:125%;font-family:'Roadgeek 2014 Series D';-inkscape-font-specification:'Roadgeek 2014 Series D';text-align:center;letter-spacing:0px;word-spacing:0px;text-anchor:middle;fill:#ffffff;fill-opacity:1;stroke:none;stroke-width:3.47265625px;stroke-linecap:butt;stroke-linejoin:miter;stroke-opacity:1"
       id="text2311">
      <path
         d="m 179.06514,664.08303 q -11.557,28.067 -38.227,28.067 -27.432,0 -38.989,-22.606 -9.397997,-17.653 -9.270997,-43.307 0,-15.24 3.81,-28.956 3.809997,-13.843 10.540997,-22.098 11.684,-14.351 32.385,-14.351 14.351,0 23.876,6.223 9.652,6.096 15.875,19.558 l -18.669,8.128 q -5.461,-8.001 -9.779,-10.668 -4.191,-2.794 -11.303,-2.794 -15.24,0 -21.336,15.621 -4.826,11.938 -4.826,29.337 0,23.114 7.874,35.687 6.35,9.779 19.177,9.779 12.573,0 19.812,-14.732 z"
         style="fill:#ffffff;stroke-width:3.47265625px"
         id="path2313" />
      <path
         d="m 294.61431,626.74503 q 0,15.494 -3.683,29.337 -3.556,13.843 -10.033,21.971 -10.414,14.097 -30.861,14.097 -13.208,0 -22.098,-5.461 -8.89,-5.461 -14.478,-17.145 -8.89,-17.399 -8.89,-42.799 0,-32.004 13.843,-51.562 11.049,-14.351 32.385,-14.351 23.495,0 35.306,22.733 8.509,17.526 8.509,43.18 z m -20.066,0 q 0,-22.86 -7.62,-35.687 -5.207,-9.144 -16.51,-9.779 -14.097,-0.635 -20.447,15.621 -4.826,11.938 -4.826,29.845 0,23.241 7.493,35.179 5.715,9.779 17.399,9.779 13.208,0 19.558,-16.129 4.953,-12.7 4.953,-28.829 z"
         style="fill:#ffffff;stroke-width:3.47265625px"
         id="path2315" />
      <path
         d="m 408.93713,689.99103 h -21.717 l -20.701,-55.245 h -24.003 v 55.245 h -19.939 v -127 h 41.783 q 14.351,0 22.86,4.064 8.255,4.191 13.589,13.081 5.461,8.89 5.461,18.542 0,10.033 -5.461,19.05 -5.334,9.017 -14.097,13.081 z m -22.86,-91.313 q 0,-9.144 -7.874,-13.335 -4.191,-2.413 -11.684,-2.413 h -24.003 v 31.369 h 24.003 q 7.874,0 11.684,-2.159 7.874,-4.064 7.874,-13.462 z"
         style="fill:#ffffff;stroke-width:3.47265625px"
         id="path2317" />
      <path
         d="m 517.02355,598.67803 q 0,10.033 -5.715,19.05 -5.588,9.017 -13.843,12.7 -9.779,4.318 -23.368,4.318 h -23.495 v 55.245 h -19.939 v -127 h 43.434 q 14.732,0 23.241,4.191 8.636,4.064 14.097,13.081 5.588,8.89 5.588,18.415 z m -20.447,0 q 0,-8.763 -7.62,-13.335 -4.826,-2.413 -11.938,-2.413 h -26.416 v 31.369 h 26.416 q 7.62,0 11.938,-2.159 3.302,-1.524 5.461,-5.334 2.159,-3.937 2.159,-8.128 z"
         style="fill:#ffffff;stroke-width:3.47265625px"
         id="path2319" />
    </g>
  </g>
</svg>
