<?xml version="1.0" encoding="UTF-8" standalone="no"?>
<!-- Created with Inkscape (http://www.inkscape.org/) -->

<svg
   xmlns:dc="http://purl.org/dc/elements/1.1/"
   xmlns:cc="http://creativecommons.org/ns#"
   xmlns:rdf="http://www.w3.org/1999/02/22-rdf-syntax-ns#"
   xmlns:svg="http://www.w3.org/2000/svg"
   xmlns="http://www.w3.org/2000/svg"
   xmlns:sodipodi="http://sodipodi.sourceforge.net/DTD/sodipodi-0.dtd"
   xmlns:inkscape="http://www.inkscape.org/namespaces/inkscape"
   width="49.051823in"
   height="49.051823in"
   viewBox="0 0 1245.9163 1245.9163"
   version="1.1"
   id="svg1530"
   inkscape:version="0.92.2 5c3e80d, 2017-08-06"
   sodipodi:docname="MUTCD-OH_W4-H1a.svg">
  <defs
     id="defs1524" />
  <sodipodi:namedview
     id="base"
     pagecolor="#ffffff"
     bordercolor="#666666"
     borderopacity="1.0"
     inkscape:pageopacity="0.0"
     inkscape:pageshadow="2"
     inkscape:zoom="0.1363354"
     inkscape:cx="2347.1527"
     inkscape:cy="2354.4875"
     inkscape:document-units="in"
     inkscape:current-layer="g4974"
     showgrid="false"
     units="in"
     inkscape:window-width="1440"
     inkscape:window-height="855"
     inkscape:window-x="0"
     inkscape:window-y="1"
     inkscape:window-maximized="1"
     fit-margin-top="0"
     fit-margin-left="0"
     fit-margin-right="0"
     fit-margin-bottom="0"
     inkscape:snap-midpoints="false"
     inkscape:snap-object-midpoints="false"
     inkscape:object-paths="true" />
  <metadata
     id="metadata1527">
    <rdf:RDF>
      <cc:Work
         rdf:about="">
        <dc:format>image/svg+xml</dc:format>
        <dc:type
           rdf:resource="http://purl.org/dc/dcmitype/StillImage" />
        <dc:title></dc:title>
      </cc:Work>
    </rdf:RDF>
  </metadata>
  <g
     inkscape:label="Sign Back"
     inkscape:groupmode="layer"
     id="layer1"
     transform="translate(303.88994,645.02647)"
     sodipodi:insensitive="true">
    <rect
       style="opacity:1;fill:#fcd116;fill-opacity:1;fill-rule:nonzero;stroke:none;stroke-width:8.76299953;stroke-linecap:round;stroke-linejoin:round;stroke-miterlimit:4;stroke-dasharray:none;stroke-opacity:1"
       id="rect2075"
       x="-667.21063"
       y="-215.98006"
       rx="57.150002"
       ry="57.150002"
       height="914.40002"
       width="914.40002"
       transform="rotate(-135)" />
    <rect
       width="860.42499"
       height="860.42499"
       ry="25.400002"
       rx="25.4"
       y="-190.58005"
       x="-641.81067"
       id="rect2115"
       style="opacity:1;fill:none;fill-opacity:1;fill-rule:nonzero;stroke:#000000;stroke-width:19.05000114;stroke-linecap:round;stroke-linejoin:round;stroke-miterlimit:4;stroke-dasharray:none;stroke-opacity:1"
       transform="rotate(-135)" />
  </g>
  <g
     inkscape:groupmode="layer"
     id="layer2"
     inkscape:label="Legends"
     transform="translate(165.75817,41.894701)">
    <g
       id="g4974"
       transform="matrix(2.1,0,0,2.1,-509.58422,292.66883)">
      <g
         id="g3227">
        <path
           id="rect4970"
           transform="matrix(0.12599206,0,0,0.12599206,163.72669,-159.31597)"
           d="M 2102.5 1787.5879 L 2102.5 1970.4883 L 2102.4863 1970.4883 A 923.99997 923.99997 0 0 1 1831.4453 2623.4473 L 1361.9473 3092.9453 L 1641.9609 3372.959 L 2111.459 2903.4609 L 2111.8691 2903.8691 A 1320 1320 0 0 0 2354.4883 2568.1309 A 1320 1320 0 0 0 2597.1055 2903.8691 L 2597.5137 2903.4609 L 3067.0117 3372.959 L 3347.0273 3092.9453 L 2877.5273 2623.4473 A 923.99997 923.99997 0 0 1 2606.4883 1970.4883 L 2606.5 1970.4883 L 2606.5 1787.5879 L 2102.5 1787.5879 z "
           style="opacity:1;fill:#000000;fill-opacity:1;fill-rule:nonzero;stroke:none;stroke-width:63.71997833;stroke-linecap:round;stroke-linejoin:miter;stroke-miterlimit:4;stroke-dasharray:none;stroke-opacity:1" />
        <path
           inkscape:connector-curvature="0"
           id="path4972"
           d="M 460.37499,-53.169336 376.88551,68.234619 v 0.0026 a 12.7,12.7 0 0 0 -2.23655,7.194894 12.7,12.7 0 0 0 12.7,12.7 12.7,12.7 0 0 0 3.78116,-0.590656 l 0.009,0.01191 69.23506,-21.646224 69.23505,21.646224 v -0.0026 a 12.7,12.7 0 0 0 3.78892,0.580311 12.7,12.7 0 0 0 12.7,-12.7 12.7,12.7 0 0 0 -2.24431,-7.184575 l 0.009,-0.01191 z"
           style="opacity:1;fill:#000000;fill-opacity:1;fill-rule:nonzero;stroke:none;stroke-width:4.748981;stroke-linecap:round;stroke-linejoin:round;stroke-miterlimit:4;stroke-dasharray:none;stroke-opacity:1" />
      </g>
    </g>
  </g>
</svg>
