<?xml version="1.0" encoding="UTF-8" standalone="no"?>
<!-- Created with Inkscape (http://www.inkscape.org/) -->

<svg
   width="50.884666mm"
   height="50.884666mm"
   viewBox="0 0 50.884666 50.884666"
   version="1.1"
   id="svg1"
   inkscape:version="1.4.2 (ebf0e940, 2025-05-08)"
   sodipodi:docname="MUTCD-OH_W24-H2d.svg"
   xmlns:inkscape="http://www.inkscape.org/namespaces/inkscape"
   xmlns:sodipodi="http://sodipodi.sourceforge.net/DTD/sodipodi-0.dtd"
   xmlns="http://www.w3.org/2000/svg"
   xmlns:svg="http://www.w3.org/2000/svg">
  <sodipodi:namedview
     id="namedview1"
     pagecolor="#ffffff"
     bordercolor="#666666"
     borderopacity="1.0"
     inkscape:showpageshadow="2"
     inkscape:pageopacity="0.0"
     inkscape:pagecheckerboard="0"
     inkscape:deskcolor="#d1d1d1"
     inkscape:document-units="mm"
     inkscape:zoom="1"
     inkscape:cx="102"
     inkscape:cy="99"
     inkscape:window-width="1728"
     inkscape:window-height="1051"
     inkscape:window-x="0"
     inkscape:window-y="38"
     inkscape:window-maximized="1"
     inkscape:current-layer="layer1" />
  <defs
     id="defs1">
    <clipPath
       clipPathUnits="userSpaceOnUse"
       id="clipPath766">
      <path
         d="M 0,0 H 612.12 V 792.12 H 0 V 0"
         transform="translate(-427.50001,-203.5)"
         clip-rule="evenodd"
         id="path766" />
    </clipPath>
    <clipPath
       clipPathUnits="userSpaceOnUse"
       id="clipPath768">
      <path
         d="M 0,0 H 612.12 V 792.12 H 0 V 0"
         transform="translate(-427.50001,-203.5)"
         clip-rule="evenodd"
         id="path768" />
    </clipPath>
    <clipPath
       clipPathUnits="userSpaceOnUse"
       id="clipPath770">
      <path
         d="M 0,0 H 612.12 V 792.12 H 0 V 0"
         transform="translate(-562.50001,-196.9)"
         clip-rule="evenodd"
         id="path770" />
    </clipPath>
    <clipPath
       clipPathUnits="userSpaceOnUse"
       id="clipPath776">
      <path
         d="M 0,0 H 612.12 V 792.12 H 0 V 0"
         transform="translate(-465.10001,-300.10001)"
         clip-rule="evenodd"
         id="path776" />
    </clipPath>
    <clipPath
       clipPathUnits="userSpaceOnUse"
       id="clipPath778">
      <path
         d="M 0,0 H 612.12 V 792.12 H 0 V 0"
         transform="translate(-476.20001,-302.90001)"
         clip-rule="evenodd"
         id="path778" />
    </clipPath>
    <clipPath
       clipPathUnits="userSpaceOnUse"
       id="clipPath780">
      <path
         d="M 0,0 H 612.12 V 792.12 H 0 V 0"
         transform="translate(-487.70001,-300.10001)"
         clip-rule="evenodd"
         id="path780" />
    </clipPath>
    <clipPath
       clipPathUnits="userSpaceOnUse"
       id="clipPath782">
      <path
         d="M 0,0 H 612.12 V 792.12 H 0 V 0"
         transform="translate(-510.30001,-314.20001)"
         clip-rule="evenodd"
         id="path782" />
    </clipPath>
    <clipPath
       clipPathUnits="userSpaceOnUse"
       id="clipPath784">
      <path
         d="M 0,0 H 612.12 V 792.12 H 0 V 0"
         transform="translate(-525.10001,-309.80001)"
         clip-rule="evenodd"
         id="path784" />
    </clipPath>
    <clipPath
       clipPathUnits="userSpaceOnUse"
       id="clipPath786">
      <path
         d="M 0,0 H 612.12 V 792.12 H 0 V 0"
         transform="translate(-531.60001,-300.10001)"
         clip-rule="evenodd"
         id="path786" />
    </clipPath>
    <clipPath
       clipPathUnits="userSpaceOnUse"
       id="clipPath788">
      <path
         d="M 0,0 H 612.12 V 792.12 H 0 V 0"
         transform="translate(-460.30001,-271.3)"
         clip-rule="evenodd"
         id="path788" />
    </clipPath>
    <clipPath
       clipPathUnits="userSpaceOnUse"
       id="clipPath790">
      <path
         d="M 0,0 H 612.12 V 792.12 H 0 V 0"
         transform="translate(-474.80001,-271.3)"
         clip-rule="evenodd"
         id="path790" />
    </clipPath>
    <clipPath
       clipPathUnits="userSpaceOnUse"
       id="clipPath792">
      <path
         d="M 0,0 H 612.12 V 792.12 H 0 V 0"
         transform="translate(-488.80001,-271.3)"
         clip-rule="evenodd"
         id="path792" />
    </clipPath>
    <clipPath
       clipPathUnits="userSpaceOnUse"
       id="clipPath794">
      <path
         d="M 0,0 H 612.12 V 792.12 H 0 V 0"
         transform="translate(-501.20002,-271.3)"
         clip-rule="evenodd"
         id="path794" />
    </clipPath>
    <clipPath
       clipPathUnits="userSpaceOnUse"
       id="clipPath796">
      <path
         d="M 0,0 H 612.12 V 792.12 H 0 V 0"
         transform="translate(-526.10002,-271.3)"
         clip-rule="evenodd"
         id="path796" />
    </clipPath>
    <clipPath
       clipPathUnits="userSpaceOnUse"
       id="clipPath798">
      <path
         d="M 0,0 H 612.12 V 792.12 H 0 V 0"
         transform="translate(-537.20002,-274.10001)"
         clip-rule="evenodd"
         id="path798" />
    </clipPath>
    <clipPath
       clipPathUnits="userSpaceOnUse"
       id="clipPath800">
      <path
         d="M 0,0 H 612.12 V 792.12 H 0 V 0"
         transform="translate(-454.40001,-242.5)"
         clip-rule="evenodd"
         id="path800" />
    </clipPath>
    <clipPath
       clipPathUnits="userSpaceOnUse"
       id="clipPath802">
      <path
         d="M 0,0 H 612.12 V 792.12 H 0 V 0"
         transform="translate(-468.50001,-245.30001)"
         clip-rule="evenodd"
         id="path802" />
    </clipPath>
    <clipPath
       clipPathUnits="userSpaceOnUse"
       id="clipPath804">
      <path
         d="M 0,0 H 612.12 V 792.12 H 0 V 0"
         transform="translate(-481.50001,-242.5)"
         clip-rule="evenodd"
         id="path804" />
    </clipPath>
    <clipPath
       clipPathUnits="userSpaceOnUse"
       id="clipPath806">
      <path
         d="M 0,0 H 612.12 V 792.12 H 0 V 0"
         transform="translate(-506.60002,-252.20001)"
         clip-rule="evenodd"
         id="path806" />
    </clipPath>
    <clipPath
       clipPathUnits="userSpaceOnUse"
       id="clipPath808">
      <path
         d="M 0,0 H 612.12 V 792.12 H 0 V 0"
         transform="translate(-514.90001,-249.30001)"
         clip-rule="evenodd"
         id="path808" />
    </clipPath>
    <clipPath
       clipPathUnits="userSpaceOnUse"
       id="clipPath810">
      <path
         d="M 0,0 H 612.12 V 792.12 H 0 V 0"
         transform="translate(-526.30001,-245.30001)"
         clip-rule="evenodd"
         id="path810" />
    </clipPath>
    <clipPath
       clipPathUnits="userSpaceOnUse"
       id="clipPath812">
      <path
         d="M 0,0 H 612.12 V 792.12 H 0 V 0"
         transform="translate(-542.10001,-242.5)"
         clip-rule="evenodd"
         id="path812" />
    </clipPath>
    <clipPath
       clipPathUnits="userSpaceOnUse"
       id="clipPath814">
      <path
         d="M 0,0 H 612.12 V 792.12 H 0 V 0"
         transform="translate(-447.50001,-213.7)"
         clip-rule="evenodd"
         id="path814" />
    </clipPath>
    <clipPath
       clipPathUnits="userSpaceOnUse"
       id="clipPath816">
      <path
         d="M 0,0 H 612.12 V 792.12 H 0 V 0"
         transform="translate(-461.10001,-213.7)"
         clip-rule="evenodd"
         id="path816" />
    </clipPath>
    <clipPath
       clipPathUnits="userSpaceOnUse"
       id="clipPath818">
      <path
         d="M 0,0 H 612.12 V 792.12 H 0 V 0"
         transform="translate(-476.90001,-222.1)"
         clip-rule="evenodd"
         id="path818" />
    </clipPath>
    <clipPath
       clipPathUnits="userSpaceOnUse"
       id="clipPath820">
      <path
         d="M 0,0 H 612.12 V 792.12 H 0 V 0"
         transform="translate(-483.70001,-213.7)"
         clip-rule="evenodd"
         id="path820" />
    </clipPath>
    <clipPath
       clipPathUnits="userSpaceOnUse"
       id="clipPath822">
      <path
         d="M 0,0 H 612.12 V 792.12 H 0 V 0"
         transform="translate(-495.60001,-213.7)"
         clip-rule="evenodd"
         id="path822" />
    </clipPath>
    <clipPath
       clipPathUnits="userSpaceOnUse"
       id="clipPath824">
      <path
         d="M 0,0 H 612.12 V 792.12 H 0 V 0"
         transform="translate(-507.80002,-222.1)"
         clip-rule="evenodd"
         id="path824" />
    </clipPath>
    <clipPath
       clipPathUnits="userSpaceOnUse"
       id="clipPath826">
      <path
         d="M 0,0 H 612.12 V 792.12 H 0 V 0"
         transform="translate(-512.90002,-222.4)"
         clip-rule="evenodd"
         id="path826" />
    </clipPath>
    <clipPath
       clipPathUnits="userSpaceOnUse"
       id="clipPath828">
      <path
         d="M 0,0 H 612.12 V 792.12 H 0 V 0"
         transform="translate(-524.40001,-222.4)"
         clip-rule="evenodd"
         id="path828" />
    </clipPath>
    <clipPath
       clipPathUnits="userSpaceOnUse"
       id="clipPath830">
      <path
         d="M 0,0 H 612.12 V 792.12 H 0 V 0"
         transform="translate(-535.90001,-222.4)"
         clip-rule="evenodd"
         id="path830" />
    </clipPath>
    <clipPath
       clipPathUnits="userSpaceOnUse"
       id="clipPath832">
      <path
         d="M 0,0 H 612.12 V 792.12 H 0 V 0"
         transform="translate(-547.40002,-222.4)"
         clip-rule="evenodd"
         id="path832" />
    </clipPath>
  </defs>
  <g
     inkscape:label="Layer 1"
     inkscape:groupmode="layer"
     id="layer1"
     transform="translate(-78.845828,-132.55625)">
    <g
       id="g1492"
       transform="matrix(0.26458333,0,0,0.26458333,-71.924337,-27.38614)">
      <path
         id="path765"
         d="m 0,0 c 0,-1 0.2,-2.2 0.6,-3.3 0.5,-1.1 1.2,-2.1 2.1,-3 0.8,-0.9 1.9,-1.6 3,-2 C 6.8,-8.8 7.9,-9 9,-9 h 126 c 1.1,0 2.2,0.2 3.3,0.7 1.1,0.4 2.2,1.1 3.1,2 0.9,0.9 1.5,1.9 2,3 0.4,1.1 0.6,2.3 0.6,3.3 v 126 c 0,1.1 -0.2,2.2 -0.6,3.4 -0.5,1.1 -1.1,2.1 -2,3 -0.9,0.9 -2,1.6 -3.1,2 -1.1,0.5 -2.2,0.6 -3.3,0.6 H 9 c -1.1,0 -2.2,-0.1 -3.3,-0.6 -1.1,-0.4 -2.2,-1.1 -3,-2 -0.9,-0.9 -1.6,-1.9 -2.1,-3 C 0.2,128.2 0,127.1 0,126 V 0"
         style="fill:#dd7500;fill-opacity:1;fill-rule:evenodd;stroke:none"
         transform="matrix(1.3333333,0,0,-1.3333333,570,784.66667)"
         clip-path="url(#clipPath766)" />
      <path
         id="path767"
         d="M 0,0 C 0,-2.3 1,-4.6 2.7,-6.3 4.3,-8 6.6,-9 9,-9 h 126 c 2.4,0 4.7,1 6.4,2.7 1.7,1.7 2.6,4 2.6,6.3 v 126 c 0,2.4 -0.9,4.7 -2.6,6.4 -1.7,1.7 -4,2.6 -6.4,2.6 H 9 C 6.6,135 4.3,134.1 2.7,132.4 1,130.7 0,128.4 0,126 V 0"
         style="fill:none;stroke:#000000;stroke-width:0.24;stroke-linecap:butt;stroke-linejoin:round;stroke-miterlimit:1.414;stroke-dasharray:none;stroke-opacity:1"
         transform="matrix(1.3333333,0,0,-1.3333333,570,784.66667)"
         clip-path="url(#clipPath768)" />
      <path
         id="path769"
         d="m 0,0 h -126 c -0.8,0 -1.6,0.2 -2.4,0.5 -0.8,0.3 -1.6,0.8 -2.3,1.5 -0.6,0.6 -1.1,1.4 -1.4,2.2 -0.3,0.8 -0.5,1.7 -0.5,2.4 v 126 c 0,0.8 0.2,1.7 0.5,2.5 0.3,0.8 0.8,1.6 1.4,2.2 0.7,0.7 1.5,1.2 2.3,1.5 0.8,0.3 1.6,0.4 2.4,0.4 H 0 c 0.8,0 1.6,-0.1 2.4,-0.4 0.9,-0.3 1.6,-0.8 2.3,-1.5 0.6,-0.6 1.1,-1.4 1.5,-2.2 0.3,-0.8 0.4,-1.7 0.4,-2.5 V 6.6 C 6.6,5.9 6.5,5 6.2,4.2 5.8,3.4 5.3,2.6 4.7,2 4,1.3 3.3,0.8 2.4,0.5 1.6,0.2 0.8,0 0,0 M -126,3.6 H 0 c 0.4,0 0.7,0.1 1.1,0.3 0.4,0.1 0.7,0.3 1,0.6 0.3,0.3 0.6,0.7 0.7,1 C 3,5.9 3,6.3 3,6.6 v 126 c 0,0.8 -0.3,1.6 -0.9,2.2 -0.6,0.6 -1.4,0.8 -2.1,0.8 h -126 c -0.7,0 -1.5,-0.2 -2.1,-0.8 -0.6,-0.6 -0.9,-1.4 -0.9,-2.2 V 6.6 c 0,-1.6 1.4,-3 3,-3"
         style="fill:#000000;fill-opacity:1;fill-rule:evenodd;stroke:none"
         transform="matrix(1.3333333,0,0,-1.3333333,750,793.46667)"
         clip-path="url(#clipPath770)" />
      <path
         id="path775"
         d="M 0,0 C 1.4,0 2.6,0.6 3.6,1.7 4.5,2.7 5,4 5,5.4 5,7.2 4.2,8.7 2.7,10.1 c 0.7,0.7 1.2,1.3 1.5,1.9 0.3,0.6 0.5,1.4 0.5,2.4 0,1.4 -0.4,2.5 -1.2,3.4 -0.8,1 -1.9,1.4 -3.2,1.4 h -6 V 0 H 0 m -3,8.7 h 2.8 C 0.5,8.7 1.2,8.4 1.7,7.7 2.1,7 2.3,6.3 2.3,5.5 2.3,4.6 2.1,4 1.7,3.5 1.2,3 0.6,2.8 -0.2,2.8 H -3 v 5.9 m 0,7.9 h 2.9 c 0.8,0 1.4,-0.3 1.7,-0.7 C 1.9,15.5 2,14.9 2,14 2,13.4 1.8,12.8 1.5,12.3 1.1,11.7 0.6,11.4 0,11.4 h -3 v 5.2"
         style="fill:#000000;fill-opacity:1;fill-rule:evenodd;stroke:none"
         transform="matrix(1.3333333,0,0,-1.3333333,620.13333,655.86667)"
         clip-path="url(#clipPath776)" />
      <path
         id="path777"
         d="M 0,0 V 6.3 H 4 V 8.9 H 0 v 4.9 h 6.3 v 2.6 H -2.8 V -2.8 H 7 V 0 H 0"
         style="fill:#000000;fill-opacity:1;fill-rule:evenodd;stroke:none"
         transform="matrix(1.3333333,0,0,-1.3333333,634.93333,652.13333)"
         clip-path="url(#clipPath778)" />
      <path
         id="path779"
         d="M 0,0 1.3,5.3 H 5.4 L 6.7,0 H 9.5 L 4.7,19.2 H 2 L -2.8,0 H 0 M 3.3,13.5 4.7,8 H 1.9 l 1.4,5.5"
         style="fill:#000000;fill-opacity:1;fill-rule:evenodd;stroke:none"
         transform="matrix(1.3333333,0,0,-1.3333333,650.26667,655.86667)"
         clip-path="url(#clipPath780)" />
      <path
         id="path781"
         d="m 0,0 c -0.2,1.7 -0.7,2.9 -1.5,3.9 -0.5,0.5 -1,0.9 -1.6,1.2 -0.7,0.3 -1.4,0.4 -2.1,0.4 -1.9,0 -3.3,-0.8 -4.2,-2.5 -0.9,-1.6 -1.4,-4.1 -1.4,-7.4 0,-3.3 0.5,-5.8 1.5,-7.5 0.9,-1.6 2.4,-2.4 4.3,-2.4 1.5,0 2.8,0.5 3.6,1.5 0.8,1 1.3,2.3 1.4,3.9 h -2.8 v -0.3 c 0,-0.7 -0.1,-1.3 -0.5,-1.8 -0.4,-0.4 -0.9,-0.7 -1.7,-0.7 -1.3,0 -2.3,1 -2.7,3.1 -0.3,0.9 -0.4,2.5 -0.4,4.6 0,2 0.1,3.3 0.3,4.2 0.4,1.7 1.2,2.6 2.5,2.6 1.4,0 2.2,-0.9 2.5,-2.8 L 0,0"
         style="fill:#000000;fill-opacity:1;fill-rule:evenodd;stroke:none"
         transform="matrix(1.3333333,0,0,-1.3333333,680.4,637.06667)"
         clip-path="url(#clipPath782)" />
      <path
         id="path783"
         d="M 0,0 C 0,3.3 -0.5,5.8 -1.5,7.4 -2.4,9.1 -3.8,9.9 -5.7,9.9 -7.6,9.9 -9,9.1 -10,7.4 -10.9,5.8 -11.4,3.3 -11.4,0 c 0,-3.3 0.5,-5.8 1.4,-7.5 1,-1.6 2.3,-2.4 4.2,-2.4 1.9,0 3.4,0.8 4.3,2.4 1,1.7 1.5,4.2 1.5,7.5 m -2.7,0 c 0,-2.4 -0.2,-4.2 -0.7,-5.5 -0.5,-1.2 -1.3,-1.8 -2.3,-1.8 -2,0 -3,2.6 -3,7.8 0,1.6 0.2,3 0.5,4.1 0.5,1.7 1.3,2.6 2.5,2.6 1.2,0 2.1,-1 2.6,-2.9 0.3,-1.2 0.4,-2.6 0.4,-4.3"
         style="fill:#000000;fill-opacity:1;fill-rule:evenodd;stroke:none"
         transform="matrix(1.3333333,0,0,-1.3333333,700.13333,642.93333)"
         clip-path="url(#clipPath784)" />
      <path
         id="path785"
         d="M 0,0 V 12.9 L 6,0 H 8.1 V 19.2 H 5.3 V 7.7 L 0,19.2 H -2.7 V 0 H 0"
         style="fill:#000000;fill-opacity:1;fill-rule:evenodd;stroke:none"
         transform="matrix(1.3333333,0,0,-1.3333333,708.8,655.86667)"
         clip-path="url(#clipPath786)" />
      <path
         id="path787"
         d="M 0,0 1.8,10.1 3.6,0 H 6 L 9.1,19.2 H 6.4 L 4.7,9 2.9,19.2 H 0.7 L -1.2,9 -2.8,19.2 H -5.5 L -2.5,0 H 0"
         style="fill:#000000;fill-opacity:1;fill-rule:evenodd;stroke:none"
         transform="matrix(1.3333333,0,0,-1.3333333,613.73333,694.26667)"
         clip-path="url(#clipPath788)" />
      <path
         id="path789"
         d="M 0,0 V 19.2 H -2.7 V 0 H 0"
         style="fill:#000000;fill-opacity:1;fill-rule:evenodd;stroke:none"
         transform="matrix(1.3333333,0,0,-1.3333333,633.06667,694.26667)"
         clip-path="url(#clipPath790)" />
      <path
         id="path791"
         d="M 0,0 V 2.6 H -7.1 V 19.2 H -9.8 V 0 H 0"
         style="fill:#000000;fill-opacity:1;fill-rule:evenodd;stroke:none"
         transform="matrix(1.3333333,0,0,-1.3333333,651.73333,694.26667)"
         clip-path="url(#clipPath792)" />
      <path
         id="path793"
         d="M 0,0 V 2.6 H -7 V 19.2 H -9.7 V 0 H 0"
         style="fill:#000000;fill-opacity:1;fill-rule:evenodd;stroke:none"
         transform="matrix(1.3333333,0,0,-1.3333333,668.26667,694.26667)"
         clip-path="url(#clipPath794)" />
      <path
         id="path795"
         d="m 0,0 c 1.5,0 2.7,0.6 3.7,1.7 0.9,1 1.4,2.3 1.4,3.7 0,1.8 -0.8,3.3 -2.4,4.7 0.7,0.7 1.3,1.3 1.5,1.9 0.4,0.6 0.5,1.4 0.5,2.4 0,1.4 -0.4,2.5 -1.1,3.4 -0.9,1 -1.9,1.4 -3.3,1.4 h -6 L -5.7,0 H 0 m -2.9,8.7 h 2.7 C 0.6,8.7 1.2,8.4 1.7,7.7 2.2,7 2.4,6.3 2.4,5.5 2.4,4.6 2.2,4 1.7,3.5 1.3,3 0.6,2.8 -0.2,2.8 h -2.7 v 5.9 m 0,7.9 h 2.8 c 0.8,0 1.4,-0.3 1.8,-0.7 C 1.9,15.5 2,14.9 2,14 2,13.4 1.9,12.8 1.5,12.3 1.2,11.7 0.6,11.4 0,11.4 h -2.9 v 5.2"
         style="fill:#000000;fill-opacity:1;fill-rule:evenodd;stroke:none"
         transform="matrix(1.3333333,0,0,-1.3333333,701.46667,694.26667)"
         clip-path="url(#clipPath796)" />
      <path
         id="path797"
         d="M 0,0 V 6.3 H 4 V 8.9 H 0 v 4.9 h 6.3 v 2.6 h -9 V -2.8 H 7.1 V 0 H 0"
         style="fill:#000000;fill-opacity:1;fill-rule:evenodd;stroke:none"
         transform="matrix(1.3333333,0,0,-1.3333333,716.26667,690.53333)"
         clip-path="url(#clipPath798)" />
      <path
         id="path799"
         d="M 0,0 V 9.1 H 2.7 L 5.2,0 H 8 L 5.3,9.5 c 0.9,0.3 1.6,0.9 2.1,1.7 0.4,0.8 0.6,1.7 0.6,2.7 0,1.6 -0.4,2.9 -1.2,3.8 -1,1 -2.2,1.5 -3.8,1.5 H -2.7 V 0 H 0 m 0,16.6 h 2.9 c 0.7,0 1.3,-0.3 1.8,-0.7 0.4,-0.4 0.6,-1 0.6,-1.8 C 5.3,12.5 4.6,11.7 3,11.7 H 0 v 4.9"
         style="fill:#000000;fill-opacity:1;fill-rule:evenodd;stroke:none"
         transform="matrix(1.3333333,0,0,-1.3333333,605.86667,732.66667)"
         clip-path="url(#clipPath800)" />
      <path
         id="path801"
         d="M 0,0 V 6.3 H 4 V 8.9 H 0 v 4.9 h 6.3 v 2.6 H -2.8 V -2.8 H 7 V 0 H 0"
         style="fill:#000000;fill-opacity:1;fill-rule:evenodd;stroke:none"
         transform="matrix(1.3333333,0,0,-1.3333333,624.66667,728.93333)"
         clip-path="url(#clipPath802)" />
      <path
         id="path803"
         d="M 0,0 V 10.8 L 3.6,0.1 7.2,10.8 V 0 H 9.9 V 19.2 H 7.2 L 3.6,8.5 0,19.2 H -2.7 V 0 H 0"
         style="fill:#000000;fill-opacity:1;fill-rule:evenodd;stroke:none"
         transform="matrix(1.3333333,0,0,-1.3333333,642,732.66667)"
         clip-path="url(#clipPath804)" />
      <path
         id="path805"
         d="m 0,0 c 0,3.3 -0.4,5.8 -1.4,7.4 -0.9,1.7 -2.3,2.5 -4.2,2.5 -1.9,0 -3.3,-0.8 -4.3,-2.5 -0.9,-1.6 -1.4,-4.1 -1.4,-7.4 0,-3.3 0.5,-5.8 1.4,-7.5 0.9,-1.6 2.3,-2.4 4.2,-2.4 1.9,0 3.3,0.8 4.3,2.4 C -0.5,-5.8 0,-3.3 0,0 m -2.6,0 c 0,-2.4 -0.3,-4.2 -0.8,-5.5 -0.5,-1.2 -1.2,-1.8 -2.2,-1.8 -2,0 -3,2.6 -3,7.8 0,1.6 0.1,3 0.4,4.1 0.5,1.7 1.4,2.6 2.6,2.6 1.2,0 2,-1 2.5,-2.9 0.3,-1.2 0.5,-2.6 0.5,-4.3"
         style="fill:#000000;fill-opacity:1;fill-rule:evenodd;stroke:none"
         transform="matrix(1.3333333,0,0,-1.3333333,675.46667,719.73333)"
         clip-path="url(#clipPath806)" />
      <path
         id="path807"
         d="M 0,0 -3.2,12.4 H -6 L -1.1,-6.8 H 1 L 5.9,12.4 H 3.1 L 0,0"
         style="fill:#000000;fill-opacity:1;fill-rule:evenodd;stroke:none"
         transform="matrix(1.3333333,0,0,-1.3333333,686.53333,723.6)"
         clip-path="url(#clipPath808)" />
      <path
         id="path809"
         d="M 0,0 V 6.3 H 4 V 8.9 H 0 v 4.9 h 6.3 v 2.6 H -2.8 V -2.8 H 7 V 0 H 0"
         style="fill:#000000;fill-opacity:1;fill-rule:evenodd;stroke:none"
         transform="matrix(1.3333333,0,0,-1.3333333,701.73333,728.93333)"
         clip-path="url(#clipPath810)" />
      <path
         id="path811"
         d="m 0,0 c 1.9,0 3.3,1.1 4.2,3.3 0.7,1.6 1,3.5 1,5.7 0,5.4 -1.1,8.7 -3.3,9.9 -0.5,0.2 -1.3,0.3 -2.2,0.3 H -5.5 V 0 H 0 m -2.8,16.6 h 2.3 c 1.3,0 2.2,-0.9 2.7,-2.7 0.2,-0.9 0.3,-2.4 0.3,-4.3 0,-0.3 0,-0.7 0,-1 C 2.5,8.2 2.5,7.9 2.4,7.4 2.4,6.7 2.3,6.1 2.2,5.6 2.1,5.1 2,4.7 1.9,4.4 1.4,3.3 0.7,2.8 -0.4,2.8 h -2.4 v 13.8"
         style="fill:#000000;fill-opacity:1;fill-rule:evenodd;stroke:none"
         transform="matrix(1.3333333,0,0,-1.3333333,722.8,732.66667)"
         clip-path="url(#clipPath812)" />
      <path
         id="path813"
         d="M 0,0 V 11.5 L 2.4,4.3 4.7,11.5 V 0 H 7.1 V 19.2 H 4.7 L 2.4,12.5 0.1,19.2 H -2.3 V 0 H 0"
         style="fill:#000000;fill-opacity:1;fill-rule:evenodd;stroke:none"
         transform="matrix(1.3333333,0,0,-1.3333333,596.66667,771.06667)"
         clip-path="url(#clipPath814)" />
      <path
         id="path815"
         d="M 0,0 V 11.5 L 2.5,4.3 4.7,11.5 V 0 H 7.1 V 19.2 H 4.7 L 2.5,12.5 0.1,19.2 H -2.3 V 0 H 0"
         style="fill:#000000;fill-opacity:1;fill-rule:evenodd;stroke:none"
         transform="matrix(1.3333333,0,0,-1.3333333,614.8,771.06667)"
         clip-path="url(#clipPath816)" />
      <path
         id="path817"
         d="M 0,0 V 2.5 H -6 V 0 h 6"
         style="fill:#000000;fill-opacity:1;fill-rule:evenodd;stroke:none"
         transform="matrix(1.3333333,0,0,-1.3333333,635.86667,759.86667)"
         clip-path="url(#clipPath818)" />
      <path
         id="path819"
         d="m 0,0 c 0.9,0 1.7,0.3 2.3,1 1.2,1.2 1.8,4.1 1.8,8.7 0,1.7 -0.1,3.3 -0.4,4.9 -0.3,1.5 -0.6,2.5 -1,3.2 -0.6,0.9 -1.5,1.4 -2.8,1.4 H -4.2 V 0 H 0 m -1.8,16.7 h 1.6 c 0.4,0 0.8,-0.2 1.1,-0.5 0.5,-0.7 0.7,-3.1 0.7,-7.1 0,-0.5 0,-1 0,-1.4 C 1.6,7.3 1.5,6.8 1.5,6.4 1.5,5.8 1.4,5.4 1.4,5 1.4,4.6 1.3,4.3 1.3,4.1 1,3 0.5,2.5 -0.1,2.5 h -1.7 v 14.2"
         style="fill:#000000;fill-opacity:1;fill-rule:evenodd;stroke:none"
         transform="matrix(1.3333333,0,0,-1.3333333,644.93333,771.06667)"
         clip-path="url(#clipPath820)" />
      <path
         id="path821"
         d="m 0,0 c 0.9,0 1.7,0.3 2.3,1 1.2,1.2 1.8,4.1 1.8,8.7 0,1.7 -0.1,3.3 -0.4,4.9 -0.3,1.5 -0.6,2.5 -1,3.2 -0.6,0.9 -1.5,1.4 -2.8,1.4 h -4 V 0 H 0 m -1.8,16.7 h 1.6 c 0.4,0 0.8,-0.2 1.1,-0.5 0.5,-0.7 0.7,-3.1 0.7,-7.1 0,-0.5 0,-1 0,-1.4 C 1.6,7.3 1.5,6.8 1.5,6.4 1.5,5.8 1.5,5.4 1.4,5 1.4,4.6 1.3,4.3 1.3,4.1 1,3 0.5,2.5 -0.1,2.5 h -1.7 v 14.2"
         style="fill:#000000;fill-opacity:1;fill-rule:evenodd;stroke:none"
         transform="matrix(1.3333333,0,0,-1.3333333,660.8,771.06667)"
         clip-path="url(#clipPath822)" />
      <path
         id="path823"
         d="M 0,0 V 2.5 H -6 V 0 h 6"
         style="fill:#000000;fill-opacity:1;fill-rule:evenodd;stroke:none"
         transform="matrix(1.3333333,0,0,-1.3333333,677.06667,759.86667)"
         clip-path="url(#clipPath824)" />
      <path
         id="path825"
         d="M 0,0 V -8.7 H 2.5 V 0 L 6.4,10.5 H 3.8 L 1.2,3.8 -1.3,10.5 H -4 L 0,0"
         style="fill:#000000;fill-opacity:1;fill-rule:evenodd;stroke:none"
         transform="matrix(1.3333333,0,0,-1.3333333,683.86667,759.46667)"
         clip-path="url(#clipPath826)" />
      <path
         id="path827"
         d="M 0,0 V -8.7 H 2.5 V 0 L 6.4,10.5 H 3.8 L 1.3,3.8 -1.3,10.5 H -4 L 0,0"
         style="fill:#000000;fill-opacity:1;fill-rule:evenodd;stroke:none"
         transform="matrix(1.3333333,0,0,-1.3333333,699.2,759.46667)"
         clip-path="url(#clipPath828)" />
      <path
         id="path829"
         d="M 0,0 V -8.7 H 2.5 V 0 L 6.4,10.5 H 3.8 L 1.3,3.8 -1.3,10.5 H -3.9 L 0,0"
         style="fill:#000000;fill-opacity:1;fill-rule:evenodd;stroke:none"
         transform="matrix(1.3333333,0,0,-1.3333333,714.53333,759.46667)"
         clip-path="url(#clipPath830)" />
      <path
         id="path831"
         d="M 0,0 V -8.7 H 2.5 V 0 l 4,10.5 H 3.8 L 1.3,3.8 -1.3,10.5 H -3.9 L 0,0"
         style="fill:#000000;fill-opacity:1;fill-rule:evenodd;stroke:none"
         transform="matrix(1.3333333,0,0,-1.3333333,729.86667,759.46667)"
         clip-path="url(#clipPath832)" />
    </g>
  </g>
</svg>
