<?xml version="1.0" encoding="UTF-8"?>
<svg width="1080" height="1620" enable-background="new" version="1.1" viewBox="0 0 304.8 457.2" xmlns="http://www.w3.org/2000/svg" xmlns:cc="http://creativecommons.org/ns#" xmlns:dc="http://purl.org/dc/elements/1.1/" xmlns:rdf="http://www.w3.org/1999/02/22-rdf-syntax-ns#">
<metadata>
<rdf:RDF>
<cc:Work rdf:about="">
<dc:format>image/svg+xml</dc:format>
<dc:type rdf:resource="http://purl.org/dc/dcmitype/StillImage"/>
</cc:Work>
</rdf:RDF>
</metadata>
<g transform="translate(0 465)">
<g transform="matrix(9.7314 0 0 9.7314 -2393.2 2547.8)">
<g fill="#fff" stroke-linecap="round" stroke-linejoin="round">
<rect x="245.93" y="-309.59" width="31.321" height="46.982" rx="3.9152" ry="3.9152" stroke="#000" stroke-width=".18532"/>
<rect x="247.39" y="-308.12" width="28.385" height="44.046" rx="2.447" ry="2.447" stroke="#af1e2d" stroke-width=".97879"/>
</g>
</g>
</g>
<g transform="matrix(9.7314 0 0 9.7314 -2393.2 3012.8)" fill="#af1e2d">
<g stroke-width=".04058" aria-label="NO">
<path d="m259.91-296.4-2.4192-5.2475v5.2475h-1.122v-7.8304h1.122l2.1504 4.6982v-4.6982h1.122v7.8304z"/>
<path d="m266.92-300.33q0 0.89991-0.10518 1.531-0.0935 0.6311-0.33893 1.1921-0.29217 0.70123-0.73628 1.0285-0.43243 0.31555-1.0986 0.31555-0.70123 0-1.1453-0.31555-0.43242-0.32724-0.7246-1.0285-0.24543-0.57266-0.35061-1.1921-0.0935-0.6311-0.0935-1.531 0-0.88822 0.0935-1.5193 0.10518-0.64279 0.35061-1.2038 0.30387-0.70122 0.73629-1.0051 0.44411-0.31555 1.1336-0.31555 0.67785 0 1.1103 0.31555 0.43243 0.30387 0.7246 1.0285 0.11688 0.29218 0.19868 0.58435 0.0935 0.29218 0.14025 0.61942 0.0584 0.31555 0.0818 0.68954 0.0234 0.3623 0.0234 0.80641zm-1.0752 0q0-0.32724-0.0234-0.59604-0.0117-0.26881-0.0468-0.49086-0.0234-0.23374-0.0701-0.44411-0.0468-0.21037-0.10519-0.42074-0.15193-0.52592-0.38567-0.75966-0.22206-0.23374-0.57267-0.23374-0.7246 0-0.9934 0.97003-0.14025 0.44411-0.19868 0.89991-0.0468 0.44411-0.0468 1.0986 0 0.31555 0.0117 0.58436 0.0234 0.25711 0.0467 0.49086 0.0351 0.22205 0.0818 0.44411 0.0468 0.22205 0.10519 0.45579 0.2688 0.97003 0.9934 0.97003 0.35061 0 0.57267-0.23374 0.23374-0.23374 0.38567-0.73629 0.0701-0.23374 0.11687-0.44411 0.0467-0.22205 0.0701-0.45579 0.0351-0.23375 0.0467-0.49086 0.0117-0.26881 0.0117-0.60773z"/>
</g>
<g stroke-width=".027053" aria-label="PARKING">
<path d="m252.72-292.37q0 0.71681-0.35841 1.0908-0.35061 0.37399-1.0129 0.37399h-0.8103v2.2907h-0.74798v-5.2202h1.5583q0.30386 0 0.55319 0.10908 0.25712 0.10129 0.43632 0.29608 0.18699 0.18699 0.28049 0.45969 0.10129 0.2727 0.10129 0.59993zm-0.7324 0q0-0.32723-0.18699-0.52981t-0.49086-0.20258h-0.77134v1.4804h0.77134q0.32724 0 0.49865-0.19479 0.1792-0.19478 0.1792-0.55319z"/>
<path d="m255.62-288.62-0.3662-1.4258h-1.122l-0.34282 1.4258h-0.75577l1.3012-5.2202h0.73239l1.3012 5.2202zm-0.93497-3.662-0.3662 1.5037h0.74798z"/>
<path d="m259.25-288.62-0.69344-2.4543h-0.71681v2.4543h-0.74797v-5.2202h1.5583q0.30386 0 0.55319 0.10129 0.25711 0.10129 0.43632 0.28049 0.18699 0.1792 0.28049 0.44411 0.10128 0.25712 0.10128 0.56877 0 0.46749-0.18699 0.79472-0.18699 0.32724-0.56098 0.46749l0.74797 2.5634zm0.0389-3.8256q0-0.30386-0.18699-0.48306-0.18699-0.17921-0.49086-0.17921h-0.77135v1.3168h0.77135q0.32724 0 0.49865-0.16362 0.1792-0.17141 0.1792-0.49086z"/>
<path d="m263.04-288.62-0.91938-2.5478-0.47528 0.88043v1.6674h-0.74797v-5.2202h0.74797v2.0881l1.1921-2.0881h0.86484l-1.083 1.831 1.2077 3.3892z"/>
<path d="m264.7-288.62v-5.2202h0.73239v5.2202z"/>
<path d="m268.95-288.62-1.6128-3.4983v3.4983h-0.74797v-5.2202h0.74797l1.4336 3.1321v-3.1321h0.74797v5.2202z"/>
<path d="m273.47-290.07q0 0.27269-0.0312 0.45969-0.0312 0.18699-0.11687 0.35061-0.15582 0.34282-0.45969 0.53761-0.29607 0.19478-0.69343 0.19478-0.46749 0-0.81031-0.22595-0.33503-0.22595-0.52981-0.67006-0.12466-0.29607-0.20258-0.78693-0.0701-0.49865-0.0701-1.0129 0-0.55319 0.0467-0.96613 0.0545-0.42074 0.19478-0.79472 0.0701-0.20258 0.19479-0.37399 0.13245-0.1792 0.30386-0.30387 0.17141-0.13245 0.38178-0.20257 0.21037-0.0701 0.43632-0.0701 0.28049 0 0.52202 0.10128 0.24153 0.0935 0.42074 0.2727 0.1792 0.17141 0.28828 0.42074 0.10908 0.24153 0.12466 0.52981h-0.74797q-0.0156-0.2649-0.187-0.42852-0.16362-0.16362-0.43632-0.16362-0.38956 0-0.59214 0.38957-0.10908 0.19478-0.17141 0.59993-0.0623 0.39736-0.0623 0.86485 0 0.32724 0.0234 0.66227 0.0312 0.33503 0.0857 0.63889 0.0857 0.38178 0.2727 0.58435 0.19478 0.20258 0.49864 0.20258 0.56878 0 0.56878-0.8103v-0.34283h-0.59215v-0.73239h1.3401v1.0752z"/>
</g>
<g stroke-width=".027053" aria-label="FIRE">
<path d="m256.59-285.37v1.3168h1.044v0.7168h-1.044v2.4543h-0.74797v-5.2202h2.6569v0.73239z"/>
<path d="m259.24-280.88v-5.2202h0.73239v5.2202z"/>
<path d="m263.28-280.88-0.69344-2.4543h-0.7168v2.4543h-0.74798v-5.2202h1.5583q0.30387 0 0.55319 0.10129 0.25712 0.10129 0.43632 0.28049 0.18699 0.1792 0.28049 0.44411 0.10129 0.25711 0.10129 0.56877 0 0.46748-0.187 0.79472-0.18699 0.32724-0.56098 0.46748l0.74798 2.5634zm0.039-3.8256q0-0.30387-0.187-0.48307-0.18699-0.1792-0.49086-0.1792h-0.77134v1.3168h0.77134q0.32724 0 0.49865-0.16362 0.17921-0.17141 0.17921-0.49086z"/>
<path d="m264.93-280.88v-5.2202h2.4543v0.73239h-1.7063v1.3168h1.083v0.7168h-1.083v1.7219h1.9089v0.73239z"/>
</g>
<g stroke-width=".027053" aria-label="LANE">
<path d="m254.83-273.05v-5.2202h0.74798v4.5268h1.9089v0.69343z"/>
<path d="m260.41-273.05-0.3662-1.4258h-1.122l-0.34282 1.4258h-0.75576l1.3012-5.2202h0.73239l1.3012 5.2202zm-0.93497-3.662-0.36619 1.5037h0.74797z"/>
<path d="m264.24-273.05-1.6128-3.4983v3.4983h-0.74798v-5.2202h0.74798l1.4336 3.1321v-3.1321h0.74798v5.2202z"/>
<path d="m265.94-273.05v-5.2202h2.4543v0.73239h-1.7063v1.3168h1.083v0.71681h-1.083v1.7219h1.9089v0.73239z"/>
</g>
<g transform="matrix(-.030828 0 0 .030828 268.6 -263.31)">
<path transform="matrix(-.88194 0 0 .88194 735.47 -1501.2)" d="m349.81 1390.8c-2.0184 1.2135-3.7084 2.9035-4.9219 4.9219l-3.2383-2.3887-137.65 94.666 137.65 94.666 3.2383-2.3887c1.2134 2.0184 2.9034 3.7084 4.9219 4.9219 7.9524 2e-4 14.4-6.446 14.4-14.398-0.78856-1.0376-1.7143-1.9634-2.752-2.752l2.0957-1.5449-13.289-42.504c148.2-0.065 307.85 0.058 451.5 0.047l-13.289 42.504 0.0215 0.016c-0.44064 1.3847-0.66913 2.8282-0.67773 4.2813-1.6e-4 7.9532 6.4472 14.4 14.4 14.4 2.901-0.02 5.7282-0.916 8.1113-2.5703l0.0469 0.035 137.66-94.666-137.66-94.664-0.0176 0.014c-2.3938-1.6523-5.2319-2.5409-8.1406-2.5488-7.9532-2e-4 -14.401 6.4471-14.4 14.4 9e-3 1.4531 0.23709 2.8966 0.67773 4.2813l-0.0215 0.016 13.289 42.502h-451.52l13.305-42.551-2.0957-1.5449c1.0376-0.7886 1.9634-1.7144 2.752-2.752-8.8e-4 -7.9524-6.448-14.399-14.4-14.398z" fill="#af1e2d"/>
</g>
</g>
</svg>