<?xml version="1.0" encoding="UTF-8"?>
<svg width="1080" height="1620" enable-background="new" version="1.1" viewBox="0 0 304.8 457.2" xmlns="http://www.w3.org/2000/svg" xmlns:cc="http://creativecommons.org/ns#" xmlns:dc="http://purl.org/dc/elements/1.1/" xmlns:rdf="http://www.w3.org/1999/02/22-rdf-syntax-ns#">
<metadata>
<rdf:RDF>
<cc:Work rdf:about="">
<dc:format>image/svg+xml</dc:format>
<dc:type rdf:resource="http://purl.org/dc/dcmitype/StillImage"/>
</cc:Work>
</rdf:RDF>
</metadata>
<g transform="translate(0 465)">
<g transform="matrix(9.7314 0 0 9.7314 -2393.2 2547.8)">
<g fill="#fff" stroke-linecap="round" stroke-linejoin="round">
<rect x="245.93" y="-309.59" width="31.321" height="46.982" rx="3.9152" ry="3.9152" stroke="#000" stroke-width=".18532"/>
<rect x="247.39" y="-308.12" width="28.385" height="44.046" rx="2.447" ry="2.447" stroke="#af1e2d" stroke-width=".97879"/>
</g>
</g>
</g>
<g transform="matrix(9.7314 0 0 9.7314 -2393.2 3012.8)" fill="#af1e2d">
<g stroke-width=".04058" aria-label="NO">
<path d="m259.91-296.87-2.4192-5.2475v5.2475h-1.122v-7.8304h1.122l2.1504 4.6982v-4.6982h1.122v7.8304z"/>
<path d="m266.92-300.79q0 0.8999-0.10518 1.531-0.0935 0.6311-0.33893 1.1921-0.29217 0.70123-0.73628 1.0285-0.43243 0.31555-1.0986 0.31555-0.70123 0-1.1453-0.31555-0.43242-0.32724-0.7246-1.0285-0.24543-0.57267-0.35061-1.1921-0.0935-0.63111-0.0935-1.531 0-0.88822 0.0935-1.5193 0.10518-0.64279 0.35061-1.2038 0.30387-0.70122 0.73629-1.0051 0.44411-0.31555 1.1336-0.31555 0.67785 0 1.1103 0.31555 0.43243 0.30387 0.7246 1.0285 0.11688 0.29217 0.19868 0.58435 0.0935 0.29218 0.14025 0.61942 0.0584 0.31555 0.0818 0.68954 0.0234 0.3623 0.0234 0.80641zm-1.0752 0q0-0.32724-0.0234-0.59605-0.0117-0.2688-0.0468-0.49085-0.0234-0.23375-0.0701-0.44411-0.0468-0.21037-0.10519-0.42074-0.15193-0.52592-0.38567-0.75966-0.22206-0.23374-0.57267-0.23374-0.7246 0-0.9934 0.97003-0.14025 0.44411-0.19868 0.8999-0.0468 0.44411-0.0468 1.0986 0 0.31555 0.0117 0.58436 0.0234 0.25711 0.0467 0.49085 0.0351 0.22206 0.0818 0.44411 0.0468 0.22206 0.10519 0.4558 0.2688 0.97003 0.9934 0.97003 0.35061 0 0.57267-0.23374 0.23374-0.23374 0.38567-0.73629 0.0701-0.23374 0.11687-0.44411 0.0467-0.22205 0.0701-0.4558 0.0351-0.23374 0.0467-0.49085 0.0117-0.26881 0.0117-0.60773z"/>
</g>
<g stroke-width=".033817" aria-label="PARKING">
<path d="m252.22-292.68q0 0.8181-0.41879 1.3051-0.41878 0.47722-1.1103 0.47722h-0.45774v2.8439h-0.82784v-6.5253h1.2856q0.2727 0 0.50644 0.0682 0.24348 0.0682 0.40905 0.20452 0.2727 0.224 0.43826 0.66227 0.17531 0.42852 0.17531 0.96418zm-0.84731 0q0-0.55514-0.17531-0.79862-0.16557-0.25322-0.50644-0.25322h-0.45774v1.9966h0.45774q0.37009 0 0.52592-0.20453 0.15583-0.21426 0.15583-0.74018z"/>
<path d="m255.27-288.06-0.37009-1.7433h-1.0713l-0.37009 1.7433h-0.84731l1.3343-6.5253h0.83758l1.3538 6.5253zm-0.89601-4.3047-0.36035 1.7141h0.70122z"/>
<path d="m259.85-292.75q0 0.55513-0.16556 0.88627-0.15583 0.33113-0.51618 0.55513l0.66227 3.2529h-0.84732l-0.74018-3.0484h-0.37983v3.0484h-0.82783v-6.5253h1.2856q1.529 0 1.529 1.831zm-0.84731-0.0195q0-0.55514-0.15583-0.75966-0.14608-0.20453-0.57461-0.20453h-0.40905v1.7823h0.5454q0.34087 0 0.46748-0.1753 0.12661-0.17531 0.12661-0.64279z"/>
<path d="m262.9-288.06-0.87653-3.0873-0.31166 0.63305v2.4543h-0.82783v-6.5253h0.82783v2.0842l1.0226-2.0842h0.96419l-1.0713 2.24 1.159 4.2853z"/>
<path d="m264.84-288.06v-6.5253h0.82784v6.5253z"/>
<path d="m269.2-288.06-1.2758-3.8665v3.8665h-0.82784v-6.5253h0.82784l1.159 3.2529v-3.2529h0.82784v6.5253z"/>
<path d="m273.95-289.55q0 0.22401-0.0292 0.45775t-0.0682 0.38957q-0.10713 0.34087-0.40905 0.55513-0.30191 0.20453-0.74992 0.20453-0.50644 0-0.80835-0.20453-0.30192-0.20452-0.45775-0.672-0.0779-0.22401-0.13634-0.45775-0.0487-0.23374-0.0779-0.52592-0.0292-0.29217-0.0487-0.66226-0.01-0.3701-0.01-0.8668 0-0.48696 0.01-0.84731 0.0195-0.37009 0.0487-0.65253 0.039-0.29217 0.0974-0.52592 0.0584-0.23374 0.14609-0.46748 0.15583-0.45774 0.44801-0.65253 0.30191-0.19478 0.78887-0.19478 0.55514 0 0.8668 0.33113 0.31165 0.3214 0.38956 0.92523h-0.82783q-0.0584-0.40905-0.40905-0.40905-0.47722 0-0.57461 0.63305-0.0292 0.19479-0.0584 0.38957-0.0292 0.18505-0.0487 0.39931-0.01 0.21426-0.0195 0.47722-0.01 0.26296-0.01 0.59409 0 0.34088 0.01 0.5941t0.0195 0.47722q0.0195 0.21426 0.0389 0.40905 0.0195 0.19478 0.0487 0.39931 0.0682 0.32139 0.19478 0.4967 0.12661 0.16556 0.35062 0.16556 0.224 0 0.34087-0.18504 0.11687-0.19479 0.11687-0.52592v-0.86679h-0.38957v-0.84732h1.2174v1.6654z"/>
</g>
<g stroke-width=".027053" aria-label="3PM - 6PM">
<path d="m252.57-281.27q0 0.38957-0.0779 0.70122-0.0779 0.31166-0.23374 0.50644-0.15583 0.1792-0.34283 0.26491-0.18699 0.0857-0.51423 0.0857-0.29607 0-0.51423-0.14024-0.21816-0.14025-0.38957-0.41294-0.16362-0.24154-0.16362-0.51424h0.67785q0.0156 0.17141 0.12467 0.28049 0.11687 0.10908 0.28049 0.10908 0.2649 0 0.36619-0.20257 0.10908-0.21037 0.10908-0.67785 0-0.31166-0.0312-0.51424-0.0234-0.20257-0.0857-0.31944t-0.1792-0.16362q-0.10908-0.0468-0.2727-0.0468h-0.21816v-0.67785h0.16362q0.2727 0 0.38178-0.17141 0.11687-0.1792 0.11687-0.6311 0-0.64669-0.40515-0.64669-0.15583 0-0.24933 0.0935-0.0857 0.0935-0.10129 0.25711h-0.67785q0.0312-0.48306 0.30387-0.75576 0.28049-0.2727 0.7246-0.2727 1.083 0 1.083 1.3245 0 0.34282-0.0623 0.59993-0.0623 0.25712-0.21816 0.52982 0.10129 0.10129 0.15583 0.1792 0.0623 0.0701 0.10129 0.15583 0.0857 0.18699 0.11687 0.4519 0.0312 0.25711 0.0312 0.60773z"/>
<path d="m255.65-283.51q0 0.65447-0.33503 1.044-0.33503 0.38178-0.88822 0.38178h-0.36619v2.2751h-0.66227v-5.2202h1.0285q0.21816 0 0.40515 0.0545 0.19479 0.0545 0.32724 0.16361 0.21816 0.17921 0.35061 0.52982 0.14025 0.34282 0.14025 0.77135zm-0.67785 0q0-0.44411-0.14025-0.6389-0.13245-0.20257-0.40515-0.20257h-0.36619v1.5972h0.36619q0.29607 0 0.42074-0.16362 0.12466-0.17141 0.12466-0.59214z"/>
<path d="m258.29-279.81v-3.0932l-0.62332 1.9556-0.63889-1.9556v3.0932h-0.66227v-5.2202h0.66227l0.63889 1.8466 0.62332-1.8466h0.65447v5.2202z"/>
<path d="m260.69-281.91v-0.67785h1.6284v0.67785z"/>
<path d="m265.91-281.33q0 0.46748-0.10908 0.82588-0.10908 0.35062-0.31165 0.52982-0.29608 0.25711-0.71681 0.25711-0.53761 0-0.8181-0.39736-0.28049-0.40515-0.28049-1.1609 0-1.1765 0.45969-2.1348 0.46749-0.96614 1.4102-1.7141l0.3662 0.56877q-0.44411 0.3584-0.74797 0.75577-0.29608 0.39736-0.49865 0.91159 0.30386-0.0935 0.54539 0.0156 0.24933 0.10129 0.40516 0.35061 0.13245 0.19479 0.21036 0.51424 0.0857 0.31944 0.0857 0.67785zm-0.67785-0.0935q0-0.80251-0.43632-0.80251-0.23374 0-0.34282 0.21816-0.10129 0.21036-0.10129 0.67785 0 0.28828 0.0312 0.48306 0.0312 0.187 0.11687 0.28828 0.0545 0.0623 0.13245 0.11687 0.0779 0.0467 0.16362 0.0467 0.20258 0 0.32724-0.20257 0.039-0.10129 0.0701-0.33503 0.039-0.24154 0.039-0.49086z"/>
<path d="m269.15-283.51q0 0.65447-0.33503 1.044-0.33503 0.38178-0.88821 0.38178h-0.3662v2.2751h-0.66227v-5.2202h1.0285q0.21815 0 0.40515 0.0545 0.19478 0.0545 0.32724 0.16361 0.21815 0.17921 0.35061 0.52982 0.14024 0.34282 0.14024 0.77135zm-0.67785 0q0-0.44411-0.14024-0.6389-0.13246-0.20257-0.40515-0.20257h-0.3662v1.5972h0.3662q0.29607 0 0.42073-0.16362 0.12466-0.17141 0.12466-0.59214z"/>
<path d="m271.79-279.81v-3.0932l-0.62331 1.9556-0.6389-1.9556v3.0932h-0.66226v-5.2202h0.66226l0.6389 1.8466 0.62331-1.8466h0.65448v5.2202z"/>
</g>
<g stroke-width=".013527" aria-label="WEEKDAYS">
<path d="m255.74-275.29h-0.31944l-0.24933-1.3635-0.24542 1.3635h-0.33114l-0.41294-2.6101h0.36619l0.22206 1.3908 0.25322-1.3908h0.29607l0.24543 1.3908 0.22984-1.3908h0.3662z"/>
<path d="m256.52-275.29v-2.6101h1.2271v0.36619h-0.85316v0.65838h0.54151v0.3584h-0.54151v0.86095h0.95445v0.36619z"/>
<path d="m258.29-275.29v-2.6101h1.2272v0.36619h-0.85316v0.65838h0.5415v0.3584h-0.5415v0.86095h0.95444v0.36619z"/>
<path d="m261.12-275.29-0.45969-1.2739-0.23764 0.44021v0.83368h-0.37398v-2.6101h0.37398v1.044l0.59604-1.044h0.43243l-0.5415 0.91549 0.60383 1.6946z"/>
<path d="m263.42-276.6q0 0.89601-0.37399 1.1882-0.0701 0.0662-0.16362 0.0935-0.0935 0.0273-0.20257 0.0273h-0.7246v-2.6101h0.66616q0.16752 0 0.26101 0.0234 0.0935 0.0234 0.16362 0.0779 0.11687 0.0818 0.19479 0.22984 0.0818 0.14804 0.11687 0.34672 0.0273 0.14414 0.0428 0.30776 0.0195 0.16362 0.0195 0.31555zm-0.3662 0.0195q0-0.22206-0.0195-0.41294-0.0195-0.19479-0.0545-0.2766-0.0896-0.26491-0.33893-0.26491h-0.31165v1.8777h0.31165q0.0818 0 0.14414-0.0312 0.0662-0.0312 0.11298-0.0818 0.0468-0.0506 0.074-0.11687 0.0312-0.0701 0.0468-0.14414 0.0117-0.12466 0.0234-0.26101 0.0117-0.14024 0.0117-0.28828z"/>
<path d="m265.02-275.29-0.18309-0.71291h-0.56098l-0.17141 0.71291h-0.37789l0.65058-2.6101h0.3662l0.65058 2.6101zm-0.46748-1.831-0.1831 0.75187h0.37399z"/>
<path d="m266.57-276.47v1.1804h-0.37398v-1.1804l-0.64279-1.4297h0.39346l0.44022 0.94276 0.43242-0.94276h0.40125z"/>
<path d="m268.91-276q0 0.15972-0.0584 0.29997-0.0545 0.13635-0.15582 0.23764-0.0974 0.10128-0.22985 0.16362-0.12856 0.0584-0.28049 0.0584-0.17141 0-0.30776-0.0662t-0.22984-0.1792q-0.0935-0.11297-0.14414-0.26101-0.0507-0.14804-0.0507-0.30776h0.3662q0 0.0818 0.0195 0.16362 0.0234 0.0779 0.0662 0.14414 0.0467 0.0623 0.11298 0.10129 0.0701 0.039 0.16751 0.039 0.074 0 0.14025-0.0312 0.0701-0.0312 0.11687-0.0857 0.0506-0.0545 0.0779-0.12467 0.0312-0.074 0.0312-0.15193 0-0.11297-0.0467-0.19868-0.0468-0.0896-0.16362-0.1792-0.0195-0.0195-0.0156-0.0195 4e-3 -4e-3 -0.0234-0.0234-0.0273-0.0195-0.11687-0.074-0.0857-0.0584-0.28438-0.19479-0.15973-0.10908-0.24154-0.25322-0.0779-0.14803-0.0779-0.32334 0-0.14024 0.0506-0.26101 0.0506-0.12466 0.14025-0.21816 0.0935-0.0935 0.21426-0.14414 0.12077-0.0545 0.26101-0.0545 0.14025 0 0.25712 0.0507 0.12076 0.0506 0.20647 0.14024 0.0896 0.0896 0.14024 0.21426 0.0545 0.12467 0.0584 0.2727h-0.3584q-8e-3 -0.13635-0.0935-0.21816-0.0857-0.0818-0.21037-0.0818-0.12856 0-0.21816 0.0857t-0.0896 0.21426q0 0.0974 0.0507 0.16362 0.0506 0.0662 0.19478 0.14804 0.37788 0.21816 0.54929 0.44411 0.17531 0.22595 0.17531 0.51033z"/>
</g>
<g transform="matrix(-.030828 0 0 .030828 268.6 -263.34)">
<path transform="matrix(-.88194 0 0 .88194 735.47 -1501.2)" d="m349.81 1390.8c-2.0184 1.2135-3.7084 2.9035-4.9219 4.9219l-3.2383-2.3887-137.65 94.666 137.65 94.666 3.2383-2.3887c1.2134 2.0184 2.9034 3.7084 4.9219 4.9219 7.9524 2e-4 14.4-6.446 14.4-14.398-0.78856-1.0376-1.7143-1.9634-2.752-2.752l2.0957-1.5449-13.289-42.504c148.2-0.065 307.85 0.058 451.5 0.047l-13.289 42.504 0.0215 0.016c-0.44064 1.3847-0.66913 2.8282-0.67773 4.2813-1.6e-4 7.9532 6.4472 14.4 14.4 14.4 2.901-0.02 5.7282-0.916 8.1113-2.5703l0.0469 0.035 137.66-94.666-137.66-94.664-0.0176 0.014c-2.3938-1.6523-5.2319-2.5409-8.1406-2.5488-7.9532-2e-4 -14.401 6.4471-14.4 14.4 9e-3 1.4531 0.23709 2.8966 0.67773 4.2813l-0.0215 0.016 13.289 42.502h-451.52l13.305-42.551-2.0957-1.5449c1.0376-0.7886 1.9634-1.7144 2.752-2.752-8.8e-4 -7.9524-6.448-14.399-14.4-14.398z" fill="#af1e2d"/>
</g>
</g>
</svg>
