<?xml version="1.0" encoding="UTF-8" standalone="no"?>
<!-- Created with Inkscape (http://www.inkscape.org/) -->

<svg
   xmlns:dc="http://purl.org/dc/elements/1.1/"
   xmlns:cc="http://creativecommons.org/ns#"
   xmlns:rdf="http://www.w3.org/1999/02/22-rdf-syntax-ns#"
   xmlns:svg="http://www.w3.org/2000/svg"
   xmlns="http://www.w3.org/2000/svg"
   xmlns:sodipodi="http://sodipodi.sourceforge.net/DTD/sodipodi-0.dtd"
   xmlns:inkscape="http://www.inkscape.org/namespaces/inkscape"
   width="36in"
   height="30in"
   viewBox="0 0 914.4 762.00002"
   version="1.1"
   id="svg4184"
   inkscape:version="0.92.2 5c3e80d, 2017-08-06"
   sodipodi:docname="Ohio_MUTCD_R3-H8bk.svg">
  <defs
     id="defs4178" />
  <sodipodi:namedview
     id="base"
     pagecolor="#ffffff"
     bordercolor="#666666"
     borderopacity="1.0"
     inkscape:pageopacity="0.0"
     inkscape:pageshadow="2"
     inkscape:zoom="0.12374369"
     inkscape:cx="36.335635"
     inkscape:cy="1573.0241"
     inkscape:document-units="in"
     inkscape:current-layer="layer3"
     showgrid="false"
     units="in"
     inkscape:window-width="1440"
     inkscape:window-height="855"
     inkscape:window-x="0"
     inkscape:window-y="1"
     inkscape:window-maximized="1"
     inkscape:snap-bbox="false"
     inkscape:object-paths="false"
     inkscape:snap-midpoints="true" />
  <metadata
     id="metadata4181">
    <rdf:RDF>
      <cc:Work
         rdf:about="">
        <dc:format>image/svg+xml</dc:format>
        <dc:type
           rdf:resource="http://purl.org/dc/dcmitype/StillImage" />
        <dc:title />
      </cc:Work>
    </rdf:RDF>
  </metadata>
  <g
     inkscape:label="Sign Back"
     inkscape:groupmode="layer"
     id="layer1"
     transform="translate(0,465.00002)"
     sodipodi:insensitive="true">
    <rect
       style="opacity:1;fill:#ffffff;fill-opacity:1;fill-rule:nonzero;stroke:#000000;stroke-width:1.8899951;stroke-linecap:round;stroke-linejoin:round;stroke-miterlimit:4;stroke-dasharray:none;stroke-opacity:1"
       id="rect2300"
       width="912.51001"
       height="760.11005"
       x="0.94500178"
       y="-464.05502"
       rx="47.625"
       ry="47.625351" />
    <rect
       style="opacity:1;fill:#ffffff;fill-opacity:1;fill-rule:nonzero;stroke:#000000;stroke-width:19.05000114;stroke-linecap:round;stroke-linejoin:round;stroke-miterlimit:4;stroke-dasharray:none;stroke-opacity:1"
       id="rect2300-9"
       width="869.95001"
       height="717.54999"
       x="22.225025"
       y="-442.77499"
       rx="25.4"
       ry="25.4" />
    <rect
       y="-84.000031"
       x="447.802"
       height="349.25"
       width="19.050001"
       id="rect4833"
       style="opacity:1;fill:#000000;fill-opacity:1;fill-rule:nonzero;stroke:none;stroke-width:17.28671455;stroke-linecap:round;stroke-linejoin:miter;stroke-miterlimit:4;stroke-dasharray:none;stroke-opacity:1" />
  </g>
  <g
     inkscape:groupmode="layer"
     id="layer3"
     inkscape:label="Legends">
    <g
       transform="translate(-733.55095,344.35003)"
       id="g5140">
      <path
         inkscape:connector-curvature="0"
         id="rect5070"
         transform="matrix(0.26458333,0,0,0.26458333,0,-1227)"
         d="M 4800,4013.5684 V 5760 h 240 v -264 a 1272,1272 0 0 1 557.7207,-1051.0312 l -0.6777,-0.9961 122.1484,-75.0879 -134.9004,-198.5 -122.1601,75.0703 A 1512,1512 0 0 0 5040,4678.9902 v -665.4218 z"
         style="opacity:1;fill:#000000;fill-opacity:1;fill-rule:nonzero;stroke:none;stroke-width:135.87355042;stroke-linecap:round;stroke-linejoin:miter;stroke-miterlimit:4;stroke-dasharray:none;stroke-opacity:1" />
      <path
         inkscape:connector-curvature="0"
         id="path5072"
         transform="matrix(0.26458333,0,0,0.26458333,0,-1227)"
         d="m 4920,3563.5195 -315.5508,458.8496 v 0.01 a 48,48 0 0 0 -8.4531,27.1934 48,48 0 0 0 48,48 48,48 0 0 0 14.291,-2.2325 l 0.033,0.045 261.6758,-81.8125 261.6758,81.8125 v -0.01 a 48,48 0 0 0 14.3203,2.1934 48,48 0 0 0 48,-48 48,48 0 0 0 -8.4824,-27.1543 l 0.033,-0.045 z"
         style="opacity:1;fill:#000000;fill-opacity:1;fill-rule:nonzero;stroke:none;stroke-width:17.94890404;stroke-linecap:round;stroke-linejoin:round;stroke-miterlimit:4;stroke-dasharray:none;stroke-opacity:1" />
      <g
         id="g5078-9"
         transform="rotate(-34.2,1114.7315,-1864.0743)">
        <path
           inkscape:connector-curvature="0"
           id="circle4946-6"
           transform="matrix(0.21883174,0.14871789,-0.14871789,0.21883174,-165.33014,-1963.7346)"
           d="m 5466.9805,4013.5957 a 48,48 0 0 0 -27.1289,8.3008 48,48 0 0 0 -12.7207,66.6797 48,48 0 0 0 9.8789,10.5664 l -0.018,0.051 214.75,170.4414 79.418,262.414 h 0.01 a 48,48 0 0 0 6.2363,13.0742 48,48 0 0 0 66.6797,12.7208 48,48 0 0 0 17.6914,-22.2793 h 0.055 l 202.1387,-518.8965 -556.8711,-3.0742 v 0.01 a 48,48 0 0 0 -0.1133,-0.01 z"
           style="opacity:1;fill:#000000;fill-opacity:1;fill-rule:nonzero;stroke:none;stroke-width:17.94890404;stroke-linecap:round;stroke-linejoin:round;stroke-miterlimit:4;stroke-dasharray:none;stroke-opacity:1" />
      </g>
    </g>
    <g
       aria-label="ONLY"
       style="font-style:normal;font-variant:normal;font-weight:normal;font-stretch:normal;font-size:171.95358276px;line-height:125%;font-family:'Roadgeek 2014 Series D';-inkscape-font-specification:'Roadgeek 2014 Series D';text-align:center;letter-spacing:0px;word-spacing:0px;text-anchor:middle;fill:#000000;fill-opacity:1;stroke:none;stroke-width:2.68677473px;stroke-linecap:butt;stroke-linejoin:miter;stroke-opacity:1"
       id="text13155">
      <path
         d="m 143.30037,635.1965 q 0,11.98762 -2.84952,22.69787 -2.75126,10.71026 -7.76247,16.99884 -8.05726,10.90677 -23.87699,10.90677 -10.218953,0 -17.097096,-4.22514 -6.878143,-4.22515 -11.201548,-13.26499 -6.878143,-13.46151 -6.878143,-33.11335 0,-24.76131 10.710252,-39.89323 8.548549,-11.10329 25.056095,-11.10329 18.17795,0 27.31605,17.5884 6.58337,13.55976 6.58337,33.40812 z m -15.52495,0 q 0,-17.68665 -5.89555,-27.61083 -4.02863,-7.07466 -12.7737,-7.56596 -10.906769,-0.4913 -15.819729,12.08588 -3.733849,9.23637 -3.733849,23.09091 0,17.98143 5.797292,27.2178 4.421664,7.56595 13.461506,7.56595 10.21896,0 15.13192,-12.47891 3.83211,-9.82592 3.83211,-22.30484 z"
         style="text-align:center;text-anchor:middle;stroke-width:2.68677473px"
         id="path17231" />
      <path
         d="m 231.75129,684.12958 h -13.85454 l -37.53501,-66.52147 v 66.52147 h -15.42669 v -98.25919 h 15.42669 l 35.8646,62.78762 v -62.78762 h 15.52495 z"
         style="text-align:center;text-anchor:middle;stroke-width:2.68677473px"
         id="path17233" />
      <path
         d="m 316.19855,684.12958 h -60.92069 v -98.25919 h 15.42669 v 83.81509 h 45.494 z"
         style="text-align:center;text-anchor:middle;stroke-width:2.68677473px"
         id="path17235" />
      <path
         d="m 405.9134,585.87039 -33.99768,55.51644 v 42.74275 h -15.62321 v -42.74275 l -34.29246,-55.51644 h 18.47273 l 23.5822,38.0263 23.68047,-38.0263 z"
         style="text-align:center;text-anchor:middle;stroke-width:2.68677473px"
         id="path17237" />
    </g>
    <g
       transform="translate(-219.075,113.62123)"
       id="g4974">
      <rect
         style="opacity:1;fill:#000000;fill-opacity:1;fill-rule:nonzero;stroke:none;stroke-width:32.01993561;stroke-linecap:round;stroke-linejoin:miter;stroke-miterlimit:4;stroke-dasharray:none;stroke-opacity:1"
         id="rect4970"
         width="63.5"
         height="366.57281"
         x="428.625"
         y="65.90596" />
      <path
         style="opacity:1;fill:#000000;fill-opacity:1;fill-rule:nonzero;stroke:none;stroke-width:17.94890404;stroke-linecap:round;stroke-linejoin:round;stroke-miterlimit:4;stroke-dasharray:none;stroke-opacity:1"
         d="M 912 228.48047 L 596.44922 687.33008 L 596.45312 687.33594 A 47.999999 47.999999 0 0 0 588 714.52734 A 47.999999 47.999999 0 0 0 636 762.52734 A 47.999999 47.999999 0 0 0 650.29102 760.29688 L 650.32422 760.3418 L 912 678.52734 L 1173.6758 760.3418 L 1173.6797 760.33594 A 47.999999 47.999999 0 0 0 1188 762.52734 A 47.999999 47.999999 0 0 0 1236 714.52734 A 47.999999 47.999999 0 0 0 1227.5176 687.375 L 1227.5508 687.33008 L 912 228.48047 z "
         transform="matrix(0.26458334,0,0,0.26458334,219.075,-113.62123)"
         id="path4972" />
    </g>
  </g>
</svg>
