<?xml version="1.0" encoding="UTF-8" standalone="no"?>
<!-- Created with Inkscape (http://www.inkscape.org/) -->

<svg
   width="61.135998mm"
   height="38.275997mm"
   viewBox="0 0 61.135998 38.275997"
   version="1.1"
   id="svg1"
   inkscape:version="1.3.2 (091e20e, 2023-11-25)"
   sodipodi:docname="MUTCD-OH_I-20-H6a.svg"
   xmlns:inkscape="http://www.inkscape.org/namespaces/inkscape"
   xmlns:sodipodi="http://sodipodi.sourceforge.net/DTD/sodipodi-0.dtd"
   xmlns="http://www.w3.org/2000/svg"
   xmlns:svg="http://www.w3.org/2000/svg">
  <sodipodi:namedview
     id="namedview1"
     pagecolor="#ffffff"
     bordercolor="#666666"
     borderopacity="1.0"
     inkscape:showpageshadow="2"
     inkscape:pageopacity="0.0"
     inkscape:pagecheckerboard="0"
     inkscape:deskcolor="#d1d1d1"
     inkscape:document-units="mm"
     inkscape:zoom="3.3638608"
     inkscape:cx="109.39811"
     inkscape:cy="40.727012"
     inkscape:window-width="1728"
     inkscape:window-height="1051"
     inkscape:window-x="0"
     inkscape:window-y="38"
     inkscape:window-maximized="1"
     inkscape:current-layer="layer1" />
  <defs
     id="defs1">
    <clipPath
       clipPathUnits="userSpaceOnUse"
       id="clipPath10">
      <path
         d="M 0,0 H 612.12 V 792.12 H 0 V 0"
         transform="translate(-579.10001,-478.10001)"
         clip-rule="evenodd"
         id="path10" />
    </clipPath>
    <clipPath
       clipPathUnits="userSpaceOnUse"
       id="clipPath12">
      <path
         d="M 0,0 H 612.12 V 792.12 H 0 V 0"
         transform="translate(-571.00001,-486.20001)"
         clip-rule="evenodd"
         id="path12" />
    </clipPath>
    <clipPath
       clipPathUnits="userSpaceOnUse"
       id="clipPath14">
      <path
         d="M 0,0 H 612.12 V 792.12 H 0 V 0"
         transform="translate(-568.30001,-410.60001)"
         clip-rule="evenodd"
         id="path14" />
    </clipPath>
    <clipPath
       clipPathUnits="userSpaceOnUse"
       id="clipPath16">
      <path
         d="M 0,0 H 612.12 V 792.12 H 0 V 0"
         transform="translate(-423.50001,-461.00001)"
         clip-rule="evenodd"
         id="path16" />
    </clipPath>
    <clipPath
       clipPathUnits="userSpaceOnUse"
       id="clipPath18">
      <path
         d="M 0,0 H 612.12 V 792.12 H 0 V 0"
         transform="translate(-436.20001,-468.90001)"
         clip-rule="evenodd"
         id="path18" />
    </clipPath>
    <clipPath
       clipPathUnits="userSpaceOnUse"
       id="clipPath20">
      <path
         d="M 0,0 H 612.12 V 792.12 H 0 V 0"
         transform="translate(-444.40001,-461.00001)"
         clip-rule="evenodd"
         id="path20" />
    </clipPath>
    <clipPath
       clipPathUnits="userSpaceOnUse"
       id="clipPath22">
      <path
         d="M 0,0 H 612.12 V 792.12 H 0 V 0"
         transform="translate(-451.90001,-461.00001)"
         clip-rule="evenodd"
         id="path22" />
    </clipPath>
    <clipPath
       clipPathUnits="userSpaceOnUse"
       id="clipPath24">
      <path
         d="M 0,0 H 612.12 V 792.12 H 0 V 0"
         transform="translate(-455.70001,-461.00001)"
         clip-rule="evenodd"
         id="path24" />
    </clipPath>
    <clipPath
       clipPathUnits="userSpaceOnUse"
       id="clipPath26">
      <path
         d="M 0,0 H 612.12 V 792.12 H 0 V 0"
         transform="translate(-460.70001,-461.00001)"
         clip-rule="evenodd"
         id="path26" />
    </clipPath>
    <clipPath
       clipPathUnits="userSpaceOnUse"
       id="clipPath28">
      <path
         d="M 0,0 H 612.12 V 792.12 H 0 V 0"
         transform="translate(-469.00001,-461.00001)"
         clip-rule="evenodd"
         id="path28" />
    </clipPath>
    <clipPath
       clipPathUnits="userSpaceOnUse"
       id="clipPath30">
      <path
         d="M 0,0 H 612.12 V 792.12 H 0 V 0"
         transform="translate(-475.80001,-473.50001)"
         clip-rule="evenodd"
         id="path30" />
    </clipPath>
    <clipPath
       clipPathUnits="userSpaceOnUse"
       id="clipPath32">
      <path
         d="M 0,0 H 612.12 V 792.12 H 0 V 0"
         transform="translate(-489.40001,-468.90001)"
         clip-rule="evenodd"
         id="path32" />
    </clipPath>
    <clipPath
       clipPathUnits="userSpaceOnUse"
       id="clipPath34">
      <path
         d="M 0,0 H 612.12 V 792.12 H 0 V 0"
         transform="translate(-498.40001,-471.30001)"
         clip-rule="evenodd"
         id="path34" />
    </clipPath>
    <clipPath
       clipPathUnits="userSpaceOnUse"
       id="clipPath36">
      <path
         d="M 0,0 H 612.12 V 792.12 H 0 V 0"
         transform="translate(-514.50001,-461.00001)"
         clip-rule="evenodd"
         id="path36" />
    </clipPath>
    <clipPath
       clipPathUnits="userSpaceOnUse"
       id="clipPath38">
      <path
         d="M 0,0 H 612.12 V 792.12 H 0 V 0"
         transform="translate(-522.80002,-461.00001)"
         clip-rule="evenodd"
         id="path38" />
    </clipPath>
    <clipPath
       clipPathUnits="userSpaceOnUse"
       id="clipPath40">
      <path
         d="M 0,0 H 612.12 V 792.12 H 0 V 0"
         transform="translate(-534.40001,-461.00001)"
         clip-rule="evenodd"
         id="path40" />
    </clipPath>
    <clipPath
       clipPathUnits="userSpaceOnUse"
       id="clipPath42">
      <path
         d="M 0,0 H 612.12 V 792.12 H 0 V 0"
         transform="translate(-541.10002,-461.00001)"
         clip-rule="evenodd"
         id="path42" />
    </clipPath>
    <clipPath
       clipPathUnits="userSpaceOnUse"
       id="clipPath44">
      <path
         d="M 0,0 H 612.12 V 792.12 H 0 V 0"
         transform="translate(-543.10001,-473.50001)"
         clip-rule="evenodd"
         id="path44" />
    </clipPath>
    <clipPath
       clipPathUnits="userSpaceOnUse"
       id="clipPath46">
      <path
         d="M 0,0 H 612.12 V 792.12 H 0 V 0"
         transform="translate(-551.40001,-461.00001)"
         clip-rule="evenodd"
         id="path46" />
    </clipPath>
    <clipPath
       clipPathUnits="userSpaceOnUse"
       id="clipPath48">
      <path
         d="M 0,0 H 612.12 V 792.12 H 0 V 0"
         transform="translate(-558.10001,-473.50001)"
         clip-rule="evenodd"
         id="path48" />
    </clipPath>
    <clipPath
       clipPathUnits="userSpaceOnUse"
       id="clipPath50">
      <path
         d="M 0,0 H 612.12 V 792.12 H 0 V 0"
         transform="translate(-426.50001,-439.00001)"
         clip-rule="evenodd"
         id="path50" />
    </clipPath>
    <clipPath
       clipPathUnits="userSpaceOnUse"
       id="clipPath52">
      <path
         d="M 0,0 H 612.12 V 792.12 H 0 V 0"
         transform="translate(-437.30001,-443.70001)"
         clip-rule="evenodd"
         id="path52" />
    </clipPath>
    <clipPath
       clipPathUnits="userSpaceOnUse"
       id="clipPath54">
      <path
         d="M 0,0 H 612.12 V 792.12 H 0 V 0"
         transform="translate(-441.80001,-435.80001)"
         clip-rule="evenodd"
         id="path54" />
    </clipPath>
    <clipPath
       clipPathUnits="userSpaceOnUse"
       id="clipPath56">
      <path
         d="M 0,0 H 612.12 V 792.12 H 0 V 0"
         transform="translate(-448.50001,-439.20001)"
         clip-rule="evenodd"
         id="path56" />
    </clipPath>
    <clipPath
       clipPathUnits="userSpaceOnUse"
       id="clipPath58">
      <path
         d="M 0,0 H 612.12 V 792.12 H 0 V 0"
         transform="translate(-462.50001,-435.80001)"
         clip-rule="evenodd"
         id="path58" />
    </clipPath>
    <clipPath
       clipPathUnits="userSpaceOnUse"
       id="clipPath60">
      <path
         d="M 0,0 H 612.12 V 792.12 H 0 V 0"
         transform="translate(-471.00001,-446.10001)"
         clip-rule="evenodd"
         id="path60" />
    </clipPath>
    <clipPath
       clipPathUnits="userSpaceOnUse"
       id="clipPath62">
      <path
         d="M 0,0 H 612.12 V 792.12 H 0 V 0"
         transform="translate(-474.80001,-435.80001)"
         clip-rule="evenodd"
         id="path62" />
    </clipPath>
    <clipPath
       clipPathUnits="userSpaceOnUse"
       id="clipPath64">
      <path
         d="M 0,0 H 612.12 V 792.12 H 0 V 0"
         transform="translate(-481.70001,-435.80001)"
         clip-rule="evenodd"
         id="path64" />
    </clipPath>
    <clipPath
       clipPathUnits="userSpaceOnUse"
       id="clipPath66">
      <path
         d="M 0,0 H 612.12 V 792.12 H 0 V 0"
         transform="translate(-488.40001,-448.30001)"
         clip-rule="evenodd"
         id="path66" />
    </clipPath>
    <clipPath
       clipPathUnits="userSpaceOnUse"
       id="clipPath68">
      <path
         d="M 0,0 H 612.12 V 792.12 H 0 V 0"
         transform="translate(-497.80001,-435.80001)"
         clip-rule="evenodd"
         id="path68" />
    </clipPath>
    <clipPath
       clipPathUnits="userSpaceOnUse"
       id="clipPath70">
      <path
         d="M 0,0 H 612.12 V 792.12 H 0 V 0"
         transform="translate(-507.10001,-443.70001)"
         clip-rule="evenodd"
         id="path70" />
    </clipPath>
    <clipPath
       clipPathUnits="userSpaceOnUse"
       id="clipPath72">
      <path
         d="M 0,0 H 612.12 V 792.12 H 0 V 0"
         transform="translate(-511.60001,-435.80001)"
         clip-rule="evenodd"
         id="path72" />
    </clipPath>
    <clipPath
       clipPathUnits="userSpaceOnUse"
       id="clipPath74">
      <path
         d="M 0,0 H 612.12 V 792.12 H 0 V 0"
         transform="translate(-532.40002,-435.80001)"
         clip-rule="evenodd"
         id="path74" />
    </clipPath>
    <clipPath
       clipPathUnits="userSpaceOnUse"
       id="clipPath76">
      <path
         d="M 0,0 H 612.12 V 792.12 H 0 V 0"
         transform="translate(-546.50002,-446.10001)"
         clip-rule="evenodd"
         id="path76" />
    </clipPath>
    <clipPath
       clipPathUnits="userSpaceOnUse"
       id="clipPath78">
      <path
         d="M 0,0 H 612.12 V 792.12 H 0 V 0"
         transform="translate(-554.20001,-435.80001)"
         clip-rule="evenodd"
         id="path78" />
    </clipPath>
    <clipPath
       clipPathUnits="userSpaceOnUse"
       id="clipPath80">
      <path
         d="M 0,0 H 612.12 V 792.12 H 0 V 0"
         transform="translate(-557.30002,-435.80001)"
         clip-rule="evenodd"
         id="path80" />
    </clipPath>
    <clipPath
       clipPathUnits="userSpaceOnUse"
       id="clipPath82">
      <path
         d="M 0,0 H 612.12 V 792.12 H 0 V 0"
         transform="translate(-422.30001,-415.20001)"
         clip-rule="evenodd"
         id="path82" />
    </clipPath>
    <clipPath
       clipPathUnits="userSpaceOnUse"
       id="clipPath84">
      <path
         d="M 0,0 H 612.12 V 792.12 H 0 V 0"
         transform="translate(-425.80001,-416.30001)"
         clip-rule="evenodd"
         id="path84" />
    </clipPath>
    <clipPath
       clipPathUnits="userSpaceOnUse"
       id="clipPath86">
      <path
         d="M 0,0 H 612.12 V 792.12 H 0 V 0"
         transform="translate(-432.80001,-414.20001)"
         clip-rule="evenodd"
         id="path86" />
    </clipPath>
    <clipPath
       clipPathUnits="userSpaceOnUse"
       id="clipPath88">
      <path
         d="M 0,0 H 612.12 V 792.12 H 0 V 0"
         transform="translate(-435.60001,-414.20001)"
         clip-rule="evenodd"
         id="path88" />
    </clipPath>
    <clipPath
       clipPathUnits="userSpaceOnUse"
       id="clipPath90">
      <path
         d="M 0,0 H 612.12 V 792.12 H 0 V 0"
         transform="translate(-442.30001,-414.20001)"
         clip-rule="evenodd"
         id="path90" />
    </clipPath>
    <clipPath
       clipPathUnits="userSpaceOnUse"
       id="clipPath92">
      <path
         d="M 0,0 H 612.12 V 792.12 H 0 V 0"
         transform="translate(-449.10001,-414.20001)"
         clip-rule="evenodd"
         id="path92" />
    </clipPath>
    <clipPath
       clipPathUnits="userSpaceOnUse"
       id="clipPath94">
      <path
         d="M 0,0 H 612.12 V 792.12 H 0 V 0"
         transform="translate(-451.10001,-414.20001)"
         clip-rule="evenodd"
         id="path94" />
    </clipPath>
    <clipPath
       clipPathUnits="userSpaceOnUse"
       id="clipPath96">
      <path
         d="M 0,0 H 612.12 V 792.12 H 0 V 0"
         transform="translate(-452.30001,-416.30001)"
         clip-rule="evenodd"
         id="path96" />
    </clipPath>
    <clipPath
       clipPathUnits="userSpaceOnUse"
       id="clipPath98">
      <path
         d="M 0,0 H 612.12 V 792.12 H 0 V 0"
         transform="translate(-458.60001,-414.20001)"
         clip-rule="evenodd"
         id="path98" />
    </clipPath>
    <clipPath
       clipPathUnits="userSpaceOnUse"
       id="clipPath100">
      <path
         d="M 0,0 H 612.12 V 792.12 H 0 V 0"
         transform="translate(-464.20001,-415.20001)"
         clip-rule="evenodd"
         id="path100" />
    </clipPath>
    <clipPath
       clipPathUnits="userSpaceOnUse"
       id="clipPath102">
      <path
         d="M 0,0 H 612.12 V 792.12 H 0 V 0"
         transform="translate(-470.20001,-414.20001)"
         clip-rule="evenodd"
         id="path102" />
    </clipPath>
    <clipPath
       clipPathUnits="userSpaceOnUse"
       id="clipPath104">
      <path
         d="M 0,0 H 612.12 V 792.12 H 0 V 0"
         transform="translate(-480.40001,-414.20001)"
         clip-rule="evenodd"
         id="path104" />
    </clipPath>
    <clipPath
       clipPathUnits="userSpaceOnUse"
       id="clipPath106">
      <path
         d="M 0,0 H 612.12 V 792.12 H 0 V 0"
         transform="translate(-486.00001,-414.20001)"
         clip-rule="evenodd"
         id="path106" />
    </clipPath>
    <clipPath
       clipPathUnits="userSpaceOnUse"
       id="clipPath108">
      <path
         d="M 0,0 H 612.12 V 792.12 H 0 V 0"
         transform="translate(-492.60001,-414.20001)"
         clip-rule="evenodd"
         id="path108" />
    </clipPath>
    <clipPath
       clipPathUnits="userSpaceOnUse"
       id="clipPath110">
      <path
         d="M 0,0 H 612.12 V 792.12 H 0 V 0"
         transform="translate(-502.80001,-414.20001)"
         clip-rule="evenodd"
         id="path110" />
    </clipPath>
    <clipPath
       clipPathUnits="userSpaceOnUse"
       id="clipPath112">
      <path
         d="M 0,0 H 612.12 V 792.12 H 0 V 0"
         transform="translate(-508.60001,-414.20001)"
         clip-rule="evenodd"
         id="path112" />
    </clipPath>
    <clipPath
       clipPathUnits="userSpaceOnUse"
       id="clipPath114">
      <path
         d="M 0,0 H 612.12 V 792.12 H 0 V 0"
         transform="translate(-514.20001,-414.20001)"
         clip-rule="evenodd"
         id="path114" />
    </clipPath>
    <clipPath
       clipPathUnits="userSpaceOnUse"
       id="clipPath116">
      <path
         d="M 0,0 H 612.12 V 792.12 H 0 V 0"
         transform="translate(-516.80002,-414.20001)"
         clip-rule="evenodd"
         id="path116" />
    </clipPath>
    <clipPath
       clipPathUnits="userSpaceOnUse"
       id="clipPath118">
      <path
         d="M 0,0 H 612.12 V 792.12 H 0 V 0"
         transform="translate(-523.10002,-414.20001)"
         clip-rule="evenodd"
         id="path118" />
    </clipPath>
    <clipPath
       clipPathUnits="userSpaceOnUse"
       id="clipPath120">
      <path
         d="M 0,0 H 612.12 V 792.12 H 0 V 0"
         transform="translate(-525.90001,-414.20001)"
         clip-rule="evenodd"
         id="path120" />
    </clipPath>
    <clipPath
       clipPathUnits="userSpaceOnUse"
       id="clipPath122">
      <path
         d="M 0,0 H 612.12 V 792.12 H 0 V 0"
         transform="translate(-531.50002,-414.20001)"
         clip-rule="evenodd"
         id="path122" />
    </clipPath>
    <clipPath
       clipPathUnits="userSpaceOnUse"
       id="clipPath124">
      <path
         d="M 0,0 H 612.12 V 792.12 H 0 V 0"
         transform="translate(-534.10001,-414.20001)"
         clip-rule="evenodd"
         id="path124" />
    </clipPath>
    <clipPath
       clipPathUnits="userSpaceOnUse"
       id="clipPath126">
      <path
         d="M 0,0 H 612.12 V 792.12 H 0 V 0"
         transform="translate(-539.80001,-415.20001)"
         clip-rule="evenodd"
         id="path126" />
    </clipPath>
    <clipPath
       clipPathUnits="userSpaceOnUse"
       id="clipPath128">
      <path
         d="M 0,0 H 612.12 V 792.12 H 0 V 0"
         transform="translate(-545.70001,-414.20001)"
         clip-rule="evenodd"
         id="path128" />
    </clipPath>
    <clipPath
       clipPathUnits="userSpaceOnUse"
       id="clipPath130">
      <path
         d="M 0,0 H 612.12 V 792.12 H 0 V 0"
         transform="translate(-557.00002,-414.20001)"
         clip-rule="evenodd"
         id="path130" />
    </clipPath>
    <clipPath
       clipPathUnits="userSpaceOnUse"
       id="clipPath132">
      <path
         d="M 0,0 H 612.12 V 792.12 H 0 V 0"
         transform="translate(-561.80002,-418.80001)"
         clip-rule="evenodd"
         id="path132" />
    </clipPath>
  </defs>
  <g
     inkscape:label="Tầng Lớp 1"
     inkscape:groupmode="layer"
     id="layer1"
     transform="translate(-65.793253,-108.39117)">
    <path
       id="path9"
       d="m 0,0 c 0,0.9 -0.2,1.9 -0.6,3 -0.4,1 -1,1.9 -1.8,2.7 -0.8,0.8 -1.7,1.4 -2.7,1.8 -1,0.4 -2.1,0.6 -3,0.6 h -156.6 c -1,0 -2,-0.2 -3,-0.6 -1,-0.4 -1.9,-1 -2.7,-1.8 -0.8,-0.8 -1.5,-1.7 -1.9,-2.7 -0.4,-1.1 -0.5,-2.1 -0.5,-3 v -91.8 c 0,-1 0.1,-2 0.5,-3 0.4,-1 1.1,-2 1.9,-2.8 0.8,-0.8 1.7,-1.4 2.7,-1.8 1,-0.4 2,-0.5 3,-0.5 H -8.1 c 0.9,0 2,0.1 3,0.5 1,0.4 1.9,1 2.7,1.8 0.8,0.8 1.4,1.8 1.8,2.8 0.4,1 0.6,2 0.6,3 L 0,0"
       style="fill:#003f87;fill-opacity:1;fill-rule:evenodd;stroke:#000000;stroke-width:0.498898;stroke-dasharray:none;stroke-opacity:1"
       transform="matrix(0.35277776,0,0,-0.35277776,126.84125,111.33667)"
       clip-path="url(#clipPath10)" />
    <path
       id="path11"
       d="m 0,0 h -156.6 c -1,0 -2,-0.2 -3,-0.6 -1,-0.4 -1.9,-1 -2.7,-1.8 -0.8,-0.8 -1.5,-1.7 -1.9,-2.7 -0.4,-1.1 -0.5,-2.1 -0.5,-3 v -91.8 c 0,-1 0.1,-2 0.5,-3 0.4,-1 1.1,-2 1.9,-2.8 0.8,-0.8 1.7,-1.4 2.7,-1.8 1,-0.4 2,-0.5 3,-0.5 L 0,-108 c 0.9,0 2,0.1 3,0.5 1,0.4 1.9,1 2.7,1.8 0.8,0.8 1.4,1.8 1.8,2.8 0.4,1 0.6,2 0.6,3 v 91.8 c 0,0.9 -0.2,1.9 -0.6,3 -0.4,1 -1,1.9 -1.8,2.7 C 4.9,-1.6 4,-1 3,-0.6 2,-0.2 0.9,0 0,0 M -156.6,-2.7 H 0 c 1.3,0 2.7,-0.5 3.8,-1.6 1.1,-1.1 1.6,-2.5 1.6,-3.8 v -91.8 c 0,-1.3 -0.5,-2.8 -1.6,-3.8 -1.1,-1.1 -2.5,-1.6 -3.8,-1.6 h -156.6 c -1.3,0 -2.7,0.5 -3.8,1.6 -1.1,1.1 -1.6,2.5 -1.6,3.8 v 91.8 c 0,1.3 0.5,2.7 1.6,3.8 1.1,1.1 2.5,1.6 3.8,1.6"
       style="fill:#ffffff;fill-opacity:1;fill-rule:evenodd;stroke:none"
       transform="matrix(0.35277776,0,0,-0.35277776,123.98375,108.47917)"
       clip-path="url(#clipPath12)"
       sodipodi:insensitive="true" />
    <path
       id="path13"
       d="M 0,0 H -151.2 V -21.6 H 0 V 0"
       style="fill:#ffffff;fill-opacity:1;fill-rule:evenodd;stroke:none"
       transform="matrix(0.35277776,0,0,-0.35277776,123.03125,135.14917)"
       clip-path="url(#clipPath14)" />
    <g
       id="g4">
      <g
         id="g1">
        <path
           id="path15"
           d="m 0,0 v 6.2 h 0.4 c 0.2,0 0.4,0 0.6,0 1.1,0 1.9,0.4 2.6,1.2 0.5,0.7 0.8,1.6 0.8,2.8 0,1.1 -0.2,2 -0.7,2.8 -0.5,0.9 -1.3,1.4 -2.4,1.4 h -3 L -1.7,0 H 0 m 0,12.5 h 1.2 c 0.9,0 1.4,-0.8 1.4,-2.3 C 2.6,9.5 2.5,8.9 2.3,8.6 2,8.3 1.7,8.1 1.3,8.1 H 0 v 4.4"
           style="fill:#ffffff;fill-opacity:1;fill-rule:evenodd;stroke:none"
           transform="matrix(0.35277776,0,0,-0.35277776,71.949028,117.36917)"
           clip-path="url(#clipPath16)" />
        <path
           id="path17"
           d="M 0,0 C 0,1.9 -0.2,3.3 -0.5,4.2 -1,5.9 -1.9,6.7 -3.4,6.7 -5.6,6.7 -6.7,4.9 -6.7,1.1 V 0.3 -1.5 c 0,-1.9 0.2,-3.3 0.4,-4.2 0.5,-1.6 1.5,-2.4 2.9,-2.4 1.4,0 2.4,0.8 2.9,2.4 0.3,0.9 0.5,2.4 0.5,4.3 V 0 m -2,0.3 c 0,-0.2 0,-0.4 0,-0.7 v -1.2 c 0,-3.2 -0.4,-4.7 -1.4,-4.7 -0.9,0 -1.4,1.5 -1.4,4.5 v 2.3 c 0,1.4 0.1,2.5 0.3,3.3 0.3,0.7 0.6,1.1 1.1,1.1 0.6,0 1,-0.6 1.2,-1.6 C -2.2,3 -2.1,2.6 -2.1,2.1 -2,1.6 -2,1 -2,0.3"
           style="fill:#ffffff;fill-opacity:1;fill-rule:evenodd;stroke:none"
           transform="matrix(0.35277776,0,0,-0.35277776,76.429305,114.58223)"
           clip-path="url(#clipPath18)" />
        <path
           id="path19"
           d="M 0,0 V 1.6 H -3.7 V 14.4 H -5.5 V 0 H 0"
           style="fill:#ffffff;fill-opacity:1;fill-rule:evenodd;stroke:none"
           transform="matrix(0.35277776,0,0,-0.35277776,79.322082,117.36917)"
           clip-path="url(#clipPath20)" />
        <path
           id="path21"
           d="M 0,0 V 1.6 H -3.8 V 14.4 H -5.5 V 0 H 0"
           style="fill:#ffffff;fill-opacity:1;fill-rule:evenodd;stroke:none"
           transform="matrix(0.35277776,0,0,-0.35277776,81.967915,117.36917)"
           clip-path="url(#clipPath22)" />
        <path
           id="path23"
           d="M 0,0 V 14.4 H -1.8 V 0 H 0"
           style="fill:#ffffff;fill-opacity:1;fill-rule:evenodd;stroke:none"
           transform="matrix(0.35277776,0,0,-0.35277776,83.308471,117.36917)"
           clip-path="url(#clipPath24)" />
        <path
           id="path25"
           d="M 0,0 V 8.6 L 2.8,0 H 4.4 V 14.4 H 2.6 V 7.2 L 0,14.4 H -1.8 V 0 H 0"
           style="fill:#ffffff;fill-opacity:1;fill-rule:evenodd;stroke:none"
           transform="matrix(0.35277776,0,0,-0.35277776,85.072361,117.36917)"
           clip-path="url(#clipPath26)" />
        <path
           id="path27"
           d="M 0,0 0.8,3.8 H 3.2 L 4,0 h 1.9 l -3,14.4 H 1 L -1.9,0 H 0 M 2,9.5 2.8,5.7 H 1.2 L 2,9.5"
           style="fill:#ffffff;fill-opacity:1;fill-rule:evenodd;stroke:none"
           transform="matrix(0.35277776,0,0,-0.35277776,88.000415,117.36917)"
           clip-path="url(#clipPath28)" />
        <path
           id="path29"
           d="M 0,0 H 1.7 V -12.5 H 3.6 V 0 H 5.4 V 1.9 H 0 V 0"
           style="fill:#ffffff;fill-opacity:1;fill-rule:evenodd;stroke:none"
           transform="matrix(0.35277776,0,0,-0.35277776,90.399305,112.95945)"
           clip-path="url(#clipPath30)" />
        <path
           id="path31"
           d="M 0,0 C 0,1.9 -0.1,3.3 -0.4,4.2 -0.9,5.9 -1.9,6.7 -3.3,6.7 -5.5,6.7 -6.6,4.9 -6.6,1.1 V 0.3 -1.5 c 0,-1.9 0.1,-3.3 0.4,-4.2 0.5,-1.6 1.5,-2.4 2.9,-2.4 1.4,0 2.4,0.8 2.9,2.4 0.3,0.9 0.4,2.4 0.4,4.3 L 0,0 m -1.9,0.3 c 0,-0.2 0,-0.4 0,-0.7 v -1.2 c 0,-3.2 -0.5,-4.7 -1.4,-4.7 -1,0 -1.4,1.5 -1.4,4.5 v 2.3 c 0,1.4 0.1,2.5 0.3,3.3 0.2,0.7 0.6,1.1 1.1,1.1 0.6,0 1,-0.6 1.2,-1.6 C -2.1,3 -2,2.6 -2,2.1 -1.9,1.6 -1.9,1 -1.9,0.3"
           style="fill:#ffffff;fill-opacity:1;fill-rule:evenodd;stroke:none"
           transform="matrix(0.35277776,0,0,-0.35277776,95.197081,114.58223)"
           clip-path="url(#clipPath32)" />
        <path
           id="path33"
           d="m 0,0 c 0,1.4 -0.3,2.4 -0.9,3.1 -0.5,0.6 -1.4,1 -2.5,1 h -2.8 v -14.4 h 1.7 v 6.7 h 0.9 l 1.7,-6.7 H 0 l -1.6,7.1 C -0.5,-2.6 0,-1.5 0,0 m -1.9,0.1 c 0,-0.6 -0.1,-1 -0.2,-1.3 -0.2,-0.3 -0.5,-0.5 -1,-0.5 h -1.4 v 3.9 h 1.2 c 0.6,0 1,-0.2 1.2,-0.7 0.1,-0.3 0.2,-0.8 0.2,-1.4"
           style="fill:#ffffff;fill-opacity:1;fill-rule:evenodd;stroke:none"
           transform="matrix(0.35277776,0,0,-0.35277776,98.372081,113.73556)"
           clip-path="url(#clipPath34)" />
        <path
           id="path35"
           d="M 0,0 V 6.8 H 2.6 V 0 H 4.5 V 14.4 H 2.6 V 8.6 H 0 v 5.8 H -1.7 V 0 H 0"
           style="fill:#ffffff;fill-opacity:1;fill-rule:evenodd;stroke:none"
           transform="matrix(0.35277776,0,0,-0.35277776,104.0518,117.36917)"
           clip-path="url(#clipPath36)" />
        <path
           id="path37"
           d="M 0,0 0.9,3.8 H 3.2 L 4,0 H 6 L 3,14.4 H 1.1 L -1.8,0 H 0 M 2.1,9.5 2.8,5.7 H 1.3 l 0.8,3.8"
           style="fill:#ffffff;fill-opacity:1;fill-rule:evenodd;stroke:none"
           transform="matrix(0.35277776,0,0,-0.35277776,106.97986,117.36917)"
           clip-path="url(#clipPath38)" />
        <path
           id="path39"
           d="M 0,0 C 0.9,0 1.6,0.4 2,1.3 2.4,2 2.6,2.8 2.6,3.9 2.6,4.3 2.5,4.7 2.5,5 2.5,5.3 2.5,5.6 2.4,5.9 2.3,6.5 2,7 1.6,7.6 c 0.5,0.7 0.7,1.7 0.7,2.9 0,1.6 -0.3,2.7 -0.8,3.3 -0.4,0.4 -1.1,0.6 -2.2,0.6 H -1.5 -2.9 -3.6 V 0 H 0 m -1.9,6.6 h 1.5 c 0.5,0 0.9,-0.3 1,-1.1 0.1,-0.3 0.1,-0.9 0.1,-1.7 0,-1.3 -0.3,-2 -1,-2 h -1.6 v 4.8 m 0,5.9 h 1.2 c 0.8,0 1.1,-0.6 1.1,-2 C 0.4,9.9 0.4,9.4 0.2,9 0.1,8.7 -0.1,8.6 -0.4,8.6 h -1.5 v 3.9"
           style="fill:#ffffff;fill-opacity:1;fill-rule:evenodd;stroke:none"
           transform="matrix(0.35277776,0,0,-0.35277776,111.07208,117.36917)"
           clip-path="url(#clipPath40)" />
        <path
           id="path41"
           d="M 0,0 V 14.4 H -1.8 V 0 H 0"
           style="fill:#ffffff;fill-opacity:1;fill-rule:evenodd;stroke:none"
           transform="matrix(0.35277776,0,0,-0.35277776,113.43569,117.36917)"
           clip-path="url(#clipPath42)" />
        <path
           id="path43"
           d="M 0,0 H 1.8 V -12.5 H 3.7 V 0 H 5.5 V 1.9 H 0 V 0"
           style="fill:#ffffff;fill-opacity:1;fill-rule:evenodd;stroke:none"
           transform="matrix(0.35277776,0,0,-0.35277776,114.14125,112.95945)"
           clip-path="url(#clipPath44)" />
        <path
           id="path45"
           d="M 0,0 0.8,3.8 H 3.1 L 3.9,0 h 2 l -3,14.4 H 1 L -1.9,0 H 0 M 2,9.5 2.7,5.7 H 1.2 L 2,9.5"
           style="fill:#ffffff;fill-opacity:1;fill-rule:evenodd;stroke:none"
           transform="matrix(0.35277776,0,0,-0.35277776,117.0693,117.36917)"
           clip-path="url(#clipPath46)" />
        <path
           id="path47"
           d="M 0,0 H 1.8 V -12.5 H 3.6 V 0 H 5.5 V 1.9 H 0 V 0"
           style="fill:#ffffff;fill-opacity:1;fill-rule:evenodd;stroke:none"
           transform="matrix(0.35277776,0,0,-0.35277776,119.43291,112.95945)"
           clip-path="url(#clipPath48)" />
      </g>
      <g
         id="g2">
        <path
           id="path49"
           d="m 0,0 c 0,-0.6 -0.1,-1 -0.2,-1.2 -0.2,-0.3 -0.4,-0.4 -0.8,-0.4 -0.2,0 -0.5,0.1 -0.7,0.4 -0.3,0.3 -0.5,1 -0.6,2.1 -0.1,0.4 -0.1,0.8 -0.1,1.2 -0.1,0.4 -0.1,0.7 -0.1,1.1 v 1.5 c 0,2.4 0.3,3.9 0.8,4.5 0.2,0.2 0.5,0.3 0.8,0.3 0.5,0 0.8,-0.3 0.9,-0.9 h 1.9 c -0.1,1 -0.3,1.7 -0.8,2.2 -0.5,0.4 -1.2,0.6 -2.2,0.6 -0.8,0 -1.4,-0.2 -1.9,-0.7 -0.9,-0.9 -1.3,-3.2 -1.3,-7 0,-0.5 0,-1 0,-1.5 0.1,-0.5 0.1,-0.9 0.1,-1.4 0.1,-0.7 0.2,-1.2 0.3,-1.7 0.1,-0.5 0.3,-0.9 0.4,-1.2 0.5,-0.9 1.3,-1.3 2.5,-1.3 1.1,0 1.9,0.3 2.3,0.9 0.2,0.3 0.4,0.6 0.4,1 0.1,0.4 0.2,0.9 0.2,1.5 V 0.2 H 0 V 0"
           style="fill:#ffffff;fill-opacity:1;fill-rule:evenodd;stroke:none"
           transform="matrix(0.35277776,0,0,-0.35277776,73.007361,125.13028)"
           clip-path="url(#clipPath50)" />
        <path
           id="path51"
           d="M 0,0 C 0,1.9 -0.1,3.3 -0.4,4.2 -0.9,5.9 -1.9,6.7 -3.3,6.7 -5.5,6.7 -6.6,4.9 -6.6,1.1 V 0.3 -1.5 c 0,-1.9 0.1,-3.3 0.4,-4.2 0.5,-1.6 1.4,-2.4 2.9,-2.4 1.4,0 2.4,0.8 2.9,2.4 0.3,0.9 0.4,2.4 0.4,4.3 L 0,0 m -1.9,0.3 c 0,-0.2 0,-0.4 0,-0.7 v -1.2 c 0,-3.2 -0.5,-4.7 -1.4,-4.7 -1,0 -1.5,1.5 -1.5,4.5 v 2.3 c 0,1.4 0.1,2.5 0.4,3.3 0.2,0.7 0.6,1.1 1,1.1 0.6,0 1,-0.6 1.2,-1.6 C -2.1,3 -2.1,2.6 -2,2.1 -2,1.6 -1.9,1 -1.9,0.3"
           style="fill:#ffffff;fill-opacity:1;fill-rule:evenodd;stroke:none"
           transform="matrix(0.35277776,0,0,-0.35277776,76.817361,123.47223)"
           clip-path="url(#clipPath52)" />
        <path
           id="path53"
           d="M 0,0 V 8.6 L 2.9,0 H 4.5 V 14.4 H 2.6 V 7.2 L 0,14.4 H -1.8 V 0 H 0"
           style="fill:#ffffff;fill-opacity:1;fill-rule:evenodd;stroke:none"
           transform="matrix(0.35277776,0,0,-0.35277776,78.404861,126.25917)"
           clip-path="url(#clipPath54)" />
        <path
           id="path55"
           d="m 0,0 c 0,-0.3 0.1,-0.5 0.1,-0.7 0,-0.3 0.1,-0.5 0.2,-0.8 0.5,-1.4 1.5,-2.1 2.9,-2.1 0.9,0 1.7,0.3 2.2,0.9 0.6,0.7 0.8,1.4 0.8,2.4 0,0.2 0,0.4 0,0.7 C 6.2,0.7 6.1,1 6,1.3 5.9,1.7 5.8,2.2 5.6,2.6 5.5,3 5.3,3.3 5,3.7 5,3.8 4.8,4 4.6,4.3 4.3,4.5 4,4.9 3.7,5.3 3.3,5.7 3.1,6 2.9,6.3 2.7,6.5 2.6,6.7 2.5,6.9 2.4,7.2 2.3,7.5 2.3,7.8 2.3,8.9 2.7,9.4 3.4,9.4 3.8,9.4 4,9.2 4.2,8.8 4.3,8.5 4.4,8.2 4.4,7.8 h 1.8 c 0,1 -0.2,1.8 -0.7,2.4 -0.5,0.7 -1.3,1 -2.2,1 -0.9,0 -1.6,-0.3 -2.1,-1 C 0.7,9.5 0.4,8.7 0.4,7.8 0.4,7.3 0.5,6.9 0.7,6.4 0.8,5.9 1.1,5.4 1.4,5 1.7,4.6 2.1,4.2 2.4,3.8 2.7,3.4 3.1,3 3.4,2.6 3.7,2.1 4,1.7 4.1,1.2 4.3,0.7 4.4,0.3 4.4,-0.2 4.4,-0.7 4.3,-1.1 4.1,-1.4 3.9,-1.7 3.6,-1.8 3.2,-1.8 2.8,-1.8 2.5,-1.6 2.2,-1.3 2,-1 1.9,-0.5 1.9,0.2 H 0 V 0"
           style="fill:#ffffff;fill-opacity:1;fill-rule:evenodd;stroke:none"
           transform="matrix(0.35277776,0,0,-0.35277776,80.768471,125.05973)"
           clip-path="url(#clipPath56)" />
        <path
           id="path57"
           d="m 0,0 v 1.8 h -3.7 v 5.1 h 2.3 v 1.9 h -2.3 v 3.7 h 3.5 v 1.9 H -5.5 V 0 H 0"
           style="fill:#ffffff;fill-opacity:1;fill-rule:evenodd;stroke:none"
           transform="matrix(0.35277776,0,0,-0.35277776,85.707361,126.25917)"
           clip-path="url(#clipPath58)" />
        <path
           id="path59"
           d="m 0,0 c 0,1.4 -0.3,2.4 -0.8,3.1 -0.6,0.6 -1.4,1 -2.6,1 h -2.8 v -14.4 h 1.8 v 6.7 h 0.9 l 1.6,-6.7 H 0 l -1.5,7.1 C -0.5,-2.6 0,-1.5 0,0 m -1.9,0.1 c 0,-0.6 0,-1 -0.1,-1.3 -0.2,-0.3 -0.6,-0.5 -1,-0.5 h -1.4 v 3.9 h 1.2 c 0.6,0 0.9,-0.2 1.1,-0.7 0.2,-0.3 0.2,-0.8 0.2,-1.4"
           style="fill:#ffffff;fill-opacity:1;fill-rule:evenodd;stroke:none"
           transform="matrix(0.35277776,0,0,-0.35277776,88.705971,122.62556)"
           clip-path="url(#clipPath60)" />
        <path
           id="path61"
           d="M 0,0 H 1.5 L 4.1,14.4 H 2.2 L 0.8,6.2 -0.8,14.4 H -2.6 L 0,0"
           style="fill:#ffffff;fill-opacity:1;fill-rule:evenodd;stroke:none"
           transform="matrix(0.35277776,0,0,-0.35277776,90.046528,126.25917)"
           clip-path="url(#clipPath62)" />
        <path
           id="path63"
           d="M 0,0 0.8,3.8 H 3.1 L 4,0 h 1.9 l -3,14.4 H 1 L -1.9,0 H 0 M 2,9.5 2.7,5.7 H 1.2 L 2,9.5"
           style="fill:#ffffff;fill-opacity:1;fill-rule:evenodd;stroke:none"
           transform="matrix(0.35277776,0,0,-0.35277776,92.480694,126.25917)"
           clip-path="url(#clipPath64)" />
        <path
           id="path65"
           d="M 0,0 H 1.8 V -12.5 H 3.6 V 0 H 5.5 V 1.9 H 0 V 0"
           style="fill:#ffffff;fill-opacity:1;fill-rule:evenodd;stroke:none"
           transform="matrix(0.35277776,0,0,-0.35277776,94.844304,121.84945)"
           clip-path="url(#clipPath66)" />
        <path
           id="path67"
           d="M 0,0 V 14.4 H -1.9 V 0 H 0"
           style="fill:#ffffff;fill-opacity:1;fill-rule:evenodd;stroke:none"
           transform="matrix(0.35277776,0,0,-0.35277776,98.160415,126.25917)"
           clip-path="url(#clipPath68)" />
        <path
           id="path69"
           d="M 0,0 C 0,1.9 -0.1,3.3 -0.4,4.2 -0.9,5.9 -1.9,6.7 -3.3,6.7 -5.5,6.7 -6.6,4.9 -6.6,1.1 V 0.3 -1.5 c 0,-1.9 0.2,-3.3 0.4,-4.2 0.5,-1.6 1.5,-2.4 2.9,-2.4 1.4,0 2.4,0.8 2.9,2.4 0.3,0.9 0.4,2.4 0.4,4.3 L 0,0 m -1.9,0.3 c 0,-0.2 0,-0.4 0,-0.7 v -1.2 c 0,-3.2 -0.4,-4.7 -1.4,-4.7 -1,0 -1.4,1.5 -1.4,4.5 v 2.3 c 0,1.4 0.1,2.5 0.3,3.3 0.3,0.7 0.6,1.1 1.1,1.1 0.6,0 1,-0.6 1.2,-1.6 C -2.1,3 -2,2.6 -2,2.1 -1.9,1.6 -1.9,1 -1.9,0.3"
           style="fill:#ffffff;fill-opacity:1;fill-rule:evenodd;stroke:none"
           transform="matrix(0.35277776,0,0,-0.35277776,101.44125,123.47223)"
           clip-path="url(#clipPath70)" />
        <path
           id="path71"
           d="M 0,0 V 8.6 L 2.9,0 H 4.5 V 14.4 H 2.7 V 7.2 L 0.1,14.4 H -1.7 V 0 H 0"
           style="fill:#ffffff;fill-opacity:1;fill-rule:evenodd;stroke:none"
           transform="matrix(0.35277776,0,0,-0.35277776,103.02875,126.25917)"
           clip-path="url(#clipPath72)" />
        <path
           id="path73"
           d="M 0,0 0.8,3.8 H 3.1 L 3.9,0 h 2 l -3,14.4 H 1 L -1.9,0 H 0 M 2,9.5 2.7,5.7 H 1.2 L 2,9.5"
           style="fill:#ffffff;fill-opacity:1;fill-rule:evenodd;stroke:none"
           transform="matrix(0.35277776,0,0,-0.35277776,110.36653,126.25917)"
           clip-path="url(#clipPath74)" />
        <path
           id="path75"
           d="m 0,0 c 0,1.4 -0.3,2.4 -0.9,3.1 -0.5,0.6 -1.4,1 -2.5,1 h -2.8 v -14.4 h 1.7 v 6.7 h 0.9 l 1.7,-6.7 H 0 l -1.6,7.1 C -0.6,-2.6 0,-1.5 0,0 m -1.9,0.1 c 0,-0.6 -0.1,-1 -0.2,-1.3 -0.2,-0.3 -0.5,-0.5 -1,-0.5 h -1.4 v 3.9 h 1.2 c 0.6,0 1,-0.2 1.2,-0.7 0.1,-0.3 0.2,-0.8 0.2,-1.4"
           style="fill:#ffffff;fill-opacity:1;fill-rule:evenodd;stroke:none"
           transform="matrix(0.35277776,0,0,-0.35277776,115.34069,122.62556)"
           clip-path="url(#clipPath76)" />
        <path
           id="path77"
           d="m 0,0 v 1.8 h -3.7 v 5.1 h 2.4 v 1.9 h -2.4 v 3.7 h 3.5 v 1.9 H -5.4 V 0 H 0"
           style="fill:#ffffff;fill-opacity:1;fill-rule:evenodd;stroke:none"
           transform="matrix(0.35277776,0,0,-0.35277776,118.05708,126.25917)"
           clip-path="url(#clipPath78)" />
        <path
           id="path79"
           d="M 0,0 0.8,3.8 H 3.1 L 4,0 h 1.9 l -3,14.4 H 1 L -1.9,0 H 0 M 2,9.5 2.7,5.7 H 1.2 L 2,9.5"
           style="fill:#ffffff;fill-opacity:1;fill-rule:evenodd;stroke:none"
           transform="matrix(0.35277776,0,0,-0.35277776,119.15069,126.25917)"
           clip-path="url(#clipPath80)" />
      </g>
    </g>
    <g
       id="g3">
      <path
         id="path81"
         d="M 0,0 V 2.4 H 1.5 V 3.3 H 0 v 1.9 h 2.3 v 1 H -1.1 V -1 H 2.6 V 0 H 0"
         style="fill:#ffffff;fill-opacity:1;fill-rule:evenodd;stroke:none"
         transform="matrix(0.35277776,0,0,-0.35277776,71.525695,133.52639)"
         clip-path="url(#clipPath82)" />
      <path
         id="path83"
         d="M 0,0 C 0,-0.6 0.1,-1.2 0.5,-1.6 0.9,-2 1.4,-2.2 2,-2.2 2.6,-2.2 3.1,-2 3.4,-1.6 3.8,-1.2 4,-0.7 4,-0.1 4,0.5 3.8,1 3.3,1.4 3.2,1.6 3,1.7 2.8,1.9 2.6,2.1 2.3,2.3 2,2.5 1.9,2.5 1.8,2.6 1.7,2.6 1.6,2.7 1.5,2.8 1.4,2.9 1.3,3 1.3,3.2 1.3,3.3 1.3,3.6 1.4,3.8 1.5,3.9 1.7,4.1 1.9,4.2 2.1,4.2 2.4,4.2 2.6,4.1 2.7,3.9 2.9,3.8 2.9,3.6 3,3.3 H 4 C 3.9,3.9 3.8,4.3 3.4,4.7 3.1,5 2.7,5.2 2.1,5.2 1.6,5.2 1.2,5 0.8,4.6 0.5,4.3 0.3,3.8 0.3,3.3 0.3,2.9 0.5,2.4 0.8,2.1 1,1.9 1.4,1.6 2,1.2 2,1.2 2.1,1.1 2.2,1.1 2.2,1 2.3,1 2.4,0.9 2.5,0.9 2.5,0.8 2.5,0.8 2.6,0.8 2.6,0.7 2.7,0.6 2.9,0.4 3,0.2 3,-0.1 3,-0.4 2.9,-0.7 2.7,-0.9 2.5,-1.1 2.3,-1.2 2,-1.2 1.7,-1.2 1.4,-1.1 1.2,-0.8 1,-0.6 0.9,-0.3 0.9,0 H 0 v 0"
         style="fill:#ffffff;fill-opacity:1;fill-rule:evenodd;stroke:none"
         transform="matrix(0.35277776,0,0,-0.35277776,72.760415,133.13834)"
         clip-path="url(#clipPath84)" />
      <path
         id="path85"
         d="m 0,0 v 6.2 h 1.3 v 1 h -3.7 v -1 h 1.3 V 0 H 0"
         style="fill:#ffffff;fill-opacity:1;fill-rule:evenodd;stroke:none"
         transform="matrix(0.35277776,0,0,-0.35277776,75.229861,133.87917)"
         clip-path="url(#clipPath86)" />
      <path
         id="path87"
         d="M 0,0 0.5,1.9 H 2 L 2.5,0 h 1 L 1.7,7.2 h -1 L -1.1,0 H 0 M 1.2,5 1.7,3 h -1 l 0.5,2"
         style="fill:#ffffff;fill-opacity:1;fill-rule:evenodd;stroke:none"
         transform="matrix(0.35277776,0,0,-0.35277776,76.217638,133.87917)"
         clip-path="url(#clipPath88)" />
      <path
         id="path89"
         d="M 0,0 C 0.5,0 1,0.2 1.3,0.6 1.7,1 1.9,1.4 1.9,2 1.9,2.6 1.6,3.2 1,3.7 1.3,4 1.5,4.2 1.6,4.5 1.7,4.7 1.7,5 1.7,5.4 1.7,5.9 1.6,6.3 1.3,6.6 1,7 0.6,7.2 0.1,7.2 H -2.1 V 0 H 0 m -1.1,3.2 h 1 C 0.2,3.2 0.4,3.1 0.6,2.8 0.8,2.6 0.9,2.3 0.9,2 0.9,1.7 0.8,1.4 0.6,1.3 0.5,1.1 0.2,1 -0.1,1 h -1 v 2.2 m 0,3 H 0 C 0.3,6.2 0.5,6.1 0.6,5.9 0.7,5.8 0.7,5.5 0.7,5.2 0.7,5 0.7,4.8 0.6,4.6 0.4,4.3 0.2,4.2 0,4.2 h -1.1 v 2"
         style="fill:#ffffff;fill-opacity:1;fill-rule:evenodd;stroke:none"
         transform="matrix(0.35277776,0,0,-0.35277776,78.581248,133.87917)"
         clip-path="url(#clipPath90)" />
      <path
         id="path91"
         d="m 0,0 v 0.9 h -2.7 v 6.3 h -1 V 0 H 0"
         style="fill:#ffffff;fill-opacity:1;fill-rule:evenodd;stroke:none"
         transform="matrix(0.35277776,0,0,-0.35277776,80.980138,133.87917)"
         clip-path="url(#clipPath92)" />
      <path
         id="path93"
         d="M 0,0 V 7.2 H -1 V 0 h 1"
         style="fill:#ffffff;fill-opacity:1;fill-rule:evenodd;stroke:none"
         transform="matrix(0.35277776,0,0,-0.35277776,81.685694,133.87917)"
         clip-path="url(#clipPath94)" />
      <path
         id="path95"
         d="M 0,0 C 0,-0.6 0.2,-1.2 0.6,-1.6 1,-2 1.4,-2.2 2,-2.2 c 0.6,0 1.1,0.2 1.5,0.6 0.4,0.4 0.6,0.9 0.6,1.5 C 4.1,0.5 3.8,1 3.4,1.4 3.3,1.6 3.1,1.7 2.9,1.9 2.7,2.1 2.4,2.3 2,2.5 2,2.5 1.9,2.6 1.8,2.6 1.7,2.7 1.6,2.8 1.5,2.9 1.4,3 1.3,3.2 1.3,3.3 1.3,3.6 1.4,3.8 1.6,3.9 1.8,4.1 2,4.2 2.2,4.2 2.5,4.2 2.7,4.1 2.8,3.9 2.9,3.8 3,3.6 3.1,3.3 h 1 C 4,3.9 3.8,4.3 3.5,4.7 3.2,5 2.7,5.2 2.2,5.2 1.7,5.2 1.2,5 0.9,4.6 0.5,4.3 0.3,3.8 0.3,3.3 0.3,2.9 0.5,2.4 0.9,2.1 1,1.9 1.4,1.6 2.1,1.2 2.1,1.2 2.2,1.1 2.2,1.1 2.3,1 2.4,1 2.5,0.9 2.5,0.9 2.6,0.8 2.6,0.8 2.6,0.8 2.7,0.7 2.8,0.6 3,0.4 3.1,0.2 3.1,-0.1 3.1,-0.4 3,-0.7 2.8,-0.9 2.6,-1.1 2.4,-1.2 2,-1.2 1.7,-1.2 1.5,-1.1 1.3,-0.8 1.1,-0.6 1,-0.3 1,0 H 0 v 0"
         style="fill:#ffffff;fill-opacity:1;fill-rule:evenodd;stroke:none"
         transform="matrix(0.35277776,0,0,-0.35277776,82.109028,133.13834)"
         clip-path="url(#clipPath96)" />
      <path
         id="path97"
         d="M 0,0 V 3.2 H 2 V 0 H 3 V 7.2 H 2 v -3 H 0 v 3 H -1 V 0 h 1"
         style="fill:#ffffff;fill-opacity:1;fill-rule:evenodd;stroke:none"
         transform="matrix(0.35277776,0,0,-0.35277776,84.331528,133.87917)"
         clip-path="url(#clipPath98)" />
      <path
         id="path99"
         d="M 0,0 V 2.4 H 1.5 V 3.3 H 0 v 1.9 h 2.4 v 1 H -1 V -1 H 2.7 V 0 H 0"
         style="fill:#ffffff;fill-opacity:1;fill-rule:evenodd;stroke:none"
         transform="matrix(0.35277776,0,0,-0.35277776,86.307081,133.52639)"
         clip-path="url(#clipPath100)" />
      <path
         id="path101"
         d="M 0,0 C 0.7,0 1.2,0.4 1.5,1.2 1.8,1.8 1.9,2.5 1.9,3.3 1.9,5.4 1.5,6.6 0.7,7 0.5,7.1 0.2,7.2 -0.2,7.2 H -2.1 V 0 H 0 m -1.1,6.2 h 0.9 c 0.5,0 0.8,-0.4 1,-1 0.1,-0.4 0.1,-0.9 0.1,-1.7 0,-0.1 0,-0.2 0,-0.3 0,-0.2 0,-0.3 0,-0.5 C 0.9,2.5 0.8,2.2 0.8,2.1 0.8,1.9 0.7,1.7 0.7,1.6 0.5,1.2 0.2,1 -0.2,1 h -0.9 v 5.2"
         style="fill:#ffffff;fill-opacity:1;fill-rule:evenodd;stroke:none"
         transform="matrix(0.35277776,0,0,-0.35277776,88.423748,133.87917)"
         clip-path="url(#clipPath102)" />
      <path
         id="path103"
         d="M 0,0 0.4,1.9 H 2 L 2.5,0 h 1 L 1.7,7.2 h -1 L -1.1,0 H 0 M 1.2,5 1.7,3 h -1 l 0.5,2"
         style="fill:#ffffff;fill-opacity:1;fill-rule:evenodd;stroke:none"
         transform="matrix(0.35277776,0,0,-0.35277776,92.022081,133.87917)"
         clip-path="url(#clipPath104)" />
      <path
         id="path105"
         d="M 0,0 V 4.8 L 2.2,0 H 3 V 7.2 H 1.9 V 2.9 L 0,7.2 H -1.1 V 0 H 0"
         style="fill:#ffffff;fill-opacity:1;fill-rule:evenodd;stroke:none"
         transform="matrix(0.35277776,0,0,-0.35277776,93.997638,133.87917)"
         clip-path="url(#clipPath106)" />
      <path
         id="path107"
         d="M 0,0 C 0.7,0 1.3,0.4 1.6,1.2 1.9,1.8 2,2.5 2,3.3 2,5.4 1.6,6.6 0.7,7 0.5,7.1 0.3,7.2 -0.1,7.2 H -2 V 0 h 2 m -1,6.2 h 0.8 c 0.5,0 0.9,-0.4 1,-1 C 0.9,4.8 1,4.3 1,3.5 1,3.4 1,3.3 1,3.2 1,3 1,2.9 0.9,2.7 0.9,2.5 0.9,2.2 0.9,2.1 0.8,1.9 0.8,1.7 0.7,1.6 0.6,1.2 0.3,1 -0.1,1 H -1 v 5.2"
         style="fill:#ffffff;fill-opacity:1;fill-rule:evenodd;stroke:none"
         transform="matrix(0.35277776,0,0,-0.35277776,96.325971,133.87917)"
         clip-path="url(#clipPath108)" />
      <path
         id="path109"
         d="M 0,0 V 4 L 1.3,0 2.7,4 V 0 h 1 v 7.2 h -1 L 1.3,3.1 0,7.2 H -1 V 0 h 1"
         style="fill:#ffffff;fill-opacity:1;fill-rule:evenodd;stroke:none"
         transform="matrix(0.35277776,0,0,-0.35277776,99.924304,133.87917)"
         clip-path="url(#clipPath110)" />
      <path
         id="path111"
         d="M 0,0 0.5,1.9 H 2 L 2.5,0 H 3.6 L 1.8,7.2 H 0.7 L -1.1,0 H 0 M 1.2,5 1.8,3 H 0.7 l 0.5,2"
         style="fill:#ffffff;fill-opacity:1;fill-rule:evenodd;stroke:none"
         transform="matrix(0.35277776,0,0,-0.35277776,101.97041,133.87917)"
         clip-path="url(#clipPath112)" />
      <path
         id="path113"
         d="M 0,0 V 7.2 H -1 V 0 h 1"
         style="fill:#ffffff;fill-opacity:1;fill-rule:evenodd;stroke:none"
         transform="matrix(0.35277776,0,0,-0.35277776,103.94597,133.87917)"
         clip-path="url(#clipPath114)" />
      <path
         id="path115"
         d="M 0,0 V 4.8 L 2.2,0 H 3 V 7.2 H 2 V 2.9 L 0,7.2 H -1 V 0 h 1"
         style="fill:#ffffff;fill-opacity:1;fill-rule:evenodd;stroke:none"
         transform="matrix(0.35277776,0,0,-0.35277776,104.86319,133.87917)"
         clip-path="url(#clipPath116)" />
      <path
         id="path117"
         d="m 0,0 v 6.2 h 1.4 v 1 h -3.7 v -1 H -1 V 0 h 1"
         style="fill:#ffffff;fill-opacity:1;fill-rule:evenodd;stroke:none"
         transform="matrix(0.35277776,0,0,-0.35277776,107.08569,133.87917)"
         clip-path="url(#clipPath118)" />
      <path
         id="path119"
         d="M 0,0 0.5,1.9 H 2.1 L 2.6,0 h 1 L 1.8,7.2 h -1 L -1,0 H 0 M 1.3,5 1.8,3 h -1 l 0.5,2"
         style="fill:#ffffff;fill-opacity:1;fill-rule:evenodd;stroke:none"
         transform="matrix(0.35277776,0,0,-0.35277776,108.07347,133.87917)"
         clip-path="url(#clipPath120)" />
      <path
         id="path121"
         d="M 0,0 V 7.2 H -1 V 0 h 1"
         style="fill:#ffffff;fill-opacity:1;fill-rule:evenodd;stroke:none"
         transform="matrix(0.35277776,0,0,-0.35277776,110.04903,133.87917)"
         clip-path="url(#clipPath122)" />
      <path
         id="path123"
         d="M 0,0 V 4.8 L 2.3,0 H 3 V 7.2 H 2 V 2.9 L 0,7.2 H -1 V 0 h 1"
         style="fill:#ffffff;fill-opacity:1;fill-rule:evenodd;stroke:none"
         transform="matrix(0.35277776,0,0,-0.35277776,110.96625,133.87917)"
         clip-path="url(#clipPath124)" />
      <path
         id="path125"
         d="M 0,0 V 2.4 H 1.5 V 3.3 H 0 v 1.9 h 2.3 v 1 H -1.1 V -1 H 2.6 V 0 H 0"
         style="fill:#ffffff;fill-opacity:1;fill-rule:evenodd;stroke:none"
         transform="matrix(0.35277776,0,0,-0.35277776,112.97708,133.52639)"
         clip-path="url(#clipPath126)" />
      <path
         id="path127"
         d="M 0,0 C 0.7,0 1.2,0.4 1.6,1.2 1.8,1.8 1.9,2.5 1.9,3.3 1.9,5.4 1.5,6.6 0.7,7 0.5,7.1 0.2,7.2 -0.1,7.2 h -2 V 0 H 0 m -1.1,6.2 h 0.9 c 0.5,0 0.8,-0.4 1,-1 0.1,-0.4 0.1,-0.9 0.1,-1.7 0,-0.1 0,-0.2 0,-0.3 0,-0.2 0,-0.3 0,-0.5 C 0.9,2.5 0.9,2.2 0.8,2.1 0.8,1.9 0.8,1.7 0.7,1.6 0.5,1.2 0.2,1 -0.2,1 h -0.9 v 5.2"
         style="fill:#ffffff;fill-opacity:1;fill-rule:evenodd;stroke:none"
         transform="matrix(0.35277776,0,0,-0.35277776,115.05847,133.87917)"
         clip-path="url(#clipPath128)" />
      <path
         id="path129"
         d="M 0,0 C 0.5,0 1,0.2 1.3,0.6 1.7,1 1.9,1.4 1.9,2 1.9,2.6 1.6,3.2 1,3.7 1.3,4 1.5,4.2 1.6,4.5 1.7,4.7 1.7,5 1.7,5.4 1.7,5.9 1.6,6.3 1.3,6.6 1,7 0.6,7.2 0.1,7.2 H -2.1 V 0 H 0 m -1.1,3.2 h 1 C 0.2,3.2 0.4,3.1 0.6,2.8 0.8,2.6 0.9,2.3 0.9,2 0.9,1.7 0.8,1.4 0.6,1.3 0.4,1.1 0.2,1 -0.1,1 h -1 v 2.2 m 0,3 h 1 C 0.3,6.2 0.5,6.1 0.6,5.9 0.7,5.8 0.7,5.5 0.7,5.2 0.7,5 0.7,4.8 0.5,4.6 0.4,4.3 0.2,4.2 0,4.2 h -1.1 v 2"
         style="fill:#ffffff;fill-opacity:1;fill-rule:evenodd;stroke:none"
         transform="matrix(0.35277776,0,0,-0.35277776,119.04486,133.87917)"
         clip-path="url(#clipPath130)" />
      <path
         id="path131"
         d="m 0,0 -1.2,2.6 h -1.1 l 1.8,-4 v -3.2 h 1 v 3.2 l 1.8,4 H 1.2 L 0,0"
         style="fill:#ffffff;fill-opacity:1;fill-rule:evenodd;stroke:none"
         transform="matrix(0.35277776,0,0,-0.35277776,120.73819,132.25639)"
         clip-path="url(#clipPath132)" />
    </g>
  </g>
</svg>
