<svg width="36in" height="12in" viewBox="0 0 914.4 304.8" xmlns="http://www.w3.org/2000/svg">
    <rect style="fill:#dd7500;stroke-width:31.75;stroke-linecap:round;stroke-linejoin:round;stroke-dashoffset:.299999" width="914.4" height="304.8" rx="38.1" ry="38.1"/>
    <rect style="fill:none;fill-opacity:1;stroke:#000;stroke-width:9.652;stroke-linecap:round;stroke-linejoin:round;stroke-dasharray:none;stroke-dashoffset:.299999;stroke-opacity:1" width="885.444" height="275.844" x="14.478" y="14.478" rx="23.622" ry="23.622"/>
    <path d="M167.26 152.095q0 33.985-8.687 53.035-10.668 26.06-35.814 26.06-13.563 0-22.098-6.095-8.382-6.096-14.173-19.965-8.687-19.507-8.534-53.035 0-33.985 8.534-53.035 5.944-13.564 14.478-19.507 8.535-5.944 21.793-5.944 13.412 0 21.641 5.944 8.382 5.943 14.173 20.117 8.687 19.507 8.687 52.425zm-20.879 0q0-21.183-4.724-37.795-5.182-19.355-18.898-19.355-13.563 0-19.05 18.745-5.029 15.85-4.876 39.015 0 19.355 4.876 38.557 5.182 18.593 19.05 18.593 13.564 0 18.898-18.593 4.724-15.697 4.724-39.167zM283.39 228.6h-16.46l-47.243-102.108V228.6H197.74V76.2h21.946l41.757 91.592V76.2h21.946zm184.403 0h-22.555l-20.27-71.476H404.09V228.6h-21.946V76.2h45.72q17.983 0 28.956 11.278 10.973 11.125 10.973 29.413 0 28.651-21.946 36.728zm-21.488-111.71q0-8.838-5.487-14.02-5.486-5.334-14.325-5.334h-22.403v38.71h22.403q9.6 0 14.63-5.03 5.182-5.181 5.182-14.325zm68.732 111.71H493.7V76.2h21.336zm115.519-42.215q0 14.326-4.42 23.47-4.42 10.21-13.411 15.85-8.84 5.486-20.27 5.486-27.431 0-38.861-26.06-8.077-19.355-8.077-52.426 0-31.852 7.01-51.207 3.962-12.04 14.63-19.964 10.668-7.925 23.775-7.925 16.459 0 27.584 10.973 11.278 10.82 12.04 27.584h-21.946q-.457-7.772-5.486-12.496-4.877-4.725-12.802-4.725-11.43 0-16.916 11.278-7.01 12.801-7.01 42.824 0 20.422 3.047 37.795 5.03 23.013 22.556 23.013 16.764 0 16.611-23.47v-10.21h-17.221v-21.489h39.167zM746.683 228.6h-21.945v-68.885H682.98V228.6h-21.946V76.2h21.946v62.027h41.758V76.2h21.945zM845.59 96.47h-27.736V228.6h-21.946V96.47h-27.89V76.2h77.572z" style="font-size:266.7px;line-height:1.25;font-family:'Roadgeek 2014 Series C';-inkscape-font-specification:'Roadgeek 2014 Series C';text-align:center;text-anchor:middle;stroke-width:19.05" aria-label="ON RIGHT"/>
</svg>
