<?xml version="1.0" encoding="UTF-8"?>
<svg width="2160" height="2700" enable-background="new" version="1.1" viewBox="0 0 609.6 762" xmlns="http://www.w3.org/2000/svg" xmlns:cc="http://creativecommons.org/ns#" xmlns:dc="http://purl.org/dc/elements/1.1/" xmlns:rdf="http://www.w3.org/1999/02/22-rdf-syntax-ns#">
<metadata>
<rdf:RDF>
<cc:Work rdf:about="">
<dc:format>image/svg+xml</dc:format>
<dc:type rdf:resource="http://purl.org/dc/dcmitype/StillImage"/>
</cc:Work>
</rdf:RDF>
</metadata>
<g transform="translate(0 465)">
<g transform="matrix(9.7314 0 0 9.7314 -2393.2 2547.8)">
<g fill="#fff" stroke-linecap="round" stroke-linejoin="round">
<rect x="245.93" y="-309.59" width="62.643" height="78.303" rx="3.9152" ry="3.9152" stroke="#000" stroke-width=".18532"/>
<rect x="247.72" y="-307.8" width="59.054" height="74.715" rx="2.447" ry="2.447" stroke="#af1e2d" stroke-width="1.6313"/>
</g>
</g>
</g>
<g transform="matrix(9.7314 0 0 9.7314 -2393.2 3012.8)" fill="#af1e2d">
<g stroke-width=".054107" aria-label="NO">
<path d="m274.59-291.13-3.9892-7.0746v7.0746h-1.6518v-10.44h1.6518l3.8022 6.6694v-6.6694h1.6518v10.44z"/>
<path d="m285.72-296.34q0 1.2466-0.29607 2.3842-0.29607 1.1375-0.84147 1.8388-0.87264 1.1687-2.5244 1.1687-1.1064 0-1.8232-0.4519-0.71681-0.45191-1.1843-1.418-0.32724-0.67006-0.52982-1.6206-0.20258-0.96613-0.20258-1.9011 0-1.2934 0.29608-2.3998 0.31165-1.1064 0.84147-1.8544 0.46748-0.59214 1.1064-0.87263 0.65448-0.29608 1.5583-0.29608 0.9973 0 1.6985 0.4519 0.70123 0.45191 1.1999 1.418 0.32724 0.70123 0.51423 1.6362 0.18699 0.93497 0.18699 1.9167zm-1.6518 0q0-0.88822-0.15583-1.6362-0.15583-0.76355-0.46748-1.2934-0.24933-0.40515-0.57657-0.59215-0.31165-0.18699-0.77914-0.21815-0.60773-0.0312-1.0129 0.28049-0.40515 0.31165-0.67006 1.0129-0.20258 0.46748-0.31166 1.1375-0.0935 0.65448-0.0935 1.309 0 0.84147 0.15583 1.6206 0.15582 0.77914 0.46748 1.2778 0.24932 0.40515 0.59215 0.60773 0.34282 0.20257 0.84147 0.20257 0.57656 0 0.95055-0.31165 0.38957-0.31166 0.65448-1.0129 0.0779-0.20258 0.15582-0.48307 0.0779-0.29607 0.12467-0.60773 0.0623-0.32724 0.0935-0.65448t0.0312-0.63889z"/>
</g>
<g stroke-width=".047344" aria-label="PARKING">
<path d="m258.73-284.52q0 0.36814-0.10908 0.72265-0.10907 0.34087-0.29996 0.65447-0.19089 0.29997-0.44996 0.53177-0.24542 0.23179-0.54539 0.36814-0.3136 0.14998-0.73629 0.23179-0.40904 0.0818-0.9408 0.0818h-1.6907v3.9814h-1.4453v-9.1354h3.136q0.55903 0 0.9408 0.0682 0.39542 0.0545 0.73629 0.21816 0.29997 0.14999 0.54539 0.39541 0.25907 0.2318 0.44996 0.5454 0.19089 0.29997 0.29996 0.65447 0.10908 0.34088 0.10908 0.68175zm-1.4726 0q0-0.28633-0.16361-0.5454-0.14999-0.25906-0.38178-0.40904-0.19089-0.10908-0.36814-0.13635-0.16362-0.0273-0.5045-0.0273h-1.8816v2.2361h1.8816q0.34088 0 0.5045-0.0273 0.17725-0.0273 0.36814-0.12271 0.23179-0.12272 0.38178-0.39541 0.16361-0.28634 0.16361-0.57267z"/>
<path d="m265.47-277.94-0.8999-2.5634h-2.8497l-0.89991 2.5634h-1.5407l3.1497-9.1354h1.4317l3.1497 9.1354zm-2.3043-6.5993-0.9408 2.5634h1.8271z"/>
<path d="m273.04-277.94-1.4726-3.9814h-1.7316v3.9814h-1.4453v-9.1354h3.0133q0.53176 0 0.91354 0.0682 0.38177 0.0545 0.72265 0.21816 0.29996 0.14999 0.54539 0.39541 0.25906 0.2318 0.43632 0.5454 0.19089 0.29997 0.28633 0.65447 0.10908 0.34088 0.10908 0.68175 0 0.36814-0.10908 0.72265-0.0954 0.34087-0.28633 0.65447-0.17726 0.29997-0.44995 0.5454-0.25907 0.24543-0.57267 0.38178l1.6089 4.2677zm-0.0682-6.572q0-0.28633-0.14998-0.5454-0.14999-0.25906-0.42268-0.40904-0.17726-0.0954-0.32724-0.12272-0.14999-0.0409-0.50449-0.0409h-1.7316v2.2361h1.7316q0.34087 0 0.49085-0.0273 0.16362-0.0273 0.34088-0.12271 0.27269-0.14999 0.42268-0.40905 0.14998-0.2727 0.14998-0.55903z"/>
<path d="m280.86-277.94-2.3179-4.3223-0.95444 1.1862v3.136h-1.4453v-9.1354h1.4453v3.6269l2.877-3.6269h1.868l-2.8224 3.5587 3.0133 5.5767z"/>
<path d="m284.1-277.94v-9.1354h1.4726v9.1354z"/>
<path d="m292.68-277.94-3.4905-6.1902v6.1902h-1.4453v-9.1354h1.4453l3.3269 5.8357v-5.8357h1.4453v9.1354z"/>
<path d="m302.16-280.67q0 0.62721-0.21815 1.159-0.21816 0.51812-0.59994 0.91354-0.38178 0.38177-0.91354 0.59993t-1.159 0.21816q-1.0362 0-1.6771-0.39541-0.64084-0.40905-1.0499-1.268-0.28633-0.61357-0.44995-1.4044-0.14998-0.80446-0.14998-1.6498 0-0.54539 0.0682-1.0772 0.0818-0.5454 0.20453-1.0226 0.13635-0.49086 0.32723-0.8999 0.19089-0.42269 0.42269-0.72265 0.40904-0.50449 0.98171-0.76356 0.5863-0.25906 1.3635-0.25906 1.0499 0 1.718 0.47722 0.66811 0.46359 1.1317 1.5407l-1.3771 0.5454q-0.28633-0.59993-0.62721-0.84536-0.32723-0.24543-0.84536-0.24543-0.55903 0-0.94081 0.25906-0.36814 0.25907-0.59993 0.87264-0.17726 0.40904-0.2727 0.99534-0.0818 0.57267-0.0818 1.1453 0 0.73629 0.10908 1.4044 0.12271 0.66811 0.34087 1.1044 0.42268 0.73628 1.2544 0.73628 0.69538 0 1.1453-0.39541t0.44995-1.0226v-0.38178h-1.6634v-1.4453h3.1088v1.8271z"/>
</g>
<g stroke-width=".033817" aria-label="WITHIN">
<path d="m268.38-267.5h-0.91549l-1.0324-4.1879-1.0031 4.1879h-0.91549l-0.96419-6.5253h1.0518l0.50644 3.438 0.82784-3.438h1.0031l0.84731 3.438 0.50644-3.438h1.0518z"/>
<path d="m270.31-267.5v-6.5253h1.0518v6.5253z"/>
<path d="m274.86-273.11v5.6098h-1.0324v-5.6098h-1.4901v-0.91549h4.032v0.91549z"/>
<path d="m280.74-267.5v-2.8438h-2.3764v2.8438h-1.0324v-6.5253h1.0324v2.6296h2.3764v-2.6296h1.0324v6.5253z"/>
<path d="m283.32-267.5v-6.5253h1.0518v6.5253z"/>
<path d="m289.45-267.5-2.4932-4.4216v4.4216h-1.0324v-6.5253h1.0324l2.3764 4.1684v-4.1684h1.0324v6.5253z"/>
</g>
<g stroke-width=".033817" aria-label="12 FEET OF">
<path d="m256.36-257.72v-5.2884h-0.59409v-0.82783h0.0682q0.20453 0 0.40905-0.10713t0.34087-0.30192h0.82784v6.5253z"/>
<path d="m258.83-257.72q0.0195-0.57462 0.14609-1.0518 0.12661-0.47722 0.39931-0.94471 0.20452-0.37009 0.50644-0.68174 0.30191-0.3214 0.64279-0.57462 0.0876-0.0487 0.15582-0.0974 0.0682-0.0584 0.13635-0.10713l0.35062-0.18505 0.32139-0.18504 0.31166-0.17531q0.19478-0.12661 0.31165-0.31165 0.12661-0.19479 0.12661-0.39931 0-0.18505-0.0974-0.34087-0.0974-0.16557-0.26296-0.28244-0.15583-0.11687-0.37009-0.18505-0.21426-0.0682-0.45775-0.0682-0.4967 0-0.80835 0.23374-0.30192 0.23374-0.37983 0.68175l-1.0324-0.22401q0.16557-0.81809 0.75966-1.2758 0.59409-0.46748 1.4609-0.46748 0.46749 0 0.8668 0.15583 0.40904 0.15583 0.70122 0.41879 0.30192 0.26295 0.47722 0.62331 0.17531 0.35061 0.17531 0.74992 0 0.37983-0.17531 0.74992-0.16556 0.36035-0.48696 0.64279-0.0779 0.0584-0.14609 0.10713-0.0584 0.0487-0.12661 0.0779l-0.32139 0.20453-0.35061 0.18504-0.3214 0.18505q-0.23374 0.13635-0.41879 0.29217-0.1753 0.14609-0.33113 0.3214-0.14609 0.1753-0.28244 0.38957-0.12661 0.21426-0.24348 0.48696h3.2042v1.0518z"/>
<path d="m267.88-263.21v1.5972h1.8992v1.0518h-1.8992v2.8439h-1.0324v-6.5253h4.0515v1.0324z"/>
<path d="m271.87-257.72v-6.5253h3.847v1.0324h-2.8146v1.5972h1.8992v1.0518h-1.8992v1.792h3.0192v1.0518z"/>
<path d="m277.02-257.72v-6.5253h3.847v1.0324h-2.8146v1.5972h1.8992v1.0518h-1.8992v1.792h3.0192v1.0518z"/>
<path d="m284.12-263.33v5.6098h-1.0324v-5.6098h-1.4901v-0.91549h4.032v0.91549z"/>
<path d="m293.23-260.97q0 0.77914-0.18505 1.4901-0.18504 0.71097-0.52592 1.1492-0.54539 0.73045-1.5778 0.73045-0.69149 0-1.1395-0.28244t-0.74018-0.88627q-0.20453-0.41879-0.33114-1.0129-0.12661-0.60383-0.12661-1.1882 0-0.80835 0.18505-1.4998 0.19478-0.69148 0.52592-1.159 0.29218-0.37009 0.69148-0.54539 0.40905-0.18505 0.97393-0.18505 0.62331 0 1.0616 0.28244 0.43827 0.28244 0.74992 0.88627 0.20453 0.43826 0.3214 1.0226 0.11687 0.58435 0.11687 1.1979zm-1.0324 0q0-0.55513-0.0974-1.0226-0.0974-0.47722-0.29218-0.80835-0.15583-0.25322-0.36035-0.37009-0.19478-0.11687-0.48696-0.13635-0.37983-0.0195-0.63305 0.1753-0.25322 0.19479-0.41879 0.63305-0.12661 0.29218-0.19478 0.71097-0.0584 0.40905-0.0584 0.81809 0 0.52592 0.0974 1.0129t0.29218 0.79862q0.15583 0.25322 0.37009 0.37983t0.52592 0.12661q0.36035 0 0.59409-0.19479 0.24348-0.19478 0.40905-0.63305 0.0487-0.12661 0.0974-0.30191 0.0487-0.18505 0.0779-0.37983 0.0389-0.20453 0.0584-0.40905t0.0195-0.39931z"/>
<path d="m295.71-263.21v1.5972h1.8992v1.0518h-1.8992v2.8439h-1.0324v-6.5253h4.0515v1.0324z"/>
</g>
<g stroke-width=".033817" aria-label="PAVEMENT">
<path d="m260.45-252.62q0 0.26296-0.0779 0.51618-0.0779 0.24348-0.21426 0.46749-0.13635 0.21426-0.3214 0.37983-0.17531 0.16556-0.38957 0.26296-0.224 0.10713-0.52592 0.16556-0.29217 0.0584-0.672 0.0584h-1.2077v2.8438h-1.0324v-6.5253h2.24q0.3993 0 0.672 0.0487 0.28244 0.0389 0.52592 0.15582 0.21426 0.10713 0.38957 0.28244 0.18505 0.16557 0.3214 0.38957 0.13634 0.21426 0.21426 0.46748 0.0779 0.24348 0.0779 0.48696zm-1.0518 0q0-0.20452-0.11688-0.38956-0.10713-0.18505-0.27269-0.29218-0.13635-0.0779-0.26296-0.0974-0.11687-0.0195-0.36035-0.0195h-1.344v1.5972h1.344q0.24348 0 0.36035-0.0195 0.12661-0.0195 0.26296-0.0876 0.16556-0.0876 0.27269-0.28244 0.11688-0.20452 0.11688-0.40905z"/>
<path d="m265.26-247.93-0.64279-1.831h-2.0355l-0.64279 1.831h-1.1005l2.2498-6.5253h1.0226l2.2498 6.5253zm-1.6459-4.7138-0.67201 1.831h1.3051z"/>
<path d="m269.63-247.93h-0.79861l-2.0647-6.5253h1.0811l1.3927 4.3534 1.3732-4.3534h1.1005z"/>
<path d="m272.69-247.93v-6.5253h3.847v1.0324h-2.8146v1.5972h1.8992v1.0518h-1.8992v1.792h3.0192v1.0518z"/>
<path d="m281.89-247.93v-3.7788l-1.5096 3.7788-1.5096-3.7788v3.7788h-1.0324v-6.5253h1.0324l1.5096 3.662 1.5096-3.662h1.0324v6.5253z"/>
<path d="m284.48-247.93v-6.5253h3.847v1.0324h-2.8146v1.5972h1.8992v1.0518h-1.8992v1.792h3.0192v1.0518z"/>
<path d="m293.16-247.93-2.4932-4.4216v4.4216h-1.0324v-6.5253h1.0324l2.3764 4.1684v-4.1684h1.0324v6.5253z"/>
<path d="m297.58-253.54v5.6098h-1.0324v-5.6098h-1.4901v-0.91549h4.032v0.91549z"/>
</g>
<g stroke-width=".033817" aria-label="EDGE">
<path d="m267.08-238.14v-6.5253h3.847v1.0324h-2.8146v1.5972h1.8992v1.0518h-1.8992v1.792h3.0192v1.0518z"/>
<path d="m276.67-241.41q0 0.98366-0.30191 1.7336-0.29218 0.74018-0.84732 1.1687-0.18504 0.1753-0.43826 0.26296-0.24348 0.0876-0.4967 0.10713h-2.3569v-6.5253h2.1037q0.24348 0 0.41878 0.0195 0.18505 0.01 0.33114 0.0487 0.14609 0.0389 0.26296 0.10713 0.11687 0.0682 0.25322 0.16557 0.51618 0.448 0.78887 1.1979 0.28244 0.74018 0.28244 1.7141zm-1.0518 0q0-0.66227-0.14608-1.1784-0.13635-0.51618-0.37983-0.7694-0.12661-0.11687-0.29218-0.19478-0.16557-0.0779-0.37009-0.0779h-1.1687v4.4411h1.0324q0.25322 0 0.41879-0.0584 0.1753-0.0584 0.31165-0.19478 0.29218-0.29218 0.43827-0.79862 0.15582-0.51618 0.15582-1.1687z"/>
<path d="m282.4-240.09q0 0.44801-0.15583 0.82784-0.15583 0.37009-0.42853 0.65252-0.27269 0.2727-0.65252 0.42853t-0.82784 0.15583q-0.74018 0-1.1979-0.28244-0.45775-0.29218-0.74993-0.90575-0.20452-0.43826-0.32139-1.0031-0.10713-0.57461-0.10713-1.1784 0-0.38957 0.0487-0.7694 0.0584-0.38956 0.14609-0.73044 0.0974-0.35061 0.23374-0.64279 0.13635-0.30191 0.30192-0.51618 0.29218-0.36035 0.70123-0.54539 0.41878-0.18505 0.97392-0.18505 0.74992 0 1.2271 0.34088 0.47722 0.33113 0.80836 1.1005l-0.98366 0.38957q-0.20453-0.42853-0.44801-0.60383-0.23374-0.17531-0.60383-0.17531-0.39931 0-0.67201 0.18504-0.26296 0.18505-0.42852 0.62331-0.12661 0.29218-0.19479 0.71097-0.0584 0.40905-0.0584 0.81809 0 0.52592 0.0779 1.0031 0.0877 0.47723 0.24348 0.78888 0.30192 0.52592 0.89601 0.52592 0.4967 0 0.81809-0.28244 0.3214-0.28243 0.3214-0.73044v-0.2727h-1.1882v-1.0324h2.2206v1.3051z"/>
<path d="m283.82-238.14v-6.5253h3.847v1.0324h-2.8146v1.5972h1.8992v1.0518h-1.8992v1.792h3.0192v1.0518z"/>
</g>
</g>
</svg>
