<?xml version="1.0" encoding="UTF-8" standalone="no"?>
<!-- Created with Inkscape (http://www.inkscape.org/) -->

<svg
   xmlns:dc="http://purl.org/dc/elements/1.1/"
   xmlns:cc="http://creativecommons.org/ns#"
   xmlns:rdf="http://www.w3.org/1999/02/22-rdf-syntax-ns#"
   xmlns:svg="http://www.w3.org/2000/svg"
   xmlns="http://www.w3.org/2000/svg"
   xmlns:sodipodi="http://sodipodi.sourceforge.net/DTD/sodipodi-0.dtd"
   xmlns:inkscape="http://www.inkscape.org/namespaces/inkscape"
   width="42in"
   height="36in"
   viewBox="0 0 1066.8 914.40003"
   version="1.1"
   id="svg1008"
   inkscape:version="0.92.2 5c3e80d, 2017-08-06"
   sodipodi:docname="Ohio_MUTCD_R3-H6b.svg">
  <defs
     id="defs1002" />
  <sodipodi:namedview
     id="base"
     pagecolor="#ffffff"
     bordercolor="#666666"
     borderopacity="1.0"
     inkscape:pageopacity="0.0"
     inkscape:pageshadow="2"
     inkscape:zoom="0.175"
     inkscape:cx="1699.4886"
     inkscape:cy="1825.0186"
     inkscape:document-units="in"
     inkscape:current-layer="layer2"
     showgrid="false"
     units="in"
     inkscape:window-width="1440"
     inkscape:window-height="855"
     inkscape:window-x="0"
     inkscape:window-y="1"
     inkscape:window-maximized="1"
     inkscape:snap-midpoints="true" />
  <metadata
     id="metadata1005">
    <rdf:RDF>
      <cc:Work
         rdf:about="">
        <dc:format>image/svg+xml</dc:format>
        <dc:type
           rdf:resource="http://purl.org/dc/dcmitype/StillImage" />
        <dc:title></dc:title>
      </cc:Work>
    </rdf:RDF>
  </metadata>
  <g
     inkscape:label="Sign Back"
     inkscape:groupmode="layer"
     id="layer1"
     transform="translate(0,617.40003)"
     sodipodi:insensitive="true">
    <rect
       style="opacity:1;fill:#ffffff;fill-opacity:1;fill-rule:nonzero;stroke:#000000;stroke-width:1.8989538;stroke-linecap:round;stroke-linejoin:round;stroke-miterlimit:4;stroke-dasharray:none;stroke-opacity:1"
       id="rect2300"
       width="1064.9011"
       height="912.5011"
       x="0.9494769"
       y="-616.45056"
       rx="47.625"
       ry="47.625088" />
    <rect
       style="opacity:1;fill:#ffffff;fill-opacity:1;fill-rule:nonzero;stroke:#000000;stroke-width:19.05000114;stroke-linecap:round;stroke-linejoin:round;stroke-miterlimit:4;stroke-dasharray:none;stroke-opacity:1"
       id="rect2300-9"
       width="1022.35"
       height="869.95001"
       x="22.225021"
       y="-595.17505"
       rx="25.4"
       ry="25.4" />
  </g>
  <g
     inkscape:groupmode="layer"
     id="layer2"
     inkscape:label="Legends">
    <g
       id="g2378" />
    <rect
       style="opacity:1;fill:#000000;fill-opacity:1;fill-rule:nonzero;stroke:none;stroke-width:39.24515152;stroke-linecap:round;stroke-linejoin:miter;stroke-miterlimit:4;stroke-dasharray:none;stroke-opacity:1"
       id="rect3905"
       width="88.900002"
       height="572.41443"
       x="488.95004"
       y="246.73558" />
    <g
       id="g5349">
      <g
         id="g4024"
         transform="translate(2e-5,-1.9e-5)">
        <path
           id="path4015"
           transform="matrix(0.26458334,0,0,0.26458334,-2e-5,1.9e-5)"
           d="M 2604.7207 1330.8047 A 1728 1728 0 0 0 1848 2760 L 2184 2760 A 1392 1392 0 0 1 2794.334 1609.8145 L 2604.7207 1330.8047 z "
           style="opacity:1;fill:#000000;fill-opacity:1;fill-rule:nonzero;stroke:none;stroke-width:473.293396;stroke-linecap:round;stroke-linejoin:miter;stroke-miterlimit:4;stroke-dasharray:none;stroke-opacity:1" />
      </g>
      <path
         inkscape:connector-curvature="0"
         id="rect5200"
         d="m 758.12127,215.93321 a 17.4752,17.4752 0 0 0 -4.63093,24.27622 17.4752,17.4752 0 0 0 3.70639,3.93039 l -0.007,0.021 79.68944,62.21935 28.51445,96.99784 0.009,1.5e-4 a 17.4752,17.4752 0 0 0 2.30317,4.894 17.4752,17.4752 0 0 0 24.27621,4.63093 17.4752,17.4752 0 0 0 6.40156,-8.00433 l 0.017,9.5e-4 76.33208,-192.20455 -206.73454,0.21662 -0.0725,-6e-5 -10e-4,0.004 a 17.4752,17.4752 0 0 0 -9.80299,3.01754 z"
         style="opacity:1;fill:#000000;fill-opacity:1;fill-rule:nonzero;stroke:none;stroke-width:8.76299953;stroke-linecap:round;stroke-linejoin:round;stroke-miterlimit:4;stroke-dasharray:none;stroke-opacity:1" />
      <path
         sodipodi:nodetypes="ccccc"
         inkscape:connector-curvature="0"
         id="rect5207"
         d="m 372.08109,678.5909 147.87418,0.75602 v 88.90001 l -147.87452,-0.40094 z"
         style="opacity:1;fill:#000000;fill-opacity:1;fill-rule:nonzero;stroke:none;stroke-width:8.76299953;stroke-linecap:round;stroke-linejoin:round;stroke-miterlimit:4;stroke-dasharray:none;stroke-opacity:1"
         transform="rotate(-34.2)" />
    </g>
    <path
       style="opacity:1;fill:#000000;fill-opacity:1;fill-rule:nonzero;stroke:none;stroke-width:8.76299953;stroke-linecap:round;stroke-linejoin:round;stroke-miterlimit:4;stroke-dasharray:none;stroke-opacity:1"
       d="m 414.32454,261.03606 a 17.4752,17.4752 0 0 0 17.47541,17.47541 17.4752,17.4752 0 0 0 5.33406,-0.85627 l 0.0135,0.0175 96.25253,-30.93712 96.25253,30.93712 0.005,-0.007 a 17.4752,17.4752 0 0 0 5.34231,0.84592 17.4752,17.4752 0 0 0 17.47541,-17.47541 17.4752,17.4752 0 0 0 -3.02202,-9.79371 l 0.0103,-0.0135 -116.06362,-171.16794 -116.02288,171.10789 -0.0408,0.06 0.003,0.003 a 17.4752,17.4752 0 0 0 -3.01435,9.80398 z"
       id="rect5200-9"
       inkscape:connector-curvature="0" />
    <g
       id="g5359"
       transform="matrix(-1,0,0,1,1066.8076,0)">
      <g
         transform="translate(2e-5,-1.9e-5)"
         id="g5353">
        <path
           style="opacity:1;fill:#000000;fill-opacity:1;fill-rule:nonzero;stroke:none;stroke-width:473.293396;stroke-linecap:round;stroke-linejoin:miter;stroke-miterlimit:4;stroke-dasharray:none;stroke-opacity:1"
           d="M 2604.7207,1330.8047 A 1728,1728 0 0 0 1848,2760 h 336 a 1392,1392 0 0 1 610.334,-1150.1855 z"
           transform="matrix(0.26458334,0,0,0.26458334,-2e-5,1.9e-5)"
           id="path5351"
           inkscape:connector-curvature="0" />
      </g>
      <path
         style="opacity:1;fill:#000000;fill-opacity:1;fill-rule:nonzero;stroke:none;stroke-width:8.76299953;stroke-linecap:round;stroke-linejoin:round;stroke-miterlimit:4;stroke-dasharray:none;stroke-opacity:1"
         d="m 758.12127,215.93321 a 17.4752,17.4752 0 0 0 -4.63093,24.27622 17.4752,17.4752 0 0 0 3.70639,3.93039 l -0.007,0.021 79.68944,62.21935 28.51445,96.99784 0.009,1.5e-4 a 17.4752,17.4752 0 0 0 2.30317,4.894 17.4752,17.4752 0 0 0 24.27621,4.63093 17.4752,17.4752 0 0 0 6.40156,-8.00433 l 0.017,9.5e-4 76.33208,-192.20455 -206.73454,0.21662 -0.0725,-6e-5 -10e-4,0.004 a 17.4752,17.4752 0 0 0 -9.80299,3.01754 z"
         id="path5355"
         inkscape:connector-curvature="0" />
      <path
         transform="rotate(-34.2)"
         style="opacity:1;fill:#000000;fill-opacity:1;fill-rule:nonzero;stroke:none;stroke-width:8.76299953;stroke-linecap:round;stroke-linejoin:round;stroke-miterlimit:4;stroke-dasharray:none;stroke-opacity:1"
         d="m 372.08109,678.5909 147.87418,0.75602 v 88.90001 l -147.87452,-0.40094 z"
         id="path5357"
         inkscape:connector-curvature="0"
         sodipodi:nodetypes="ccccc" />
    </g>
  </g>
</svg>
