<?xml version="1.0" encoding="UTF-8" standalone="no"?>
<!-- Created with Inkscape (http://www.inkscape.org/) -->

<svg
   width="95.313293mm"
   height="21.547253mm"
   viewBox="0 0 95.313293 21.547253"
   version="1.1"
   id="svg1"
   inkscape:version="1.3 (0e150ed, 2023-07-21)"
   sodipodi:docname="MUTCD-OH_D5-H44R.svg"
   xmlns:inkscape="http://www.inkscape.org/namespaces/inkscape"
   xmlns:sodipodi="http://sodipodi.sourceforge.net/DTD/sodipodi-0.dtd"
   xmlns="http://www.w3.org/2000/svg"
   xmlns:svg="http://www.w3.org/2000/svg">
  <sodipodi:namedview
     id="namedview1"
     pagecolor="#ffffff"
     bordercolor="#666666"
     borderopacity="1.0"
     inkscape:showpageshadow="2"
     inkscape:pageopacity="0.0"
     inkscape:pagecheckerboard="0"
     inkscape:deskcolor="#d1d1d1"
     inkscape:document-units="mm"
     inkscape:zoom="2.3786088"
     inkscape:cx="183.09022"
     inkscape:cy="11.771587"
     inkscape:window-width="1440"
     inkscape:window-height="855"
     inkscape:window-x="0"
     inkscape:window-y="23"
     inkscape:window-maximized="1"
     inkscape:current-layer="layer1" />
  <defs
     id="defs1" />
  <g
     inkscape:label="Layer 1"
     inkscape:groupmode="layer"
     id="layer1"
     transform="translate(-56.885416,-137.84791)">
    <path
       id="path2"
       style="fill:#ffffff;stroke:none;stroke-width:0.169333;stroke-linecap:square;stroke-linejoin:miter;stroke-miterlimit:1.414;stroke-dasharray:none;stroke-opacity:1"
       d="M 141.46056,159.27543 H 56.97028 v -21.30778 h 84.49028 l 10.61861,10.65389 z"
       sodipodi:nodetypes="cccccc" />
    <path
       id="path217"
       style="fill:none;stroke:#000000;stroke-width:0.169333;stroke-linecap:square;stroke-linejoin:miter;stroke-miterlimit:1.414;stroke-dasharray:none;stroke-opacity:1"
       d="M 141.46056,159.27543 H 56.97028 v -21.30778 h 84.49028 l 10.61861,10.65389 z"
       sodipodi:nodetypes="cccccc" />
    <path
       id="path1"
       d="m 150.77389,148.62154 -9.70139,-9.70139 H 57.92278 v 19.40278 h 83.14972 l 9.70139,-9.70139"
       style="fill:#003f87;fill-opacity:1;fill-rule:evenodd;stroke:none;stroke-width:0.352778" />
    <path
       id="path218"
       d="m 83.88723,153.63098 h -1.97556 v -5.78556 l -2.89277,5.78556 -2.89278,-5.78556 v 5.78556 h -1.97556 v -10.01889 h 1.97556 l 2.89278,5.60917 2.89277,-5.60917 h 1.97556 v 10.01889"
       style="fill:#ffffff;fill-opacity:1;fill-rule:evenodd;stroke:none;stroke-width:0.352778" />
    <path
       id="path219"
       d="m 93.4475,153.63098 h -7.76111 v -10.01889 h 7.37305 v 1.5875 h -5.3975 v 2.46945 h 3.63362 v 1.62277 h -3.63362 v 2.71639 h 5.78556 v 1.62278"
       style="fill:#ffffff;fill-opacity:1;fill-rule:evenodd;stroke:none;stroke-width:0.352778" />
    <path
       id="path220"
       d="m 103.81917,153.63098 h -1.76389 l -4.7625,-6.77333 v 6.77333 h -1.97555 v -10.01889 h 1.97555 l 4.55083,6.38528 v -6.38528 h 1.97556 v 10.01889"
       style="fill:#ffffff;fill-opacity:1;fill-rule:evenodd;stroke:none;stroke-width:0.352778" />
    <path
       id="path221"
       d="m 143.22445,148.62154 -9.06639,-6.87917 v 3.91584 h -5.00944 v 2.96333 2.96333 h 5.00944 v 3.91584 l 9.06639,-6.87917"
       style="fill:#ffffff;fill-opacity:1;fill-rule:evenodd;stroke:none;stroke-width:0.352778" />
  </g>
</svg>
