<?xml version="1.0" encoding="UTF-8" standalone="no"?>
<!-- Created with Inkscape (http://www.inkscape.org/) -->

<svg
   xmlns:dc="http://purl.org/dc/elements/1.1/"
   xmlns:cc="http://creativecommons.org/ns#"
   xmlns:rdf="http://www.w3.org/1999/02/22-rdf-syntax-ns#"
   xmlns:svg="http://www.w3.org/2000/svg"
   xmlns="http://www.w3.org/2000/svg"
   xmlns:sodipodi="http://sodipodi.sourceforge.net/DTD/sodipodi-0.dtd"
   xmlns:inkscape="http://www.inkscape.org/namespaces/inkscape"
   width="30in"
   height="30in"
   viewBox="0 0 762 762.00002"
   version="1.1"
   id="svg4184"
   inkscape:version="0.92.2 5c3e80d, 2017-08-06"
   sodipodi:docname="Ohio_MUTCD_R3-H8bf.svg">
  <defs
     id="defs4178" />
  <sodipodi:namedview
     id="base"
     pagecolor="#ffffff"
     bordercolor="#666666"
     borderopacity="1.0"
     inkscape:pageopacity="0.0"
     inkscape:pageshadow="2"
     inkscape:zoom="0.12374369"
     inkscape:cx="92.904157"
     inkscape:cy="1532.618"
     inkscape:document-units="in"
     inkscape:current-layer="layer3"
     showgrid="false"
     units="in"
     inkscape:window-width="1440"
     inkscape:window-height="855"
     inkscape:window-x="0"
     inkscape:window-y="1"
     inkscape:window-maximized="1"
     inkscape:snap-bbox="false"
     inkscape:object-paths="false"
     inkscape:snap-midpoints="true" />
  <metadata
     id="metadata4181">
    <rdf:RDF>
      <cc:Work
         rdf:about="">
        <dc:format>image/svg+xml</dc:format>
        <dc:type
           rdf:resource="http://purl.org/dc/dcmitype/StillImage" />
        <dc:title></dc:title>
      </cc:Work>
    </rdf:RDF>
  </metadata>
  <g
     inkscape:label="Sign Back"
     inkscape:groupmode="layer"
     id="layer1"
     transform="translate(0,465.00002)"
     sodipodi:insensitive="true">
    <rect
       style="opacity:1;fill:#ffffff;fill-opacity:1;fill-rule:nonzero;stroke:#000000;stroke-width:1.89194894;stroke-linecap:round;stroke-linejoin:round;stroke-miterlimit:4;stroke-dasharray:none;stroke-opacity:1"
       id="rect2300"
       width="760.10803"
       height="760.10809"
       x="0.9459787"
       y="-464.05405"
       rx="47.625"
       ry="47.625229" />
    <rect
       style="opacity:1;fill:#ffffff;fill-opacity:1;fill-rule:nonzero;stroke:#000000;stroke-width:19.05000114;stroke-linecap:round;stroke-linejoin:round;stroke-miterlimit:4;stroke-dasharray:none;stroke-opacity:1"
       id="rect2300-9"
       width="717.54999"
       height="717.54999"
       x="22.225025"
       y="-442.77499"
       rx="25.4"
       ry="25.4" />
    <rect
       y="-84.000031"
       x="371.60199"
       height="349.25"
       width="17.462502"
       id="rect4833"
       style="opacity:1;fill:#000000;fill-opacity:1;fill-rule:nonzero;stroke:none;stroke-width:16.55076981;stroke-linecap:round;stroke-linejoin:miter;stroke-miterlimit:4;stroke-dasharray:none;stroke-opacity:1" />
  </g>
  <g
     inkscape:groupmode="layer"
     id="layer3"
     inkscape:label="Legends">
    <g
       aria-label="ONLY"
       style="font-style:normal;font-variant:normal;font-weight:normal;font-stretch:normal;font-size:171.95358276px;line-height:125%;font-family:'Roadgeek 2014 Series D';-inkscape-font-specification:'Roadgeek 2014 Series D';text-align:center;letter-spacing:-6.61458349px;word-spacing:0px;text-anchor:middle;fill:#000000;fill-opacity:1;stroke:none;stroke-width:2.68677473px;stroke-linecap:butt;stroke-linejoin:miter;stroke-opacity:1"
       id="text7363"
       transform="translate(-10.925168)">
      <path
         d="m 126.04423,635.1965 q 0,11.98762 -2.84951,22.69787 -2.75126,10.71026 -7.76248,16.99884 -8.05725,10.90677 -23.876981,10.90677 -10.218956,0 -17.097099,-4.22514 -6.878143,-4.22515 -11.201548,-13.26499 -6.878143,-13.46151 -6.878143,-33.11335 0,-24.76131 10.710252,-39.89323 8.548549,-11.10329 25.056093,-11.10329 18.177946,0 27.316056,17.5884 6.58336,13.55976 6.58336,33.40812 z m -15.52495,0 q 0,-17.68665 -5.89555,-27.61083 -4.02863,-7.07466 -12.773693,-7.56596 -10.90677,-0.4913 -15.81973,12.08588 -3.733849,9.23637 -3.733849,23.09091 0,17.98143 5.797292,27.2178 4.421664,7.56595 13.461509,7.56595 10.218961,0 15.131911,-12.47891 3.83211,-9.82592 3.83211,-22.30484 z"
         style="text-align:center;letter-spacing:-6.61458349px;text-anchor:middle;stroke-width:2.68677473px"
         id="path7507"
         inkscape:connector-curvature="0" />
      <path
         d="m 207.88057,684.12958 h -13.85454 l -37.53501,-66.52147 v 66.52147 h -15.42669 v -98.25919 h 15.42669 l 35.8646,62.78762 v -62.78762 h 15.52495 z"
         style="text-align:center;letter-spacing:-6.61458349px;text-anchor:middle;stroke-width:2.68677473px"
         id="path7509"
         inkscape:connector-curvature="0" />
      <path
         d="m 285.71325,684.12958 h -60.9207 v -98.25919 h 15.42669 v 83.81509 h 45.49401 z"
         style="text-align:center;letter-spacing:-6.61458349px;text-anchor:middle;stroke-width:2.68677473px"
         id="path7511"
         inkscape:connector-curvature="0" />
      <path
         d="m 368.81352,585.87039 -33.99768,55.51644 v 42.74275 h -15.62322 v -42.74275 l -34.29245,-55.51644 h 18.47272 l 23.58221,38.0263 23.68047,-38.0263 z"
         style="text-align:center;letter-spacing:-6.61458349px;text-anchor:middle;stroke-width:2.68677473px"
         id="path7513"
         inkscape:connector-curvature="0" />
    </g>
    <g
       transform="translate(347.97684)"
       id="g10638"
       style="font-style:normal;font-variant:normal;font-weight:normal;font-stretch:normal;font-size:171.95358276px;line-height:125%;font-family:'Roadgeek 2014 Series D';-inkscape-font-specification:'Roadgeek 2014 Series D';text-align:center;letter-spacing:-6.61458349px;word-spacing:0px;text-anchor:middle;fill:#000000;fill-opacity:1;stroke:none;stroke-width:2.68677473px;stroke-linecap:butt;stroke-linejoin:miter;stroke-opacity:1"
       aria-label="ONLY">
      <path
         inkscape:connector-curvature="0"
         id="path10630"
         style="text-align:center;letter-spacing:-6.61458349px;text-anchor:middle;stroke-width:2.68677473px"
         d="m 126.04423,635.1965 q 0,11.98762 -2.84951,22.69787 -2.75126,10.71026 -7.76248,16.99884 -8.05725,10.90677 -23.876981,10.90677 -10.218956,0 -17.097099,-4.22514 -6.878143,-4.22515 -11.201548,-13.26499 -6.878143,-13.46151 -6.878143,-33.11335 0,-24.76131 10.710252,-39.89323 8.548549,-11.10329 25.056093,-11.10329 18.177946,0 27.316056,17.5884 6.58336,13.55976 6.58336,33.40812 z m -15.52495,0 q 0,-17.68665 -5.89555,-27.61083 -4.02863,-7.07466 -12.773693,-7.56596 -10.90677,-0.4913 -15.81973,12.08588 -3.733849,9.23637 -3.733849,23.09091 0,17.98143 5.797292,27.2178 4.421664,7.56595 13.461509,7.56595 10.218961,0 15.131911,-12.47891 3.83211,-9.82592 3.83211,-22.30484 z" />
      <path
         inkscape:connector-curvature="0"
         id="path10632"
         style="text-align:center;letter-spacing:-6.61458349px;text-anchor:middle;stroke-width:2.68677473px"
         d="m 207.88057,684.12958 h -13.85454 l -37.53501,-66.52147 v 66.52147 h -15.42669 v -98.25919 h 15.42669 l 35.8646,62.78762 v -62.78762 h 15.52495 z" />
      <path
         inkscape:connector-curvature="0"
         id="path10634"
         style="text-align:center;letter-spacing:-6.61458349px;text-anchor:middle;stroke-width:2.68677473px"
         d="m 285.71325,684.12958 h -60.9207 v -98.25919 h 15.42669 v 83.81509 h 45.49401 z" />
      <path
         inkscape:connector-curvature="0"
         id="path10636"
         style="text-align:center;letter-spacing:-6.61458349px;text-anchor:middle;stroke-width:2.68677473px"
         d="m 368.81352,585.87039 -33.99768,55.51644 v 42.74275 h -15.62322 v -42.74275 l -34.29245,-55.51644 h 18.47272 l 23.58221,38.0263 23.68047,-38.0263 z" />
    </g>
    <g
       transform="translate(-311.14996,274.50003)"
       id="g11928">
      <path
         inkscape:connector-curvature="0"
         id="rect11898"
         transform="matrix(0.26458333,0,0,0.26458333,-1778,-1252.4)"
         d="m 10110.994,4252.8574 -106.953,42.2383 A 672,672 0 0 0 9600,4911.3594 V 5760 h 240 v -848.6406 a 432,432 0 0 1 259.945,-395.6973 l -0.201,-0.4648 106.951,-42.2442 z"
         style="opacity:1;fill:#000000;fill-opacity:1;fill-rule:nonzero;stroke:none;stroke-width:49.99200821;stroke-linecap:round;stroke-linejoin:round;stroke-miterlimit:4;stroke-dasharray:none;stroke-opacity:1" />
      <path
         inkscape:connector-curvature="0"
         id="path11904"
         transform="matrix(0.26458333,0,0,0.26458333,-1778,-1252.4)"
         d="m 10015.289,4076.1543 a 48,48 0 0 0 -18.6523,3.9785 48,48 0 0 0 -24.8789,63.1582 48,48 0 0 0 7.7442,12.2168 l -0.027,0.047 179.371,207.3496 29.314,272.5977 v 0 a 48,48 0 0 0 3.699,14.0039 48,48 0 0 0 63.158,24.8789 48,48 0 0 0 21.522,-18.6055 l 0.05,0.012 294.966,-472.3438 -546.619,-106.414 v 0.01 a 48,48 0 0 0 -9.654,-0.8867 z"
         style="opacity:1;fill:#000000;fill-opacity:1;fill-rule:nonzero;stroke:none;stroke-width:17.94890404;stroke-linecap:round;stroke-linejoin:round;stroke-miterlimit:4;stroke-dasharray:none;stroke-opacity:1" />
    </g>
    <g
       id="g11955"
       transform="translate(-669.79797,274.50003)">
      <path
         style="opacity:1;fill:#000000;fill-opacity:1;fill-rule:nonzero;stroke:none;stroke-width:49.99200821;stroke-linecap:round;stroke-linejoin:round;stroke-miterlimit:4;stroke-dasharray:none;stroke-opacity:1"
         d="m 10110.994,4252.8574 -106.953,42.2383 A 672,672 0 0 0 9600,4911.3594 V 5760 h 240 v -848.6406 a 432,432 0 0 1 259.945,-395.6973 l -0.201,-0.4648 106.951,-42.2442 z"
         transform="matrix(0.26458333,0,0,0.26458333,-1778,-1252.4)"
         id="path11951"
         inkscape:connector-curvature="0" />
      <path
         style="opacity:1;fill:#000000;fill-opacity:1;fill-rule:nonzero;stroke:none;stroke-width:17.94890404;stroke-linecap:round;stroke-linejoin:round;stroke-miterlimit:4;stroke-dasharray:none;stroke-opacity:1"
         d="m 10015.289,4076.1543 a 48,48 0 0 0 -18.6523,3.9785 48,48 0 0 0 -24.8789,63.1582 48,48 0 0 0 7.7442,12.2168 l -0.027,0.047 179.371,207.3496 29.314,272.5977 v 0 a 48,48 0 0 0 3.699,14.0039 48,48 0 0 0 63.158,24.8789 48,48 0 0 0 21.522,-18.6055 l 0.05,0.012 294.966,-472.3438 -546.619,-106.414 v 0.01 a 48,48 0 0 0 -9.654,-0.8867 z"
         transform="matrix(0.26458333,0,0,0.26458333,-1778,-1252.4)"
         id="path11953"
         inkscape:connector-curvature="0" />
    </g>
  </g>
</svg>
