<?xml version="1.0" encoding="UTF-8"?>
<svg width="10800" height="5400" viewBox="0 0 8640 4320" xmlns="http://www.w3.org/2000/svg">
<defs>
<style>.a{fill:#fff;}</style>
</defs>
<rect class="a" x="4e-4" y="2e-4" width="8640" height="4320" rx="432"/>
<path transform="translate(2e-4 1e-4)" d="m8208 9a422.64 422.64 0 0 1 423 423v3456a422.64 422.64 0 0 1-423 423h-7776a422.64 422.64 0 0 1-423-423v-3456a422.64 422.64 0 0 1 423-423h7776m0-9h-7776c-238.59 0-432 193.41-432 432v3456c0 238.59 193.41 432 432 432h7776c238.59 0 432-193.41 432-432v-3456c0-238.59-193.41-432-432-432z"/>
<path transform="translate(2e-4 1e-4)" d="M8586,432c4.2-203.18-174.81-382.2-378-378H432C228.82,49.8,49.8,228.82,54,432V3888c-4.2,203.18,174.82,382.2,378,378H8208c203.18,4.2,382.2-174.82,378-378ZM8215.01,4176.07c-2.34.01-4.68-.06-7.01-.07H432c-148.65,6.65-294.61-136.44-288-288V432c-6.61-151.56,139.37-294.63,288-288H8208c148.66-6.63,294.61,136.43,288,288V3888C8502.58,4037,8360.93,4178.54,8215.01,4176.07Z"/>
<path transform="translate(2e-4 1e-4)" d="m3851.4 1296h-536.52v-719h524.7v129h-393.7v134h214.55v131h-214.55v196h405.52zm718.58 0h-110.31l-342.69-485.06v485.06h-126v-719h126l330 479.69v-479.69h123zm755.14-360.58q0 221.09-173.78 317.66-78.328 42.938-169.5 42.922h-231.72v-719h231.72q92.25 0 171.64 46.141 171.63 97.664 171.64 312.28zm-129 0q0-142.57-106.08-201.55-49.289-27.867-108.2-27.875h-100.72v461h100.72q52.5 0 102.86-27.875 111.42-60.023 111.42-203.7z"/>
<path transform="translate(2e-4 1e-4)" d="m1381.1 1928h-207.05v592h-126v-592h-207.06v-127h540.11zm722.8 592h-144.02l-115.55-282h-190.45v282h-129v-719h330.25q70.758 0 123.31 30.047 110.44 64.406 110.44 189.95 0 127.71-116.09 191.02zm-144.02-498.89q0-41.789-27.828-66.453-27.82-24.656-74.891-24.656h-203.28v179h203.28q47.062 0 74.891-24.109 27.82-24.118 27.828-63.781zm892.66 209.22q0 132.02-81.641 217.34-81.633 85.336-208.36 85.328-126.75 0-208.38-85.328-81.633-85.312-81.625-217.34v-429.33h129v429.28q0 54.75 22.531 93.375 47.203 78.352 138.44 78.344 92.273 0 138.42-78.344 23.602-38.625 23.609-93.375v-429.28h128zm747.3 143.84q-99.773 158.84-277.84 158.83-140.55 0-222.67-101.98-82.125-102-82.125-271.62 0-170.7 81.594-270.55 81.586-99.844 223.2-99.844 179.16 0 277.84 159.11l-116.92 57.922q-55.805-85.805-160.92-89.031-81.539 2.1563-127.67 72.438-46.125 70.312-46.125 167.95 0 115.92 47.734 179.77 47.742 63.844 128.2 63.844 107.27-1.0782 155.56-86.906zm747.69 145.83h-146.97l-183.45-373.45-136.25 171.7v201.75h-129v-719h129v305.84l254.27-305.84h166.28l-190.97 235.02zm1237 0h-536.52v-719h131v590h405.52zm789.65 0h-139.47l-69.734-168h-313.25l-70.812 168h-140.53l302.53-719h130.88zm-264.98-297-100.84-242.45-100.84 242.45zm980.72 297h-110.31l-342.69-485.06v485.06h-126v-719h126l330 479.69v-479.69h123zm709.17 0h-536.52v-719h524.7v129h-393.7v134h214.55v131h-214.55v196h405.52z"/>
<path transform="translate(2e-4 1e-4)" d="m1439.4 3744h-144.02l-115.55-282h-190.45v282h-129v-719h330.25q70.758 0 123.31 30.047 110.44 64.406 110.44 189.95 0 127.71-116.09 191.02zm-144.02-498.89q0-41.789-27.828-66.453-27.82-24.656-74.891-24.656h-203.28v179h203.28q47.062 0 74.891-24.109 27.82-24.118 27.828-63.781zm852.56 498.89h-536.52v-719h524.7v129h-393.7v134h214.55v131h-214.55v196h405.52zm715.12-208.86q-1.0782 95.391-74.734 158.62-73.64 63.234-205.59 63.234-175.95 0-286.44-147.67l107.28-72.953q72.938 95.484 183.44 97.625 68.648 1.0781 107.81-26.828 39.164-27.891 40.234-74.047 3.2343-38.625-31.109-63.312-34.336-24.68-139.47-49.375-146.98-34.336-196.86-84.781-49.875-50.438-50.953-118.05-2.1562-78.328 67.047-138.97 69.188-60.633 179.7-60.641 174.87 8.625 268.45 136.64l-102.17 67.594q-59.016-68.648-166.28-77.234-57.938 0-87.984 21.438-30.047 21.445-27.875 48.234-1.0782 30 32.172 49.297 33.258 19.312 95.484 31.078 150.19 27.89 218.47 90.578 68.297 62.719 69.375 149.52zm686.44-383.14h-207.05v592h-126v-592h-207.06v-127h540.11zm716.36 592h-144.02l-115.55-282h-190.45v282h-129v-719h330.25q70.758 0 123.31 30.047 110.44 64.406 110.44 189.95 0 127.71-116.09 191.02zm-144.02-498.89q0-41.789-27.828-66.453-27.82-24.656-74.891-24.656h-203.28v179h203.28q47.062 0 74.891-24.109 27.82-24.118 27.828-63.781zm448.02 498.89h-129v-719h129zm764.21-145.83q-99.773 158.84-277.84 158.83-140.55 0-222.67-101.98-82.125-102-82.125-271.62 0-170.7 81.594-270.55 81.586-99.844 223.2-99.844 179.16 0 277.84 159.11l-116.92 57.922q-55.805-85.805-160.92-89.031-81.539 2.1563-127.67 72.438-46.125 70.312-46.125 167.95 0 115.92 47.734 179.77 47.742 63.844 128.2 63.844 107.27-1.0782 155.56-86.906zm639.62-446.17h-207.05v592h-126v-592h-207.06v-127h540.11zm262.15 592h-129v-719h129zm773.57-362.75q0 168.56-81.016 272.16-81.023 103.59-216.23 103.59-148.08 0-231.78-119.17-72.984-103.05-72.969-254.44 0-171.77 81.547-271.08 81.562-99.305 223.2-99.312 133.05 0 215.16 101.45 82.078 101.46 82.094 266.8zm-128 2.1719q0-113.7-44.484-178.06-44.484-64.36-124.88-64.359-81.469 0-127.55 64.359-46.102 64.359-46.094 178.06 0 114.8 46.094 179.69 46.078 64.898 127.55 64.891 92.18 0 135.06-80.453 34.289-63.281 34.297-164.12zm898.17 360.58h-110.31l-342.69-485.06v485.06h-126v-719h126l330 479.69v-479.69h123z"/>
</svg>
