<?xml version="1.0" encoding="UTF-8" standalone="no"?>
<!-- Created with Inkscape (http://www.inkscape.org/) -->

<svg
   width="71.007111mm"
   height="35.588223mm"
   viewBox="0 0 71.007111 35.588223"
   version="1.1"
   id="svg1"
   inkscape:version="1.3 (0e150ed, 2023-07-21)"
   sodipodi:docname="MUTCD-OH_D5-H23.svg"
   xmlns:inkscape="http://www.inkscape.org/namespaces/inkscape"
   xmlns:sodipodi="http://sodipodi.sourceforge.net/DTD/sodipodi-0.dtd"
   xmlns="http://www.w3.org/2000/svg"
   xmlns:svg="http://www.w3.org/2000/svg">
  <sodipodi:namedview
     id="namedview1"
     pagecolor="#ffffff"
     bordercolor="#666666"
     borderopacity="1.0"
     inkscape:showpageshadow="2"
     inkscape:pageopacity="0.0"
     inkscape:pagecheckerboard="0"
     inkscape:deskcolor="#d1d1d1"
     inkscape:document-units="mm"
     inkscape:zoom="3.3638608"
     inkscape:cx="132.43711"
     inkscape:cy="50.239891"
     inkscape:window-width="1440"
     inkscape:window-height="855"
     inkscape:window-x="0"
     inkscape:window-y="23"
     inkscape:window-maximized="1"
     inkscape:current-layer="layer1" />
  <defs
     id="defs1" />
  <g
     inkscape:label="Layer 1"
     inkscape:groupmode="layer"
     id="layer1"
     transform="translate(-69.056246,-130.70416)">
    <path
       id="path1"
       style="fill:#ffffff;stroke:none;stroke-width:0.169333;stroke-linecap:square;stroke-linejoin:round;stroke-miterlimit:1.414;stroke-dasharray:none;stroke-opacity:1"
       d="m 69.140912,162.29188 c 0,1.02306 0.388055,2.04612 1.128889,2.78695 0.740833,0.74083 1.763888,1.12889 2.786944,1.12889 h 63.006115 c 1.02305,0 2.04611,-0.38805 2.78694,-1.12889 0.74083,-0.74083 1.12889,-1.76388 1.12889,-2.78694 l -1e-5,-27.58723 c 0,-1.02305 -0.38805,-2.04611 -1.12889,-2.75166 -0.74083,-0.74084 -1.76388,-1.16417 -2.78694,-1.16417 H 73.056743 c -1.023054,0 -2.046109,0.42333 -2.786942,1.16417 -0.740834,0.70555 -1.128889,1.72861 -1.128889,2.75166 z"
       sodipodi:nodetypes="csccscccccccc" />
    <path
       id="path414"
       style="fill:none;stroke:#000000;stroke-width:0.169333;stroke-linecap:square;stroke-linejoin:round;stroke-miterlimit:1.414;stroke-dasharray:none;stroke-opacity:1"
       d="m 69.140912,162.29188 c 0,1.02306 0.388055,2.04612 1.128889,2.78695 0.740833,0.74083 1.763888,1.12889 2.786944,1.12889 h 63.006115 c 1.02305,0 2.04611,-0.38805 2.78694,-1.12889 0.74083,-0.74083 1.12889,-1.76388 1.12889,-2.78694 l -1e-5,-27.58723 c 0,-1.02305 -0.38805,-2.04611 -1.12889,-2.75166 -0.74083,-0.74084 -1.76388,-1.16417 -2.78694,-1.16417 H 73.056743 c -1.023054,0 -2.046109,0.42333 -2.786942,1.16417 -0.740834,0.70555 -1.128889,1.72861 -1.128889,2.75166 z"
       sodipodi:nodetypes="csccscccccccc" />
    <path
       id="path415"
       d="m 76.866745,153.29605 c 0,0.77611 -0.105833,1.34056 -0.3175,1.69333 -0.211667,0.35278 -0.458611,0.52917 -0.776111,0.52917 h -0.917222 v -4.40972 h 0.917222 c 0.3175,0 0.564444,0.17639 0.776111,0.52916 0.211667,0.35278 0.3175,0.91723 0.3175,1.65806 m -1.552222,0 v 1.51694 h 0.458611 c 0.211667,0 0.352778,-0.14111 0.458611,-0.42333 0.105833,-0.24694 0.176389,-0.635 0.176389,-1.09361 0,-0.45861 -0.07056,-0.84667 -0.176389,-1.09361 -0.03528,-0.14111 -0.105833,-0.24695 -0.176389,-0.28222 -0.105833,-0.0706 -0.176389,-0.10584 -0.282222,-0.14111 h -0.458611 v 1.51694"
       style="fill:#000000;fill-opacity:1;fill-rule:evenodd;stroke:none;stroke-width:0.352778" />
    <path
       id="path416"
       d="m 79.124522,155.51855 h -1.834444 v -4.40972 h 1.763888 v 0.67028 h -1.269999 v 1.09361 h 0.846666 v 0.74083 h -0.846666 v 1.19944 h 1.340555 v 0.70556"
       style="fill:#000000;fill-opacity:1;fill-rule:evenodd;stroke:none;stroke-width:0.352778" />
    <path
       id="path417"
       d="m 80.888411,152.09661 c -0.07056,-0.24694 -0.211667,-0.38806 -0.423333,-0.38806 -0.105834,0 -0.211667,0.0353 -0.282223,0.14112 -0.07055,0.10583 -0.105833,0.24694 -0.105833,0.38805 0,0.10583 0.03528,0.21167 0.105833,0.28222 0.07056,0.0706 0.176389,0.14111 0.3175,0.17639 0.352778,0.10584 0.599723,0.28222 0.776112,0.52917 0.141111,0.28222 0.246944,0.59972 0.246944,0.91722 0,0.38806 -0.105833,0.74083 -0.282222,1.02306 -0.211667,0.28222 -0.458611,0.42333 -0.740834,0.42333 -0.211666,0 -0.423333,-0.0706 -0.564444,-0.24694 -0.176389,-0.17639 -0.3175,-0.42334 -0.423333,-0.77612 l 0.423333,-0.35277 c 0.141111,0.45861 0.352778,0.67027 0.599722,0.67027 0.141111,0 0.246945,-0.0706 0.352778,-0.24694 0.105833,-0.14111 0.141111,-0.3175 0.141111,-0.52917 0,-0.14111 -0.03528,-0.24694 -0.105833,-0.38805 -0.07056,-0.14111 -0.246945,-0.24695 -0.423334,-0.28222 -0.282222,-0.0706 -0.529166,-0.21167 -0.670277,-0.38806 -0.141111,-0.21167 -0.211667,-0.42333 -0.211667,-0.70556 0,-0.3175 0.07056,-0.635 0.211667,-0.91722 0.176389,-0.28222 0.388055,-0.38805 0.635,-0.38805 0.176389,0 0.352777,0.0706 0.493889,0.17639 0.141111,0.14111 0.246944,0.3175 0.3175,0.59972 l -0.388056,0.28222"
       style="fill:#000000;fill-opacity:1;fill-rule:evenodd;stroke:none;stroke-width:0.352778" />
    <path
       id="path418"
       d="m 83.710635,151.70855 h -0.670278 v 3.81 h -0.493889 v -3.81 h -0.670277 v -0.59972 h 1.834444 v 0.59972"
       style="fill:#000000;fill-opacity:1;fill-rule:evenodd;stroke:none;stroke-width:0.352778" />
    <path
       id="path419"
       d="m 86.144801,155.51855 h -0.493889 l -0.458611,-1.905 h -0.564444 v 1.905 h -0.458611 v -4.40972 h 1.164166 c 0.211667,0 0.423333,0.10583 0.564445,0.38805 0.141111,0.24695 0.211666,0.52917 0.211666,0.84667 0,0.21167 -0.03528,0.45861 -0.141111,0.67028 -0.03528,0.10583 -0.07055,0.17639 -0.141111,0.24694 -0.07056,0.0706 -0.105833,0.14111 -0.176389,0.17639 l 0.493889,2.08139 m -0.493889,-3.175 c 0,-0.14111 -0.03528,-0.28222 -0.105833,-0.38806 -0.07056,-0.10583 -0.141111,-0.14111 -0.246945,-0.14111 h -0.670277 v 1.09361 h 0.705555 c 0.07056,0 0.141111,-0.0353 0.211667,-0.14111 0.07055,-0.10583 0.105833,-0.24694 0.105833,-0.42333"
       style="fill:#000000;fill-opacity:1;fill-rule:evenodd;stroke:none;stroke-width:0.352778" />
    <path
       id="path420"
       d="m 88.614245,153.93105 c 0,0.35278 -0.03528,0.67028 -0.141111,0.91722 -0.07056,0.21167 -0.176389,0.38806 -0.352778,0.52917 -0.176389,0.14111 -0.3175,0.21167 -0.529167,0.21167 -0.176388,0 -0.352777,-0.0706 -0.493888,-0.21167 -0.176389,-0.14111 -0.282223,-0.3175 -0.352778,-0.52917 -0.105833,-0.24694 -0.141111,-0.56444 -0.141111,-0.91722 v -2.82222 h 0.458611 v 2.82222 c 0,0.28222 0.07055,0.52917 0.141111,0.70556 0.105833,0.17638 0.246944,0.24694 0.388055,0.24694 0.176389,0 0.3175,-0.0706 0.388056,-0.24694 0.105833,-0.17639 0.176389,-0.42334 0.176389,-0.70556 v -2.82222 h 0.458611 v 2.82222"
       style="fill:#000000;fill-opacity:1;fill-rule:evenodd;stroke:none;stroke-width:0.352778" />
    <path
       id="path421"
       d="m 90.131188,154.88355 c 0.105833,0 0.211667,-0.0353 0.282222,-0.10583 0.07056,-0.0706 0.141111,-0.21167 0.176389,-0.35278 l 0.458611,0.3175 c -0.176389,0.56444 -0.493889,0.84667 -0.917222,0.84667 -0.352778,0 -0.599722,-0.21167 -0.811389,-0.59973 -0.176389,-0.38805 -0.282222,-0.9525 -0.282222,-1.69333 0,-0.70556 0.105833,-1.27 0.282222,-1.65806 0.211667,-0.42333 0.458611,-0.59972 0.811389,-0.59972 0.211667,0 0.388056,0.0706 0.564444,0.21167 0.141112,0.14111 0.246945,0.35278 0.352778,0.59972 l -0.458611,0.3175 c -0.07055,-0.28222 -0.246944,-0.45861 -0.458611,-0.45861 -0.211667,0 -0.352778,0.17639 -0.458611,0.45861 -0.07056,0.28222 -0.141111,0.67028 -0.141111,1.12889 0,0.49389 0.07055,0.88194 0.141111,1.16417 0.105833,0.28222 0.246944,0.42333 0.458611,0.42333"
       style="fill:#000000;fill-opacity:1;fill-rule:evenodd;stroke:none;stroke-width:0.352778" />
    <path
       id="path422"
       d="M 93.306188,151.70855 H 92.63591 v 3.81 h -0.458611 v -3.81 h -0.670278 v -0.59972 h 1.799167 v 0.59972"
       style="fill:#000000;fill-opacity:1;fill-rule:evenodd;stroke:none;stroke-width:0.352778" />
    <path
       id="path423"
       d="m 94.364522,155.51855 h -0.458611 v -4.40972 h 0.458611 v 4.40972"
       style="fill:#000000;fill-opacity:1;fill-rule:evenodd;stroke:none;stroke-width:0.352778" />
    <path
       id="path424"
       d="m 95.987301,155.58911 c -0.352778,0 -0.599722,-0.17639 -0.776111,-0.56444 -0.211667,-0.42334 -0.282222,-0.98778 -0.282222,-1.72862 0,-0.70555 0.07055,-1.27 0.282222,-1.65805 0.176389,-0.42333 0.423333,-0.59972 0.776111,-0.59972 0.352778,0 0.635,0.17639 0.811389,0.59972 0.176389,0.38805 0.282222,0.9525 0.282222,1.65805 0,0.74084 -0.105833,1.30528 -0.282222,1.72862 -0.176389,0.38805 -0.458611,0.56444 -0.811389,0.56444 m 0,-3.88056 c -0.211667,0 -0.352778,0.17639 -0.458611,0.45862 -0.07056,0.28222 -0.141111,0.67027 -0.141111,1.12888 0,0.52917 0.07055,0.91723 0.141111,1.16417 0.105833,0.28222 0.246944,0.42333 0.458611,0.42333 0.246944,-0.0353 0.388056,-0.17638 0.458611,-0.42333 0.105833,-0.28222 0.141111,-0.67028 0.141111,-1.16417 0,-0.49388 -0.03528,-0.88194 -0.141111,-1.12888 -0.105833,-0.28223 -0.246944,-0.42334 -0.458611,-0.45862"
       style="fill:#000000;fill-opacity:1;fill-rule:evenodd;stroke:none;stroke-width:0.352778" />
    <path
       id="path425"
       d="m 99.479801,155.51855 h -0.423333 l -1.128889,-2.99861 v 2.99861 h -0.458611 v -4.40972 h 0.458611 l 1.058333,2.82222 v -2.82222 h 0.493889 v 4.40972"
       style="fill:#000000;fill-opacity:1;fill-rule:evenodd;stroke:none;stroke-width:0.352778" />
    <path
       id="path426"
       d="m 106.28841,155.58911 c -0.35278,0 -0.59972,-0.17639 -0.81139,-0.56444 -0.17639,-0.42334 -0.24694,-0.98778 -0.24694,-1.72862 0,-0.70555 0.0705,-1.27 0.24694,-1.65805 0.21167,-0.42333 0.45861,-0.59972 0.81139,-0.59972 0.35278,0 0.635,0.17639 0.81139,0.59972 0.17639,0.38805 0.28222,0.9525 0.28222,1.65805 0,0.74084 -0.10583,1.30528 -0.28222,1.72862 -0.17639,0.38805 -0.45861,0.56444 -0.81139,0.56444 m 0,-3.88056 c -0.21167,0 -0.35278,0.17639 -0.45861,0.45862 -0.0706,0.28222 -0.14111,0.67027 -0.14111,1.12888 0,0.52917 0.0706,0.91723 0.14111,1.16417 0.10583,0.28222 0.24694,0.42333 0.45861,0.42333 0.21167,-0.0353 0.38806,-0.17638 0.45861,-0.42333 0.10583,-0.28222 0.14111,-0.67028 0.14111,-1.16417 0,-0.49388 -0.0353,-0.88194 -0.14111,-1.12888 -0.10583,-0.28223 -0.24694,-0.42334 -0.45861,-0.45862"
       style="fill:#000000;fill-opacity:1;fill-rule:evenodd;stroke:none;stroke-width:0.352778" />
    <path
       id="path427"
       d="m 109.60452,151.77911 h -1.37583 v 1.09361 h 0.84666 v 0.74083 h -0.84666 v 1.905 h -0.45861 v -4.40972 h 1.83444 v 0.67028"
       style="fill:#000000;fill-opacity:1;fill-rule:evenodd;stroke:none;stroke-width:0.352778" />
    <path
       id="path428"
       d="m 116.09563,153.61355 h -0.56444 v 1.905 h -0.45862 v -4.40972 h 0.9525 c 0.24695,0 0.42334,0.0353 0.52917,0.14111 0.14111,0.0705 0.24695,0.24694 0.3175,0.42333 0.10583,0.21167 0.14111,0.42334 0.14111,0.67028 0,0.21167 -0.0353,0.42333 -0.10583,0.635 -0.0706,0.17639 -0.17639,0.35278 -0.3175,0.45861 -0.10583,0.10583 -0.28222,0.17639 -0.49389,0.17639 m 0.45861,-1.27 c 0,-0.17639 -0.0353,-0.28222 -0.10583,-0.38806 -0.0706,-0.10583 -0.14111,-0.14111 -0.24695,-0.14111 h -0.67027 v 1.09361 h 0.70555 c 0.0706,0 0.14111,-0.0706 0.21167,-0.14111 0.0706,-0.10583 0.10583,-0.24694 0.10583,-0.42333"
       style="fill:#000000;fill-opacity:1;fill-rule:evenodd;stroke:none;stroke-width:0.352778" />
    <path
       id="path429"
       d="m 119.4823,155.51855 h -0.49389 l -0.49389,-1.905 h -0.52916 v 1.905 h -0.49389 v -4.40972 h 1.16416 c 0.24695,0 0.45861,0.10583 0.59973,0.38805 0.10583,0.24695 0.17638,0.52917 0.17638,0.84667 0,0.21167 -0.0353,0.45861 -0.10583,0.67028 -0.0353,0.10583 -0.10583,0.17639 -0.14111,0.24694 -0.0706,0.0706 -0.14111,0.14111 -0.17639,0.17639 l 0.49389,2.08139 m -0.52917,-3.175 c 0,-0.14111 -0.0353,-0.28222 -0.10583,-0.38806 -0.0706,-0.10583 -0.14111,-0.14111 -0.21167,-0.14111 h -0.67027 v 1.09361 h 0.67027 c 0.10584,0 0.17639,-0.0353 0.24695,-0.14111 0.0705,-0.10583 0.0705,-0.24694 0.0705,-0.42333"
       style="fill:#000000;fill-opacity:1;fill-rule:evenodd;stroke:none;stroke-width:0.352778" />
    <path
       id="path430"
       d="m 120.96397,155.58911 c -0.35278,0 -0.635,-0.17639 -0.81139,-0.56444 -0.17639,-0.42334 -0.28222,-0.98778 -0.28222,-1.72862 0,-0.70555 0.10583,-1.27 0.28222,-1.65805 0.17639,-0.42333 0.45861,-0.59972 0.81139,-0.59972 0.35278,0 0.59972,0.17639 0.77611,0.59972 0.21167,0.38805 0.28222,0.9525 0.28222,1.65805 0,0.74084 -0.0705,1.30528 -0.28222,1.72862 -0.17639,0.38805 -0.42333,0.56444 -0.77611,0.56444 m 0,-3.88056 c -0.21167,0 -0.35278,0.17639 -0.45861,0.45862 -0.10583,0.28222 -0.14111,0.67027 -0.14111,1.12888 0,0.52917 0.0353,0.91723 0.14111,1.16417 0.0705,0.28222 0.24694,0.42333 0.45861,0.42333 0.21167,-0.0353 0.35278,-0.17638 0.45861,-0.42333 0.0706,-0.28222 0.10583,-0.67028 0.14111,-1.16417 -0.0353,-0.49388 -0.0705,-0.88194 -0.17639,-1.12888 -0.0705,-0.28223 -0.24694,-0.42334 -0.42333,-0.45862"
       style="fill:#000000;fill-opacity:1;fill-rule:evenodd;stroke:none;stroke-width:0.352778" />
    <path
       id="path431"
       d="m 123.46869,153.61355 h -0.56444 v 1.905 h -0.45862 v -4.40972 h 0.98778 c 0.21167,0 0.38806,0.0353 0.49389,0.14111 0.14111,0.0705 0.24695,0.24694 0.35278,0.42333 0.0705,0.21167 0.10583,0.42334 0.10583,0.67028 0,0.21167 -0.0353,0.42333 -0.10583,0.635 -0.0706,0.17639 -0.14111,0.35278 -0.28222,0.45861 -0.14111,0.10583 -0.3175,0.17639 -0.52917,0.17639 m 0.45861,-1.27 c 0,-0.17639 -0.0353,-0.28222 -0.10583,-0.38806 -0.0706,-0.10583 -0.14111,-0.14111 -0.24695,-0.14111 h -0.67027 v 1.09361 h 0.70555 c 0.0706,0 0.14111,-0.0706 0.21167,-0.14111 0.0705,-0.10583 0.10583,-0.24694 0.10583,-0.42333"
       style="fill:#000000;fill-opacity:1;fill-rule:evenodd;stroke:none;stroke-width:0.352778" />
    <path
       id="path432"
       d="m 126.67897,155.51855 h -1.79917 v -4.40972 h 1.72861 v 0.67028 h -1.27 v 1.09361 h 0.84667 v 0.74083 h -0.84667 v 1.19944 h 1.34056 v 0.70556"
       style="fill:#000000;fill-opacity:1;fill-rule:evenodd;stroke:none;stroke-width:0.352778" />
    <path
       id="path433"
       d="m 129.14841,155.51855 h -0.52917 l -0.45861,-1.905 h -0.56444 v 1.905 h -0.45861 v -4.40972 h 1.16416 c 0.24695,0 0.42334,0.10583 0.56445,0.38805 0.14111,0.24695 0.21166,0.52917 0.21166,0.84667 0,0.21167 -0.0353,0.45861 -0.14111,0.67028 -0.0353,0.10583 -0.0705,0.17639 -0.14111,0.24694 -0.0353,0.0706 -0.10583,0.14111 -0.17639,0.17639 l 0.52917,2.08139 m -0.52917,-3.175 c 0,-0.14111 -0.0353,-0.28222 -0.10583,-0.38806 -0.0706,-0.10583 -0.14111,-0.14111 -0.24694,-0.14111 h -0.67028 v 1.09361 h 0.70555 c 0.0706,0 0.17639,-0.0353 0.21167,-0.14111 0.0706,-0.10583 0.10583,-0.24694 0.10583,-0.42333"
       style="fill:#000000;fill-opacity:1;fill-rule:evenodd;stroke:none;stroke-width:0.352778" />
    <path
       id="path434"
       d="m 131.40619,151.70855 h -0.70556 v 3.81 h -0.45861 v -3.81 h -0.67027 v -0.59972 h 1.83444 v 0.59972"
       style="fill:#000000;fill-opacity:1;fill-rule:evenodd;stroke:none;stroke-width:0.352778" />
    <path
       id="path435"
       d="m 134.26369,151.10883 -1.02306,2.50472 v 1.905 h -0.45861 v -1.905 l -1.05833,-2.50472 h 0.56444 l 0.70556,1.69333 0.74083,-1.69333 h 0.52917"
       style="fill:#000000;fill-opacity:1;fill-rule:evenodd;stroke:none;stroke-width:0.352778" />
    <path
       id="path436"
       d="m 94.223411,148.49828 h -0.599722 v -2.54 l -0.917222,2.54 -0.917223,-2.54 v 2.54 h -0.599722 v -4.40972 h 0.599722 l 0.917223,2.46944 0.917222,-2.46944 h 0.599722 v 4.40972"
       style="fill:#000000;fill-opacity:1;fill-rule:evenodd;stroke:none;stroke-width:0.352778" />
    <path
       id="path437"
       d="m 98.315634,148.49828 h -0.670278 l -0.388055,-1.23472 h -1.234722 l -0.388056,1.23472 h -0.635 l 1.340556,-4.40972 h 0.599722 l 1.375833,4.40972 m -1.27,-1.94028 -0.388055,-1.23472 -0.423334,1.23472 h 0.811389"
       style="fill:#000000;fill-opacity:1;fill-rule:evenodd;stroke:none;stroke-width:0.352778" />
    <path
       id="path438"
       d="m 101.17313,148.49828 h -2.469444 v -4.40972 h 0.635 v 3.70416 h 1.834444 v 0.70556"
       style="fill:#000000;fill-opacity:1;fill-rule:evenodd;stroke:none;stroke-width:0.352778" />
    <path
       id="path439"
       d="m 102.54897,148.49828 h -0.635 v -4.40972 h 0.635 v 4.40972"
       style="fill:#000000;fill-opacity:1;fill-rule:evenodd;stroke:none;stroke-width:0.352778" />
    <path
       id="path440"
       d="m 104.80674,147.86328 c 0.14111,0 0.28222,-0.0353 0.35278,-0.10583 0.10583,-0.0706 0.21166,-0.17639 0.28222,-0.35278 l 0.56444,0.3175 c -0.24694,0.56444 -0.635,0.84667 -1.19944,0.84667 -0.45861,0 -0.81139,-0.17639 -1.05833,-0.59973 -0.24695,-0.38805 -0.38806,-0.9525 -0.38806,-1.69333 0,-0.70556 0.14111,-1.27 0.38806,-1.65806 0.24694,-0.42333 0.59972,-0.59972 1.05833,-0.59972 0.28222,0 0.52917,0.0706 0.74083,0.21167 0.17639,0.14111 0.35278,0.35278 0.45861,0.59972 l -0.56444,0.35278 c -0.14111,-0.3175 -0.35278,-0.45861 -0.635,-0.49389 -0.28222,0 -0.49389,0.17639 -0.59972,0.45861 -0.14111,0.28222 -0.17639,0.67028 -0.17639,1.12889 0,0.49389 0.0353,0.88194 0.17639,1.16417 0.10583,0.28222 0.3175,0.42333 0.59972,0.42333"
       style="fill:#000000;fill-opacity:1;fill-rule:evenodd;stroke:none;stroke-width:0.352778" />
    <path
       id="path441"
       d="m 107.48785,148.49828 h -0.635 v -4.40972 h 0.635 v 4.40972"
       style="fill:#000000;fill-opacity:1;fill-rule:evenodd;stroke:none;stroke-width:0.352778" />
    <path
       id="path442"
       d="m 109.78091,148.56883 c -0.45861,0 -0.81139,-0.17639 -1.05833,-0.56444 -0.28223,-0.38806 -0.38806,-0.98778 -0.38806,-1.72862 0,-0.70555 0.10583,-1.27 0.38806,-1.65805 0.24694,-0.42333 0.59972,-0.59972 1.05833,-0.59972 0.45861,0 0.81139,0.17639 1.05833,0.59972 0.24695,0.38805 0.38806,0.9525 0.38806,1.65805 0,0.74084 -0.14111,1.34056 -0.38806,1.72862 -0.24694,0.38805 -0.59972,0.56444 -1.05833,0.56444 m 0,-3.88056 c -0.28222,0 -0.49389,0.17639 -0.59972,0.45862 -0.14111,0.28222 -0.21167,0.67027 -0.21167,1.12888 0,0.52917 0.0706,0.91723 0.21167,1.19945 0.10583,0.24694 0.3175,0.38805 0.59972,0.38805 0.28222,0 0.49389,-0.14111 0.59972,-0.42333 0.10584,-0.28222 0.17639,-0.67028 0.17639,-1.16417 0,-0.49388 -0.0705,-0.88194 -0.17639,-1.12888 -0.14111,-0.28223 -0.3175,-0.42334 -0.59972,-0.45862"
       style="fill:#000000;fill-opacity:1;fill-rule:evenodd;stroke:none;stroke-width:0.352778" />
    <path
       id="path443"
       d="m 114.54341,146.91078 c 0,0.35278 -0.0706,0.67028 -0.17639,0.91722 -0.10583,0.24695 -0.28222,0.42334 -0.49389,0.56445 -0.21166,0.10583 -0.42333,0.17639 -0.67028,0.17639 -0.24694,0 -0.49388,-0.0706 -0.70555,-0.17639 -0.21167,-0.14111 -0.35278,-0.3175 -0.45861,-0.56445 -0.14111,-0.24694 -0.17639,-0.56444 -0.17639,-0.91722 v -2.82222 h 0.59972 v 2.82222 c 0,0.28222 0.0706,0.52917 0.21167,0.70556 0.14111,0.17638 0.3175,0.24694 0.52916,0.24694 0.21167,0 0.38806,-0.0706 0.49389,-0.24694 0.14111,-0.17639 0.21167,-0.42334 0.21167,-0.70556 v -2.82222 h 0.635 v 2.82222"
       style="fill:#000000;fill-opacity:1;fill-rule:evenodd;stroke:none;stroke-width:0.352778" />
    <path
       id="path444"
       d="m 117.11869,145.07633 c -0.14111,-0.24694 -0.3175,-0.38806 -0.56444,-0.38806 -0.17639,0 -0.28223,0.0353 -0.38806,0.14112 -0.10583,0.10583 -0.17639,0.24694 -0.14111,0.38805 0,0.10583 0.0353,0.21167 0.10583,0.28222 0.10584,0.10584 0.24695,0.14111 0.45861,0.17639 0.45861,0.10584 0.81139,0.28222 1.02306,0.56445 0.21167,0.24694 0.3175,0.56444 0.3175,0.88194 0,0.38806 -0.10583,0.74083 -0.38806,1.02306 -0.24694,0.28222 -0.56444,0.42333 -0.9525,0.42333 -0.28222,0 -0.56444,-0.0706 -0.77611,-0.24694 -0.21166,-0.17639 -0.42333,-0.42334 -0.56444,-0.77612 l 0.59972,-0.3175 c 0.17639,0.42334 0.42333,0.635 0.77611,0.635 0.17639,0 0.35278,-0.0705 0.49389,-0.21166 0.10583,-0.17639 0.17639,-0.35278 0.17639,-0.56445 0,-0.10583 -0.0353,-0.24694 -0.14111,-0.38805 -0.10584,-0.14111 -0.3175,-0.24695 -0.59972,-0.28222 -0.35278,-0.0706 -0.635,-0.21167 -0.84667,-0.38806 -0.21167,-0.21167 -0.3175,-0.42333 -0.3175,-0.70556 0,-0.3175 0.10583,-0.635 0.3175,-0.91722 0.21167,-0.24694 0.49389,-0.38805 0.84667,-0.38805 0.24694,0 0.45861,0.0705 0.635,0.17639 0.17638,0.14111 0.3175,0.35277 0.45861,0.59972 l -0.52917,0.28222"
       style="fill:#000000;fill-opacity:1;fill-rule:evenodd;stroke:none;stroke-width:0.352778" />
    <path
       id="path445"
       d="m 106.60591,138.938 h -0.77611 v 2.54 h -0.59972 v -5.89139 h 1.30527 c 0.28223,0 0.49389,0.0706 0.67028,0.17639 0.17639,0.14111 0.3175,0.35278 0.45861,0.59972 0.10584,0.28222 0.14111,0.56445 0.14111,0.88195 0,0.3175 -0.0353,0.59972 -0.10583,0.84666 -0.10583,0.24695 -0.24694,0.45861 -0.42333,0.59973 -0.17639,0.17638 -0.42334,0.24694 -0.67028,0.24694 m 0.59972,-1.69333 c 0,-0.21167 -0.0705,-0.38806 -0.14111,-0.52917 -0.10583,-0.10583 -0.21167,-0.17639 -0.3175,-0.17639 h -0.91722 v 1.44639 h 0.9525 c 0.10583,0 0.21167,-0.0706 0.28222,-0.17639 0.0706,-0.14111 0.14111,-0.3175 0.14111,-0.56444"
       style="fill:#000000;fill-opacity:1;fill-rule:evenodd;stroke:none;stroke-width:0.352778" />
    <path
       id="path446"
       d="m 111.05091,141.478 h -2.43417 v -5.89139 h 2.29306 v 0.9525 h -1.69333 v 1.44639 h 1.16416 v 0.9525 h -1.16416 v 1.5875 h 1.83444 v 0.9525"
       style="fill:#000000;fill-opacity:1;fill-rule:evenodd;stroke:none;stroke-width:0.352778" />
    <path
       id="path447"
       d="m 114.33174,141.478 h -0.56444 l -1.48167,-3.98639 v 3.98639 h -0.635 v -5.89139 h 0.635 l 1.41111,3.77472 v -3.77472 h 0.635 v 5.89139"
       style="fill:#000000;fill-opacity:1;fill-rule:evenodd;stroke:none;stroke-width:0.352778" />
    <path
       id="path448"
       d="m 118.17702,141.478 h -0.635 l -0.38806,-1.65806 h -1.23472 l -0.38805,1.65806 h -0.67028 l 1.34055,-5.89139 h 0.635 l 1.34056,5.89139 m -1.27,-2.61056 -0.38806,-1.65805 -0.38805,1.65805 h 0.77611"
       style="fill:#000000;fill-opacity:1;fill-rule:evenodd;stroke:none;stroke-width:0.352778" />
    <path
       id="path449"
       d="m 121.24619,141.478 h -2.46944 v -5.89139 h 0.635 v 4.93889 h 1.83444 v 0.9525"
       style="fill:#000000;fill-opacity:1;fill-rule:evenodd;stroke:none;stroke-width:0.352778" />
    <path
       id="path450"
       d="m 124.2448,136.398 h -0.91722 v 5.08 h -0.59972 v -5.08 h -0.91723 v -0.81139 h 2.43417 v 0.81139"
       style="fill:#000000;fill-opacity:1;fill-rule:evenodd;stroke:none;stroke-width:0.352778" />
    <path
       id="path451"
       d="m 128.0548,135.58661 -1.34056,3.35139 v 2.54 h -0.635 v -2.54 l -1.37583,-3.35139 h 0.74083 l 0.9525,2.29306 0.9525,-2.29306 h 0.70556"
       style="fill:#000000;fill-opacity:1;fill-rule:evenodd;stroke:none;stroke-width:0.352778" />
    <path
       id="path452"
       d="m 82.863968,134.88105 v 1.02306 h -0.599722 v -1.02306 h 0.599722"
       style="fill:#000000;fill-opacity:1;fill-rule:evenodd;stroke:none;stroke-width:0.352778" />
    <path
       id="path453"
       d="m 82.863968,141.51328 v 1.02306 h -0.599722 v -1.02306 h 0.599722"
       style="fill:#000000;fill-opacity:1;fill-rule:evenodd;stroke:none;stroke-width:0.352778" />
    <path
       id="path454"
       d="m 83.146188,136.96244 c -0.141111,-0.35278 -0.352778,-0.52917 -0.670278,-0.52917 -0.176389,0 -0.3175,0.0706 -0.423333,0.21167 -0.105833,0.14111 -0.176389,0.28222 -0.176389,0.49389 0,0.14111 0.07056,0.24694 0.176389,0.38805 0.105833,0.10584 0.246944,0.17639 0.493889,0.21167 0.529166,0.14111 0.917222,0.38806 1.164166,0.74083 0.211667,0.35278 0.352778,0.74084 0.352778,1.19945 0,0.52917 -0.141111,0.9525 -0.423333,1.34055 -0.282222,0.38806 -0.670278,0.59973 -1.093611,0.59973 -0.3175,0 -0.635,-0.14111 -0.881945,-0.35278 -0.246944,-0.24695 -0.458611,-0.56445 -0.635,-1.02306 l 0.670278,-0.45861 c 0.211667,0.56445 0.493889,0.84667 0.881945,0.84667 0.211666,0.0353 0.388055,-0.0706 0.529166,-0.28222 0.176389,-0.21167 0.246945,-0.42334 0.246945,-0.70556 0,-0.17639 -0.07056,-0.35278 -0.176389,-0.52917 -0.141111,-0.21166 -0.352778,-0.3175 -0.670278,-0.38805 -0.423333,-0.10583 -0.740833,-0.28222 -0.9525,-0.52917 -0.246944,-0.24694 -0.352778,-0.56444 -0.352778,-0.91722 0,-0.45861 0.105834,-0.84667 0.352778,-1.23472 0.246945,-0.35278 0.564444,-0.52917 0.9525,-0.52917 0.246944,0 0.493889,0.10583 0.705556,0.28222 0.211666,0.17639 0.388055,0.42334 0.493888,0.74084 l -0.564444,0.42333"
       style="fill:#000000;fill-opacity:1;fill-rule:evenodd;stroke:none;stroke-width:0.352778" />
    <path
       id="path455"
       d="m 89.425634,141.51328 h -2.998611 c 0,-0.70556 0.141111,-1.34056 0.388056,-1.86972 0.282222,-0.56445 0.670277,-1.02306 1.164166,-1.41111 0.529167,-0.35278 0.776111,-0.67028 0.740833,-0.98778 0,-0.21167 -0.07055,-0.42333 -0.211666,-0.56445 -0.141111,-0.14111 -0.3175,-0.21166 -0.564445,-0.21166 -0.211666,0 -0.388055,0.0705 -0.529166,0.21166 -0.141111,0.14112 -0.246945,0.35278 -0.3175,0.59973 L 86.427023,137.033 c 0.105833,-0.42333 0.282222,-0.81139 0.564444,-1.09361 0.246945,-0.28222 0.564445,-0.42333 0.917223,-0.42333 0.423333,0 0.776111,0.17639 1.058333,0.49389 0.3175,0.35277 0.458611,0.74083 0.458611,1.19944 0,0.74083 -0.352778,1.34056 -1.023056,1.79917 -0.317499,0.24694 -0.564444,0.49389 -0.740833,0.77611 -0.105833,0.10583 -0.176389,0.24694 -0.246944,0.38805 -0.07056,0.10584 -0.105834,0.24695 -0.141111,0.38806 h 2.151944 v 0.9525"
       style="fill:#000000;fill-opacity:1;fill-rule:evenodd;stroke:none;stroke-width:0.352778" />
    <path
       id="path456"
       d="m 93.165078,139.29078 c 0,0.59972 -0.176389,1.12889 -0.529167,1.62278 -0.352777,0.45861 -0.811388,0.70555 -1.375833,0.70555 -0.176389,0 -0.388055,-0.0353 -0.564444,-0.0705 -0.176389,-0.0706 -0.352778,-0.14111 -0.529167,-0.28222 l 0.423333,-0.84667 c 0.211667,0.14111 0.423334,0.21167 0.670278,0.21167 0.352778,0.0353 0.635,-0.10584 0.881944,-0.42334 0.246945,-0.28222 0.352778,-0.59972 0.352778,-0.91722 0,-0.28222 -0.07055,-0.52917 -0.211666,-0.70556 -0.141112,-0.21166 -0.352778,-0.28222 -0.564445,-0.28222 -0.282222,-0.0353 -0.529166,0.14111 -0.776111,0.49389 l -0.599722,-0.3175 0.07055,-2.8575 h 2.54 v 0.91722 h -1.869722 l -0.03528,1.02306 c 0.211667,-0.17639 0.458612,-0.24695 0.670278,-0.24695 0.423333,0.0353 0.776111,0.21167 1.058333,0.56445 0.246945,0.38805 0.388056,0.84667 0.388056,1.41111"
       style="fill:#000000;fill-opacity:1;fill-rule:evenodd;stroke:none;stroke-width:0.352778" />
    <path
       id="path457"
       d="m 95.387578,141.61911 c -0.529167,0 -0.917222,-0.28222 -1.199444,-0.77611 -0.282223,-0.52917 -0.423334,-1.30528 -0.423334,-2.29306 0,-0.9525 0.141111,-1.69333 0.423334,-2.2225 0.282222,-0.56444 0.670277,-0.81139 1.199444,-0.81139 0.529167,0 0.917222,0.24695 1.199444,0.81139 0.282223,0.52917 0.423334,1.27 0.423334,2.2225 0,0.98778 -0.141111,1.76389 -0.423334,2.29306 -0.282222,0.49389 -0.670277,0.77611 -1.199444,0.77611 m 0,-5.18583 c -0.3175,0 -0.529167,0.21166 -0.670278,0.59972 -0.141111,0.38805 -0.211666,0.88194 -0.211666,1.51694 0,0.67028 0.07055,1.19945 0.211666,1.55223 0.105834,0.38805 0.352778,0.56444 0.670278,0.52916 0.3175,0 0.564444,-0.17639 0.705556,-0.52916 0.105833,-0.38806 0.176388,-0.88195 0.176388,-1.55223 0,-0.67027 -0.07055,-1.16416 -0.211666,-1.51694 -0.141111,-0.38806 -0.352778,-0.56445 -0.670278,-0.59972"
       style="fill:#000000;fill-opacity:1;fill-rule:evenodd;stroke:none;stroke-width:0.352778" />
    <path
       id="path458"
       d="m 99.127021,141.61911 c -0.529167,0 -0.917222,-0.28222 -1.199444,-0.77611 -0.282223,-0.52917 -0.423334,-1.30528 -0.423334,-2.29306 0,-0.9525 0.141111,-1.69333 0.423334,-2.2225 0.282222,-0.56444 0.670277,-0.81139 1.199444,-0.81139 0.529167,0 0.917219,0.24695 1.199449,0.81139 0.28222,0.52917 0.42333,1.27 0.42333,2.2225 0,0.98778 -0.14111,1.76389 -0.42333,2.29306 -0.28223,0.49389 -0.670282,0.77611 -1.199449,0.77611 m 0,-5.18583 c -0.3175,0 -0.529167,0.21166 -0.670278,0.59972 -0.141111,0.38805 -0.211666,0.88194 -0.246944,1.51694 0,0.67028 0.07055,1.19945 0.211666,1.55223 0.141112,0.38805 0.388056,0.56444 0.705556,0.52916 0.3175,0 0.564444,-0.17639 0.670278,-0.52916 0.141111,-0.38806 0.211671,-0.88195 0.211671,-1.55223 0,-0.67027 -0.07056,-1.16416 -0.211671,-1.51694 -0.141111,-0.38806 -0.352778,-0.56445 -0.670278,-0.59972"
       style="fill:#000000;fill-opacity:1;fill-rule:evenodd;stroke:none;stroke-width:0.352778" />
    <path
       id="path459"
       d="M 94.646745,162.15078 H 92.98869 c 0,-0.35278 0.07055,-0.635 0.211666,-0.91722 0.141111,-0.28222 0.388056,-0.49389 0.670278,-0.70556 0.282222,-0.17639 0.388055,-0.35278 0.388055,-0.49389 0,-0.10583 -0.03528,-0.21166 -0.105833,-0.28222 -0.105833,-0.0705 -0.176389,-0.10583 -0.3175,-0.10583 -0.105833,0 -0.211667,0.0353 -0.282222,0.10583 -0.07056,0.0706 -0.141111,0.17639 -0.176389,0.3175 l -0.388055,-0.14111 c 0.07055,-0.21167 0.176388,-0.38806 0.3175,-0.52917 0.141111,-0.17639 0.317499,-0.24694 0.493888,-0.24694 0.246945,0 0.458611,0.10583 0.599723,0.28222 0.176388,0.14111 0.246944,0.35278 0.246944,0.56445 0,0.38805 -0.176389,0.70555 -0.564444,0.91722 -0.176389,0.14111 -0.3175,0.24694 -0.423334,0.38805 -0.03528,0.0706 -0.07055,0.10584 -0.105833,0.17639 -0.03528,0.0706 -0.07056,0.14111 -0.105833,0.21167 h 1.199444 v 0.45861"
       style="fill:#000000;fill-opacity:1;fill-rule:evenodd;stroke:none;stroke-width:0.352778" />
    <path
       id="path460"
       d="m 95.070078,160.06939 c 0,-0.24694 0.07056,-0.45861 0.246944,-0.635 0.141112,-0.17639 0.352778,-0.28222 0.599723,-0.28222 0.246944,0 0.423333,0.10583 0.599722,0.28222 0.141111,0.17639 0.246944,0.42333 0.246944,0.67028 0,0.42333 -0.105833,0.81139 -0.282222,1.19944 -0.07056,0.17639 -0.176389,0.35278 -0.282222,0.52917 -0.141111,0.14111 -0.246945,0.28222 -0.388056,0.38805 l -0.211666,-0.38805 c 0.141111,-0.14111 0.282222,-0.28222 0.388055,-0.42333 0.03528,-0.0706 0.07056,-0.17639 0.105834,-0.24695 0.03528,-0.0353 0.03528,-0.0705 0.07055,-0.10583 0,-0.0706 0.03528,-0.10584 0.03528,-0.14111 -0.03528,0.0353 -0.07056,0.0353 -0.141111,0.0353 -0.03528,0 -0.105834,0 -0.141111,0 -0.246945,0 -0.423334,-0.0706 -0.599723,-0.24694 -0.176388,-0.17639 -0.246944,-0.38806 -0.246944,-0.635 m 0.388056,0 c 0,0.10583 0.03528,0.21167 0.141111,0.3175 0.07055,0.0706 0.176389,0.10583 0.3175,0.10583 0.141111,0 0.246944,-0.0353 0.3175,-0.10583 0.07055,-0.0706 0.105833,-0.17639 0.105833,-0.3175 0,-0.10583 -0.03528,-0.21167 -0.105833,-0.3175 -0.105834,-0.0706 -0.211667,-0.10583 -0.3175,-0.10583 -0.141111,0 -0.246945,0.0353 -0.3175,0.14111 -0.105834,0.0705 -0.141111,0.17639 -0.141111,0.28222"
       style="fill:#000000;fill-opacity:1;fill-rule:evenodd;stroke:none;stroke-width:0.352778" />
    <path
       id="path461"
       d="m 97.962855,162.22133 c -0.282222,0 -0.493889,-0.14111 -0.670278,-0.38806 -0.141111,-0.28222 -0.211666,-0.635 -0.211666,-1.12888 0,-0.49389 0.07055,-0.88195 0.211666,-1.12889 0.176389,-0.28223 0.388056,-0.42334 0.670278,-0.42334 0.282222,0 0.529167,0.14111 0.670278,0.42334 0.141111,0.24694 0.246944,0.635 0.246944,1.12889 0,0.49388 -0.105833,0.84666 -0.246944,1.12888 -0.141111,0.24695 -0.388056,0.38806 -0.670278,0.38806 m 0,-2.57528 c -0.176389,0 -0.282222,0.0706 -0.388056,0.28222 -0.07055,0.17639 -0.105833,0.45862 -0.105833,0.74084 0,0.35278 0.03528,0.635 0.105833,0.81139 0.07056,0.17639 0.211667,0.24694 0.388056,0.24694 0.176389,0 0.3175,-0.10583 0.388056,-0.28222 0.07055,-0.17639 0.105833,-0.42333 0.105833,-0.77611 0,-0.3175 -0.03528,-0.56445 -0.105833,-0.74084 -0.105834,-0.17638 -0.211667,-0.28222 -0.388056,-0.28222"
       style="fill:#000000;fill-opacity:1;fill-rule:evenodd;stroke:none;stroke-width:0.352778" />
    <path
       id="path462"
       d="m 99.197578,160.06939 c 0,-0.24694 0.07056,-0.45861 0.246944,-0.635 0.141112,-0.17639 0.352778,-0.28222 0.564448,-0.28222 0.24694,0 0.45861,0.10583 0.59972,0.28222 0.17639,0.17639 0.24694,0.42333 0.24694,0.67028 0,0.42333 -0.0706,0.81139 -0.24694,1.19944 -0.10583,0.17639 -0.21167,0.35278 -0.3175,0.52917 -0.10583,0.14111 -0.24695,0.28222 -0.388056,0.38805 l -0.176389,-0.38805 c 0.141111,-0.14111 0.246944,-0.28222 0.352775,-0.42333 0.0353,-0.0706 0.10584,-0.17639 0.14111,-0.24695 0,-0.0353 0.0353,-0.0705 0.0353,-0.10583 0.0353,-0.0706 0.0353,-0.10584 0.0706,-0.14111 -0.0706,0.0353 -0.10584,0.0353 -0.14111,0.0353 -0.0706,0 -0.10584,0 -0.17639,0 -0.21167,0 -0.423336,-0.0706 -0.564448,-0.24694 -0.176388,-0.17639 -0.246944,-0.38806 -0.246944,-0.635 m 0.388056,0 c 0,0.10583 0.03528,0.21167 0.105833,0.3175 0.105833,0.0706 0.211667,0.10583 0.317503,0.10583 0.14111,0 0.24694,-0.0353 0.35277,-0.10583 0.0706,-0.0706 0.10584,-0.17639 0.10584,-0.3175 0,-0.10583 -0.0353,-0.21167 -0.14111,-0.3175 -0.0706,-0.0706 -0.17639,-0.10583 -0.3175,-0.10583 -0.105836,0 -0.21167,0.0353 -0.282225,0.14111 -0.105834,0.0705 -0.141111,0.17639 -0.141111,0.28222"
       style="fill:#000000;fill-opacity:1;fill-rule:evenodd;stroke:none;stroke-width:0.352778" />
    <path
       id="path463"
       d="m 101.49063,161.86855 c 0,0.0706 0,0.10583 -0.0353,0.17639 -0.0705,0.0353 -0.10583,0.0353 -0.14111,0.0353 -0.0705,0 -0.10583,0 -0.14111,-0.0706 -0.0353,-0.0353 -0.0706,-0.10583 -0.0706,-0.14111 0,-0.0706 0.0353,-0.14111 0.0706,-0.17639 0.0353,-0.0353 0.0706,-0.0705 0.14111,-0.0705 0.0353,0 0.0706,0.0353 0.10583,0.0705 0.0706,0.0353 0.0706,0.10583 0.0706,0.17639"
       style="fill:#000000;fill-opacity:1;fill-rule:evenodd;stroke:none;stroke-width:0.352778" />
    <path
       id="path464"
       d="m 102.83119,162.22133 c -0.28222,0 -0.52917,-0.14111 -0.67028,-0.38806 -0.14111,-0.28222 -0.24694,-0.635 -0.24694,-1.12888 0,-0.49389 0.10583,-0.88195 0.24694,-1.12889 0.14111,-0.28223 0.38806,-0.42334 0.67028,-0.42334 0.28222,0 0.52917,0.14111 0.67028,0.42334 0.14111,0.24694 0.21166,0.635 0.21166,1.12889 0,0.49388 -0.0706,0.84666 -0.21166,1.12888 -0.14111,0.24695 -0.38806,0.38806 -0.67028,0.38806 m 0,-2.57528 c -0.17639,0 -0.3175,0.0706 -0.38806,0.28222 -0.0705,0.17639 -0.10583,0.45862 -0.10583,0.74084 0,0.35278 0.0353,0.635 0.10583,0.81139 0.0706,0.17639 0.21167,0.24694 0.38806,0.24694 0.17639,0 0.3175,-0.10583 0.38806,-0.28222 0.0705,-0.17639 0.10583,-0.42333 0.10583,-0.77611 0,-0.3175 -0.0353,-0.56445 -0.10583,-0.74084 -0.10584,-0.17638 -0.21167,-0.28222 -0.38806,-0.28222"
       style="fill:#000000;fill-opacity:1;fill-rule:evenodd;stroke:none;stroke-width:0.352778" />
    <path
       id="path465"
       d="m 105.72397,161.05716 c 0,0.3175 -0.10583,0.56444 -0.3175,0.81139 -0.17639,0.24694 -0.45861,0.35278 -0.74083,0.35278 -0.10584,0 -0.21167,0 -0.3175,-0.0353 -0.10584,-0.0353 -0.21167,-0.0706 -0.28223,-0.14111 l 0.21167,-0.42334 c 0.10583,0.0706 0.24695,0.10584 0.38806,0.10584 0.17639,0 0.3175,-0.0706 0.45861,-0.21167 0.14111,-0.14111 0.21166,-0.28222 0.21166,-0.45861 0,-0.14111 -0.0353,-0.24694 -0.10583,-0.35278 -0.10583,-0.10583 -0.21167,-0.14111 -0.3175,-0.14111 -0.17639,0 -0.3175,0.0706 -0.42333,0.24695 l -0.35278,-0.14112 0.0353,-1.44638 h 1.41111 v 0.45861 h -1.02306 l -0.0353,0.49389 c 0.14111,-0.0706 0.24694,-0.10584 0.38805,-0.10584 0.21167,0 0.42333,0.10584 0.56445,0.28222 0.17638,0.17639 0.24694,0.42334 0.24694,0.70556"
       style="fill:#000000;fill-opacity:1;fill-rule:evenodd;stroke:none;stroke-width:0.352778" />
    <path
       id="path466"
       d="m 85.368688,159.893 c -0.105833,-0.17639 -0.211667,-0.28222 -0.388056,-0.28222 -0.07055,0 -0.176388,0.0353 -0.246944,0.10583 -0.03528,0.0706 -0.07056,0.17639 -0.07056,0.24695 0,0.0705 0.03528,0.14111 0.07056,0.21166 0.07056,0.0353 0.176389,0.0706 0.282222,0.10584 0.282222,0.0705 0.529167,0.17638 0.635,0.35277 0.141111,0.17639 0.211667,0.38806 0.211667,0.635 0,0.24695 -0.07056,0.45861 -0.246945,0.67028 -0.141111,0.17639 -0.352777,0.28222 -0.599722,0.28222 -0.176389,0 -0.352778,-0.0705 -0.493889,-0.17639 -0.141111,-0.10583 -0.246944,-0.28222 -0.3175,-0.52916 l 0.352778,-0.21167 c 0.105833,0.28222 0.282222,0.42333 0.493889,0.42333 0.105833,0 0.211667,-0.0353 0.282222,-0.14111 0.105834,-0.10583 0.141111,-0.21166 0.141111,-0.35277 0,-0.10584 -0.03528,-0.17639 -0.105833,-0.28223 -0.07056,-0.0706 -0.176389,-0.14111 -0.352778,-0.17639 -0.246944,-0.0353 -0.423333,-0.14111 -0.564444,-0.24694 -0.105834,-0.14111 -0.176389,-0.3175 -0.176389,-0.49389 0,-0.21167 0.07055,-0.42333 0.211667,-0.59972 0.105833,-0.17639 0.282222,-0.28222 0.493888,-0.28222 0.176389,0 0.3175,0.0705 0.423334,0.14111 0.105833,0.10583 0.211666,0.21166 0.282222,0.38805 l -0.3175,0.21167"
       style="fill:#000000;fill-opacity:1;fill-rule:evenodd;stroke:none;stroke-width:0.352778" />
    <path
       id="path467"
       d="m 87.697022,162.15078 h -1.516944 v -2.92806 h 1.446388 v 0.45862 h -1.058333 v 0.74083 h 0.705556 v 0.45861 h -0.705556 v 0.81139 h 1.128889 v 0.45861"
       style="fill:#000000;fill-opacity:1;fill-rule:evenodd;stroke:none;stroke-width:0.352778" />
    <path
       id="path468"
       d="m 88.967022,161.76272 c 0.105833,0 0.176389,-0.0353 0.246944,-0.10583 0.07056,-0.0353 0.105834,-0.10584 0.141112,-0.21167 l 0.388055,0.21167 c -0.176389,0.35277 -0.423333,0.56444 -0.776111,0.56444 -0.282222,0 -0.493889,-0.14111 -0.670278,-0.42333 -0.141111,-0.24695 -0.211666,-0.635 -0.211666,-1.09361 0,-0.49389 0.07055,-0.88195 0.211666,-1.12889 0.176389,-0.28222 0.388056,-0.42334 0.670278,-0.42334 0.176389,0 0.3175,0.0706 0.458611,0.17639 0.141111,0.0706 0.211667,0.21167 0.3175,0.38806 l -0.388055,0.21167 c -0.07056,-0.17639 -0.211667,-0.28223 -0.388056,-0.28223 -0.176389,0 -0.282222,0.0706 -0.388056,0.28223 -0.07055,0.17638 -0.105833,0.45861 -0.105833,0.77611 0,0.28222 0.03528,0.56444 0.105833,0.74083 0.105834,0.21167 0.211667,0.3175 0.388056,0.3175"
       style="fill:#000000;fill-opacity:1;fill-rule:evenodd;stroke:none;stroke-width:0.352778" />
    <path
       id="path469"
       d="m 110.34535,162.15078 h -0.42333 l -0.38806,-1.27 h -0.49389 v 1.27 h -0.38805 v -2.92806 h 0.98777 c 0.21167,0 0.35278,0.0706 0.45862,0.24695 0.14111,0.17639 0.17638,0.35278 0.17638,0.56444 0,0.17639 -0.0353,0.3175 -0.10583,0.45861 -0.0353,0.0706 -0.0705,0.10584 -0.10583,0.17639 -0.0353,0.0353 -0.10584,0.0706 -0.14111,0.10584 l 0.42333,1.37583 m -0.45861,-2.08139 c 0,-0.14111 0,-0.21167 -0.0706,-0.28222 -0.0705,-0.0706 -0.10583,-0.10583 -0.21166,-0.10583 h -0.56445 v 0.74083 h 0.59972 c 0.0706,0 0.14112,-0.0353 0.17639,-0.10583 0.0706,-0.0706 0.0706,-0.14112 0.0706,-0.24695"
       style="fill:#000000;fill-opacity:1;fill-rule:evenodd;stroke:none;stroke-width:0.352778" />
    <path
       id="path470"
       d="m 112.21508,162.15078 h -1.51694 v -2.92806 h 1.44638 v 0.45862 h -1.05833 v 0.74083 h 0.70556 v 0.45861 h -0.70556 v 0.81139 h 1.12889 v 0.45861"
       style="fill:#000000;fill-opacity:1;fill-rule:evenodd;stroke:none;stroke-width:0.352778" />
    <path
       id="path471"
       d="m 114.36702,159.22272 -0.77611,2.92806 h -0.35278 l -0.74083,-2.92806 h 0.38805 l 0.52917,1.97556 0.52917,-1.97556 h 0.42333"
       style="fill:#000000;fill-opacity:1;fill-rule:evenodd;stroke:none;stroke-width:0.352778" />
    <path
       id="path472"
       d="m 114.89619,161.86855 c 0,0.0706 0,0.10583 -0.0353,0.17639 -0.0705,0.0353 -0.10583,0.0353 -0.14111,0.0353 -0.0706,0 -0.10583,0 -0.14111,-0.0706 -0.0353,-0.0353 -0.0706,-0.10583 -0.0706,-0.14111 0,-0.0706 0.0353,-0.14111 0.0706,-0.17639 0.0353,-0.0353 0.0706,-0.0705 0.14111,-0.0705 0.0353,0 0.0706,0.0353 0.14111,0.0705 0.0353,0.0353 0.0353,0.10583 0.0353,0.17639"
       style="fill:#000000;fill-opacity:1;fill-rule:evenodd;stroke:none;stroke-width:0.352778" />
    <path
       id="path473"
       d="m 118.17702,161.76272 c 0.0706,0 0.14111,-0.0353 0.21167,-0.10583 0.0705,-0.0353 0.14111,-0.10584 0.17639,-0.21167 l 0.35277,0.21167 c -0.14111,0.35277 -0.38805,0.56444 -0.74083,0.56444 -0.3175,0 -0.52917,-0.14111 -0.67028,-0.42333 -0.17639,-0.24695 -0.24694,-0.635 -0.24694,-1.09361 0,-0.49389 0.0705,-0.88195 0.24694,-1.12889 0.14111,-0.28222 0.35278,-0.42334 0.67028,-0.42334 0.17639,0 0.3175,0.0706 0.42333,0.17639 0.14111,0.0706 0.24695,0.21167 0.3175,0.38806 l -0.35277,0.21167 c -0.10584,-0.17639 -0.21167,-0.28223 -0.38806,-0.28223 -0.17639,0 -0.3175,0.0706 -0.38806,0.28223 -0.0705,0.17638 -0.10583,0.45861 -0.10583,0.77611 0,0.28222 0.0353,0.56444 0.10583,0.74083 0.0706,0.21167 0.21167,0.3175 0.38806,0.3175"
       style="fill:#000000;fill-opacity:1;fill-rule:evenodd;stroke:none;stroke-width:0.352778" />
    <path
       id="path474"
       d="m 120.15258,162.22133 c -0.28222,0 -0.52917,-0.14111 -0.67028,-0.38806 -0.17639,-0.28222 -0.24694,-0.635 -0.24694,-1.12888 0,-0.49389 0.0705,-0.88195 0.24694,-1.12889 0.14111,-0.28223 0.38806,-0.42334 0.67028,-0.42334 0.28222,0 0.49389,0.14111 0.67028,0.42334 0.14111,0.24694 0.21166,0.635 0.21166,1.12889 0,0.49388 -0.0705,0.84666 -0.21166,1.12888 -0.17639,0.24695 -0.38806,0.38806 -0.67028,0.38806 m 0,-2.57528 c -0.17639,0 -0.3175,0.0706 -0.38806,0.28222 -0.0706,0.17639 -0.10583,0.45862 -0.10583,0.74084 0,0.35278 0.0353,0.635 0.10583,0.81139 0.0706,0.17639 0.21167,0.24694 0.38806,0.24694 0.17639,0 0.3175,-0.10583 0.38806,-0.28222 0.0705,-0.17639 0.10583,-0.42333 0.10583,-0.77611 0,-0.3175 -0.0353,-0.56445 -0.14111,-0.74084 -0.0706,-0.17638 -0.17639,-0.28222 -0.35278,-0.28222"
       style="fill:#000000;fill-opacity:1;fill-rule:evenodd;stroke:none;stroke-width:0.352778" />
    <path
       id="path475"
       d="m 123.04535,160.70439 c 0,0.49389 -0.10583,0.88194 -0.28222,1.09361 -0.17639,0.24695 -0.38806,0.35278 -0.635,0.35278 h -0.77611 v -2.92806 h 0.77611 c 0.24694,0 0.45861,0.10584 0.635,0.35278 0.17639,0.21167 0.28222,0.59972 0.28222,1.12889 m -1.30528,0 v 0.98778 h 0.38806 c 0.17639,0 0.28222,-0.10584 0.38805,-0.28222 0.10584,-0.17639 0.14111,-0.42334 0.14111,-0.70556 0,-0.35278 -0.0353,-0.59972 -0.14111,-0.74083 -0.10583,-0.17639 -0.21166,-0.28223 -0.38805,-0.28223 h -0.38806 v 1.02306"
       style="fill:#000000;fill-opacity:1;fill-rule:evenodd;stroke:none;stroke-width:0.352778" />
    <path
       id="path476"
       d="m 124.95035,162.15078 h -1.55222 v -2.92806 h 1.44639 v 0.45862 h -1.05834 v 0.74083 h 0.74084 v 0.45861 h -0.74084 v 0.81139 h 1.16417 v 0.45861"
       style="fill:#000000;fill-opacity:1;fill-rule:evenodd;stroke:none;stroke-width:0.352778" />
    <path
       id="path477"
       d="m 73.056745,165.21994 h 63.006105 c 0.35278,0 0.70556,-0.0353 1.09361,-0.21167 0.35278,-0.14111 0.70556,-0.35277 0.98778,-0.635 0.28222,-0.28222 0.49389,-0.635 0.67028,-1.02305 0.14111,-0.35278 0.17639,-0.70556 0.17639,-1.05834 v -27.58722 c 0,-0.3175 -0.0353,-0.70555 -0.17639,-1.05833 -0.17639,-0.38806 -0.38806,-0.70556 -0.67028,-1.02306 -0.28222,-0.28222 -0.635,-0.49388 -0.98778,-0.63499 -0.38805,-0.14112 -0.74083,-0.21167 -1.09361,-0.21167 H 73.056745 c -0.352778,0 -0.705556,0.0705 -1.093611,0.21167 -0.352778,0.14111 -0.705556,0.35277 -0.987778,0.63499 -0.282222,0.3175 -0.529166,0.635 -0.670278,1.02306 -0.141111,0.35278 -0.211666,0.74083 -0.211666,1.05833 v 27.58722 c 0,0.35278 0.07055,0.70556 0.211666,1.05834 0.141112,0.38805 0.388056,0.74083 0.670278,1.02305 0.282222,0.28223 0.635,0.49389 0.987778,0.635 0.388055,0.17639 0.740833,0.21167 1.093611,0.21167 m -1.975555,-2.92806 v -27.58722 c 0,-0.45861 0.176388,-0.98777 0.599722,-1.37583 0.176389,-0.21167 0.423333,-0.35278 0.670277,-0.42333 0.246945,-0.10584 0.493889,-0.14111 0.705556,-0.14111 h 63.006105 c 0.45861,0 0.98778,0.17638 1.37584,0.56444 0.42333,0.38806 0.59972,0.91722 0.59972,1.37583 v 27.58722 c 0,0.45862 -0.17639,0.98778 -0.59972,1.37584 -0.17639,0.21166 -0.42334,0.35278 -0.67028,0.45861 -0.24695,0.0705 -0.49389,0.10583 -0.70556,0.10583 H 73.056745 c -0.529167,0 -1.023056,-0.17639 -1.375833,-0.56444 -0.388056,-0.35278 -0.599722,-0.88195 -0.599722,-1.37584"
       style="fill:#000000;fill-opacity:1;fill-rule:evenodd;stroke:none;stroke-width:0.352778" />
  </g>
</svg>
