<?xml version="1.0" encoding="UTF-8"?>
<svg width="2700" height="1080" viewBox="0 0 2160 864" xmlns="http://www.w3.org/2000/svg">
<defs>
<style>.a{fill:#fff;}</style>
</defs>
<rect class="a" x="1.127" y="1.127" width="2157.7" height="861.75" rx="106.87"/>
<path d="M2052,2.2536A105.866,105.866,0,0,1,2157.7463,108V756A105.866,105.866,0,0,1,2052,861.7464H108A105.866,105.866,0,0,1,2.2536,756V108A105.866,105.866,0,0,1,108,2.2536H2052M2052,0H108A108,108,0,0,0,0,108V756A108,108,0,0,0,108,864H2052a108,108,0,0,0,108-108V108A108,108,0,0,0,2052,0Z"/>
<path d="m2052 27h-1944a81.096 81.096 0 0 0-81 81v648a81.096 81.096 0 0 0 81 81h1944a81.096 81.096 0 0 0 81-81v-648a81.096 81.096 0 0 0-81-81zm54 729a54.056 54.056 0 0 1-54 54h-1944a54.056 54.056 0 0 1-54-54v-648a54.056 54.056 0 0 1 54-54h1944a54.056 54.056 0 0 1 54 54z"/>
<path d="m275.62 162.73h-13.088v62.222h-10.406v-62.222h-13.088v-9.6552h36.582zm48.49 62.222h-10.406v-32.506h-19.632v32.506h-10.299v-71.877h10.299v29.287h19.632v-29.287h10.406zm22.958 0h-10.084v-71.877h10.084zm47.06-20.168a23.1 23.1 0 0 1-5.2568 14.965q-5.2574 6.4922-14.483 6.4907a18.413 18.413 0 0 1-14.322-6.5982 23.037 23.037 0 0 1-5.8467-15.824h9.87q0 5.688 2.8432 9.0117a9.1008 9.1008 0 0 0 7.2412 3.3257 9.3156 9.3156 0 0 0 7.0806-3.272 10.581 10.581 0 0 0 2.8965-7.6709 14.737 14.737 0 0 0-2.6284-7.4555q-2.5218-3.9148-9.28-8.207-7.7241-4.9336-11.264-9.8165-3.54-4.88-3.5405-9.1723a18.191 18.191 0 0 1 4.9351-13.142 17.154 17.154 0 0 1 12.874-5.5249 18.33 18.33 0 0 1 18.881 18.56h-10.514a7.8992 7.8992 0 0 0-2.628-6.5444 7.7942 7.7942 0 0 0-5.74-2.1455 7.2026 7.2026 0 0 0-5.4712 2.6284 8.6082 8.6082 0 0 0-1.8237 5.8467 7.3031 7.3031 0 0 0 1.9311 4.3984q1.8231 2.1475 7.9385 6.4371 8.5818 5.7927 12.391 11.372a22.067 22.067 0 0 1 3.9161 12.337zm126.22-41.625h-26.283v18.13h14.376v9.87h-14.376v33.793h-10.299v-71.877h36.582zm48.811 61.794h-36.582v-71.877h33.794v10.084h-23.494v18.13h14.912v9.87h-14.912v23.708h26.283zm51.171 0h-9.977l-20.062-45.701v45.701h-10.299v-71.877h10.299l19.632 45.057v-45.057h10.406zm9.1182-35.832q0-20.919 6.2759-29.073t15.18-8.1533a17.932 17.932 0 0 1 12.981 5.0957 18.876 18.876 0 0 1 5.686 13.035h-10.406a7.9607 7.9607 0 0 0-2.4673-5.8466 8.6168 8.6168 0 0 0-6.1152-2.1992q-4.2921 0-7.51 5.2026-3.2182 5.2053-3.2183 21.939 0 17.487 3.272 22.421 3.2718 4.9359 7.4561 4.7207a8.6109 8.6109 0 0 0 6.1152-2.2 7.9548 7.9548 0 0 0 2.4673-5.8466h10.406a18.868 18.868 0 0 1-5.686 13.035 17.924 17.924 0 0 1-12.981 5.0957q-8.9055 0-15.18-8.1533-6.2753-8.1511-6.2758-29.072zm87.217 35.831h-36.583v-71.877h33.794v10.084h-23.494v18.13h14.912v9.87h-14.912v23.708h26.283zm103.86 0h-10.084v-71.877h10.084zm48.86-20.168a23.1 23.1 0 0 1-5.2568 14.965q-5.2573 6.4922-14.483 6.4907a18.413 18.413 0 0 1-14.322-6.5982 23.037 23.037 0 0 1-5.8467-15.824h9.87q0 5.688 2.8433 9.0117a9.1005 9.1005 0 0 0 7.2412 3.3257 9.3156 9.3156 0 0 0 7.0806-3.272 10.582 10.582 0 0 0 2.8965-7.6709 14.737 14.737 0 0 0-2.6285-7.4555q-2.5217-3.9148-9.28-8.207-7.7241-4.9336-11.264-9.8165-3.5406-4.88-3.54-9.1723a18.191 18.191 0 0 1 4.935-13.142 17.155 17.155 0 0 1 12.874-5.5249 18.33 18.33 0 0 1 18.881 18.56h-10.514a7.8994 7.8994 0 0 0-2.6279-6.5444 7.7943 7.7943 0 0 0-5.74-2.1455 7.2026 7.2026 0 0 0-5.4712 2.6284 8.6088 8.6088 0 0 0-1.8238 5.8467 7.3032 7.3032 0 0 0 1.9312 4.3984q1.8229 2.1475 7.9385 6.4371 8.5818 5.7927 12.391 11.372a22.068 22.068 0 0 1 3.9153 12.337zm122.33-42.054h-13.088v62.222h-10.406v-62.222h-13.088v-9.6552h36.582zm48.49 62.222h-10.406v-32.506h-19.632v32.506h-10.298v-71.877h10.299v29.287h19.632v-29.287h10.406zm47.524 0h-36.582v-71.877h33.793v10.084h-23.494v18.13h14.912v9.87h-14.912v23.708h26.284zm98.656-33.793h-9.8692v33.793h-10.299v-71.877h21.456q8.4728 0 13.678 5.2563 5.203 5.2581 5.2031 13.947a19.716 19.716 0 0 1-5.0957 13.303q-4.9875 5.579-15.073 5.5786zm10.085-19.203a8.3007 8.3007 0 0 0-2.5752-6.437 9.6135 9.6135 0 0 0-6.7588-2.36h-10.62v17.701h10.62a9.2787 9.2787 0 0 0 6.5977-2.5747 8.3487 8.3487 0 0 0 2.7365-6.3295zm57.441 52.996h-10.621l-9.5478-33.793h-9.8692v33.793h-10.299v-71.877h21.456q8.4726 0 13.678 5.2563 5.2032 5.2581 5.2031 13.947a21.218 21.218 0 0 1-2.8427 10.674 14.271 14.271 0 0 1-7.5635 6.7051zm-10.084-52.996a8.3007 8.3007 0 0 0-2.5751-6.437 9.6139 9.6139 0 0 0-6.7588-2.36h-10.62v17.701h10.62a9.2783 9.2783 0 0 0 6.5976-2.5747 8.3487 8.3487 0 0 0 2.7366-6.3295zm38.429 54.284q-11.051 0-16.199-9.28-5.1489-9.2782-5.1494-27.947 0-18.45 5.1494-27.785t16.199-9.3335q11.049 0 16.199 9.3335t5.1494 27.785q0 18.667-5.1494 27.947t-16.199 9.28zm0-10.084q5.8989 0.1077 8.4756-6.5439 2.5737-6.6512 2.5742-20.812 0-13.945-2.5742-20.383-2.5752-6.4365-8.4756-6.4365t-8.4746 6.4365q-2.5752 6.4372-2.5752 20.383 0 14.161 2.5752 20.812t8.4749 6.5439zm50.528-24.996h-9.8692v33.793h-10.298v-71.877h21.456q8.4726 0 13.678 5.2563 5.2032 5.2581 5.2031 13.947a19.715 19.715 0 0 1-5.0957 13.303q-4.9878 5.579-15.073 5.5786zm10.085-19.203a8.301 8.301 0 0 0-2.5751-6.437 9.6139 9.6139 0 0 0-6.7588-2.36h-10.62v17.701h10.62a9.2783 9.2783 0 0 0 6.5976-2.5747 8.3487 8.3487 0 0 0 2.7366-6.3295zm56.237 52.996h-36.582v-71.877h33.793v10.084h-23.494v18.13h14.912v9.87h-14.912v23.708h26.283zm51.814 0h-10.621l-9.5478-33.793h-9.8692v33.793h-10.299v-71.877h21.456q8.4727 0 13.678 5.2563 5.203 5.2581 5.2031 13.947a21.217 21.217 0 0 1-2.8428 10.674 14.272 14.272 0 0 1-7.5634 6.7051zm-10.084-52.996a8.3007 8.3007 0 0 0-2.5752-6.437 9.6135 9.6135 0 0 0-6.7588-2.36h-10.62v17.701h10.62a9.2786 9.2786 0 0 0 6.5977-2.5747 8.3487 8.3487 0 0 0 2.7366-6.3295zm55.356-9.2261h-13.088v62.222h-10.406v-62.222h-13.089v-9.6552h36.583zm50.851-9.6552-17.916 39.372v32.506h-10.299v-32.506l-17.701-39.372h10.835l12.123 25.961 11.801-25.961zm93.291 73.165q-11.051 0-16.199-9.28-5.1491-9.2782-5.1494-27.947 0-18.45 5.1494-27.785t16.199-9.3335q11.049 0 16.199 9.3335t5.1494 27.785q0 18.667-5.1494 27.947t-16.199 9.28zm0-10.084q5.8989 0.1077 8.4756-6.5439 2.5737-6.6512 2.5742-20.812 0-13.945-2.5742-20.383-2.5752-6.4365-8.4756-6.4365t-8.4746 6.4365q-2.5752 6.4372-2.5752 20.383 0 14.161 2.5752 20.812 2.574 6.6525 8.4749 6.5439zm65.893-52.997h-26.283v18.13h14.375v9.87h-14.375v33.793h-10.299v-71.877h36.582zm116.92-0.4287h-13.088v62.222h-10.406v-62.222h-13.089v-9.6552h36.583zm50.29 62.222h-10.406v-32.506h-19.632v32.506h-10.299v-71.877h10.299v29.287h19.632v-29.287h10.406zm47.524 0h-36.582v-71.877h33.793v10.084h-23.494v18.13h14.912v9.87h-14.912v23.708h26.284z"/>
<path d="m245.11 366.78a23.1 23.1 0 0 1-5.2568 14.965q-5.2574 6.4921-14.483 6.4907a18.413 18.413 0 0 1-14.322-6.5982 23.037 23.037 0 0 1-5.8467-15.824h9.87q0 5.688 2.8433 9.0117a9.1005 9.1005 0 0 0 7.2412 3.3257 9.3157 9.3157 0 0 0 7.0806-3.272 10.582 10.582 0 0 0 2.8965-7.6709 14.737 14.737 0 0 0-2.6285-7.4555q-2.5217-3.9149-9.28-8.207-7.7241-4.9337-11.264-9.8165-3.5406-4.88-3.5405-9.1723a18.191 18.191 0 0 1 4.935-13.142 17.155 17.155 0 0 1 12.874-5.5249 18.33 18.33 0 0 1 18.881 18.56h-10.514a7.8994 7.8994 0 0 0-2.6279-6.5444 7.7943 7.7943 0 0 0-5.74-2.1455 7.2026 7.2026 0 0 0-5.4712 2.6284 8.6088 8.6088 0 0 0-1.8238 5.8467 7.3032 7.3032 0 0 0 1.9312 4.3984q1.8229 2.1476 7.9385 6.4371 8.5818 5.7927 12.391 11.372a22.068 22.068 0 0 1 3.9158 12.337zm44.52-42.054h-13.088v62.222h-10.406v-62.222h-13.088v-9.6552h36.582zm45.987 62.222h-10.406l-5.042-19.632h-15.341l-4.8277 19.632h-10.299l17.916-71.877h10.084zm-17.916-29.717-5.2568-20.705-5.042 20.705zm52.662-32.505h-13.088v62.222h-10.406v-62.222h-13.088v-9.6552h36.582zm46.13 62.222h-36.583v-71.877h33.794v10.084h-23.494v18.13h14.912v9.87h-14.912v23.708h26.283zm93.677 1.2876q-11.051 0-16.2-9.28-5.149-9.2783-5.1495-27.947 0-18.45 5.1495-27.785t16.2-9.3335q11.048 0 16.199 9.3335 5.1489 9.3332 5.1494 27.785 0 18.667-5.1494 27.947t-16.199 9.2802zm0-10.084q5.8981 0.1077 8.4751-6.5439 2.5745-6.6511 2.5747-20.812 0-13.945-2.5747-20.383-2.5752-6.4365-8.4751-6.4365-5.9019 0-8.4751 6.4365-2.5752 6.4373-2.5747 20.383 0 14.161 2.5747 20.812t8.475 6.5441zm67.693-52.997h-26.283v18.13h14.376v9.87h-14.376v33.794h-10.299v-71.877h36.582zm95.477 63.081q-11.051 0-16.2-9.28-5.149-9.2783-5.1494-27.947 0-18.45 5.1494-27.785t16.2-9.3335q11.048 0 16.199 9.3335 5.1489 9.3332 5.1494 27.785 0 18.667-5.1494 27.947t-16.199 9.2802zm0-10.084q5.8981 0.1077 8.4751-6.5439 2.5744-6.6511 2.5747-20.812 0-13.945-2.5747-20.383-2.5752-6.4365-8.4751-6.4365-5.9019 0-8.4751 6.4365-2.5752 6.4373-2.5747 20.383 0 14.161 2.5747 20.812t8.475 6.5441zm68.253 8.7969h-10.406v-32.506h-19.632v32.506h-10.299v-71.877h10.299v29.287h19.632v-29.287h10.406zm22.958 0h-10.085v-71.877h10.084zm31.242 1.2876q-11.051 0-16.2-9.28-5.1489-9.2783-5.1494-27.947 0-18.45 5.1494-27.785t16.2-9.3335q11.048 0 16.199 9.3335 5.1489 9.3332 5.1494 27.785 0 18.667-5.1494 27.947t-16.199 9.2802zm0-10.084q5.8981 0.1077 8.4751-6.5439 2.5745-6.6511 2.5747-20.812 0-13.945-2.5747-20.383-2.5752-6.4365-8.4751-6.4365-5.9019 0-8.4751 6.4365-2.5752 6.4373-2.5747 20.383 0 14.161 2.5747 20.812t8.475 6.5441zm48.932 3.7549a5.5179 5.5179 0 0 1-1.7168 4.13 5.6626 5.6626 0 0 1-4.0767 1.6631 5.6908 5.6908 0 1 1 5.7935-5.793zm162.11-66.835-11.586 71.877h-8.9043l-6.7583-37.548-6.8665 37.548h-9.0112l-11.372-71.877h10.084l6.1152 38.299 6.9732-38.299h8.1533l6.7583 38.299 6.33-38.299zm46.988 71.877h-10.406v-32.506h-19.632v32.506h-10.299v-71.877h10.299v29.287h19.632v-29.287h10.406zm29.716 1.2876q-11.051 0-16.2-9.28-5.1489-9.2783-5.1494-27.947 0-18.45 5.1494-27.785t16.2-9.3335q11.048 0 16.199 9.3335 5.1489 9.3332 5.1494 27.785 0 18.667-5.1494 27.947t-16.2 9.2802zm0-10.084q5.8983 0.1077 8.4751-6.5439 2.5745-6.6511 2.5747-20.812 0-13.945-2.5747-20.383-2.5752-6.4365-8.4751-6.4365-5.9017 0-8.4751 6.4365-2.5752 6.4373-2.5747 20.383 0 14.161 2.5747 20.812t8.4749 6.5441zm64.093 8.7969h-36.583v-71.877h33.794v10.084h-23.494v18.13h14.912v9.87h-14.912v23.708h26.283zm50.98-71.877-17.916 71.877h-8.9043l-17.594-71.877h10.299l11.801 46.774 11.908-46.774zm46.641 71.877h-36.582v-71.877h33.793v10.084h-23.494v18.13h14.912v9.87h-14.912v23.708h26.283zm48.214 0h-10.621l-9.5479-33.793h-9.8691v33.793h-10.299v-71.877h21.456q8.4726 0 13.678 5.2563 5.2032 5.2581 5.2032 13.947a21.218 21.218 0 0 1-2.8428 10.674 14.271 14.271 0 0 1-7.5635 6.7051zm-10.084-52.996a8.3007 8.3007 0 0 0-2.5752-6.437 9.6137 9.6137 0 0 0-6.7588-2.36h-10.62v17.701h10.62a9.2783 9.2783 0 0 0 6.5976-2.5747 8.3484 8.3484 0 0 0 2.7361-6.3293zm160.33 17.057q0 17.38-5.6328 26.659t-16.682 9.28h-17.809v-71.877h17.809q11.048 0 16.682 9.28t5.6325 26.658zm-9.9775-0.2143q0-13.623-3.4863-19.686-3.4878-6.0592-9.2793-6.061h-7.4024v51.709h7.4024q5.792 0 9.2793-6.0615 3.4842-6.0592 3.486-19.9zm56.964 36.153h-36.582v-71.877h33.793v10.084h-23.494v18.13h14.912v9.87h-14.912v23.708h26.283zm45.02-20.168a23.097 23.097 0 0 1-5.2568 14.965q-5.2574 6.4921-14.482 6.4907a18.413 18.413 0 0 1-14.322-6.5982 23.039 23.039 0 0 1-5.8467-15.824h9.87q0 5.688 2.8428 9.0117a9.1 9.1 0 0 0 7.2412 3.3257 9.3147 9.3147 0 0 0 7.08-3.272 10.58 10.58 0 0 0 2.8974-7.6709 14.737 14.737 0 0 0-2.6289-7.4555q-2.5224-3.9149-9.2793-8.207-7.7241-4.9337-11.265-9.8165-3.5406-4.88-3.54-9.1723a18.191 18.191 0 0 1 4.9346-13.142 17.156 17.156 0 0 1 12.874-5.5249 18.33 18.33 0 0 1 18.881 18.56h-10.514a7.9024 7.9024 0 0 0-2.6279-6.5444 7.7947 7.7947 0 0 0-5.7393-2.1455 7.2032 7.2032 0 0 0-5.4717 2.6284 8.6162 8.6162 0 0 0-1.8242 5.8467 7.3129 7.3129 0 0 0 1.9317 4.3984q1.8222 2.1476 7.9384 6.4371 8.5811 5.7927 12.391 11.372a22.065 22.065 0 0 1 3.9157 12.338zm42.72-42.054h-13.088v62.222h-10.407v-62.222h-13.089v-9.6552h36.583zm49.134 62.222h-10.621l-9.5478-33.793h-9.8692v33.793h-10.299v-71.877h21.456q8.4728 0 13.678 5.2563 5.203 5.2581 5.2031 13.947a21.217 21.217 0 0 1-2.8428 10.674 14.272 14.272 0 0 1-7.5634 6.7051zm-10.084-52.996a8.3007 8.3007 0 0 0-2.5752-6.437 9.6135 9.6135 0 0 0-6.7588-2.36h-10.62v17.701h10.62a9.2786 9.2786 0 0 0 6.5977-2.5747 8.3487 8.3487 0 0 0 2.7359-6.3293zm38.428 54.284q-11.051 0-16.199-9.28-5.1489-9.2783-5.1494-27.947 0-18.45 5.1494-27.785t16.199-9.3335q11.049 0 16.199 9.3335t5.1494 27.785q0 18.667-5.1494 27.947t-16.2 9.2802zm0-10.084q5.8991 0.1077 8.4756-6.5439 2.5737-6.6511 2.5742-20.812 0-13.945-2.5742-20.383-2.5752-6.4365-8.4756-6.4365t-8.4746 6.4365q-2.5752 6.4373-2.5752 20.383 0 14.161 2.5752 20.812t8.4742 6.5441zm67.014-63.08-17.916 39.372v32.506h-10.299v-32.506l-17.701-39.372h10.835l12.123 25.961 11.801-25.961zm40.299 51.709a23.097 23.097 0 0 1-5.2568 14.965q-5.2574 6.4921-14.482 6.4907a18.413 18.413 0 0 1-14.322-6.5982 23.04 23.04 0 0 1-5.8467-15.824h9.87q0 5.688 2.8428 9.0117a9.1 9.1 0 0 0 7.2412 3.3257 9.3146 9.3146 0 0 0 7.08-3.272 10.58 10.58 0 0 0 2.8975-7.6709 14.739 14.739 0 0 0-2.6289-7.4555q-2.5226-3.9149-9.2793-8.207-7.7242-4.9337-11.265-9.8165-3.54-4.88-3.54-9.1723a18.191 18.191 0 0 1 4.9345-13.142 17.156 17.156 0 0 1 12.874-5.5249 18.33 18.33 0 0 1 18.881 18.56h-10.514a7.9018 7.9018 0 0 0-2.6279-6.5444 7.7946 7.7946 0 0 0-5.7392-2.1455 7.2028 7.2028 0 0 0-5.4717 2.6284 8.6162 8.6162 0 0 0-1.8242 5.8467 7.3128 7.3128 0 0 0 1.9316 4.3984q1.8222 2.1476 7.9385 6.4371 8.581 5.7927 12.391 11.372a22.064 22.064 0 0 1 3.916 12.338zm120.87 21.456q-11.051 0-16.199-9.28-5.1489-9.2783-5.1494-27.947 0-18.45 5.1494-27.785t16.199-9.3335q11.049 0 16.199 9.3335t5.1494 27.785q0 18.667-5.1494 27.947t-16.2 9.2802zm0-10.084q5.899 0.1077 8.4756-6.5439 2.5737-6.6511 2.5742-20.812 0-13.945-2.5742-20.383-2.5752-6.4365-8.4756-6.4365t-8.4746 6.4365q-2.5752 6.4373-2.5752 20.383 0 14.161 2.5752 20.812t8.4742 6.5441zm70.697 8.7969h-10.621l-9.5478-33.793h-9.8692v33.793h-10.299v-71.877h21.456q8.4727 0 13.678 5.2563 5.203 5.2581 5.2031 13.947a21.217 21.217 0 0 1-2.8428 10.674 14.271 14.271 0 0 1-7.5635 6.7051zm-10.084-52.996a8.3007 8.3007 0 0 0-2.5752-6.437 9.6135 9.6135 0 0 0-6.7588-2.36h-10.62v17.701h10.62a9.2787 9.2787 0 0 0 6.5977-2.5747 8.3487 8.3487 0 0 0 2.7363-6.3293z"/>
<path d="m186.28 513.01q0 17.38-5.6319 26.659-5.6324 9.2813-16.682 9.28h-17.809v-71.878h17.809q11.048 0 16.682 9.28 5.6316 9.2801 5.6319 26.658zm-9.9771-0.2138q0-13.623-3.4863-19.686-3.4878-6.0587-9.28-6.0606h-7.4023v51.709h7.4023q5.7935 0 9.28-6.0615 3.4848-6.0601 3.4863-19.9zm58.681 36.153h-10.407l-5.042-19.633h-15.34l-4.8276 19.633h-10.299l17.916-71.878h10.084zm-17.916-29.717-5.2568-20.705-5.042 20.705zm69.839 29.717h-10.407v-40.338l-13.303 40.338-13.41-40.338v40.338h-10.299v-71.878h10.299l13.41 40.337 13.303-40.337h10.406zm50.421 0h-10.407l-5.042-19.633h-15.341l-4.8276 19.633h-10.299l17.916-71.878h10.084zm-17.916-29.717-5.2569-20.705-5.0419 20.705zm60.827 4.291q0 12.447-4.559 19.579-4.5617 7.1353-13.356 7.1338-11.051 0-16.628-8.5283-5.58-8.53-5.5786-28.591 0.2139-20.811 6.3833-29.019 6.1677-8.2075 15.073-8.207a17.931 17.931 0 0 1 12.981 5.0957 18.874 18.874 0 0 1 5.6855 13.034h-10.406a7.962 7.962 0 0 0-2.4678-5.8467 8.6177 8.6177 0 0 0-6.1147-2.1992q-4.2921-0.1056-7.295 4.0234-3.0051 4.1309-3.4331 23.118 0.1055 18.023 3.4331 22.69 3.3238 4.6655 7.9385 4.3447a6.2353 6.2353 0 0 0 6.1685-3.7012q2.0925-3.9154 1.7705-12.177h-8.0464v-10.084h18.452zm43.447 25.426h-36.582v-71.878h33.794v10.084h-23.494v18.131h14.912v9.87h-14.912v23.708h26.283zm46.88-20.169a23.101 23.101 0 0 1-5.2569 14.966q-5.2572 6.4921-14.483 6.49a18.412 18.412 0 0 1-14.322-6.5977 23.037 23.037 0 0 1-5.8467-15.824h9.87q0 5.688 2.8433 9.0117a9.101 9.101 0 0 0 7.2412 3.3262 9.3145 9.3145 0 0 0 7.0805-3.2724 10.581 10.581 0 0 0 2.8965-7.6709 14.736 14.736 0 0 0-2.6284-7.4551q-2.5217-3.9156-9.28-8.207-7.7241-4.9337-11.264-9.8165-3.5406-4.8809-3.5406-9.1728a18.192 18.192 0 0 1 4.9351-13.142 17.154 17.154 0 0 1 12.874-5.5244 18.33 18.33 0 0 1 18.881 18.56h-10.514a7.9 7.9 0 0 0-2.6279-6.5449 7.7949 7.7949 0 0 0-5.74-2.1455 7.2048 7.2048 0 0 0-5.4712 2.6289 8.6082 8.6082 0 0 0-1.8237 5.8467 7.3032 7.3032 0 0 0 1.9312 4.3984q1.823 2.1476 7.9384 6.4366 8.5818 5.7935 12.391 11.372a22.067 22.067 0 0 1 3.9157 12.337zm138.98-42.054h-13.088v62.223h-10.406v-62.222h-13.088v-9.6552h36.582zm48.55 62.223h-10.406v-32.506h-19.632v32.506h-10.299v-71.878h10.299v29.287h19.632v-29.287h10.406zm45.784 0h-36.582v-71.878h33.794v10.084h-23.494v18.131h14.912v9.87h-14.912v23.708h26.283zm128.68-20.169a23.101 23.101 0 0 1-5.2569 14.966q-5.2572 6.4921-14.483 6.49a18.413 18.413 0 0 1-14.322-6.5977 23.038 23.038 0 0 1-5.8466-15.824h9.87q0 5.688 2.8433 9.0117a9.101 9.101 0 0 0 7.2412 3.3262 9.3145 9.3145 0 0 0 7.0805-3.2724 10.581 10.581 0 0 0 2.8963-7.6707 14.736 14.736 0 0 0-2.6284-7.4551q-2.5217-3.9156-9.28-8.207-7.7241-4.9337-11.264-9.8165-3.5406-4.8809-3.5406-9.1728a18.192 18.192 0 0 1 4.9351-13.142 17.154 17.154 0 0 1 12.874-5.5244 18.33 18.33 0 0 1 18.881 18.56h-10.514a7.9 7.9 0 0 0-2.6279-6.5449 7.7949 7.7949 0 0 0-5.74-2.1455 7.2048 7.2048 0 0 0-5.4712 2.6289 8.6082 8.6082 0 0 0-1.8237 5.8467 7.3032 7.3032 0 0 0 1.9312 4.3984q1.8229 2.1476 7.9384 6.4366 8.5818 5.7935 12.391 11.372a22.067 22.067 0 0 1 3.9158 12.337zm48.918 20.169h-10.406l-5.042-19.633h-15.341l-4.8277 19.633h-10.299l17.916-71.878h10.085zm-17.915-29.717-5.2568-20.705-5.042 20.705zm69.838 29.717h-10.406v-40.338l-13.303 40.338-13.41-40.338v40.338h-10.299v-71.878h10.3l13.41 40.337 13.303-40.337h10.406zm45.164 0h-36.582v-71.878h33.794v10.084h-23.494v18.131h14.912v9.87h-14.912v23.708h26.283zm153.51-71.878-11.586 71.878h-8.9042l-6.7583-37.548-6.8663 37.548h-9.0112l-11.372-71.878h10.084l6.1152 38.299 6.9732-38.299h8.1533l6.7583 38.299 6.33-38.299zm16.521 71.878h-10.084v-71.878h10.084zm47.309 0h-36.583v-71.878h10.299v61.793h26.284zm45.27 0h-36.582v-71.878h10.299v61.793h26.284zm152.4-20.169q-0.1084 9.8716-5.6865 15.02a19.922 19.922 0 0 1-14.054 5.1494h-20.597v-71.878h20.598q8.4741 0 13.518 5.31 5.042 5.31 4.9345 14 0.1054 10.942-7.7236 15.877 8.9032 4.2924 9.0116 16.522zm-9.9775 0.1075a11.963 11.963 0 0 0-2.7891-7.9385 9.2733 9.2733 0 0 0-7.1875-3.4336h-10.299v22.422h10.406a9.9414 9.9414 0 0 0 6.9736-3.3262 10.9 10.9 0 0 0 2.8964-7.7234zm-1.3946-32.506a10.385 10.385 0 0 0-2.414-6.8125 7.1108 7.1108 0 0 0-5.5244-2.6279h-10.836v19.632h10.836a7.0705 7.0705 0 0 0 5.6855-2.95 10.78 10.78 0 0 0 2.2533-7.2412zm54.711 52.567h-36.582v-71.878h33.793v10.084h-23.494v18.131h14.912v9.87h-14.912v23.708h26.283zm137.91-33.793h-9.8691v33.793h-10.299v-71.878h21.456q8.4728 0 13.678 5.2568 5.2031 5.2574 5.2031 13.946a19.715 19.715 0 0 1-5.0957 13.303q-4.9874 5.5797-15.073 5.5791zm10.085-19.203a8.3011 8.3011 0 0 0-2.5752-6.4375 9.6135 9.6135 0 0 0-6.7588-2.36h-10.62v17.701h10.62a9.2783 9.2783 0 0 0 6.5977-2.5742 8.35 8.35 0 0 0 2.7367-6.3293zm55.701 52.996h-10.621l-9.5479-33.793h-9.8691v33.793h-10.299v-71.878h21.456q8.4727 0 13.678 5.2568 5.2031 5.2574 5.2031 13.946a21.22 21.22 0 0 1-2.8428 10.675 14.273 14.273 0 0 1-7.5635 6.7051zm-10.084-52.996a8.3011 8.3011 0 0 0-2.5752-6.4375 9.6135 9.6135 0 0 0-6.7588-2.36h-10.62v17.701h10.62a9.2783 9.2783 0 0 0 6.5977-2.5742 8.35 8.35 0 0 0 2.7367-6.3293zm36.688 54.283q-11.051 0-16.199-9.2793t-5.1494-27.947q0-18.45 5.1494-27.785t16.199-9.333q11.049 0 16.199 9.333t5.1494 27.785q0 18.668-5.1494 27.947t-16.199 9.2795zm0-10.084q5.8989 0.107 8.4756-6.5439 2.5737-6.6519 2.5742-20.812 0-13.945-2.5742-20.384-2.5752-6.4365-8.4756-6.4365t-8.4746 6.4365q-2.5752 6.438-2.5752 20.384 0 14.161 2.5752 20.812 2.5741 6.652 8.475 6.5441zm63.963-11.372a23.099 23.099 0 0 1-5.2568 14.966q-5.2573 6.4921-14.482 6.49a18.412 18.412 0 0 1-14.322-6.5977 23.04 23.04 0 0 1-5.8467-15.824h9.87q0 5.688 2.8428 9.0117a9.1 9.1 0 0 0 7.2412 3.3262 9.3138 9.3138 0 0 0 7.08-3.2724 10.58 10.58 0 0 0 2.8974-7.6709 14.737 14.737 0 0 0-2.6289-7.4551q-2.5224-3.9156-9.2793-8.207-7.7241-4.9337-11.265-9.8165-3.5406-4.8809-3.54-9.1728a18.191 18.191 0 0 1 4.9346-13.142 17.156 17.156 0 0 1 12.874-5.5244 18.33 18.33 0 0 1 18.881 18.56h-10.514a7.9028 7.9028 0 0 0-2.6279-6.5449 7.7951 7.7951 0 0 0-5.7393-2.1455 7.2048 7.2048 0 0 0-5.4716 2.6289 8.6157 8.6157 0 0 0-1.8243 5.8467 7.3129 7.3129 0 0 0 1.9317 4.3984q1.8222 2.1476 7.9385 6.4366 8.5811 5.7935 12.391 11.372a22.063 22.063 0 0 1 3.9165 12.337zm47.261 20.169h-36.582v-71.878h33.793v10.084h-23.494v18.131h14.912v9.87h-14.912v23.708h26.283zm8.6643-35.832q0-20.919 6.2763-29.072t15.18-8.1533a17.933 17.933 0 0 1 12.982 5.0957 18.878 18.878 0 0 1 5.6855 13.034h-10.406a7.962 7.962 0 0 0-2.4678-5.8467 8.6166 8.6166 0 0 0-6.1143-2.1992q-4.292 0-7.51 5.2031t-3.2188 21.938q0 17.487 3.2725 22.422t7.456 4.7207a8.6088 8.6088 0 0 0 6.1143-2.2 7.9552 7.9552 0 0 0 2.4678-5.8466h10.406a18.875 18.875 0 0 1-5.6855 13.035 17.929 17.929 0 0 1-12.982 5.0957q-8.9062 0-15.18-8.1533-6.2764-8.1514-6.2756-29.073zm87.408 14.376q0 7.8325-2.79 12.659a20.378 20.378 0 0 1-7.3486 7.2412 18.969 18.969 0 0 1-9.8154 2.8428 20.172 20.172 0 0 1-10.139-2.7891 19.497 19.497 0 0 1-7.456-7.2949q-2.7906-4.9335-2.7891-12.659v-50.422h10.299v51.709a11.905 11.905 0 0 0 2.7891 8.2608 9.3318 9.3318 0 0 0 7.2959 3.1113 8.5943 8.5943 0 0 0 6.8652-3.165 12.258 12.258 0 0 0 2.6826-8.2071v-51.709h10.406zm44.256-40.767h-13.088v62.223h-10.406v-62.222h-13.089v-9.6552h36.583zm46.19 62.223h-36.582v-71.878h33.793v10.084h-23.494v18.131h14.912v9.87h-14.912v23.708h26.283zm48.895-35.94q0 17.38-5.6328 26.659-5.6324 9.2813-16.682 9.28h-17.808v-71.877h17.808q11.048 0 16.682 9.28t5.6328 26.658zm-9.9775-0.2138q0-13.623-3.4864-19.686-3.4878-6.0587-9.2793-6.0606h-7.4023v51.709h7.4023q5.7921 0 9.2793-6.0615 3.4853-6.0599 3.4867-19.9z"/>
<path d="m276.07 690.78a23.102 23.102 0 0 1-5.2568 14.966q-5.2573 6.4921-14.483 6.4912a18.414 18.414 0 0 1-14.322-6.5987 23.037 23.037 0 0 1-5.8467-15.823h9.87q0 5.6865 2.8433 9.0117a9.1031 9.1031 0 0 0 7.2412 3.3252 9.3148 9.3148 0 0 0 7.0806-3.2724 10.579 10.579 0 0 0 2.8965-7.67 14.737 14.737 0 0 0-2.6285-7.456q-2.5216-3.9156-9.28-8.207-7.7241-4.9337-11.264-9.8165-3.5406-4.8793-3.5405-9.1728a18.189 18.189 0 0 1 4.935-13.141 17.155 17.155 0 0 1 12.874-5.5254 18.331 18.331 0 0 1 18.881 18.56h-10.514a7.8978 7.8978 0 0 0-2.6279-6.5439 7.7954 7.7954 0 0 0-5.74-2.1465 7.2046 7.2046 0 0 0-5.4712 2.6289 8.6088 8.6088 0 0 0-1.8238 5.8467 7.3032 7.3032 0 0 0 1.9312 4.3984q1.8229 2.1475 7.9385 6.4366 8.5818 5.7935 12.391 11.372a22.067 22.067 0 0 1 3.9158 12.337zm47.202 20.169h-36.583v-71.878h33.794v10.084h-23.494v18.131h14.912v9.87h-14.912v23.708h26.283zm6.8047-35.831q0-20.921 6.2759-29.073t15.18-8.1533a17.93 17.93 0 0 1 12.981 5.0957 18.876 18.876 0 0 1 5.686 13.035h-10.406a7.9621 7.9621 0 0 0-2.4672-5.8476 8.6192 8.6192 0 0 0-6.1153-2.1992q-4.292 0-7.51 5.2031-3.2183 5.206-3.2183 21.939 0 17.487 3.272 22.421 3.2717 4.9352 7.456 4.7207a8.6115 8.6115 0 0 0 6.1153-2.2 7.9542 7.9542 0 0 0 2.4672-5.8457h10.406a18.868 18.868 0 0 1-5.686 13.034 17.926 17.926 0 0 1-12.981 5.0957q-8.9055 0-15.18-8.1533-6.2753-8.1504-6.2758-29.072zm82.735-26.39h-13.088v62.222h-10.406v-62.222h-13.088v-9.6562h36.582zm17.963 62.222h-10.084v-71.878h10.084zm31.242 1.2881q-11.051 0-16.2-9.28-5.149-9.2782-5.1494-27.946 0-18.451 5.1494-27.785t16.2-9.334q11.048 0 16.199 9.334 5.1489 9.3324 5.1494 27.785 0 18.667-5.1494 27.946t-16.199 9.28zm0-10.085q5.8981 0.107 8.4751-6.5439 2.5744-6.65 2.5747-20.812 0-13.945-2.5747-20.383t-8.4751-6.4375q-5.9019 0-8.4751 6.4375-2.5752 6.4365-2.5747 20.383 0 14.161 2.5747 20.812t8.4754 6.5439zm70.053 8.7969h-9.9771l-20.061-45.701v45.701h-10.299v-71.878h10.299l19.632 45.059v-45.059h10.406zm125.58-19.417a20.586 20.586 0 0 1-5.6323 14.804 18.94 18.94 0 0 1-14.322 5.9014 19.222 19.222 0 0 1-14.268-5.6328q-5.5789-5.6323-5.9-14.537h10.084a11.587 11.587 0 0 0 3.2183 7.2421 9.2386 9.2386 0 0 0 6.8662 2.8428 9.4988 9.4988 0 0 0 7.1875-3.0576 10.574 10.574 0 0 0 2.8965-7.5625 16.876 16.876 0 0 0-2.7891-9.7637q-2.7912-4.0752-6.5439-4.0761h-2.79v-10.084h2.1461a7.2683 7.2683 0 0 0 6.0079-3.0576 12.538 12.538 0 0 0 2.1455-7.5635 9.2875 9.2875 0 0 0-2.253-6.5977 7.8251 7.8251 0 0 0-6.0073-2.414 7.485 7.485 0 0 0-5.3642 2.039 8.3168 8.3168 0 0 0-2.4673 5.4707h-9.9771a18.869 18.869 0 0 1 5.5786-12.659 16.844 16.844 0 0 1 12.23-4.9345 17.368 17.368 0 0 1 12.927 5.31q5.2023 5.31 5.2031 13.678-0.1085 11.051-7.0806 15.663 8.7947 5.2579 8.904 18.99zm43.411-42.377q-18.561 30.684-20.062 61.794h-10.298a152.95 152.95 0 0 1 18.023-61.794h-27.786v-10.084h40.123zm1.488 37.442q0.2139-12.336 7.188-25.479a82.574 82.574 0 0 1 18.345-23.226l5.9 7.7246a71.722 71.722 0 0 0-16.092 22.1 9.7129 9.7129 0 0 1 4.1836-0.8594q9.6556 0.3224 15.127 6.4375t5.4712 16.522q0 10.298-5.4712 16.359t-14.697 6.0621a18.131 18.131 0 0 1-14.482-6.3838q-5.4718-6.3823-5.4717-19.257zm9.87 2.2529q0 6.01 2.789 9.6553a8.7557 8.7557 0 0 0 7.2949 3.6474 8.9892 8.9892 0 0 0 7.4024-3.3252q2.6807-3.3252 2.6821-9.0117 0-5.7935-2.6821-9.1728a8.93 8.93 0 0 0-7.4024-3.38 9.2619 9.2619 0 0 0-7.2949 3.166 12.271 12.271 0 0 0-2.7885 8.421zm73.664-39.694q-18.561 30.684-20.062 61.794h-10.298a152.95 152.95 0 0 1 18.023-61.794h-27.786v-10.084h40.123zm17.533 56.752a5.5175 5.5175 0 0 1-1.7168 4.13 5.6624 5.6624 0 0 1-4.0766 1.6631 5.6912 5.6912 0 1 1 5.7934-5.793zm49.669 5.042h-40.123q0.1062-9.3325 5.5786-21.188a62.403 62.403 0 0 1 16.522-21.295 35.551 35.551 0 0 0 6.0611-6.0078 8.9166 8.9166 0 0 0 2.0918-5.2559 8.8188 8.8188 0 0 0-2.95-6.2754 10.084 10.084 0 0 0-17.218 7.1328h-10.085a20.804 20.804 0 0 1 5.9541-14.053 18.707 18.707 0 0 1 14.215-6.1152 20.14 20.14 0 0 1 14.107 5.3633 17.57 17.57 0 0 1 5.8467 13.518 17.251 17.251 0 0 1-2.95 9.9239 44.448 44.448 0 0 1-7.1343 8.1 91.568 91.568 0 0 0-10.835 12.068 37.798 37.798 0 0 0-6.8658 14h27.786zm29.286 1.2881q-11.051 0-16.2-9.28-5.1489-9.2782-5.1494-27.946 0-18.451 5.1494-27.785t16.2-9.334q11.048 0 16.199 9.334 5.1489 9.3324 5.1494 27.785 0 18.667-5.1494 27.946t-16.199 9.28zm0-10.085q5.8981 0.107 8.4751-6.5439 2.5745-6.65 2.5747-20.812 0-13.945-2.5747-20.383t-8.4751-6.4375q-5.9019 0-8.4751 6.4375-2.5752 6.4365-2.5747 20.383 0 14.161 2.5747 20.812t8.4751 6.5439zm47.846 8.7969h-10.084v-59.111h-6.1147v-8.1534a10.228 10.228 0 0 0 8.6894-4.6132h7.51zm157.49 0h-10.621l-9.5479-33.793h-9.8691v33.793h-10.3v-71.878h21.456q8.4741 0 13.679 5.2568 5.2017 5.2573 5.2031 13.946a21.227 21.227 0 0 1-2.8427 10.675 14.277 14.277 0 0 1-7.5635 6.7051zm-10.084-52.996a8.2989 8.2989 0 0 0-2.5752-6.4365 9.6177 9.6177 0 0 0-6.7588-2.3614h-10.62v17.701h10.62a9.2779 9.2779 0 0 0 6.5976-2.5742 8.3492 8.3492 0 0 0 2.7364-6.3291zm56.237 52.996h-36.583v-71.878h33.794v10.084h-23.494v18.131h14.911v9.87h-14.911v23.708h26.283zm50.98-71.878-17.916 71.878h-8.9043l-17.594-71.878h10.299l11.801 46.774 11.908-46.774zm13.479 66.836a5.52 5.52 0 0 1-1.7159 4.13 5.6652 5.6652 0 0 1-4.0771 1.6631 5.6918 5.6918 0 1 1 5.793-5.793zm86.103-30.789q0-20.921 6.2764-29.073t15.18-8.1533a17.933 17.933 0 0 1 12.981 5.0957 18.88 18.88 0 0 1 5.6856 13.035h-10.406a7.9625 7.9625 0 0 0-2.4677-5.8476 8.6168 8.6168 0 0 0-6.1143-2.1992q-4.292 0-7.51 5.2031-3.2182 5.206-3.2187 21.939 0 17.487 3.2725 22.421 3.2709 4.9352 7.456 4.7207a8.609 8.609 0 0 0 6.1143-2.2 7.9546 7.9546 0 0 0 2.4677-5.8457h10.406a18.872 18.872 0 0 1-5.6856 13.034 17.929 17.929 0 0 1-12.981 5.0957q-8.9062 0-15.18-8.1533-6.2765-8.1504-6.276-29.072zm67.608 37.119q-11.051 0-16.199-9.28-5.1489-9.2782-5.1494-27.946 0-18.451 5.1494-27.785t16.199-9.334q11.049 0 16.199 9.334 5.15 9.3324 5.1494 27.785 0 18.667-5.1494 27.946t-16.199 9.2802zm0-10.085q5.899 0.107 8.4756-6.5439 2.5738-6.65 2.5742-20.812 0-13.945-2.5742-20.383t-8.4756-6.4375q-5.9 0-8.4746 6.4375t-2.5752 20.383q0 14.161 2.5752 20.812t8.4748 6.5441zm71.318-27.142q0 17.379-5.6328 26.658-5.6323 9.2813-16.682 9.28h-17.809v-71.877h17.809q11.048 0 16.682 9.28t5.633 26.659zm-9.9775-0.2148q0-13.623-3.4863-19.686-3.4878-6.06-9.2793-6.0615h-7.4024v51.709h7.4024q5.792 0 9.2793-6.0615 3.485-6.0585 3.4865-19.9zm55.164 36.153h-36.582v-71.878h33.793v10.084h-23.494v18.131h14.912v9.87h-14.912v23.708h26.283zm121.74 1.2881q-11.051 0-16.199-9.28-5.1489-9.2782-5.1494-27.946 0-18.451 5.1494-27.785t16.199-9.334q11.049 0 16.199 9.334 5.15 9.3324 5.1495 27.785 0 18.667-5.1495 27.946t-16.199 9.2802zm0-10.085q5.8989 0.107 8.4756-6.5439 2.5737-6.65 2.5742-20.812 0-13.945-2.5742-20.383t-8.4756-6.4375q-5.9 0-8.4746 6.4375t-2.5752 20.383q0 14.161 2.5752 20.812 2.5739 6.6534 8.4749 6.5441zm65.893-52.997h-26.283v18.131h14.375v9.87h-14.375v33.793h-10.299v-71.878h36.582zm132.68 63.082q-11.051 0-16.199-9.28-5.1489-9.2782-5.1494-27.946 0-18.451 5.1494-27.785t16.199-9.334q11.049 0 16.199 9.334 5.15 9.3324 5.1494 27.785 0 18.667-5.1494 27.946t-16.199 9.2802zm0-10.085q5.8989 0.107 8.4756-6.5439 2.5737-6.65 2.5742-20.812 0-13.945-2.5742-20.383t-8.4756-6.4375q-5.9 0-8.4746 6.4375t-2.5752 20.383q0 14.161 2.5752 20.812 2.5739 6.6534 8.4748 6.5441zm68.254 8.7969h-10.406v-32.506h-19.632v32.506h-10.299v-71.878h10.299v29.287h19.632v-29.287h10.406zm17.557 0h-10.084v-71.878h10.084zm27.642 1.2881q-11.051 0-16.199-9.28-5.1489-9.2782-5.1494-27.946 0-18.451 5.1494-27.785t16.199-9.334q11.049 0 16.199 9.334 5.15 9.3324 5.1494 27.785 0 18.667-5.1494 27.946t-16.199 9.2802zm0-10.085q5.8989 0.107 8.4756-6.5439 2.5737-6.65 2.5742-20.812 0-13.945-2.5742-20.383t-8.4756-6.4375q-5.9 0-8.4746 6.4375t-2.5752 20.383q0 14.161 2.5752 20.812 2.5739 6.6534 8.4748 6.5441z"/>
</svg>
