<svg width="6278.633" height="6278.633" viewBox="0 0 1661.222 1661.222" xmlns="http://www.w3.org/2000/svg">
    <g transform="rotate(-135 387.73 428.159)">
        <rect style="opacity:1;fill:#dd7500;fill-opacity:1;fill-rule:nonzero;stroke:none;stroke-width:8.763;stroke-linecap:round;stroke-linejoin:round;stroke-miterlimit:4;stroke-dasharray:none;stroke-opacity:1" x="-819.611" y="-152.854" rx="76.2" ry="76.2" height="1219.2" width="1219.2"/>
        <rect width="1149.35" height="1149.35" ry="41.275" rx="41.275" y="-117.929" x="-784.686" style="opacity:1;fill:none;fill-opacity:1;fill-rule:nonzero;stroke:#000;stroke-width:31.75;stroke-linecap:round;stroke-linejoin:round;stroke-miterlimit:4;stroke-dasharray:none;stroke-opacity:1"/>
    </g>
    <g aria-label="LANE" style="font-style:normal;font-variant:normal;font-weight:400;font-stretch:normal;font-size:355.60003662px;line-height:125%;font-family:'Roadgeek 2014 Series D';-inkscape-font-specification:'Roadgeek 2014 Series D';text-align:center;letter-spacing:0;word-spacing:0;text-anchor:middle;fill:#000;fill-opacity:1;stroke:none;stroke-width:5.55625057px;stroke-linecap:butt;stroke-linejoin:miter;stroke-opacity:1">
        <path d="M270.886 130.332H144.902v-203.2h31.902v173.33h94.082zM454.79 130.332h-34.137l-20.117-57.1h-63.398l-19.914 57.1h-34.34l69.9-203.2h32.106zm-65.43-89.815-20.117-57.099-20.523 57.1zM623.398 130.332h-28.651L517.124-7.235v137.567h-31.902v-203.2h31.902l74.168 129.845V-72.868h32.106zM798.035 130.332H672.05v-203.2h119.685v31.902h-87.783v50.19h59.335V41.94h-59.335v55.677h94.082z" style="text-align:center;text-anchor:middle;stroke-width:5.55625057px" transform="translate(359.143 1005.085)"/>
    </g>
    <g aria-label="SINGLE" style="font-style:normal;font-variant:normal;font-weight:400;font-stretch:normal;font-size:355.60003662px;line-height:125%;font-family:'Roadgeek 2014 Series D';-inkscape-font-specification:'Roadgeek 2014 Series D';text-align:center;letter-spacing:0;word-spacing:0;text-anchor:middle;fill:#000;fill-opacity:1;stroke:none;stroke-width:5.55625057px;stroke-linecap:butt;stroke-linejoin:miter;stroke-opacity:1">
        <path d="M158.59-287.244q0 28.448-19.914 46.33-17.678 15.646-44.094 15.646-25.4 0-44.704-13.615-19.101-13.817-29.464-37.592l30.48-11.379q13.614 29.87 43.688 29.87 13.614 0 22.352-8.534 8.94-8.534 8.94-21.336 0-7.721-3.25-13.614-3.049-5.893-9.957-9.957-6.706-4.267-12.396-6.706-5.69-2.438-16.459-6.096-10.566-3.657-15.85-5.69-39.42-15.646-39.217-50.596 0-28.448 17.069-41.656 17.272-13.208 46.533-13.208 40.64 0 57.505 41.25l-28.651 8.33q-.61-1.828-2.642-4.673-1.828-2.845-9.55-7.721-7.518-4.877-17.678-5.284-13.208-.61-22.759 5.284-9.55 5.892-8.534 18.49.61 10.16 10.973 16.257 10.566 5.893 24.79 9.957 14.427 4.064 28.651 9.956 14.224 5.893 24.181 19.914 9.957 14.02 9.957 36.373zM225.706-228.723h-32.715v-203.2h32.715zM412.427-228.723h-28.651l-77.622-137.566v137.566H274.25v-203.2h31.903l74.168 129.845v-129.845h32.105zM595.395-289.276q0 27.432-18.288 45.72-18.085 18.288-46.126 18.288-22.962 0-37.186-8.738-14.224-8.737-23.368-28.041-13.614-27.839-13.411-67.87 0-24.383 6.096-46.735 6.3-22.352 16.866-35.763 18.694-22.962 51.816-22.962 23.57 0 38.608 10.363 15.036 10.363 24.993 34.544l-30.48 11.989q-6.705-13.208-14.02-18.694-7.316-5.487-19.101-5.487-24.384 0-34.138 24.994-7.722 19.1-7.722 47.752 0 35.56 9.754 55.677 9.144 16.459 27.838 16.256 15.24 0 25.4-8.738 10.16-8.738 10.16-22.555v-8.738h-36.982v-31.902h69.291zM766.253-228.723H640.27v-203.2h31.902v173.33h94.082zM922.523-228.723H796.539v-203.2h119.684v31.903h-87.782v50.19h59.334v32.715h-59.334v55.677h94.082z" style="text-align:center;text-anchor:middle;stroke-width:5.55625057px" transform="translate(359.143 1005.085)"/>
    </g>
</svg>
