<?xml version="1.0" encoding="UTF-8" standalone="no"?>
<!-- Created with Inkscape (http://www.inkscape.org/) -->

<svg
   width="67.14772mm"
   height="42.735497mm"
   viewBox="0 0 67.14772 42.735497"
   version="1.1"
   id="svg1"
   inkscape:version="1.4.2 (ebf0e940, 2025-05-08)"
   sodipodi:docname="MUTCD-OH_E3-H1b.svg"
   xmlns:inkscape="http://www.inkscape.org/namespaces/inkscape"
   xmlns:sodipodi="http://sodipodi.sourceforge.net/DTD/sodipodi-0.dtd"
   xmlns="http://www.w3.org/2000/svg"
   xmlns:svg="http://www.w3.org/2000/svg">
  <sodipodi:namedview
     id="namedview1"
     pagecolor="#ffffff"
     bordercolor="#666666"
     borderopacity="1.0"
     inkscape:showpageshadow="2"
     inkscape:pageopacity="0.0"
     inkscape:pagecheckerboard="0"
     inkscape:deskcolor="#d1d1d1"
     inkscape:document-units="mm"
     inkscape:zoom="4"
     inkscape:cx="111.625"
     inkscape:cy="86"
     inkscape:window-width="1728"
     inkscape:window-height="1051"
     inkscape:window-x="0"
     inkscape:window-y="38"
     inkscape:window-maximized="1"
     inkscape:current-layer="layer1" />
  <defs
     id="defs1">
    <clipPath
       clipPathUnits="userSpaceOnUse"
       id="clipPath22">
      <path
         d="M 0,0 H 612.12 V 792.12 H 0 V 0"
         transform="translate(-355.20001,-213.7)"
         clip-rule="evenodd"
         id="path22" />
    </clipPath>
    <clipPath
       clipPathUnits="userSpaceOnUse"
       id="clipPath24">
      <path
         d="M 0,0 H 612.12 V 792.12 H 0 V 0"
         transform="translate(-530.10001,-213.7)"
         clip-rule="evenodd"
         id="path24" />
    </clipPath>
    <clipPath
       clipPathUnits="userSpaceOnUse"
       id="clipPath26">
      <path
         d="M 0,0 H 612.12 V 792.12 H 0 V 0"
         transform="translate(-467.90001,-298.10001)"
         clip-rule="evenodd"
         id="path26" />
    </clipPath>
    <clipPath
       clipPathUnits="userSpaceOnUse"
       id="clipPath856">
      <path
         d="M 0,0 H 612.12 V 792.12 H 0 V 0"
         transform="translate(-379.60001,-261.00001)"
         clip-rule="evenodd"
         id="path856" />
    </clipPath>
    <clipPath
       clipPathUnits="userSpaceOnUse"
       id="clipPath858">
      <path
         d="M 0,0 H 612.12 V 792.12 H 0 V 0"
         transform="translate(-396.90001,-261.00001)"
         clip-rule="evenodd"
         id="path858" />
    </clipPath>
    <clipPath
       clipPathUnits="userSpaceOnUse"
       id="clipPath860">
      <path
         d="M 0,0 H 612.12 V 792.12 H 0 V 0"
         transform="translate(-419.40001,-261.00001)"
         clip-rule="evenodd"
         id="path860" />
    </clipPath>
    <clipPath
       clipPathUnits="userSpaceOnUse"
       id="clipPath862">
      <path
         d="M 0,0 H 612.12 V 792.12 H 0 V 0"
         transform="translate(-438.80001,-261.00001)"
         clip-rule="evenodd"
         id="path862" />
    </clipPath>
    <clipPath
       clipPathUnits="userSpaceOnUse"
       id="clipPath864">
      <path
         d="M 0,0 H 612.12 V 792.12 H 0 V 0"
         transform="translate(-459.10001,-268.80001)"
         clip-rule="evenodd"
         id="path864" />
    </clipPath>
    <clipPath
       clipPathUnits="userSpaceOnUse"
       id="clipPath866">
      <path
         d="M 0,0 H 612.12 V 792.12 H 0 V 0"
         transform="translate(-465.60001,-261.00001)"
         clip-rule="evenodd"
         id="path866" />
    </clipPath>
    <clipPath
       clipPathUnits="userSpaceOnUse"
       id="clipPath868">
      <path
         d="M 0,0 H 612.12 V 792.12 H 0 V 0"
         transform="translate(-485.00001,-261.00001)"
         clip-rule="evenodd"
         id="path868" />
    </clipPath>
    <clipPath
       clipPathUnits="userSpaceOnUse"
       id="clipPath870">
      <path
         d="M 0,0 H 612.12 V 792.12 H 0 V 0"
         transform="translate(-496.30001,-261.00001)"
         clip-rule="evenodd"
         id="path870" />
    </clipPath>
    <clipPath
       clipPathUnits="userSpaceOnUse"
       id="clipPath872">
      <path
         d="M 0,0 H 612.12 V 792.12 H 0 V 0"
         transform="translate(-524.40001,-261.00001)"
         clip-rule="evenodd"
         id="path872" />
    </clipPath>
    <clipPath
       clipPathUnits="userSpaceOnUse"
       id="clipPath874">
      <path
         d="M 0,0 H 612.12 V 792.12 H 0 V 0"
         transform="translate(-403.80001,-228.60001)"
         clip-rule="evenodd"
         id="path874" />
    </clipPath>
    <clipPath
       clipPathUnits="userSpaceOnUse"
       id="clipPath876">
      <path
         d="M 0,0 H 612.12 V 792.12 H 0 V 0"
         transform="translate(-408.80001,-228.60001)"
         clip-rule="evenodd"
         id="path876" />
    </clipPath>
    <clipPath
       clipPathUnits="userSpaceOnUse"
       id="clipPath878">
      <path
         d="M 0,0 H 612.12 V 792.12 H 0 V 0"
         transform="translate(-423.80001,-228.60001)"
         clip-rule="evenodd"
         id="path878" />
    </clipPath>
    <clipPath
       clipPathUnits="userSpaceOnUse"
       id="clipPath880">
      <path
         d="M 0,0 H 612.12 V 792.12 H 0 V 0"
         transform="translate(-432.90001,-228.60001)"
         clip-rule="evenodd"
         id="path880" />
    </clipPath>
    <clipPath
       clipPathUnits="userSpaceOnUse"
       id="clipPath882">
      <path
         d="M 0,0 H 612.12 V 792.12 H 0 V 0"
         transform="translate(-465.10001,-225.00001)"
         clip-rule="evenodd"
         id="path882" />
    </clipPath>
    <clipPath
       clipPathUnits="userSpaceOnUse"
       id="clipPath884">
      <path
         d="M 0,0 H 612.12 V 792.12 H 0 V 0"
         transform="translate(-486.90001,-225.00001)"
         clip-rule="evenodd"
         id="path884" />
    </clipPath>
    <clipPath
       clipPathUnits="userSpaceOnUse"
       id="clipPath886">
      <path
         d="M 0,0 H 612.12 V 792.12 H 0 V 0"
         transform="translate(-490.00001,-229)"
         clip-rule="evenodd"
         id="path886" />
    </clipPath>
  </defs>
  <g
     inkscape:label="Layer 1"
     inkscape:groupmode="layer"
     id="layer1"
     transform="translate(-78.316669,-120.38542)">
    <path
       id="path21"
       d="M 0,0 H 190.1 V 120.9 H 0 V 0"
       style="fill:#006747;fill-opacity:1;fill-rule:evenodd;stroke:#000000;stroke-width:0.24;stroke-linecap:butt;stroke-linejoin:round;stroke-miterlimit:1.414;stroke-dasharray:none;stroke-opacity:1"
       transform="matrix(0.35277776,0,0,-0.35277776,78.359002,163.07858)"
       clip-path="url(#clipPath22)" />
    <path
       id="path23"
       d="m 0,0 h -159.8 c -1.8,0 -3.7,0.3 -5.6,1 -1.9,0.8 -3.6,1.9 -5.1,3.4 -1.5,1.5 -2.6,3.3 -3.4,5.1 -0.7,1.9 -1,3.8 -1,5.6 v 90.7 c 0,1.8 0.3,3.7 1,5.6 0.8,1.9 1.9,3.6 3.4,5.1 1.5,1.5 3.2,2.6 5.1,3.4 1.9,0.7 3.8,1 5.6,1 H 0 c 1.8,0 3.7,-0.3 5.6,-1 1.9,-0.8 3.6,-1.9 5.1,-3.4 1.5,-1.5 2.6,-3.2 3.4,-5.1 0.7,-1.9 1.1,-3.8 1.1,-5.6 V 15.1 C 15.2,13.3 14.8,11.4 14.1,9.5 13.3,7.7 12.2,5.9 10.7,4.4 9.2,2.9 7.5,1.8 5.6,1 3.7,0.3 1.8,0 0,0 M -159.8,2.9 H 0 c 1.5,0 3,0.2 4.5,0.8 1.6,0.6 3,1.5 4.2,2.7 1.2,1.3 2.1,2.7 2.7,4.2 0.6,1.5 0.9,3 0.9,4.5 v 90.7 c 0,1.5 -0.3,3 -0.9,4.5 -0.6,1.5 -1.5,3 -2.7,4.2 -1.2,1.2 -2.6,2.1 -4.2,2.7 -1.5,0.6 -3,0.9 -4.5,0.9 h -159.8 c -1.5,0 -3,-0.3 -4.5,-0.9 -1.5,-0.6 -3,-1.5 -4.2,-2.7 -1.2,-1.2 -2.1,-2.7 -2.7,-4.2 -0.6,-1.5 -0.8,-3 -0.8,-4.5 V 15.1 c 0,-1.5 0.2,-3 0.8,-4.5 0.6,-1.5 1.5,-2.9 2.7,-4.2 1.2,-1.2 2.7,-2.1 4.2,-2.7 1.5,-0.6 3,-0.8 4.5,-0.8"
       style="fill:#ffffff;fill-opacity:1;fill-rule:evenodd;stroke:none"
       transform="matrix(0.35277776,0,0,-0.35277776,140.05983,163.07858)"
       clip-path="url(#clipPath24)" />
    <path
       id="path25"
       d="M 0,0 H -4.1 V -3.5 H -9.4 V 0 h -16.5 v -3.5 h -5.4 V 0 h -4.1 v 10.2 0.1 0.1 0.1 0.1 l 0.1,0.1 v 0.1 0.1 h 0.1 V 11 l 0.1,0.1 v 0 l 0.1,0.1 0.1,0.1 h 0.1 v 0 l 0.1,0.1 h 0.1 0.1 0.1 0.1 l 0.2,0.1 3.5,0.1 v 12.2 0.1 0.2 0.1 0.1 l 0.1,0.1 v 0.1 0.1 0 l 0.1,0.1 v 0.1 l 0.1,0.1 v 0 l 0.1,0.1 h 0.1 v 0.1 h 0.1 l 0.1,0.1 h 0.1 0.1 0.1 v 0 l 0.2,0.1 h 0.1 23.3 0.1 l 0.1,-0.1 h 0.1 0.1 0.1 0.1 l 0.1,-0.1 v 0 h 0.1 L -5.1,25 v 0 l 0.1,-0.1 0.1,-0.1 v 0 l 0.1,-0.1 v -0.1 -0.1 h 0.1 V 24.4 24.3 24.2 24.1 23.9 23.8 11.5 h 3.4 0.1 0.1 0.1 0.1 0.1 l 0.1,-0.1 h 0.1 v 0 l 0.1,-0.1 h 0.1 v -0.1 h 0.1 V 11.1 L -0.2,11 v 0 l 0.1,-0.1 V 10.8 10.7 L 0,10.6 V 10.5 10.4 10.3 10.2 10.1 0 m -2.7,2.7 v 5.6 0.1 0.1 0.1 0.1 l -0.1,0.1 v 0 L -2.9,8.9 V 9 H -3 l -0.1,0.1 h -0.1 v 0 H -3.3 -3.5 L -3.6,9.2 H -7 v 12.4 0.1 l -0.1,0.1 v 0.1 0.1 0.1 h -0.1 v 0.1 l -0.1,0.1 h -0.1 v 0.1 h -0.1 -0.1 l -0.1,0.1 H -7.8 -7.9 -8 l -19.4,-0.1 h -0.2 -0.1 -0.1 v 0 l -0.1,-0.1 H -28 l -0.1,-0.1 v 0 l -0.1,-0.1 V 22 21.9 h -0.1 V 21.8 21.6 21.5 9.1 h -3.7 -0.1 -0.1 v 0 L -32.3,9 h -0.1 -0.1 V 8.9 L -32.6,8.8 V 8.7 8.6 L -32.7,8.5 V 8.4 8.3 8.2 2.7 h 30 M -4.6,6.4 V 6.1 5.9 5.7 L -4.7,5.5 -4.8,5.3 -4.9,5.1 -5,5 -5.1,4.8 -5.3,4.6 -5.4,4.5 -5.6,4.3 -5.8,4.2 -6,4.1 H -6.1 L -6.3,4 -6.6,3.9 H -6.8 -7 -7.2 -7.4 L -7.6,4 H -7.8 L -8,4.1 -8.2,4.2 -8.4,4.3 -8.5,4.5 -8.7,4.6 -8.8,4.8 -9,4.9 -9.1,5.1 -9.2,5.3 -9.3,5.5 V 5.7 L -9.4,5.9 V 6.1 6.4 6.6 6.8 L -9.3,7 v 0.2 l 0.1,0.2 0.1,0.2 0.1,0.1 0.2,0.2 0.1,0.2 0.2,0.1 0.1,0.1 0.2,0.1 0.2,0.1 0.2,0.1 0.2,0.1 h 0.2 0.2 0.2 0.2 0.2 0.3 L -6.1,8.6 -6,8.5 -5.8,8.4 -5.6,8.3 -5.4,8.2 -5.3,8.1 -5.1,7.9 -5,7.7 -4.9,7.6 -4.8,7.4 -4.7,7.2 -4.6,7 V 6.8 6.6 6.4 m -3.2,5.1 h -19.8 v 10 l 0.1,0.1 0.1,0.1 H -8 -7.9 l 0.1,-0.1 v -0.1 -10 M -26,6.4 V 6.1 5.9 5.7 L -26.1,5.5 -26.2,5.3 -26.3,5.1 -26.4,5 -26.5,4.8 -26.6,4.6 -26.8,4.5 -26.9,4.3 -27.1,4.2 -27.3,4.1 h -0.2 L -27.7,4 -27.9,3.9 h -0.2 -0.2 -0.3 -0.2 L -29,4 -29.2,4.1 h -0.2 l -0.1,0.1 -0.2,0.1 -0.2,0.2 -0.1,0.1 -0.2,0.2 -0.1,0.2 -0.1,0.1 -0.1,0.2 -0.1,0.2 v 0.2 l -0.1,0.2 v 0.2 0.3 0.2 0.2 l 0.1,0.2 v 0.2 l 0.1,0.2 0.1,0.2 0.1,0.2 0.1,0.1 0.2,0.2 0.1,0.1 0.2,0.1 0.2,0.1 0.1,0.1 0.2,0.1 0.2,0.1 h 0.2 0.2 0.3 0.2 0.2 0.2 l 0.2,-0.1 0.2,-0.1 0.2,-0.1 0.2,-0.1 0.1,-0.1 0.2,-0.1 0.1,-0.2 0.1,-0.1 0.1,-0.2 0.1,-0.2 0.1,-0.2 L -26,7 V 6.8 6.6 6.4 m 15.5,10.5 V 17 l 0.2,0.1 0.1,0.1 0.1,0.1 0.1,0.1 0.1,0.2 0.1,0.1 0.1,0.2 v 0.1 0.2 l 0.1,0.2 v 0.2 0.2 l -0.1,0.3 v 0.2 l -0.1,0.2 -0.1,0.2 -0.2,0.1 -0.1,0.2 -0.2,0.1 -0.3,0.2 -0.4,0.1 -0.3,0.1 h -0.3 -0.2 -0.2 l -0.2,-0.1 -0.2,-0.1 -0.1,-0.1 -0.2,-0.1 -0.1,-0.2 -0.2,-0.2 -0.1,-0.2 -0.1,-0.2 -0.1,-0.3 v -0.2 -0.2 -0.3 -0.2 l 0.1,-0.1 0.3,0.1 h 0.2 0.2 0.2 l 0.2,-0.1 h 0.1 0.2 l 0.1,-0.1 0.2,-0.1 h 0.1 l 0.2,-0.1 0.1,-0.1 0.1,-0.1 0.1,-0.1 0.2,-0.2 0.1,-0.1 0.1,-0.1 0.1,-0.1 m 0.4,-1.7 2.3,-0.1 -2.3,0.9 v -0.3 -0.2 -0.1 -0.2 m -0.3,0.3 v 0.2 l -0.1,0.2 v 0.3 l -0.1,0.2 -0.1,0.2 -0.1,0.2 -0.1,0.1 -0.2,0.2 -0.2,0.2 -0.1,0.1 -0.2,0.1 -0.2,0.1 -0.1,0.1 h -0.2 l -0.2,0.1 h -0.2 -0.3 -0.2 -0.2 l -0.3,-0.1 -0.2,-0.1 -0.2,-0.1 -0.2,-0.1 -0.2,-0.1 -0.1,-0.2 -0.2,-0.1 -0.1,-0.2 -0.1,-0.1 -0.1,-0.2 -0.1,-0.2 v -0.2 l -0.1,-0.2 V 15.7 15.5 15.3 15 l 0.1,-0.2 v -0.2 l 0.1,-0.1 0.1,-0.2 0.1,-0.2 0.1,-0.2 0.2,-0.1 0.1,-0.2 0.2,-0.1 0.2,-0.1 0.2,-0.1 0.1,-0.1 h 0.2 l 0.2,-0.1 h 0.2 0.2 0.3 0.2 l 0.2,0.1 h 0.2 l 0.2,0.1 0.1,0.1 0.2,0.1 0.2,0.1 0.1,0.2 0.2,0.1 0.1,0.2 0.1,0.2 0.1,0.1 v 0.2 l 0.1,0.2 V 15 l 0.1,0.2 v 0.3 m -5.6,2.8 v 0.3 0.2 l -0.1,0.2 -0.1,0.2 -0.1,0.1 -0.2,0.2 -0.1,0.2 -0.2,0.1 -0.2,0.1 h -0.2 l -0.2,0.1 h -0.3 -0.2 l -0.2,-0.1 h -0.2 l -0.2,-0.1 -0.2,-0.2 -0.1,-0.1 -0.2,-0.2 -0.1,-0.2 -0.1,-0.1 -0.1,-0.2 v -0.3 -0.2 -0.2 -0.2 l 0.1,-0.2 0.1,-0.2 0.1,-0.2 0.1,-0.2 0.2,-0.1 0.2,-0.2 0.2,-0.1 h 0.2 l 0.2,-0.1 h 0.2 0.3 l 0.2,0.1 h 0.2 l 0.2,0.1 0.2,0.2 0.1,0.1 0.2,0.2 0.1,0.2 0.1,0.2 0.1,0.2 v 0.2 0.2 m 6.2,-6.2 -1.3,1.3 -0.2,-0.2 -0.2,-0.1 -0.3,-0.1 -0.2,-0.1 -0.3,-0.1 h -0.2 -0.3 -0.2 -0.3 l -0.3,0.1 -0.2,0.1 -0.3,0.1 -0.3,0.2 -1.3,-1.2 h 5.9 m -5.5,4.1 -1.1,0.6 -0.2,-0.2 -0.3,-0.1 -0.2,-0.1 h -0.2 -0.2 -0.3 -0.2 -0.2 l -0.2,0.1 -0.2,0.1 -0.4,0.2 -1.2,-0.6 0.1,-0.4 v -0.4 -0.1 -0.1 l 4.7,-0.1 v 0.2 0.1 0.2 l 0.1,0.3 v 0.3 m -9.6,0.8 v 0 l 0.2,0.2 0.2,0.2 0.1,0.1 0.2,0.1 0.2,0.1 0.1,0.1 0.2,0.1 h 0.2 l 0.2,0.1 h 0.2 l 0.2,0.1 h 0.2 l 0.3,-0.1 h 0.4 l 0.1,0.1 v 0.2 0.3 0.2 0.3 l -0.1,0.2 -0.2,0.2 v 0.2 l -0.1,0.1 -0.1,0.1 -0.1,0.1 -0.1,0.1 -0.2,0.1 -0.1,0.1 H -23 l -0.1,0.1 h -0.2 l -0.1,0.1 h -0.2 -0.1 -0.2 l -0.2,-0.1 h -0.2 -0.2 l -0.1,-0.1 -0.2,-0.1 -0.1,-0.1 -0.2,-0.1 -0.1,-0.2 -0.1,-0.1 -0.2,-0.2 -0.1,-0.3 -0.1,-0.2 V 18.8 18.5 18.4 18.2 18 l 0.1,-0.1 0.1,-0.2 0.1,-0.2 0.1,-0.1 0.1,-0.1 0.1,-0.2 0.1,-0.1 h 0.1 m 4.5,-1.6 v 0.3 0.2 l -0.1,0.2 v 0.2 l -0.1,0.1 -0.1,0.2 -0.1,0.2 -0.1,0.1 -0.2,0.2 -0.2,0.2 -0.1,0.1 -0.2,0.1 -0.2,0.1 -0.2,0.1 h -0.3 l -0.2,0.1 h -0.2 -0.3 l -0.2,-0.1 h -0.2 l -0.1,-0.1 h -0.2 l -0.2,-0.1 -0.2,-0.1 -0.1,-0.2 -0.2,-0.1 -0.1,-0.2 -0.1,-0.1 -0.1,-0.2 -0.1,-0.2 -0.1,-0.1 -0.1,-0.2 V 15.9 15.7 15.4 15.2 15 l 0.1,-0.3 v -0.2 l 0.1,-0.2 0.1,-0.2 0.2,-0.2 0.1,-0.1 0.2,-0.2 0.1,-0.1 0.2,-0.1 0.2,-0.1 0.2,-0.1 0.1,-0.1 h 0.2 0.2 0.3 0.2 0.2 0.2 l 0.2,0.1 0.2,0.1 0.1,0.1 0.2,0.1 0.2,0.1 0.1,0.2 0.2,0.1 0.1,0.2 0.1,0.2 0.1,0.1 0.1,0.2 v 0.2 l 0.1,0.2 v 0.2 0.2 m 0.6,-3.3 -1.2,1.3 -0.1,-0.1 -0.2,-0.1 -0.2,-0.1 -0.2,-0.1 -0.3,-0.1 -0.2,-0.1 h -0.3 -0.2 -0.3 -0.3 l -0.3,0.1 -0.2,0.1 -0.3,0.2 -0.2,0.1 -1.3,-1.2 h 5.8 m -5.5,3.8 -2.3,-0.9 2.2,0.1 0.1,0.8"
       style="fill:#ffffff;fill-opacity:1;fill-rule:evenodd;stroke:none"
       transform="matrix(0.35277776,0,0,-0.35277776,118.11706,133.30414)"
       clip-path="url(#clipPath26)" />
    <path
       id="path855"
       d="m 0,0 v 7.6 h 5.4 c 2.7,0 4.6,0.9 5.7,2.9 0.6,0.9 0.9,1.9 0.9,2.9 0,1.6 -0.6,3 -1.8,4.1 C 9,18.6 7.5,19.2 5.8,19.2 H -3.6 V 0 H 0 m 0,15.8 h 5.6 c 0.8,0 1.5,-0.2 2,-0.6 C 8.2,14.7 8.5,14.1 8.5,13.4 8.5,12.7 8.2,12.1 7.7,11.6 7.2,11.2 6.5,11 5.8,11 H 0 v 4.8"
       style="fill:#ffffff;fill-opacity:1;fill-rule:evenodd;stroke:none"
       transform="matrix(0.35277776,0,0,-0.35277776,86.966779,146.39219)"
       clip-path="url(#clipPath856)" />
    <path
       id="path857"
       d="m 0,0 1.8,4.5 h 8.4 L 12.1,0 h 3.7 l -8,19.2 H 4.3 L -3.8,0 H 0 M 6,14.4 8.7,7.9 H 3.3 L 6,14.4"
       style="fill:#ffffff;fill-opacity:1;fill-rule:evenodd;stroke:none"
       transform="matrix(0.35277776,0,0,-0.35277776,93.069835,146.39219)"
       clip-path="url(#clipPath858)" />
    <path
       id="path859"
       d="M 0,0 V 7.5 H 5.2 L 8.3,0 h 3.8 L 8.6,8.2 c 1,0.5 1.7,1.2 2.3,2.1 0.5,0.9 0.8,1.9 0.8,3 0,1.7 -0.6,3.1 -1.9,4.2 -1.2,1.1 -2.6,1.7 -4.4,1.7 H -3.5 V 0 H 0 M 0,15.7 H 5.7 C 6.4,15.7 7,15.5 7.5,15 8,14.6 8.3,14 8.3,13.3 8.3,12.6 8,12 7.5,11.6 7,11.1 6.4,10.9 5.7,10.9 H 0 v 4.8"
       style="fill:#ffffff;fill-opacity:1;fill-rule:evenodd;stroke:none"
       transform="matrix(0.35277776,0,0,-0.35277776,101.00734,146.39219)"
       clip-path="url(#clipPath860)" />
    <path
       id="path861"
       d="M 0,0 V 5.3 L 3.6,9.9 8.6,0 h 3.9 l -6.4,12.9 5.2,6.3 H 6.8 L 0,10.8 v 8.4 H -3.5 V 0 H 0"
       style="fill:#ffffff;fill-opacity:1;fill-rule:evenodd;stroke:none"
       transform="matrix(0.35277776,0,0,-0.35277776,107.85122,146.39219)"
       clip-path="url(#clipPath862)" />
    <path
       id="path863"
       d="M 0,0 V 3.5 H -6.7 V 0 H 0"
       style="fill:#ffffff;fill-opacity:1;fill-rule:evenodd;stroke:none"
       transform="matrix(0.35277776,0,0,-0.35277776,115.01261,143.64053)"
       clip-path="url(#clipPath864)" />
    <path
       id="path865"
       d="M 0,0 V 7.5 H 5.2 L 8.3,0 h 3.9 L 8.7,8.2 c 0.9,0.5 1.7,1.2 2.2,2.1 0.6,0.9 0.9,1.9 0.9,3 0,1.7 -0.7,3.1 -1.9,4.2 -1.2,1.1 -2.7,1.7 -4.4,1.7 H -3.4 V 0 H 0 M 0,15.7 H 5.8 C 6.5,15.7 7.1,15.5 7.6,15 8.1,14.6 8.3,14 8.3,13.3 8.3,12.6 8.1,12 7.6,11.6 7.1,11.1 6.5,10.9 5.7,10.9 H 0 v 4.8"
       style="fill:#ffffff;fill-opacity:1;fill-rule:evenodd;stroke:none"
       transform="matrix(0.35277776,0,0,-0.35277776,117.30567,146.39219)"
       clip-path="url(#clipPath866)" />
    <path
       id="path867"
       d="M 0,0 V 19.2 H -3.4 V 0 H 0"
       style="fill:#ffffff;fill-opacity:1;fill-rule:evenodd;stroke:none"
       transform="matrix(0.35277776,0,0,-0.35277776,124.14956,146.39219)"
       clip-path="url(#clipPath868)" />
    <path
       id="path869"
       d="m 0,0 c 1.6,0 3.1,0.4 4.6,1.2 3.1,1.7 4.7,4.6 4.7,8.4 0,3.9 -1.6,6.6 -4.7,8.3 -1.4,0.9 -2.9,1.3 -4.4,1.3 H -6.3 V 0 H 0 M -2.7,15.7 H 0 C 1.8,15.7 3.2,15.1 4.3,14 5.3,12.9 5.8,11.4 5.8,9.6 5.8,8.3 5.6,7.3 5.1,6.4 4.7,5.6 3.9,4.8 2.8,4.2 1.8,3.6 0.9,3.3 0,3.3 h -2.7 v 12.4"
       style="fill:#ffffff;fill-opacity:1;fill-rule:evenodd;stroke:none"
       transform="matrix(0.35277776,0,0,-0.35277776,128.13595,146.39219)"
       clip-path="url(#clipPath870)" />
    <path
       id="path871"
       d="m 0,0 v 3.3 h -10.9 v 5.4 h 5.8 v 3.5 h -5.8 v 3.5 h 10.6 v 3.5 H -14.4 V 0 H 0"
       style="fill:#ffffff;fill-opacity:1;fill-rule:evenodd;stroke:none"
       transform="matrix(0.35277776,0,0,-0.35277776,138.049,146.39219)"
       clip-path="url(#clipPath872)" />
    <path
       id="path873"
       d="m 0,0 v 2.5 h -8.2 v 4 h 4.3 v 2.6 h -4.3 v 2.7 h 7.9 v 2.6 H -10.8 V 0 H 0"
       style="fill:#ffffff;fill-opacity:1;fill-rule:evenodd;stroke:none"
       transform="matrix(0.35277776,0,0,-0.35277776,95.504002,157.82219)"
       clip-path="url(#clipPath874)" />
    <path
       id="path875"
       d="M 0,0 3.2,5.1 6.5,0 h 3 L 4.8,7.6 9.1,14.4 H 6 L 3.2,10 0.5,14.4 H -2.6 L 1.7,7.6 -3,0 h 3"
       style="fill:#ffffff;fill-opacity:1;fill-rule:evenodd;stroke:none"
       transform="matrix(0.35277776,0,0,-0.35277776,97.267892,157.82219)"
       clip-path="url(#clipPath876)" />
    <path
       id="path877"
       d="M 0,0 V 14.4 H -2.6 V 0 H 0"
       style="fill:#ffffff;fill-opacity:1;fill-rule:evenodd;stroke:none"
       transform="matrix(0.35277776,0,0,-0.35277776,102.55956,157.82219)"
       clip-path="url(#clipPath878)" />
    <path
       id="path879"
       d="m 0,0 v 11.8 h 4.1 v 2.6 H -6.7 v -2.6 h 4.2 V 0 H 0"
       style="fill:#ffffff;fill-opacity:1;fill-rule:evenodd;stroke:none"
       transform="matrix(0.35277776,0,0,-0.35277776,105.76984,157.82219)"
       clip-path="url(#clipPath880)" />
    <path
       id="path881"
       d="m 0,0 v 21.6 h -3.1 c -0.9,-1.3 -2,-2.1 -3.4,-2.4 v -3.1 h 2.8 V 0 H 0"
       style="fill:#ffffff;fill-opacity:1;fill-rule:evenodd;stroke:none"
       transform="matrix(0.35277776,0,0,-0.35277776,117.12928,159.09219)"
       clip-path="url(#clipPath882)" />
    <path
       id="path883"
       d="m 0,0 v 3.8 h -12.7 c 0.7,1.6 1.8,2.9 3.2,3.9 0.6,0.4 2.1,1 4.3,1.7 1.9,0.6 3.2,1.4 4,2.4 0.8,1.1 1.2,2.3 1.2,3.6 0,2.2 -0.9,3.9 -2.6,5.1 -1.5,0.9 -3.5,1.4 -5.9,1.4 -3.4,0 -6.4,-1.1 -9,-3.3 l 2.7,-2.9 c 1.7,1.5 3.8,2.3 6.4,2.3 1.5,0 2.7,-0.2 3.4,-0.7 0.8,-0.4 1.2,-1 1.2,-1.9 0,-0.6 -0.3,-1 -0.8,-1.5 -0.3,-0.3 -1.2,-0.7 -2.5,-1.1 -1.5,-0.6 -2.5,-0.9 -2.8,-1 C -11,11.3 -12.1,10.6 -13,9.8 -13.9,9.1 -14.7,8.2 -15.4,7.2 -16.1,6.1 -16.6,5 -17,3.9 -17.3,2.7 -17.5,1.6 -17.5,0.3 V 0 H 0"
       style="fill:#ffffff;fill-opacity:1;fill-rule:evenodd;stroke:none"
       transform="matrix(0.35277776,0,0,-0.35277776,124.81983,159.09219)"
       clip-path="url(#clipPath884)" />
    <path
       id="path885"
       d="m 0,0 c 2.4,-2.9 5.4,-4.4 8.9,-4.4 1.1,0 2.1,0.2 3.1,0.5 1,0.3 1.9,0.7 2.7,1.3 1.8,1.4 2.7,3.1 2.7,5.3 0,1.9 -0.9,3.6 -2.7,5.1 1.2,1.4 1.7,2.7 1.7,3.9 0,2 -0.8,3.6 -2.4,4.7 -1.4,1 -3.2,1.5 -5.2,1.5 -3.1,0 -5.7,-1.1 -7.8,-3.3 l 2.9,-2.7 c 1.3,1.5 2.9,2.2 4.8,2.2 0.9,0 1.7,-0.2 2.4,-0.5 0.9,-0.4 1.4,-1 1.4,-1.8 C 12.5,10.9 12,10.3 11.1,10 10.4,9.7 9.6,9.6 8.7,9.7 V 5.8 H 9.2 C 11.1,5.9 12.4,5.3 13.1,4.2 13.4,3.6 13.6,3.1 13.6,2.6 13.6,1.4 13,0.6 11.9,0.1 11.1,-0.3 10.1,-0.5 8.8,-0.5 7.7,-0.5 6.6,-0.3 5.6,0.2 4.5,0.7 3.7,1.5 3.1,2.3 L 0,0"
       style="fill:#ffffff;fill-opacity:1;fill-rule:evenodd;stroke:none"
       transform="matrix(0.35277776,0,0,-0.35277776,125.91345,157.68108)"
       clip-path="url(#clipPath886)" />
  </g>
</svg>
