<?xml version="1.0" encoding="UTF-8" standalone="no"?>
<!-- Created with Inkscape (http://www.inkscape.org/) -->

<svg
   width="37.126331mm"
   height="27.883554mm"
   viewBox="0 0 37.126331 27.883554"
   version="1.1"
   id="svg1"
   inkscape:version="1.3 (0e150ed, 2023-07-21)"
   sodipodi:docname="MUTCD-OH_M5-H7_(green).svg"
   xmlns:inkscape="http://www.inkscape.org/namespaces/inkscape"
   xmlns:sodipodi="http://sodipodi.sourceforge.net/DTD/sodipodi-0.dtd"
   xmlns="http://www.w3.org/2000/svg"
   xmlns:svg="http://www.w3.org/2000/svg">
  <sodipodi:namedview
     id="namedview1"
     pagecolor="#ffffff"
     bordercolor="#666666"
     borderopacity="1.0"
     inkscape:showpageshadow="2"
     inkscape:pageopacity="0.0"
     inkscape:pagecheckerboard="0"
     inkscape:deskcolor="#d1d1d1"
     inkscape:document-units="mm"
     inkscape:zoom="1"
     inkscape:cx="-57"
     inkscape:cy="52"
     inkscape:window-width="1440"
     inkscape:window-height="431"
     inkscape:window-x="0"
     inkscape:window-y="23"
     inkscape:window-maximized="0"
     inkscape:current-layer="layer1" />
  <defs
     id="defs1">
    <clipPath
       clipPathUnits="userSpaceOnUse"
       id="clipPath110">
      <path
         d="M 0,0 H 612.12 V 792.12 H 0 V 0"
         transform="translate(-483.30001,-404.60001)"
         clip-rule="evenodd"
         id="path110" />
    </clipPath>
    <clipPath
       clipPathUnits="userSpaceOnUse"
       id="clipPath112">
      <path
         d="M 0,0 H 612.12 V 792.12 H 0 V 0"
         transform="translate(-483.30001,-404.60001)"
         clip-rule="evenodd"
         id="path112" />
    </clipPath>
    <clipPath
       clipPathUnits="userSpaceOnUse"
       id="clipPath114">
      <path
         d="M 0,0 H 612.12 V 792.12 H 0 V 0"
         transform="translate(-581.70001,-399.60001)"
         clip-rule="evenodd"
         id="path114" />
    </clipPath>
    <clipPath
       clipPathUnits="userSpaceOnUse"
       id="clipPath268">
      <path
         d="M 0,0 H 612.12 V 792.12 H 0 V 0"
         transform="translate(-522.10001,-446.10001)"
         clip-rule="evenodd"
         id="path268" />
    </clipPath>
    <clipPath
       clipPathUnits="userSpaceOnUse"
       id="clipPath270">
      <path
         d="M 0,0 H 612.12 V 792.12 H 0 V 0"
         transform="translate(-528.30001,-446.10001)"
         clip-rule="evenodd"
         id="path270" />
    </clipPath>
    <clipPath
       clipPathUnits="userSpaceOnUse"
       id="clipPath272">
      <path
         d="M 0,0 H 612.12 V 792.12 H 0 V 0"
         transform="translate(-546.40001,-446.10001)"
         clip-rule="evenodd"
         id="path272" />
    </clipPath>
    <clipPath
       clipPathUnits="userSpaceOnUse"
       id="clipPath274">
      <path
         d="M 0,0 H 612.12 V 792.12 H 0 V 0"
         transform="translate(-557.50001,-446.10001)"
         clip-rule="evenodd"
         id="path274" />
    </clipPath>
    <clipPath
       clipPathUnits="userSpaceOnUse"
       id="clipPath276">
      <path
         d="M 0,0 H 612.12 V 792.12 H 0 V 0"
         transform="translate(-532.60001,-411.10001)"
         clip-rule="evenodd"
         id="path276" />
    </clipPath>
    <clipPath
       clipPathUnits="userSpaceOnUse"
       id="clipPath278">
      <path
         d="M 0,0 H 612.12 V 792.12 H 0 V 0"
         transform="translate(-551.70001,-416.50001)"
         clip-rule="evenodd"
         id="path278" />
    </clipPath>
    <clipPath
       clipPathUnits="userSpaceOnUse"
       id="clipPath10">
      <path
         d="M 0,0 H 612.12 V 792.12 H 0 V 0"
         transform="translate(-349.20001,-404.60001)"
         clip-rule="evenodd"
         id="path10" />
    </clipPath>
    <clipPath
       clipPathUnits="userSpaceOnUse"
       id="clipPath12">
      <path
         d="M 0,0 H 612.12 V 792.12 H 0 V 0"
         transform="translate(-349.20001,-404.60001)"
         clip-rule="evenodd"
         id="path12" />
    </clipPath>
    <clipPath
       clipPathUnits="userSpaceOnUse"
       id="clipPath14">
      <path
         d="M 0,0 H 612.12 V 792.12 H 0 V 0"
         transform="translate(-447.60001,-398.00001)"
         clip-rule="evenodd"
         id="path14" />
    </clipPath>
    <clipPath
       clipPathUnits="userSpaceOnUse"
       id="clipPath216">
      <path
         d="M 0,0 H 612.12 V 792.12 H 0 V 0"
         transform="translate(-388.00001,-446.10001)"
         clip-rule="evenodd"
         id="path216" />
    </clipPath>
    <clipPath
       clipPathUnits="userSpaceOnUse"
       id="clipPath218">
      <path
         d="M 0,0 H 612.12 V 792.12 H 0 V 0"
         transform="translate(-394.20001,-446.10001)"
         clip-rule="evenodd"
         id="path218" />
    </clipPath>
    <clipPath
       clipPathUnits="userSpaceOnUse"
       id="clipPath220">
      <path
         d="M 0,0 H 612.12 V 792.12 H 0 V 0"
         transform="translate(-412.30001,-446.10001)"
         clip-rule="evenodd"
         id="path220" />
    </clipPath>
    <clipPath
       clipPathUnits="userSpaceOnUse"
       id="clipPath222">
      <path
         d="M 0,0 H 612.12 V 792.12 H 0 V 0"
         transform="translate(-423.40001,-446.10001)"
         clip-rule="evenodd"
         id="path222" />
    </clipPath>
    <clipPath
       clipPathUnits="userSpaceOnUse"
       id="clipPath224">
      <path
         d="M 0,0 H 612.12 V 792.12 H 0 V 0"
         transform="translate(-383.00001,-415.70001)"
         clip-rule="evenodd"
         id="path224" />
    </clipPath>
    <clipPath
       clipPathUnits="userSpaceOnUse"
       id="clipPath226">
      <path
         d="M 0,0 H 612.12 V 792.12 H 0 V 0"
         transform="translate(-417.60001,-416.50001)"
         clip-rule="evenodd"
         id="path226" />
    </clipPath>
    <clipPath
       clipPathUnits="userSpaceOnUse"
       id="clipPath16">
      <path
         d="M 0,0 H 612.12 V 792.12 H 0 V 0"
         transform="translate(-348.90001,-295.80001)"
         clip-rule="evenodd"
         id="path16" />
    </clipPath>
    <clipPath
       clipPathUnits="userSpaceOnUse"
       id="clipPath18">
      <path
         d="M 0,0 H 612.12 V 792.12 H 0 V 0"
         transform="translate(-348.90001,-295.80001)"
         clip-rule="evenodd"
         id="path18" />
    </clipPath>
    <clipPath
       clipPathUnits="userSpaceOnUse"
       id="clipPath20">
      <path
         d="M 0,0 H 612.12 V 792.12 H 0 V 0"
         transform="translate(-447.30001,-289.20001)"
         clip-rule="evenodd"
         id="path20" />
    </clipPath>
    <clipPath
       clipPathUnits="userSpaceOnUse"
       id="clipPath192">
      <path
         d="M 0,0 H 612.12 V 792.12 H 0 V 0"
         transform="translate(-387.70001,-337.30001)"
         clip-rule="evenodd"
         id="path192" />
    </clipPath>
    <clipPath
       clipPathUnits="userSpaceOnUse"
       id="clipPath194">
      <path
         d="M 0,0 H 612.12 V 792.12 H 0 V 0"
         transform="translate(-393.90001,-337.30001)"
         clip-rule="evenodd"
         id="path194" />
    </clipPath>
    <clipPath
       clipPathUnits="userSpaceOnUse"
       id="clipPath196">
      <path
         d="M 0,0 H 612.12 V 792.12 H 0 V 0"
         transform="translate(-412.00001,-337.30001)"
         clip-rule="evenodd"
         id="path196" />
    </clipPath>
    <clipPath
       clipPathUnits="userSpaceOnUse"
       id="clipPath198">
      <path
         d="M 0,0 H 612.12 V 792.12 H 0 V 0"
         transform="translate(-423.10001,-337.30001)"
         clip-rule="evenodd"
         id="path198" />
    </clipPath>
    <clipPath
       clipPathUnits="userSpaceOnUse"
       id="clipPath200">
      <path
         d="M 0,0 H 612.12 V 792.12 H 0 V 0"
         transform="translate(-382.70001,-307.00001)"
         clip-rule="evenodd"
         id="path200" />
    </clipPath>
    <clipPath
       clipPathUnits="userSpaceOnUse"
       id="clipPath202">
      <path
         d="M 0,0 H 612.12 V 792.12 H 0 V 0"
         transform="translate(-417.30001,-307.70001)"
         clip-rule="evenodd"
         id="path202" />
    </clipPath>
  </defs>
  <g
     inkscape:label="Layer 1"
     inkscape:groupmode="layer"
     id="layer1"
     transform="translate(-164.83541,-132.02709)">
    <path
       id="path15"
       d="M 0,0 C 0,-0.8 0.1,-1.6 0.5,-2.4 0.8,-3.2 1.3,-4 1.9,-4.7 2.6,-5.3 3.3,-5.8 4.1,-6.1 5,-6.4 5.8,-6.6 6.6,-6.6 h 91.8 c 0.8,0 1.6,0.2 2.4,0.5 0.8,0.3 1.6,0.8 2.2,1.4 0.7,0.7 1.2,1.5 1.5,2.3 0.3,0.8 0.5,1.6 0.5,2.4 v 65.6 c 0,0.8 -0.2,1.6 -0.5,2.4 -0.3,0.8 -0.8,1.6 -1.5,2.2 -0.6,0.7 -1.4,1.2 -2.2,1.5 -0.8,0.3 -1.6,0.5 -2.4,0.5 H 6.6 C 5.8,72.2 5,72 4.1,71.7 3.3,71.4 2.6,70.9 1.9,70.2 1.3,69.6 0.8,68.8 0.5,68 0.1,67.2 0,66.4 0,65.6 V 0"
       style="fill:#006747;fill-opacity:1;fill-rule:evenodd;stroke:none"
       transform="matrix(0.35277776,0,0,-0.35277776,164.87774,157.53998)"
       clip-path="url(#clipPath16)" />
    <path
       id="path17"
       d="m 0,0 c 0,-1.8 0.7,-3.4 1.9,-4.7 1.2,-1.2 2.9,-1.9 4.7,-1.9 h 91.8 c 1.8,0 3.4,0.7 4.6,1.9 1.3,1.3 2,2.9 2,4.7 v 65.6 c 0,1.7 -0.7,3.4 -2,4.6 -1.2,1.3 -2.8,2 -4.6,2 H 6.6 C 4.8,72.2 3.1,71.5 1.9,70.2 0.7,69 0,67.3 0,65.6 V 0"
       style="fill:none;stroke:#000000;stroke-width:0.24;stroke-linecap:butt;stroke-linejoin:round;stroke-miterlimit:1.414;stroke-dasharray:none;stroke-opacity:1"
       transform="matrix(0.35277776,0,0,-0.35277776,164.87774,157.53998)"
       clip-path="url(#clipPath18)" />
    <path
       id="path19"
       d="m 0,0 h -91.8 c -0.8,0 -1.6,0.2 -2.5,0.5 -0.8,0.3 -1.5,0.8 -2.2,1.4 -0.6,0.7 -1.1,1.5 -1.4,2.3 -0.4,0.8 -0.5,1.6 -0.5,2.4 v 65.6 c 0,0.8 0.1,1.6 0.5,2.4 0.3,0.8 0.8,1.6 1.4,2.2 0.7,0.7 1.4,1.2 2.2,1.5 0.9,0.3 1.7,0.5 2.5,0.5 H 0 c 0.8,0 1.6,-0.2 2.4,-0.5 C 3.2,78 4,77.5 4.6,76.8 5.3,76.2 5.8,75.4 6.1,74.6 6.4,73.8 6.6,73 6.6,72.2 V 6.6 C 6.6,5.8 6.4,5 6.1,4.2 5.8,3.4 5.3,2.6 4.6,1.9 4,1.3 3.2,0.8 2.4,0.5 1.6,0.2 0.8,0 0,0 M -91.8,2.2 H 0 c 1.1,0 2.2,0.4 3.1,1.3 0.9,0.9 1.3,2 1.3,3.1 v 65.6 c 0,1 -0.4,2.2 -1.3,3.1 -0.9,0.9 -2,1.3 -3.1,1.3 h -91.8 c -1.1,0 -2.2,-0.4 -3.1,-1.3 -0.9,-0.9 -1.3,-2.1 -1.3,-3.1 V 6.6 c 0,-1.2 0.4,-2.3 1.3,-3.1 0.8,-0.8 1.9,-1.3 3.1,-1.3"
       style="fill:#ffffff;fill-opacity:1;fill-rule:evenodd;stroke:none"
       transform="matrix(0.35277776,0,0,-0.35277776,199.59108,159.86831)"
       clip-path="url(#clipPath20)" />
    <path
       id="path191"
       d="m 0,0 h -13.1 v 17.5 h 12.8 v -3.1 h -9.6 v -3.2 h 5.3 V 8 H -9.9 V 3.1 H 0"
       style="fill:#ffffff;fill-opacity:1;fill-rule:evenodd;stroke:none"
       transform="matrix(0.35277776,0,0,-0.35277776,178.56552,142.8997)"
       clip-path="url(#clipPath192)" />
    <path
       id="path193"
       d="M 0,0 H -3.7 L 2,9.3 -3.2,17.5 h 3.7 l 3.4,-5.3 3.3,5.3 h 3.7 L 5.8,9.3 11.5,0 H 7.8 L 3.9,6.3"
       style="fill:#ffffff;fill-opacity:1;fill-rule:evenodd;stroke:none"
       transform="matrix(0.35277776,0,0,-0.35277776,180.75274,142.8997)"
       clip-path="url(#clipPath194)" />
    <path
       id="path195"
       d="M 0,0 H -3.1 V 17.5 H 0"
       style="fill:#ffffff;fill-opacity:1;fill-rule:evenodd;stroke:none"
       transform="matrix(0.35277776,0,0,-0.35277776,187.13802,142.8997)"
       clip-path="url(#clipPath196)" />
    <path
       id="path197"
       d="m 0,0 h -3.1 v 14.5 h -5 v 3 H 5 v -3 H 0"
       style="fill:#ffffff;fill-opacity:1;fill-rule:evenodd;stroke:none"
       transform="matrix(0.35277776,0,0,-0.35277776,191.05385,142.8997)"
       clip-path="url(#clipPath198)" />
    <path
       id="path199"
       d="M 0,0 H 15.5 V -4.7 H -5.7 v 0.4 c 0,1.6 0.2,3 0.6,4.4 0.4,1.4 1,2.7 1.9,4 0.9,1.2 1.8,2.3 2.9,3.2 1.1,1 2.4,1.8 3.8,2.4 0.4,0.2 1.5,0.6 3.4,1.2 1.6,0.5 2.6,1 3,1.4 0.6,0.5 0.9,1.1 0.9,1.8 0,2.1 -1.8,3.2 -5.5,3.2 C 3.7,17.3 2.3,17 1,16.5 -0.3,16.1 -1.5,15.4 -2.5,14.4 L -5.7,18 c 3,2.7 6.7,4 10.9,4 2.9,0 5.3,-0.6 7.1,-1.7 2.2,-1.4 3.2,-3.5 3.2,-6.2 C 15.5,12.5 15,11.1 14,9.7 13,8.5 11.5,7.5 9.2,6.8 6.5,5.9 4.7,5.2 4,4.7 2.3,3.5 1,2 0,0"
       style="fill:#ffffff;fill-opacity:1;fill-rule:evenodd;stroke:none"
       transform="matrix(0.35277776,0,0,-0.35277776,176.80163,153.58886)"
       clip-path="url(#clipPath200)" />
    <path
       id="path201"
       d="M 0,0 V -5.4 H 4.6 V 0 H 8.5 V 4.2 H 4.6 V 20.9 H 0 L -16.2,4.2 V 0 H 0 M 0,14.7 V 4.2 H -10.2 L 0,14.7"
       style="fill:#ffffff;fill-opacity:1;fill-rule:evenodd;stroke:none"
       transform="matrix(0.35277776,0,0,-0.35277776,189.00774,153.34192)"
       clip-path="url(#clipPath202)" />
  </g>
</svg>
