<?xml version="1.0" encoding="UTF-8"?>
<svg width="1080" height="1620" enable-background="new" version="1.1" viewBox="0 0 304.8 457.2" xmlns="http://www.w3.org/2000/svg" xmlns:cc="http://creativecommons.org/ns#" xmlns:dc="http://purl.org/dc/elements/1.1/" xmlns:rdf="http://www.w3.org/1999/02/22-rdf-syntax-ns#">
<metadata>
<rdf:RDF>
<cc:Work rdf:about="">
<dc:format>image/svg+xml</dc:format>
<dc:type rdf:resource="http://purl.org/dc/dcmitype/StillImage"/>
</cc:Work>
</rdf:RDF>
</metadata>
<g transform="translate(0 465)">
<g transform="matrix(9.7314 0 0 9.7314 -2393.2 2547.8)">
<g fill="#fff" stroke-linecap="round" stroke-linejoin="round">
<rect x="245.93" y="-309.59" width="31.321" height="46.982" rx="3.9152" ry="3.9152" stroke="#000" stroke-width=".18532"/>
<rect x="247.39" y="-308.12" width="28.385" height="44.046" rx="2.447" ry="2.447" stroke="#af1e2d" stroke-width=".97879"/>
</g>
</g>
</g>
<g transform="matrix(9.7314 0 0 9.7314 -2393.2 3012.8)" fill="#af1e2d">
<g stroke-width=".04058" aria-label="NO">
<path d="m259.91-297.85-2.4192-5.2475v5.2475h-1.122v-7.8304h1.122l2.1504 4.6982v-4.6982h1.122v7.8304z"/>
<path d="m266.92-301.77q0 0.8999-0.10518 1.531-0.0935 0.6311-0.33893 1.1921-0.29217 0.70123-0.73628 1.0285-0.43243 0.31555-1.0986 0.31555-0.70123 0-1.1453-0.31555-0.43242-0.32724-0.7246-1.0285-0.24543-0.57267-0.35061-1.1921-0.0935-0.63111-0.0935-1.531 0-0.88822 0.0935-1.5193 0.10518-0.64279 0.35061-1.2038 0.30387-0.70122 0.73629-1.0051 0.44411-0.31555 1.1336-0.31555 0.67785 0 1.1103 0.31555 0.43243 0.30387 0.7246 1.0285 0.11688 0.29217 0.19868 0.58435 0.0935 0.29218 0.14025 0.61942 0.0584 0.31555 0.0818 0.68954 0.0234 0.3623 0.0234 0.80641zm-1.0752 0q0-0.32724-0.0234-0.59605-0.0117-0.2688-0.0468-0.49085-0.0234-0.23375-0.0701-0.44411-0.0468-0.21037-0.10519-0.42074-0.15193-0.52592-0.38567-0.75966-0.22206-0.23374-0.57267-0.23374-0.7246 0-0.9934 0.97003-0.14025 0.44411-0.19868 0.8999-0.0468 0.44411-0.0468 1.0986 0 0.31555 0.0117 0.58436 0.0234 0.25711 0.0467 0.49085 0.0351 0.22206 0.0818 0.44411 0.0468 0.22206 0.10519 0.4558 0.2688 0.97003 0.9934 0.97003 0.35061 0 0.57267-0.23374 0.23374-0.23374 0.38567-0.73629 0.0701-0.23374 0.11687-0.44411 0.0467-0.22205 0.0701-0.4558 0.0351-0.23374 0.0467-0.49085 0.0117-0.26881 0.0117-0.60773z"/>
</g>
<g stroke-width=".033817" aria-label="PARKING">
<path d="m252.22-293.34q0 0.8181-0.41879 1.3051-0.41878 0.47722-1.1103 0.47722h-0.45774v2.8439h-0.82784v-6.5253h1.2856q0.2727 0 0.50644 0.0682 0.24348 0.0682 0.40905 0.20452 0.2727 0.224 0.43826 0.66227 0.17531 0.42853 0.17531 0.96418zm-0.84731 0q0-0.55513-0.17531-0.79861-0.16557-0.25322-0.50644-0.25322h-0.45774v1.9965h0.45774q0.37009 0 0.52592-0.20452 0.15583-0.21427 0.15583-0.74019z"/>
<path d="m255.27-288.71-0.37009-1.7433h-1.0713l-0.37009 1.7433h-0.84731l1.3343-6.5253h0.83758l1.3538 6.5253zm-0.89601-4.3047-0.36035 1.7141h0.70122z"/>
<path d="m259.85-293.41q0 0.55514-0.16556 0.88627-0.15583 0.33113-0.51618 0.55514l0.66227 3.2529h-0.84732l-0.74018-3.0484h-0.37983v3.0484h-0.82783v-6.5253h1.2856q1.529 0 1.529 1.831zm-0.84731-0.0195q0-0.55514-0.15583-0.75966-0.14608-0.20452-0.57461-0.20452h-0.40905v1.7823h0.5454q0.34087 0 0.46748-0.17531t0.12661-0.64279z"/>
<path d="m262.9-288.71-0.87653-3.0873-0.31166 0.63305v2.4543h-0.82783v-6.5253h0.82783v2.0842l1.0226-2.0842h0.96419l-1.0713 2.24 1.159 4.2853z"/>
<path d="m264.84-288.71v-6.5253h0.82784v6.5253z"/>
<path d="m269.2-288.71-1.2758-3.8665v3.8665h-0.82784v-6.5253h0.82784l1.159 3.2529v-3.2529h0.82784v6.5253z"/>
<path d="m273.95-290.2q0 0.224-0.0292 0.45774t-0.0682 0.38957q-0.10713 0.34087-0.40905 0.55514-0.30191 0.20452-0.74992 0.20452-0.50644 0-0.80835-0.20452-0.30192-0.20453-0.45775-0.67201-0.0779-0.224-0.13634-0.45775-0.0487-0.23374-0.0779-0.52591-0.0292-0.29218-0.0487-0.66227-0.01-0.37009-0.01-0.86679 0-0.48696 0.01-0.84732 0.0195-0.37009 0.0487-0.65252 0.039-0.29218 0.0974-0.52592t0.14609-0.46749q0.15583-0.45774 0.44801-0.65252 0.30191-0.19479 0.78887-0.19479 0.55514 0 0.8668 0.33113 0.31165 0.3214 0.38956 0.92523h-0.82783q-0.0584-0.40905-0.40905-0.40905-0.47722 0-0.57461 0.63305-0.0292 0.19479-0.0584 0.38957-0.0292 0.18505-0.0487 0.39931-0.01 0.21426-0.0195 0.47722-0.01 0.26296-0.01 0.5941 0 0.34087 0.01 0.59409t0.0195 0.47722q0.0195 0.21427 0.0389 0.40905 0.0195 0.19478 0.0487 0.39931 0.0682 0.32139 0.19478 0.4967 0.12661 0.16557 0.35062 0.16557 0.224 0 0.34087-0.18505 0.11687-0.19478 0.11687-0.52592v-0.86679h-0.38957v-0.84731h1.2174v1.6654z"/>
</g>
<g transform="matrix(-.030828 0 0 .030828 268.6 -263.34)">
<path transform="matrix(-.88194 0 0 .88194 735.47 -1501.2)" d="m349.81 1390.8c-2.0184 1.2135-3.7084 2.9035-4.9219 4.9219l-3.2383-2.3887-137.65 94.666 137.65 94.666 3.2383-2.3887c1.2134 2.0184 2.9034 3.7084 4.9219 4.9219 7.9524 2e-4 14.4-6.446 14.4-14.398-0.78856-1.0376-1.7143-1.9634-2.752-2.752l2.0957-1.5449-13.289-42.504c148.2-0.065 307.85 0.058 451.5 0.047l-13.289 42.504 0.0215 0.016c-0.44064 1.3847-0.66913 2.8282-0.67773 4.2813-1.6e-4 7.9532 6.4472 14.4 14.4 14.4 2.901-0.02 5.7282-0.916 8.1113-2.5703l0.0469 0.035 137.66-94.666-137.66-94.664-0.0176 0.014c-2.3938-1.6523-5.2319-2.5409-8.1406-2.5488-7.9532-2e-4 -14.401 6.4471-14.4 14.4 9e-3 1.4531 0.23709 2.8966 0.67773 4.2813l-0.0215 0.016 13.289 42.502h-451.52l13.305-42.551-2.0957-1.5449c1.0376-0.7886 1.9634-1.7144 2.752-2.752-8.8e-4 -7.9524-6.448-14.399-14.4-14.398z" fill="#af1e2d"/>
</g>
<g stroke-width=".027053" aria-label="ON">
<path d="m261.08-283.5q0 0.59994-0.0701 1.0207-0.0623 0.42073-0.22595 0.79472-0.19478 0.46748-0.49085 0.68564-0.28829 0.21037-0.73239 0.21037-0.46749 0-0.76356-0.21037-0.28828-0.21816-0.48307-0.68564-0.16362-0.38178-0.23374-0.79472-0.0623-0.42074-0.0623-1.0207 0-0.59214 0.0623-1.0129 0.0701-0.42852 0.23374-0.80251 0.20258-0.46748 0.49086-0.67006 0.29607-0.21037 0.75577-0.21037 0.4519 0 0.74018 0.21037 0.28828 0.20258 0.48306 0.68564 0.0779 0.19479 0.13246 0.38957 0.0623 0.19479 0.0935 0.41295 0.039 0.21036 0.0545 0.45969 0.0156 0.24153 0.0156 0.5376zm-0.71681 0q0-0.21815-0.0156-0.39736-8e-3 -0.1792-0.0312-0.32724-0.0156-0.15582-0.0468-0.29607-0.0312-0.14024-0.0701-0.28049-0.10129-0.35061-0.25712-0.50644-0.14803-0.15583-0.38177-0.15583-0.48307 0-0.66227 0.64669-0.0935 0.29607-0.13246 0.59994-0.0312 0.29607-0.0312 0.73239 0 0.21036 8e-3 0.38957 0.0156 0.17141 0.0312 0.32723 0.0234 0.14804 0.0545 0.29608 0.0312 0.14803 0.0701 0.30386 0.1792 0.64669 0.66227 0.64669 0.23374 0 0.38177-0.15583 0.15583-0.15583 0.25712-0.49086 0.0467-0.15583 0.0779-0.29607 0.0312-0.14804 0.0468-0.30387 0.0234-0.15582 0.0312-0.32723 8e-3 -0.17921 8e-3 -0.40516z"/>
<path d="m264.49-280.88-1.6128-3.4983v3.4983h-0.74798v-5.2202h0.74798l1.4336 3.1321v-3.1321h0.74798v5.2202z"/>
</g>
<g stroke-width=".027053" aria-label="PAVEMENT">
<path d="m252.45-276.75q0 0.65448-0.33503 1.044-0.33503 0.38178-0.88821 0.38178h-0.3662v2.2751h-0.66227v-5.2202h1.0285q0.21815 0 0.40515 0.0545 0.19478 0.0545 0.32724 0.16362 0.21815 0.1792 0.35061 0.52982 0.14024 0.34282 0.14024 0.77134zm-0.67785 0q0-0.44411-0.14024-0.63889-0.13246-0.20258-0.40515-0.20258h-0.3662v1.5972h0.3662q0.29607 0 0.42073-0.16362 0.12466-0.17141 0.12466-0.59215z"/>
<path d="m254.88-273.05-0.29607-1.3947h-0.85705l-0.29608 1.3947h-0.67785l1.0674-5.2202h0.67006l1.083 5.2202zm-0.71681-3.4438-0.28828 1.3713h0.56098z"/>
<path d="m257.39-273.05h-0.56877l-0.93497-5.2202h0.67785l0.55319 2.9685 0.52981-2.9685h0.67786z"/>
<path d="m259.07-273.05v-5.2202h1.9245v0.67785h-1.2622v1.3401h0.84147v0.69344h-0.84147v1.831h1.3323v0.67785z"/>
<path d="m263.81-273.05v-3.0932l-0.62331 1.9556-0.6389-1.9556v3.0932h-0.66226v-5.2202h0.66226l0.6389 1.8466 0.62331-1.8466h0.65448v5.2202z"/>
<path d="m265.59-273.05v-5.2202h1.9245v0.67785h-1.2622v1.3401h0.84147v0.69344h-0.84147v1.831h1.3323v0.67785z"/>
<path d="m270.09-273.05-1.0207-3.0932v3.0932h-0.66227v-5.2202h0.66227l0.92717 2.6023v-2.6023h0.66227v5.2202z"/>
<path d="m272.7-277.59v4.5424h-0.66226v-4.5424h-0.6389v-0.67785h1.979v0.67785z"/>
</g>
</g>
</svg>
