<?xml version="1.0" encoding="UTF-8" standalone="no"?>
<!-- Created with Inkscape (http://www.inkscape.org/) -->

<svg
   xmlns:dc="http://purl.org/dc/elements/1.1/"
   xmlns:cc="http://creativecommons.org/ns#"
   xmlns:rdf="http://www.w3.org/1999/02/22-rdf-syntax-ns#"
   xmlns:svg="http://www.w3.org/2000/svg"
   xmlns="http://www.w3.org/2000/svg"
   xmlns:sodipodi="http://sodipodi.sourceforge.net/DTD/sodipodi-0.dtd"
   xmlns:inkscape="http://www.inkscape.org/namespaces/inkscape"
   width="48in"
   height="12in"
   viewBox="0 0 1219.2 304.80001"
   version="1.1"
   id="svg905"
   inkscape:version="0.92.2 5c3e80d, 2017-08-06"
   sodipodi:docname="MUTCD-OH_D3-H6c.svg">
  <defs
     id="defs899" />
  <sodipodi:namedview
     id="base"
     pagecolor="#ffffff"
     bordercolor="#666666"
     borderopacity="1.0"
     inkscape:pageopacity="0.0"
     inkscape:pageshadow="2"
     inkscape:zoom="0.12374369"
     inkscape:cx="1281.3104"
     inkscape:cy="1126.5265"
     inkscape:document-units="in"
     inkscape:current-layer="g866"
     showgrid="false"
     units="in"
     inkscape:window-width="1440"
     inkscape:window-height="855"
     inkscape:window-x="0"
     inkscape:window-y="1"
     inkscape:window-maximized="1" />
  <metadata
     id="metadata902">
    <rdf:RDF>
      <cc:Work
         rdf:about="">
        <dc:format>image/svg+xml</dc:format>
        <dc:type
           rdf:resource="http://purl.org/dc/dcmitype/StillImage" />
        <dc:title></dc:title>
      </cc:Work>
    </rdf:RDF>
  </metadata>
  <g
     inkscape:label="Sign Back"
     inkscape:groupmode="layer"
     id="layer1"
     transform="translate(0,7.800015)"
     sodipodi:insensitive="true">
    <rect
       style="opacity:1;fill:#ffffff;fill-opacity:1;fill-rule:nonzero;stroke:#000000;stroke-width:1.89473808;stroke-linecap:round;stroke-linejoin:round;stroke-miterlimit:4;stroke-dasharray:none;stroke-opacity:1"
       id="rect2300"
       width="1217.295"
       height="302.89502"
       x="0.94736904"
       y="-6.8423986"
       rx="38.100002"
       ry="38.100002" />
    <rect
       style="opacity:1;fill:#006747;fill-opacity:1;fill-rule:nonzero;stroke:none;stroke-width:19.05000114;stroke-linecap:round;stroke-linejoin:round;stroke-miterlimit:4;stroke-dasharray:none;stroke-opacity:1"
       id="rect842"
       width="1193.8"
       height="279.39999"
       x="12.7"
       y="4.8999958"
       rx="25.4"
       ry="25.4" />
  </g>
  <g
     inkscape:groupmode="layer"
     id="layer3"
     inkscape:label="Legends"
     transform="translate(0,-457.20001)">
    <g
       id="g866"
       transform="translate(313.84241,3.7023794)">
      <g
         aria-label="Patterson"
         style="font-style:normal;font-variant:normal;font-weight:normal;font-stretch:normal;font-size:177.80000305px;line-height:125%;font-family:'Roadgeek 2014 Series E';-inkscape-font-specification:'Roadgeek 2014 Series E';text-align:start;letter-spacing:8.81944466px;word-spacing:0px;text-anchor:start;fill:#ffffff;fill-opacity:1;stroke:none;stroke-width:2.77812505px;stroke-linecap:butt;stroke-linejoin:miter;stroke-opacity:1"
         id="text2221">
        <path
           d="m 68.072001,620.02003 q 0,8.0264 -4.572,15.24 -4.4704,7.2136 -11.0744,10.16 -7.8232,3.4544 -18.6944,3.4544 H 14.9352 v 44.196 H -1.016 v -101.6 h 34.747201 q 11.7856,0 18.5928,3.3528 6.9088,3.2512 11.2776,10.4648 4.4704,7.112 4.4704,14.732 z m -16.3576,0 q 0,-7.0104 -6.096,-10.668 -3.8608,-1.9304 -9.5504,-1.9304 H 14.9352 v 25.0952 h 21.132801 q 6.096,0 9.5504,-1.7272 2.6416,-1.2192 4.3688,-4.2672 1.7272,-3.1496 1.7272,-6.5024 z"
           style="font-style:normal;font-variant:normal;font-weight:normal;font-stretch:normal;font-family:'Roadgeek 2014 Series D';-inkscape-font-specification:'Roadgeek 2014 Series D';text-align:start;letter-spacing:8.81944466px;text-anchor:start;fill:#ffffff;stroke-width:2.77812505px"
           id="path3432" />
        <path
           d="m 142.989,693.07043 h -15.64641 v -2.1336 q -3.6576,3.1496 -14.6304,3.1496 -11.7856,0 -19.710396,-7.3152 -7.9248,-7.3152 -7.9248,-20.1168 0,-7.5184 4.1656,-13.1064 4.1656,-5.6896 10.3632,-8.128 6.197596,-2.4384 13.411196,-2.8448 7.2136,-0.508 13.3096,2.4384 0,-0.508 0,-1.2192 0,-0.8128 -0.6096,-2.8448 -0.508,-2.1336 -1.524,-3.7592 -1.016,-1.7272 -3.3528,-3.1496 -2.3368,-1.524 -5.4864,-1.9304 -6.8072,-0.9144 -12.7,2.4384 -5.791196,3.3528 -8.026396,6.8072 l -4.6736,-15.6464 q 9.2456,-7.5184 21.640796,-8.636 12.3952,-1.1176 21.844,5.8928 9.55041,6.9088 9.55041,20.5232 z m -16.35761,-16.3576 v -17.272 q -2.9464,-1.4224 -6.9088,-2.2352 -3.8608,-0.8128 -8.3312,-0.8128 -4.4704,0 -7.4168,2.7432 -2.9464,2.6416 -2.9464,7.8232 0,6.2992 3.048,9.652 3.048,3.2512 7.5184,3.2512 4.572,0 8.4328,-0.8128 3.8608,-0.9144 6.604,-2.3368 z"
           style="font-style:normal;font-variant:normal;font-weight:normal;font-stretch:normal;font-family:'Roadgeek 2014 Series D';-inkscape-font-specification:'Roadgeek 2014 Series D';text-align:start;letter-spacing:8.81944466px;text-anchor:start;fill:#ffffff;stroke-width:2.77812505px"
           id="path3434" />
        <path
           d="m 202.50049,676.40803 -2.3368,14.9352 q -7.0104,3.1496 -11.9888,3.1496 -8.2296,0.508 -11.7856,-4.8768 -3.556,-5.3848 -3.556,-14.3256 v -41.3512 h -10.7696 v -15.0368 h 10.7696 v -21.336 l 15.748,-7.8232 v 29.1592 h 12.7 v 14.6304 h -12.7 v 39.2176 q 0,4.1656 0.9144,5.6896 0.9144,1.4224 4.2672,1.4224 4.1656,0 8.7376,-3.4544 z"
           style="font-style:normal;font-variant:normal;font-weight:normal;font-stretch:normal;font-family:'Roadgeek 2014 Series D';-inkscape-font-specification:'Roadgeek 2014 Series D';text-align:start;letter-spacing:8.81944466px;text-anchor:start;fill:#ffffff;stroke-width:2.77812505px"
           id="path3436" />
        <path
           d="m 253.68634,676.40803 -2.3368,14.9352 q -7.0104,3.1496 -11.9888,3.1496 -8.2296,0.508 -11.7856,-4.8768 -3.556,-5.3848 -3.556,-14.3256 v -41.3512 h -10.7696 v -15.0368 h 10.7696 v -21.336 l 15.748,-7.8232 v 29.1592 h 12.7 v 14.6304 h -12.7 v 39.2176 q 0,4.1656 0.9144,5.6896 0.9144,1.4224 4.2672,1.4224 4.1656,0 8.7376,-3.4544 z"
           style="font-style:normal;font-variant:normal;font-weight:normal;font-stretch:normal;font-family:'Roadgeek 2014 Series D';-inkscape-font-specification:'Roadgeek 2014 Series D';text-align:start;letter-spacing:8.81944466px;text-anchor:start;fill:#ffffff;stroke-width:2.77812505px"
           id="path3438" />
        <path
           d="m 329.76418,662.79363 h -43.5864 q 1.4224,16.6624 13.9192,16.6624 5.08,0 8.8392,-2.6416 3.8608,-2.7432 5.08,-7.62 l 13.3096,8.2296 q -7.8232,17.0688 -27.2288,17.0688 -30.5816,0 -30.5816,-38.8112 0,-7.0104 1.3208,-13.1064 1.3208,-6.096 4.3688,-12.192 3.048,-6.096 9.4488,-9.652 6.4008,-3.556 15.4432,-3.556 6.096,0 10.8712,1.6256 4.8768,1.524 7.9248,4.2672 3.048,2.6416 5.2832,6.2992 2.2352,3.6576 3.2512,7.8232 1.1176,4.1656 1.7272,8.636 0.7112,4.4704 0.508,8.7376 -0.1016,4.2672 0.1016,8.2296 z m -16.0528,-14.9352 q 0,-7.0104 -2.7432,-11.3792 -2.6416,-4.3688 -10.8712,-4.3688 -8.5344,0 -11.3792,4.3688 -2.8448,4.3688 -2.8448,11.3792 z"
           style="font-style:normal;font-variant:normal;font-weight:normal;font-stretch:normal;font-family:'Roadgeek 2014 Series D';-inkscape-font-specification:'Roadgeek 2014 Series D';text-align:start;letter-spacing:8.81944466px;text-anchor:start;fill:#ffffff;stroke-width:2.77812505px"
           id="path3440" />
        <path
           d="m 391.50177,622.05203 -2.2352,14.3256 q -5.3848,-4.1656 -9.652,-4.2672 -6.4008,0 -8.3312,3.4544 -1.9304,3.3528 -1.9304,11.176 v 46.3296 h -16.4592 v -74.168 h 16.4592 v 3.556 q 4.8768,-4.1656 7.3152,-4.8768 1.7272,-0.3048 4.064,-0.4064 6.4008,0 10.7696,4.8768 z"
           style="font-style:normal;font-variant:normal;font-weight:normal;font-stretch:normal;font-family:'Roadgeek 2014 Series D';-inkscape-font-specification:'Roadgeek 2014 Series D';text-align:start;letter-spacing:8.81944466px;text-anchor:start;fill:#ffffff;stroke-width:2.77812505px"
           id="path3442" />
        <path
           d="m 453.66361,673.76643 q -0.508,8.7376 -7.4168,14.732 -6.8072,5.9944 -18.288,5.9944 -13.9192,0 -21.6408,-11.684 l 11.2776,-9.7536 q 6.2992,8.3312 12.9032,6.4008 3.3528,-0.9144 4.6736,-3.048 1.4224,-2.1336 0.7112,-5.08 -0.7112,-2.9464 -3.2512,-5.7912 -3.4544,-3.9624 -10.2616,-8.7376 -6.8072,-4.7752 -10.9728,-8.9408 -4.1656,-4.1656 -4.6736,-9.2456 -0.508,-7.62 3.4544,-13.3096 3.9624,-5.6896 11.7856,-7.4168 15.8496,-3.8608 27.7368,10.2616 l -11.3792,9.4488 q -0.3048,-0.3048 -0.8128,-0.9144 -0.508,-0.7112 -2.2352,-2.032 -1.6256,-1.3208 -3.2512,-2.032 -1.524,-0.8128 -3.4544,-0.7112 -1.8288,0.1016 -3.4544,1.6256 -2.4384,3.1496 -0.4064,5.4864 2.1336,2.2352 7.112,6.096 4.9784,3.7592 9.9568,7.4168 5.08,3.6576 8.7376,9.4488 3.6576,5.6896 3.1496,11.7856 z"
           style="font-style:normal;font-variant:normal;font-weight:normal;font-stretch:normal;font-family:'Roadgeek 2014 Series D';-inkscape-font-specification:'Roadgeek 2014 Series D';text-align:start;letter-spacing:8.81944466px;text-anchor:start;fill:#ffffff;stroke-width:2.77812505px"
           id="path3444" />
        <path
           d="m 531.93896,641.96563 q 1.3208,6.1976 1.3208,13.716 0,7.4168 -1.3208,13.716 -1.2192,6.2992 -4.3688,12.192 -3.1496,5.8928 -9.5504,9.4488 -6.2992,3.4544 -15.34161,3.4544 -30.988,0 -30.988,-38.8112 0,-7.0104 1.3208,-13.1064 1.3208,-6.096 4.4704,-12.192 3.2512,-6.096 9.652,-9.652 6.5024,-3.556 15.5448,-3.556 9.04241,0 15.34161,3.4544 6.4008,3.3528 9.5504,9.2456 3.1496,5.8928 4.3688,12.0904 z m -15.0368,13.716 q 0,-3.3528 -0.6096,-6.8072 -0.6096,-3.4544 -1.9304,-7.5184 -1.2192,-4.1656 -4.2672,-6.7056 -3.048,-2.54 -7.41681,-2.54 -5.7912,0 -9.3472,4.7752 -3.556,4.6736 -4.4704,9.4488 -0.8128,4.7752 -0.8128,9.652 0,4.8768 0.8128,9.652 0.9144,4.7752 4.4704,9.5504 3.556,4.6736 9.2456,4.6736 5.79121,0 9.24561,-4.7752 3.556,-4.7752 4.2672,-9.5504 0.8128,-4.7752 0.8128,-9.8552 z"
           style="font-style:normal;font-variant:normal;font-weight:normal;font-stretch:normal;font-family:'Roadgeek 2014 Series D';-inkscape-font-specification:'Roadgeek 2014 Series D';text-align:start;letter-spacing:8.81944466px;text-anchor:start;fill:#ffffff;stroke-width:2.77812505px"
           id="path3446" />
        <path
           d="m 618.03628,693.07043 h -16.0528 v -49.276 q 0,-6.604 -3.9624,-9.144 -3.8608,-2.54 -10.9728,-2.54 -5.3848,0.3048 -8.9408,3.4544 -3.4544,3.048 -3.4544,8.9408 v 48.5648 h -16.4592 v -74.168 h 16.1544 v 2.4384 q 6.096,-3.8608 13.8176,-4.3688 7.7216,-0.508 14.224,2.1336 6.604,2.6416 11.0744,8.7376 4.572,6.096 4.572,14.224 z"
           style="font-style:normal;font-variant:normal;font-weight:normal;font-stretch:normal;font-family:'Roadgeek 2014 Series D';-inkscape-font-specification:'Roadgeek 2014 Series D';text-align:start;letter-spacing:8.81944466px;text-anchor:start;fill:#ffffff;stroke-width:2.77812505px"
           id="path3448" />
      </g>
      <g
         aria-label="Rd"
         style="font-style:normal;font-variant:normal;font-weight:normal;font-stretch:normal;font-size:177.80000305px;line-height:125%;font-family:'Roadgeek 2014 Series D';-inkscape-font-specification:'Roadgeek 2014 Series D';text-align:start;letter-spacing:8.81944466px;word-spacing:0px;text-anchor:start;fill:#ffffff;fill-opacity:1;stroke:none;stroke-width:2.77812505px;stroke-linecap:butt;stroke-linejoin:miter;stroke-opacity:1"
         id="text860">
        <path
           d="m 773.48081,693.07043 h -17.3736 l -16.5608,-44.196 h -19.2024 v 44.196 h -15.9512 v -101.6 h 33.4264 q 11.4808,0 18.288,3.2512 6.604,3.3528 10.8712,10.4648 4.3688,7.112 4.3688,14.8336 0,8.0264 -4.3688,15.24 -4.2672,7.2136 -11.2776,10.4648 z m -18.288,-73.0504 q 0,-7.3152 -6.2992,-10.668 -3.3528,-1.9304 -9.3472,-1.9304 h -19.2024 v 25.0952 h 19.2024 q 6.2992,0 9.3472,-1.7272 6.2992,-3.2512 6.2992,-10.7696 z"
           style="font-style:normal;font-variant:normal;font-weight:normal;font-stretch:normal;font-family:'Roadgeek 2014 Series D';-inkscape-font-specification:'Roadgeek 2014 Series D';text-align:start;letter-spacing:8.81944466px;text-anchor:start;fill:#ffffff;stroke-width:2.77812505px"
           id="path3427" />
        <path
           d="m 793.58539,655.68163 q -0.3048,17.272 7.2136,28.2448 7.62,10.8712 23.4696,10.8712 7.3152,0 14.224,-3.8608 v 2.1336 h 16.0528 v -103.3272 l -16.0528,7.8232 v 23.7744 q -1.2192,-1.2192 -5.6896,-2.4384 -4.3688,-1.3208 -8.2296,-1.7272 -7.0104,-0.508 -12.4968,1.4224 -5.3848,1.9304 -8.8392,5.588 -3.3528,3.6576 -5.588,8.9408 -2.1336,5.2832 -3.048,10.7696 -0.8128,5.4864 -1.016,11.7856 z m 16.3576,0 q -0.3048,-9.3472 3.4544,-16.3576 3.7592,-7.0104 12.2936,-7.2136 7.5184,0 12.4968,5.4864 v 37.3888 q -5.3848,5.3848 -13.6144,4.8768 -5.08,-0.2032 -8.5344,-4.2672 -3.4544,-4.064 -4.6736,-9.0424 -1.2192,-4.9784 -1.4224,-10.8712 z"
           style="font-style:normal;font-variant:normal;font-weight:normal;font-stretch:normal;font-family:'Roadgeek 2014 Series D';-inkscape-font-specification:'Roadgeek 2014 Series D';text-align:start;letter-spacing:8.81944466px;text-anchor:start;fill:#ffffff;stroke-width:2.77812505px"
           id="path3429" />
      </g>
    </g>
    <g
       id="g886"
       transform="translate(433.50449)">
      <g
         aria-label="FRANKLIN"
         style="font-style:normal;font-variant:normal;font-weight:normal;font-stretch:normal;font-size:88.90000153px;line-height:125%;font-family:'Roadgeek 2014 Series D';-inkscape-font-specification:'Roadgeek 2014 Series D';text-align:start;letter-spacing:0px;word-spacing:0px;text-anchor:start;fill:#ffffff;fill-opacity:1;stroke:none;stroke-width:1.38906252px;stroke-linecap:butt;stroke-linejoin:miter;stroke-opacity:1"
         id="text870">
        <path
           d="M 31.496,515.112 H 7.9756 v 12.5476 h 14.8336 v 8.1788 H 7.9756 v 22.098 H -8.9917863e-8 v -50.8 H 31.496 Z"
           style="font-style:normal;font-variant:normal;font-weight:normal;font-stretch:normal;font-family:'Roadgeek 2014 Series D';-inkscape-font-specification:'Roadgeek 2014 Series D';text-align:start;text-anchor:start;fill:#ffffff;stroke-width:1.38906252px"
           id="path3410" />
        <path
           d="m 73.611383,557.9364 h -8.6868 l -8.2804,-22.098 h -9.6012 v 22.098 h -7.9756 v -50.8 h 16.7132 q 5.7404,0 9.144,1.6256 3.302,1.6764 5.4356,5.2324 2.1844,3.556 2.1844,7.4168 0,4.0132 -2.1844,7.62 -2.1336,3.6068 -5.6388,5.2324 z m -9.144,-36.5252 q 0,-3.6576 -3.1496,-5.334 -1.6764,-0.9652 -4.6736,-0.9652 h -9.6012 v 12.5476 h 9.6012 q 3.1496,0 4.6736,-0.8636 3.1496,-1.6256 3.1496,-5.3848 z"
           style="font-style:normal;font-variant:normal;font-weight:normal;font-stretch:normal;font-family:'Roadgeek 2014 Series D';-inkscape-font-specification:'Roadgeek 2014 Series D';text-align:start;text-anchor:start;fill:#ffffff;stroke-width:1.38906252px"
           id="path3412" />
        <path
           d="m 120.70676,557.9364 h -8.5344 l -5.0292,-14.2748 H 91.293556 l -4.9784,14.2748 h -8.5852 l 17.4752,-50.8 h 8.026404 z m -16.3576,-22.4536 -5.029204,-14.2748 -5.1308,14.2748 z"
           style="font-style:normal;font-variant:normal;font-weight:normal;font-stretch:normal;font-family:'Roadgeek 2014 Series D';-inkscape-font-specification:'Roadgeek 2014 Series D';text-align:start;text-anchor:start;fill:#ffffff;stroke-width:1.38906252px"
           id="path3414" />
        <path
           d="m 162.85865,557.9364 h -7.1628 l -19.4056,-34.3916 v 34.3916 h -7.9756 v -50.8 h 7.9756 l 18.542,32.4612 v -32.4612 h 8.0264 z"
           style="font-style:normal;font-variant:normal;font-weight:normal;font-stretch:normal;font-family:'Roadgeek 2014 Series D';-inkscape-font-specification:'Roadgeek 2014 Series D';text-align:start;text-anchor:start;fill:#ffffff;stroke-width:1.38906252px"
           id="path3416" />
        <path
           d="m 210.42948,557.9364 h -9.2456 l -12.8524,-24.0284 -5.334,6.5532 v 17.4752 h -7.9756 v -50.8 h 7.9756 v 20.1676 l 16.0528,-20.1676 h 10.3124 l -15.6464,19.812 z"
           style="font-style:normal;font-variant:normal;font-weight:normal;font-stretch:normal;font-family:'Roadgeek 2014 Series D';-inkscape-font-specification:'Roadgeek 2014 Series D';text-align:start;text-anchor:start;fill:#ffffff;stroke-width:1.38906252px"
           id="path3418" />
        <path
           d="m 250.6206,557.9364 h -31.496 v -50.8 h 7.9756 v 43.3324 h 23.5204 z"
           style="font-style:normal;font-variant:normal;font-weight:normal;font-stretch:normal;font-family:'Roadgeek 2014 Series D';-inkscape-font-specification:'Roadgeek 2014 Series D';text-align:start;text-anchor:start;fill:#ffffff;stroke-width:1.38906252px"
           id="path3420" />
        <path
           d="m 266.37079,557.9364 h -8.1788 v -50.8 h 8.1788 z"
           style="font-style:normal;font-variant:normal;font-weight:normal;font-stretch:normal;font-family:'Roadgeek 2014 Series D';-inkscape-font-specification:'Roadgeek 2014 Series D';text-align:start;text-anchor:start;fill:#ffffff;stroke-width:1.38906252px"
           id="path3422" />
        <path
           d="m 313.05102,557.9364 h -7.1628 l -19.4056,-34.3916 v 34.3916 h -7.9756 v -50.8 h 7.9756 l 18.542,32.4612 v -32.4612 h 8.0264 z"
           style="font-style:normal;font-variant:normal;font-weight:normal;font-stretch:normal;font-family:'Roadgeek 2014 Series D';-inkscape-font-specification:'Roadgeek 2014 Series D';text-align:start;text-anchor:start;fill:#ffffff;stroke-width:1.38906252px"
           id="path3424" />
      </g>
      <g
         aria-label="COUNTY"
         style="font-style:normal;font-variant:normal;font-weight:normal;font-stretch:normal;font-size:88.90000153px;line-height:125%;font-family:'Roadgeek 2014 Series D';-inkscape-font-specification:'Roadgeek 2014 Series D';text-align:start;letter-spacing:0px;word-spacing:0px;text-anchor:start;fill:#ffffff;fill-opacity:1;stroke:none;stroke-width:1.38906252px;stroke-linecap:butt;stroke-linejoin:miter;stroke-opacity:1"
         id="text874">
        <path
           d="m 390.19549,547.5732 q -4.6228,11.2268 -15.2908,11.2268 -10.9728,0 -15.5956,-9.0424 -3.7592,-7.0612 -3.7084,-17.3228 0,-6.096 1.524,-11.5824 1.524,-5.5372 4.2164,-8.8392 4.6736,-5.7404 12.954,-5.7404 5.7404,0 9.5504,2.4892 3.8608,2.4384 6.35,7.8232 l -7.4676,3.2512 q -2.1844,-3.2004 -3.9116,-4.2672 -1.6764,-1.1176 -4.5212,-1.1176 -6.096,0 -8.5344,6.2484 -1.9304,4.7752 -1.9304,11.7348 0,9.2456 3.1496,14.2748 2.54,3.9116 7.6708,3.9116 5.0292,0 7.9248,-5.8928 z"
           style="font-style:normal;font-variant:normal;font-weight:normal;font-stretch:normal;font-family:'Roadgeek 2014 Series D';-inkscape-font-specification:'Roadgeek 2014 Series D';text-align:start;text-anchor:start;fill:#ffffff;stroke-width:1.38906252px"
           id="path3397" />
        <path
           d="m 436.41516,532.638 q 0,6.1976 -1.4732,11.7348 -1.4224,5.5372 -4.0132,8.7884 -4.1656,5.6388 -12.3444,5.6388 -5.2832,0 -8.8392,-2.1844 -3.556,-2.1844 -5.7912,-6.858 -3.556,-6.9596 -3.556,-17.1196 0,-12.8016 5.5372,-20.6248 4.4196,-5.7404 12.954,-5.7404 9.398,0 14.1224,9.0932 3.4036,7.0104 3.4036,17.272 z m -8.0264,0 q 0,-9.144 -3.048,-14.2748 -2.0828,-3.6576 -6.604,-3.9116 -5.6388,-0.254 -8.1788,6.2484 -1.9304,4.7752 -1.9304,11.938 0,9.2964 2.9972,14.0716 2.286,3.9116 6.9596,3.9116 5.2832,0 7.8232,-6.4516 1.9812,-5.08 1.9812,-11.5316 z"
           style="font-style:normal;font-variant:normal;font-weight:normal;font-stretch:normal;font-family:'Roadgeek 2014 Series D';-inkscape-font-specification:'Roadgeek 2014 Series D';text-align:start;text-anchor:start;fill:#ffffff;stroke-width:1.38906252px"
           id="path3399" />
        <path
           d="m 482.14429,539.75 q 0,5.3848 -2.3368,10.5156 -1.9812,3.7592 -6.1976,6.1468 -4.1656,2.3876 -8.7884,2.3876 -4.6228,0 -8.7884,-2.3876 -4.1656,-2.3876 -6.1976,-6.1468 -2.286,-4.9784 -2.2352,-10.5156 v -32.6136 h 7.9756 V 539.75 q 0,4.9784 2.54,7.9248 2.54,2.9464 6.7056,2.9464 4.1656,0 6.7056,-2.9464 2.5908,-2.9464 2.5908,-7.9248 v -32.6136 h 8.0264 z"
           style="font-style:normal;font-variant:normal;font-weight:normal;font-stretch:normal;font-family:'Roadgeek 2014 Series D';-inkscape-font-specification:'Roadgeek 2014 Series D';text-align:start;text-anchor:start;fill:#ffffff;stroke-width:1.38906252px"
           id="path3401" />
        <path
           d="m 528.85152,557.9364 h -7.1628 l -19.4056,-34.3916 v 34.3916 h -7.9756 v -50.8 h 7.9756 l 18.542,32.4612 v -32.4612 h 8.0264 z"
           style="font-style:normal;font-variant:normal;font-weight:normal;font-stretch:normal;font-family:'Roadgeek 2014 Series D';-inkscape-font-specification:'Roadgeek 2014 Series D';text-align:start;text-anchor:start;fill:#ffffff;stroke-width:1.38906252px"
           id="path3403" />
        <path
           d="m 567.83713,514.2484 h -11.7348 v 43.688 h -8.0264 v -43.688 h -11.6332 v -7.112 h 31.3944 z"
           style="font-style:normal;font-variant:normal;font-weight:normal;font-stretch:normal;font-family:'Roadgeek 2014 Series D';-inkscape-font-specification:'Roadgeek 2014 Series D';text-align:start;text-anchor:start;fill:#ffffff;stroke-width:1.38906252px"
           id="path3405" />
        <path
           d="m 614.20524,507.1364 -17.5768,28.702 v 22.098 h -8.07721 v -22.098 l -17.7292,-28.702 h 9.5504 l 12.19201,19.6596 12.2428,-19.6596 z"
           style="font-style:normal;font-variant:normal;font-weight:normal;font-stretch:normal;font-family:'Roadgeek 2014 Series D';-inkscape-font-specification:'Roadgeek 2014 Series D';text-align:start;text-anchor:start;fill:#ffffff;stroke-width:1.38906252px"
           id="path3407" />
      </g>
    </g>
    <g
       transform="matrix(-0.69999999,0,0,0.69999999,439.68805,741.82154)"
       style="fill:#ffffff"
       id="g2080">
      <path
         inkscape:connector-curvature="0"
         id="circle4946"
         transform="matrix(-0.26458334,0,0,0.26458334,631.75436,-341.28791)"
         d="m 774.04883,252 a 47.999999,47.999999 0 0 0 -27.19336,8.45312 l -0.006,-0.004 L 288,576 l 458.84961,315.55078 0.0449,-0.0332 a 47.999999,47.999999 0 0 0 27.1543,8.48242 47.999999,47.999999 0 0 0 48,-48 47.999999,47.999999 0 0 0 -2.19336,-14.32031 l 0.006,-0.004 L 738.04883,576 l 81.8125,-261.67578 -0.0449,-0.0332 A 47.999999,47.999999 0 0 0 822.04883,300 a 47.999999,47.999999 0 0 0 -48,-48 z"
         style="opacity:1;fill:#ffffff;fill-opacity:1;fill-rule:nonzero;stroke:none;stroke-width:17.94890404;stroke-linecap:round;stroke-linejoin:round;stroke-miterlimit:4;stroke-dasharray:none;stroke-opacity:1" />
      <rect
         style="opacity:1;fill:#ffffff;fill-opacity:1;fill-rule:nonzero;stroke:none;stroke-width:7.33329487;stroke-linecap:round;stroke-linejoin:round;stroke-miterlimit:4;stroke-dasharray:none;stroke-opacity:1"
         id="rect5037"
         width="84.124802"
         height="63.5"
         x="352.35437"
         y="-220.63791" />
    </g>
  </g>
</svg>
