<?xml version="1.0" encoding="UTF-8" standalone="no"?>
<!-- Created with Inkscape (http://www.inkscape.org/) -->

<svg
   xmlns:dc="http://purl.org/dc/elements/1.1/"
   xmlns:cc="http://creativecommons.org/ns#"
   xmlns:rdf="http://www.w3.org/1999/02/22-rdf-syntax-ns#"
   xmlns:svg="http://www.w3.org/2000/svg"
   xmlns="http://www.w3.org/2000/svg"
   xmlns:sodipodi="http://sodipodi.sourceforge.net/DTD/sodipodi-0.dtd"
   xmlns:inkscape="http://www.inkscape.org/namespaces/inkscape"
   width="36in"
   height="30in"
   viewBox="0 0 914.4 762.00002"
   version="1.1"
   id="svg4184"
   inkscape:version="0.92.2 5c3e80d, 2017-08-06"
   sodipodi:docname="Ohio_MUTCD_R3-H8bs.svg">
  <defs
     id="defs4178" />
  <sodipodi:namedview
     id="base"
     pagecolor="#ffffff"
     bordercolor="#666666"
     borderopacity="1.0"
     inkscape:pageopacity="0.0"
     inkscape:pageshadow="2"
     inkscape:zoom="0.12374369"
     inkscape:cx="254.52853"
     inkscape:cy="1249.7753"
     inkscape:document-units="in"
     inkscape:current-layer="g19609"
     showgrid="false"
     units="in"
     inkscape:window-width="1440"
     inkscape:window-height="855"
     inkscape:window-x="0"
     inkscape:window-y="1"
     inkscape:window-maximized="1"
     inkscape:snap-bbox="false"
     inkscape:object-paths="false"
     inkscape:snap-midpoints="true" />
  <metadata
     id="metadata4181">
    <rdf:RDF>
      <cc:Work
         rdf:about="">
        <dc:format>image/svg+xml</dc:format>
        <dc:type
           rdf:resource="http://purl.org/dc/dcmitype/StillImage" />
        <dc:title></dc:title>
      </cc:Work>
    </rdf:RDF>
  </metadata>
  <g
     inkscape:label="Sign Back"
     inkscape:groupmode="layer"
     id="layer1"
     transform="translate(0,465.00002)"
     sodipodi:insensitive="true">
    <rect
       style="opacity:1;fill:#ffffff;fill-opacity:1;fill-rule:nonzero;stroke:#000000;stroke-width:1.8899951;stroke-linecap:round;stroke-linejoin:round;stroke-miterlimit:4;stroke-dasharray:none;stroke-opacity:1"
       id="rect2300"
       width="912.51001"
       height="760.11005"
       x="0.94500178"
       y="-464.05502"
       rx="47.625"
       ry="47.625351" />
    <rect
       style="opacity:1;fill:#ffffff;fill-opacity:1;fill-rule:nonzero;stroke:#000000;stroke-width:19.05000114;stroke-linecap:round;stroke-linejoin:round;stroke-miterlimit:4;stroke-dasharray:none;stroke-opacity:1"
       id="rect2300-9"
       width="869.95001"
       height="717.54999"
       x="22.225025"
       y="-442.77499"
       rx="25.4"
       ry="25.4" />
    <rect
       y="-84.000031"
       x="490.728"
       height="349.25"
       width="19.050001"
       id="rect4833"
       style="opacity:1;fill:#000000;fill-opacity:1;fill-rule:nonzero;stroke:none;stroke-width:17.28671455;stroke-linecap:round;stroke-linejoin:miter;stroke-miterlimit:4;stroke-dasharray:none;stroke-opacity:1" />
  </g>
  <g
     inkscape:groupmode="layer"
     id="layer3"
     inkscape:label="Legends">
    <g
       transform="translate(-158.77542,274.50006)"
       id="g5047">
      <path
         inkscape:connector-curvature="0"
         id="rect5015"
         transform="scale(0.26458333)"
         d="M 3390.9941,-4.4628906 3284.041,37.775391 A 672,672 0 0 0 2880,654.03906 v 372.48044 h 240 V 654.03906 A 432,432 0 0 1 3379.9453,258.3418 l -0.2012,-0.46485 106.9512,-42.24609 z"
         style="opacity:1;fill:#000000;fill-opacity:1;fill-rule:nonzero;stroke:none;stroke-width:33.11999893;stroke-linecap:round;stroke-linejoin:round;stroke-miterlimit:4;stroke-dasharray:none;stroke-opacity:1" />
      <path
         inkscape:connector-curvature="0"
         id="path5013"
         transform="scale(0.26458333)"
         d="m 3295.2891,-181.16797 a 48,48 0 0 0 -18.6524,3.98047 48,48 0 0 0 -24.8789,63.1582 48,48 0 0 0 7.7442,12.2168 l -0.027,0.0469 179.3711,207.3496 29.3145,272.59571 0.01,0.002 a 48,48 0 0 0 3.6992,14.00586 48,48 0 0 0 63.1582,24.87891 48,48 0 0 0 21.5195,-18.60547 l 0.055,0.0117 294.9668,-472.345707 -546.6191,-106.412113 v 0.006 a 48,48 0 0 0 -9.6543,-0.88867 z"
         style="opacity:1;fill:#000000;fill-opacity:1;fill-rule:nonzero;stroke:none;stroke-width:17.94890404;stroke-linecap:round;stroke-linejoin:round;stroke-miterlimit:4;stroke-dasharray:none;stroke-opacity:1" />
    </g>
    <g
       aria-label="ONLY"
       style="font-style:normal;font-variant:normal;font-weight:normal;font-stretch:normal;font-size:171.95358276px;line-height:125%;font-family:'Roadgeek 2014 Series D';-inkscape-font-specification:'Roadgeek 2014 Series D';text-align:center;letter-spacing:-6.61458349px;word-spacing:0px;text-anchor:middle;fill:#000000;fill-opacity:1;stroke:none;stroke-width:2.68677473px;stroke-linecap:butt;stroke-linejoin:miter;stroke-opacity:1"
       id="text7363"
       transform="translate(483.61284,2.9e-5)">
      <path
         d="m 126.04423,635.1965 q 0,11.98762 -2.84951,22.69787 -2.75126,10.71026 -7.76248,16.99884 -8.05725,10.90677 -23.876981,10.90677 -10.218956,0 -17.097099,-4.22514 -6.878143,-4.22515 -11.201548,-13.26499 -6.878143,-13.46151 -6.878143,-33.11335 0,-24.76131 10.710252,-39.89323 8.548549,-11.10329 25.056093,-11.10329 18.177946,0 27.316056,17.5884 6.58336,13.55976 6.58336,33.40812 z m -15.52495,0 q 0,-17.68665 -5.89555,-27.61083 -4.02863,-7.07466 -12.773693,-7.56596 -10.90677,-0.4913 -15.81973,12.08588 -3.733849,9.23637 -3.733849,23.09091 0,17.98143 5.797292,27.2178 4.421664,7.56595 13.461509,7.56595 10.218961,0 15.131911,-12.47891 3.83211,-9.82592 3.83211,-22.30484 z"
         style="text-align:center;letter-spacing:-6.61458349px;text-anchor:middle;stroke-width:2.68677473px"
         id="path7507"
         inkscape:connector-curvature="0" />
      <path
         d="m 207.88057,684.12958 h -13.85454 l -37.53501,-66.52147 v 66.52147 h -15.42669 v -98.25919 h 15.42669 l 35.8646,62.78762 v -62.78762 h 15.52495 z"
         style="text-align:center;letter-spacing:-6.61458349px;text-anchor:middle;stroke-width:2.68677473px"
         id="path7509"
         inkscape:connector-curvature="0" />
      <path
         d="m 285.71325,684.12958 h -60.9207 v -98.25919 h 15.42669 v 83.81509 h 45.49401 z"
         style="text-align:center;letter-spacing:-6.61458349px;text-anchor:middle;stroke-width:2.68677473px"
         id="path7511"
         inkscape:connector-curvature="0" />
      <path
         d="m 368.81352,585.87039 -33.99768,55.51644 v 42.74275 h -15.62322 v -42.74275 l -34.29245,-55.51644 h 18.47272 l 23.58221,38.0263 23.68047,-38.0263 z"
         style="text-align:center;letter-spacing:-6.61458349px;text-anchor:middle;stroke-width:2.68677473px"
         id="path7513"
         inkscape:connector-curvature="0" />
    </g>
    <g
       transform="translate(-2733.548,344.35)"
       id="g19634">
      <rect
         y="109.04"
         x="3048"
         height="187.96001"
         width="63.5"
         id="rect5070-1"
         style="opacity:1;fill:#000000;fill-opacity:1;fill-rule:nonzero;stroke:none;stroke-width:22.9283638;stroke-linecap:round;stroke-linejoin:miter;stroke-miterlimit:4;stroke-dasharray:none;stroke-opacity:1" />
      <g
         transform="translate(0,-118.10998)"
         id="g19609">
        <path
           style="opacity:1;fill:#000000;fill-opacity:1;fill-rule:nonzero;stroke:none;stroke-width:193.6489563;stroke-linecap:round;stroke-linejoin:round;stroke-miterlimit:4;stroke-dasharray:none;stroke-opacity:1"
           d="M 1972.7715 387.98438 L 1850.6113 463.05469 L 1850.6094 463.05469 A 1511.9999 1511.9999 0 0 0 1188.4805 1713.5996 L 1428.4805 1713.5996 A 1272 1272 0 0 1 1986.2012 662.56836 L 1985.5234 661.57227 L 2107.6719 586.48438 L 1972.7715 387.98438 z "
           transform="matrix(0.26458334,0,0,0.26458334,2733.548,-226.24002)"
           id="path5017-8-4" />
        <g
           transform="rotate(-34.2,2003.7315,-4753.814)"
           id="g5078-9-8">
          <path
             inkscape:connector-curvature="0"
             id="circle4946-6-1"
             transform="matrix(0.21883174,0.14871789,-0.14871789,0.21883174,-1635.8794,-2963.1188)"
             d="m 12186.98,4013.5957 a 48,48 0 0 0 -27.128,8.3008 48,48 0 0 0 -12.721,66.6797 48,48 0 0 0 9.879,10.5664 l -0.02,0.051 214.75,170.4414 79.418,262.414 v 0 a 48,48 0 0 0 6.236,13.0742 48,48 0 0 0 66.68,12.7208 48,48 0 0 0 17.691,-22.2793 h 0.06 l 202.139,-518.8965 -556.871,-3.0742 v 0.01 a 48,48 0 0 0 -0.114,-0.01 z"
             style="opacity:1;fill:#000000;fill-opacity:1;fill-rule:nonzero;stroke:none;stroke-width:17.94890404;stroke-linecap:round;stroke-linejoin:round;stroke-miterlimit:4;stroke-dasharray:none;stroke-opacity:1" />
        </g>
      </g>
      <g
         transform="matrix(-1,0,0,1,6159.4914,-118.10998)"
         id="g19619">
        <path
           style="opacity:1;fill:#000000;fill-opacity:1;fill-rule:nonzero;stroke:none;stroke-width:193.6489563;stroke-linecap:round;stroke-linejoin:round;stroke-miterlimit:4;stroke-dasharray:none;stroke-opacity:1"
           d="M 644.15625 387.98438 L 509.25586 586.48438 L 631.4043 661.57227 L 630.72656 662.56836 A 1272 1272 0 0 1 1188.4473 1713.5996 L 1428.4473 1713.5996 A 1511.9999 1511.9999 0 0 0 766.31641 463.05469 L 644.15625 387.98438 z "
           transform="matrix(-0.26458334,0,0,0.26458334,3425.9434,-226.24002)"
           id="path19611" />
        <g
           id="g19617"
           transform="rotate(-34.2,2003.7315,-4753.814)">
          <path
             inkscape:connector-curvature="0"
             id="path19613"
             transform="matrix(-0.21883174,-0.14871789,-0.14871789,0.21883174,3458.5163,499.02891)"
             d="m 11092.871,4013.5957 -556.871,3.0742 202.141,518.8965 h 0.05 a 48,48 0 0 0 17.694,22.2793 48,48 0 0 0 66.679,-12.7208 48,48 0 0 0 6.235,-13.0742 v 0 l 79.418,-262.414 214.75,-170.4414 -0.02,-0.053 a 48,48 0 0 0 9.877,-10.5644 48,48 0 0 0 -12.721,-66.6797 48,48 0 0 0 -27.242,-8.2949 z"
             style="opacity:1;fill:#000000;fill-opacity:1;fill-rule:nonzero;stroke:none;stroke-width:17.94890404;stroke-linecap:round;stroke-linejoin:round;stroke-miterlimit:4;stroke-dasharray:none;stroke-opacity:1" />
        </g>
      </g>
    </g>
  </g>
</svg>
