<?xml version="1.0" encoding="UTF-8" standalone="no"?>
<!-- Created with Inkscape (http://www.inkscape.org/) -->

<svg
   xmlns:dc="http://purl.org/dc/elements/1.1/"
   xmlns:cc="http://creativecommons.org/ns#"
   xmlns:rdf="http://www.w3.org/1999/02/22-rdf-syntax-ns#"
   xmlns:svg="http://www.w3.org/2000/svg"
   xmlns="http://www.w3.org/2000/svg"
   xmlns:sodipodi="http://sodipodi.sourceforge.net/DTD/sodipodi-0.dtd"
   xmlns:inkscape="http://www.inkscape.org/namespaces/inkscape"
   width="66in"
   height="30in"
   viewBox="0 0 1676.4 762.00002"
   version="1.1"
   id="svg4184"
   inkscape:version="0.92.2 5c3e80d, 2017-08-06"
   sodipodi:docname="MUTCD-OH_R3-H8eb.svg">
  <defs
     id="defs4178" />
  <sodipodi:namedview
     id="base"
     pagecolor="#ffffff"
     bordercolor="#666666"
     borderopacity="1.0"
     inkscape:pageopacity="0.0"
     inkscape:pageshadow="2"
     inkscape:zoom="0.12374369"
     inkscape:cx="2830.0999"
     inkscape:cy="994.31459"
     inkscape:document-units="in"
     inkscape:current-layer="layer3"
     showgrid="false"
     units="in"
     inkscape:window-width="1440"
     inkscape:window-height="855"
     inkscape:window-x="0"
     inkscape:window-y="1"
     inkscape:window-maximized="1"
     inkscape:snap-bbox="false"
     inkscape:object-paths="false"
     inkscape:snap-midpoints="true" />
  <metadata
     id="metadata4181">
    <rdf:RDF>
      <cc:Work
         rdf:about="">
        <dc:format>image/svg+xml</dc:format>
        <dc:type
           rdf:resource="http://purl.org/dc/dcmitype/StillImage" />
        <dc:title></dc:title>
      </cc:Work>
    </rdf:RDF>
  </metadata>
  <g
     inkscape:label="Sign Back"
     inkscape:groupmode="layer"
     id="layer1"
     transform="translate(0,465.00002)"
     sodipodi:insensitive="true">
    <rect
       style="opacity:1;fill:#ffffff;fill-opacity:1;fill-rule:nonzero;stroke:#000000;stroke-width:1.88811982;stroke-linecap:round;stroke-linejoin:round;stroke-miterlimit:4;stroke-dasharray:none;stroke-opacity:1"
       id="rect2300"
       width="1674.512"
       height="760.11188"
       x="0.94400865"
       y="-464.05594"
       rx="47.625"
       ry="47.625465" />
    <rect
       style="opacity:1;fill:#ffffff;fill-opacity:1;fill-rule:nonzero;stroke:#000000;stroke-width:19.05000114;stroke-linecap:round;stroke-linejoin:round;stroke-miterlimit:4;stroke-dasharray:none;stroke-opacity:1"
       id="rect2300-9"
       width="1631.9501"
       height="717.54999"
       x="22.224854"
       y="-442.77499"
       rx="25.4"
       ry="25.4" />
    <rect
       y="-84.000031"
       x="338.582"
       height="349.25"
       width="19.050001"
       id="rect4833"
       style="opacity:1;fill:#000000;fill-opacity:1;fill-rule:nonzero;stroke:none;stroke-width:17.28671455;stroke-linecap:round;stroke-linejoin:miter;stroke-miterlimit:4;stroke-dasharray:none;stroke-opacity:1" />
    <rect
       style="opacity:1;fill:#000000;fill-opacity:1;fill-rule:nonzero;stroke:none;stroke-width:17.28671455;stroke-linecap:round;stroke-linejoin:miter;stroke-miterlimit:4;stroke-dasharray:none;stroke-opacity:1"
       id="rect851"
       width="19.050001"
       height="349.25"
       x="665.22601"
       y="-84.000031" />
    <rect
       y="-84.000031"
       x="992.12402"
       height="349.25"
       width="19.050001"
       id="rect864"
       style="opacity:1;fill:#000000;fill-opacity:1;fill-rule:nonzero;stroke:none;stroke-width:17.28671455;stroke-linecap:round;stroke-linejoin:miter;stroke-miterlimit:4;stroke-dasharray:none;stroke-opacity:1" />
    <rect
       style="opacity:1;fill:#000000;fill-opacity:1;fill-rule:nonzero;stroke:none;stroke-width:17.28671455;stroke-linecap:round;stroke-linejoin:miter;stroke-miterlimit:4;stroke-dasharray:none;stroke-opacity:1"
       id="rect869"
       width="19.050001"
       height="349.25"
       x="1318.7681"
       y="-84.000031" />
  </g>
  <g
     inkscape:groupmode="layer"
     id="layer3"
     inkscape:label="Legends">
    <g
       id="g864"
       transform="matrix(-1,0,0,1,1073.163,274.50006)">
      <path
         style="opacity:1;fill:#000000;fill-opacity:1;fill-rule:nonzero;stroke:none;stroke-width:33.11999893;stroke-linecap:round;stroke-linejoin:round;stroke-miterlimit:4;stroke-dasharray:none;stroke-opacity:1"
         d="M 3390.9941,-4.4628906 3284.041,37.775391 A 672,672 0 0 0 2880,654.03906 v 372.48044 h 240 V 654.03906 A 432,432 0 0 1 3379.9453,258.3418 l -0.2012,-0.46485 106.9512,-42.24609 z"
         transform="scale(0.26458333)"
         id="path860"
         inkscape:connector-curvature="0" />
      <path
         style="opacity:1;fill:#000000;fill-opacity:1;fill-rule:nonzero;stroke:none;stroke-width:17.94890404;stroke-linecap:round;stroke-linejoin:round;stroke-miterlimit:4;stroke-dasharray:none;stroke-opacity:1"
         d="m 3295.2891,-181.16797 a 48,48 0 0 0 -18.6524,3.98047 48,48 0 0 0 -24.8789,63.1582 48,48 0 0 0 7.7442,12.2168 l -0.027,0.0469 179.3711,207.3496 29.3145,272.59571 0.01,0.002 a 48,48 0 0 0 3.6992,14.00586 48,48 0 0 0 63.1582,24.87891 48,48 0 0 0 21.5195,-18.60547 l 0.055,0.0117 294.9668,-472.345707 -546.6191,-106.412113 v 0.006 a 48,48 0 0 0 -9.6543,-0.88867 z"
         transform="scale(0.26458333)"
         id="path862"
         inkscape:connector-curvature="0" />
    </g>
    <g
       transform="translate(603.22463,274.50006)"
       id="g891">
      <path
         inkscape:connector-curvature="0"
         id="path887"
         transform="scale(0.26458333)"
         d="M 3390.9941,-4.4628906 3284.041,37.775391 A 672,672 0 0 0 2880,654.03906 v 372.48044 h 240 V 654.03906 A 432,432 0 0 1 3379.9453,258.3418 l -0.2012,-0.46485 106.9512,-42.24609 z"
         style="opacity:1;fill:#000000;fill-opacity:1;fill-rule:nonzero;stroke:none;stroke-width:33.11999893;stroke-linecap:round;stroke-linejoin:round;stroke-miterlimit:4;stroke-dasharray:none;stroke-opacity:1" />
      <path
         inkscape:connector-curvature="0"
         id="path889"
         transform="scale(0.26458333)"
         d="m 3295.2891,-181.16797 a 48,48 0 0 0 -18.6524,3.98047 48,48 0 0 0 -24.8789,63.1582 48,48 0 0 0 7.7442,12.2168 l -0.027,0.0469 179.3711,207.3496 29.3145,272.59571 0.01,0.002 a 48,48 0 0 0 3.6992,14.00586 48,48 0 0 0 63.1582,24.87891 48,48 0 0 0 21.5195,-18.60547 l 0.055,0.0117 294.9668,-472.345707 -546.6191,-106.412113 v 0.006 a 48,48 0 0 0 -9.6543,-0.88867 z"
         style="opacity:1;fill:#000000;fill-opacity:1;fill-rule:nonzero;stroke:none;stroke-width:17.94890404;stroke-linecap:round;stroke-linejoin:round;stroke-miterlimit:4;stroke-dasharray:none;stroke-opacity:1" />
    </g>
    <g
       aria-label="ONLY"
       style="font-style:normal;font-variant:normal;font-weight:normal;font-stretch:normal;font-size:171.95358276px;line-height:125%;font-family:'Roadgeek 2014 Series C';-inkscape-font-specification:'Roadgeek 2014 Series C';text-align:center;letter-spacing:0px;word-spacing:0px;text-anchor:middle;fill:#000000;fill-opacity:1;stroke:none;stroke-width:2.68677473px;stroke-linecap:butt;stroke-linejoin:miter;stroke-opacity:1"
       id="text868"
       transform="translate(-3.3019952)">
      <path
         d="m 109.24518,634.80346 q 0,21.9118 -5.60078,34.1942 -6.878142,16.80232 -23.090908,16.80232 -8.745068,0 -14.247583,-3.93036 -5.404255,-3.93037 -9.138104,-12.87196 -5.600774,-12.57717 -5.502515,-34.1942 0,-21.9118 5.502515,-34.19419 3.832108,-8.74507 9.334623,-12.57718 5.502514,-3.83211 14.051064,-3.83211 8.646809,0 13.952805,3.83211 5.404255,3.83211 9.138103,12.97021 5.60078,12.57718 5.60078,33.80116 z m -13.461514,0 q 0,-13.65802 -3.046035,-24.36827 -3.340812,-12.47892 -12.184139,-12.47892 -8.745068,0 -12.282399,12.08588 -3.242553,10.21895 -3.144294,25.15435 0,12.47892 3.144294,24.85958 3.340813,11.98762 12.282399,11.98762 8.745068,0 12.184139,-11.98762 3.046035,-10.1207 3.046035,-25.25262 z"
         style="text-align:center;text-anchor:middle;stroke-width:2.68677473px"
         id="path893"
         inkscape:connector-curvature="0" />
      <path
         d="m 184.08183,684.12958 h -10.61199 l -30.46035,-65.83366 v 65.83366 h -14.14933 v -98.25919 h 14.14933 l 26.92302,59.05377 v -59.05377 h 14.14932 z"
         style="text-align:center;text-anchor:middle;stroke-width:2.68677473px"
         id="path895"
         inkscape:connector-curvature="0" />
      <path
         d="m 255.78301,684.12958 h -50.01393 v -98.25919 h 14.14933 v 85.09246 h 35.8646 z"
         style="text-align:center;text-anchor:middle;stroke-width:2.68677473px"
         id="path897"
         inkscape:connector-curvature="0" />
      <path
         d="m 324.50688,585.87039 -24.46653,53.84603 v 44.41316 h -14.14933 v -44.41316 l -24.17176,-53.84603 h 14.83714 l 16.6058,35.47157 16.21277,-35.47157 z"
         style="text-align:center;text-anchor:middle;stroke-width:2.68677473px"
         id="path899"
         inkscape:connector-curvature="0" />
    </g>
    <g
       aria-label="ONLY"
       style="font-style:normal;font-variant:normal;font-weight:normal;font-stretch:normal;font-size:171.95358276px;line-height:125%;font-family:'Roadgeek 2014 Series C';-inkscape-font-specification:'Roadgeek 2014 Series C';text-align:center;letter-spacing:0px;word-spacing:0px;text-anchor:middle;fill:#000000;fill-opacity:1;stroke:none;stroke-width:2.68677473px;stroke-linecap:butt;stroke-linejoin:miter;stroke-opacity:1"
       id="text872"
       transform="translate(-8.3819709)">
      <path
         d="m 440.96916,634.80346 q 0,21.9118 -5.60077,34.1942 -6.87815,16.80232 -23.09091,16.80232 -8.74507,0 -14.24759,-3.93036 -5.40425,-3.93037 -9.1381,-12.87196 -5.60078,-12.57717 -5.50252,-34.1942 0,-21.9118 5.50252,-34.19419 3.83211,-8.74507 9.33462,-12.57718 5.50252,-3.83211 14.05107,-3.83211 8.6468,0 13.9528,3.83211 5.40426,3.83211 9.13811,12.97021 5.60077,12.57718 5.60077,33.80116 z m -13.46151,0 q 0,-13.65802 -3.04603,-24.36827 -3.34082,-12.47892 -12.18414,-12.47892 -8.74507,0 -12.2824,12.08588 -3.24256,10.21895 -3.1443,25.15435 0,12.47892 3.1443,24.85958 3.34081,11.98762 12.2824,11.98762 8.74506,0 12.18414,-11.98762 3.04603,-10.1207 3.04603,-25.25262 z"
         style="text-align:center;text-anchor:middle;stroke-width:2.68677473px"
         id="path884"
         inkscape:connector-curvature="0" />
      <path
         d="m 515.80581,684.12958 h -10.61199 l -30.46035,-65.83366 v 65.83366 h -14.14932 v -98.25919 h 14.14932 l 26.92302,59.05377 v -59.05377 h 14.14932 z"
         style="text-align:center;text-anchor:middle;stroke-width:2.68677473px"
         id="path886"
         inkscape:connector-curvature="0" />
      <path
         d="m 587.507,684.12958 h -50.01393 v -98.25919 h 14.14932 v 85.09246 H 587.507 Z"
         style="text-align:center;text-anchor:middle;stroke-width:2.68677473px"
         id="path888"
         inkscape:connector-curvature="0" />
      <path
         d="m 656.23087,585.87039 -24.46654,53.84603 v 44.41316 h -14.14932 v -44.41316 l -24.17176,-53.84603 h 14.83713 l 16.60581,35.47157 16.21276,-35.47157 z"
         style="text-align:center;text-anchor:middle;stroke-width:2.68677473px"
         id="path890"
         inkscape:connector-curvature="0" />
    </g>
    <g
       aria-label="ONLY"
       style="font-style:normal;font-variant:normal;font-weight:normal;font-stretch:normal;font-size:171.95358276px;line-height:125%;font-family:'Roadgeek 2014 Series C';-inkscape-font-specification:'Roadgeek 2014 Series C';text-align:center;letter-spacing:0px;word-spacing:0px;text-anchor:middle;fill:#000000;fill-opacity:1;stroke:none;stroke-width:2.68677473px;stroke-linecap:butt;stroke-linejoin:miter;stroke-opacity:1"
       id="text876"
       transform="translate(-13.462027)">
      <path
         d="m 772.69322,634.80346 q 0,21.9118 -5.60077,34.1942 -6.87815,16.80232 -23.09091,16.80232 -8.74507,0 -14.24759,-3.93036 -5.40425,-3.93037 -9.1381,-12.87196 -5.60078,-12.57717 -5.50252,-34.1942 0,-21.9118 5.50252,-34.19419 3.83211,-8.74507 9.33462,-12.57718 5.50252,-3.83211 14.05107,-3.83211 8.6468,0 13.9528,3.83211 5.40426,3.83211 9.13811,12.97021 5.60077,12.57718 5.60077,33.80116 z m -13.46151,0 q 0,-13.65802 -3.04603,-24.36827 -3.34082,-12.47892 -12.18414,-12.47892 -8.74507,0 -12.2824,12.08588 -3.24256,10.21895 -3.1443,25.15435 0,12.47892 3.1443,24.85958 3.34081,11.98762 12.2824,11.98762 8.74506,0 12.18414,-11.98762 3.04603,-10.1207 3.04603,-25.25262 z"
         style="text-align:center;text-anchor:middle;stroke-width:2.68677473px"
         id="path875"
         inkscape:connector-curvature="0" />
      <path
         d="m 847.52987,684.12958 h -10.61199 l -30.46035,-65.83366 v 65.83366 h -14.14932 v -98.25919 h 14.14932 l 26.92302,59.05377 v -59.05377 h 14.14932 z"
         style="text-align:center;text-anchor:middle;stroke-width:2.68677473px"
         id="path877"
         inkscape:connector-curvature="0" />
      <path
         d="m 919.23106,684.12958 h -50.01393 v -98.25919 h 14.14932 v 85.09246 h 35.86461 z"
         style="text-align:center;text-anchor:middle;stroke-width:2.68677473px"
         id="path879"
         inkscape:connector-curvature="0" />
      <path
         d="m 987.95493,585.87039 -24.46654,53.84603 v 44.41316 h -14.14932 v -44.41316 l -24.17176,-53.84603 h 14.83713 l 16.60581,35.47157 16.21276,-35.47157 z"
         style="text-align:center;text-anchor:middle;stroke-width:2.68677473px"
         id="path881"
         inkscape:connector-curvature="0" />
    </g>
    <g
       aria-label="ONLY"
       style="font-style:normal;font-variant:normal;font-weight:normal;font-stretch:normal;font-size:171.95358276px;line-height:125%;font-family:'Roadgeek 2014 Series C';-inkscape-font-specification:'Roadgeek 2014 Series C';text-align:center;letter-spacing:0px;word-spacing:0px;text-anchor:middle;fill:#000000;fill-opacity:1;stroke:none;stroke-width:2.68677473px;stroke-linecap:butt;stroke-linejoin:miter;stroke-opacity:1"
       id="text880"
       transform="translate(308.35601)">
      <path
         d="m 1104.4172,634.80346 q 0,21.9118 -5.6008,34.1942 -6.8781,16.80232 -23.0909,16.80232 -8.745,0 -14.2475,-3.93036 -5.4043,-3.93037 -9.1382,-12.87196 -5.6007,-12.57717 -5.5025,-34.1942 0,-21.9118 5.5025,-34.19419 3.8322,-8.74507 9.3347,-12.57718 5.5025,-3.83211 14.051,-3.83211 8.6468,0 13.9528,3.83211 5.4043,3.83211 9.1381,12.97021 5.6008,12.57718 5.6008,33.80116 z m -13.4615,0 q 0,-13.65802 -3.046,-24.36827 -3.3408,-12.47892 -12.1842,-12.47892 -8.745,0 -12.2824,12.08588 -3.2425,10.21895 -3.1443,25.15435 0,12.47892 3.1443,24.85958 3.3408,11.98762 12.2824,11.98762 8.7451,0 12.1842,-11.98762 3.046,-10.1207 3.046,-25.25262 z"
         style="text-align:center;text-anchor:middle;stroke-width:2.68677473px"
         id="path902"
         inkscape:connector-curvature="0" />
      <path
         d="m 1179.2539,684.12958 h -10.612 l -30.4604,-65.83366 v 65.83366 h -14.1493 v -98.25919 h 14.1493 l 26.923,59.05377 v -59.05377 h 14.1494 z"
         style="text-align:center;text-anchor:middle;stroke-width:2.68677473px"
         id="path904"
         inkscape:connector-curvature="0" />
      <path
         d="m 1250.9551,684.12958 h -50.014 v -98.25919 h 14.1494 v 85.09246 h 35.8646 z"
         style="text-align:center;text-anchor:middle;stroke-width:2.68677473px"
         id="path906"
         inkscape:connector-curvature="0" />
      <path
         d="m 1319.6789,585.87039 -24.4665,53.84603 v 44.41316 h -14.1493 v -44.41316 l -24.1718,-53.84603 h 14.8371 l 16.6058,35.47157 16.2128,-35.47157 z"
         style="text-align:center;text-anchor:middle;stroke-width:2.68677473px"
         id="path908"
         inkscape:connector-curvature="0" />
    </g>
    <g
       transform="translate(377.82622,113.62123)"
       id="g896">
      <rect
         style="opacity:1;fill:#000000;fill-opacity:1;fill-rule:nonzero;stroke:none;stroke-width:32.01993561;stroke-linecap:round;stroke-linejoin:miter;stroke-miterlimit:4;stroke-dasharray:none;stroke-opacity:1"
         id="rect892"
         width="63.5"
         height="366.57281"
         x="428.625"
         y="65.90596" />
      <path
         style="opacity:1;fill:#000000;fill-opacity:1;fill-rule:nonzero;stroke:none;stroke-width:17.94890404;stroke-linecap:round;stroke-linejoin:round;stroke-miterlimit:4;stroke-dasharray:none;stroke-opacity:1"
         d="m 3329.2793,228.48047 -315.5488,458.84961 v 0.004 a 47.999999,47.999999 0 0 0 -8.4551,27.19336 47.999999,47.999999 0 0 0 48,48 47.999999,47.999999 0 0 0 14.291,-2.23046 l 0.033,0.0449 261.6758,-81.81446 261.6777,81.81446 v -0.006 a 47.999999,47.999999 0 0 0 14.3184,2.1914 47.999999,47.999999 0 0 0 48,-48 47.999999,47.999999 0 0 0 -8.4824,-27.15234 l 0.033,-0.0449 z"
         transform="matrix(0.26458334,0,0,0.26458334,-420.49701,-113.62124)"
         id="path894"
         inkscape:connector-curvature="0" />
    </g>
    <g
       transform="translate(-18.287994)"
       id="g880"
       style="font-style:normal;font-variant:normal;font-weight:normal;font-stretch:normal;font-size:171.95358276px;line-height:125%;font-family:'Roadgeek 2014 Series C';-inkscape-font-specification:'Roadgeek 2014 Series C';text-align:center;letter-spacing:0px;word-spacing:0px;text-anchor:middle;fill:#000000;fill-opacity:1;stroke:none;stroke-width:2.68677473px;stroke-linecap:butt;stroke-linejoin:miter;stroke-opacity:1"
       aria-label="ONLY">
      <path
         inkscape:connector-curvature="0"
         id="path871"
         style="text-align:center;text-anchor:middle;stroke-width:2.68677473px"
         d="m 1104.4172,634.80346 q 0,21.9118 -5.6008,34.1942 -6.8781,16.80232 -23.0909,16.80232 -8.745,0 -14.2475,-3.93036 -5.4043,-3.93037 -9.1382,-12.87196 -5.6007,-12.57717 -5.5025,-34.1942 0,-21.9118 5.5025,-34.19419 3.8322,-8.74507 9.3347,-12.57718 5.5025,-3.83211 14.051,-3.83211 8.6468,0 13.9528,3.83211 5.4043,3.83211 9.1381,12.97021 5.6008,12.57718 5.6008,33.80116 z m -13.4615,0 q 0,-13.65802 -3.046,-24.36827 -3.3408,-12.47892 -12.1842,-12.47892 -8.745,0 -12.2824,12.08588 -3.2425,10.21895 -3.1443,25.15435 0,12.47892 3.1443,24.85958 3.3408,11.98762 12.2824,11.98762 8.7451,0 12.1842,-11.98762 3.046,-10.1207 3.046,-25.25262 z" />
      <path
         inkscape:connector-curvature="0"
         id="path873"
         style="text-align:center;text-anchor:middle;stroke-width:2.68677473px"
         d="m 1179.2539,684.12958 h -10.612 l -30.4604,-65.83366 v 65.83366 h -14.1493 v -98.25919 h 14.1493 l 26.923,59.05377 v -59.05377 h 14.1494 z" />
      <path
         inkscape:connector-curvature="0"
         id="path876"
         style="text-align:center;text-anchor:middle;stroke-width:2.68677473px"
         d="m 1250.9551,684.12958 h -50.014 v -98.25919 h 14.1494 v 85.09246 h 35.8646 z" />
      <path
         inkscape:connector-curvature="0"
         id="path878"
         style="text-align:center;text-anchor:middle;stroke-width:2.68677473px"
         d="m 1319.6789,585.87039 -24.4665,53.84603 v 44.41316 h -14.1493 v -44.41316 l -24.1718,-53.84603 h 14.8371 l 16.6058,35.47157 16.2128,-35.47157 z" />
    </g>
    <g
       id="g887"
       transform="translate(704.72422,113.62123)">
      <rect
         y="65.90596"
         x="428.625"
         height="366.57281"
         width="63.5"
         id="rect882"
         style="opacity:1;fill:#000000;fill-opacity:1;fill-rule:nonzero;stroke:none;stroke-width:32.01993561;stroke-linecap:round;stroke-linejoin:miter;stroke-miterlimit:4;stroke-dasharray:none;stroke-opacity:1" />
      <path
         inkscape:connector-curvature="0"
         id="path885"
         transform="matrix(0.26458334,0,0,0.26458334,-420.49701,-113.62124)"
         d="m 3329.2793,228.48047 -315.5488,458.84961 v 0.004 a 47.999999,47.999999 0 0 0 -8.4551,27.19336 47.999999,47.999999 0 0 0 48,48 47.999999,47.999999 0 0 0 14.291,-2.23046 l 0.033,0.0449 261.6758,-81.81446 261.6777,81.81446 v -0.006 a 47.999999,47.999999 0 0 0 14.3184,2.1914 47.999999,47.999999 0 0 0 48,-48 47.999999,47.999999 0 0 0 -8.4824,-27.15234 l 0.033,-0.0449 z"
         style="opacity:1;fill:#000000;fill-opacity:1;fill-rule:nonzero;stroke:none;stroke-width:17.94890404;stroke-linecap:round;stroke-linejoin:round;stroke-miterlimit:4;stroke-dasharray:none;stroke-opacity:1" />
    </g>
    <g
       transform="matrix(-1,0,0,1,1400.061,274.50006)"
       id="g913">
      <path
         inkscape:connector-curvature="0"
         id="path909"
         transform="scale(0.26458333)"
         d="M 3390.9941,-4.4628906 3284.041,37.775391 A 672,672 0 0 0 2880,654.03906 v 372.48044 h 240 V 654.03906 A 432,432 0 0 1 3379.9453,258.3418 l -0.2012,-0.46485 106.9512,-42.24609 z"
         style="opacity:1;fill:#000000;fill-opacity:1;fill-rule:nonzero;stroke:none;stroke-width:33.11999893;stroke-linecap:round;stroke-linejoin:round;stroke-miterlimit:4;stroke-dasharray:none;stroke-opacity:1" />
      <path
         inkscape:connector-curvature="0"
         id="path911"
         transform="scale(0.26458333)"
         d="m 3295.2891,-181.16797 a 48,48 0 0 0 -18.6524,3.98047 48,48 0 0 0 -24.8789,63.1582 48,48 0 0 0 7.7442,12.2168 l -0.027,0.0469 179.3711,207.3496 29.3145,272.59571 0.01,0.002 a 48,48 0 0 0 3.6992,14.00586 48,48 0 0 0 63.1582,24.87891 48,48 0 0 0 21.5195,-18.60547 l 0.055,0.0117 294.9668,-472.345707 -546.6191,-106.412113 v 0.006 a 48,48 0 0 0 -9.6543,-0.88867 z"
         style="opacity:1;fill:#000000;fill-opacity:1;fill-rule:nonzero;stroke:none;stroke-width:17.94890404;stroke-linecap:round;stroke-linejoin:round;stroke-miterlimit:4;stroke-dasharray:none;stroke-opacity:1" />
    </g>
  </g>
</svg>
