<?xml version="1.0" encoding="UTF-8"?>
<svg width="48in" height="16in" viewBox="0 0 3456 1152" xmlns="http://www.w3.org/2000/svg">
<defs>
<style>.a{fill:#fcd116;}</style>
</defs>
<rect class="a" width="3456" height="1152" rx="108"/>
<path d="m3348 27h-3240a81.096 81.096 0 0 0-81 81v936a81.096 81.096 0 0 0 81 81h3240a81.096 81.096 0 0 0 81-81v-936a81.096 81.096 0 0 0-81-81zm36 1017a36.041 36.041 0 0 1-36 36h-3240a36.041 36.041 0 0 1-36-36v-936a36.041 36.041 0 0 1 36-36h3240a36.041 36.041 0 0 1 36 36z"/>
<path d="m1523.4 432.64c22.317 0 40.567-20.23 40.567-43.482-0.0362-61.336-107.52-61.192-107.52-139.48 0-41.431 32.468-74.726 74.042-74.726 40.603 0 72.063 31.28 73.071 74.763h-39.631c-1.0078-20.193-15.226-33.332-33.476-33.332-19.294 0-34.484 14.11-34.484 33.295 0 17.242 10.834 24.117 24.261 32.54 38.947 23.505 83.293 51.87 83.293 106.98 0 46.614-35.528 83.87-80.162 83.87-50.718 0-81.134-42.907-81.134-89.989h40.639c0 24.513 12.13 49.566 40.531 49.566z"/>
<path d="m1757.4 461.9c-7.0547 6.0474-22.173 9.0352-35.312 9.0352-35.348 0-65.62-31.316-65.62-73.791 0-45.102 28.688-71.091 63.568-71.091 10.295 0 26.097 3.8872 35.348 8.4228-1.0078-25.269-1.0791-44.455-33.296-44.455-18.178 0-36.356 15.154-43.411 26.277l-10.079-39.379c17.17-16.162 38.335-24.261 58.529-24.261 55.578 0 67.635 40.531 67.635 74.799v140.49h-37.363zm-29.552-97.908c-16.234 0-30.992 10.691-30.992 34.196 0 26.097 14.183 37.399 34.304 37.399 14.11 0 24.225-6.1191 24.225-19.186l0.0362-41.431c-6.4438-5.9028-18.826-10.978-27.573-10.978z"/>
<path d="m2026.6 467.95-43.446-139.48-44.454 139.48h-42.438l-48.522-210.25h40.423l31.316 134.44 41.503-134.44h43.446l40.423 135.45 32.324-135.45h41.394l-48.522 210.25z"/>
<path d="m2416.4 467.95h-41.539v-144.56c0-27.464-11.122-33.332-32.396-33.332-15.19 0-27.32 8.9629-27.32 33.332v144.56h-40.531v-144.56c0-27.716-12.131-33.332-32.396-33.332-15.226 0-27.356 8.9629-27.356 33.332v144.56h-40.494v-210.21h39.486v12.094c19.222-17.206 33.44-17.17 42.547-17.17 18.214 0 32.396 8.063 44.562 25.269 11.23-17.71 25.701-25.485 51.113-25.485 35.456 0 64.324 23.433 64.324 70.947z"/>
<path d="m2489 197.08c0-12.202 8.999-21.201 20.193-21.201 12.203 0 21.202 8.999 21.202 21.201 0 11.195-8.999 20.194-21.202 20.194a20.14 20.14 0 0 1-20.193-20.194zm0.54 60.581h40.315v210.29h-40.315z"/>
<path d="m2605.9 197.05 40.314-22.245v293.15h-40.314z"/>
<path d="m2722.1 197.05 40.314-22.245v293.15h-40.314z"/>
<path d="M540,639H400.24l23.27,73.04A25.2005,25.2005,0,0,1,399.6,745.2a25.3546,25.3546,0,0,1-15.73-5.51L144,576,383.87,412.31A25.2021,25.2021,0,0,1,424.8,432a25.069,25.069,0,0,1-1.29,7.96L400.24,513H540Z"/>
<path d="m1072.8 647.99h41.575v210.47c0 62.56-51.653 82.538-79.046 82.538-29.372 0-55.721-14.11-67.887-36.355l31.388-24.261c10.115 13.139 22.281 20.23 36.463 20.23 15.01 0 37.507-10.511 37.507-37.795z"/>
<path d="m1300.4 923.82c-19.402 17.206-33.692 17.206-42.871 17.206-29.661 0-64.288-22.929-64.288-70.767v-144.52h40.819v144.52c0 25.953 15.298 32.324 35.708 32.324 15.478 0 29.588-8.063 29.588-32.324v-144.52h40.819v210.21h-39.775z"/>
<path d="m1522.2 792.4c0-27.896-15.442-33.332-35.708-33.332-15.334 0-29.588 9.1787-29.588 33.332v143.55h-40.819v-210.21h39.811v9.0708c6.5512-8.3149 22.137-13.931 39.451-13.931 31.064 0 67.671 17.998 67.671 70.515v144.56h-40.819z"/>
<path d="m1627.5 829.76c0-46.902 12.274-109.14 73.575-109.14 38.983 0 59.249 22.246 67.42 52.554l-38.839 16.162c-4.1035-17.17-12.239-31.316-28.581-31.316-29.3 0-33.728 50.394-33.728 71.739 0 20.841 3.6353 71.775 33.728 71.775 20.445 0 28.581-22.21 31.64-43.447l38.839 12.131c-7.163 37.435-25.52 69.723-70.479 69.723-61.66 0-73.574-55.577-73.574-110.18z"/>
<path d="m1873.7 939.95c-30.272 0-39.27-24.981-39.27-54.569v-121.27h-27.213v-38.371h27.213v-60.688l40.278-22.245v82.934h33.225v38.371h-33.224v117.27c0 14.002 1.9805 20.194 14.074 20.194 9.0713 0 13.102-2.9878 22.174-10.115l-6.0478 39.487c-13.067 6.9832-21.129 8.999-31.208 8.999z"/>
<path d="m1963.4 665.08c0-12.202 8.9981-21.201 20.193-21.201 12.202 0 21.201 8.999 21.201 21.201 0 11.195-8.999 20.194-21.201 20.194a20.14 20.14 0 0 1-20.193-20.194zm0.54 60.581h40.314v210.29h-40.314z"/>
<path d="m2071.6 829.76c0-46.578 12.238-109.14 73.467-109.14s73.467 58.601 73.467 109.14c0 50.25-12.238 110.18-73.467 110.18-61.336 0-73.467-55.577-73.467-110.18zm39.812 0.9717c0 21.237 4.0674 71.775 33.655 71.775 29.984 0 33.656-51.546 33.656-72.783 0-20.374-4.2119-70.659-33.656-70.659v-0.108c-29.588-4e-4 -33.655 50.538-33.655 71.775z"/>
<path d="m2392 792.4c0-27.896-15.442-33.332-35.708-33.332-15.334 0-29.588 9.1787-29.588 33.332v143.55h-40.818v-210.21h39.81v9.0708c6.5508-8.3149 22.137-13.931 39.451-13.931 31.064 0 67.671 17.998 67.671 70.515v144.56h-40.818z"/>
<path d="m2773.7 857.16h-61.768l-19.258 78.794h-41.539l71.919-287.96h40.567l71.883 287.96h-41.539zm-51.653-40.423h41.539l-21.273-82.861z"/>
<path d="m2942.3 935.95-68.247-210.25h40.71l43.77 141.53 42.728-141.53h42.762l-68.175 210.25z"/>
<path d="m3164.6 901.54c16.27 0 29.588-15.154 33.655-33.332l31.641 23.254c-10.259 27.284-29.625 48.486-65.296 48.486-61.228 0-73.394-55.577-73.394-110.18 0-47.694 12.238-109.14 73.394-109.14 65.224 0 73.538 64.18 73.538 114.97v11.374h-106.15c2.0153 23.253 9.1422 54.569 32.612 54.569zm-33.62-90.997h66.268c0-20.122-3.0957-52.482-32.648-52.482v-0.0717c-29.588 0-33.62 31.316-33.62 52.553z"/>
</svg>
