<?xml version="1.0" encoding="UTF-8"?>
<svg width="17280" height="7560" viewBox="0 0 13824 6048" xmlns="http://www.w3.org/2000/svg">
<defs>
<style>.a,.e{fill:none;}.b{clip-path:url(#a);}.c{fill:#fff;}.d{fill:#fcd116;}.e{stroke:#000;stroke-linecap:round;stroke-linejoin:round;stroke-width:135px;}</style>
<clipPath id="a" transform="translate(0 -5e-4)">
<rect class="a" width="13824" height="6048"/>
</clipPath>
</defs>
<g class="b">
<rect class="c" y="1728" width="13824" height="4320"/>
<rect class="d" width="13824" height="1728"/>
<path class="e" transform="translate(0 -5e-4)" d="m360 72h13104a287.37 287.37 0 0 1 288 288v5328a287.37 287.37 0 0 1-288 288h-13104a287.37 287.37 0 0 1-288-288v-5328a287.37 287.37 0 0 1 288-288z"/>
<rect x="1152" y="3204" width="11520" height="108"/>
<path transform="translate(0 -5e-4)" d="m3444.7 4141.4q0 105.14-97.487 162.94-76.595 46.65-175.48 46.654-172.69 0-288.96-133.7l100.27-78.682q73.813 88.43 185.92 88.433 65.456 0 108.63-25.767 43.17-26.456 43.171-64.754 0-41.783-44.567-63.368-50.138-20.194-82.862-27.157l-32.73-9.7462-30.637-6.9633-34.813-9.7492q-97.489-22.981-137.18-68.938-43.168-46.65-43.17-116.98 0-85.643 66.149-139.27 66.845-54.314 172.69-54.312 155.28 0 259.03 107.93l-91.917 82.862q-64.063-68.245-167.12-67.547-52.225 0-82.166 18.8-29.944 18.108-29.942 51.53 0 29.944 22.284 45.263 22.975 15.319 87.738 29.942 121.86 25.069 192.88 59.187 46.656 23.675 73.112 70.325 27.163 46.656 27.158 103.06z"/>
<path transform="translate(0 -5e-4)" d="m4178.3 3860.2q0 55.006-29.246 105.84-29.243 50.138-77.983 77.296-50.138 27.155-125.34 27.85h-197.75v272.96h-126.73v-696.33h324.48q70.325 0 125.34 29.246 50.138 28.549 78.682 76.595 28.557 48.044 28.555 106.54zm-125.34 0q0-39.695-27.854-63.367-27.85-23.675-74.505-23.676h-202.63v172.69h202.63q45.256 0 73.808-23.674t28.555-61.975z"/>
<path transform="translate(0 -5e-4)" d="m4854.9 4344.1h-520.15v-696.33h508.31v125.34h-381.6v128.82h207.51v127.43h-207.51v190.79h393.42z"/>
<path transform="translate(0 -5e-4)" d="m5551.7 4344.1h-520.16v-696.33h508.31v125.34h-381.6v128.82h207.5v127.43h-207.5v190.79h393.42z"/>
<path transform="translate(0 -5e-4)" d="m6285.3 3994.6q0 213.77-169.2 307.78-73.813 41.78-163.64 41.784h-224.22v-696.33h224.22q89.131 0 165.72 43.871 167.12 94 167.12 302.91zm-125.34 0q0-135.78-102.36-195.67-50.138-26.462-105.15-25.766h-97.488v447.05h97.488q51.525 0 100.27-27.854 107.23-58.488 107.23-197.75z"/>
<rect x="6482.2" y="3647.8" width="123.95" height="696.33"/>
<path transform="translate(0 -5e-4)" d="m7386.2 4344.1h-107.24l-332.84-478.38v478.38h-121.86v-696.33h121.86l319.6 458.88v-458.88h120.47z"/>
<path transform="translate(0 -5e-4)" d="m7903.8 3997.4h243.72v90.52q0 113.51-80.078 190.8-80.082 77.295-195.67 77.292-97.487 0-165.03-53.616-67.543-53.619-95.396-133-27.848-79.381-27.853-174.78 0-160.15 79.382-259.03 80.081-99.581 208.9-99.578 180.35 0 259.03 172.69l-126.73 43.867q-43.169-91.912-132.3-91.912-72.417 0-118.37 65.454-45.262 64.757-45.263 168.51 0 63.368 12.538 112.81 12.531 49.437 51.526 87.037 39 37.606 99.579 37.604 51.524 0 92.609-30.637 41.08-31.337 54.312-79.383h-114.9z"/>
<path transform="translate(0 -5e-4)" d="m9447.9 4344.1h-133.7l-68.242-163.64h-302.91l-68.938 163.64h-136.48l292.45-696.33h127.43zm-256.95-288.97-96.092-233.27-98.179 233.27z"/>
<path transform="translate(0 -5e-4)" d="m10166 4344.1h-107.24l-332.84-478.38v478.38h-121.86v-696.33h121.86l319.6 458.88v-458.88h120.47z"/>
<path transform="translate(0 -5e-4)" d="m10941 3994.6q0 213.77-169.21 307.78-73.806 41.78-163.63 41.784h-224.22v-696.33h224.22q89.13 0 165.72 43.871 167.12 94 167.12 302.91zm-125.34 0q0-135.78-102.36-195.67-50.138-26.462-105.15-25.766h-97.488v447.05h97.488q51.533 0 100.27-27.854 107.23-58.488 107.23-197.75z"/>
<path transform="translate(0 -5e-4)" d="m1400.4 2665.5q0 105.15-97.488 162.94-76.593 46.658-175.47 46.655-172.69 0-288.96-133.7l100.27-78.684q73.813 88.432 185.92 88.433 65.456 0 108.62-25.762 43.174-26.462 43.17-64.758 0-41.781-44.562-63.366-50.138-20.193-82.863-27.154l-32.724-9.75-30.638-6.9623-34.817-9.75q-97.486-22.981-137.18-68.938-43.17-46.65-43.171-116.98 0-85.645 66.155-139.26 66.843-54.318 172.69-54.317 155.28 0 259.03 107.93l-91.916 82.862q-64.063-68.243-167.12-67.541-52.223 0-82.162 18.8-29.944 18.099-29.941 51.526 0 29.942 22.278 45.262 22.984 15.318 87.742 29.942 121.86 25.067 192.88 59.187 46.652 23.675 73.112 70.328 27.156 46.651 27.158 103.06z"/>
<path transform="translate(0 -5e-4)" d="m2037.3 2294.4h-200.54v573.76h-123.25v-573.76h-199.15v-122.55h522.94z"/>
<path transform="translate(0 -5e-4)" d="m2754.8 2868.1h-139.27l-112.11-272.96h-186.62v272.96h-123.95v-696.33h319.61q68.244 0 119.77 29.246 50.138 28.55 78.684 76.596 29.243 48.043 29.246 106.54a203.25 203.25 0 0 1-29.941 107.23q-29.245 48.743-82.863 78.683zm-139.27-483.96q0-40.387-27.854-63.362-27.158-23.675-72.417-23.676h-198.45v172.69h198.45q45.262 0 72.417-23.675 27.855-23.675 27.854-61.976z"/>
<rect x="2932.4" y="2171.8" width="123.95" height="696.33"/>
<path transform="translate(0 -5e-4)" d="m3817.7 2726.1q-38.301 72.411-110.72 113.5-71.719 40.387-158.06 40.387-137.18 0-216.56-98.179-78.682-98.18-78.684-263.21 0-165.72 78.684-261.82 79.38-96.794 216.56-96.792 84.95 0 156.67 40.387 72.419 40.394 112.11 113.51l-110.02 57.795q-22.98-34.819-48.741-50.833-45.262-35.512-110.02-36.208-59.88 0-98.875 37.6-38.993 36.906-54.312 86.346-14.626 49.437-14.625 107.93 0 113.5 44.566 176.87 44.563 62.669 123.25 62.671 46.65 0 79.379-18.109 32.731-18.8 79.384-70.324z"/>
<path transform="translate(0 -5e-4)" d="m4476.8 2294.4h-200.54v573.76h-123.25v-573.76h-199.15v-122.55h522.93z"/>
<path transform="translate(0 -5e-4)" d="m5606.6 2868.1h-520.16v-696.33h508.31v125.34h-381.6v128.82h207.5v127.43h-207.5v190.79h393.42z"/>
<path transform="translate(0 -5e-4)" d="m6345.1 2868.1h-107.23l-332.85-478.38v478.38h-121.86v-696.33h121.86l319.61 458.88v-458.88h120.46z"/>
<path transform="translate(0 -5e-4)" d="m7083.5 2297.2h-393.42v141.36h217.95v126.73h-217.95v302.91h-126.73v-696.33h520.15z"/>
<path transform="translate(0 -5e-4)" d="m7801.8 2516.5q0 163.64-78.684 263.91-78.688 99.574-210.29 99.574-143.44 0-219.34-107.93-75.901-107.92-75.901-253.46 0-167.12 78.683-262.51 79.38-96.094 216.56-96.091 127.43 0 208.2 98.879 80.77 98.875 80.772 257.64zm-125.34 2.0914q0-110.72-42.471-172-42.475-61.968-121.16-61.97-78.688 0-123.25 62.667-44.563 61.975-44.564 171.3 0 112.11 44.564 174.78 44.562 62.669 123.25 62.667 61.974 0 100.97-38.3 38.994-38.993 50.83-88.43 11.838-50.138 11.838-110.72z"/>
<path transform="translate(0 -5e-4)" d="m8561.5 2868.1h-139.27l-112.1-272.96h-186.62v272.96h-123.95v-696.33h319.61q68.237 0 119.76 29.246 50.138 28.55 78.688 76.596 29.242 48.043 29.242 106.54a203.25 203.25 0 0 1-29.942 107.23q-29.246 48.743-82.863 78.683zm-139.27-483.96q0-40.387-27.85-63.362-27.156-23.675-72.417-23.676h-198.45v172.69h198.45q45.256 0 72.417-23.675 27.851-23.675 27.85-61.976z"/>
<path transform="translate(0 -5e-4)" d="m9282.3 2726.1q-38.294 72.411-110.71 113.5-71.725 40.387-158.07 40.387-137.18 0-216.56-98.179-78.688-98.18-78.683-263.21 0-165.72 78.683-261.82 79.381-96.794 216.56-96.792 84.948 0 156.67 40.387 72.412 40.394 112.1 113.51l-110.02 57.795q-22.981-34.819-48.742-50.833-45.262-35.512-110.02-36.208-59.888 0-98.878 37.6-38.995 36.906-54.314 86.346-14.625 49.437-14.621 107.93 0 113.5 44.562 176.87 44.569 62.669 123.25 62.671 46.65 0 79.379-18.109 32.731-18.8 79.383-70.324z"/>
<path transform="translate(0 -5e-4)" d="m10001 2868.1h-520.16v-696.33h508.31v125.34h-381.6v128.82h207.5v127.43h-207.5v190.79h393.42z"/>
<path transform="translate(0 -5e-4)" d="m10830 2868.1h-122.55v-424.78l-205.42 424.78-202.63-424.78v424.78h-121.85v-696.33h121.85l202.63 412.22 205.42-412.22h122.55z"/>
<path transform="translate(0 -5e-4)" d="m11569 2868.1h-520.15v-696.33h508.31v125.34h-381.6v128.82h207.5v127.43h-207.5v190.79h393.42z"/>
<path transform="translate(0 -5e-4)" d="m12307 2868.1h-107.23l-332.84-478.38v478.38h-121.86v-696.33h121.86l319.6 458.88v-458.88h120.46z"/>
<path transform="translate(0 -5e-4)" d="m12986 2294.4h-200.54v573.76h-123.25v-573.76h-199.15v-122.55h522.93z"/>
<path transform="translate(0 -5e-4)" d="m2368.2 1081.5q0 105.15-97.484 162.94-76.599 46.658-175.47 46.655-172.69 0-288.96-133.7l100.27-78.684q73.806 88.432 185.92 88.433 65.456 0 108.62-25.762 43.175-26.463 43.176-64.759 0-41.78-44.567-63.366-50.132-20.194-82.862-27.154l-32.726-9.75-30.638-6.962-34.816-9.7505q-97.488-22.98-137.18-68.938-43.174-46.65-43.174-116.98 0-85.645 66.154-139.26 66.845-54.319 172.69-54.317 155.28 0 259.03 107.93l-91.916 82.862q-64.062-68.244-167.12-67.542-52.226 0-82.167 18.8-29.943 18.099-29.942 51.525 0 29.942 22.284 45.262 22.974 15.318 87.738 29.942 121.86 25.067 192.88 59.188 46.648 23.675 73.112 70.328 27.162 46.652 27.159 103.06z"/>
<path transform="translate(0 -5e-4)" d="m3192.4 1284.2h-133.69l-68.242-163.63h-302.91l-68.937 163.63h-136.48l292.45-696.33h127.43zm-256.94-288.96-96.092-233.27-98.179 233.27z"/>
<path transform="translate(0 -5e-4)" d="m3868.7 713.17h-393.42v141.36h217.95v126.73h-217.95v302.91h-126.73v-696.33h520.16z"/>
<path transform="translate(0 -5e-4)" d="m4544.2 1284.2h-520.16v-696.33h508.31v125.34h-381.6v128.82h207.5v127.43h-207.5v190.8h393.42z"/>
<path transform="translate(0 -5e-4)" d="m5180.9 710.39h-200.55v573.76h-123.25v-573.76h-199.15v-122.55h522.93z"/>
<path transform="translate(0 -5e-4)" d="m5984.2 587.85-292.45 412.21v284.09h-125.34v-284.09l-292.45-412.21h153.89l203.32 283.41 199.15-283.41z"/>
<path transform="translate(0 -5e-4)" d="m7137.6 1142.1q-38.298 72.412-110.72 113.5-71.718 40.388-158.06 40.387-137.18 0-216.56-98.179-78.681-98.181-78.682-263.21 0-165.73 78.682-261.82 79.383-96.793 216.56-96.791 84.949 0 156.67 40.387 72.416 40.393 112.11 113.5l-110.02 57.796q-22.983-34.82-48.742-50.833-45.262-35.512-110.02-36.208-59.882 0-98.876 37.6-38.994 36.906-54.312 86.346-14.624 49.437-14.625 107.93 0 113.5 44.563 176.87 44.568 62.669 123.26 62.671 46.648 0 79.379-18.109 32.724-18.8 79.382-70.324z"/>
<path transform="translate(0 -5e-4)" d="m7899.9 932.51q0 163.64-78.683 263.91-78.688 99.575-210.29 99.574-143.44 0-219.34-107.93-75.901-107.92-75.899-253.46 0-167.12 78.683-262.51 79.382-96.094 216.55-96.092 127.43 0 208.2 98.879 80.77 98.875 80.771 257.64zm-125.34 2.0917q0-110.72-42.474-172-42.475-61.968-121.16-61.97-78.688 0-123.25 62.667-44.57 61.975-44.566 171.3 0 112.11 44.566 174.78 44.569 62.669 123.25 62.667 61.975 0 100.97-38.3 38.994-38.994 50.833-88.43 11.838-50.138 11.838-110.72z"/>
<path transform="translate(0 -5e-4)" d="m8659.3 1284.2h-139.27l-112.11-272.96h-186.61v272.96h-123.95v-696.33h319.6q68.242 0 119.77 29.246 50.138 28.55 78.684 76.592 29.245 48.05 29.245 106.54a203.26 203.26 0 0 1-29.941 107.24q-29.245 48.737-82.862 78.683zm-139.27-483.96q0-40.387-27.854-63.368-27.156-23.674-72.417-23.674h-198.45v172.69h198.45q45.262 0 72.417-23.675 27.856-23.676 27.854-61.975z"/>
<path transform="translate(0 -5e-4)" d="m9399.1 1284.2h-139.27l-112.1-272.96h-186.62v272.96h-123.95v-696.33h319.61q68.237 0 119.77 29.246 50.138 28.55 78.683 76.592 29.25 48.05 29.246 106.54a203.25 203.25 0 0 1-29.942 107.24q-29.244 48.737-82.862 78.683zm-139.27-483.96q0-40.387-27.85-63.368-27.156-23.674-72.417-23.674h-198.45v172.69h198.45q45.256 0 72.417-23.675 27.85-23.676 27.85-61.975z"/>
<rect x="9576.8" y="587.82" width="123.95" height="696.33"/>
<path transform="translate(0 -5e-4)" d="m10476 934.61q0 213.77-169.21 307.78-73.812 41.781-163.64 41.78h-224.22v-696.33h224.22q89.131 0 165.72 43.871 167.12 94 167.12 302.91zm-125.34 0q0-135.79-102.36-195.67-50.133-26.462-105.15-25.768h-97.483v447.06h97.483q51.531 0 100.27-27.855 107.24-58.493 107.24-197.76z"/>
<path transform="translate(0 -5e-4)" d="m11236 932.51q0 163.64-78.683 263.91-78.681 99.575-210.29 99.574-143.44 0-219.34-107.93-75.9-107.92-75.9-253.46 0-167.12 78.682-262.51 79.381-96.094 216.56-96.092 127.42 0 208.2 98.879 80.775 98.875 80.775 257.64zm-125.34 2.0917q0-110.72-42.475-172-42.475-61.968-121.16-61.97-78.681 0-123.25 62.667-44.563 61.975-44.566 171.3 0 112.11 44.566 174.78 44.569 62.669 123.25 62.667 61.975 0 100.97-38.3 38.988-38.994 50.829-88.43 11.837-50.138 11.838-110.72z"/>
<path transform="translate(0 -5e-4)" d="m11996 1284.2h-139.27l-112.11-272.96h-186.62v272.96h-123.94v-696.33h319.6q68.244 0 119.77 29.246 50.138 28.55 78.683 76.592 29.244 48.05 29.246 106.54a203.29 203.29 0 0 1-29.942 107.24q-29.25 48.737-82.862 78.683zm-139.27-483.96q0-40.387-27.854-63.368-27.156-23.674-72.417-23.674h-198.45v172.69h198.45q45.262 0 72.417-23.675 27.856-23.676 27.854-61.975z"/>
<path transform="translate(0 -5e-4)" d="m2424 5096.1q0 169.2-81.362 272.88-81.357 102.96-217.44 102.96-148.32 0-226.8-111.6t-78.479-262.08q0-172.8 81.358-271.44 82.081-99.363 223.92-99.358 131.76 0 215.28 102.24 83.521 102.24 83.521 266.4zm-129.6 2.163q0-114.48-43.921-177.84-43.919-64.081-125.28-64.078-81.361 0-127.44 64.8-46.083 64.081-46.08 177.12 0 115.92 46.08 180.72 46.08 64.8 127.44 64.8 64.083 0 104.4-39.6 40.319-40.318 52.56-91.437 12.243-51.845 12.24-114.48z"/>
<path transform="translate(0 -5e-4)" d="m3065.7 4866.5h-207.36v593.29h-127.44v-593.29h-205.92v-126.72h540.71z"/>
<path transform="translate(0 -5e-4)" d="m3768.7 5459.8h-129.6v-315.35l-323.29 2.1581v313.2h-128.16v-720h128.16v278.64h323.29v-278.64h129.6z"/>
<path transform="translate(0 -5e-4)" d="m4493.2 5459.8h-537.84v-720h525.6v129.6h-394.55v133.2h214.56v131.76h-214.56v197.28h406.8z"/>
<path transform="translate(0 -5e-4)" d="m5218.3 5459.8h-144l-115.92-282.24h-192.96v282.24h-128.16v-720h330.49q70.561 0 123.84 30.238 51.839 29.519 81.359 79.2 30.243 49.682 30.241 110.16a210.16 210.16 0 0 1-30.962 110.88q-30.238 50.4-85.678 81.359zm-144-500.4q0-41.762-28.8-65.522-28.081-24.48-74.879-24.478h-205.2v178.56h205.2q46.8 0 74.879-24.48 28.8-24.48 28.8-64.078z"/>
<path transform="translate(0 -5e-4)" d="m6400.1 4739.8-267.12 720h-138.24l-265.68-720h138.24l197.28 524.89 197.28-524.89z"/>
<rect x="6522.2" y="4739.8" width="128.16" height="720"/>
<path transform="translate(0 -5e-4)" d="m7419.7 5096.1q0 169.2-81.358 272.88-81.363 102.96-217.44 102.96-148.32 0-226.8-111.6-78.475-111.6-78.479-262.08 0-172.8 81.362-271.44 82.075-99.363 223.92-99.358 131.76 0 215.28 102.24 83.518 102.24 83.517 266.4zm-129.6 2.163q0-114.48-43.917-177.84-43.925-64.081-125.28-64.078-81.357 0-127.44 64.8-46.079 64.081-46.079 177.12 0 115.92 46.079 180.72 46.082 64.8 127.44 64.8 64.082 0 104.4-39.6 40.325-40.318 52.562-91.437 12.239-51.845 12.238-114.48z"/>
<path transform="translate(0 -5e-4)" d="m8123.2 5459.8h-537.85v-720h128.16v609.11h409.69z"/>
<path transform="translate(0 -5e-4)" d="m8914.4 5459.8h-138.24l-70.562-169.2h-313.2l-71.279 169.2h-141.12l302.4-720h131.76zm-265.68-298.8-99.358-241.2-101.52 241.2z"/>
<path transform="translate(0 -5e-4)" d="m9513.4 4866.5h-207.36v593.29h-127.44v-593.29h-205.92v-126.72h540.71z"/>
<rect x="9635.2" y="4739.8" width="128.16" height="720"/>
<path transform="translate(0 -5e-4)" d="m10533 5096.1q0 169.2-81.358 272.88-81.362 102.96-217.44 102.96-148.32 0-226.8-111.6t-78.479-262.08q0-172.8 81.358-271.44 82.081-99.363 223.92-99.358 131.76 0 215.28 102.24 83.525 102.24 83.521 266.4zm-129.6 2.163q0-114.48-43.921-177.84-43.919-64.081-125.28-64.078-81.356 0-127.44 64.8-46.081 64.081-46.083 177.12 0 115.92 46.083 180.72 46.075 64.8 127.44 64.8 64.081 0 104.4-39.6 40.319-40.318 52.562-91.437 12.238-51.845 12.238-114.48z"/>
<path transform="translate(0 -5e-4)" d="m11279 5459.8h-110.88l-344.15-494.65v494.65h-126v-720h126l330.49 474.49v-474.49h124.56z"/>
<path transform="translate(0 -5e-4)" d="m12004 5250.3q0 108.73-100.8 168.48-79.2 48.236-181.44 48.236-178.56 0-298.8-138.24l103.68-81.364q76.325 91.445 192.24 91.442 67.681 0 112.32-26.642 44.638-27.355 44.638-66.958 0-43.2-46.079-65.521-51.838-20.882-85.679-28.079l-33.842-10.079-31.679-7.2-36-10.083q-100.8-23.757-141.84-71.28-44.644-48.237-44.642-120.96 0-88.563 68.4-144 69.119-56.163 178.56-56.162 160.56 0 267.84 111.6l-95.042 85.683q-66.238-70.564-172.8-69.842-54 0-84.958 19.442-30.963 18.718-30.958 53.279 0 30.957 23.038 46.8 23.762 15.837 90.721 30.958 126 25.92 199.44 61.2 48.238 24.482 75.6 72.721 28.075 48.238 28.079 106.56z"/>
</g>
</svg>
