<?xml version="1.0" encoding="UTF-8" standalone="no"?>
<!-- Created with Inkscape (http://www.inkscape.org/) -->

<svg
   xmlns:dc="http://purl.org/dc/elements/1.1/"
   xmlns:cc="http://creativecommons.org/ns#"
   xmlns:rdf="http://www.w3.org/1999/02/22-rdf-syntax-ns#"
   xmlns:svg="http://www.w3.org/2000/svg"
   xmlns="http://www.w3.org/2000/svg"
   xmlns:sodipodi="http://sodipodi.sourceforge.net/DTD/sodipodi-0.dtd"
   xmlns:inkscape="http://www.inkscape.org/namespaces/inkscape"
   width="60in"
   height="30in"
   viewBox="0 0 1524 762.00002"
   version="1.1"
   id="svg4184"
   inkscape:version="0.92.2 5c3e80d, 2017-08-06"
   sodipodi:docname="MUTCD-OH_R3-H8du.svg">
  <defs
     id="defs4178" />
  <sodipodi:namedview
     id="base"
     pagecolor="#ffffff"
     bordercolor="#666666"
     borderopacity="1.0"
     inkscape:pageopacity="0.0"
     inkscape:pageshadow="2"
     inkscape:zoom="0.12374369"
     inkscape:cx="3411.9478"
     inkscape:cy="1721.6244"
     inkscape:document-units="in"
     inkscape:current-layer="layer3"
     showgrid="false"
     units="in"
     inkscape:window-width="1440"
     inkscape:window-height="855"
     inkscape:window-x="0"
     inkscape:window-y="1"
     inkscape:window-maximized="1"
     inkscape:snap-bbox="false"
     inkscape:object-paths="false"
     inkscape:snap-midpoints="true" />
  <metadata
     id="metadata4181">
    <rdf:RDF>
      <cc:Work
         rdf:about="">
        <dc:format>image/svg+xml</dc:format>
        <dc:type
           rdf:resource="http://purl.org/dc/dcmitype/StillImage" />
        <dc:title></dc:title>
      </cc:Work>
    </rdf:RDF>
  </metadata>
  <g
     inkscape:label="Sign Back"
     inkscape:groupmode="layer"
     id="layer1"
     transform="translate(0,465.00002)"
     sodipodi:insensitive="true">
    <rect
       style="opacity:1;fill:#ffffff;fill-opacity:1;fill-rule:nonzero;stroke:#000000;stroke-width:1.8880136;stroke-linecap:round;stroke-linejoin:round;stroke-miterlimit:4;stroke-dasharray:none;stroke-opacity:1"
       id="rect2300"
       width="1522.1121"
       height="760.112"
       x="0.94395554"
       y="-464.056"
       rx="47.625"
       ry="47.625473" />
    <rect
       style="opacity:1;fill:#ffffff;fill-opacity:1;fill-rule:nonzero;stroke:#000000;stroke-width:19.05000114;stroke-linecap:round;stroke-linejoin:round;stroke-miterlimit:4;stroke-dasharray:none;stroke-opacity:1"
       id="rect2300-9"
       width="1479.55"
       height="717.54999"
       x="22.224854"
       y="-442.77499"
       rx="25.4"
       ry="25.4" />
    <rect
       y="-84.000031"
       x="497.332"
       height="349.25"
       width="19.050001"
       id="rect4833"
       style="opacity:1;fill:#000000;fill-opacity:1;fill-rule:nonzero;stroke:none;stroke-width:17.28671455;stroke-linecap:round;stroke-linejoin:miter;stroke-miterlimit:4;stroke-dasharray:none;stroke-opacity:1" />
    <rect
       style="opacity:1;fill:#000000;fill-opacity:1;fill-rule:nonzero;stroke:none;stroke-width:17.28671455;stroke-linecap:round;stroke-linejoin:miter;stroke-miterlimit:4;stroke-dasharray:none;stroke-opacity:1"
       id="rect851"
       width="19.050001"
       height="349.25"
       x="829.05603"
       y="-84.000031" />
    <rect
       y="-84.000031"
       x="1160.78"
       height="349.25"
       width="19.050001"
       id="rect864"
       style="opacity:1;fill:#000000;fill-opacity:1;fill-rule:nonzero;stroke:none;stroke-width:17.28671455;stroke-linecap:round;stroke-linejoin:miter;stroke-miterlimit:4;stroke-dasharray:none;stroke-opacity:1" />
  </g>
  <g
     inkscape:groupmode="layer"
     id="layer3"
     inkscape:label="Legends">
    <g
       aria-label="ONLY"
       style="font-style:normal;font-variant:normal;font-weight:normal;font-stretch:normal;font-size:171.95358276px;line-height:125%;font-family:'Roadgeek 2014 Series C';-inkscape-font-specification:'Roadgeek 2014 Series C';text-align:center;letter-spacing:0px;word-spacing:0px;text-anchor:middle;fill:#000000;fill-opacity:1;stroke:none;stroke-width:2.68677473px;stroke-linecap:butt;stroke-linejoin:miter;stroke-opacity:1"
       id="text868">
      <path
         d="m 593.87718,634.80346 q 0,21.9118 -5.60077,34.1942 -6.87815,16.80232 -23.09091,16.80232 -8.74507,0 -14.24759,-3.93036 -5.40425,-3.93037 -9.1381,-12.87196 -5.60078,-12.57717 -5.50252,-34.1942 0,-21.9118 5.50252,-34.19419 3.83211,-8.74507 9.33462,-12.57718 5.50252,-3.83211 14.05107,-3.83211 8.6468,0 13.9528,3.83211 5.40426,3.83211 9.13811,12.97021 5.60077,12.57718 5.60077,33.80116 z m -13.46151,0 q 0,-13.65802 -3.04603,-24.36827 -3.34082,-12.47892 -12.18414,-12.47892 -8.74507,0 -12.2824,12.08588 -3.24256,10.21895 -3.1443,25.15435 0,12.47892 3.1443,24.85958 3.34081,11.98762 12.2824,11.98762 8.74506,0 12.18414,-11.98762 3.04603,-10.1207 3.04603,-25.25262 z"
         style="text-align:center;text-anchor:middle;stroke-width:2.68677473px"
         id="path935" />
      <path
         d="m 668.71383,684.12958 h -10.61199 l -30.46035,-65.83366 v 65.83366 h -14.14932 v -98.25919 h 14.14932 l 26.92302,59.05377 v -59.05377 h 14.14932 z"
         style="text-align:center;text-anchor:middle;stroke-width:2.68677473px"
         id="path937" />
      <path
         d="m 740.41502,684.12958 h -50.01393 v -98.25919 h 14.14932 v 85.09246 h 35.86461 z"
         style="text-align:center;text-anchor:middle;stroke-width:2.68677473px"
         id="path939" />
      <path
         d="m 809.13889,585.87039 -24.46654,53.84603 v 44.41316 h -14.14932 v -44.41316 l -24.17176,-53.84603 h 14.83713 l 16.60581,35.47157 16.21276,-35.47157 z"
         style="text-align:center;text-anchor:middle;stroke-width:2.68677473px"
         id="path941" />
    </g>
    <g
       aria-label="ONLY"
       style="font-style:normal;font-variant:normal;font-weight:normal;font-stretch:normal;font-size:171.95358276px;line-height:125%;font-family:'Roadgeek 2014 Series C';-inkscape-font-specification:'Roadgeek 2014 Series C';text-align:center;letter-spacing:0px;word-spacing:0px;text-anchor:middle;fill:#000000;fill-opacity:1;stroke:none;stroke-width:2.68677473px;stroke-linecap:butt;stroke-linejoin:miter;stroke-opacity:1"
       id="text872">
      <path
         d="m 925.34715,634.80346 q 0,21.9118 -5.60077,34.1942 -6.87815,16.80232 -23.09091,16.80232 -8.74507,0 -14.24759,-3.93036 -5.40425,-3.93037 -9.1381,-12.87196 -5.60077,-12.57717 -5.50252,-34.1942 0,-21.9118 5.50252,-34.19419 3.83211,-8.74507 9.33462,-12.57718 5.50252,-3.83211 14.05107,-3.83211 8.64681,0 13.9528,3.83211 5.40426,3.83211 9.13811,12.97021 5.60077,12.57718 5.60077,33.80116 z m -13.46151,0 q 0,-13.65802 -3.04603,-24.36827 -3.34082,-12.47892 -12.18414,-12.47892 -8.74507,0 -12.2824,12.08588 -3.24256,10.21895 -3.1443,25.15435 0,12.47892 3.1443,24.85958 3.34081,11.98762 12.2824,11.98762 8.74506,0 12.18414,-11.98762 3.04603,-10.1207 3.04603,-25.25262 z"
         style="text-align:center;text-anchor:middle;stroke-width:2.68677473px"
         id="path926" />
      <path
         d="m 1000.1838,684.12958 h -10.61199 l -30.46035,-65.83366 v 65.83366 h -14.14932 v -98.25919 h 14.14932 l 26.92302,59.05377 v -59.05377 h 14.14932 z"
         style="text-align:center;text-anchor:middle;stroke-width:2.68677473px"
         id="path928" />
      <path
         d="m 1071.885,684.12958 h -50.0139 v -98.25919 h 14.1493 v 85.09246 h 35.8646 z"
         style="text-align:center;text-anchor:middle;stroke-width:2.68677473px"
         id="path930" />
      <path
         d="m 1140.6089,585.87039 -24.4666,53.84603 v 44.41316 h -14.1493 v -44.41316 l -24.1718,-53.84603 h 14.8372 l 16.6058,35.47157 16.2127,-35.47157 z"
         style="text-align:center;text-anchor:middle;stroke-width:2.68677473px"
         id="path932" />
    </g>
    <g
       aria-label="ONLY"
       style="font-style:normal;font-variant:normal;font-weight:normal;font-stretch:normal;font-size:171.95358276px;line-height:125%;font-family:'Roadgeek 2014 Series C';-inkscape-font-specification:'Roadgeek 2014 Series C';text-align:center;letter-spacing:0px;word-spacing:0px;text-anchor:middle;fill:#000000;fill-opacity:1;stroke:none;stroke-width:2.68677473px;stroke-linecap:butt;stroke-linejoin:miter;stroke-opacity:1"
       id="text876">
      <path
         d="m 1257.0711,634.80346 q 0,21.9118 -5.6007,34.1942 -6.8782,16.80232 -23.0909,16.80232 -8.7451,0 -14.2476,-3.93036 -5.4043,-3.93037 -9.1381,-12.87196 -5.6008,-12.57717 -5.5025,-34.1942 0,-21.9118 5.5025,-34.19419 3.8321,-8.74507 9.3346,-12.57718 5.5025,-3.83211 14.0511,-3.83211 8.6468,0 13.9528,3.83211 5.4042,3.83211 9.1381,12.97021 5.6007,12.57718 5.6007,33.80116 z m -13.4615,0 q 0,-13.65802 -3.046,-24.36827 -3.3408,-12.47892 -12.1841,-12.47892 -8.7451,0 -12.2824,12.08588 -3.2426,10.21895 -3.1443,25.15435 0,12.47892 3.1443,24.85958 3.3408,11.98762 12.2824,11.98762 8.745,0 12.1841,-11.98762 3.046,-10.1207 3.046,-25.25262 z"
         style="text-align:center;text-anchor:middle;stroke-width:2.68677473px"
         id="path917" />
      <path
         d="m 1331.9078,684.12958 h -10.612 l -30.4603,-65.83366 v 65.83366 h -14.1494 v -98.25919 h 14.1494 l 26.923,59.05377 v -59.05377 h 14.1493 z"
         style="text-align:center;text-anchor:middle;stroke-width:2.68677473px"
         id="path919" />
      <path
         d="m 1403.609,684.12958 h -50.0139 v -98.25919 h 14.1493 v 85.09246 h 35.8646 z"
         style="text-align:center;text-anchor:middle;stroke-width:2.68677473px"
         id="path921" />
      <path
         d="m 1472.3329,585.87039 -24.4666,53.84603 v 44.41316 h -14.1493 v -44.41316 l -24.1718,-53.84603 h 14.8372 l 16.6058,35.47157 16.2127,-35.47157 z"
         style="text-align:center;text-anchor:middle;stroke-width:2.68677473px"
         id="path923" />
    </g>
    <g
       id="g965"
       transform="matrix(-1,0,0,1,1133.4727,113.62123)">
      <rect
         y="65.90596"
         x="428.625"
         height="366.57281"
         width="63.5"
         id="rect961"
         style="opacity:1;fill:#000000;fill-opacity:1;fill-rule:nonzero;stroke:none;stroke-width:32.01993561;stroke-linecap:round;stroke-linejoin:miter;stroke-miterlimit:4;stroke-dasharray:none;stroke-opacity:1" />
      <path
         inkscape:connector-curvature="0"
         id="path963"
         transform="matrix(0.26458334,0,0,0.26458334,-420.49701,-113.62124)"
         d="m 3329.2793,228.48047 -315.5488,458.84961 v 0.004 a 47.999999,47.999999 0 0 0 -8.4551,27.19336 47.999999,47.999999 0 0 0 48,48 47.999999,47.999999 0 0 0 14.291,-2.23046 l 0.033,0.0449 261.6758,-81.81446 261.6777,81.81446 v -0.006 a 47.999999,47.999999 0 0 0 14.3184,2.1914 47.999999,47.999999 0 0 0 48,-48 47.999999,47.999999 0 0 0 -8.4824,-27.15234 l 0.033,-0.0449 z"
         style="opacity:1;fill:#000000;fill-opacity:1;fill-rule:nonzero;stroke:none;stroke-width:17.94890404;stroke-linecap:round;stroke-linejoin:round;stroke-miterlimit:4;stroke-dasharray:none;stroke-opacity:1" />
    </g>
    <g
       id="g1068"
       transform="translate(450.82463,274.50006)">
      <path
         style="opacity:1;fill:#000000;fill-opacity:1;fill-rule:nonzero;stroke:none;stroke-width:33.11999893;stroke-linecap:round;stroke-linejoin:round;stroke-miterlimit:4;stroke-dasharray:none;stroke-opacity:1"
         d="M 3390.9941,-4.4628906 3284.041,37.775391 A 672,672 0 0 0 2880,654.03906 v 372.48044 h 240 V 654.03906 A 432,432 0 0 1 3379.9453,258.3418 l -0.2012,-0.46485 106.9512,-42.24609 z"
         transform="scale(0.26458333)"
         id="path1064"
         inkscape:connector-curvature="0" />
      <path
         style="opacity:1;fill:#000000;fill-opacity:1;fill-rule:nonzero;stroke:none;stroke-width:17.94890404;stroke-linecap:round;stroke-linejoin:round;stroke-miterlimit:4;stroke-dasharray:none;stroke-opacity:1"
         d="m 3295.2891,-181.16797 a 48,48 0 0 0 -18.6524,3.98047 48,48 0 0 0 -24.8789,63.1582 48,48 0 0 0 7.7442,12.2168 l -0.027,0.0469 179.3711,207.3496 29.3145,272.59571 0.01,0.002 a 48,48 0 0 0 3.6992,14.00586 48,48 0 0 0 63.1582,24.87891 48,48 0 0 0 21.5195,-18.60547 l 0.055,0.0117 294.9668,-472.345707 -546.6191,-106.412113 v 0.006 a 48,48 0 0 0 -9.6543,-0.88867 z"
         transform="scale(0.26458333)"
         id="path1066"
         inkscape:connector-curvature="0" />
    </g>
    <g
       transform="matrix(-1,0,0,1,1463.6727,113.62123)"
       id="g861">
      <rect
         style="opacity:1;fill:#000000;fill-opacity:1;fill-rule:nonzero;stroke:none;stroke-width:32.01993561;stroke-linecap:round;stroke-linejoin:miter;stroke-miterlimit:4;stroke-dasharray:none;stroke-opacity:1"
         id="rect857"
         width="63.5"
         height="366.57281"
         x="428.625"
         y="65.90596" />
      <path
         style="opacity:1;fill:#000000;fill-opacity:1;fill-rule:nonzero;stroke:none;stroke-width:17.94890404;stroke-linecap:round;stroke-linejoin:round;stroke-miterlimit:4;stroke-dasharray:none;stroke-opacity:1"
         d="m 3329.2793,228.48047 -315.5488,458.84961 v 0.004 a 47.999999,47.999999 0 0 0 -8.4551,27.19336 47.999999,47.999999 0 0 0 48,48 47.999999,47.999999 0 0 0 14.291,-2.23046 l 0.033,0.0449 261.6758,-81.81446 261.6777,81.81446 v -0.006 a 47.999999,47.999999 0 0 0 14.3184,2.1914 47.999999,47.999999 0 0 0 48,-48 47.999999,47.999999 0 0 0 -8.4824,-27.15234 l 0.033,-0.0449 z"
         transform="matrix(0.26458334,0,0,0.26458334,-420.49701,-113.62124)"
         id="path859"
         inkscape:connector-curvature="0" />
    </g>
    <g
       transform="matrix(-0.714286,0,0,0.714286,553.0308,56.242636)"
       id="g829">
      <rect
         transform="scale(-1,1)"
         y="336.54999"
         x="-190.50003"
         height="482.60001"
         width="88.900002"
         id="rect5407"
         style="opacity:1;fill:#000000;fill-opacity:1;fill-rule:nonzero;stroke:none;stroke-width:9.06630707;stroke-linecap:round;stroke-linejoin:round;stroke-miterlimit:4;stroke-dasharray:none;stroke-opacity:1" />
      <path
         sodipodi:nodetypes="scccsccs"
         inkscape:connector-curvature="0"
         id="path5409"
         d="m 279.40003,158.74998 c 98.19623,0 177.80001,79.60378 177.8,177.80001 h -44.45 -44.45 c 0,-49.09811 -39.80189,-88.9 -88.9,-88.9 -49.09811,0 -88.9,39.80189 -88.9,88.9 h -88.9 c -1e-5,-98.19623 79.60377,-177.80001 177.8,-177.80001 z"
         style="opacity:1;fill:#000000;fill-opacity:1;fill-rule:nonzero;stroke:none;stroke-width:22.08163452;stroke-linecap:round;stroke-linejoin:round;stroke-miterlimit:4;stroke-dasharray:none;stroke-opacity:1" />
      <path
         inkscape:connector-curvature="0"
         id="rect5200-7"
         d="m 293.67448,442.89999 a 17.4752,17.4752 0 0 1 17.47541,-17.47541 17.4752,17.4752 0 0 1 5.33406,0.85627 l 0.0135,-0.0175 96.25253,30.93712 96.25253,-30.93712 0.005,0.007 a 17.4752,17.4752 0 0 1 5.34231,-0.84593 17.4752,17.4752 0 0 1 17.47541,17.47541 17.4752,17.4752 0 0 1 -3.02202,9.79371 l 0.0103,0.0135 -116.06366,171.16776 -116.02288,-171.10789 -0.0408,-0.06 0.003,-0.003 a 17.4752,17.4752 0 0 1 -3.01435,-9.80397 z"
         style="opacity:1;fill:#000000;fill-opacity:1;fill-rule:nonzero;stroke:none;stroke-width:8.76299953;stroke-linecap:round;stroke-linejoin:round;stroke-miterlimit:4;stroke-dasharray:none;stroke-opacity:1" />
      <rect
         transform="matrix(0,1,1,0,0,0)"
         y="368.30002"
         x="336.54999"
         height="88.899956"
         width="120.65049"
         id="rect5207-9"
         style="opacity:1;fill:#000000;fill-opacity:1;fill-rule:nonzero;stroke:none;stroke-width:10.20860386;stroke-linecap:round;stroke-linejoin:round;stroke-miterlimit:4;stroke-dasharray:none;stroke-opacity:1" />
      <path
         style="opacity:1;fill:#000000;fill-opacity:1;fill-rule:nonzero;stroke:none;stroke-width:8.76299953;stroke-linecap:round;stroke-linejoin:round;stroke-miterlimit:4;stroke-dasharray:none;stroke-opacity:1"
         d="m 517.52523,322.27519 a 17.4752,17.4752 0 0 1 -17.47541,-17.47541 17.4752,17.4752 0 0 1 0.85627,-5.33406 l -0.0175,-0.0135 30.93712,-96.25253 -30.93712,-96.25253 0.007,-0.005 a 17.4752,17.4752 0 0 1 -0.84593,-5.34231 17.4752,17.4752 0 0 1 17.47541,-17.475401 17.4752,17.4752 0 0 1 9.79371,3.022015 l 0.0135,-0.0103 171.16776,116.063656 -171.10789,116.02288 -0.06,0.0408 -0.003,-0.003 a 17.4752,17.4752 0 0 1 -9.80397,3.01435 z"
         id="path5508"
         inkscape:connector-curvature="0" />
      <rect
         style="opacity:1;fill:#000000;fill-opacity:1;fill-rule:nonzero;stroke:none;stroke-width:14.92106915;stroke-linecap:round;stroke-linejoin:round;stroke-miterlimit:4;stroke-dasharray:none;stroke-opacity:1"
         id="rect5510"
         width="257.74838"
         height="88.900024"
         x="279.40002"
         y="-247.64999"
         transform="scale(1,-1)" />
    </g>
  </g>
</svg>
