<?xml version="1.0" encoding="UTF-8"?>
<svg width="3240" height="4320" viewBox="0 0 2592 3456" xmlns="http://www.w3.org/2000/svg">
<defs>
<style>.a{fill:#fff;}</style>
</defs>
<rect class="a" x="2.25" y="2.2502" width="2587.5" height="3451.5" rx="159.75"/>
<path transform="translate(0 2e-4)" d="m2430 4.5a157.5 157.5 0 0 1 157.5 157.5v3132a157.5 157.5 0 0 1-157.5 157.5h-2268a157.5 157.5 0 0 1-157.5-157.5v-3132a157.5 157.5 0 0 1 157.5-157.5h2268m0-4.5h-2268a162 162 0 0 0-162 162v3132a162 162 0 0 0 162 162h2268a162 162 0 0 0 162-162v-3132a162 162 0 0 0-162-162z"/>
<path transform="translate(0 2e-4)" d="m2430 45h-2268a117.14 117.14 0 0 0-117 117v3132a117.14 117.14 0 0 0 117 117h2268a117.14 117.14 0 0 0 117-117v-3132a117.14 117.14 0 0 0-117-117zm54 3249a54.056 54.056 0 0 1-54 54h-2268a54.056 54.056 0 0 1-54-54v-891h2376zm-2376-954v-2178a54.056 54.056 0 0 1 54-54h2268a54.056 54.056 0 0 1 54 54v2178z"/>
<path transform="translate(0 2e-4)" d="m965.29 458.84v297.11h-76.087v-432.01h76.033l199.53 285.02v-285.02h74.575v432.01h-67.015zm374.41 80.354c0-137.92 69.877-222.75 183.82-222.75 107.57 0 179.28 88.777 179.28 221.3 0 134.84-69.337 225.78-179.28 225.78-127.6-3e-4 -183.82-115.89-183.82-224.32zm79.003 0c0 92.449 39.475 146.99 104.82 146.99 82.027 0 101.79-80.354 101.79-146.99 0-91.748-37.639-145.53-101.79-145.53-65.341 0-104.82 54.595-104.82 145.53z"/>
<path transform="translate(0 2e-4)" d="m754.98 1440h-68.527v-371.36h-98.929v-60.643h267.95v60.643h-100.5zm168.52-154.6v-277.4h68.149v277.4c0 56.107 31.861 92.45 78.841 92.45s78.841-36.343 78.841-92.45v-277.4h68.257v277.4c0 136.62-104.82 162.16-147.04 162.16-38.449-3e-4 -147.04-22.626-147.04-162.16zm462.69-33.426v188.03h-68.148v-432.01h156.28c99.038 0 128.74 79.219 128.74 121.34 0 16.039-5.94 79.219-67.069 108.16l76.142 202.5h-74.306l-69.715-188.03zm85.808-69.661c54.217 0 62.749-39.097 62.749-53.029 0-18.847-14.094-53.083-59.455-53.083h-89.102v106.11zm306.55-34.831v292.52h-68.149v-432.01h68.149l157.68 275.89v-275.89h68.257v432.01h-60.644z"/>
<path transform="translate(0 2e-4)" d="m558.73 1907.9c0 15.498 3.2939 223.56-153.47 223.56s-153.47-208.07-153.47-223.56-3.294-223.51 153.47-223.51 153.47 208.01 153.47 223.51zm-152.71 153.9c46.549 0 84.349-44.118 84.349-153.9s-37.8-153.9-84.349-153.9-84.35 44.064-84.35 153.9c4e-4 109.78 37.801 153.9 84.35 153.9zm300.26-230.42v292.52h-68.149v-432.01h68.149l157.68 275.89v-275.89h68.257v432.01h-60.643zm692.36 104.49v188.03h-68.149v-432.01h156.28c99.038 0 128.74 79.219 128.74 121.34 0 16.038-5.9394 79.219-67.069 108.16l76.142 202.5h-74.305l-69.716-188.03zm85.808-69.661c54.217 0 62.749-39.097 62.749-53.028 0-18.847-14.095-53.083-59.455-53.083h-89.102v106.11zm205.12-174.31h254.34v68.203h-186.2v106.11h125.66v69.715h-125.66v118.26h199.8v69.716h-267.95zm356.35 432.01v-432.01h155.85c109.03 0 138.24 143.59 138.24 206.28 0 162.06-83.323 225.72-137.97 225.72zm145.48-363.8h-77.329v294.03h72.524c62.856 0 83.485-76.141 83.485-157.47-4e-4 -38.664-11.017-136.57-78.68-136.57z"/>
<path transform="translate(0 2e-4)" d="m756.3 2736.6c22.317 0 40.567-20.23 40.567-43.482-0.0361-61.336-107.52-61.192-107.52-139.48 0-41.432 32.468-74.726 74.042-74.726 40.603 0 72.063 31.279 73.071 74.762h-39.631c-1.0078-20.193-15.226-33.331-33.476-33.331-19.294 0-34.484 14.11-34.484 33.296 0 17.242 10.834 24.117 24.261 32.539 38.947 23.506 83.294 51.87 83.294 106.98 0 46.615-35.528 83.87-80.162 83.87-50.718 0-81.134-42.907-81.134-89.989h40.639c0 24.514 12.131 49.566 40.531 49.566zm134.55-48.378v-204.27h41.323v207.12c0 27.104 15.838 45.498 40.315 45.498 22.173 0 38.335-18.178 38.335-45.498v-207.12h41.359v204.89c0 65.512-50.61 88.117-79.694 88.117-26.601-2e-4 -81.638-17.314-81.638-88.73zm278.65-109.28v192.97h-41.323v-287.96h41.323l78.65 172.78v-172.78h41.359v287.96h-31.244zm190.6 192.97v-287.96h82.178c17.565 0 79.154 0.8633 79.154 143.48 0 130.48-56.873 144.49-75.734 144.49zm73.61-247.54h-32.287v207.12h28.724c33.692 0 50.934-14.723 50.934-102.05 0-101.18-25.232-105.07-47.37-105.07zm253.88 168.75h-61.769l-19.257 78.794h-41.539l71.919-287.96h40.567l71.883 287.96h-41.539zm-51.653-40.424h41.539l-21.273-82.861zm209.02 119.22h-41.539v-130.34l-70.911-157.62h43.555l48.63 104.06 47.622-104.06h44.562l-71.919 157.62z"/>
<path transform="translate(0 2e-4)" d="m619.5 3240c0-69.003 20.661-169.29 73.034-247.54h-108.56v-40.423h161.33v40.423c-60.616 68.788-85.237 176.77-85.237 247.54zm261.36-78.794h-61.769l-19.258 78.794h-41.539l71.92-287.96h40.566l71.883 287.96h-41.539zm-51.654-40.423h41.539l-21.273-82.861zm275.54-42.438-53.633 161.66-53.634-161.66v161.66h-41.466v-287.96h41.466l53.634 161.66 53.633-161.66h41.467v287.96h-41.466zm92.627-7.5609h159.31v38.407h-159.31zm233.07-67.202h-18.43v-31.352c16.414-1.0078 26.637-8.0625 32.792-20.193h27.681v287.96h-42.043zm87.486 0h-18.43v-31.352c16.414-1.0078 26.637-8.0625 32.792-20.193h27.681v287.96h-42.043zm226.54 157.62h-61.768l-19.258 78.794h-41.539l71.92-287.96h40.566l71.883 287.96h-41.539zm-51.654-40.423h41.539l-21.274-82.861zm273.74-42.438-53.633 161.66-53.634-161.66v161.66h-41.467v-287.96h41.467l53.634 161.66 53.633-161.66h41.467v287.96h-41.467z"/>
</svg>
