<?xml version="1.0" encoding="UTF-8"?>
<svg width="4320" height="3240" viewBox="0 0 3456 2592" xmlns="http://www.w3.org/2000/svg">
<defs>
<style>.a{fill:#dd7500;}.b{fill-rule:evenodd;}</style>
</defs>
<rect class="a" width="3456" height="2592" rx="162"/>
<path class="b" d="m3294 45h-3132a117.14 117.14 0 0 0-117 117v2268a117.14 117.14 0 0 0 117 117h3132a117.14 117.14 0 0 0 117-117v-2268a117.14 117.14 0 0 0-117-117zm54 2385a54.056 54.056 0 0 1-54 54h-3132a54.056 54.056 0 0 1-54-54v-2268a54.056 54.056 0 0 1 54-54h3132a54.056 54.056 0 0 1 54 54z"/>
<polyline class="b" points="547.98 1188 597.98 1188 653.98 958 710 1188 761.96 1188 813.98 827.99 756.02 827.99 727.98 1018 681.96 827.99 626.02 827.99 580 1018 551.96 827.99 493.98 827.99 547.98 1188"/>
<rect x="856.02" y="827.99" width="57.959" height="360.01"/>
<polyline class="b" points="1202 1188 1202 1136 1034 1136 1034 827.99 977.98 827.99 977.98 1188 1202 1188"/>
<polyline class="b" points="1464 1188 1464 1136 1298 1136 1298 827.99 1242 827.99 1242 1188 1464 1188"/>
<path class="b" d="m1870 1188c31.96 0 57.979-7.98 77.979-26.02 22.02-17.98 32.02-41.96 32.02-73.981 0-20-6.02-37.98-16.02-51.961-10-16.02-26-28.041-43.98-36.02 33.98-16.021 50-42.021 50-80.002 0-26.02-10-48.04-28.04-66.021-20-16-41.96-26-70-26h-137.98v360.01h136.02m-80-156.02h80c16.02 0 27.98 6.02 37.98 18.04 10 11.96 13.98 26.02 13.98 40.001 0 11.96-3.98 21.96-11.96 27.98-6.02 8.04-16.02 12.02-28.04 12.02h-91.96v-98.041m0-145.94h83.979c26.02 0 40 11.96 40 35.94 0 14.06-3.98 26.02-13.98 38.041-10 10-22.02 13.98-36.02 13.98h-73.98v-87.961"/>
<polyline class="b" points="2248 1188 2248 1130 2080 1130 2080 1032 2186 1032 2186 974 2080 974 2080 886.03 2238 886.03 2238 827.99 2026 827.99 2026 1188 2248 1188"/>
<path class="b" d="m2411.9 1010v56.021h66.019v7.96c0 7.9805-1.96 17.981-4 26.02a168.04 168.04 0 0 1-12.02 20.001c-5.94 6.02-11.96 9.9995-20 13.98-7.98 4-15.94 4-25.94 4-22.04 0-40-10-52.04-31.961-10-22.04-16-54.06-16-96.021 0-32.02 3.98-60.001 12.02-82.021 11.96-31.96 31.96-47.98 57.98-47.98 30 0 50 16.02 62.02 43.98l53.98-22.02c-17.96-53.981-56-80.001-112.02-80.001-47.98 0-81.96 22.021-105.94 62.021-18.04 34.001-26.02 76.022-26.02 127.98 0 48.041 7.98 90.001 26.02 122.02 21.96 40.001 55.94 60.001 100 60.001 35.94 0 63.979-10.001 85.939-30 20-20 32.02-47.961 32.02-83.981v-70.002h-122.02"/>
<rect x="2594" y="827.99" width="56.02" height="360.01"/>
<polyline class="b" points="2771.9 1188 2771.9 946.04 2910 1188 2960 1188 2960 827.99 2904 827.99 2904 1058 2771.9 827.99 2716 827.99 2716 1188 2771.9 1188"/>
<path class="b" d="m493.98 1660c0 30 7.98 56.021 26.02 77.981 19.999 22.02 43.979 32.021 73.979 32.021s54-10.001 74-32.021c18.04-20 26-46.021 26-76.021 0-27.981-10.001-53.981-32.02-75.942-5.94-8.04-13.98-14.06-25.94-24.06-12.04-7.98-26.019-17.981-42.04-27.98-3.98-2.02-7.9595-3.98-12.02-7.961-3.98-4.06-10-8.04-15.94-12.04-4.0606-6-8.04-13.98-8.04-22.02 0-11.96 6-21.96 13.98-30q12.06-11.971 30-11.96 21.09 0 30 11.96c6.02 6.02 10 16.02 14.06 30h47.96c-2.02-27.98-10.001-50.001-26-67.981-17.98-16-40-26-67.98-26-23.98 0-46.02 10-63.979 28.041-18.04 17.96-26.02 40-26.02 65.941 0 24.06 7.98 44.061 26.02 64.06 7.96 5.9407 27.959 20.001 57.959 40.001 4 3.98 6.02 3.98 10.001 7.96 4 2.04 7.98 6.02 12.04 10.001 1.96 0 3.98 2.0392 5.9393 4 2.02 2.02 4.0606 3.98 8.04 8.04 10.001 10 16.02 23.98 16.02 35.94 0 16.02-6.02 28.041-14.06 40.001-10.001 12.02-21.96 18.04-37.98 18.04-16 0-27.959-6.02-37.959-20.001-10.001-12.02-14.06-26.02-14.06-42.02h-47.98v2.02"/>
<polyline class="b" points="836.02 1764 836.02 1452 901.96 1452 901.96 1404 720 1404 720 1452 783.98 1452 783.98 1764 836.02 1764"/>
<path class="b" d="m1148 1584c0-62.021-9.9993-107.96-26.019-140-17.98-30-43.98-46.001-80-46.001-35.94 0-61.96 16.001-79.999 46.001-17.98 32.04-25.94 77.981-25.94 140 0 62.04 7.96 107.98 25.94 140 16.02 30 42.019 46.021 78.039 46.021s61.96-16.021 80-46.021c17.98-32.02 27.979-77.961 27.979-140m-49.999 0c0 46.021-4 80.001-14 102.04-10 21.96-23.98 33.981-42.02 33.981-37.98 0-55.939-48.041-55.939-143.98 0-32.041 1.96-58.041 7.96-78.041 9.9993-31.961 26.019-50.001 47.979-50.001q33.03 0 48.04 53.981c6.02 22.021 7.98 50.001 7.98 82.022"/>
<path class="b" d="m1202 1404v360.01h50v-156h60c30 0 52.019-10 68.039-30 16.02-17.98 21.96-41.96 21.96-71.961q0-42.061-23.98-72.041c-16.02-20-40-30-66.02-30h-110m50 154v-101.96h54.06c13.98 0 25.94 3.9795 33.98 13.98 7.98 10 11.96 21.96 11.96 37.98 0 13.98-3.98 26.001-11.96 33.981-8.04 10-18.04 16.02-32.02 16.02h-56.02"/>
<rect x="1436" y="1560" width="125.94" height="47.96"/>
<path class="b" d="m1630 1764 23.98-97.962h76.019l26.02 97.962h51.96l-90-360.01h-50l-90 360.01h52.02m61.96-252.02 26.02 104.06h-51.96l25.94-104.06"/>
<polyline class="b" points="1898 1764 1898 1524 2008 1764 2048 1764 2048 1404 1996 1404 1996 1620 1896 1404 1846 1404 1846 1764 1898 1764"/>
<path class="b" d="m2210 1764c36.02 0 61.96-20 80-60.001q17.94-45.001 17.98-107.96c0-102.04-20-162.04-61.96-184.06a112.35 112.35 0 0 0-42.04-7.98h-97.959v360.01h103.98m-52.02-307.96h42.02c26.02 0 43.98 15.94 51.959 50.001 4.06 15.94 6.02 43.98 6.02 80.001v17.96c0 6.02-1.96 14-1.96 22.041 0 13.98-2.04 23.98-4.06 33.981a208.78 208.78 0 0 1-5.94 23.98c-8.04 20-22.04 30-44.06 30h-43.98v-257.96"/>
<rect x="2340" y="1560" width="126.02" height="47.96"/>
<path class="b" d="m2608 1590v50h40v11.961c0 22.021-1.9605 38.041-6.02 46.021-5.94 16.001-17.98 23.98-35.94 23.98-18.04 0-32.04-11.96-42.04-33.981-10-24.001-16-57.981-16-104 0-17.96 2.02-33.981 2.02-47.961 1.96-14.06 3.98-26.02 6.02-34.061 7.96-35.941 25.94-51.961 50-51.961 21.96 0 35.94 11.96 41.96 40h52.019c-3.98-28.04-12.02-50-28.04-66.021-17.98-17.96-40-26-65.94-26-20 0-38.04 6.0005-56.02 18.04-33.98 25.94-50 77.962-50 160 0 53.981 3.98 95.942 16.02 125.94 17.96 46.021 47.96 70.001 93.979 70.001 23.98 0 41.96-7.98 57.98-21.96q20.97-18.031 30-53.981c0-4.06 2.02-14.06 2.02-24.06v-81.961h-92.019"/>
<path class="b" d="m2961.9 1584c0-62.021-7.98-107.96-25.94-140-18.04-30-44.06-46.001-80-46.001-36.02 0-62.039 16.001-80 46.001-18.04 32.04-26.02 77.981-26.02 140 0 62.04 7.98 107.98 26.02 140 17.96 30 43.98 46.021 77.96 46.021 36.02 0 64-16.021 82.04-46.021 15.94-32.02 25.94-77.961 25.94-140m-49.999 0c0 46.021-3.98 80.001-13.98 102.04-7.98 21.96-21.96 33.981-41.96 33.981-38.04 0-56.02-48.041-56.02-143.98 0-32.041 1.96-58.041 7.98-78.041 10-31.961 26-50.001 48.04-50.001q32.94 0 47.96 53.981c6.02 22.021 7.98 50.001 7.98 82.022"/>
<polyline class="b" points="427.98 611.97 427.98 370.01 566.02 611.97 616.02 611.97 616.02 251.96 560 251.96 560 481.97 427.98 251.96 371.96 251.96 371.96 611.97 427.98 611.97"/>
<polyline class="b" points="903.98 611.97 903.98 553.99 736.02 553.99 736.02 456.03 841.96 456.03 841.96 397.99 736.02 397.99 736.02 310 893.98 310 893.98 251.96 681.96 251.96 681.96 611.97 903.98 611.97"/>
<polyline class="b" points="979.99 611.97 1030 611.97 1086 381.97 1142 611.97 1194 611.97 1246 251.96 1188 251.96 1160 441.97 1114 251.96 1058 251.96 1012 441.97 983.97 251.96 926.02 251.96 979.99 611.97"/>
<path class="b" d="m1516 527.99c11.96 28.041 27.96 50.001 51.959 66.001 23.98 16.021 50 24.001 80 24.001 33.98 0 60-10 82.02-30 20-20 31.96-47.98 31.96-81.961 0-40.001-15.94-68.041-45.94-88.042-6.02-4-34.06-16.02-84.059-34.001-30-10-45.94-26-45.94-43.98 0-12.02 5.94-22.021 17.96-28.041 7.98-5.94 20-10 32.04-10 30 0 49.999 12.02 60 32.021l49.999-13.982c-18.04-50.001-54.059-73.981-106.02-73.981-32.02 0-58.04 7.96-78.04 21.96-21.959 16-31.96 40.001-31.96 72.021 0 36.02 16.02 61.961 43.98 80.001l83.999 33.981c30 12.04 43.98 30 43.98 54 0 8.04 0 16-3.98 22.02a31.333 31.333 0 0 1-11.96 16.021c-4.06 5.94-10 7.96-18.04 10-6.02 3.98-14 3.98-24 3.98-16 0-30-3.98-43.98-13.98s-23.98-22.041-30-38.041l-53.98 20"/>
<rect x="1808" y="251.96" width="56.02" height="360.01"/>
<path class="b" d="m2046 433.99v56.021h65.94v7.98c0 8.04 0 18.04-3.98 26-1.96 7.9805-6.02 14-11.96 20.001-4.06 6.02-12.04 10-18.04 14-7.98 3.98-17.98 3.98-26.02 3.98-23.98 0-40-10-51.96-31.961q-18.03-33.03-18.04-96.021c0-32.02 4.06-60.001 14.06-82.021 10-31.961 30-47.98 57.959-47.98 30 0 50 16.02 60 44l54-21.96c-17.98-54.061-56.02-80.001-111.96-80.001-46.02 0-82.04 21.96-104.06 61.961-17.98 33.981-27.98 76.001-27.98 128.04 0 47.961 10 90.001 26.02 121.96q32.94 60.001 101.96 60.001 51.09 0 84.059-30c21.96-20 31.96-47.98 31.96-84.002v-70.002h-121.96"/>
<polyline class="b" points="2284 611.97 2284 370.01 2421.9 611.97 2474 611.97 2474 251.96 2416 251.96 2416 481.97 2284 251.96 2228 251.96 2228 611.97 2284 611.97"/>
<path class="b" d="m2574 611.97 36.02-100h113.98l34 100h62.02l-123.98-360.01h-58.04l-124 360.01h60m93.999-257.98 33.98 100h-71.96l37.98-100"/>
<polyline class="b" points="3084 611.97 3084 560.01 2916 560.01 2916 251.96 2860 251.96 2860 611.97 3084 611.97"/>
<polyline class="b" points="606.02 2340 606.02 2138 671.96 2340 737.98 2138 737.98 2340 791.96 2340 791.96 1980 737.98 1980 671.96 2182 603.98 1980 553.98 1980 553.98 2340 606.02 2340"/>
<path class="b" d="m1058 2160c0-62.021-9.9994-108.04-26.02-140-17.98-30-43.98-46.021-80-46.021-35.939 0-61.96 16.02-79.999 46.021-17.98 31.96-25.94 77.981-25.94 140 0 61.961 7.96 107.98 25.94 140 16.02 30 42.019 46.021 78.039 46.021s61.96-16.021 80-46.021c17.98-32.02 27.979-78.041 27.979-140m-49.999 0c0 46.021-4 80.001-14 101.96-10 22.021-23.98 34.061-42.021 34.061-37.98 0-55.939-48.041-55.939-144.06 0-31.961 1.96-57.981 7.96-77.981 9.9994-32.021 26.019-50.001 47.979-50.001q33.03 0 48.04 54.001c6.02 22.021 7.98 50.001 7.98 82.022"/>
<polyline class="b" points="1162 2340 1162 2100 1274 2340 1314 2340 1314 1980 1262 1980 1262 2196.1 1162 1980 1112 1980 1112 2340 1162 2340"/>
<path class="b" d="m1634 2340 26.02-98.042h76.019l25.94 98.042h52.02l-90-360.01h-49.999l-90 360.01h50m62.04-252.02 27.959 103.98h-52.019l24.06-103.98"/>
<path class="b" d="m1852 2240c0 30 10 53.981 30 76.022q27.06 30 72.02 30c27.98 0 52.04-10.001 69.999-32.04 20-22.021 27.98-46.001 27.98-73.982v-260h-50v257.98c0 16.001-3.98 30-13.98 40.001-7.98 12.02-20 18.04-37.98 18.04-13.98 0-26.02-6.02-36.02-18.04-7.96-10-12.02-24-12.02-40.001v-257.98h-50v260"/>
<path class="b" d="m2216 2166.1v50h40v11.961c0 22.021-2.04 38.041-6.02 46.001q-9.03 24.03-36.02 24c-17.96 0-33.98-11.96-43.98-34.001-8.04-23.98-13.98-57.96-13.98-103.98 0-18.04 1.96-33.981 1.96-48.041 2.02-13.98 3.98-25.94 6-33.981 7.98-36.02 24-51.961 50-51.961 22.04 0 36.02 11.96 42.04 40h51.96c-4-28.04-11.96-50-27.98-66.021-18.04-18.04-40-26.02-66.02-26.02-20 0-37.96 6.02-56 17.98-34 26.02-51.96 78.041-51.96 160q0 81.091 17.96 126.02c17.98 46 47.98 70.001 93.999 70.001a87.298 87.298 0 0 0 58.04-21.96c13.98-12.04 23.98-30 27.96-54.061 2.04-3.98 2.04-13.98 4-23.98v-81.961h-91.96"/>
<path class="b" d="m2654 2340v-360.01h-33.98c-8.04 16.02-22.02 26.02-42.02 26.02v40.001h23.98v293.98h52.02"/>
<path class="b" d="m2776 2340c37.96-28.041 67.96-62.021 89.999-103.98q35.97-66.091 35.94-132.04c0-37.961-7.98-67.962-21.96-90.001-16.02-26.001-43.98-40.001-80-40.001-32.019 0-56.02 12.04-73.979 34-18.04 20-26.02 48.041-26.02 80.001 0 33.981 7.98 62.021 26.02 82.022 17.96 20 43.98 31.96 77.959 31.96 2.04 0 6.02-1.96 10-1.96h10c-17.96 41.96-42.02 73.981-76 100l28.04 40.001m75.94-250c0 16.021-3.98 31.961-11.96 41.961-10 12.02-22.02 18.04-40 18.04-16.02 0-28.04-6.02-38.04-18.04-7.98-10-10-23.98-10-40.001 0-17.98 2.02-33.981 10-43.981 8.04-14 20-21.96 36.02-21.96 18.04 0 32.02 5.94 40 20 10 11.96 13.98 25.94 13.98 43.98"/>
</svg>
