<?xml version="1.0" encoding="UTF-8"?>
<svg width="12960" height="4320" viewBox="0 0 10368 3456" xmlns="http://www.w3.org/2000/svg">
<defs>
<style>.a{fill:#fcd116;}</style>
</defs>
<rect class="a" width="10368" height="3456" rx="432"/>
<path d="m10203 164.71a375.56 375.56 0 0 0-267.29-110.71h-9504a377.99 377.99 0 0 0-378 378v2592a377.99 377.99 0 0 0 378 378h9504a377.99 377.99 0 0 0 378-378v-2592a375.55 375.55 0 0 0-110.71-267.29zm20.71 2859.3a287.99 287.99 0 0 1-288 288h-9504a287.99 287.99 0 0 1-288-288v-2592a287.99 287.99 0 0 1 288-288h9504a287.99 287.99 0 0 1 288 288z"/>
<path d="m1186.4 1102.5c101.88-48.23 111.78-153.53 111.78-180.26 0-70.2-49.5-202.22-214.55-202.22h-260.45v719.97h113.57v-313.37h136.53l116.18 313.37h123.84zm-106.64-91.97h-143.01v-176.85h148.5c75.59 0 99.08 57.06 99.08 88.47 0 23.22-14.22 88.38-104.57 88.38z"/>
<rect x="1446.6" y="719.98" width="115.2" height="719.97"/>
<path d="m1992 707.47c115.38 0 180.35 43.738 229.13 159.11l-108.63 42.839c-30.329-63.178-60.567-85.856-116.19-85.856-158.21 0-149.12 240.83-149.12 257.66 0 27.089-6.12 255.14 133.91 255.14 73.257 0 126.35-45.448 126.35-111.15v-30.239h-131.39v-113.76h244.97v143.99c0 131.3-95.936 227.33-227.42 227.33-26.099 0-262.61 21.509-262.61-372.58 0-55.168 3.0598-372.49 260.99-372.49z"/>
<polygon points="2766.8 1126.7 2503.9 1126.7 2503.9 1440 2390.3 1440 2390.3 719.98 2503.9 719.98 2503.9 1010.5 2766.7 1010.5 2766.7 719.98 2880.5 719.98 2880.5 1440 2766.8 1440"/>
<polygon points="3278.4 1440 3164.2 1440 3164.2 821.04 2999.3 821.04 2999.3 719.98 3445.9 719.98 3445.9 821.04 3278.4 821.04"/>
<polygon points="4165.9 719.98 4279.5 719.98 4279.5 1333.8 4612.4 1333.8 4612.4 1440 4165.9 1440"/>
<path d="m5060.5 719.98h-114.39l-249.02 719.97h121.95l71.19-202.13h226.07l71.18 202.13h121.95zm-129.6 401.65 73.62-202.04 71.19 202.04z"/>
<polygon points="5511.3 952.44 5511.3 1440 5397.7 1440 5397.7 719.98 5511.3 719.98 5774 1179.8 5774 719.98 5887.8 719.98 5887.8 1440 5786.7 1440"/>
<polygon points="6027.2 719.98 6451.1 719.98 6451.1 833.64 6140.8 833.64 6140.8 1010.5 6350.2 1010.5 6350.2 1126.7 6140.8 1126.7 6140.8 1323.8 6473.8 1323.8 6473.8 1440 6027.2 1440"/>
<polygon points="7193.8 719.98 7617.7 719.98 7617.7 833.64 7307.4 833.64 7307.4 1010.5 7516.8 1010.5 7516.8 1126.7 7307.4 1126.7 7307.4 1323.8 7640.4 1323.8 7640.4 1440 7193.8 1440"/>
<polygon points="7887.2 952.44 7887.2 1440 7773.6 1440 7773.6 719.98 7887.2 719.98 8150 1179.8 8150 719.98 8263.7 719.98 8263.7 1440 8162.7 1440"/>
<path d="m8707.1 719.98h-259.73v719.97h260.18c91.07 0 229.94-106.11 229.94-376.18 0-104.49-48.69-343.79-230.39-343.79zm-25.29 603.69h-120.87v-490.03h128.88c112.77 0 131.12 163.17 131.12 227.61 0 135.53-34.37 262.42-139.13 262.42z"/>
<path d="m9056.4 1271 108.54-40.318c30.328 68.128 86.035 105.93 154.16 105.93 65.607 0 111.32-45.357 111.32-105.93 0-96.206-111.32-110.96-204.65-148.85-42.93-17.64-138.78-60.567-138.78-179.09 0-141.38 95.846-194.3 224.54-194.3 100.89 0 169.01 58.048 204.38 146.33l-100.97 30.238c-16.65-32.488-51.568-63.087-112.05-63.087-87.115 0-105.21 47.518-105.21 72.717 0 67.228 58.049 80.547 152.27 110.16 95.938 30.149 196.55 74.337 196.55 228.41-0.09 155.33-126.18 219.41-227.42 219.41-123.66 4e-4 -214.73-73.077-262.7-181.61z"/>
<polygon points="2709.5 2319.1 2542.6 2736 2375.5 2319.1 2375.5 2736 2261.5 2736 2261.5 2016 2375.5 2016 2542.6 2420.2 2709.5 2016 2823.5 2016 2823.5 2736 2709.5 2736"/>
<polygon points="2980.1 2016 3404 2016 3404 2129.6 3093.7 2129.6 3093.7 2306.5 3303.1 2306.5 3303.1 2422.7 3093.7 2422.7 3093.7 2619.8 3426.7 2619.8 3426.7 2736 2980.1 2736"/>
<path d="m3912.4 2398.5c101.87-48.23 111.77-153.53 111.77-180.26 0-70.2-49.49-202.22-214.55-202.22h-260.45v719.97h113.58v-313.37h136.52l116.19 313.37h123.83zm-106.65-91.97h-143v-176.84h148.49c75.6 0 99.09 57.05 99.09 88.46 0 23.22-14.22 88.38-104.58 88.38z"/>
<path d="m4420.9 2003.5c115.38 0 180.35 43.738 229.13 159.11l-108.63 42.838c-30.329-63.178-60.567-85.856-116.19-85.856-158.21 0-149.12 240.83-149.12 257.66 0 27.089-6.12 255.14 133.91 255.14 73.257 0 126.35-45.448 126.35-111.15v-30.239h-131.39v-113.76h244.97v143.99c0 131.3-95.936 227.33-227.42 227.33-26.1 0-262.61 21.509-262.61-372.58-2e-4 -55.168 3.0594-372.49 260.99-372.49z"/>
<polygon points="4805.5 2016 5229.4 2016 5229.4 2129.6 4919.1 2129.6 4919.1 2306.5 5128.5 2306.5 5128.5 2422.7 4919.1 2422.7 4919.1 2619.8 5252.1 2619.8 5252.1 2736 4805.5 2736"/>
<polygon points="5972.1 2016 6085.6 2016 6085.6 2629.8 6418.6 2629.8 6418.6 2736 5972.1 2736"/>
<polygon points="6538.1 2016 6962 2016 6962 2129.6 6651.7 2129.6 6651.7 2306.5 6861.1 2306.5 6861.1 2422.7 6651.7 2422.7 6651.7 2619.8 6984.7 2619.8 6984.7 2736 6538.1 2736"/>
<polygon points="7251.3 2306.5 7460.7 2306.5 7460.7 2422.7 7251.3 2422.7 7251.3 2736 7137.7 2736 7137.7 2016 7584.3 2016 7584.3 2129.6 7251.3 2129.6"/>
<polygon points="7939 2736 7824.8 2736 7824.8 2117 7659.9 2117 7659.9 2016 8106.5 2016 8106.5 2117 7939 2117"/>
</svg>
