<svg width="4708.975" height="4708.975" viewBox="0 0 1245.916 1245.916" xmlns="http://www.w3.org/2000/svg">
    <g transform="rotate(-135 285.534 259.576)">
        <rect style="opacity:1;fill:#dd7500;fill-opacity:1;fill-rule:nonzero;stroke:none;stroke-width:8.763;stroke-linecap:round;stroke-linejoin:round;stroke-miterlimit:4;stroke-dasharray:none;stroke-opacity:1" x="-667.211" y="-215.98" rx="57.15" ry="57.15" height="914.4" width="914.4"/>
        <rect width="860.425" height="860.425" ry="25.4" rx="25.4" y="-190.58" x="-641.811" style="opacity:1;fill:none;fill-opacity:1;fill-rule:nonzero;stroke:#000;stroke-width:19.05;stroke-linecap:round;stroke-linejoin:round;stroke-miterlimit:4;stroke-dasharray:none;stroke-opacity:1"/>
    </g>
    <g aria-label="VARIABLE" style="font-style:normal;font-variant:normal;font-weight:400;font-stretch:normal;font-size:222.25px;line-height:125%;font-family:'Roadgeek 2014 Series C';-inkscape-font-specification:'Roadgeek 2014 Series C';text-align:center;letter-spacing:0;word-spacing:0;text-anchor:middle;fill:#000;fill-opacity:1;stroke:none;stroke-width:3.47265625px;stroke-linecap:butt;stroke-linejoin:miter;stroke-opacity:1">
        <path d="m209.403 365.163-32.64 127h-13.715l-32.131-127h18.288l21.082 82.423 20.828-82.423zM298.018 492.163H279.73l-8.89-34.798h-27.178l-8.509 34.798h-18.288l31.75-127h17.78zm-31.623-52.705-9.27-36.449-9.018 36.45zM387.386 492.163H368.59L351.699 432.6h-17.4v59.563h-18.287v-127h38.1q14.986 0 24.13 9.398 9.144 9.271 9.144 24.511 0 23.876-18.288 30.607zm-17.907-93.09q0-7.367-4.572-11.685-4.572-4.445-11.938-4.445h-18.67v32.258h18.67q8 0 12.192-4.19 4.318-4.319 4.318-11.939zM426.685 492.163h-17.78v-127h17.78zM525.477 492.163H507.19l-8.89-34.798h-27.178l-8.509 34.798h-18.288l31.75-127h17.78zm-31.623-52.705-9.27-36.449-9.018 36.45zM614.845 457.365q0 14.351-9.906 24.638-9.906 10.16-23.876 10.16H543.47v-127h40.259q12.827 0 20.828 9.271 8.128 9.144 8.128 23.75 0 8.508-2.921 13.97-2.794 5.333-10.668 13.715 15.748 12.827 15.748 31.496zm-20.066-59.182q0-8-3.175-11.557-3.175-3.683-10.541-3.683h-19.304v33.91h19.304q6.35 0 10.033-4.954 3.683-4.953 3.683-13.716zm2.159 57.912q0-8.89-5.08-15.113-4.953-6.223-11.811-6.223h-18.288v39.624h18.288q7.62 0 12.192-4.953 4.699-5.08 4.699-13.335zM701.007 492.163h-64.643v-127h18.288v109.982h46.355zM783.483 492.163H718.84v-127h59.817v17.78h-41.529v32.258h26.29v17.4h-26.29v41.782h46.355z" style="stroke-width:3.47265625px" transform="translate(165.758 41.895)"/>
    </g>
    <g aria-label="SPEED" style="font-style:normal;font-variant:normal;font-weight:400;font-stretch:normal;font-size:214.94197083px;line-height:125%;font-family:'Roadgeek 2014 Series C';-inkscape-font-specification:'Roadgeek 2014 Series C';text-align:end;letter-spacing:0;word-spacing:0;text-anchor:end;fill:#000;fill-opacity:1;stroke:none;stroke-width:3.35846829px;stroke-linecap:butt;stroke-linejoin:miter;stroke-opacity:1">
        <path d="M-655.267 607.677q0 15.494-10.287 26.29-10.16 10.667-24.765 10.667-16.129 0-25.908-11.557-9.779-11.684-9.779-28.067h17.78q0 8.89 4.572 15.367t13.335 6.477q7.366 0 12.573-5.715 5.207-5.842 5.207-13.462 0-10.287-10.414-18.288-.635-.635-.635-.889-.381-.38-9.525-6.73-6.477-4.319-11.176-7.367-15.621-11.049-15.621-28.067 0-13.716 9.398-23.368 9.525-9.652 23.241-9.652 13.462 0 22.606 9.398 9.144 9.271 9.398 23.622h-17.272q-.254-6.477-4.445-10.668-4.191-4.19-10.287-4.19-6.35 0-10.795 4.317-4.445 4.191-4.445 10.541 0 4.826 2.413 7.874 2.54 3.048 9.779 7.112 18.542 10.922 26.797 21.844 8.255 10.795 8.255 24.511zM-562.334 551.162q0 17.145-8.636 26.416t-24.638 9.271h-19.812v55.626h-18.288v-127h38.1q14.986 0 24.13 9.78 9.144 9.778 9.144 25.907zm-17.907 0q0-8-4.572-12.954-4.572-4.953-11.938-4.953h-18.669v36.068h18.67q8 0 12.191-4.699 4.318-4.699 4.318-13.462zM-472.264 642.475h-64.643v-127h59.817v17.78h-41.53v32.258h26.29v17.4h-26.29v41.782h46.356zM-385.882 642.475h-64.643v-127h59.817v17.78h-41.53v32.258h26.29v17.4h-26.29v41.782h46.356zM-292.769 578.721q0 43.561-18.288 57.912-6.477 5.842-17.907 5.842h-35.179v-127h32.64q14.096 0 20.446 4.953 11.938 8.51 15.24 28.067 3.048 16.256 3.048 30.226zm-17.907.89q0-24.639-3.429-33.275-4.318-13.08-16.51-13.08h-15.24v91.44h15.24q7.62 0 12.192-5.08 4.572-5.208 6.096-13.209 1.651-16.129 1.651-26.797z" style="font-size:222.25px;text-align:end;text-anchor:end;stroke-width:3.35846829px" transform="translate(898.786 92.624)"/>
    </g>
    <g aria-label="LIMIT" style="font-style:normal;font-variant:normal;font-weight:400;font-stretch:normal;font-size:214.94197083px;line-height:125%;font-family:'Roadgeek 2014 Series C';-inkscape-font-specification:'Roadgeek 2014 Series C';text-align:start;letter-spacing:0;word-spacing:0;text-anchor:start;fill:#000;fill-opacity:1;stroke:none;stroke-width:3.35846829px;stroke-linecap:butt;stroke-linejoin:miter;stroke-opacity:1">
        <path d="M-101.115 642.473h-64.643v-127h18.288v109.982h46.355zM-65.503 642.473h-17.78v-127h17.78zM46.243 642.473H27.955V571.1L4.206 642.473-19.416 571.1v71.374h-18.288v-127h18.288l23.622 71.374 23.749-71.374h18.288zM92.07 642.473H74.29v-127h17.78zM174.35 532.364h-23.113v110.11h-18.288v-110.11h-23.241v-16.89h64.643z" style="font-size:222.25px;text-align:start;text-anchor:start;stroke-width:3.35846829px" transform="translate(898.786 92.624)"/>
    </g>
    <g aria-label="AHEAD" style="font-style:normal;font-variant:normal;font-weight:400;font-stretch:normal;font-size:214.94197083px;line-height:125%;font-family:'Roadgeek 2014 Series C';-inkscape-font-specification:'Roadgeek 2014 Series C';text-align:center;letter-spacing:0;word-spacing:0;text-anchor:middle;fill:#000;fill-opacity:1;stroke:none;stroke-width:3.35846829px;stroke-linecap:butt;stroke-linejoin:miter;stroke-opacity:1">
        <path d="M315.584 898.563h-18.288l-8.89-34.798h-27.178l-8.509 34.798h-18.288l31.75-127h17.78zm-31.623-52.705-9.27-36.449-9.018 36.45zM404.952 898.563h-18.288V841.16h-34.798v57.404h-18.288v-127h18.288v51.69h34.798v-51.69h18.288zM497.626 898.563h-64.643v-127H492.8v17.78h-41.529v32.258h26.289v17.4h-26.289v41.782h46.355zM590.358 898.563H572.07l-8.89-34.798h-27.178l-8.509 34.798h-18.288l31.75-127h17.78zm-31.623-52.705-9.27-36.449-9.018 36.45zM679.726 834.81q0 43.56-18.288 57.911-6.477 5.842-17.907 5.842h-35.179v-127h32.64q14.096 0 20.446 4.953 11.938 8.51 15.24 28.067 3.048 16.256 3.048 30.226zm-17.907.888q0-24.638-3.429-33.274-4.318-13.08-16.51-13.08h-15.24v91.44h15.24q7.62 0 12.192-5.08 4.572-5.208 6.096-13.209 1.651-16.129 1.651-26.797z" style="font-size:222.25px;stroke-width:3.35846829px" transform="translate(165.758 41.895)"/>
    </g>
</svg>
