<?xml version="1.0" encoding="UTF-8" standalone="no"?>
<!-- Created with Inkscape (http://www.inkscape.org/) -->

<svg
   width="30in"
   height="36in"
   viewBox="0 0 762 914.40004"
   version="1.1"
   id="svg4493"
   enable-background="new"
   inkscape:version="1.1 (c4e8f9e, 2021-05-24)"
   sodipodi:docname="MUTCD-OH_R10-H12c.svg"
   xmlns:inkscape="http://www.inkscape.org/namespaces/inkscape"
   xmlns:sodipodi="http://sodipodi.sourceforge.net/DTD/sodipodi-0.dtd"
   xmlns="http://www.w3.org/2000/svg"
   xmlns:svg="http://www.w3.org/2000/svg"
   xmlns:rdf="http://www.w3.org/1999/02/22-rdf-syntax-ns#"
   xmlns:cc="http://creativecommons.org/ns#"
   xmlns:dc="http://purl.org/dc/elements/1.1/">
  <defs
     id="defs4487">
    <rect
       x="680"
       y="1377.1429"
       width="3514.2859"
       height="360"
       id="rect91616" />
    <rect
       x="565.71429"
       y="1142.8571"
       width="3457.1428"
       height="1291.4286"
       id="rect64090" />
    <rect
       x="577.14288"
       y="1222.8571"
       width="3211.4287"
       height="422.85715"
       id="rect48968" />
  </defs>
  <sodipodi:namedview
     id="base"
     pagecolor="#ffffff"
     bordercolor="#666666"
     borderopacity="1.0"
     inkscape:pageopacity="0.0"
     inkscape:pageshadow="2"
     inkscape:zoom="0.175"
     inkscape:cx="1231.4286"
     inkscape:cy="1814.2857"
     inkscape:document-units="in"
     inkscape:current-layer="svg4493"
     showgrid="false"
     units="in"
     inkscape:window-width="1440"
     inkscape:window-height="855"
     inkscape:window-x="0"
     inkscape:window-y="23"
     inkscape:window-maximized="1"
     inkscape:pagecheckerboard="0"
     showguides="true"
     width="18in" />
  <metadata
     id="metadata4490">
    <rdf:RDF>
      <cc:Work
         rdf:about="">
        <dc:format>image/svg+xml</dc:format>
        <dc:type
           rdf:resource="http://purl.org/dc/dcmitype/StillImage" />
      </cc:Work>
    </rdf:RDF>
  </metadata>
  <g
     inkscape:label="Sign Back"
     inkscape:groupmode="layer"
     id="layer1"
     transform="translate(0,465.00002)"
     sodipodi:insensitive="true">
    <g
       id="g3578"
       transform="matrix(9.7313737,0,0,9.7313737,-2393.1978,2547.7564)">
      <g
         id="g3889">
        <g
           id="g3895">
          <rect
             style="opacity:1;fill:#ffffff;fill-opacity:1;stroke:#000000;stroke-width:0.185318;stroke-linecap:round;stroke-linejoin:round;stroke-miterlimit:4;stroke-dasharray:none;stroke-opacity:1"
             id="rect3868"
             width="78.303436"
             height="93.964127"
             x="245.92599"
             y="-309.5921"
             rx="3.5889075"
             ry="3.5889075" />
          <rect
             style="opacity:1;fill:#ffffff;fill-opacity:1;stroke:#000000;stroke-width:1.95759;stroke-linecap:round;stroke-linejoin:round;stroke-miterlimit:4;stroke-dasharray:none;stroke-opacity:1"
             id="rect3868-3"
             width="73.735741"
             height="89.396423"
             x="248.20985"
             y="-307.30826"
             rx="2.2838502"
             ry="2.2838502" />
        </g>
      </g>
    </g>
  </g>
  <g
     inkscape:groupmode="layer"
     id="layer3"
     inkscape:label="Legends"
     transform="matrix(9.7313737,0,0,9.7313737,-2393.1978,3012.7564)" />
  <g
     aria-label="LEFT"
     id="text329145"
     style="font-size:113.731px;line-height:1.25;font-family:'Roadgeek 2005 Series C';-inkscape-font-specification:'Roadgeek 2005 Series C';stroke-width:0.3949">
    <path
       d="M 151.45602,177.79977 V 101.6 h 10.91818 v 66.07771 h 27.86409 v 10.12206 z"
       id="path342327" />
    <path
       d="M 200.9912,177.79977 V 101.6 h 35.82527 v 10.69072 h -24.90709 v 19.22054 h 15.80861 v 10.46325 h -15.80861 v 25.13455 h 27.86409 v 10.69071 z"
       id="path342329" />
    <path
       d="m 263.44374,112.29072 v 19.22054 h 15.23995 v 10.46325 h -15.23995 v 35.82526 H 252.52556 V 101.6 h 38.78227 v 10.69072 z"
       id="path342331" />
    <path
       d="m 321.05382,111.72206 v 66.07771 H 310.02191 V 111.72206 H 296.14673 V 101.6 H 334.929 v 10.12206 z"
       id="path342333" />
  </g>
  <g
     aria-label="TURN"
     id="text329649"
     style="font-size:113.731px;line-height:1.25;font-family:'Roadgeek 2005 Series C';-inkscape-font-specification:'Roadgeek 2005 Series C';text-align:end;text-anchor:end;stroke-width:0.3949">
    <path
       d="m 434.53288,111.72206 v 66.07771 H 423.50097 V 111.72206 H 409.62579 V 101.6 h 38.78227 v 10.12206 z"
       id="path342318" />
    <path
       d="m 501.61817,155.05357 q 0,2.27462 -0.22746,4.09432 -0.11373,1.8197 -0.45492,3.41193 -0.3412,1.4785 -0.90985,2.95701 -0.56866,1.4785 -1.36477,2.957 -2.84328,4.66297 -7.84744,7.73371 -4.89044,2.95701 -10.34952,2.95701 -5.68655,0 -10.80445,-2.95701 -5.00416,-2.95701 -7.84744,-7.73371 -0.79611,-1.4785 -1.36477,-2.957 -0.56865,-1.47851 -0.90985,-2.95701 -0.34119,-1.59223 -0.56865,-3.41193 -0.11373,-1.8197 -0.11373,-4.09432 V 101.6 h 10.91817 v 54.81835 q 0,5.45908 2.95701,8.75728 2.957,3.2982 7.73371,3.2982 4.43551,0 7.27878,-3.2982 2.95701,-3.2982 2.95701,-8.75728 V 101.6 h 10.91817 v 53.45357 z"
       id="path342320" />
    <path
       d="m 549.66774,177.79977 -10.12205,-35.82526 h -10.46326 v 35.82526 H 518.16426 V 101.6 h 22.7462 q 4.43551,0 8.0749,1.47851 3.75312,1.4785 6.36893,4.09431 2.72955,2.61581 4.09432,6.48267 1.4785,3.75312 1.4785,8.30236 0,6.82386 -2.72954,11.60056 -2.72954,4.77671 -8.18863,6.82386 l 10.91817,37.4175 z m 0.56866,-55.84192 q 0,-4.43551 -2.72954,-7.05132 -2.72955,-2.61581 -7.16506,-2.61581 h -11.25937 v 19.22054 h 11.25937 q 4.7767,0 7.27879,-2.38836 2.61581,-2.50208 2.61581,-7.16505 z"
       id="path342322" />
    <path
       d="m 608.15746,177.79977 -23.54232,-51.06522 v 51.06522 H 573.69696 V 101.6 h 10.91818 l 20.92651,45.71987 V 101.6 h 10.91817 v 76.19977 z"
       id="path342324" />
  </g>
  <g
     aria-label="YIELD"
     id="text330647"
     style="font-size:151.642px;line-height:1.25;font-family:'Roadgeek 2005 Series D';-inkscape-font-specification:'Roadgeek 2005 Series D';text-align:center;text-anchor:middle;stroke-width:0.526535">
    <path
       d="m 243.82797,311.3207 v 44.27946 H 227.75392 V 311.3207 l -35.63587,-57.32068 h 19.25853 l 24.26272,39.27528 24.566,-39.27528 h 18.95525 z"
       id="path342307" />
    <path
       d="M 296.68705,355.60016 V 254.00002 h 16.37734 v 101.60014 z"
       id="path342309" />
    <path
       d="M 337.26313,355.60016 V 254.00002 h 59.89859 v 16.07405 h -43.82453 v 24.86929 h 29.57019 v 16.37734 h -29.57019 v 27.90212 h 47.00902 v 16.37734 z"
       id="path342311" />
    <path
       d="M 417.52678,355.60016 V 254.00002 h 16.07405 v 86.58758 h 47.00902 v 15.01256 z"
       id="path342313" />
    <path
       d="m 564.86593,304.64845 q 0,15.31584 -4.70091,26.99227 -4.54926,11.52479 -13.19285,18.19704 -2.8812,2.72956 -6.82389,4.09434 -3.79105,1.36477 -7.73374,1.66806 h -5.7624 -30.93497 V 254.00002 h 32.75468 q 3.79105,0 6.5206,0.30328 2.8812,0.15165 5.15583,0.75821 2.27463,0.60657 4.09433,1.66807 1.81971,1.06149 3.9427,2.57791 8.03702,6.97553 12.283,18.65197 4.39762,11.52479 4.39762,26.68899 z m -16.37734,0 q 0,-10.31166 -2.27463,-18.34868 -2.12299,-8.03703 -5.91404,-11.97972 -1.97134,-1.81971 -4.54926,-3.03284 -2.57791,-1.21314 -5.76239,-1.21314 h -18.19704 v 69.14875 h 16.07405 q 3.94269,0 6.5206,-0.90985 2.72956,-0.90985 4.85255,-3.03284 4.54926,-4.54926 6.82389,-12.43464 2.42627,-8.03703 2.42627,-18.19704 z"
       id="path342315" />
  </g>
  <g
     aria-label="ON"
     id="text333553"
     style="font-size:113.731px;line-height:1.25;font-family:'Roadgeek 2005 Series C';-inkscape-font-specification:'Roadgeek 2005 Series C';stroke-width:0.3949">
    <path
       d="m 143.47952,469.78617 q 0,8.75729 -1.02357,14.89876 -0.90985,6.14147 -3.2982,11.60056 -2.84328,6.82386 -7.16506,10.00833 -4.20804,3.07074 -10.69071,3.07074 -6.82386,0 -11.14564,-3.07074 -4.20805,-3.18447 -7.05132,-10.00833 -2.38835,-5.57282 -3.411931,-11.60056 -0.909848,-6.14147 -0.909848,-14.89876 0,-8.64356 0.909848,-14.78503 1.023581,-6.25521 3.411931,-11.71429 2.95701,-6.82386 7.16505,-9.78087 4.32178,-3.07074 11.03191,-3.07074 6.5964,0 10.80444,3.07074 4.20805,2.95701 7.05133,10.00833 1.13731,2.84327 1.93342,5.68655 0.90985,2.84327 1.36478,6.02774 0.56865,3.07074 0.79611,6.71013 0.22746,3.52566 0.22746,7.84744 z m -10.46325,0 q 0,-3.18447 -0.22746,-5.80028 -0.11373,-2.61581 -0.45492,-4.7767 -0.22747,-2.27462 -0.68239,-4.32178 -0.45492,-2.04716 -1.02358,-4.09432 -1.4785,-5.11789 -3.75312,-7.39251 -2.16089,-2.27462 -5.57282,-2.27462 -7.05132,0 -9.66714,9.43967 -1.36477,4.32178 -1.93342,8.75729 -0.45493,4.32178 -0.45493,10.69071 0,3.07074 0.11373,5.68655 0.22747,2.50208 0.45493,4.7767 0.34119,2.16089 0.79612,4.32178 0.45492,2.16089 1.02357,4.43551 2.61582,9.43967 9.66714,9.43967 3.41193,0 5.57282,-2.27462 2.27462,-2.27462 3.75312,-7.16505 0.68239,-2.27462 1.13731,-4.32178 0.45493,-2.16089 0.68239,-4.43551 0.34119,-2.27462 0.45492,-4.7767 0.11373,-2.61581 0.11373,-5.91401 z"
       id="path342302" />
    <path
       d="m 193.25105,507.99979 -23.54231,-51.06522 v 51.06522 h -10.91818 v -76.19978 h 10.91818 l 20.9265,45.71987 v -45.71987 h 10.91818 v 76.19978 z"
       id="path342304" />
  </g>
  <g
     aria-label="FLASHING"
     id="text335189"
     style="font-size:113.731px;line-height:1.25;font-family:'Roadgeek 2005 Series C';-inkscape-font-specification:'Roadgeek 2005 Series C';text-align:end;text-anchor:end;stroke-width:0.3949">
    <path
       d="m 287.44799,442.49073 v 19.22054 h 15.23995 v 10.46325 h -15.23995 v 35.82527 h -10.91818 v -76.19978 h 38.78227 v 10.69072 z"
       id="path342285" />
    <path
       d="m 326.06499,507.99979 v -76.19978 h 10.91818 v 66.07772 h 27.86409 v 10.12206 z"
       id="path342287" />
    <path
       d="m 407.44486,507.99979 -5.34536,-20.81278 h -16.37727 l -5.00416,20.81278 h -11.03191 l 18.99308,-76.19978 h 10.69071 l 18.99308,76.19978 z m -13.64772,-53.45357 -5.34536,21.95008 h 10.91817 z"
       id="path342289" />
    <path
       d="m 467.69386,487.18701 q 0,4.66297 -1.70597,8.75729 -1.59223,3.98059 -4.54924,6.93759 -2.84327,2.95701 -6.71013,4.7767 -3.75312,1.70597 -8.18863,1.70597 -5.00416,0 -8.98475,-1.93343 -3.98058,-1.93343 -6.71013,-5.23162 -2.72954,-3.2982 -4.20805,-7.61998 -1.4785,-4.32178 -1.4785,-8.98475 h 10.69072 q 0,2.38835 0.56865,4.7767 0.68239,2.27462 1.93343,4.20805 1.36477,1.81969 3.2982,2.957 2.04715,1.13731 4.89043,1.13731 2.16089,0 4.09432,-0.90984 2.04715,-0.90985 3.41193,-2.50209 1.4785,-1.59223 2.27462,-3.63939 0.90984,-2.16089 0.90984,-4.43551 0,-3.2982 -1.36477,-5.80028 -1.36477,-2.61581 -4.7767,-5.23162 -0.56866,-0.56866 -0.45492,-0.56866 0.11373,-0.11373 -0.68239,-0.68239 -0.79612,-0.56865 -3.41193,-2.16088 -2.50208,-1.70597 -8.30236,-5.68655 -4.66297,-3.18447 -7.05133,-7.39252 -2.27462,-4.32178 -2.27462,-9.43967 0,-4.09432 1.47851,-7.61998 1.4785,-3.63939 4.09431,-6.36894 2.72955,-2.72954 6.25521,-4.20804 3.52566,-1.59224 7.61998,-1.59224 4.09431,0 7.50624,1.47851 3.52566,1.4785 6.02774,4.09431 2.61582,2.61581 4.09432,6.25521 1.59224,3.63939 1.70597,7.96117 H 457.2306 q -0.22746,-3.98059 -2.72954,-6.36894 -2.50208,-2.38835 -6.14147,-2.38835 -3.75313,0 -6.36894,2.50208 -2.61581,2.50208 -2.61581,6.25521 0,2.84327 1.4785,4.7767 1.4785,1.93343 5.68655,4.32178 11.03191,6.36893 16.03607,12.96533 5.1179,6.5964 5.1179,14.89876 z"
       id="path342291" />
    <path
       d="m 512.29063,507.99979 v -34.4605 h -20.92651 v 34.4605 h -10.91817 v -76.19978 h 10.91817 v 31.04857 h 20.92651 v -31.04857 h 10.91817 v 76.19978 z"
       id="path342293" />
    <path
       d="m 539.75488,507.99979 v -76.19978 h 10.69071 v 76.19978 z"
       id="path342295" />
    <path
       d="m 601.75959,507.99979 -23.54232,-51.06522 v 51.06522 H 567.2991 v -76.19978 h 10.91817 l 20.92651,45.71987 v -45.71987 h 10.91817 v 76.19978 z"
       id="path342297" />
    <path
       d="m 667.77868,486.84582 q 0,3.98058 -0.45492,6.71013 -0.45493,2.72954 -1.70597,5.11789 -2.27462,5.00417 -6.71013,7.84744 -4.32178,2.84328 -10.12206,2.84328 -6.82386,0 -11.82802,-3.2982 -4.89044,-3.2982 -7.73371,-9.78087 -1.8197,-4.32178 -2.95701,-11.48683 -1.02358,-7.27878 -1.02358,-14.78503 0,-8.0749 0.68239,-14.10264 0.79612,-6.14148 2.84328,-11.60057 1.02357,-2.957 2.84327,-5.45908 1.93343,-2.61582 4.43551,-4.43551 2.50208,-1.93343 5.57282,-2.95701 3.07074,-1.02358 6.36893,-1.02358 4.09432,0 7.61998,1.47851 3.52566,1.36477 6.14148,3.98058 2.61581,2.50208 4.20804,6.14147 1.59224,3.52567 1.8197,7.73371 H 656.8605 q -0.22746,-3.86685 -2.72954,-6.2552 -2.38835,-2.38835 -6.36894,-2.38835 -5.68655,0 -8.64355,5.68655 -1.59224,2.84327 -2.50209,8.75728 -0.90984,5.80029 -0.90984,12.62415 0,4.7767 0.34119,9.66713 0.45492,4.89043 1.25104,9.32594 1.25104,5.57282 3.98059,8.52983 2.84327,2.957 7.27878,2.957 8.30236,0 8.30236,-11.82802 v -5.00416 h -8.64355 v -10.69072 h 19.56173 v 15.69488 z"
       id="path342299" />
  </g>
  <g
     aria-label="YELLOW"
     id="text337729"
     style="font-size:113.731px;line-height:1.25;font-family:'Roadgeek 2005 Series C';-inkscape-font-specification:'Roadgeek 2005 Series C';text-align:center;text-anchor:middle;stroke-width:0.3949">
    <path
       d="m 250.50346,625.93929 v 34.46049 h -10.91818 v -34.46049 l -18.76561,-41.73928 h 11.48683 l 12.8516,27.5229 12.62414,-27.5229 h 11.7143 z"
       id="path342272" />
    <path
       d="m 280.04509,660.39978 v -76.19977 h 35.82526 v 10.69071 h -24.90709 v 19.22054 h 15.80861 v 10.46325 h -15.80861 v 25.13456 h 27.8641 v 10.69071 z"
       id="path342274" />
    <path
       d="m 331.57944,660.39978 v -76.19977 h 10.91818 v 66.07771 h 27.8641 v 10.12206 z"
       id="path342276" />
    <path
       d="m 381.11463,660.39978 v -76.19977 h 10.91818 v 66.07771 h 27.86409 v 10.12206 z"
       id="path342278" />
    <path
       d="m 473.98133,622.18616 q 0,8.75729 -1.02358,14.89876 -0.90985,6.14148 -3.2982,11.60057 -2.84327,6.82386 -7.16505,10.00833 -4.20805,3.07073 -10.69072,3.07073 -6.82386,0 -11.14563,-3.07073 -4.20805,-3.18447 -7.05133,-10.00833 -2.38835,-5.57282 -3.41193,-11.60057 -0.90984,-6.14147 -0.90984,-14.89876 0,-8.64355 0.90984,-14.78503 1.02358,-6.2552 3.41193,-11.71429 2.95701,-6.82386 7.16506,-9.78087 4.32177,-3.07073 11.0319,-3.07073 6.5964,0 10.80445,3.07073 4.20805,2.95701 7.05132,10.00833 1.13731,2.84328 1.93343,5.68655 0.90985,2.84328 1.36477,6.02774 0.56866,3.07074 0.79612,6.71013 0.22746,3.52567 0.22746,7.84744 z m -10.46325,0 q 0,-3.18446 -0.22746,-5.80028 -0.11374,-2.61581 -0.45493,-4.7767 -0.22746,-2.27462 -0.68239,-4.32178 -0.45492,-2.04716 -1.02357,-4.09431 -1.47851,-5.1179 -3.75313,-7.39252 -2.16089,-2.27462 -5.57282,-2.27462 -7.05132,0 -9.66713,9.43967 -1.36477,4.32178 -1.93343,8.75729 -0.45492,4.32178 -0.45492,10.69072 0,3.07073 0.11373,5.68655 0.22746,2.50208 0.45492,4.7767 0.3412,2.16089 0.79612,4.32178 0.45492,2.16088 1.02358,4.4355 2.61581,9.43968 9.66713,9.43968 3.41193,0 5.57282,-2.27462 2.27462,-2.27462 3.75313,-7.16506 0.68238,-2.27462 1.13731,-4.32177 0.45492,-2.16089 0.68238,-4.43551 0.3412,-2.27462 0.45493,-4.7767 0.11373,-2.61582 0.11373,-5.91402 z"
       id="path342280" />
    <path
       d="m 528.87075,660.39978 h -9.32594 l -7.27878,-39.80585 -7.16506,39.80585 h -9.66713 l -12.05549,-76.19977 h 10.69072 l 6.48266,40.60197 7.39252,-40.60197 h 8.64356 l 7.16505,40.60197 6.71013,-40.60197 h 10.69071 z"
       id="path342282" />
  </g>
  <g
     aria-label="ARROW"
     id="text339519"
     style="font-size:113.731px;line-height:1.25;font-family:'Roadgeek 2005 Series C';-inkscape-font-specification:'Roadgeek 2005 Series C';text-align:center;text-anchor:middle;stroke-width:0.3949">
    <path
       d="m 278.34801,812.7998 -5.34536,-20.81277 h -16.37726 l -5.00417,20.81277 h -11.03191 l 18.99308,-76.19977 h 10.69072 l 18.99307,76.19977 z m -13.64772,-53.45357 -5.34536,21.95009 h 10.91818 z"
       id="path342261" />
    <path
       d="m 331.31822,812.7998 -10.12206,-35.82526 h -10.46325 v 35.82526 h -10.91817 v -76.19977 h 22.7462 q 4.43551,0 8.0749,1.47851 3.75312,1.4785 6.36893,4.09431 2.72955,2.61582 4.09432,6.48267 1.4785,3.75312 1.4785,8.30236 0,6.82386 -2.72954,11.60056 -2.72955,4.77671 -8.18863,6.82386 l 10.91817,37.4175 z m 0.56866,-55.84192 q 0,-4.43551 -2.72955,-7.05132 -2.72954,-2.61581 -7.16505,-2.61581 h -11.25937 v 19.22054 h 11.25937 q 4.7767,0 7.27879,-2.38835 2.61581,-2.50209 2.61581,-7.16506 z"
       id="path342263" />
    <path
       d="m 386.85094,812.7998 -10.12206,-35.82526 h -10.46325 v 35.82526 h -10.91818 v -76.19977 h 22.7462 q 4.43551,0 8.0749,1.47851 3.75313,1.4785 6.36894,4.09431 2.72954,2.61582 4.09431,6.48267 1.47851,3.75312 1.47851,8.30236 0,6.82386 -2.72955,11.60056 -2.72954,4.77671 -8.18863,6.82386 l 10.91818,37.4175 z m 0.56865,-55.84192 q 0,-4.43551 -2.72954,-7.05132 -2.72955,-2.61581 -7.16505,-2.61581 h -11.25937 v 19.22054 H 377.525 q 4.7767,0 7.27878,-2.38835 2.61581,-2.50209 2.61581,-7.16506 z"
       id="path342265" />
    <path
       d="m 454.21167,774.58619 q 0,8.75728 -1.02358,14.89876 -0.90985,6.14147 -3.2982,11.60056 -2.84327,6.82386 -7.16505,10.00833 -4.20805,3.07074 -10.69072,3.07074 -6.82386,0 -11.14563,-3.07074 -4.20805,-3.18447 -7.05133,-10.00833 -2.38835,-5.57282 -3.41193,-11.60056 -0.90984,-6.14148 -0.90984,-14.89876 0,-8.64356 0.90984,-14.78503 1.02358,-6.25521 3.41193,-11.7143 2.95701,-6.82386 7.16506,-9.78086 4.32177,-3.07074 11.0319,-3.07074 6.5964,0 10.80445,3.07074 4.20805,2.957 7.05132,10.00833 1.13731,2.84327 1.93343,5.68655 0.90985,2.84327 1.36477,6.02774 0.56866,3.07074 0.79612,6.71013 0.22746,3.52566 0.22746,7.84744 z m -10.46325,0 q 0,-3.18447 -0.22746,-5.80028 -0.11374,-2.61582 -0.45493,-4.77671 -0.22746,-2.27462 -0.68238,-4.32177 -0.45493,-2.04716 -1.02358,-4.09432 -1.47851,-5.11789 -3.75313,-7.39251 -2.16089,-2.27462 -5.57282,-2.27462 -7.05132,0 -9.66713,9.43967 -1.36477,4.32178 -1.93343,8.75729 -0.45492,4.32177 -0.45492,10.69071 0,3.07074 0.11373,5.68655 0.22746,2.50208 0.45492,4.7767 0.3412,2.16089 0.79612,4.32178 0.45492,2.16089 1.02358,4.43551 2.61581,9.43967 9.66713,9.43967 3.41193,0 5.57282,-2.27462 2.27462,-2.27462 3.75313,-7.16505 0.68238,-2.27462 1.13731,-4.32178 0.45492,-2.16089 0.68238,-4.43551 0.3412,-2.27462 0.45493,-4.7767 0.11373,-2.61581 0.11373,-5.91401 z"
       id="path342267" />
    <path
       d="m 509.10109,812.7998 h -9.32594 l -7.27878,-39.80585 -7.16506,39.80585 h -9.66713 l -12.05549,-76.19977 h 10.69072 l 6.48266,40.60197 7.39252,-40.60197 h 8.64356 l 7.16505,40.60197 6.71013,-40.60197 h 10.69071 z"
       id="path342269" />
  </g>
</svg>
