<?xml version="1.0" encoding="UTF-8"?>
<svg width="2160" height="2700" viewBox="0 0 1728 2160" xmlns="http://www.w3.org/2000/svg">
<rect x="1.127" y="1.127" width="1725.7" height="2157.7" rx="106.87" fill="#fff"/>
<path d="M1620 2.254A105.866 105.866 0 0 1 1725.746 108v1944A105.866 105.866 0 0 1 1620 2157.746H108A105.866 105.866 0 0 1 2.254 2052V108A105.866 105.866 0 0 1 108 2.254h1512M1620 0H108A108 108 0 0 0 0 108v1944a108 108 0 0 0 108 108h1512a108 108 0 0 0 108-108V108A108 108 0 0 0 1620 0z"/>
<path d="M1620 72a36.04 36.04 0 0 1 36 36v1944a36.041 36.041 0 0 1-36 36H108a36.04 36.04 0 0 1-36-36V108a36.04 36.04 0 0 1 36-36zm0-45H108a81.092 81.092 0 0 0-81 81v1944a81.092 81.092 0 0 0 81 81h1512a81.092 81.092 0 0 0 81-81V108a81.092 81.092 0 0 0-81-81z"/>
<path d="m259.7 273.58c-2.996-21.217-11.391-31.07-25.86-31.07-25.103 0-34.253 19.706-34.253 75.742 0 62.138 10.662 87.133 37.304 87.133 18.274 0 22.809-15.17 22.809-31.068h31.202c-0.755 35.603-23.564 61.381-54.012 61.381-46.4 0-66.969-37.115-66.969-116.69 0-69.668 22.053-106.76 64.674-106.76 39.572 0 55.255 36.09 56.307 61.327zm137.26 56.846h-29.503v101.52h-30.987v-215.94h64.269c33.876 0 56.712 22.728 56.712 57.575 0 25.751-10.608 44.7-31.015 52.286l30.988 106.08h-31.717zm-29.503-84.11v54.553h31.743c18.193 0 27.992-9.852 27.992-27.29 0-16.681-11.337-27.262-27.965-27.262zm124.32 77.2c0-113.07 52.447-111.26 64.08-111.26s63.38-1.728 63.38 111.34c0 113.88-51.746 112.1-63.38 112.1s-64.08 1.782-64.08-112.18zm63.73-80.978c-6.155 0-33.984-1.27-33.984 81.14 0 83.003 27.83 81.734 33.984 81.734s33.956 1.27 33.956-81.734c0-82.41-27.802-81.14-33.956-81.14zm158.93 162.93c16.736 0 30.421-15.17 30.421-32.607-0.027-45.996-80.627-45.888-80.627-104.6 0-31.068 24.347-56.036 55.524-56.036 30.448 0 54.04 23.456 54.795 56.064h-29.719c-0.756-15.143-11.418-24.996-25.103-24.996-14.468 0-25.86 10.582-25.86 24.968 0 12.93 8.126 18.086 18.194 24.402 29.206 17.626 62.461 38.897 62.461 80.223 0 34.956-26.641 62.893-60.113 62.893-38.032 0-60.841-32.175-60.841-67.482h30.475c0 18.382 9.096 37.169 30.393 37.169zm148.83 0c16.736 0 30.421-15.17 30.421-32.607-0.027-45.996-80.627-45.888-80.627-104.6 0-31.068 24.347-56.036 55.524-56.036 30.448 0 54.04 23.456 54.795 56.064h-29.72c-0.755-15.143-11.417-24.996-25.103-24.996-14.468 0-25.859 10.582-25.859 24.968 0 12.93 8.125 18.086 18.193 24.402 29.207 17.626 62.462 38.897 62.462 80.223 0 34.956-26.642 62.893-60.113 62.893-38.033 0-60.842-32.175-60.842-67.482h30.475c0 18.382 9.096 37.169 30.394 37.169zm184.11 26.48-20.515-112.88-20.542 112.88h-27.344l-34.226-215.94h30.42l18.248 115.18 21.27-115.18h24.347l20.515 115.18 19.003-115.18h30.421l-34.983 215.94zm168.41-59.087h-46.32l-14.441 59.087h-31.15l53.932-215.94h30.42l53.905 215.94h-31.149zm-38.735-30.313h31.15l-15.953-62.138zm117.25-126.54h31.15v187.14h79.035v28.802h-110.18zm193.46 110.62-19.678 36.332v68.994h-30.986v-215.94h30.987v86.377l49.154-86.377h35.577l-44.647 75.768 49.91 140.17h-32.5zm-976.79 324.96c-2.996-21.216-11.391-31.068-25.86-31.068-25.103 0-34.253 19.705-34.253 75.741 0 62.138 10.662 87.133 37.304 87.133 18.274 0 22.809-15.17 22.809-31.068h31.203c-0.755 35.603-23.564 61.381-54.012 61.381-46.4 0-66.969-37.115-66.969-116.69 0-69.668 22.053-106.76 64.674-106.76 39.572 0 55.255 36.09 56.307 61.327zm74.281-57.575h31.15v187.14h79.035v28.802h-110.18zm136.14 107.51c0-113.07 52.447-111.26 64.08-111.26s63.38-1.728 63.38 111.34c0 113.88-51.746 112.1-63.38 112.1s-64.08 1.782-64.08-112.18zm63.73-80.978c-6.155 0-33.984-1.27-33.984 81.14 0 83.003 27.83 81.734 33.984 81.734s33.956 1.27 33.956-81.734c0-82.41-27.802-81.14-33.956-81.14zm157.04 162.93c16.737 0 30.422-15.17 30.422-32.607-0.027-45.996-80.628-45.888-80.628-104.6 0-31.068 24.348-56.036 55.525-56.036 30.447 0 54.04 23.456 54.795 56.064h-29.72c-0.755-15.143-11.417-24.996-25.103-24.996-14.467 0-25.859 10.582-25.859 24.968 0 12.93 8.125 18.086 18.193 24.402 29.207 17.626 62.462 38.897 62.462 80.223 0 34.955-26.642 62.893-60.113 62.893-38.033 0-60.842-32.175-60.842-67.482h30.475c0 18.382 9.096 37.169 30.394 37.169zm96.869-189.46h101.82v30.313h-70.666v54.552h44.808v29.557h-44.809v71.234h79.035v30.286h-110.18zm146.78 215.94v-215.94h61.625c13.171 0 59.356 0.648 59.356 107.59 0 97.85-42.648 108.35-56.793 108.35zm55.2-185.63h-24.213v155.32h21.54c25.265 0 38.195-11.04 38.195-76.524 0-75.877-18.922-78.792-35.522-78.792zm-1067.5 878.87v-153.18h30.988v155.32c0 20.326 11.877 34.12 30.232 34.12 16.628 0 28.747-13.632 28.747-34.12v-155.32h31.015v153.64c0 49.127-37.952 66.08-59.762 66.08-19.948 0-61.22-12.984-61.22-66.539zm213.49 36.28c16.736 0 30.42-15.17 30.42-32.608-0.026-45.996-80.627-45.888-80.627-104.6 0-31.069 24.348-56.038 55.525-56.038 30.448 0 54.04 23.457 54.795 56.065h-29.719c-0.756-15.143-11.418-24.996-25.104-24.996-14.467 0-25.858 10.582-25.858 24.969 0 12.93 8.125 18.086 18.192 24.402 29.207 17.625 62.462 38.896 62.462 80.223 0 34.955-26.642 62.892-60.113 62.892-38.033 0-60.842-32.176-60.842-67.482h30.475c0 18.383 9.096 37.17 30.394 37.17zm91.738-189.46h101.82v30.312h-70.667v54.553h44.808v29.557h-44.808v71.234h79.035v30.286h-110.18zm365.91 107.51c0-113.07 52.447-111.26 64.08-111.26s63.38-1.727 63.38 111.35c0 113.88-51.745 112.1-63.38 112.1s-64.08 1.781-64.08-112.18zm63.73-80.978c-6.154 0-33.984-1.268-33.984 81.14 0 83.003 27.83 81.734 33.984 81.734s33.957 1.27 33.957-81.734c0-82.409-27.802-81.141-33.957-81.141zm155.23 189.41h-31.15v-187.14h-39.518v-28.801h110.18v28.8h-39.517zm154.65-97.741h-59.006v97.741h-30.987v-215.94h30.987v87.889h58.98v-87.89h31.014v215.94h-30.988zm73.42-118.2h101.82v30.312h-70.667v54.553h44.81v29.557h-44.81v71.234h79.036v30.286h-110.18zm202.3 114.42h-29.504v101.52h-30.986v-215.94h64.27c33.876 0 56.712 22.728 56.712 57.576 0 25.75-10.608 44.7-31.015 52.285l30.988 106.08h-31.716zm-29.504-84.11v54.553h31.744c18.193 0 27.991-9.851 27.991-27.289 0-16.681-11.337-27.263-27.965-27.263zm-1032.5-341.48h699.8l-16.082-49.786a16.463 16.463 0 0 1 25.09-18.582l0.428 0.305 154.77 109.22-155.03 109.4-0.167 0.122a16.463 16.463 0 0 1-25.091-18.583l16.082-49.785h-699.8zm237.99 878.63c16.735 0 30.42-15.17 30.42-32.607-0.026-45.996-80.627-45.887-80.627-104.6 0-31.07 24.348-56.038 55.524-56.038 30.448 0 54.04 23.456 54.796 56.064h-29.72c-0.755-15.143-11.417-24.995-25.103-24.995-14.468 0-25.859 10.58-25.859 24.969 0 12.928 8.125 18.085 18.193 24.401 29.207 17.626 62.462 38.896 62.462 80.223 0 34.955-26.642 62.892-60.113 62.892-38.033 0-60.842-32.175-60.842-67.481h30.475c0 18.382 9.096 37.169 30.394 37.169zm96.8-189.46h30.231v215.94h-30.232zm77.492 215.94v-215.94h61.625c13.172 0 59.357 0.648 59.357 107.59 0 97.848-42.649 108.35-56.793 108.35zm55.2-185.63h-24.211v155.32h21.54c25.265 0 38.194-11.04 38.194-76.525 0-75.877-18.921-78.792-35.522-78.792zm109.21-30.313h101.82v30.313h-70.667v54.552h44.808v29.558h-44.808v71.233h79.035v30.286h-110.18z"/>
</svg>
