<?xml version="1.0" encoding="UTF-8" standalone="no"?>
<!-- Created with Inkscape (http://www.inkscape.org/) -->

<svg
   width="94.854881mm"
   height="13.998223mm"
   viewBox="0 0 94.854881 13.998223"
   version="1.1"
   id="svg1"
   inkscape:version="1.3 (0e150ed, 2023-07-21)"
   sodipodi:docname="MUTCD-OH_D5-H29.svg"
   xmlns:inkscape="http://www.inkscape.org/namespaces/inkscape"
   xmlns:sodipodi="http://sodipodi.sourceforge.net/DTD/sodipodi-0.dtd"
   xmlns="http://www.w3.org/2000/svg"
   xmlns:svg="http://www.w3.org/2000/svg">
  <sodipodi:namedview
     id="namedview1"
     pagecolor="#ffffff"
     bordercolor="#666666"
     borderopacity="1.0"
     inkscape:showpageshadow="2"
     inkscape:pageopacity="0.0"
     inkscape:pagecheckerboard="0"
     inkscape:deskcolor="#d1d1d1"
     inkscape:document-units="mm"
     inkscape:zoom="3.3638608"
     inkscape:cx="267.1038"
     inkscape:cy="38.348792"
     inkscape:window-width="1440"
     inkscape:window-height="855"
     inkscape:window-x="0"
     inkscape:window-y="23"
     inkscape:window-maximized="1"
     inkscape:current-layer="layer1" />
  <defs
     id="defs1" />
  <g
     inkscape:label="Layer 1"
     inkscape:groupmode="layer"
     id="layer1"
     transform="translate(-57.150002,-141.55208)">
    <path
       id="path2"
       style="fill:#ffffff;stroke:none;stroke-width:0.169;stroke-linecap:square;stroke-linejoin:round;stroke-miterlimit:1.414;stroke-dasharray:none;stroke-opacity:1"
       d="m 57.234668,143.61231 c 0,-0.49389 0.211667,-1.02306 0.564444,-1.37583 0.388056,-0.38806 0.881945,-0.59973 1.41111,-0.59973 h 90.769718 c 0.49389,0 1.02306,0.21167 1.37583,0.59972 0.38806,0.35278 0.56445,0.88195 0.56445,1.37583 v 9.87778 c 0,0.52917 -0.17639,1.02306 -0.56444,1.41111 -0.35278,0.35278 -0.88195,0.56445 -1.37584,0.56445 H 59.210222 c -0.529165,0 -1.023054,-0.21167 -1.41111,-0.56445 -0.352777,-0.38805 -0.564444,-0.88194 -0.564444,-1.41111 v -9.87778"
       sodipodi:nodetypes="cccccccsccccc" />
    <path
       id="path195"
       style="fill:none;stroke:#000000;stroke-width:0.169;stroke-linecap:square;stroke-linejoin:round;stroke-miterlimit:1.414;stroke-dasharray:none;stroke-opacity:1"
       d="m 57.234668,143.61231 c 0,-0.49389 0.211667,-1.02306 0.564444,-1.37583 0.388056,-0.38806 0.881945,-0.59973 1.41111,-0.59973 h 90.769718 c 0.49389,0 1.02306,0.21167 1.37583,0.59972 0.38806,0.35278 0.56445,0.88195 0.56445,1.37583 v 9.87778 c 0,0.52917 -0.17639,1.02306 -0.56444,1.41111 -0.35278,0.35278 -0.88195,0.56445 -1.37584,0.56445 H 59.210222 c -0.529165,0 -1.023054,-0.21167 -1.41111,-0.56445 -0.352777,-0.38805 -0.564444,-0.88194 -0.564444,-1.41111 v -9.87778"
       sodipodi:nodetypes="cccccccsccccc" />
    <path
       id="path1"
       d="m 58.222445,143.61231 c 0,-0.21167 0.07056,-0.49389 0.282222,-0.67028 0.105834,-0.10583 0.211667,-0.17639 0.3175,-0.24694 0.141111,-0.0353 0.246945,-0.0706 0.388056,-0.0706 h 90.769717 c 0.21167,0 0.49389,0.10584 0.67028,0.3175 0.10583,0.0706 0.17639,0.21167 0.24694,0.3175 0.0353,0.14111 0.0353,0.24695 0.0353,0.35278 v 9.87778 c 0,0.24694 -0.0706,0.49389 -0.28222,0.70555 -0.0706,0.10584 -0.21167,0.17639 -0.3175,0.21167 -0.14111,0.0353 -0.24695,0.0706 -0.35278,0.0706 H 59.210223 c -0.246945,0 -0.493889,-0.0706 -0.705556,-0.28223 -0.105833,-0.10583 -0.176389,-0.21166 -0.211666,-0.35277 -0.07056,-0.10584 -0.07056,-0.24695 -0.07056,-0.35278 v -9.87778"
       style="fill:#003f87;fill-opacity:1;fill-rule:evenodd;stroke:none;stroke-width:0.352778" />
    <path
       id="path196"
       d="m 114.38467,153.24314 h -0.635 v -3.95111 h 0.635 v 3.95111"
       style="fill:#ffffff;fill-opacity:1;fill-rule:evenodd;stroke:none;stroke-width:0.352778" />
    <path
       id="path197"
       d="m 116.60717,151.62036 h -1.34056 v -0.635 h 1.34056 v 0.635"
       style="fill:#ffffff;fill-opacity:1;fill-rule:evenodd;stroke:none;stroke-width:0.352778" />
    <path
       id="path198"
       d="m 119.95855,149.92703 c -0.3175,0.52917 -0.59972,1.05833 -0.81139,1.62278 -0.17639,0.56444 -0.3175,1.12889 -0.35278,1.69333 h -0.635 c 0.10584,-1.16417 0.42334,-2.29305 1.02306,-3.31611 h -1.86972 v -0.59972 h 2.64583 v 0.59972"
       style="fill:#ffffff;fill-opacity:1;fill-rule:evenodd;stroke:none;stroke-width:0.352778" />
    <path
       id="path199"
       d="m 123.45105,149.92703 c -0.35278,0.52917 -0.635,1.05833 -0.81139,1.62278 -0.21167,0.56444 -0.3175,1.12889 -0.35278,1.69333 h -0.635 c 0.0706,-1.16417 0.42334,-2.29305 0.98778,-3.31611 h -1.86972 v -0.59972 h 2.68111 v 0.59972"
       style="fill:#ffffff;fill-opacity:1;fill-rule:evenodd;stroke:none;stroke-width:0.352778" />
    <path
       id="path200"
       d="m 127.15522,151.62036 h -1.30528 v -0.635 h 1.30528 v 0.635"
       style="fill:#ffffff;fill-opacity:1;fill-rule:evenodd;stroke:none;stroke-width:0.352778" />
    <path
       id="path201"
       d="m 132.23522,151.93786 c 0,0.42333 -0.10583,0.74083 -0.35278,0.98778 -0.28222,0.28222 -0.56444,0.38805 -0.9525,0.42333 -0.35278,-0.0353 -0.635,-0.10583 -0.88194,-0.28222 -0.10584,-0.0706 -0.21167,-0.17639 -0.28222,-0.28222 -0.10584,-0.14111 -0.17639,-0.24695 -0.24695,-0.42334 l 0.635,-0.21166 c 0.17639,0.35277 0.42333,0.52916 0.77611,0.52916 0.21167,0 0.35278,-0.0705 0.49389,-0.17639 0.14111,-0.14111 0.21167,-0.3175 0.21167,-0.49388 0,-0.35278 -0.17639,-0.56445 -0.52917,-0.59973 h -0.21167 v -0.59972 h 0.21167 c 0.24695,0 0.35278,-0.14111 0.35278,-0.38805 0,-0.17639 -0.0353,-0.28223 -0.14111,-0.38806 -0.10584,-0.10583 -0.24695,-0.14111 -0.42334,-0.14111 -0.10583,0 -0.24694,0.0353 -0.35277,0.10583 -0.10584,0.0706 -0.17639,0.17639 -0.24695,0.28222 l -0.59972,-0.17638 c 0.0706,-0.21167 0.21167,-0.42334 0.42333,-0.59973 0.24695,-0.17639 0.49389,-0.24694 0.77611,-0.24694 0.3175,0 0.59973,0.10583 0.84667,0.35278 0.24695,0.21166 0.35278,0.49389 0.35278,0.84666 0,0.28223 -0.0706,0.49389 -0.28222,0.635 0.28222,0.17639 0.42333,0.49389 0.42333,0.84667"
       style="fill:#ffffff;fill-opacity:1;fill-rule:evenodd;stroke:none;stroke-width:0.352778" />
    <path
       id="path202"
       d="m 134.1755,153.24314 h -0.635 v -3.13972 h -0.38806 v -0.52917 c 0.24695,0 0.42334,-0.10583 0.52917,-0.28222 h 0.49389 v 3.95111"
       style="fill:#ffffff;fill-opacity:1;fill-rule:evenodd;stroke:none;stroke-width:0.352778" />
    <path
       id="path203"
       d="m 137.73855,151.79675 c 0,0.38806 -0.14111,0.74083 -0.45861,1.05833 -0.3175,0.3175 -0.74083,0.45861 -1.23472,0.45861 -0.17639,0 -0.35278,0 -0.49389,-0.0353 -0.17639,-0.0353 -0.3175,-0.10584 -0.45861,-0.17639 l 0.35277,-0.56445 c 0.17639,0.10584 0.38806,0.14111 0.59973,0.14111 0.28222,0 0.56444,-0.10583 0.77611,-0.28222 0.21166,-0.21166 0.3175,-0.42333 0.3175,-0.635 0,-0.17639 -0.0706,-0.35278 -0.17639,-0.45861 -0.14111,-0.14111 -0.3175,-0.21167 -0.49389,-0.21167 -0.28222,0 -0.49389,0.10584 -0.70556,0.35278 l -0.56444,-0.21166 0.0706,-1.905 h 2.25777 v 0.59972 h -1.65805 v 0.67028 c 0.17639,-0.10584 0.38805,-0.14112 0.56444,-0.14112 0.38806,0 0.70556,0.14112 0.9525,0.38806 0.24695,0.24694 0.35278,0.56444 0.35278,0.9525"
       style="fill:#ffffff;fill-opacity:1;fill-rule:evenodd;stroke:none;stroke-width:0.352778" />
    <path
       id="path204"
       d="m 121.05217,147.81036 h -0.635 v -3.175 h -0.35278 v -0.49389 c 0.21167,-0.0353 0.38806,-0.10583 0.49389,-0.28222 h 0.49389 v 3.95111"
       style="fill:#ffffff;fill-opacity:1;fill-rule:evenodd;stroke:none;stroke-width:0.352778" />
    <path
       id="path205"
       d="m 128.42522,146.18758 h -1.30528 v -0.635 h 1.30528 v 0.635"
       style="fill:#ffffff;fill-opacity:1;fill-rule:evenodd;stroke:none;stroke-width:0.352778" />
    <path
       id="path206"
       d="m 133.61105,147.81036 h -2.68111 c 0,-0.45861 0.14111,-0.88194 0.35278,-1.23472 0.24694,-0.38806 0.59972,-0.70556 1.05833,-0.9525 0.42333,-0.24695 0.67028,-0.45861 0.635,-0.67028 0,-0.14111 -0.0706,-0.28222 -0.17639,-0.35278 -0.14111,-0.10583 -0.3175,-0.17639 -0.49389,-0.17639 -0.21166,0.0353 -0.35278,0.0706 -0.49389,0.17639 -0.10583,0.0706 -0.21166,0.21167 -0.28222,0.38806 l -0.59972,-0.17639 c 0.10583,-0.28222 0.24694,-0.52917 0.49389,-0.70556 0.24694,-0.21166 0.52916,-0.3175 0.84666,-0.3175 0.35278,0 0.67028,0.14111 0.9525,0.35278 0.24695,0.21167 0.38806,0.49389 0.38806,0.81139 -0.0353,0.49389 -0.3175,0.88194 -0.91722,1.19944 -0.28222,0.14112 -0.49389,0.3175 -0.67028,0.49389 -0.0706,0.0706 -0.14111,0.17639 -0.21167,0.24695 -0.0705,0.10583 -0.10583,0.17639 -0.10583,0.28222 h 1.905 v 0.635"
       style="fill:#ffffff;fill-opacity:1;fill-rule:evenodd;stroke:none;stroke-width:0.352778" />
    <path
       id="path207"
       d="m 85.315778,147.81036 h -2.434167 v -3.95111 h 2.293056 v 0.635 h -1.693333 v 0.9525 H 84.6455 v 0.635 h -1.164166 v 1.09361 h 1.834444 v 0.635"
       style="fill:#ffffff;fill-opacity:1;fill-rule:evenodd;stroke:none;stroke-width:0.352778" />
    <path
       id="path208"
       d="m 87.679388,144.77647 c -0.141111,-0.24694 -0.3175,-0.35278 -0.599722,-0.35278 -0.141111,0 -0.282222,0.0353 -0.388056,0.14111 -0.105833,0.0706 -0.141111,0.17639 -0.141111,0.3175 0,0.10584 0.03528,0.17639 0.141111,0.24695 0.105834,0.0705 0.246945,0.14111 0.458611,0.17639 0.458611,0.0705 0.811389,0.24694 1.023056,0.45861 0.211667,0.24694 0.3175,0.52916 0.3175,0.81139 0,0.35277 -0.141111,0.635 -0.388056,0.91722 -0.246944,0.24694 -0.564444,0.38805 -0.9525,0.38805 -0.3175,0 -0.564444,-0.0705 -0.776111,-0.24694 -0.246944,-0.14111 -0.423333,-0.38806 -0.564444,-0.67028 l 0.599722,-0.3175 c 0.176389,0.38806 0.423333,0.59972 0.740833,0.59972 0.211667,0 0.352778,-0.0705 0.493889,-0.21166 0.141111,-0.14111 0.211667,-0.28222 0.211667,-0.45861 0,-0.14111 -0.03528,-0.24695 -0.141111,-0.38806 -0.141111,-0.10583 -0.3175,-0.21167 -0.599722,-0.24694 -0.388056,-0.0706 -0.670278,-0.17639 -0.881945,-0.35278 -0.176389,-0.17639 -0.282222,-0.38806 -0.282222,-0.635 0,-0.28222 0.105833,-0.52917 0.3175,-0.77611 0.211667,-0.24695 0.493889,-0.38806 0.846667,-0.38806 0.211666,0 0.458611,0.0706 0.635,0.17639 0.176388,0.14111 0.3175,0.3175 0.458611,0.52917 l -0.529167,0.28222"
       style="fill:#ffffff;fill-opacity:1;fill-rule:evenodd;stroke:none;stroke-width:0.352778" />
    <path
       id="path209"
       d="m 91.418835,144.4237 h -0.917222 v 3.38667 h -0.599722 v -3.38667 h -0.917223 v -0.56444 h 2.434167 v 0.56444"
       style="fill:#ffffff;fill-opacity:1;fill-rule:evenodd;stroke:none;stroke-width:0.352778" />
    <path
       id="path210"
       d="m 105.81217,147.81036 h -2.46944 v -3.95111 h 2.32833 v 0.635 h -1.69333 v 0.9525 h 1.16416 v 0.635 h -1.16416 v 1.09361 h 1.83444 v 0.635"
       style="fill:#ffffff;fill-opacity:1;fill-rule:evenodd;stroke:none;stroke-width:0.352778" />
    <path
       id="path211"
       d="m 75.755501,149.29203 -0.564444,3.95111 h -0.564445 l -0.635,-2.50472 -0.599722,2.50472 h -0.529167 l -0.599722,-3.95111 h 0.635 l 0.3175,2.08139 0.493889,-2.08139 h 0.599722 l 0.529167,2.08139 0.282222,-2.08139 h 0.635"
       style="fill:#ffffff;fill-opacity:1;fill-rule:evenodd;stroke:none;stroke-width:0.352778" />
    <path
       id="path212"
       d="m 81.893835,150.20925 c -0.105833,-0.24694 -0.3175,-0.35278 -0.564444,-0.35278 -0.141112,0 -0.282223,0.0353 -0.388056,0.14111 -0.105833,0.10584 -0.141111,0.21167 -0.141111,0.3175 0,0.10584 0.03528,0.17639 0.141111,0.28223 0.07056,0.0705 0.246944,0.10583 0.423333,0.14111 0.493889,0.0705 0.846667,0.24694 1.058334,0.49389 0.211666,0.21166 0.3175,0.49388 0.3175,0.81138 0,0.3175 -0.141111,0.635 -0.388056,0.88195 -0.246944,0.28222 -0.564444,0.38805 -0.9525,0.38805 -0.3175,0 -0.564444,-0.0705 -0.811389,-0.21166 -0.211666,-0.17639 -0.388055,-0.38806 -0.529166,-0.70556 l 0.564444,-0.28222 c 0.211667,0.38806 0.458611,0.56444 0.776111,0.56444 0.176389,0 0.352778,-0.0705 0.493889,-0.21166 0.141111,-0.14111 0.211667,-0.28222 0.211667,-0.45861 0,-0.14111 -0.07056,-0.24695 -0.176389,-0.35278 -0.105834,-0.14111 -0.282222,-0.21167 -0.564445,-0.28222 -0.388055,-0.0353 -0.670277,-0.14111 -0.881944,-0.3175 -0.176389,-0.17639 -0.282222,-0.38806 -0.282222,-0.635 -0.03528,-0.28223 0.07055,-0.56445 0.282222,-0.81139 0.211667,-0.24695 0.493889,-0.35278 0.846667,-0.35278 0.246944,0 0.458611,0.0706 0.635,0.17639 0.211666,0.10583 0.352777,0.28222 0.458611,0.49389 l -0.529167,0.28222"
       style="fill:#ffffff;fill-opacity:1;fill-rule:evenodd;stroke:none;stroke-width:0.352778" />
    <path
       id="path213"
       d="m 86.091888,153.24314 h -0.599722 v -1.69333 h -1.446389 v 1.69333 h -0.635 v -3.95111 h 0.635 v 1.62278 h 1.446389 v -1.62278 h 0.599722 v 3.95111"
       style="fill:#ffffff;fill-opacity:1;fill-rule:evenodd;stroke:none;stroke-width:0.352778" />
    <path
       id="path214"
       d="m 87.714668,153.24314 h -0.635 v -3.95111 h 0.635 v 3.95111"
       style="fill:#ffffff;fill-opacity:1;fill-rule:evenodd;stroke:none;stroke-width:0.352778" />
    <path
       id="path215"
       d="m 91.383555,153.24314 h -0.529167 l -1.516944,-2.64583 v 2.64583 h -0.635 v -3.95111 h 0.635 l 1.446389,2.54 v -2.54 h 0.599722 v 3.95111"
       style="fill:#ffffff;fill-opacity:1;fill-rule:evenodd;stroke:none;stroke-width:0.352778" />
    <path
       id="path216"
       d="m 93.606055,152.67869 c 0.352778,0 0.564444,-0.24694 0.599722,-0.70556 h -0.599722 v -0.67027 h 1.340555 v 0.17639 c 0,0.59972 -0.141111,1.05833 -0.388055,1.37583 -0.211667,0.3175 -0.529167,0.45861 -0.9525,0.45861 -0.458611,0 -0.846667,-0.17639 -1.093611,-0.52917 -0.246944,-0.35277 -0.352778,-0.84666 -0.352778,-1.51694 0,-0.635 0.105834,-1.12889 0.352778,-1.48167 0.246944,-0.35278 0.599722,-0.52916 1.093611,-0.52916 0.282222,0 0.529167,0.0705 0.705556,0.17638 0.211666,0.14112 0.388055,0.3175 0.493888,0.56445 l -0.599722,0.28222 c -0.105833,-0.28222 -0.3175,-0.42333 -0.599722,-0.42333 -0.282222,0 -0.493889,0.14111 -0.599722,0.38805 -0.141111,0.28223 -0.211667,0.635 -0.211667,1.02306 0,0.42333 0.07056,0.77611 0.211667,1.02305 0.105833,0.28223 0.3175,0.38806 0.599722,0.38806"
       style="fill:#ffffff;fill-opacity:1;fill-rule:evenodd;stroke:none;stroke-width:0.352778" />
    <path
       id="path217"
       d="m 98.121611,149.85647 h -0.881944 v 3.38667 h -0.635 v -3.38667 h -0.917223 v -0.56444 h 2.434167 v 0.56444"
       style="fill:#ffffff;fill-opacity:1;fill-rule:evenodd;stroke:none;stroke-width:0.352778" />
    <path
       id="path218"
       d="m 105.14189,153.24314 h -0.56444 l -1.51695,-2.64583 v 2.64583 h -0.59972 v -3.95111 h 0.59972 l 1.44639,2.54 v -2.54 h 0.635 v 3.95111"
       style="fill:#ffffff;fill-opacity:1;fill-rule:evenodd;stroke:none;stroke-width:0.352778" />
    <path
       id="path219"
       d="M 102.77828,147.81036 H 102.108 l -0.635,-1.72861 h -0.77611 v 1.72861 h -0.59972 v -3.95111 h 1.55222 c 0.3175,0 0.56445,0.14111 0.77611,0.35278 0.17639,0.24694 0.24695,0.49389 0.24695,0.74083 0,0.21167 -0.0353,0.42333 -0.14111,0.59972 -0.0706,0.10584 -0.14112,0.17639 -0.21167,0.24695 -0.0706,0.0705 -0.14111,0.14111 -0.24695,0.17639 l 0.70556,1.83444 m -0.70556,-2.82222 c 0,-0.14111 -0.0353,-0.28222 -0.14111,-0.35278 -0.10583,-0.0706 -0.21166,-0.14111 -0.3175,-0.14111 h -0.91722 v 0.98778 h 0.9525 c 0.10583,0 0.21167,-0.0353 0.28222,-0.14111 0.10584,-0.0706 0.14111,-0.21167 0.14111,-0.35278"
       style="fill:#ffffff;fill-opacity:1;fill-rule:evenodd;stroke:none;stroke-width:0.352778" />
    <path
       id="path220"
       d="m 109.55161,147.81036 h -0.67028 l -0.38805,-1.09361 h -1.23473 l -0.38805,1.09361 h -0.67028 l 1.37583,-3.95111 h 0.59973 l 1.37583,3.95111 m -1.27,-1.72861 -0.38806,-1.12889 -0.42333,1.12889 h 0.81139"
       style="fill:#ffffff;fill-opacity:1;fill-rule:evenodd;stroke:none;stroke-width:0.352778" />
    <path
       id="path221"
       d="m 79.530222,153.24314 h -0.670278 l -0.388055,-1.09361 h -1.199445 l -0.388055,1.09361 h -0.670278 l 1.340556,-3.95111 h 0.635 l 1.340555,3.95111 m -1.27,-1.72861 -0.388055,-1.09361 -0.388056,1.09361 h 0.776111"
       style="fill:#ffffff;fill-opacity:1;fill-rule:evenodd;stroke:none;stroke-width:0.352778" />
    <path
       id="path222"
       d="m 100.30883,153.31369 c -0.493889,0 -0.846667,-0.17639 -1.093611,-0.52917 -0.246944,-0.35277 -0.352778,-0.84666 -0.352778,-1.51694 0,-0.635 0.105834,-1.12889 0.352778,-1.48167 0.246944,-0.35278 0.599722,-0.52916 1.093611,-0.52916 0.45861,0 0.81139,0.17638 1.05833,0.52916 0.24695,0.35278 0.35278,0.84667 0.35278,1.48167 0,0.67028 -0.10583,1.16417 -0.35278,1.51694 -0.24694,0.35278 -0.59972,0.52917 -1.05833,0.52917 m 0,-3.45722 c -0.28222,0 -0.493889,0.14111 -0.599722,0.38805 -0.141111,0.28223 -0.211667,0.59973 -0.211667,1.02306 0,0.45861 0.07056,0.81139 0.176389,1.05833 0.141111,0.24695 0.35278,0.35278 0.635,0.35278 0.28222,0 0.49389,-0.14111 0.59972,-0.38806 0.10584,-0.21166 0.17639,-0.56444 0.17639,-1.02305 0,-0.42333 -0.0705,-0.77611 -0.17639,-1.02306 -0.14111,-0.24694 -0.35278,-0.35277 -0.59972,-0.38805"
       style="fill:#ffffff;fill-opacity:1;fill-rule:evenodd;stroke:none;stroke-width:0.352778" />
    <path
       id="path223"
       d="m 99.673834,147.81036 h -0.635 l -0.423333,-1.09361 h -1.199445 l -0.388055,1.09361 h -0.670278 l 1.340556,-3.95111 h 0.635 l 1.340555,3.95111 m -1.27,-1.72861 -0.388055,-1.12889 -0.388056,1.12889 h 0.776111"
       style="fill:#ffffff;fill-opacity:1;fill-rule:evenodd;stroke:none;stroke-width:0.352778" />
    <path
       id="path224"
       d="M 82.281888,147.81036 H 81.61161 l -0.635,-1.72861 h -0.740833 v 1.72861 h -0.635 v -3.95111 h 1.552222 c 0.3175,0 0.564445,0.14111 0.776111,0.35278 0.176389,0.24694 0.282222,0.49389 0.282222,0.74083 0,0.21167 -0.07055,0.42333 -0.176388,0.59972 -0.07056,0.10584 -0.141112,0.17639 -0.211667,0.24695 -0.07056,0.0705 -0.141111,0.14111 -0.246945,0.17639 l 0.705556,1.83444 m -0.705556,-2.82222 c 0,-0.14111 -0.03528,-0.28222 -0.141111,-0.35278 -0.07055,-0.0706 -0.176389,-0.14111 -0.3175,-0.14111 h -0.881944 v 0.98778 h 0.917222 c 0.105833,0 0.211667,-0.0353 0.3175,-0.14111 0.07056,-0.0706 0.105833,-0.21167 0.105833,-0.35278"
       style="fill:#ffffff;fill-opacity:1;fill-rule:evenodd;stroke:none;stroke-width:0.352778" />
    <path
       id="path225"
       d="m 123.34522,147.88092 c -0.49389,0 -0.84667,-0.17639 -1.09361,-0.52917 -0.24695,-0.35277 -0.35278,-0.84666 -0.35278,-1.51694 0,-0.635 0.10583,-1.12889 0.35278,-1.51695 0.24694,-0.35277 0.59972,-0.52916 1.09361,-0.52916 0.45861,0 0.81139,0.17639 1.05833,0.52916 0.24695,0.38806 0.38806,0.88195 0.38806,1.51695 0,0.67028 -0.14111,1.16417 -0.38806,1.51694 -0.24694,0.35278 -0.59972,0.52917 -1.05833,0.52917 m 0,-3.45722 c -0.28222,0 -0.49389,0.14111 -0.59972,0.38805 -0.14111,0.24695 -0.21167,0.59973 -0.21167,1.02306 0,0.45861 0.0706,0.81139 0.17639,1.05833 0.14111,0.21167 0.35278,0.35278 0.635,0.35278 0.28222,-0.0353 0.49389,-0.14111 0.59972,-0.38806 0.10584,-0.24694 0.17639,-0.59972 0.17639,-1.02305 0,-0.45861 -0.0705,-0.77611 -0.17639,-1.02306 -0.14111,-0.24694 -0.35278,-0.38805 -0.59972,-0.38805"
       style="fill:#ffffff;fill-opacity:1;fill-rule:evenodd;stroke:none;stroke-width:0.352778" />
  </g>
</svg>
