<svg xmlns="http://www.w3.org/2000/svg" width="4414.293" height="4414.293" viewBox="0 0 3531.436 3531.436">
    <rect x="469.717" y="469.717" width="2592" height="2592" rx="162" transform="rotate(-45 1765.72 1765.717)" style="fill:#cdff00"/>
    <path d="M1682.987 79.269 79.268 1682.986a117.138 117.138 0 0 0 0 165.463l1603.719 1603.718a117.138 117.138 0 0 0 165.463 0L3452.168 1848.45a117.138 117.138 0 0 0 0-165.463L1848.45 79.268a117.138 117.138 0 0 0-165.463 0ZM3407.62 1727.534a54.056 54.056 0 0 1 0 76.368L1803.902 3407.62a54.056 54.056 0 0 1-76.368 0L123.816 1803.902a54.056 54.056 0 0 1 0-76.368L1727.534 123.816a54.056 54.056 0 0 1 76.368 0Z"/>
    <path d="M974.962 1352.694c33.48 0 60.86-30.349 60.86-65.234-.055-92.017-161.3-91.8-161.3-209.253 0-62.155 48.708-112.106 111.08-112.106 60.912 0 108.11 46.927 109.62 112.16h-59.454c-1.512-30.294-22.843-50.004-50.221-50.004-28.944 0-51.733 21.168-51.733 49.95 0 25.867 16.254 36.18 36.397 48.817 58.429 35.263 124.958 77.816 124.958 160.49 0 69.932-53.299 125.823-120.26 125.823-76.087 0-121.718-64.369-121.718-135.002h60.966c0 36.774 18.198 74.359 60.805 74.359Zm377.56-263.849c-5.993-42.444-22.787-62.155-51.732-62.155-50.22 0-68.527 39.42-68.527 151.527 0 124.31 21.33 174.315 74.63 174.315 36.558 0 45.63-30.349 45.63-62.156h62.425c-1.512 71.228-47.143 122.799-108.056 122.799-92.827 0-133.976-74.252-133.976-233.446 0-139.376 44.119-213.573 129.386-213.573 79.165 0 110.54 72.198 112.646 122.69Zm302.594 121.286H1537.07v195.537h-61.993V973.662h61.993v175.826h117.992V973.662h62.047v432.006h-61.993Zm150.929-21.384c0-226.21 104.923-222.592 128.198-222.592s126.794-3.456 126.794 222.754c0 227.83-103.52 224.265-126.794 224.265s-128.198 3.565-128.198-224.427Zm127.496-162.002c-12.313 0-67.987-2.538-67.987 162.326 0 166.053 55.674 163.514 67.987 163.514s67.934 2.538 67.934-163.514c0-164.864-55.622-162.326-67.934-162.326Zm196.986 162.002c0-226.21 104.924-222.591 128.198-222.591s126.794-3.456 126.794 222.753c0 227.83-103.52 224.266-126.794 224.266s-128.198 3.564-128.198-224.428Zm127.496-162.002c-12.312 0-67.987-2.538-67.987 162.326 0 166.053 55.675 163.514 67.987 163.514s67.933 2.538 67.933-163.514c0-164.864-55.621-162.326-67.933-162.326Zm199.792-53.083h62.317v374.387h158.114v57.62h-220.431ZM569.87 1657.662h203.691v60.643H632.187v109.135h89.641v59.131h-89.64v142.509H790.3v60.589h-220.43Zm342.444 142.507v289.5H850.32v-432.007h61.993l117.991 259.204v-259.204h62.048v432.006h-46.873Zm400.808 289.5h-62.317V1715.28h-79.057v-57.618h220.431v57.618h-79.057Zm263.262-203.098h-59.023v203.098h-61.993v-432.007h128.576c67.772 0 113.456 45.468 113.456 115.183 0 51.517-21.223 89.426-62.047 104.6l61.993 212.224h-63.45Zm-59.023-168.266v109.135h63.505c36.396 0 55.999-19.71 55.999-54.595 0-33.372-22.68-54.54-55.945-54.54Zm430.702 253.155h-92.665l-28.89 118.208h-62.317l107.893-432.006h60.86l107.84 432.006h-62.318Zm-77.49-60.643h62.317l-31.915-124.31Zm295.394-110.648v289.5h-61.993v-432.007h61.993l117.992 259.204v-259.204h62.047v432.006h-46.873Zm443.361-27.324c-5.994-42.444-22.788-62.155-51.732-62.155-50.22 0-68.527 39.421-68.527 151.526 0 124.31 21.33 174.316 74.629 174.316 36.558 0 45.63-30.349 45.63-62.156h62.425c-1.511 71.227-47.142 122.798-108.055 122.798-92.827 0-133.976-74.25-133.976-233.445 0-139.377 44.118-213.574 129.386-213.574 79.165 0 110.54 72.2 112.645 122.69Zm131.807-115.183h203.691v60.643h-141.374v109.135h89.641v59.131h-89.641v142.509h158.114v60.589h-220.431Z"/>
</svg>
