<?xml version="1.0" encoding="UTF-8" standalone="no"?>
<!-- Created with Inkscape (http://www.inkscape.org/) -->

<svg
   xmlns:dc="http://purl.org/dc/elements/1.1/"
   xmlns:cc="http://creativecommons.org/ns#"
   xmlns:rdf="http://www.w3.org/1999/02/22-rdf-syntax-ns#"
   xmlns:svg="http://www.w3.org/2000/svg"
   xmlns="http://www.w3.org/2000/svg"
   xmlns:sodipodi="http://sodipodi.sourceforge.net/DTD/sodipodi-0.dtd"
   xmlns:inkscape="http://www.inkscape.org/namespaces/inkscape"
   width="32.701214in"
   height="32.701214in"
   viewBox="0 0 830.61086 830.61086"
   version="1.1"
   id="svg1530"
   inkscape:version="0.92.2 5c3e80d, 2017-08-06"
   sodipodi:docname="MUTCD-OH_W15-H2.svg">
  <defs
     id="defs1524" />
  <sodipodi:namedview
     id="base"
     pagecolor="#ffffff"
     bordercolor="#666666"
     borderopacity="1.0"
     inkscape:pageopacity="0.0"
     inkscape:pageshadow="2"
     inkscape:zoom="0.125"
     inkscape:cx="964.66157"
     inkscape:cy="2140.5953"
     inkscape:document-units="in"
     inkscape:current-layer="layer2"
     showgrid="false"
     units="in"
     inkscape:window-width="1440"
     inkscape:window-height="855"
     inkscape:window-x="0"
     inkscape:window-y="1"
     inkscape:window-maximized="1"
     fit-margin-top="0"
     fit-margin-left="0"
     fit-margin-right="0"
     fit-margin-bottom="0"
     showguides="false"
     inkscape:snap-object-midpoints="false" />
  <metadata
     id="metadata1527">
    <rdf:RDF>
      <cc:Work
         rdf:about="">
        <dc:format>image/svg+xml</dc:format>
        <dc:type
           rdf:resource="http://purl.org/dc/dcmitype/StillImage" />
        <dc:title></dc:title>
      </cc:Work>
    </rdf:RDF>
  </metadata>
  <g
     inkscape:label="Sign Back"
     inkscape:groupmode="layer"
     id="layer1"
     transform="translate(248.63721,284.97372)"
     sodipodi:insensitive="true">
    <rect
       style="opacity:1;fill:#fcd116;fill-opacity:1;fill-rule:nonzero;stroke:none;stroke-width:8.76299953;stroke-linecap:round;stroke-linejoin:round;stroke-miterlimit:4;stroke-dasharray:none;stroke-opacity:1"
       id="rect2075"
       x="-514.81061"
       y="-279.1062"
       rx="38.099998"
       ry="38.099998"
       height="609.59998"
       width="609.59998"
       transform="rotate(-135)" />
    <rect
       width="574.67499"
       height="574.67499"
       ry="25.400002"
       rx="25.4"
       y="-261.64368"
       x="-497.34814"
       id="rect2115"
       style="opacity:1;fill:none;fill-opacity:1;fill-rule:nonzero;stroke:#000000;stroke-width:15.875;stroke-linecap:round;stroke-linejoin:round;stroke-miterlimit:4;stroke-dasharray:none;stroke-opacity:1"
       transform="rotate(-135)" />
  </g>
  <g
     inkscape:groupmode="layer"
     id="layer2"
     inkscape:label="Legends"
     transform="translate(110.50544,-318.15805)">
    <g
       aria-label="ZONE"
       style="font-style:normal;font-variant:normal;font-weight:normal;font-stretch:normal;font-size:171.95359802px;line-height:125%;font-family:'Roadgeek 2014 Series D';-inkscape-font-specification:'Roadgeek 2014 Series D';text-align:center;letter-spacing:0px;word-spacing:0px;text-anchor:middle;fill:#000000;fill-opacity:1;stroke:none;stroke-width:2.68677497px;stroke-linecap:butt;stroke-linejoin:miter;stroke-opacity:1"
       id="text862">
      <path
         d="m 209.59124,884.19318 h -66.81625 v -13.16674 l 44.70793,-69.66577 h -41.07234 v -15.42669 h 63.18066 v 9.43288 l -45.49401,73.00659 h 45.49401 z"
         style="text-align:center;text-anchor:middle;stroke-width:2.68677497px"
         id="path868" />
      <path
         d="m 293.92681,835.2601 q 0,11.98762 -2.84952,22.69787 -2.75125,10.71025 -7.76247,16.99884 -8.05726,10.90677 -23.87699,10.90677 -10.21896,0 -17.0971,-4.22514 -6.87814,-4.22515 -11.20155,-13.26499 -6.87814,-13.46151 -6.87814,-33.11335 0,-24.76132 10.71025,-39.89324 8.54855,-11.10329 25.0561,-11.10329 18.17795,0 27.31605,17.5884 6.58337,13.55977 6.58337,33.40813 z m -15.52495,0 q 0,-17.68666 -5.89556,-27.61084 -4.02862,-7.07466 -12.77369,-7.56596 -10.90677,-0.49129 -15.81973,12.08588 -3.73385,9.23637 -3.73385,23.09092 0,17.98143 5.79729,27.21779 4.42167,7.56596 13.46151,7.56596 10.21896,0 15.13192,-12.47892 3.83211,-9.82592 3.83211,-22.30483 z"
         style="text-align:center;text-anchor:middle;stroke-width:2.68677497px"
         id="path870" />
      <path
         d="M 382.37774,884.19318 H 368.5232 L 330.98818,817.6717 v 66.52148 h -15.42669 v -98.2592 h 15.42669 l 35.86461,62.78763 v -62.78763 h 15.52495 z"
         style="text-align:center;text-anchor:middle;stroke-width:2.68677497px"
         id="path872" />
      <path
         d="m 466.825,884.19318 h -60.92071 v -98.2592 h 57.87467 v 15.42669 h -42.44797 v 24.27002 h 28.69168 v 15.81973 h -28.69168 v 26.92303 H 466.825 Z"
         style="text-align:center;text-anchor:middle;stroke-width:2.68677497px"
         id="path874" />
    </g>
    <g
       aria-label="SAFETY"
       style="font-style:normal;font-variant:normal;font-weight:normal;font-stretch:normal;font-size:171.95359802px;line-height:125%;font-family:'Roadgeek 2014 Series D';-inkscape-font-specification:'Roadgeek 2014 Series D';text-align:center;letter-spacing:0px;word-spacing:0px;text-anchor:middle;fill:#000000;fill-opacity:1;stroke:none;stroke-width:2.68677497px;stroke-linecap:butt;stroke-linejoin:miter;stroke-opacity:1"
       id="text866">
      <path
         d="m 138.03398,703.4945 q 0,13.75629 -9.6294,22.4031 -8.54855,7.56596 -21.32225,7.56596 -12.282396,0 -21.617019,-6.58337 -9.236365,-6.68162 -14.247584,-18.17795 l 14.73888,-5.50252 q 6.583366,14.44411 21.125723,14.44411 6.58337,0 10.80852,-4.12689 4.3234,-4.12689 4.3234,-10.31722 0,-3.73384 -1.57215,-6.58336 -1.47388,-2.84952 -4.8147,-4.8147 -3.24255,-2.06345 -5.99381,-3.24256 -2.75126,-1.17911 -7.95899,-2.94777 -5.109482,-1.76867 -7.664221,-2.75126 -19.062284,-7.56596 -18.964025,-24.46654 0,-13.75629 8.253773,-20.14314 8.352031,-6.38684 22.501353,-6.38684 19.65184,0 27.80736,19.94661 l -13.85455,4.02863 q -0.29478,-0.88433 -1.27737,-2.25996 -0.88433,-1.37563 -4.61818,-3.73385 -3.63559,-2.35822 -8.54855,-2.55474 -6.386851,-0.29478 -11.005033,2.55474 -4.618183,2.84952 -4.126887,8.94159 0.294778,4.91296 5.305997,7.86073 5.109483,2.84952 11.987623,4.8147 6.9764,1.96519 13.85455,4.8147 6.87814,2.84952 11.69284,9.62941 4.8147,6.77988 4.8147,17.58839 z"
         style="text-align:center;text-anchor:middle;stroke-width:2.68677497px"
         id="path877" />
      <path
         d="m 228.95291,731.79315 h -16.50754 l -9.72766,-27.61083 h -30.65687 l -9.6294,27.61083 h -16.60581 l 33.80117,-98.2592 h 15.52495 z m -31.63946,-43.43056 -9.72766,-27.61084 -9.92418,27.61084 z"
         style="text-align:center;text-anchor:middle;stroke-width:2.68677497px"
         id="path879" />
      <path
         d="m 304.58908,648.96065 h -45.49401 v 24.27002 h 28.69169 v 15.81973 h -28.69169 v 42.74275 h -15.42669 v -98.2592 h 60.9207 z"
         style="text-align:center;text-anchor:middle;stroke-width:2.68677497px"
         id="path881" />
      <path
         d="m 380.15464,731.79315 h -60.92071 v -98.2592 h 57.87467 v 15.4267 h -42.44797 v 24.27002 h 28.69168 v 15.81973 h -28.69168 v 26.92302 h 45.49401 z"
         style="text-align:center;text-anchor:middle;stroke-width:2.68677497px"
         id="path883" />
      <path
         d="m 448.69542,647.29024 h -22.69788 v 84.50291 h -15.52495 v -84.50291 h -22.50136 v -13.75629 h 60.72419 z"
         style="text-align:center;text-anchor:middle;stroke-width:2.68677497px"
         id="path885" />
      <path
         d="m 538.38227,633.53395 -33.99768,55.51645 v 42.74275 H 488.76137 V 689.0504 l -34.29246,-55.51645 h 18.47273 l 23.58221,38.02631 23.68047,-38.02631 z"
         style="text-align:center;text-anchor:middle;stroke-width:2.68677497px"
         id="path887" />
    </g>
  </g>
</svg>
