<?xml version="1.0" encoding="UTF-8"?>
<svg width="10800" height="5400" viewBox="0 0 8640 4320" xmlns="http://www.w3.org/2000/svg">
<defs>
<style>.a{fill:#fff;}</style>
</defs>
<rect class="a" x="4e-4" y="2e-4" width="8640" height="4320" rx="432"/>
<path d="m8208 9a422.64 422.64 0 0 1 423 423v3456a422.64 422.64 0 0 1-423 423h-7776a422.64 422.64 0 0 1-423-423v-3456a422.64 422.64 0 0 1 423-423h7776m0-9h-7776c-238.59 0-432 193.41-432 432v3456c0 238.59 193.41 432 432 432h7776c238.59 0 432-193.41 432-432v-3456c0-238.59-193.41-432-432-432z"/>
<path d="M8586,432c4.2-203.18-174.81-382.2-378-378H432C228.82,49.8,49.8,228.82,54,432V3888c-4.2,203.18,174.82,382.2,378,378H8208c203.18,4.2,382.2-174.82,378-378ZM8215.01,4176.07c-2.34.01-4.68-.06-7.01-.07H432c-148.65,6.65-294.61-136.44-288-288V432c-6.61-151.56,139.37-294.63,288-288H8208c148.66-6.63,294.61,136.43,288,288V3888C8502.58,4037,8360.93,4178.54,8215.01,4176.07Z"/>
<path d="m1801.5 2448h-536.52v-719h131v590h405.52zm712.33 0h-536.52v-719h524.7v129h-393.7v134h214.55v131h-214.55v196h405.52zm712.33-590h-405.52v146h224.2v132h-224.2v312h-131v-719h536.52zm686.86-2h-207.05v592h-126v-592h-207.06v-127h540.11zm1247.4 592h-536.52v-719h131v590h405.52zm764.02 0h-139.47l-69.734-168h-313.25l-70.812 168h-140.53l302.53-719h130.88zm-264.98-297-100.84-242.45-100.84 242.45zm986.7 297h-110.31l-342.69-485.06v485.06h-126v-719h126l330 479.69v-479.69h123zm729.55 0h-536.52v-719h524.7v129h-393.7v134h214.55v131h-214.55v196h405.52z"/>
<path d="m1383.2 3744h-110.31l-342.69-485.06v485.06h-126v-719h126l330 479.69v-479.69h123zm692.01 0h-536.52v-719h524.7v129h-393.7v134h214.55v131h-214.55v196h405.52zm755.43 0h-151.27l-160.92-254.33-158.77 254.33h-151.27l234.94-377.75-214.55-341.25h153.41l136.23 220 136.25-220h153.41l-211.33 341.25zm645.9-592h-207.05v592h-126v-592h-207.06v-127h540.11z"/>
<path d="m1363.8 631.95h-207.05v592h-126v-592h-207.06v-127h540.11zm701.64 592h-144.02l-115.55-282h-190.45v282h-129v-719h330.25q70.758 0 123.31 30.047 110.44 64.406 110.44 189.95 0 127.71-116.09 191.02zm-144.02-498.89q0-41.789-27.828-66.453-27.82-24.656-74.891-24.656h-203.28v179h203.28q47.062 0 74.891-24.109 27.82-24.117 27.828-63.781zm897.42 209.22q0 132.02-81.641 217.34-81.633 85.336-208.36 85.328-126.75 0-208.38-85.328-81.633-85.312-81.625-217.34v-429.33h129v429.28q0 54.75 22.531 93.375 47.203 78.352 138.44 78.344 92.273 0 138.42-78.344 23.602-38.625 23.609-93.375v-429.28h128zm770.06 143.84q-99.774 158.84-277.84 158.83-140.55 0-222.67-101.98-82.125-102-82.125-271.62 0-170.7 81.594-270.55 81.586-99.844 223.2-99.844 179.16 0 277.84 159.11l-116.92 57.922q-55.805-85.805-160.92-89.031-81.539 2.1563-127.67 72.438-46.125 70.312-46.125 167.95 0 115.92 47.734 179.77 47.742 63.844 128.2 63.844 107.27-1.078 155.56-86.906zm734.45 145.83h-146.97l-183.45-373.45-136.25 171.7v201.75h-129v-719h129v305.84l254.27-305.84h166.28l-190.97 235.02zm704.03-208.86q-1.078 95.391-74.734 158.62-73.641 63.234-205.59 63.234-175.95 0-286.44-147.67l107.28-72.953q72.938 95.484 183.44 97.625 68.648 1.0782 107.81-26.828 39.164-27.891 40.234-74.047 3.2345-38.625-31.109-63.312-34.336-24.68-139.47-49.375-146.98-34.336-196.86-84.781-49.875-50.438-50.953-118.05-2.1562-78.328 67.047-138.97 69.188-60.633 179.7-60.641 174.87 8.625 268.45 136.64l-102.17 67.594q-59.016-68.648-166.28-77.234-57.938 0-87.984 21.438-30.047 21.445-27.875 48.234-1.078 30 32.172 49.297 33.258 19.312 95.484 31.078 150.19 27.891 218.47 90.578 68.296 62.719 69.374 149.52zm1303.6-80.812q0 132.02-81.641 217.34-81.633 85.336-208.36 85.328-126.75 0-208.38-85.328-81.633-85.312-81.625-217.34v-429.33h129v429.28q0 54.75 22.531 93.375 47.203 78.352 138.44 78.344 92.274 0 138.42-78.344 23.602-38.625 23.609-93.375v-429.28h128zm752.42 80.812q-1.0782 95.391-74.734 158.62-73.641 63.234-205.59 63.234-175.95 0-286.44-147.67l107.28-72.953q72.938 95.484 183.44 97.625 68.648 1.0782 107.81-26.828 39.164-27.891 40.234-74.047 3.2343-38.625-31.109-63.312-34.336-24.68-139.47-49.375-146.98-34.336-196.86-84.781-49.875-50.438-50.953-118.05-2.1562-78.328 67.047-138.97 69.188-60.633 179.7-60.641 174.87 8.625 268.45 136.64l-102.17 67.594q-59.016-68.648-166.28-77.234-57.938 0-87.984 21.438-30.047 21.445-27.875 48.234-1.0782 30 32.172 49.297 33.258 19.312 95.484 31.078 150.19 27.891 218.47 90.578 68.297 62.719 69.375 149.52zm732.88 208.86h-536.52v-719h524.7v129h-393.7v134h214.55v131h-214.55v196h405.52z"/>
<path d="m6123 3743.9h-126v-438.91l-211.03 438.91-209.97-438.91v438.91h-126v-719h126l209.97 427.11 211.03-427.11h126zm311.87 0h-129v-719h129zm708.99 0h-536.52v-719h131v590h405.52zm691.94 0h-536.52v-719h524.7v129h-393.7v134h214.55v131h-214.55v196h405.52z"/>
<path d="m4580 3816h-152v-645.31h-108v-130.09q93.938-19.312 136.44-87.594h123.56z"/>
</svg>
