<?xml version="1.0" encoding="UTF-8" standalone="no"?>
<!-- Created with Inkscape (http://www.inkscape.org/) -->

<svg
   xmlns:dc="http://purl.org/dc/elements/1.1/"
   xmlns:cc="http://creativecommons.org/ns#"
   xmlns:rdf="http://www.w3.org/1999/02/22-rdf-syntax-ns#"
   xmlns:svg="http://www.w3.org/2000/svg"
   xmlns="http://www.w3.org/2000/svg"
   xmlns:sodipodi="http://sodipodi.sourceforge.net/DTD/sodipodi-0.dtd"
   xmlns:inkscape="http://www.inkscape.org/namespaces/inkscape"
   width="48in"
   height="24in"
   viewBox="0 0 1219.2 609.60002"
   version="1.1"
   id="svg905"
   inkscape:version="0.92.2 5c3e80d, 2017-08-06"
   sodipodi:docname="MUTCD-OH_I-H2e.svg">
  <defs
     id="defs899" />
  <sodipodi:namedview
     id="base"
     pagecolor="#ffffff"
     bordercolor="#666666"
     borderopacity="1.0"
     inkscape:pageopacity="0.0"
     inkscape:pageshadow="2"
     inkscape:zoom="0.0875"
     inkscape:cx="1596.0465"
     inkscape:cy="1711.8202"
     inkscape:document-units="in"
     inkscape:current-layer="layer3"
     showgrid="false"
     units="in"
     inkscape:window-width="1440"
     inkscape:window-height="855"
     inkscape:window-x="0"
     inkscape:window-y="1"
     inkscape:window-maximized="1" />
  <metadata
     id="metadata902">
    <rdf:RDF>
      <cc:Work
         rdf:about="">
        <dc:format>image/svg+xml</dc:format>
        <dc:type
           rdf:resource="http://purl.org/dc/dcmitype/StillImage" />
        <dc:title></dc:title>
      </cc:Work>
    </rdf:RDF>
  </metadata>
  <g
     inkscape:label="Sign Back"
     inkscape:groupmode="layer"
     id="layer1"
     transform="translate(0,312.60002)"
     sodipodi:insensitive="true">
    <rect
       style="opacity:1;fill:#ffffff;fill-opacity:1;fill-rule:nonzero;stroke:#000000;stroke-width:1.89473808;stroke-linecap:round;stroke-linejoin:round;stroke-miterlimit:4;stroke-dasharray:none;stroke-opacity:1"
       id="rect2300"
       width="1217.295"
       height="607.69501"
       x="0.94736904"
       y="-311.6424"
       rx="47.625"
       ry="47.625" />
    <rect
       style="opacity:1;fill:#006747;fill-opacity:1;fill-rule:nonzero;stroke:none;stroke-width:19.05000114;stroke-linecap:round;stroke-linejoin:round;stroke-miterlimit:4;stroke-dasharray:none;stroke-opacity:1"
       id="rect842"
       width="1181.1"
       height="571.5"
       x="19.050001"
       y="-293.55002"
       rx="28.575001"
       ry="28.575001" />
  </g>
  <g
     inkscape:groupmode="layer"
     id="layer3"
     inkscape:label="Legends"
     transform="translate(0,-152.4)">
    <g
       aria-label="Liberty"
       style="font-style:normal;font-variant:normal;font-weight:normal;font-stretch:normal;font-size:266.70001221px;line-height:125%;font-family:'Roadgeek 2014 Series E';-inkscape-font-specification:'Roadgeek 2014 Series E';text-align:center;letter-spacing:13.22916698px;word-spacing:0px;text-anchor:middle;fill:#ffffff;fill-opacity:1;stroke:none;stroke-width:4.16718769px;stroke-linecap:butt;stroke-linejoin:miter;stroke-opacity:1"
       id="text2221">
      <path
         d="M 344.15187,444.5 H 230.30907 V 292.09999 h 27.1272 V 421.0304 h 86.7156 z"
         style="letter-spacing:13.22916698px;fill:#ffffff;stroke-width:4.16718769px"
         id="path3583" />
      <path
         d="m 404.93222,302.76799 q 0,5.7912 -4.2672,9.906 -4.1148,4.1148 -9.7536,4.1148 -5.9436,0 -9.906,-3.9624 -3.9624,-4.1148 -3.9624,-10.0584 0,-5.7912 3.81,-9.4488 3.9624,-3.81 10.0584,-3.81 5.7912,0 9.906,3.9624 4.1148,3.81 4.1148,9.2964 z m 0,30.48 V 444.5 h -27.432 V 333.24799 Z"
         style="letter-spacing:13.22916698px;fill:#ffffff;stroke-width:4.16718769px"
         id="path3585" />
      <path
         d="m 539.21342,389.4836 q 0,11.7348 -4.1148,22.7076 -3.9624,10.9728 -10.9728,18.7452 -6.858,7.7724 -15.24,12.4968 -8.382,4.7244 -17.9832,3.9624 -9.4488,-0.6096 -17.9832,-7.0104 V 444.5 h -27.432 V 299.56759 l 27.432,-10.0584 v 48.00601 q 17.9832,-9.90601 32.6136,-4.26721 14.7828,5.48641 24.2316,21.64081 9.4488,16.002 9.4488,34.5948 z m -27.432,-0.6096 q 0,-13.8684 -5.6388,-22.86 -5.6388,-8.9916 -15.8496,-8.2296 -5.7912,0.3048 -10.9728,4.2672 -5.1816,3.81 -6.4008,7.4676 v 38.7096 q 6.2484,12.3444 16.9164,12.192 9.906,0 15.8496,-8.9916 6.096,-8.9916 6.096,-22.5552 z"
         style="letter-spacing:13.22916698px;fill:#ffffff;stroke-width:4.16718769px"
         id="path3587" />
      <path
         d="m 665.31385,397.5608 h -67.818 q 0.4572,1.524 1.0668,3.6576 1.8288,9.4488 7.62,15.24 5.9436,5.6388 13.2588,5.6388 9.906,0 17.6784,-9.144 l 17.9832,16.1544 -1.0668,1.0668 q -13.5636,16.9164 -34.5948,16.9164 -20.4216,0 -34.5948,-16.764 -14.0208,-16.9164 -14.0208,-41.4528 0,-24.0792 13.716,-40.5384 13.716,-16.61161 33.8328,-16.61161 20.574,0 33.6804,16.91641 5.7912,6.858 9.4488,18.5928 3.81,11.7348 3.81,22.2504 z m -26.67,-21.4884 q -3.3528,-11.43 -7.62,-15.5448 -4.1148,-4.2672 -11.5824,-4.2672 -15.6972,0 -20.4216,19.812 z"
         style="letter-spacing:13.22916698px;fill:#ffffff;stroke-width:4.16718769px"
         id="path3589" />
      <path
         d="m 768.79299,337.9724 -8.6868,26.3652 q -5.7912,-6.5532 -14.6304,-6.5532 -7.77241,0 -13.86841,6.096 -5.7912,4.4196 -5.6388,15.3924 V 444.5 h -27.432 V 333.24799 h 27.432 v 8.07721 q 5.7912,-5.7912 10.2108,-7.62001 4.4196,-1.9812 11.12521,-1.9812 12.8016,0 21.4884,6.24841 z"
         style="letter-spacing:13.22916698px;fill:#ffffff;stroke-width:4.16718769px"
         id="path3591" />
      <path
         d="m 857.12499,414.02 -4.2672,27.2796 q -10.9728,5.7912 -20.2692,5.7912 -13.1064,0 -20.4216,-9.144 -7.3152,-9.144 -7.3152,-24.9936 v -53.4924 h -18.288 v -25.60321 h 18.288 v -34.29 l 27.7368,-10.0584 v 44.3484 h 22.86 v 25.60321 h -22.86 v 43.7388 q 0,16.764 12.192,16.764 5.4864,0 12.3444,-5.9436 z"
         style="letter-spacing:13.22916698px;fill:#ffffff;stroke-width:4.16718769px"
         id="path3593" />
      <path
         d="M 991.95924,333.24799 934.19964,486.7148 H 906.31043 L 922.46483,444.5 874.76363,333.24799 h 27.8892 l 32.61361,76.50481 28.6512,-76.50481 z"
         style="letter-spacing:13.22916698px;fill:#ffffff;stroke-width:4.16718769px"
         id="path3595" />
    </g>
    <g
       aria-label="TOWNSHIP LIMIT"
       style="font-style:normal;font-variant:normal;font-weight:normal;font-stretch:normal;font-size:128.96517944px;line-height:125%;font-family:'Roadgeek 2014 Series E';-inkscape-font-specification:'Roadgeek 2014 Series E';text-align:center;letter-spacing:0px;word-spacing:13.22916698px;text-anchor:middle;fill:#ffffff;fill-opacity:1;stroke:none;stroke-width:2.01508093px;stroke-linecap:butt;stroke-linejoin:miter;stroke-opacity:1"
       id="text2225">
      <path
         d="m 220.14109,598.42304 h -21.22398 v 60.72418 H 185.8732 v -60.72418 h -21.07659 v -12.97021 h 55.34448 z"
         style="word-spacing:13.22916698px;fill:#ffffff;stroke-width:2.01508093px"
         id="path3556" />
      <path
         d="m 292.25595,621.93155 q 0,17.31818 -8.32747,27.93017 -8.32747,10.5383 -22.2557,10.5383 -15.18105,0 -23.21374,-11.42263 -8.03269,-11.42263 -8.03269,-26.82476 0,-17.68665 8.32747,-27.78278 8.40116,-10.16983 22.91896,-10.16983 13.48607,0 22.03462,10.46461 8.54855,10.4646 8.54855,27.26692 z m -13.26499,0.22108 q 0,-11.7174 -4.49536,-18.20251 -4.49536,-6.5588 -12.82282,-6.5588 -8.32747,0 -13.04391,6.63249 -4.71644,6.5588 -4.71644,18.12882 0,11.8648 4.71644,18.4973 4.71644,6.63249 13.04391,6.63249 6.5588,0 10.68568,-4.05319 4.12689,-4.12689 5.37969,-9.35919 1.25281,-5.30599 1.25281,-11.71741 z"
         style="word-spacing:13.22916698px;fill:#ffffff;stroke-width:2.01508093px"
         id="path3558" />
      <path
         d="m 380.62012,585.45283 -13.1176,73.69439 h -14.00193 l -11.8648,-49.37524 -11.64371,49.37524 h -14.00194 l -13.41237,-73.69439 h 13.63346 l 8.10638,47.53288 10.83308,-47.53288 h 13.1176 l 11.42263,47.53288 7.51682,-47.53288 z"
         style="word-spacing:13.22916698px;fill:#ffffff;stroke-width:2.01508093px"
         id="path3560" />
      <path
         d="m 452.55938,659.14722 h -11.34894 l -35.22591,-50.62805 v 50.62805 h -12.89652 v -73.69439 h 12.89652 l 33.82572,48.5646 v -48.5646 h 12.74913 z"
         style="word-spacing:13.22916698px;fill:#ffffff;stroke-width:2.01508093px"
         id="path3562" />
      <path
         d="m 526.72588,637.70215 q 0,11.12785 -10.31721,17.24449 -8.10639,4.93752 -18.57099,4.93752 -18.27621,0 -30.58317,-14.14932 l 10.61199,-8.32747 q 7.81161,9.35919 19.6764,9.35919 6.92728,0 11.49633,-2.72669 4.56905,-2.80039 4.56905,-6.85358 0,-4.42166 -4.71644,-6.70619 -5.306,-2.13714 -8.76963,-2.87408 l -3.46364,-1.03172 -3.24255,-0.73695 -3.68472,-1.03172 q -10.31722,-2.43191 -14.5178,-7.29574 -4.56905,-4.93753 -4.56905,-12.38066 0,-9.06441 7.00097,-14.73888 7.07466,-5.74816 18.27621,-5.74816 16.43384,0 27.41431,11.42263 l -9.72766,8.76963 q -6.77988,-7.22205 -17.68665,-7.14835 -5.52708,0 -8.69594,1.98975 -3.16886,1.91605 -3.16886,5.45338 0,3.16886 2.35822,4.79014 2.43191,1.62127 9.28549,3.16885 12.89652,2.653 20.41335,6.26403 4.93752,2.50561 7.73791,7.44313 2.87408,4.93752 2.87408,10.90677 z"
         style="word-spacing:13.22916698px;fill:#ffffff;stroke-width:2.01508093px"
         id="path3564" />
      <path
         d="m 600.9197,659.14722 h -13.26499 v -32.27815 l -33.08878,0.22109 v 32.05706 h -13.1176 v -73.69439 h 13.1176 v 28.51973 h 33.08878 v -28.51973 h 13.26499 z"
         style="word-spacing:13.22916698px;fill:#ffffff;stroke-width:2.01508093px"
         id="path3566" />
      <path
         d="m 633.15409,659.14722 h -13.1176 v -73.69439 h 13.1176 z"
         style="word-spacing:13.22916698px;fill:#ffffff;stroke-width:2.01508093px"
         id="path3568" />
      <path
         d="m 711.23331,607.92962 q 0,5.82185 -3.09517,11.20154 -3.09516,5.306 -8.25377,8.18008 -5.306,2.87408 -13.26499,2.94778 h -20.92921 v 28.8882 H 652.2778 v -73.69439 h 34.34158 q 7.44313,0 13.26499,3.09516 5.306,3.02147 8.32747,8.10639 3.02147,5.08491 3.02147,11.27524 z m -13.26499,0 q 0,-4.20058 -2.94778,-6.70619 -2.94777,-2.50561 -7.8853,-2.50561 h -21.44507 v 18.27621 h 21.44507 q 4.79014,0 7.81161,-2.50561 3.02147,-2.50561 3.02147,-6.5588 z"
         style="word-spacing:13.22916698px;fill:#ffffff;stroke-width:2.01508093px"
         id="path3570" />
      <path
         d="m 836.17193,659.14722 h -55.04971 v -73.69439 h 13.1176 v 62.34545 h 41.93211 z"
         style="word-spacing:13.22916698px;fill:#ffffff;stroke-width:2.01508093px"
         id="path3572" />
      <path
         d="m 861.74507,659.14722 h -13.1176 v -73.69439 h 13.1176 z"
         style="word-spacing:13.22916698px;fill:#ffffff;stroke-width:2.01508093px"
         id="path3574" />
      <path
         d="m 949.92038,659.14722 h -12.97021 v -44.95358 l -21.73985,44.95358 -21.44506,-44.95358 v 44.95358 h -12.89652 v -73.69439 h 12.89652 l 21.44506,43.62708 21.73985,-43.62708 h 12.97021 z"
         style="word-spacing:13.22916698px;fill:#ffffff;stroke-width:2.01508093px"
         id="path3576" />
      <path
         d="m 982.14613,659.14722 h -13.1176 v -73.69439 h 13.1176 z"
         style="word-spacing:13.22916698px;fill:#ffffff;stroke-width:2.01508093px"
         id="path3578" />
      <path
         d="m 1049.9818,598.42304 h -21.224 v 60.72418 h -13.0439 v -60.72418 h -21.07659 v -12.97021 h 55.34449 z"
         style="word-spacing:13.22916698px;fill:#ffffff;stroke-width:2.01508093px"
         id="path3580" />
    </g>
  </g>
</svg>
