<svg width="6278.633" height="6278.633" viewBox="0 0 1661.222 1661.222" xmlns="http://www.w3.org/2000/svg">
    <g transform="rotate(-135 432.366 320.394)">
        <rect style="opacity:1;fill:#dd7500;fill-opacity:1;fill-rule:nonzero;stroke:none;stroke-width:8.763;stroke-linecap:round;stroke-linejoin:round;stroke-miterlimit:4;stroke-dasharray:none;stroke-opacity:1" x="-819.612" y="-368.382" rx="76.2" ry="76.2" height="1219.2" width="1219.2"/>
        <rect width="1149.35" height="1149.35" ry="41.275" rx="41.275" y="-333.457" x="-784.687" style="opacity:1;fill:none;fill-opacity:1;fill-rule:nonzero;stroke:#000;stroke-width:31.75;stroke-linecap:round;stroke-linejoin:round;stroke-miterlimit:4;stroke-dasharray:none;stroke-opacity:1"/>
    </g>
    <path d="M193.676 671.49q0 17.78-12.446 28.956-11.05 9.779-27.56 9.779-15.874 0-27.94-8.51-11.937-8.635-18.414-23.494l19.05-7.112q8.509 18.669 27.305 18.669 8.509 0 13.97-5.334 5.588-5.334 5.588-13.335 0-4.826-2.032-8.51-1.905-3.682-6.223-6.222-4.191-2.667-7.747-4.191t-10.287-3.81q-6.604-2.286-9.906-3.556-24.638-9.78-24.511-31.623 0-17.78 10.668-26.035 10.795-8.255 29.083-8.255 25.4 0 35.94 25.78l-17.906 5.208q-.381-1.143-1.651-2.921-1.143-1.778-5.97-4.826-4.698-3.048-11.048-3.302-8.255-.381-14.224 3.302-5.97 3.683-5.334 11.557.38 6.35 6.858 10.16 6.604 3.683 15.494 6.223 9.017 2.54 17.907 6.223t15.113 12.446q6.223 8.763 6.223 22.733zm100.33 36.576h-78.74v-127h19.939v108.33h58.8zm106.552-63.246q0 15.494-3.683 29.337-3.556 13.843-10.033 21.97-10.414 14.098-30.86 14.098-13.209 0-22.099-5.461t-14.478-17.145q-8.89-17.4-8.89-42.8 0-32.003 13.843-51.561 11.05-14.351 32.385-14.351 23.495 0 35.306 22.733 8.51 17.526 8.51 43.18zm-20.066 0q0-22.86-7.62-35.687-5.207-9.144-16.51-9.78-14.097-.634-20.447 15.622-4.826 11.938-4.826 29.845 0 23.24 7.493 35.179 5.715 9.779 17.4 9.779 13.207 0 19.557-16.13 4.953-12.7 4.953-28.828zm149.48-63.754-18.67 127h-17.907l-20.193-81.534-19.558 81.534h-17.907l-18.669-127h20.701l9.78 66.929 15.874-66.93h19.812l16.256 66.93 9.78-66.93zm39.496 127H549.02v-127h20.447zm116.84 0H668.4l-48.514-85.98v85.98h-19.939v-127h19.94l46.354 81.153v-81.153h20.066zm114.426-37.846q0 17.145-11.43 28.575-11.303 11.43-28.829 11.43-14.35 0-23.24-5.461-8.89-5.461-14.606-17.526-8.509-17.4-8.382-42.418 0-15.24 3.81-29.21 3.937-13.97 10.541-22.352 11.684-14.351 32.385-14.351 14.732 0 24.13 6.477t15.621 21.59l-19.05 7.493q-4.19-8.255-8.763-11.684-4.572-3.43-11.938-3.43-15.24 0-21.336 15.622-4.826 11.938-4.826 29.845 0 22.225 6.096 34.798 5.715 10.287 17.4 10.16 9.524 0 15.874-5.461 6.35-5.461 6.35-14.097v-5.461h-23.114v-19.94h43.307z" style="font-size:222.25px;line-height:1.25;font-family:'Roadgeek 2014 Series D';-inkscape-font-specification:'Roadgeek 2014 Series D';text-align:center;text-anchor:middle;stroke-width:15.875" aria-label="SLOWING" transform="translate(373.41 249.545)"/>
    <path d="M390.589 385.105h-58.801v31.369h37.084v20.447h-37.084v55.245h-19.94v-127h78.74zM497.14 428.92q0 15.494-3.683 29.337-3.556 13.843-10.033 21.97-10.414 14.098-30.86 14.098-13.209 0-22.099-5.461t-14.478-17.145q-8.89-17.4-8.89-42.8 0-32.003 13.843-51.561 11.05-14.351 32.385-14.351 23.495 0 35.306 22.733 8.51 17.526 8.51 43.18zm-20.066 0q0-22.86-7.62-35.687-5.207-9.144-16.51-9.78-14.097-.634-20.447 15.622-4.826 11.938-4.826 29.845 0 23.24 7.493 35.179 5.715 9.779 17.4 9.779 13.207 0 19.557-16.13 4.953-12.7 4.953-28.828zm134.366 63.246h-21.717l-20.7-55.245H545.02v55.245h-19.939v-127h41.783q14.351 0 22.86 4.064 8.255 4.19 13.59 13.08 5.46 8.89 5.46 18.543 0 10.033-5.46 19.05-5.335 9.017-14.098 13.08zm-22.86-91.313q0-9.144-7.874-13.335-4.19-2.413-11.684-2.413H545.02v31.369h24.003q7.874 0 11.684-2.16 7.874-4.063 7.874-13.461z" style="font-size:222.25px;line-height:1.25;font-family:'Roadgeek 2014 Series D';-inkscape-font-specification:'Roadgeek 2014 Series D';text-align:center;text-anchor:middle;stroke-width:15.875" aria-label="FOR" transform="translate(373.41 249.545)"/>
    <path d="m166.815 796.966-40.767 127h-15.367l-40.259-127h21.082l27.178 84.582 26.543-84.582zm97.79 127h-78.74v-127h74.803v19.939h-54.864v31.369h37.084v20.447h-37.084v34.798h58.801zm107.95 0h-20.066V868.72h-46.355v55.245h-19.94v-127h19.94v51.308h46.355v-51.308h20.066zm50.927 0h-20.447v-127h20.447zm114.426-25.908q-11.557 28.067-38.227 28.067-27.432 0-38.989-22.606-9.398-17.653-9.27-43.307 0-15.24 3.81-28.956 3.81-13.843 10.54-22.098 11.684-14.351 32.385-14.351 14.351 0 23.876 6.223 9.652 6.096 15.875 19.558l-18.669 8.128q-5.46-8.001-9.779-10.668-4.19-2.794-11.303-2.794-15.24 0-21.336 15.62-4.826 11.939-4.826 29.338 0 23.114 7.874 35.687 6.35 9.779 19.177 9.779 12.573 0 19.812-14.732zm106.68 25.908h-78.74v-127h19.939v108.33h58.801zm97.79 0h-78.74v-127h74.803v19.939h-54.864v31.369h37.084v20.447h-37.084v34.798h58.8zm99.06-36.576q0 17.78-12.447 28.956-11.049 9.779-27.559 9.779-15.875 0-27.94-8.51-11.938-8.635-18.415-23.494l19.05-7.112q8.51 18.669 27.305 18.669 8.51 0 13.97-5.334 5.588-5.334 5.588-13.335 0-4.826-2.032-8.51-1.905-3.682-6.223-6.222-4.19-2.667-7.747-4.191-3.556-1.524-10.287-3.81-6.604-2.286-9.906-3.556-24.638-9.78-24.51-31.623 0-17.78 10.667-26.035 10.795-8.255 29.083-8.255 25.4 0 35.941 25.78l-17.907 5.208q-.38-1.143-1.65-2.921-1.144-1.778-5.97-4.826-4.699-3.048-11.049-3.302-8.255-.381-14.224 3.302-5.969 3.683-5.334 11.557.381 6.35 6.858 10.16 6.604 3.683 15.494 6.223 9.017 2.54 17.907 6.223t15.113 12.446q6.223 8.763 6.223 22.733z" style="font-size:222.25px;line-height:1.25;font-family:'Roadgeek 2014 Series D';-inkscape-font-specification:'Roadgeek 2014 Series D';text-align:center;text-anchor:middle;stroke-width:15.875" aria-label="VEHICLES" transform="translate(373.41 249.545)"/>
    <path d="m298.704 149.266-18.669 127h-17.907l-20.193-81.534-19.558 81.534H204.47l-18.669-127h20.701l9.78 66.929 15.874-66.93h19.812l16.256 66.93 9.78-66.93zm115.062 127H392.43l-12.573-35.687h-39.624l-12.446 35.687h-21.463l43.688-127h20.066zm-40.894-56.134-12.573-35.687-12.827 35.687zm127-53.086h-29.337v109.22h-20.066v-109.22h-29.083v-17.78h78.486zm102.997 83.312q-11.557 28.067-38.227 28.067-27.432 0-38.99-22.606-9.397-17.653-9.27-43.307 0-15.24 3.81-28.956 3.81-13.843 10.54-22.098 11.685-14.351 32.386-14.351 14.35 0 23.876 6.223 9.652 6.096 15.875 19.558l-18.67 8.128q-5.46-8.001-9.778-10.668-4.191-2.794-11.303-2.794-15.24 0-21.336 15.62-4.826 11.939-4.826 29.338 0 23.114 7.874 35.687 6.35 9.779 19.177 9.779 12.573 0 19.812-14.732zm114.3 25.908h-20.066V221.02h-46.355v55.245h-19.94v-127h19.94v51.308h46.355v-51.308h20.066z" style="font-size:222.25px;line-height:1.25;font-family:'Roadgeek 2014 Series D';-inkscape-font-specification:'Roadgeek 2014 Series D';text-align:center;text-anchor:middle;stroke-width:15.875" aria-label="WATCH" transform="translate(373.41 249.545)"/>
</svg>
