<?xml version="1.0" encoding="UTF-8" standalone="no"?>
<!-- Created with Inkscape (http://www.inkscape.org/) -->

<svg
   xmlns:dc="http://purl.org/dc/elements/1.1/"
   xmlns:cc="http://creativecommons.org/ns#"
   xmlns:rdf="http://www.w3.org/1999/02/22-rdf-syntax-ns#"
   xmlns:svg="http://www.w3.org/2000/svg"
   xmlns="http://www.w3.org/2000/svg"
   xmlns:sodipodi="http://sodipodi.sourceforge.net/DTD/sodipodi-0.dtd"
   xmlns:inkscape="http://www.inkscape.org/namespaces/inkscape"
   width="48in"
   height="18in"
   viewBox="0 0 1219.2 457.20002"
   version="1.1"
   id="svg905"
   inkscape:version="0.92.2 5c3e80d, 2017-08-06"
   sodipodi:docname="MUTCD-OH_I-H3b.svg">
  <defs
     id="defs899" />
  <sodipodi:namedview
     id="base"
     pagecolor="#ffffff"
     bordercolor="#666666"
     borderopacity="1.0"
     inkscape:pageopacity="0.0"
     inkscape:pageshadow="2"
     inkscape:zoom="0.175"
     inkscape:cx="1953.1894"
     inkscape:cy="1197.5345"
     inkscape:document-units="in"
     inkscape:current-layer="layer3"
     showgrid="false"
     units="in"
     inkscape:window-width="1440"
     inkscape:window-height="855"
     inkscape:window-x="0"
     inkscape:window-y="1"
     inkscape:window-maximized="1" />
  <metadata
     id="metadata902">
    <rdf:RDF>
      <cc:Work
         rdf:about="">
        <dc:format>image/svg+xml</dc:format>
        <dc:type
           rdf:resource="http://purl.org/dc/dcmitype/StillImage" />
        <dc:title></dc:title>
      </cc:Work>
    </rdf:RDF>
  </metadata>
  <g
     inkscape:label="Sign Back"
     inkscape:groupmode="layer"
     id="layer1"
     transform="translate(0,160.20002)"
     sodipodi:insensitive="true">
    <rect
       style="opacity:1;fill:#ffffff;fill-opacity:1;fill-rule:nonzero;stroke:#000000;stroke-width:1.89473808;stroke-linecap:round;stroke-linejoin:round;stroke-miterlimit:4;stroke-dasharray:none;stroke-opacity:1"
       id="rect2300"
       width="1217.295"
       height="455.29501"
       x="0.94736904"
       y="-159.24239"
       rx="38.100002"
       ry="38.100002" />
    <rect
       style="opacity:1;fill:#006747;fill-opacity:1;fill-rule:nonzero;stroke:none;stroke-width:19.05000114;stroke-linecap:round;stroke-linejoin:round;stroke-miterlimit:4;stroke-dasharray:none;stroke-opacity:1"
       id="rect842"
       width="1193.8"
       height="431.80002"
       x="12.7"
       y="-147.50003"
       rx="28.575001"
       ry="28.575001" />
  </g>
  <g
     inkscape:groupmode="layer"
     id="layer3"
     inkscape:label="Legends"
     transform="translate(0,-304.8)">
    <g
       aria-label="State Scenic River"
       style="font-style:normal;font-variant:normal;font-weight:normal;font-stretch:normal;font-size:133.3500061px;line-height:125%;font-family:'Roadgeek 2014 Series E';-inkscape-font-specification:'Roadgeek 2014 Series E';text-align:center;letter-spacing:7.9375px;word-spacing:0px;text-anchor:middle;fill:#ffffff;fill-opacity:1;stroke:none;stroke-width:2.08359385px;stroke-linecap:butt;stroke-linejoin:miter;stroke-opacity:1"
       id="text2225">
      <path
         d="m 141.62332,650.92584 q 0,11.5062 -10.668,17.8308 -8.382,5.1054 -19.2024,5.1054 -18.897605,0 -31.623006,-14.6304 l 10.972801,-8.6106 q 8.0772,9.6774 20.345405,9.6774 7.1628,0 11.8872,-2.8194 4.7244,-2.8956 4.7244,-7.0866 0,-4.572 -4.8768,-6.9342 -5.4864,-2.2098 -9.0678,-2.9718 l -3.5814,-1.0668 -3.3528,-0.762 -3.81,-1.06681 q -10.668005,-2.5146 -15.011406,-7.5438 -4.7244,-5.1054 -4.7244,-12.8016 0,-9.3726 7.239,-15.24 7.315201,-5.9436 18.897606,-5.9436 16.9926,0 28.3464,11.811 l -10.0584,9.0678 q -7.0104,-7.4676 -18.288,-7.3914 -5.715,0 -8.99161,2.0574 -3.276595,1.9812 -3.276595,5.6388 0,3.2766 2.4384,4.953 2.514605,1.6764 9.601205,3.2766 13.335,2.7432 21.1074,6.477 5.1054,2.5908 8.001,7.69621 2.9718,5.1054 2.9718,11.2776 z"
         style="letter-spacing:7.9375px;word-spacing:0px;fill:#ffffff;stroke-width:2.08359385px"
         id="path6268" />
      <path
         d="m 190.92046,657.86004 -2.1336,13.6398 q -5.48641,2.8956 -10.13461,2.8956 -6.5532,0 -10.2108,-4.572 -3.6576,-4.572 -3.6576,-12.4968 v -26.74621 h -9.144 v -12.8016 h 9.144 v -17.145 l 13.8684,-5.0292 v 22.1742 h 11.43001 v 12.8016 h -11.43001 v 21.86941 q 0,8.382 6.096,8.382 2.7432,0 6.17221,-2.9718 z"
         style="letter-spacing:7.9375px;word-spacing:0px;fill:#ffffff;stroke-width:2.08359385px"
         id="path6270" />
      <path
         d="m 250.0593,673.10004 h -12.8016 v -2.3622 q -4.3434,2.5146 -10.0584,3.1242 -5.715,0.6858 -11.1252,-0.6096 -5.334,-1.2954 -9.0678,-6.096 -3.6576,-4.8768 -3.6576,-12.4968 0,-6.6294 3.2766,-10.8966 3.3528,-4.3434 8.5344,-5.7912 5.2578,-1.52401 10.9728,-1.37161 5.7912,0.0762 11.1252,1.75261 -0.5334,-4.95301 -3.5814,-7.23901 -3.048,-2.286 -7.1628,-1.8288 -4.0386,0.381 -7.5438,1.524 -3.5052,1.143 -5.8674,2.7432 l -5.6388,-11.7348 q 10.287,-5.6388 20.4216,-5.6388 22.1742,0 22.1742,23.24101 z m -12.8016,-14.2494 v -8.4582 q -7.3152,-2.9718 -12.192,-2.667 -4.8006,0.3048 -7.1628,2.286 -2.286,1.9812 -2.286,4.6482 0,2.8956 2.286,4.953 2.286,1.9812 7.0866,2.3622 4.8006,0.3048 12.2682,-3.1242 z"
         style="letter-spacing:7.9375px;word-spacing:0px;fill:#ffffff;stroke-width:2.08359385px"
         id="path6272" />
      <path
         d="m 300.03628,657.86004 -2.1336,13.6398 q -5.4864,2.8956 -10.1346,2.8956 -6.5532,0 -10.2108,-4.572 -3.6576,-4.572 -3.6576,-12.4968 v -26.74621 h -9.144 v -12.8016 h 9.144 v -17.145 l 13.8684,-5.0292 v 22.1742 h 11.43 v 12.8016 h -11.43 v 21.86941 q 0,8.382 6.096,8.382 2.7432,0 6.1722,-2.9718 z"
         style="letter-spacing:7.9375px;word-spacing:0px;fill:#ffffff;stroke-width:2.08359385px"
         id="path6274" />
      <path
         d="m 360.47053,649.63044 h -33.909 q 0.2286,0.762 0.5334,1.8288 0.9144,4.7244 3.81,7.62 2.9718,2.8194 6.6294,2.8194 4.953,0 8.8392,-4.572 l 8.9916,8.0772 -0.5334,0.5334 q -6.7818,8.4582 -17.2974,8.4582 -10.2108,0 -17.2974,-8.382 -7.0104,-8.4582 -7.0104,-20.7264 0,-12.03961 6.858,-20.26921 6.858,-8.3058 16.9164,-8.3058 10.287,0 16.8402,8.4582 2.8956,3.429 4.7244,9.2964 1.905,5.86741 1.905,11.12521 z m -13.335,-10.7442 q -1.6764,-5.71501 -3.81,-7.77241 -2.0574,-2.1336 -5.7912,-2.1336 -7.8486,0 -10.2108,9.90601 z"
         style="letter-spacing:7.9375px;word-spacing:0px;fill:#ffffff;stroke-width:2.08359385px"
         id="path6276" />
      <path
         d="m 491.89035,650.92584 q 0,11.5062 -10.668,17.8308 -8.38201,5.1054 -19.20241,5.1054 -18.8976,0 -31.623,-14.6304 l 10.9728,-8.6106 q 8.0772,9.6774 20.3454,9.6774 7.1628,0 11.8872,-2.8194 4.72441,-2.8956 4.72441,-7.0866 0,-4.572 -4.87681,-6.9342 -5.4864,-2.2098 -9.0678,-2.9718 l -3.5814,-1.0668 -3.3528,-0.762 -3.81,-1.06681 q -10.668,-2.5146 -15.0114,-7.5438 -4.7244,-5.1054 -4.7244,-12.8016 0,-9.3726 7.239,-15.24 7.3152,-5.9436 18.8976,-5.9436 16.9926,0 28.34641,11.811 l -10.0584,9.0678 q -7.01041,-7.4676 -18.28801,-7.3914 -5.715,0 -8.9916,2.0574 -3.2766,1.9812 -3.2766,5.6388 0,3.2766 2.4384,4.953 2.5146,1.6764 9.6012,3.2766 13.335,2.7432 21.10741,6.477 5.1054,2.5908 8.001,7.69621 2.9718,5.1054 2.9718,11.2776 z"
         style="letter-spacing:7.9375px;word-spacing:0px;fill:#ffffff;stroke-width:2.08359385px"
         id="path6278" />
      <path
         d="m 556.73225,663.95604 q -8.382,10.4394 -20.4978,10.4394 -11.5062,0 -19.05,-8.2296 -7.4676,-8.2296 -7.4676,-20.8788 0,-12.64921 7.4676,-20.87881 7.5438,-8.2296 19.05,-8.2296 12.1158,0 20.4978,10.4394 l -8.5344,11.27761 q -1.6764,-4.03861 -4.8768,-6.32461 -3.2004,-2.3622 -6.858,-2.3622 -6.0198,0 -9.906,4.572 -3.81,4.49581 -3.81,11.58241 0,7.0104 3.81,11.5062 3.8862,4.4958 9.906,4.4958 6.4008,0 10.9728,-6.9342 z"
         style="letter-spacing:7.9375px;word-spacing:0px;fill:#ffffff;stroke-width:2.08359385px"
         id="path6280" />
      <path
         d="m 618.81135,649.63044 h -33.909 q 0.2286,0.762 0.5334,1.8288 0.9144,4.7244 3.81,7.62 2.9718,2.8194 6.6294,2.8194 4.953,0 8.8392,-4.572 l 8.9916,8.0772 -0.5334,0.5334 q -6.7818,8.4582 -17.2974,8.4582 -10.2108,0 -17.2974,-8.382 -7.0104,-8.4582 -7.0104,-20.7264 0,-12.03961 6.858,-20.26921 6.858,-8.3058 16.9164,-8.3058 10.287,0 16.8402,8.4582 2.8956,3.429 4.7244,9.2964 1.905,5.86741 1.905,11.12521 z m -13.335,-10.7442 q -1.6764,-5.71501 -3.81,-7.77241 -2.0574,-2.1336 -5.7912,-2.1336 -7.8486,0 -10.2108,9.90601 z"
         style="letter-spacing:7.9375px;word-spacing:0px;fill:#ffffff;stroke-width:2.08359385px"
         id="path6282" />
      <path
         d="m 683.83725,673.10004 h -13.4112 v -33.3756 q 0,-4.57201 -2.8194,-7.54381 -2.8194,-2.9718 -7.3914,-2.9718 -4.0386,0 -6.858,3.2004 -2.8956,3.2004 -2.8956,7.31521 v 33.3756 h -13.716 v -55.62601 h 13.716 v 4.572 q 4.8006,-5.6388 13.0302,-5.5626 8.9916,0 14.6304,5.0292 5.715,4.953 5.715,12.8016 z"
         style="letter-spacing:7.9375px;word-spacing:0px;fill:#ffffff;stroke-width:2.08359385px"
         id="path6284" />
      <path
         d="m 718.79151,602.23403 q 0,2.8956 -2.1336,4.953 -2.0574,2.0574 -4.8768,2.0574 -2.9718,0 -4.953,-1.9812 -1.9812,-2.0574 -1.9812,-5.0292 0,-2.8956 1.905,-4.7244 1.9812,-1.905 5.0292,-1.905 2.8956,0 4.953,1.9812 2.0574,1.905 2.0574,4.6482 z m 0,15.24 v 55.62601 h -13.716 v -55.62601 z"
         style="letter-spacing:7.9375px;word-spacing:0px;fill:#ffffff;stroke-width:2.08359385px"
         id="path6286" />
      <path
         d="m 785.12141,663.95604 q -8.382,10.4394 -20.4978,10.4394 -11.5062,0 -19.05,-8.2296 -7.4676,-8.2296 -7.4676,-20.8788 0,-12.64921 7.4676,-20.87881 7.5438,-8.2296 19.05,-8.2296 12.1158,0 20.4978,10.4394 l -8.5344,11.27761 q -1.6764,-4.03861 -4.8768,-6.32461 -3.2004,-2.3622 -6.858,-2.3622 -6.0198,0 -9.906,4.572 -3.81,4.49581 -3.81,11.58241 0,7.0104 3.81,11.5062 3.8862,4.4958 9.906,4.4958 6.4008,0 10.9728,-6.9342 z"
         style="letter-spacing:7.9375px;word-spacing:0px;fill:#ffffff;stroke-width:2.08359385px"
         id="path6288" />
      <path
         d="m 920.30005,673.10004 h -15.24 l -12.2682,-29.8704 h -20.4216 v 29.8704 h -13.5636 v -76.20001 h 34.9758 q 7.4676,0 13.1064,3.2004 5.4864,3.1242 8.6106,8.382 3.2004,5.2578 3.2004,11.6586 0,6.3246 -3.2766,11.7348 -3.2004,5.334 -9.0678,8.61061 z m -15.24,-52.95901 q 0,-4.4196 -3.048,-6.9342 -2.9718,-2.5908 -7.9248,-2.5908 h -21.717 v 18.8976 h 21.717 q 4.953,0 7.9248,-2.5908 3.048,-2.5908 3.048,-6.7818 z"
         style="letter-spacing:7.9375px;word-spacing:0px;fill:#ffffff;stroke-width:2.08359385px"
         id="path6290" />
      <path
         d="m 954.47327,602.23403 q 0,2.8956 -2.1336,4.953 -2.0574,2.0574 -4.8768,2.0574 -2.9718,0 -4.953,-1.9812 -1.9812,-2.0574 -1.9812,-5.0292 0,-2.8956 1.905,-4.7244 1.9812,-1.905 5.0292,-1.905 2.8956,0 4.953,1.9812 2.0574,1.905 2.0574,4.6482 z m 0,15.24 v 55.62601 h -13.716 v -55.62601 z"
         style="letter-spacing:7.9375px;word-spacing:0px;fill:#ffffff;stroke-width:2.08359385px"
         id="path6292" />
      <path
         d="m 1024.7656,617.47403 -19.8882,55.62601 h -14.32562 l -19.81201,-55.62601 h 13.63981 l 13.335,37.71901 13.48742,-37.71901 z"
         style="letter-spacing:7.9375px;word-spacing:0px;fill:#ffffff;stroke-width:2.08359385px"
         id="path6294" />
      <path
         d="m 1086.0077,649.63044 h -33.909 q 0.2286,0.762 0.5334,1.8288 0.9144,4.7244 3.81,7.62 2.9718,2.8194 6.6294,2.8194 4.953,0 8.8392,-4.572 l 8.9916,8.0772 -0.5334,0.5334 q -6.7818,8.4582 -17.2974,8.4582 -10.2108,0 -17.2974,-8.382 -7.0104,-8.4582 -7.0104,-20.7264 0,-12.03961 6.858,-20.26921 6.858,-8.3058 16.9164,-8.3058 10.287,0 16.8402,8.4582 2.8956,3.429 4.7244,9.2964 1.905,5.86741 1.905,11.12521 z m -13.335,-10.7442 q -1.6764,-5.71501 -3.81,-7.77241 -2.0574,-2.1336 -5.7912,-2.1336 -7.8486,0 -10.2108,9.90601 z"
         style="letter-spacing:7.9375px;word-spacing:0px;fill:#ffffff;stroke-width:2.08359385px"
         id="path6296" />
      <path
         d="m 1139.0701,619.83623 -4.3434,13.1826 q -2.8956,-3.2766 -7.3152,-3.2766 -3.8862,0 -6.9342,3.048 -2.8956,2.2098 -2.8194,7.69621 v 32.6136 h -13.716 v -55.62601 h 13.716 v 4.0386 q 2.8956,-2.8956 5.1054,-3.81 2.2098,-0.9906 5.5626,-0.9906 6.4008,0 10.7442,3.1242 z"
         style="letter-spacing:7.9375px;word-spacing:0px;fill:#ffffff;stroke-width:2.08359385px"
         id="path6298" />
    </g>
    <g
       aria-label="Mohican River"
       style="font-style:normal;font-variant:normal;font-weight:normal;font-stretch:normal;font-size:177.80000305px;line-height:125%;font-family:'Roadgeek 2014 Series E';-inkscape-font-specification:'Roadgeek 2014 Series E';text-align:center;letter-spacing:8.81944466px;word-spacing:0px;text-anchor:middle;fill:#ffffff;fill-opacity:1;stroke:none;stroke-width:2.77812505px;stroke-linecap:butt;stroke-linejoin:miter;stroke-opacity:1"
       id="text3638">
      <path
         d="m 205.59971,508 h -17.8816 V 446.024 L 157.74611,508 128.18051,446.024 V 508 h -17.78 V 406.4 h 17.78 l 29.5656,60.1472 29.972,-60.1472 h 17.8816 z"
         style="letter-spacing:5.29166698px;fill:#ffffff;stroke-width:2.77812505px"
         id="path6301" />
      <path
         d="m 285.49514,443.5856 q 9.5504,11.3792 9.5504,27.432 0,15.9512 -9.5504,27.3304 -9.4488,11.3792 -23.0632,11.3792 -13.5128,0 -22.9616,-11.2776 -9.3472,-11.3792 -9.3472,-27.5336 0,-16.1544 9.3472,-27.432 9.4488,-11.3792 22.9616,-11.3792 13.6144,0 23.0632,11.4808 z m -12.9032,42.3672 q 3.8608,-5.9944 3.8608,-15.0368 0,-9.0424 -3.8608,-14.8336 -3.8608,-5.8928 -10.16,-5.8928 -6.1976,0 -10.2616,5.8928 -3.9624,5.7912 -3.9624,14.8336 0,9.0424 3.9624,15.0368 4.064,5.9944 10.2616,5.9944 6.2992,0 10.16,-5.9944 z"
         style="letter-spacing:5.29166698px;fill:#ffffff;stroke-width:2.77812505px"
         id="path6303" />
      <path
         d="m 378.03978,508 h -17.272 v -44.196 q 0,-5.588 -3.9624,-9.5504 -3.8608,-4.064 -9.4488,-4.064 -5.588,0 -9.5504,3.4544 -3.9624,3.3528 -3.9624,10.8712 V 508 h -18.288 v -96.6216 l 18.288,-6.7056 v 34.544 q 5.588,-7.112 16.9672,-7.112 11.9888,0 19.6088,7.112 7.62,7.0104 7.62,17.78 z"
         style="letter-spacing:5.29166698px;fill:#ffffff;stroke-width:2.77812505px"
         id="path6305" />
      <path
         d="m 419.31136,413.512 q 0,3.8608 -2.8448,6.604 -2.7432,2.7432 -6.5024,2.7432 -3.9624,0 -6.604,-2.6416 -2.6416,-2.7432 -2.6416,-6.7056 0,-3.8608 2.54,-6.2992 2.6416,-2.54 6.7056,-2.54 3.8608,0 6.604,2.6416 2.7432,2.54 2.7432,6.1976 z m 0,20.32 V 508 h -18.288 v -74.168 z"
         style="letter-spacing:5.29166698px;fill:#ffffff;stroke-width:2.77812505px"
         id="path6307" />
      <path
         d="m 502.45956,495.808 q -11.176,13.9192 -27.3304,13.9192 -15.3416,0 -25.4,-10.9728 -9.9568,-10.9728 -9.9568,-27.8384 0,-16.8656 9.9568,-27.8384 10.0584,-10.9728 25.4,-10.9728 16.1544,0 27.3304,13.9192 l -11.3792,15.0368 q -2.2352,-5.3848 -6.5024,-8.4328 -4.2672,-3.1496 -9.144,-3.1496 -8.0264,0 -13.208,6.096 -5.08,5.9944 -5.08,15.4432 0,9.3472 5.08,15.3416 5.1816,5.9944 13.208,5.9944 8.5344,0 14.6304,-9.2456 z"
         style="letter-spacing:5.29166698px;fill:#ffffff;stroke-width:2.77812505px"
         id="path6309" />
      <path
         d="m 578.21282,508 h -17.0688 v -3.1496 q -5.7912,3.3528 -13.4112,4.1656 -7.62,0.9144 -14.8336,-0.8128 -7.112,-1.7272 -12.0904,-8.128 -4.8768,-6.5024 -4.8768,-16.6624 0,-8.8392 4.3688,-14.5288 4.4704,-5.7912 11.3792,-7.7216 7.0104,-2.032 14.6304,-1.8288 7.7216,0.1016 14.8336,2.3368 -0.7112,-6.604 -4.7752,-9.652 -4.064,-3.048 -9.5504,-2.4384 -5.3848,0.508 -10.0584,2.032 -4.6736,1.524 -7.8232,3.6576 l -7.5184,-15.6464 q 13.716,-7.5184 27.2288,-7.5184 29.5656,0 29.5656,30.988 z m -17.0688,-18.9992 v -11.2776 q -9.7536,-3.9624 -16.256,-3.556 -6.4008,0.4064 -9.5504,3.048 -3.048,2.6416 -3.048,6.1976 0,3.8608 3.048,6.604 3.048,2.6416 9.4488,3.1496 6.4008,0.4064 16.3576,-4.1656 z"
         style="letter-spacing:5.29166698px;fill:#ffffff;stroke-width:2.77812505px"
         id="path6311" />
      <path
         d="m 663.43314,508 h -17.8816 v -44.5008 q 0,-6.096 -3.7592,-10.0584 -3.7592,-3.9624 -9.8552,-3.9624 -5.3848,0 -9.144,4.2672 -3.8608,4.2672 -3.8608,9.7536 V 508 h -18.288 v -74.168 h 18.288 v 6.096 q 6.4008,-7.5184 17.3736,-7.4168 11.9888,0 19.5072,6.7056 7.62,6.604 7.62,17.0688 z"
         style="letter-spacing:5.29166698px;fill:#ffffff;stroke-width:2.77812505px"
         id="path6313" />
      <path
         d="m 838.27269,508 h -20.32 l -16.3576,-39.8272 h -27.2288 V 508 h -18.0848 V 406.4 h 46.6344 q 9.9568,0 17.4752,4.2672 7.3152,4.1656 11.4808,11.176 4.2672,7.0104 4.2672,15.5448 0,8.4328 -4.3688,15.6464 -4.2672,7.112 -12.0904,11.4808 z m -20.32,-70.612 q 0,-5.8928 -4.064,-9.2456 -3.9624,-3.4544 -10.5664,-3.4544 h -28.956 v 25.1968 h 28.956 q 6.604,0 10.5664,-3.4544 4.064,-3.4544 4.064,-9.0424 z"
         style="letter-spacing:5.29166698px;fill:#ffffff;stroke-width:2.77812505px"
         id="path6315" />
      <path
         d="m 878.54534,413.512 q 0,3.8608 -2.8448,6.604 -2.7432,2.7432 -6.5024,2.7432 -3.9624,0 -6.604,-2.6416 -2.6416,-2.7432 -2.6416,-6.7056 0,-3.8608 2.54,-6.2992 2.6416,-2.54 6.7056,-2.54 3.8608,0 6.604,2.6416 2.7432,2.54 2.7432,6.1976 z m 0,20.32 V 508 h -18.288 v -74.168 z"
         style="letter-spacing:5.29166698px;fill:#ffffff;stroke-width:2.77812505px"
         id="path6317" />
      <path
         d="M 966.97674,433.832 940.45914,508 h -19.1008 l -26.416,-74.168 h 18.1864 l 17.78,50.292 17.9832,-50.292 z"
         style="letter-spacing:5.29166698px;fill:#ffffff;stroke-width:2.77812505px"
         id="path6319" />
      <path
         d="m 1043.3412,476.7072 h -45.21202 q 0.3048,1.016 0.7112,2.4384 1.21922,6.2992 5.08002,10.16 3.9624,3.7592 8.8392,3.7592 6.604,0 11.7856,-6.096 l 11.9888,10.7696 -0.7112,0.7112 q -9.0424,11.2776 -23.0632,11.2776 -13.61442,0 -23.06322,-11.176 -9.3472,-11.2776 -9.3472,-27.6352 0,-16.0528 9.144,-27.0256 9.144,-11.0744 22.55522,-11.0744 13.716,0 22.4536,11.2776 3.8608,4.572 6.2992,12.3952 2.54,7.8232 2.54,14.8336 z m -17.78,-14.3256 q -2.2352,-7.62 -5.08,-10.3632 -2.7432,-2.8448 -7.7216,-2.8448 -10.4648,0 -13.61442,13.208 z"
         style="letter-spacing:5.29166698px;fill:#ffffff;stroke-width:2.77812505px"
         id="path6321" />
      <path
         d="m 1108.7995,436.9816 -5.7912,17.5768 q -3.8608,-4.3688 -9.7536,-4.3688 -5.1816,0 -9.2456,4.064 -3.8608,2.9464 -3.7592,10.2616 V 508 h -18.288 v -74.168 h 18.288 v 5.3848 q 3.8608,-3.8608 6.8072,-5.08 2.9464,-1.3208 7.4168,-1.3208 8.5344,0 14.3256,4.1656 z"
         style="letter-spacing:5.29166698px;fill:#ffffff;stroke-width:2.77812505px"
         id="path6323" />
    </g>
  </g>
</svg>
