<svg width="6278.633" height="6278.633" viewBox="0 0 1661.222 1661.222" xmlns="http://www.w3.org/2000/svg">
    <g transform="rotate(-135 432.366 320.394)">
        <rect style="opacity:1;fill:#dd7500;fill-opacity:1;fill-rule:nonzero;stroke:none;stroke-width:8.763;stroke-linecap:round;stroke-linejoin:round;stroke-miterlimit:4;stroke-dasharray:none;stroke-opacity:1" x="-819.612" y="-368.382" rx="76.2" ry="76.2" height="1219.2" width="1219.2"/>
        <rect width="1149.35" height="1149.35" ry="41.275" rx="41.275" y="-333.457" x="-784.687" style="opacity:1;fill:none;fill-opacity:1;fill-rule:nonzero;stroke:#000;stroke-width:31.75;stroke-linecap:round;stroke-linejoin:round;stroke-miterlimit:4;stroke-dasharray:none;stroke-opacity:1"/>
    </g>
    <path d="M217.018 182.232h-27.736v132.131h-21.946v-132.13h-27.89v-20.27h77.572zm106.985 132.131h-22.555l-20.27-71.476H260.3v71.476h-21.946v-152.4h45.72q17.983 0 28.956 11.278 10.973 11.125 10.973 29.413 0 28.651-21.946 36.728zm-21.488-111.71q0-8.838-5.487-14.02-5.486-5.334-14.325-5.334H260.3v38.71h22.403q9.6 0 14.63-5.03 5.182-5.181 5.182-14.325zm133.045 66.295q0 15.392-5.792 26.67-5.79 9.449-15.85 15.392-10.058 5.944-20.726 5.944-11.277 0-21.488-5.791-10.058-5.944-15.85-15.545-5.943-11.735-5.943-26.67V161.963h21.945v109.576q0 10.668 5.792 17.373 5.943 6.706 15.544 6.706 8.84 0 14.63-6.706 5.792-6.705 5.792-17.373V161.963h21.946zm115.518-66.294h-21.945q-3.2-21.946-18.288-21.946-13.259 0-18.593 11.887-5.334 11.888-5.334 41.606 0 32.918 5.944 47.244 6.096 14.173 20.116 14.173 16.155 0 16.155-21.946h21.945q-.304 18.745-11.125 31.09-10.82 12.192-26.975 12.192-24.231 0-35.661-19.965-11.278-19.964-11.278-62.179 0-37.033 11.43-56.235 11.583-19.203 33.985-19.203 19.355 0 30.023 15.393 7.468 9.6 9.601 27.889zm116.129 111.709h-23.013l-26.67-74.371-14.02 25.755v48.616h-21.946v-152.4h21.946v60.96l34.9-60.96h25.145l-31.699 53.492zm103.175-41.758q0 18.593-12.345 31.547-12.192 12.802-29.718 12.802-19.355 0-31.09-13.869-11.734-14.02-11.734-33.68h21.336q0 10.668 5.486 18.44 5.487 7.773 16.002 7.773 8.84 0 15.088-6.858 6.248-7.01 6.248-16.155 0-12.344-12.497-21.945-.762-.762-.762-1.067-.457-.457-11.43-8.077-7.772-5.182-13.41-8.84-18.746-13.258-18.746-33.68 0-16.459 11.278-28.041 11.43-11.583 27.889-11.583 16.154 0 27.127 11.278 10.973 11.125 11.278 28.346h-20.727q-.305-7.772-5.334-12.801-5.03-5.03-12.344-5.03-7.62 0-12.954 5.182-5.334 5.03-5.334 12.65 0 5.79 2.895 9.448 3.048 3.658 11.735 8.534 22.25 13.107 32.157 26.213 9.906 12.954 9.906 29.413z" style="font-size:266.7px;line-height:1.25;font-family:'Roadgeek 2014 Series C';-inkscape-font-specification:'Roadgeek 2014 Series C';text-align:center;text-anchor:middle;stroke-width:19.05" aria-label="TRUCKS" transform="translate(373.41 249.545)"/>
    <path d="M146.077 542.969H68.505v-152.4h71.78v21.335H90.452v38.71h31.547v20.879H90.45v50.14h55.626Zm111.556 0h-16.46L193.93 440.86V542.97h-21.946v-152.4h21.946l41.758 91.592v-91.593h21.945zm98.907-132.131h-27.736v132.13h-21.946v-132.13h-27.89v-20.27h77.572zm98.908 132.13h-77.572v-152.4h71.78v21.336h-49.834v38.71h31.546v20.879h-31.546v50.14h55.626zm111.556 0H544.45l-20.27-71.475h-20.878v71.476h-21.946v-152.4h45.72q17.983 0 28.956 11.277 10.973 11.125 10.973 29.413 0 28.651-21.946 36.729zM545.516 431.26q0-8.839-5.487-14.02-5.486-5.334-14.325-5.334H503.3v38.71h22.403q9.6 0 14.63-5.03 5.182-5.182 5.182-14.326zm68.732 111.71h-21.336v-152.4h21.336zm119.177 0h-16.46L669.721 440.86V542.97h-21.945v-152.4h21.945l41.758 91.592v-91.593h21.946zm115.518-42.215q0 14.325-4.42 23.47-4.419 10.21-13.41 15.849-8.84 5.486-20.27 5.486-27.432 0-38.862-26.06-8.077-19.355-8.077-52.426 0-31.851 7.01-51.206 3.963-12.04 14.63-19.965 10.669-7.924 23.775-7.924 16.46 0 27.585 10.972 11.277 10.82 12.04 27.585h-21.946q-.457-7.773-5.487-12.497-4.876-4.724-12.801-4.724-11.43 0-16.917 11.277-7.01 12.802-7.01 42.825 0 20.421 3.048 37.795 5.03 23.012 22.555 23.012 16.764 0 16.612-23.47v-10.21h-17.221v-21.489h39.166z" style="font-size:266.7px;line-height:1.25;font-family:'Roadgeek 2014 Series C';-inkscape-font-specification:'Roadgeek 2014 Series C';text-align:center;text-anchor:middle;stroke-width:19.05" aria-label="ENTERING" transform="translate(373.41 249.545)"/>
    <path d="M388.24 771.569h-21.946l-10.668-41.758h-32.614l-10.21 41.758h-21.946l38.1-152.4h21.336zm-37.948-63.246-11.125-43.74-10.82 43.74zm144.932 63.246h-16.46L431.522 669.46v102.108h-21.946v-152.4h21.946l41.758 91.592v-91.592h21.945zM614.4 695.064q0 52.273-21.945 69.494-7.773 7.01-21.489 7.01h-42.214v-152.4h39.167q16.916 0 24.536 5.944 14.325 10.21 18.288 33.68 3.657 19.508 3.657 36.272zm-21.488 1.067q0-29.566-4.115-39.93-5.181-15.696-19.812-15.696h-18.288v109.728h18.288q9.144 0 14.63-6.096 5.487-6.249 7.316-15.85 1.981-19.355 1.981-32.156z" style="font-size:266.7px;line-height:1.25;font-family:'Roadgeek 2014 Series C';-inkscape-font-specification:'Roadgeek 2014 Series C';text-align:center;text-anchor:middle;stroke-width:19.05" aria-label="AND" transform="translate(373.41 249.545)"/>
    <path d="M236.526 1000.168h-77.572v-152.4h71.78v21.337H180.9v38.71h31.547v20.878H180.9v50.14h55.626zm103.022 0h-23.622L294.59 948.2l-21.336 51.968H250.24l33.071-79.095-30.785-73.304h23.013l19.05 45.872 19.355-45.872h23.012l-30.632 73.304zm42.672 0h-21.336v-152.4h21.336zm98.907-132.13H453.39v132.13h-21.945v-132.13h-27.89v-20.27h77.572zm42.672 132.13h-21.336v-152.4h21.336zm119.176 0h-16.459l-47.244-102.107v102.107h-21.945v-152.4h21.945l41.758 91.593v-91.592h21.945zm115.52-42.214q0 14.325-4.42 23.47-4.42 10.21-13.412 15.849-8.839 5.486-20.269 5.486-27.432 0-38.862-26.06-8.077-19.355-8.077-52.426 0-31.851 7.01-51.206 3.963-12.04 14.63-19.964 10.669-7.925 23.775-7.925 16.46 0 27.585 10.973 11.277 10.82 12.04 27.584h-21.946q-.458-7.772-5.487-12.497-4.877-4.724-12.801-4.724-11.43 0-16.917 11.277-7.01 12.802-7.01 42.825 0 20.421 3.048 37.795 5.029 23.012 22.555 23.012 16.764 0 16.612-23.47v-10.21h-17.222v-21.488h39.167z" style="font-size:266.7px;line-height:1.25;font-family:'Roadgeek 2014 Series C';-inkscape-font-specification:'Roadgeek 2014 Series C';text-align:center;text-anchor:middle;stroke-width:19.05" aria-label="EXITING" transform="translate(373.41 249.545)"/>
</svg>
