<?xml version="1.0" encoding="UTF-8"?>
<svg viewBox="0 0 2160 2160" xmlns="http://www.w3.org/2000/svg">
<defs>
<style>.a{fill:#fff;}.b{fill:#006b54;}</style>
</defs>
<rect class="a" width="2160" height="2160" rx="135"/>
<path transform="translate(0)" d="M2025,4.5A130.5,130.5,0,0,1,2155.5,135V2025A130.4994,130.4994,0,0,1,2025,2155.5H135A130.5,130.5,0,0,1,4.5,2025V135A130.5,130.5,0,0,1,135,4.5H2025m0-4.5H135A135,135,0,0,0,0,135V2025a135,135,0,0,0,135,135H2025a135,135,0,0,0,135-135V135A135,135,0,0,0,2025,0Z"/>
<path transform="translate(0)" d="m2025 36h-1890a99.111 99.111 0 0 0-99 99v1890a99.111 99.111 0 0 0 99 99h1890a99.111 99.111 0 0 0 99-99v-1890a99.11 99.11 0 0 0-99-99zm45 1989a45.055 45.055 0 0 1-45 45h-1890a45.055 45.055 0 0 1-45-45v-1890a45.055 45.055 0 0 1 45-45h1890a45.055 45.055 0 0 1 45 45z"/>
<path transform="translate(0)" d="m1072.3 427.5c-248.53 0-450 201.47-450 450v286.88l-132.87-39.871a45.013 45.013 0 0 0-50.273 68.753l295.64 426.74 295.65-426.74a45.018 45.018 0 0 0-50.273-68.753l-132.87 39.871v-286.88c0-124.26 100.74-225 225-225s225 100.74 225 225v742.49h225v-742.49c0-248.53-201.47-450-450-450"/>
<path class="b" transform="translate(0)" d="M1079.99,135C558.08,135,135,558.09,135,1080.01c0,521.9,423.08,944.99,944.99,944.99,521.92,0,945.01-423.09,945.01-944.99C2025,558.09,1601.91,135,1079.99,135Zm0,1710C657.49,1845,315,1502.5,315,1080.01,315,657.5,657.49,315,1079.99,315,1502.5,315,1845,657.5,1845,1080.01,1845,1502.5,1502.5,1845,1079.99,1845Z"/>
</svg>
