<?xml version="1.0" encoding="UTF-8"?>
<svg width="12960" height="4320" viewBox="0 0 10368 3456" xmlns="http://www.w3.org/2000/svg">
<defs>
<style>.a{fill:#fcd116;}</style>
</defs>
<rect class="a" width="10368" height="3456" rx="432"/>
<path transform="translate(0)" d="m10203 164.71a375.56 375.56 0 0 0-267.29-110.71h-9504a377.99 377.99 0 0 0-378 378v2592a377.99 377.99 0 0 0 378 378h9504a377.99 377.99 0 0 0 378-378v-2592a375.55 375.55 0 0 0-110.71-267.29zm20.71 2859.3a287.99 287.99 0 0 1-288 288h-9504a287.99 287.99 0 0 1-288-288v-2592a287.99 287.99 0 0 1 288-288h9504a287.99 287.99 0 0 1 288 288z"/>
<path transform="translate(0)" d="m1085.8 719.98h113.58v613.87h332.99v106.1h-446.56z"/>
<path transform="translate(0)" d="m1680 719.98h423.88v113.66h-310.31v176.84h209.42v116.19h-209.42v197.09h332.99v116.18h-446.56z"/>
<path transform="translate(0)" d="m2402.1 1010.5h209.42v116.19h-209.42v313.28h-113.58v-719.97h446.56v113.66h-332.99z"/>
<path transform="translate(0)" d="m3097.1 1440h-114.21v-618.9h-164.87v-101.07h446.56v101.07h-167.48z"/>
<path transform="translate(0)" d="m3907.9 719.98h113.58v613.87h332.99v106.1h-446.56z"/>
<path transform="translate(0)" d="m4856.5 1237.8h-226.07l-71.188 202.13h-121.94l249.02-719.97h114.39l248.93 719.97h-121.95zm-185.39-116.19h144.8l-71.188-202.04z"/>
<path transform="translate(0)" d="m5316.3 952.44v487.51h-113.58v-719.97h113.58l262.79 459.79v-459.79h113.76v719.97h-101.07z"/>
<path transform="translate(0)" d="m5876.5 719.98h423.88v113.66h-310.31v176.84h209.42v116.19h-209.42v197.09h332.99v116.18h-446.56z"/>
<path transform="translate(0)" d="m6994.4 719.98h423.88v113.66h-310.31v176.84h209.42v116.19h-209.42v197.09h332.99v116.18h-446.56z"/>
<path transform="translate(0)" d="m7691.3 952.44v487.51h-113.58v-719.97h113.58l262.79 459.79v-459.79h113.76v719.97h-101.07z"/>
<path transform="translate(0)" d="m8219.1 1440v-719.97h259.73c181.7 0 230.39 239.3 230.39 343.79 0 270.08-138.86 376.18-229.94 376.18zm242.45-606.3h-128.88v490.03h120.86c104.76 0 139.13-126.89 139.13-262.43 0-64.438-18.359-227.6-131.12-227.6z"/>
<path transform="translate(0)" d="m8792.1 1271 108.54-40.318c30.329 68.127 86.036 105.93 154.16 105.93 65.607 0 111.33-45.358 111.33-105.93 0-96.206-111.33-110.97-204.65-148.85-42.929-17.64-138.77-60.568-138.77-179.09 0-141.38 95.846-194.3 224.54-194.3 100.89 0 169.01 58.048 204.38 146.33l-100.98 30.239c-16.649-32.489-51.568-63.087-112.05-63.087-87.116 0-105.21 47.518-105.21 72.717 0 67.228 58.048 80.547 152.27 110.16 95.937 30.149 196.55 74.337 196.55 228.41-0.09 155.33-126.17 219.41-227.42 219.41-123.66 4e-4 -214.73-73.077-262.7-181.61z"/>
<path transform="translate(0)" d="m2445.3 2321.1-166.94 416.86-167.12-416.86v416.86h-113.94v-719.97h113.94l167.12 404.17 166.94-404.17h113.94v719.97h-113.94z"/>
<path transform="translate(0)" d="m2742.9 2018h423.88v113.66h-310.31v176.84h209.42v116.19h-209.42v197.09h332.99v116.18h-446.56z"/>
<path transform="translate(0)" d="m3436.3 2424.6v313.37h-113.58v-719.97h260.45c165.05 0 214.55 132.02 214.55 202.22 0 26.729-9.9 132.02-111.78 180.26l126.9 337.49h-123.84l-116.19-313.37zm143-116.1c90.356 0 104.58-65.158 104.58-88.376 0-31.409-23.489-88.466-99.086-88.466h-148.49v176.84z"/>
<path transform="translate(0)" d="m4192.6 2005.5c115.38 0 180.35 43.738 229.13 159.11l-108.63 42.838c-30.329-63.178-60.567-85.856-116.19-85.856-158.21 0-149.12 240.83-149.12 257.66 0 27.089-6.12 255.14 133.91 255.14 73.257 0 126.35-45.448 126.35-111.15v-30.239h-131.39v-113.76h244.97v143.99c0 131.3-95.936 227.33-227.42 227.33-26.1 0-262.61 21.509-262.61-372.58-2e-4 -55.168 3.0594-372.49 260.99-372.49z"/>
<path transform="translate(0)" d="m4591 2018h423.88v113.66h-310.31v176.84h209.42v116.19h-209.42v197.09h332.99v116.18h-446.56z"/>
<path transform="translate(0)" d="m5953.4 2424.6v313.37h-113.58v-719.97h260.45c165.05 0 214.55 132.02 214.55 202.22 0 26.729-9.8994 132.02-111.78 180.26l126.89 337.49h-123.83l-116.19-313.37zm143-116.1c90.356 0 104.58-65.158 104.58-88.376 0-31.409-23.489-88.466-99.086-88.466h-148.49v176.84z"/>
<path transform="translate(0)" d="m6456 2018h115.2v719.97h-115.2z"/>
<path transform="translate(0)" d="m6931.2 2005.5c115.38 0 180.35 43.738 229.13 159.11l-108.63 42.838c-30.329-63.178-60.567-85.856-116.19-85.856-158.21 0-149.12 240.83-149.12 257.66 0 27.089-6.1191 255.14 133.92 255.14 73.257 0 126.35-45.448 126.35-111.15v-30.239h-131.39v-113.76h244.97v143.99c0 131.3-95.936 227.33-227.42 227.33-26.1 0-262.61 21.509-262.61-372.58-2e-4 -55.168 3.0594-372.49 260.99-372.49z"/>
<path transform="translate(0)" d="m7691.6 2424.7h-262.88v313.28h-113.58v-719.97h113.58v290.51h262.79v-290.51h113.76v719.97h-113.67z"/>
<path transform="translate(0)" d="m8203.2 2738h-114.21v-618.9h-164.87v-101.07h446.56v101.07h-167.48z"/>
</svg>
