<?xml version="1.0" encoding="UTF-8" standalone="no"?>
<!-- Created with Inkscape (http://www.inkscape.org/) -->

<svg
   width="50.179111mm"
   height="50.179108mm"
   viewBox="0 0 50.179111 50.179108"
   version="1.1"
   id="svg1"
   inkscape:version="1.3 (0e150ed, 2023-07-21)"
   sodipodi:docname="MUTCD-OH_D5-H49.svg"
   xmlns:inkscape="http://www.inkscape.org/namespaces/inkscape"
   xmlns:sodipodi="http://sodipodi.sourceforge.net/DTD/sodipodi-0.dtd"
   xmlns="http://www.w3.org/2000/svg"
   xmlns:svg="http://www.w3.org/2000/svg">
  <sodipodi:namedview
     id="namedview1"
     pagecolor="#ffffff"
     bordercolor="#666666"
     borderopacity="1.0"
     inkscape:showpageshadow="2"
     inkscape:pageopacity="0.0"
     inkscape:pagecheckerboard="0"
     inkscape:deskcolor="#d1d1d1"
     inkscape:document-units="mm"
     inkscape:zoom="2.3786088"
     inkscape:cx="77.986763"
     inkscape:cy="109.72801"
     inkscape:window-width="1440"
     inkscape:window-height="855"
     inkscape:window-x="0"
     inkscape:window-y="23"
     inkscape:window-maximized="1"
     inkscape:current-layer="layer1" />
  <defs
     id="defs1" />
  <g
     inkscape:label="Layer 1"
     inkscape:groupmode="layer"
     id="layer1"
     transform="translate(-79.375002,-123.29584)">
    <path
       id="path1"
       style="fill:#ffffff;stroke:none;stroke-width:0.0846667;stroke-linecap:butt;stroke-linejoin:round;stroke-miterlimit:1.414;stroke-dasharray:none;stroke-opacity:1"
       d="m 79.417335,148.87928 1e-6,21.55472 c 10e-7,0.77611 0.317501,1.55222 0.881945,2.11667 0.564445,0.56444 1.305278,0.88194 2.116665,0.88194 h 22.436664 21.62528 c 0.81139,0 1.5875,-0.3175 2.15195,-0.88194 0.56444,-0.56445 0.88194,-1.34056 0.88194,-2.11667 v 0 -22.36611 -21.73111 c 0,-0.77611 -0.3175,-1.55222 -0.88195,-2.11667 -0.56444,-0.56444 -1.34055,-0.88194 -2.15194,-0.88194 l -22.225,0 -21.836943,0 c -0.81139,0 -1.552223,0.3175 -2.116668,0.88194 -0.564444,0.56445 -0.881944,1.34056 -0.881944,2.11667 z"
       sodipodi:nodetypes="ccsccccccccscccccc" />
    <path
       id="path407"
       style="fill:none;stroke:#000000;stroke-width:0.0846667;stroke-linecap:butt;stroke-linejoin:round;stroke-miterlimit:1.414;stroke-dasharray:none;stroke-opacity:1"
       d="m 79.417335,148.87928 1e-6,21.55472 c 10e-7,0.77611 0.317501,1.55222 0.881945,2.11667 0.564445,0.56444 1.305278,0.88194 2.116665,0.88194 h 22.436664 21.62528 c 0.81139,0 1.5875,-0.3175 2.15195,-0.88194 0.56444,-0.56445 0.88194,-1.34056 0.88194,-2.11667 v 0 -22.36611 -21.73111 c 0,-0.77611 -0.3175,-1.55222 -0.88195,-2.11667 -0.56444,-0.56444 -1.34055,-0.88194 -2.15194,-0.88194 l -22.225,0 -21.836943,0 c -0.81139,0 -1.552223,0.3175 -2.116668,0.88194 -0.564444,0.56445 -0.881944,1.34056 -0.881944,2.11667 z"
       sodipodi:nodetypes="ccsccccccccscccccc" />
    <path
       id="path395"
       d="m 80.405115,127.35983 v 42.05111 c 0,0.35278 0.07056,0.74083 0.211667,1.12889 0.141111,0.35278 0.388055,0.70555 0.670277,1.02305 0.3175,0.28223 0.635,0.49389 1.023056,0.67028 0.388055,0.14111 0.740833,0.17639 1.093611,0.17639 h 42.086384 c 0.35278,0 0.74084,-0.0353 1.09361,-0.17639 0.38806,-0.17639 0.74084,-0.38805 1.02306,-0.67028 0.3175,-0.3175 0.52917,-0.67027 0.67028,-1.02305 0.14111,-0.38806 0.21166,-0.77611 0.21166,-1.12889 v -42.05111 c 0,-0.38806 -0.0705,-0.74083 -0.21166,-1.12889 -0.14111,-0.35278 -0.35278,-0.70555 -0.67028,-1.02305 -0.28222,-0.28223 -0.635,-0.49389 -1.02306,-0.67028 -0.35277,-0.14111 -0.74083,-0.21167 -1.09361,-0.21167 H 83.403726 c -0.352778,0 -0.705556,0.0706 -1.093611,0.21167 -0.388056,0.17639 -0.705556,0.38805 -1.023056,0.67028 -0.282222,0.3175 -0.529166,0.67027 -0.670277,1.02305 -0.141111,0.38806 -0.211667,0.74083 -0.211667,1.12889 M 116.52956,151.384 c -0.3175,0.0353 -0.635,0.10583 -0.91722,0.14111 -0.17639,0.0353 -0.3175,0.0705 -0.49389,0.10583 -0.17639,0.0353 -0.3175,0.0706 -0.49389,0.0706 -0.35278,0.0705 -0.67028,0.14111 -1.02306,0.17638 -0.35278,0.0353 -0.74083,0.0706 -1.09361,0.10584 -0.17639,0.0353 -0.35278,0.0353 -0.52917,0.0353 -0.38805,0.0705 -0.81138,0.10583 -1.19944,0.14111 l -0.42333,0.0353 c -0.56445,0.0353 -1.09361,0.0353 -1.62278,0.0353 v 0 c -0.56445,0 -1.09361,0 -1.65806,-0.0705 -0.56444,-0.0706 -1.09361,-0.17639 -1.65805,-0.28223 -0.56445,-0.10583 -1.12889,-0.21166 -1.69334,-0.35277 -0.56444,-0.17639 -1.09361,-0.38806 -1.62277,-0.635 -0.635,-0.3175 -1.23472,-0.67028 -1.79917,-1.05834 -0.599722,-0.38805 -1.164166,-0.84666 -1.693333,-1.34055 -0.529166,-0.49389 -0.9525,-1.02306 -1.375833,-1.62278 -0.388055,-0.56444 -0.740833,-1.12889 -0.9525,-1.79917 -0.211666,-0.59972 -0.352778,-1.23472 -0.493889,-1.86972 0,-0.0705 -0.03528,-0.10583 -0.03528,-0.17639 -0.07056,-0.56444 -0.176389,-1.12889 -0.211667,-1.69333 -0.07056,-0.56445 -0.03528,-1.09361 0,-1.65806 0.03528,-0.56444 0.105833,-1.16416 0.211667,-1.76388 0.105833,-0.56445 0.3175,-1.09362 0.529166,-1.62278 0.282222,-0.67028 0.599722,-1.30528 1.058333,-1.86972 0.493889,-0.70556 1.058334,-1.34056 1.658056,-1.905 0.564444,-0.52917 1.12889,-1.02306 1.72861,-1.44639 0.52917,-0.3175 1.02306,-0.59973 1.55223,-0.91723 l 0.0706,-0.0705 c 0.0706,-0.0353 0.14111,-0.0706 0.21167,-0.10583 0.21166,-0.14112 0.38805,-0.24695 0.59972,-0.35278 0.21167,-0.0706 0.42333,-0.10584 0.59972,-0.17639 0.14111,-0.0353 0.24695,-0.0353 0.38806,-0.10583 0.28222,-0.0706 0.56444,-0.14112 0.81139,-0.24695 0.42333,-0.14111 0.81139,-0.24694 1.19944,-0.35278 0.635,-0.17639 1.23472,-0.3175 1.86972,-0.38805 0.14111,0 0.24695,-0.0353 0.38806,-0.0353 0.45861,-0.0706 0.9525,-0.10583 1.44639,-0.10583 0.3175,0 0.635,0 0.98778,0.0353 h 0.67027 0.0353 0.0706 c 0.42333,0 0.88194,0.10584 1.30527,0.21167 0.0706,0 0.14112,0.0353 0.21167,0.0353 0.59972,0.14111 1.16417,0.28222 1.72861,0.45861 0.59972,0.21167 1.16417,0.49389 1.72861,0.77611 0.56445,0.28222 1.12889,0.59972 1.65806,0.9525 0.56444,0.35278 1.05833,0.74083 1.55222,1.16417 0.56445,0.45861 1.05833,0.9525 1.55222,1.48166 0.45861,0.49389 0.88195,1.02306 1.19945,1.62278 0.28222,0.49389 0.49389,1.02306 0.74083,1.55222 0.0353,0.10584 0.10583,0.21167 0.14111,0.3175 0.17639,0.42334 0.38806,0.84667 0.52917,1.27 0.17639,0.49389 0.24694,0.98778 0.35278,1.48167 v 0.17639 c 0.10583,0.52917 0.17639,1.05833 0.14111,1.5875 0,0.56444 -0.10584,1.12889 -0.21167,1.69333 -0.14111,0.56445 -0.28222,1.09361 -0.45861,1.62278 -0.17639,0.56444 -0.38806,1.12889 -0.635,1.69333 0,0.0353 -0.0353,0.0706 -0.0353,0.10584 -0.3175,0.56444 -0.635,1.05833 -0.98778,1.5875 -0.35277,0.49389 -0.81138,0.88194 -1.27,1.27 -0.10583,0.10583 -0.21166,0.17639 -0.28222,0.28222 -0.14111,0.10583 -0.35278,0.17639 -0.52916,0.24694 -0.28223,0.10584 -0.56445,0.17639 -0.67028,0.45861 -0.0353,0.0706 -0.0353,0.14112 -0.0353,0.24695 0,0.0353 0.0353,0.10583 0,0.17639 0,0.10583 -0.0353,0.24694 -0.0353,0.35278 -0.10583,0.45861 -0.17639,0.88194 -0.28222,1.34055 -0.14111,0.59972 -0.3175,1.12889 -0.49389,1.69333 -0.17639,0.52917 -0.38805,1.02306 -0.635,1.51695 l -0.0705,0.17639 c -0.0706,0.17639 -0.17639,0.42333 -0.3175,0.70555 -0.14112,0.24695 -0.28223,0.52917 -0.42334,0.67028 -0.0353,0.0706 -0.10583,0.10583 -0.14111,0.14111 -0.0705,0 -0.10583,-0.0353 -0.14111,-0.14111 v -0.17639 c 0,-0.21166 0,-0.42333 0.0353,-0.635 0,-0.3175 0.0353,-0.59972 0.0353,-0.88194 v -1.62278 c 0,-0.52917 -0.0353,-1.05833 -0.0706,-1.5875 -0.0353,-0.0706 -0.0353,-0.24694 -0.0706,-0.38806 -0.0353,-0.14111 -0.0705,-0.3175 -0.10583,-0.38805 0,-0.0353 0,-0.0706 -0.0353,-0.10583 v 0 0 c 0,0.0353 0,0.0353 -0.0353,0.0706 l -0.0353,-0.0706 m 6.42055,3.03388 c 0.35278,0 0.74084,0.14112 1.05834,0.45862 0.3175,0.3175 0.45861,0.70555 0.45861,1.05833 v 0 11.46528 -0.0353 c 0,0.38805 -0.14111,0.77611 -0.45861,1.09361 -0.3175,0.28222 -0.70556,0.42333 -1.05834,0.42333 v 0.0353 H 85.908448 l 0.03528,-0.0353 c -0.388056,0 -0.776111,-0.14111 -1.058333,-0.42333 -0.3175,-0.3175 -0.458612,-0.70556 -0.458612,-1.09361 v 0.0353 -11.46528 0 c 0,-0.38806 0.176389,-0.77611 0.458612,-1.05833 0.282222,-0.28223 0.635,-0.45862 1.058333,-0.45862 h -0.03528 3.104444 v -26.10555 c 0,-0.24694 0.211667,-0.45861 0.493889,-0.45861 0.105834,0 0.246945,0.0353 0.3175,0.14111 0.07056,0.0353 0.105834,0.10583 0.141111,0.17639 0,0.0353 0.03528,0.10583 0.03528,0.14111 h -0.03528 v 26.10555 h 26.634718 l 0.0706,1.19945 -0.14111,1.79917 0.49389,0.17638 1.02305,-1.72861 0.0353,0.0353 v 0 l 0.70556,-1.48167 h 4.16277 v 0"
       style="display:inline;fill:#003f87;fill-opacity:1;fill-rule:evenodd;stroke:none;stroke-width:0.352778"
       sodipodi:nodetypes="cscccsscscsscscsscccccccccccccsscccccscccccscccccccccccccccscccscccscccccccccccccccccccsccccccccccscsscscscscccssccccccccscccsccccssccccccccccccccc" />
    <path
       id="path2"
       d="m 116.52956,151.384 c -0.3175,0.0353 -0.635,0.10583 -0.91722,0.14111 -0.17639,0.0353 -0.3175,0.0705 -0.49389,0.10583 -0.17639,0.0353 -0.3175,0.0706 -0.49389,0.0706 -0.35278,0.0705 -0.67028,0.14111 -1.02306,0.17638 -0.35278,0.0353 -0.74083,0.0706 -1.09361,0.10584 -0.17639,0.0353 -0.35278,0.0353 -0.52917,0.0353 -0.38805,0.0705 -0.81138,0.10583 -1.19944,0.14111 l -0.42333,0.0353 c -0.56445,0.0353 -1.09361,0.0353 -1.62278,0.0353 v 0 c -0.56445,0 -1.09361,0 -1.65806,-0.0705 -0.56444,-0.0706 -1.09361,-0.17639 -1.65805,-0.28223 -0.56445,-0.10583 -1.12889,-0.21166 -1.69334,-0.35277 -0.56444,-0.17639 -1.09361,-0.38806 -1.62277,-0.635 -0.635,-0.3175 -1.23472,-0.67028 -1.79917,-1.05834 -0.599722,-0.38805 -1.164166,-0.84666 -1.693333,-1.34055 -0.529166,-0.49389 -0.9525,-1.02306 -1.375833,-1.62278 -0.388055,-0.56444 -0.740833,-1.12889 -0.9525,-1.79917 -0.211666,-0.59972 -0.352778,-1.23472 -0.493889,-1.86972 0,-0.0705 -0.03528,-0.10583 -0.03528,-0.17639 -0.07056,-0.56444 -0.176389,-1.12889 -0.211667,-1.69333 -0.07056,-0.56445 -0.03528,-1.09361 0,-1.65806 0.03528,-0.56444 0.105833,-1.16416 0.211667,-1.76388 0.105833,-0.56445 0.3175,-1.09362 0.529166,-1.62278 0.282222,-0.67028 0.599722,-1.30528 1.058333,-1.86972 0.493889,-0.70556 1.058334,-1.34056 1.658056,-1.905 0.564444,-0.52917 1.12889,-1.02306 1.72861,-1.44639 0.52917,-0.3175 1.02306,-0.59973 1.55223,-0.91723 l 0.0706,-0.0705 c 0.0706,-0.0353 0.14111,-0.0706 0.21167,-0.10583 0.21166,-0.14112 0.38805,-0.24695 0.59972,-0.35278 0.21167,-0.0706 0.42333,-0.10584 0.59972,-0.17639 0.14111,-0.0353 0.24695,-0.0353 0.38806,-0.10583 0.28222,-0.0706 0.56444,-0.14112 0.81139,-0.24695 0.42333,-0.14111 0.81139,-0.24694 1.19944,-0.35278 0.635,-0.17639 1.23472,-0.3175 1.86972,-0.38805 0.14111,0 0.24695,-0.0353 0.38806,-0.0353 0.45861,-0.0706 0.9525,-0.10583 1.44639,-0.10583 0.3175,0 0.635,0 0.98778,0.0353 h 0.67027 0.0353 0.0706 c 0.42333,0 0.88194,0.10584 1.30527,0.21167 0.0706,0 0.14112,0.0353 0.21167,0.0353 0.59972,0.14111 1.16417,0.28222 1.72861,0.45861 0.59972,0.21167 1.16417,0.49389 1.72861,0.77611 0.56445,0.28222 1.12889,0.59972 1.65806,0.9525 0.56444,0.35278 1.05833,0.74083 1.55222,1.16417 0.56445,0.45861 1.05833,0.9525 1.55222,1.48166 0.45861,0.49389 0.88195,1.02306 1.19945,1.62278 0.28222,0.49389 0.49389,1.02306 0.74083,1.55222 0.0353,0.10584 0.10583,0.21167 0.14111,0.3175 0.17639,0.42334 0.38806,0.84667 0.52917,1.27 0.17639,0.49389 0.24694,0.98778 0.35278,1.48167 v 0.17639 c 0.10583,0.52917 0.17639,1.05833 0.14111,1.5875 0,0.56444 -0.10584,1.12889 -0.21167,1.69333 -0.14111,0.56445 -0.28222,1.09361 -0.45861,1.62278 -0.17639,0.56444 -0.38806,1.12889 -0.635,1.69333 0,0.0353 -0.0353,0.0706 -0.0353,0.10584 -0.3175,0.56444 -0.635,1.05833 -0.98778,1.5875 -0.35277,0.49389 -0.81138,0.88194 -1.27,1.27 -0.10583,0.10583 -0.21166,0.17639 -0.28222,0.28222 -0.14111,0.10583 -0.35278,0.17639 -0.52916,0.24694 -0.28223,0.10584 -0.56445,0.17639 -0.67028,0.45861 -0.0353,0.0706 -0.0353,0.14112 -0.0353,0.24695 0,0.0353 0.0353,0.10583 0,0.17639 0,0.10583 -0.0353,0.24694 -0.0353,0.35278 -0.10583,0.45861 -0.17639,0.88194 -0.28222,1.34055 -0.14111,0.59972 -0.3175,1.12889 -0.49389,1.69333 -0.17639,0.52917 -0.38805,1.02306 -0.635,1.51695 l -0.0705,0.17639 c -0.0706,0.17639 -0.17639,0.42333 -0.3175,0.70555 -0.14112,0.24695 -0.28223,0.52917 -0.42334,0.67028 -0.0353,0.0706 -0.10583,0.10583 -0.14111,0.14111 -0.0705,0 -0.10583,-0.0353 -0.14111,-0.14111 v -0.17639 c 0,-0.21166 0,-0.42333 0.0353,-0.635 0,-0.3175 0.0353,-0.59972 0.0353,-0.88194 v -1.62278 c 0,-0.52917 -0.0353,-1.05833 -0.0706,-1.5875 -0.0353,-0.0706 -0.0353,-0.24694 -0.0706,-0.38806 -0.0353,-0.14111 -0.0705,-0.3175 -0.10583,-0.38805 0,-0.0353 0,-0.0706 -0.0353,-0.10583 v 0 0 c 0,0.0353 0,0.0353 -0.0353,0.0706 l -0.0353,-0.0706 m 6.42055,3.03388 c 0.35278,0 0.74084,0.14112 1.05834,0.45862 0.3175,0.3175 0.45861,0.70555 0.45861,1.05833 v 0 11.46528 -0.0353 c 0,0.38805 -0.14111,0.77611 -0.45861,1.09361 -0.3175,0.28222 -0.70556,0.42333 -1.05834,0.42333 v 0.0353 H 85.908448 l 0.03528,-0.0353 c -0.388056,0 -0.776111,-0.14111 -1.058333,-0.42333 -0.3175,-0.3175 -0.458612,-0.70556 -0.458612,-1.09361 v 0.0353 -11.46528 0 c 0,-0.38806 0.176389,-0.77611 0.458612,-1.05833 0.282222,-0.28223 0.635,-0.45862 1.058333,-0.45862 h -0.03528 3.104444 v -26.10555 c 0,-0.24694 0.211667,-0.45861 0.493889,-0.45861 0.105834,0 0.246945,0.0353 0.3175,0.14111 0.07056,0.0353 0.105834,0.10583 0.141111,0.17639 0,0.0353 0.03528,0.10583 0.03528,0.14111 h -0.03528 v 26.10555 h 26.634718 l 0.0706,1.19945 -0.14111,1.79917 0.49389,0.17638 1.02305,-1.72861 0.0353,0.0353 v 0 l 0.70556,-1.48167 h 4.16277 v 0"
       style="fill:#ffffff;fill-opacity:1;fill-rule:evenodd;stroke:none;stroke-width:0.352778"
       sodipodi:nodetypes="cccccccccsscccccscccccscccccccccccccccscccscccscccccccccccccccccccsccccccccccscsscscscscccssccccccccscccsccccssccccccccccccccc" />
    <path
       id="path208"
       d="m 89.012891,128.31233 v 26.10555"
       style="fill:none;stroke:#003f87;stroke-width:0.0846667;stroke-linecap:butt;stroke-linejoin:bevel;stroke-miterlimit:1.414;stroke-dasharray:none;stroke-opacity:1" />
    <path
       id="path209"
       d="M 89.012891,154.41789 H 85.908447"
       style="fill:none;stroke:#003f87;stroke-width:0.0846667;stroke-linecap:butt;stroke-linejoin:bevel;stroke-miterlimit:1.414;stroke-dasharray:none;stroke-opacity:1" />
    <path
       id="path210"
       d="m 85.943725,154.41789 c -0.423333,0 -0.776111,0.17639 -1.058333,0.45861 -0.282222,0.28222 -0.458611,0.67028 -0.458611,1.05833"
       style="fill:none;stroke:#003f87;stroke-width:0.0846667;stroke-linecap:butt;stroke-linejoin:bevel;stroke-miterlimit:1.414;stroke-dasharray:none;stroke-opacity:1" />
    <path
       id="path211"
       d="m 84.426781,155.93483 v 11.46528"
       style="fill:none;stroke:#003f87;stroke-width:0.0846667;stroke-linecap:butt;stroke-linejoin:bevel;stroke-miterlimit:1.414;stroke-dasharray:none;stroke-opacity:1" />
    <path
       id="path212"
       d="m 84.426781,167.36483 c 0,0.42333 0.176389,0.81139 0.458611,1.09361 0.282222,0.28222 0.635,0.42333 1.058333,0.42333"
       style="fill:none;stroke:#003f87;stroke-width:0.0846667;stroke-linecap:butt;stroke-linejoin:bevel;stroke-miterlimit:1.414;stroke-dasharray:none;stroke-opacity:1" />
    <path
       id="path213"
       d="M 85.908448,168.91705 H 122.95011"
       style="fill:none;stroke:#003f87;stroke-width:0.0846667;stroke-linecap:butt;stroke-linejoin:bevel;stroke-miterlimit:1.414;stroke-dasharray:none;stroke-opacity:1" />
    <path
       id="path214"
       d="m 122.95011,168.88178 c 0.38806,0 0.77611,-0.14111 1.05833,-0.42333 0.28223,-0.28223 0.45861,-0.67028 0.45861,-1.09361"
       style="fill:none;stroke:#003f87;stroke-width:0.0846667;stroke-linecap:butt;stroke-linejoin:bevel;stroke-miterlimit:1.414;stroke-dasharray:none;stroke-opacity:1" />
    <path
       id="path215"
       d="M 124.46706,167.40011 V 155.93483"
       style="fill:none;stroke:#003f87;stroke-width:0.0846667;stroke-linecap:butt;stroke-linejoin:bevel;stroke-miterlimit:1.414;stroke-dasharray:none;stroke-opacity:1" />
    <path
       id="path216"
       d="m 124.46706,155.93483 c 0,-0.38806 -0.17639,-0.77611 -0.45861,-1.05833 -0.28222,-0.28223 -0.67028,-0.45861 -1.05833,-0.45861"
       style="fill:none;stroke:#003f87;stroke-width:0.0846667;stroke-linecap:butt;stroke-linejoin:bevel;stroke-miterlimit:1.414;stroke-dasharray:none;stroke-opacity:1" />
    <path
       id="path217"
       d="m 122.95011,154.41789 h -4.16278"
       style="fill:none;stroke:#003f87;stroke-width:0.0846667;stroke-linecap:butt;stroke-linejoin:bevel;stroke-miterlimit:1.414;stroke-dasharray:none;stroke-opacity:1" />
    <path
       id="path218"
       d="m 118.78733,154.41789 -0.70556,1.48167"
       style="fill:none;stroke:#003f87;stroke-width:0.0846667;stroke-linecap:butt;stroke-linejoin:bevel;stroke-miterlimit:1.414;stroke-dasharray:none;stroke-opacity:1" />
    <path
       id="path219"
       d="m 116.67067,155.61733 -0.0706,-1.19944"
       style="fill:none;stroke:#003f87;stroke-width:0.0846667;stroke-linecap:butt;stroke-linejoin:bevel;stroke-miterlimit:1.414;stroke-dasharray:none;stroke-opacity:1" />
    <path
       id="path220"
       d="M 116.60011,154.41789 H 89.965389"
       style="fill:none;stroke:#003f87;stroke-width:0.0846667;stroke-linecap:butt;stroke-linejoin:bevel;stroke-miterlimit:1.414;stroke-dasharray:none;stroke-opacity:1" />
    <path
       id="path221"
       d="M 89.965391,154.41789 V 128.31234"
       style="fill:none;stroke:#003f87;stroke-width:0.0846667;stroke-linecap:butt;stroke-linejoin:bevel;stroke-miterlimit:1.414;stroke-dasharray:none;stroke-opacity:1" />
    <path
       id="path222"
       d="m 90.000668,128.31233 c -0.03528,-0.24694 -0.246944,-0.45861 -0.493889,-0.45861 -0.282222,0 -0.493889,0.21167 -0.493889,0.45861"
       style="fill:none;stroke:#003f87;stroke-width:0.0846667;stroke-linecap:butt;stroke-linejoin:bevel;stroke-miterlimit:1.414;stroke-dasharray:none;stroke-opacity:1" />
    <path
       id="path223"
       d="m 116.52956,151.384 c -0.49389,0.0706 -0.9525,0.17639 -1.41111,0.24694 -0.49389,0.0706 -1.02306,0.17639 -1.51695,0.24695 -0.52916,0.0705 -1.09361,0.10583 -1.62277,0.14111 -0.56445,0.0706 -1.09361,0.10583 -1.62278,0.17639 -0.56445,0.0353 -1.09361,0.0353 -1.62278,0.0353 -0.56444,0 -1.09361,0 -1.65805,-0.0706 -0.56445,-0.0705 -1.09362,-0.17639 -1.65806,-0.28222 -0.56444,-0.10583 -1.12889,-0.21167 -1.69333,-0.35278 -0.56445,-0.17639 -1.09361,-0.38805 -1.62278,-0.635 -0.635,-0.3175 -1.23472,-0.67028 -1.79917,-1.05833 -0.599719,-0.38806 -1.164164,-0.84667 -1.69333,-1.34056 -0.529167,-0.49389 -0.9525,-1.02305 -1.375833,-1.62278 -0.388056,-0.56444 -0.740834,-1.12888 -0.9525,-1.79916 -0.211667,-0.59972 -0.352778,-1.23472 -0.493889,-1.86972 0,-0.0706 -0.03528,-0.10584 -0.03528,-0.17639 -0.07056,-0.56445 -0.176389,-1.12889 -0.211667,-1.69334 -0.07055,-0.56444 -0.03528,-1.09361 0,-1.65805 0.03528,-0.56445 0.105834,-1.16417 0.211667,-1.76389 0.105833,-0.56444 0.3175,-1.09361 0.529167,-1.62278 0.282222,-0.67028 0.599722,-1.30528 1.058333,-1.86972 0.493889,-0.70556 1.058333,-1.34056 1.658055,-1.905 0.564445,-0.52917 1.128887,-1.02306 1.728617,-1.44639 0.52916,-0.3175 1.09361,-0.67028 1.62277,-0.98778 0.28223,-0.14111 0.52917,-0.3175 0.81139,-0.45861 0.3175,-0.10583 0.67028,-0.17639 0.98778,-0.28222 0.67028,-0.17639 1.34056,-0.42333 2.01083,-0.59972 0.59973,-0.17639 1.23473,-0.3175 1.86973,-0.38806 0.59972,-0.0705 1.23472,-0.14111 1.83444,-0.14111 0.56444,0 1.09361,0.0353 1.65806,0.0353 0.0353,0 0.0705,0 0.10583,0 0.49389,0.0353 1.02305,0.14111 1.51694,0.24694 0.59973,0.14111 1.16417,0.28223 1.72861,0.45861 0.59973,0.21167 1.16417,0.49389 1.72862,0.77612 0.56444,0.28222 1.12888,0.59972 1.65805,0.9525 0.56445,0.35277 1.05833,0.74083 1.55222,1.16416 0.56445,0.45861 1.05834,0.9525 1.55223,1.48167 0.45861,0.49389 0.88194,1.02305 1.19944,1.62278 0.28222,0.49389 0.49389,1.02305 0.74083,1.55222 0.24695,0.52917 0.49389,1.02305 0.67028,1.5875 0.21167,0.52917 0.28222,1.09361 0.35278,1.65805 0.10583,0.52917 0.17639,1.05834 0.14111,1.5875 0,0.56445 -0.10583,1.12889 -0.21167,1.69334 -0.14111,0.56444 -0.28222,1.09361 -0.45861,1.62277 -0.17639,0.56445 -0.38805,1.12889 -0.635,1.69334 0,0.0353 -0.0353,0.0705 -0.0353,0.10583 -0.3175,0.56445 -0.635,1.05833 -0.98777,1.5875 -0.45861,0.59972 -1.02306,1.05833 -1.55223,1.55222 -0.35277,0.3175 -1.02305,0.24695 -1.19944,0.70556 -0.0706,0.14111 0,0.28222 -0.0353,0.42333 -0.10583,0.56445 -0.17639,1.12889 -0.3175,1.69334 -0.14111,0.59972 -0.3175,1.12888 -0.49389,1.69333 -0.17639,0.59972 -0.45861,1.12889 -0.70555,1.69333 -0.24695,0.52917 -0.84667,1.94028 -1.02306,1.37584 0,-0.0706 0,-0.14112 0,-0.17639 0,-0.52917 0.0706,-1.02306 0.0706,-1.51695 0,-0.52916 0,-1.09361 0,-1.62278 0,-0.52916 -0.0353,-1.05833 -0.0706,-1.5875 -0.0353,-0.28222 -0.21166,-1.05833 -0.24694,-0.81138"
       style="fill:none;stroke:#003f87;stroke-width:0.0846667;stroke-linecap:butt;stroke-linejoin:bevel;stroke-miterlimit:1.414;stroke-dasharray:none;stroke-opacity:1" />
    <path
       id="path224"
       d="m 102.38317,139.35428 4.37444,-5.25639"
       style="fill:none;stroke:#003f87;stroke-width:0.0846667;stroke-linecap:butt;stroke-linejoin:bevel;stroke-miterlimit:1.414;stroke-dasharray:none;stroke-opacity:1" />
    <path
       id="path225"
       d="m 106.75761,134.09789 -2.61056,5.25639"
       style="fill:none;stroke:#003f87;stroke-width:0.0846667;stroke-linecap:butt;stroke-linejoin:bevel;stroke-miterlimit:1.414;stroke-dasharray:none;stroke-opacity:1" />
    <path
       id="path226"
       d="m 104.14706,139.35428 h 14.56972"
       style="fill:none;stroke:#003f87;stroke-width:0.0846667;stroke-linecap:butt;stroke-linejoin:bevel;stroke-miterlimit:1.414;stroke-dasharray:none;stroke-opacity:1" />
    <path
       id="path227"
       d="m 118.6815,139.35428 c 0.635,0.0353 1.27,-0.28222 1.62278,-0.84667 0.38805,-0.52916 0.45861,-1.23472 0.17639,-1.83444 -0.24695,-0.59972 -0.81139,-1.02306 -1.48167,-1.12889 -0.635,-0.10583 -1.30528,0.14111 -1.72861,0.635"
       style="fill:none;stroke:#003f87;stroke-width:0.0846667;stroke-linecap:butt;stroke-linejoin:bevel;stroke-miterlimit:1.414;stroke-dasharray:none;stroke-opacity:1" />
    <path
       id="path228"
       d="m 117.27039,136.17928 c 0.45861,-0.59972 0.59972,-1.37583 0.45861,-2.11667 -0.14111,-0.74083 -0.59972,-1.37583 -1.23472,-1.76389 -0.67028,-0.38805 -1.44639,-0.49388 -2.15195,-0.28222 -0.70555,0.21167 -1.30527,0.70556 -1.65805,1.37584"
       style="fill:none;stroke:#003f87;stroke-width:0.0846667;stroke-linecap:butt;stroke-linejoin:bevel;stroke-miterlimit:1.414;stroke-dasharray:none;stroke-opacity:1" />
    <path
       id="path229"
       d="m 112.68428,133.39233 c 0.24694,-0.49389 0.24694,-1.05833 0.0353,-1.55222 -0.17639,-0.52917 -0.59972,-0.91722 -1.12889,-1.09361 -0.49389,-0.17639 -1.09361,-0.14111 -1.55222,0.14111 -0.49389,0.24694 -0.84667,0.70555 -0.9525,1.23472"
       style="fill:none;stroke:#003f87;stroke-width:0.0846667;stroke-linecap:butt;stroke-linejoin:bevel;stroke-miterlimit:1.414;stroke-dasharray:none;stroke-opacity:1" />
    <path
       id="path230"
       d="m 109.12122,132.12233 c -0.38806,-0.59972 -0.9525,-1.05833 -1.62278,-1.30528 -0.67028,-0.21166 -1.41111,-0.21166 -2.08139,0.0706 -0.635,0.24694 -1.19944,0.74083 -1.55222,1.34055 -0.3175,0.635 -0.45861,1.34056 -0.3175,2.04611"
       style="fill:none;stroke:#003f87;stroke-width:0.0846667;stroke-linecap:butt;stroke-linejoin:bevel;stroke-miterlimit:1.414;stroke-dasharray:none;stroke-opacity:1" />
    <path
       id="path231"
       d="m 103.54733,134.27428 c -0.3175,-0.35278 -0.74083,-0.56444 -1.19944,-0.59972 -0.45862,-0.0353 -0.91723,0.10583 -1.27,0.38805 -0.35278,0.3175 -0.56445,0.70556 -0.59973,1.16417 -0.0705,0.45861 0.0706,0.91722 0.35278,1.30528"
       style="fill:none;stroke:#003f87;stroke-width:0.0846667;stroke-linecap:butt;stroke-linejoin:bevel;stroke-miterlimit:1.414;stroke-dasharray:none;stroke-opacity:1" />
    <path
       id="path232"
       d="m 100.83095,136.53206 c -0.38806,-0.0706 -0.77611,0.0353 -1.058333,0.24694 -0.3175,0.21167 -0.529167,0.56445 -0.564445,0.9525 -0.07055,0.35278 0.03528,0.74084 0.246945,1.05834 0.211666,0.28222 0.564443,0.49389 0.952503,0.56444"
       style="fill:none;stroke:#003f87;stroke-width:0.0846667;stroke-linecap:butt;stroke-linejoin:bevel;stroke-miterlimit:1.414;stroke-dasharray:none;stroke-opacity:1" />
    <path
       id="path233"
       d="m 100.37233,139.35428 h 2.01083"
       style="fill:none;stroke:#003f87;stroke-width:0.0846667;stroke-linecap:butt;stroke-linejoin:bevel;stroke-miterlimit:1.414;stroke-dasharray:none;stroke-opacity:1" />
    <path
       id="path234"
       d="m 104.7115,137.37872 -2.89278,3.38667"
       style="fill:none;stroke:#003f87;stroke-width:0.0846667;stroke-linecap:butt;stroke-linejoin:bevel;stroke-miterlimit:1.414;stroke-dasharray:none;stroke-opacity:1" />
    <path
       id="path235"
       d="m 101.81872,140.76539 h 2.46944"
       style="fill:none;stroke:#003f87;stroke-width:0.0846667;stroke-linecap:butt;stroke-linejoin:bevel;stroke-miterlimit:1.414;stroke-dasharray:none;stroke-opacity:1" />
    <path
       id="path236"
       d="m 104.28817,140.76539 -2.04611,3.24556"
       style="fill:none;stroke:#003f87;stroke-width:0.0846667;stroke-linecap:butt;stroke-linejoin:bevel;stroke-miterlimit:1.414;stroke-dasharray:none;stroke-opacity:1" />
    <path
       id="path237"
       d="m 102.24206,144.01094 3.56306,-3.84528"
       style="fill:none;stroke:#003f87;stroke-width:0.0846667;stroke-linecap:butt;stroke-linejoin:bevel;stroke-miterlimit:1.414;stroke-dasharray:none;stroke-opacity:1" />
    <path
       id="path238"
       d="m 105.80511,140.16567 h -2.50472"
       style="fill:none;stroke:#003f87;stroke-width:0.0846667;stroke-linecap:butt;stroke-linejoin:bevel;stroke-miterlimit:1.414;stroke-dasharray:none;stroke-opacity:1" />
    <path
       id="path239"
       d="m 103.30039,140.16567 1.41111,-2.78694"
       style="fill:none;stroke:#003f87;stroke-width:0.0846667;stroke-linecap:butt;stroke-linejoin:bevel;stroke-miterlimit:1.414;stroke-dasharray:none;stroke-opacity:1" />
    <path
       id="path240"
       d="m 101.67761,142.38817 c -0.0706,0.10583 -0.14111,0.21167 -0.21167,0.3175 -0.0705,0.10583 -0.14111,0.21167 -0.21166,0.3175 -0.0353,0.0706 -0.0706,0.10583 -0.10584,0.17639 0,0.0353 0,0.10583 0,0.14111 0,0.0353 0,0.0706 0,0.10583 0,0.0353 0,0.0706 0.0353,0.0706 0.0353,0.0353 0.0353,0.0353 0.0706,0.0353 0.0706,0 0.10583,0 0.14111,0 0.0353,-0.0353 0.0705,-0.0706 0.10583,-0.0706 0,-0.0353 0.0353,0 0.0706,-0.0353 0,-0.0353 0,-0.10583 0,-0.14111 0,-0.0705 0,-0.14111 0,-0.17639 0.0353,-0.10583 0,-0.21166 0,-0.35277 0.0353,-0.0706 0.0705,-0.17639 0.0705,-0.24695 0.0353,-0.0353 0,-0.10583 0,-0.14111"
       style="fill:none;stroke:#003f87;stroke-width:0.0846667;stroke-linecap:butt;stroke-linejoin:bevel;stroke-miterlimit:1.414;stroke-dasharray:none;stroke-opacity:1" />
    <path
       id="path241"
       d="m 100.40761,142.56455 c -0.0706,0.10583 -0.14111,0.21167 -0.21167,0.3175 -0.0705,0.10583 -0.14111,0.21167 -0.211663,0.3175 -0.03528,0.0353 -0.07056,0.10583 -0.07056,0.14111 -0.03528,0.0706 -0.03528,0.10583 -0.03528,0.14111 0,0.0353 0,0.0706 0,0.10584 0,0.0353 0.03528,0.0705 0.105834,0.10583 0,0 0.03527,0 0.03527,0 0.0353,0 0.10584,0.0353 0.14112,0 0.0353,0 0.0353,-0.0353 0.0705,-0.0706 0,0 0.0706,0 0.0706,-0.0353 0,-0.0353 0,-0.0706 0,-0.14112 0,-0.0353 0.0353,-0.10583 0.0353,-0.14111 0,-0.10583 0.0353,-0.24694 0.0353,-0.35277 0,-0.10584 0.0353,-0.17639 0.0353,-0.24695 0,-0.0353 0,-0.0353 0,-0.0353 0,-0.0353 0,-0.0705 0,-0.10583"
       style="fill:none;stroke:#003f87;stroke-width:0.0846667;stroke-linecap:butt;stroke-linejoin:bevel;stroke-miterlimit:1.414;stroke-dasharray:none;stroke-opacity:1" />
    <path
       id="path242"
       d="m 109.26233,140.48317 h -1.72861"
       style="fill:none;stroke:#003f87;stroke-width:0.0846667;stroke-linecap:butt;stroke-linejoin:bevel;stroke-miterlimit:1.414;stroke-dasharray:none;stroke-opacity:1" />
    <path
       id="path243"
       d="m 107.53372,140.48317 v 0.21167"
       style="fill:none;stroke:#003f87;stroke-width:0.0846667;stroke-linecap:butt;stroke-linejoin:bevel;stroke-miterlimit:1.414;stroke-dasharray:none;stroke-opacity:1" />
    <path
       id="path244"
       d="m 107.53372,140.69483 h 1.72861"
       style="fill:none;stroke:#003f87;stroke-width:0.0846667;stroke-linecap:butt;stroke-linejoin:bevel;stroke-miterlimit:1.414;stroke-dasharray:none;stroke-opacity:1" />
    <path
       id="path245"
       d="m 109.26233,140.69483 v -0.21167"
       style="fill:none;stroke:#003f87;stroke-width:0.0846667;stroke-linecap:butt;stroke-linejoin:bevel;stroke-miterlimit:1.414;stroke-dasharray:none;stroke-opacity:1" />
    <path
       id="path246"
       d="m 109.89733,142.77622 -1.51694,0.91722"
       style="fill:none;stroke:#003f87;stroke-width:0.0846667;stroke-linecap:butt;stroke-linejoin:bevel;stroke-miterlimit:1.414;stroke-dasharray:none;stroke-opacity:1" />
    <path
       id="path247"
       d="m 108.38039,143.69344 0.10583,0.14111"
       style="fill:none;stroke:#003f87;stroke-width:0.0846667;stroke-linecap:butt;stroke-linejoin:bevel;stroke-miterlimit:1.414;stroke-dasharray:none;stroke-opacity:1" />
    <path
       id="path248"
       d="m 108.48622,143.83455 1.51694,-0.81139"
       style="fill:none;stroke:#003f87;stroke-width:0.0846667;stroke-linecap:butt;stroke-linejoin:bevel;stroke-miterlimit:1.414;stroke-dasharray:none;stroke-opacity:1" />
    <path
       id="path249"
       d="m 110.00317,143.02317 -0.10583,-0.24694"
       style="fill:none;stroke:#003f87;stroke-width:0.0846667;stroke-linecap:butt;stroke-linejoin:bevel;stroke-miterlimit:1.414;stroke-dasharray:none;stroke-opacity:1" />
    <path
       id="path250"
       d="m 111.66122,144.29317 -0.91722,1.48167"
       style="fill:none;stroke:#003f87;stroke-width:0.0846667;stroke-linecap:butt;stroke-linejoin:bevel;stroke-miterlimit:1.414;stroke-dasharray:none;stroke-opacity:1" />
    <path
       id="path251"
       d="m 110.744,145.77483 0.21167,0.14111"
       style="fill:none;stroke:#003f87;stroke-width:0.0846667;stroke-linecap:butt;stroke-linejoin:bevel;stroke-miterlimit:1.414;stroke-dasharray:none;stroke-opacity:1" />
    <path
       id="path252"
       d="m 110.95567,145.91594 0.88194,-1.51694"
       style="fill:none;stroke:#003f87;stroke-width:0.0846667;stroke-linecap:butt;stroke-linejoin:bevel;stroke-miterlimit:1.414;stroke-dasharray:none;stroke-opacity:1" />
    <path
       id="path253"
       d="m 111.83761,144.399 -0.17639,-0.10583"
       style="fill:none;stroke:#003f87;stroke-width:0.0846667;stroke-linecap:butt;stroke-linejoin:bevel;stroke-miterlimit:1.414;stroke-dasharray:none;stroke-opacity:1" />
    <path
       id="path254"
       d="m 114.09539,144.57539 v 1.76389"
       style="fill:none;stroke:#003f87;stroke-width:0.0846667;stroke-linecap:butt;stroke-linejoin:bevel;stroke-miterlimit:1.414;stroke-dasharray:none;stroke-opacity:1" />
    <path
       id="path255"
       d="m 114.09539,146.33928 h 0.24694"
       style="fill:none;stroke:#003f87;stroke-width:0.0846667;stroke-linecap:butt;stroke-linejoin:bevel;stroke-miterlimit:1.414;stroke-dasharray:none;stroke-opacity:1" />
    <path
       id="path256"
       d="m 114.34233,146.33928 v -1.76389"
       style="fill:none;stroke:#003f87;stroke-width:0.0846667;stroke-linecap:butt;stroke-linejoin:bevel;stroke-miterlimit:1.414;stroke-dasharray:none;stroke-opacity:1" />
    <path
       id="path257"
       d="m 114.34233,144.57539 h -0.24694"
       style="fill:none;stroke:#003f87;stroke-width:0.0846667;stroke-linecap:butt;stroke-linejoin:bevel;stroke-miterlimit:1.414;stroke-dasharray:none;stroke-opacity:1" />
    <path
       id="path258"
       d="m 116.81178,144.29317 0.84667,1.48167"
       style="fill:none;stroke:#003f87;stroke-width:0.0846667;stroke-linecap:butt;stroke-linejoin:bevel;stroke-miterlimit:1.414;stroke-dasharray:none;stroke-opacity:1" />
    <path
       id="path259"
       d="m 117.65845,145.77483 -0.21167,0.14111"
       style="fill:none;stroke:#003f87;stroke-width:0.0846667;stroke-linecap:butt;stroke-linejoin:bevel;stroke-miterlimit:1.414;stroke-dasharray:none;stroke-opacity:1" />
    <path
       id="path260"
       d="M 117.44678,145.91594 116.56484,144.399"
       style="fill:none;stroke:#003f87;stroke-width:0.0846667;stroke-linecap:butt;stroke-linejoin:bevel;stroke-miterlimit:1.414;stroke-dasharray:none;stroke-opacity:1" />
    <path
       id="path261"
       d="m 116.56483,144.399 0.24694,-0.10583"
       style="fill:none;stroke:#003f87;stroke-width:0.0846667;stroke-linecap:butt;stroke-linejoin:bevel;stroke-miterlimit:1.414;stroke-dasharray:none;stroke-opacity:1" />
    <path
       id="path262"
       d="m 118.54039,142.77622 1.48167,0.91722"
       style="fill:none;stroke:#003f87;stroke-width:0.0846667;stroke-linecap:butt;stroke-linejoin:bevel;stroke-miterlimit:1.414;stroke-dasharray:none;stroke-opacity:1" />
    <path
       id="path263"
       d="m 120.02206,143.69344 -0.10583,0.14111"
       style="fill:none;stroke:#003f87;stroke-width:0.0846667;stroke-linecap:butt;stroke-linejoin:bevel;stroke-miterlimit:1.414;stroke-dasharray:none;stroke-opacity:1" />
    <path
       id="path264"
       d="m 119.91622,143.83455 -1.48167,-0.81139"
       style="fill:none;stroke:#003f87;stroke-width:0.0846667;stroke-linecap:butt;stroke-linejoin:bevel;stroke-miterlimit:1.414;stroke-dasharray:none;stroke-opacity:1" />
    <path
       id="path265"
       d="m 118.43456,143.02317 0.10583,-0.24694"
       style="fill:none;stroke:#003f87;stroke-width:0.0846667;stroke-linecap:butt;stroke-linejoin:bevel;stroke-miterlimit:1.414;stroke-dasharray:none;stroke-opacity:1" />
    <path
       id="path266"
       d="m 119.14011,140.48317 h 1.72861"
       style="fill:none;stroke:#003f87;stroke-width:0.0846667;stroke-linecap:butt;stroke-linejoin:bevel;stroke-miterlimit:1.414;stroke-dasharray:none;stroke-opacity:1" />
    <path
       id="path267"
       d="m 120.86872,140.48317 v 0.21167"
       style="fill:none;stroke:#003f87;stroke-width:0.0846667;stroke-linecap:butt;stroke-linejoin:bevel;stroke-miterlimit:1.414;stroke-dasharray:none;stroke-opacity:1" />
    <path
       id="path268"
       d="m 120.86872,140.69483 h -1.72861"
       style="fill:none;stroke:#003f87;stroke-width:0.0846667;stroke-linecap:butt;stroke-linejoin:bevel;stroke-miterlimit:1.414;stroke-dasharray:none;stroke-opacity:1" />
    <path
       id="path269"
       d="m 119.14011,140.69483 v -0.21167"
       style="fill:none;stroke:#003f87;stroke-width:0.0846667;stroke-linecap:butt;stroke-linejoin:bevel;stroke-miterlimit:1.414;stroke-dasharray:none;stroke-opacity:1" />
    <path
       id="path270"
       d="m 118.22289,139.954 h -8.04333"
       style="fill:none;stroke:#003f87;stroke-width:0.0846667;stroke-linecap:butt;stroke-linejoin:bevel;stroke-miterlimit:1.414;stroke-dasharray:none;stroke-opacity:1" />
    <path
       id="path271"
       d="m 110.17956,139.98928 c 0,1.02306 0.45861,2.01083 1.19944,2.75167 0.74084,0.74083 1.72862,1.16416 2.78695,1.16416 1.05833,0 2.04611,-0.42333 2.78694,-1.16416 0.77611,-0.74084 1.19945,-1.72861 1.19945,-2.75167"
       style="fill:none;stroke:#003f87;stroke-width:0.0846667;stroke-linecap:butt;stroke-linejoin:bevel;stroke-miterlimit:1.414;stroke-dasharray:none;stroke-opacity:1" />
    <path
       id="path272"
       d="M 109.05067,158.12205 H 87.00206"
       style="fill:none;stroke:#003f87;stroke-width:0.0846667;stroke-linecap:butt;stroke-linejoin:bevel;stroke-miterlimit:1.414;stroke-dasharray:none;stroke-opacity:1" />
    <path
       id="path273"
       d="m 87.002058,158.12205 v 3.42194"
       style="fill:none;stroke:#003f87;stroke-width:0.0846667;stroke-linecap:butt;stroke-linejoin:bevel;stroke-miterlimit:1.414;stroke-dasharray:none;stroke-opacity:1" />
    <path
       id="path274"
       d="M 87.002058,161.544 H 98.361502"
       style="fill:none;stroke:#003f87;stroke-width:0.0846667;stroke-linecap:butt;stroke-linejoin:bevel;stroke-miterlimit:1.414;stroke-dasharray:none;stroke-opacity:1" />
    <path
       id="path275"
       d="m 98.361501,161.544 v -2.57528"
       style="fill:none;stroke:#003f87;stroke-width:0.0846667;stroke-linecap:butt;stroke-linejoin:bevel;stroke-miterlimit:1.414;stroke-dasharray:none;stroke-opacity:1" />
    <path
       id="path276"
       d="m 98.361501,158.96872 h 0.564444"
       style="fill:none;stroke:#003f87;stroke-width:0.0846667;stroke-linecap:butt;stroke-linejoin:bevel;stroke-miterlimit:1.414;stroke-dasharray:none;stroke-opacity:1" />
    <path
       id="path277"
       d="M 98.925948,158.96872 V 161.544"
       style="fill:none;stroke:#003f87;stroke-width:0.0846667;stroke-linecap:butt;stroke-linejoin:bevel;stroke-miterlimit:1.414;stroke-dasharray:none;stroke-opacity:1" />
    <path
       id="path278"
       d="M 98.925948,161.544 H 109.05067"
       style="fill:none;stroke:#003f87;stroke-width:0.0846667;stroke-linecap:butt;stroke-linejoin:bevel;stroke-miterlimit:1.414;stroke-dasharray:none;stroke-opacity:1" />
    <path
       id="path279"
       d="m 109.05067,161.544 v -3.42194"
       style="fill:none;stroke:#003f87;stroke-width:0.0846667;stroke-linecap:butt;stroke-linejoin:bevel;stroke-miterlimit:1.414;stroke-dasharray:none;stroke-opacity:1" />
    <path
       id="path280"
       d="m 118.0465,155.86428 c 0.9525,0.3175 1.79917,0.84667 2.46944,1.55222 0.67028,0.74084 1.16417,1.5875 1.41112,2.54 0.24694,0.9525 0.28222,1.97556 0.0353,2.92806 -0.24694,0.9525 -0.74083,1.83444 -1.41111,2.54 -0.67028,0.74083 -1.51694,1.27 -2.43416,1.5875 -0.9525,0.3175 -1.94028,0.35277 -2.89278,0.17639 -0.98778,-0.17639 -1.905,-0.59973 -2.64584,-1.23473 -0.77611,-0.59972 -1.37583,-1.41111 -1.72861,-2.32833 -0.35277,-0.91722 -0.49389,-1.905 -0.38805,-2.89278 0.14111,-0.98777 0.49389,-1.905 1.09361,-2.71639 0.56444,-0.77611 1.34055,-1.41111 2.2225,-1.83444 0.88194,-0.42333 1.86972,-0.635 2.8575,-0.56444"
       style="fill:none;stroke:#003f87;stroke-width:0.0846667;stroke-linecap:butt;stroke-linejoin:bevel;stroke-miterlimit:1.414;stroke-dasharray:none;stroke-opacity:1" />
    <path
       id="path281"
       d="m 116.63539,155.61733 h 0.0353"
       style="fill:none;stroke:#003f87;stroke-width:0.0846667;stroke-linecap:butt;stroke-linejoin:bevel;stroke-miterlimit:1.414;stroke-dasharray:none;stroke-opacity:1" />
    <path
       id="path282"
       d="M 83.403725,124.32594 H 125.49011"
       style="fill:none;stroke:#003f87;stroke-width:0.0846667;stroke-linecap:butt;stroke-linejoin:bevel;stroke-miterlimit:1.414;stroke-dasharray:none;stroke-opacity:1" />
    <path
       id="path283"
       d="m 125.49011,124.32594 c 0.81139,0 1.55222,0.3175 2.11667,0.88194 0.56444,0.56445 0.88194,1.34056 0.88194,2.15195"
       style="fill:none;stroke:#003f87;stroke-width:0.0846667;stroke-linecap:butt;stroke-linejoin:bevel;stroke-miterlimit:1.414;stroke-dasharray:none;stroke-opacity:1" />
    <path
       id="path284"
       d="m 128.48872,127.35983 v 42.05111"
       style="fill:none;stroke:#003f87;stroke-width:0.0846667;stroke-linecap:butt;stroke-linejoin:bevel;stroke-miterlimit:1.414;stroke-dasharray:none;stroke-opacity:1" />
    <path
       id="path285"
       d="m 128.48872,169.41094 c 0,0.81139 -0.3175,1.5875 -0.88194,2.15194 -0.56445,0.56445 -1.30528,0.84667 -2.11667,0.84667"
       style="fill:none;stroke:#003f87;stroke-width:0.0846667;stroke-linecap:butt;stroke-linejoin:bevel;stroke-miterlimit:1.414;stroke-dasharray:none;stroke-opacity:1" />
    <path
       id="path286"
       d="M 125.49011,172.40955 H 83.403723"
       style="fill:none;stroke:#003f87;stroke-width:0.0846667;stroke-linecap:butt;stroke-linejoin:bevel;stroke-miterlimit:1.414;stroke-dasharray:none;stroke-opacity:1" />
    <path
       id="path287"
       d="m 83.403725,172.40955 c -0.776111,0 -1.552222,-0.28222 -2.116667,-0.84667 -0.564444,-0.56444 -0.881944,-1.34055 -0.881944,-2.15194"
       style="fill:none;stroke:#003f87;stroke-width:0.0846667;stroke-linecap:butt;stroke-linejoin:bevel;stroke-miterlimit:1.414;stroke-dasharray:none;stroke-opacity:1" />
    <path
       id="path288"
       d="M 80.405115,169.41094 V 127.35983"
       style="fill:none;stroke:#003f87;stroke-width:0.0846667;stroke-linecap:butt;stroke-linejoin:bevel;stroke-miterlimit:1.414;stroke-dasharray:none;stroke-opacity:1" />
    <path
       id="path289"
       d="m 80.405115,127.35983 c 0,-0.81139 0.3175,-1.5875 0.881944,-2.15194 0.564445,-0.56445 1.340556,-0.88195 2.116667,-0.88195"
       style="fill:none;stroke:#003f87;stroke-width:0.0846667;stroke-linecap:butt;stroke-linejoin:bevel;stroke-miterlimit:1.414;stroke-dasharray:none;stroke-opacity:1" />
    <path
       id="path290"
       d="m 118.08178,155.89955 v 0 l -0.0353,-0.0353 -1.02305,1.72861 -0.49389,-0.17639 0.14111,-1.79916 c -0.42333,-0.0353 -0.84667,0 -1.30528,0.0705 -0.45861,0.0706 -0.91722,0.21167 -1.37583,0.38806 -0.9525,0.42333 -1.79917,1.05833 -2.43417,1.94028 -0.635,0.88194 -0.98778,1.905 -1.09361,2.92805 -0.0353,0.49389 -0.0353,0.9525 0.0353,1.41111 0.0705,0.45861 0.21166,0.88195 0.35278,1.27 0.14111,0.38806 0.35277,0.77611 0.59972,1.12889 0.28222,0.38806 0.59972,0.74084 0.9525,1.09361 0.77611,0.67028 1.72861,1.16417 2.78694,1.34056 1.09361,0.21166 2.15195,0.10583 3.10445,-0.24695 0.45861,-0.17638 0.88194,-0.38805 1.27,-0.635 0.38805,-0.28222 0.70555,-0.56444 0.98777,-0.84666 0.28223,-0.3175 0.52917,-0.67028 0.77612,-1.05834 0.24694,-0.38805 0.42333,-0.84666 0.56444,-1.30527 0.28222,-0.98778 0.3175,-2.04611 0.0353,-3.10445 -0.24695,-1.05833 -0.81139,-1.97555 -1.51695,-2.68111 -0.35277,-0.35278 -0.74083,-0.635 -1.12889,-0.88194 -0.42333,-0.24695 -0.81138,-0.42334 -1.19944,-0.52917 v 0 0"
       style="fill:#003f87;fill-opacity:1;fill-rule:evenodd;stroke:none;stroke-width:0.352778" />
    <path
       id="path292"
       d="M 109.05067,158.12205 H 87.00206 v 3.42194 h 11.359444 v -2.57527 h 0.564444 v 2.57527 h 10.124722 v -3.42194"
       style="fill:#003f87;fill-opacity:1;fill-rule:evenodd;stroke:none;stroke-width:0.352778" />
    <path
       id="path293"
       d="M 109.05067,158.12205 H 87.00206 v 3.42194 h 11.359444 v -2.57527 h 0.564444 v 2.57527 h 10.124722 v -3.42194"
       style="fill:#003f87;fill-opacity:1;fill-rule:evenodd;stroke:none;stroke-width:0.352778" />
    <path
       id="path295"
       d="m 116.67067,155.61733 c -0.42333,-0.0353 -0.84667,0 -1.30528,0.0706 -0.45861,0.0705 -0.91722,0.21166 -1.37583,0.38805 -0.9525,0.42333 -1.79917,1.05833 -2.43417,1.94028 -0.635,0.88194 -0.98778,1.905 -1.09361,2.92805 -0.0353,0.49389 -0.0353,0.9525 0.0353,1.41112 0.0705,0.45861 0.21167,0.88194 0.35278,1.27 0.14111,0.38805 0.35277,0.77611 0.59972,1.12888 0.28222,0.38806 0.59972,0.74084 0.9525,1.09362 0.77611,0.67027 1.72861,1.16416 2.78694,1.34055 1.09361,0.21167 2.15195,0.10583 3.10445,-0.24694 0.45861,-0.17639 0.88194,-0.38806 1.27,-0.635 0.38805,-0.28223 0.70555,-0.56445 0.98778,-0.84667 0.28222,-0.3175 0.52916,-0.67028 0.77611,-1.05833 0.24694,-0.38806 0.42333,-0.84667 0.56444,-1.30528 0.28222,-0.98778 0.3175,-2.04611 0.0353,-3.10445 -0.24695,-1.05833 -0.81139,-1.97555 -1.51695,-2.68111 -0.35277,-0.35277 -0.74083,-0.635 -1.12888,-0.88194 -0.42334,-0.24695 -0.81139,-0.42333 -1.19945,-0.52917 v 0 0 0 l -0.0353,-0.0353 -1.02305,1.72862 -0.49389,-0.17639 0.14111,-1.79917"
       style="fill:#003f87;fill-opacity:1;fill-rule:evenodd;stroke:none;stroke-width:0.352778" />
    <path
       id="path296"
       d="m 118.08178,155.89955 v 0 l -0.0353,-0.0353 -1.02305,1.72861 -0.49389,-0.17639 0.14111,-1.79916 c -0.42333,-0.0353 -0.84667,0 -1.30528,0.0705 -0.45861,0.0706 -0.91722,0.21167 -1.37583,0.38806 -0.9525,0.42333 -1.79917,1.05833 -2.43417,1.94028 -0.635,0.88194 -0.98778,1.905 -1.09361,2.92805 -0.0353,0.49389 -0.0353,0.9525 0.0353,1.41111 0.0705,0.45861 0.21166,0.88195 0.35278,1.27 0.14111,0.38806 0.35277,0.77611 0.59972,1.12889 0.28222,0.38806 0.59972,0.74084 0.9525,1.09361 0.77611,0.67028 1.72861,1.16417 2.78694,1.34056 1.09361,0.21166 2.15195,0.10583 3.10445,-0.24695 0.45861,-0.17638 0.88194,-0.38805 1.27,-0.635 0.38805,-0.28222 0.70555,-0.56444 0.98777,-0.84666 0.28223,-0.3175 0.52917,-0.67028 0.77612,-1.05834 0.24694,-0.38805 0.42333,-0.84666 0.56444,-1.30527 0.28222,-0.98778 0.3175,-2.04611 0.0353,-3.10445 -0.24695,-1.05833 -0.81139,-1.97555 -1.51695,-2.68111 -0.35277,-0.35278 -0.74083,-0.635 -1.12889,-0.88194 -0.42333,-0.24695 -0.81138,-0.42334 -1.19944,-0.52917 v 0 0"
       style="fill:#003f87;fill-opacity:1;fill-rule:evenodd;stroke:none;stroke-width:0.352778" />
    <path
       id="path298"
       d="m 104.49983,145.38678 0.3175,-0.10583"
       style="fill:none;stroke:#003f87;stroke-width:0.0846667;stroke-linecap:butt;stroke-linejoin:bevel;stroke-miterlimit:1.414;stroke-dasharray:none;stroke-opacity:1" />
    <path
       id="path299"
       d="M 104.81733,145.28094 104.67622,145.034"
       style="fill:none;stroke:#003f87;stroke-width:0.0846667;stroke-linecap:butt;stroke-linejoin:bevel;stroke-miterlimit:1.414;stroke-dasharray:none;stroke-opacity:1" />
    <path
       id="path300"
       d="m 104.67622,145.034 -0.24694,0.21167"
       style="fill:none;stroke:#003f87;stroke-width:0.0846667;stroke-linecap:butt;stroke-linejoin:bevel;stroke-miterlimit:1.414;stroke-dasharray:none;stroke-opacity:1" />
    <path
       id="path301"
       d="m 104.42928,145.24567 v -0.0353"
       style="fill:none;stroke:#003f87;stroke-width:0.0846667;stroke-linecap:butt;stroke-linejoin:bevel;stroke-miterlimit:1.414;stroke-dasharray:none;stroke-opacity:1" />
    <path
       id="path302"
       d="m 104.42928,145.21039 -0.0353,-0.35278"
       style="fill:none;stroke:#003f87;stroke-width:0.0846667;stroke-linecap:butt;stroke-linejoin:bevel;stroke-miterlimit:1.414;stroke-dasharray:none;stroke-opacity:1" />
    <path
       id="path303"
       d="m 104.394,144.85761 -0.28222,0.0353"
       style="fill:none;stroke:#003f87;stroke-width:0.0846667;stroke-linecap:butt;stroke-linejoin:bevel;stroke-miterlimit:1.414;stroke-dasharray:none;stroke-opacity:1" />
    <path
       id="path304"
       d="m 104.11178,144.89289 0.14111,0.35278"
       style="fill:none;stroke:#003f87;stroke-width:0.0846667;stroke-linecap:butt;stroke-linejoin:bevel;stroke-miterlimit:1.414;stroke-dasharray:none;stroke-opacity:1" />
    <path
       id="path305"
       d="m 104.25289,145.24567 v 0.0353"
       style="fill:none;stroke:#003f87;stroke-width:0.0846667;stroke-linecap:butt;stroke-linejoin:bevel;stroke-miterlimit:1.414;stroke-dasharray:none;stroke-opacity:1" />
    <path
       id="path306"
       d="m 104.25289,145.28094 -0.3175,-0.10583"
       style="fill:none;stroke:#003f87;stroke-width:0.0846667;stroke-linecap:butt;stroke-linejoin:bevel;stroke-miterlimit:1.414;stroke-dasharray:none;stroke-opacity:1" />
    <path
       id="path307"
       d="m 103.93539,145.17511 -0.0353,0.28222"
       style="fill:none;stroke:#003f87;stroke-width:0.0846667;stroke-linecap:butt;stroke-linejoin:bevel;stroke-miterlimit:1.414;stroke-dasharray:none;stroke-opacity:1" />
    <path
       id="path308"
       d="m 103.90011,145.45733 h 0.3175"
       style="fill:none;stroke:#003f87;stroke-width:0.0846667;stroke-linecap:butt;stroke-linejoin:bevel;stroke-miterlimit:1.414;stroke-dasharray:none;stroke-opacity:1" />
    <path
       id="path309"
       d="m 104.21761,145.45733 0.0353,0.0353"
       style="fill:none;stroke:#003f87;stroke-width:0.0846667;stroke-linecap:butt;stroke-linejoin:bevel;stroke-miterlimit:1.414;stroke-dasharray:none;stroke-opacity:1" />
    <path
       id="path310"
       d="m 104.25289,145.49261 -0.17639,0.28222"
       style="fill:none;stroke:#003f87;stroke-width:0.0846667;stroke-linecap:butt;stroke-linejoin:bevel;stroke-miterlimit:1.414;stroke-dasharray:none;stroke-opacity:1" />
    <path
       id="path311"
       d="m 104.0765,145.77483 0.24694,0.14111"
       style="fill:none;stroke:#003f87;stroke-width:0.0846667;stroke-linecap:butt;stroke-linejoin:bevel;stroke-miterlimit:1.414;stroke-dasharray:none;stroke-opacity:1" />
    <path
       id="path312"
       d="m 104.32345,145.91594 0.0706,-0.35278"
       style="fill:none;stroke:#003f87;stroke-width:0.0846667;stroke-linecap:butt;stroke-linejoin:bevel;stroke-miterlimit:1.414;stroke-dasharray:none;stroke-opacity:1" />
    <path
       id="path313"
       d="m 104.39122,145.56355 0.0127,-0.002"
       style="fill:none;stroke:#003f87;stroke-width:0.0846667;stroke-linecap:butt;stroke-linejoin:bevel;stroke-miterlimit:1.414;stroke-dasharray:none;stroke-opacity:1" />
    <path
       id="path314"
       d="m 104.394,145.56317 0.21167,0.28222"
       style="fill:none;stroke:#003f87;stroke-width:0.0846667;stroke-linecap:butt;stroke-linejoin:bevel;stroke-miterlimit:1.414;stroke-dasharray:none;stroke-opacity:1" />
    <path
       id="path315"
       d="m 104.60567,145.84539 0.17639,-0.21167"
       style="fill:none;stroke:#003f87;stroke-width:0.0846667;stroke-linecap:butt;stroke-linejoin:bevel;stroke-miterlimit:1.414;stroke-dasharray:none;stroke-opacity:1" />
    <path
       id="path316"
       d="m 104.78206,145.63372 -0.28222,-0.21167"
       style="fill:none;stroke:#003f87;stroke-width:0.0846667;stroke-linecap:butt;stroke-linejoin:bevel;stroke-miterlimit:1.414;stroke-dasharray:none;stroke-opacity:1" />
    <path
       id="path317"
       d="m 104.49983,145.42205 v -0.0353"
       style="fill:none;stroke:#003f87;stroke-width:0.0846667;stroke-linecap:butt;stroke-linejoin:bevel;stroke-miterlimit:1.414;stroke-dasharray:none;stroke-opacity:1" />
    <path
       id="path318"
       d="m 106.15789,142.494 0.28222,-0.10583"
       style="fill:none;stroke:#003f87;stroke-width:0.0846667;stroke-linecap:butt;stroke-linejoin:bevel;stroke-miterlimit:1.414;stroke-dasharray:none;stroke-opacity:1" />
    <path
       id="path319"
       d="M 106.44011,142.38817 106.299,142.14123"
       style="fill:none;stroke:#003f87;stroke-width:0.0846667;stroke-linecap:butt;stroke-linejoin:bevel;stroke-miterlimit:1.414;stroke-dasharray:none;stroke-opacity:1" />
    <path
       id="path320"
       d="m 106.299,142.14122 -0.24694,0.21167"
       style="fill:none;stroke:#003f87;stroke-width:0.0846667;stroke-linecap:butt;stroke-linejoin:bevel;stroke-miterlimit:1.414;stroke-dasharray:none;stroke-opacity:1" />
    <path
       id="path321"
       d="m 106.05206,142.35289 v -0.0353"
       style="fill:none;stroke:#003f87;stroke-width:0.0846667;stroke-linecap:butt;stroke-linejoin:bevel;stroke-miterlimit:1.414;stroke-dasharray:none;stroke-opacity:1" />
    <path
       id="path322"
       d="m 106.05206,142.31761 -0.0353,-0.35278"
       style="fill:none;stroke:#003f87;stroke-width:0.0846667;stroke-linecap:butt;stroke-linejoin:bevel;stroke-miterlimit:1.414;stroke-dasharray:none;stroke-opacity:1" />
    <path
       id="path323"
       d="m 106.01678,141.96483 -0.24694,0.0353"
       style="fill:none;stroke:#003f87;stroke-width:0.0846667;stroke-linecap:butt;stroke-linejoin:bevel;stroke-miterlimit:1.414;stroke-dasharray:none;stroke-opacity:1" />
    <path
       id="path324"
       d="m 105.76983,142.00011 0.14111,0.35278"
       style="fill:none;stroke:#003f87;stroke-width:0.0846667;stroke-linecap:butt;stroke-linejoin:bevel;stroke-miterlimit:1.414;stroke-dasharray:none;stroke-opacity:1" />
    <path
       id="path325"
       d="m 105.91095,142.35289 -0.0353,0.0353"
       style="fill:none;stroke:#003f87;stroke-width:0.0846667;stroke-linecap:butt;stroke-linejoin:bevel;stroke-miterlimit:1.414;stroke-dasharray:none;stroke-opacity:1" />
    <path
       id="path326"
       d="m 105.87567,142.38817 -0.28222,-0.10583"
       style="fill:none;stroke:#003f87;stroke-width:0.0846667;stroke-linecap:butt;stroke-linejoin:bevel;stroke-miterlimit:1.414;stroke-dasharray:none;stroke-opacity:1" />
    <path
       id="path327"
       d="m 105.59345,142.28233 -0.0353,0.3175"
       style="fill:none;stroke:#003f87;stroke-width:0.0846667;stroke-linecap:butt;stroke-linejoin:bevel;stroke-miterlimit:1.414;stroke-dasharray:none;stroke-opacity:1" />
    <path
       id="path328"
       d="m 105.55817,142.59983 0.3175,-0.0353"
       style="fill:none;stroke:#003f87;stroke-width:0.0846667;stroke-linecap:butt;stroke-linejoin:bevel;stroke-miterlimit:1.414;stroke-dasharray:none;stroke-opacity:1" />
    <path
       id="path329"
       d="m 105.87567,142.56455 v 0.0353"
       style="fill:none;stroke:#003f87;stroke-width:0.0846667;stroke-linecap:butt;stroke-linejoin:bevel;stroke-miterlimit:1.414;stroke-dasharray:none;stroke-opacity:1" />
    <path
       id="path330"
       d="m 105.87567,142.59983 -0.14111,0.28222"
       style="fill:none;stroke:#003f87;stroke-width:0.0846667;stroke-linecap:butt;stroke-linejoin:bevel;stroke-miterlimit:1.414;stroke-dasharray:none;stroke-opacity:1" />
    <path
       id="path331"
       d="m 105.73456,142.88205 0.24694,0.10583"
       style="fill:none;stroke:#003f87;stroke-width:0.0846667;stroke-linecap:butt;stroke-linejoin:bevel;stroke-miterlimit:1.414;stroke-dasharray:none;stroke-opacity:1" />
    <path
       id="path332"
       d="m 105.9815,142.98789 0.0706,-0.3175"
       style="fill:none;stroke:#003f87;stroke-width:0.0846667;stroke-linecap:butt;stroke-linejoin:bevel;stroke-miterlimit:1.414;stroke-dasharray:none;stroke-opacity:1" />
    <path
       id="path333"
       d="m 106.03446,142.66936 0.012,-0.002"
       style="fill:none;stroke:#003f87;stroke-width:0.0846667;stroke-linecap:butt;stroke-linejoin:bevel;stroke-miterlimit:1.414;stroke-dasharray:none;stroke-opacity:1" />
    <path
       id="path334"
       d="m 106.05206,142.67039 0.17639,0.28222"
       style="fill:none;stroke:#003f87;stroke-width:0.0846667;stroke-linecap:butt;stroke-linejoin:bevel;stroke-miterlimit:1.414;stroke-dasharray:none;stroke-opacity:1" />
    <path
       id="path335"
       d="m 106.22845,142.95261 0.17639,-0.21167"
       style="fill:none;stroke:#003f87;stroke-width:0.0846667;stroke-linecap:butt;stroke-linejoin:bevel;stroke-miterlimit:1.414;stroke-dasharray:none;stroke-opacity:1" />
    <path
       id="path336"
       d="m 106.40483,142.74094 -0.24694,-0.21167"
       style="fill:none;stroke:#003f87;stroke-width:0.0846667;stroke-linecap:butt;stroke-linejoin:bevel;stroke-miterlimit:1.414;stroke-dasharray:none;stroke-opacity:1" />
    <path
       id="path337"
       d="M 106.15789,142.52928 V 142.494"
       style="fill:none;stroke:#003f87;stroke-width:0.0846667;stroke-linecap:butt;stroke-linejoin:bevel;stroke-miterlimit:1.414;stroke-dasharray:none;stroke-opacity:1" />
    <path
       id="path338"
       d="m 106.96928,144.75178 0.28222,-0.0706"
       style="fill:none;stroke:#003f87;stroke-width:0.0846667;stroke-linecap:butt;stroke-linejoin:bevel;stroke-miterlimit:1.414;stroke-dasharray:none;stroke-opacity:1" />
    <path
       id="path339"
       d="M 107.2515,144.68122 107.11039,144.399"
       style="fill:none;stroke:#003f87;stroke-width:0.0846667;stroke-linecap:butt;stroke-linejoin:bevel;stroke-miterlimit:1.414;stroke-dasharray:none;stroke-opacity:1" />
    <path
       id="path340"
       d="m 107.11039,144.399 -0.24694,0.21167"
       style="fill:none;stroke:#003f87;stroke-width:0.0846667;stroke-linecap:butt;stroke-linejoin:bevel;stroke-miterlimit:1.414;stroke-dasharray:none;stroke-opacity:1" />
    <path
       id="path341"
       d="m 106.86345,144.61067 v -0.0353"
       style="fill:none;stroke:#003f87;stroke-width:0.0846667;stroke-linecap:butt;stroke-linejoin:bevel;stroke-miterlimit:1.414;stroke-dasharray:none;stroke-opacity:1" />
    <path
       id="path342"
       d="m 106.86345,144.57539 v -0.38806"
       style="fill:none;stroke:#003f87;stroke-width:0.0846667;stroke-linecap:butt;stroke-linejoin:bevel;stroke-miterlimit:1.414;stroke-dasharray:none;stroke-opacity:1" />
    <path
       id="path343"
       d="m 106.86345,144.18733 -0.28222,0.0706"
       style="fill:none;stroke:#003f87;stroke-width:0.0846667;stroke-linecap:butt;stroke-linejoin:bevel;stroke-miterlimit:1.414;stroke-dasharray:none;stroke-opacity:1" />
    <path
       id="path344"
       d="m 106.58122,144.25789 0.14111,0.35278"
       style="fill:none;stroke:#003f87;stroke-width:0.0846667;stroke-linecap:butt;stroke-linejoin:bevel;stroke-miterlimit:1.414;stroke-dasharray:none;stroke-opacity:1" />
    <path
       id="path345"
       d="m 106.72233,144.61067 -0.0353,0.0353"
       style="fill:none;stroke:#003f87;stroke-width:0.0846667;stroke-linecap:butt;stroke-linejoin:bevel;stroke-miterlimit:1.414;stroke-dasharray:none;stroke-opacity:1" />
    <path
       id="path346"
       d="m 106.68706,144.64594 -0.28222,-0.10583"
       style="fill:none;stroke:#003f87;stroke-width:0.0846667;stroke-linecap:butt;stroke-linejoin:bevel;stroke-miterlimit:1.414;stroke-dasharray:none;stroke-opacity:1" />
    <path
       id="path347"
       d="m 106.40483,144.54011 -0.0353,0.28222"
       style="fill:none;stroke:#003f87;stroke-width:0.0846667;stroke-linecap:butt;stroke-linejoin:bevel;stroke-miterlimit:1.414;stroke-dasharray:none;stroke-opacity:1" />
    <path
       id="path348"
       d="m 106.36956,144.82233 h 0.3175"
       style="fill:none;stroke:#003f87;stroke-width:0.0846667;stroke-linecap:butt;stroke-linejoin:bevel;stroke-miterlimit:1.414;stroke-dasharray:none;stroke-opacity:1" />
    <path
       id="path349"
       d="m 106.69217,144.81242 0.004,0.0229"
       style="fill:none;stroke:#003f87;stroke-width:0.0846667;stroke-linecap:butt;stroke-linejoin:bevel;stroke-miterlimit:1.414;stroke-dasharray:none;stroke-opacity:1" />
    <path
       id="path350"
       d="m 106.68706,144.82233 -0.14111,0.3175"
       style="fill:none;stroke:#003f87;stroke-width:0.0846667;stroke-linecap:butt;stroke-linejoin:bevel;stroke-miterlimit:1.414;stroke-dasharray:none;stroke-opacity:1" />
    <path
       id="path351"
       d="m 106.54595,145.13983 0.24694,0.10583"
       style="fill:none;stroke:#003f87;stroke-width:0.0846667;stroke-linecap:butt;stroke-linejoin:bevel;stroke-miterlimit:1.414;stroke-dasharray:none;stroke-opacity:1" />
    <path
       id="path352"
       d="m 106.79289,145.24567 0.0706,-0.3175"
       style="fill:none;stroke:#003f87;stroke-width:0.0846667;stroke-linecap:butt;stroke-linejoin:bevel;stroke-miterlimit:1.414;stroke-dasharray:none;stroke-opacity:1" />
    <path
       id="path353"
       d="m 106.84651,144.92432 0.0124,-0.002"
       style="fill:none;stroke:#003f87;stroke-width:0.0846667;stroke-linecap:butt;stroke-linejoin:bevel;stroke-miterlimit:1.414;stroke-dasharray:none;stroke-opacity:1" />
    <path
       id="path354"
       d="m 106.86345,144.92817 0.17639,0.28222"
       style="fill:none;stroke:#003f87;stroke-width:0.0846667;stroke-linecap:butt;stroke-linejoin:bevel;stroke-miterlimit:1.414;stroke-dasharray:none;stroke-opacity:1" />
    <path
       id="path355"
       d="m 107.03983,145.21039 0.17639,-0.21167"
       style="fill:none;stroke:#003f87;stroke-width:0.0846667;stroke-linecap:butt;stroke-linejoin:bevel;stroke-miterlimit:1.414;stroke-dasharray:none;stroke-opacity:1" />
    <path
       id="path356"
       d="m 107.21622,144.99872 -0.24694,-0.21167"
       style="fill:none;stroke:#003f87;stroke-width:0.0846667;stroke-linecap:butt;stroke-linejoin:bevel;stroke-miterlimit:1.414;stroke-dasharray:none;stroke-opacity:1" />
    <path
       id="path357"
       d="m 106.96928,144.78705 v -0.0353"
       style="fill:none;stroke:#003f87;stroke-width:0.0846667;stroke-linecap:butt;stroke-linejoin:bevel;stroke-miterlimit:1.414;stroke-dasharray:none;stroke-opacity:1" />
    <path
       id="path358"
       d="m 90.847335,163.20205 c -0.458611,-0.17639 -0.987778,-0.14111 -1.446389,0.0706 -0.458611,0.21166 -0.811389,0.59972 -0.9525,1.09361 -0.176389,0.45861 -0.141111,0.98777 0.07056,1.44639 0.211666,0.45861 0.599722,0.81138 1.093611,0.9525 0.458611,0.17638 0.987778,0.14111 1.446389,-0.0706 0.458611,-0.21167 0.811389,-0.59972 0.9525,-1.09361 0.176388,-0.45861 0.141111,-0.98778 -0.07056,-1.44639 -0.211667,-0.45861 -0.599722,-0.81139 -1.093611,-0.9525"
       style="fill:#003f87;fill-opacity:1;fill-rule:evenodd;stroke:none;stroke-width:0.352778" />
    <path
       id="path360"
       d="m 90.847335,163.20205 c -0.458611,-0.17639 -0.987778,-0.14111 -1.446389,0.0706 -0.458611,0.21166 -0.811389,0.59972 -0.9525,1.09361 -0.176389,0.45861 -0.141111,0.98777 0.07056,1.44639 0.211666,0.45861 0.599722,0.81138 1.093611,0.9525 0.458611,0.17638 0.987778,0.14111 1.446389,-0.0706 0.458611,-0.21167 0.811389,-0.59972 0.9525,-1.09361 0.176388,-0.45861 0.141111,-0.98778 -0.07056,-1.44639 -0.211667,-0.45861 -0.599722,-0.81139 -1.093611,-0.9525"
       style="fill:none;stroke:#003f87;stroke-width:0.0846667;stroke-linecap:butt;stroke-linejoin:bevel;stroke-miterlimit:1.414;stroke-dasharray:none;stroke-opacity:1" />
    <path
       id="path361"
       d="m 90.847335,163.20205 c -0.458611,-0.17639 -0.987778,-0.14111 -1.446389,0.0706 -0.458611,0.21166 -0.811389,0.59972 -0.9525,1.09361 -0.176389,0.45861 -0.141111,0.98777 0.07056,1.44639 0.211666,0.45861 0.599722,0.81138 1.093611,0.9525 0.458611,0.17638 0.987778,0.14111 1.446389,-0.0706 0.458611,-0.21167 0.811389,-0.59972 0.9525,-1.09361 0.176388,-0.45861 0.141111,-0.98778 -0.07056,-1.44639 -0.211667,-0.45861 -0.599722,-0.81139 -1.093611,-0.9525"
       style="fill:none;stroke:#003f87;stroke-width:0.0846667;stroke-linecap:butt;stroke-linejoin:bevel;stroke-miterlimit:1.414;stroke-dasharray:none;stroke-opacity:1" />
    <path
       id="path362"
       d="m 98.855391,163.20205 c -0.458611,-0.17639 -0.987778,-0.14111 -1.446389,0.0706 -0.458611,0.21166 -0.811389,0.59972 -0.9525,1.09361 -0.176389,0.45861 -0.141111,0.98777 0.07056,1.44639 0.211666,0.45861 0.599722,0.81138 1.093611,0.9525 0.458611,0.17638 0.987778,0.14111 1.446389,-0.0706 0.458611,-0.21167 0.776111,-0.59972 0.952498,-1.09361 0.17639,-0.45861 0.14111,-0.98778 -0.07056,-1.44639 -0.211667,-0.45861 -0.599722,-0.81139 -1.093611,-0.9525"
       style="fill:none;stroke:#003f87;stroke-width:0.0846667;stroke-linecap:butt;stroke-linejoin:bevel;stroke-miterlimit:1.414;stroke-dasharray:none;stroke-opacity:1" />
    <path
       id="path363"
       d="m 106.86345,163.20205 c -0.45861,-0.17639 -0.98778,-0.14111 -1.44639,0.0706 -0.45861,0.21166 -0.81139,0.59972 -0.98778,1.09361 -0.14111,0.45861 -0.10583,0.98777 0.10584,1.44639 0.21166,0.45861 0.59972,0.81138 1.05833,0.9525 0.49389,0.17638 1.02306,0.14111 1.48167,-0.0706 0.42333,-0.21167 0.77611,-0.59972 0.9525,-1.09361 0.17639,-0.45861 0.14111,-0.98778 -0.0706,-1.44639 -0.21167,-0.45861 -0.635,-0.81139 -1.09361,-0.9525"
       style="fill:none;stroke:#003f87;stroke-width:0.0846667;stroke-linecap:butt;stroke-linejoin:bevel;stroke-miterlimit:1.414;stroke-dasharray:none;stroke-opacity:1" />
    <path
       id="path364"
       d="m 98.855391,163.20205 c -0.458611,-0.17639 -0.987778,-0.14111 -1.446389,0.0706 -0.458611,0.21166 -0.811389,0.59972 -0.9525,1.09361 -0.176389,0.45861 -0.141111,0.98777 0.07056,1.44639 0.211666,0.45861 0.599722,0.81138 1.093611,0.9525 0.458611,0.17638 0.987778,0.14111 1.446389,-0.0706 0.458611,-0.21167 0.776111,-0.59972 0.952498,-1.09361 0.17639,-0.45861 0.14111,-0.98778 -0.07056,-1.44639 -0.211667,-0.45861 -0.599722,-0.81139 -1.093611,-0.9525"
       style="fill:none;stroke:#003f87;stroke-width:0.0846667;stroke-linecap:butt;stroke-linejoin:bevel;stroke-miterlimit:1.414;stroke-dasharray:none;stroke-opacity:1" />
    <path
       id="path365"
       d="m 97.620668,166.76511 c 0.458611,0.17639 0.987778,0.14111 1.446389,-0.0706 0.458611,-0.21166 0.776111,-0.59972 0.952503,-1.09361 0.17639,-0.45861 0.14111,-0.98777 -0.07056,-1.44639 -0.211666,-0.45861 -0.599722,-0.81138 -1.093611,-0.9525"
       style="fill:none;stroke:#003f87;stroke-width:0.0846667;stroke-linecap:butt;stroke-linejoin:bevel;stroke-miterlimit:1.414;stroke-dasharray:none;stroke-opacity:1" />
    <path
       id="path366"
       d="m 98.855391,163.20205 c -0.458611,-0.17639 -0.987778,-0.14111 -1.446389,0.0706 -0.458611,0.21166 -0.811389,0.59972 -0.9525,1.09361 -0.176389,0.45861 -0.141111,0.98777 0.07056,1.44639 0.211666,0.45861 0.599722,0.81138 1.093611,0.9525"
       style="fill:none;stroke:#003f87;stroke-width:0.0846667;stroke-linecap:butt;stroke-linejoin:bevel;stroke-miterlimit:1.414;stroke-dasharray:none;stroke-opacity:1" />
    <g
       id="g3"
       style="fill:#003f87">
      <path
         id="path294"
         d="m 98.925948,161.544 h 10.124722 v -3.42194 H 87.00206 v 3.42194 h 11.359444 v -2.57528 h 0.564444 v 2.57528"
         style="fill:#003f87;fill-opacity:1;fill-rule:evenodd;stroke:none;stroke-width:0.352778" />
      <path
         id="path297"
         d="m 118.0465,155.86428 -1.02306,1.72861 -0.49388,-0.17639 0.14111,-1.79916 c -0.42334,-0.0353 -0.84667,0 -1.30528,0.0705 -0.45861,0.0706 -0.91722,0.21167 -1.37583,0.38806 -0.9525,0.42333 -1.79917,1.05833 -2.43417,1.94027 -0.635,0.88195 -0.98778,1.905 -1.09361,2.92806 -0.0353,0.49389 -0.0353,0.9525 0.0353,1.41111 0.0705,0.45861 0.21166,0.88195 0.35277,1.27 0.14111,0.38806 0.35278,0.77611 0.59973,1.12889 0.28222,0.38806 0.59972,0.74083 0.9525,1.09361 0.77611,0.67028 1.72861,1.16417 2.78694,1.34056 1.09361,0.21166 2.15194,0.10583 3.10444,-0.24695 0.45862,-0.17639 0.88195,-0.38805 1.27,-0.635 0.38806,-0.28222 0.70556,-0.56444 0.98778,-0.84666 0.28222,-0.3175 0.52917,-0.67028 0.77611,-1.05834 0.24695,-0.38805 0.42334,-0.84666 0.56445,-1.30528 0.28222,-0.98777 0.3175,-2.04611 0.0353,-3.10444 -0.24695,-1.05833 -0.81139,-1.97556 -1.51695,-2.68111 -0.35278,-0.35278 -0.74083,-0.635 -1.12889,-0.88195 -0.42333,-0.24694 -0.81139,-0.42333 -1.19944,-0.52916 v 0 0 0 l -0.0353,-0.0353"
         style="fill:#003f87;fill-opacity:1;fill-rule:evenodd;stroke:none;stroke-width:0.352778" />
      <path
         id="path359"
         d="m 89.612614,166.76511 c 0.458611,0.17639 0.987778,0.14111 1.446389,-0.0706 0.458611,-0.21166 0.811389,-0.59972 0.9525,-1.09361 0.176389,-0.42333 0.176389,-0.9525 -0.07056,-1.44639 -0.246944,-0.49388 -0.635,-0.81138 -1.093611,-0.9525 -0.423333,-0.17638 -0.9525,-0.17638 -1.446389,0.0706 -0.493889,0.24694 -0.811389,0.635 -0.9525,1.09361 -0.176388,0.45861 -0.141111,0.98778 0.07056,1.44639 0.211667,0.45861 0.599722,0.81139 1.093611,0.9525"
         style="fill:#003f87;fill-opacity:1;fill-rule:evenodd;stroke:none;stroke-width:0.352778" />
      <path
         id="path367"
         d="m 98.855391,163.20205 c -0.458611,-0.17639 -0.987778,-0.14111 -1.446389,0.0706 -0.458611,0.21166 -0.811389,0.59972 -0.9525,1.09361 -0.176389,0.45861 -0.141111,0.98777 0.07056,1.44639 0.211666,0.45861 0.599722,0.81138 1.093611,0.9525 0.458611,0.17638 0.987778,0.14111 1.446389,-0.0706 0.458611,-0.21167 0.776111,-0.59972 0.952498,-1.09361 0.17639,-0.45861 0.14111,-0.98778 -0.07056,-1.44639 -0.211667,-0.45861 -0.599722,-0.81139 -1.093611,-0.9525"
         style="fill:#003f87;fill-opacity:1;fill-rule:evenodd;stroke:none;stroke-width:0.352778" />
      <path
         id="path368"
         d="m 106.86345,163.20205 c -0.45861,-0.17639 -0.98778,-0.14111 -1.44639,0.0706 -0.45861,0.21166 -0.81139,0.59972 -0.98778,1.09361 -0.14111,0.42333 -0.14111,0.9525 0.10584,1.44639 0.21166,0.49388 0.635,0.81138 1.05833,0.9525 0.45861,0.17638 0.98778,0.17638 1.48167,-0.0706 0.49389,-0.24694 0.81139,-0.635 0.9525,-1.09361 0.17639,-0.45861 0.14111,-0.98778 -0.0706,-1.44639 -0.21167,-0.45861 -0.635,-0.81139 -1.09361,-0.9525"
         style="fill:#003f87;fill-opacity:1;fill-rule:evenodd;stroke:none;stroke-width:0.352778" />
    </g>
    <path
       id="path378"
       d="M 118.15233,139.98928 V 139.954"
       style="fill:none;stroke:#003f87;stroke-width:0.0846667;stroke-linecap:butt;stroke-linejoin:bevel;stroke-miterlimit:1.414;stroke-dasharray:none;stroke-opacity:1" />
    <path
       id="path379"
       d="M 110.17956,139.98928 V 139.954"
       style="fill:none;stroke:#003f87;stroke-width:0.0846667;stroke-linecap:butt;stroke-linejoin:bevel;stroke-miterlimit:1.414;stroke-dasharray:none;stroke-opacity:1" />
    <path
       id="path380"
       d="m 110.18488,139.94437 h -0.0155"
       style="fill:none;stroke:#003f87;stroke-width:0.0846667;stroke-linecap:butt;stroke-linejoin:bevel;stroke-miterlimit:1.414;stroke-dasharray:none;stroke-opacity:1" />
    <g
       id="g2"
       style="fill:#003f87">
      <path
         id="path291"
         d="m 109.08595,132.08706 v 0 c -0.35278,-0.59972 -0.9525,-1.02306 -1.62278,-1.27 -0.67028,-0.21167 -1.37583,-0.17639 -2.04611,0.0706 -0.59972,0.24694 -1.16417,0.70555 -1.55222,1.34055 -0.35278,0.67028 -0.42333,1.37583 -0.3175,2.04611 v 0 c -0.28222,-0.3175 -0.70556,-0.56444 -1.19945,-0.59972 -0.49388,-0.0353 -0.91722,0.14111 -1.27,0.38806 -0.35277,0.3175 -0.56444,0.74083 -0.59972,1.19944 -0.0706,0.45861 0.0706,0.91722 0.35278,1.27 -0.35278,-0.0706 -0.74083,0 -1.058333,0.24694 -0.352778,0.24695 -0.529167,0.59973 -0.564444,0.9525 -0.07056,0.3175 0,0.70556 0.246944,1.05834 0.246945,0.3175 0.599723,0.49389 0.952503,0.56444 h -0.0353 2.01083 l 4.37445,-5.25639 -2.61056,5.25639 h 14.56972 -0.0353 v 0 c 0.0705,0 0.14111,0 0.21166,0 0.0706,0 0.14111,0 0.21167,-0.0353 0.14111,-0.0353 0.28222,-0.0705 0.45861,-0.14111 0.28222,-0.14111 0.56444,-0.35277 0.74083,-0.67027 0.21167,-0.28223 0.3175,-0.635 0.35278,-0.9525 0,-0.3175 -0.0706,-0.635 -0.17639,-0.88195 -0.10583,-0.24694 -0.28222,-0.49389 -0.52916,-0.70555 -0.24695,-0.21167 -0.56445,-0.35278 -0.9525,-0.42334 -0.35278,-0.0353 -0.67028,0 -0.98778,0.10584 -0.3175,0.14111 -0.56445,0.3175 -0.74084,0.52916 v 0 0 0 0 0 c 0.21167,-0.28222 0.35278,-0.59972 0.42334,-0.9525 0.10583,-0.38805 0.10583,-0.77611 0.0353,-1.16416 -0.0706,-0.38806 -0.24695,-0.74084 -0.45862,-1.05834 -0.24694,-0.28222 -0.49388,-0.52916 -0.77611,-0.70555 -0.28222,-0.14111 -0.635,-0.28223 -0.98777,-0.35278 -0.38806,-0.0353 -0.77612,-0.0353 -1.16417,0.0705 -0.38806,0.10584 -0.70556,0.3175 -1.02306,0.56445 -0.28222,0.24694 -0.49389,0.52917 -0.635,0.81139 v 0 0 0 0 0 c 0.10584,-0.21167 0.17639,-0.45861 0.17639,-0.74084 0.0353,-0.24694 0,-0.52916 -0.10583,-0.81138 -0.14111,-0.28223 -0.28222,-0.49389 -0.49389,-0.70556 -0.21167,-0.17639 -0.42333,-0.3175 -0.635,-0.38806 -0.24694,-0.0705 -0.49389,-0.10583 -0.77611,-0.10583 -0.28222,0 -0.52917,0.0706 -0.81139,0.21167 -0.24694,0.14111 -0.45861,0.3175 -0.635,0.56444 -0.14111,0.21167 -0.24694,0.45861 -0.3175,0.67028 v 0 0.0353 h 0.0353 -0.0353 v 0 0 -0.0353 0"
         style="fill:#003f87;fill-opacity:1;fill-rule:evenodd;stroke:none;stroke-width:0.352778" />
      <path
         id="path369"
         d="m 104.7115,137.37872 -2.89278,3.38667 h 2.46945 l -2.04611,3.24555 3.56305,-3.84528 h -2.50472 l 1.41111,-2.78694"
         style="fill:#003f87;fill-opacity:1;fill-rule:evenodd;stroke:none;stroke-width:0.352778" />
      <path
         id="path370"
         d="m 100.40761,142.56455 c -0.0353,0.0706 -0.0706,0.10583 -0.10583,0.17639 -0.0353,0.0353 -0.0706,0.10583 -0.10584,0.14111 -0.0353,0.0706 -0.0705,0.10583 -0.10583,0.17639 -0.0353,0.0353 -0.0706,0.10583 -0.105833,0.14111 -0.03528,0.0353 -0.07056,0.10583 -0.07056,0.14111 -0.03528,0.0353 -0.03528,0.0706 -0.03528,0.10583 0,0 0,0.0353 0,0.0353 0,0 0,0 0,0 0,0.0353 0,0.0706 0,0.10584 0,0.0353 0.03528,0.0705 0.105834,0.10583 0,0 0.03527,0 0.03527,0 0.0353,0 0.0706,0 0.10584,0 0,0 0,0 0.0353,0 0,0 0.0353,-0.0353 0.0353,-0.0353 0,0 0.0353,-0.0353 0.0353,-0.0353 0,0 0,0 0.0353,0 0,0 0.0353,0 0.0353,-0.0353 0,-0.0353 0,-0.0706 0,-0.10584 0,0 0,0 0,-0.0353 0,0 0,-0.0353 0,-0.0353 0.0353,-0.0353 0.0353,-0.0706 0.0353,-0.10584 0,-0.0706 0,-0.10583 0,-0.17639 0.0353,-0.0705 0.0353,-0.14111 0.0353,-0.17638 0,-0.0706 0.0353,-0.17639 0.0353,-0.24695 0,0 0,0 0,0 0,-0.0353 0,-0.0353 0,-0.0353 0,0 0,0 0,0 0,0 0,-0.0353 0,-0.0353 0,-0.0353 0,-0.0353 0,-0.0706"
         style="fill:#003f87;fill-opacity:1;fill-rule:evenodd;stroke:none;stroke-width:0.352778" />
      <path
         id="path371"
         d="m 101.64233,142.42344 c 0,0.0353 -0.0353,0.10583 -0.0706,0.14111 -0.0353,0.0353 -0.0705,0.10583 -0.10583,0.14111 -0.0353,0.0706 -0.0705,0.10584 -0.10583,0.17639 -0.0353,0.0353 -0.0706,0.10583 -0.10584,0.14111 -0.0353,0.0706 -0.0706,0.10584 -0.10583,0.17639 0,0.0353 0,0.0706 0,0.10583 0,0.0353 0,0.0353 0,0.0353 0,0.0353 0,0.0706 0,0.10584 0,0.0353 0,0.0706 0.0353,0.0706 0,0.0353 0.0353,0.0353 0.0706,0.0353 0,0 0,0 0,0 0.0353,0 0.0353,0 0.0353,0 0.0353,0 0.0706,0 0.10584,0 0.0353,0 0.0353,-0.0353 0.0705,-0.0353 0,-0.0353 0,-0.0353 0.0353,-0.0353 0,0 0,0 0,0 0.0353,-0.0353 0.0353,-0.0353 0.0705,-0.0353 0,-0.0353 0,-0.0706 0,-0.10584 0,0 0,-0.0353 0,-0.0353 0,0 0,-0.0353 0,-0.0353 0,-0.0353 0,-0.10584 0,-0.14111 0.0353,-0.0706 0.0353,-0.14112 0,-0.17639 0,-0.0706 0,-0.10584 0,-0.17639 0.0353,-0.0353 0.0353,-0.0706 0.0706,-0.14111 0,-0.0353 0,-0.0706 0,-0.10584 0.0353,-0.0353 0,-0.0353 0,-0.0705 0,0 0,-0.0353 0,-0.0353"
         style="fill:#003f87;fill-opacity:1;fill-rule:evenodd;stroke:none;stroke-width:0.352778" />
      <path
         id="path372"
         d="m 104.49983,145.38678 0.3175,-0.10583 -0.14111,-0.24695 -0.24695,0.21167 v -0.0353 l -0.0353,-0.35278 -0.28223,0.0353 0.14112,0.35278 v 0.0353 l -0.3175,-0.10584 -0.0353,0.28223 h 0.3175 l 0.0353,0.0353 -0.17639,0.28223 0.24694,0.14111 0.0706,-0.35278 v 0 l 0.21166,0.28222 0.17639,-0.21167 -0.28222,-0.21166 v -0.0353"
         style="fill:#003f87;fill-opacity:1;fill-rule:evenodd;stroke:none;stroke-width:0.352778" />
      <path
         id="path373"
         d="m 106.15789,142.494 0.28222,-0.10583 -0.14111,-0.24695 -0.24694,0.21167 v -0.0353 l -0.0353,-0.35278 -0.24695,0.0353 0.14112,0.35278 -0.0353,0.0353 -0.28222,-0.10584 -0.0353,0.3175 0.3175,-0.0353 v 0.0353 l -0.14111,0.28223 0.24694,0.10583 0.0706,-0.3175 v 0 l 0.17639,0.28222 0.17638,-0.21167 -0.24694,-0.21166 v -0.0353"
         style="fill:#003f87;fill-opacity:1;fill-rule:evenodd;stroke:none;stroke-width:0.352778" />
      <path
         id="path374"
         d="m 106.96928,144.75178 0.28222,-0.0706 -0.14111,-0.28222 -0.24694,0.21167 v -0.0353 -0.38805 l -0.28223,0.0705 0.14112,0.35278 -0.0353,0.0353 -0.28222,-0.10584 -0.0353,0.28223 h 0.3175 v 0 l -0.14111,0.3175 0.24694,0.10583 0.0706,-0.3175 v 0 l 0.17639,0.28222 0.17638,-0.21167 -0.24694,-0.21166 v -0.0353"
         style="fill:#003f87;fill-opacity:1;fill-rule:evenodd;stroke:none;stroke-width:0.352778" />
      <path
         id="path375"
         d="m 109.26233,140.48317 h -1.72861 v 0.21167 h 1.72861 v -0.21167"
         style="fill:#003f87;fill-opacity:1;fill-rule:evenodd;stroke:none;stroke-width:0.352778" />
      <path
         id="path376"
         d="m 109.89733,142.77622 -1.51694,0.91722 0.10583,0.14111 1.51694,-0.81139 -0.10583,-0.24694"
         style="fill:#003f87;fill-opacity:1;fill-rule:evenodd;stroke:none;stroke-width:0.352778" />
      <path
         id="path377"
         d="m 111.66122,144.29317 -0.91722,1.48167 0.21166,0.14111 0.88195,-1.51695 -0.17639,-0.10583"
         style="fill:#003f87;fill-opacity:1;fill-rule:evenodd;stroke:none;stroke-width:0.352778" />
      <path
         id="path381"
         d="m 110.17956,139.98928 c 0,1.02306 0.45861,2.01083 1.19944,2.75167 0.74084,0.74083 1.72862,1.16416 2.78695,1.16416 0.45861,0 0.9525,-0.10583 1.44639,-0.28222 0.49389,-0.21167 0.9525,-0.49389 1.34055,-0.88194 0.42334,-0.38806 0.70556,-0.84667 0.91723,-1.34056 0.21166,-0.49389 0.28222,-0.98778 0.3175,-1.44639 h -8.00806 v 0.0353"
         style="fill:#003f87;fill-opacity:1;fill-rule:evenodd;stroke:none;stroke-width:0.352778" />
      <path
         id="path382"
         d="m 116.56483,144.399 0.88194,1.51694 0.21167,-0.14111 -0.84667,-1.48166 -0.24694,0.10583"
         style="fill:#003f87;fill-opacity:1;fill-rule:evenodd;stroke:none;stroke-width:0.352778" />
      <path
         id="path383"
         d="m 119.14011,140.69483 h 1.72861 v -0.21167 h -1.72861 v 0.21167"
         style="fill:#003f87;fill-opacity:1;fill-rule:evenodd;stroke:none;stroke-width:0.352778" />
      <path
         id="path384"
         d="m 118.43456,143.02317 1.48167,0.81139 0.10583,-0.14111 -1.48167,-0.91722 -0.10583,0.24694"
         style="fill:#003f87;fill-opacity:1;fill-rule:evenodd;stroke:none;stroke-width:0.352778" />
      <path
         id="path385"
         d="m 114.09539,144.57539 v 1.76389 h 0.24694 v -1.76389 h -0.24694"
         style="fill:#003f87;fill-opacity:1;fill-rule:evenodd;stroke:none;stroke-width:0.352778" />
    </g>
    <path
       id="path386"
       d="m 122.95932,154.42434 -0.01,0.0102"
       style="fill:none;stroke:#003f87;stroke-width:0.0846667;stroke-linecap:butt;stroke-linejoin:bevel;stroke-miterlimit:1.414;stroke-dasharray:none;stroke-opacity:1" />
    <path
       id="path387"
       d="m 124.47725,155.94227 -0.0268,-0.007"
       style="fill:none;stroke:#003f87;stroke-width:0.0846667;stroke-linecap:butt;stroke-linejoin:bevel;stroke-miterlimit:1.414;stroke-dasharray:none;stroke-opacity:1" />
    <path
       id="path388"
       d="m 122.95011,168.88178 v 0.0353"
       style="fill:none;stroke:#003f87;stroke-width:0.0846667;stroke-linecap:butt;stroke-linejoin:bevel;stroke-miterlimit:1.414;stroke-dasharray:none;stroke-opacity:1" />
    <path
       id="path389"
       d="m 124.46706,167.36483 v 0.0353"
       style="fill:none;stroke:#003f87;stroke-width:0.0846667;stroke-linecap:butt;stroke-linejoin:bevel;stroke-miterlimit:1.414;stroke-dasharray:none;stroke-opacity:1" />
    <path
       id="path390"
       d="m 85.943725,168.88178 -0.03528,0.0353"
       style="fill:none;stroke:#003f87;stroke-width:0.0846667;stroke-linecap:butt;stroke-linejoin:bevel;stroke-miterlimit:1.414;stroke-dasharray:none;stroke-opacity:1" />
    <path
       id="path391"
       d="m 84.426781,167.36483 v 0.0353"
       style="fill:none;stroke:#003f87;stroke-width:0.0846667;stroke-linecap:butt;stroke-linejoin:bevel;stroke-miterlimit:1.414;stroke-dasharray:none;stroke-opacity:1" />
    <path
       id="path392"
       d="m 84.414293,155.94227 0.01729,-0.007"
       style="fill:none;stroke:#003f87;stroke-width:0.0846667;stroke-linecap:butt;stroke-linejoin:bevel;stroke-miterlimit:1.414;stroke-dasharray:none;stroke-opacity:1" />
    <path
       id="path393"
       d="m 85.943725,154.41789 h -0.03528"
       style="fill:none;stroke:#003f87;stroke-width:0.0846667;stroke-linecap:butt;stroke-linejoin:bevel;stroke-miterlimit:1.414;stroke-dasharray:none;stroke-opacity:1" />
    <path
       id="path394"
       d="M 90.000668,128.31233 H 89.96539"
       style="fill:none;stroke:#003f87;stroke-width:0.0846667;stroke-linecap:butt;stroke-linejoin:bevel;stroke-miterlimit:1.414;stroke-dasharray:none;stroke-opacity:1" />
  </g>
</svg>
