<?xml version="1.0" encoding="UTF-8" standalone="no"?>
<!-- Created with Inkscape (http://www.inkscape.org/) -->

<svg
   width="97.543053mm"
   height="48.753887mm"
   viewBox="0 0 97.543053 48.753887"
   version="1.1"
   id="svg1"
   inkscape:version="1.4.2 (ebf0e940, 2025-05-08)"
   sodipodi:docname="MUTCD-OH_I20-H6a.svg"
   xmlns:inkscape="http://www.inkscape.org/namespaces/inkscape"
   xmlns:sodipodi="http://sodipodi.sourceforge.net/DTD/sodipodi-0.dtd"
   xmlns="http://www.w3.org/2000/svg"
   xmlns:svg="http://www.w3.org/2000/svg">
  <sodipodi:namedview
     id="namedview1"
     pagecolor="#ffffff"
     bordercolor="#666666"
     borderopacity="1.0"
     inkscape:showpageshadow="2"
     inkscape:pageopacity="0.0"
     inkscape:pagecheckerboard="0"
     inkscape:deskcolor="#d1d1d1"
     inkscape:document-units="mm"
     inkscape:zoom="1"
     inkscape:cx="216"
     inkscape:cy="147"
     inkscape:window-width="1728"
     inkscape:window-height="1051"
     inkscape:window-x="0"
     inkscape:window-y="38"
     inkscape:window-maximized="1"
     inkscape:current-layer="layer1" />
  <defs
     id="defs1">
    <clipPath
       clipPathUnits="userSpaceOnUse"
       id="clipPath12">
      <path
         d="M 0,0 H 612.12 V 792.12 H 0 V 0"
         transform="translate(-558.30001,-269.10001)"
         clip-rule="evenodd"
         id="path12" />
    </clipPath>
    <clipPath
       clipPathUnits="userSpaceOnUse"
       id="clipPath14">
      <path
         d="M 0,0 H 612.12 V 792.12 H 0 V 0"
         transform="translate(-545.30002,-282.1)"
         clip-rule="evenodd"
         id="path14" />
    </clipPath>
    <clipPath
       clipPathUnits="userSpaceOnUse"
       id="clipPath16">
      <path
         d="M 0,0 H 612.12 V 792.12 H 0 V 0"
         transform="translate(-309.40001,-248.90001)"
         clip-rule="evenodd"
         id="path16" />
    </clipPath>
    <clipPath
       clipPathUnits="userSpaceOnUse"
       id="clipPath190">
      <path
         d="M 0,0 H 612.12 V 792.12 H 0 V 0"
         transform="translate(-329.60001,-251.60001)"
         clip-rule="evenodd"
         id="path190" />
    </clipPath>
    <clipPath
       clipPathUnits="userSpaceOnUse"
       id="clipPath192">
      <path
         d="M 0,0 H 612.12 V 792.12 H 0 V 0"
         transform="translate(-342.80001,-238.9)"
         clip-rule="evenodd"
         id="path192" />
    </clipPath>
    <clipPath
       clipPathUnits="userSpaceOnUse"
       id="clipPath194">
      <path
         d="M 0,0 H 612.12 V 792.12 H 0 V 0"
         transform="translate(-354.70001,-238.9)"
         clip-rule="evenodd"
         id="path194" />
    </clipPath>
    <clipPath
       clipPathUnits="userSpaceOnUse"
       id="clipPath196">
      <path
         d="M 0,0 H 612.12 V 792.12 H 0 V 0"
         transform="translate(-361.00001,-238.9)"
         clip-rule="evenodd"
         id="path196" />
    </clipPath>
    <clipPath
       clipPathUnits="userSpaceOnUse"
       id="clipPath198">
      <path
         d="M 0,0 H 612.12 V 792.12 H 0 V 0"
         transform="translate(-368.80001,-238.9)"
         clip-rule="evenodd"
         id="path198" />
    </clipPath>
    <clipPath
       clipPathUnits="userSpaceOnUse"
       id="clipPath200">
      <path
         d="M 0,0 H 612.12 V 792.12 H 0 V 0"
         transform="translate(-382.20001,-238.9)"
         clip-rule="evenodd"
         id="path200" />
    </clipPath>
    <clipPath
       clipPathUnits="userSpaceOnUse"
       id="clipPath202">
      <path
         d="M 0,0 H 612.12 V 792.12 H 0 V 0"
         transform="translate(-393.00001,-259)"
         clip-rule="evenodd"
         id="path202" />
    </clipPath>
    <clipPath
       clipPathUnits="userSpaceOnUse"
       id="clipPath204">
      <path
         d="M 0,0 H 612.12 V 792.12 H 0 V 0"
         transform="translate(-414.90001,-251.60001)"
         clip-rule="evenodd"
         id="path204" />
    </clipPath>
    <clipPath
       clipPathUnits="userSpaceOnUse"
       id="clipPath206">
      <path
         d="M 0,0 H 612.12 V 792.12 H 0 V 0"
         transform="translate(-429.10001,-255.50001)"
         clip-rule="evenodd"
         id="path206" />
    </clipPath>
    <clipPath
       clipPathUnits="userSpaceOnUse"
       id="clipPath208">
      <path
         d="M 0,0 H 612.12 V 792.12 H 0 V 0"
         transform="translate(-455.00001,-238.9)"
         clip-rule="evenodd"
         id="path208" />
    </clipPath>
    <clipPath
       clipPathUnits="userSpaceOnUse"
       id="clipPath210">
      <path
         d="M 0,0 H 612.12 V 792.12 H 0 V 0"
         transform="translate(-468.30001,-238.9)"
         clip-rule="evenodd"
         id="path210" />
    </clipPath>
    <clipPath
       clipPathUnits="userSpaceOnUse"
       id="clipPath212">
      <path
         d="M 0,0 H 612.12 V 792.12 H 0 V 0"
         transform="translate(-486.70001,-238.9)"
         clip-rule="evenodd"
         id="path212" />
    </clipPath>
    <clipPath
       clipPathUnits="userSpaceOnUse"
       id="clipPath214">
      <path
         d="M 0,0 H 612.12 V 792.12 H 0 V 0"
         transform="translate(-497.60001,-238.9)"
         clip-rule="evenodd"
         id="path214" />
    </clipPath>
    <clipPath
       clipPathUnits="userSpaceOnUse"
       id="clipPath216">
      <path
         d="M 0,0 H 612.12 V 792.12 H 0 V 0"
         transform="translate(-500.80001,-259)"
         clip-rule="evenodd"
         id="path216" />
    </clipPath>
    <clipPath
       clipPathUnits="userSpaceOnUse"
       id="clipPath218">
      <path
         d="M 0,0 H 612.12 V 792.12 H 0 V 0"
         transform="translate(-513.90001,-238.9)"
         clip-rule="evenodd"
         id="path218" />
    </clipPath>
    <clipPath
       clipPathUnits="userSpaceOnUse"
       id="clipPath220">
      <path
         d="M 0,0 H 612.12 V 792.12 H 0 V 0"
         transform="translate(-524.80001,-259)"
         clip-rule="evenodd"
         id="path220" />
    </clipPath>
    <clipPath
       clipPathUnits="userSpaceOnUse"
       id="clipPath222">
      <path
         d="M 0,0 H 612.12 V 792.12 H 0 V 0"
         transform="translate(-320.90001,-206.60001)"
         clip-rule="evenodd"
         id="path222" />
    </clipPath>
    <clipPath
       clipPathUnits="userSpaceOnUse"
       id="clipPath224">
      <path
         d="M 0,0 H 612.12 V 792.12 H 0 V 0"
         transform="translate(-337.00001,-214.20001)"
         clip-rule="evenodd"
         id="path224" />
    </clipPath>
    <clipPath
       clipPathUnits="userSpaceOnUse"
       id="clipPath226">
      <path
         d="M 0,0 H 612.12 V 792.12 H 0 V 0"
         transform="translate(-342.90001,-201.50001)"
         clip-rule="evenodd"
         id="path226" />
    </clipPath>
    <clipPath
       clipPathUnits="userSpaceOnUse"
       id="clipPath228">
      <path
         d="M 0,0 H 612.12 V 792.12 H 0 V 0"
         transform="translate(-352.60001,-206.90001)"
         clip-rule="evenodd"
         id="path228" />
    </clipPath>
    <clipPath
       clipPathUnits="userSpaceOnUse"
       id="clipPath230">
      <path
         d="M 0,0 H 612.12 V 792.12 H 0 V 0"
         transform="translate(-373.80001,-201.50001)"
         clip-rule="evenodd"
         id="path230" />
    </clipPath>
    <clipPath
       clipPathUnits="userSpaceOnUse"
       id="clipPath232">
      <path
         d="M 0,0 H 612.12 V 792.12 H 0 V 0"
         transform="translate(-386.30001,-218.00001)"
         clip-rule="evenodd"
         id="path232" />
    </clipPath>
    <clipPath
       clipPathUnits="userSpaceOnUse"
       id="clipPath234">
      <path
         d="M 0,0 H 612.12 V 792.12 H 0 V 0"
         transform="translate(-391.80001,-201.50001)"
         clip-rule="evenodd"
         id="path234" />
    </clipPath>
    <clipPath
       clipPathUnits="userSpaceOnUse"
       id="clipPath236">
      <path
         d="M 0,0 H 612.12 V 792.12 H 0 V 0"
         transform="translate(-402.40001,-201.50001)"
         clip-rule="evenodd"
         id="path236" />
    </clipPath>
    <clipPath
       clipPathUnits="userSpaceOnUse"
       id="clipPath238">
      <path
         d="M 0,0 H 612.12 V 792.12 H 0 V 0"
         transform="translate(-412.80001,-221.5)"
         clip-rule="evenodd"
         id="path238" />
    </clipPath>
    <clipPath
       clipPathUnits="userSpaceOnUse"
       id="clipPath240">
      <path
         d="M 0,0 H 612.12 V 792.12 H 0 V 0"
         transform="translate(-426.80001,-201.50001)"
         clip-rule="evenodd"
         id="path240" />
    </clipPath>
    <clipPath
       clipPathUnits="userSpaceOnUse"
       id="clipPath242">
      <path
         d="M 0,0 H 612.12 V 792.12 H 0 V 0"
         transform="translate(-440.50001,-214.20001)"
         clip-rule="evenodd"
         id="path242" />
    </clipPath>
    <clipPath
       clipPathUnits="userSpaceOnUse"
       id="clipPath244">
      <path
         d="M 0,0 H 612.12 V 792.12 H 0 V 0"
         transform="translate(-446.40001,-201.50001)"
         clip-rule="evenodd"
         id="path244" />
    </clipPath>
    <clipPath
       clipPathUnits="userSpaceOnUse"
       id="clipPath246">
      <path
         d="M 0,0 H 612.12 V 792.12 H 0 V 0"
         transform="translate(-479.50001,-201.50001)"
         clip-rule="evenodd"
         id="path246" />
    </clipPath>
    <clipPath
       clipPathUnits="userSpaceOnUse"
       id="clipPath248">
      <path
         d="M 0,0 H 612.12 V 792.12 H 0 V 0"
         transform="translate(-501.10001,-218.00001)"
         clip-rule="evenodd"
         id="path248" />
    </clipPath>
    <clipPath
       clipPathUnits="userSpaceOnUse"
       id="clipPath250">
      <path
         d="M 0,0 H 612.12 V 792.12 H 0 V 0"
         transform="translate(-512.40001,-201.50001)"
         clip-rule="evenodd"
         id="path250" />
    </clipPath>
    <clipPath
       clipPathUnits="userSpaceOnUse"
       id="clipPath252">
      <path
         d="M 0,0 H 612.12 V 792.12 H 0 V 0"
         transform="translate(-516.70001,-201.50001)"
         clip-rule="evenodd"
         id="path252" />
    </clipPath>
    <clipPath
       clipPathUnits="userSpaceOnUse"
       id="clipPath254">
      <path
         d="M 0,0 H 612.12 V 792.12 H 0 V 0"
         transform="translate(-320.10001,-187.10001)"
         clip-rule="evenodd"
         id="path254" />
    </clipPath>
    <clipPath
       clipPathUnits="userSpaceOnUse"
       id="clipPath256">
      <path
         d="M 0,0 H 612.12 V 792.12 H 0 V 0"
         transform="translate(-356.70001,-175.5)"
         clip-rule="evenodd"
         id="path256" />
    </clipPath>
    <clipPath
       clipPathUnits="userSpaceOnUse"
       id="clipPath258">
      <path
         d="M 0,0 H 612.12 V 792.12 H 0 V 0"
         transform="translate(-383.30001,-164.00001)"
         clip-rule="evenodd"
         id="path258" />
    </clipPath>
    <clipPath
       clipPathUnits="userSpaceOnUse"
       id="clipPath260">
      <path
         d="M 0,0 H 612.12 V 792.12 H 0 V 0"
         transform="translate(-416.80001,-175.5)"
         clip-rule="evenodd"
         id="path260" />
    </clipPath>
    <clipPath
       clipPathUnits="userSpaceOnUse"
       id="clipPath262">
      <path
         d="M 0,0 H 612.12 V 792.12 H 0 V 0"
         transform="translate(-428.70001,-164.00001)"
         clip-rule="evenodd"
         id="path262" />
    </clipPath>
    <clipPath
       clipPathUnits="userSpaceOnUse"
       id="clipPath264">
      <path
         d="M 0,0 H 612.12 V 792.12 H 0 V 0"
         transform="translate(-460.70001,-164.00001)"
         clip-rule="evenodd"
         id="path264" />
    </clipPath>
    <clipPath
       clipPathUnits="userSpaceOnUse"
       id="clipPath266">
      <path
         d="M 0,0 H 612.12 V 792.12 H 0 V 0"
         transform="translate(-496.60001,-175.5)"
         clip-rule="evenodd"
         id="path266" />
    </clipPath>
    <clipPath
       clipPathUnits="userSpaceOnUse"
       id="clipPath268">
      <path
         d="M 0,0 H 612.12 V 792.12 H 0 V 0"
         transform="translate(-503.00002,-164.00001)"
         clip-rule="evenodd"
         id="path268" />
    </clipPath>
  </defs>
  <g
     inkscape:label="Layer 1"
     inkscape:groupmode="layer"
     id="layer1"
     transform="translate(-48.683329,-119.85625)">
    <path
       id="path11"
       d="m 0,0 c 0,1.6 -0.3,3.2 -0.9,4.8 -0.7,1.6 -1.6,3.1 -2.9,4.4 -1.3,1.3 -2.8,2.3 -4.4,2.9 -1.6,0.6 -3.2,0.9 -4.8,0.9 h -250.5 c -1.6,0 -3.2,-0.3 -4.8,-0.9 -1.6,-0.6 -3.1,-1.6 -4.4,-2.9 -1.3,-1.3 -2.2,-2.8 -2.9,-4.4 -0.6,-1.6 -0.9,-3.2 -0.9,-4.8 v -112.3 c 0,-1.5 0.3,-3.1 0.9,-4.7 0.7,-1.7 1.6,-3.2 2.9,-4.4 1.3,-1.3 2.8,-2.3 4.4,-2.9 1.6,-0.7 3.2,-0.9 4.8,-0.9 H -13 c 1.6,0 3.2,0.2 4.8,0.9 1.6,0.6 3.1,1.6 4.4,2.9 1.3,1.2 2.2,2.7 2.9,4.4 0.6,1.6 0.9,3.2 0.9,4.7 L 0,0"
       style="fill:#002597;fill-opacity:1;fill-rule:evenodd;stroke:none"
       transform="matrix(0.35277776,0,0,-0.35277776,146.22638,124.44236)"
       clip-path="url(#clipPath12)" />
    <path
       id="path13"
       d="m 0,0 h -250.5 c -1.6,0 -3.2,-0.3 -4.8,-0.9 -1.6,-0.6 -3.1,-1.6 -4.4,-2.9 -1.3,-1.3 -2.2,-2.8 -2.9,-4.4 -0.6,-1.6 -0.9,-3.2 -0.9,-4.8 v -112.3 c 0,-1.5 0.3,-3.1 0.9,-4.7 0.7,-1.7 1.6,-3.2 2.9,-4.4 1.3,-1.3 2.8,-2.3 4.4,-2.9 1.6,-0.7 3.2,-0.9 4.8,-0.9 H 0 c 1.6,0 3.2,0.2 4.8,0.9 1.6,0.6 3.1,1.6 4.4,2.9 1.3,1.2 2.2,2.7 2.9,4.4 0.6,1.6 0.9,3.2 0.9,4.7 V -13 c 0,1.6 -0.3,3.2 -0.9,4.8 -0.7,1.6 -1.6,3.1 -2.9,4.4 C 7.9,-2.5 6.4,-1.5 4.8,-0.9 3.2,-0.3 1.6,0 0,0 M -250.5,-4.3 H 0 c 1.1,0 2.1,-0.2 3.2,-0.6 1.1,-0.4 2.1,-1.1 2.9,-1.9 0.9,-0.9 1.5,-1.9 2,-3 0.4,-1 0.6,-2.1 0.6,-3.2 v -112.3 c 0,-1 -0.2,-2.1 -0.6,-3.2 -0.5,-1 -1.1,-2 -2,-2.9 -0.8,-0.8 -1.8,-1.5 -2.9,-1.9 -1.1,-0.4 -2.1,-0.6 -3.2,-0.6 h -250.5 c -1,0 -2.1,0.2 -3.2,0.6 -1.1,0.4 -2.1,1.1 -2.9,1.9 -0.9,0.9 -1.5,1.9 -2,2.9 -0.4,1.1 -0.6,2.2 -0.6,3.2 V -13 c 0,2.3 0.9,4.5 2.6,6.2 1.6,1.6 3.8,2.5 6.1,2.5"
       style="fill:#ffffff;fill-opacity:1;fill-rule:evenodd;stroke:none"
       transform="matrix(0.35277776,0,0,-0.35277776,141.64027,119.85625)"
       clip-path="url(#clipPath14)" />
    <path
       id="path15"
       d="M 0,0 H 0.6 C 0.7,0 0.9,0 1,0 1.2,0 1.4,0 1.5,0 3.3,0 4.7,0.6 5.7,1.8 6.6,3 7.1,4.5 7.1,6.3 7.1,8.1 6.7,9.6 5.9,10.9 5,12.3 3.7,13 2.1,13 H -2.8 V -10 H 0 V 0 m 1.9,10.1 c 0.7,0 1.3,-0.4 1.7,-1 C 3.9,8.5 4.1,7.6 4.1,6.3 4.1,5.2 3.9,4.4 3.6,3.8 3.2,3.3 2.7,3 2,3 H 0 v 7.1 h 1.9"
       style="fill:#ffffff;fill-opacity:1;fill-rule:evenodd;stroke:none"
       transform="matrix(0.35277776,0,0,-0.35277776,58.419995,131.56847)"
       clip-path="url(#clipPath16)" />
    <path
       id="path189"
       d="m 0,0 c 0,3 -0.2,5.2 -0.7,6.7 -0.8,2.7 -2.3,4 -4.6,4 -3.5,0 -5.3,-2.9 -5.3,-8.9 V 0.4 -2.5 c 0,-3 0.2,-5.2 0.7,-6.7 0.8,-2.5 2.3,-3.8 4.6,-3.8 2.3,0 3.8,1.3 4.6,3.9 0.5,1.5 0.7,3.7 0.7,6.8 L 0,0 m -3.1,0.4 c 0,-0.3 0.1,-0.6 0.1,-1.1 v -1.9 c 0,-5 -0.8,-7.5 -2.3,-7.5 -1.6,0 -2.3,2.4 -2.3,7.3 v 3.6 c 0,2.3 0.2,4.1 0.5,5.2 0.4,1.2 1,1.8 1.7,1.8 1,0 1.6,-0.9 2,-2.5 0,-0.5 0.1,-1.1 0.2,-1.9 0.1,-0.8 0.1,-1.8 0.1,-3"
       style="fill:#ffffff;fill-opacity:1;fill-rule:evenodd;stroke:none"
       transform="matrix(0.35277776,0,0,-0.35277776,65.546108,130.61597)"
       clip-path="url(#clipPath190)" />
    <path
       id="path191"
       d="M 0,0 V 2.6 H -6 V 23 H -8.8 V 0 H 0"
       style="fill:#ffffff;fill-opacity:1;fill-rule:evenodd;stroke:none"
       transform="matrix(0.35277776,0,0,-0.35277776,70.202775,135.09625)"
       clip-path="url(#clipPath192)" />
    <path
       id="path193"
       d="M 0,0 V 2.6 H -5.9 V 23 H -8.7 V 0 H 0"
       style="fill:#ffffff;fill-opacity:1;fill-rule:evenodd;stroke:none"
       transform="matrix(0.35277776,0,0,-0.35277776,74.400828,135.09625)"
       clip-path="url(#clipPath194)" />
    <path
       id="path195"
       d="M 0,0 V 23 H -3 V 0 h 3"
       style="fill:#ffffff;fill-opacity:1;fill-rule:evenodd;stroke:none"
       transform="matrix(0.35277776,0,0,-0.35277776,76.623328,135.09625)"
       clip-path="url(#clipPath196)" />
    <path
       id="path197"
       d="M 0,0 V 13.8 L 4.6,0 h 2.6 v 23 h -3 V 11.6 L 0.1,23 H -2.8 V 0 H 0"
       style="fill:#ffffff;fill-opacity:1;fill-rule:evenodd;stroke:none"
       transform="matrix(0.35277776,0,0,-0.35277776,79.374995,135.09625)"
       clip-path="url(#clipPath198)" />
    <path
       id="path199"
       d="M 0,0 1.2,6.1 H 5 L 6.3,0 H 9.4 L 4.6,23 h -3 L -3,0 H 0 M 3.2,15.2 4.4,9.1 H 1.9 l 1.3,6.1"
       style="fill:#ffffff;fill-opacity:1;fill-rule:evenodd;stroke:none"
       transform="matrix(0.35277776,0,0,-0.35277776,84.102218,135.09625)"
       clip-path="url(#clipPath200)" />
    <path
       id="path201"
       d="m 0,0 h 2.8 v -20.1 h 3 V 0 H 8.7 V 2.9 H 0 V 0"
       style="fill:#ffffff;fill-opacity:1;fill-rule:evenodd;stroke:none"
       transform="matrix(0.35277776,0,0,-0.35277776,87.912218,128.00541)"
       clip-path="url(#clipPath202)" />
    <path
       id="path203"
       d="m 0,0 c 0,3 -0.3,5.2 -0.7,6.7 -0.8,2.7 -2.4,4 -4.7,4 -3.5,0 -5.2,-2.9 -5.2,-8.9 V 0.4 -2.5 c 0,-3 0.2,-5.2 0.6,-6.7 0.8,-2.5 2.3,-3.8 4.6,-3.8 2.3,0 3.8,1.3 4.6,3.9 0.5,1.5 0.8,3.7 0.8,6.8 L 0,0 m -3.1,0.4 c 0,-0.3 0,-0.6 0,-1.1 v -1.9 c 0,-5 -0.8,-7.5 -2.3,-7.5 -1.5,0 -2.3,2.4 -2.3,7.3 v 3.6 c 0,2.3 0.2,4.1 0.6,5.2 0.4,1.2 0.9,1.8 1.7,1.8 0.9,0 1.6,-0.9 1.9,-2.5 0.1,-0.5 0.2,-1.1 0.2,-1.9 0.1,-0.8 0.1,-1.8 0.2,-3"
       style="fill:#ffffff;fill-opacity:1;fill-rule:evenodd;stroke:none"
       transform="matrix(0.35277776,0,0,-0.35277776,95.638051,130.61597)"
       clip-path="url(#clipPath204)" />
    <path
       id="path205"
       d="m 0,0 c 0,2.1 -0.4,3.7 -1.3,4.8 -0.9,1.1 -2.2,1.6 -4,1.6 h -4.6 v -23 H -7 v 10.7 h 1.4 L -3,-16.6 H 0 L -2.4,-5.1 C -0.8,-4.2 0,-2.5 0,0 m -2.9,0.1 c 0,-0.9 -0.1,-1.6 -0.3,-2 -0.3,-0.6 -0.8,-1 -1.6,-1 H -7 v 6.4 h 1.9 c 0.9,0 1.5,-0.4 1.9,-1.1 0.2,-0.5 0.3,-1.3 0.3,-2.3"
       style="fill:#ffffff;fill-opacity:1;fill-rule:evenodd;stroke:none"
       transform="matrix(0.35277776,0,0,-0.35277776,100.64749,129.24013)"
       clip-path="url(#clipPath206)" />
    <path
       id="path207"
       d="M 0,0 V 10.9 H 4.2 V 0 H 7.1 V 23 H 4.2 V 13.9 H 0 V 23 H -2.8 V 0 H 0"
       style="fill:#ffffff;fill-opacity:1;fill-rule:evenodd;stroke:none"
       transform="matrix(0.35277776,0,0,-0.35277776,109.78444,135.09625)"
       clip-path="url(#clipPath208)" />
    <path
       id="path209"
       d="M 0,0 1.3,6.1 H 5.1 L 6.4,0 H 9.5 L 4.7,23 h -3 L -3,0 H 0 M 3.2,15.2 4.5,9.1 H 2 l 1.2,6.1"
       style="fill:#ffffff;fill-opacity:1;fill-rule:evenodd;stroke:none"
       transform="matrix(0.35277776,0,0,-0.35277776,114.47638,135.09625)"
       clip-path="url(#clipPath210)" />
    <path
       id="path211"
       d="M 0,0 C 1.5,0 2.7,0.7 3.4,2.1 3.9,3.2 4.2,4.6 4.2,6.3 4.2,7 4.2,7.6 4.1,8.1 4.1,8.6 4,9 4,9.4 c -0.3,1 -0.7,1.9 -1.3,2.8 0.7,1.1 1.1,2.7 1.1,4.7 0,2.6 -0.4,4.3 -1.3,5.2 C 1.8,22.7 0.7,23 -1,23 H -2.2 -4.5 -5.7 V 0 H 0 m -2.9,10.7 h 2.4 C 0.3,10.7 0.8,10.1 1.1,8.8 1.2,8.3 1.2,7.4 1.2,6.1 1.2,4 0.7,3 -0.4,3 h -2.5 v 7.7 m 0,9.4 h 2 C 0.2,20.1 0.8,19 0.8,16.9 0.8,15.8 0.7,15.1 0.5,14.5 0.2,14 -0.1,13.7 -0.6,13.7 h -2.3 v 6.4"
       style="fill:#ffffff;fill-opacity:1;fill-rule:evenodd;stroke:none"
       transform="matrix(0.35277776,0,0,-0.35277776,120.96749,135.09625)"
       clip-path="url(#clipPath212)" />
    <path
       id="path213"
       d="M 0,0 V 23 H -3 V 0 h 3"
       style="fill:#ffffff;fill-opacity:1;fill-rule:evenodd;stroke:none"
       transform="matrix(0.35277776,0,0,-0.35277776,124.81277,135.09625)"
       clip-path="url(#clipPath214)" />
    <path
       id="path215"
       d="m 0,0 h 2.8 v -20.1 h 3 V 0 h 3 V 2.9 H 0 V 0"
       style="fill:#ffffff;fill-opacity:1;fill-rule:evenodd;stroke:none"
       transform="matrix(0.35277776,0,0,-0.35277776,125.94166,128.00541)"
       clip-path="url(#clipPath216)" />
    <path
       id="path217"
       d="M 0,0 1.3,6.1 H 5.1 L 6.4,0 H 9.5 L 4.7,23 h -3 L -3,0 H 0 M 3.3,15.2 4.5,9.1 H 2 l 1.3,6.1"
       style="fill:#ffffff;fill-opacity:1;fill-rule:evenodd;stroke:none"
       transform="matrix(0.35277776,0,0,-0.35277776,130.56305,135.09625)"
       clip-path="url(#clipPath218)" />
    <path
       id="path219"
       d="M 0,0 H 2.8 V -20.1 H 5.7 V 0 h 3 V 2.9 H 0 V 0"
       style="fill:#ffffff;fill-opacity:1;fill-rule:evenodd;stroke:none"
       transform="matrix(0.35277776,0,0,-0.35277776,134.40833,128.00541)"
       clip-path="url(#clipPath220)" />
    <path
       id="path221"
       d="m 0,0 c 0,-0.9 -0.2,-1.5 -0.4,-1.9 -0.3,-0.4 -0.7,-0.6 -1.2,-0.6 -0.4,0 -0.8,0.2 -1.2,0.6 -0.4,0.5 -0.7,1.6 -1,3.4 0,0.6 -0.1,1.2 -0.1,1.9 C -4,4 -4,4.6 -4,5.1 v 2.4 c 0,3.9 0.4,6.3 1.2,7.2 0.4,0.4 0.8,0.6 1.3,0.6 0.8,0 1.3,-0.5 1.5,-1.5 H 3 C 2.9,15.4 2.4,16.6 1.7,17.2 1,17.9 -0.2,18.3 -1.8,18.3 -3,18.3 -4,17.9 -4.8,17.1 -6.2,15.7 -7,12 -7,6 -7,5.2 -6.9,4.4 -6.9,3.6 -6.8,2.8 -6.8,2 -6.7,1.3 c 0.1,-1.1 0.3,-2 0.4,-2.7 0.2,-0.8 0.4,-1.4 0.7,-1.9 0.8,-1.4 2.1,-2.1 3.9,-2.1 1.8,0 3.1,0.5 3.8,1.4 0.3,0.5 0.5,1 0.6,1.7 C 2.9,-1.7 3,-0.9 3,0 V 0.3 H 0 V 0"
       style="fill:#ffffff;fill-opacity:1;fill-rule:evenodd;stroke:none"
       transform="matrix(0.35277776,0,0,-0.35277776,62.476941,146.49097)"
       clip-path="url(#clipPath222)" />
    <path
       id="path223"
       d="m 0,0 c 0,2.9 -0.2,5.2 -0.6,6.7 -0.9,2.7 -2.4,4 -4.7,4 -3.5,0 -5.3,-3 -5.3,-8.9 V 0.4 -2.5 c 0,-3 0.2,-5.3 0.7,-6.7 0.8,-2.6 2.3,-3.9 4.6,-3.9 2.3,0 3.8,1.3 4.6,4 0.5,1.4 0.7,3.7 0.7,6.7 L 0,0 M -3.1,0.4 C -3,0.1 -3,-0.3 -3,-0.8 v -1.8 c 0,-5.1 -0.8,-7.6 -2.3,-7.6 -1.6,0 -2.3,2.5 -2.3,7.3 v 3.6 c 0,2.4 0.2,4.1 0.5,5.3 0.4,1.2 1,1.7 1.7,1.7 1,0 1.6,-0.8 2,-2.5 0,-0.4 0.1,-1 0.2,-1.8 0.1,-0.8 0.1,-1.8 0.1,-3"
       style="fill:#ffffff;fill-opacity:1;fill-rule:evenodd;stroke:none"
       transform="matrix(0.35277776,0,0,-0.35277776,68.156662,143.80986)"
       clip-path="url(#clipPath224)" />
    <path
       id="path225"
       d="M 0,0 V 13.7 L 4.6,0 H 7.1 V 23 H 4.2 V 11.6 L 0,23 H -2.8 V 0 H 0"
       style="fill:#ffffff;fill-opacity:1;fill-rule:evenodd;stroke:none"
       transform="matrix(0.35277776,0,0,-0.35277776,70.238051,148.29013)"
       clip-path="url(#clipPath226)" />
    <path
       id="path227"
       d="m 0,0 c 0,-0.4 0,-0.7 0.1,-1.1 0,-0.4 0.1,-0.8 0.3,-1.2 0.8,-2.3 2.3,-3.5 4.7,-3.5 1.4,0 2.6,0.5 3.5,1.6 0.8,1 1.3,2.2 1.3,3.7 0,0.4 0,0.8 -0.1,1.2 C 9.8,1.1 9.7,1.6 9.6,2.1 9.4,2.8 9.2,3.5 8.9,4.2 8.7,4.8 8.3,5.4 8,6 7.8,6.2 7.6,6.5 7.2,6.9 6.9,7.3 6.4,7.9 5.8,8.6 5.3,9.2 4.9,9.7 4.5,10.1 c -0.3,0.4 -0.5,0.7 -0.6,1 -0.2,0.5 -0.3,1 -0.3,1.4 0,1.7 0.6,2.5 1.8,2.5 0.5,0 1,-0.2 1.2,-0.8 0.3,-0.5 0.4,-1.1 0.3,-1.7 h 3 C 9.8,14.1 9.4,15.4 8.7,16.3 7.9,17.4 6.7,18 5.2,18 3.8,18 2.6,17.4 1.8,16.3 1,15.3 0.6,14 0.6,12.5 0.6,11.8 0.7,11 1,10.3 1.2,9.5 1.6,8.7 2.2,8 2.7,7.3 3.2,6.7 3.8,6.1 4.3,5.5 4.8,4.8 5.3,4.2 5.9,3.5 6.3,2.7 6.5,2 6.8,1.2 6.9,0.5 6.9,-0.3 6.9,-1.1 6.8,-1.8 6.5,-2.2 6.2,-2.6 5.7,-2.8 5.1,-2.8 4.4,-2.8 3.8,-2.6 3.5,-2 3.2,-1.5 3,-0.7 3,0.3 H 0 V 0"
       style="fill:#ffffff;fill-opacity:1;fill-rule:evenodd;stroke:none"
       transform="matrix(0.35277776,0,0,-0.35277776,73.659995,146.38513)"
       clip-path="url(#clipPath228)" />
    <path
       id="path229"
       d="M 0,0 V 2.9 H -5.9 V 11 h 3.7 v 3.1 H -5.9 V 20 h 5.6 v 3 H -8.7 V 0 H 0"
       style="fill:#ffffff;fill-opacity:1;fill-rule:evenodd;stroke:none"
       transform="matrix(0.35277776,0,0,-0.35277776,81.138885,148.29013)"
       clip-path="url(#clipPath230)" />
    <path
       id="path231"
       d="M 0,0 C 0,2.2 -0.4,3.8 -1.3,4.9 -2.2,6 -3.6,6.5 -5.4,6.5 h -4.5 v -23 h 2.8 v 10.7 h 1.5 L -3,-16.5 H 0 L -2.4,-5.1 C -0.8,-4.1 0,-2.4 0,0 m -3,0.1 c 0,-0.9 -0.1,-1.5 -0.2,-2 -0.3,-0.6 -0.9,-0.9 -1.7,-0.9 h -2.2 v 6.3 h 1.9 c 1,0 1.6,-0.3 1.9,-1.1 C -3.1,2 -3,1.2 -3,0.1"
       style="fill:#ffffff;fill-opacity:1;fill-rule:evenodd;stroke:none"
       transform="matrix(0.35277776,0,0,-0.35277776,85.548608,142.4693)"
       clip-path="url(#clipPath232)" />
    <path
       id="path233"
       d="m 0,0 h 2.5 l 4.1,23 h -3 L 1.3,9.9 -1.2,23 h -3 L 0,0"
       style="fill:#ffffff;fill-opacity:1;fill-rule:evenodd;stroke:none"
       transform="matrix(0.35277776,0,0,-0.35277776,87.488885,148.29013)"
       clip-path="url(#clipPath234)" />
    <path
       id="path235"
       d="M 0,0 1.3,6.1 H 5.1 L 6.4,0 h 3 L 4.7,23 h -3 L -3,0 H 0 M 3.2,15.2 4.4,9.1 H 1.9 l 1.3,6.1"
       style="fill:#ffffff;fill-opacity:1;fill-rule:evenodd;stroke:none"
       transform="matrix(0.35277776,0,0,-0.35277776,91.228328,148.29013)"
       clip-path="url(#clipPath236)" />
    <path
       id="path237"
       d="m 0,0 h 2.8 v -20 h 3 V 0 h 3 V 3 H 0 V 0"
       style="fill:#ffffff;fill-opacity:1;fill-rule:evenodd;stroke:none"
       transform="matrix(0.35277776,0,0,-0.35277776,94.897218,141.23458)"
       clip-path="url(#clipPath238)" />
    <path
       id="path239"
       d="M 0,0 V 23 H -3 V 0 h 3"
       style="fill:#ffffff;fill-opacity:1;fill-rule:evenodd;stroke:none"
       transform="matrix(0.35277776,0,0,-0.35277776,99.836108,148.29013)"
       clip-path="url(#clipPath240)" />
    <path
       id="path241"
       d="m 0,0 c 0,2.9 -0.3,5.2 -0.7,6.7 -0.8,2.7 -2.4,4 -4.7,4 -3.5,0 -5.2,-3 -5.2,-8.9 V 0.4 -2.5 c 0,-3 0.2,-5.3 0.6,-6.7 0.8,-2.6 2.3,-3.9 4.6,-3.9 2.3,0 3.9,1.3 4.7,4 0.4,1.4 0.7,3.7 0.7,6.7 L 0,0 m -3.1,0.4 c 0,-0.3 0,-0.7 0,-1.2 v -1.8 c 0,-5.1 -0.7,-7.6 -2.3,-7.6 -1.5,0 -2.3,2.5 -2.3,7.3 v 3.6 c 0,2.4 0.2,4.1 0.6,5.3 0.4,1.2 0.9,1.7 1.7,1.7 0.9,0 1.6,-0.8 1.9,-2.5 0.1,-0.4 0.2,-1 0.2,-1.8 0.1,-0.8 0.2,-1.8 0.2,-3"
       style="fill:#ffffff;fill-opacity:1;fill-rule:evenodd;stroke:none"
       transform="matrix(0.35277776,0,0,-0.35277776,104.66916,143.80986)"
       clip-path="url(#clipPath242)" />
    <path
       id="path243"
       d="M 0,0 V 13.7 L 4.6,0 h 2.5 v 23 h -3 V 11.6 L 0,23 H -2.9 V 0 H 0"
       style="fill:#ffffff;fill-opacity:1;fill-rule:evenodd;stroke:none"
       transform="matrix(0.35277776,0,0,-0.35277776,106.75055,148.29013)"
       clip-path="url(#clipPath244)" />
    <path
       id="path245"
       d="M 0,0 1.3,6.1 H 5.1 L 6.4,0 h 3 L 4.7,23 h -3 L -3,0 H 0 M 3.2,15.2 4.4,9.1 H 1.9 l 1.3,6.1"
       style="fill:#ffffff;fill-opacity:1;fill-rule:evenodd;stroke:none"
       transform="matrix(0.35277776,0,0,-0.35277776,118.42749,148.29013)"
       clip-path="url(#clipPath246)" />
    <path
       id="path247"
       d="m 0,0 c 0,2.2 -0.5,3.8 -1.4,4.9 -0.8,1.1 -2.2,1.6 -4,1.6 h -4.5 v -23 h 2.8 v 10.7 h 1.5 l 2.5,-10.7 H 0 L -2.4,-5.1 C -0.8,-4.1 0,-2.4 0,0 m -3,0.1 c 0,-0.9 -0.1,-1.5 -0.3,-2 -0.3,-0.6 -0.8,-0.9 -1.6,-0.9 h -2.2 v 6.3 h 1.9 c 1,0 1.6,-0.3 1.9,-1.1 C -3.1,2 -3,1.2 -3,0.1"
       style="fill:#ffffff;fill-opacity:1;fill-rule:evenodd;stroke:none"
       transform="matrix(0.35277776,0,0,-0.35277776,126.04749,142.4693)"
       clip-path="url(#clipPath248)" />
    <path
       id="path249"
       d="M 0,0 V 2.9 H -5.9 V 11 h 3.7 v 3.1 H -5.9 V 20 h 5.6 v 3 H -8.7 V 0 H 0"
       style="fill:#ffffff;fill-opacity:1;fill-rule:evenodd;stroke:none"
       transform="matrix(0.35277776,0,0,-0.35277776,130.03388,148.29013)"
       clip-path="url(#clipPath250)" />
    <path
       id="path251"
       d="M 0,0 1.3,6.1 H 5.1 L 6.4,0 H 9.5 L 4.7,23 h -3 L -3,0 H 0 M 3.2,15.2 4.5,9.1 H 2 l 1.2,6.1"
       style="fill:#ffffff;fill-opacity:1;fill-rule:evenodd;stroke:none"
       transform="matrix(0.35277776,0,0,-0.35277776,131.55083,148.29013)"
       clip-path="url(#clipPath252)" />
    <path
       id="path253"
       d="m 0,0 v -23.1 h 8.4 c 0.9,0 2,0.5 3.2,1.4 2.7,2.2 4,5.7 4,10.4 0,2.3 -0.4,4.4 -1.2,6.4 -0.9,2.4 -2.3,3.9 -4.1,4.5 C 10,-0.2 9.6,-0.2 9.2,-0.1 8.8,-0.1 8.4,0 8,0 H 0 m 3.5,-19.3 v 15.6 h 4.3 c 1.5,0 2.6,-0.9 3.4,-2.9 0.5,-1.4 0.7,-3 0.7,-4.9 0,-1.9 -0.2,-3.5 -0.8,-4.9 -0.9,-2 -2.1,-2.9 -3.7,-2.9 H 3.5"
       style="fill:#ffffff;fill-opacity:1;fill-rule:evenodd;stroke:none"
       transform="matrix(0.35277776,0,0,-0.35277776,62.194718,153.37013)"
       clip-path="url(#clipPath254)" />
    <path
       id="path255"
       d="m 0,0 c 0,3.4 -0.5,6.1 -1.7,8.2 -1.4,2.5 -3.6,3.8 -6.6,3.8 -2.9,0 -5.1,-1.3 -6.5,-3.9 -1,-2.1 -1.6,-4.7 -1.6,-7.9 0,-3.3 0.6,-6 1.6,-8.1 1.4,-2.7 3.7,-4 6.7,-4 2.9,0 5.1,1.3 6.5,4 C -0.5,-5.8 0,-3.2 0,0 m -3.7,0.2 c 0,-2.1 -0.2,-3.9 -0.8,-5.3 -0.7,-2.1 -2,-3.1 -3.8,-3.1 -1.7,0 -2.9,1 -3.6,3.1 -0.5,1.4 -0.8,3.1 -0.8,5.1 0,2.1 0.3,3.8 0.8,5.2 0.7,2.1 1.9,3.1 3.5,3.1 1.8,0 3.1,-0.9 3.9,-2.8 0.6,-1.4 0.8,-3.2 0.8,-5.3"
       style="fill:#ffffff;fill-opacity:1;fill-rule:evenodd;stroke:none"
       transform="matrix(0.35277776,0,0,-0.35277776,75.106385,157.46236)"
       clip-path="url(#clipPath256)" />
    <path
       id="path257"
       d="M 0,0 V 15.6 L 8.8,0 h 3.3 V 23.1 H 8.5 V 8.3 L 0,23.1 H -3.6 V 0 H 0"
       style="fill:#ffffff;fill-opacity:1;fill-rule:evenodd;stroke:none"
       transform="matrix(0.35277776,0,0,-0.35277776,84.490274,161.5193)"
       clip-path="url(#clipPath258)" />
    <path
       id="path259"
       d="M 0,0 C 0,3.4 -0.5,6.1 -1.6,8.2 -3,10.7 -5.3,12 -8.3,12 c -2.9,0 -5,-1.3 -6.4,-3.9 -1.1,-2.1 -1.6,-4.7 -1.6,-7.9 0,-3.3 0.5,-6 1.6,-8.1 1.4,-2.7 3.6,-4 6.6,-4 2.9,0 5.1,1.3 6.5,4 C -0.5,-5.8 0,-3.2 0,0 m -3.6,0.2 c 0,-2.1 -0.3,-3.9 -0.8,-5.3 -0.8,-2.1 -2.1,-3.1 -3.9,-3.1 -1.6,0 -2.8,1 -3.6,3.1 -0.5,1.4 -0.7,3.1 -0.7,5.1 0,2.1 0.2,3.8 0.7,5.2 0.8,2.1 1.9,3.1 3.5,3.1 1.8,0 3.1,-0.9 3.9,-2.8 0.6,-1.4 0.9,-3.2 0.9,-5.3"
       style="fill:#ffffff;fill-opacity:1;fill-rule:evenodd;stroke:none"
       transform="matrix(0.35277776,0,0,-0.35277776,96.308328,157.46236)"
       clip-path="url(#clipPath260)" />
    <path
       id="path261"
       d="m 0,0 v 19.8 h 5.4 v 3.3 H -8.9 v -3.3 h 5.3 L -3.6,0 H 0"
       style="fill:#ffffff;fill-opacity:1;fill-rule:evenodd;stroke:none"
       transform="matrix(0.35277776,0,0,-0.35277776,100.50638,161.5193)"
       clip-path="url(#clipPath262)" />
    <path
       id="path263"
       d="M 0,0 V 13.4 L 5.4,0 10.8,13.4 V 0 h 3.6 V 23.1 H 10.8 L 5.4,10.1 0,23.1 H -3.6 V 0 H 0"
       style="fill:#ffffff;fill-opacity:1;fill-rule:evenodd;stroke:none"
       transform="matrix(0.35277776,0,0,-0.35277776,111.79527,161.5193)"
       clip-path="url(#clipPath264)" />
    <path
       id="path265"
       d="m 0,0 c 0,3.4 -0.6,6.1 -1.7,8.2 -1.4,2.5 -3.6,3.8 -6.7,3.8 -2.9,0 -5,-1.3 -6.4,-3.9 -1.1,-2.1 -1.6,-4.7 -1.6,-7.9 0,-3.3 0.5,-6 1.6,-8.1 1.4,-2.7 3.6,-4 6.6,-4 3,0 5.1,1.3 6.5,4 C -0.6,-5.8 0,-3.2 0,0 m -3.7,0.2 c 0,-2.1 -0.3,-3.9 -0.8,-5.3 -0.8,-2.1 -2,-3.1 -3.8,-3.1 -1.7,0 -2.9,1 -3.7,3.1 -0.5,1.4 -0.7,3.1 -0.7,5.1 0,2.1 0.2,3.8 0.7,5.2 0.8,2.1 2,3.1 3.6,3.1 1.8,0 3.1,-0.9 3.9,-2.8 0.5,-1.4 0.8,-3.2 0.8,-5.3"
       style="fill:#ffffff;fill-opacity:1;fill-rule:evenodd;stroke:none"
       transform="matrix(0.35277776,0,0,-0.35277776,124.45999,157.46236)"
       clip-path="url(#clipPath266)" />
    <path
       id="path267"
       d="M 0,0 H 3.2 L 6.7,14.8 10.4,0 h 3.2 L 17,23.1 H 13.3 L 11.5,10.9 8.5,23.1 H 5 L 2,10.9 0.3,23.1 H -3.5 L 0,0"
       style="fill:#ffffff;fill-opacity:1;fill-rule:evenodd;stroke:none"
       transform="matrix(0.35277776,0,0,-0.35277776,126.71777,161.5193)"
       clip-path="url(#clipPath268)" />
  </g>
</svg>
