<?xml version="1.0" encoding="UTF-8" standalone="no"?>
<!-- Created with Inkscape (http://www.inkscape.org/) -->

<svg
   width="12in"
   height="15in"
   viewBox="0 0 304.80061 381.00076"
   version="1.1"
   id="svg1"
   inkscape:version="1.3 (0e150ed, 2023-07-21)"
   sodipodi:docname="MUTCD-OH_I-H16.svg"
   xmlns:inkscape="http://www.inkscape.org/namespaces/inkscape"
   xmlns:sodipodi="http://sodipodi.sourceforge.net/DTD/sodipodi-0.dtd"
   xmlns="http://www.w3.org/2000/svg"
   xmlns:svg="http://www.w3.org/2000/svg">
  <sodipodi:namedview
     id="namedview1"
     pagecolor="#ffffff"
     bordercolor="#666666"
     borderopacity="1.0"
     inkscape:showpageshadow="2"
     inkscape:pageopacity="0.0"
     inkscape:pagecheckerboard="0"
     inkscape:deskcolor="#d1d1d1"
     inkscape:document-units="in"
     inkscape:zoom="0.35355339"
     inkscape:cx="340.82547"
     inkscape:cy="695.79307"
     inkscape:window-width="1440"
     inkscape:window-height="855"
     inkscape:window-x="0"
     inkscape:window-y="23"
     inkscape:window-maximized="1"
     inkscape:current-layer="layer2" />
  <defs
     id="defs1" />
  <g
     inkscape:label="Sign Back"
     inkscape:groupmode="layer"
     id="layer1"
     sodipodi:insensitive="true">
    <rect
       style="fill:#ffffff;stroke:#000000;stroke-width:1.57473;stroke-linecap:round;stroke-linejoin:round;stroke-dasharray:none;stroke-dashoffset:0.299999"
       id="rect1"
       width="303.20047"
       height="379.39746"
       x="0.79371959"
       y="0.79371333"
       rx="12.699496"
       ry="12.699496" />
  </g>
  <g
     inkscape:groupmode="layer"
     id="layer2"
     inkscape:label="Legend">
    <g
       id="g3"
       transform="matrix(0.7287939,0,0,0.72878621,24.091567,24.090515)">&#10;	<path
   d="M 71.499023,140.70703 C 33.34082,140.70703 2.2954101,109.66211 2.2954101,71.5 2.2954101,33.34082 33.34082,2.296875 71.499023,2.296875 109.65918,2.296875 140.7041,33.34082 140.7041,71.5 c 0,38.16211 -31.04492,69.20703 -69.205077,69.20703 z"
   id="path5"
   style="fill:#ffffff;stroke:#000000;stroke-opacity:1"
   inkscape:connector-curvature="0"
   sodipodi:nodetypes="sssss" />
&#10;	<g
   id="g7">&#10;		<g
   id="g9">&#10;			<g
   id="g11">&#10;				&#10;				<g
   id="g15"
   style="fill:#000000">&#10;					<path
   d="m 25.454102,88.515625 c 0,0 33.699707,2.123047 53.671875,-3.179688 0,0 -20.279786,-10.115234 -36.625977,-54.217773 0.230469,0.186035 23.136719,53.369141 77.44727,48.602539 0,0 -31.024418,24.610347 -94.493168,8.794922 z"
   id="path17"
   inkscape:connector-curvature="0"
   style="fill:#000000"
   sodipodi:nodetypes="ccccc" />
&#10;					<path
   d="m 29.725586,28.1875 c 0.365723,0.383301 1.236328,0.94873 2.521484,-0.213379 0.696778,-0.629883 1.319336,-1.499023 0.648438,-2.243164 -0.499512,-0.550781 -1.16211,-0.217285 -2.065918,0.280273 l -0.916992,0.507325 c -1.380372,0.763671 -2.70459,1.501464 -4.109864,-0.0459 -0.708008,-0.786621 -1.538086,-2.550293 0.746582,-4.620117 2.160645,-1.950684 4.016114,-1.062988 4.807129,-0.206055 l -1.415039,1.275391 c -0.321289,-0.276856 -1.113769,-0.916992 -2.399902,0.246582 -0.558106,0.508301 -1.041992,1.315918 -0.465332,1.952148 0.5,0.54834 1.055664,0.260254 1.414062,0.06201 l 2.098633,-1.130859 c 1.176758,-0.635254 2.412109,-1.041016 3.560547,0.225585 1.916016,2.117188 -0.07568,4.256348 -0.693359,4.81543 -2.572266,2.327149 -4.352051,1.244141 -5.143067,0.369629 z"
   id="path19"
   inkscape:connector-curvature="0"
   style="fill:#000000" />
&#10;					<path
   d="m 40.109863,23.625 -1.636718,1.121094 -4.417969,-6.450684 -2.367676,1.620117 -0.951172,-1.384277 6.377442,-4.364258 0.946289,1.383789 -2.367676,1.625 z"
   id="path21"
   inkscape:connector-curvature="0"
   style="fill:#000000" />
&#10;					<path
   d="m 41.905762,14.06543 0.021,-0.01025 2.777344,2.794433 -2.149415,1.111328 -0.648925,-3.895507 z m 0.930175,5.599609 3.114258,-1.615234 1.442383,1.459961 1.915039,-0.989747 -7.34082,-6.90039 -2.032715,1.054199 1.360352,9.993652 1.854004,-0.961425 z"
   id="path23"
   inkscape:connector-curvature="0"
   style="fill:#000000" />
&#10;					<path
   d="m 52.641602,17.410156 -1.860352,0.69336 -2.71875,-7.331055 -2.691406,0.998535 -0.586426,-1.577637 7.247559,-2.6850582 0.583007,1.574707 -2.691406,0.9960942 z"
   id="path25"
   inkscape:connector-curvature="0"
   style="fill:#000000" />
&#10;					<path
   d="m 60.979492,7.1484375 -4.919922,1.090332 0.431641,1.9497075 4.518066,-1.0024419 0.365723,1.6411129 -4.519531,1.00293 0.53125,2.403809 5.140625,-1.141114 0.36084,1.639649 -7.03711,1.5625 -2.053711,-9.2753908 6.817383,-1.5107422 z"
   id="path27"
   inkscape:connector-curvature="0"
   style="fill:#000000" />
&#10;					<path
   d="m 68.54248,9.46875 c -0.021,-2.6601562 1.480957,-3.3320312 2.55127,-3.3408203 1.075195,-0.00879 2.585937,0.6411133 2.609375,3.2988281 0.02051,2.6616212 -1.479492,3.3339842 -2.549805,3.3422852 -1.075683,0.01123 -2.588379,-0.638672 -2.61084,-3.300293 z m -1.983398,0.018555 c 0.03857,4.457519 3.350098,4.974609 4.60498,4.963867 1.257813,-0.01123 4.560547,-0.582031 4.520508,-5.0390623 C 75.646484,4.949707 72.341309,4.4375 71.081055,4.4487305 69.82373,4.4594727 66.520996,5.0302734 66.559082,9.487305 Z"
   id="path29"
   inkscape:connector-curvature="0"
   style="fill:#000000" />
&#10;					<path
   d="M 78.609375,14.603516 76.642578,14.328125 77.956055,4.9208984 84.647461,5.852539 84.416016,7.5195312 79.68457,6.8608398 79.389648,8.9790039 83.532226,9.5581055 83.299805,11.222656 79.15918,10.645996 Z"
   id="path31"
   inkscape:connector-curvature="0"
   style="fill:#000000" />
&#10;					<path
   d="m 90.196289,12.205078 c 0.894531,-2.5029296 2.538086,-2.618164 3.548828,-2.258789 1.007813,0.363281 2.203125,1.496094 1.308594,3.998535 -0.896484,2.505371 -2.540039,2.618164 -3.549805,2.258301 -1.004883,-0.363281 -2.204101,-1.495605 -1.307617,-3.998047 z m -1.868164,-0.669922 c -1.506836,4.198242 1.423828,5.824219 2.610352,6.248047 1.18164,0.425781 4.478515,1.029785 5.982422,-3.168457 C 98.426758,10.416504 95.49707,8.7905273 94.311524,8.3686523 93.129883,7.9448242 89.834961,7.3393555 88.328125,11.535156 Z"
   id="path33"
   inkscape:connector-curvature="0"
   style="fill:#000000" />
&#10;					<path
   d="m 99.836914,16.711914 -2.05957,3.726563 -1.735352,-0.959473 4.597658,-8.314453 1.73828,0.960937 -1.74316,3.152832 3.24121,1.792969 1.74218,-3.151367 1.73731,0.961426 -4.59766,8.312988 -1.73926,-0.959961 2.06055,-3.730469 z"
   id="path35"
   inkscape:connector-curvature="0"
   style="fill:#000000" />
&#10;					<path
   d="m 105.32324,25.095703 -1.62695,-1.137207 5.44238,-7.783691 1.62793,1.13623 z"
   id="path37"
   inkscape:connector-curvature="0"
   style="fill:#000000" />
&#10;					<path
   d="m 110.74414,23.210449 c 1.75977,-1.992676 3.33106,-1.493164 4.13379,-0.787598 0.80176,0.707032 1.49902,2.200196 -0.25781,4.198243 -1.75391,1.99707 -3.32422,1.49707 -4.13282,0.787597 -0.80371,-0.705566 -1.49609,-2.201172 0.25684,-4.198242 z m -1.4873,-1.30957 c -2.94434,3.348633 -0.81739,5.938476 0.12695,6.771484 0.93848,0.831055 3.78613,2.606934 6.73047,-0.740234 2.94433,-3.348633 0.81738,-5.939453 -0.12696,-6.769043 -0.94433,-0.82959 -3.78613,-2.609375 -6.73046,0.737793 z"
   id="path39"
   inkscape:connector-curvature="0"
   style="fill:#000000" />
&#10;					<path
   d="m 14.821777,56.356934 -0.437988,1.855468 c -0.190918,0.822266 -0.714355,2.070801 -3.447754,1.434571 C 9.4165039,59.29248 7.9570312,58.390625 8.3242187,56.820801 l 0.4414062,-1.881348 z m -7.2133786,-3.686036 -0.9375,4.007325 c -0.7119141,3.055664 1.9643555,4.506835 3.9487306,4.973144 1.751465,0.410645 4.555664,0.385742 5.286133,-2.734863 l 0.956054,-4.081543 z"
   id="path41"
   inkscape:connector-curvature="0"
   style="fill:#000000" />
&#10;					<path
   d="M 12.724609,70.234863 13.143555,65.209473 11.152832,65.04834 10.77002,69.660645 9.0981445,69.522949 9.4785156,64.905762 7.024414,64.706055 6.590332,69.953613 4.9160156,69.815918 l 0.59375,-7.186035 9.4707034,0.780273 -0.578125,6.962402 z"
   id="path43"
   inkscape:connector-curvature="0"
   style="fill:#000000" />
&#10;					<path
   d="m 10.087891,73.705078 2.786621,-0.15332 0.08936,1.569336 c 0.06689,1.230468 -0.286621,1.766601 -1.210449,1.818359 -0.422852,0.02246 -1.477051,0.08203 -1.563965,-1.393555 l -0.101562,-1.84082 z m -1.6362308,0.09668 0.1240234,2.272461 c 0.1479492,2.544922 2.3378904,2.902343 3.1997074,2.852539 1.85791,-0.106446 2.975586,-1.280274 2.867675,-3.118164 l -0.241699,-4.335938 -9.4868162,0.540039 0.1118164,1.980469 z"
   id="path45"
   inkscape:connector-curvature="0"
   style="fill:#000000" />
&#10;					<path
   d="m 13.331055,82.362305 0.0049,0.02441 -3.4838872,1.835937 -0.4355469,-2.381836 3.9145511,0.521485 z m -5.6259769,-0.744141 0.6337891,3.447266 -1.8168945,0.955078 0.3920898,2.118164 8.7373045,-5.004883 -0.410644,-2.25293 -9.9575198,-1.614257 0.3769531,2.055664 z"
   id="path47"
   inkscape:connector-curvature="0"
   style="fill:#000000" />
&#10;					<path
   d="m 13.129883,90.09375 2.398926,-0.838867 0.815918,2.333984 c 0.381835,1.09961 -0.240723,1.557617 -0.718262,1.72168 -0.885254,0.307617 -1.387695,-0.04981 -1.727539,-1.021485 z m -5.6616213,-0.08496 0.6425781,1.835938 3.5073242,-1.22754 0.674805,1.939454 c 0.487304,1.386718 0.03467,1.625 -1.186035,2.05371 -0.923829,0.322266 -1.3603521,0.560547 -1.7412114,0.833008 l 0.7207034,2.071289 0.239258,-0.08105 c 0.01123,-0.454102 0.336425,-0.56836 1.645996,-1.027344 1.674316,-0.583008 1.810547,-1.076172 1.876464,-1.927735 0.612793,0.78125 1.634766,0.985352 2.620606,0.640625 0.773926,-0.270507 2.383789,-1.325195 1.548828,-3.710937 l -1.58252,-4.532227 -8.9667963,3.132813 z"
   id="path49"
   inkscape:connector-curvature="0"
   style="fill:#000000" />
&#10;					<path
   d="m 12.750488,102.82324 -0.906738,-1.76367 6.963867,-3.567383 -1.312012,-2.554687 1.494629,-0.768555 3.523438,6.877935 -1.494629,0.76953 -1.308594,-2.557621 z"
   id="path51"
   inkscape:connector-curvature="0"
   style="fill:#000000" />
&#10;					<path
   d="m 20.335937,114.37207 -1.083984,-1.50098 6.427734,-4.65527 -0.01367,-0.0225 -7.470704,3.2168 -1.141113,-1.57227 5.413574,-6.05957 -0.01514,-0.0225 -6.4292,4.6582 -1.086425,-1.50097 7.691894,-5.57129 1.699219,2.34668 -5.055176,5.78711 0.01367,0.0195 7.059082,-3.02051 1.685547,2.32617 -7.695313,5.57129 z"
   id="path53"
   inkscape:connector-curvature="0"
   style="fill:#000000" />
&#10;					<path
   d="m 32.564453,115.70117 -3.562988,-3.56152 -1.410156,1.41406 3.269043,3.27149 -1.187989,1.19043 -3.271972,-3.27637 -1.742676,1.73828 3.726074,3.72363 -1.191895,1.19043 -5.09375,-5.10254 6.718262,-6.71386 4.9375,4.94335 z"
   id="path55"
   inkscape:connector-curvature="0"
   style="fill:#000000" />
&#10;					<path
   d="m 39.209473,118.69043 1.488281,1.10352 -5.67041,7.62304 -1.590821,-1.18359 0.930176,-7.74902 -0.02002,-0.0147 -4.041992,5.43261 -1.489258,-1.10449 5.66748,-7.62207 1.682129,1.24805 -0.924316,7.55957 0.02246,0.0127 3.946289,-5.30566 z"
   id="path57"
   inkscape:connector-curvature="0"
   style="fill:#000000" />
&#10;					<path
   d="m 40.700195,130.6416 -1.743652,-0.95019 3.739258,-6.86328 -2.52002,-1.37696 0.802246,-1.47558 6.789063,3.69531 -0.804688,1.47656 -2.521484,-1.37207 z"
   id="path59"
   inkscape:connector-curvature="0"
   style="fill:#000000" />
&#10;					<path
   d="m 50.411621,129.8125 c 0.804688,-2.53223 2.439453,-2.71094 3.462402,-2.38086 1.020996,0.32227 2.259766,1.41113 1.455078,3.94141 -0.807617,2.53711 -2.4458,2.70898 -3.469238,2.38672 -1.018066,-0.32813 -2.253418,-1.41407 -1.448242,-3.94727 z m -1.890137,-0.60254 c -1.353515,4.25195 1.634278,5.76758 2.831055,6.15137 1.199707,0.38281 4.516113,0.86328 5.867676,-3.38281 1.348144,-4.25391 -1.637207,-5.76954 -2.837402,-6.14942 -1.195801,-0.38183 -4.514649,-0.86523 -5.861329,3.38086 z"
   id="path61"
   inkscape:connector-curvature="0"
   style="fill:#000000" />
&#10;					<path
   d="m 59.923828,137.21973 -1.957031,-0.31543 1.509765,-9.37793 6.672364,1.07617 -0.26416,1.65918 -4.711915,-0.75879 -0.345703,2.11621 4.129883,0.66211 -0.268066,1.66113 -4.128906,-0.66406 z"
   id="path63"
   inkscape:connector-curvature="0"
   style="fill:#000000" />
&#10;					<path
   d="m 73.639648,138.21875 -1.987793,0.0273 -0.110351,-7.81543 -2.871582,0.04 -0.02197,-1.67968 7.726074,-0.11133 0.02539,1.68164 -2.875977,0.0391 0.116211,7.81836 z"
   id="path65"
   inkscape:connector-curvature="0"
   style="fill:#000000" />
&#10;					<path
   d="m 79.374023,132.46973 -0.392578,-2.51075 2.444336,-0.3789 c 1.152344,-0.17871 1.485352,0.51562 1.56543,1.01367 0.141601,0.92773 -0.298828,1.35938 -1.316406,1.51563 z m -1.105468,5.55566 1.921875,-0.30273 -0.572266,-3.6709 2.027344,-0.31446 c 1.451172,-0.22851 1.608398,0.25782 1.805664,1.53711 0.149414,0.96778 0.306641,1.43946 0.500977,1.86329 l 2.171875,-0.33985 -0.03613,-0.24512 c -0.445313,-0.0918 -0.499024,-0.42968 -0.711914,-1.80664 -0.271485,-1.74804 -0.736328,-1.97363 -1.558594,-2.19433 0.878906,-0.45703 1.261719,-1.42871 1.103515,-2.46094 -0.128906,-0.80859 -0.871093,-2.57715 -3.368164,-2.19238 l -4.74414,0.73828 1.459961,9.38867 z"
   id="path67"
   inkscape:connector-curvature="0"
   style="fill:#000000" />
&#10;					<path
   d="m 89.678711,128.09668 0.02734,-0.008 2.257812,3.22265 -2.298828,0.73633 0.01367,-3.95117 z m -0.02148,5.67285 3.338867,-1.06738 1.172851,1.68457 2.058594,-0.65723 -6.076172,-8.03125 -2.179687,0.69434 -0.345703,10.08008 1.992187,-0.63477 0.03906,-2.06836 z"
   id="path69"
   inkscape:connector-curvature="0"
   style="fill:#000000" />
&#10;					<path
   d="m 98.952148,121.8584 1.656252,-0.8291 4.23828,8.50293 -1.77246,0.88379 -6.496095,-4.32911 -0.02246,0.0108 3.025391,6.06152 -1.657227,0.82617 -4.239258,-8.49805 1.866211,-0.93457 6.331058,4.23829 0.0234,-0.0166 -2.953121,-5.91601 z"
   id="path71"
   inkscape:connector-curvature="0"
   style="fill:#000000" />
&#10;					<path
   d="m 106.49609,124.99609 c 0.31641,0.42676 1.10352,1.09571 2.52637,0.10645 0.77246,-0.53809 1.49414,-1.32227 0.92188,-2.14551 -0.42481,-0.61035 -1.12403,-0.35937 -2.08301,0.0195 l -0.97559,0.38965 c -1.46289,0.58301 -2.87304,1.15332 -4.07226,-0.55762 -0.60547,-0.86914 -1.20703,-2.72363 1.31738,-4.49023 2.38867,-1.66895 4.11914,-0.55762 4.7959,0.3916 l -1.55957,1.0918 c -0.28418,-0.31543 -0.9961,-1.05176 -2.41114,-0.0566 -0.61816,0.43359 -1.19921,1.17285 -0.70898,1.87988 0.42578,0.60742 1.01563,0.38965 1.39453,0.23828 l 2.22363,-0.86133 c 1.24512,-0.4834 2.52735,-0.72851 3.50489,0.66993 1.63574,2.33691 -0.60547,4.21484 -1.28809,4.69042 -2.83887,1.98731 -4.47754,0.68946 -5.14551,-0.27539 l 1.55957,-1.09082 z"
   id="path73"
   inkscape:connector-curvature="0"
   style="fill:#000000" />
&#10;					<path
   d="m 112.6084,117.60938 -1.90332,-2.04395 1.14844,-1.07422 c 0.90625,-0.83887 1.54296,-0.91504 2.17187,-0.2334 0.29004,0.31055 1.01074,1.08399 -0.0703,2.09375 l -1.34668,1.25782 z m 1.11914,1.19726 1.66211,-1.5498 c 1.87207,-1.74414 0.7373,-3.65625 0.15137,-4.28907 -1.27149,-1.35839 -2.88477,-1.46289 -4.23243,-0.20996 l -3.17382,2.96094 6.47656,6.94824 1.45117,-1.35449 z"
   id="path75"
   inkscape:connector-curvature="0"
   style="fill:#000000" />
&#10;					<path
   d="m 118.69043,111.91602 c -2.08984,-1.64161 -1.6709,-3.24122 -1.0127,-4.08204 0.66407,-0.84082 2.11719,-1.61523 4.20801,0.0342 2.08692,1.64746 1.6709,3.24219 1.00781,4.08008 -0.6621,0.84375 -2.11718,1.61817 -4.20312,-0.0322 z m -1.2334,1.56054 c 3.50293,2.75879 5.97656,0.49903 6.75488,-0.48828 0.78028,-0.98535 2.40332,-3.91406 -1.09765,-6.68262 -3.49805,-2.75586 -5.97656,-0.49609 -6.75586,0.49122 -0.77344,0.98437 -2.39844,3.91894 1.09863,6.67968 z"
   id="path77"
   inkscape:connector-curvature="0"
   style="fill:#000000" />
&#10;					<path
   d="m 124.36523,103.0166 -2.21386,-1.2373 1.20215,-2.158206 c 0.57324,-1.019531 1.32421,-0.853516 1.76269,-0.608399 0.82031,0.457032 0.88965,1.069335 0.38672,1.969725 z m 3.7002,4.29102 0.94629,-1.69922 -3.24317,-1.81055 0.99805,-1.79101 c 0.71387,-1.28223 1.19141,-1.1084 2.3252,-0.47364 0.85449,0.47364 1.32226,0.64453 1.77636,0.74903 l 1.07129,-1.917 -0.21972,-0.12402 c -0.34668,0.29492 -0.64356,0.12598 -1.8584,-0.55078 -1.54785,-0.863282 -2.00977,-0.637696 -2.68848,-0.124024 0.18262,-0.974609 -0.34765,-1.875 -1.26172,-2.380859 -0.71875,-0.402344 -2.57129,-0.90625 -3.80273,1.298828 l -2.34082,4.195315 z"
   id="path79"
   inkscape:connector-curvature="0"
   style="fill:#000000" />
&#10;					<path
   d="m 134.14746,94.850586 -0.72363,1.848633 -7.28223,-2.840821 -1.04687,2.676758 -1.56446,-0.610351 2.80567,-7.198243 1.56445,0.607422 -1.04199,2.676758 z"
   id="path81"
   inkscape:connector-curvature="0"
   style="fill:#000000" />
&#10;					<path
   d="m 129.12305,86.273437 0.006,-0.02734 3.92968,-0.212891 -0.59277,2.34375 -3.34277,-2.103516 z m 4.79882,3.023438 0.86426,-3.400391 2.04688,-0.106445 0.53418,-2.088867 -10.03223,0.90332 -0.56641,2.216797 8.37305,5.624024 0.5166,-2.027344 z"
   id="path83"
   inkscape:connector-curvature="0"
   style="fill:#000000" />
&#10;					<path
   d="m 137.89551,79.142578 -0.25879,1.966797 -7.75195,-0.995117 -0.36622,2.852539 -1.66406,-0.21582 0.98438,-7.664063 1.66113,0.212891 -0.36523,2.850586 z"
   id="path85"
   inkscape:connector-curvature="0"
   style="fill:#000000" />
&#10;					<path
   d="m 138.29785,73.020508 -0.0703,1.981445 -9.49317,-0.339844 0.0713,-1.981445 9.49219,0.339844 z"
   id="path87"
   inkscape:connector-curvature="0"
   style="fill:#000000" />
&#10;					<path
   d="m 133.5791,69.560547 c -2.65039,0.195801 -3.42285,-1.262695 -3.5,-2.332031 -0.0772,-1.06543 0.47363,-2.618164 3.12305,-2.8125 2.64941,-0.193848 3.42285,1.259765 3.5,2.329101 0.0781,1.068848 -0.46778,2.620606 -3.12305,2.81543 z m 0.14844,1.981445 c 4.44141,-0.328613 4.74316,-3.666992 4.65039,-4.920898 -0.0937,-1.253906 -0.87305,-4.510742 -5.31836,-4.184571 -4.44629,0.323731 -4.74902,3.663575 -4.6582,4.916016 0.0928,1.253906 0.875,4.513672 5.32617,4.189453 z"
   id="path89"
   inkscape:connector-curvature="0"
   style="fill:#000000" />
&#10;					<path
   d="m 126.80371,56.381836 -0.42676,-1.804688 9.2461,-2.191406 0.45312,1.929688 -5.69726,5.336914 0.0117,0.02588 6.59082,-1.563965 0.4248,1.805664 -9.24219,2.19043 -0.4834,-2.035157 5.56934,-5.196777 -0.006,-0.02344 -6.44043,1.526855 z"
   id="path91"
   inkscape:connector-curvature="0"
   style="fill:#000000" />
&#10;				<path
   d="M 126.55371,71.529785 C 126.55371,41.141602 101.91797,16.5 71.530761,16.5 41.134765,16.5 16.5,41.141602 16.5,71.529785 c 0,30.396975 24.634765,55.032715 55.030761,55.032715 30.387209,0 55.022949,-24.63574 55.022949,-55.032715 z"
   id="path17-5"
   inkscape:connector-curvature="0"
   style="fill:none;stroke:#000000"
   sodipodi:nodetypes="sssss" />
</g>
&#10;			</g>
&#10;		</g>
&#10;	</g>
&#10;</g>
    <g
       id="g8"
       transform="translate(23.310954)">
      <path
         d="m 150.81911,42.081548 q 0,2.876558 -2.66701,4.457713 -2.09551,1.276354 -4.80062,1.276354 -4.72441,0 -7.90577,-3.657611 l 2.74321,-2.152657 q 2.01931,2.419358 5.08636,2.419358 1.79071,0 2.97181,-0.704852 1.18111,-0.723903 1.18111,-1.771656 0,-1.143003 -1.21921,-1.733555 -1.3716,-0.552452 -2.26695,-0.742952 l -0.89536,-0.266701 -0.8382,-0.190501 -0.9525,-0.2667 q -2.66701,-0.628652 -3.75286,-1.885956 -1.18111,-1.276354 -1.18111,-3.20041 0,-2.343157 1.80976,-3.810011 1.8288,-1.485905 4.72441,-1.485905 4.24817,0 7.08662,2.952759 l -2.5146,2.266957 q -1.75261,-1.866906 -4.57202,-1.847856 -1.42875,0 -2.2479,0.514352 -0.81916,0.495301 -0.81916,1.409704 0,0.819153 0.60961,1.238254 0.62865,0.419101 2.4003,0.819152 3.33376,0.685803 5.27687,1.619255 1.27635,0.647702 2.00026,1.924056 0.74295,1.276354 0.74295,2.819409 z m 19.18336,-2.152657 q 0,3.486161 -2.17171,5.753118 -2.1717,2.266956 -5.54356,2.266956 -3.35281,0 -5.50547,-2.266956 -2.15266,-2.266957 -2.15266,-5.753118 V 28.575057 h 3.39091 v 11.353834 q 0,1.466855 0.62866,2.476508 1.23825,2.095506 3.65761,2.095506 1.143,0 2.1336,-0.571502 0.99061,-0.571501 1.54306,-1.524004 0.59055,-0.971553 0.59055,-2.476508 V 28.575057 h 3.42901 z m 20.32636,7.696223 h -3.81002 l -3.06706,-7.467622 h -5.10541 v 7.467622 h -3.39091 V 28.575057 h 8.74398 q 1.8669,0 3.27661,0.800102 1.3716,0.781053 2.15265,2.095507 0.8001,1.314454 0.8001,2.914658 0,1.581155 -0.81915,2.933709 -0.8001,1.333504 -2.26696,2.152657 z m -3.81002,-13.23979 q 0,-1.104903 -0.762,-1.733555 -0.74295,-0.647702 -1.9812,-0.647702 h -5.42927 v 4.724415 h 5.42927 q 1.23825,0 1.9812,-0.647702 0.762,-0.647702 0.762,-1.695456 z m 23.66016,-5.810267 -7.06758,19.050057 h -3.65761 l -7.02947,-19.050057 h 3.65761 l 5.21972,13.887492 5.21971,-13.887492 z m 17.46888,19.050057 H 213.41746 V 28.575057 H 227.324 v 3.42901 h -10.43943 v 3.524261 h 5.67692 v 3.48616 h -5.67692 v 5.219716 h 10.76328 z m 21.52652,-19.050057 -8.00102,11.277634 v 7.772423 h -3.42901 v -7.772423 l -8.00103,-11.277634 h 4.21006 l 5.56262,7.753373 5.44832,-7.753373 z"
         id="text1"
         style="font-size:33.3376px;line-height:1.25;font-family:'Roadgeek 2014 Series E';-inkscape-font-specification:'Roadgeek 2014 Series E';text-align:center;text-anchor:middle;stroke-width:2.38126"
         aria-label="SURVEY" />
      <path
         d="m 143.542,81.838977 q -1.04776,1.981206 -3.02896,3.10516 -1.96216,1.104903 -4.32437,1.104903 -3.75286,0 -5.92456,-2.686058 -2.15266,-2.686058 -2.15266,-7.200922 0,-4.533913 2.15266,-7.162821 2.1717,-2.647958 5.92456,-2.647958 2.32411,0 4.28627,1.104903 1.9812,1.104903 3.06706,3.105159 l -3.00991,1.581155 q -0.62866,-0.952503 -1.33351,-1.390654 -1.23825,-0.971553 -3.00991,-0.990603 -1.6383,0 -2.70511,1.028703 -1.0668,1.009653 -1.4859,2.362207 -0.40005,1.352554 -0.40005,2.952759 0,3.10516 1.2192,4.838715 1.21921,1.714505 3.37186,1.714505 1.27636,0 2.17171,-0.495302 0.89535,-0.514351 2.17171,-1.924055 z m 19.793,-5.734067 q 0,4.476764 -2.15266,7.219972 -2.15265,2.724158 -5.75311,2.724158 -3.92432,0 -6.00077,-2.952759 -2.07646,-2.952759 -2.07646,-6.934221 0,-4.572013 2.15266,-7.181871 2.1717,-2.628908 5.92457,-2.628908 3.48616,0 5.69596,2.705108 2.20981,2.705108 2.20981,7.048521 z m -3.42901,0.05715 q 0,-3.028959 -1.16205,-4.705364 -1.16206,-1.695455 -3.31471,-1.695455 -2.15266,0 -3.37186,1.714505 -1.21921,1.695455 -1.21921,4.686314 0,3.06706 1.21921,4.781565 1.2192,1.714505 3.37186,1.714505 1.69545,0 2.76225,-1.047753 1.06681,-1.066803 1.39066,-2.419358 0.32385,-1.371604 0.32385,-3.028959 z m 23.1839,9.563129 h -2.93371 L 171.05026,72.6378 V 85.725189 H 167.7165 V 66.675132 h 3.33376 l 8.74397,12.553988 V 66.675132 h 3.29566 z m 17.54505,-15.697247 h -5.48642 v 15.697247 h -3.37186 V 70.027942 h -5.44831 v -3.35281 h 14.30659 z m 18.61184,15.697247 h -3.81001 l -3.06706,-7.467622 h -5.10541 v 7.467622 h -3.39091 V 66.675132 h 8.74397 q 1.86691,0 3.27661,0.800102 1.37161,0.781052 2.15266,2.095506 0.8001,1.314454 0.8001,2.914659 0,1.581155 -0.81915,2.933709 -0.8001,1.333504 -2.26696,2.152657 z m -3.81001,-13.23979 q 0,-1.104903 -0.762,-1.733555 -0.74295,-0.647702 -1.98121,-0.647702 h -5.42926 v 4.724414 h 5.42926 q 1.23826,0 1.98121,-0.647702 0.762,-0.647702 0.762,-1.695455 z m 23.03151,3.619511 q 0,4.476764 -2.15266,7.219972 -2.15265,2.724158 -5.75311,2.724158 -3.92432,0 -6.00077,-2.952759 -2.07646,-2.952759 -2.07646,-6.934221 0,-4.572013 2.15266,-7.181871 2.1717,-2.628908 5.92457,-2.628908 3.48616,0 5.69596,2.705108 2.20981,2.705108 2.20981,7.048521 z m -3.42901,0.05715 q 0,-3.028959 -1.16205,-4.705364 -1.16206,-1.695455 -3.31471,-1.695455 -2.15266,0 -3.37186,1.714505 -1.21921,1.695455 -1.21921,4.686314 0,3.06706 1.21921,4.781565 1.2192,1.714505 3.37186,1.714505 1.69545,0 2.76225,-1.047753 1.06681,-1.066803 1.39066,-2.419358 0.32385,-1.371604 0.32385,-3.028959 z m 22.0409,9.563129 h -14.2304 V 66.675132 h 3.39091 V 82.79148 h 10.83949 z"
         id="text2"
         style="font-size:33.3376px;line-height:1.25;font-family:'Roadgeek 2014 Series E';-inkscape-font-specification:'Roadgeek 2014 Series E';text-align:center;text-anchor:middle;stroke-width:2.38126"
         aria-label="CONTROL" />
      <path
         d="m 168.35468,110.58547 q 0,1.50495 -0.8001,2.89561 -0.8001,1.3716 -2.13361,2.11455 -1.3716,0.74295 -3.42901,0.762 h -5.41021 v 7.46763 h -3.46711 V 104.7752 h 8.87732 q 1.92406,0 3.42901,0.8001 1.37161,0.78105 2.15266,2.09551 0.78105,1.31445 0.78105,2.91466 z m -3.42901,0 q 0,-1.08586 -0.762,-1.73356 -0.762,-0.6477 -2.03836,-0.6477 h -5.54356 v 4.72441 h 5.54356 q 1.23826,0 2.01931,-0.6477 0.78105,-0.6477 0.78105,-1.69545 z m 22.079,3.61951 q 0,4.47676 -2.15266,7.21997 -2.15266,2.72416 -5.75312,2.72416 -3.92431,0 -6.00077,-2.95276 -2.07645,-2.95276 -2.07645,-6.93422 0,-4.57202 2.15265,-7.18187 2.17171,-2.62891 5.92457,-2.62891 3.48616,0 5.69597,2.70511 2.20981,2.7051 2.20981,7.04852 z m -3.42901,0.0571 q 0,-3.02896 -1.16206,-4.70537 -1.16205,-1.69545 -3.31471,-1.69545 -2.15265,0 -3.37186,1.7145 -1.2192,1.69546 -1.2192,4.68632 0,3.06706 1.2192,4.78156 1.21921,1.71451 3.37186,1.71451 1.69546,0 2.76226,-1.04776 1.0668,-1.0668 1.39065,-2.41935 0.32386,-1.37161 0.32386,-3.02896 z m 11.20141,9.56313 h -3.39091 V 104.7752 h 3.39091 z m 20.32636,0 h -2.93371 l -9.10593,-13.08739 v 13.08739 h -3.33376 V 104.7752 h 3.33376 l 8.74398,12.55399 V 104.7752 h 3.29566 z m 17.54505,-15.69725 h -5.48642 v 15.69725 h -3.37186 v -15.69725 h -5.44831 v -3.35281 h 14.30659 z"
         id="text3"
         style="font-size:33.3376px;line-height:1.25;font-family:'Roadgeek 2014 Series E';-inkscape-font-specification:'Roadgeek 2014 Series E';text-align:center;text-anchor:middle;stroke-width:2.38126"
         aria-label="POINT" />
    </g>
    <path
       d="m 81.058151,171.37415 q 0,11.69672 -9.258314,16.84023 -4.038606,2.286 -8.953514,2.286 H 50.578104 v -38.10006 h 12.268219 q 4.876808,0 9.067814,2.40031 9.144014,5.1435 9.144014,16.57352 z m -6.85801,0 q 0,-7.42951 -5.600709,-10.70611 -2.743204,-1.44781 -5.753109,-1.40971 h -5.334008 v 24.46024 h 5.334008 q 2.819405,0 5.486409,-1.524 5.867409,-3.20041 5.867409,-10.82042 z m 46.443849,-0.1143 q 0,8.95352 -4.3053,14.43992 -4.30531,5.44831 -11.50622,5.44831 -7.848612,0 -12.001518,-5.90551 -4.152907,-5.90551 -4.152907,-13.86842 0,-9.14401 4.305307,-14.36372 4.343407,-5.25781 11.849118,-5.25781 6.97231,0 11.39192,5.41021 4.4196,5.41021 4.4196,14.09702 z m -6.85801,0.1143 q 0,-6.05791 -2.3241,-9.41071 -2.3241,-3.39091 -6.62941,-3.39091 -4.30531,0 -6.74371,3.42901 -2.438404,3.3909 -2.438404,9.37261 0,6.13411 2.438404,9.56312 2.4384,3.429 6.74371,3.429 3.39091,0 5.52451,-2.0955 2.1336,-2.1336 2.7813,-4.83871 0.6477,-2.7432 0.6477,-6.05791 z m 69.18964,19.12623 h -5.86741 l -18.21183,-26.17474 v 26.17474 h -6.66751 v -38.10006 h 6.66751 l 17.48793,25.10794 v -25.10794 h 6.59131 z m 40.72885,-19.24053 q 0,8.95352 -4.3053,14.43992 -4.30531,5.44831 -11.50622,5.44831 -7.84861,0 -12.00152,-5.90551 -4.15291,-5.90551 -4.15291,-13.86842 0,-9.14401 4.30531,-14.36372 4.34341,-5.25781 11.84912,-5.25781 6.97231,0 11.39192,5.41021 4.4196,5.41021 4.4196,14.09702 z m -6.85801,0.1143 q 0,-6.05791 -2.3241,-9.41071 -2.3241,-3.39091 -6.62941,-3.39091 -4.30531,0 -6.74371,3.42901 -2.43841,3.3909 -2.43841,9.37261 0,6.13411 2.43841,9.56312 2.4384,3.429 6.74371,3.429 3.3909,0 5.52451,-2.0955 2.1336,-2.1336 2.7813,-4.83871 0.6477,-2.7432 0.6477,-6.05791 z m 40.80513,-12.26822 h -10.97282 v 31.39445 h -6.74371 v -31.39445 h -10.89662 v -6.70561 h 28.61315 z"
       id="text4"
       style="font-size:66.6751px;line-height:1.25;font-family:'Roadgeek 2014 Series E';-inkscape-font-specification:'Roadgeek 2014 Series E';text-align:center;text-anchor:middle;stroke-width:4.76252"
       aria-label="DO NOT" />
    <path
       d="m 67.30414,228.52421 q 0,11.69672 -9.258314,16.84022 -4.038606,2.28601 -8.953514,2.28601 H 36.824093 v -38.10006 h 12.268219 q 4.876808,0 9.067814,2.4003 9.144014,5.14351 9.144014,16.57353 z m -6.858011,0 q 0,-7.42951 -5.600708,-10.70612 -2.743204,-1.4478 -5.753109,-1.4097 h -5.334008 v 24.46024 h 5.334008 q 2.819404,0 5.486408,-1.52401 5.867409,-3.2004 5.867409,-10.82041 z m 22.402717,19.12623 h -6.78181 v -38.10006 h 6.78181 z M 121.2155,236.56332 q 0,5.75311 -5.334,8.91541 -4.19101,2.55271 -9.60122,2.55271 -9.448813,0 -15.811522,-7.31521 l 5.486408,-4.30531 q 4.038606,4.83871 10.172714,4.83871 3.58141,0 5.94361,-1.40971 2.3622,-1.4478 2.3622,-3.5433 0,-2.286 -2.4384,-3.46711 -2.7432,-1.1049 -4.53391,-1.4859 l -1.7907,-0.5334 -1.6764,-0.381 -1.905,-0.5334 q -5.334013,-1.2573 -7.505716,-3.77191 -2.362204,-2.5527 -2.362204,-6.40081 0,-4.6863 3.619506,-7.62001 3.657605,-2.9718 9.448814,-2.9718 8.49631,0 14.17322,5.90551 l -5.02921,4.5339 q -3.5052,-3.7338 -9.14401,-3.6957 -2.8575,0 -4.49581,1.0287 -1.638299,0.9906 -1.638299,2.8194 0,1.63831 1.219199,2.47651 1.2573,0.8382 4.80061,1.6383 6.66751,1.3716 10.55372,3.2385 2.5527,1.29541 4.0005,3.84811 1.4859,2.5527 1.4859,5.63881 z m 32.80407,-20.30733 h -10.97282 v 31.39445 h -6.74371 v -31.39445 h -10.89661 v -6.70561 h 28.61314 z m 37.22363,16.00202 q 0,6.97231 -4.3434,11.50622 -4.34341,4.53391 -11.08712,4.53391 -6.70561,0 -11.01092,-4.53391 -4.3053,-4.53391 -4.3053,-11.50622 v -22.70763 h 6.78181 v 22.70763 q 0,2.93371 1.2573,4.95301 2.4765,4.19101 7.31521,4.19101 2.286,0 4.26721,-1.143 1.9812,-1.14301 3.0861,-3.04801 1.1811,-1.9431 1.1811,-4.95301 v -22.70763 h 6.85801 z m 40.65265,15.39243 h -7.62001 l -6.13411,-14.93523 h -10.21081 v 14.93523 h -6.78181 v -38.10006 h 17.48792 q 3.73381,0 6.55321,1.6002 2.74321,1.5621 4.30531,4.19101 1.6002,2.6289 1.6002,5.82931 0,3.1623 -1.6383,5.8674 -1.6002,2.66701 -4.53391,4.30531 z m -7.62001,-26.47954 q 0,-2.20981 -1.524,-3.46711 -1.4859,-1.2954 -3.96241,-1.2954 h -10.85851 v 9.44881 h 10.85851 q 2.47651,0 3.96241,-1.2954 1.524,-1.2954 1.524,-3.3909 z m 45.98674,15.24002 q 0,2.8575 -1.5621,5.52451 -1.5621,2.6289 -4.19101,4.0767 -2.9337,1.63831 -5.86741,1.63831 h -1.905 -17.22122 v -38.10006 h 17.75462 q 3.92431,0 6.59131,1.3716 5.14351,3.0861 5.14351,8.64871 0,4.76251 -3.69571,7.92482 4.95301,3.5814 4.95301,8.91541 z m -9.41071,-13.48742 q 1.3716,-1.1049 1.3716,-2.78131 0,-1.7145 -1.3335,-2.7051 -1.3335,-1.0287 -3.61951,-1.0287 h -10.82041 v 7.62001 h 10.82041 q 2.20981,0 3.58141,-1.1049 z m 2.5527,13.10642 q 0,-2.2098 -1.7526,-3.69571 -1.7526,-1.524 -4.38151,-1.524 h -10.82041 v 10.05842 h 10.82041 q 2.66701,0 4.38151,-1.37161 1.7526,-1.3716 1.7526,-3.4671 z"
       id="text5"
       style="font-size:66.6751px;line-height:1.25;font-family:'Roadgeek 2014 Series E';-inkscape-font-specification:'Roadgeek 2014 Series E';text-align:center;text-anchor:middle;stroke-width:4.76252"
       aria-label="DISTURB" />
    <path
       d="m 49.768389,278.05436 q 0,3.48616 -2.171706,5.75311 -2.171707,2.26696 -5.543567,2.26696 -3.35281,0 -5.505466,-2.26696 -2.152657,-2.26695 -2.152657,-5.75311 v -11.35384 h 3.39091 v 11.35384 q 0,1.46685 0.628652,2.4765 1.238254,2.09551 3.657611,2.09551 1.143004,0 2.133607,-0.5715 0.990603,-0.5715 1.543054,-1.52401 0.590552,-0.97155 0.590552,-2.4765 v -11.35384 h 3.42901 z m 20.326355,7.69622 h -2.933708 l -9.105928,-13.08739 v 13.08739 h -3.33376 v -19.05006 h 3.33376 l 8.743977,12.55399 v -12.55399 h 3.295659 z m 20.193005,-9.56313 q 0,5.84837 -4.629164,8.42013 -2.019306,1.143 -4.476763,1.143 h -6.134119 v -19.05006 h 6.134119 q 2.438407,0 4.533913,1.20016 4.572014,2.57175 4.572014,8.28677 z m -3.42901,0 q 0,-3.71476 -2.800359,-5.35307 -1.371604,-0.7239 -2.876558,-0.70485 h -2.667009 v 12.23014 h 2.667009 q 1.409704,0 2.743208,-0.762 2.933709,-1.60021 2.933709,-5.41022 z m 22.040851,9.56313 H 94.669201 v -19.05006 h 13.906539 v 3.42901 H 98.136312 v 3.52426 h 5.676918 v 3.48616 h -5.676918 v 5.21972 h 10.763278 z m 19.18337,0 h -3.81001 l -3.06706,-7.46762 h -5.10542 v 7.46762 h -3.39091 v -19.05006 h 8.74398 q 1.8669,0 3.27661,0.8001 1.3716,0.78106 2.15265,2.09551 0.80011,1.31446 0.80011,2.91466 0,1.58115 -0.81916,2.93371 -0.8001,1.3335 -2.26695,2.15266 z m -3.81001,-13.23979 q 0,-1.1049 -0.76201,-1.73356 -0.74295,-0.6477 -1.9812,-0.6477 h -5.42927 v 4.72442 h 5.42927 q 1.23825,0 1.9812,-0.64771 0.76201,-0.6477 0.76201,-1.69545 z m 34.27102,0 q 0,1.50495 -0.80011,2.89561 -0.8001,1.3716 -2.1336,2.11455 -1.37161,0.74296 -3.42901,0.76201 h -5.41022 v 7.46762 h -3.46711 v -19.05006 h 8.87733 q 1.92405,0 3.42901,0.8001 1.3716,0.78106 2.15265,2.09551 0.78106,1.31446 0.78106,2.91466 z m -3.42901,0 q 0,-1.08585 -0.76201,-1.73356 -0.762,-0.6477 -2.03835,-0.6477 h -5.54357 v 4.72442 h 5.54357 q 1.23825,0 2.0193,-0.64771 0.78106,-0.6477 0.78106,-1.69545 z m 20.89788,13.23979 h -14.23039 v -19.05006 h 13.90654 v 3.42901 h -10.43943 v 3.52426 h 5.67692 v 3.48616 h -5.67692 v 5.21972 h 10.76328 z m 19.18336,0 h -2.93371 l -9.10593,-13.08739 v 13.08739 h -3.33376 v -19.05006 h 3.33376 l 8.74398,12.55399 v -12.55399 h 3.29566 z m 22.66951,0 h -3.65761 l -1.8669,-4.47676 h -8.28678 l -1.88596,4.47676 h -3.73381 l 8.00103,-19.05006 h 3.48616 z m -7.02947,-7.90577 -2.62891,-6.38177 -2.68606,6.38177 z m 24.49836,7.90577 h -14.23039 v -19.05006 h 3.39091 v 16.11635 h 10.83948 z m 15.83054,-15.69725 h -5.48642 v 15.69725 h -3.37186 v -15.69725 h -5.44832 v -3.35281 h 14.3066 z m 20.955,-3.35281 -8.00103,11.27764 v 7.77242 h -3.42901 v -7.77242 l -8.00102,-11.27764 h 4.21006 l 5.56262,7.75338 5.44831,-7.75338 z"
       id="text6"
       style="font-size:33.3376px;line-height:1.25;font-family:'Roadgeek 2014 Series E';-inkscape-font-specification:'Roadgeek 2014 Series E';text-align:center;text-anchor:middle;stroke-width:2.38126"
       aria-label="UNDER PENALTY" />
    <path
       d="m 115.89097,307.88036 q 0,4.47677 -2.15265,7.21997 -2.15266,2.72416 -5.75312,2.72416 -3.92431,0 -6.00077,-2.95276 -2.076455,-2.95276 -2.076455,-6.93422 0,-4.57201 2.152655,-7.18187 2.17171,-2.62891 5.92457,-2.62891 3.48616,0 5.69597,2.70511 2.2098,2.70511 2.2098,7.04852 z m -3.42901,0.0571 q 0,-3.02896 -1.16205,-4.70536 -1.16205,-1.69546 -3.31471,-1.69546 -2.15266,0 -3.37186,1.71451 -1.2192,1.69545 -1.2192,4.68631 0,3.06706 1.2192,4.78157 1.2192,1.7145 3.37186,1.7145 1.69545,0 2.76226,-1.04775 1.0668,-1.0668 1.39065,-2.41936 0.32385,-1.3716 0.32385,-3.02896 z m 22.0409,-6.05792 h -10.76328 v 3.86717 h 5.96267 v 3.46711 h -5.96267 v 8.28677 h -3.46711 v -19.05006 h 14.23039 z m 28.87981,15.62105 h -14.23039 v -19.05006 h 3.39091 v 16.11635 h 10.83948 z m 20.95501,0 h -3.65761 l -1.86691,-4.47676 h -8.28677 l -1.88596,4.47676 h -3.73381 l 8.00102,-19.05006 h 3.48616 z m -7.02947,-7.90577 -2.62891,-6.38177 -2.68606,6.38177 z m 28.72745,-11.14429 -3.39091,19.05006 h -3.61951 l -3.06706,-12.76354 -3.00991,12.76354 h -3.61951 l -3.46711,-19.05006 h 3.52426 l 2.09551,12.28729 2.80036,-12.28729 h 3.39091 l 2.95276,12.28729 1.9431,-12.28729 z"
       id="text7"
       style="font-size:33.3376px;line-height:1.25;font-family:'Roadgeek 2014 Series E';-inkscape-font-specification:'Roadgeek 2014 Series E';text-align:center;text-anchor:middle;stroke-width:2.38126"
       aria-label="OF LAW" />
    <rect
       style="fill:#000000;fill-opacity:1;stroke:none;stroke-width:0.711201;stroke-linecap:round;stroke-linejoin:round;stroke-dasharray:none;stroke-dashoffset:0.299999"
       id="rect7"
       width="152.4003"
       height="6.3500128"
       x="76.200157"
       y="330.20065" />
    <path
       d="m 46.152327,358.25501 q 0,1.9177 -1.778,2.9718 -1.397,0.8509 -3.2004,0.8509 -3.1496,0 -5.2705,-2.4384 l 1.8288,-1.4351 q 1.3462,1.6129 3.3909,1.6129 1.1938,0 1.9812,-0.4699 0.7874,-0.4826 0.7874,-1.1811 0,-0.762 -0.8128,-1.1557 -0.9144,-0.3683 -1.5113,-0.4953 l -0.5969,-0.1778 -0.5588,-0.127 -0.635,-0.1778 q -1.778,-0.4191 -2.5019,-1.2573 -0.7874,-0.8509 -0.7874,-2.1336 0,-1.5621 1.2065,-2.54 1.2192,-0.9906 3.1496,-0.9906 2.8321,0 4.7244,1.9685 l -1.6764,1.5113 q -1.1684,-1.2446 -3.048,-1.2319 -0.9525,0 -1.4986,0.3429 -0.5461,0.3302 -0.5461,0.9398 0,0.5461 0.4064,0.8255 0.4191,0.2794 1.6002,0.5461 2.2225,0.4572 3.5179,1.0795 0.8509,0.4318 1.3335,1.2827 0.4953,0.8509 0.4953,1.8796 z m 12.026871,3.6957 h -9.4869 v -12.7 h 9.271 v 2.286 h -6.9596 v 2.3495 h 3.7846 v 2.3241 h -3.7846 v 3.4798 h 7.1755 z m 12.44597,-2.5908 q -0.6985,1.3208 -2.0193,2.0701 -1.3081,0.7366 -2.8829,0.7366 -2.5019,0 -3.9497,-1.7907 -1.4351,-1.7907 -1.4351,-4.8006 0,-3.0226 1.4351,-4.7752 1.4478,-1.7653 3.9497,-1.7653 1.5494,0 2.8575,0.7366 1.3208,0.7366 2.0447,2.0701 l -2.0066,1.0541 q -0.4191,-0.635 -0.889,-0.9271 -0.8255,-0.6477 -2.0066,-0.6604 -1.0922,0 -1.8034,0.6858 -0.7112,0.6731 -0.9906,1.5748 -0.2667,0.9017 -0.2667,1.9685 0,2.0701 0.8128,3.2258 0.8128,1.143 2.2479,1.143 0.8509,0 1.4478,-0.3302 0.5969,-0.3429 1.4478,-1.2827 z m 4.178296,1.5621 q 0,0.4826 -0.3556,0.8255 -0.3429,0.3302 -0.8382,0.3302 -0.4826,0 -0.8509,-0.3302 -0.3556,-0.3429 -0.3556,-0.8255 0,-0.4953 0.3556,-0.8382 0.3683,-0.3556 0.8509,-0.3556 0.4953,0 0.8382,0.3556 0.3556,0.3429 0.3556,0.8382 z m 19.253167,1.0287 h -10.2489 q 0,-2.1082 1.0287,-3.8735 1.6129,-2.7178 5.0165,-3.6576 1.0668,-0.2794 1.4986,-0.6477 0.4445,-0.3683 0.4445,-0.9525 0,-1.4605 -2.5019,-1.4605 -2.413,0 -3.9116,1.3716 l -1.5748,-1.7399 q 2.2606,-1.9558 5.3594,-1.9558 2.2352,0 3.556,1.0287 1.3335,1.0287 1.3335,2.7559 0,1.6764 -1.2827,2.7559 -0.7239,0.5461 -1.8669,0.889 -1.3081,0.3937 -1.8542,0.6477 -0.5461,0.254 -1.1049,0.7493 -0.762,0.6477 -1.3716,1.8288 h 7.4803 z m 12.026869,-7.6962 q 0,2.0193 -0.8636,3.7084 -0.8509,1.6764 -2.4892,2.794 -1.9812,1.4097 -5.067298,1.4097 v -2.2987 h 0.2159 q 1.8542,0 3.136898,-0.7239 0.8763,-0.4953 1.4097,-1.1303 0.5461,-0.6477 1.0287,-1.6764 -1.397,0.4318 -2.8575,0.4318 -2.070098,0 -3.416298,-1.0922 -1.3462,-1.1049 -1.3462,-2.7813 0,-1.7018 1.3589,-2.7813 1.3589,-1.0795 3.492498,-1.0795 2.3114,0 3.8735,1.3462 1.524,1.3335 1.524,3.8735 z m -3.4163,-0.2032 q 0.7366,-0.4572 0.7366,-1.143 0,-0.6985 -0.7239,-1.143 -0.7239,-0.4572 -1.905,-0.4572 -1.219198,0 -1.955798,0.4318 -0.7239,0.4191 -0.7239,1.1557 0,0.7239 0.7493,1.1684 0.762,0.4445 1.968498,0.4445 1.1303,0 1.8542,-0.4572 z m 16.59887,1.4859 q 0,1.2827 -0.2921,2.4257 -0.2921,1.143 -0.9017,2.1082 -0.6096,0.9652 -1.6764,1.5367 -1.0541,0.5588 -2.413,0.5588 -2.6543,0 -4.0132,-1.905 -1.3462,-1.9177 -1.3462,-4.6863 0,-2.7432 1.3589,-4.6355 1.3589,-1.905 3.9878,-1.905 2.6416,0 3.9624,1.9177 1.3335,1.905 1.3335,4.5847 z m -2.2606,0 v 0.0381 q 0,-2.0066 -0.8001,-3.1369 -0.7874,-1.1303 -2.2225,-1.1303 -1.5494,0 -2.3241,1.2954 -0.7747,1.2827 -0.7747,2.9337 0,2.0828 0.8128,3.2258 0.8255,1.143 2.286,1.143 1.397,0 2.2098,-1.1938 0.8128,-1.1938 0.8128,-3.175 z m 15.03677,-1.2827 q 0,2.0193 -0.8636,3.7084 -0.8509,1.6764 -2.4892,2.794 -1.9812,1.4097 -5.0673,1.4097 v -2.2987 h 0.2159 q 1.8542,0 3.1369,-0.7239 0.8763,-0.4953 1.4097,-1.1303 0.5461,-0.6477 1.0287,-1.6764 -1.397,0.4318 -2.8575,0.4318 -2.0701,0 -3.4163,-1.0922 -1.3462,-1.1049 -1.3462,-2.7813 0,-1.7018 1.3589,-2.7813 1.3589,-1.0795 3.4925,-1.0795 2.3114,0 3.8735,1.3462 1.524,1.3335 1.524,3.8735 z m -3.4163,-0.2032 q 0.7366,-0.4572 0.7366,-1.143 0,-0.6985 -0.7239,-1.143 -0.7239,-0.4572 -1.905,-0.4572 -1.2192,0 -1.9558,0.4318 -0.7239,0.4191 -0.7239,1.1557 0,0.7239 0.7493,1.1684 0.762,0.4445 1.9685,0.4445 1.1303,0 1.8542,-0.4572 z m 7.21357,6.8707 q 0,0.4826 -0.3556,0.8255 -0.3429,0.3302 -0.8382,0.3302 -0.4826,0 -0.8509,-0.3302 -0.3556,-0.3429 -0.3556,-0.8255 0,-0.4953 0.3556,-0.8382 0.3683,-0.3556 0.8509,-0.3556 0.4953,0 0.8382,0.3556 0.3556,0.3429 0.3556,0.8382 z m 12.80158,-5.3848 q 0,1.2827 -0.2921,2.4257 -0.2921,1.143 -0.9017,2.1082 -0.6096,0.9652 -1.6764,1.5367 -1.0541,0.5588 -2.413,0.5588 -2.6543,0 -4.0132,-1.905 -1.3462,-1.9177 -1.3462,-4.6863 0,-2.7432 1.3589,-4.6355 1.3589,-1.905 3.9878,-1.905 2.6416,0 3.9624,1.9177 1.3335,1.905 1.3335,4.5847 z m -2.2606,0 v 0.0381 q 0,-2.0066 -0.8001,-3.1369 -0.7874,-1.1303 -2.2225,-1.1303 -1.5494,0 -2.3241,1.2954 -0.7747,1.2827 -0.7747,2.9337 0,2.0828 0.8128,3.2258 0.8255,1.143 2.286,1.143 1.397,0 2.2098,-1.1938 0.8128,-1.1938 0.8128,-3.175 z m 14.70657,-4.0005 q -1.1303,1.0668 -1.397,1.4986 -1.2446,1.6764 -2.1336,4.3307 -0.6477,2.0066 -0.7112,4.5847 h -2.2733 q 0.0635,-2.5273 0.5715,-4.5466 0.6477,-2.413 1.8288,-4.3307 0.2413,-0.4191 1.016,-1.5875 h -7.1501 l -0.0508,-2.2352 h 10.2997 z m 20.77719,10.414 h -2.54 l -2.0447,-4.9784 h -3.4036 v 4.9784 h -2.2606 v -12.7 h 5.8293 q 1.2446,0 2.1844,0.5334 0.9144,0.5207 1.4351,1.397 0.5334,0.8763 0.5334,1.9431 0,1.0541 -0.5461,1.9558 -0.5334,0.889 -1.5113,1.4351 z m -2.54,-8.8265 q 0,-0.7366 -0.508,-1.1557 -0.4953,-0.4318 -1.3208,-0.4318 h -3.6195 v 3.1496 h 3.6195 q 0.8255,0 1.3208,-0.4318 0.508,-0.4318 0.508,-1.1303 z m 14.56688,8.8265 h -9.4869 v -12.7 h 9.271 v 2.286 h -6.9596 v 2.3495 h 3.7846 v 2.3241 h -3.7846 v 3.4798 h 7.1755 z m 13.23337,-12.7 -4.7117,12.7 h -2.4384 l -4.6863,-12.7 h 2.4384 l 3.4798,9.2583 3.4798,-9.2583 z m 3.4163,11.6713 q 0,0.4826 -0.3556,0.8255 -0.3429,0.3302 -0.8382,0.3302 -0.4826,0 -0.8509,-0.3302 -0.3556,-0.3429 -0.3556,-0.8255 0,-0.4953 0.3556,-0.8382 0.3683,-0.3556 0.8509,-0.3556 0.4953,0 0.8382,0.3556 0.3556,0.3429 0.3556,0.8382 z m 19.67226,-1.5621 q -0.6985,1.3208 -2.0193,2.0701 -1.3081,0.7366 -2.8829,0.7366 -2.5019,0 -3.9497,-1.7907 -1.4351,-1.7907 -1.4351,-4.8006 0,-3.0226 1.4351,-4.7752 1.4478,-1.7653 3.9497,-1.7653 1.5494,0 2.8575,0.7366 1.3208,0.7366 2.0447,2.0701 l -2.0066,1.0541 q -0.4191,-0.635 -0.889,-0.9271 -0.8255,-0.6477 -2.0066,-0.6604 -1.0922,0 -1.8034,0.6858 -0.7112,0.6731 -0.9906,1.5748 -0.2667,0.9017 -0.2667,1.9685 0,2.0701 0.8128,3.2258 0.8128,1.143 2.2479,1.143 0.8509,0 1.4478,-0.3302 0.5969,-0.3429 1.4478,-1.2827 z m 13.19529,-3.8227 q 0,2.9845 -1.4351,4.8133 -1.4351,1.8161 -3.8354,1.8161 -2.6162,0 -4.0005,-1.9685 -1.3843,-1.9685 -1.3843,-4.6228 0,-3.048 1.4351,-4.7879 1.4478,-1.7526 3.9497,-1.7526 2.3241,0 3.7973,1.8034 1.4732,1.8034 1.4732,4.699 z m -2.286,0.0381 q 0,-2.0193 -0.7747,-3.1369 -0.7747,-1.1303 -2.2098,-1.1303 -1.4351,0 -2.2479,1.143 -0.8128,1.1303 -0.8128,3.1242 0,2.0447 0.8128,3.1877 0.8128,1.143 2.2479,1.143 1.1303,0 1.8415,-0.6985 0.7112,-0.7112 0.9271,-1.6129 0.2159,-0.9144 0.2159,-2.0193 z m 15.36699,0 q 0,3.8989 -3.0861,5.6134 -1.3462,0.762 -2.9845,0.762 h -4.0894 v -12.7 h 4.0894 q 1.6256,0 3.0226,0.8001 3.048,1.7145 3.048,5.5245 z m -2.286,0 q 0,-2.4765 -1.8669,-3.5687 -0.9144,-0.4826 -1.9177,-0.4699 h -1.778 v 8.1534 h 1.778 q 0.9398,0 1.8288,-0.508 1.9558,-1.0668 1.9558,-3.6068 z m 14.69386,6.3754 h -9.4869 v -12.7 h 9.271 v 2.286 h -6.9596 v 2.3495 h 3.7846 v 2.3241 h -3.7846 v 3.4798 h 7.1755 z"
       id="text8"
       style="font-size:22.225px;line-height:1.25;font-family:'Roadgeek 2014 Series E';-inkscape-font-specification:'Roadgeek 2014 Series E';text-align:center;text-anchor:middle;stroke-width:1.5875"
       aria-label="SEC. 2909.07 REV. CODE" />
  </g>
</svg>
