<?xml version="1.0" encoding="UTF-8" standalone="no"?>
<!-- Created with Inkscape (http://www.inkscape.org/) -->

<svg
   xmlns:dc="http://purl.org/dc/elements/1.1/"
   xmlns:cc="http://creativecommons.org/ns#"
   xmlns:rdf="http://www.w3.org/1999/02/22-rdf-syntax-ns#"
   xmlns:svg="http://www.w3.org/2000/svg"
   xmlns="http://www.w3.org/2000/svg"
   xmlns:sodipodi="http://sodipodi.sourceforge.net/DTD/sodipodi-0.dtd"
   xmlns:inkscape="http://www.inkscape.org/namespaces/inkscape"
   width="15in"
   height="15in"
   viewBox="0 0 381 381"
   version="1.1"
   id="svg905"
   inkscape:version="0.92.2 5c3e80d, 2017-08-06"
   sodipodi:docname="MUTCD-OH_D5-H35.svg">
  <defs
     id="defs899" />
  <sodipodi:namedview
     id="base"
     pagecolor="#ffffff"
     bordercolor="#666666"
     borderopacity="1.0"
     inkscape:pageopacity="0.0"
     inkscape:pageshadow="2"
     inkscape:zoom="0.24748737"
     inkscape:cx="1219.0191"
     inkscape:cy="922.81384"
     inkscape:document-units="in"
     inkscape:current-layer="layer3"
     showgrid="false"
     units="in"
     inkscape:window-width="1440"
     inkscape:window-height="855"
     inkscape:window-x="0"
     inkscape:window-y="1"
     inkscape:window-maximized="1" />
  <metadata
     id="metadata902">
    <rdf:RDF>
      <cc:Work
         rdf:about="">
        <dc:format>image/svg+xml</dc:format>
        <dc:type
           rdf:resource="http://purl.org/dc/dcmitype/StillImage" />
        <dc:title></dc:title>
      </cc:Work>
    </rdf:RDF>
  </metadata>
  <g
     inkscape:label="Sign Back"
     inkscape:groupmode="layer"
     id="layer1"
     transform="translate(0,84.00003)"
     sodipodi:insensitive="true">
    <rect
       style="opacity:1;fill:#ffffff;fill-opacity:1;fill-rule:nonzero;stroke:#000000;stroke-width:1.89473808;stroke-linecap:round;stroke-linejoin:round;stroke-miterlimit:4;stroke-dasharray:none;stroke-opacity:1"
       id="rect2300"
       width="379.095"
       height="379.095"
       x="0.94736904"
       y="-83.042397"
       rx="38.099998"
       ry="38.099998" />
    <rect
       style="opacity:1;fill:#002f6c;fill-opacity:1;fill-rule:nonzero;stroke:none;stroke-width:19.05000114;stroke-linecap:round;stroke-linejoin:round;stroke-miterlimit:4;stroke-dasharray:none;stroke-opacity:1"
       id="rect842"
       width="355.60001"
       height="355.60001"
       x="12.7"
       y="-71.300034"
       rx="25.4"
       ry="25.4" />
  </g>
  <g
     inkscape:groupmode="layer"
     id="layer3"
     inkscape:label="Legends"
     transform="translate(0,-381)">
    <g
       aria-label="WATER"
       style="font-style:normal;font-variant:normal;font-weight:normal;font-stretch:normal;font-size:88.90000153px;line-height:125%;font-family:'Roadgeek 2014 Series D';-inkscape-font-specification:'Roadgeek 2014 Series D';text-align:center;letter-spacing:0px;word-spacing:0px;text-anchor:middle;fill:#ffffff;fill-opacity:1;stroke:none;stroke-width:1.38906252px;stroke-linecap:butt;stroke-linejoin:miter;stroke-opacity:1"
       id="text3626">
      <path
         d="m 131.71765,647.7 -7.4676,50.8 h -7.1628 l -8.07721,-32.6136 -7.8232,32.6136 h -7.162795 l -7.467601,-50.8 h 8.280401 l 3.9116,26.7716 6.349995,-26.7716 h 7.9248 l 6.50241,26.7716 3.9116,-26.7716 z"
         style="fill:#ffffff;stroke-width:1.38906252px"
         id="path3636" />
      <path
         d="m 177.80317,698.5 h -8.5344 l -5.0292,-14.2748 h -15.8496 l -4.9784,14.2748 h -8.5852 l 17.4752,-50.8 h 8.0264 z m -16.3576,-22.4536 -5.0292,-14.2748 -5.1308,14.2748 z"
         style="fill:#ffffff;stroke-width:1.38906252px"
         id="path3638" />
      <path
         d="m 212.23347,654.812 h -11.7348 V 698.5 h -8.0264 v -43.688 h -11.6332 V 647.7 h 31.3944 z"
         style="fill:#ffffff;stroke-width:1.38906252px"
         id="path3640" />
      <path
         d="m 251.28637,698.5 h -31.496 v -50.8 h 29.9212 v 7.9756 h -21.9456 v 12.5476 h 14.8336 v 8.1788 h -14.8336 v 13.9192 h 23.5204 z"
         style="fill:#ffffff;stroke-width:1.38906252px"
         id="path3642" />
      <path
         d="m 294.44355,698.5 h -8.6868 l -8.2804,-22.098 h -9.6012 V 698.5 h -7.9756 v -50.8 h 16.7132 q 5.7404,0 9.144,1.6256 3.302,1.6764 5.4356,5.2324 2.1844,3.556 2.1844,7.4168 0,4.0132 -2.1844,7.62 -2.1336,3.6068 -5.6388,5.2324 z m -9.144,-36.5252 q 0,-3.6576 -3.1496,-5.334 -1.6764,-0.9652 -4.6736,-0.9652 h -9.6012 v 12.5476 h 9.6012 q 3.1496,0 4.6736,-0.8636 3.1496,-1.6256 3.1496,-5.3848 z"
         style="fill:#ffffff;stroke-width:1.38906252px"
         id="path3644" />
    </g>
    <g
       aria-label="DRINKING"
       style="font-style:normal;font-variant:normal;font-weight:normal;font-stretch:normal;font-size:88.90000153px;line-height:125%;font-family:'Roadgeek 2014 Series D';-inkscape-font-specification:'Roadgeek 2014 Series D';text-align:center;letter-spacing:0px;word-spacing:0px;text-anchor:middle;fill:#ffffff;fill-opacity:1;stroke:none;stroke-width:1.38906252px;stroke-linecap:butt;stroke-linejoin:miter;stroke-opacity:1"
       id="text3630">
      <path
         d="m 74.730962,570.53478 q 0,15.748 -8.89,22.606 -2.9464,2.5908 -7.315201,2.8956 h -2.8448 -15.494 v -50.8 h 16.3576 q 3.810001,0 5.791201,0.508 2.032,0.508 4.0132,2.1844 8.382,7.2136 8.382,22.606 z m -8.1788,0 q 0,-10.7696 -4.1148,-15.1384 -2.1844,-2.1844 -5.181601,-2.1844 h -9.0932 v 34.6456 h 8.0264 q 3.657601,0 5.638801,-1.9812 4.7244,-4.7244 4.7244,-15.3416 z"
         style="fill:#ffffff;stroke-width:1.38906252px"
         id="path3647" />
      <path
         d="m 120.39639,596.03638 h -8.6868 l -8.2804,-22.098 h -9.601197 v 22.098 h -7.9756 v -50.8 h 16.713197 q 5.7404,0 9.144,1.6256 3.302,1.6764 5.4356,5.2324 2.1844,3.556 2.1844,7.4168 0,4.0132 -2.1844,7.62 -2.1336,3.6068 -5.6388,5.2324 z m -9.144,-36.5252 q 0,-3.6576 -3.1496,-5.334 -1.6764,-0.9652 -4.6736,-0.9652 h -9.601197 v 12.5476 h 9.601197 q 3.1496,0 4.6736,-0.8636 3.1496,-1.6256 3.1496,-5.3848 z"
         style="fill:#ffffff;stroke-width:1.38906252px"
         id="path3649" />
      <path
         d="m 137.26576,596.03638 h -8.1788 v -50.8 h 8.1788 z"
         style="fill:#ffffff;stroke-width:1.38906252px"
         id="path3651" />
      <path
         d="m 183.946,596.03638 h -7.1628 l -19.4056,-34.3916 v 34.3916 h -7.9756 v -50.8 h 7.9756 l 18.542,32.4612 v -32.4612 h 8.0264 z"
         style="fill:#ffffff;stroke-width:1.38906252px"
         id="path3653" />
      <path
         d="m 231.51683,596.03638 h -9.2456 l -12.8524,-24.0284 -5.334,6.5532 v 17.4752 h -7.9756 v -50.8 h 7.9756 v 20.1676 l 16.0528,-20.1676 h 10.3124 l -15.6464,19.812 z"
         style="fill:#ffffff;stroke-width:1.38906252px"
         id="path3655" />
      <path
         d="m 248.39076,596.03638 h -8.1788 v -50.8 h 8.1788 z"
         style="fill:#ffffff;stroke-width:1.38906252px"
         id="path3657" />
      <path
         d="m 295.071,596.03638 h -7.1628 l -19.4056,-34.3916 v 34.3916 h -7.9756 v -50.8 h 7.9756 l 18.542,32.4612 v -32.4612 h 8.0264 z"
         style="fill:#ffffff;stroke-width:1.38906252px"
         id="path3659" />
      <path
         d="m 340.81303,580.89798 q 0,6.858 -4.572,11.43 -4.5212,4.572 -11.5316,4.572 -5.7404,0 -9.2964,-2.1844 -3.556,-2.1844 -5.842,-7.0104 -3.4036,-6.9596 -3.3528,-16.9672 0,-6.096 1.524,-11.684 1.5748,-5.588 4.2164,-8.9408 4.6736,-5.7404 12.954,-5.7404 5.8928,0 9.652,2.5908 3.7592,2.5908 6.2484,8.636 l -7.62,2.9972 q -1.6764,-3.302 -3.5052,-4.6736 -1.8288,-1.3716 -4.7752,-1.3716 -6.096,0 -8.5344,6.2484 -1.9304,4.7752 -1.9304,11.938 0,8.89 2.4384,13.9192 2.286,4.1148 6.9596,4.064 3.81,0 6.35,-2.1844 2.54,-2.1844 2.54,-5.6388 v -2.1844 h -9.2456 v -7.9756 h 17.3228 z"
         style="fill:#ffffff;stroke-width:1.38906252px"
         id="path3661" />
    </g>
    <g
       aria-label="SAFE"
       style="font-style:normal;font-variant:normal;font-weight:normal;font-stretch:normal;font-size:88.90000153px;line-height:125%;font-family:'Roadgeek 2014 Series D';-inkscape-font-specification:'Roadgeek 2014 Series D';text-align:center;letter-spacing:0px;word-spacing:0px;text-anchor:middle;fill:#ffffff;fill-opacity:1;stroke:none;stroke-width:1.38906252px;stroke-linecap:butt;stroke-linejoin:miter;stroke-opacity:1"
       id="text3634">
      <path
         d="m 145.18382,479.806 q 0,7.112 -4.9784,11.5824 -4.4196,3.9116 -11.0236,3.9116 -6.35,0 -11.176,-3.4036 -4.7752,-3.4544 -7.366,-9.398 l 7.62,-2.8448 q 3.4036,7.4676 10.922,7.4676 3.4036,0 5.588,-2.1336 2.2352,-2.1336 2.2352,-5.334 0,-1.9304 -0.8128,-3.4036 -0.762,-1.4732 -2.4892,-2.4892 -1.6764,-1.0668 -3.0988,-1.6764 -1.4224,-0.6096 -4.1148,-1.524 -2.6416,-0.9144 -3.9624,-1.4224 -9.8552,-3.9116 -9.8044,-12.6492 0,-7.112 4.2672,-10.414 4.318,-3.302 11.6332,-3.302 10.16,0 14.3764,10.3124 l -7.1628,2.0828 q -0.1524,-0.4572 -0.6604,-1.1684 -0.4572,-0.7112 -2.3876,-1.9304 -1.8796,-1.2192 -4.4196,-1.3208 -3.302,-0.1524 -5.6896,1.3208 -2.3876,1.4732 -2.1336,4.6228 0.1524,2.54 2.7432,4.064 2.6416,1.4732 6.1976,2.4892 3.6068,1.016 7.1628,2.4892 3.556,1.4732 6.0452,4.9784 2.4892,3.5052 2.4892,9.0932 z"
         style="fill:#ffffff;stroke-width:1.38906252px"
         id="path3664" />
      <path
         d="m 192.1889,494.4364 h -8.5344 l -5.0292,-14.2748 h -15.8496 l -4.9784,14.2748 h -8.5852 l 17.4752,-50.8 h 8.0264 z m -16.3576,-22.4536 -5.0292,-14.2748 -5.1308,14.2748 z"
         style="fill:#ffffff;stroke-width:1.38906252px"
         id="path3666" />
      <path
         d="m 231.2928,451.612 h -23.5204 v 12.5476 h 14.8336 v 8.1788 h -14.8336 v 22.098 h -7.9756 v -50.8 h 31.496 z"
         style="fill:#ffffff;stroke-width:1.38906252px"
         id="path3668" />
      <path
         d="m 270.36018,494.4364 h -31.496 v -50.8 h 29.9212 v 7.9756 h -21.9456 v 12.5476 h 14.8336 v 8.1788 h -14.8336 v 13.9192 h 23.5204 z"
         style="fill:#ffffff;stroke-width:1.38906252px"
         id="path3670" />
    </g>
  </g>
</svg>
