<?xml version="1.0" encoding="UTF-8" standalone="no"?>
<!-- Created with Inkscape (http://www.inkscape.org/) -->

<svg
   width="25.576387mm"
   height="12.876389mm"
   viewBox="0 0 25.576387 12.876389"
   version="1.1"
   id="svg1"
   inkscape:version="1.3 (0e150ed, 2023-07-21)"
   sodipodi:docname="MUTCD_M10-2aP.svg"
   xmlns:inkscape="http://www.inkscape.org/namespaces/inkscape"
   xmlns:sodipodi="http://sodipodi.sourceforge.net/DTD/sodipodi-0.dtd"
   xmlns="http://www.w3.org/2000/svg"
   xmlns:svg="http://www.w3.org/2000/svg">
  <sodipodi:namedview
     id="namedview1"
     pagecolor="#ffffff"
     bordercolor="#666666"
     borderopacity="1.0"
     inkscape:showpageshadow="2"
     inkscape:pageopacity="0.0"
     inkscape:pagecheckerboard="0"
     inkscape:deskcolor="#d1d1d1"
     inkscape:document-units="mm"
     inkscape:zoom="1"
     inkscape:cx="48"
     inkscape:cy="24"
     inkscape:window-width="1440"
     inkscape:window-height="431"
     inkscape:window-x="0"
     inkscape:window-y="23"
     inkscape:window-maximized="0"
     inkscape:current-layer="layer1" />
  <defs
     id="defs1">
    <clipPath
       clipPathUnits="userSpaceOnUse"
       id="clipPath701">
      <path
         d="M 67.25,38.996 H 571.751 V 743 H 67.25 Z"
         transform="translate(-192.0022,-605.90002)"
         id="path701" />
    </clipPath>
  </defs>
  <g
     inkscape:label="Layer 1"
     inkscape:groupmode="layer"
     id="layer1"
     transform="translate(-91.545832,-142.08125)">
    <g
       id="g699"
       transform="matrix(0.26458333,0,0,0.26458333,25.487418,89.261492)">
      <path
         id="path700"
         d="m 0,0 c -2.55,0 -4.625,2.075 -4.625,4.625 v 27 c 0,2.55 2.075,4.625 4.625,4.625 h 63 c 2.55,0 4.625,-2.075 4.625,-4.625 v -27 C 67.625,2.075 65.55,0 63,0 Z"
         style="fill:#ffffff;fill-opacity:1;fill-rule:nonzero;stroke:none"
         transform="matrix(1.3333333,0,0,-1.3333333,256.00293,248.13333)"
         clip-path="url(#clipPath701)" />
    </g>
    <g
       id="g701"
       transform="matrix(0.26458333,0,0,0.26458333,25.487418,89.261492)">
      <path
         id="path702"
         d="m 0,0 h -63 c -2.619,0 -4.75,-2.131 -4.75,-4.75 v -27 c 0,-2.619 2.131,-4.75 4.75,-4.75 H 0 c 2.619,0 4.75,2.131 4.75,4.75 v 27 C 4.75,-2.131 2.619,0 0,0 m 0,-0.25 c 2.485,0 4.5,-2.015 4.5,-4.5 v -27 c 0,-2.485 -2.015,-4.5 -4.5,-4.5 h -63 c -2.485,0 -4.5,2.015 -4.5,4.5 v 27 c 0,2.485 2.015,4.5 4.5,4.5 z"
         style="fill:#000000;fill-opacity:1;fill-rule:nonzero;stroke:none"
         transform="matrix(1.3333333,0,0,-1.3333333,340.00293,199.63373)" />
    </g>
    <g
       id="g702"
       transform="matrix(0.26458333,0,0,0.26458333,25.487418,89.261492)">
      <path
         id="path703"
         d="m 0,0 h -63 c -1.657,0 -3,1.343 -3,3 v 27 c 0,1.657 1.343,3 3,3 H 0 c 1.657,0 3,-1.343 3,-3 V 3 C 3,1.343 1.657,0 0,0"
         style="fill:#7d4802;fill-opacity:1;fill-rule:nonzero;stroke:none"
         transform="matrix(1.3333333,0,0,-1.3333333,340.00293,245.96693)" />
    </g>
    <g
       id="g703"
       transform="matrix(0.26458333,0,0,0.26458333,25.487418,89.261492)">
      <path
         id="path704"
         d="m 0,0 c 1.129,0 1.307,0.814 1.307,1.105 0,0.392 -0.293,1.106 -1.238,1.106 H -1.787 V 0 Z m -1.787,-1.451 v -3.917 h -1.42 V 3.631 H 0.048 C 2.111,3.631 2.73,1.981 2.73,1.104 2.73,0.769 2.606,-0.547 1.333,-1.15 L 2.919,-5.368 H 1.371 l -1.452,3.917 z"
         style="fill:#ffffff;fill-opacity:1;fill-rule:nonzero;stroke:none"
         transform="matrix(1.3333333,0,0,-1.3333333,285.29107,232.30893)" />
      <path
         id="path705"
         d="m 0,0 c 0,-0.664 0.19,-2.117 1.302,-2.117 1.111,0 1.269,1.486 1.269,2.148 0,0.633 -0.191,2.089 -1.269,2.089 V 2.117 C 0.19,2.117 0,0.664 0,0 m -1.46,0.031 c 0,1.454 0.476,3.415 2.762,3.415 2.254,0 2.73,-1.834 2.73,-3.415 0,-1.58 -0.476,-3.444 -2.73,-3.444 -2.286,0 -2.762,1.738 -2.762,3.444"
         style="fill:#ffffff;fill-opacity:1;fill-rule:nonzero;stroke:none"
         transform="matrix(1.3333333,0,0,-1.3333333,292.4504,235.084)" />
      <path
         id="path706"
         d="M 0,0 C 0.459,0 0.929,0.165 1.168,0.291 V 1.809 C 0.895,1.938 0.406,2.088 -0.055,2.088 -0.604,2.088 -1.1,1.872 -1.1,1.145 -1.1,0.251 -0.566,0 0,0 m -0.046,4.259 c -0.665,0 -1.267,-0.365 -1.62,-0.838 l -0.409,1.392 c 0.59,0.462 1.318,0.751 2.246,0.751 1.273,0 2.444,-0.777 2.444,-2.332 V -1.162 H 1.231 v 0.19 c -0.221,-0.19 -0.788,-0.283 -1.292,-0.283 -1.323,0 -2.455,0.848 -2.455,2.433 0,1.296 1.096,2.143 2.565,2.143 0.312,0 0.799,-0.099 1.087,-0.216 0,0.344 -0.147,1.154 -1.182,1.154"
         style="fill:#ffffff;fill-opacity:1;fill-rule:nonzero;stroke:none"
         transform="matrix(1.3333333,0,0,-1.3333333,302.50133,237.91733)" />
      <path
         id="path707"
         d="M 0,0 C 0.506,0 0.853,0.095 1.2,0.443 V 3.762 C 0.821,4.173 0.502,4.238 0.094,4.238 -0.99,4.238 -1.295,3.098 -1.295,2.15 -1.295,1.231 -0.983,0 0,0 m -0.249,5.578 c 0.556,0 1.171,-0.162 1.481,-0.393 V 7.302 L 2.654,7.998 V -1.169 H 1.232 v 0.19 C 0.79,-1.232 0.474,-1.327 -0.031,-1.327 c -1.995,0 -2.717,1.612 -2.717,3.477 0,1.719 0.56,3.428 2.499,3.428"
         style="fill:#ffffff;fill-opacity:1;fill-rule:nonzero;stroke:none"
         transform="matrix(1.3333333,0,0,-1.3333333,311.4528,237.90853)" />
    </g>
    <g
       id="g707"
       transform="matrix(0.26458333,0,0,0.26458333,25.487418,89.261492)">
      <path
         id="path708"
         d="M 0,0 C 0.97,0 1.757,0.919 1.757,3.206 1.757,5.493 0.97,6.412 0,6.412 -0.97,6.412 -1.757,5.495 -1.757,3.206 -1.757,0.919 -0.97,0 0,0 m 3.181,3.206 c 0,-0.323 0.069,-4.657 -3.197,-4.657 -3.265,0 -3.197,4.334 -3.197,4.657 0,0.323 -0.068,4.657 3.197,4.657 3.266,0 3.197,-4.334 3.197,-4.657"
         style="fill:#ffffff;fill-opacity:1;fill-rule:nonzero;stroke:none"
         transform="matrix(1.3333333,0,0,-1.3333333,264.9528,218.742)" />
      <path
         id="path709"
         d="M 0,0 1.44,0.695 V -8.471 H 0 Z"
         style="fill:#ffffff;fill-opacity:1;fill-rule:nonzero;stroke:none"
         transform="matrix(1.3333333,0,0,-1.3333333,271.59493,209.17213)" />
      <path
         id="path710"
         d="M 0,0 C 0.506,0 0.853,0.095 1.2,0.443 V 3.762 C 0.821,4.173 0.502,4.238 0.094,4.238 -0.99,4.238 -1.295,3.098 -1.295,2.15 -1.295,1.231 -0.983,0 0,0 m -0.249,5.578 c 0.556,0 1.171,-0.162 1.481,-0.393 V 7.302 L 2.654,7.998 V -1.169 H 1.232 v 0.19 C 0.79,-1.232 0.474,-1.327 -0.031,-1.327 c -1.995,0 -2.717,1.612 -2.717,3.477 0,1.719 0.56,3.428 2.499,3.428"
         style="fill:#ffffff;fill-opacity:1;fill-rule:nonzero;stroke:none"
         transform="matrix(1.3333333,0,0,-1.3333333,279.0988,218.90853)" />
      <path
         id="path711"
         d="m 0,0 1.358,0.504 c 0.378,-0.852 1.074,-1.324 1.927,-1.324 0.852,0 1.389,0.567 1.389,1.324 0,1.203 -1.389,1.387 -2.557,1.861 -0.536,0.22 -1.736,0.757 -1.736,2.24 0,1.767 1.2,2.427 2.809,2.427 1.262,0 2.115,-0.725 2.557,-1.829 L 4.485,4.825 C 4.277,5.232 3.84,5.614 3.083,5.614 2.326,5.614 1.766,5.299 1.766,4.705 1.766,3.864 2.494,3.698 3.672,3.328 4.872,2.951 6.126,2.398 6.126,0.473 6.126,-1.453 4.551,-2.27 3.285,-2.27 1.738,-2.27 0.601,-1.357 0,0"
         style="fill:#ffffff;fill-opacity:1;fill-rule:nonzero;stroke:none"
         transform="matrix(1.3333333,0,0,-1.3333333,294.63693,217.65147)" />
      <path
         id="path712"
         d="m 0,0 c 0,0.85 -0.568,1.043 -1.327,1.043 -0.202,0 -1.107,-0.116 -1.107,-1.107 v -4.299 h -1.455 v 8.471 l 1.423,0.696 V 1.991 c 0.358,0.224 0.991,0.406 1.414,0.406 h 0.018 c 1.239,0 2.457,-0.796 2.457,-2.237 V -4.363 H 0 Z"
         style="fill:#ffffff;fill-opacity:1;fill-rule:nonzero;stroke:none"
         transform="matrix(1.3333333,0,0,-1.3333333,309.7908,214.65)" />
      <path
         id="path713"
         d="m 0,0 c 0,-0.664 0.19,-2.117 1.302,-2.117 1.111,0 1.27,1.486 1.27,2.148 0,0.633 -0.192,2.088 -1.27,2.088 V 2.117 C 0.19,2.117 0,0.664 0,0 m -1.46,0.031 c 0,1.454 0.476,3.415 2.762,3.415 2.254,0 2.73,-1.834 2.73,-3.415 0,-1.58 -0.476,-3.444 -2.73,-3.444 -2.286,0 -2.762,1.738 -2.762,3.444"
         style="fill:#ffffff;fill-opacity:1;fill-rule:nonzero;stroke:none"
         transform="matrix(1.3333333,0,0,-1.3333333,315.43547,216.084)" />
      <path
         id="path714"
         d="m 0,0 c -0.823,0 -0.918,-0.469 -0.918,-1.297 v -4.11 h -1.458 v 6.575 h 1.458 V 0.852 c 0.349,0.316 0.506,0.474 1.014,0.474 0.495,0 0.729,-0.19 0.95,-0.443 L 0.856,-0.38 C 0.57,-0.159 0.346,0 0,0"
         style="fill:#ffffff;fill-opacity:1;fill-rule:nonzero;stroke:none"
         transform="matrix(1.3333333,0,0,-1.3333333,325.8992,213.258)" />
      <path
         id="path715"
         d="M 0,0 H 2.45 C 2.45,0.635 2.324,1.392 1.257,1.392 0.163,1.392 0,0.651 0,0 m 0.031,-1.327 c 0.063,-0.727 0.345,-1.487 1.226,-1.487 0.578,0 1.067,0.348 1.225,0.917 l 1.16,-0.726 C 3.266,-3.477 2.575,-4.141 1.257,-4.141 c -2.267,0 -2.701,1.738 -2.701,3.446 0,1.453 0.439,3.413 2.701,3.413 2.366,0 2.61,-2.052 2.61,-3.639 v -0.406 z"
         style="fill:#ffffff;fill-opacity:1;fill-rule:nonzero;stroke:none"
         transform="matrix(1.3333333,0,0,-1.3333333,330.18027,215.11347)" />
    </g>
  </g>
</svg>
