<?xml version="1.0" encoding="UTF-8" standalone="no"?>
<!-- Created with Inkscape (http://www.inkscape.org/) -->

<svg
   width="25.576035mm"
   height="25.576035mm"
   viewBox="0 0 25.576035 25.576035"
   version="1.1"
   id="svg1"
   inkscape:version="1.3 (0e150ed, 2023-07-21)"
   sodipodi:docname="MUTCD_M10-3.svg"
   xmlns:inkscape="http://www.inkscape.org/namespaces/inkscape"
   xmlns:sodipodi="http://sodipodi.sourceforge.net/DTD/sodipodi-0.dtd"
   xmlns="http://www.w3.org/2000/svg"
   xmlns:svg="http://www.w3.org/2000/svg">
  <sodipodi:namedview
     id="namedview1"
     pagecolor="#ffffff"
     bordercolor="#666666"
     borderopacity="1.0"
     inkscape:showpageshadow="2"
     inkscape:pageopacity="0.0"
     inkscape:pagecheckerboard="0"
     inkscape:deskcolor="#d1d1d1"
     inkscape:document-units="mm"
     inkscape:zoom="1"
     inkscape:cx="48"
     inkscape:cy="48"
     inkscape:window-width="1440"
     inkscape:window-height="431"
     inkscape:window-x="0"
     inkscape:window-y="23"
     inkscape:window-maximized="0"
     inkscape:current-layer="layer1" />
  <defs
     id="defs1">
    <clipPath
       clipPathUnits="userSpaceOnUse"
       id="clipPath540">
      <path
         d="M 67.25,38.996 H 571.751 V 743 H 67.25 Z"
         transform="translate(-288.00171,-605.89952)"
         id="path540" />
    </clipPath>
  </defs>
  <g
     inkscape:label="Layer 1"
     inkscape:groupmode="layer"
     id="layer1"
     transform="translate(-91.545832,-135.73125)">
    <g
       id="g538"
       transform="matrix(0.26458333,0,0,0.26458333,-8.3790027,95.611069)">
      <path
         id="path539"
         d="m 0,0 c -2.55,0 -4.625,2.075 -4.625,4.625 v 62.999 c 0,2.55 2.075,4.625 4.625,4.625 h 62.999 c 2.549,0 4.625,-2.075 4.625,-4.625 V 4.625 C 67.624,2.075 65.548,0 62.999,0 Z"
         style="fill:#ffffff;fill-opacity:1;fill-rule:nonzero;stroke:none"
         transform="matrix(1.3333333,0,0,-1.3333333,384.00227,248.134)"
         clip-path="url(#clipPath540)" />
    </g>
    <g
       id="g540"
       transform="matrix(0.26458333,0,0,0.26458333,-8.3790027,95.611069)">
      <path
         id="path541"
         d="m 0,0 h -62.999 c -2.619,0 -4.75,-2.131 -4.75,-4.75 v -62.999 c 0,-2.619 2.131,-4.75 4.75,-4.75 H 0 c 2.619,0 4.75,2.131 4.75,4.75 V -4.75 C 4.75,-2.131 2.619,0 0,0 m 0,-0.25 c 2.485,0 4.5,-2.015 4.5,-4.5 v -62.999 c 0,-2.485 -2.015,-4.5 -4.5,-4.5 h -62.999 c -2.485,0 -4.5,2.015 -4.5,4.5 V -4.75 c 0,2.485 2.015,4.5 4.5,4.5 z"
         style="fill:#000000;fill-opacity:1;fill-rule:nonzero;stroke:none"
         transform="matrix(1.3333333,0,0,-1.3333333,468.00067,151.63533)" />
    </g>
    <g
       id="g541"
       transform="matrix(0.26458333,0,0,0.26458333,-8.3790027,95.611069)">
      <path
         id="path542"
         d="m 0,0 h -62.999 c -1.657,0 -3,1.343 -3,3 v 62.999 c 0,1.657 1.343,3 3,3 H 0 c 1.657,0 3,-1.343 3,-3 V 3 C 3,1.343 1.657,0 0,0"
         style="fill:#7d4802;fill-opacity:1;fill-rule:nonzero;stroke:none"
         transform="matrix(1.3333333,0,0,-1.3333333,468.00067,245.96707)" />
      <path
         id="path543"
         d="m 0,0 1.678,3.438 8.197,-16.717 h -6.39 v -5.357 H 0 Z"
         style="fill:#006f51;fill-opacity:1;fill-rule:nonzero;stroke:none"
         transform="matrix(1.3333333,0,0,-1.3333333,380.00213,177.83013)" />
    </g>
    <g
       id="g543"
       transform="matrix(0.26458333,0,0,0.26458333,-8.3790027,95.611069)">
      <path
         id="path544"
         d="M 0,0 H 6.068 L 1.274,9.775 2.845,12.979 10.233,-2.088 H 0 Z"
         style="fill:#006f51;fill-opacity:1;fill-rule:nonzero;stroke:none"
         transform="matrix(1.3333333,0,0,-1.3333333,387.07827,196.782)" />
    </g>
    <g
       id="g544"
       transform="matrix(0.26458333,0,0,0.26458333,-8.3790027,95.611069)">
      <path
         id="path545"
         d="M 0,0 1.571,3.204 6.299,-6.439 H 8.106 L 0.217,9.65 -2.257,4.603 Z"
         style="fill:#006f51;fill-opacity:1;fill-rule:nonzero;stroke:none"
         transform="matrix(1.3333333,0,0,-1.3333333,388.5864,180.86053)" />
    </g>
    <g
       id="g545"
       transform="matrix(0.26458333,0,0,0.26458333,-8.3790027,95.611069)">
      <path
         id="path546"
         d="m 0,0 c -4.915,6.541 -16.821,11.086 -33.696,11.086 -6.482,0 -13.848,-0.465 -20.975,-1.637 l 0.648,-1.321 C -30.709,8.483 -17,6.043 -20.604,0.58 h -1.177 C -19.9,4.47 -26.838,6.735 -39.68,7.465 -28.578,6.412 -20.015,4.104 -22.941,0.58 h -1.095 c 2.833,4.863 -14.459,7.072 -29.772,7.109 l 0.676,-1.38 h -3.035 l 0.447,-0.912 c 11.876,-2.234 18.086,-13.081 -13.279,-22.594 v -15.061 c 0,-1.656 1.343,-2.999 3,-2.999 h 5.083 c 3.935,1.137 8.816,2.765 10.714,4.066 h 2.388 c -1.778,-1.272 -4.473,-2.773 -7.185,-4.066 h 2.424 c 3.184,1.535 6.447,3.296 7.738,4.52 h 2.388 c -1.355,-1.284 -3.516,-2.96 -5.787,-4.52 h 34.958 c 5.912,6.393 10.661,14.146 13.278,20.594 z"
         style="fill:#006f51;fill-opacity:1;fill-rule:nonzero;stroke:none"
         transform="matrix(1.3333333,0,0,-1.3333333,472.00067,198.9576)" />
    </g>
    <g
       id="g546"
       transform="matrix(0.26458333,0,0,0.26458333,-8.3790027,95.611069)">
      <path
         id="path547"
         d="m 0,0 1.018,0.379 c 0.285,-0.64 0.805,-0.995 1.445,-0.995 0.616,0 1.043,0.426 1.043,0.995 0,0.903 -1.042,1.042 -1.919,1.397 -0.402,0.166 -1.303,0.569 -1.303,1.682 0,1.327 0.9,1.822 2.108,1.822 0.948,0 1.587,-0.545 1.919,-1.373 L 3.363,3.622 C 3.257,3.889 2.871,4.215 2.368,4.215 1.406,4.215 1.324,3.701 1.324,3.532 1.324,2.901 1.868,2.776 2.753,2.498 3.654,2.215 4.595,1.801 4.595,0.354 4.595,-1.104 3.414,-1.705 2.463,-1.705 1.302,-1.705 0.45,-1.018 0,0"
         style="fill:#ffffff;fill-opacity:1;fill-rule:nonzero;stroke:none"
         transform="matrix(1.3333333,0,0,-1.3333333,409.1616,174.85227)" />
      <path
         id="path548"
         d="M 0,0 H -1.071 V 5.802 H -2.616 V 6.75 H 1.57 V 5.802 H 0 Z"
         style="fill:#ffffff;fill-opacity:1;fill-rule:nonzero;stroke:none"
         transform="matrix(1.3333333,0,0,-1.3333333,419.49747,176.9684)" />
      <path
         id="path549"
         d="M 0,0 H 1.358 L 0.69,1.894 Z m 1.738,-1.089 h -2.119 l -0.668,-1.895 h -1.143 l 2.335,6.75 h 1.072 l 2.334,-6.75 H 2.406 Z"
         style="fill:#ffffff;fill-opacity:1;fill-rule:nonzero;stroke:none"
         transform="matrix(1.3333333,0,0,-1.3333333,425.05413,172.9892)" />
      <path
         id="path550"
         d="M 0,0 H -1.071 V 5.802 H -2.616 V 6.75 H 1.57 V 5.802 H 0 Z"
         style="fill:#ffffff;fill-opacity:1;fill-rule:nonzero;stroke:none"
         transform="matrix(1.3333333,0,0,-1.3333333,433.81493,176.9684)" />
      <path
         id="path551"
         d="M 0,0 H 3.974 V -1.066 H 1.065 V -2.724 H 3.028 V -3.813 H 1.065 V -5.661 H 4.187 V -6.75 H 0 Z"
         style="fill:#ffffff;fill-opacity:1;fill-rule:nonzero;stroke:none"
         transform="matrix(1.3333333,0,0,-1.3333333,437.25893,167.96827)" />
    </g>
    <g
       id="g551"
       transform="matrix(0.26458333,0,0,0.26458333,-8.3790027,95.611069)">
      <path
         id="path552"
         d="m 0,0 1.358,0.505 c 0.379,-0.853 1.073,-1.326 1.926,-1.326 0.821,0 1.39,0.568 1.39,1.326 0,1.204 -1.389,1.389 -2.558,1.863 C 1.579,2.59 0.379,3.126 0.379,4.61 c 0,1.77 1.199,2.43 2.81,2.43 1.264,0 2.116,-0.727 2.559,-1.831 L 4.484,4.83 C 4.342,5.185 3.828,5.619 3.158,5.619 1.874,5.619 1.765,4.934 1.765,4.709 1.765,3.868 2.491,3.701 3.671,3.331 4.872,2.953 6.127,2.401 6.127,0.471 6.127,-1.471 4.552,-2.274 3.284,-2.274 1.736,-2.274 0.6,-1.358 0,0"
         style="fill:#ffffff;fill-opacity:1;fill-rule:nonzero;stroke:none"
         transform="matrix(1.3333333,0,0,-1.3333333,413.19027,213.1684)" />
      <path
         id="path553"
         d="M 0,0 C 0,1.266 0.254,4.641 3.315,4.641 4.62,4.641 5.509,4.11 6.127,2.809 L 4.8,2.241 C 4.34,2.902 4.111,3.188 3.316,3.188 c -1.883,0 -1.863,-2.624 -1.863,-3.189 0,-0.558 -0.034,-3.222 1.926,-3.222 0.688,0 1.083,0.415 1.39,1.043 L 6.127,-2.685 C 5.62,-3.937 4.77,-4.673 3.41,-4.673 0.171,-4.673 0,-1.096 0,0"
         style="fill:#ffffff;fill-opacity:1;fill-rule:nonzero;stroke:none"
         transform="matrix(1.3333333,0,0,-1.3333333,423.15973,209.96893)" />
      <path
         id="path554"
         d="M 0,0 H 5.299 V -1.421 H 1.42 v -2.21 H 4.038 V -5.084 H 1.42 V -7.548 H 5.582 V -9 H 0 Z"
         style="fill:#ffffff;fill-opacity:1;fill-rule:nonzero;stroke:none"
         transform="matrix(1.3333333,0,0,-1.3333333,433.96933,203.99)" />
      <path
         id="path555"
         d="m 0,0 v -6.094 h -1.42 v 9 H 0 l 3.285,-5.748 v 5.748 h 1.422 v -9 H 3.444 Z"
         style="fill:#ffffff;fill-opacity:1;fill-rule:nonzero;stroke:none"
         transform="matrix(1.3333333,0,0,-1.3333333,445.3456,207.86453)" />
      <path
         id="path556"
         d="m 340.876,639.008 h 1.44 v -9 h -1.44 z"
         style="fill:#ffffff;fill-opacity:1;fill-rule:nonzero;stroke:none"
         transform="matrix(1.3333333,0,0,-1.3333333,0,1056)" />
      <path
         id="path557"
         d="M 0,0 C 0,1.266 0.254,4.641 3.315,4.641 4.62,4.641 5.509,4.11 6.127,2.809 L 4.8,2.241 C 4.34,2.902 4.111,3.188 3.316,3.188 c -1.883,0 -1.863,-2.624 -1.863,-3.189 0,-0.558 -0.034,-3.222 1.926,-3.222 0.688,0 1.083,0.415 1.39,1.043 L 6.127,-2.685 C 5.62,-3.937 4.77,-4.673 3.41,-4.673 0.171,-4.673 0,-1.096 0,0"
         style="fill:#ffffff;fill-opacity:1;fill-rule:nonzero;stroke:none"
         transform="matrix(1.3333333,0,0,-1.3333333,459.06213,209.96893)" />
      <path
         id="path558"
         d="m 0,0 v -2.464 h 2.148 c 0.731,0 1.105,0.348 1.105,1.043 C 3.253,-0.726 2.772,0 2.036,0 Z M 2.086,3.663 H 0 V 1.452 h 1.809 c 0.808,0 1.255,0.705 1.255,1.295 0,0.6 -0.33,0.916 -0.978,0.916 M -1.42,-3.916 v 9 H 1.991 C 3.412,5.084 4.485,4.105 4.485,2.81 4.485,1.926 4.076,1.262 3.223,0.789 4.17,0.346 4.707,-0.42 4.707,-1.389 c 0,-0.642 -0.361,-2.527 -2.716,-2.527 z"
         style="fill:#ffffff;fill-opacity:1;fill-rule:nonzero;stroke:none"
         transform="matrix(1.3333333,0,0,-1.3333333,405.4184,230.76827)" />
      <path
         id="path559"
         d="M 0,0 H -1.429 V 3.916 L -4.602,9 h 1.714 L -0.73,5.526 1.46,9 H 3.142 L 0,3.916 Z"
         style="fill:#ffffff;fill-opacity:1;fill-rule:nonzero;stroke:none"
         transform="matrix(1.3333333,0,0,-1.3333333,418.7912,235.9896)" />
      <path
         id="path560"
         d="M 0,0 -1.426,5.779 -2.82,0 h -1.268 l -1.33,9 h 1.457 L -3.264,4.263 -2.124,9 h 1.395 L 0.442,4.263 1.14,9 H 2.596 L 1.266,0 Z"
         style="fill:#ffffff;fill-opacity:1;fill-rule:nonzero;stroke:none"
         transform="matrix(1.3333333,0,0,-1.3333333,430.92507,235.9896)" />
      <path
         id="path561"
         d="M 0,0 H 1.81 L 0.92,2.526 Z m 2.318,-1.452 h -2.827 l -0.889,-2.527 h -1.525 l 3.113,9 h 1.43 l 3.112,-9 H 3.207 Z"
         style="fill:#ffffff;fill-opacity:1;fill-rule:nonzero;stroke:none"
         transform="matrix(1.3333333,0,0,-1.3333333,439.00467,230.68427)" />
      <path
         id="path562"
         d="M 0,0 H -1.429 V 3.916 L -4.602,9 h 1.714 L -0.73,5.526 1.46,9 H 3.142 L 0,3.916 Z"
         style="fill:#ffffff;fill-opacity:1;fill-rule:nonzero;stroke:none"
         transform="matrix(1.3333333,0,0,-1.3333333,452.1708,235.9896)" />
    </g>
  </g>
</svg>
