<?xml version="1.0" encoding="UTF-8"?>
<svg id="M1-10" xmlns="http://www.w3.org/2000/svg" width="36in" height="36in" viewBox="0 0 2592 2592">
  <defs>
    <style>
      .a {
        fill: #fff;
      }
    </style>
  </defs>
  <g>
    <rect class="a" width="2592" height="2592" rx="162" ry="162"/>
    <path d="M2430,.56c43.12,0,83.66,16.79,114.15,47.28,30.49,30.49,47.28,71.03,47.28,114.15v2268c0,43.12-16.79,83.66-47.28,114.15s-71.03,47.28-114.15,47.28H162c-43.12,0-83.66-16.79-114.15-47.28-30.49-30.49-47.28-71.03-47.28-114.15V162c0-43.12,16.79-83.66,47.28-114.15C78.34,17.35,118.88.56,162,.56h2268ZM162,0C72.53,0,0,72.53,0,162v2268c0,89.47,72.53,162,162,162h2268c89.47,0,162-72.53,162-162V162c0-89.47-72.53-162-162-162H162Z"/>
  </g>
  <rect fill="#003f87" x="45" y="45" width="2502" height="2502" rx="117" ry="117"/>
  <g id="five_stars_symbol" class="a">
    <polygon points="942.78 377.82 986.07 498.98 1115.93 502.26 1012.82 580.43 1049.79 703.63 942.78 630.77 835.77 703.63 872.74 580.43 769.63 502.26 899.49 498.98 942.78 377.82"/>
    <polygon points="1296.87 126 1340.16 247.16 1470.02 250.45 1366.91 328.62 1403.89 451.81 1296.87 378.96 1189.86 451.81 1226.83 328.62 1123.72 250.45 1253.58 247.16 1296.87 126"/>
    <polygon points="1649.22 377.82 1692.51 498.98 1822.37 502.26 1719.26 580.43 1756.23 703.63 1649.22 630.77 1542.21 703.63 1579.18 580.43 1476.07 502.26 1605.93 498.98 1649.22 377.82"/>
    <polygon points="1076.29 790.19 1119.58 911.35 1249.44 914.64 1146.33 992.8 1183.31 1116 1076.29 1043.14 969.28 1116 1006.25 992.8 903.14 914.64 1033.01 911.35 1076.29 790.19"/>
    <polygon points="1515.7 790.19 1558.99 911.35 1688.86 914.64 1585.75 992.8 1622.72 1116 1515.7 1043.14 1408.69 1116 1445.67 992.8 1342.56 914.64 1472.42 911.35 1515.7 790.19"/>
  </g>
  <g id="EISENHOWER" class="a">
    <path d="M321.84,1224h135.62v40.43h-94.13v72.76h59.69v39.42h-59.69v95h105.28v40.39h-146.77v-288Z"/>
    <path d="M516.9,1224h40.27v288h-40.27v-288Z"/>
    <path d="M686.54,1476.68c22.29,0,40.52-20.23,40.52-43.49-.04-61.34-107.4-61.2-107.4-139.5,0-41.44,32.43-74.74,73.96-74.74s71.98,31.28,72.99,74.77h-39.59c-1.01-20.2-15.21-33.34-33.44-33.34-19.27,0-34.44,14.11-34.44,33.3,0,17.24,10.82,24.12,24.23,32.54,38.9,23.51,83.2,51.88,83.2,106.99,0,46.62-35.49,83.88-80.07,83.88-50.66,0-81.04-42.91-81.04-90h40.59c0,24.52,12.12,49.57,40.48,49.57Z"/>
    <path d="M814.9,1224h135.62v40.43h-94.13v72.76h59.69v39.42h-59.69v95h105.28v40.39h-146.77v-288Z"/>
    <path d="M1051.24,1319v193h-41.28v-288h41.28l78.56,172.8v-172.8h41.31v288h-31.21l-88.67-193Z"/>
    <path d="M1353.66,1381.64h-78.6v130.36h-41.28v-288h41.28v117.22h78.56v-117.22h41.31v288h-41.28v-130.36Z"/>
    <path d="M1451.86,1367.39c0-150.8,69.86-148.39,85.36-148.39s84.42-2.3,84.42,148.5-68.93,149.51-84.42,149.51-85.36,2.38-85.36-149.62ZM1536.75,1259.39c-8.2,0-45.27-1.69-45.27,108.22s37.07,109.01,45.27,109.01,45.23,1.69,45.23-109.01-37.03-108.22-45.23-108.22Z"/>
    <path d="M1792.24,1512l-27.33-150.55-27.36,150.55h-36.42l-45.59-288h40.52l24.31,153.61,28.33-153.61h32.43l27.33,153.61,25.31-153.61h40.52l-46.6,288h-35.45Z"/>
    <path d="M1913.95,1224h135.62v40.43h-94.13v72.76h59.68v39.42h-59.68v95h105.28v40.39h-146.77v-288Z"/>
    <path d="M2189.59,1376.6h-39.3v135.4h-41.28v-288h85.61c45.12,0,75.54,30.31,75.54,76.79,0,34.34-14.13,59.62-41.31,69.73l41.28,141.48h-42.25l-38.29-135.4ZM2150.29,1264.43v72.76h42.28c24.23,0,37.29-13.14,37.29-36.4s-15.1-36.36-37.25-36.36h-42.32Z"/>
  </g>
  <g id="INTERSTATE" class="a">
    <path d="M414.14,1674h40.27v288h-40.27v-288Z"/>
    <path d="M558.3,1769v193h-41.28v-288h41.28l78.56,172.8v-172.8h41.31v288h-31.21l-88.66-193Z"/>
    <path d="M811.92,1962h-41.49v-249.59h-52.64v-38.41h146.77v38.41h-52.64v249.59Z"/>
    <path d="M904.17,1674h135.62v40.43h-94.13v72.76h59.68v39.42h-59.68v95h105.27v40.39h-146.77v-288Z"/>
    <path d="M1179.76,1826.6h-39.3v135.4h-41.28v-288h85.61c45.12,0,75.54,30.31,75.54,76.79,0,34.34-14.13,59.62-41.31,69.73l41.28,141.48h-42.25l-38.29-135.4ZM1140.46,1714.43v72.76h42.28c24.23,0,37.28-13.14,37.28-36.4s-15.1-36.36-37.25-36.36h-42.32Z"/>
    <path d="M1375.28,1926.68c22.29,0,40.52-20.23,40.52-43.49-.04-61.34-107.4-61.2-107.4-139.5,0-41.44,32.43-74.74,73.96-74.74s71.98,31.28,72.99,74.77h-39.59c-1.01-20.2-15.21-33.34-33.44-33.34-19.27,0-34.44,14.11-34.44,33.3,0,17.24,10.82,24.12,24.23,32.54,38.9,23.51,83.2,51.88,83.2,106.99,0,46.62-35.49,83.88-80.07,83.88-50.66,0-81.04-42.91-81.04-90h40.59c0,24.52,12.12,49.57,40.48,49.57Z"/>
    <path d="M1574.71,1962h-41.49v-249.59h-52.64v-38.41h146.77v38.41h-52.64v249.59Z"/>
    <path d="M1766.37,1883.2h-61.7l-19.24,78.8h-41.49l71.84-288h40.52l71.8,288h-41.49l-20.24-78.8ZM1714.78,1842.77h41.49l-21.25-82.87-20.24,82.87Z"/>
    <path d="M1938.84,1962h-41.49v-249.59h-52.64v-38.41h146.77v38.41h-52.64v249.59Z"/>
    <path d="M2031.09,1674h135.62v40.43h-94.13v72.76h59.68v39.42h-59.68v95h105.27v40.39h-146.77v-288Z"/>
  </g>
  <g id="SYSTEM" class="a">
    <path d="M801.08,2376.68c22.29,0,40.52-20.23,40.52-43.49-.04-61.34-107.4-61.2-107.4-139.5,0-41.44,32.43-74.74,73.96-74.74s71.98,31.28,72.99,74.77h-39.59c-1.01-20.2-15.21-33.34-33.44-33.34-19.27,0-34.44,14.11-34.44,33.3,0,17.24,10.82,24.12,24.23,32.54,38.9,23.51,83.2,51.88,83.2,106.99,0,46.62-35.49,83.88-80.07,83.88-50.66,0-81.04-42.91-81.04-90h40.59c0,24.52,12.12,49.57,40.48,49.57Z"/>
    <path d="M1018.4,2412h-41.49v-130.36l-70.83-157.64h43.51l48.57,104.08,47.57-104.08h44.51l-71.84,157.64v130.36Z"/>
    <path d="M1196.24,2376.68c22.29,0,40.52-20.23,40.52-43.49-.04-61.34-107.4-61.2-107.4-139.5,0-41.44,32.43-74.74,73.96-74.74s71.98,31.28,72.99,74.77h-39.59c-1.01-20.2-15.21-33.34-33.44-33.34-19.27,0-34.44,14.11-34.44,33.3,0,17.24,10.82,24.12,24.23,32.54,38.9,23.51,83.2,51.88,83.2,106.99,0,46.62-35.49,83.88-80.07,83.88-50.66,0-81.04-42.91-81.04-90h40.59c0,24.52,12.12,49.57,40.48,49.57Z"/>
    <path d="M1395.37,2412h-41.49v-249.59h-52.64v-38.41h146.77v38.41h-52.64v249.59Z"/>
    <path d="M1487.31,2124h135.62v40.43h-94.13v72.76h59.69v39.42h-59.69v95h105.28v40.39h-146.77v-288Z"/>
    <path d="M1830.58,2250.32l-53.57,161.68-53.57-161.68v161.68h-41.42v-288h41.42l53.57,161.68,53.57-161.68h41.42v288h-41.42v-161.68Z"/>
  </g>
</svg>