<?xml version="1.0" encoding="UTF-8"?>
<svg id="M1-10a" xmlns="http://www.w3.org/2000/svg" width="36in" height="36in" viewBox="0 0 2592 2592">
  <defs>
    <style>
      .a {
        fill: #fff;
      }
    </style>
  </defs>
  <g>
    <rect class="a" width="2592" height="2592" rx="162" ry="162"/>
    <path d="M2430,.56c43.12,0,83.66,16.79,114.15,47.28,30.49,30.49,47.28,71.03,47.28,114.15v2268c0,43.12-16.79,83.66-47.28,114.15s-71.03,47.28-114.15,47.28H162c-43.12,0-83.66-16.79-114.15-47.28-30.49-30.49-47.28-71.03-47.28-114.15V162c0-43.12,16.79-83.66,47.28-114.15C78.34,17.35,118.88.56,162,.56h2268ZM162,0C72.53,0,0,72.53,0,162v2268c0,89.47,72.53,162,162,162h2268c89.47,0,162-72.53,162-162V162c0-89.47-72.53-162-162-162H162Z"/>
  </g>
  <rect fill="#003f87" x="45" y="45" width="2502" height="2502" rx="117" ry="117"/>
  <g id="five_stars_symbol" class="a">
    <polygon points="942.78 467.82 986.07 588.98 1115.93 592.26 1012.82 670.43 1049.79 793.63 942.78 720.77 835.77 793.63 872.74 670.43 769.63 592.26 899.49 588.98 942.78 467.82"/>
    <polygon points="1296.87 216 1340.16 337.16 1470.02 340.45 1366.91 418.62 1403.89 541.81 1296.87 468.96 1189.86 541.81 1226.83 418.62 1123.72 340.45 1253.58 337.16 1296.87 216"/>
    <polygon points="1649.22 467.82 1692.51 588.98 1822.37 592.26 1719.26 670.43 1756.23 793.63 1649.22 720.77 1542.21 793.63 1579.18 670.43 1476.07 592.26 1605.93 588.98 1649.22 467.82"/>
    <polygon points="1076.29 880.19 1119.58 1001.35 1249.44 1004.64 1146.33 1082.8 1183.31 1206 1076.29 1133.14 969.28 1206 1006.25 1082.8 903.14 1004.64 1033.01 1001.35 1076.29 880.19"/>
    <polygon points="1515.7 880.19 1558.99 1001.35 1688.86 1004.64 1585.75 1082.8 1622.72 1206 1515.7 1133.14 1408.69 1206 1445.67 1082.8 1342.56 1004.64 1472.42 1001.35 1515.7 880.19"/>
  </g>
  <g id="EISENHOWER_INTERSTATE_SYSTEM_text" class="a">
    <path id="EISENHOWER" d="M2241.91,1464.33v-65.19h31.14c13.3,0,19.78,1.3,24.97,5.19,7.13,4.54,11.03,14.59,11.03,27.24,0,23.03-10.7,32.76-35.35,32.76M2168.28,1374.49v24.65h10.38c16.22,0,17.84,1.95,17.84,19.78v127.46c0,17.84-1.62,19.78-17.84,19.78h-10.38v24.7h104.11v-24.7h-12.65c-16.22,0-17.84-1.95-17.84-19.78v-57.4h12.65c34.06,0,43.14,8.76,44.11,43.13l.97,25.3c.65,25.3,14.27,39.95,36.97,39.95,21.08,0,33.08-9.46,37.95-29.89,1.95-8.76,2.27-14.92,2.27-38.27h-18.49c-.32,32.11-1.3,36.65-9.08,36.65-5.84,0-7.78-4.21-8.76-18.81l-.97-19.13c-.65-29.84-10.05-41.19-38.92-46.38,19.13-3.57,27.89-6.48,36.65-13.3,12.65-9.73,19.13-23.68,19.13-41.51,0-16.54-6.16-30.49-17.19-38.92-11.68-9.4-28.54-13.3-54.81-13.3h-116.11ZM2140.71,1374.49h-191.35v24.65h10.38c16.22,0,17.84,1.95,17.84,19.78v127.46c0,17.84-1.62,19.78-17.84,19.78h-10.38v24.7h191.35v-91.84h-22.05c-4.54,56.11-12.33,67.14-46.71,67.14h-48.97v-75.89h10.7c24,0,26.92,4.22,29.51,44.11h21.41v-108h-21.41c-1.95,22.7-2.27,24.33-4.54,29.19-3.24,7.13-10.38,10.05-25.3,10.05h-10.38v-66.49h44.76c24.98,0,35.68,3.89,42.16,14.92,5.51,10.05,7.78,23.03,8.76,46.38h22.05v-85.95ZM1729.47,1590.87h36.65l35.35-115.84,30.49,115.84h38.27l44.43-170c3.9-15.24,9.73-21.73,19.46-21.73h6.49v-24.65h-79.78v24.65h9.73c11.03,0,16.22,3.25,16.22,9.41,0,3.89-.97,10.05-2.6,16.54l-29.19,109.62-32.76-118.06c-.97-3.89-1.62-7.13-1.62-9.08,0-6.16,3.89-8.43,13.62-8.43h10.7v-24.65h-85.3v24.65h7.13c12.65,0,18.16,6.81,22.06,27.24l-34.7,111.57-30.16-121.95c-.65-2.92-1.3-6.16-1.3-7.78,0-5.84,4.22-9.08,12.33-9.08h9.08v-24.65h-83.03v24.65h4.86c12.33,0,16.87,5.52,22.7,28.87l40.86,162.87ZM1548.81,1393.95c35.68,0,56.43,32.76,56.43,88.87s-20.76,88.54-56.43,88.54-56.43-32.43-56.43-89.84,21.08-87.57,56.43-87.57ZM1548.81,1368.32c-63.24,0-107.03,46.06-107.03,112.54,0,70.38,42.16,116.16,107.35,116.16s106.7-46.11,106.7-114.54-42.81-114.16-107.03-114.16ZM1271.19,1466.92v-48c0-17.84,1.62-19.78,17.84-19.78h12.65v-24.65h-104.11v24.65h10.38c16.22,0,17.84,1.95,17.84,19.78v127.46c0,17.84-1.62,19.78-17.84,19.78h-10.38v24.7h104.11v-24.7h-12.65c-16.22,0-17.84-1.95-17.84-19.78v-53.51h79.46v53.51c0,17.84-1.62,19.78-17.84,19.78h-12.65v24.7h104.11v-24.7h-10.38c-16.22,0-17.84-1.95-17.84-19.78v-127.46c0-17.84,1.62-19.78,17.84-19.78h10.38v-24.65h-104.11v24.65h12.65c16.22,0,17.84,1.95,17.84,19.78v48h-79.46ZM1158.65,1590.87v-171.95c0-17.84,1.62-19.78,18.16-19.78h8.76v-24.65h-92.11v24.65h12.97c16.54,0,18.16,1.95,18.16,19.78v112.54l-83.68-156.98h-83.68v24.65h11.68c16.54,0,18.16,1.95,18.16,19.78v127.46c0,17.84-1.62,19.78-18.16,19.78h-12.98v24.7h96v-24.7h-12.65c-16.54,0-18.16-1.95-18.16-19.78v-132l93.73,176.49h43.79ZM932.59,1374.49h-191.35v24.65h10.38c16.22,0,17.84,1.95,17.84,19.78v127.46c0,17.84-1.62,19.78-17.84,19.78h-10.38v24.7h191.35v-91.84h-22.05c-4.54,56.11-12.33,67.14-46.7,67.14h-48.98v-75.89h10.7c24,0,26.92,4.22,29.51,44.11h21.41v-108h-21.41c-1.95,22.7-2.27,24.33-4.54,29.19-3.24,7.13-10.38,10.05-25.3,10.05h-10.38v-66.49h44.76c24.97,0,35.67,3.89,42.16,14.92,5.51,10.05,7.78,23.03,8.76,46.38h22.05v-85.95ZM559.61,1590.87h20.11l6.49-20.16c25.62,19.46,41.84,26.33,64.54,26.33,42.49,0,72.97-28.6,72.97-68.81,0-34.71-20.76-57.41-62.27-67.79l-39.25-10.05c-16.21-4.22-24.65-13.62-24.65-27.89,0-17.84,13.3-28.22,35.03-28.22,13.95,0,28.54,5.84,37.62,14.92,10.38,10.38,17.19,25.3,21.08,47.35h22.06v-82.05h-17.19l-10.38,15.89c-23.03-17.84-35.03-22.38-57.08-22.38-41.51,0-69.73,26.92-69.73,66.81,0,34.38,18.49,53.19,63.89,64.87l31.46,8.11c19.46,4.86,29.19,15.57,29.19,31.46,0,18.48-13.3,28.54-37.29,28.54-17.84,0-30.16-4.87-41.84-15.89-12-11.68-17.51-23.35-22.38-50.27h-22.38v89.24ZM463.93,1546.38c0,17.84-1.62,19.78-17.84,19.78h-11.35v24.7h104.43v-24.7h-11.35c-16.22,0-17.84-1.95-17.84-19.78v-127.46c0-17.84,1.62-19.78,17.84-19.78h11.35v-24.65h-104.43v24.65h11.35c16.22,0,17.84,1.95,17.84,19.78v127.46ZM406.53,1374.49h-191.36v24.65h10.38c16.22,0,17.84,1.95,17.84,19.78v127.46c0,17.84-1.62,19.78-17.84,19.78h-10.38v24.7h191.36v-91.84h-22.06c-4.54,56.11-12.33,67.14-46.7,67.14h-48.97v-75.89h10.7c24,0,26.92,4.22,29.51,44.11h21.41v-108h-21.41c-1.95,22.7-2.27,24.33-4.54,29.19-3.25,7.13-10.38,10.05-25.3,10.05h-10.38v-66.49h44.76c24.97,0,35.68,3.89,42.16,14.92,5.52,10.05,7.79,23.03,8.76,46.38h22.06v-85.95Z"/>
    <path id="INTERSTATE" d="M2274.82,1763.97h-191.36v24.65h10.38c16.22,0,17.84,1.95,17.84,19.78v127.46c0,17.84-1.62,19.79-17.84,19.79h-10.38v24.7h191.36v-91.84h-22.06c-4.54,56.11-12.33,67.14-46.7,67.14h-48.97v-75.9h10.7c24,0,26.92,4.22,29.51,44.11h21.41v-108h-21.41c-1.95,22.7-2.27,24.32-4.54,29.19-3.25,7.13-10.38,10.05-25.3,10.05h-10.38v-66.49h44.76c24.97,0,35.68,3.89,42.16,14.92,5.52,10.05,7.79,23.03,8.76,46.38h22.06M1955.04,1935.86c0,17.84-1.62,19.79-17.84,19.79h-15.89v24.7h112.87v-24.7h-15.89c-16.22,0-17.84-1.95-17.84-19.79v-147.89c33.4-.65,45.73,16.22,46.7,65.51h22.06v-89.51h-182.92v89.51h22.06c.97-49.3,13.3-66.49,46.7-65.51v147.89ZM1802.93,1886.24h-48.33l23.03-75.25,25.3,75.25ZM1762.38,1763.97l-54.16,170.92c-5.19,16.54-10.7,20.76-25.95,20.76h-6.22v24.7h90.54v-24.7h-15.24c-12.65,0-15.57-1.3-15.57-7.14,0-1.95.97-5.19,2.27-10.05l8.76-26.92h63.89l8.43,25.3c1.62,4.87,2.6,9.08,2.6,11.03,0,6.16-3.57,7.79-16.22,7.79h-15.89v24.7h100.54v-24.7h-5.51c-15.24,0-16.86-1.62-23.68-20.76l-57.73-170.92h-40.86ZM1567.46,1935.86c0,17.84-1.62,19.79-17.84,19.79h-15.89v24.7h112.86v-24.7h-15.89c-16.22,0-17.84-1.95-17.84-19.79v-147.89c33.41-.65,45.73,16.22,46.71,65.51h22.05v-89.51h-182.92v89.51h22.05c.97-49.3,13.3-66.49,46.71-65.51v147.89ZM1320.65,1980.35h20.11l6.49-20.16c25.62,19.46,41.84,26.32,64.54,26.32,42.49,0,72.97-28.6,72.97-68.81,0-34.71-20.76-57.41-62.27-67.79l-39.24-10.05c-16.22-4.22-24.65-13.62-24.65-27.89,0-17.84,13.3-28.22,35.03-28.22,13.95,0,28.54,5.84,37.62,14.92,10.38,10.38,17.19,25.3,21.08,47.35h22.06v-82.05h-17.19l-10.38,15.89c-23.03-17.84-35.03-22.38-57.08-22.38-41.51,0-69.73,26.92-69.73,66.81,0,34.38,18.49,53.19,63.89,64.87l31.46,8.11c19.46,4.87,29.19,15.57,29.19,31.46,0,18.49-13.3,28.54-37.3,28.54-17.84,0-30.16-4.86-41.84-15.89-12-11.67-17.51-23.35-22.38-50.27h-22.38v89.25ZM1164.32,1853.81v-65.19h31.14c13.3,0,19.78,1.3,24.97,5.19,7.13,4.54,11.03,14.6,11.03,27.24,0,23.03-10.7,32.76-35.35,32.76h-31.78ZM1090.7,1763.97v24.65h10.38c16.21,0,17.84,1.95,17.84,19.78v127.46c0,17.84-1.62,19.79-17.84,19.79h-10.38v24.7h104.11v-24.7h-12.65c-16.21,0-17.84-1.95-17.84-19.79v-57.4h12.65c34.05,0,43.14,8.76,44.11,43.14l.97,25.3c.65,25.3,14.27,39.95,36.97,39.95,21.08,0,33.08-9.46,37.95-29.89,1.95-8.76,2.27-14.92,2.27-38.27h-18.48c-.32,32.11-1.3,36.65-9.08,36.65-5.84,0-7.78-4.21-8.76-18.81l-.97-19.13c-.65-29.84-10.06-41.19-38.92-46.38,19.13-3.57,27.89-6.48,36.65-13.3,12.65-9.73,19.13-23.67,19.13-41.51,0-16.54-6.16-30.49-17.19-38.92-11.68-9.4-28.54-13.3-54.81-13.3h-116.11ZM1063.13,1763.97h-191.36v24.65h10.38c16.22,0,17.84,1.95,17.84,19.78v127.46c0,17.84-1.62,19.79-17.84,19.79h-10.38v24.7h191.36v-91.84h-22.06c-4.54,56.11-12.33,67.14-46.7,67.14h-48.97v-75.9h10.7c24,0,26.92,4.22,29.52,44.11h21.41v-108h-21.41c-1.95,22.7-2.27,24.32-4.54,29.19-3.25,7.13-10.38,10.05-25.3,10.05h-10.38v-66.49h44.76c24.97,0,35.68,3.89,42.16,14.92,5.51,10.05,7.78,23.03,8.76,46.38h22.06v-85.95ZM743.34,1935.86c0,17.84-1.62,19.79-17.84,19.79h-15.89v24.7h112.87v-24.7h-15.89c-16.22,0-17.84-1.95-17.84-19.79v-147.89c33.41-.65,45.73,16.22,46.7,65.51h22.06v-89.51h-182.92v89.51h22.06c.97-49.3,13.3-66.49,46.7-65.51v147.89ZM635.34,1980.35v-171.95c0-17.84,1.62-19.78,18.16-19.78h8.76v-24.65h-92.11v24.65h12.98c16.54,0,18.16,1.95,18.16,19.78v112.54l-83.68-156.98h-83.68v24.65h11.68c16.54,0,18.16,1.95,18.16,19.78v127.46c0,17.84-1.62,19.79-18.16,19.79h-12.98v24.7h96v-24.7h-12.65c-16.54,0-18.16-1.95-18.16-19.79v-132l93.73,176.49h43.79ZM346.37,1935.86c0,17.84-1.62,19.79-17.84,19.79h-11.35v24.7h104.43v-24.7h-11.35c-16.22,0-17.84-1.95-17.84-19.79v-127.46c0-17.84,1.62-19.78,17.84-19.78h11.35v-24.65h-104.43v24.65h11.35c16.21,0,17.84,1.95,17.84,19.78v127.46Z"/>
    <path id="SYSTEM" d="M1858.71,2185.24v140.11c0,17.84-1.62,19.78-17.84,19.78h-12.33v24.7h99.89v-24.7h-10.38c-16.22,0-17.84-1.95-17.84-19.78v-127.46c0-17.84,1.62-19.78,17.84-19.78h10.38v-24.65h-87.57l-47.03,140.44-43.14-140.44h-90.81v24.65h9.73c16.54,0,18.16,1.95,18.16,19.78v127.46c0,17.84-1.62,19.78-18.16,19.78h-9.73v24.7h90.81v-24.7h-10.7c-16.54,0-18.16-1.95-18.16-19.78v-143.35l57.41,187.84h19.13M1632.33,2153.46h-191.36v24.65h10.38c16.21,0,17.84,1.95,17.84,19.78v127.46c0,17.84-1.62,19.78-17.84,19.78h-10.38v24.7h191.36v-91.84h-22.06c-4.54,56.11-12.33,67.13-46.71,67.13h-48.97v-75.89h10.7c24,0,26.92,4.22,29.51,44.11h21.41v-108h-21.41c-1.95,22.7-2.27,24.33-4.54,29.19-3.24,7.13-10.38,10.05-25.3,10.05h-10.38v-66.49h44.76c24.97,0,35.67,3.89,42.16,14.92,5.51,10.05,7.78,23.03,8.76,46.38h22.06v-85.95ZM1312.54,2325.35c0,17.84-1.62,19.78-17.84,19.78h-15.89v24.7h112.86v-24.7h-15.89c-16.22,0-17.84-1.95-17.84-19.78v-147.9c33.4-.65,45.73,16.22,46.7,65.52h22.05v-89.52h-182.92v89.52h22.05c.97-49.3,13.3-66.49,46.7-65.52v147.9ZM1065.73,2369.84h20.11l6.49-20.16c25.62,19.46,41.84,26.33,64.54,26.33,42.49,0,72.97-28.6,72.97-68.81,0-34.7-20.76-57.41-62.27-67.78l-39.25-10.06c-16.21-4.21-24.65-13.62-24.65-27.89,0-17.84,13.3-28.22,35.03-28.22,13.95,0,28.54,5.84,37.62,14.92,10.38,10.38,17.19,25.3,21.08,47.35h22.06v-82.05h-17.19l-10.38,15.89c-23.03-17.84-35.03-22.38-57.08-22.38-41.51,0-69.73,26.92-69.73,66.81,0,34.38,18.48,53.19,63.89,64.87l31.46,8.11c19.46,4.87,29.19,15.57,29.19,31.46,0,18.49-13.3,28.54-37.3,28.54-17.84,0-30.16-4.87-41.84-15.89-12-11.68-17.51-23.35-22.38-50.27h-22.38v89.24ZM922.38,2279.3v46.06c0,18.16-1.62,19.78-17.84,19.78h-16.22v24.7h113.19v-24.7h-15.89c-16.22,0-17.84-1.95-17.84-19.78v-46.06l55.46-86.92c7.14-10.7,12.65-14.27,22.7-14.27h6.49v-24.65h-90.16v24.65h18.81c6.81,0,9.4,1.62,9.4,6.16,0,2.6-.97,6.16-3.24,9.41l-36,52.54-34.38-50.92c-2.27-3.24-3.57-7.46-3.57-10.38,0-5.19,3.25-6.81,12.33-6.81h16.22v-24.65h-102.81v24.65h9.4c10.38,0,19.14,6.81,28.22,22.05l45.73,79.14ZM664.21,2369.84h20.11l6.49-20.16c25.62,19.46,41.84,26.33,64.54,26.33,42.49,0,72.97-28.6,72.97-68.81,0-34.7-20.76-57.41-62.27-67.78l-39.24-10.06c-16.21-4.21-24.65-13.62-24.65-27.89,0-17.84,13.3-28.22,35.03-28.22,13.95,0,28.54,5.84,37.62,14.92,10.38,10.38,17.19,25.3,21.08,47.35h22.06v-82.05h-17.19l-10.38,15.89c-23.03-17.84-35.03-22.38-57.08-22.38-41.51,0-69.73,26.92-69.73,66.81,0,34.38,18.48,53.19,63.89,64.87l31.46,8.11c19.46,4.87,29.19,15.57,29.19,31.46,0,18.49-13.3,28.54-37.3,28.54-17.84,0-30.16-4.87-41.84-15.89-12-11.68-17.52-23.35-22.38-50.27h-22.38v89.24Z"/>
  </g>
</svg>