<?xml version="1.0" encoding="UTF-8" standalone="no"?>
<!-- Created with Inkscape (http://www.inkscape.org/) -->

<svg
   width="25.576387mm"
   height="25.576387mm"
   viewBox="0 0 25.576387 25.576387"
   version="1.1"
   id="svg1"
   inkscape:version="1.3 (0e150ed, 2023-07-21)"
   sodipodi:docname="MUTCD_M11-1.svg"
   xmlns:inkscape="http://www.inkscape.org/namespaces/inkscape"
   xmlns:sodipodi="http://sodipodi.sourceforge.net/DTD/sodipodi-0.dtd"
   xmlns="http://www.w3.org/2000/svg"
   xmlns:svg="http://www.w3.org/2000/svg">
  <sodipodi:namedview
     id="namedview1"
     pagecolor="#ffffff"
     bordercolor="#666666"
     borderopacity="1.0"
     inkscape:showpageshadow="2"
     inkscape:pageopacity="0.0"
     inkscape:pagecheckerboard="0"
     inkscape:deskcolor="#d1d1d1"
     inkscape:document-units="mm"
     inkscape:zoom="1.4142136"
     inkscape:cx="47.376154"
     inkscape:cy="47.376154"
     inkscape:window-width="1440"
     inkscape:window-height="431"
     inkscape:window-x="0"
     inkscape:window-y="23"
     inkscape:window-maximized="0"
     inkscape:current-layer="layer1" />
  <defs
     id="defs1" />
  <g
     inkscape:label="Layer 1"
     inkscape:groupmode="layer"
     id="layer1"
     transform="translate(-91.545832,-135.73125)">
    <g
       id="g579"
       transform="matrix(0.26458333,0,0,0.26458333,59.354648,63.747086)">
      <path
         id="path580"
         d="m 0,0 c -2.55,0 -4.625,2.075 -4.625,4.625 v 63 c 0,2.55 2.075,4.625 4.625,4.625 h 63 c 2.55,0 4.625,-2.075 4.625,-4.625 v -63 C 67.625,2.075 65.55,0 63,0 Z"
         style="fill:#ffffff;fill-opacity:1;fill-rule:nonzero;stroke:none"
         transform="matrix(1.3333333,0,0,-1.3333333,128.00093,368.56627)" />
    </g>
    <g
       id="g580"
       transform="matrix(0.26458333,0,0,0.26458333,59.354648,63.747086)">
      <path
         id="path581"
         d="m 0,0 h -63 c -2.619,0 -4.75,-2.131 -4.75,-4.75 v -63 c 0,-2.619 2.131,-4.75 4.75,-4.75 H 0 c 2.619,0 4.75,2.131 4.75,4.75 v 63 C 4.75,-2.131 2.619,0 0,0 m 0,-0.25 c 2.485,0 4.5,-2.015 4.5,-4.5 v -63 c 0,-2.485 -2.015,-4.5 -4.5,-4.5 h -63 c -2.485,0 -4.5,2.015 -4.5,4.5 v 63 c 0,2.485 2.015,4.5 4.5,4.5 z"
         style="fill:#000000;fill-opacity:1;fill-rule:nonzero;stroke:none"
         transform="matrix(1.3333333,0,0,-1.3333333,212.0008,272.06613)" />
    </g>
    <g
       id="g581"
       transform="matrix(0.26458333,0,0,0.26458333,59.354648,63.747086)">
      <path
         id="path582"
         d="m 0,0 h -63 c -1.657,0 -3,1.343 -3,3 v 63 c 0,1.657 1.343,3 3,3 H 0 c 1.657,0 3,-1.343 3,-3 V 3 C 3,1.343 1.657,0 0,0"
         style="fill:#7d4802;fill-opacity:1;fill-rule:nonzero;stroke:none"
         transform="matrix(1.3333333,0,0,-1.3333333,212.0008,366.39947)" />
    </g>
    <g
       id="g582"
       transform="matrix(0.26458333,0,0,0.26458333,59.354648,63.747086)">
      <path
         id="path583"
         d="M 0,0 C 0.97,0 1.757,0.919 1.757,3.206 1.757,5.493 0.97,6.412 0,6.412 -0.97,6.412 -1.757,5.494 -1.757,3.206 -1.757,0.919 -0.97,0 0,0 m 3.181,3.206 c 0,-0.323 0.069,-4.657 -3.197,-4.657 -3.266,0 -3.197,4.334 -3.197,4.657 0,0.323 -0.069,4.657 3.197,4.657 3.266,0 3.197,-4.334 3.197,-4.657"
         style="fill:#ffffff;fill-opacity:1;fill-rule:nonzero;stroke:none"
         transform="matrix(1.3333333,0,0,-1.3333333,149.1932,337.67453)" />
      <path
         id="path584"
         d="m 0,0 c -0.824,0 -0.918,-0.469 -0.918,-1.297 v -4.11 h -1.458 v 6.575 h 1.458 V 0.852 c 0.349,0.316 0.506,0.474 1.014,0.474 0.495,0 0.729,-0.19 0.95,-0.443 L 0.856,-0.38 C 0.57,-0.159 0.346,0 0,0"
         style="fill:#ffffff;fill-opacity:1;fill-rule:nonzero;stroke:none"
         transform="matrix(1.3333333,0,0,-1.3333333,159.00387,332.19053)" />
      <path
         id="path585"
         d="M 0,0 H 2.45 C 2.45,0.635 2.324,1.392 1.257,1.392 0.163,1.392 0,0.651 0,0 m 0.031,-1.328 c 0.063,-0.726 0.345,-1.486 1.226,-1.486 0.578,0 1.067,0.348 1.225,0.917 L 3.643,-2.623 C 3.266,-3.477 2.575,-4.141 1.257,-4.141 c -2.267,0 -2.701,1.738 -2.701,3.446 0,1.453 0.439,3.413 2.701,3.413 2.367,0 2.611,-2.052 2.611,-3.639 v -0.407 z"
         style="fill:#ffffff;fill-opacity:1;fill-rule:nonzero;stroke:none"
         transform="matrix(1.3333333,0,0,-1.3333333,163.2852,334.046)" />
      <path
         id="path586"
         d="m 0,0 c -1.087,0 -1.387,-1.138 -1.387,-2.088 0,-0.918 0.314,-2.149 1.295,-2.149 0.506,0 0.855,0.093 1.199,0.443 v 3.319 C 0.727,-0.063 0.407,0 0,0 m -0.342,1.339 c 0.556,0 1.168,-0.162 1.48,-0.394 v 0.22 h 1.421 v -6.207 c 0,-0.844 0.242,-3.238 -2.989,-3.656 l -0.695,1.073 c 0.819,0.187 2.263,0.513 2.263,1.613 v 0.788 c -0.443,-0.257 -0.755,-0.352 -1.262,-0.352 -1.993,0 -2.719,1.618 -2.719,3.488 0,1.719 0.564,3.427 2.501,3.427"
         style="fill:#ffffff;fill-opacity:1;fill-rule:nonzero;stroke:none"
         transform="matrix(1.3333333,0,0,-1.3333333,173.43307,332.1876)" />
      <path
         id="path587"
         d="m 0,0 c 0,-0.664 0.19,-2.117 1.302,-2.117 1.111,0 1.27,1.486 1.27,2.149 0,0.632 -0.191,2.088 -1.27,2.088 V 2.117 C 0.19,2.117 0,0.664 0,0 m -1.46,0.032 c 0,1.453 0.476,3.414 2.762,3.414 2.254,0 2.73,-1.834 2.73,-3.414 0,-1.581 -0.476,-3.445 -2.73,-3.445 -2.286,0 -2.762,1.738 -2.762,3.445"
         style="fill:#ffffff;fill-opacity:1;fill-rule:nonzero;stroke:none"
         transform="matrix(1.3333333,0,0,-1.3333333,180.7132,335.01667)" />
      <path
         id="path588"
         d="m 0,0 c 0,0.851 -0.568,1.043 -1.327,1.043 -0.202,0 -1.107,-0.116 -1.107,-1.107 v -4.299 h -1.455 v 6.575 h 1.423 V 1.991 c 0.359,0.224 0.992,0.406 1.415,0.406 h 0.017 C 0.205,2.397 1.423,1.6 1.423,0.159 V -4.363 H 0 Z"
         style="fill:#ffffff;fill-opacity:1;fill-rule:nonzero;stroke:none"
         transform="matrix(1.3333333,0,0,-1.3333333,193.19493,333.58267)" />
      <path
         id="path589"
         d="M 0,0 H -1.428 V 7.737 H -3.489 V 9 H 2.094 V 7.737 H 0 Z"
         style="fill:#ffffff;fill-opacity:1;fill-rule:nonzero;stroke:none"
         transform="matrix(1.3333333,0,0,-1.3333333,159.76733,360.39947)" />
      <path
         id="path590"
         d="m 0,0 c -0.824,0 -0.918,-0.469 -0.918,-1.297 v -4.11 h -1.458 v 6.575 h 1.458 V 0.852 c 0.349,0.316 0.506,0.474 1.014,0.474 0.495,0 0.729,-0.19 0.95,-0.443 L 0.856,-0.38 C 0.57,-0.159 0.346,0 0,0"
         style="fill:#ffffff;fill-opacity:1;fill-rule:nonzero;stroke:none"
         transform="matrix(1.3333333,0,0,-1.3333333,167.28707,353.19053)" />
      <path
         id="path591"
         d="M 0,0 C 0.459,0 0.929,0.165 1.168,0.291 V 1.809 C 0.896,1.938 0.406,2.088 -0.055,2.088 -0.604,2.088 -1.1,1.872 -1.1,1.145 -1.1,0.251 -0.566,0 0,0 m -0.046,4.259 c -0.665,0 -1.267,-0.365 -1.62,-0.838 l -0.41,1.392 c 0.591,0.462 1.319,0.751 2.247,0.751 1.273,0 2.445,-0.777 2.445,-2.332 V -1.162 H 1.231 v 0.19 c -0.221,-0.19 -0.788,-0.283 -1.292,-0.283 -1.323,0 -2.456,0.848 -2.456,2.433 0,1.296 1.097,2.143 2.567,2.143 0.311,0 0.798,-0.099 1.086,-0.216 0,0.344 -0.147,1.154 -1.182,1.154"
         style="fill:#ffffff;fill-opacity:1;fill-rule:nonzero;stroke:none"
         transform="matrix(1.3333333,0,0,-1.3333333,172.87787,358.85)" />
      <path
         id="path592"
         d="m 133.984,528.275 h 1.44 v -6.574 h -1.44 z m -0.038,1.834 c 0,0.413 0.345,0.753 0.758,0.758 0.413,0 0.758,-0.345 0.758,-0.758 0,-0.411 -0.346,-0.727 -0.758,-0.727 -0.411,0 -0.758,0.316 -0.758,0.727"
         style="fill:#ffffff;fill-opacity:1;fill-rule:nonzero;stroke:none"
         transform="matrix(1.3333333,0,0,-1.3333333,0,1056)" />
      <path
         id="path593"
         d="M 0,0 1.44,0.695 V -8.471 H 0 Z"
         style="fill:#ffffff;fill-opacity:1;fill-rule:nonzero;stroke:none"
         transform="matrix(1.3333333,0,0,-1.3333333,182.96587,349.10467)" />
    </g>
    <g
       id="g1">
      <g
         id="g593"
         transform="matrix(0.26458333,0,0,0.26458333,59.354648,63.747086)">
        <path
           id="path594"
           d="m 0,0 c 2.643,4.578 8.346,9.239 13.291,11.293 l 0.604,-0.215 v 0.001 l 0.002,-0.001 0.011,-0.004 h 0.001 l -0.001,-10e-4 0.011,-0.003 c 0.095,-0.035 8.712,-3.23 13.259,-11.104 4.456,-7.719 3.604,-16.888 3.566,-17.268 l -0.047,-0.482 -0.245,-0.141 c -1.615,-0.935 -3.424,-1.717 -5.17,-2.357 -3.028,-1.11 -7.172,-2.213 -11.681,-2.213 -4.508,0 -8.655,1.103 -11.685,2.213 -1.517,0.556 -4.224,1.63 -5.403,2.358 l -0.05,0.486 C -4.105,-11.858 -2.786,-4.826 0,0"
           style="fill:#ffffff;fill-opacity:1;fill-rule:nonzero;stroke:none"
           transform="matrix(1.3333333,0,0,-1.3333333,151.89,292.93133)" />
      </g>
      <g
         id="g594"
         transform="matrix(0.26458333,0,0,0.26458333,59.354648,63.747086)">
        <path
           id="path595"
           d="m 0,0 -1.572,-0.528 c 0.067,-0.004 0.139,-0.009 0.216,-0.014 0.816,-0.051 1.51,-0.468 1.51,-0.468 0,0 0.15,-0.006 0.396,-0.015 C 0.489,-0.971 0.431,-0.909 0.377,-0.84 0.205,-0.622 0.072,-0.331 0,0 M 1.967,0.62 1.852,0.622 1.962,0.658 C 1.963,0.646 1.965,0.633 1.967,0.62 M 2.179,0.232 3.941,0.113 c 0.009,-0.446 0.127,-0.851 0.315,-1.151 0.013,-0.02 0.025,-0.04 0.039,-0.059 -0.268,0.005 -0.524,0.008 -0.756,0.008 -0.565,0 -1.248,0.014 -1.852,0.03 0.109,0.097 0.204,0.222 0.281,0.371 0.13,0.252 0.207,0.571 0.211,0.92 M 2.333,1.115 2.047,1.13 C 2.058,1.097 2.068,1.063 2.077,1.029 Z M 4.014,1.027 3.188,1.07 2.142,0.719 C 2.147,0.686 2.152,0.652 2.156,0.617 L 3.957,0.593 C 3.97,0.752 3.988,0.896 4.014,1.027 M 0.151,0.852 0.713,0.571 0.135,0.377 C 0.132,0.432 0.13,0.487 0.13,0.543 c 0,0.107 0.007,0.21 0.021,0.309 M 0.82,0.709 0.817,0.702 0.166,0.944 C 0.193,1.088 0.234,1.222 0.288,1.339 L 0.286,1.329 0.789,0.738 Z M 0.974,0.883 C 0.954,0.875 0.936,0.863 0.918,0.848 L 0.914,0.852 0.323,1.41 C 0.33,1.423 0.337,1.435 0.344,1.448 0.391,1.53 0.445,1.601 0.505,1.66 0.527,1.497 0.544,1.345 0.555,1.208 L 0.95,1.187 0.959,0.917 V 0.911 C 0.96,0.9 0.966,0.891 0.974,0.883 M 1.194,0.866 C 1.169,0.881 1.143,0.892 1.117,0.898 1.124,0.907 1.128,0.918 1.127,0.929 L 1.126,0.931 V 0.932 L 1.091,1.18 1.28,1.17 Z M 1.46,0.822 1.87,1.067 C 1.862,1.092 1.854,1.117 1.845,1.14 L 1.428,1.162 1.344,0.783 Z M 1.535,0.275 1.971,-0.044 c 0.013,0.093 0.02,0.189 0.021,0.288 z M 0.243,-0.184 0.82,0.257 0.816,0.267 0.793,0.266 0.179,0.06 C 0.196,-0.025 0.218,-0.106 0.243,-0.184 M 0.85,-0.041 0.64,-0.852 c -0.165,0.158 -0.285,0.368 -0.365,0.58 L 0.896,0.114 V 0.113 Z m 0.201,0.029 0.032,-0.148 0.16,-0.887 C 1.007,-1.04 0.914,-1.074 0.721,-0.924 l 0.289,0.831 0.026,0.087 C 1.041,-0.008 1.046,-0.01 1.051,-0.012 M 1.746,-0.7 1.264,0.012 C 1.254,0.005 1.243,-0.002 1.232,-0.007 l 0.018,-0.134 0.12,-0.9 c 0.146,0.061 0.274,0.18 0.376,0.341 m -0.382,0.826 0.435,-0.733 0.002,0.004 c 0.066,0.128 0.116,0.275 0.149,0.435 L 1.388,0.18 C 1.381,0.161 1.373,0.143 1.364,0.126 m 8.738,1.197 c 0.047,0.222 0.084,0.458 0.129,0.684 0.088,-0.075 0.167,-0.171 0.234,-0.284 z M 6.817,0.183 8.461,0.286 c 0.013,-0.364 0.098,-0.697 0.236,-0.962 0.083,-0.16 0.186,-0.297 0.305,-0.402 -0.929,-0.04 -1.869,-0.115 -1.869,-0.115 0,0 -0.355,0.017 -0.867,0.037 0.078,0.073 0.149,0.159 0.214,0.257 0.185,0.282 0.31,0.66 0.337,1.082 M 6.272,0.149 6.629,0.171 C 6.601,-0.208 6.489,-0.545 6.323,-0.797 6.223,-0.95 6.102,-1.07 5.97,-1.145 l -0.1,0.003 c 0.02,0.028 0.04,0.056 0.059,0.085 0.204,0.309 0.334,0.735 0.343,1.206 M 6.604,0.756 6.216,0.751 C 6.205,0.806 6.192,0.86 6.178,0.914 L 6.579,0.893 C 6.589,0.848 6.597,0.802 6.604,0.756 M 8.487,0.78 6.793,0.758 C 6.787,0.801 6.78,0.844 6.771,0.886 L 8.495,0.83 C 8.492,0.813 8.49,0.796 8.487,0.78 m 1.707,0.051 c -0.03,0.073 -0.071,0.131 -0.121,0.166 l 0.457,0.606 c 0.081,-0.169 0.139,-0.365 0.169,-0.579 z m 0.048,-0.378 c 0.006,0.073 0.004,0.143 -0.005,0.208 l 0.478,0.224 C 10.727,0.743 10.727,0.593 10.713,0.44 L 10.712,0.435 h 10e-4 C 10.709,0.393 10.704,0.351 10.698,0.31 Z m -0.169,-0.468 c 0.055,0.067 0.101,0.159 0.132,0.265 L 10.677,0.183 C 10.623,-0.106 10.522,-0.365 10.392,-0.576 Z M 9.306,0.803 9.303,0.79 8.677,0.782 C 8.679,0.796 8.681,0.81 8.683,0.823 Z M 8.673,0.02 9.156,0.329 8.648,0.297 C 8.651,0.202 8.659,0.11 8.673,0.02 M 8.888,-0.635 9.363,0.143 C 9.356,0.155 9.349,0.168 9.343,0.181 L 8.698,-0.117 C 8.735,-0.291 8.791,-0.451 8.863,-0.589 8.871,-0.605 8.879,-0.62 8.888,-0.635 m 0.793,-0.421 0.04,0.951 c 0.009,0 0.018,0.001 0.026,0.003 0.027,-0.019 0.057,-0.03 0.088,-0.034 0.012,-0.002 0.024,-0.002 0.036,-0.001 l 0.445,-0.551 C 10.307,-0.699 10.299,-0.709 10.291,-0.72 10.174,-0.87 10.04,-0.985 9.897,-1.053 9.827,-1.054 9.755,-1.055 9.681,-1.056 M 9.52,-0.03 9.551,-1.059 C 9.476,-1.061 9.399,-1.063 9.321,-1.066 9.187,-1.004 9.067,-0.898 8.967,-0.759 l 0.53,0.743 C 9.504,-0.021 9.512,-0.026 9.52,-0.03 M 5.501,0.742 5.57,0.945 5.98,0.924 C 5.997,0.867 6.012,0.808 6.026,0.748 Z M 5.217,0.738 5.21,0.964 5.447,0.952 5.348,0.74 Z M 4.193,0.969 4.658,0.583 4.145,0.59 c 0.01,0.139 0.026,0.265 0.048,0.379 M 4.819,0.675 4.375,1.008 4.73,0.989 Z M 5.053,0.711 C 5.047,0.711 5.04,0.712 5.033,0.712 5.01,0.713 4.988,0.709 4.967,0.701 L 4.854,0.983 5.074,0.971 Z M 5.449,0.097 6.024,-0.345 c 0.035,0.151 0.056,0.313 0.06,0.482 z M 5.402,-0.153 5.788,-0.932 C 5.871,-0.8 5.94,-0.645 5.99,-0.474 L 5.416,-0.076 C 5.407,-0.106 5.396,-0.134 5.385,-0.161 Z M 5.224,-0.353 5.218,-1.12 c 0.141,-0.004 0.28,-0.009 0.414,-0.013 0.025,0.026 0.049,0.054 0.073,0.084 L 5.292,-0.302 C 5.271,-0.324 5.248,-0.341 5.224,-0.353 m -1.043,0.012 0.557,0.322 C 4.732,0.006 4.728,0.033 4.725,0.061 l -0.596,0.04 c 0.004,-0.154 0.022,-0.302 0.052,-0.442 m 0.351,-0.758 0.313,0.834 c -0.022,0.027 -0.042,0.06 -0.06,0.097 L 4.206,-0.445 C 4.255,-0.631 4.326,-0.798 4.415,-0.939 4.451,-0.997 4.49,-1.05 4.532,-1.099 M 4.981,-0.353 4.624,-1.104 C 4.786,-1.107 4.949,-1.112 5.111,-1.117 L 5.047,-0.352 C 5.034,-0.355 5.02,-0.356 5.007,-0.356 c -0.009,0 -0.017,0.001 -0.026,0.003 M 8.656,8.584 C 9.189,8.555 9.863,8.491 10.52,7.904 11.349,7.164 11.379,6.01 10.964,4.56 10.879,4.263 10.626,3.156 10.457,2.867 9.742,2.827 9.454,2.742 8.715,2.847 7.875,2.968 7.473,3.061 6.705,3.353 6.175,3.565 5.693,3.817 5.174,4.091 4.368,4.091 3.409,3.926 2.795,3.899 2.874,3.903 3.615,5.321 3.67,6.169 3.698,6.606 3.697,7.317 3.068,7.755 2.526,8.132 2.006,7.99 1.701,7.809 0.963,7.372 1.018,6.798 1.018,6.387 1.018,5.403 2.01,4.269 2.275,3.845 L 0.17,3.79 c 0,0 -0.875,2.007 -1.012,3.374 -0.137,1.367 0.122,3.628 2.693,3.847 1.862,0.158 3.878,-0.32 3.905,-3.847 0,0 0.644,1.617 -0.887,3.285 C 5.443,10.093 6.017,9.554 6.674,9.472 6.893,9.226 7.696,8.561 7.532,6.839 8.133,8.178 7.147,9.265 7.147,9.265 c 0,0 0.632,-0.567 1.125,-0.622 0,0 0.842,-0.558 0.651,-1.952 0.519,1.148 -0.267,1.893 -0.267,1.893 m 4.137,-0.315 c -3.378,5.822 -8.112,7.287 -8.112,7.287 0,0 -4.727,-1.436 -8.121,-7.286 C -5.046,5.501 -5.647,3.187 -6.081,0.08 l 1.835,0.316 0.677,-0.287 0.573,-0.026 0.799,-0.488 2.149,0.721 c -0.007,0.079 -0.01,0.154 -0.01,0.227 0,0.385 0.088,0.736 0.24,0.999 0.08,0.139 0.179,0.254 0.292,0.336 C 0.428,2.179 0.37,2.506 0.307,2.833 0.267,2.992 0.222,3.452 0.143,3.571 0.521,3.532 1.351,3.626 1.729,3.626 2.713,3.626 4.073,3.792 5.146,3.872 5.484,3.713 5.867,3.484 6.185,3.325 6.444,3.186 7.22,2.951 7.555,2.861 8.373,2.642 8.543,2.683 9.637,2.601 9.964,2.576 10.277,2.642 10.416,2.642 10.358,2.514 10.313,2.367 10.275,2.21 10.434,2.099 10.569,1.936 10.674,1.735 10.855,1.386 10.945,0.92 10.899,0.419 H 10.9 10.899 V 0.418 0.414 c -0.047,-0.498 -0.219,-0.939 -0.46,-1.249 -0.065,-0.084 -0.136,-0.158 -0.21,-0.221 0.056,-0.002 0.109,-0.004 0.159,-0.006 0.963,-0.053 1.198,-0.105 1.198,-0.105 0,0 0.286,0.235 0.703,0.261 0.416,0.026 0.729,0.078 0.729,0.078 0,0 0.547,0.338 0.911,0.338 0.365,0 1.3,0.183 1.3,0.183 l 0.247,-0.077 C 15.497,2.46 14.197,5.85 12.793,8.269"
           style="fill:#eecf41;fill-opacity:1;fill-rule:evenodd;stroke:none"
           transform="matrix(1.3333333,0,0,-1.3333333,163.7088,308.3292)" />
      </g>
      <g
         id="g595"
         transform="matrix(0.26458333,0,0,0.26458333,59.354648,63.747086)">
        <path
           id="path596"
           d="m 0,0 c 2.643,4.578 8.346,9.239 13.291,11.293 l 0.604,-0.215 v 0.001 l 0.002,-0.001 0.011,-0.004 h 0.001 l -0.001,-10e-4 0.011,-0.003 c 0.095,-0.035 8.712,-3.23 13.259,-11.104 4.456,-7.719 3.604,-16.888 3.566,-17.268 l -0.047,-0.482 -0.245,-0.141 c -1.615,-0.935 -3.424,-1.717 -5.17,-2.357 -3.028,-1.11 -7.172,-2.213 -11.681,-2.213 -4.508,0 -8.655,1.103 -11.685,2.213 -1.517,0.556 -4.224,1.63 -5.403,2.358 l -0.05,0.486 C -4.105,-11.858 -2.786,-4.826 0,0 Z"
           style="fill:none;stroke:#000000;stroke-width:0.216;stroke-linecap:butt;stroke-linejoin:miter;stroke-miterlimit:2.613;stroke-dasharray:none;stroke-opacity:1"
           transform="matrix(1.3333333,0,0,-1.3333333,151.89,292.93133)" />
        <path
           id="path597"
           d="m 0,0 v 0.001 c -0.011,0.104 -0.955,9.258 3.462,16.909 4.421,7.656 12.832,10.737 12.933,10.775 h 0.001 l 0.025,0.01 0.117,-0.001 0.024,-0.009 h 10e-4 l 0.002,-10e-4 C 16.654,27.651 25.049,24.54 29.472,16.878 33.889,9.227 32.961,0.103 32.951,0.001 V 0 L 32.95,-0.001 32.947,-0.038 32.938,-0.125 32.863,-0.168 32.83,-0.187 C 32.74,-0.24 25.298,-4.573 16.48,-4.573 7.661,-4.573 0.21,-0.239 0.121,-0.187 L 0.12,-0.186 0.087,-0.167 0.012,-0.124 0.004,-0.038 Z M 3.884,16.666 C 1.784,13.029 0.918,9.042 0.585,5.886 0.273,2.933 0.427,0.71 0.473,0.174 0.926,-0.08 2.776,-1.08 5.487,-2.049 8.392,-3.087 12.28,-4.087 16.48,-4.087 c 4.2,0 8.086,1 10.989,2.038 2.708,0.968 4.556,1.968 5.008,2.222 0.046,0.537 0.195,2.751 -0.12,5.697 -0.338,3.15 -1.207,7.13 -3.306,10.766 -2.107,3.649 -5.138,6.246 -7.705,7.956 -2.428,1.616 -4.438,2.437 -4.867,2.604 C 16.05,27.031 14.037,26.219 11.604,24.61 9.03,22.908 5.992,20.317 3.884,16.666"
           style="fill:#000000;fill-opacity:1;fill-rule:nonzero;stroke:none"
           transform="matrix(1.3333333,0,0,-1.3333333,147.97693,315.77867)" />
      </g>
      <g
         id="g597"
         transform="matrix(0.26458333,0,0,0.26458333,59.354648,63.747086)">
        <path
           id="path598"
           d="M 0,0 C -0.729,0.254 -0.938,1.045 -0.675,1.798 -0.411,2.555 0.246,3.036 0.971,2.783 1.697,2.531 1.908,1.734 1.644,0.978 1.381,0.225 0.719,-0.25 0,0 M 0.206,0.655 C 0.642,0.503 1.277,0.429 1.487,1.032 1.701,1.647 1.236,1.964 0.766,2.128 0.309,2.287 -0.305,2.354 -0.522,1.732 -0.731,1.133 -0.23,0.807 0.206,0.655"
           style="fill:#000000;fill-opacity:1;fill-rule:nonzero;stroke:none"
           transform="matrix(1.3333333,0,0,-1.3333333,153.41933,302.0372)" />
      </g>
      <g
         id="g598"
         transform="matrix(0.26458333,0,0,0.26458333,59.354648,63.747086)">
        <path
           id="path599"
           d="m 0,0 c 0.132,0.023 0.278,0.043 0.406,0.081 0.11,0.036 0.16,0.076 0.232,0.163 L 0.752,0.182 C 0.687,0.069 0.618,-0.042 0.552,-0.156 0.492,-0.272 0.436,-0.391 0.376,-0.508 L -0.53,-0.655 c -0.209,-0.036 -0.449,-0.099 -0.496,-0.2 -0.009,-0.018 -0.017,-0.04 -0.027,-0.058 l 0.418,-0.228 c 0.26,-0.141 0.407,-0.226 0.58,0.114 l 0.114,-0.062 c -0.112,-0.197 -0.228,-0.396 -0.34,-0.593 -0.105,-0.2 -0.205,-0.399 -0.31,-0.599 l -0.114,0.062 c 0.192,0.329 0.039,0.404 -0.221,0.545 l -1.07,0.584 c -0.26,0.142 -0.405,0.23 -0.578,-0.11 l -0.114,0.062 c 0.112,0.197 0.225,0.389 0.336,0.586 0.1,0.19 0.196,0.381 0.295,0.571 0.098,0.163 0.246,0.413 0.39,0.533 0.206,0.182 0.442,0.207 0.663,0.086 0.282,-0.154 0.317,-0.512 0.202,-0.82 z m -1.129,-0.699 c 0.182,0.334 0.158,0.569 -0.155,0.74 -0.289,0.157 -0.513,0.107 -0.692,-0.22 -0.02,-0.038 -0.088,-0.155 -0.056,-0.186 0.029,-0.03 0.245,-0.147 0.289,-0.171 l 0.541,-0.296 z"
           style="fill:#000000;fill-opacity:1;fill-rule:evenodd;stroke:none"
           transform="matrix(1.3333333,0,0,-1.3333333,157.2792,295.18933)" />
      </g>
      <g
         id="g599"
         transform="matrix(0.26458333,0,0,0.26458333,59.354648,63.747086)">
        <path
           id="path600"
           d="m 0,0 c 0.235,0.3 0.094,0.394 -0.143,0.57 l -0.98,0.725 C -1.361,1.471 -1.492,1.578 -1.71,1.265 l -0.104,0.078 c 0.137,0.179 0.275,0.354 0.412,0.533 0.285,0.392 0.57,0.788 0.855,1.179 L -0.018,2.703 -0.12,2.566 C -0.447,2.724 -0.671,2.609 -0.898,2.303 -0.926,2.264 -1.077,2.06 -1.059,2.018 -1.052,1.997 -0.924,1.903 -0.901,1.886 l 0.536,-0.397 c 0.191,0.258 0.271,0.456 0.01,0.669 L -0.26,2.285 C -0.129,2.184 -0.001,2.078 0.13,1.977 0.252,1.892 0.378,1.808 0.499,1.723 L 0.405,1.596 C 0.093,1.732 -0.014,1.684 -0.232,1.39 L 0.108,1.139 C 0.38,0.938 0.547,0.799 0.825,1.176 1.092,1.536 1.097,1.749 0.829,2.071 L 0.923,2.199 C 1.031,2.115 1.133,2.029 1.241,1.944 1.322,1.89 1.402,1.84 1.482,1.785 1.154,1.347 0.822,0.912 0.494,0.474 0.362,0.29 0.236,0.107 0.104,-0.077 Z"
           style="fill:#000000;fill-opacity:1;fill-rule:evenodd;stroke:none"
           transform="matrix(1.3333333,0,0,-1.3333333,158.3916,294.4948)" />
      </g>
      <g
         id="g600"
         transform="matrix(0.26458333,0,0,0.26458333,59.354648,63.747086)">
        <path
           id="path601"
           d="M 0,0 0.122,0.114 0.66,-0.409 0.533,-0.529 c -0.299,0.18 -0.648,0.204 -0.946,-0.075 -0.463,-0.434 -0.16,-0.99 0.158,-1.329 0.298,-0.319 0.813,-0.637 1.251,-0.228 0.254,0.239 0.295,0.445 0.078,0.677 -0.162,0.173 -0.235,0.17 -0.449,0.004 l -0.089,0.095 0.863,0.807 0.089,-0.094 C 1.301,-0.862 1.382,-0.925 1.517,-1.07 L 1.774,-1.344 C 1.599,-1.552 1.551,-1.611 1.423,-1.84 1.31,-2.049 1.223,-2.195 1.044,-2.363 0.461,-2.908 -0.249,-2.945 -0.749,-2.41 c -0.488,0.521 -0.471,1.298 0.117,1.848 0.206,0.193 0.448,0.341 0.724,0.371 z"
           style="fill:#000000;fill-opacity:1;fill-rule:evenodd;stroke:none"
           transform="matrix(1.3333333,0,0,-1.3333333,160.7804,287.19973)" />
      </g>
      <g
         id="g601"
         transform="matrix(0.26458333,0,0,0.26458333,59.354648,63.747086)">
        <path
           id="path602"
           d="M 0,0 C -0.355,0.685 0.037,1.404 0.745,1.771 1.457,2.14 2.264,2.038 2.617,1.356 2.971,0.674 2.577,-0.05 1.865,-0.419 1.157,-0.786 0.35,-0.676 0,0 m 0.599,0.335 c 0.213,-0.41 0.623,-0.9 1.19,-0.606 0.578,0.299 0.458,0.85 0.229,1.292 C 1.796,1.45 1.395,1.921 0.811,1.618 0.247,1.326 0.387,0.745 0.599,0.335"
           style="fill:#000000;fill-opacity:1;fill-rule:evenodd;stroke:none"
           transform="matrix(1.3333333,0,0,-1.3333333,163.36347,287.14133)" />
        <path
           id="path603"
           d="M 0,0 -0.009,-1.115 C -0.011,-1.389 -0.013,-1.67 0.368,-1.687 l -0.001,-0.13 c -0.159,0.005 -0.321,0.013 -0.48,0.018 -0.151,-0.003 -0.302,-0.009 -0.452,-0.011 l 0.001,0.13 c 0.329,0.026 0.354,0.174 0.356,0.43 l 0.011,1.45 c -0.126,0.163 -0.177,0.229 -0.395,0.248 l 0.001,0.13 c 0.127,-0.004 0.25,-0.013 0.377,-0.017 0.151,0.002 0.298,0.008 0.449,0.011 l 1.554,-1.654 0.008,0.96 C 1.799,0.152 1.801,0.415 1.424,0.433 l 0.001,0.13 C 1.576,0.558 1.726,0.549 1.877,0.545 2.036,0.547 2.195,0.553 2.353,0.555 L 2.352,0.425 C 2.241,0.408 2.114,0.395 2.058,0.298 1.998,0.194 1.996,-0.026 1.995,-0.145 L 1.982,-1.88 1.787,-1.879 Z"
           style="fill:#000000;fill-opacity:1;fill-rule:evenodd;stroke:none"
           transform="matrix(1.3333333,0,0,-1.3333333,168.7792,284.0156)" />
      </g>
      <g
         id="g603"
         transform="matrix(0.26458333,0,0,0.26458333,59.354648,63.747086)">
        <path
           id="path604"
           d="m 0,0 -0.141,0.096 c 0.137,0.273 0.09,0.549 -0.195,0.743 C -0.55,0.984 -0.528,0.995 -0.681,0.755 L -1.446,-0.37 c -0.18,-0.265 -0.268,-0.38 0.073,-0.598 l -0.073,-0.108 c -0.192,0.135 -0.381,0.272 -0.573,0.407 -0.196,0.128 -0.393,0.254 -0.589,0.383 l 0.073,0.107 c 0.329,-0.236 0.407,-0.115 0.587,0.151 l 0.765,1.124 C -1.037,1.311 -1.036,1.292 -1.232,1.447 -1.538,1.69 -1.783,1.59 -2.012,1.366 L -2.153,1.462 -1.748,2.016 0.366,0.58 Z"
           style="fill:#000000;fill-opacity:1;fill-rule:evenodd;stroke:none"
           transform="matrix(1.3333333,0,0,-1.3333333,178.29387,287.65853)" />
      </g>
      <g
         id="g604"
         transform="matrix(0.26458333,0,0,0.26458333,59.354648,63.747086)">
        <path
           id="path605"
           d="m 0,0 c -0.021,-0.132 -0.05,-0.277 -0.054,-0.41 -0.003,-0.115 0.019,-0.176 0.078,-0.273 l -0.096,-0.088 c -0.085,0.099 -0.169,0.201 -0.254,0.3 -0.091,0.094 -0.185,0.186 -0.276,0.28 l 0.154,0.905 c 0.034,0.208 0.051,0.456 -0.029,0.533 -0.014,0.015 -0.032,0.03 -0.046,0.044 L -0.874,0.97 C -1.092,0.77 -1.219,0.659 -0.954,0.385 L -1.05,0.297 C -1.2,0.466 -1.35,0.641 -1.5,0.81 -1.656,0.975 -1.811,1.134 -1.966,1.298 l 0.095,0.088 c 0.25,-0.289 0.369,-0.168 0.587,0.031 l 0.899,0.824 c 0.218,0.199 0.348,0.308 0.083,0.582 L -0.206,2.91 C -0.056,2.741 0.089,2.572 0.239,2.403 0.386,2.247 0.536,2.094 0.684,1.939 0.807,1.794 0.995,1.573 1.062,1.398 1.167,1.144 1.115,0.913 0.929,0.743 0.692,0.526 0.342,0.609 0.088,0.817 Z M -0.296,1.295 C -0.039,1.014 0.191,0.96 0.454,1.202 0.696,1.423 0.722,1.651 0.47,1.926 0.441,1.959 0.352,2.06 0.312,2.04 0.275,2.022 0.094,1.856 0.057,1.822 L -0.398,1.406 Z"
           style="fill:#000000;fill-opacity:1;fill-rule:evenodd;stroke:none"
           transform="matrix(1.3333333,0,0,-1.3333333,180.28173,291.83787)" />
      </g>
      <g
         id="g605"
         transform="matrix(0.26458333,0,0,0.26458333,59.354648,63.747086)">
        <path
           id="path606"
           d="m 0,0 c -0.095,-0.018 -0.225,-0.03 -0.307,-0.082 -0.149,-0.095 -0.06,-0.255 0.01,-0.384 l -0.11,-0.07 c -0.086,0.142 -0.17,0.287 -0.256,0.429 -0.084,0.126 -0.171,0.249 -0.255,0.374 l 0.11,0.07 C -0.631,0.064 -0.277,0.153 -0.033,0.186 L 1.837,0.444 1.939,0.284 0.814,-1.401 C 0.755,-1.49 0.646,-1.653 0.627,-1.759 0.617,-1.85 0.657,-1.947 0.699,-2.033 L 0.59,-2.103 c -0.125,0.203 -0.247,0.408 -0.371,0.61 -0.114,0.173 -0.233,0.346 -0.347,0.518 l 0.11,0.07 c 0.076,-0.093 0.182,-0.274 0.313,-0.191 0.049,0.031 0.128,0.143 0.161,0.192 l 0.128,0.18 -0.47,0.74 z m 0.694,-0.56 0.512,0.74 -0.9,-0.131 z"
           style="fill:#000000;fill-opacity:1;fill-rule:evenodd;stroke:none"
           transform="matrix(1.3333333,0,0,-1.3333333,181.69973,293.6304)" />
        <path
           id="path607"
           d="M 0,0 C 0.271,0.127 0.429,0.188 0.259,0.534 L 0.377,0.589 C 0.466,0.39 0.551,0.193 0.64,-0.006 0.743,-0.217 0.851,-0.429 0.952,-0.636 L 0.834,-0.691 c -0.16,0.35 -0.308,0.267 -0.576,0.142 L -0.852,-1.07 C -1.12,-1.196 -1.259,-1.257 -1.092,-1.595 L -1.209,-1.65 c -0.095,0.21 -0.188,0.425 -0.284,0.638 -0.096,0.196 -0.195,0.39 -0.291,0.586 l 0.117,0.056 c 0.154,-0.353 0.302,-0.271 0.57,-0.145 z"
           style="fill:#000000;fill-opacity:1;fill-rule:evenodd;stroke:none"
           transform="matrix(1.3333333,0,0,-1.3333333,185.1924,296.57227)" />
      </g>
      <g
         id="g607"
         transform="matrix(0.26458333,0,0,0.26458333,59.354648,63.747086)">
        <path
           id="path608"
           d="m 0,0 c 0.108,-0.365 0.267,-0.305 0.548,-0.213 l 1.159,0.379 c 0.281,0.092 0.444,0.137 0.315,0.496 l 0.124,0.04 C 2.208,0.501 2.265,0.303 2.327,0.102 2.406,-0.127 2.489,-0.359 2.568,-0.587 L 2.444,-0.628 C 2.336,-0.263 2.176,-0.319 1.895,-0.411 L 0.898,-0.737 C 0.551,-0.851 0.336,-0.913 0.487,-1.373 0.626,-1.799 0.796,-1.947 1.218,-1.926 L 1.271,-2.088 0.608,-2.277 c -0.22,0.684 -0.438,1.373 -0.508,1.6 -0.074,0.214 -0.15,0.423 -0.223,0.637 z"
           style="fill:#000000;fill-opacity:1;fill-rule:evenodd;stroke:none"
           transform="matrix(1.3333333,0,0,-1.3333333,184.16707,299.68173)" />
        <path
           id="path609"
           d="m 0,0 0.248,-0.119 0.135,-1.044 0.004,-0.002 0.339,0.818 0.234,-0.111 -0.506,-1.22 -0.25,0.119 -0.134,1.043 -0.003,0.001 -0.339,-0.816 -0.234,0.112 z"
           style="fill:#000000;fill-opacity:1;fill-rule:evenodd;stroke:none"
           transform="matrix(1.3333333,0,0,-1.3333333,152.68987,312.87053)" />
        <path
           id="path610"
           d="m 0,0 0.261,-0.111 -0.024,-1.424 -0.265,0.112 0.015,0.313 -0.433,0.184 -0.193,-0.238 -0.258,0.109 z m -0.305,-0.751 0.3,-0.127 0.022,0.517 -0.003,0.002 z"
           style="fill:#000000;fill-opacity:1;fill-rule:evenodd;stroke:none"
           transform="matrix(1.3333333,0,0,-1.3333333,154.86587,313.872)" />
      </g>
      <g
         id="g610"
         transform="matrix(0.26458333,0,0,0.26458333,59.354648,63.747086)">
        <path
           id="path611"
           d="M 0,0 -0.352,0.133 -0.275,0.366 0.687,0.002 0.61,-0.23 0.258,-0.097 -0.079,-1.124 -0.337,-1.026 Z"
           style="fill:#000000;fill-opacity:1;fill-rule:evenodd;stroke:none"
           transform="matrix(1.3333333,0,0,-1.3333333,156.3524,314.82733)" />
      </g>
      <g
         id="g611"
         transform="matrix(0.26458333,0,0,0.26458333,59.354648,63.747086)">
        <path
           id="path612"
           d="m 0,0 0.261,-0.09 -0.382,-1.27 -0.26,0.09 z"
           style="fill:#000000;fill-opacity:1;fill-rule:evenodd;stroke:none"
           transform="matrix(1.3333333,0,0,-1.3333333,157.6428,314.9528)" />
      </g>
      <g
         id="g612"
         transform="matrix(0.26458333,0,0,0.26458333,59.354648,63.747086)">
        <path
           id="path613"
           d="m 0,0 c 0.371,-0.114 0.509,-0.477 0.408,-0.858 -0.099,-0.37 -0.396,-0.6 -0.766,-0.487 -0.371,0.114 -0.51,0.477 -0.411,0.848 C -0.667,-0.116 -0.37,0.114 0,0 m -0.295,-1.107 c 0.236,-0.073 0.383,0.116 0.44,0.33 0.06,0.224 0.028,0.467 -0.208,0.54 -0.237,0.072 -0.383,-0.116 -0.443,-0.341 -0.057,-0.214 -0.025,-0.457 0.211,-0.529"
           style="fill:#000000;fill-opacity:1;fill-rule:evenodd;stroke:none"
           transform="matrix(1.3333333,0,0,-1.3333333,159.20907,315.42147)" />
        <path
           id="path614"
           d="m 0,0 0.265,-0.067 0.313,-1 0.004,-0.001 0.192,0.872 0.249,-0.063 -0.286,-1.3 -0.266,0.068 -0.313,0.997 -0.003,0.001 -0.192,-0.87 -0.249,0.064 z"
           style="fill:#000000;fill-opacity:1;fill-rule:evenodd;stroke:none"
           transform="matrix(1.3333333,0,0,-1.3333333,160.41187,315.82013)" />
        <path
           id="path615"
           d="M 0,0 0.276,-0.056 0.501,-1.46 0.222,-1.403 0.181,-1.093 -0.276,-1 -0.424,-1.272 -0.696,-1.217 Z M -0.168,-0.799 0.149,-0.863 0.08,-0.351 0.076,-0.35 Z"
           style="fill:#000000;fill-opacity:1;fill-rule:evenodd;stroke:none"
           transform="matrix(1.3333333,0,0,-1.3333333,162.7084,316.36907)" />
        <path
           id="path616"
           d="m 0,0 0.271,-0.042 -0.146,-1.077 0.6,-0.094 -0.033,-0.244 -0.871,0.136 z"
           style="fill:#000000;fill-opacity:1;fill-rule:evenodd;stroke:none"
           transform="matrix(1.3333333,0,0,-1.3333333,164.01347,316.62)" />
        <path
           id="path617"
           d="m 0,0 0.273,-0.021 -0.035,-0.511 0.503,-0.04 0.035,0.511 0.273,-0.021 -0.091,-1.332 -0.273,0.022 0.039,0.574 -0.503,0.039 -0.039,-0.574 -0.273,0.022 z"
           style="fill:#000000;fill-opacity:1;fill-rule:evenodd;stroke:none"
           transform="matrix(1.3333333,0,0,-1.3333333,166.39867,316.94867)" />
        <path
           id="path618"
           d="m 0,0 0.274,-0.01 -0.041,-1.334 -0.274,0.01 z"
           style="fill:#000000;fill-opacity:1;fill-rule:evenodd;stroke:none"
           transform="matrix(1.3333333,0,0,-1.3333333,168.30587,317.07733)" />
        <path
           id="path619"
           d="m 0,0 c 0.001,-0.178 0.13,-0.246 0.277,-0.245 0.096,0.001 0.242,0.032 0.241,0.168 C 0.517,0.067 0.331,0.09 0.147,0.141 -0.038,0.192 -0.225,0.268 -0.226,0.518 -0.228,0.791 0.012,0.923 0.237,0.925 0.496,0.927 0.736,0.807 0.738,0.499 L 0.473,0.497 C 0.463,0.657 0.357,0.698 0.226,0.697 0.139,0.696 0.038,0.656 0.039,0.544 0.039,0.441 0.098,0.429 0.411,0.345 0.502,0.321 0.781,0.262 0.783,-0.041 0.784,-0.286 0.606,-0.47 0.268,-0.473 c -0.276,-0.002 -0.534,0.142 -0.533,0.471 z"
           style="fill:#000000;fill-opacity:1;fill-rule:evenodd;stroke:none"
           transform="matrix(1.3333333,0,0,-1.3333333,169.42947,318.2936)" />
        <path
           id="path620"
           d="M 0,0 -0.373,-0.022 -0.385,0.224 0.633,0.285 0.646,0.038 0.273,0.016 0.33,-1.07 0.056,-1.087 Z"
           style="fill:#000000;fill-opacity:1;fill-rule:evenodd;stroke:none"
           transform="matrix(1.3333333,0,0,-1.3333333,171.24827,317.38627)" />
        <path
           id="path621"
           d="M 0,0 C 0.383,0.044 0.639,-0.237 0.678,-0.631 0.716,-1.014 0.521,-1.347 0.138,-1.39 -0.245,-1.434 -0.501,-1.153 -0.539,-0.77 -0.578,-0.376 -0.383,-0.044 0,0 m 0.114,-1.145 c 0.244,0.028 0.314,0.261 0.292,0.483 -0.023,0.232 -0.137,0.445 -0.382,0.417 -0.244,-0.028 -0.314,-0.262 -0.291,-0.494 0.022,-0.221 0.136,-0.434 0.381,-0.406"
           style="fill:#000000;fill-opacity:1;fill-rule:evenodd;stroke:none"
           transform="matrix(1.3333333,0,0,-1.3333333,173.19973,316.84933)" />
        <path
           id="path622"
           d="M 0,0 0.663,0.113 C 0.883,0.15 1.047,0.01 1.077,-0.189 1.1,-0.345 1.058,-0.471 0.931,-0.553 L 0.932,-0.557 C 1.07,-0.571 1.128,-0.703 1.156,-0.835 1.174,-0.917 1.195,-1.072 1.254,-1.138 L 0.984,-1.184 C 0.939,-1.106 0.923,-0.979 0.894,-0.876 0.855,-0.74 0.796,-0.688 0.66,-0.711 L 0.389,-0.757 0.466,-1.272 0.195,-1.318 Z m 0.359,-0.55 0.296,0.05 c 0.12,0.021 0.178,0.087 0.158,0.22 C 0.794,-0.152 0.72,-0.108 0.6,-0.129 l -0.296,-0.05 z"
           style="fill:#000000;fill-opacity:1;fill-rule:evenodd;stroke:none"
           transform="matrix(1.3333333,0,0,-1.3333333,174.44053,316.73213)" />
        <path
           id="path623"
           d="M 0,0 0.268,0.056 0.507,-1.253 0.239,-1.31 Z"
           style="fill:#000000;fill-opacity:1;fill-rule:evenodd;stroke:none"
           transform="matrix(1.3333333,0,0,-1.3333333,176.2816,316.39853)" />
        <path
           id="path624"
           d="m 0,0 c -0.045,0.125 -0.182,0.195 -0.314,0.162 -0.24,-0.06 -0.283,-0.301 -0.234,-0.528 0.047,-0.217 0.185,-0.413 0.424,-0.354 0.163,0.041 0.229,0.184 0.212,0.36 l 0.259,0.064 C 0.39,-0.627 0.225,-0.887 -0.072,-0.96 c -0.375,-0.094 -0.661,0.152 -0.742,0.528 -0.084,0.386 0.072,0.741 0.448,0.834 C -0.1,0.469 0.161,0.357 0.258,0.064 Z"
           style="fill:#000000;fill-opacity:1;fill-rule:evenodd;stroke:none"
           transform="matrix(1.3333333,0,0,-1.3333333,178.3456,316.5324)" />
        <path
           id="path625"
           d="M 0,0 -0.358,-0.113 -0.423,0.123 0.555,0.433 0.62,0.197 0.262,0.083 0.55,-0.96 0.288,-1.043 Z"
           style="fill:#000000;fill-opacity:1;fill-rule:evenodd;stroke:none"
           transform="matrix(1.3333333,0,0,-1.3333333,180.25307,315.70867)" />
        <path
           id="path626"
           d="M 0,0 0.636,0.23 C 0.847,0.307 1.031,0.198 1.091,0.007 1.138,-0.142 1.117,-0.274 1.005,-0.378 l 0.001,-0.003 c 0.138,0.01 0.216,-0.109 0.265,-0.234 0.03,-0.078 0.075,-0.227 0.144,-0.281 L 1.156,-0.99 c -0.057,0.068 -0.092,0.192 -0.137,0.288 -0.061,0.126 -0.127,0.167 -0.257,0.12 L 0.502,-0.676 0.658,-1.171 0.399,-1.265 Z m 0.44,-0.478 0.284,0.103 C 0.84,-0.333 0.886,-0.257 0.845,-0.13 0.807,-0.007 0.727,0.023 0.612,-0.019 L 0.327,-0.122 Z"
           style="fill:#000000;fill-opacity:1;fill-rule:evenodd;stroke:none"
           transform="matrix(1.3333333,0,0,-1.3333333,181.35347,315.006)" />
      </g>
      <g
         id="g626"
         transform="matrix(0.26458333,0,0,0.26458333,59.354648,63.747086)">
        <path
           id="path627"
           d="M 0,0 0.262,0.108 1.143,-0.959 0.878,-1.068 0.69,-0.827 0.256,-1.006 0.264,-1.321 0.006,-1.427 Z m 0.25,-0.774 0.3,0.124 -0.31,0.397 -0.003,-0.002 z"
           style="fill:#000000;fill-opacity:1;fill-rule:evenodd;stroke:none"
           transform="matrix(1.3333333,0,0,-1.3333333,183.53733,314.17947)" />
        <path
           id="path628"
           d="M 0,0 0.252,0.113 0.733,-1.118 0.48,-1.231 Z"
           style="fill:#000000;fill-opacity:1;fill-rule:evenodd;stroke:none"
           transform="matrix(1.3333333,0,0,-1.3333333,184.7744,313.6528)" />
      </g>
      <g
         id="g628"
         transform="matrix(0.26458333,0,0,0.26458333,59.354648,63.747086)">
        <path
           id="path629"
           d="M 0,0 0.249,0.121 0.667,-0.869 1.22,-0.601 1.315,-0.826 0.513,-1.215 Z"
           style="fill:#000000;fill-opacity:1;fill-rule:evenodd;stroke:none"
           transform="matrix(1.3333333,0,0,-1.3333333,185.5824,313.28787)" />
      </g>
      <g
         id="g629"
         transform="matrix(0.26458333,0,0,0.26458333,59.354648,63.747086)">
        <path
           id="path630"
           d="M 0,0 H -0.079 V 0.432 L -0.253,0 H -0.3 L -0.472,0.432 V 0 h -0.08 v 0.505 h 0.13 l 0.146,-0.357 0.149,0.357 H 0 Z m -0.641,0.432 h -0.16 V 0 H -0.89 v 0.432 h -0.161 v 0.073 h 0.41 z"
           style="fill:#000000;fill-opacity:1;fill-rule:evenodd;stroke:none"
           transform="matrix(1.3333333,0,0,-1.3333333,183.57973,312.88373)" />
      </g>
      <g
         id="g630"
         transform="matrix(0.26458333,0,0,0.26458333,59.354648,63.747086)">
        <path
           id="path631"
           d="M 0,0 C 0.533,-0.03 1.207,-0.094 1.864,-0.681 2.693,-1.42 2.722,-2.574 2.308,-4.024 2.223,-4.322 1.97,-5.429 1.801,-5.717 1.085,-5.757 0.798,-5.843 0.059,-5.737 c -0.84,0.121 -1.242,0.214 -2.011,0.505 -0.53,0.212 -1.011,0.465 -1.531,0.738 -0.805,0 -1.764,-0.164 -2.378,-0.191 0.079,0.003 0.82,1.422 0.875,2.269 0.028,0.438 0.027,1.149 -0.602,1.586 -0.542,0.377 -1.063,0.235 -1.367,0.055 -0.738,-0.438 -0.684,-1.011 -0.684,-1.422 0,-0.984 0.993,-2.119 1.258,-2.543 l -2.105,-0.054 c 0,0 -0.876,2.007 -1.013,3.374 -0.136,1.367 0.123,3.628 2.693,3.846 1.862,0.159 3.879,-0.319 3.906,-3.846 0,0 0.643,1.616 -0.888,3.284 0.575,-0.355 1.149,-0.894 1.805,-0.976 0.219,-0.246 1.023,-0.911 0.858,-2.634 0.602,1.34 -0.384,2.427 -0.384,2.427 0,0 0.632,-0.567 1.124,-0.622 0,0 0.843,-0.558 0.651,-1.953 C 0.786,-0.745 0,0 0,0"
           style="fill:#000000;fill-opacity:1;fill-rule:evenodd;stroke:none"
           transform="matrix(1.3333333,0,0,-1.3333333,175.24733,296.8832)" />
      </g>
      <g
         id="g631"
         transform="matrix(0.26458333,0,0,0.26458333,59.354648,63.747086)">
        <path
           id="path632"
           d="m 0,0 -1.572,-0.527 c 0.067,-0.005 0.139,-0.01 0.216,-0.015 0.816,-0.051 1.51,-0.468 1.51,-0.468 0,0 0.15,-0.006 0.396,-0.015 C 0.489,-0.971 0.431,-0.909 0.377,-0.84 0.205,-0.622 0.072,-0.331 0,0 M 1.967,0.62 1.852,0.622 1.962,0.658 C 1.963,0.646 1.965,0.633 1.967,0.62 M 2.179,0.232 3.941,0.113 c 0.009,-0.446 0.127,-0.851 0.315,-1.151 0.013,-0.02 0.025,-0.039 0.039,-0.059 -0.268,0.006 -0.524,0.009 -0.756,0.009 -0.565,0 -1.248,0.013 -1.852,0.029 0.109,0.097 0.204,0.222 0.281,0.371 0.13,0.252 0.207,0.571 0.211,0.92 M 2.333,1.115 2.047,1.13 C 2.058,1.097 2.068,1.063 2.077,1.029 Z M 4.014,1.027 3.188,1.07 2.142,0.719 C 2.147,0.686 2.152,0.652 2.156,0.617 L 3.957,0.593 C 3.97,0.752 3.988,0.896 4.014,1.027 M 0.151,0.852 0.713,0.571 0.135,0.377 C 0.132,0.432 0.13,0.487 0.13,0.543 c 0,0.107 0.007,0.21 0.021,0.309 M 0.82,0.709 0.817,0.703 0.166,0.944 C 0.193,1.088 0.234,1.222 0.288,1.339 L 0.286,1.329 0.789,0.738 Z M 0.974,0.883 C 0.954,0.875 0.936,0.863 0.918,0.848 L 0.914,0.852 0.323,1.41 C 0.33,1.423 0.337,1.435 0.344,1.448 0.391,1.53 0.445,1.601 0.505,1.66 0.527,1.497 0.544,1.345 0.555,1.208 L 0.95,1.187 0.959,0.917 V 0.911 C 0.96,0.9 0.966,0.891 0.974,0.883 M 1.194,0.866 C 1.169,0.881 1.143,0.892 1.117,0.898 1.124,0.907 1.128,0.918 1.127,0.929 V 0.931 L 1.126,0.932 1.091,1.18 1.28,1.17 Z M 1.46,0.822 1.87,1.068 C 1.862,1.092 1.854,1.117 1.845,1.14 L 1.428,1.162 1.344,0.783 Z M 1.535,0.275 1.971,-0.044 c 0.013,0.093 0.02,0.189 0.021,0.288 z M 0.243,-0.184 0.82,0.257 0.816,0.267 0.793,0.266 0.179,0.06 C 0.196,-0.024 0.218,-0.106 0.243,-0.184 M 0.85,-0.041 0.64,-0.852 c -0.165,0.158 -0.285,0.368 -0.365,0.58 L 0.896,0.114 V 0.113 Z m 0.201,0.029 0.032,-0.148 0.16,-0.887 C 1.007,-1.04 0.914,-1.074 0.721,-0.924 l 0.289,0.831 0.026,0.087 C 1.041,-0.008 1.046,-0.01 1.051,-0.012 M 1.746,-0.7 1.264,0.012 C 1.254,0.005 1.243,-0.002 1.232,-0.007 l 0.018,-0.134 0.12,-0.9 c 0.146,0.061 0.274,0.18 0.376,0.341 m -0.382,0.826 0.435,-0.733 0.002,0.004 c 0.066,0.128 0.116,0.275 0.149,0.435 L 1.388,0.18 C 1.381,0.161 1.373,0.143 1.364,0.126 m 8.738,1.197 c 0.047,0.222 0.084,0.459 0.129,0.684 0.088,-0.075 0.167,-0.171 0.234,-0.284 z M 6.817,0.183 8.461,0.286 c 0.013,-0.364 0.098,-0.697 0.236,-0.962 0.083,-0.16 0.186,-0.297 0.305,-0.402 -0.929,-0.04 -1.869,-0.115 -1.869,-0.115 0,0 -0.355,0.017 -0.867,0.037 0.078,0.073 0.149,0.159 0.214,0.257 0.185,0.282 0.31,0.66 0.337,1.082 M 6.272,0.149 6.629,0.171 C 6.601,-0.208 6.489,-0.545 6.323,-0.797 6.223,-0.95 6.102,-1.07 5.97,-1.145 l -0.1,0.004 c 0.02,0.027 0.04,0.055 0.059,0.084 0.204,0.309 0.334,0.735 0.343,1.206 M 6.604,0.756 6.216,0.751 C 6.205,0.806 6.192,0.86 6.178,0.914 L 6.579,0.893 C 6.589,0.848 6.597,0.802 6.604,0.756 M 8.487,0.78 6.793,0.758 C 6.787,0.801 6.78,0.844 6.771,0.886 L 8.495,0.83 C 8.492,0.813 8.49,0.796 8.487,0.78 m 1.707,0.051 c -0.03,0.073 -0.071,0.131 -0.121,0.166 L 10.53,1.603 C 10.611,1.434 10.669,1.238 10.7,1.024 Z m 0.048,-0.378 c 0.006,0.073 0.004,0.143 -0.005,0.208 l 0.478,0.224 C 10.727,0.743 10.727,0.593 10.713,0.44 L 10.712,0.435 h 10e-4 C 10.709,0.393 10.704,0.351 10.698,0.31 Z m -0.169,-0.468 c 0.055,0.068 0.101,0.159 0.132,0.265 L 10.677,0.183 C 10.623,-0.106 10.522,-0.365 10.392,-0.576 Z M 9.306,0.803 9.303,0.79 8.677,0.782 C 8.679,0.796 8.681,0.81 8.683,0.823 Z M 8.673,0.02 9.156,0.329 8.648,0.298 C 8.651,0.202 8.659,0.11 8.673,0.02 M 8.888,-0.635 9.363,0.143 C 9.356,0.155 9.349,0.168 9.343,0.181 L 8.698,-0.117 C 8.735,-0.291 8.791,-0.451 8.863,-0.589 8.871,-0.605 8.879,-0.62 8.888,-0.635 m 0.793,-0.421 0.04,0.951 c 0.009,0 0.018,0.001 0.026,0.003 0.027,-0.019 0.057,-0.03 0.088,-0.034 0.012,-0.002 0.024,-0.002 0.036,-0.001 l 0.445,-0.551 C 10.308,-0.699 10.299,-0.709 10.291,-0.72 10.174,-0.87 10.04,-0.985 9.897,-1.053 9.827,-1.054 9.755,-1.055 9.681,-1.056 M 9.52,-0.03 9.551,-1.059 C 9.476,-1.061 9.399,-1.063 9.321,-1.066 9.187,-1.004 9.067,-0.898 8.967,-0.759 l 0.53,0.743 C 9.505,-0.021 9.512,-0.026 9.52,-0.03 M 5.501,0.742 5.57,0.945 5.98,0.924 C 5.997,0.867 6.012,0.808 6.026,0.748 Z M 5.217,0.738 5.21,0.964 5.447,0.952 5.348,0.74 Z M 4.193,0.969 4.658,0.583 4.145,0.59 c 0.01,0.139 0.026,0.265 0.048,0.379 M 4.819,0.675 4.375,1.008 4.73,0.989 Z M 5.053,0.711 C 5.047,0.712 5.04,0.712 5.033,0.712 5.01,0.713 4.988,0.709 4.967,0.701 L 4.854,0.983 5.074,0.971 Z M 5.449,0.097 6.024,-0.345 c 0.035,0.151 0.056,0.313 0.06,0.482 z M 5.402,-0.153 5.788,-0.931 C 5.871,-0.8 5.94,-0.645 5.991,-0.474 L 5.416,-0.076 C 5.407,-0.106 5.397,-0.134 5.385,-0.161 Z M 5.224,-0.353 5.218,-1.12 c 0.141,-0.004 0.28,-0.009 0.414,-0.013 0.025,0.026 0.049,0.054 0.073,0.084 L 5.292,-0.302 C 5.271,-0.324 5.248,-0.341 5.224,-0.353 m -1.043,0.012 0.557,0.322 C 4.732,0.006 4.728,0.033 4.725,0.061 l -0.596,0.04 c 0.004,-0.154 0.022,-0.302 0.052,-0.442 m 0.351,-0.758 0.313,0.834 c -0.022,0.027 -0.042,0.06 -0.06,0.097 L 4.206,-0.445 C 4.255,-0.631 4.326,-0.798 4.415,-0.939 4.451,-0.997 4.49,-1.05 4.532,-1.099 M 4.981,-0.353 4.624,-1.104 C 4.786,-1.107 4.949,-1.112 5.111,-1.117 L 5.047,-0.352 C 5.034,-0.355 5.02,-0.356 5.007,-0.356 c -0.009,0 -0.017,0.001 -0.026,0.003 M 0.143,3.571 c 0.378,-0.039 1.208,0.055 1.586,0.055 0.984,0 2.344,0.166 3.417,0.246 C 5.484,3.713 5.867,3.484 6.185,3.325 6.444,3.186 7.22,2.951 7.555,2.861 8.373,2.642 8.543,2.683 9.637,2.601 9.964,2.576 10.277,2.642 10.416,2.642 10.358,2.514 10.313,2.367 10.275,2.21 10.434,2.099 10.569,1.936 10.674,1.735 10.855,1.386 10.945,0.92 10.899,0.419 H 10.9 10.899 V 0.418 0.414 c -0.047,-0.498 -0.219,-0.939 -0.46,-1.249 -0.065,-0.084 -0.136,-0.158 -0.21,-0.221 0.056,-0.002 0.109,-0.004 0.159,-0.006 0.963,-0.053 1.198,-0.105 1.198,-0.105 0,0 0.286,0.235 0.703,0.261 0.416,0.026 0.729,0.078 0.729,0.078 0,0 0.547,0.338 0.911,0.338 0.365,0 1.302,0.183 1.302,0.183 l 0.247,-0.077 c 0.072,-1.028 0.024,-1.642 0.024,-1.642 0,0 -4.734,-2.708 -10.821,-2.708 -6.087,0 -10.822,2.705 -10.822,2.705 0,0 -0.063,0.803 0.062,2.11 l 0.01,0.002 1.823,0.313 0.677,-0.287 0.573,-0.026 0.799,-0.488 2.149,0.721 c -0.007,0.079 -0.01,0.154 -0.01,0.227 0,0.385 0.088,0.736 0.24,0.999 0.08,0.139 0.179,0.254 0.292,0.336 C 0.428,2.179 0.37,2.506 0.307,2.833 0.267,2.992 0.222,3.452 0.143,3.571"
           style="fill:#000000;fill-opacity:1;fill-rule:evenodd;stroke:none"
           transform="matrix(1.3333333,0,0,-1.3333333,163.70573,308.3292)" />
      </g>
    </g>
  </g>
</svg>
