<?xml version="1.0" encoding="UTF-8" standalone="no"?>
<!-- Created with Inkscape (http://www.inkscape.org/) -->

<svg
   width="25.576387mm"
   height="25.576387mm"
   viewBox="0 0 25.576387 25.576387"
   version="1.1"
   id="svg1"
   inkscape:version="1.3 (0e150ed, 2023-07-21)"
   sodipodi:docname="MUTCD_M10-2.svg"
   xmlns:inkscape="http://www.inkscape.org/namespaces/inkscape"
   xmlns:sodipodi="http://sodipodi.sourceforge.net/DTD/sodipodi-0.dtd"
   xmlns="http://www.w3.org/2000/svg"
   xmlns:svg="http://www.w3.org/2000/svg">
  <sodipodi:namedview
     id="namedview1"
     pagecolor="#ffffff"
     bordercolor="#666666"
     borderopacity="1.0"
     inkscape:showpageshadow="2"
     inkscape:pageopacity="0.0"
     inkscape:pagecheckerboard="0"
     inkscape:deskcolor="#d1d1d1"
     inkscape:document-units="mm"
     inkscape:zoom="1"
     inkscape:cx="48"
     inkscape:cy="48"
     inkscape:window-width="1440"
     inkscape:window-height="431"
     inkscape:window-x="0"
     inkscape:window-y="23"
     inkscape:window-maximized="0"
     inkscape:current-layer="layer1" />
  <defs
     id="defs1">
    <clipPath
       clipPathUnits="userSpaceOnUse"
       id="clipPath565">
      <path
         d="M 67.25,38.996 H 571.751 V 743 H 67.25 Z"
         transform="translate(-96.002702,-605.90002)"
         id="path565" />
    </clipPath>
  </defs>
  <g
     inkscape:label="Layer 1"
     inkscape:groupmode="layer"
     id="layer1"
     transform="translate(-91.545832,-135.73125)">
    <g
       id="g563"
       transform="matrix(0.26458333,0,0,0.26458333,59.353873,95.611598)">
      <path
         id="path564"
         d="m 0,0 c -2.55,0 -4.625,2.075 -4.625,4.625 v 63 c 0,2.55 2.075,4.625 4.625,4.625 h 63 c 2.55,0 4.625,-2.075 4.625,-4.625 v -63 C 67.625,2.075 65.55,0 63,0 Z"
         style="fill:#ffffff;fill-opacity:1;fill-rule:nonzero;stroke:none"
         transform="matrix(1.3333333,0,0,-1.3333333,128.0036,248.13333)"
         clip-path="url(#clipPath565)" />
    </g>
    <g
       id="g565"
       transform="matrix(0.26458333,0,0,0.26458333,59.353873,95.611598)">
      <path
         id="path566"
         d="m 0,0 h -63 c -2.619,0 -4.75,-2.131 -4.75,-4.75 v -63 c 0,-2.619 2.131,-4.75 4.75,-4.75 H 0 c 2.619,0 4.75,2.131 4.75,4.75 v 63 C 4.75,-2.131 2.619,0 0,0 m 0,-0.25 c 2.485,0 4.5,-2.015 4.5,-4.5 v -63 c 0,-2.485 -2.015,-4.5 -4.5,-4.5 h -63 c -2.485,0 -4.5,2.015 -4.5,4.5 v 63 c 0,2.485 2.015,4.5 4.5,4.5 z"
         style="fill:#000000;fill-opacity:1;fill-rule:nonzero;stroke:none"
         transform="matrix(1.3333333,0,0,-1.3333333,212.00373,151.63333)" />
    </g>
    <g
       id="g566"
       transform="matrix(0.26458333,0,0,0.26458333,59.353873,95.611598)">
      <path
         id="path567"
         d="m 0,0 h -63 c -1.657,0 -3,1.343 -3,3 v 63 c 0,1.657 1.343,3 3,3 H 0 c 1.657,0 3,-1.343 3,-3 V 3 C 3,1.343 1.657,0 0,0"
         style="fill:#7d4802;fill-opacity:1;fill-rule:nonzero;stroke:none"
         transform="matrix(1.3333333,0,0,-1.3333333,212.00373,245.96653)" />
      <path
         id="path568"
         d="m 0,0 c -0.342,0 -1.888,0.07 -1.888,-4.509 0,-4.612 1.546,-4.542 1.888,-4.542 0.342,0 1.887,-0.07 1.887,4.542 C 1.887,0.07 0.342,0 0,0 m -3.541,-4.5 c 0,6.283 2.914,6.183 3.561,6.183 0.646,0 3.521,0.096 3.521,-6.188 0,-6.328 -2.875,-6.229 -3.521,-6.229 -0.647,0 -3.561,-0.099 -3.561,6.234"
         style="fill:#ffffff;fill-opacity:1;fill-rule:nonzero;stroke:none"
         transform="matrix(1.3333333,0,0,-1.3333333,162.1616,166.93267)" />
      <path
         id="path569"
         d="M 0,0 1.68,0.927 V -11.289 H 0 Z"
         style="fill:#ffffff;fill-opacity:1;fill-rule:nonzero;stroke:none"
         transform="matrix(1.3333333,0,0,-1.3333333,169.764,165.91467)" />
      <path
         id="path570"
         d="m 0,0 c -1.096,0 -1.351,-1.683 -1.351,-2.948 0,-1.306 0.304,-3.032 1.309,-3.032 0.886,0 1.394,0.651 1.394,1.684 v 2.611 C 1.352,-0.357 0.719,0 0,0 m 1.393,-7.371 v 0.422 c 0,0 -0.59,-0.588 -1.351,-0.588 -2.607,0 -3.082,2.443 -3.082,4.591 0,2.118 0.475,4.548 2.871,4.548 0.972,0 1.562,-0.462 1.562,-0.462 V 3.918 L 3.082,4.845 V -7.371 Z"
         style="fill:#ffffff;fill-opacity:1;fill-rule:nonzero;stroke:none"
         transform="matrix(1.3333333,0,0,-1.3333333,178.45813,171.13853)" />
      <path
         id="path571"
         d="m 0,0 c 1.312,-0.823 3.28,-1.977 3.28,-4.345 0,-1.943 -1.48,-3.494 -3.34,-3.494 -2.113,0 -3.382,1.788 -3.382,3.747 h 1.692 c 0,-1.021 0.507,-2.064 1.69,-2.064 0.93,0 1.691,0.842 1.691,1.811 0,2.608 -4.481,2.458 -4.481,5.811 0,1.726 1.353,3.113 3.086,3.113 1.691,0 3.002,-1.305 3.044,-3.115 H 1.631 C 1.589,2.305 0.996,2.853 0.236,2.853 -0.568,2.853 -1.201,2.265 -1.201,1.466 -1.201,0.686 -0.787,0.494 0,0"
         style="fill:#ffffff;fill-opacity:1;fill-rule:nonzero;stroke:none"
         transform="matrix(1.3333333,0,0,-1.3333333,151.06293,197.79453)" />
      <path
         id="path572"
         d="M 0,0 C 0,1.137 -0.649,1.389 -1.488,1.389 -2.127,1.389 -2.721,1.011 -2.721,0 V -6.024 H -4.422 V 5.265 l 1.658,0.927 V 2.612 C -2.343,2.815 -1.618,2.987 -1.15,2.987 0.37,2.987 1.701,1.966 1.701,0 V -6.024 H 0 Z"
         style="fill:#ffffff;fill-opacity:1;fill-rule:nonzero;stroke:none"
         transform="matrix(1.3333333,0,0,-1.3333333,163.73333,199.93467)" />
      <path
         id="path573"
         d="m 0,0 c 0,-0.885 0.169,-2.991 1.402,-2.991 1.25,0 1.403,2.148 1.403,3.033 0,0.849 -0.175,2.944 -1.403,2.944 V 2.991 C 0.169,2.991 0,0.885 0,0 m -1.659,0.04 c 0,1.941 0.51,4.548 3.061,4.548 2.552,0 3.062,-2.442 3.062,-4.548 0,-2.094 -0.51,-4.591 -3.062,-4.591 -2.555,0 -3.061,2.316 -3.061,4.591"
         style="fill:#ffffff;fill-opacity:1;fill-rule:nonzero;stroke:none"
         transform="matrix(1.3333333,0,0,-1.3333333,170.45373,202.12053)" />
      <path
         id="path574"
         d="m 0,0 c -0.969,0 -1.097,-0.631 -1.097,-1.727 v -5.602 h -1.645 v 8.76 h 1.644 v -0.42 c 0.421,0.421 0.592,0.632 1.18,0.632 0.588,0 0.848,-0.252 1.139,-0.59 L 0.969,-0.505 C 0.631,-0.211 0.379,0 0,0"
         style="fill:#ffffff;fill-opacity:1;fill-rule:nonzero;stroke:none"
         transform="matrix(1.3333333,0,0,-1.3333333,182.46227,198.19467)" />
      <path
         id="path575"
         d="m 0,0 h 2.761 c 0,0.839 -0.129,2.187 -1.36,2.187 V 2.19 C 0.168,2.19 0,0.885 0,0 m 1.401,-3.792 c 0.678,0 1.233,0.631 1.402,1.389 L 4.122,-3.372 C 3.694,-4.509 2.887,-5.393 1.401,-5.393 c -2.552,0 -3.058,2.317 -3.058,4.592 0,1.987 0.51,4.548 3.058,4.548 2.718,0 3.064,-2.674 3.064,-4.791 V -1.518 H 0.042 c 0.084,-0.969 0.381,-2.274 1.359,-2.274"
         style="fill:#ffffff;fill-opacity:1;fill-rule:nonzero;stroke:none"
         transform="matrix(1.3333333,0,0,-1.3333333,187.58067,200.99853)" />
      <path
         id="path576"
         d="m 0,0 v -3.031 h 1.764 c 1.011,0 1.555,0.547 1.555,1.516 C 3.319,-0.588 2.689,0 1.765,0 Z M 1.639,-4.674 H 0 v -5.641 h -1.722 v 12 h 3.571 c 1.883,0 3.152,-1.263 3.152,-3.2 0,-1.431 -0.59,-2.484 -1.724,-2.905 l 1.722,-5.895 H 3.237 Z"
         style="fill:#ffffff;fill-opacity:1;fill-rule:nonzero;stroke:none"
         transform="matrix(1.3333333,0,0,-1.3333333,152.93107,221.21267)" />
      <path
         id="path577"
         d="m 0,0 c 0,-0.885 0.169,-2.991 1.402,-2.991 1.25,0 1.403,2.148 1.403,3.033 0,0.849 -0.176,2.945 -1.403,2.945 V 2.991 C 0.169,2.991 0,0.885 0,0 m -1.659,0.041 c 0,1.941 0.51,4.548 3.061,4.548 2.552,0 3.062,-2.443 3.062,-4.548 0,-2.094 -0.51,-4.592 -3.062,-4.592 -2.555,0 -3.061,2.316 -3.061,4.592"
         style="fill:#ffffff;fill-opacity:1;fill-rule:nonzero;stroke:none"
         transform="matrix(1.3333333,0,0,-1.3333333,163.73173,229.12053)" />
      <path
         id="path578"
         d="m 0,0 c -0.676,0 -1.292,-0.445 -1.292,-1.425 0,-1.087 0.592,-1.558 1.43,-1.558 0.588,0 1.01,0.254 1.01,0.799 l 0.001,1.727 C 0.88,-0.211 0.364,0 0,0 M 1.232,-4.08 C 0.937,-4.332 0.307,-4.456 -0.24,-4.456 c -1.473,0 -2.734,1.305 -2.734,3.075 0,1.879 1.195,2.962 2.648,2.962 0.43,0 1.088,-0.162 1.474,-0.351 -0.043,1.053 -0.046,1.852 -1.388,1.852 -0.757,0 -1.515,-0.631 -1.809,-1.095 l -0.42,1.641 c 0.716,0.674 1.598,1.011 2.439,1.011 2.316,0 2.818,-1.688 2.818,-3.117 V -4.332 H 1.232 Z"
         style="fill:#ffffff;fill-opacity:1;fill-rule:nonzero;stroke:none"
         transform="matrix(1.3333333,0,0,-1.3333333,175.25,229.19053)" />
      <path
         id="path579"
         d="m 0,0 c -1.097,0 -1.351,-1.683 -1.351,-2.948 0,-1.306 0.304,-3.032 1.309,-3.032 0.886,0 1.394,0.651 1.394,1.684 v 2.611 C 1.352,-0.357 0.719,0 0,0 m 1.393,-7.371 v 0.422 c 0,0 -0.59,-0.588 -1.351,-0.588 -2.607,0 -3.082,2.443 -3.082,4.591 0,2.118 0.475,4.548 2.871,4.548 0.972,0 1.562,-0.462 1.562,-0.462 V 3.918 L 3.082,4.845 V -7.371 Z"
         style="fill:#ffffff;fill-opacity:1;fill-rule:nonzero;stroke:none"
         transform="matrix(1.3333333,0,0,-1.3333333,185.26253,225.13853)" />
    </g>
  </g>
</svg>
