<?xml version="1.0" encoding="UTF-8"?>
<svg id="M4-8a" xmlns="http://www.w3.org/2000/svg" width="24in" height="18in" viewBox="0 0 1728 1296">
  <rect width="1728" height="1296" rx="108" ry="108" fill="#dd7500"/>
  <path d="M1620,27H108c-44.66,0-81,36.34-81,81v1080c0,44.66,36.34,81,81,81h1512c44.66,0,81-36.34,81-81V108c0-44.66-36.34-81-81-81ZM1656,1188c0,19.85-16.15,36-36,36H108c-19.85,0-36-16.15-36-36V108c0-19.85,16.15-36,36-36h1512c19.85,0,36,16.15,36,36v1080Z"/>
  <g id="END">
    <path d="M521.06,252h169.56v45.47h-124.13v70.74h83.77v46.48h-83.77v78.84h133.2v46.48h-178.63V252Z"/>
    <path d="M792.61,344.99v195.01h-45.43V252h45.43l105.12,183.92v-183.92h45.5v288h-40.43l-110.2-195.01Z"/>
    <path d="M1010.88,540V252h103.9c72.68,0,92.16,95.72,92.16,137.52,0,108.04-55.55,150.48-91.98,150.48h-104.08ZM1107.86,297.47h-51.55v196.02h48.35c41.9,0,55.66-50.76,55.66-104.98,0-25.78-7.34-91.04-52.45-91.04Z"/>
  </g>
  <g id="DETOUR">
    <path d="M164.16,1044v-288h107.6c75.27,0,95.44,95.72,95.44,137.52,0,108.04-57.53,150.48-95.26,150.48h-107.78ZM264.6,801.46h-53.39v196.02h50.07c43.4,0,57.64-50.76,57.64-104.98,0-25.78-7.61-91.04-54.32-91.04Z"/>
    <path d="M421.46,756h175.6v45.47h-128.55v70.74h86.76v46.48h-86.76v78.84h137.94v46.48h-184.99v-288Z"/>
    <path d="M734.57,1044h-47.31v-247.57h-68.3v-40.43h184.99v40.43h-69.38v247.57Z"/>
    <path d="M1043.28,900c0,10.33,2.27,149.04-105.96,149.04s-105.96-138.71-105.96-149.04-2.27-149,105.96-149,105.96,138.67,105.96,149ZM937.85,1002.6c32.14,0,58.23-29.41,58.23-102.6s-26.1-102.6-58.23-102.6-58.23,29.38-58.23,102.6,26.1,102.6,58.23,102.6Z"/>
    <path d="M1097.54,940.93v-184.93h47.05v184.93c0,37.4,22,61.63,54.43,61.63s54.43-24.23,54.43-61.63v-184.93h47.12v184.93c0,91.08-72.36,108.11-101.52,108.11-26.54,0-101.52-15.08-101.52-108.11Z"/>
    <path d="M1407.85,918.64v125.35h-47.05v-288h107.89c68.37,0,88.88,52.81,88.88,80.89,0,10.69-4.1,52.81-46.3,72.11l52.57,135h-51.3l-48.13-125.35h-56.56ZM1467.09,872.2c37.43,0,43.32-26.06,43.32-35.35,0-12.56-9.73-35.39-41.05-35.39h-61.52v70.74h59.24Z"/>
  </g>
</svg>