<?xml version="1.0" encoding="UTF-8"?>
<svg id="M4-8a" xmlns="http://www.w3.org/2000/svg" width="24in" height="12in" viewBox="0 0 1728 864">
  <rect width="1728" height="864" rx="108" ry="108" fill="#dd7500"/>
  <path d="M1620,27H108c-44.66,0-81,36.34-81,81v648c0,44.66,36.34,81,81,81h1512c44.66,0,81-36.34,81-81V108c0-44.66-36.34-81-81-81ZM1656,756c0,19.85-16.15,36-36,36H108c-19.85,0-36-16.15-36-36V108c0-19.85,16.15-36,36-36h1512c19.85,0,36,16.15,36,36v648Z"/>
  <g id="END">
    <path d="M255.89,216h316.39v77.33h-237.28v80.3h129.28v78.84h-129.28v118.21h244.89v77.33H255.89V216Z"/>
    <path d="M739.02,350.89v297.11h-76.09V216h76.03l199.53,285.01V216h74.58v432h-67.02l-207.04-297.11Z"/>
    <path d="M1122.02,216h139.48c124.53,0,210.6,90.5,210.6,215.24s-76.95,216.76-206.77,216.76h-143.32V216ZM1200.76,293.33v277.34h59.89c69.23,0,134.3-45.68,134.3-139.43,0-87.16-54.59-137.92-133.71-137.92h-60.48Z"/>
  </g>
</svg>