<?xml version="1.0" encoding="UTF-8"?>
<svg id="M4-10R" xmlns="http://www.w3.org/2000/svg" width="48in" height="18in" viewBox="0 0 3456 1296">
  <rect width="3456" height="1296" rx="108" ry="108"/>
  <path d="M3258,648c0,.01-825.05,566.47-825.0601,566.48-14.6299,10.9299-32.78,17.4-52.4399,17.4-48.46,0-87.75-39.29-87.75-87.76,0-12.16,2.47-23.74,6.95-34.27,0-.01,0-.02.01-.02.47-1.4399,24.4199-76.0099,52.9302-164.83H216V351h2136.6401c-28.5103-88.82-52.4602-163.39-52.9302-164.83q-.01-.01-.01-.02c-4.48-10.53-6.95-22.11-6.95-34.27,0-48.47,39.29-87.76,87.75-87.76,19.6599,0,37.8101,6.47,52.4399,17.4.01.01,825.0601,566.47,825.0601,566.48Z" style="fill: #dd7500;"/>
  <g id="DETOUR">
    <path d="M360,863.9995v-432.0033h155.78c108.9807,0,138.1831,143.5872,138.1831,206.2815,0,162.0553-83.2881,225.7218-137.9132,225.7218h-156.0499ZM505.4163,500.1988h-77.2965v294.0318h72.4924c62.83,0,83.4496-76.14,83.4496-157.4645,0-38.6647-11.0114-136.5672-78.6455-136.5672Z"/>
    <path d="M726.8274,431.9962h254.2354v68.2026h-186.1157v106.111h125.6064v69.7148h-125.6064v118.2608h199.7178v69.7143h-267.8375v-432.0033Z"/>
    <path d="M1174.4581,863.9995h-68.498v-371.3607h-98.8874v-60.6426h267.838v60.6426h-100.4526v371.3607Z"/>
    <path d="M1615.7161,647.9979c0,15.4984,3.2925,223.5621-153.4051,223.5621s-153.4046-208.0637-153.4046-223.5621-3.2925-223.5075,153.4046-223.5075,153.4051,208.0095,153.4051,223.5075ZM1463.067,801.8994c46.5289,0,84.313-44.1188,84.313-153.9016s-37.7841-153.9011-84.313-153.9011-84.3135,44.0641-84.3135,153.9011,37.7846,153.9016,84.3135,153.9016Z"/>
    <path d="M1688.5784,709.3963v-277.4001h68.1203v277.4001c0,56.107,31.8467,92.4485,78.8081,92.4485s78.8071-36.3415,78.8071-92.4485v-277.4001h68.2276v277.4001c0,136.621-104.7706,162.1637-146.981,162.1637-38.4318,0-146.982-22.6268-146.982-162.1637Z"/>
    <path d="M2132.1572,675.9698v188.0297h-68.1203v-432.0033h156.2115c98.9957,0,128.6832,79.2186,128.6832,121.3389,0,16.038-5.9379,79.2186-67.0406,108.1632l76.109,202.5013h-74.2739l-69.685-188.0297h-81.8839ZM2217.9271,606.3097c54.1936,0,62.7222-39.0964,62.7222-53.0284,0-18.8465-14.0877-53.0826-59.4287-53.0826h-89.0635v106.111h85.7699Z"/>
  </g>
</svg>