<?xml version="1.0" encoding="UTF-8" standalone="no"?>
<!-- Created with Inkscape (http://www.inkscape.org/) -->

<svg
   width="198.4286mm"
   height="198.4286mm"
   viewBox="0 0 198.4286 198.4286"
   version="1.1"
   id="svg2405"
   sodipodi:docname="MUTCD W11-2 (1961-1988).svg"
   inkscape:version="1.1 (c68e22c387, 2021-05-23)"
   xmlns:inkscape="http://www.inkscape.org/namespaces/inkscape"
   xmlns:sodipodi="http://sodipodi.sourceforge.net/DTD/sodipodi-0.dtd"
   xmlns="http://www.w3.org/2000/svg"
   xmlns:svg="http://www.w3.org/2000/svg"
   xmlns:rdf="http://www.w3.org/1999/02/22-rdf-syntax-ns#"
   xmlns:cc="http://creativecommons.org/ns#"
   xmlns:dc="http://purl.org/dc/elements/1.1/">
  <defs
     id="defs2399" />
  <sodipodi:namedview
     id="base"
     pagecolor="#ffffff"
     bordercolor="#666666"
     borderopacity="1.0"
     inkscape:pageopacity="0.0"
     inkscape:pageshadow="2"
     inkscape:zoom="0.49497475"
     inkscape:cx="176.77669"
     inkscape:cy="344.46202"
     inkscape:document-units="mm"
     inkscape:current-layer="text1610"
     showgrid="false"
     fit-margin-top="0"
     fit-margin-left="0"
     fit-margin-right="0"
     fit-margin-bottom="0"
     inkscape:window-width="1366"
     inkscape:window-height="705"
     inkscape:window-x="-8"
     inkscape:window-y="-8"
     inkscape:window-maximized="1"
     inkscape:pagecheckerboard="0" />
  <metadata
     id="metadata2402">
    <rdf:RDF>
      <cc:Work
         rdf:about="">
        <dc:format>image/svg+xml</dc:format>
        <dc:type
           rdf:resource="http://purl.org/dc/dcmitype/StillImage" />
      </cc:Work>
    </rdf:RDF>
  </metadata>
  <g
     inkscape:label="Layer 1"
     inkscape:groupmode="layer"
     id="layer1"
     transform="translate(34.10697,-132.67836)">
    <rect
       style="fill:#ffd116;fill-opacity:1;stroke:none;stroke-width:0.264583;stroke-miterlimit:4;stroke-dasharray:none;stroke-dashoffset:0;stroke-opacity:1"
       id="rect2950"
       width="148.04266"
       height="148.04266"
       x="43.913704"
       y="-284.03204"
       rx="13.229167"
       ry="13.229167"
       transform="rotate(135)" />
    <rect
       style="fill:#000000;fill-opacity:1;stroke:none;stroke-width:0.264583;stroke-miterlimit:4;stroke-dasharray:none;stroke-dashoffset:0;stroke-opacity:1"
       id="rect2950-7"
       width="145.40312"
       height="145.40312"
       x="45.233475"
       y="-282.71228"
       rx="11.90626"
       ry="11.90626"
       transform="rotate(135)" />
    <rect
       style="fill:#ffd116;fill-opacity:1;stroke:none;stroke-width:0.264583;stroke-miterlimit:4;stroke-dasharray:none;stroke-dashoffset:0;stroke-opacity:1"
       id="rect2950-7-6"
       width="137.46556"
       height="137.46556"
       x="49.202255"
       y="-278.7435"
       rx="7.9375"
       ry="7.9375"
       transform="rotate(135)" />
    <flowRoot
       xml:space="preserve"
       id="flowRoot3004"
       style="font-style:normal;font-variant:normal;font-weight:normal;font-stretch:normal;font-size:20px;line-height:1.25;font-family:'Roadgeek 2005 Series C';-inkscape-font-specification:'Roadgeek 2005 Series C';letter-spacing:0px;word-spacing:0px;fill:#000000;fill-opacity:1;stroke:none"
       transform="matrix(0.26458333,0,0,0.26458333,-35.018256,93.893122)"><flowRegion
         id="flowRegion3006"><rect
           id="rect3008"
           width="271.42856"
           height="25.714285"
           x="882.85712"
           y="331.42905" /></flowRegion><flowPara
         id="flowPara3010" /></flowRoot>
    <g
       aria-label="PED
XING"
       id="text1610"
       style="font-stretch:semi-condensed;font-size:48.6083px;line-height:1.25;font-family:Bahnschrift;-inkscape-font-specification:'Bahnschrift Semi-Condensed';text-align:center;text-anchor:middle;stroke-width:1.21521">
      <path
         d="M 36.628604,213.03956 H 27.29581 v 12.78399 h -5.832996 v -32.56757 h 14.971357 q 3.208147,0 5.589954,1.36104 5.006655,2.9165 5.006655,8.60367 0,6.12464 -5.006655,8.7981 -2.381807,1.02077 -5.395521,1.02077 z m 4.56918,-9.81887 q 0,-1.89573 -1.263816,-3.01372 -1.263816,-1.11799 -3.402581,-1.11799 H 27.29581 v 8.11759 h 9.235577 q 2.138765,0 3.402581,-1.06939 1.263816,-1.11799 1.263816,-2.91649 z"
         style="font-stretch:normal;font-family:'Highway Gothic Wide';-inkscape-font-specification:'Highway Gothic Wide'"
         id="path832" />
      <path
         d="m 78.285868,225.82355 h -24.30415 v -32.56757 h 23.769458 v 5.833 H 59.911931 v 6.07604 h 9.72166 v 5.93021 h -9.72166 v 8.89532 h 18.373937 z"
         style="font-stretch:normal;font-family:'Highway Gothic Wide';-inkscape-font-specification:'Highway Gothic Wide'"
         id="path834" />
      <path
         d="m 111.24223,209.49116 q 0,10.01331 -7.87455,14.38805 -3.548405,1.94434 -7.680111,1.94434 H 85.188177 v -32.56757 h 10.499392 q 4.180314,0 7.777331,2.09016 7.77733,4.42336 7.77733,14.14502 z m -5.833,0 q 0,-6.46491 -4.81222,-9.13836 -2.235984,-1.26382 -4.909441,-1.26382 h -4.56918 v 20.90157 h 4.56918 q 2.381807,0 4.666401,-1.26382 5.05526,-2.72206 5.05526,-9.23557 z"
         style="font-stretch:normal;font-family:'Highway Gothic Wide';-inkscape-font-specification:'Highway Gothic Wide'"
         id="path836" />
      <path
         d="m 40.444378,270.8098 h -6.853771 l -7.291245,-11.52016 -7.194028,11.52016 h -6.85377 l 10.645218,-17.11012 -9.72166,-15.45744 h 6.950986 l 6.173254,9.96471 6.173254,-9.96471 h 6.950987 l -9.575835,15.45744 z"
         style="font-stretch:normal;font-family:'Highway Gothic Wide';-inkscape-font-specification:'Highway Gothic Wide'"
         id="path838" />
      <path
         d="m 52.839458,270.8098 h -5.832996 v -32.56756 h 5.832996 z"
         style="font-stretch:normal;font-family:'Highway Gothic Wide';-inkscape-font-specification:'Highway Gothic Wide'"
         id="path840" />
      <path
         d="M 86.670745,270.8098 H 81.66409 L 66.109435,248.83885 v 21.97095 h -5.687172 v -32.56756 h 5.687172 l 14.971356,21.72791 v -21.72791 h 5.589954 z"
         style="font-stretch:normal;font-family:'Highway Gothic Wide';-inkscape-font-specification:'Highway Gothic Wide'"
         id="path842" />
      <path
         d="m 107.18342,254.57463 h 12.3465 v 4.22892 q 0,5.29831 -3.79144,8.94393 -3.74284,3.64562 -9.13836,3.64562 -6.70795,0 -10.353572,-5.2983 -3.110931,-4.56918 -3.110931,-11.61738 0,-7.48568 3.69423,-12.10347 3.694233,-4.6664 9.770273,-4.6664 8.40923,0 12.20068,6.75656 l -5.44413,2.72206 q -2.57624,-3.69423 -6.75655,-3.69423 -3.40259,0 -5.54135,3.11093 -2.090157,3.06232 -2.090157,7.87455 0,4.66639 1.555467,7.48567 1.94433,3.59702 6.07604,3.59702 2.3818,0 4.32613,-1.45825 1.94434,-1.45825 2.52764,-3.69423 h -6.27047 z"
         style="font-stretch:normal;font-family:'Highway Gothic Wide';-inkscape-font-specification:'Highway Gothic Wide'"
         id="path844" />
    </g>
  </g>
</svg>
