<?xml version="1.0" encoding="UTF-8" standalone="no"?>
<svg
   xmlns:dc="http://purl.org/dc/elements/1.1/"
   xmlns:cc="http://creativecommons.org/ns#"
   xmlns:rdf="http://www.w3.org/1999/02/22-rdf-syntax-ns#"
   xmlns:svg="http://www.w3.org/2000/svg"
   xmlns="http://www.w3.org/2000/svg"
   xmlns:sodipodi="http://sodipodi.sourceforge.net/DTD/sodipodi-0.dtd"
   xmlns:inkscape="http://www.inkscape.org/namespaces/inkscape"
   width="18.691578mm"
   height="9.345789mm"
   viewBox="0 0 18.691578 9.345789"
   version="1.1"
   id="svg1950"
   inkscape:version="1.0 (4035a4fb49, 2020-05-01)"
   sodipodi:docname="W4-4aPR.svg">
  <defs
     id="defs1944">
    <clipPath
       id="clipPath1333"
       clipPathUnits="userSpaceOnUse">
      <path
         id="path1331"
         d="M 63,45 H 575.952 V 379.614 H 63 Z" />
    </clipPath>
  </defs>
  <sodipodi:namedview
     id="base"
     pagecolor="#ffffff"
     bordercolor="#666666"
     borderopacity="1.0"
     inkscape:pageopacity="0.0"
     inkscape:pageshadow="2"
     inkscape:zoom="12.100695"
     inkscape:cx="35.322657"
     inkscape:cy="17.661327"
     inkscape:document-units="mm"
     inkscape:current-layer="g1329"
     inkscape:document-rotation="0"
     showgrid="false"
     inkscape:window-width="1600"
     inkscape:window-height="836"
     inkscape:window-x="0"
     inkscape:window-y="0"
     inkscape:window-maximized="1" />
  <metadata
     id="metadata1947">
    <rdf:RDF>
      <cc:Work
         rdf:about="">
        <dc:format>image/svg+xml</dc:format>
        <dc:type
           rdf:resource="http://purl.org/dc/dcmitype/StillImage" />
        <dc:title />
      </cc:Work>
    </rdf:RDF>
  </metadata>
  <g
     inkscape:label="Layer 1"
     inkscape:groupmode="layer"
     id="layer1"
     transform="translate(-134.65454,-206.23668)">
    <g
       id="g4764">
      <g
         transform="matrix(0.35277777,0,0,-0.35277777,37.790933,236.79217)"
         id="g1327">
        <g
           id="g1329"
           clip-path="url(#clipPath1333)">
          <g
             id="g1335"
             transform="translate(327.558,63.433)">
            <path
               d="m 0,0 c 0,-1.829 -1.482,-3.311 -3.31,-3.311 h -46.362 c -1.83,0 -3.312,1.482 -3.312,3.311 v 19.869 c 0,1.829 1.482,3.312 3.312,3.312 H -3.31 c 1.828,0 3.31,-1.483 3.31,-3.312 z"
               style="fill:#fccf34;fill-opacity:1;fill-rule:nonzero;stroke:none"
               id="path1337" />
          </g>
          <g
             id="g1343"
             transform="translate(325.765,63.433)">
            <path
               d="m 0,0 c 0,-0.837 -0.682,-1.517 -1.517,-1.517 h -46.362 c -0.838,0 -1.517,0.68 -1.517,1.517 v 19.869 c 0,0.837 0.679,1.518 1.517,1.518 H -1.517 C -0.682,21.387 0,20.706 0,19.869 Z m -1.517,22.353 h -46.362 c -1.369,0 -2.484,-1.114 -2.484,-2.484 V 0 c 0,-1.369 1.115,-2.484 2.484,-2.484 h 46.362 c 1.369,0 2.482,1.115 2.482,2.484 v 19.869 c 0,1.37 -1.113,2.484 -2.482,2.484"
               style="fill:#231f20;fill-opacity:1;fill-rule:nonzero;stroke:none"
               id="path1345" />
          </g>
          <g
             id="g1347"
             transform="matrix(0.94473314,0,0,0.94473314,280.15463,78.860307)">
            <path
               d="M 0,0 H -0.819 V -3.799 H -1.436 V 0 H -2.252 V 0.617 H 0 Z"
               style="fill:#231f20;fill-opacity:1;fill-rule:nonzero;stroke:none"
               id="path1349" />
          </g>
          <g
             id="g1351"
             transform="matrix(0.94473314,0,0,0.94473314,282.39648,78.317086)">
            <path
               d="m 0,0 c 0,0.366 -0.152,0.557 -0.457,0.575 h -0.781 v -1.15 h 0.781 C -0.152,-0.558 0,-0.366 0,0 m 0.617,-3.224 h -0.641 l -0.584,2.031 h -0.63 v -2.031 h -0.618 v 4.416 h 1.37 C -0.252,1.171 -0.119,1.158 -0.09,1.152 0.113,1.105 0.271,1.009 0.387,0.86 0.539,0.663 0.617,0.377 0.617,0 c 0,-0.544 -0.205,-0.904 -0.613,-1.077 z"
               style="fill:#231f20;fill-opacity:1;fill-rule:nonzero;stroke:none"
               id="path1353" />
          </g>
          <g
             id="g1355"
             transform="matrix(0.94473314,0,0,0.94473314,284.92081,76.981233)">
            <path
               d="M 0,0 -0.344,1.436 -0.692,0 Z M 1.07,-1.81 H 0.437 L 0.15,-0.617 H -0.842 L -1.129,-1.81 h -0.627 l 1.068,4.416 H 0 Z"
               style="fill:#231f20;fill-opacity:1;fill-rule:nonzero;stroke:none"
               id="path1357" />
          </g>
          <g
             id="g1359"
             transform="matrix(0.94473314,0,0,0.94473314,288.54858,78.860307)">
            <path
               d="m 0,0 h -1.635 v -1.15 h 0.972 V -1.768 H -1.635 V -3.799 H -2.252 V 0.617 H 0 Z"
               style="fill:#231f20;fill-opacity:1;fill-rule:nonzero;stroke:none"
               id="path1361" />
          </g>
          <g
             id="g1363"
             transform="matrix(0.94473314,0,0,0.94473314,291.16455,78.860307)">
            <path
               d="m 0,0 h -1.635 v -1.15 h 0.973 V -1.768 H -1.635 V -3.799 H -2.252 V 0.617 H 0 Z"
               style="fill:#231f20;fill-opacity:1;fill-rule:nonzero;stroke:none"
               id="path1365" />
          </g>
          <path
             d="m 292.24249,75.271266 h -0.5829 v 4.171942 h 0.5829 z"
             style="fill:#231f20;fill-opacity:1;fill-rule:nonzero;stroke:none;stroke-width:0.944733"
             id="path1367" />
          <g
             id="g1369"
             transform="matrix(0.94473314,0,0,0.94473314,295.31665,76.369141)">
            <path
               d="m 0,0 c -0.043,-0.236 -0.108,-0.437 -0.2,-0.601 -0.218,-0.405 -0.541,-0.606 -0.972,-0.606 -0.531,0 -0.905,0.301 -1.115,0.906 -0.125,0.356 -0.186,0.805 -0.186,1.347 0,1.503 0.434,2.254 1.301,2.254 0.416,0 0.736,-0.181 0.959,-0.542 C -0.12,2.608 -0.049,2.427 0,2.215 h -0.664 c -0.1,0.313 -0.27,0.468 -0.508,0.468 -0.266,0 -0.455,-0.217 -0.571,-0.65 -0.076,-0.281 -0.113,-0.609 -0.113,-0.987 0,-0.378 0.037,-0.706 0.113,-0.986 0.116,-0.434 0.305,-0.651 0.571,-0.651 0.26,0 0.435,0.197 0.525,0.591 z"
               style="fill:#231f20;fill-opacity:1;fill-rule:nonzero;stroke:none"
               id="path1371" />
          </g>
          <g
             id="g1373"
             transform="matrix(0.94473314,0,0,0.94473314,299.80035,78.860307)">
            <path
               d="m 0,0 h -1.635 v -1.15 h 0.973 V -1.768 H -1.635 V -3.799 H -2.252 V 0.617 H 0 Z"
               style="fill:#231f20;fill-opacity:1;fill-rule:nonzero;stroke:none"
               id="path1375" />
          </g>
          <g
             id="g1377"
             transform="translate(303.572,78.247)">
            <path
               d="m -1.5297923,0.07008578 c 0,0.34577233 -0.1445441,0.52621636 -0.4298535,0.54322155 h -0.7406708 v -1.0864431 h 0.7406708 c 0.2853094,0.0160605 0.4298535,0.19744922 0.4298535,0.54322155 M -0.94689187,-2.9757339 H -1.5524659 l -0.5498346,1.918753 h -0.5980161 v -1.918753 H -3.283217 v 4.1719416 h 1.2933397 c 0.2239018,-0.019839 0.3476618,-0.032121 0.3750591,-0.037789 0.1917808,-0.044402 0.3429381,-0.1350969 0.4515824,-0.27586212 0.1445442,-0.18611243 0.21634393,-0.45630611 0.21634393,-0.8124705 0,-0.51393483 -0.19367033,-0.85403876 -0.57912143,-1.01747759 z"
               style="fill:#231f20;fill-opacity:1;fill-rule:nonzero;stroke:none;stroke-width:0.944733"
               id="path1379" />
          </g>
          <g
             id="g1381"
             transform="matrix(0.94473314,0,0,0.94473314,305.03701,77.357237)">
            <path
               d="m 0,0 c 0,0.378 -0.039,0.706 -0.116,0.987 -0.115,0.433 -0.304,0.65 -0.57,0.65 -0.265,0 -0.457,-0.217 -0.572,-0.65 C -1.334,0.706 -1.371,0.378 -1.371,0 c 0,-0.378 0.037,-0.706 0.113,-0.986 0.115,-0.434 0.307,-0.651 0.572,-0.651 0.266,0 0.455,0.217 0.57,0.651 C -0.039,-0.706 0,-0.378 0,0 m 0.617,0 c 0,-0.542 -0.063,-0.991 -0.186,-1.347 -0.213,-0.605 -0.584,-0.906 -1.117,-0.906 -0.533,0 -0.906,0.301 -1.117,0.906 -0.125,0.356 -0.186,0.805 -0.186,1.347 0,1.503 0.434,2.254 1.303,2.254 0.869,0 1.303,-0.751 1.303,-2.254"
               style="fill:#231f20;fill-opacity:1;fill-rule:nonzero;stroke:none"
               id="path1383" />
          </g>
          <g
             id="g1385"
             transform="matrix(0.94473314,0,0,0.94473314,309.11448,75.271266)">
            <path
               d="M 0,0 H -0.617 V 2.473 L -1.457,0 -2.297,2.473 V 0 h -0.615 v 4.416 h 0.617 l 0.84,-2.472 0.838,2.472 H 0 Z"
               style="fill:#231f20;fill-opacity:1;fill-rule:nonzero;stroke:none"
               id="path1387" />
          </g>
          <g
             id="g1405"
             transform="matrix(0.94473314,0,0,0.94473314,283.51221,70.055394)">
            <path
               d="m 0,0 c 0,1.062 -0.25,1.593 -0.751,1.593 h -0.487 v -3.185 h 0.487 C -0.25,-1.592 0,-1.061 0,0 m 0.618,0.003 c 0,-0.883 -0.174,-1.509 -0.522,-1.876 -0.211,-0.225 -0.463,-0.336 -0.75,-0.336 h -0.097 -1.104 v 4.42 h 1.152 c 0.289,0 0.536,-0.095 0.743,-0.284 C 0.424,1.574 0.618,0.933 0.618,0.003"
               style="fill:#231f20;fill-opacity:1;fill-rule:nonzero;stroke:none"
               id="path1407" />
          </g>
          <g
             id="g1409"
             transform="matrix(0.94473314,0,0,0.94473314,286.72525,70.057284)">
            <path
               d="m 0,0 c 0,0.378 -0.037,0.707 -0.115,0.986 -0.114,0.434 -0.305,0.65 -0.571,0.65 -0.265,0 -0.455,-0.216 -0.57,-0.65 C -1.332,0.707 -1.371,0.378 -1.371,0 c 0,-0.377 0.039,-0.705 0.115,-0.987 0.115,-0.433 0.305,-0.649 0.57,-0.649 0.266,0 0.457,0.216 0.571,0.649 C -0.037,-0.705 0,-0.377 0,0 m 0.617,0 c 0,-0.541 -0.06,-0.991 -0.185,-1.348 -0.211,-0.604 -0.584,-0.905 -1.118,-0.905 -0.533,0 -0.906,0.301 -1.117,0.905 -0.123,0.357 -0.185,0.807 -0.185,1.348 0,1.503 0.433,2.254 1.302,2.254 0.869,0 1.303,-0.751 1.303,-2.254"
               style="fill:#231f20;fill-opacity:1;fill-rule:nonzero;stroke:none"
               id="path1411" />
          </g>
          <g
             id="g1413"
             transform="matrix(0.94473314,0,0,0.94473314,290.26989,67.968479)">
            <path
               d="M 0,0 -2.252,0.004 V 4.42 H 0 V 3.802 h -1.635 v -1.15 h 0.971 V 2.035 H -1.635 V 0.621 H 0 Z"
               style="fill:#231f20;fill-opacity:1;fill-rule:nonzero;stroke:none"
               id="path1415" />
          </g>
          <g
             id="g1417"
             transform="matrix(0.94473314,0,0,0.94473314,293.10787,69.110661)">
            <path
               d="m 0,0 c 0,-0.313 -0.082,-0.582 -0.244,-0.809 -0.209,-0.295 -0.518,-0.442 -0.926,-0.442 -0.459,0 -0.803,0.147 -1.029,0.442 -0.182,0.233 -0.274,0.525 -0.274,0.879 h 0.617 c 0,-0.256 0.08,-0.447 0.242,-0.571 0.122,-0.089 0.27,-0.133 0.444,-0.133 0.353,0 0.529,0.21 0.529,0.632 0,0.33 -0.142,0.599 -0.428,0.808 -0.263,0.166 -0.529,0.329 -0.796,0.492 -0.286,0.221 -0.428,0.509 -0.428,0.866 0,0.232 0.064,0.447 0.195,0.64 0.199,0.301 0.52,0.452 0.961,0.452 0.463,0 0.793,-0.174 0.986,-0.522 C -0.071,2.59 -0.022,2.414 0,2.208 h -0.617 c 0,0.074 -0.026,0.147 -0.077,0.221 -0.088,0.14 -0.236,0.209 -0.445,0.209 -0.355,0 -0.533,-0.157 -0.533,-0.472 0,-0.174 0.144,-0.348 0.432,-0.522 C -0.811,1.39 -0.541,1.211 -0.432,1.105 -0.145,0.819 0,0.451 0,0"
               style="fill:#231f20;fill-opacity:1;fill-rule:nonzero;stroke:none"
               id="path1419" />
          </g>
          <g
             id="g1421"
             transform="matrix(0.94473314,0,0,0.94473314,298.23871,67.972352)">
            <path
               d="M 0,0 H -0.617 L -1.855,2.857 V 0 h -0.617 v 4.416 h 0.619 L -0.617,1.562 V 4.416 H 0 Z"
               style="fill:#231f20;fill-opacity:1;fill-rule:nonzero;stroke:none"
               id="path1423" />
          </g>
          <g
             id="g1425"
             transform="matrix(0.94473314,0,0,0.94473314,300.95009,70.057284)">
            <path
               d="m 0,0 c 0,0.378 -0.04,0.707 -0.116,0.986 -0.115,0.434 -0.304,0.65 -0.57,0.65 -0.266,0 -0.457,-0.216 -0.572,-0.65 C -1.334,0.707 -1.372,0.378 -1.372,0 c 0,-0.377 0.038,-0.705 0.114,-0.987 0.115,-0.433 0.306,-0.649 0.572,-0.649 0.266,0 0.455,0.216 0.57,0.649 C -0.04,-0.705 0,-0.377 0,0 m 0.617,0 c 0,-0.541 -0.063,-0.991 -0.186,-1.348 -0.213,-0.604 -0.584,-0.905 -1.117,-0.905 -0.533,0 -0.906,0.301 -1.117,0.905 -0.125,0.357 -0.186,0.807 -0.186,1.348 0,1.503 0.434,2.254 1.303,2.254 0.869,0 1.303,-0.751 1.303,-2.254"
               style="fill:#231f20;fill-opacity:1;fill-rule:nonzero;stroke:none"
               id="path1427" />
          </g>
          <g
             id="g1429"
             transform="matrix(0.94473314,0,0,0.94473314,304.1603,71.560354)">
            <path
               d="M 0,0 H -0.818 V -3.798 H -1.436 V 0 H -2.252 V 0.618 H 0 Z"
               style="fill:#231f20;fill-opacity:1;fill-rule:nonzero;stroke:none"
               id="path1431" />
          </g>
          <g
             id="g1433"
             transform="matrix(0.94473314,0,0,0.94473314,308.95765,69.110661)">
            <path
               d="m 0,0 c 0,-0.313 -0.08,-0.582 -0.242,-0.809 -0.209,-0.295 -0.518,-0.442 -0.928,-0.442 -0.459,0 -0.801,0.147 -1.027,0.442 -0.184,0.233 -0.276,0.525 -0.276,0.879 h 0.618 c 0,-0.256 0.082,-0.447 0.244,-0.571 0.121,-0.089 0.267,-0.133 0.441,-0.133 0.354,0 0.529,0.21 0.529,0.632 0,0.33 -0.14,0.599 -0.425,0.808 -0.266,0.166 -0.532,0.329 -0.799,0.492 -0.283,0.221 -0.426,0.509 -0.426,0.866 0,0.232 0.065,0.447 0.193,0.64 0.2,0.301 0.52,0.452 0.961,0.452 0.465,0 0.793,-0.174 0.987,-0.522 C -0.07,2.59 -0.019,2.414 0,2.208 h -0.617 c 0,0.074 -0.025,0.147 -0.074,0.221 -0.088,0.14 -0.237,0.209 -0.446,0.209 -0.355,0 -0.533,-0.157 -0.533,-0.472 0,-0.174 0.143,-0.348 0.432,-0.522 C -0.809,1.39 -0.541,1.211 -0.432,1.105 -0.144,0.819 0,0.451 0,0"
               style="fill:#231f20;fill-opacity:1;fill-rule:nonzero;stroke:none"
               id="path1435" />
          </g>
          <g
             id="g1437"
             transform="matrix(0.94473314,0,0,0.94473314,311.46025,71.560354)">
            <path
               d="M 0,0 H -0.819 V -3.798 H -1.436 V 0 H -2.252 V 0.618 H 0 Z"
               style="fill:#231f20;fill-opacity:1;fill-rule:nonzero;stroke:none"
               id="path1439" />
          </g>
          <g
             id="g1441"
             transform="matrix(0.94473314,0,0,0.94473314,313.83814,70.057284)">
            <path
               d="m 0,0 c 0,0.378 -0.037,0.707 -0.115,0.986 -0.113,0.434 -0.305,0.65 -0.57,0.65 -0.266,0 -0.456,-0.216 -0.571,-0.65 C -1.334,0.707 -1.371,0.378 -1.371,0 c 0,-0.377 0.037,-0.705 0.115,-0.987 0.115,-0.433 0.305,-0.649 0.571,-0.649 0.265,0 0.457,0.216 0.57,0.649 C -0.037,-0.705 0,-0.377 0,0 m 0.617,0 c 0,-0.541 -0.06,-0.991 -0.185,-1.348 -0.211,-0.604 -0.584,-0.905 -1.117,-0.905 -0.534,0 -0.907,0.301 -1.118,0.905 -0.123,0.357 -0.185,0.807 -0.185,1.348 0,1.503 0.433,2.254 1.303,2.254 0.869,0 1.302,-0.751 1.302,-2.254"
               style="fill:#231f20;fill-opacity:1;fill-rule:nonzero;stroke:none"
               id="path1443" />
          </g>
          <g
             id="g1445"
             transform="matrix(0.94473314,0,0,0.94473314,317.00867,70.951946)">
            <path
               d="m 0,0 c 0,0.385 -0.153,0.6 -0.457,0.644 h -0.782 v -1.281 h 0.782 C -0.153,-0.621 0,-0.41 0,0 m 0.615,0 c 0,-0.518 -0.182,-0.881 -0.547,-1.09 -0.188,-0.109 -0.373,-0.164 -0.557,-0.164 h -0.75 v -1.9 h -0.617 v 4.416 h 1.367 c 0.186,0 0.371,-0.054 0.557,-0.161 C 0.433,0.893 0.615,0.525 0.615,0"
               style="fill:#231f20;fill-opacity:1;fill-rule:nonzero;stroke:none"
               id="path1447" />
          </g>
        </g>
      </g>
      <g
         transform="matrix(0.16887533,0,0,-0.19650091,152.12794,208.96933)"
         id="g2903">
        <path
           d="m -22.531,-1.033 c 0,-0.309 -0.182,-0.62 -0.465,-0.774 -0.18,-0.103 -0.309,-0.129 -0.67,-0.129 h -1.395 v 1.807 h 1.395 c 0.385,0 0.49,-0.026 0.67,-0.129 0.283,-0.155 0.465,-0.465 0.465,-0.775 m 1.316,-5.29 -1.291,3.432 c 0.67,0.31 1.137,1.084 1.137,1.858 0,0.75 -0.467,1.523 -1.112,1.834 -0.361,0.179 -0.748,0.231 -1.316,0.231 h -2.426 v -7.355 h 1.162 v 3.2 h 1.395 l 1.185,-3.2 z"
           style="fill:#231f20;fill-opacity:1;fill-rule:evenodd;stroke:none"
           id="path4688" />
        <path
           id="path4686"
           d="m -18.814,1.032 h -1.188 v -7.355 h 1.188 z"
           style="fill:#231f20;fill-opacity:1;fill-rule:evenodd;stroke:none" />
        <path
           id="path4684"
           d="m -12.234,-4.129 v 1.471 h -2.502 v -1.163 h 1.341 v -0.308 c 0,-0.672 -0.543,-1.137 -1.291,-1.137 -0.439,0 -0.773,0.182 -1.007,0.594 -0.231,0.465 -0.362,1.239 -0.362,2.014 0,0.619 0.106,1.291 0.285,1.728 0.258,0.647 0.645,0.904 1.239,0.904 0.568,0 0.879,-0.232 1.187,-0.878 l 1.11,0.439 c -0.491,1.162 -1.161,1.627 -2.297,1.627 -0.826,0 -1.446,-0.285 -1.885,-0.826 -0.488,-0.647 -0.824,-1.807 -0.824,-2.994 0,-0.905 0.179,-1.807 0.49,-2.453 0.439,-0.928 1.084,-1.346 2.193,-1.346 1.342,0 2.323,0.985 2.323,2.328"
           style="fill:#231f20;fill-opacity:1;fill-rule:evenodd;stroke:none" />
        <path
           id="path4682"
           d="m -5.627,-6.323 v 7.355 h -1.162 v -2.968 h -2.684 v 2.968 h -1.162 v -7.355 h 1.162 v 3.2 h 2.684 v -3.2 z"
           style="fill:#231f20;fill-opacity:1;fill-rule:evenodd;stroke:none" />
        <path
           id="path2905"
           d="M 0,0 V 1.032 H -4.543 V 0 h 1.678 v -6.323 h 1.162 V 0 Z"
           style="fill:#231f20;fill-opacity:1;fill-rule:evenodd;stroke:none" />
      </g>
    </g>
  </g>
</svg>
