<?xml version="1.0" encoding="utf-8"?>
<!-- Generator: Adobe Illustrator 16.0.3, SVG Export Plug-In . SVG Version: 6.00 Build 0)  -->
<!DOCTYPE svg PUBLIC "-//W3C//DTD SVG 1.1//EN" "http://www.w3.org/Graphics/SVG/1.1/DTD/svg11.dtd">
<svg version="1.1" id="Layer_1" xmlns="http://www.w3.org/2000/svg" xmlns:xlink="http://www.w3.org/1999/xlink" x="0px" y="0px"
	 width="72px" height="72.002px" viewBox="0 0 72 72.002" enable-background="new 0 0 72 72.002" xml:space="preserve">
<path fill="#FFD520" d="M70.833,33.182L38.826,1.178C38.084,0.433,37.056,0,36.003,0c-1.051,0-2.077,0.433-2.826,1.178L1.169,33.182
	C0.426,33.927-0.001,34.949,0,36.007c0.006,1.051,0.428,2.078,1.169,2.822l32.008,32.004c0.741,0.74,1.781,1.169,2.827,1.169
	c1.046,0,2.085-0.429,2.823-1.169L70.833,38.83c0.959-0.959,1.368-2.402,1.075-3.723C71.735,34.347,71.315,33.782,70.833,33.182z"/>
<path fill-rule="evenodd" clip-rule="evenodd" d="M70.042,38.038L38.038,70.042c-0.538,0.536-1.275,0.841-2.034,0.841
	c-0.758,0-1.492-0.305-2.031-0.841L1.957,38.038c-0.532-0.533-0.834-1.279-0.834-2.033c0.001-0.753,0.303-1.5,0.835-2.032
	L33.971,1.96c0.536-0.53,1.28-0.833,2.032-0.833c0.753,0,1.5,0.303,2.035,0.833l32.004,32.014c0.536,0.538,0.841,1.273,0.841,2.031
	C70.882,36.765,70.578,37.501,70.042,38.038"/>
<path fill-rule="evenodd" clip-rule="evenodd" fill="#FFD520" d="M68.939,36.933c0.243-0.24,0.385-0.587,0.385-0.927
	c0-0.336-0.142-0.692-0.385-0.932L36.931,3.067c-0.24-0.24-0.587-0.381-0.927-0.381c-0.336,0-0.691,0.141-0.933,0.381L3.062,35.073
	c-0.242,0.243-0.375,0.589-0.375,0.931c0.002,0.342,0.134,0.682,0.377,0.928l32.008,32.011c0.243,0.239,0.599,0.381,0.933,0.381
	c0.34,0,0.688-0.142,0.929-0.381L68.939,36.933"/>
<path fill-rule="evenodd" clip-rule="evenodd" d="M36.311,37.74c-1.322,0.416-2.677,1.287-2.827,2.789
	c-0.254,2.562,2.681,3.433,4.598,3.975c2.403,0.677,4.896,1.113,7.235,2.001c1.204,0.456,2.509,1.065,3.31,2.121
	c1.088,1.434,0.699,3.546-0.508,4.817c-1.322,1.39-2.644,2.78-3.963,4.171c-0.521-0.521-1.046-1.044-1.566-1.565
	c0.14,0.019,0.616-0.488,0.715-0.569c0.598-0.494,1.183-1.002,1.747-1.53c1.004-0.938,3.147-2.782,2.01-4.272
	c-1.481-1.552-4.079-1.985-6.071-2.476c-2.054-0.505-4.259-0.917-6.175-1.837c-2.995-1.437-4.174-5.139-1.86-7.754
	c0.823-0.928,1.887-1.399,3.056-1.741c1.97-0.576,3.951-1.052,5.942-1.536v-2.358l-6.322-0.002l-6.319,0.002
	c0,0.774,0.399,3.044-0.398,3.507c-1.088,0.632-2.763,0.717-3.98,0.989c-1.646,0.366-3.288,0.754-4.894,1.269
	c-1.828,0.575-3.697,2.291-2.478,4.369c0.687,1.172,1.937,1.69,3.177,2.078c1.586,0.496,3.204,0.883,4.813,1.281
	c2.484,0.618,7.651,1.671,7.464,5.221c-0.132,2.509-2.822,4.496-4.397,6.155c-0.245,0.256-0.487,0.514-0.734,0.77
	c-0.521-0.521-1.045-1.044-1.566-1.565c0.233,0.03,1.017-0.822,1.183-0.962c0.818-0.696,1.625-1.419,2.353-2.21
	c0.627-0.683,1.613-1.815,1.178-2.81c-0.522-1.198-2.37-1.742-3.502-2.101c-2.776-0.884-5.939-1.142-8.58-2.407
	c-1.017-0.488-1.894-1.029-2.61-1.917c-1.351-1.67-1.356-4.117,0.044-5.758c0.726-0.851,1.599-1.349,2.613-1.786
	c2.144-0.919,4.637-1.246,6.893-1.817c0.254-0.339-0.007-1.783-0.01-2.229c0-0.169-1.628-0.08-1.894-0.08v-6.351
	c0-1.141,0.873-2.335,2.063-2.534l2.196-5.219c0.341-0.86,1.345-1.397,2.301-1.397h10.17c0.956,0,1.96,0.538,2.3,1.397l2.197,5.219
	c1.188,0.199,2.063,1.393,2.063,2.534v6.351h-1.894l-0.01,2.729c-0.006,1.19-1.995,1.256-2.77,1.429
	C40.495,36.604,38.375,37.086,36.311,37.74"/>
<path fill-rule="evenodd" clip-rule="evenodd" fill="#FFD520" d="M35.87,23.092l7.321,0.006l-1.596-4.267
	c-0.105-0.431-0.433-0.646-0.808-0.646l-5.156,0.002l-5.155-0.002c-0.374,0-0.7,0.216-0.807,0.646l-1.595,4.267l1.375-0.001
	c0.004-0.001-0.052-1.232,0.715-1.232h4.987C35.905,21.864,35.867,23.092,35.87,23.092"/>
<path fill-rule="evenodd" clip-rule="evenodd" d="M32.723,18.486c0.719,0,1.306,0.693,1.306,1.544c0,0.85-0.586,1.542-1.306,1.542
	c-0.72,0-1.306-0.692-1.306-1.542C31.417,19.179,32.003,18.486,32.723,18.486"/>
</svg>
