<svg xmlns="http://www.w3.org/2000/svg" width="286.014" height="286.011" viewBox="0 -1 286.014 286.011" xml:space="preserve">
    <path d="m152.271 281.163 129.88-129.884c2.436-2.437 3.863-5.813 3.863-9.271 0-3.464-1.428-6.834-3.863-9.284L152.271 2.843a13.11 13.11 0 0 0-18.547 0L3.833 132.725C1.403 135.16 0 138.574 0 142.009c0 3.436 1.402 6.842 3.833 9.271l129.891 129.884c3.142 3.15 7.877 4.505 12.22 3.542 2.548-.586 4.329-1.921 6.327-3.543z" style="fill:#dd7500;stroke:none;fill-opacity:1"/>
    <path clip-rule="evenodd" d="M136.048 278.86 6.145 148.951c-1.806-1.808-2.851-4.376-2.851-6.942 0-2.559 1.045-5.16 2.851-6.968L136.048 5.145a9.864 9.864 0 0 1 6.94-2.848c2.602 0 5.141 1.024 6.976 2.848l129.879 129.896c1.823 1.824 2.871 4.382 2.871 6.968a9.896 9.896 0 0 1-2.871 6.942L149.963 278.86c-1.82 1.808-4.417 2.852-6.976 2.852-2.558-.001-5.124-1.045-6.939-2.852" style="fill-rule:evenodd;stroke:none;fill:#000"/>
    <path clip-rule="evenodd" d="M139.905 274.98c.797.795 1.961 1.269 3.09 1.276a4.421 4.421 0 0 0 3.082-1.276l129.896-129.885c.823-.814 1.258-1.945 1.258-3.082 0-1.156-.435-2.279-1.258-3.09L146.077 9.038a4.376 4.376 0 0 0-3.082-1.278 4.45 4.45 0 0 0-3.09 1.278L10.034 138.923c-.813.801-1.274 1.941-1.278 3.09-.008 1.164.456 2.252 1.278 3.082L139.905 274.98" style="fill:#dd7500;fill-rule:evenodd;stroke:none;fill-opacity:1"/>
    <path clip-rule="evenodd" d="m158.439 173.862-.093 44.657-30.637-.081V109.632l-16.955 5.251c-.619.192-1.226.351-1.874.39-1.697.095-3.417-.621-4.612-1.824-1.379-1.402-1.947-3.416-1.641-5.355.159-.981.621-1.812 1.201-2.602l39.152-53.167 39.251 53.167c.811 1.092 1.261 2.378 1.261 3.738 0 2.487-1.439 4.663-3.72 5.652-1.23.53-2.359.576-3.636.299-.333-.072-.667-.262-.834-.299l-17.352-3.742c1.365 6.015 2.734 12.054 4.453 17.984 2.553 8.771 5.865 17.32 9.71 25.614 3.802 8.194 8.119 16.151 13.093 23.697 3.301 4.996 6.89 9.812 10.466 14.606l-16.867 12.186c-1.509-1.971-3.018-3.941-4.484-5.951-3.375-4.617-6.528-9.412-9.527-14.296-2.231-3.638-4.307-7.359-6.355-11.118" style="fill-rule:evenodd;stroke:none;fill:#000"/>
</svg>
