<svg width="207.945" height="87.943" viewBox="0 0 55.019 23.268" xmlns="http://www.w3.org/2000/svg">
    <path d="M0 0a4.221 4.221 0 0 0-4.216 4.216v57.275A4.221 4.221 0 0 0 0 65.707h147.277a4.221 4.221 0 0 0 4.216-4.216V4.216A4.221 4.221 0 0 0 147.277 0Z" style="fill:#fcd116;fill-opacity:1;fill-rule:nonzero;stroke:none" transform="matrix(.35278 0 0 -.35278 1.531 23.224)"/>
    <path d="M0 0h-147.277a4.345 4.345 0 0 1-4.341-4.341v-57.275a4.346 4.346 0 0 1 4.341-4.341H0a4.346 4.346 0 0 1 4.341 4.341v57.275A4.345 4.345 0 0 1 0 0m0-.25a4.092 4.092 0 0 0 4.091-4.091v-57.275A4.092 4.092 0 0 0 0-65.707h-147.277a4.09 4.09 0 0 0-4.091 4.091v57.275a4.09 4.09 0 0 0 4.091 4.091z" style="fill:#000;fill-opacity:1;fill-rule:nonzero;stroke:none" transform="matrix(.35278 0 0 -.35278 53.487 0)"/>
    <path d="M0 0v57.275c0 .753-.611 1.363-1.364 1.363h-147.277c-.753 0-1.364-.61-1.364-1.363V0c0-.753.611-1.364 1.364-1.364H-1.364C-.611-1.364 0-.753 0 0m-1.364-3.068h-147.277A3.067 3.067 0 0 0-151.709 0v57.275a3.068 3.068 0 0 0 3.068 3.068H-1.364a3.069 3.069 0 0 0 3.069-3.068V0a3.068 3.068 0 0 0-3.069-3.068" style="fill:#000;fill-opacity:1;fill-rule:nonzero;stroke:none" transform="matrix(.35278 0 0 -.35278 53.969 21.737)"/>
    <path d="M0 0h-2.39v11.243h-3.919v2.394H3.919v-2.394H0Z" style="fill:#000;fill-opacity:1;fill-rule:nonzero;stroke:none" transform="matrix(.35278 0 0 -.35278 6.926 9.47)"/>
    <path d="M0 0h3.827L1.914 4.594Zm4.88-2.439h-5.932l-1.339-3.207h-2.678L.672 7.991h2.487L8.85-5.646H6.218Z" style="fill:#000;fill-opacity:1;fill-rule:nonzero;stroke:none" transform="matrix(.35278 0 0 -.35278 10.482 7.478)"/>
    <path d="m0 0-2.591-3.252v-3.829h-2.448V6.556h2.448V.622l4.846 5.934h3.167L1.776 2.105l4.51-9.186H3.503Z" style="fill:#000;fill-opacity:1;fill-rule:nonzero;stroke:none" transform="matrix(.35278 0 0 -.35278 16.2 6.971)"/>
    <path d="M0 0h9.987v-2.441h-7.49v-2.535h4.081v-2.488H2.497v-3.732h7.73v-2.441H0Z" style="fill:#000;fill-opacity:1;fill-rule:nonzero;stroke:none" transform="matrix(.35278 0 0 -.35278 19.188 4.658)"/>
    <path d="M0 0h-2.39v11.243h-3.919v2.394H3.919v-2.394H0Z" style="fill:#000;fill-opacity:1;fill-rule:nonzero;stroke:none" transform="matrix(.35278 0 0 -.35278 28.63 9.47)"/>
    <path d="M292.994 457.01h2.454v-13.637h-2.454z" style="fill:#000;fill-opacity:1;fill-rule:nonzero;stroke:none" transform="matrix(.35278 0 0 -.35278 -72.532 165.881)"/>
    <path d="M0 0c0-2.968 1.243-4.688 3.3-4.688 1.244 0 1.914.432 3.111 1.724l2.153-1.149C7.56-6.027 5.5-7.127 3.3-7.127c-3.588 0-5.789 2.847-5.789 7.081 0 4.352 2.206 7.03 5.789 7.03 2.2 0 4.212-1.098 5.264-3.012L6.411 2.823C5.937 3.65 4.749 4.546 3.3 4.546.811 4.546 0 2.105 0 0" style="fill:#000;fill-opacity:1;fill-rule:nonzero;stroke:none" transform="matrix(.35278 0 0 -.35278 33.68 7.039)"/>
    <path d="m0 0-2.591-3.252v-3.829h-2.448V6.556h2.448V.622l4.846 5.934h3.167L1.776 2.105l4.51-9.186H3.503Z" style="fill:#000;fill-opacity:1;fill-rule:nonzero;stroke:none" transform="matrix(.35278 0 0 -.35278 39.585 6.971)"/>
    <path d="M0 0h9.987v-2.441h-7.49v-2.535h4.081v-2.488H2.497v-3.732h7.73v-2.441H0Z" style="fill:#000;fill-opacity:1;fill-rule:nonzero;stroke:none" transform="matrix(.35278 0 0 -.35278 42.573 4.658)"/>
    <path d="M0 0h-2.39v11.243h-3.918v2.394H3.919v-2.394H0Z" style="fill:#000;fill-opacity:1;fill-rule:nonzero;stroke:none" transform="matrix(.35278 0 0 -.35278 48.935 9.47)"/>
    <path d="M0 0v-2.929h-13.263c0 4.205 2.324 7.329 5.752 8.963 1.89.898 4.567.921 4.567 2.807 0 1.205-1.149 1.896-3.225 1.896-2.134 0-3.69-.516-5.075-1.78l-2.019 2.238c1.902 1.665 4.267 2.524 6.922 2.524 3.864 0 6.341-1.894 6.341-4.88 0-1.942-1.113-3.445-2.717-4.192C-4.948 3.612-7.708 3.858-9.688 0Z" style="fill:#000;fill-opacity:1;fill-rule:nonzero;stroke:none" transform="matrix(.35278 0 0 -.35278 17.194 18.057)"/>
    <path d="m0 0-4.035-8.325L-8.022 0v-8.325h-2.401V5.311h2.401l3.987-8.086L0 5.311h2.402V-8.325H0Z" style="fill:#000;fill-opacity:1;fill-rule:nonzero;stroke:none" transform="matrix(.35278 0 0 -.35278 25.682 15.673)"/>
    <path d="M284.35 431.1h2.454v-13.637h-2.454z" style="fill:#000;fill-opacity:1;fill-rule:nonzero;stroke:none" transform="matrix(.35278 0 0 -.35278 -72.532 165.881)"/>
    <path d="M0 0h2.449v-11.531h7.778v-2.106H0Z" style="fill:#000;fill-opacity:1;fill-rule:nonzero;stroke:none" transform="matrix(.35278 0 0 -.35278 29.897 13.799)"/>
    <path d="M0 0h9.987v-2.441h-7.49v-2.535h4.081v-2.488H2.497v-3.732h7.73v-2.441H0Z" style="fill:#000;fill-opacity:1;fill-rule:nonzero;stroke:none" transform="matrix(.35278 0 0 -.35278 34.323 13.799)"/>
    <path d="M0 0c-.961-.581-2.204-.922-3.458-.922-2.354 0-4.134.873-5.671 2.668l1.97 1.552c1.009-1.212 2.114-1.747 3.651-1.747 1.73 0 2.98.813 2.98 1.795 0 1.386-1.383 1.48-5.199 2.552-1.92.539-2.779 1.999-2.779 3.464 0 2.282 1.925 3.832 4.71 3.832 2.018 0 3.704-.677 5.095-2.131l-1.827-1.65c-.865.922-1.971 1.358-3.268 1.358-1.495 0-2.209-.607-2.209-1.391 0-1.512 1.856-1.177 5.248-2.372 2.395-.846 2.68-2.891 2.68-3.757C1.923 1.844 1.297.776 0 0" style="fill:#000;fill-opacity:1;fill-rule:nonzero;stroke:none" transform="matrix(.35278 0 0 -.35278 41.825 18.37)"/>
</svg>
