<?xml version="1.0" encoding="UTF-8" standalone="no"?>
<!-- Created with Inkscape (http://www.inkscape.org/) -->

<svg
   width="39.729614mm"
   height="39.726299mm"
   viewBox="0 0 39.729614 39.726299"
   version="1.1"
   id="svg1"
   xml:space="preserve"
   xmlns:inkscape="http://www.inkscape.org/namespaces/inkscape"
   xmlns:sodipodi="http://sodipodi.sourceforge.net/DTD/sodipodi-0.dtd"
   xmlns="http://www.w3.org/2000/svg"
   xmlns:svg="http://www.w3.org/2000/svg"><sodipodi:namedview
     id="namedview1"
     pagecolor="#ffffff"
     bordercolor="#000000"
     borderopacity="0.25"
     inkscape:showpageshadow="2"
     inkscape:pageopacity="0.0"
     inkscape:pagecheckerboard="0"
     inkscape:deskcolor="#d1d1d1"
     inkscape:document-units="mm" /><defs
     id="defs1" /><g
     inkscape:label="Layer 1"
     inkscape:groupmode="layer"
     id="layer1"
     transform="translate(-252.94167,4.6219538)"><g
       id="g64"><path
         d="m 274.09331,34.57039 18.041,-18.040535 c 0.33896,-0.338793 0.53697,-0.807891 0.53697,-1.287918 0,-0.481145 -0.19801,-0.949142 -0.53682,-1.289503 L 274.09331,-4.0884015 a 1.8225572,1.8225572 0 0 0 -2.57696,0 L 253.4741,13.9526 c -0.33769,0.337859 -0.53243,0.811479 -0.53243,1.289337 0,0.477224 0.19474,0.950226 0.53243,1.287918 l 18.04225,18.040535 c 0.43704,0.437649 1.09492,0.625198 1.69744,0.491623 0.35474,-0.08109 0.60141,-0.266533 0.87952,-0.491623"
         style="fill:#fcd116;fill-opacity:1;fill-rule:nonzero;stroke:none;stroke-width:0.159976"
         id="path1-6" /><path
         id="path2-73"
         style="fill:#000000;fill-opacity:1;fill-rule:evenodd;stroke:none;stroke-width:0.159976"
         d="m 272.80389,-4.1636815 a 1.369577,1.369577 0 0 0 -0.96394,0.3957539 L 253.79518,14.274259 c -0.25105,0.25105 -0.39574,0.612851 -0.39574,0.968229 0,0.356462 0.14465,0.71289 0.39574,0.96394 l 18.04477,18.043906 c 0.2523,0.25125 0.60905,0.395753 0.96394,0.395753 0.35584,0 0.71633,-0.143819 0.9691,-0.394886 l 18.04046,-18.044773 a 1.3745823,1.3745823 0 0 0 0.40006,-0.96394 1.3827159,1.3827159 0 0 0 -0.40006,-0.968229 L 273.77299,-3.7679276 c -0.25496,-0.2534026 -0.60778,-0.3957539 -0.9691,-0.3957539 z m 8.5e-4,0.7587395 a 0.61033455,0.61033455 0 0 1 0.42852,0.1776054 l 18.04391,18.0404676 c 0.11412,0.113121 0.17417,0.268686 0.17417,0.429357 0,0.158335 -0.0601,0.315902 -0.17417,0.428522 l -18.04391,18.041319 c -0.11028,0.110784 -0.27135,0.176754 -0.42852,0.176754 a 0.63098144,0.63098144 0 0 1 -0.42936,-0.176754 L 254.33578,15.67101 a 0.59938545,0.59938545 0 0 1 -0.17847,-0.428522 0.6158091,0.6158091 0 0 1 0.17847,-0.429357 l 18.0396,-18.0404676 a 0.61971951,0.61971951 0 0 1 0.42936,-0.1776054 z" /></g><path
       id="path64"
       style="color:#000000;fill:#000000;stroke-width:0.963489;-inkscape-stroke:none"
       d="M 267.15089,4.1602135 V 25.63948 h 3.07451 V 4.1602135 Z m 6.97005,0 v 7.8607935 l 2.30876,6.142055 v 7.476418 h 3.07501 v -8.035556 l -2.30875,-6.142055 V 4.1602135 Z" /></g></svg>
