<svg width="393.407" height="55.213" viewBox="0 0 104.089 14.609" xmlns="http://www.w3.org/2000/svg">
    <defs>
        <clipPath clipPathUnits="userSpaceOnUse" id="a">
            <path d="M31.168 89.464h504.664v653.537H31.168Z" transform="translate(-140.231 -338.636)"/>
        </clipPath>
    </defs>
    <path d="M0 0a4.221 4.221 0 0 0-4.216 4.217v32.727A4.22 4.22 0 0 0 0 41.161h286.373a4.221 4.221 0 0 0 4.216-4.217V4.217A4.222 4.222 0 0 0 286.373 0Z" style="fill:#fcd116;fill-opacity:1;fill-rule:nonzero;stroke:none" transform="matrix(.35278 0 0 -.35278 1.531 14.565)" clip-path="url(#a)"/>
    <path d="M0 0h-286.373a4.345 4.345 0 0 1-4.341-4.341v-32.728a4.345 4.345 0 0 1 4.341-4.341H0a4.345 4.345 0 0 1 4.341 4.341v32.728A4.345 4.345 0 0 1 0 0m0-.25a4.092 4.092 0 0 0 4.091-4.091v-32.728A4.09 4.09 0 0 0 0-41.16h-286.373a4.09 4.09 0 0 0-4.091 4.091v32.728a4.092 4.092 0 0 0 4.091 4.091z" style="fill:#000;fill-opacity:1;fill-rule:nonzero;stroke:none" transform="matrix(.35278 0 0 -.35278 102.557 0)"/>
    <path d="M0 0c0-.752-.612-1.364-1.364-1.364h-286.373c-.751 0-1.363.612-1.363 1.364v32.728c0 .752.612 1.364 1.363 1.364H-1.364c.752 0 1.364-.612 1.364-1.364Zm-1.364 35.797h-286.373a3.073 3.073 0 0 1-3.068-3.069V0a3.072 3.072 0 0 1 3.068-3.068H-1.364A3.072 3.072 0 0 1 1.705 0v32.728a3.073 3.073 0 0 1-3.069 3.069" style="fill:#000;fill-opacity:1;fill-rule:nonzero;stroke:none" transform="matrix(.35278 0 0 -.35278 103.038 13.077)"/>
    <path d="M0 0h-2.868v13.492H-7.57v2.872H4.702v-2.872H0Z" style="fill:#000;fill-opacity:1;fill-rule:nonzero;stroke:none" transform="matrix(.35278 0 0 -.35278 7.792 10.19)"/>
    <path d="M0 0h4.592L2.297 5.513Zm5.856-2.927h-7.118L-2.87-6.775h-3.213L.806 9.589H3.79l6.83-16.364H7.462Z" style="fill:#000;fill-opacity:1;fill-rule:nonzero;stroke:none" transform="matrix(.35278 0 0 -.35278 12.059 7.8)"/>
    <path d="m0 0-3.109-3.903v-4.594h-2.937V7.867h2.937V.747l5.815 7.12h3.8L2.131 2.526 7.543-8.497h-3.34z" style="fill:#000;fill-opacity:1;fill-rule:nonzero;stroke:none" transform="matrix(.35278 0 0 -.35278 18.92 7.193)"/>
    <path d="M0 0h11.984v-2.929H2.996v-3.042h4.897v-2.986H2.996v-4.478h9.276v-2.929H0Z" style="fill:#000;fill-opacity:1;fill-rule:nonzero;stroke:none" transform="matrix(.35278 0 0 -.35278 22.505 4.418)"/>
    <path d="M0 0h-2.868v13.492H-7.57v2.872H4.702v-2.872H0Z" style="fill:#000;fill-opacity:1;fill-rule:nonzero;stroke:none" transform="matrix(.35278 0 0 -.35278 33.834 10.19)"/>
    <path d="M239.284 367.399h2.945v-16.364h-2.945z" style="fill:#000;fill-opacity:1;fill-rule:nonzero;stroke:none" transform="matrix(.35278 0 0 -.35278 -47.939 134.028)"/>
    <path d="M0 0c0-3.561 1.491-5.625 3.96-5.625 1.493 0 2.297.517 3.733 2.068l2.583-1.379C9.072-7.233 6.601-8.552 3.96-8.552c-4.306 0-6.946 3.416-6.946 8.497 0 5.222 2.646 8.435 6.946 8.435 2.641 0 5.054-1.317 6.316-3.614L7.693 3.387c-.569.992-1.994 2.068-3.733 2.068C.974 5.455 0 2.526 0 0" style="fill:#000;fill-opacity:1;fill-rule:nonzero;stroke:none" transform="matrix(.35278 0 0 -.35278 39.895 7.274)"/>
    <path d="m0 0-3.109-3.903v-4.594h-2.937V7.867h2.937V.747l5.815 7.12h3.801L2.131 2.526 7.544-8.497H4.203Z" style="fill:#000;fill-opacity:1;fill-rule:nonzero;stroke:none" transform="matrix(.35278 0 0 -.35278 46.982 7.193)"/>
    <path d="M0 0h11.984v-2.929H2.996v-3.042h4.897v-2.986H2.996v-4.478h9.277v-2.929H0Z" style="fill:#000;fill-opacity:1;fill-rule:nonzero;stroke:none" transform="matrix(.35278 0 0 -.35278 50.567 4.418)"/>
    <path d="M0 0h-2.868v13.492H-7.57v2.872H4.702v-2.872H0Z" style="fill:#000;fill-opacity:1;fill-rule:nonzero;stroke:none" transform="matrix(.35278 0 0 -.35278 58.202 10.19)"/>
    <path d="m0 0-4.841-9.99L-9.626 0v-9.99h-2.882V6.374h2.882l4.785-9.704L0 6.374h2.882V-9.99H0Z" style="fill:#000;fill-opacity:1;fill-rule:nonzero;stroke:none" transform="matrix(.35278 0 0 -.35278 78.782 6.666)"/>
    <path d="M366.346 367.399h2.945v-16.364h-2.945z" style="fill:#000;fill-opacity:1;fill-rule:nonzero;stroke:none" transform="matrix(.35278 0 0 -.35278 -47.939 134.028)"/>
    <path d="M0 0h2.939v-13.838h9.333v-2.526H0Z" style="fill:#000;fill-opacity:1;fill-rule:nonzero;stroke:none" transform="matrix(.35278 0 0 -.35278 83.84 4.418)"/>
    <path d="M0 0h11.984v-2.929H2.997v-3.042h4.896v-2.986H2.997v-4.478h9.276v-2.929H0Z" style="fill:#000;fill-opacity:1;fill-rule:nonzero;stroke:none" transform="matrix(.35278 0 0 -.35278 89.15 4.418)"/>
    <path d="M0 0c-1.154-.698-2.645-1.107-4.15-1.107-2.825 0-4.96 1.048-6.805 3.202l2.364 1.863C-7.38 2.504-6.055 1.861-4.21 1.861c2.077 0 3.576.976 3.576 2.154 0 1.663-1.659 1.776-6.239 3.062-2.303.647-3.334 2.4-3.334 4.157 0 2.739 2.31 4.598 5.652 4.598 2.422 0 4.444-.812 6.114-2.557l-2.193-1.98c-1.037 1.107-2.365 1.63-3.921 1.63-1.794 0-2.651-.728-2.651-1.669 0-1.814 2.227-1.413 6.298-2.847C1.966 7.395 2.307 4.94 2.307 3.901 2.307 2.213 1.556.931 0 0" style="fill:#000;fill-opacity:1;fill-rule:nonzero;stroke:none" transform="matrix(.35278 0 0 -.35278 98.154 9.903)"/>
    <path d="M0 0v-3.661h-16.579c0 5.256 2.905 9.161 7.19 11.204 2.363 1.122 5.71 1.15 5.71 3.508 0 1.506-1.437 2.37-4.033 2.37-2.667 0-4.612-.644-6.343-2.224l-2.524 2.797c2.378 2.081 5.334 3.155 8.653 3.155 4.83 0 7.926-2.368 7.926-6.101 0-2.426-1.391-4.306-3.396-5.239C-6.185 4.515-9.634 4.822-12.109 0Z" style="fill:#000;fill-opacity:1;fill-rule:nonzero;stroke:none" transform="matrix(.35278 0 0 -.35278 70.04 9.624)"/>
</svg>
