<?xml version="1.0" encoding="UTF-8" standalone="no"?>
<svg
   width="89.985153"
   height="90.000923"
   viewBox="0 0 253.95815 254.0026"
   version="1.1"
   id="svg2"
   inkscape:version="1.1 (c68e22c387, 2021-05-23)"
   sodipodi:docname="MUTCD_W5-1 (1948).svg"
   xmlns:inkscape="http://www.inkscape.org/namespaces/inkscape"
   xmlns:sodipodi="http://sodipodi.sourceforge.net/DTD/sodipodi-0.dtd"
   xmlns="http://www.w3.org/2000/svg"
   xmlns:svg="http://www.w3.org/2000/svg"
   xmlns:rdf="http://www.w3.org/1999/02/22-rdf-syntax-ns#"
   xmlns:cc="http://creativecommons.org/ns#"
   xmlns:dc="http://purl.org/dc/elements/1.1/">
  <metadata
     id="metadata62">
    <rdf:RDF>
      <cc:Work
         rdf:about="">
        <dc:format>image/svg+xml</dc:format>
        <dc:type
           rdf:resource="http://purl.org/dc/dcmitype/StillImage" />
      </cc:Work>
    </rdf:RDF>
  </metadata>
  <defs
     id="defs60" />
  <sodipodi:namedview
     pagecolor="#ffffff"
     bordercolor="#666666"
     borderopacity="1"
     objecttolerance="10"
     gridtolerance="10"
     guidetolerance="10"
     inkscape:pageopacity="0"
     inkscape:pageshadow="2"
     inkscape:window-width="1366"
     inkscape:window-height="715"
     id="namedview58"
     showgrid="false"
     fit-margin-top="0"
     fit-margin-left="0"
     fit-margin-right="0"
     fit-margin-bottom="0"
     inkscape:zoom="5.6568542"
     inkscape:cx="61.783455"
     inkscape:cy="52.237513"
     inkscape:window-x="-8"
     inkscape:window-y="-8"
     inkscape:window-maximized="1"
     inkscape:current-layer="svg2"
     inkscape:pagecheckerboard="0" />
  <!-- draw the bicycle -->
  <!-- RIGHT -->
  <!-- LANE -->
  <!-- ONLY -->
  <path
     inkscape:connector-curvature="0"
     d="M 3.3615301,118.7608 118.71636,3.4024968 c 4.54025,-4.5367 11.94153,-4.5367 16.48178,0 L 250.55297,118.7608 c 4.54025,4.5368 4.54025,11.938 0,16.4783 L 135.19814,250.5974 c -4.54025,4.5403 -11.94153,4.5403 -16.48178,0 L 3.3615301,135.2391 c -4.48028,-4.4803 -4.4838,-11.998 0,-16.4783"
     style="fill:#ffd033;fill-opacity:1;fill-rule:nonzero;stroke:none"
     id="path3202" />
  <path
     inkscape:connector-curvature="0"
     d="M 5.6799901,121.0207 120.97838,5.7222968 c 3.27025,-3.2702 8.68891,-3.2631 11.95916,0 L 248.23593,121.0207 c 3.27377,3.2738 3.25966,8.6819 0,11.9592 L 132.93754,248.2783 c -3.27377,3.2632 -8.68186,3.2667 -11.95916,0 L 5.6799901,132.9799 c -3.25967,-3.2773 -3.27378,-8.6854 0,-11.9592"
     style="fill:#000000;fill-opacity:1;fill-rule:evenodd;stroke:none"
     id="path3214" />
  <path
     inkscape:connector-curvature="0"
     d="M 8.9255401,124.1834 124.14279,8.9661968 c 1.52047,-1.577 4.10986,-1.5734 5.63386,0 L 244.99037,124.1834 c 1.57339,1.5205 1.57339,4.1134 0,5.6339 L 129.77665,245.031 c -1.52047,1.5769 -4.11691,1.5804 -5.63386,0 L 8.9255401,129.8173 c -1.57339,-1.524 -1.57339,-4.1134 0,-5.6339"
     style="fill:#ffd033;fill-opacity:1;fill-rule:evenodd;stroke:none"
     id="path3218" />
  <path
     inkscape:connector-curvature="0"
     d="m 174.32253,151.0109 c 0,4.1416 -0.9772,7.5177 -2.83281,9.3698 -0.86783,0.8748 -1.85208,1.1994 -3.48544,1.1994 h -4.90362 v -21.1385 h 5.55978 c 1.30881,0 2.39536,0.5433 3.15736,1.3089 1.52753,1.6333 2.50473,5.1188 2.50473,9.2604 m 5.0165,0 c 0,-6.0996 -1.85209,-11.0067 -5.12234,-13.8395 -1.63689,-1.3053 -2.8328,-1.6334 -5.99016,-1.6334 h -10.02595 v 31.0551 h 9.47914 1.74272 c 1.63336,-0.1094 3.26673,-0.6527 4.46617,-1.7428 3.48545,-2.7234 5.45042,-7.627 5.45042,-13.8394 m -35.53531,1.8521 h -6.21242 l 3.16089,-8.7172 z m 10.02241,13.7301 -10.67505,-31.0551 h -4.90714 l -10.67506,31.0551 h 5.22817 l 3.05153,-8.7172 h 9.69786 l 3.048,8.7172 z m -34.87914,-15.4729 c 0,2.3989 -0.54681,5.4469 -1.19945,7.0838 -1.09008,2.7235 -2.50472,3.9229 -4.79072,3.9229 -1.96497,0 -3.27025,-0.762 -4.2545,-2.3989 -1.19944,-1.9614 -1.85208,-5.3375 -1.85208,-8.6078 0,-2.6141 0.43744,-5.4469 1.20297,-7.2989 1.08656,-2.727 2.61408,-3.9229 5.00945,-3.8171 1.85208,0.1094 3.05152,0.7655 4.03225,2.3989 1.19944,2.0673 1.85208,5.2282 1.85208,8.7171 m 4.90361,0 c 0,-3.9229 -0.762,-7.8457 -2.0708,-10.5692 -1.96145,-3.8135 -4.68489,-5.5598 -8.60778,-5.5598 -3.59834,0 -6.09953,1.0936 -7.95514,3.489 -2.07081,2.9422 -3.37609,7.5177 -3.37609,12.64 0,3.7042 0.87136,7.8458 2.17664,10.4599 1.85561,3.8135 4.57906,5.5774 8.93939,5.5774 3.26672,0 5.77145,-1.1077 7.51417,-3.5066 2.18369,-2.7234 3.37961,-7.6271 3.37961,-12.5307 m -31.721789,-6.865 c 0,1.3088 -0.762,2.6141 -1.96144,3.2702 -0.762,0.4339 -1.30881,0.5433 -2.83281,0.5433 h -5.8808 v -7.6271 h 5.8808 c 1.63689,0 2.07081,0.1094 2.83281,0.5433 1.19944,0.6562 1.96144,1.9615 1.96144,3.2703 m 5.55625,22.3379 -5.44689,-14.4921 c 2.83281,-1.3089 4.79426,-4.5756 4.79426,-7.8458 0,-3.1609 -1.96145,-6.4276 -4.68489,-7.7364 -1.524,-0.762 -3.16089,-0.9808 -5.55626,-0.9808 h -10.24466 v 31.0551 h 4.90714 v -13.5114 h 5.8808 l 5.01298,13.5114 z"
     style="fill:#000000;fill-opacity:1;fill-rule:evenodd;stroke:none"
     id="path3222" />
  <path
     inkscape:connector-curvature="0"
     d="m 207.72984,94.006468 h -5.01297 l -2.39889,16.344202 -4.02872,-16.344202 h -4.79425 l -3.92289,16.344202 -2.39536,-16.344202 h -5.01298 l 4.57553,31.055102 h 4.35681 l 4.79425,-19.9425 4.90714,19.9425 h 4.3568 z m -36.50192,15.578702 c 0,2.3989 -0.54328,5.4504 -1.19592,7.0838 -1.09008,2.727 -2.50825,3.9264 -4.79778,3.9264 -1.96144,0 -3.26672,-0.762 -4.25097,-2.3953 -1.19944,-1.965 -1.84855,-5.3411 -1.84855,-8.6149 0,-2.6105 0.43744,-5.4433 1.19591,-7.2954 1.09009,-2.726998 2.61761,-3.926398 5.01298,-3.813598 1.85561,0.1059 3.05505,0.762 4.03225,2.395398 1.19944,2.0708 1.85208,5.2317 1.85208,8.7136 m 4.90361,0 c 0,-3.9193 -0.762,-7.8422 -2.0708,-10.565698 -1.96498,-3.813504 -4.68489,-5.556204 -8.60426,-5.556204 -3.59833,0 -6.10658,1.0865 -7.95866,3.485404 -2.06728,2.9422 -3.37609,7.517698 -3.37609,12.636498 0,3.7077 0.87136,7.8493 2.17664,10.4634 1.85209,3.8135 4.57906,5.5774 8.93586,5.5774 3.27025,0 5.77498,-1.1077 7.5177,-3.5066 2.18017,-2.7234 3.37961,-7.627 3.37961,-12.5342 m -32.03575,-6.8615 c 0,1.3088 -0.76553,2.6141 -1.96498,3.2702 -0.75847,0.434 -1.30527,0.5433 -2.82575,0.5433 h -5.88433 v -7.626998 h 5.88433 c 1.62984,0 2.06728,0.1093 2.82575,0.5432 1.19945,0.656198 1.96498,1.961498 1.96498,3.270298 m 5.55625,22.3379 -5.44689,-14.4921 c 2.8328,-1.3053 4.79778,-4.5756 4.79778,-7.8458 0,-3.160898 -1.96498,-6.431098 -4.68842,-7.736402 -1.52753,-0.762 -3.16089,-0.9808 -5.55978,-0.9808 h -10.24114 v 31.055102 h 4.90714 v -13.5114 h 5.88433 l 5.00945,13.5114 z m -31.81351,-22.3379 c 0,1.3088 -0.76553,2.6141 -1.96497,3.2702 -0.762,0.434 -1.30528,0.5433 -2.83281,0.5433 h -5.88434 v -7.626998 h 5.88434 c 1.63336,0 2.07081,0.1093 2.83281,0.5432 1.19944,0.656198 1.96497,1.961498 1.96497,3.270298 m 5.55625,22.3379 -5.45042,-14.4921 c 2.83634,-1.3053 4.79426,-4.5756 4.79426,-7.8458 0,-3.160898 -1.95792,-6.431098 -4.68489,-7.736402 -1.524,-0.762 -3.15737,-0.9808 -5.55626,-0.9808 h -10.24114 v 31.055102 h 4.90008 v -13.5114 h 5.88434 l 5.01298,13.5114 z m -35.849295,-13.7301 h -6.21241 l 3.16089,-8.7172 z m 10.02242,13.7301 -10.67858,-31.055102 h -4.90009 l -10.68211,31.055102 h 5.23169 l 3.05153,-8.7136 h 9.69787 l 3.048,8.7136 z m -30.83631,0 V 94.006468 h -4.90361 V 113.83967 L 50.496745,94.006468 h -4.90361 v 31.055102 h 4.90361 v -21.0291 l 11.87803,21.0291 z"
     style="fill:#000000;fill-opacity:1;fill-rule:evenodd;stroke:none"
     id="path3226"
     sodipodi:nodetypes="ccccccccccccccccscsccccccscscsccccsccsccccscscccccccccsccsccccscsccccccccccccccccccccccccccccccc" />
</svg>
