<svg width="95.821" height="48.244" viewBox="0 0 25.353 12.765" xmlns="http://www.w3.org/2000/svg">
    <path d="M0 0a4.591 4.591 0 0 0-4.586 4.585v26.763A4.591 4.591 0 0 0 0 35.933h62.445a4.59 4.59 0 0 0 4.585-4.585V4.585A4.59 4.59 0 0 0 62.445 0Z" style="fill:#fcd116;fill-opacity:1;fill-rule:nonzero;stroke:none" transform="matrix(.35278 0 0 -.35278 1.662 12.72)"/>
    <path d="M0 0h-62.446a4.715 4.715 0 0 1-4.71-4.71v-26.763a4.715 4.715 0 0 1 4.71-4.71H0a4.715 4.715 0 0 1 4.71 4.71V-4.71A4.715 4.715 0 0 1 0 0m0-.25a4.46 4.46 0 0 0 4.46-4.46v-26.763A4.46 4.46 0 0 0 0-35.933h-62.446a4.46 4.46 0 0 0-4.46 4.46V-4.71a4.46 4.46 0 0 0 4.46 4.46z" style="fill:#000;fill-opacity:1;fill-rule:nonzero;stroke:none" transform="matrix(.35278 0 0 -.35278 23.691 0)"/>
    <path d="M0 0v26.762a2.231 2.231 0 0 1-2.23 2.231h-62.446a2.23 2.23 0 0 1-2.23-2.231V0a2.23 2.23 0 0 1 2.23-2.23H-2.23A2.23 2.23 0 0 1 0 0m-2.23-3.345h-62.446A3.345 3.345 0 0 0-68.021 0v26.762a3.346 3.346 0 0 0 3.345 3.346H-2.23a3.346 3.346 0 0 0 3.345-3.346V0A3.345 3.345 0 0 0-2.23-3.345" style="fill:#000;fill-opacity:1;fill-rule:nonzero;stroke:none" transform="matrix(.35278 0 0 -.35278 24.478 11.103)"/>
    <path d="M0 0c-.093.657-.353.963-.801.963-.778 0-1.061-.611-1.061-2.347 0-1.925.33-2.7 1.155-2.7.566 0 .707.47.707.963h.967C.943-4.224.237-5.023-.707-5.023c-1.437 0-2.074 1.15-2.074 3.615 0 2.159.683 3.308 2.003 3.308C.448 1.9.934.782.967 0z" style="fill:#000;fill-opacity:1;fill-rule:nonzero;stroke:none" transform="matrix(.35278 0 0 -.35278 3.876 7.93)"/>
    <path d="M0 0v-1.69h.983c.564 0 .868.305.868.845 0 .517-.352.845-.867.845Zm.914-2.606H0v-3.145h-.96v6.69h1.991c1.05 0 1.757-.704 1.757-1.784 0-.798-.329-1.385-.961-1.62l.96-3.286h-.982Z" style="fill:#000;fill-opacity:1;fill-rule:nonzero;stroke:none" transform="matrix(.35278 0 0 -.35278 5.028 7.632)"/>
    <path d="M0 0c-.191 0-1.053.039-1.053-2.514 0-2.572.862-2.532 1.053-2.532.191 0 1.052-.04 1.052 2.532C1.052.039.191 0 0 0m-1.974-2.509C-1.974.994-.35.938.011.938c.36 0 1.963.054 1.963-3.449C1.974-6.04.371-5.985.011-5.985c-.361 0-1.985-.055-1.985 3.476" style="fill:#000;fill-opacity:1;fill-rule:nonzero;stroke:none" transform="matrix(.35278 0 0 -.35278 7.063 7.59)"/>
    <path d="M0 0c.732-.459 1.829-1.102 1.829-2.423 0-1.083-.825-1.948-1.862-1.948-1.179 0-1.886.997-1.886 2.09h.943c0-.57.283-1.151.943-1.151.518 0 .942.469.942 1.009 0 1.455-2.498 1.371-2.498 3.24 0 .963.754 1.736 1.72 1.736.944 0 1.674-.727 1.698-1.737h-.92c-.023.469-.354.775-.778.775-.448 0-.801-.328-.801-.774C-.67.382-.439.275 0 0" style="fill:#000;fill-opacity:1;fill-rule:nonzero;stroke:none" transform="matrix(.35278 0 0 -.35278 8.79 8.16)"/>
    <path d="M0 0c.732-.459 1.829-1.102 1.829-2.423 0-1.083-.825-1.948-1.862-1.948-1.179 0-1.886.997-1.886 2.09h.943c0-.57.283-1.151.943-1.151.518 0 .942.469.942 1.009 0 1.455-2.498 1.371-2.498 3.24 0 .963.754 1.736 1.72 1.736.944 0 1.674-.727 1.698-1.737h-.92c-.023.469-.354.775-.778.775-.448 0-.801-.328-.801-.774C-.67.382-.439.275 0 0" style="fill:#000;fill-opacity:1;fill-rule:nonzero;stroke:none" transform="matrix(.35278 0 0 -.35278 10.396 8.16)"/>
    <path d="M0 0h-.965v5.798h-1.224v.892h3.413v-.892H0Z" style="fill:#000;fill-opacity:1;fill-rule:nonzero;stroke:none" transform="matrix(.35278 0 0 -.35278 13.125 9.66)"/>
    <path d="M0 0v-1.69h.983c.564 0 .868.305.868.845 0 .517-.352.845-.867.845Zm.914-2.606H0v-3.145h-.96v6.69h1.991c1.05 0 1.757-.704 1.757-1.784 0-.798-.329-1.385-.961-1.62l.96-3.286h-.982Z" style="fill:#000;fill-opacity:1;fill-rule:nonzero;stroke:none" transform="matrix(.35278 0 0 -.35278 14.226 7.632)"/>
    <path d="M0 0h.965L.471 1.925Zm1.2-.939H-.235L-.682-2.77h-.965l1.67 6.691h.943l1.67-6.691h-.965Z" style="fill:#000;fill-opacity:1;fill-rule:nonzero;stroke:none" transform="matrix(.35278 0 0 -.35278 16.003 8.683)"/>
    <path d="M0 0h1.342v-.916H0v-3.145h-.965v6.69h3.414V1.69H0Z" style="fill:#000;fill-opacity:1;fill-rule:nonzero;stroke:none" transform="matrix(.35278 0 0 -.35278 17.604 8.228)"/>
    <path d="M0 0h1.342v-.916H0v-3.145h-.965v6.69h3.414V1.69H0Z" style="fill:#000;fill-opacity:1;fill-rule:nonzero;stroke:none" transform="matrix(.35278 0 0 -.35278 19.138 8.228)"/>
    <path d="M364.17 543.1h.937v-6.69h-.937z" style="fill:#000;fill-opacity:1;fill-rule:nonzero;stroke:none" transform="matrix(.35278 0 0 -.35278 -108.138 198.894)"/>
    <path d="M0 0c-.093.657-.353.963-.801.963-.778 0-1.061-.611-1.061-2.347 0-1.925.33-2.7 1.155-2.7.566 0 .707.47.707.963h.967C.943-4.224.237-5.023-.707-5.023c-1.437 0-2.074 1.15-2.074 3.616 0 2.158.683 3.307 2.003 3.307C.448 1.9.934.782.967 0z" style="fill:#000;fill-opacity:1;fill-rule:nonzero;stroke:none" transform="matrix(.35278 0 0 -.35278 22.116 7.93)"/>
    <path d="M318.757 551.943h3.345v-.892h-3.345z" style="fill:#000;fill-opacity:1;fill-rule:nonzero;stroke:none" transform="matrix(.35278 0 0 -.35278 -108.138 198.894)"/>
    <path d="m0 0-.636 3.497L-1.272 0h-.847l-1.06 6.69h.942l.565-3.568.659 3.568h.755l.635-3.568.589 3.568h.942L.825 0Z" style="fill:#000;fill-opacity:1;fill-rule:nonzero;stroke:none" transform="matrix(.35278 0 0 -.35278 7.138 5.464)"/>
    <path d="M0 0h.965L.471 1.925Zm1.2-.939H-.235L-.682-2.77h-.965l1.67 6.691h.943l1.67-6.691h-.965Z" style="fill:#000;fill-opacity:1;fill-rule:nonzero;stroke:none" transform="matrix(.35278 0 0 -.35278 8.534 4.487)"/>
    <path d="M0 0h-.965v3.028L-2.612 6.69h1.011l1.13-2.417L.636 6.69h1.035L0 3.028Z" style="fill:#000;fill-opacity:1;fill-rule:nonzero;stroke:none" transform="matrix(.35278 0 0 -.35278 10.528 5.464)"/>
    <path d="M0 0h.96c.54 0 .891.376.891.963 0 .646-.387 1.126-.89 1.126H0Zm0 4.812V3.028h1.007c.446 0 .727.376.727.986 0 .576-.207.798-.726.798zM-.96-.939v6.69h2.108c.888 0 1.523-.704 1.523-1.737 0-.613-.164-.892-.702-1.456.515-.422.819-.986.819-1.666 0-1.002-.797-1.831-1.78-1.831z" style="fill:#000;fill-opacity:1;fill-rule:nonzero;stroke:none" transform="matrix(.35278 0 0 -.35278 13.03 5.133)"/>
    <path d="M347.393 554.995h.937v-6.69h-.937z" style="fill:#000;fill-opacity:1;fill-rule:nonzero;stroke:none" transform="matrix(.35278 0 0 -.35278 -108.138 198.894)"/>
    <path d="M0 0c-.093.657-.353.963-.801.963-.778 0-1.061-.611-1.061-2.347 0-1.925.33-2.7 1.155-2.7.566 0 .707.47.707.963h.967C.943-4.224.237-5.023-.707-5.023c-1.437 0-2.075 1.15-2.075 3.616 0 2.158.684 3.307 2.004 3.307C.448 1.9.934.782.967 0z" style="fill:#000;fill-opacity:1;fill-rule:nonzero;stroke:none" transform="matrix(.35278 0 0 -.35278 16.198 3.733)"/>
    <path d="M0 0h-.965v3.028L-2.613 6.69h1.012l1.13-2.417L.636 6.69h1.035L0 3.028Z" style="fill:#000;fill-opacity:1;fill-rule:nonzero;stroke:none" transform="matrix(.35278 0 0 -.35278 17.744 5.464)"/>
    <path d="M0 0c-.093.657-.353.963-.801.963-.778 0-1.061-.611-1.061-2.347 0-1.925.33-2.7 1.155-2.7.566 0 .707.47.707.963h.967C.943-4.224.237-5.023-.707-5.023c-1.437 0-2.075 1.15-2.075 3.616 0 2.158.684 3.307 2.004 3.307C.448 1.9.934.782.967 0z" style="fill:#000;fill-opacity:1;fill-rule:nonzero;stroke:none" transform="matrix(.35278 0 0 -.35278 19.598 3.733)"/>
    <path d="M0 0h.965v-5.798h2.449v-.892H0Z" style="fill:#000;fill-opacity:1;fill-rule:nonzero;stroke:none" transform="matrix(.35278 0 0 -.35278 20.411 3.104)"/>
    <path d="M0 0h3.155v-.939H.965v-1.69h1.388v-.916H.965v-2.207h2.449v-.938H0Z" style="fill:#000;fill-opacity:1;fill-rule:nonzero;stroke:none" transform="matrix(.35278 0 0 -.35278 21.946 3.104)"/>
    <path d="M0 0v-.939h-3.75c.054 2.108.982 3.153 1.752 3.766.592.472 1.078.594 1.078 1.162a.944.944 0 0 1-1.886 0h-.944c.024 1.057.828 1.878 1.887 1.878A1.868 1.868 0 0 0 0 3.989C0 2.023-2.103 2.696-2.712 0Z" style="fill:#000;fill-opacity:1;fill-rule:nonzero;stroke:none" transform="matrix(.35278 0 0 -.35278 3.525 5.133)"/>
</svg>
