<svg width="115.833" height="115.839" viewBox="0 0 30.648 30.649" xmlns="http://www.w3.org/2000/svg">
    <defs>
        <clipPath clipPathUnits="userSpaceOnUse" id="a">
            <path d="M31.412 45h504.176v508.157H31.412Z" transform="translate(-425.86 -217.81)"/>
        </clipPath>
    </defs>
    <path d="M0 0a4.064 4.064 0 0 0-2.891 1.197l-39.227 39.227a4.094 4.094 0 0 0 0 5.781l39.227 39.227A4.064 4.064 0 0 0 0 86.629a4.06 4.06 0 0 0 2.89-1.197l39.227-39.227a4.06 4.06 0 0 0 1.197-2.89 4.062 4.062 0 0 0-1.197-2.891L2.891 1.197A4.064 4.064 0 0 0 0 0" style="fill:#fcd116;fill-opacity:1;fill-rule:nonzero;stroke:none" transform="matrix(.35278 0 0 -.35278 15.324 30.605)" clip-path="url(#a)"/>
    <path d="M0 0a4.185 4.185 0 0 1-2.979-1.234l-39.227-39.227a4.218 4.218 0 0 1 0-5.957l39.227-39.227A4.185 4.185 0 0 1 0-86.879c1.125 0 2.183.438 2.979 1.234l39.227 39.227a4.218 4.218 0 0 1 0 5.957L2.979-1.234A4.185 4.185 0 0 1 0 0m0-.25a3.95 3.95 0 0 0 2.802-1.161l39.227-39.227a3.962 3.962 0 0 0 0-5.603L2.802-85.468A3.95 3.95 0 0 0 0-86.629a3.95 3.95 0 0 0-2.802 1.161l-39.227 39.227a3.962 3.962 0 0 0 0 5.603L-2.802-1.411A3.95 3.95 0 0 0 0-.25" style="fill:#000;fill-opacity:1;fill-rule:nonzero;stroke:none" transform="matrix(.35278 0 0 -.35278 15.324 0)"/>
    <path d="M0 0a2.864 2.864 0 0 0 0 4.047l39.227 39.227a2.864 2.864 0 0 0 4.047 0L82.501 4.047a2.864 2.864 0 0 0 0-4.047L43.274-39.227a2.864 2.864 0 0 0-4.047 0z" style="fill:#000;fill-opacity:1;fill-rule:nonzero;stroke:none" transform="matrix(.35278 0 0 -.35278 .772 16.038)"/>
    <path d="M0 0a1.322 1.322 0 0 0 0 1.868l39.227 39.227a1.322 1.322 0 0 0 1.868 0L80.322 1.868a1.322 1.322 0 0 0 0-1.868L41.095-39.227a1.322 1.322 0 0 0-1.868 0z" style="fill:#fcd116;fill-opacity:1;fill-rule:nonzero;stroke:none" transform="matrix(.35278 0 0 -.35278 1.156 15.654)"/>
    <path d="M0 0h1.667v-9.009h4.887v-1.558H0Z" style="fill:#000;fill-opacity:1;fill-rule:nonzero;stroke:none" transform="matrix(.35278 0 0 -.35278 7.659 9.888)"/>
    <path d="M0 0h2.125L1.08 2.965Zm2.721-1.705H-.597l-1.045-2.967h-1.789L.223 5.895h1.679L5.555-4.672H3.766Z" style="fill:#000;fill-opacity:1;fill-rule:nonzero;stroke:none" transform="matrix(.35278 0 0 -.35278 11.45 11.968)"/>
    <path d="M0 0v-7.155h-1.667V3.412H0l3.857-6.748v6.748h1.669V-7.155H4.043Z" style="fill:#000;fill-opacity:1;fill-rule:nonzero;stroke:none" transform="matrix(.35278 0 0 -.35278 14.669 11.092)"/>
    <path d="M0 0h6.221v-1.668H1.667v-2.596H4.74v-1.705H1.667v-2.893h4.887v-1.705H0Z" style="fill:#000;fill-opacity:1;fill-rule:nonzero;stroke:none" transform="matrix(.35278 0 0 -.35278 17.692 9.888)"/>
    <path d="m0 0 1.594.593C2.039-.408 2.854-.964 3.855-.964c.965 0 1.633.667 1.633 1.557 0 1.413-1.631 1.631-3.004 2.187-.63.261-2.039.891-2.039 2.633 0 2.078 1.408 2.853 3.299 2.853 1.484 0 2.485-.853 3.004-2.15L5.265 5.67c-.167.418-.77.928-1.558.928-1.507 0-1.635-.805-1.635-1.069 0-.988.852-1.183 2.238-1.618C5.72 3.467 7.193 2.819 7.193.553c0-2.281-1.849-3.222-3.338-3.222C2.038-2.669.704-1.594 0 0" style="fill:#000;fill-opacity:1;fill-rule:nonzero;stroke:none" transform="matrix(.35278 0 0 -.35278 20.451 12.74)"/>
    <path d="m0 0-2.45-6.118L-4.903 0v-6.118h-1.672V4.449h1.672l2.453-5.932L0 4.449h1.672V-6.118H0Z" style="fill:#000;fill-opacity:1;fill-rule:nonzero;stroke:none" transform="matrix(.35278 0 0 -.35278 9.594 17.981)"/>
    <path d="M0 0h6.221v-1.668H1.667v-2.596H4.74v-1.705H1.667v-2.893h4.887v-1.705H0Z" style="fill:#000;fill-opacity:1;fill-rule:nonzero;stroke:none" transform="matrix(.35278 0 0 -.35278 11.258 16.412)"/>
    <path d="M0 0c1.326 0 1.535.956 1.535 1.297 0 .461-.345 1.298-1.454 1.298h-2.18V0Zm-2.099-1.704v-4.599h-1.666V4.264H.057c2.422 0 3.149-1.938 3.149-2.968 0-.392-.146-1.938-1.641-2.646l1.863-4.953H1.61L-.095-1.704z" style="fill:#000;fill-opacity:1;fill-rule:nonzero;stroke:none" transform="matrix(.35278 0 0 -.35278 15.659 17.916)"/>
    <path d="M0 0c1.693 0 2.647-.642 3.363-2.335l-1.595-.629c-.445.927-.888 1.26-1.705 1.26-2.322 0-2.188-3.534-2.188-3.781 0-.398-.09-3.745 1.965-3.745 1.075 0 1.854.667 1.854 1.631v.444H-.234v1.67h3.595v-2.114c0-1.927-1.408-3.336-3.337-3.336-.383 0-3.854-.316-3.854 5.468C-3.83-4.657-3.785 0 0 0" style="fill:#000;fill-opacity:1;fill-rule:nonzero;stroke:none" transform="matrix(.35278 0 0 -.35278 18.89 16.347)"/>
    <path d="M0 0h6.221v-1.668H1.667v-2.596H4.74v-1.705H1.667v-2.893h4.887v-1.705H0Z" style="fill:#000;fill-opacity:1;fill-rule:nonzero;stroke:none" transform="matrix(.35278 0 0 -.35278 21.06 16.412)"/>
</svg>
