<?xml version="1.0" encoding="UTF-8"?>
<svg id="W10-14aP" xmlns="http://www.w3.org/2000/svg" width="30in" height="24in" viewBox="0 0 2160 1728">
  <rect width="2160" height="1728" rx="108" ry="108" fill="#fcd116"/>
  <path d="M2052,27H108c-44.66,0-81,36.34-81,81v1512c0,44.66,36.34,81,81,81h1944c44.66,0,81-36.34,81-81V108c0-44.66-36.34-81-81-81ZM2088,1620c0,19.85-16.15,36-36,36H108c-19.85,0-36-16.15-36-36V108c0-19.85,16.15-36,36-36h1944c19.85,0,36,16.15,36,36v1512Z"/>
  <g id="USE_NEXT">
    <g id="USE">
      <path d="M173.57,615.38v-255.38h51.68v258.93c0,33.89,19.81,56.88,50.42,56.88,27.73,0,47.94-22.73,47.94-56.88v-258.93h51.72v256.14c0,81.9-63.29,110.16-99.66,110.16-33.27,0-102.1-21.64-102.1-110.93Z"/>
      <path d="M526.64,675.86c27.91,0,50.73-25.29,50.73-54.36-.04-76.68-134.46-76.5-134.46-174.38,0-51.79,40.6-93.42,92.6-93.42s90.12,39.11,91.38,93.47h-49.56c-1.26-25.25-19.04-41.67-41.86-41.67-24.13,0-43.13,17.64-43.13,41.62,0,21.56,13.55,30.15,30.34,40.68,48.71,29.39,104.17,64.85,104.17,133.74,0,58.27-44.43,104.85-100.25,104.85-63.43,0-101.47-53.64-101.47-112.5h50.82c0,30.64,15.17,61.97,50.69,61.97Z"/>
      <path d="M676.69,360h169.8v50.54h-117.85v90.94h74.73v49.28h-74.73v118.76h131.81v50.49h-183.75v-360Z"/>
    </g>
    <g id="NEXT">
      <path d="M1163.99,478.75v241.25h-51.66v-360h51.66l98.33,216v-216h51.7v360h-39.06l-110.97-241.25Z"/>
      <path d="M1386.26,360h169.74v50.54h-117.81v90.94h74.7v49.27h-74.7v118.76h131.76v50.49h-183.69v-360Z"/>
      <path d="M1710.37,597.51l-50.9,122.49h-54.72l78.89-186.93-73.8-173.07h54.72l45.81,108.63,45.81-108.63h54.72l-72.54,173.07,78.89,186.93h-55.98l-50.89-122.49Z"/>
      <path d="M1961.21,720h-51.93v-311.98h-65.88v-48.02h183.69v48.02h-65.88v311.98Z"/>
    </g>
  </g>
  <g id="CROSSING">
    <path d="M318.87,1103.98c-5-35.37-18.99-51.8-43.11-51.8-41.85,0-57.11,32.85-57.11,126.27,0,103.59,17.77,145.26,62.19,145.26,30.46,0,38.03-25.29,38.03-51.8h52.02c-1.26,59.36-39.28,102.33-90.04,102.33-77.36,0-111.65-61.88-111.65-194.54,0-116.15,36.77-177.98,107.82-177.98,65.97,0,92.12,60.17,93.87,102.24h-52.02Z"/>
    <path d="M529.34,1198.75h-49.19v169.25h-51.66v-360h107.15c56.48,0,94.55,37.89,94.55,95.99,0,42.93-17.68,74.52-51.7,87.16l51.66,176.85h-52.87l-47.93-169.25ZM480.15,1058.53v90.95h52.92c30.33,0,46.67-16.43,46.67-45.5s-18.9-45.45-46.62-45.45h-52.97Z"/>
    <path d="M673.39,1187.23c0-188.51,87.44-185.49,106.83-185.49s105.66-2.88,105.66,185.63-86.27,186.89-105.66,186.89-106.83,2.97-106.83-187.02ZM779.63,1052.23c-10.26,0-56.66-2.12-56.66,135.27s46.4,136.26,56.66,136.26,56.61,2.12,56.61-136.26-46.35-135.27-56.61-135.27Z"/>
    <path d="M1030.56,1323.85c27.9,0,50.72-25.29,50.72-54.36-.04-76.68-134.42-76.5-134.42-174.38,0-51.8,40.59-93.42,92.57-93.42s90.09,39.11,91.35,93.47h-49.55c-1.26-25.24-19.04-41.67-41.85-41.67-24.12,0-43.11,17.64-43.11,41.62,0,21.56,13.55,30.15,30.33,40.68,48.69,29.39,104.13,64.84,104.13,133.74,0,58.27-44.42,104.85-100.22,104.85-63.41,0-101.43-53.64-101.43-112.5h50.8c0,30.64,15.17,61.96,50.67,61.96Z"/>
    <path d="M1266.81,1323.85c27.9,0,50.72-25.29,50.72-54.36-.04-76.68-134.42-76.5-134.42-174.38,0-51.8,40.59-93.42,92.57-93.42s90.09,39.11,91.35,93.47h-49.55c-1.26-25.24-19.04-41.67-41.85-41.67-24.12,0-43.11,17.64-43.11,41.62,0,21.56,13.55,30.15,30.33,40.68,48.69,29.39,104.13,64.84,104.13,133.74,0,58.27-44.42,104.85-100.22,104.85-63.41,0-101.43-53.64-101.43-112.5h50.8c0,30.64,15.17,61.96,50.67,61.96Z"/>
    <path d="M1415.99,1008h50.4v360h-50.4v-360Z"/>
    <path d="M1581.4,1126.75v241.25h-51.66v-360h51.66l98.33,216v-216h51.71v360h-39.06l-110.97-241.25Z"/>
    <path d="M1900.68,1374.3c-32.76,0-111.65-6.08-111.65-185.67s75.01-186.89,107.82-186.89c52.02,0,91.35,37.85,93.87,90.9h-52.02c-1.26-24.03-17.73-40.45-43.11-40.45-17.37,0-57.06,5.44-57.06,136.49s43.47,135.13,60.84,135.13c26.64,0,39.33-17.55,39.33-55.57v-23.99h-40.59v-50.58h92.61v74.52c0,90.09-59.31,106.11-90.04,106.11Z"/>
  </g>
</svg>