<?xml version="1.0" encoding="UTF-8"?>
<svg width="24in" height="18in" data-name="W10-21aP" viewBox="0 0 1728 1296" xmlns="http://www.w3.org/2000/svg">
<rect width="1728" height="1296" rx="108" fill="#fcd116"/>
<path d="m1620 27h-1512a81.096 81.096 0 0 0-81 81v1080a81.096 81.096 0 0 0 81 81h1512a81.096 81.096 0 0 0 81-81v-1080a81.096 81.096 0 0 0-81-81zm36 1161a36.041 36.041 0 0 1-36 36h-1512a36.041 36.041 0 0 1-36-36v-1080a36.041 36.041 0 0 1 36-36h1512a36.041 36.041 0 0 1 36 36z"/>
<g data-name="SIGNAL">
<path d="m217.15 463.28 43.45-16.164c12.131 27.288 34.342 42.444 61.629 42.444 26.279 0 44.494-18.18 44.494-42.444 0-38.52-44.458-44.46-81.861-59.616-17.171-7.092-55.582-24.264-55.582-71.748 0-56.628 38.375-77.76 89.924-77.76 40.426 0 67.713 23.256 81.86 58.608l-40.426 12.132c-4.5359-11.376-20.987-25.272-42.442-25.272-41.074 0-44.566 21.924-44.566 29.124 0 26.928 23.219 32.256 60.982 44.1 38.446 12.096 78.585 29.772 78.585 91.511 0 62.172-50.398 87.84-90.968 87.84-49.534-3e-4 -85.893-29.304-105.08-72.756z"/>
<path d="m457.27 243h46.078v288h-46.078z"/>
<path d="m664.77 238c46.15 0 72.141 17.496 91.652 63.648l-43.45 17.136c-12.132-25.272-24.227-34.344-46.474-34.344-63.285 0-59.649 96.336-59.649 103.07 0 10.836-2.4479 102.06 53.566 102.06 29.303 0 50.542-18.18 50.542-44.46v-12.096h-52.558v-45.504h97.988v57.6c0 52.524-38.375 90.936-90.968 90.936-10.44 0-105.04 8.6039-105.04-149.04 0-22.068 1.2243-149 104.4-149z"/>
<path d="m858.89 335.99v195.01h-45.43v-288h45.43l105.12 183.92v-183.92h45.502v288h-40.426z"/>
<path d="m1216.1 450.14h-90.428l-28.475 80.856h-48.778l99.608-288h45.754l99.572 288h-48.778zm-74.157-46.476h57.921l-28.475-80.82z"/>
<path d="m1332.2 243h45.43v245.55h133.19v42.444h-178.62z"/>
</g>
<g data-name="AHEAD">
<path d="m385.3 972.14h-90.428l-28.475 80.856h-48.778l99.608-288h45.754l99.571 288h-48.778zm-74.156-46.475h57.921l-28.475-80.82z"/>
<path d="m669.31 927.68h-105.15v125.32h-45.43v-288h45.43v116.21h105.12v-116.21h45.502v288h-45.466z"/>
<path d="m804.64 765h169.55v45.468h-124.12v70.739h83.768v46.476h-83.768v78.839h133.19v46.476h-178.62z"/>
<path d="m1180.9 972.14h-90.428l-28.475 80.856h-48.778l99.607-288h45.754l99.571 288h-48.777zm-74.157-46.475h57.922l-28.475-80.82z"/>
<path d="m1314.3 1053v-288h103.89c72.681 0 92.156 95.723 92.156 137.52 0 108.04-55.545 150.48-91.976 150.48zm96.979-242.53h-51.549v196.02h48.345c41.902 0 55.653-50.76 55.653-104.98 0-25.776-7.3434-91.044-52.45-91.044z"/>
</g>
</svg>