<?xml version="1.0" encoding="UTF-8" standalone="no"?>
<!-- Created with Inkscape (http://www.inkscape.org/) -->

<svg
   width="76.650841mm"
   height="76.652512mm"
   viewBox="0 0 76.650841 76.652512"
   version="1.1"
   id="svg1"
   xml:space="preserve"
   xmlns:inkscape="http://www.inkscape.org/namespaces/inkscape"
   xmlns:sodipodi="http://sodipodi.sourceforge.net/DTD/sodipodi-0.dtd"
   xmlns="http://www.w3.org/2000/svg"
   xmlns:svg="http://www.w3.org/2000/svg"><sodipodi:namedview
     id="namedview1"
     pagecolor="#ffffff"
     bordercolor="#000000"
     borderopacity="0.25"
     inkscape:showpageshadow="2"
     inkscape:pageopacity="0.0"
     inkscape:pagecheckerboard="0"
     inkscape:deskcolor="#d1d1d1"
     inkscape:document-units="mm" /><defs
     id="defs1" /><g
     inkscape:label="Layer 1"
     inkscape:groupmode="layer"
     id="layer1"
     transform="translate(-80.808245,-128.64407)"><g
       id="g4-0-2"
       transform="matrix(1.0239191,0,0,1.0239191,-175.18435,-26.65344)"><path
         d="m 323.65842,186.16942 -33.27875,-33.27519 a 4.1689316,4.1689316 0 0 0 -2.93444,-1.22452 c -1.09266,0 -2.15859,0.45011 -2.93657,1.22452 l -33.28088,33.27519 a 4.1610912,4.1610912 0 0 0 -1.21526,2.93657 c 0.007,1.09266 0.44512,2.16144 1.21561,2.93443 l 33.28018,33.27412 c 0.77085,0.77049 1.85068,1.21561 2.93942,1.21704 a 4.1956601,4.1956601 0 0 0 2.93443,-1.21704 l 33.27626,-33.27269 c 0.99715,-0.99715 1.42195,-2.49823 1.11761,-3.871 -0.17819,-0.79081 -0.61583,-1.37777 -1.11761,-2.00143"
         style="fill:#fcd116;fill-opacity:1;fill-rule:nonzero;stroke:none;stroke-width:0.35638"
         id="path1-4-8-4" /><path
         id="path2-8-5-2"
         style="fill:#000000;fill-opacity:1;fill-rule:evenodd;stroke:none;stroke-width:0.35638"
         d="m 287.4455,152.84132 a 3.0338617,3.0338617 0 0 0 -2.11201,0.86609 l -33.28583,33.28428 c -0.55168,0.5531 -0.86616,1.33023 -0.86816,2.11356 0,0.78332 0.31402,1.55928 0.86713,2.11202 l 33.28893,33.27497 a 3.0064205,3.0064205 0 0 0 2.11201,0.87488 3.0092715,3.0092715 0 0 0 2.11357,-0.87488 l 33.27497,-33.27394 h 5.2e-4 a 3.0007184,3.0007184 0 0 0 0.87384,-2.11356 3.0000057,3.0000057 0 0 0 -0.87384,-2.11202 l -33.27498,-33.28531 c -0.55417,-0.55061 -1.33283,-0.86609 -2.11615,-0.86609 z m 0.002,1.62109 a 1.3888123,1.3888123 0 0 1 0.96222,0.39532 l 33.28014,33.27807 c 0.25266,0.24911 0.39945,0.61969 0.39945,0.96894 a 1.3820411,1.3820411 0 0 1 -0.39945,0.9648 l -33.27808,33.28117 c -0.25018,0.24911 -0.61111,0.39636 -0.96428,0.39636 -0.34961,0 -0.71994,-0.14725 -0.97048,-0.39636 l -33.27911,-33.28272 c -0.25374,-0.25374 -0.39126,-0.60862 -0.39326,-0.96429 0,-0.35602 0.13995,-0.71487 0.39119,-0.9679 l 33.28118,-33.27807 c 0.25018,-0.24875 0.61838,-0.39532 0.97048,-0.39532 z" /></g><path
       id="path4-6-2-0-3-0"
       style="fill:#000000;fill-opacity:1;fill-rule:nonzero;stroke:none;stroke-width:0.545436"
       d="m 112.88045,142.71274 c -0.47064,0.0539 -0.6286,0.42116 -0.7736,0.77669 l -2.23397,5.47667 c -0.78966,-0.21159 -1.72031,1.77612 -1.72031,1.77612 l -0.95705,3.57239 c 0,0 -0.38596,0.21888 -0.4842,0.5855 -0.0982,0.36663 0.11007,0.66145 0.11007,0.66145 0,0 -0.32809,0.15117 -0.42633,0.5178 -0.0982,0.36663 0.108,0.66921 0.108,0.66921 l -0.10542,0.39481 1.93942,0.51935 -0.7829,2.92178 c -0.12279,0.45829 0.14682,0.92624 0.60513,1.04903 l 1.03404,0.27751 c 0.45829,0.1228 0.92624,-0.14787 1.04904,-0.60617 l 0.78289,-2.92178 14.873,3.98528 -0.7829,2.92179 c -0.1228,0.45829 0.14736,0.92623 0.60565,1.04903 l 1.03353,0.27699 c 0.4583,0.1228 0.92623,-0.14735 1.04903,-0.60565 l 0.7829,-2.92179 1.93941,0.51935 0.10594,-0.39429 c 0,0 0.32964,-0.15893 0.42788,-0.52555 0.0982,-0.36663 -0.11007,-0.66146 -0.11007,-0.66146 0,0 0.32809,-0.15118 0.42633,-0.5178 0.0982,-0.36661 -0.12661,-0.7493 -0.12661,-0.7493 l 0.95705,-3.5724 c 0,0 0.18761,-2.18672 -0.60203,-2.3983 l 0.80409,-5.85959 c 0.0696,-0.5072 0.12883,-1.0437 -0.82063,-1.29811 l -18.12137,-4.85604 c -0.23737,-0.0636 -0.42913,-0.0805 -0.58601,-0.0625 z m 0.57774,1.31464 7.2993,1.95596 2.91093,0.77979 7.2993,1.95596 -0.9431,4.47776 -8.0176,-2.14819 -1.95337,-0.52348 -0.83819,-0.22428 c 0.0148,-0.13543 0.0337,-0.27261 -0.0129,-0.40824 l 0.003,-0.01 c -0.0574,-0.16889 -0.11317,-0.32271 -0.25269,-0.44597 -0.12755,-0.11462 -0.25479,-0.21114 -0.4253,-0.25683 -0.16912,-0.0453 -0.35475,-0.0939 -0.48421,-0.22066 -0.12027,-0.11992 -0.21864,-0.22674 -0.30489,-0.37413 -0.0777,-0.13411 0.12535,-0.27016 0.21394,-0.33487 0.10454,-0.078 0.24333,-0.2125 0.2775,-0.34003 0.0219,-0.0818 0.0223,-0.16581 0.062,-0.24288 0.0381,-0.0738 0.088,-0.13366 0.12144,-0.20877 0.0701,-0.15301 0.0375,-0.32239 0.0904,-0.47232 0.0505,-0.14727 0.10467,-0.28259 0.10438,-0.44494 -7.7e-4,-0.37227 -0.16569,-0.61494 -0.41857,-0.86506 -0.4594,-0.45569 -1.45399,-0.35295 -1.82315,0.17312 -0.20313,0.28999 -0.32589,0.62856 -0.35605,0.98133 -0.0335,0.34188 0.12183,0.67302 0.0904,1.00304 -0.004,0.0574 0.003,0.18378 -0.0253,0.23099 -0.0448,0.0721 -0.12218,0.0142 -0.19378,-0.016 -0.11499,-0.0674 -0.34001,-0.0907 -0.46923,-0.0594 -0.15126,0.0326 -0.30643,0.0499 -0.46353,0.008 -0.15072,-0.0404 -0.28557,-0.16807 -0.43874,-0.18706 -0.62467,-0.0764 -1.0613,0.32319 -1.21904,0.90278 l -1.25471,-0.33589 z m -6.75979,18.64693 c -0.40853,-0.005 -0.74058,0.17565 -0.92863,0.65164 -0.4744,1.19995 -0.89353,1.6905 -1.4087,2.07067 -0.51517,0.38018 -1.26015,0.66563 -2.35334,1.08986 -1.02004,0.39584 -2.737569,0.97592 -4.259691,1.86914 -0.761062,0.4466 -1.491679,0.97244 -2.072225,1.69705 -0.580546,0.72462 -0.994053,1.73552 -0.873332,2.80861 0.133314,1.185 0.938398,2.07744 1.775602,2.61121 0.837204,0.53376 1.775786,0.84257 2.722832,1.07436 1.894084,0.46359 3.908204,0.59245 4.728394,0.69143 1.01366,0.12234 2.7844,0.26811 4.22093,0.67954 0.71827,0.20572 1.3267,0.48645 1.64434,0.73432 0.31764,0.24787 0.34365,0.31532 0.34365,0.53537 0,0.65109 -0.82165,2.10393 -1.83606,3.21686 -1.0144,1.11292 -2.03709,1.90996 -2.03709,1.90996 l 1.82056,2.34198 c 0,0 1.20028,-0.92897 2.40813,-2.25413 1.20785,-1.32515 2.60914,-3.02 2.60914,-5.21467 0,-1.20283 -0.68267,-2.24777 -1.48415,-2.87321 -0.80148,-0.62544 -1.72412,-0.98001 -2.65255,-1.24592 -1.85688,-0.53182 -3.84256,-0.67417 -4.68343,-0.77566 -1.03436,-0.12484 -2.8418,-0.25109 -4.377,-0.62683 -0.7676,-0.18788 -1.447165,-0.44637 -1.833995,-0.69299 -0.386829,-0.24663 -0.411105,-0.34784 -0.421679,-0.44183 -0.02316,-0.2059 0.0075,-0.33418 0.240295,-0.62477 0.232813,-0.29059 0.683919,-0.65541 1.257805,-0.99218 1.147774,-0.67354 2.709534,-1.22848 3.831804,-1.66399 1.04913,-0.40713 2.06151,-0.74569 3.04116,-1.46864 0.97965,-0.72295 1.79124,-1.81582 2.40399,-3.36569 0.30127,-0.76101 -0.26288,-1.25432 -1.02371,-1.55597 -0.28558,-0.1129 -0.55794,-0.18259 -0.80305,-0.18552 z m 17.6785,3.72225 c -0.24891,0.41064 -1.12983,0.77554 -2.38486,1.27124 -0.62752,0.24785 -1.32957,0.53929 -1.97043,1.1312 -0.64084,0.59191 -1.11931,1.57303 -1.11931,2.61896 0,0.55937 0.16273,1.89888 1.20096,2.78329 1.03822,0.88441 2.56984,1.37669 5.1723,1.66398 2.44485,0.26989 5.04556,0.61067 6.90035,1.12913 0.9274,0.25923 1.66187,0.57436 2.03915,0.83561 0.37729,0.26124 0.32401,0.28435 0.32401,0.30076 0,0.10207 -0.15423,0.65843 -0.53691,1.28312 -0.38267,0.6247 -0.93981,1.33346 -1.50792,1.9787 -1.13622,1.29046 -2.28513,2.31252 -2.28513,2.31252 l 1.9668,2.21898 c 0,0 1.26512,-1.12108 2.543,-2.57245 0.63894,-0.72568 1.28968,-1.53535 1.81229,-2.38849 0.52261,-0.85313 0.97255,-1.73539 0.97255,-2.83238 0,-1.18264 -0.76162,-2.15825 -1.59938,-2.73833 -0.83776,-0.58009 -1.82653,-0.94536 -2.92954,-1.25368 -2.20601,-0.61663 -4.89599,-0.94691 -7.37526,-1.22059 -2.32165,-0.25629 -3.31718,-0.7559 -3.57394,-0.97462 -0.25676,-0.21872 -0.15865,-0.0938 -0.15865,-0.52555 0,-0.3302 0.02,-0.30613 0.1664,-0.44132 0.14637,-0.13519 0.52026,-0.34222 1.04851,-0.55087 1.05651,-0.41729 2.8056,-0.80192 3.83026,-2.49235 z" /></g></svg>
