<?xml version="1.0" encoding="UTF-8" standalone="no"?>
<!-- Created with Inkscape (http://www.inkscape.org/) -->

<svg
   width="75.759331mm"
   height="76.321182mm"
   viewBox="0 0 75.759331 76.321182"
   version="1.1"
   id="svg1"
   xml:space="preserve"
   inkscape:version="1.3.2 (091e20e, 2023-11-25, custom)"
   sodipodi:docname="MUTCDstyledraw.svg"
   xmlns:inkscape="http://www.inkscape.org/namespaces/inkscape"
   xmlns:sodipodi="http://sodipodi.sourceforge.net/DTD/sodipodi-0.dtd"
   xmlns="http://www.w3.org/2000/svg"
   xmlns:svg="http://www.w3.org/2000/svg"><sodipodi:namedview
     id="namedview1"
     pagecolor="#ffffff"
     bordercolor="#000000"
     borderopacity="0.25"
     inkscape:showpageshadow="2"
     inkscape:pageopacity="0.0"
     inkscape:pagecheckerboard="0"
     inkscape:deskcolor="#d1d1d1"
     inkscape:document-units="mm"
     inkscape:zoom="0.64"
     inkscape:cx="6479.6875"
     inkscape:cy="6149.2187"
     inkscape:window-width="1920"
     inkscape:window-height="1017"
     inkscape:window-x="-8"
     inkscape:window-y="-8"
     inkscape:window-maximized="1"
     inkscape:current-layer="layer1"
     showguides="true" /><defs
     id="defs1"><style
       id="style1">
	.a {
		fill: #fff;
	}

	.b {
		fill: #af1e2d;
	}
  </style><style
       id="style1-8">
	.a {
		fill: #fff;
	}

	.b {
		fill: #af1e2d;
	}
  </style></defs><g
     inkscape:label="Layer 1"
     inkscape:groupmode="layer"
     id="layer1"
     transform="translate(-2013.5987,-1659.5177)"><g
       id="g535"><g
         id="g446"
         inkscape:export-filename="..\..\..\MSHA W11-1(2) (Obsolete).svg"
         inkscape:export-xdpi="96"
         inkscape:export-ydpi="96"
         transform="translate(777.03536,395.90077)"><g
           id="g445"
           inkscape:export-filename="..\..\..\PA W11-14.svg"
           inkscape:export-xdpi="96"
           inkscape:export-ydpi="96"
           transform="translate(165.94668,727.37308)"><g
             id="g444"
             transform="translate(-535.20028,536.62215)"><path
               d="M 1680.3741,34.791324 1646.678,0.8510405 c -1.6212,-1.64170912 -4.332,-1.63657878 -5.9543,0 l -33.6909,33.9402835 c -1.6171,1.631449 -1.6253,4.358738 0,5.990187 l 33.6909,33.94131 c 1.6192,1.621187 4.3393,1.631448 5.9543,0.0021 l 33.6961,-33.943362 c 1.7443,-1.755603 1.455,-4.196619 0,-5.990187"
               style="fill:#ffd033;fill-opacity:1;fill-rule:nonzero;stroke:none;stroke-width:1.02607"
               id="path443" /><path
               id="path444"
               style="fill:#000000;fill-opacity:1;fill-rule:evenodd;stroke:none;stroke-width:1.02607"
               d="m 1643.7017,0.69453125 c -0.8102,6.4129e-4 -1.6203,0.30359763 -2.2236,0.90743815 l -33.691,33.9457316 c -1.2149,1.223072 -1.2067,3.252609 0,4.473629 l 33.691,33.942114 c 1.2149,1.213838 3.2329,1.216916 4.4468,0 l 33.6971,-33.941081 v 0 c 1.2087,-1.214864 1.2036,-3.256713 0,-4.473628 L 1645.9249,1.6019694 c -0.6029,-0.60640569 -1.413,-0.90807944 -2.2232,-0.90743815 z m -10e-4,1.77250165 c 0.3534,0.00154 0.7073,0.1357446 0.9715,0.3973917 l 33.6993,33.9359134 a 1.4231566,1.4231566 0 0 1 0,1.960604 v 0 l -33.6992,33.941597 c -0.5335,0.528425 -1.409,0.530478 -1.9394,0 l -33.6931,-33.941597 a 1.4108438,1.4108438 0 0 1 0,-1.960604 l 33.6941,-33.9359134 c 0.2617,-0.2678035 0.6146,-0.3989308 0.9679,-0.3973917 z" /></g></g></g><path
         id="rect447"
         style="fill:#000000;fill-opacity:1;stroke:none;stroke-width:0.799999;stroke-dasharray:none;stroke-opacity:1"
         d="m 2057.9606,1675.4201 c -0.047,-6e-4 -0.095,0 -0.1422,0.014 l 0.2311,0.04 c -0.3293,-0.029 -0.6879,0.2542 -0.5014,0.5937 0.1181,0.2262 0.4225,0.3678 0.6436,0.2603 0.1621,-0.079 0.2899,-0.2717 0.1868,-0.4865 -0.059,-0.1188 -0.074,-0.2033 -0.1522,-0.3052 -0.067,-0.086 -0.1631,-0.1102 -0.2657,-0.1102 z m -8.675,0.044 c -0.033,0 -0.067,0.014 -0.1007,0.034 -0.2408,0.1528 -0.4769,-0.034 -0.703,0.1023 v -5e-4 c -0.1818,0.1132 -0.4568,0.1866 -0.3536,0.4297 0.034,0.079 0.1767,0.091 0.2751,0.1304 0.285,0.1132 0.4621,0.3959 0.7079,0.611 0.1032,0.091 0.2845,0.1244 0.3975,0.014 0.1572,-0.1697 0.4521,-0.1413 0.4816,-0.3902 0.02,-0.1866 0.1721,-0.3 0.123,-0.4697 -0.02,-0.056 -0.015,-0.1695 -0.098,-0.1808 -0.1131,-0.014 -0.2455,0.034 -0.3339,-0.023 -0.1356,-0.088 -0.2554,-0.2567 -0.3956,-0.2534 z m 1.8137,0.05 v 0.01 c -0.028,2e-4 -0.054,0 -0.082,0 v 0.074 c -0.098,0.141 -0.2601,0.079 -0.373,0.1472 -0.069,0.04 -0.1084,0.1526 -0.1378,0.2202 -0.098,0.2264 0.1719,0.3624 0.28,0.4812 0.1621,0.1811 0.4325,0.164 0.6684,0.2489 0.177,0.068 0.1129,-0.3846 0.2998,-0.447 0.069,-0.023 0.064,-0.1588 0.1477,-0.1191 0.053,-0.1583 0.044,-0.3165 -0.055,-0.3561 -0.2359,-0.1019 -0.4802,-0.2564 -0.7435,-0.2548 z m 9.1315,0.046 c -0.3098,0.1465 -0.9627,-0.2033 -0.7662,0.3789 0.059,0.17 0.3096,0.249 0.4668,0.4075 0.1229,0.1302 0.3046,0.085 0.3931,0.017 0.2654,-0.1924 -0.03,-0.5146 -0.094,-0.8032 z m -3.5614,0.039 c -0.079,0 -0.1553,0.014 -0.2217,0.056 -0.054,0.034 -0.054,0.1584 -0.1576,0.1245 -0.03,0.1188 -0.1769,0.2205 -0.1032,0.3393 0.02,0.029 0.1035,0.051 0.1278,0.074 0.1721,0.1583 0.3093,0.4525 0.5405,0.3166 0.1031,-0.062 0.074,-0.2375 0.094,-0.3789 0,-0.029 0.054,-0.051 0.064,-0.091 0.064,-0.2319 -0.1181,-0.3449 -0.2998,-0.4015 -0.015,-0.014 -0.012,-0.033 0.015,-0.035 h -0.059 z m 0.059,0 h 0.018 z m -11.649,0.021 -5e-4,5e-4 c -0.1559,0 -0.2678,0.1444 -0.3956,0.2411 -0.1277,0.091 0.015,0.2487 0.098,0.4183 0.088,0.1699 -0.012,0.4357 0.054,0.6338 0.02,0.068 0.053,0.1811 0.098,0.2094 0.1131,0.056 0.1916,0.13 0.2998,0.1867 0.044,0.023 0.128,0.029 0.1378,0 0.084,-0.1642 0.2945,-0.096 0.3388,-0.3394 0.074,-0.4243 0.02,-0.8144 -0.064,-1.1765 -0.049,-0.2262 -0.3734,-0.034 -0.5651,-0.1472 h 0.113 c -0.041,-0.018 -0.079,-0.027 -0.1155,-0.027 z m 2.0439,0.023 c -0.018,4e-4 -0.039,6e-4 -0.061,0.015 -0.1179,0.056 -0.2652,0.056 -0.3684,0.1753 -0.025,0.029 -0.025,0.1243 0,0.1526 0.098,0.1188 0.1866,0.2546 0.2554,0.3847 0.098,0.2035 0.4376,0.2319 0.5507,0.045 0.094,-0.1642 0.054,-0.4812 -0.1576,-0.6056 -0.015,-0.014 0,-0.079 0,-0.1245 -0.073,0.023 -0.1309,-0.044 -0.2138,-0.042 z m 6.3195,0.034 -5e-4,0.01 c -0.02,0 -0.046,0.035 -0.061,0.035 l 5e-4,6e-4 c -0.1767,0 -0.2852,0.147 -0.2213,0.3166 0.054,0.1414 0.1964,0.2147 0.2899,0.3279 0.1229,0.1527 0.3981,-0.045 0.3636,-0.322 0,-0.017 0.049,-0.023 0.059,-0.051 0.029,-0.056 -2e-4,-0.1472 -0.034,-0.1585 -0.123,-0.039 -0.2802,0.014 -0.3833,-0.1413 z m -10.8869,0.01 c -0.1474,0.1245 -0.2065,0.2828 -0.3196,0.4242 -0.074,0.091 -0.054,0.4012 0.054,0.413 0.1818,0.023 0.3979,0.1303 0.5601,0.023 0.1669,-0.1018 0.1082,-0.3621 0.029,-0.5375 -0.053,-0.1188 -0.2061,-0.1582 -0.3191,-0.2375 v -6e-4 c -0.015,-0.014 0,-0.051 0,-0.085 z m 12.0174,0.034 v 9e-4 c -0.029,-3e-4 -0.054,0.014 -0.073,0.027 -0.113,0.1131 -0.2506,0.074 -0.3389,0.1753 -0.059,0.062 -0.025,0.2321 0.034,0.2716 0.1082,0.074 0.069,0.2207 0.1472,0.2717 0.094,0.068 0.2213,0.017 0.2899,-0.045 0.094,-0.091 0.1428,-0.2378 0.246,-0.3338 0.079,-0.074 0.034,-0.1639 0.02,-0.2149 -0.03,-0.086 -0.097,-0.1132 -0.1852,-0.1018 -0.044,-0.03 -0.097,-0.05 -0.1413,-0.051 z m 0.8926,9e-4 c -0.017,3e-4 -0.031,2e-4 -0.041,0.02 -0.074,0.1075 -0.1674,0.198 -0.2214,0.328 -0.083,0.2151 0.074,0.3846 0.039,0.5769 -0.02,0.1527 -0.044,0.2999 -0.053,0.447 -0.012,0.1132 0.1079,0.1586 0.1422,0.2604 0.069,-0.056 0.1183,0.033 0.1427,0.061 0.1622,0.181 0.3389,0.4361 0.5305,0.3004 0.1278,-0.096 0.31,-0.1187 0.3887,-0.2771 0.2162,-0.4412 -0.2165,-0.6961 -0.3591,-1.058 -0.025,-0.074 -0.012,-0.2207 -0.053,-0.2322 -0.1278,-0.034 -0.1032,-0.1639 -0.1817,-0.2148 -0.02,-0.014 0,-0.074 0,-0.1191 -0.064,0.034 -0.074,-0.091 -0.1572,-0.062 v 5e-4 c -0.048,0.014 -0.1205,-0.032 -0.1709,-0.032 z m -2.858,0.082 -4e-4,0.01 c -0.041,0 -0.073,0.053 -0.1058,0.091 h 0.015 0.025 v 5e-4 c -0.012,-5e-4 -0.017,-7e-4 -0.025,-5e-4 -0.2492,0 -0.2346,0.3724 -0.3487,0.4929 -0.098,0.1018 -0.2061,0.3225 -0.1423,0.413 0.118,0.1639 0.2848,0.2259 0.4519,0.3561 0.1327,0.1018 0.2114,-0.045 0.2999,-0.1981 0.015,-0.017 0.094,0 0.098,-0.014 0.059,-0.1583 0.2259,-0.1696 0.2653,-0.3052 0.039,-0.1358 -0.099,-0.2321 -0.1526,-0.3226 -0.1179,-0.2035 -0.1423,-0.3789 -0.3339,-0.5034 -0.017,-0.014 -0.032,-0.015 -0.047,-0.015 z m -8.9046,0.092 v 0 c -0.013,3e-4 -0.023,0 -0.035,0 l 0.1116,0.045 c -0.1769,-0.062 -0.2503,0.2205 -0.4223,0.1753 -0.012,0.1641 0.044,0.3341 0.128,0.4643 0.1326,0.2093 0.02,0.5204 0.2899,0.6506 0.015,0 -10e-5,0.096 0.012,0.1071 0.1769,0.1132 0.3834,0.1078 0.5651,0.068 0.1425,-0.029 0.187,-0.3342 0.064,-0.4248 -0.1277,-0.096 -0.064,-0.3051 -0.2114,-0.3334 0.049,-0.1924 -0.044,-0.3394 -0.1279,-0.4751 -0.097,-0.1486 -0.2019,-0.2823 -0.3725,-0.2796 z m 15.3802,0.3072 h 0.01 c -0.028,-10e-5 -0.056,0.024 -0.086,0.033 -0.1131,0.023 -0.2213,0.056 -0.3393,0.074 -0.172,0.023 -0.1966,0.2771 -0.3784,0.3561 -0.02,0.014 -0.025,0.1361 0,0.1927 0.078,0.1584 0.2064,0.2264 0.2801,0.3961 0.088,0.2093 0.334,0.328 0.5552,0.1527 0.049,-0.034 0.1424,0.017 0.1768,-0.023 0.2409,-0.2546 0.56,-0.577 0.4371,-0.9448 -0.069,-0.1922 -0.3486,-0.079 -0.5403,-0.1018 0.012,-0.074 -0.049,-0.096 -0.084,-0.1245 -0.012,-0.014 -0.017,-0.014 -0.027,-0.014 z m -1.5115,0.242 -0.01,10e-4 c -0.075,0 -0.1413,0.033 -0.1715,0.094 -0.081,0.167 -0.029,0.027 0,-0.014 -0.1192,0.1302 -0.3274,0.1174 -0.4282,0.1996 -0.1375,0.1131 -0.078,0.379 -0.049,0.5828 0.02,0.1301 0.138,0.2319 0.2263,0.2885 0.098,0.068 0.2701,-0.029 0.3586,0.045 0.1081,0.091 0.2065,0.2206 0.3147,0.1754 0.1276,-0.056 0.3192,-3e-4 0.3733,-0.1586 0.069,-0.2093 0.039,-0.4638 -0.049,-0.6391 -0.074,-0.1584 -0.1765,-0.3051 -0.2895,-0.4466 -0.073,-0.089 -0.1843,-0.1316 -0.2811,-0.1274 z m -0.1763,0.08 c 0,0 0.01,0 0.01,-0.013 l -0.012,0.013 v 5e-4 c 0,0 0,-5e-4 0,0 z m -10.8992,-0.013 v 0.1358 c -0.1076,-0.038 -0.1424,0.045 -0.1818,0.1358 -0.034,0.085 4e-4,0.2037 -0.02,0.2999 -0.015,0.074 -0.128,0.056 -0.128,0.091 0.015,0.2149 -0.1914,0.2547 -0.1472,0.4357 0.015,0.045 0.02,0.1529 0.094,0.1812 0.2014,0.074 0.3145,0.2374 0.4569,0.4015 0.1375,0.1529 0.3149,0.096 0.4623,0.1018 0.034,0 0.059,-0.1524 0.1181,-0.1807 0.049,-0.023 0.1376,0 0.1867,0 0.1573,-0.017 0.398,0.029 0.4766,-0.1586 0.055,-0.1415 0.074,-0.3563 -0.029,-0.5033 -0.053,-0.085 -0.1428,-0.1416 -0.251,-0.1641 -0.2457,-0.045 -0.295,-0.4072 -0.5111,-0.4865 -0.1967,-0.068 -0.3486,-0.164 -0.5256,-0.2884 z m 14.0604,0.2554 h 5e-4 c -0.012,3e-4 -0.015,0 -0.022,0 -0.1769,0.04 -0.368,0.079 -0.4762,0.2041 -0.049,0.062 -0.02,0.2146 -0.1229,0.3052 -0.035,0.023 -0.035,0.1584 0,0.1867 0.083,0.079 0.1227,0.2316 0.2553,0.2316 -0.02,0.085 0.025,0.153 0.039,0.2208 0.094,-0.023 0.1915,0.096 0.2553,0.034 0.2655,-0.2715 0.3784,-0.6733 0.2505,-1.0354 -0.012,-0.036 -0.075,-0.1532 -0.1798,-0.1491 z m -10.6942,0.1012 c -0.044,0.091 -0.1277,0.062 -0.1868,0.096 -0.1228,0.079 -0.167,0.2491 -0.1032,0.3792 0.118,0.2603 0.2213,0.6392 0.5113,0.5429 0.113,-0.04 0.3343,-0.1301 0.2213,-0.2998 -0.1327,-0.1922 -0.1477,-0.3791 -0.2263,-0.5829 -0.029,-0.079 -0.1868,0.017 -0.2163,-0.1358 z m 1.337,0.039 0.1182,0.1358 c -0.2898,-0.045 -0.5998,0.023 -0.6294,0.4357 0,0.045 -0.069,0.1019 -0.1378,0.091 0,0.1188 0.089,0.2487 0.025,0.3393 -0.1033,0.147 -0.2061,0.2994 -0.1176,0.4352 0.094,0.1527 0.2157,0.2491 0.3927,0.3112 0.064,0.029 0.123,0.1644 0.2014,0.2267 0.1918,0.1414 0.4224,0.034 0.5453,-0.1077 0.059,-0.062 0.1379,-0.2378 0.2559,-0.1926 0.025,-0.1923 0.118,-0.4921 -0.044,-0.5374 -0.2013,-0.051 -0.3193,-0.1247 -0.3684,-0.3453 -0.049,-0.2037 0.078,-0.424 0.012,-0.605 -0.034,-0.079 -0.1276,-0.1868 -0.2504,-0.1868 z m 2.412,0.04 v 4e-4 c -0.023,0 -0.048,0 -0.073,0.014 h -5e-4 c -0.162,0.062 -0.3437,0.079 -0.4371,0.1921 -0.1671,0.2151 -0.078,0.5717 -0.025,0.8431 0.044,0.2434 0.2258,0.453 0.4617,0.5152 0.123,0.034 0.2604,-0.091 0.3587,-0.1531 0.3341,-0.2093 0.084,-0.7243 0.02,-1.092 -0.026,-0.1436 -0.1422,-0.3259 -0.3057,-0.3201 z m -4.5897,0.1378 v 0 c -0.07,0 -0.1269,0.074 -0.2006,0.045 -0.2357,-0.085 -0.2897,0.2436 -0.4322,0.368 -0.039,0.034 -0.1131,0.085 -0.123,0.1185 -0.049,0.1415 -0.053,0.3396 0,0.4697 0.049,0.1188 0.2011,0.1638 0.2994,0.2545 0.034,0.033 0.1233,0.039 0.1674,0.079 0.083,0.062 0.1618,0.1414 0.2257,0.2203 0.1032,0.1302 0.2506,0.2265 0.4031,0.3171 0.2456,0.1527 0.3392,-0.1586 0.5063,-0.3225 0.053,-0.051 0.1424,-0.2715 0.02,-0.4017 -0.025,-0.023 -0.083,0.014 -0.1032,-0.014 -0.28,-0.3337 -0.3446,-0.7977 -0.6935,-1.103 -0.028,-0.024 -0.051,-0.034 -0.074,-0.034 z m -5.9998,0.032 h 0.01 l 0.02,5e-4 c -0.01,-7e-4 -0.018,-0.01 -0.029,-0.01 z m 0.029,0.01 c 0.01,7e-4 0.017,0 0.026,0 0,0 0.01,0 0.013,0 z m 0.026,0 c -0.1109,0.024 -0.2471,0.067 -0.2662,0.1377 -0.039,0.1697 -0.1775,0.4295 -0.012,0.537 0.1278,0.079 0.1725,0.2262 0.2657,0.3166 0.078,0.079 0.2699,0.023 0.2993,-0.039 0.089,-0.1868 0.078,-0.4751 0,-0.6787 -0.048,-0.1411 -0.1419,-0.2514 -0.286,-0.2736 z m 11.6071,0.3571 c 0.043,0.026 0.083,0.053 0.123,0.082 -0.1055,-0.014 -0.1981,0.014 -0.2702,0.099 -0.02,0.023 0,0.097 -0.015,0.1191 -0.049,0.056 -0.167,0.062 -0.167,0.1358 0,0.2151 -0.1278,0.4074 -0.064,0.5602 0.039,0.085 0.1524,0.1923 0.1818,0.2884 0.025,0.091 0.049,0.1584 0.1032,0.1867 0.167,0.079 0.3931,0.079 0.5552,0 0.1669,-0.085 0.1228,-0.362 0.1916,-0.5542 0.039,-0.1189 0.044,-0.2886 -0.039,-0.3734 -0.1521,-0.1659 -0.3009,-0.3323 -0.4756,-0.4613 h 0.029 z m -10.6118,0.2864 v 0.01 c -0.096,0 -0.1851,0.1018 -0.327,0.1314 -0.059,0.014 -0.1029,0.1587 -0.079,0.2776 0.029,0.1244 0.1623,0.1187 0.2066,0.1921 0.1032,0.1811 0.2701,0.2773 0.442,0.249 l -0.1917,-0.045 c 0.064,-0.096 0.1771,0.014 0.2164,-0.051 0.1819,-0.2884 0.012,-0.6619 -0.2262,-0.7468 -0.015,0 -0.029,-0.014 -0.041,-0.014 z m 15.3195,0 v 0.01 c -0.02,-6e-4 -0.041,0.014 -0.067,0.031 -0.098,0.085 -0.2112,-0.062 -0.2752,0.074 -0.1474,-0.1188 -0.3535,10e-5 -0.4371,0.079 -0.1573,0.1526 -0.3148,0.2545 -0.4771,0.4188 -0.098,0.096 -0.034,0.2544 0,0.3788 0,0 0.059,2e-4 0.059,0 0.049,0.232 0.1671,0.4132 0.3294,0.4979 0.113,0.062 0.2797,0 0.4025,-0.074 0.2064,-0.1358 0.4379,-0.1925 0.6442,-0.283 0.1524,-0.068 0.275,-0.3452 0.1768,-0.5206 -0.078,-0.1358 -0.1469,-0.2434 -0.1274,-0.4188 -0.099,-0.014 -0.1414,-0.1863 -0.2272,-0.1887 z m -13.8737,0.1798 v 10e-4 c -0.095,0 -0.178,0.024 -0.2247,0.1146 -0.098,0.2037 -0.339,0.345 -0.2752,0.5996 0.039,0.1471 0.1818,0.2261 0.2752,0.328 0.2162,0.2263 0.5012,0.351 0.7616,0.5206 0.084,0.056 0.2947,-0.034 0.3488,-0.1926 0.089,-0.2432 0.123,-0.5314 0,-0.7745 -0.064,-0.1302 -0.1519,-0.2097 -0.2258,-0.3512 -0.091,-0.1939 -0.2458,-0.2399 -0.4139,-0.2312 -0.079,0 -0.1666,-0.014 -0.246,-0.014 z m 10.6182,0.1496 c 5e-4,7e-4 0,0 0,0 3e-4,-5e-4 3e-4,0 5e-4,0 z m 0,0 c -0.014,0.029 -0.025,0.055 -0.038,0.083 -0.094,-0.1415 -0.2507,0.029 -0.2801,0.074 -0.1672,0.2261 0.015,0.5601 -0.012,0.8486 -0.02,0.2093 -0.025,0.4189 0,0.6169 0.015,0.1358 0.1622,0.2994 0.285,0.2485 0.064,-0.029 0.1031,-0.1642 0.1867,-0.2208 0.1032,-0.074 0.1227,-0.2882 0.2158,-0.3448 0.1622,-0.1075 0.2655,-0.2379 0.3196,-0.4302 0.069,-0.2433 -0.044,-0.4408 -0.2212,-0.571 0.049,-0.074 -0.083,-0.1017 -0.039,-0.1753 -0.1319,-0.074 -0.3028,0.013 -0.4159,-0.129 z m -13.6826,0.098 v 0 c -0.083,0.051 -0.1722,0.1415 -0.2163,0.2208 -0.1009,0.2088 -0.088,0.4405 -0.1511,0.6732 -1.118,0.3449 -3.9307,1.078 -7.1557,0.8047 l -0.062,0.7616 c 3.1308,0.2654 5.9709,-0.4038 7.3053,-0.7933 0.048,0.084 0.153,0.1269 0.2164,0.1828 0.089,0.079 0.2997,0.091 0.3783,-0.034 0.054,-0.079 0.1229,-0.204 0.098,-0.334 0.1573,-0.023 0.3341,-0.034 0.447,-0.1471 0.1523,-0.1753 0.1474,-0.4749 0.029,-0.6673 -0.2064,-0.3281 -0.4672,-0.4752 -0.816,-0.5656 -0.029,0 -0.051,-0.1004 -0.07,-0.1032 z m 10.192,0.1937 5e-4,4e-4 c -0.053,0 -0.1084,0.03 -0.1631,0.05 -0.049,-0.014 -0.095,-0.033 -0.1249,-0.015 -0.098,0.051 -0.1866,0.1702 -0.2554,0.2663 -0.059,0.085 -0.03,0.2714 -0.059,0.4184 -0.069,-0.056 -0.098,0.062 -0.152,0.039 -0.059,0.2433 0.1519,0.351 0.2306,0.5093 0.083,0.1867 0.3146,0.4696 0.526,0.396 0.1671,-0.051 0.2355,-0.1978 0.4224,-0.2261 0.226,-0.045 0.27,-0.3792 0.4519,-0.5602 0.034,-0.029 0.034,-0.153 0,-0.1926 -0.1081,-0.1189 -0.2703,-0.1582 -0.3931,-0.2544 -0.1474,-0.1131 -0.2455,-0.2944 -0.4026,-0.4075 -0.026,-0.017 -0.054,-0.024 -0.081,-0.023 z m 7.8155,0.1017 c 0.016,0.021 0.035,0.034 0.058,0.042 h 0.055 z m 0.058,0.042 c -0.1759,0.026 -0.3016,0.2069 -0.4801,0.2173 0.015,0.1188 -0.088,0.1758 -0.1082,0.2663 -0.064,0.2772 0.157,0.5427 0.049,0.7804 -0.074,0.1697 -0.012,0.345 0,0.4979 0.012,0.1074 -0.054,0.2657 0,0.3334 0.1965,0.2377 0.5601,0.085 0.6485,-0.209 0.083,-0.2602 -0.083,-0.5939 0.025,-0.8031 0.01,-0.011 0.01,-0.022 0.014,-0.033 3.852,-0.1696 7.1522,1.0442 7.1522,1.0442 l 0.2588,-0.7187 c 0,0 -2.9081,-1.0832 -6.5278,-1.1089 v -5e-4 c -0.2519,0 -0.5094,0.01 -0.7677,0.015 -0.022,-0.083 -0.091,-0.1523 -0.1442,-0.2291 -0.023,-0.034 -0.074,-0.035 -0.119,-0.054 z m -12.3489,0 c -0.069,7e-4 -0.1488,0.038 -0.2193,0.038 -0.5014,-0.014 -0.4084,0.7129 -0.3986,1.109 0,0.1075 0.1724,0.1354 0.2607,0.243 0.1869,0.2375 0.3979,-0.158 0.6289,-0.051 0.1131,0.051 0.2405,0.1076 0.3438,0.091 0.2112,-0.039 0.4127,-0.2491 0.28,-0.4811 -0.1621,-0.2997 -0.319,-0.656 -0.6579,-0.7295 0.02,-0.1076 -0.089,-0.1078 -0.1279,-0.1645 -0.03,-0.042 -0.067,-0.055 -0.1092,-0.055 z m 5.824,0.1348 c -0.1082,0.118 -0.2894,0.045 -0.363,0.1521 -0.083,0.119 0.1471,0.1361 0.157,0.2436 0.015,0.1075 0.044,0.2151 0.098,0.2434 0.1277,0.079 0.3734,0.034 0.3635,-0.198 0,-0.1019 -0.039,-0.2038 -0.069,-0.3112 -0.025,-0.1074 -0.1911,0.038 -0.1867,-0.1299 z m 3.5539,0.033 c -0.029,0 -0.053,-3e-4 -0.059,0.02 -0.1622,0.266 -0.3979,0.3226 -0.565,0.5433 -0.039,0.051 -0.1131,0.091 -0.128,0.1586 -0.025,0.1132 0.089,0.1637 0.1522,0.1976 0.098,0.056 0.2261,-0.1017 0.3294,-0.056 0.1524,0.074 0.3095,0.1075 0.4668,0.164 0.064,-0.3226 0.1576,-0.8313 -0.1176,-1.0067 -0.02,-0.014 -0.051,-0.018 -0.077,-0.02 z m -12.7377,0.3142 c -0.017,0 -0.036,0.01 -0.055,0.01 z m -0.055,0.01 -0.1033,0.01 c 0.016,5e-4 0.031,0 0.047,0 h 5e-4 l -5e-4,0.01 h -0.122 l 0.076,-0.014 c -0.056,0 -0.1158,0 -0.1739,0.014 -0.097,0 -0.1884,0.021 -0.2623,0.088 -0.078,0.074 -0.2109,0.091 -0.2306,0.1975 -0.034,0.2037 -0.025,0.4471 0.059,0.5883 0.2112,0.3622 0.6927,0.2606 0.973,0.068 0.1377,-0.091 0.27,-0.3396 0.162,-0.5601 -0.049,-0.096 -0.1081,-0.1925 -0.1818,-0.2604 -0.093,-0.081 -0.1924,-0.1155 -0.2949,-0.1274 0.017,-6e-4 0.034,-0.01 0.051,-0.01 z m 5.536,0.1037 c -0.061,0 -0.124,0.017 -0.1877,0.05 -0.2287,0.1174 -0.3903,0.3627 -0.5078,0.6254 0.02,0.1509 0.086,0.2815 0.164,0.3927 0.039,0.056 0.152,0.04 0.206,0.079 0.2556,0.1982 0.4717,0.4294 0.7665,0.2257 0.1131,-0.079 0.172,-0.2314 0.2604,-0.3501 0.1523,-0.2037 0.069,-0.4925 -0.069,-0.6792 -0.025,-0.034 -0.1129,0.014 -0.1324,-0.023 -0.1475,-0.1993 -0.317,-0.3251 -0.5003,-0.3211 z m -3.5148,0.2791 c -0.046,0 -0.088,-10e-5 -0.1226,0.026 -0.1131,0.079 -0.1673,0.1923 -0.2509,0.3112 -0.1277,0.1866 0.1376,0.2604 0.2801,0.3453 0.015,0.014 -0.013,0.091 0.012,0.1131 0.118,0.1527 0.2802,0.2147 0.452,0.1866 -0.012,0.039 0.012,0.068 0.039,0.079 0.123,0.051 0.2165,-0.034 0.2459,-0.1358 0.069,-0.2434 0.049,-0.5887 -0.1476,-0.7019 -0.094,-0.051 -0.1326,-0.1749 -0.2505,-0.209 -0.039,-0.014 -0.079,0 -0.118,0 -0.044,0 -0.092,0 -0.1378,-0.014 z m 7.8184,0.1645 c -0.1216,0 -0.2502,0.018 -0.3684,0.018 h 0.1645 c -0.3853,0.042 -0.7288,0.277 -1.0689,0.5379 -0.1425,0.1132 -0.3587,0.1693 -0.4471,0.322 -0.069,0.1302 0.012,0.3623 0.083,0.4811 0.1866,0.3056 0.4866,0.4695 0.811,0.5883 0.1179,0.039 0.1082,-0.1466 0.1916,-0.1976 0.2016,-0.1131 0.4279,-0.017 0.6442,-0.068 0.2162,-0.056 0.1963,-0.3563 0.3536,-0.5034 0.025,-0.023 0.074,10e-5 0.1081,-0.056 0.221,-0.3509 0.1226,-0.7471 -0.069,-0.979 -0.1,-0.1202 -0.2456,-0.1451 -0.4026,-0.1433 z m 4.7305,0.1076 c -0.031,6e-4 -0.063,0 -0.097,0.024 -0.098,0.045 -0.226,0.023 -0.334,0.074 -0.012,0 0,0.062 0,0.074 -0.059,0.04 -0.1374,0.079 -0.1718,0.1132 -0.1277,0.1302 -2e-4,0.3908 -0.078,0.5379 -0.044,0.074 -0.1034,0.1529 -0.118,0.2376 -0.025,0.1302 -0.013,0.2371 0.074,0.3729 0.078,0.1245 -0.059,0.3397 0.044,0.4925 0.078,0.1302 0.2362,0.3564 0.3542,0.1753 0.039,-0.056 -0.013,-0.1983 0.059,-0.2322 0.1327,-0.074 0.1962,-0.2202 0.3191,-0.3106 0.1865,-0.1417 0.1325,-0.4642 0.2948,-0.7019 0.1622,-0.232 -0.113,-0.5202 -0.084,-0.8086 -0.088,0 -0.1662,-0.048 -0.2573,-0.047 z m -1.2255,0.2189 c -0.1106,0 -0.2211,0.053 -0.2618,0.1452 -0.034,0.068 -0.02,0.1748 -0.064,0.2484 -0.094,0.147 -0.2408,0.2374 -0.285,0.407 -0.059,0.2434 0.049,0.4929 0.098,0.736 0.049,0.2603 0.4079,0.2884 0.5651,0.085 0.1769,-0.232 0,-0.5546 0.074,-0.8204 0.059,-0.2262 0.2017,-0.4468 0.1575,-0.7068 -0.012,-0.079 -0.094,-0.034 -0.1378,-0.057 v 6e-4 c -0.044,-0.024 -0.095,-0.036 -0.1457,-0.038 z m -12.5648,0.032 h -9e-4 c -0.052,5e-4 -0.1046,0.02 -0.1433,0.068 -0.1425,0.181 -0.4031,0.2319 -0.2949,0.5147 0.025,0.074 0.074,0.13 0.059,0.2262 0.064,-0.029 0.1231,0.029 0.1428,0.056 0.1327,0.2151 0.2798,0.3792 0.4173,0.5829 0.02,0.029 0.1279,0.056 0.2065,0.062 -0.029,0.091 0.064,0.096 0.089,0.1132 0.1376,0.1018 0.3539,-0.029 0.413,-0.1018 0.167,-0.2207 0.1426,-0.6793 -0.074,-0.9395 -0.02,-0.023 0,-0.096 -0.015,-0.1185 -0.049,-0.062 -0.078,-0.1587 -0.1477,-0.17 -0.2064,-0.051 -0.3587,-0.1752 -0.5404,-0.2657 -0.032,-0.017 -0.073,-0.029 -0.1117,-0.029 z m 6.2677,0.1838 c -0.072,0 -0.1435,0.035 -0.2001,0.1101 -0.072,0.032 -0.1105,0.1004 -0.085,0.244 0.012,0.056 0.1132,0.068 0.1279,0.1018 0.083,0.2037 0.2064,0.3226 0.2851,0.4979 0.1178,0.249 0.2406,0.5035 0.3635,0.7582 0.015,0.039 0.1474,0.039 0.1966,0 0.2654,-0.2207 0.4079,-0.7074 0.2064,-0.9677 -0.1278,-0.1641 -0.2901,-0.3389 -0.4129,-0.5369 -0.078,-0.1246 -0.2503,-0.1132 -0.4026,-0.1867 -0.026,-0.014 -0.054,-0.02 -0.079,-0.02 z m -8.5274,0.088 c -0.075,-5e-4 -0.059,0.1618 -0.1447,0.096 -0.1376,0.3451 0.034,0.5999 0.2603,0.8036 0.02,0.017 -10e-5,0.091 0.012,0.1131 0.1328,0.1528 0.3248,0.3283 0.4772,0.1982 0.1718,-0.1415 0.3683,-0.373 0.2208,-0.6106 -0.1918,-0.3 -0.4766,-0.5435 -0.8155,-0.6001 h -5e-4 c 0,-4e-4 0,-10e-5 -0.01,0 z m 12.9678,0.077 c -0.1535,0 -0.3175,0.1248 -0.4885,0.1423 0.025,-0.014 0.049,-0.026 0.074,-0.038 l -0.1521,0.039 h 0.077 c -0.1051,0.056 -0.2023,0.1086 -0.2539,0.2317 -0.094,0.2205 -0.059,0.4416 0.078,0.6397 0.059,0.091 0.2208,0.068 0.2701,0.158 0.059,0.096 0.1279,0.2323 0.1868,0.2603 0.1327,0.068 0.2804,0.2153 0.4475,0.1586 0.2212,-0.079 0.4617,-4e-4 0.6337,-0.085 0.27,-0.1302 0.1767,-0.6899 0,-0.9444 -0.079,-0.1076 -0.2904,-0.1302 -0.3344,-0.2549 -0.079,-0.2093 -0.2507,-0.1808 -0.3883,-0.2657 -0.047,-0.032 -0.096,-0.042 -0.1452,-0.041 z m -8.4508,0.3546 -5e-4,0.01 c -0.094,0 -0.1688,0.099 -0.2632,0.094 0.059,0.1131 -0.069,0.1471 -0.098,0.2035 -0.094,0.1697 -0.2901,0.2493 -0.4179,0.3907 -0.074,0.085 -0.1079,0.2656 -0.083,0.4184 0.025,0.1754 0.098,0.311 0.1521,0.4751 0.059,0.1698 0.2752,0.045 0.3981,0.2489 0.074,0.1246 0.2945,0.119 0.4223,0.045 0.1426,-0.079 0.29,-0.119 0.4178,-0.1867 0.1573,-0.091 0.1722,-0.3848 0.1082,-0.5715 -0.083,-0.2377 -0.069,-0.5203 -0.2212,-0.7068 -0.123,-0.1528 -0.1918,-0.3336 -0.3735,-0.4016 -0.015,0 -0.029,-0.014 -0.041,-0.014 z m 3.1908,0.047 c -0.097,0 -0.1913,0.02 -0.2794,0.092 h 0.043 c -0.069,0.03 -0.1309,0.075 -0.1818,0.1201 -0.074,0.068 -0.098,0.2205 -0.1472,0.3393 -0.094,0.2207 0.054,0.4867 0.1324,0.6733 0.064,0.1528 0.344,-0.014 0.4816,0.096 0.1768,0.1415 0.3535,0.074 0.5157,0.1868 0.059,0.039 0.088,-0.074 0.1526,-0.039 0,-0.029 -0.012,-0.074 0,-0.079 0.029,-0.029 0.094,0.014 0.1032,-0.056 0.02,-0.2036 0.049,-0.424 -0.015,-0.605 -0.083,-0.2206 -0.1622,-0.4076 -0.2948,-0.6169 -0.015,-0.023 -0.069,0 -0.1033,-0.014 -0.034,-0.014 -0.049,-0.039 -0.039,-0.085 -0.1216,0.02 -0.25,-0.014 -0.3744,0 z m -8.5109,0.058 c -0.023,5e-4 -0.041,0.04 -0.031,0.074 -0.061,-5e-4 -0.1181,0.014 -0.1363,0.061 -0.034,0.1188 -0.078,0.2266 -0.1324,0.3398 -0.089,0.181 -0.044,0.3563 -0.02,0.5261 0,0.062 0.094,0.102 0.172,0.091 v 0.085 c 0.015,0.017 0.064,10e-5 0.064,0.014 0.025,0.096 -0.02,0.2211 0.025,0.289 0.098,0.1526 0.2951,0.1128 0.4475,0.2257 0.089,0.062 0.221,0.1019 0.2849,0 0.1229,-0.1924 0.1379,-0.4182 0.078,-0.6446 -0.069,-0.249 -0.1382,-0.5037 -0.2169,-0.73 -0.064,-0.181 -0.319,-0.266 -0.5353,-0.3225 v -5e-4 z m 7.2346,0.201 v 0 c -0.012,3e-4 -0.023,0 -0.035,0 -0.1032,0.023 -0.1424,0.1812 -0.2653,0.1358 0.029,0.085 -0.089,0.1585 -0.034,0.2094 0.2113,0.1698 0.1428,0.43 0.2164,0.611 0.044,0.1188 0.2947,0.1134 0.3635,0.034 0.1671,-0.2035 0.3047,-0.8317 -0.015,-0.9336 v 5e-4 c -0.077,-0.024 -0.147,-0.062 -0.2292,-0.061 z m -5.0159,0.1221 h 0.011 c -0.041,0 -0.085,0.02 -0.1166,0.064 h 0.1131 c -0.226,0 -0.3737,0.1867 -0.4277,0.4357 -0.02,0.074 -0.1274,0.014 -0.1422,0.096 -0.015,0.1019 0.02,0.215 -0.015,0.2999 -0.049,0.1074 -0.1573,0.2202 -0.089,0.2938 0.1622,0.181 0.4616,0.3509 0.5992,0.1981 0.1425,-0.1641 0.3586,-0.085 0.5305,-0.1467 v -0.074 c 0.015,-0.014 0.054,0 0.069,-0.014 0.015,-0.014 0,-0.051 0,-0.079 0.064,0 0.1229,1e-4 0.1521,-0.085 0.089,-0.2264 0.1183,-0.504 -0.049,-0.5888 -0.1866,-0.085 -0.3293,-0.232 -0.5013,-0.3621 -0.029,-0.023 -0.079,-0.044 -0.1339,-0.041 z m 4.2316,0.061 c -0.018,5e-4 -0.034,0 -0.048,0.014 -0.1228,0.091 -0.1274,0.2374 -0.1324,0.3902 0,0.029 -0.053,0.056 -0.059,0.091 -0.02,0.1019 -0.034,0.2152 0,0.2944 0.089,0.1753 0.3049,0.2488 0.4327,0.1641 0.054,-0.034 0.1324,-0.085 0.1571,-0.1586 0.074,-0.1811 -0.083,-0.2717 -0.1324,-0.4357 -0.025,-0.068 -0.012,-0.1472 -0.012,-0.2208 -0.094,0.068 -0.089,-0.085 -0.1527,-0.085 l 0.039,-0.045 v -5e-4 h -0.1 z m 11.1585,0.4095 c -0.038,0 -0.074,0.014 -0.1106,0.021 -0.1621,0.056 -0.3443,0.014 -0.4427,0.096 -0.1816,0.1527 -0.2799,0.4073 -0.4667,0.5997 -0.069,0.068 -0.025,0.2599 0.034,0.3052 0.094,0.074 0.2213,0.1301 0.3147,0.1922 0.1229,0.079 0.1373,0.3681 0.2356,0.4529 0.1915,0.1753 0.5061,0.1414 0.7764,0.1131 0.049,0 0.094,-0.1186 0.094,-0.1581 0,-0.4581 0.2115,-0.8599 0.1131,-1.3182 0,-0.034 -0.083,-0.085 -0.1329,-0.136 h 0.078 c -0.1597,-0.088 -0.332,-0.1746 -0.494,-0.1679 z m -5.3207,0.08 -5e-4,0.013 c -0.012,-3e-4 -0.021,0 -0.029,0 -0.1229,0.1131 -0.2553,0.017 -0.3536,0.1191 -0.1621,0.1697 -0.113,0.4466 -0.074,0.5936 0.044,0.1754 0.3097,-0.039 0.4915,0.023 0.1818,0.068 0.3977,-0.017 0.5156,0.1076 0.1277,0.1417 0.2901,0.2207 0.4031,0.3734 0.1131,-0.1131 0.015,-0.368 0.1916,-0.402 -0.025,-0.1358 0.078,-0.2883 0.02,-0.3789 -0.2299,-0.3424 -0.6291,-0.5179 -0.9933,-0.4049 l 0.021,-0.014 c -0.067,0.014 -0.1458,-0.029 -0.1936,-0.03 z m -1.4151,0.2173 v 0 0.045 c -0.2358,-0.039 -0.4815,0.074 -0.6437,0.2716 -0.02,0.023 0,0.085 0,0.1245 -0.083,-0.045 -0.1623,0.034 -0.2212,0.062 -0.1278,0.068 -0.098,0.2715 -0.025,0.362 0.1327,0.1754 0.2848,0.3279 0.329,0.5883 0.012,0.062 0.074,0.033 0.1032,0.056 0.1081,0.096 0.059,0.3561 0.2307,0.2825 0.089,-0.039 0.1816,-0.056 0.2652,-0.091 0.2898,-0.1132 0.1724,-0.5428 0.2707,-0.8031 0.064,-0.1695 0.2944,-0.3681 0.2109,-0.5774 -0.069,-0.1697 -0.2799,-0.1412 -0.4371,-0.1863 0.029,-0.085 -0.084,-0.062 -0.079,-0.1358 z m 4.0162,0.3117 c -0.015,0.029 -0.025,0.074 -0.039,0.079 v 5e-4 c -0.094,0.014 -0.1817,0.014 -0.2653,0.051 0.029,0.085 -0.044,0.1416 -0.053,0.2208 0,0.091 -0.1277,0.056 -0.1768,0.1358 -0.069,0.1076 -0.039,0.2373 -0.078,0.3503 -0.029,0.074 -0.1279,0.068 -0.1378,0.1358 -0.098,0.4978 0.339,0.9617 0.7913,0.7863 -0.025,-0.4242 0.094,-0.8259 0.3344,-1.1088 0.083,-0.096 0.3289,-0.3166 0.2159,-0.4411 -0.1473,-0.1528 -0.5549,0.1129 -0.5893,-0.2095 z m -0.9148,0.059 v 0 c -0.1558,0 -0.1803,0.1637 -0.2835,0.2777 -0.069,0.074 -0.162,0.2321 -0.162,0.3679 0,0.1752 -0.1426,0.3845 0,0.5033 0.074,0.068 0.2362,0.068 0.3147,0 0.1622,-0.1414 0.02,-0.4582 0.1225,-0.6109 0.078,-0.1245 0.1968,-0.2887 0.2361,-0.4698 -0.069,0.056 -0.098,-0.039 -0.1522,-0.056 -0.029,-0.014 -0.053,-0.014 -0.075,-0.014 z m -10.3346,0.1615 c -0.1118,5e-4 -0.2261,0.014 -0.3428,0.039 -0.074,0.017 -0.1327,0.029 -0.1966,0.085 -0.1719,0.181 -0.5204,0.198 -0.4026,0.5261 0.034,0.091 0.044,0.2487 0.1423,0.2543 0.1475,0.014 0.2062,0.1869 0.3389,0.1927 0.079,0 0.1624,-0.017 0.2311,0.014 0.03,0.014 0.03,0.097 0.049,0.1136 0.1378,0.1245 0.3392,0.164 0.4767,0.074 0.2949,-0.2035 0.6536,-0.056 0.8599,-0.2776 0.1179,-0.1188 0.2409,-0.3733 0.094,-0.5655 -0.074,-0.096 -0.1719,-0.1357 -0.2849,-0.1754 -0.074,-0.029 -0.1722,-0.1923 -0.2411,-0.1981 -0.2398,-0.03 -0.4772,-0.08 -0.7236,-0.079 z m 3.6754,0.04 -6e-4,9e-4 c -0.1478,0 -0.2877,0.032 -0.401,0.095 -0.1475,0.079 -0.3093,0.4804 -0.1521,0.6218 0.2112,0.1923 0.1966,0.4809 0.3783,0.6733 0.094,0.096 0.025,0.3395 0.1477,0.4471 0.059,0.051 0.1963,-0.017 0.2406,0.033 0.113,0.1471 0.2556,0.277 0.3833,0.1808 0.1375,-0.1018 0.1569,-0.3335 0.2306,-0.492 0.1328,-0.2998 0.3638,-0.4924 0.693,-0.5547 0.1474,-0.029 0.1424,-0.3903 0.054,-0.5373 -0.1573,-0.2434 -0.3927,-0.3283 -0.6974,-0.3113 -0.012,0 -0.084,-0.034 -0.1181,-0.051 -0.1229,-0.051 -0.285,0.017 -0.4079,-0.034 v -5e-4 c -0.1155,-0.047 -0.2356,-0.071 -0.3507,-0.073 z m 2.236,0.2133 c -0.079,0 -0.1616,0.071 -0.2494,0.053 0.025,0.1867 -0.206,0.2999 -0.1274,0.4243 0.1032,0.1641 0.1471,0.4019 0.2553,0.5829 0.1276,0.2149 0.3636,0.051 0.4668,-0.096 0.029,-0.034 0.089,-0.1244 0.055,-0.198 -0.078,-0.1583 -0.1282,-0.322 -0.1675,-0.4861 -0.025,-0.091 -0.089,-0.2094 -0.1768,-0.2602 -0.018,-0.014 -0.036,-0.017 -0.055,-0.018 z m 6.4755,0.08 v 0.01 c -0.048,-2e-4 -0.097,0 -0.1452,0 l 0.1522,0.045 c -0.1277,0 -0.2894,-0.056 -0.3582,0.056 -0.1425,0.2319 -0.2754,0.4749 -0.2509,0.7804 -0.1131,-0.039 -0.1768,0.091 -0.2064,0.1472 -0.089,0.1528 -0.054,0.3847 0.069,0.4865 0.098,0.079 0.2847,-0.017 0.3927,0.051 0.118,0.068 0.2265,0.1526 0.3542,0.198 0,-0.068 0.069,-0.1078 0.039,-0.1812 0.3194,0 0.6637,-0.056 0.7473,-0.447 0.039,-0.181 0.132,-0.4297 0.034,-0.5316 -0.098,-0.1018 -0.2206,-0.2148 -0.358,-0.2997 -0.054,-0.034 -0.064,-0.1189 -0.094,-0.1586 -0.092,-0.123 -0.2313,-0.1535 -0.3759,-0.154 z m -3.8615,0.046 v 0 c -0.2722,-0.014 -0.5105,0.2969 -0.4259,0.5788 0.02,0.079 0.1374,0.1129 0.2406,0.096 -0.034,0.181 0.084,0.2321 0.1917,0.3057 -0.025,0.023 0.049,0.1014 -0.039,0.091 0.089,0.1244 0.2311,0.181 0.3343,0.1132 0.1377,-0.091 0.1474,-0.2371 0.1966,-0.4125 0.02,-0.079 0.1617,-0.1528 0.1862,-0.2771 0.025,-0.1302 0.054,-0.3002 -0.069,-0.3907 -0.2261,-0.1641 -0.4423,0.034 -0.6831,-0.091 h 0.1521 c -0.029,-0.014 -0.056,-0.014 -0.085,-0.014 z m -11.7582,0.019 c -0.044,0 -0.09,10e-5 -0.1369,0.02 -0.1032,0.029 -0.1868,0.1519 -0.2998,0.1072 0.069,0.2658 -0.1864,0.526 -0.053,0.7295 0.1868,0.2773 0.4667,0.4303 0.7221,0.651 0.1082,0.096 0.3293,0.2599 0.403,0.1359 0.1428,-0.2434 0.1721,-0.5828 0.133,-0.894 -0.025,-0.2035 -0.1279,-0.3619 -0.098,-0.577 -0.088,0.017 -0.053,-0.1301 -0.113,-0.1244 -0.1916,0.033 -0.3638,-0.051 -0.5562,-0.048 z m 1.8498,0.082 c -0.2162,0 -0.4583,0.086 -0.532,0.283 -0.098,0.2545 -0.2558,0.5206 -0.1477,0.8205 -0.2654,0.1527 -0.1673,0.5204 -0.064,0.7409 0.015,0.029 0.049,0.1757 0.1328,0.091 0.1328,-0.1246 0.3147,-0.1586 0.4031,-0.283 0.1082,-0.1471 0.2214,-0.1922 0.3048,-0.3448 0.1475,-0.2489 0.172,-0.5888 0.074,-0.8491 -0.049,-0.1414 -0.015,-0.3106 -0.054,-0.4519 h -0.074 c -0.015,-3e-4 -0.029,-3e-4 -0.043,0 z m 3.8211,0.2529 c -0.2053,0 -0.4289,0.075 -0.6382,0.035 -0.074,-0.017 -0.089,0.062 -0.1032,0.079 -0.094,0.1076 -0.1964,0.181 -0.2603,0.3053 -0.029,0.056 -0.074,0.1696 0.015,0.2603 0.221,0.2149 0.2503,0.6392 0.5453,0.7128 0.1718,0.039 0.29,0.1584 0.4227,0.283 0.098,0.085 0.2015,-0.023 0.2851,-0.096 0.1278,-0.1131 0.049,-0.379 0.1225,-0.5374 0.079,-0.1753 0.187,-0.424 0.1229,-0.6165 -0.039,-0.1301 -0.1474,-0.3226 -0.2454,-0.3734 -0.084,-0.042 -0.1725,-0.054 -0.2658,-0.053 z m 11.9235,0.5191 v 0 c 1e-4,0 4e-4,0 5e-4,0 1e-4,-2e-4 5e-4,0 5e-4,0 z m -4e-4,0 c 0,0 -0.012,0.029 -0.012,0.1078 h 0.03 c -0.1019,0.017 -0.2126,0.1218 -0.285,0.066 -0.182,-0.1415 -0.3584,-0.1525 -0.5009,-0.085 -0.118,0.056 -0.074,0.3393 -0.025,0.3788 0.226,0.1924 0.3319,0.9629 0.5186,1.1608 0.074,0.079 0.1526,0.079 0.2311,0.1754 0.029,0.034 0.1326,0.034 0.167,0 0.037,-0.039 0.063,-0.078 0.086,-0.1181 3.8455,-0.1657 7.137,1.0451 7.137,1.0451 l 0.2587,-0.7166 c 0,0 -2.9081,-1.0854 -6.5278,-1.1114 -0.2467,0 -0.4989,0.01 -0.7517,0.015 0,-0.1259 0,-0.2409 0.036,-0.2919 0.025,-0.034 0.025,-0.1248 0,-0.1586 -0.1032,-0.1471 -0.2654,-0.1355 -0.3097,-0.362 h -0.031 v 4e-4 c -3e-4,1e-4 -7e-4,0 0,0 v -4e-4 c -0.011,-0.016 -0.013,-0.1006 -0.021,-0.1057 z m -4.8707,0.1996 v 0 c 0.011,0 0.02,0.01 0.031,0.01 z m 0.031,0.012 c 0.027,0.01 0.048,0.021 0.072,0.031 0,10e-5 0.01,10e-4 0.011,10e-4 z m 0.072,0.031 c -0.073,0 -0.1637,-0.031 -0.206,0.015 -0.074,0.074 -0.1374,0.1869 -0.1472,0.3339 0,0.051 -0.094,0.1023 -0.1329,0.1813 -0.1671,0.3169 0.078,0.5711 0.1033,0.8767 0,0.051 0.074,0.1585 0.1328,0.2094 0.2508,0.2207 0.5601,0.056 0.8402,0.1754 0.094,0.04 0.2112,-0.074 0.2949,-0.051 0.1571,0.051 0.3192,0.1528 0.457,0.091 0.083,-0.04 0.1228,-0.1923 0.1377,-0.294 0.059,-0.379 -0.079,-0.7469 -0.1971,-1.0807 -0.055,-0.1471 -0.1665,-0.1418 -0.2943,-0.2549 -0.1866,-0.1698 -0.452,0.04 -0.6634,-0.044 -0.1168,-0.048 -0.2133,-0.1137 -0.325,-0.158 z m -2.2652,0.069 c -0.1564,0 -0.2496,0.1464 -0.3532,0.2944 -0.034,0.045 -0.029,0.1697 0,0.1867 0.1376,0.085 0.2845,0.2829 0.4367,0.1754 0.1672,-0.1075 0.4034,-0.2772 0.2904,-0.4865 -0.044,-0.074 -0.1967,-0.1361 -0.3147,-0.1531 h 0.034 c -0.034,-0.014 -0.066,-0.017 -0.094,-0.017 z m -1.7002,0.1018 c -0.1818,-0.014 -0.3288,0.1977 -0.4025,0.3448 -0.069,0.1245 -0.2216,0.1982 -0.364,0.2322 0.034,0.1527 -0.083,0.1977 -0.1423,0.3165 -0.098,0.1868 0.098,0.3285 0.1181,0.5152 0.02,0.1696 0.2011,0.2545 0.3092,0.3166 0.2604,0.1641 0.6195,0.2826 0.8994,0.039 0.025,0.062 0.079,0.056 0.1131,0.04 0.069,-0.045 0.1523,-0.1245 0.172,-0.1812 0.1081,-0.3394 0.177,-0.7069 0.1278,-1.0916 -0.015,-0.1018 -0.078,-0.1697 -0.1817,-0.1299 0,-0.4357 -0.3537,-0.3849 -0.6486,-0.402 z m -4.926,0.1058 c -0.1593,2e-4 -0.3209,0.031 -0.4594,0.098 -0.1326,0.062 -0.3097,0.2662 -0.2163,0.3907 0.1965,0.2488 -0.025,0.5711 0.1472,0.7464 0.1965,0.1924 0.5261,0.096 0.7276,0.017 0.1277,-0.056 0.2998,-0.1641 0.4667,-0.2376 0.1278,-0.062 0.2949,-0.238 0.1818,-0.3908 -0.1769,-0.2488 -0.3534,-0.5542 -0.6337,-0.605 -0.069,-0.014 -0.1414,-0.018 -0.2139,-0.018 z m 7.5548,0.061 c -0.1654,0 -0.305,0.1514 -0.3927,0.3537 -0.054,0.1132 -0.1229,0.2664 -0.2504,0.3117 -0.1622,0.056 -0.3293,0.068 -0.4964,0.051 0,0.1471 -0.1281,0.2151 -0.1724,0.3226 -0.1032,0.2263 0.128,0.4016 0.3245,0.3393 0.012,0.085 0.054,0.1305 0.1132,0.1813 0.1031,0.1019 0.2113,0.039 0.3096,0.023 0.035,0 0.059,-0.1073 0.089,-0.1413 0.28,-0.3563 0.7766,-0.3113 1.0126,-0.6337 0.2064,-0.2773 -0.1427,-0.6393 -0.4178,-0.775 -0.041,-0.02 -0.079,-0.032 -0.1181,-0.032 z m -8.9428,0.032 c -0.1229,0.014 -0.1964,0.1754 -0.2899,0.2376 -0.098,0.062 -0.162,0.3229 -0.074,0.4248 0.1916,0.2091 0.4814,0.2827 0.7468,0.3788 0.054,-0.2433 0.069,-0.4807 -0.049,-0.7014 0,-0.014 -0.059,-10e-5 -0.059,0 -0.038,-0.1644 -0.1314,-0.3341 -0.2623,-0.3344 l -5e-4,-0.01 c 0,0 -0.013,2e-4 -0.013,0 z m 4.1264,0.1921 -0.01,0.01 h -0.062 c 0.015,0.029 0.025,0.056 0.039,0.085 -0.089,-0.05 -0.1864,0.017 -0.211,0.062 -0.2309,0.3735 -0.5605,0.5545 -0.9192,0.7014 -0.064,0.023 -0.1767,0.3508 0,0.4979 0.025,0.023 0.079,0.096 0.1379,0.062 0,0.2037 0.1325,0.3505 0.2163,0.5087 0.083,0.1529 0.319,-0.045 0.4174,0.045 0.069,0.068 0.1819,0.1472 0.2361,0.091 0.094,-0.1018 0.1621,-0.2145 0.1916,-0.3729 0.034,-0.1923 0.3046,-0.062 0.3833,-0.2376 0.034,-0.079 0.044,-0.1982 0.069,-0.2944 0.025,-0.096 0.1425,-0.1524 0.167,-0.2712 0.02,-0.1019 0.02,-0.2098 0,-0.3003 -0.054,-0.2262 -0.2753,-0.1185 -0.3981,-0.243 -0.089,-0.085 -0.1519,-0.2036 -0.2158,-0.328 0,-0.014 -0.021,-0.014 -0.041,-0.014 z m 8.0008,0.03 c -0.089,0 -0.1518,0.1468 -0.206,0.2203 -0.083,0.1189 0.025,0.3565 0.1132,0.4357 0.1769,0.1641 0.3979,0.079 0.5403,-0.1586 0.2212,-0.3734 -0.2111,-0.4857 -0.447,-0.4974 z m 1.6804,0.029 -0.01,5e-4 c 7e-4,9e-4 0,0 0,0 7e-4,-10e-4 0,0 0,0 z m 0,0 c -0.024,0.029 -0.047,0.071 -0.071,0.077 -0.1964,0.017 -0.3977,0.074 -0.4812,0.3057 -0.034,0.085 -0.2013,0.017 -0.2701,0.074 -0.064,0.051 -0.083,0.2035 -0.1719,0.2316 -0.2063,0.068 -0.3147,0.2549 -0.4426,0.4189 -0.034,0.039 -0.012,0.1357 -0.012,0.2095 0.1819,0 0.1918,0.2485 0.3146,0.3334 0.1278,0.091 0.2996,0.085 0.447,0.1526 0.044,-0.1527 0.2462,-0.039 0.2559,-0.1808 0.012,-0.1019 0.049,-0.2034 0.098,-0.243 0.1278,-0.091 0.329,0.079 0.4322,-0.079 0.039,-0.051 0.015,-0.198 0.064,-0.2263 0.2212,-0.1245 0.2997,-0.4075 0.1966,-0.5715 -0.059,-0.085 -0.1915,-0.153 -0.2702,-0.2549 -0.029,-0.039 -0.012,-0.1356 -0.012,-0.2088 -0.037,0.016 -0.057,-0.012 -0.077,-0.036 z m -16.8526,0.1946 c -0.032,3e-4 -0.064,0.014 -0.1023,0.029 -0.034,0.018 -0.057,0.044 -0.077,0.072 -1.0331,0.3267 -3.9374,1.1214 -7.2727,0.8387 l -0.062,0.7616 c 3.0627,0.2597 5.8416,-0.3731 7.211,-0.765 0.033,0.3114 0.1408,0.6993 0.072,0.8816 -0.064,0.1698 -0.025,0.3055 0.034,0.4411 0.053,0.1188 0.221,0.2492 0.2702,0.1644 0.172,-0.3169 0.5747,0.029 0.7319,-0.3002 0.098,-0.2037 0.065,-0.4919 -0.014,-0.6728 -0.089,-0.2093 -0.044,-0.4812 -0.2361,-0.6283 -0.078,-0.068 -0.1765,-0.42 -0.2356,-0.5047 -0.099,-0.1386 -0.1837,-0.3134 -0.3195,-0.3167 z m 0.8921,0.013 c -0.03,0 -0.07,-10e-5 -0.1009,0.014 v 6e-4 c -0.064,0 -0.1325,0.034 -0.1422,0.091 -0.049,0.1811 -0.015,0.4976 0.2164,0.4352 0,0.045 0.064,0.074 0.039,0.1304 0.078,-0.034 0.059,0.1526 0.152,0.091 -0.044,0.1301 0.1476,0.056 0.1132,0.1749 0.094,0.014 0.2259,0.014 0.2455,-0.051 0.069,-0.2094 0.074,-0.4748 -0.069,-0.6331 -0.113,-0.1246 -0.3094,-0.023 -0.4175,-0.2327 0,-0.014 -0.02,-0.013 -0.036,-0.014 z m 2.2942,0.8836 c -0.033,3e-4 -0.066,0 -0.1,0.014 -0.053,0.017 -0.1226,10e-5 -0.157,0.079 -0.1131,0.2546 -0.1573,0.5149 -0.049,0.7355 0.069,0.1415 0.2703,0 0.3882,0.045 0.1278,0.051 0.2605,0.1527 0.3932,0.2262 0.039,0.029 0.1281,0.029 0.1379,0 0.074,-0.1639 0.1618,-0.3844 0.069,-0.5428 -0.094,-0.1584 -0.1182,-0.3566 -0.2554,-0.4471 -0.059,-0.04 -0.1427,0 -0.2213,-0.017 -0.029,0 -0.049,-0.039 -0.039,-0.085 h -0.1659 z m 9.3824,0.017 c -0.059,-10e-5 -0.1207,0.014 -0.1852,0.032 l 0.2262,0.045 c -0.3242,-0.045 -0.7026,0.3451 -0.5453,0.6846 0.1622,0.3452 0.1131,0.6844 0.1719,1.0239 0.029,0.1639 0.113,0.3507 0.2015,0.5261 0.015,0.034 0.1081,10e-5 0.1719,0.017 0.029,0 0.049,0.04 0.039,0.079 0.1032,0.017 0.2359,0.028 0.2899,-0.057 0.1375,-0.2263 0.1375,-0.5089 0.167,-0.7803 0.1032,0.079 0.098,-0.1076 0.1916,-0.1018 0.064,0 0.015,-0.1135 0.049,-0.1532 0.1278,-0.1358 0.2602,-0.3163 0.157,-0.4692 -0.2451,-0.3513 -0.5235,-0.8461 -0.935,-0.8466 z m -10.387,0.01 5e-4,0.01 c -0.018,2e-4 -0.038,0 -0.059,0 -0.089,0.017 -0.1719,0.062 -0.2603,0.074 -0.1328,0.014 -0.1722,0.2205 -0.3443,0.2262 -0.1081,0 -0.1568,0.1526 -0.2208,0.2544 -0.064,0.096 0.074,0.1528 0.1181,0.1867 0.1032,0.079 0.2111,0.1355 0.3339,0.1922 0.055,0.023 0.1281,0 0.1872,0.017 0.049,0.023 0.059,0.1078 0.088,0.1585 0.084,0.1359 0.2603,0.045 0.2751,-0.079 0.02,-0.1809 0.1079,-0.2882 0.1571,-0.4466 0.074,-0.2386 2e-4,-0.5922 -0.2752,-0.5888 z m 3.0264,0.2342 v 9e-4 c -0.2154,0 -0.4275,0.1218 -0.4017,0.41 0.349,0.1526 0.7473,0.3336 1.1011,0.1921 0.025,0 0.029,-0.1585 0,-0.2321 -0.098,-0.2149 -0.3096,-0.2771 -0.4915,-0.3394 -0.064,-0.021 -0.1361,-0.033 -0.2079,-0.031 z m 3.0776,0.1803 -4e-4,9e-4 c -0.1251,6e-4 -0.2494,0.069 -0.3241,0.1616 -0.053,0.074 0.012,0.2548 -0.029,0.3679 -0.064,0.164 -0.064,0.3395 -0.1527,0.4866 -0.012,0.023 -0.069,0.017 -0.1032,0 -0.074,-0.039 -0.1227,-0.142 -0.1719,-0.1814 -0.172,-0.1414 -0.3834,0.051 -0.5063,0.2436 -0.059,0.091 -0.1523,0.2318 -0.074,0.3279 0.064,0.079 0.2066,0.1132 0.2016,0.2322 -0.02,0.3451 0.2508,0.5313 0.4278,0.6501 0.226,0.1527 0.4814,-0.2203 0.7715,-0.3108 0.02,0 -0.012,-0.051 -0.039,-0.074 0.1376,-0.1755 0.4322,-0.2149 0.447,-0.362 0.044,-0.4639 0.5109,-0.4131 0.7222,-0.6338 0.1327,-0.1414 -0.069,-0.3337 -0.1571,-0.4865 -0.064,-0.1131 -0.2655,-4e-4 -0.3393,-0.085 -0.1167,-0.1132 -0.2652,-0.1606 -0.4085,-0.1986 -0.075,-0.099 -0.17,-0.1388 -0.2652,-0.1388 z m 2.9291,0.035 c -0.04,0 -0.082,0.019 -0.1245,0.057 -0.059,0 -0.1142,-10e-5 -0.1511,0.026 -0.064,0.051 -0.1229,0.085 -0.089,0.1976 -0.2555,-0.039 -0.3588,0.2378 -0.2801,0.4302 0.025,0.051 0.2013,0.033 0.2652,0.085 0.1621,0.1301 0.3097,0.1075 0.4718,0.243 0.012,0.014 0,0.068 0,0.074 0.1228,0.074 0.2456,0.2036 0.3734,0.1246 0.1376,-0.079 0.182,-0.2994 0.1032,-0.4011 -0.1769,-0.2151 -0.094,-0.4985 -0.2701,-0.651 -0.077,-0.074 -0.1835,-0.1869 -0.2984,-0.1848 z m 2.7854,0.011 h 9e-4 c -0.044,0 -0.087,0 -0.1191,0.03 -0.1818,0.1301 -0.029,0.4358 -0.098,0.6338 -0.044,0.1188 -0.089,0.2375 -0.055,0.3561 0.049,0.1868 0.083,0.3568 0.1279,0.5265 0.034,0.1189 0.1717,0.1695 0.2652,0.2544 0.059,0.051 0.1134,0.1866 0.1773,0.2149 0.1573,0.074 0.3243,0.1697 0.4668,0.2603 0.2457,0.1583 0.5504,-0.017 0.4717,-0.4129 -0.02,-0.1132 -0.1129,-0.2042 -0.1275,-0.3117 -0.039,-0.2771 0.039,-0.5707 -0.039,-0.8253 -0.053,-0.1755 -0.053,-0.4019 -0.1521,-0.5093 -0.1867,-0.2151 -0.5062,-0.1638 -0.7814,-0.2035 h -5e-4 c -0.044,0 -0.092,-0.014 -0.1368,-0.014 z m 3.8358,5e-4 0.01,9e-4 c -0.047,0 -0.092,0.014 -0.1353,0.03 -0.1327,0.062 -0.2458,0.164 -0.3734,0.2376 -0.1181,0.074 -0.044,0.249 -0.1621,0.4129 -0.02,0.029 -0.02,0.091 0,0.1186 0.094,0.1132 0.236,0.1923 0.2802,0.3225 0.064,0.1924 0.2163,0.2655 0.3146,0.407 0.094,0.1471 0.3193,0.1075 0.4618,0.045 0.074,-0.039 0.059,-0.2143 0.083,-0.3274 0.1327,0.039 0.1521,-0.1136 0.1768,-0.1872 0.044,-0.1074 0.034,-0.26 0,-0.3843 -0.029,-0.1188 -0.034,-0.2601 -0.083,-0.3393 -0.089,-0.1359 -0.187,-0.3055 -0.3639,-0.3225 l 0.113,0.045 c -0.1043,-0.023 -0.2137,-0.059 -0.3166,-0.058 z m -1.1761,0.1428 -0.1091,9e-4 0.083,0.076 c -0.055,-0.014 -0.1154,10e-5 -0.1476,0.032 -0.2162,0.1924 -0.3683,0.4353 -0.5354,0.6955 -0.034,0.045 -0.034,0.1641 0,0.198 0.064,0.056 0.1718,0.079 0.2455,0.1245 0.1818,0.1188 0.2751,0.4018 0.4766,0.4811 0.1131,0.045 0.2902,0.1358 0.3492,0.045 0.1523,-0.2375 0.015,-0.5658 -0.012,-0.86 -0.1033,0.017 -0.1963,-0.074 -0.211,-0.1358 -0.042,-0.1881 -0.1334,-0.3596 -0.1383,-0.5532 l 0.079,0.072 c -0.016,-0.047 -0.046,-0.075 -0.079,-0.091 z m -11.933,0.3941 v 0 c -0.1873,0.1301 -0.5071,0.023 -0.5315,0.3536 0.1081,0 0.1523,0.1586 0.2702,0.1304 0,0.1019 0.015,0.2094 0.083,0.249 0.083,0.056 0.1818,0.023 0.2751,0.1299 0.059,0.062 0.2014,-0.023 0.285,0.068 0.015,0.014 0,0.068 0.012,0.074 0.098,0.029 0.2406,0.045 0.2801,-0.014 0.078,-0.1358 0.1672,-0.3173 0.1278,-0.5097 -0.039,-0.1809 -0.2017,-0.311 -0.3096,-0.3562 -0.1462,-0.056 -0.3189,-0.1113 -0.4911,-0.1269 z m 1.5431,0.2178 c -0.023,3e-4 -0.047,0.014 -0.073,0.026 -0.1328,0.085 -0.3194,0.062 -0.3784,0.2089 -0.03,0.068 -0.069,0.1866 -0.039,0.2431 0.074,0.1358 0.078,0.2606 0.113,0.402 0.034,0.1414 0.2017,0.1468 0.3245,0.1922 0.015,0 -1e-4,0.1019 0.013,0.1077 0.3144,0.1584 0.3635,-0.2153 0.3487,-0.4698 -0.012,-0.1471 -0.049,-0.339 -0.1082,-0.4692 -0.048,-0.1061 -0.1054,-0.2415 -0.1991,-0.24 z m -3.3193,0.1729 c -0.056,0 -0.1115,-10e-5 -0.1674,0.027 -0.1818,0.068 -0.3638,0.1133 -0.5359,0.2094 -0.034,0.023 -0.094,0.051 -0.078,0.1244 h -0.034 c -0.044,0.085 0.078,0.056 0.074,0.1305 0.053,0 0.1035,0 0.1527,0.045 0.1326,0.1359 0.2355,0.2658 0.4174,0.2208 0,0.1245 0.1627,0.091 0.1575,0.2203 0.1229,-0.04 0.2161,0.074 0.2504,0.1808 0.049,0.1697 -0.123,0.4021 0.025,0.5492 0.1031,0.1019 0.221,0.2206 0.3388,0.2545 0.064,0.017 0.088,-0.045 0.1378,-0.1305 0.083,-0.1696 0.3097,-0.215 0.4178,-0.3847 0.1622,-0.2659 0.034,-0.5542 0.083,-0.8709 0,-0.045 -0.049,-0.1018 -0.074,-0.1131 -0.078,-0.04 -0.1866,2e-4 -0.2604,-0.068 -0.044,-0.045 -0.098,-0.091 -0.1324,-0.1586 -0.044,-0.096 -0.1772,-0.085 -0.2607,-0.1076 -0.1696,-0.042 -0.3414,-0.1256 -0.5102,-0.1285 z m 7.5178,0.1803 -0.2307,0.045 h 0.065 c -0.1568,0.024 -0.3198,0.016 -0.4243,0.1196 -0.069,0.074 -0.098,0.2263 -0.201,0.3393 -0.034,0.029 -0.03,0.1641 0,0.1867 0.1475,0.096 0.3338,0.062 0.4959,0.1754 0.118,0.079 0.2802,-0.051 0.408,0 0.1179,0.045 0.2409,0.1809 0.3294,0.091 0.1572,-0.1585 0.2895,-0.4189 0.2159,-0.6224 -0.1252,-0.3241 -0.4853,-0.3021 -0.7972,-0.287 v 0 c 0.048,-0.014 0.095,-0.02 0.1388,-0.041 z m 5.2822,0.3433 -0.012,0.01 c -0.012,0 0.012,0.014 0.072,0.048 h 0.012 c 0,3e-4 0,3e-4 0.012,0 0,-0.014 -0.072,-0.051 -0.085,-0.054 z m 0.01,0.058 c -0.1167,0.017 -0.1791,0.1666 -0.2341,0.2737 -0.083,0.1641 0,0.3955 -0.074,0.5482 -0.089,0.1981 -0.2601,0.3625 -0.4075,0.532 -0.1867,0.2151 -0.1379,0.6108 -0.034,0.8767 0.059,0.1358 0.2165,0.351 0.3294,0.2095 0.1131,-0.1414 0.3587,-0.068 0.3685,-0.328 0.083,0.029 0.1672,10e-5 0.2213,-0.056 0.1425,-0.1188 0.2946,-0.2606 0.324,-0.4302 0.055,-0.3282 0.187,-0.6563 0.078,-0.9562 -0.092,-0.2796 -0.2999,-0.5368 -0.5182,-0.6683 -0.019,0 -0.037,0 -0.053,0 z m 0.066,0 h 4e-4 z m -15.7735,0.081 h -9e-4 -0.028 c -0.1278,0.033 -0.1083,0.2322 -0.2312,0.2662 0.069,0.2828 0.069,0.5824 -0.069,0.8426 -0.025,0.039 -0.025,0.1358 0,0.1586 0.1327,0.1188 0.2358,0.2659 0.2998,0.4525 0.064,-0.085 0.094,-0.1359 0.1373,-0.1982 0.2558,-0.396 0.4767,-0.8258 0.2801,-1.3009 -0.073,-0.1783 -0.2289,-0.2226 -0.3888,-0.2229 z m 1.1623,0.081 0.01,0.01 c -0.013,2e-4 -0.027,0 -0.041,0 -0.1303,0.014 -0.2586,0.089 -0.2984,0.2232 -0.059,0.1979 10e-5,0.4298 -0.029,0.6505 -0.012,0.068 -0.1226,0.014 -0.1374,0.091 -0.034,0.249 0.089,0.4811 -0.044,0.7073 0.1031,0.051 0.201,0.1302 0.2993,0.074 0.074,-0.039 0.064,-0.1701 0.098,-0.2381 0.044,-0.079 0.1771,-0.096 0.2411,-0.1639 0.098,-0.1076 0.2359,-0.1755 0.275,-0.334 0.059,-0.2489 0.069,-0.5261 0,-0.7354 -0.035,-0.133 -0.2001,-0.2848 -0.3699,-0.2825 z m 8.0161,0.095 c -0.1167,-0.029 -0.2183,0.086 -0.289,0.1853 -0.02,0.029 1e-4,0.1015 -0.012,0.1185 -0.083,0.062 -0.1868,0.096 -0.2114,0.1926 -0.064,0.2092 0.064,0.4298 0.015,0.6505 -0.044,0.2205 -0.2068,0.3846 -0.1724,0.6164 0.034,0.2659 0.2853,0.2152 0.4574,0.2944 0.069,0.034 0.094,-0.1359 0.1472,-0.1417 0.2161,-0.017 0.5504,0.045 0.5848,-0.243 0.034,-0.2997 0.3488,-0.4697 0.2603,-0.7241 -0.074,-0.2094 -0.3095,-0.2884 -0.447,-0.4752 -0.084,-0.1131 -0.069,-0.3223 -0.1817,-0.407 -0.031,-0.02 -0.069,-0.033 -0.1082,-0.048 -0.015,-0.014 -0.029,-0.014 -0.043,-0.018 z m -7.0786,0.035 h -5e-4 c -0.064,-3e-4 -0.1206,0.037 -0.125,0.062 -0.055,0.2829 -0.2356,0.6107 -0.094,0.7918 0.083,0.1018 0.3437,0.023 0.5354,0.039 -0.049,0.074 0.054,0.1075 0.039,0.1754 0.098,0 0.2213,0.034 0.2607,-0.091 0.044,-0.1471 -4e-4,-0.3052 -0.049,-0.4297 -0.039,-0.1076 -0.1964,-0.1583 -0.1719,-0.3166 -0.1521,-0.023 -0.2208,-0.2094 -0.3828,-0.2322 h -5e-4 c 0,-4e-4 -0.012,-4e-4 -0.012,-4e-4 z m 2.9092,0.043 0.01,0.01 c -0.023,-6e-4 -0.049,0 -0.074,0 l 0.039,0.045 c -0.1081,0.1184 -0.2504,0.1017 -0.3778,0.1525 -0.094,0.039 -0.1328,0.2038 -0.2016,0.3226 -0.034,0.056 -0.078,0.1078 -0.1472,0.096 0,0.1414 -0.1526,0.2769 -0.094,0.3788 0.1131,0.1866 0.1866,0.413 0.2652,0.6223 0.015,0.034 0.1671,0.04 0.1917,0 0.059,-0.1018 0.069,-0.2662 0.1719,-0.2776 0.3096,-0.045 0.6341,-0.1129 0.9143,0.1191 0.012,0.014 0,0.068 0,0.074 0.044,0.023 0.1132,0.029 0.1428,0 0.02,-0.017 0,-0.085 0.015,-0.1245 0.064,-0.1641 0.2553,-0.2884 0.1718,-0.4752 -0.1179,-0.2827 -0.2851,-0.5431 -0.5013,-0.7355 -0.1228,-0.1188 -0.3242,-0.039 -0.4767,-0.1185 -0.012,0 10e-5,-0.062 -0.012,-0.074 -0.012,-0.014 -0.021,-0.014 -0.034,-0.014 z m 12.6602,0.1912 -5e-4,4e-4 c -0.03,0 -0.056,0.014 -0.082,0.027 -0.1721,0.1245 -0.3982,0.2492 -0.4031,0.5433 0.069,0 0.1473,0.034 0.1768,0.062 0.118,0.1132 0.2016,0.2825 0.3048,0.3956 0.113,0.1189 0.3244,0 0.4668,-0.079 0.088,-0.045 0.172,-0.1693 0.1867,-0.2938 0.025,-0.1754 -0.044,-0.4698 -0.2554,-0.4812 0.015,-0.029 0.029,-0.056 0.039,-0.085 -0.1517,0.027 -0.3068,-0.095 -0.4331,-0.089 z m -4.4613,0.055 c -0.1325,0 -0.1965,0.2322 -0.3438,0.1927 -0.1573,-0.04 -0.31,-0.029 -0.4623,-0.074 l 0.118,0.045 c -0.167,0 -0.3386,-0.051 -0.3976,0.1017 -0.1229,0.3112 0.1864,0.5601 0.2159,0.9109 0,0.074 0.098,0.029 0.1329,0.056 0.1276,0.1076 0.1031,0.4128 0.2553,0.2657 0.1032,-0.1018 0.1818,-0.2544 0.1719,-0.4524 h 0.074 c 0.015,-0.017 10e-5,-0.074 0,-0.074 0.3095,-0.062 0.3977,-0.3846 0.5157,-0.6392 0.098,-0.2206 -0.1328,-0.3279 -0.285,-0.3279 z m -6.4053,0.06 v 0.01 c -0.016,0 -0.028,0.014 -0.022,0.053 -0.1033,-0.1301 -0.2065,0.023 -0.3097,6e-4 0,0.249 -0.2014,0.4811 -0.1229,0.6959 0.029,0.091 0.2259,0.3225 0.2997,0.1753 0.025,-0.039 0.049,-0.1301 0.069,-0.1472 0.177,-0.1811 0.2458,-0.4693 0.2065,-0.7181 0,-0.014 -0.078,0.045 -0.069,-0.051 -0.015,0 -0.035,-0.014 -0.052,-0.014 z m 1.1716,0.3364 c -0.034,-2e-4 -0.07,0.017 -0.1032,0.062 -0.1377,0.192 -0.3587,0.1865 -0.5404,0.3334 -0.1278,0.096 -0.3836,-0.023 -0.4524,0.1753 -0.034,0.091 -0.1079,0.238 -0.049,0.3285 0.078,0.1188 0.2698,0.13 0.2994,0.3166 0,0 0.049,0 0.069,0.014 0.049,0.039 0.069,0.102 0.079,0.17 0.2554,-0.085 0.6486,0.1016 0.7518,-0.2268 0.044,-0.1469 0.013,-0.3164 0.013,-0.4805 0.1375,0.039 0.1964,-0.1191 0.2504,-0.1927 0.074,-0.096 0.044,-0.3055 -0.064,-0.3507 -0.07,-0.033 -0.1617,-0.1468 -0.2509,-0.1477 z m 2.894,0.034 c 0,5e-4 0.01,10e-5 0.01,6e-4 v -6e-4 z m 0.01,6e-4 0.1893,0.038 c -0.2114,0 -0.4178,0.056 -0.5651,0.2321 -0.029,0.033 3e-4,0.13 -0.02,0.1526 -0.098,0.085 -0.064,0.2038 -0.084,0.283 -0.049,0.215 0.138,0.3957 0.2657,0.5483 0.2261,0.2773 0.4815,0.5096 0.8204,0.6002 v 0.074 c 0.039,0.023 0.1229,0.023 0.1374,0 0.1819,-0.3676 0.3686,-0.7132 0.5111,-1.0922 -0.069,-0.023 -0.1132,-0.074 -0.1526,-0.1358 -0.053,-0.096 -0.02,-0.2093 -0.053,-0.2997 -0.078,-0.232 -0.3243,-0.2832 -0.4964,-0.368 -0.1503,-0.073 -0.3626,0 -0.5523,-0.033 z m 3.0783,0.2079 c -0.2002,0 -0.3495,0.2283 -0.4613,0.4361 -0.069,0.1189 -0.2311,0.1641 -0.3097,0.2885 -0.044,0.074 -0.044,0.2433 0,0.2716 0.1228,0.085 0.2112,0.2093 0.3047,0.249 0.2261,0.091 0.5305,0.2601 0.7271,0.1299 0.1375,-0.096 0.2655,-0.3735 0.2361,-0.611 -0.03,-0.198 -3e-4,-0.4633 -0.1477,-0.5483 -0.094,-0.051 -0.1523,-0.1584 -0.2603,-0.1981 -0.031,-0.014 -0.059,-0.017 -0.089,-0.017 z m -11.779,0.3028 v 4e-4 c -0.059,0 -0.1228,0.014 -0.1812,0.014 l 0.059,0.017 c -0.4403,-0.085 -0.5708,0.4985 -0.9242,0.7522 -0.064,0.051 -10e-5,0.204 0.039,0.2776 0.1179,0.2035 0.3292,0.215 0.5013,0.328 0.172,0.1188 0.4227,0.1412 0.6292,0.023 0.1424,-0.079 0.1275,-0.3505 0.2406,-0.3956 0.1327,-0.045 0.177,-0.1131 0.2114,-0.2549 0.034,-0.1584 0.049,-0.3449 -0.039,-0.4693 -0.094,-0.1244 -0.2556,-0.1413 -0.3882,-0.2543 -0.036,-0.034 -0.09,-0.039 -0.1483,-0.038 z m 14.5618,0.1373 c -0.1871,0 -0.2358,0.2682 -0.365,0.3911 -0.039,0.039 -0.1521,3e-4 -0.167,0.023 -0.054,0.1358 -0.1668,0.2828 -0.113,0.4243 0.054,0.1583 0.2209,0.1808 0.3635,0.1808 0,0.068 0.044,0.1131 0.053,0.1753 0,0.062 0.083,0.068 0.1324,0.1077 0.1327,0.1019 0.2555,0.4922 0.408,0.2771 0.1375,-0.2092 0.2016,-0.4749 0.034,-0.6673 -0.1229,-0.1471 -0.1817,-0.3225 -0.098,-0.5093 0,-0.017 -0.034,-0.056 -0.069,-0.039 -0.012,-0.1244 0.054,-0.3227 -0.118,-0.3566 h -5e-4 c -0.023,0 -0.044,-0.014 -0.063,0 z m -13.1807,0.083 c -0.035,2e-4 -0.072,0 -0.1082,0.014 h 0.02 c -0.034,0 -0.066,0.021 -0.094,0.051 -0.012,0.014 0,0.051 0,0.079 -0.2359,0 -0.3585,0.3791 -0.3685,0.6223 0,0.074 0.1331,0.062 0.1576,0.1018 0.078,0.1132 0.2164,0.13 0.3196,0.1699 0.012,0 0,0.045 0,0.079 0.098,-0.1697 0.2998,-0.1468 0.3981,-0.2543 0.113,-0.1188 0.1765,-0.4018 0.1077,-0.5715 -0.07,-0.1719 -0.2457,-0.2913 -0.4376,-0.2905 z m 14.3928,0.1146 c -0.2011,-0.054 -0.6826,0.4366 -0.6826,0.4366 -0.02,0.017 -0.02,0.091 0,0.1185 0.059,0.079 0.099,0.2035 0.2214,0.1809 -0.039,0.2206 0.015,0.4585 -0.1374,0.6677 -0.074,0.1019 0.1028,0.175 0.064,0.2994 0.177,-0.051 0.3292,0.091 0.4964,0.091 -0.012,-0.051 -0.012,-0.1074 0.039,-0.1299 0.1032,-0.04 0.2011,0.029 0.3043,0.039 -0.01,-0.067 -3e-4,-0.1325 0.01,-0.1981 3.842,-0.1636 7.129,1.0456 7.129,1.0456 l 0.2588,-0.7186 c 0,0 -2.9081,-1.0838 -6.5279,-1.1094 -0.293,0 -0.5917,0.01 -0.893,0.018 v 0.015 c -0.016,-0.028 -0.028,-0.061 -0.032,-0.071 -0.059,-0.1754 0.1178,-0.3281 0.054,-0.5205 -0.099,-0.08 -0.1771,-0.1339 -0.3008,-0.1645 z m -13.0414,0.074 -0.01,5e-4 c -0.052,0 -0.1044,0.016 -0.1521,0.044 h 0.1917 c -0.172,0 -0.3634,0.096 -0.4224,0.3057 -0.059,-0.029 -0.098,0.045 -0.1472,0.062 -0.064,0.017 -0.064,0.158 -0.029,0.1863 0.2555,0.2432 0.083,0.6111 -0.034,0.8658 -0.089,0.2034 0.089,0.4467 0.2603,0.5429 0.1031,0.056 0.2554,-0.017 0.3684,0.034 0.064,0.029 0.1577,0.091 0.1773,0.056 0.1622,-0.2321 0.3485,0.029 0.5108,-0.1246 0.02,-0.017 -10e-5,-0.1017 0.012,-0.1131 0.1426,-0.1017 0.1475,-0.2997 0.089,-0.3902 -0.172,-0.2603 -0.403,-0.4298 -0.5503,-0.7241 -0.1131,-0.2093 0.1229,-0.4131 0.015,-0.5996 -0.058,-0.098 -0.1704,-0.152 -0.285,-0.1472 z m 0.773,0.2554 v 0 c 0,0 -0.012,3e-4 -0.012,0 -0.1866,0.017 -0.2897,0.2714 -0.2554,0.4411 0.02,0.1132 0.1525,0.1642 0.1427,0.3112 h 0.3784 c -0.034,-0.1245 0.1183,-0.1918 0.069,-0.2994 -0.039,-0.091 -0.1429,-0.1304 -0.1773,-0.2321 -0.015,-0.034 1e-4,-0.091 -0.012,-0.1245 -0.028,-0.053 -0.073,-0.096 -0.1344,-0.097 z m 1.0423,0 c -0.066,0 -0.1487,0.042 -0.2129,0.085 l 0.039,0.045 c -0.1573,-0.029 -0.1426,0.2434 -0.3047,0.2321 -0.074,0 -0.044,0.1189 -0.059,0.1754 -0.094,0.3054 0.084,0.6054 0.064,0.9108 -0.012,0.1132 -0.074,0.2771 -0.029,0.3902 0.02,0.051 0.1326,0.023 0.1719,0.1018 0.012,0.023 2e-4,0.074 0,0.074 0.098,0.029 0.2067,0.034 0.3047,0 0.074,-0.023 0.059,-0.1356 0.094,-0.1921 0.074,-0.1301 0.2853,-7e-4 0.3443,-0.085 0.1571,-0.2263 0.4619,-0.435 0.3833,-0.7177 -0.049,-0.1756 -0.2853,-0.2549 -0.3295,-0.4134 -0.074,-0.2488 -0.2161,-0.4298 -0.3931,-0.5824 -0.019,-0.016 -0.045,-0.023 -0.073,-0.023 z m 3.3266,0 c -0.02,0 -0.038,0 -0.055,0.014 -0.069,0.029 -0.029,0.079 0,0.125 -0.1033,-0.096 -0.2799,-0.068 -0.3141,-0.017 -0.1475,0.2377 -0.103,0.5262 -0.2016,0.8204 -0.049,0.1415 0.015,0.328 -0.034,0.4692 -0.02,0.056 -0.029,0.1249 -0.059,0.1814 0.2702,0.085 0.4425,0.4071 0.6931,0.4411 0.2653,0.034 0.4814,-0.2658 0.732,-0.4243 0.098,-0.062 0.2507,0.056 0.3195,0 0.226,-0.1922 0.103,-0.7131 -0.083,-0.7923 -0.2508,-0.1132 -0.4669,-0.3561 -0.693,-0.5542 -0.069,-0.062 -0.1423,-0.1812 -0.2455,-0.249 -0.015,-0.014 -0.033,-0.015 -0.053,-0.014 z m -1.9318,0.3443 c -0.074,0 -0.136,0.035 -0.1876,0.1032 -0.015,0.023 0.012,0.096 -0.012,0.1132 -0.054,0.045 -0.078,0.1072 -0.094,0.1525 -0.074,0.1924 0.1716,0.3451 0.324,0.3281 0.1131,-0.017 0.2309,-0.1074 0.2949,-0.2149 0.044,-0.074 0.044,-0.2092 0,-0.2885 -0.064,-0.1245 -0.1524,-0.1755 -0.29,-0.1417 l 0.039,-0.045 c -0.028,0 -0.052,-0.014 -0.077,0 z m 0.8629,0 c -0.043,4e-4 -0.062,0.04 -0.081,0.077 l 0.097,-0.077 z m -0.081,0.077 z m 0,0 -0.012,0.011 h 0.012 z m 3.9169,-0.058 v 0 c -0.1191,0 -0.2709,0.119 -0.4094,0.079 v 6e-4 c -0.1131,-0.034 -0.2407,-0.045 -0.3389,0.04 -0.015,0.017 0.012,0.096 -0.012,0.1132 -0.094,0.1018 -0.2261,0.1697 -0.285,0.2885 -0.029,0.062 -0.044,0.1356 -0.083,0.2148 -0.02,0.04 -0.039,0.1418 0.029,0.1585 0.2998,0.074 0.5653,-0.085 0.8847,-0.014 0.012,0 0.02,-0.1076 0.044,-0.1472 0.1229,-0.2149 0.4422,-0.3958 0.3048,-0.6505 -0.035,-0.067 -0.082,-0.088 -0.1363,-0.085 z m -3.8304,0.068 c -0.028,0 -0.054,0 -0.082,0 -0.013,0.023 -0.023,0.043 -0.04,0.058 -0.025,0.023 0.012,0.1248 -0.02,0.1531 -0.1525,0.1527 -0.1622,0.3501 -0.2603,0.5369 -0.025,0.045 -0.084,0.029 -0.123,0.074 -0.034,0.039 -0.1179,3e-4 -0.1769,0.023 -0.1915,0.062 -0.359,0.1358 -0.5261,0.2035 -0.2408,0.096 -0.4129,0.6448 -0.1525,0.7523 0.2605,0.1075 0.5456,0.1587 0.8307,0.2549 0.064,0.017 0.1428,-0.068 0.2263,-0.074 -0.012,-0.079 0.039,-0.1244 0.078,-0.1753 0.089,-0.1075 0.2408,-0.1584 0.285,-0.2771 0.078,-0.2037 -0.074,-0.464 0.029,-0.6847 0,-0.014 0.064,-0.023 0.059,-0.051 -0.025,-0.2772 0.078,-0.4919 0.123,-0.7522 -0.086,0.011 -0.1663,-0.033 -0.2489,-0.044 z m -0.082,0 c 2e-4,-3e-4 3e-4,-6e-4 4e-4,0 v 0 c 4e-4,0 7e-4,0 0,0 z m -8.5061,0.026 c -0.038,-0.01 -0.075,-0.01 -0.1043,4e-4 h -5e-4 c -0.2547,0.064 -0.2465,-0.026 -0.4628,0.1443 -0.01,0.01 -0.015,0.02 -0.024,0.03 -1.0086,0.3211 -3.9391,1.1339 -7.3038,0.8486 l -0.062,0.7617 c 3.1682,0.2686 6.0437,-0.4194 7.3572,-0.8062 0.1097,0.1191 0.1027,0.2857 0.2208,0.3537 0.1819,0.1132 0.3052,-0.068 0.4623,-0.085 0.1819,-0.023 0.3485,-10e-5 0.5206,0.1868 0.2409,0.2432 0.1575,-0.2202 0.3641,-0.407 0.1031,-0.091 0.069,-0.4187 -0.098,-0.5488 -0.2014,-0.1641 -0.3934,-0.3003 -0.6392,-0.3285 0.013,-0.062 -0.1155,-0.131 -0.2301,-0.1492 z m 15.2073,0.012 c -0.056,0 -0.112,0.014 -0.1665,0.02 -0.098,0.017 -0.1673,0.1245 -0.246,0.1808 -0.1818,0.1302 -0.442,0.029 -0.6238,0.1417 -0.123,0.079 -0.044,0.3623 0.015,0.4189 0.167,0.1641 0.4222,0.2772 0.614,0.4243 0.1031,0.079 0.2408,0.2713 0.3734,0.1921 0.2163,-0.1244 0.4965,-0.1982 0.6095,-0.4584 0.053,-0.1188 0.034,-0.2831 0.012,-0.4302 h -0.069 c 0.015,-0.2715 -0.1323,-0.3728 -0.3389,-0.4519 -0.061,-0.026 -0.1205,-0.035 -0.1773,-0.036 z m -2.2015,0.092 h -5e-4 c 0,0 0.011,0 0.015,0.01 z m 0.015,0.01 0.015,0.01 c -0.1341,-0.03 -0.263,0.02 -0.291,0.1328 -0.069,0.2771 -0.1325,0.5033 -0.2997,0.7409 -0.069,0.096 0.084,0.2265 -0.012,0.3452 0.1376,0.1188 0.3442,0.1468 0.4865,0.029 0.1278,-0.1019 0.2112,-0.2994 0.3536,-0.3106 0.1327,-0.014 0.2603,0.023 0.3339,-0.1191 0.225,-0.4368 -0.179,-0.6677 -0.4988,-0.7923 -0.012,0 -0.025,-0.014 -0.036,-0.014 -0.017,-0.011 -0.034,-0.013 -0.052,-0.018 z m -10.4566,0.2969 -5e-4,0.01 c -0.1426,0.096 -0.3046,0.068 -0.4619,0.1191 v -4e-4 c -0.1229,0.033 -0.2848,-0.039 -0.3635,0.033 -0.162,0.1641 -0.4176,0.2599 -0.447,0.5483 h -0.059 c -0.054,0.2319 -0.1283,0.4865 -0.054,0.6845 0.054,0.1641 0.2215,0.3051 0.3641,0.3844 0.285,0.1641 0.6436,0.056 0.9384,0.2148 0.03,0.017 0.059,0.096 0.089,0.1077 0.1377,0.033 0.2849,-0.1073 0.3487,-0.1922 0.1524,-0.2148 0.078,-0.56 0.059,-0.8485 -0.012,-0.1076 -0.089,-0.1923 -0.1274,-0.2771 -0.054,-0.1359 0.02,-0.3337 -0.034,-0.4638 -0.054,-0.1189 -0.1965,-0.1757 -0.2505,-0.3171 z m 9.3902,0.5557 c -0.069,0.023 -0.1773,-0.014 -0.2361,0.039 -0.1231,0.1132 -0.2455,0.1073 -0.3388,0.2149 -0.078,0.096 -0.089,0.317 0.029,0.3566 0.1181,0.045 0.1916,0.1018 0.2603,0.2203 0.098,0.1585 0.3143,-0.056 0.4371,-0.1808 0.074,-0.068 0.1674,-0.3113 0.049,-0.3848 -0.078,-0.045 -0.1721,-0.091 -0.2164,-0.2035 z m 4.1392,0.3581 c -0.017,0 -0.029,0.014 -0.026,0.061 -0.089,0 -0.1915,-0.033 -0.2553,0.017 -0.1868,0.1415 -0.3097,0.2884 -0.4965,0.441 -0.2062,0.1698 0.083,0.4415 0.1033,0.6847 0.2259,-0.029 0.4418,0.085 0.6287,0.2375 0.083,0.074 0.2608,0.045 0.3542,0.1018 0.118,0.079 0.2014,0.2376 0.2899,0.119 0.1424,-0.1867 0.3195,-0.4301 0.2851,-0.7187 -0.015,-0.1245 -0.1382,-0.2089 -0.1873,-0.2938 -0.1179,-0.181 -0.2304,-0.3793 -0.4514,-0.3907 -0.084,0 -0.074,-0.2088 -0.1921,-0.2371 -0.015,0 -0.035,-0.02 -0.054,-0.021 z m -5.0796,0.022 v 0 c -0.017,0 -0.029,0.018 -0.029,0.079 -0.049,-10e-5 -0.1165,-0.023 -0.1418,0 -0.059,0.068 -0.074,0.1358 -0.1576,0.1812 -0.015,0 0,0.074 0,0.1186 0.2163,-0.017 0.1966,0.2832 0.3685,0.4134 0.069,0.051 0.133,0.029 0.1576,0.014 0.1032,-0.091 0.1867,-0.2265 0.1081,-0.3679 -0.044,-0.085 -0.1327,-0.1354 -0.2065,-0.2031 -0.03,-0.029 -0.012,-0.1302 -0.012,-0.2039 -0.023,0 -0.059,-0.035 -0.083,-0.035 z m -7.377,0.037 0.01,6e-4 c -0.1069,0 -0.2106,0.021 -0.2622,0.1358 -0.1229,0.2715 0,0.554 0,0.8313 0,0.074 -0.088,0.1751 -0.044,0.2543 0.094,0.1698 0.015,0.3512 0.1131,0.487 0.078,0.1132 0.2162,0.1015 0.3339,0.096 -0.034,-0.1867 0.1526,-0.2374 0.2558,-0.3279 0.074,-0.062 0.1372,-0.1531 0.2011,-0.2436 0.064,-0.091 0.1919,-0.096 0.2163,-0.1813 0.069,-0.2375 -0.044,-0.4917 -0.02,-0.7463 -0.2702,-0.017 -0.4769,-0.2317 -0.7275,-0.3052 -0.024,-10e-5 -0.047,-4e-4 -0.071,-6e-4 z m 14.1019,0.037 h -5e-4 c -0.021,3e-4 -0.042,5e-4 -0.059,0.014 -0.044,0.023 -0.084,0.1129 -0.1175,0.1073 -0.1967,-0.023 -0.2854,0.1246 -0.413,0.2489 -0.03,0.033 -0.025,0.1754 0,0.1867 0.1916,0.1188 0.3687,0.2208 0.6046,0.1472 0.029,0 0.049,-0.039 0.039,-0.079 0.049,0 0.1228,0.017 0.1373,-0.014 0.1181,-0.181 0.064,-0.4071 -0.069,-0.5542 h -5e-4 c -0.031,-0.038 -0.077,-0.058 -0.1215,-0.058 z m -3.4694,0 c 0.012,0 0.021,0.014 0.032,0.017 -0.049,0.02 -0.095,0.048 -0.1448,0.051 -0.2947,0.017 -0.5849,0 -0.7078,0.3338 -0.089,0.2207 0.1917,0.1749 0.2703,0.3334 0.015,0.039 0.1375,10e-5 0.2064,0.017 0.044,0.023 0.074,0.1018 0.1181,0.1131 0.1425,0.033 0.3244,-0.039 0.3931,0.074 0.078,0.1358 0.1621,0.2489 0.29,0.2998 0.044,0.017 0.02,0.091 0.074,0.1359 0.1868,0.1471 0.2313,-0.085 0.2559,-0.1922 0.054,-0.2546 0.02,-0.526 0,-0.7863 0,-0.04 -0.1231,-0.062 -0.094,-0.1812 -0.2243,-0.054 -0.4487,-0.092 -0.6604,-0.1982 0.017,-2e-4 0.034,-0.014 0.051,-0.017 z m -8.8746,6e-4 c 0.049,0.062 -0.083,0.023 -0.039,0.085 -0.1129,-0.029 -0.1916,0.056 -0.3047,0.091 0.02,0.074 -0.044,0.1871 0.039,0.2041 0.2507,0.062 0.4862,0.2936 0.6925,-0.023 0.059,-0.096 -0.064,-0.079 -0.044,-0.1413 -0.025,0 -0.064,0.014 -0.069,0 -0.059,-0.1698 -0.1423,-0.17 -0.2751,-0.2154 z m 7.3518,0.2919 v 0 c -0.067,5e-4 -0.134,0.014 -0.1986,0.055 h 0.021 c -0.162,0.026 -0.3021,0.1245 -0.4198,0.2944 -0.025,0.039 -0.118,-3e-4 -0.172,0.023 -0.029,0.017 -0.049,0.074 -0.039,0.1246 h -0.069 c -0.083,0.2263 -0.1669,0.5205 -0.083,0.6732 0.1081,0.198 0.4567,0.1017 0.6288,0.2771 0.03,0.023 0.078,0.119 0.1082,0.1867 0.053,0.1415 0.2212,0.1076 0.3146,0.2549 0.039,0.062 0.1967,0.023 0.236,-0.079 0.1082,-0.2884 0.1912,-0.6052 0.1814,-0.9162 0,-0.1528 -0.015,-0.3108 -0.1176,-0.4579 -0.079,-0.1018 -0.064,-0.272 -0.054,-0.4247 -0.1106,0.021 -0.225,-0.014 -0.3373,-0.014 z m -13.2834,0.059 c 0.015,0.029 0.039,0.074 0.034,0.079 -0.2212,0.2037 -0.2262,0.5148 -0.1329,0.7468 0.059,0.1527 0.1377,0.3789 0.2752,0.2884 0.118,-0.074 0.2359,-0.1639 0.2603,-0.3279 0.025,-0.1812 0.025,-0.4188 -0.1033,-0.5489 -0.098,-0.091 -0.2011,-0.1926 -0.3338,-0.2375 z m 7.1161,0.065 v 0 c -0.102,0 -0.1571,0.1287 -0.245,0.1932 -0.1131,0.079 -0.1917,0.317 -0.078,0.4697 0.083,0.1132 0.2161,0.2997 0.3537,0.2149 0.098,-0.056 0.054,-0.2265 0.1472,-0.3453 0.089,-0.1131 0.099,-0.3222 0.039,-0.4578 -0.015,-0.029 -0.1133,-0.014 -0.1773,-0.014 0.015,-0.014 0.025,-0.029 0.039,-0.045 -0.029,-0.014 -0.055,-0.018 -0.078,-0.017 z m 2.4163,0.056 h -9e-4 c -0.028,2e-4 -0.055,0 -0.081,0 h -5e-4 c -0.1081,0 -0.1919,0.1076 -0.3048,0.091 0.049,0.074 -0.054,0.1077 -0.039,0.1754 -0.1572,0.051 -0.226,0.2376 -0.3734,0.3225 -0.098,0.051 -0.064,0.2149 -0.029,0.2771 0.079,0.1301 0.1673,0.3561 0.3245,0.2712 0.118,-0.074 0.059,-0.2824 0.1324,-0.3729 0.094,-0.1075 0.2852,-0.1132 0.3492,-0.249 0.069,-0.1357 0.177,-0.3001 0.123,-0.4642 -0.015,-0.047 -0.055,-0.055 -0.1008,-0.055 z m 0.7434,0.084 v 5e-4 c -0.064,0 -0.1365,0.032 -0.1724,0.097 l 0.2262,-0.039 c -0.2849,0.1132 -0.4131,0.4632 -0.7226,0.5255 0.025,0.1075 -0.012,0.2379 -0.053,0.2944 -0.059,0.062 -0.1281,0.2038 -0.2559,0.1472 -0.049,0.1471 -0.039,0.3223 -0.1527,0.4411 0.2212,0.068 0.4475,0 0.6244,0.2035 0.064,0.074 0.1181,-0.079 0.1823,-0.1072 0.094,-0.051 0.2451,0.062 0.2894,-0.062 0.049,-0.1358 -0.03,-0.3395 0.034,-0.4583 0.083,-0.1471 0.1916,-0.1981 0.2455,-0.3735 0.064,-0.2263 -0.069,-0.4012 -0.1373,-0.605 -0.015,-0.042 -0.058,-0.064 -0.1082,-0.064 z m -9.0297,0.055 v 0.01 c -0.077,0 -0.1592,0.065 -0.247,0.036 0.039,0.1641 -0.084,0.2095 -0.1916,0.1812 -0.015,0.1867 0,0.3844 0.1866,0.4919 0.015,0.014 -0.012,0.091 0.013,0.1132 0.083,0.079 0.2016,-0.014 0.2459,-0.056 0.1522,-0.1527 0.1523,-0.3566 0.2998,-0.532 0.1377,-0.1697 -0.1132,-0.1753 -0.2509,-0.2262 v 5e-4 c -0.017,-0.014 -0.034,-0.014 -0.053,-0.014 z m 9.8896,0.01 c -0.012,0 -0.02,0.068 -0.039,0.074 h -5e-4 c -0.3195,0.096 -0.1965,0.4525 -0.2653,0.7127 0.1229,0.017 0.1719,0.1529 0.2554,0.2322 0.034,0.033 0.012,0.1355 0.012,0.2094 0.2358,-0.014 0.5059,0.2545 0.6679,0.062 0.034,-0.039 0.053,-0.1583 0.1037,-0.2375 0.012,-0.014 0.054,0 0.064,0 0.084,-0.1415 0.049,-0.2943 -0.074,-0.3848 -0.025,-0.023 -0.078,-10e-5 -0.1082,-0.017 -0.1032,-0.068 -0.1327,-0.2658 -0.2311,-0.2771 -0.2408,-0.017 -0.1819,-0.3566 -0.3833,-0.368 z m -5.1072,0.1803 c -0.107,0 -0.2152,0 -0.3281,0.03 -0.3783,0.085 -0.663,0.4129 -0.8105,0.7691 -0.053,0.1415 -0.03,0.3959 0.069,0.5374 0.1032,0.1527 0.3046,0.1641 0.4519,0.3112 0.1131,0.1131 0.2904,0.068 0.4475,0.051 0.1131,0 0.094,-0.1975 0.2263,-0.2203 0.157,-0.033 0.2942,-0.017 0.3679,-0.1758 0.1621,-0.3677 0.2214,-0.8316 -0.094,-1.1484 -0.021,-0.017 -1e-4,-0.1016 -0.012,-0.1072 -0.1074,-0.029 -0.2121,-0.043 -0.3181,-0.046 z m 1.9727,0.019 h -5e-4 c -0.052,0 -0.1045,0.014 -0.1526,0.014 h 0.025 c -0.171,0.023 -0.345,0.1696 -0.2949,0.3957 -0.039,0 -0.083,-0.017 -0.1077,0 -0.1229,0.1131 -0.1575,0.2487 -0.2509,0.3674 -0.1179,0.1585 0.1034,0.1982 0.246,0.2435 -0.035,0.091 0.1325,0.068 0.074,0.1753 0.1474,0.074 0.3094,0.1021 0.4568,0.062 0.1719,-0.045 0.123,-0.2883 0.1818,-0.4466 0.02,-0.056 0.1573,-0.1302 0.1818,-0.1981 0.074,-0.1867 -0.059,-0.3907 -0.1571,-0.5433 -0.036,-0.064 -0.1155,-0.077 -0.201,-0.075 z m 6.3817,0.1739 c -0.102,0 -0.1571,0.1248 -0.2648,0.1932 l 0.1176,-0.045 c -0.1229,0.068 -0.1227,0.215 -0.1176,0.3507 0.1671,-0.045 0.069,0.1925 0.1571,0.1982 0.2556,0.023 0.5503,0.2036 0.7518,-0.034 0.039,-0.051 0.089,-0.1695 0.039,-0.243 -0.054,-0.074 -0.089,-0.119 -0.1818,-0.096 0.012,-0.1301 -0.1032,-0.1639 -0.162,-0.2035 -0.074,-0.039 -0.1718,-0.045 -0.2603,-0.096 -0.029,-0.015 -0.055,-0.023 -0.079,-0.023 z m 3.6843,0.1674 c -0.135,10e-5 -0.2641,0.023 -0.372,0.071 -0.078,0.039 -0.2062,0.2264 -0.2356,0.3961 -0.02,0.091 0.1034,0.1467 0.064,0.2599 0.1522,0.062 0.2948,0.079 0.4569,0.1076 0.029,0 0.053,0.1301 0.083,0.1417 0.1328,0.051 0.354,0.074 0.3982,-0.119 0.034,-0.1244 0.078,-0.2491 0.1131,-0.3566 0.044,-0.1414 0.1033,-0.4014 -0.098,-0.4525 -0.1326,-0.032 -0.2741,-0.05 -0.409,-0.048 z m -16.0471,0.056 c -0.017,6e-4 -0.034,0 -0.053,0.014 -0.1275,-0.024 -0.2367,0.018 -0.3108,0.1417 -0.029,0.056 0,0.181 -0.015,0.1921 -0.2065,0.091 -0.2996,0.3223 -0.5157,0.413 -0.054,0.023 0.03,0.2318 0.1423,0.2603 0.074,0.023 0.1672,-0.017 0.2163,0.023 0.1769,0.1528 0.3292,0.3059 0.5453,0.3512 v 0.068 c 0.1475,0.074 0.2555,-0.1016 0.2949,-0.2599 0.025,-0.1019 -0.02,-0.215 -0.049,-0.3111 -0.078,-0.249 0.113,-0.566 -0.044,-0.7583 -0.048,-0.059 -0.1218,-0.1298 -0.2164,-0.1283 z m 1.2329,0.099 c -0.1621,0 -0.3637,0.079 -0.3981,0.2263 -0.053,0.2433 -0.2158,0.2826 -0.3043,0.4524 -0.088,0.1754 0.1965,0.119 0.2752,0.2094 0.1571,0.1808 0.1866,0.4298 0.2997,0.6392 0.069,0.1302 0.3487,0.2546 0.4224,0.051 0.059,-0.1753 -0.074,-0.3791 -0.015,-0.5601 0.034,-0.1075 0.094,-0.2207 0.1181,-0.3225 0.039,-0.1923 0.2258,-0.4128 0.113,-0.5315 -0.1819,-0.1924 -0.4862,-0.051 -0.7369,-0.074 z m 12.9011,0.1586 c -0.1021,3e-4 -0.2086,0.018 -0.3161,0.051 -0.1228,0.033 -0.2462,0.074 -0.2905,0.1921 -0.049,0.1301 0.012,0.2598 0.049,0.3956 0.074,0.2716 -0.035,0.5038 -0.1522,0.7583 -0.094,0.198 0.1572,0.3451 0.167,0.5601 0.078,-0.039 0.064,0.1643 0.1522,0.085 0.1375,-0.1245 0.2751,0.062 0.3684,-0.017 0.074,-0.062 0.1524,-0.136 0.2163,-0.2381 0.012,-0.023 0.064,0 0.1033,0 0,-0.1415 0.054,-0.2887 0.1032,-0.3735 0.113,-0.1867 0.2309,-0.3278 0.2752,-0.5542 0.034,-0.1753 -0.025,-0.3396 -0.094,-0.4697 -0.053,-0.1075 -0.1426,-0.2375 -0.2213,-0.2884 -0.1081,-0.067 -0.2311,-0.096 -0.362,-0.096 z m -3.7228,0.403 c -0.028,0 -0.054,0.015 -0.067,0.055 -0.012,0.029 10e-5,0.074 -0.012,0.085 -0.074,0.068 -0.1719,0.056 -0.2604,0.051 v 0.079 c -0.015,0.017 -0.064,10e-5 -0.064,0.014 -0.034,0.091 -0.025,0.2156 0.069,0.2495 0.1375,0.045 0.2946,0.014 0.4273,0.068 0.1031,0.039 0.2948,-3e-4 0.3636,-0.1532 0.1228,-0.3052 -0.2009,-0.3056 -0.378,-0.4242 h -4e-4 c -0.02,-0.014 -0.048,-0.023 -0.074,-0.021 z m 1.9531,0.013 -0.1483,5e-4 0.034,0.1808 c -0.089,0 -0.1968,-0.051 -0.2607,0.045 -0.083,0.1301 -0.1372,0.2662 -0.1763,0.4302 -0.035,0.1359 -0.1969,0.2206 -0.2361,0.3621 -0.039,0.1357 -0.049,0.3112 0,0.4243 0.069,0.1415 0.1326,0.2771 0.28,0.1753 0.2409,-0.1753 0.4718,-0.3734 0.5062,-0.7354 0.1524,0.074 0.1919,-0.1075 0.2411,-0.1922 0.053,-0.1132 0.1419,-0.3169 0.02,-0.4584 -0.078,-0.096 -0.2849,-0.023 -0.2603,-0.2321 z m -3.8305,0.2563 -6e-4,0.01 c -0.067,3e-4 -0.1305,0.032 -0.1748,0.1007 -0.029,0.051 -0.029,0.1695 0,0.1922 0.1426,0.1075 0.034,0.2824 0.1571,0.4069 0.1474,0.1528 0.074,0.4755 0.034,0.7075 -0.015,0.062 -0.1718,0.1752 -0.1423,0.2657 0.064,0.2207 0.28,0.2607 0.4371,0.402 0.044,-0.2263 0.2997,-0.153 0.3685,-0.3171 0.1327,-0.3112 0.034,-0.611 0.246,-0.9109 0.1082,-0.1528 -0.2509,-0.4071 -0.4425,-0.526 -0.118,-0.073 -0.1865,-0.2543 -0.329,-0.2939 -0.086,-0.021 -0.1,-0.024 -0.087,-0.018 -0.022,0 -0.046,-0.014 -0.067,-0.014 z m -6.0231,5e-4 5e-4,0.01 h -0.207 l 0.1181,0.045 c -0.177,0.074 -0.3245,0.1751 -0.4376,0.2939 -0.074,0.085 -0.1668,0.2717 -0.1472,0.4075 0.039,0.2827 0.324,0.4579 0.2356,0.7972 0.069,0.017 0.1472,0.051 0.1768,0.096 0.1229,0.1923 0.2656,0.2601 0.4376,0.2771 0.1328,0.017 0.2701,-0.034 0.3636,-0.1018 0.118,-0.085 0.2114,-0.2888 0.3147,-0.4189 0.1524,-0.198 0.2553,-0.5653 0.039,-0.769 -0.1818,-0.1698 -0.501,-0.1754 -0.6238,-0.4865 -0.047,-0.116 -0.154,-0.1431 -0.2702,-0.1463 z m -4.0819,0.049 -5e-4,9e-4 c -0.1382,0 -0.3049,0.041 -0.4431,0.08 -0.094,0.029 -0.029,0.1925 -0.034,0.283 -0.029,0.3337 -0.2064,0.6675 -0.1719,1.0126 0.015,0.1245 0.1033,0.2601 0.162,0.4016 0.049,0.1244 0.1672,0.091 0.2361,0.1018 0.3291,0.045 0.6782,0.1583 0.9829,-0.034 0.025,-0.014 0,-0.1016 0.015,-0.1581 0,-0.034 0.034,-0.056 0.069,-0.045 0,-0.1019 -0.015,-0.2263 0.078,-0.2543 0.1424,-0.039 0.3338,0.051 0.4026,-0.1077 0.1082,-0.2547 -0.2112,-0.3906 -0.2652,-0.6169 -0.03,-0.1132 -0.069,-0.1927 -0.1477,-0.2376 -0.2261,-0.1246 -0.4621,-0.1751 -0.6783,-0.3616 -0.051,-0.044 -0.1225,-0.062 -0.2049,-0.064 z m 6.5476,0 0.01,0.013 h -0.041 l 0.039,0.045 4e-4,4e-4 c -0.049,0 -0.1082,-0.023 -0.1476,0 -0.118,0.091 -0.078,0.2825 -0.2109,0.3844 -0.1769,0.1301 -0.044,0.4415 0,0.6563 0.03,0.1189 0.2255,0.034 0.2943,0.091 0.1524,0.1132 0.2064,0.8313 0.4668,0.4352 0.029,-0.045 0.083,-0.1242 0.054,-0.2089 0.2212,-0.1075 0.2504,-0.3114 0.2653,-0.5715 0.1228,0.068 0.094,-0.1529 0.1917,-0.1358 v -0.1299 c 0.039,0.014 0.074,-0.014 0.069,-0.039 -0.088,-0.56 -0.649,-0.2091 -0.9439,-0.4525 -0.015,-0.014 0,-0.056 -0.012,-0.074 -0.012,-0.014 -0.02,-0.014 -0.033,-0.014 z m 10.6088,0.1328 c -0.086,10e-5 -0.1725,0.026 -0.2638,0.083 -0.084,0.051 -0.029,0.1811 0.02,0.2884 0.064,0.1359 -0.1331,0.2659 -0.055,0.3789 0.1033,0.1471 0.2114,0.3402 0.408,0.3231 v 0.1299 c 0.074,-0.034 0.079,0.074 0.1032,0.1017 0.094,0.1415 0.1179,0.2885 0.28,0.2885 0.1672,0 0.1328,-0.2659 0.2065,-0.3735 0.069,-0.091 0.1963,-0.091 0.2504,-0.2316 0.083,-0.2038 0.1673,-0.5374 -0.039,-0.5997 h -4e-4 c -0.3261,-0.098 -0.6047,-0.3912 -0.9099,-0.3887 z m -8.9146,0.075 c -0.029,0 -0.056,-10e-5 -0.086,0.014 -0.1623,0.045 -0.3395,-0.014 -0.4327,0.13 -0.069,0.1074 -0.069,0.3564 0,0.4356 0.1032,0.1189 0.074,0.2884 0.088,0.4243 0.015,0.1075 -0.094,0.096 -0.1175,0.1754 -0.059,0.2035 -0.074,0.4132 -0.059,0.6168 0,0.017 0.078,0.062 0.1032,0.068 0.2015,0.056 0.432,-0.1809 0.614,0.014 0.029,0.034 0.094,2e-4 0.1032,-0.039 0.049,-0.1471 0.1281,-0.1814 0.2214,-0.2776 0.123,-0.1188 -2e-4,-0.3502 0.069,-0.4974 0.078,-0.164 0.1131,-0.3169 0.098,-0.4979 -0.069,0.014 -0.088,-0.079 -0.1472,-0.1023 -0.1622,-0.056 -0.1231,-0.3451 -0.241,-0.3961 -0.059,-0.026 -0.1346,-0.056 -0.2183,-0.059 z m 0.9381,0.032 c -0.012,-2e-4 -0.015,0 -0.021,5e-4 l -0.039,0.1299 h -0.079 c 0.015,0.1302 -0.034,0.2947 0.02,0.3794 0.098,0.1414 0.2065,0.2433 0.2065,0.4584 0,0.079 0.1713,0.051 0.2697,0.033 0.1178,-0.017 0.064,-0.2661 0.2311,-0.2548 -0.012,-0.1754 0.055,-0.4467 -0.049,-0.4807 -0.1904,-0.065 -0.3205,-0.2641 -0.5384,-0.2662 z m 2.3402,0.2509 c -0.1106,0 -0.2005,0.1276 -0.2445,0.242 -0.078,0.215 0.1281,0.3448 0.2263,0.5088 0.034,0.051 0.1328,-0.045 0.1673,-0.017 0.1917,0.164 0.3587,0.3112 0.5849,0.2717 0.029,0 0.1373,10e-5 0.1131,-0.1131 0.1719,0.023 0.3097,10e-5 0.3981,-0.2094 0,-0.017 0.078,-10e-5 0.1033,-0.051 0.083,-0.215 0.049,-0.4582 -0.1527,-0.4865 l -0.1175,-0.045 c -0.3341,0.079 -0.6735,0.1017 -0.9978,-0.079 -0.028,-0.014 -0.053,-0.021 -0.079,-0.021 z m -5.8106,0.098 4e-4,6e-4 c 0,-10e-5 0,-6e-4 0,-6e-4 z m 4e-4,6e-4 c -0.012,10e-5 -0.025,0 -0.031,0.013 h -4e-4 c -0.167,0.1188 -0.3539,0.3336 -0.2949,0.5147 0.083,0.2433 0.3538,0.3168 0.5013,0.1244 0.054,-0.068 0.049,-0.2322 0,-0.3284 -0.049,-0.1075 -0.098,-0.1976 -0.1472,-0.3107 0,0 -0.015,-0.013 -0.028,-0.013 z m -3.5519,0.041 v 0 c -0.028,0 -0.055,5e-4 -0.082,0 0.015,0.017 0.029,0.029 0.039,0.045 -0.1517,-0.028 -0.1422,0.1808 -0.2307,0.2035 -0.069,0.014 -0.1375,0.029 -0.1818,0.068 -0.094,0.091 -0.1375,0.2438 -0.034,0.323 0.118,0.091 0.2754,0.068 0.4081,0.1521 0.1278,0.085 0.275,0.3058 0.3536,0.1927 0.1081,-0.164 0.2358,-0.4187 0.088,-0.6165 -0.034,-0.045 -0.088,-0.097 -0.1275,-0.1531 -0.02,-0.029 0,-0.096 -0.015,-0.1186 -0.055,-0.072 -0.1356,-0.096 -0.2179,-0.099 z m 12.2986,0.2128 v 0.01 c -0.018,3e-4 -0.038,0 -0.06,0 -0.1917,0.045 -0.2607,0.2773 -0.3047,0.4129 -0.069,0.2207 -0.1429,0.4578 -0.2312,0.6842 0.4078,0 0.8501,0.062 1.2087,-0.096 0.1524,-0.068 -0.1427,-0.351 -0.1818,-0.6055 -0.012,-0.056 -0.083,-0.034 -0.098,-0.056 -0.102,-0.1486 -0.1525,-0.3484 -0.3328,-0.3467 z m 1.8814,0.4391 c -0.033,0 -0.062,0.014 -0.089,0.039 -0.1621,0.1471 -0.1082,0.464 -0.2851,0.6337 0.2899,0.1019 0.5798,-0.056 0.8452,0.091 0.015,-0.068 0.1131,-0.017 0.1032,-0.085 -0.025,-0.1922 -0.059,-0.3906 -0.1921,-0.5206 -0.034,-0.034 -0.1425,0.014 -0.167,-0.023 -0.064,-0.089 -0.1442,-0.1387 -0.2153,-0.1358 z m -18.9188,0.9237 v 23.8987 h 22.6341 v -23.8987 z m 10.1035,3.5766 h 2.4267 v 5.5691 h -2.4267 z m 0,9.3883 h 2.4267 v 5.5691 h -2.4267 z" /></g></g></svg>
