<?xml version="1.0" encoding="UTF-8" standalone="no"?>
<!-- Created with Inkscape (http://www.inkscape.org/) -->

<svg
   xmlns:dc="http://purl.org/dc/elements/1.1/"
   xmlns:cc="http://creativecommons.org/ns#"
   xmlns:rdf="http://www.w3.org/1999/02/22-rdf-syntax-ns#"
   xmlns:svg="http://www.w3.org/2000/svg"
   xmlns="http://www.w3.org/2000/svg"
   xmlns:sodipodi="http://sodipodi.sourceforge.net/DTD/sodipodi-0.dtd"
   xmlns:inkscape="http://www.inkscape.org/namespaces/inkscape"
   width="198.4286mm"
   height="198.4286mm"
   viewBox="0 0 198.4286 198.4286"
   version="1.1"
   id="svg2405"
   inkscape:version="0.92.3 (2405546, 2018-03-11)"
   sodipodi:docname="MUTCD_W3-4 (1961 final).svg">
  <defs
     id="defs2399" />
  <sodipodi:namedview
     id="base"
     pagecolor="#ffffff"
     bordercolor="#666666"
     borderopacity="1.0"
     inkscape:pageopacity="0.0"
     inkscape:pageshadow="2"
     inkscape:zoom="0.49497475"
     inkscape:cx="670.49352"
     inkscape:cy="404.72366"
     inkscape:document-units="mm"
     inkscape:current-layer="layer1"
     showgrid="false"
     fit-margin-top="0"
     fit-margin-left="0"
     fit-margin-right="0"
     fit-margin-bottom="0"
     inkscape:window-width="1366"
     inkscape:window-height="745"
     inkscape:window-x="-8"
     inkscape:window-y="-8"
     inkscape:window-maximized="1" />
  <metadata
     id="metadata2402">
    <rdf:RDF>
      <cc:Work
         rdf:about="">
        <dc:format>image/svg+xml</dc:format>
        <dc:type
           rdf:resource="http://purl.org/dc/dcmitype/StillImage" />
        <dc:title></dc:title>
      </cc:Work>
    </rdf:RDF>
  </metadata>
  <g
     inkscape:label="Layer 1"
     inkscape:groupmode="layer"
     id="layer1"
     transform="translate(34.10697,-132.67836)">
    <rect
       style="fill:#ffd116;fill-opacity:1;stroke:none;stroke-width:0.26458332;stroke-miterlimit:4;stroke-dasharray:none;stroke-dashoffset:0;stroke-opacity:1"
       id="rect2950"
       width="148.04266"
       height="148.04266"
       x="43.913704"
       y="-284.03204"
       rx="13.229167"
       ry="13.229167"
       transform="rotate(135)" />
    <rect
       style="fill:#000000;fill-opacity:1;stroke:none;stroke-width:0.26458332;stroke-miterlimit:4;stroke-dasharray:none;stroke-dashoffset:0;stroke-opacity:1"
       id="rect2950-7"
       width="145.40312"
       height="145.40312"
       x="45.233475"
       y="-282.71228"
       rx="11.90626"
       ry="11.90626"
       transform="rotate(135)" />
    <rect
       style="fill:#ffd116;fill-opacity:1;stroke:none;stroke-width:0.26458329;stroke-miterlimit:4;stroke-dasharray:none;stroke-dashoffset:0;stroke-opacity:1"
       id="rect2950-7-6"
       width="137.46556"
       height="137.46556"
       x="49.202255"
       y="-278.7435"
       rx="7.9375"
       ry="7.9375"
       transform="rotate(135)" />
    <path
       inkscape:connector-curvature="0"
       id="path3027"
       style="font-style:normal;font-variant:normal;font-weight:normal;font-stretch:normal;font-size:medium;line-height:1.25;font-family:'Roadgeek 2005 Series C';-inkscape-font-specification:'Roadgeek 2005 Series C';letter-spacing:0px;word-spacing:0px;fill:#000000;fill-opacity:1;stroke:none;stroke-width:0.26458341"
       d="M 20.985294,228.37328 V 202.82993 H 17.287227 L 12.559801,217.1647 7.7942512,202.82993 H 4.1343087 v 25.54335 H 7.7942512 V 214.0385 l 4.7655498,14.33478 4.727426,-14.33478 v 14.33478 z" />
    <path
       inkscape:connector-curvature="0"
       id="path3029"
       style="font-style:normal;font-variant:normal;font-weight:normal;font-stretch:normal;font-size:medium;line-height:1.25;font-family:'Roadgeek 2005 Series C';-inkscape-font-specification:'Roadgeek 2005 Series C';letter-spacing:0px;word-spacing:0px;fill:#000000;fill-opacity:1;stroke:none;stroke-width:0.26458341"
       d="m 39.547707,228.37328 v -3.5837 h -9.340479 v -8.42549 h 5.299292 v -3.50745 h -5.299292 v -6.44302 h 8.349244 v -3.58369 H 26.547286 v 25.54335 z" />
    <path
       inkscape:connector-curvature="0"
       id="path3031"
       style="font-style:normal;font-variant:normal;font-weight:normal;font-stretch:normal;font-size:medium;line-height:1.25;font-family:'Roadgeek 2005 Series C';-inkscape-font-specification:'Roadgeek 2005 Series C';letter-spacing:0px;word-spacing:0px;fill:#000000;fill-opacity:1;stroke:none;stroke-width:0.26458341"
       d="m 58.157179,228.37328 -3.659943,-12.54293 c 2.401837,-0.91499 3.659943,-3.1262 3.659943,-6.17616 0,-4.11743 -2.706833,-6.82426 -6.709895,-6.82426 h -7.62488 v 25.54335 h 3.659942 v -12.00919 h 3.507445 l 3.393072,12.00919 z m -3.583694,-18.71909 c 0,2.05872 -1.181857,3.20245 -3.316823,3.20245 h -3.774316 v -6.44302 h 3.774316 c 1.982469,0 3.316823,1.25811 3.316823,3.24057 z" />
    <path
       inkscape:connector-curvature="0"
       id="path3033"
       style="font-style:normal;font-variant:normal;font-weight:normal;font-stretch:normal;font-size:medium;line-height:1.25;font-family:'Roadgeek 2005 Series C';-inkscape-font-specification:'Roadgeek 2005 Series C';letter-spacing:0px;word-spacing:0px;fill:#000000;fill-opacity:1;stroke:none;stroke-width:0.26458341"
       d="m 76.23887,221.28214 v -5.26117 h -6.557397 v 3.58369 h 2.897454 v 1.67748 c 0,2.70683 -0.914985,3.96493 -2.783081,3.96493 -1.982469,0 -3.240574,-1.37247 -3.774316,-3.85056 -0.343119,-1.98247 -0.533741,-4.23181 -0.533741,-6.36677 0,-3.04996 0.457492,-5.90929 1.143732,-7.16739 0.648114,-1.25811 1.639349,-1.90622 2.897454,-1.90622 1.791847,0 2.935579,1.18185 3.049952,2.89745 h 3.659943 c -0.190622,-3.77431 -2.973704,-6.48115 -6.633646,-6.48115 -2.973703,0 -5.566163,1.98247 -6.443024,4.65118 -0.914985,2.43996 -1.181856,5.03242 -1.181856,8.61612 0,3.31682 0.533741,6.90051 1.334354,8.80673 1.258105,2.85933 3.507445,4.38431 6.557397,4.38431 2.592459,0 4.651177,-1.37248 5.642411,-3.5837 0.533742,-1.06748 0.724364,-2.17309 0.724364,-3.96493 z" />
    <path
       inkscape:connector-curvature="0"
       id="path3035"
       style="font-style:normal;font-variant:normal;font-weight:normal;font-stretch:normal;font-size:medium;line-height:1.25;font-family:'Roadgeek 2005 Series C';-inkscape-font-specification:'Roadgeek 2005 Series C';letter-spacing:0px;word-spacing:0px;fill:#000000;fill-opacity:1;stroke:none;stroke-width:0.26458341"
       d="m 84.934807,228.37328 v -25.54335 h -3.583694 v 25.54335 z" />
    <path
       inkscape:connector-curvature="0"
       id="path3037"
       style="font-style:normal;font-variant:normal;font-weight:normal;font-stretch:normal;font-size:medium;line-height:1.25;font-family:'Roadgeek 2005 Series C';-inkscape-font-specification:'Roadgeek 2005 Series C';letter-spacing:0px;word-spacing:0px;fill:#000000;fill-opacity:1;stroke:none;stroke-width:0.26458341"
       d="m 104.91914,228.37328 v -25.54335 h -3.65994 v 15.32601 l -7.014891,-15.32601 h -3.659942 v 25.54335 h 3.659942 v -17.11786 l 7.891751,17.11786 z" />
    <path
       inkscape:connector-curvature="0"
       id="path3039"
       style="font-style:normal;font-variant:normal;font-weight:normal;font-stretch:normal;font-size:medium;line-height:1.25;font-family:'Roadgeek 2005 Series C';-inkscape-font-specification:'Roadgeek 2005 Series C';letter-spacing:0px;word-spacing:0px;fill:#000000;fill-opacity:1;stroke:none;stroke-width:0.26458341"
       d="m 124.26668,221.28214 v -5.26117 h -6.5574 v 3.58369 h 2.89746 v 1.67748 c 0,2.70683 -0.91499,3.96493 -2.78308,3.96493 -1.98247,0 -3.24058,-1.37247 -3.77432,-3.85056 -0.34312,-1.98247 -0.53374,-4.23181 -0.53374,-6.36677 0,-3.04996 0.45749,-5.90929 1.14373,-7.16739 0.64811,-1.25811 1.63935,-1.90622 2.89745,-1.90622 1.79185,0 2.93558,1.18185 3.04996,2.89745 h 3.65994 c -0.19062,-3.77431 -2.9737,-6.48115 -6.63365,-6.48115 -2.9737,0 -5.56616,1.98247 -6.44302,4.65118 -0.91499,2.43996 -1.18186,5.03242 -1.18186,8.61612 0,3.31682 0.53374,6.90051 1.33436,8.80673 1.2581,2.85933 3.50744,4.38431 6.55739,4.38431 2.59246,0 4.65118,-1.37248 5.64242,-3.5837 0.53374,-1.06748 0.72436,-2.17309 0.72436,-3.96493 z" />
    <path
       inkscape:connector-curvature="0"
       id="path3012"
       style="font-style:normal;font-variant:normal;font-weight:normal;font-stretch:normal;font-size:medium;line-height:1.25;font-family:'Roadgeek 2005 Series C';-inkscape-font-specification:'Roadgeek 2005 Series C';letter-spacing:0px;word-spacing:0px;fill:#000000;fill-opacity:1;stroke:none;stroke-width:0.26458341"
       d="m 22.584432,245.91045 v -3.39307 H 9.5840111 v 3.39307 h 4.6511769 v 22.15028 h 3.698067 v -22.15028 z" />
    <path
       inkscape:connector-curvature="0"
       id="path3014"
       style="font-style:normal;font-variant:normal;font-weight:normal;font-stretch:normal;font-size:medium;line-height:1.25;font-family:'Roadgeek 2005 Series C';-inkscape-font-specification:'Roadgeek 2005 Series C';letter-spacing:0px;word-spacing:0px;fill:#000000;fill-opacity:1;stroke:none;stroke-width:0.26458341"
       d="M 40.42129,268.06073 36.761348,255.5178 c 2.401837,-0.91498 3.659942,-3.1262 3.659942,-6.17615 0,-4.11744 -2.706832,-6.82427 -6.709894,-6.82427 h -7.62488 v 25.54335 h 3.659942 v -12.00919 h 3.507445 l 3.393072,12.00919 z m -3.583693,-18.71908 c 0,2.05872 -1.181857,3.20245 -3.316823,3.20245 h -3.774316 v -6.44303 h 3.774316 c 1.982469,0 3.316823,1.25811 3.316823,3.24058 z" />
    <path
       inkscape:connector-curvature="0"
       id="path3016"
       style="font-style:normal;font-variant:normal;font-weight:normal;font-stretch:normal;font-size:medium;line-height:1.25;font-family:'Roadgeek 2005 Series C';-inkscape-font-specification:'Roadgeek 2005 Series C';letter-spacing:0px;word-spacing:0px;fill:#000000;fill-opacity:1;stroke:none;stroke-width:0.26458341"
       d="m 59.036722,268.06073 -6.366775,-25.54335 h -3.583693 l -6.366775,25.54335 h 3.698066 l 1.677474,-6.97677 h 5.489914 l 1.791847,6.97677 z m -6.366775,-10.56046 h -3.659942 l 1.791847,-7.35801 z" />
    <path
       inkscape:connector-curvature="0"
       id="path3018"
       style="font-style:normal;font-variant:normal;font-weight:normal;font-stretch:normal;font-size:medium;line-height:1.25;font-family:'Roadgeek 2005 Series C';-inkscape-font-specification:'Roadgeek 2005 Series C';letter-spacing:0px;word-spacing:0px;fill:#000000;fill-opacity:1;stroke:none;stroke-width:0.26458341"
       d="m 75.57318,246.10107 v -3.58369 H 62.572759 v 25.54335 h 3.659942 v -12.00919 h 5.10867 v -3.50744 h -5.10867 v -6.44303 z" />
    <path
       inkscape:connector-curvature="0"
       id="path3020"
       style="font-style:normal;font-variant:normal;font-weight:normal;font-stretch:normal;font-size:medium;line-height:1.25;font-family:'Roadgeek 2005 Series C';-inkscape-font-specification:'Roadgeek 2005 Series C';letter-spacing:0px;word-spacing:0px;fill:#000000;fill-opacity:1;stroke:none;stroke-width:0.26458341"
       d="m 92.178145,246.10107 v -3.58369 H 79.177724 v 25.54335 h 3.659943 v -12.00919 h 5.108669 v -3.50744 h -5.108669 v -6.44303 z" />
    <path
       inkscape:connector-curvature="0"
       id="path3022"
       style="font-style:normal;font-variant:normal;font-weight:normal;font-stretch:normal;font-size:medium;line-height:1.25;font-family:'Roadgeek 2005 Series C';-inkscape-font-specification:'Roadgeek 2005 Series C';letter-spacing:0px;word-spacing:0px;fill:#000000;fill-opacity:1;stroke:none;stroke-width:0.26458341"
       d="m 99.366383,268.06073 v -25.54335 h -3.583694 v 25.54335 z" />
    <path
       inkscape:connector-curvature="0"
       id="path3024"
       style="font-style:normal;font-variant:normal;font-weight:normal;font-stretch:normal;font-size:medium;line-height:1.25;font-family:'Roadgeek 2005 Series C';-inkscape-font-specification:'Roadgeek 2005 Series C';letter-spacing:0px;word-spacing:0px;fill:#000000;fill-opacity:1;stroke:none;stroke-width:0.26458341"
       d="m 118.81698,249.34165 c -0.26687,-2.32559 -0.64812,-3.4312 -1.60123,-4.6893 -1.18186,-1.67748 -2.9737,-2.59246 -5.03242,-2.59246 -5.03242,0 -7.62488,4.3843 -7.62488,12.6573 0,9.41673 2.43996,13.80103 7.89175,13.80103 3.58369,0 6.29053,-3.04995 6.36678,-7.28176 h -3.65995 c 0,1.90622 -0.57186,3.69807 -2.70683,3.69807 -3.1262,0 -4.38431,-2.9737 -4.38431,-10.33171 0,-6.63365 1.06749,-8.95924 4.04119,-8.95924 1.67748,0 2.66871,1.18186 3.04995,3.69807 z" />
    <flowRoot
       xml:space="preserve"
       id="flowRoot3004"
       style="font-style:normal;font-variant:normal;font-weight:normal;font-stretch:normal;font-size:20px;line-height:1.25;font-family:'Roadgeek 2005 Series C';-inkscape-font-specification:'Roadgeek 2005 Series C';letter-spacing:0px;word-spacing:0px;fill:#000000;fill-opacity:1;stroke:none"
       transform="matrix(0.26458333,0,0,0.26458333,-35.018256,93.893122)"><flowRegion
         id="flowRegion3006"><rect
           id="rect3008"
           width="271.42856"
           height="25.714285"
           x="882.85712"
           y="331.42905" /></flowRegion><flowPara
         id="flowPara3010"></flowPara></flowRoot>  </g>
</svg>
