<?xml version="1.0" encoding="UTF-8"?>
<svg id="W10-14P" xmlns="http://www.w3.org/2000/svg" width="30in" height="24in" viewBox="0 0 2160 1728">
  <rect width="2160" height="1728" rx="108" ry="108" fill="#fcd116"/>
  <path d="M2052,27H108c-44.66,0-81,36.34-81,81v1512c0,44.66,36.34,81,81,81h1944c44.66,0,81-36.34,81-81V108c0-44.66-36.34-81-81-81ZM2088,1620c0,19.85-16.15,36-36,36H108c-19.85,0-36-16.15-36-36V108c0-19.85,16.15-36,36-36h1944c19.85,0,36,16.15,36,36v1512Z"/>
  <g id="ROUGH">
    <path d="M536.23,550.76h-49.19v169.25h-51.66v-360h107.15c56.48,0,94.55,37.89,94.55,95.99,0,42.93-17.69,74.52-51.71,87.17l51.66,176.85h-52.88l-47.92-169.25ZM487.04,410.54v90.94h52.92c30.33,0,46.67-16.43,46.67-45.5s-18.9-45.45-46.62-45.45h-52.97Z"/>
    <path d="M691.07,539.24c0-188.51,87.43-185.49,106.83-185.49s105.66-2.88,105.66,185.63-86.26,186.89-105.66,186.89-106.83,2.97-106.83-187.02ZM797.31,404.24c-10.26,0-56.65-2.12-56.65,135.27s46.4,136.26,56.65,136.26,56.61,2.12,56.61-136.26-46.35-135.27-56.61-135.27Z"/>
    <path d="M975.55,615.38v-255.38h51.66v258.93c0,33.89,19.8,56.88,50.4,56.88,27.72,0,47.92-22.73,47.92-56.88v-258.93h51.71v256.14c0,81.9-63.27,110.16-99.63,110.16-33.26,0-102.06-21.64-102.06-110.93Z"/>
    <path d="M1360.89,726.3c-32.76,0-111.65-6.07-111.65-185.67s75.02-186.89,107.82-186.89c52.02,0,91.35,37.85,93.87,90.9h-52.02c-1.26-24.03-17.73-40.46-43.11-40.46-17.37,0-57.06,5.45-57.06,136.49s43.47,135.14,60.84,135.14c26.64,0,39.33-17.55,39.33-55.58v-23.99h-40.59v-50.58h92.61v74.52c0,90.09-59.31,106.11-90.05,106.11Z"/>
    <path d="M1672.96,557.06h-98.37v162.95h-51.66v-360h51.66v146.52h98.33v-146.52h51.71v360h-51.66v-162.95Z"/>
  </g>
  <g id="CROSSING">
    <path d="M318.88,1103.98c-5-35.37-18.99-51.8-43.11-51.8-41.85,0-57.11,32.85-57.11,126.27,0,103.59,17.78,145.26,62.19,145.26,30.47,0,38.03-25.29,38.03-51.8h52.02c-1.26,59.36-39.29,102.33-90.05,102.33-77.36,0-111.65-61.88-111.65-194.54,0-116.15,36.77-177.98,107.82-177.98,65.97,0,92.12,60.17,93.87,102.24h-52.02Z"/>
    <path d="M529.35,1198.75h-49.19v169.25h-51.66v-360h107.15c56.48,0,94.55,37.89,94.55,95.99,0,42.93-17.69,74.52-51.71,87.16l51.66,176.85h-52.88l-47.93-169.25ZM480.17,1058.53v90.95h52.92c30.33,0,46.67-16.43,46.67-45.5s-18.9-45.45-46.62-45.45h-52.97Z"/>
    <path d="M673.41,1187.23c0-188.51,87.44-185.49,106.83-185.49s105.66-2.88,105.66,185.63-86.27,186.89-105.66,186.89-106.83,2.97-106.83-187.02ZM779.65,1052.23c-10.26,0-56.66-2.12-56.66,135.27s46.4,136.26,56.66,136.26,56.61,2.12,56.61-136.26-46.35-135.27-56.61-135.27Z"/>
    <path d="M1030.59,1323.85c27.9,0,50.72-25.29,50.72-54.36-.04-76.68-134.42-76.5-134.42-174.38,0-51.8,40.59-93.42,92.57-93.42s90.09,39.11,91.35,93.47h-49.55c-1.26-25.24-19.04-41.67-41.85-41.67-24.12,0-43.11,17.64-43.11,41.62,0,21.56,13.55,30.15,30.33,40.68,48.69,29.39,104.13,64.84,104.13,133.74,0,58.27-44.42,104.85-100.22,104.85-63.41,0-101.43-53.64-101.43-112.5h50.81c0,30.64,15.17,61.96,50.67,61.96Z"/>
    <path d="M1266.85,1323.85c27.9,0,50.72-25.29,50.72-54.36-.04-76.68-134.42-76.5-134.42-174.38,0-51.8,40.59-93.42,92.57-93.42s90.09,39.11,91.35,93.47h-49.55c-1.26-25.24-19.04-41.67-41.85-41.67-24.12,0-43.11,17.64-43.11,41.62,0,21.56,13.55,30.15,30.33,40.68,48.69,29.39,104.13,64.84,104.13,133.74,0,58.27-44.42,104.85-100.22,104.85-63.41,0-101.43-53.64-101.43-112.5h50.81c0,30.64,15.17,61.96,50.67,61.96Z"/>
    <path d="M1416.03,1008h50.4v360h-50.4v-360Z"/>
    <path d="M1581.46,1126.75v241.25h-51.66v-360h51.66l98.33,216v-216h51.71v360h-39.06l-110.98-241.25Z"/>
    <path d="M1900.75,1374.3c-32.76,0-111.65-6.08-111.65-185.67s75.02-186.89,107.82-186.89c52.02,0,91.35,37.85,93.87,90.9h-52.02c-1.26-24.03-17.73-40.45-43.11-40.45-17.37,0-57.06,5.44-57.06,136.49s43.47,135.13,60.84,135.13c26.64,0,39.33-17.55,39.33-55.57v-23.99h-40.59v-50.58h92.61v74.52c0,90.09-59.31,106.11-90.05,106.11Z"/>
  </g>
</svg>