<svg width="144.272" height="144.279" viewBox="0 0 38.172 38.174" xmlns="http://www.w3.org/2000/svg">
    <defs>
        <clipPath clipPathUnits="userSpaceOnUse" id="a">
            <path d="M68.182 590.329h502.636V743H68.182Z" transform="translate(-516.21 -608.662)"/>
        </clipPath>
    </defs>
    <path d="M0 0a5.034 5.034 0 0 0-3.582 1.484l-48.913 48.913a5.036 5.036 0 0 0-1.483 3.582c0 1.354.527 2.625 1.483 3.583l48.913 48.913A5.034 5.034 0 0 0 0 107.959a5.033 5.033 0 0 0 3.583-1.484l48.913-48.913a5.073 5.073 0 0 0 0-7.165L3.583 1.484A5.033 5.033 0 0 0 0 0" style="fill:#fcd116;fill-opacity:1;fill-rule:nonzero;stroke:none" transform="matrix(.35278 0 0 -.35278 19.086 38.13)" clip-path="url(#a)"/>
    <path d="M0 0a5.16 5.16 0 0 1-3.671-1.52l-48.913-48.914a5.197 5.197 0 0 1 0-7.341l48.913-48.913A5.156 5.156 0 0 1 0-108.209c1.387 0 2.69.54 3.671 1.521l48.913 48.913a5.197 5.197 0 0 1 0 7.341L3.671-1.52A5.16 5.16 0 0 1 0 0m0-.25a4.926 4.926 0 0 0 3.494-1.447L52.407-50.61a4.94 4.94 0 0 0 0-6.988L3.494-106.512A4.93 4.93 0 0 0 0-107.959a4.93 4.93 0 0 0-3.494 1.447l-48.913 48.914a4.94 4.94 0 0 0 0 6.988L-3.494-1.697A4.926 4.926 0 0 0 0-.25" style="fill:#000;fill-opacity:1;fill-rule:nonzero;stroke:none" transform="matrix(.35278 0 0 -.35278 19.086 0)"/>
    <path d="M0 0a3.574 3.574 0 0 0 0 5.047L48.913 53.96a3.574 3.574 0 0 0 5.047 0l48.913-48.913a3.572 3.572 0 0 0 0-5.047L53.96-48.914a3.574 3.574 0 0 0-5.047 0z" style="fill:#000;fill-opacity:1;fill-rule:nonzero;stroke:none" transform="matrix(.35278 0 0 -.35278 .94 19.977)"/>
    <path d="M0 0a1.649 1.649 0 0 0 0 2.329l48.913 48.914a1.65 1.65 0 0 0 2.33 0l48.913-48.914a1.649 1.649 0 0 0 0-2.329L51.243-48.913a1.65 1.65 0 0 0-2.33 0z" style="fill:#fcd116;fill-opacity:1;fill-rule:nonzero;stroke:none" transform="matrix(.35278 0 0 -.35278 1.42 19.498)"/>
    <path d="M0 0v-1.541h-6.151c.087 3.46 1.609 5.174 2.874 6.181.97.774 1.767.975 1.767 1.907 0 .854-.693 1.548-1.546 1.548a1.548 1.548 0 0 1-1.547-1.548h-1.548c.038 1.735 1.357 3.082 3.095 3.082C-1.355 9.629 0 8.242 0 6.547 0 3.32-3.45 4.425-4.45 0Z" style="fill:#000;fill-opacity:1;fill-rule:nonzero;stroke:none" transform="matrix(.35278 0 0 -.35278 13.74 12.152)"/>
    <path d="M0 0c-.313 0-1.727.065-1.727-4.127 0-4.22 1.414-4.156 1.727-4.156.313 0 1.727-.064 1.727 4.156C1.727.065.313 0 0 0m-3.24-4.123c0 5.752 2.668 5.662 3.259 5.662.592 0 3.222.087 3.222-5.665 0-5.789-2.63-5.698-3.222-5.698-.591 0-3.259-.09-3.259 5.701" style="fill:#000;fill-opacity:1;fill-rule:nonzero;stroke:none" transform="matrix(.35278 0 0 -.35278 15.231 9.297)"/>
    <path d="m0 0-2.045-6.164L-4.09 0v-6.164h-1.581v10.98h1.581l2.045-6.164L0 4.816h1.581v-10.98H0Z" style="fill:#000;fill-opacity:1;fill-rule:nonzero;stroke:none" transform="matrix(.35278 0 0 -.35278 20.312 10.521)"/>
    <path d="M0 0h1.614c.922 0 1.423.576 1.423 1.578 0 .925-.582 1.542-1.422 1.542H0Zm0-1.503v-4.816h-1.576v10.98h3.268c1.731 0 2.884-1.238 2.884-3.083 0-2.004-1.039-3.081-2.884-3.081z" style="fill:#000;fill-opacity:1;fill-rule:nonzero;stroke:none" transform="matrix(.35278 0 0 -.35278 21.937 10.466)"/>
    <path d="M0 0h-3v-4.97h-1.576V6.01H-3V1.541h2.999V6.01h1.577V-4.97H0Z" style="fill:#000;fill-opacity:1;fill-rule:nonzero;stroke:none" transform="matrix(.35278 0 0 -.35278 25.63 10.942)"/>
    <path d="M0 0h-1.584v9.516h-2.009v1.464h5.602V9.516H0Z" style="fill:#000;fill-opacity:1;fill-rule:nonzero;stroke:none" transform="matrix(.35278 0 0 -.35278 14.2 18.506)"/>
    <path d="M0 0v-2.774h1.614c.925 0 1.423.501 1.423 1.388C3.037-.538 2.461 0 1.615 0Zm1.5-4.277H0v-5.162h-1.576v10.98h3.268c1.723 0 2.884-1.155 2.884-2.927 0-1.31-.54-2.273-1.577-2.659l1.575-5.394H2.962Z" style="fill:#000;fill-opacity:1;fill-rule:nonzero;stroke:none" transform="matrix(.35278 0 0 -.35278 15.79 15.176)"/>
    <path d="M0 0v7.789h1.576V-.108c0-1.034.603-1.735 1.537-1.735.845 0 1.461.693 1.461 1.735v7.897h1.577V-.023c0-2.498-1.929-3.36-3.038-3.36C2.098-3.383 0-2.723 0 0" style="fill:#000;fill-opacity:1;fill-rule:nonzero;stroke:none" transform="matrix(.35278 0 0 -.35278 17.8 17.38)"/>
    <path d="M0 0c-.152 1.079-.579 1.58-1.315 1.58-1.276 0-1.741-1.002-1.741-3.851 0-3.16.542-4.431 1.896-4.431.929 0 1.16.771 1.16 1.58h1.587C1.548-6.932.388-8.243-1.16-8.243c-2.359 0-3.405 1.887-3.405 5.933 0 3.542 1.122 5.428 3.289 5.428C.736 3.118 1.533 1.283 1.587 0z" style="fill:#000;fill-opacity:1;fill-rule:nonzero;stroke:none" transform="matrix(.35278 0 0 -.35278 22.045 15.665)"/>
    <path d="m0 0-1-1.847v-3.508h-1.576v10.98H-1V1.233l2.499 4.392h1.808L1.038 1.772l2.537-7.127H1.923Z" style="fill:#000;fill-opacity:1;fill-rule:nonzero;stroke:none" transform="matrix(.35278 0 0 -.35278 23.978 16.616)"/>
    <path d="M0 0c1.201-.753 3.001-1.809 3.001-3.976 0-1.777-1.354-3.197-3.056-3.197-1.934 0-3.095 1.636-3.095 3.429h1.548c0-.935.464-1.889 1.547-1.889.851 0 1.547.77 1.547 1.657 0 2.387-4.1 2.249-4.1 5.317 0 1.58 1.238 2.849 2.823 2.849 1.549 0 2.748-1.194 2.786-2.85H1.492C1.453 2.11.911 2.61.215 2.61c-.735 0-1.314-.537-1.314-1.269C-1.099.627-.721.452 0 0" style="fill:#000;fill-opacity:1;fill-rule:nonzero;stroke:none" transform="matrix(.35278 0 0 -.35278 8.084 21.853)"/>
    <path d="M0 0h1.614c.922 0 1.423.576 1.423 1.578 0 .925-.582 1.542-1.422 1.542H0Zm0-1.503v-4.816h-1.576v10.98h3.268c1.731 0 2.884-1.238 2.884-3.083 0-2.004-1.039-3.081-2.884-3.081z" style="fill:#000;fill-opacity:1;fill-rule:nonzero;stroke:none" transform="matrix(.35278 0 0 -.35278 10.094 22.087)"/>
    <path d="M0 0h5.177v-1.541H1.584v-2.774h2.278v-1.503H1.584V-9.44h4.018v-1.54H0Z" style="fill:#000;fill-opacity:1;fill-rule:nonzero;stroke:none" transform="matrix(.35278 0 0 -.35278 12.173 20.443)"/>
    <path d="M0 0h5.177v-1.541H1.584v-2.774h2.278v-1.503H1.584V-9.44h4.018v-1.54H0Z" style="fill:#000;fill-opacity:1;fill-rule:nonzero;stroke:none" transform="matrix(.35278 0 0 -.35278 14.544 20.443)"/>
    <path d="M0 0h-1.231v-7.897h1.095c1.285 0 1.942.561 1.942 3.891C1.806-.148.844 0 0 0m-2.807-9.439v10.98H.327c.669 0 3.018-.033 3.018-5.471 0-4.975-2.169-5.509-2.888-5.509z" style="fill:#000;fill-opacity:1;fill-rule:nonzero;stroke:none" transform="matrix(.35278 0 0 -.35278 17.906 20.986)"/>
    <path d="m0 0 4.153 7.755H.431V9.29H6.15v-.999L1.646-.192h4.505V-1.69H0Z" style="fill:#000;fill-opacity:1;fill-rule:nonzero;stroke:none" transform="matrix(.35278 0 0 -.35278 21.023 23.72)"/>
    <path d="M0 0c-.313 0-1.728.065-1.728-4.126 0-4.22 1.415-4.156 1.728-4.156.313 0 1.727-.064 1.727 4.156C1.727.065.313 0 0 0m-3.24-4.117C-3.24 1.632-.574 1.54.018 1.54c.591 0 3.222.088 3.222-5.662 0-5.79-2.631-5.7-3.222-5.7-.592 0-3.258-.09-3.258 5.705" style="fill:#000;fill-opacity:1;fill-rule:nonzero;stroke:none" transform="matrix(.35278 0 0 -.35278 24.685 20.918)"/>
    <path d="M0 0v-7.358h-1.576v10.98H0l2.999-6.588v6.588h1.577v-10.98H3.385Z" style="fill:#000;fill-opacity:1;fill-rule:nonzero;stroke:none" transform="matrix(.35278 0 0 -.35278 26.85 21.72)"/>
    <path d="M0 0h5.177v-1.541H1.584v-2.774h2.278v-1.503H1.584V-9.44h4.018v-1.54H0Z" style="fill:#000;fill-opacity:1;fill-rule:nonzero;stroke:none" transform="matrix(.35278 0 0 -.35278 28.975 20.443)"/>
    <path d="M0 0h1.584L.773 3.159Zm1.969-1.541H-.386l-.734-3.005h-1.584L.038 6.434h1.547l2.741-10.98H2.742Z" style="fill:#000;fill-opacity:1;fill-rule:nonzero;stroke:none" transform="matrix(.35278 0 0 -.35278 13.91 28.523)"/>
    <path d="M0 0h-3v-4.97h-1.576V6.01H-3V1.541h2.999V6.01h1.577V-4.97H0Z" style="fill:#000;fill-opacity:1;fill-rule:nonzero;stroke:none" transform="matrix(.35278 0 0 -.35278 17.375 28.373)"/>
    <path d="M0 0h5.177v-1.541H1.584v-2.774h2.278v-1.503H1.584V-9.44h4.018v-1.54H0Z" style="fill:#000;fill-opacity:1;fill-rule:nonzero;stroke:none" transform="matrix(.35278 0 0 -.35278 18.443 26.253)"/>
    <path d="M0 0h1.584L.773 3.159Zm1.969-1.541H-.386l-.734-3.005h-1.584L.038 6.434h1.547l2.741-10.98H2.742Z" style="fill:#000;fill-opacity:1;fill-rule:nonzero;stroke:none" transform="matrix(.35278 0 0 -.35278 21.582 28.523)"/>
    <path d="M0 0h-1.231v-7.897h1.095c1.285 0 1.942.561 1.942 3.891C1.806-.148.844 0 0 0m-2.807-9.439v10.98H.327c.669 0 3.018-.033 3.018-5.471 0-4.975-2.169-5.509-2.888-5.509z" style="fill:#000;fill-opacity:1;fill-rule:nonzero;stroke:none" transform="matrix(.35278 0 0 -.35278 24.424 26.797)"/>
</svg>
