<?xml version="1.0" encoding="UTF-8" standalone="no"?>
<!-- Created with Inkscape (http://www.inkscape.org/) -->

<svg
   width="3132"
   height="3132"
   viewBox="0 0 828.67498 828.67499"
   version="1.1"
   id="svg1"
   xml:space="preserve"
   inkscape:version="1.4 (e7c3feb100, 2024-10-09)"
   sodipodi:docname="MUTCD_W11-4 UFO.svg"
   xmlns:inkscape="http://www.inkscape.org/namespaces/inkscape"
   xmlns:sodipodi="http://sodipodi.sourceforge.net/DTD/sodipodi-0.dtd"
   xmlns="http://www.w3.org/2000/svg"
   xmlns:svg="http://www.w3.org/2000/svg"><sodipodi:namedview
     id="namedview1"
     pagecolor="#505050"
     bordercolor="#eeeeee"
     borderopacity="1"
     inkscape:showpageshadow="0"
     inkscape:pageopacity="0"
     inkscape:pagecheckerboard="0"
     inkscape:deskcolor="#d1d1d1"
     inkscape:document-units="px"
     inkscape:zoom="0.25197126"
     inkscape:cx="1385.0786"
     inkscape:cy="789.7726"
     inkscape:window-width="1920"
     inkscape:window-height="1011"
     inkscape:window-x="0"
     inkscape:window-y="0"
     inkscape:window-maximized="1"
     inkscape:current-layer="layer1"
     showgrid="false" /><defs
     id="defs1"><inkscape:perspective
       sodipodi:type="inkscape:persp3d"
       inkscape:vp_x="0 : 1057.856 : 1"
       inkscape:vp_y="0 : 999.99996 : 0"
       inkscape:vp_z="744.09448 : 1057.856 : 1"
       inkscape:persp3d-origin="372.04724 : 882.46237 : 1"
       id="perspective10" /><inkscape:perspective
       id="perspective2884"
       inkscape:persp3d-origin="0.5 : 532.00833 : 1"
       inkscape:vp_z="1 : 532.17499 : 1"
       inkscape:vp_y="0 : 999.99996 : 0"
       inkscape:vp_x="0 : 532.17499 : 1"
       sodipodi:type="inkscape:persp3d" /><inkscape:perspective
       id="perspective2916"
       inkscape:persp3d-origin="0.5 : 532.00833 : 1"
       inkscape:vp_z="1 : 532.17499 : 1"
       inkscape:vp_y="0 : 999.99996 : 0"
       inkscape:vp_x="0 : 532.17499 : 1"
       sodipodi:type="inkscape:persp3d" /><inkscape:perspective
       id="perspective3757"
       inkscape:persp3d-origin="0.5 : 532.00833 : 1"
       inkscape:vp_z="1 : 532.17499 : 1"
       inkscape:vp_y="0 : 999.99996 : 0"
       inkscape:vp_x="0 : 532.17499 : 1"
       sodipodi:type="inkscape:persp3d" /><inkscape:perspective
       id="perspective3792"
       inkscape:persp3d-origin="0.5 : 532.00833 : 1"
       inkscape:vp_z="1 : 532.17499 : 1"
       inkscape:vp_y="0 : 999.99996 : 0"
       inkscape:vp_x="0 : 532.17499 : 1"
       sodipodi:type="inkscape:persp3d" /><inkscape:perspective
       id="perspective3825"
       inkscape:persp3d-origin="0.5 : 532.00833 : 1"
       inkscape:vp_z="1 : 532.17499 : 1"
       inkscape:vp_y="0 : 999.99996 : 0"
       inkscape:vp_x="0 : 532.17499 : 1"
       sodipodi:type="inkscape:persp3d" /><inkscape:perspective
       id="perspective3825-4"
       inkscape:persp3d-origin="0.5 : 532.00833 : 1"
       inkscape:vp_z="1 : 532.17499 : 1"
       inkscape:vp_y="0 : 999.99996 : 0"
       inkscape:vp_x="0 : 532.17499 : 1"
       sodipodi:type="inkscape:persp3d" /><inkscape:perspective
       id="perspective3825-2"
       inkscape:persp3d-origin="0.5 : 532.00833 : 1"
       inkscape:vp_z="1 : 532.17499 : 1"
       inkscape:vp_y="0 : 999.99996 : 0"
       inkscape:vp_x="0 : 532.17499 : 1"
       sodipodi:type="inkscape:persp3d" /><inkscape:perspective
       id="perspective4233"
       inkscape:persp3d-origin="0.5 : 532.00833 : 1"
       inkscape:vp_z="1 : 532.17499 : 1"
       inkscape:vp_y="0 : 999.99996 : 0"
       inkscape:vp_x="0 : 532.17499 : 1"
       sodipodi:type="inkscape:persp3d" /><inkscape:perspective
       id="perspective3231"
       inkscape:persp3d-origin="0.5 : 532.00833 : 1"
       inkscape:vp_z="1 : 532.17499 : 1"
       inkscape:vp_y="0 : 999.99996 : 0"
       inkscape:vp_x="0 : 532.17499 : 1"
       sodipodi:type="inkscape:persp3d" /><inkscape:perspective
       id="perspective3164"
       inkscape:persp3d-origin="0.5 : 532.00833 : 1"
       inkscape:vp_z="1 : 532.17499 : 1"
       inkscape:vp_y="0 : 999.99996 : 0"
       inkscape:vp_x="0 : 532.17499 : 1"
       sodipodi:type="inkscape:persp3d" /><inkscape:perspective
       id="perspective2863"
       inkscape:persp3d-origin="0.5 : 532.00833 : 1"
       inkscape:vp_z="1 : 532.17499 : 1"
       inkscape:vp_y="0 : 999.99996 : 0"
       inkscape:vp_x="0 : 532.17499 : 1"
       sodipodi:type="inkscape:persp3d" /><inkscape:perspective
       id="perspective2945"
       inkscape:persp3d-origin="0.5 : 532.00833 : 1"
       inkscape:vp_z="1 : 532.17499 : 1"
       inkscape:vp_y="0 : 999.99996 : 0"
       inkscape:vp_x="0 : 532.17499 : 1"
       sodipodi:type="inkscape:persp3d" /></defs><g
     inkscape:label="Layer 1"
     inkscape:groupmode="layer"
     id="layer1"
     transform="translate(271.37632,-332.70581)"><g
       id="g1"
       transform="matrix(3.2609897,0,0,3.2609897,-271.11174,332.96876)"
       style="stroke-width:0.028749"><path
         d="M 3.633,118.203 118.187,3.638 c 4.847,-4.85 12.777,-4.85 17.625,0 l 114.55,114.565 c 4.847,4.843 4.847,12.774 0,17.624 l -114.55,114.55 c -4.848,4.852 -12.778,4.852 -17.625,0 L 3.633,135.828 c -4.844,-4.85 -4.844,-12.78 0,-17.624"
         style="fill:#fcd116;fill-opacity:1;fill-rule:nonzero;stroke:none;stroke-width:0.028749"
         id="path1" /><path
         d="M 6.396,120.022 120.008,6.402 c 3.845,-3.845 10.135,-3.845 13.984,0 L 247.6,120.022 c 3.846,3.845 3.846,10.135 0,13.98 L 133.992,247.614 c -3.849,3.846 -10.139,3.846 -13.984,0 L 6.396,134.002 c -3.846,-3.845 -3.846,-10.135 0,-13.98"
         style="fill:#000000;fill-opacity:1;fill-rule:evenodd;stroke:none;stroke-width:0.028749"
         id="path2" /><path
         d="M 9.947,123.522 123.503,9.952 c 1.92,-1.923 5.07,-1.923 6.989,0 l 113.555,113.57 c 1.923,1.922 1.923,5.066 0,6.985 L 130.492,244.066 c -1.92,1.923 -5.07,1.923 -6.989,0 L 9.947,130.506 c -1.922,-1.918 -1.922,-5.062 0,-6.984"
         style="fill:#fcd116;fill-opacity:1;fill-rule:evenodd;stroke:none;stroke-width:0.028749"
         id="path3"
         sodipodi:nodetypes="ccccccccc" /><path
         d="m 56.167,116.277 c -0.575,-1.411 -2.303,-3.754 -0.949,-5.21 1.524,-2.093 4.092,-3.296 5.97,-5.035 2.14,-1.982 3.777,-4.205 5.52,-6.52 1.313,-2.102 3.708,-3.202 5.666,-4.571 -4.156,-0.141 -10.21,1.601 -11.106,-4.152 0.152,-1.824 2.985,0.691 3.997,0.857 2.28,0.363 4.692,-0.304 6.883,-0.864 1.665,-0.42 3.651,-1.26 5.359,-0.67 2.046,0.705 2.007,2.409 3.312,3.739 1.253,1.277 4.59,-0.914 5.867,-1.373 2.307,-1.69 2.445,3.09 0.822,4.107 -0.487,0.307 -3.51,1.171 -1.482,1.99 2.106,0.705 4.265,1.276 6.47,1.559 2.985,0.38 5.786,-0.014 8.693,-0.667 2.649,-0.596 4.886,-0.49 7.546,0.01 5.757,1.09 11.32,2.135 17.187,2.371 10.915,0.438 21.865,-0.547 32.759,-1.171 4.36,-0.247 8.71,-1.238 13.063,-1.33 2.068,-0.042 3.99,0.568 6.03,0.723 2.024,0.159 4.402,-0.413 5.912,1.22 6.766,4.933 6.667,13.643 6.318,21.182 -0.18,3.933 -1.75,8.985 1.344,12.079 2.438,2.444 6.364,4.808 3.969,8.95 -1.083,1.859 1.33,7.824 -0.85,7.842 -3.161,0.028 -3.313,-3.778 -3.5,-5.962 -0.254,-3.006 -2.582,-5.196 -3.898,-7.744 -1.055,-2.039 -0.282,-4.893 -0.222,-7.104 0.07,-2.495 0.007,-5 -0.173,-7.49 -0.19,-2.653 -0.508,-5.31 -1.051,-7.916 -0.31,-1.468 -0.872,-5.726 -2.346,-6.548 -0.269,-0.152 0.917,5.341 1.061,5.955 1.013,2.727 1.352,5.623 1.277,8.52 -0.12,4.716 -1.718,9.786 -1.262,14.464 0.208,2.159 1.855,3.122 2.935,4.79 1.323,2.04 0.303,3.891 -0.378,5.941 -1.735,5.168 -0.8,10.372 -0.113,15.628 0.194,1.44 1.634,4.664 0.194,5.761 -1.961,1.503 0.085,3.694 -1.02,5.644 -0.948,1.68 -12.297,2.3 -11.479,-0.084 1.546,-1.51 3.796,-2.22 4.865,-4.209 1.04,-1.93 1.2,-4.815 1.358,-6.967 0.37,-4.989 -0.984,-11.466 -4.632,-15.177 -2.43,4.318 -4.25,8.1 -5.069,13.028 -0.31,1.845 -0.353,4.389 -1.28,6.043 -0.89,1.591 -2.615,0.882 -2.971,3.197 -0.123,0.765 -0.116,1.534 -0.152,2.307 a 34.142,34.142 0 0 1 -3.796,0.691 c -1.703,0.205 -4.995,1.02 -6.59,0.29 -1.301,-0.607 4.206,-4.992 4.84,-5.832 2.258,-3.023 3.243,-6.82 4.94,-10.178 0.825,-1.658 1.259,-4.533 0.564,-6.304 -0.557,-1.418 -2.826,-0.31 -3.175,0.713 -1.584,4.512 -2.84,-0.59 -5.782,-0.113 -1.108,-0.212 -1.337,1.827 -2.55,1.965 -0.921,0.102 -1.493,-0.702 -1.592,-1.503 -0.137,-1.115 -1.206,-1.59 -2.067,-2.155 -1.411,-0.925 -2.988,-1.94 -4.16,-3.168 -1.04,-1.094 -3.054,-0.37 -4.409,-0.357 -4.096,0.046 -7.877,-1.132 -11.846,-1.841 -2.575,-0.455 -6.325,-0.73 -8.76,0.44 -3.838,1.85 -3.323,9.162 -3.4,12.648 -0.05,2.219 -0.357,4.777 0.095,6.96 0.335,1.62 1.796,3.433 0.995,5.133 -0.37,0.804 -1.5,0.318 -1.955,1.097 -0.345,0.6 -0.374,1.514 -0.487,2.184 -0.448,2.653 -4.106,2.025 -6.304,2.279 -0.395,0.042 -6.512,0.938 -4.745,-0.963 1.535,-1.358 3.348,-2.385 4.551,-4.082 1.99,-2.797 2.22,-7.144 1.877,-10.417 -0.275,-2.583 -1.125,-4.996 -1.88,-7.469 -1.842,2.442 -3.246,6.428 -3.63,9.515 -0.254,2.028 0.158,5.87 -0.836,7.51 -0.321,0.533 -1.514,-0.02 -1.916,0.946 -0.335,0.804 -0.141,2.081 -0.62,2.797 -0.653,0.97 -7.748,0.455 -9.035,0.508 -0.441,-2.988 2.783,-3.422 4.642,-4.917 2.72,-2.191 2.953,-9.233 2.279,-12.369 -0.677,-3.168 -1.365,-5.5 -1.2,-8.809 0.096,-1.943 -3.975,-0.635 -5.369,-1.41 -2.41,-1.359 -2.448,-4.386 -3.16,-6.742 -1.045,-3.472 -3.313,-6.516 -5.451,-9.384 -3.306,-4.438 -6.537,-11.289 -12.64,-12.153 -2.96,-0.42 -6.075,0.211 -9.056,0.165 -2.466,-0.045 -7.683,-0.042 -8.816,-2.818"
         style="fill:#000000;fill-opacity:1;fill-rule:evenodd;stroke:none;stroke-width:0.028749"
         id="path4" /></g><g
       id="g2"
       transform="matrix(0.96023668,-0.27918725,0.2848105,0.97957729,-186.2144,89.715667)"
       style="stroke-width:0.990079"><path
         id="path5"
         style="fill:#ffffff;fill-opacity:1;stroke:none;stroke-width:8.38263;stroke-linecap:butt;stroke-linejoin:miter;stroke-opacity:1"
         d="m 195.05427,441.58291 c -12.90445,-6.46063 -28.68004,-2.594 -41.05925,-7.25747 -14.5853,-9.53276 -32.04784,-12.59064 -48.90287,-15.5496 -11.584032,-1.51032 -49.245314,-2.83959 -40.541342,22.62531 7.202775,15.65036 15.865992,30.60147 25.356797,44.9681 -11.784189,2.22012 -27.866526,6.00647 -37.151597,7.2239 -12.330199,1.22431 -19.136502,17.2421 -10.572644,26.48122 35.351998,12.04852 12.308503,20.8992 14.093127,32.68111 7.385256,15.5571 25.745936,4.79866 35.872776,1.0793 8.318183,-5.77934 28.946373,-13.43476 45.174743,-9.08638 12.32979,5.09662 21.73341,13.67834 15.35653,37.47716 -3.21085,10.45369 -9.3201,20.20936 -9.59411,31.34437 -1.47566,-5.62103 1.64333,11.3711 7.51087,11.21236 10.9598,8.03153 23.28822,-3.63382 24.79737,-12.29104 14.90237,-34.60713 45.02028,-27.90355 18.11807,23.95965 -8.61527,14.57779 17.67119,21.52456 26.74142,11.56455 8.29054,-9.75996 4.31217,-16.07656 7.66479,-29.4692 2.08378,-31.70181 32.41876,-5.88315 54.7971,-1.15083 21.44007,-1.48553 15.69944,-27.13614 12.85948,-41.61905 -5.47481,-17.71543 -16.22236,-33.15949 -27.47176,-47.66944 -3.2945,-40.27355 -36.45851,-73.25375 -73.04977,-86.52448 z"
         sodipodi:nodetypes="cccccccccccccccccccccc" /><path
         style="fill:#000000;fill-opacity:1;stroke:none;stroke-width:8.38262;stroke-linecap:butt;stroke-linejoin:miter;stroke-opacity:1"
         d="m 219.94627,473.66363 c 35.12013,28.56763 32.44396,59.9477 32.44396,59.9477 -47.99296,-18.09525 -73.32547,-39.91659 -98.25157,-80.22599 0,0 30.68749,-8.28933 65.80761,20.27829 z m 15.32868,36.26756 c -1.06852,-0.85448 -2.27524,-1.392 -3.49135,-1.47696 -3.24298,-0.22658 -5.32623,2.86412 -4.65335,6.90542 0.66128,3.9716 3.74184,7.39469 6.9441,7.7144 l 0.14729,0.0104 c 3.24298,0.22658 5.32623,-2.86412 4.65335,-6.90542 -0.42055,-2.52581 -1.81915,-4.82367 -3.60004,-6.2478 z m -53.6388,-43.46831 c -1.75096,-1.45779 -4.30516,-2.45601 -6.90095,-2.53547 -4.15326,-0.12712 -6.84325,2.15035 -6.01374,5.0912 l 0.0397,0.13135 c 0.91476,2.89233 4.8951,5.30348 8.97673,5.42842 4.15326,0.12713 6.84892,-2.15671 6.0194,-5.09757 -0.31107,-1.10282 -1.0706,-2.14325 -2.12116,-3.01793 z m 24.41368,23.28686 c -1.34688,-1.16216 -3.00005,-2.03513 -4.77204,-2.41278 -4.36181,-0.92961 -7.79356,1.48005 -7.66434,5.38105 0.127,3.83371 3.65316,7.69768 7.94157,8.70472 l 0.18356,0.04 c 4.36181,0.9296 7.79356,-1.48006 7.66434,-5.38106 -0.0767,-2.31621 -1.38457,-4.63337 -3.35309,-6.33191 z"
         id="path2990" /><path
         style="fill:#000000;fill-opacity:1;stroke:none;stroke-width:8.38262;stroke-linecap:butt;stroke-linejoin:miter;stroke-opacity:1"
         d="m 282.59345,601.42222 c 0,0 -0.4532,-10.74025 -1.66218,-19.25502 -3.21127,-11.86718 -10.95949,-26.36666 -27.2309,-46.82159 -40.89429,-13.72612 -76.9577,-37.17768 -101.83392,-83.1511 -16.46254,-13.44226 -34.81792,-14.75474 -50.9664,-18.10043 -10.958651,-0.40058 -21.698454,1.25127 -21.698454,1.25127 0,0 28.425894,64.29096 80.069894,105.99241 51.64399,41.70145 123.32196,60.08446 123.32196,60.08446 z"
         id="path3823"
         sodipodi:nodetypes="cccccczc" /><path
         inkscape:transform-center-y="412.0942"
         inkscape:transform-center-x="166.79377"
         sodipodi:nodetypes="cscc"
         id="path3835"
         d="m 217.41752,578.45416 c 0.0501,3.46525 -8.89396,62.99093 -8.30086,59.78681 0.59311,-3.20413 6.00036,-60.43373 6.00036,-60.43373 z"
         style="fill:#000000;fill-opacity:1;stroke:none;stroke-width:8.38262;stroke-linecap:butt;stroke-linejoin:miter;stroke-opacity:1" /><path
         style="fill:#000000;fill-opacity:1;stroke:none;stroke-width:8.38262;stroke-linecap:butt;stroke-linejoin:miter;stroke-opacity:1"
         d="m 116.5162,499.46181 c -3.28372,1.03433 -67.61957,10.95343 -64.066232,10.5089 3.553351,-0.44452 62.826392,-12.53619 62.826392,-12.53619 z"
         id="path3859"
         sodipodi:nodetypes="cscc"
         inkscape:transform-center-x="-251.75578"
         inkscape:transform-center-y="366.1444" /><path
         style="fill:#000000;fill-opacity:1;stroke:none;stroke-width:8.38262;stroke-linecap:butt;stroke-linejoin:miter;stroke-opacity:1"
         d="m 190.94733,565.6691 c -0.50194,2.02591 -33.54394,48.40865 -32.68567,46.61897 0.85828,-1.78969 31.36697,-47.29662 31.36697,-47.29662 z"
         id="path3874"
         sodipodi:nodetypes="cscc"
         inkscape:transform-center-x="68.92722"
         inkscape:transform-center-y="400.96478" /><path
         inkscape:transform-center-y="376.4096"
         inkscape:transform-center-x="-153.65717"
         sodipodi:nodetypes="cscc"
         id="path3876"
         d="m 133.42578,519.43816 c -1.74588,1.12188 -64.373713,27.20367 -62.411407,26.42413 1.962314,-0.77955 61.490377,-27.55732 61.490377,-27.55732 z"
         style="fill:#000000;fill-opacity:1;stroke:none;stroke-width:8.38262;stroke-linecap:butt;stroke-linejoin:miter;stroke-opacity:1" /></g></g></svg>
