<svg width="51.599" height="89.847" viewBox="0 0 13.652 23.772" xmlns="http://www.w3.org/2000/svg">
    <defs>
        <clipPath clipPathUnits="userSpaceOnUse" id="a">
            <path d="M65.632 39h507.732v576.085H65.632Z" transform="translate(-489.35 -130.431)"/>
        </clipPath>
    </defs>
    <path d="M0 0a2.506 2.506 0 0 0-2.503 2.504v62.152A2.506 2.506 0 0 0 0 67.16h33.466a2.506 2.506 0 0 0 2.504-2.504V2.504A2.506 2.506 0 0 0 33.466 0Z" style="fill:#fcd116;fill-opacity:1;fill-rule:nonzero;stroke:none" transform="matrix(.35278 0 0 -.35278 .923 23.732)" clip-path="url(#a)"/>
    <path d="M0 0h-33.466a2.62 2.62 0 0 1-2.617-2.617v-62.151a2.62 2.62 0 0 1 2.617-2.617H0a2.62 2.62 0 0 1 2.616 2.617v62.151A2.62 2.62 0 0 1 0 0m0-.226a2.39 2.39 0 0 0 2.39-2.391v-62.151A2.39 2.39 0 0 0 0-67.159h-33.466a2.39 2.39 0 0 0-2.39 2.391v62.151a2.39 2.39 0 0 0 2.39 2.391z" style="fill:#000;fill-opacity:1;fill-rule:nonzero;stroke:none" transform="matrix(.35278 0 0 -.35278 12.73 0)"/>
    <path d="M0 0c-.988 0-1.793.805-1.793 1.793v62.151c0 .99.805 1.793 1.793 1.793h33.466c.989 0 1.793-.803 1.793-1.793V1.793C35.259.805 34.455 0 33.466 0Z" style="fill:#000;fill-opacity:1;fill-rule:nonzero;stroke:none" transform="matrix(.35278 0 0 -.35278 .923 23.481)"/>
    <path d="M0 0v13.546c0 .439.357.797.796.797h33.468a.798.798 0 0 0 .796-.797V0Z" style="fill:#fcd116;fill-opacity:1;fill-rule:nonzero;stroke:none" transform="matrix(.35278 0 0 -.35278 .642 5.702)"/>
    <path d="M0 0v-47.61a.797.797 0 0 0-.796-.796h-33.468a.797.797 0 0 0-.796.796V0Z" style="fill:#fcd116;fill-opacity:1;fill-rule:nonzero;stroke:none" transform="matrix(.35278 0 0 -.35278 13.01 6.053)"/>
    <path d="M0 0v2.081h-2.157V0h-.858v4.781h.858V2.936H0v1.845h.859V0Z" style="fill:#000;fill-opacity:1;fill-rule:nonzero;stroke:none" transform="matrix(.35278 0 0 -.35278 9.409 22.708)"/>
    <path d="M0 0v2.919L-1.414 0l-1.399 2.919V0h-.841v4.781h.841l1.399-2.835L0 4.781h.842V0Z" style="fill:#000;fill-opacity:1;fill-rule:nonzero;stroke:none" transform="matrix(.35278 0 0 -.35278 5.23 22.708)"/>
    <path d="M0 0h-1.443v-1.191H0c.419 0 .704.234.704.587C.704-.234.419 0 0 0m.822-1.862c-.269-.151-.486-.184-.856-.184h-1.409v-1.88h-.873V.855h2.282c.37 0 .587-.05.856-.201.452-.251.737-.721.737-1.258 0-.503-.285-1.007-.737-1.258" style="fill:#000;fill-opacity:1;fill-rule:nonzero;stroke:none" transform="matrix(.35278 0 0 -.35278 7.221 21.324)"/>
    <path d="M0 0c0 1.331.275 2.309.904 3.405.983 1.645 2.398 2.662 4.442 3.21 1.258.352 1.691.744 1.691 1.409 0 .822-.786 1.292-2.202 1.292-1.454 0-2.516-.352-3.459-1.214L0 9.629c1.298 1.135 2.909 1.722 4.718 1.722 2.633 0 4.324-1.291 4.324-3.327 0-.939-.393-1.801-1.141-2.427-.354-.274-.864-.547-1.65-.783-1.494-.43-1.927-.626-2.595-1.213-.511-.431-.825-.861-1.219-1.605h6.605V0Z" style="fill:#000;fill-opacity:1;fill-rule:nonzero;stroke:none" transform="matrix(.35278 0 0 -.35278 3.361 20.038)"/>
    <path d="M0 0c-1.533 0-2.909.391-4.324 1.252l1.062 1.684A6.384 6.384 0 0 1 0 2.035c1.69 0 2.712.744 2.712 1.997 0 .587-.275 1.174-.708 1.526-.392.313-.982.47-1.808.47-.746 0-1.336-.118-2.162-.431l-2.004.509.354 5.245h7.468l-.039-1.957h-5.542l-.119-1.605c.904.196 1.455.274 2.163.274 2.555 0 4.403-1.722 4.403-4.031C4.718 1.683 2.752 0 0 0" style="fill:#000;fill-opacity:1;fill-rule:nonzero;stroke:none" transform="matrix(.35278 0 0 -.35278 8.627 20.107)"/>
    <path d="m0 0 .331.191A.511.511 0 0 0 .88.164a.506.506 0 0 0 .249.488l.332.191c.24.14.552.056.691-.185l.843-1.461a.506.506 0 0 0-.185-.69l-.331-.192a.511.511 0 0 0-.549.028.508.508 0 0 0-.25-.489l-.331-.191a.508.508 0 0 0-.691.185L-.186-.691A.508.508 0 0 0 0 0" style="fill:#000;fill-opacity:1;fill-rule:nonzero;stroke:none" transform="matrix(.35278 0 0 -.35278 6.713 13.637)"/>
    <path d="m0 0 .331.191A.511.511 0 0 0 .88.164a.507.507 0 0 0 .249.488l.332.191c.24.139.552.056.691-.185l.843-1.461a.506.506 0 0 0-.185-.69l-.331-.192a.511.511 0 0 0-.549.028.509.509 0 0 0-.249-.489l-.332-.191a.508.508 0 0 0-.691.185L-.185-.691A.507.507 0 0 0 0 0" style="fill:#000;fill-opacity:1;fill-rule:nonzero;stroke:none" transform="matrix(.35278 0 0 -.35278 8.61 12.541)"/>
    <path d="m0 0 7.737 4.467 5.138-8.899-7.737-4.467Z" style="fill:#000;fill-opacity:1;fill-rule:nonzero;stroke:none" transform="matrix(.35278 0 0 -.35278 4.676 10.475)"/>
    <path d="M517.239 154.918h-19.921v1.195h19.921z" style="fill:#000;fill-opacity:1;fill-rule:evenodd;stroke:none" transform="matrix(.35278 0 0 -.35278 -171.709 69.745)"/>
    <path d="M0 0h-3.187v2.197a11.813 11.813 0 0 0 3.468 8.375 11.801 11.801 0 0 0 8.375 3.468 11.81 11.81 0 0 0 3.823-.63 11.806 11.806 0 0 0 3.306-1.755l-1.92-2.544a8.577 8.577 0 0 1-5.209 1.742c-2.312 0-4.486-.9-6.12-2.535A8.596 8.596 0 0 1 0 2.197Z" style="fill:#000;fill-opacity:1;fill-rule:nonzero;stroke:none" transform="matrix(.35278 0 0 -.35278 3.697 12.06)"/>
    <path d="M0 0a.598.598 0 0 1-1.14-.029l-.54-1.814-1.095.827-1.92-2.544 1.099-.829-1.601-1.024a.599.599 0 0 1 .287-1.104l7.277-.375z" style="fill:#000;fill-opacity:1;fill-rule:nonzero;stroke:none" transform="matrix(.35278 0 0 -.35278 10.244 7.59)"/>
    <path d="m0 0-.894-2.147H.894zm2.013-4.786-.627 1.498h-2.772l-.627-1.498h-1.251l2.683 6.374H.581l2.661-6.374z" style="fill:#000;fill-opacity:1;fill-rule:nonzero;stroke:none" transform="matrix(.35278 0 0 -.35278 5.413 2.608)"/>
    <path d="M0 0v3.892L-1.886 0-3.75 3.892V0h-1.122v6.375h1.122l1.864-3.78L0 6.375h1.123V0Z" style="fill:#000;fill-opacity:1;fill-rule:nonzero;stroke:none" transform="matrix(.35278 0 0 -.35278 8.658 4.296)"/>
    <path d="M0 0h-1.925v-1.588H0c.559 0 .938.313.938.783C.938-.313.559 0 0 0m1.095-2.482c-.357-.202-.648-.246-1.139-.246h-1.881v-2.506h-1.163V1.14h3.044c.491 0 .782-.067 1.139-.268a1.9 1.9 0 0 0 .984-1.677c0-.671-.38-1.342-.984-1.677" style="fill:#000;fill-opacity:1;fill-rule:nonzero;stroke:none" transform="matrix(.35278 0 0 -.35278 10.728 2.45)"/>
    <path d="M0 0h-1.835v-1.588H0c.559 0 .917.313.917.783C.917-.313.559 0 0 0m.917-5.234L-.112-2.728h-1.723v-2.506h-1.14V1.14h2.952c.47 0 .761-.067 1.096-.268a1.9 1.9 0 0 0 .984-1.677c0-.716-.38-1.342-1.029-1.7l1.163-2.729z" style="fill:#000;fill-opacity:1;fill-rule:nonzero;stroke:none" transform="matrix(.35278 0 0 -.35278 3.24 2.45)"/>
</svg>
