<svg width="95.821" height="48.244" viewBox="0 0 25.353 12.765" xmlns="http://www.w3.org/2000/svg">
    <defs>
        <clipPath clipPathUnits="userSpaceOnUse" id="a">
            <path d="M30.036 482.849h506.929V742H30.036Z" transform="translate(-215.337 -527.736)"/>
        </clipPath>
    </defs>
    <path d="M0 0a4.591 4.591 0 0 0-4.586 4.585v26.763A4.591 4.591 0 0 0 0 35.933h62.445a4.59 4.59 0 0 0 4.586-4.585V4.585A4.59 4.59 0 0 0 62.445 0Z" style="fill:#fcd116;fill-opacity:1;fill-rule:nonzero;stroke:none" transform="matrix(.35278 0 0 -.35278 1.662 12.72)" clip-path="url(#a)"/>
    <path d="M0 0h-62.446a4.715 4.715 0 0 1-4.71-4.71v-26.763a4.715 4.715 0 0 1 4.71-4.71H0a4.715 4.715 0 0 1 4.71 4.71V-4.71A4.715 4.715 0 0 1 0 0m0-.25a4.473 4.473 0 0 0 4.46-4.46v-26.763A4.473 4.473 0 0 0 0-35.933h-62.446a4.473 4.473 0 0 0-4.46 4.46V-4.71a4.473 4.473 0 0 0 4.46 4.46z" style="fill:#000;fill-opacity:1;fill-rule:nonzero;stroke:none" transform="matrix(.35278 0 0 -.35278 23.691 0)"/>
    <path d="M0 0v26.762a1.864 1.864 0 0 1-1.858 1.859h-62.446a1.864 1.864 0 0 1-1.859-1.859V0c0-1.022.837-1.859 1.859-1.859h62.446C-.836-1.859 0-1.022 0 0m-1.858-3.345h-62.446A3.355 3.355 0 0 0-67.649 0v26.762a3.355 3.355 0 0 0 3.345 3.346h62.446a3.356 3.356 0 0 0 3.345-3.346V0a3.355 3.355 0 0 0-3.345-3.345" style="fill:#000;fill-opacity:1;fill-rule:nonzero;stroke:none" transform="matrix(.35278 0 0 -.35278 24.347 11.103)"/>
    <path d="M0 0h5.252v-1.408H1.407V-3.6h2.595v-1.439H1.407v-2.442h4.126v-1.44H0Z" style="fill:#000;fill-opacity:1;fill-rule:nonzero;stroke:none" transform="matrix(.35278 0 0 -.35278 5.433 2.186)"/>
    <path d="m0 0-1.44-2.974h-1.596l2.222 4.601-2.066 4.32h1.597L0 3.286l1.283 2.661H2.88L.783 1.627l2.253-4.601H1.44Z" style="fill:#000;fill-opacity:1;fill-rule:nonzero;stroke:none" transform="matrix(.35278 0 0 -.35278 8.771 4.284)"/>
    <path d="M0 0c0 1.254.252 4.6 3.286 4.6 1.293 0 2.174-.527 2.787-1.816l-1.315-.563c-.456.656-.684.939-1.471.939-1.866 0-1.846-2.601-1.846-3.161 0-.553-.035-3.194 1.909-3.194.681 0 1.072.412 1.377 1.034l1.346-.501c-.502-1.241-1.345-1.97-2.693-1.97C.169-4.632 0-1.086 0 0" style="fill:#000;fill-opacity:1;fill-rule:nonzero;stroke:none" transform="matrix(.35278 0 0 -.35278 10.315 3.754)"/>
    <path d="M0 0h5.252v-1.408H1.407V-3.6h2.595v-1.439H1.407v-2.442h4.126v-1.44H0Z" style="fill:#000;fill-opacity:1;fill-rule:nonzero;stroke:none" transform="matrix(.35278 0 0 -.35278 13.15 2.186)"/>
    <path d="M0 0h1.986c1.119 0 1.239.807 1.239 1.095 0 .418-.315 1.096-1.191 1.096H0Zm1.661-1.44H0v-3.881h-1.407V3.6h3.372c2.098 0 2.7-1.707 2.7-2.505 0-.554-.304-2.535-3.004-2.535" style="fill:#000;fill-opacity:1;fill-rule:nonzero;stroke:none" transform="matrix(.35278 0 0 -.35278 16.133 3.456)"/>
    <path d="M0 0h-1.415v7.669h-2.043v1.252h5.533V7.669H0Z" style="fill:#000;fill-opacity:1;fill-rule:nonzero;stroke:none" transform="matrix(.35278 0 0 -.35278 19.187 5.333)"/>
    <path d="M0 0v-2.442h2.129c.724 0 1.096.345 1.096 1.034C3.225-.719 2.747 0 2.018 0Zm2.067 3.631H0V1.44h1.793c.801 0 1.244.698 1.244 1.283 0 .594-.327.908-.97.908m-3.474-7.513v8.921h3.381c1.408 0 2.472-.97 2.472-2.253 0-.877-.406-1.535-1.251-2.004.938-.438 1.47-1.198 1.47-2.159 0-.636-.358-2.505-2.691-2.505z" style="fill:#000;fill-opacity:1;fill-rule:nonzero;stroke:none" transform="matrix(.35278 0 0 -.35278 3.568 9.21)"/>
    <path d="M226.922 542.729h1.427v-8.921h-1.427z" style="fill:#000;fill-opacity:1;fill-rule:nonzero;stroke:none" transform="matrix(.35278 0 0 -.35278 -74.304 198.894)"/>
    <path d="M0 0c0 1.255.252 4.6 3.286 4.6 1.293 0 2.174-.527 2.787-1.816l-1.315-.563c-.456.656-.684.939-1.471.939-1.866 0-1.846-2.601-1.846-3.161 0-.553-.035-3.194 1.909-3.194.681 0 1.072.412 1.377 1.034l1.346-.501c-.502-1.241-1.345-1.97-2.693-1.97C.169-4.632 0-1.086 0 0" style="fill:#000;fill-opacity:1;fill-rule:nonzero;stroke:none" transform="matrix(.35278 0 0 -.35278 6.945 9)"/>
    <path d="M0 0h-1.416v3.882l-3.146 5.039h1.7l2.138-3.444 2.171 3.444h1.667L0 3.882Z" style="fill:#000;fill-opacity:1;fill-rule:nonzero;stroke:none" transform="matrix(.35278 0 0 -.35278 11.106 10.578)"/>
    <path d="M0 0c0 1.255.252 4.6 3.286 4.6 1.294 0 2.174-.527 2.787-1.816l-1.315-.563c-.456.656-.684.939-1.471.939-1.866 0-1.846-2.601-1.846-3.161 0-.553-.035-3.194 1.909-3.194.681 0 1.072.412 1.377 1.034l1.346-.501c-.502-1.241-1.345-1.97-2.693-1.97C.169-4.632 0-1.086 0 0" style="fill:#000;fill-opacity:1;fill-rule:nonzero;stroke:none" transform="matrix(.35278 0 0 -.35278 12.614 9)"/>
    <path d="M0 0h1.407v-7.606h4.126v-1.315H0Z" style="fill:#000;fill-opacity:1;fill-rule:nonzero;stroke:none" transform="matrix(.35278 0 0 -.35278 15.448 7.431)"/>
    <path d="M0 0h5.252v-1.408H1.407v-2.191h2.595v-1.44H1.407v-2.442h4.126v-1.44H0Z" style="fill:#000;fill-opacity:1;fill-rule:nonzero;stroke:none" transform="matrix(.35278 0 0 -.35278 17.872 7.431)"/>
    <path d="m0 0 1.346.501C1.722-.345 2.41-.814 3.255-.814c.814 0 1.378.563 1.378 1.315 0 1.193-1.377 1.377-2.536 1.846-.531.22-1.721.752-1.721 2.223 0 1.754 1.188 2.408 2.785 2.408 1.252 0 2.098-.72 2.536-1.815l-1.252-.376c-.141.352-.651.783-1.315.783-1.272 0-1.38-.679-1.38-.902 0-.834.719-.999 1.888-1.366C4.829 2.927 6.073 2.38 6.073.467c0-1.926-1.562-2.721-2.818-2.721C1.721-2.254.594-1.346 0 0" style="fill:#000;fill-opacity:1;fill-rule:nonzero;stroke:none" transform="matrix(.35278 0 0 -.35278 20.139 9.838)"/>
</svg>
