<svg width="51.603" height="77.103" viewBox="0 0 13.653 20.4" xmlns="http://www.w3.org/2000/svg">
    <defs>
        <clipPath clipPathUnits="userSpaceOnUse" id="a">
            <path d="M65.632 39h507.732v576.085H65.632Z" transform="translate(-358.548 -130.336)"/>
        </clipPath>
    </defs>
    <path d="M0 0a2.507 2.507 0 0 0-2.504 2.504v52.594A2.507 2.507 0 0 0 0 57.601h33.468a2.506 2.506 0 0 0 2.504-2.503V2.504A2.506 2.506 0 0 0 33.468 0Z" style="fill:#fcd116;fill-opacity:1;fill-rule:nonzero;stroke:none" transform="matrix(.35278 0 0 -.35278 .923 20.36)" clip-path="url(#a)"/>
    <path d="M0 0h-33.469a2.62 2.62 0 0 1-2.616-2.617v-52.594a2.619 2.619 0 0 1 2.616-2.616H0a2.62 2.62 0 0 1 2.617 2.616v52.594A2.62 2.62 0 0 1 0 0m0-.226a2.392 2.392 0 0 0 2.391-2.391v-52.594A2.39 2.39 0 0 0 0-57.601h-33.469a2.39 2.39 0 0 0-2.39 2.39v52.594a2.39 2.39 0 0 0 2.39 2.391z" style="fill:#000;fill-opacity:1;fill-rule:nonzero;stroke:none" transform="matrix(.35278 0 0 -.35278 12.73 0)"/>
    <path d="M0 0h-35.063v13.547c0 .439.358.797.798.797H-.797c.44 0 .797-.358.797-.797Zm0-39.046a.798.798 0 0 0-.797-.798h-33.468a.799.799 0 0 0-.798.798v38.05H0ZM-.797 15.34h-33.468c-.99 0-1.793-.805-1.793-1.793v-52.593c0-.989.803-1.794 1.793-1.794H-.797c.989 0 1.793.805 1.793 1.794v52.593c0 .988-.804 1.793-1.793 1.793" style="fill:#000;fill-opacity:1;fill-rule:nonzero;stroke:none" transform="matrix(.35278 0 0 -.35278 13.011 5.702)"/>
    <path d="M0 0c0 1.331.275 2.309.904 3.405.983 1.645 2.398 2.663 4.442 3.21 1.258.352 1.691.744 1.691 1.409 0 .823-.786 1.293-2.202 1.293-1.454 0-2.516-.352-3.46-1.214L0 9.63c1.298 1.134 2.909 1.722 4.718 1.722 2.634 0 4.324-1.292 4.324-3.328 0-.939-.393-1.8-1.14-2.426-.354-.274-.865-.548-1.651-.784-1.494-.429-1.926-.626-2.595-1.212-.511-.431-.825-.862-1.219-1.606h6.605V0Z" style="fill:#000;fill-opacity:1;fill-rule:nonzero;stroke:none" transform="matrix(.35278 0 0 -.35278 4.648 15.893)"/>
    <path d="M0 0c0 2.348-.981 3.758-2.668 3.758-2.001 0-2.707-2.075-2.707-3.719 0-2.466 1.02-3.836 2.707-3.836C-1.02-3.797 0-2.271 0 .039zm-2.668-5.794c-3.335 0-4.708 2.858-4.708 5.794 0 2.936 1.412 5.755 4.708 5.755 3.335 0 4.669-2.897 4.669-5.716 0-2.857-1.295-5.833-4.669-5.833" style="fill:#000;fill-opacity:1;fill-rule:nonzero;stroke:none" transform="matrix(.35278 0 0 -.35278 11.109 13.918)"/>
    <path d="M0 0h-17.437a3.582 3.582 0 0 1-3.581-3.581v-17.387h4.084v16.095a.79.79 0 0 0 .79.789H0Z" style="fill:#000;fill-opacity:1;fill-rule:nonzero;stroke:none" transform="matrix(.35278 0 0 -.35278 9.18 8.074)"/>
    <path d="m0 0 1.638-4.29L0-8.581c-.279-.731.548-1.386 1.195-.946L8.909-4.29 1.195.947C.548 1.385-.279.73 0 0" style="fill:#000;fill-opacity:1;fill-rule:nonzero;stroke:none" transform="matrix(.35278 0 0 -.35278 8.603 7.28)"/>
    <path d="m0 0-1.414-2.919L-2.813 0v-2.919h-.841v4.781h.841l1.399-2.835L0 1.862h.843v-4.781H0Z" style="fill:#000;fill-opacity:1;fill-rule:nonzero;stroke:none" transform="matrix(.35278 0 0 -.35278 6.417 17.611)"/>
    <path d="M0 0v-1.879h-.872v4.781h2.339c1.007 0 1.536-.766 1.536-1.451C3.003.815 2.529 0 1.504 0Zm0 2.046V.856h1.444c.419 0 .704.234.704.587 0 .369-.279.603-.705.603z" style="fill:#000;fill-opacity:1;fill-rule:nonzero;stroke:none" transform="matrix(.35278 0 0 -.35278 8.163 17.978)"/>
    <path d="M0 0h-2.156v-2.081h-.859V2.7h.859V.855H0V2.7h.86v-4.781H0Z" style="fill:#000;fill-opacity:1;fill-rule:nonzero;stroke:none" transform="matrix(.35278 0 0 -.35278 11.031 17.907)"/>
    <path d="M0 0v-1.587h1.836c.559 0 .916.321.916.782 0 .493-.358.805-.917.805Zm2.863-2.505 1.162-2.728H2.751L1.723-2.728H0v-2.505h-1.141v6.374h3.013A1.959 1.959 0 0 0 3.891-.805c0-.715-.38-1.342-1.028-1.7" style="fill:#000;fill-opacity:1;fill-rule:nonzero;stroke:none" transform="matrix(.35278 0 0 -.35278 2.594 2.45)"/>
    <path d="M0 0h1.789L.895 2.147Zm2.281-1.14H-.491l-.627-1.499H-2.37L.314 3.736h1.163l2.66-6.375h-1.23z" style="fill:#000;fill-opacity:1;fill-rule:nonzero;stroke:none" transform="matrix(.35278 0 0 -.35278 5.097 3.366)"/>
    <path d="m0 0-1.886-3.892L-3.75 0v-3.892h-1.122v6.375h1.122l1.864-3.781L0 2.483h1.123v-6.375H0Z" style="fill:#000;fill-opacity:1;fill-rule:nonzero;stroke:none" transform="matrix(.35278 0 0 -.35278 8.658 2.924)"/>
    <path d="M0 0v-1.587h1.926c.558 0 .938.313.938.782 0 .493-.373.805-.94.805Zm0-2.728v-2.505h-1.164v6.374h3.12c1.343 0 2.048-1.022 2.048-1.935 0-.848-.632-1.934-1.999-1.934z" style="fill:#000;fill-opacity:1;fill-rule:nonzero;stroke:none" transform="matrix(.35278 0 0 -.35278 10.05 2.45)"/>
</svg>
