<svg width="115.835" height="115.839" viewBox="0 0 30.648 30.649" xmlns="http://www.w3.org/2000/svg">
    <defs>
        <clipPath clipPathUnits="userSpaceOnUse" id="a">
            <path d="M71.35 38.683h504.514v445.105H71.35Z" transform="translate(-435.646 -135.748)"/>
        </clipPath>
    </defs>
    <path d="M0 0a4.06 4.06 0 0 0-2.89 1.197l-39.227 39.227a4.062 4.062 0 0 0-1.197 2.891c0 1.091.425 2.118 1.197 2.89l39.226 39.227A4.064 4.064 0 0 0 0 86.629a4.064 4.064 0 0 0 2.891-1.197l39.227-39.227a4.094 4.094 0 0 0 0-5.781L2.891 1.197A4.064 4.064 0 0 0 0 0" style="fill:#fcd116;fill-opacity:1;fill-rule:nonzero;stroke:none" transform="matrix(.35278 0 0 -.35278 15.324 30.605)" clip-path="url(#a)"/>
    <path d="M0 0a4.185 4.185 0 0 1-2.979-1.234l-39.227-39.227a4.218 4.218 0 0 1 0-5.957l39.227-39.227A4.185 4.185 0 0 1 0-86.879c1.125 0 2.183.438 2.979 1.234l39.227 39.227a4.187 4.187 0 0 1 1.233 2.979 4.184 4.184 0 0 1-1.233 2.978L2.979-1.234A4.185 4.185 0 0 1 0 0m0-.25a3.953 3.953 0 0 0 2.802-1.16l39.227-39.227a3.964 3.964 0 0 0 0-5.604L2.802-85.468A3.95 3.95 0 0 0 0-86.629a3.95 3.95 0 0 0-2.802 1.161l-39.227 39.227a3.964 3.964 0 0 0 0 5.604L-2.802-1.41A3.953 3.953 0 0 0 0-.25" style="fill:#000;fill-opacity:1;fill-rule:nonzero;stroke:none" transform="matrix(.35278 0 0 -.35278 15.324 0)"/>
    <path d="M0 0a2.864 2.864 0 0 0-4.047 0l-39.227 39.227a2.864 2.864 0 0 0 0 4.047l39.227 39.227a2.864 2.864 0 0 0 4.047 0l39.227-39.227a2.864 2.864 0 0 0 0-4.047z" style="fill:#000;fill-opacity:1;fill-rule:nonzero;stroke:none" transform="matrix(.35278 0 0 -.35278 16.038 29.877)"/>
    <path d="M0 0a1.322 1.322 0 0 0-1.868 0l-39.227 39.227a1.322 1.322 0 0 0 0 1.868l39.227 39.227a1.322 1.322 0 0 0 1.868 0l39.227-39.227a1.322 1.322 0 0 0 0-1.868z" style="fill:#fcd116;fill-opacity:1;fill-rule:nonzero;stroke:none" transform="matrix(.35278 0 0 -.35278 15.653 29.492)"/>
    <path d="M0 0h-1.016v6.105h-1.289v.939h3.594v-.939H0Z" style="fill:#000;fill-opacity:1;fill-rule:nonzero;stroke:none" transform="matrix(.35278 0 0 -.35278 10.817 9.81)"/>
    <path d="M0 0v-1.78h1.035c.594 0 .914.322.914.891 0 .544-.37.889-.913.889Zm.962-2.744H0v-3.312h-1.011V.989h2.097c1.105 0 1.85-.742 1.85-1.878 0-.84-.346-1.459-1.012-1.706l1.011-3.461H1.9Z" style="fill:#000;fill-opacity:1;fill-rule:nonzero;stroke:none" transform="matrix(.35278 0 0 -.35278 11.976 7.674)"/>
    <path d="M0 0h1.016l-.52 2.027zm1.263-.989h-1.51l-.472-1.927h-1.016l1.76 7.044h.992l1.758-7.044H1.759Z" style="fill:#000;fill-opacity:1;fill-rule:nonzero;stroke:none" transform="matrix(.35278 0 0 -.35278 13.847 8.782)"/>
    <path d="M0 0h1.413v-.964H0v-3.312h-1.016v7.044h3.594V1.78H0Z" style="fill:#000;fill-opacity:1;fill-rule:nonzero;stroke:none" transform="matrix(.35278 0 0 -.35278 15.533 8.302)"/>
    <path d="M0 0h1.413v-.964H0v-3.312h-1.016v7.044h3.594V1.78H0Z" style="fill:#000;fill-opacity:1;fill-rule:nonzero;stroke:none" transform="matrix(.35278 0 0 -.35278 17.149 8.302)"/>
    <path d="M444.385 201.737h.986v-7.044h-.986z" style="fill:#000;fill-opacity:1;fill-rule:nonzero;stroke:none" transform="matrix(.35278 0 0 -.35278 -138.363 78.494)"/>
    <path d="M0 0c-.098.692-.371 1.014-.844 1.014-.818 0-1.117-.643-1.117-2.471 0-2.027.348-2.843 1.217-2.843.596 0 .744.495.744 1.014h1.018C.993-4.448.249-5.289-.744-5.289c-1.514 0-2.184 1.211-2.184 3.807 0 2.273.719 3.483 2.109 3.483C.472 2.001.984.823 1.018 0z" style="fill:#000;fill-opacity:1;fill-rule:nonzero;stroke:none" transform="matrix(.35278 0 0 -.35278 20.285 7.988)"/>
    <path d="M0 0h1.016l-.52 2.027zm1.264-.989H-.247l-.471-1.927h-1.017l1.76 7.044h.992l1.758-7.044H1.759Z" style="fill:#000;fill-opacity:1;fill-rule:nonzero;stroke:none" transform="matrix(.35278 0 0 -.35278 6.364 12.898)"/>
    <path d="M0 0h1.035c.592 0 .914.37.914 1.013 0 .593-.374.988-.913.988H0Zm0-.964v-3.09h-1.011V2.99h2.097c1.11 0 1.85-.794 1.85-1.977 0-1.286-.667-1.977-1.85-1.977z" style="fill:#000;fill-opacity:1;fill-rule:nonzero;stroke:none" transform="matrix(.35278 0 0 -.35278 8.048 12.496)"/>
    <path d="M0 0h1.035c.592 0 .914.37.914 1.013 0 .593-.374.988-.913.988H0Zm0-.964v-3.09h-1.011V2.99h2.097c1.11 0 1.85-.794 1.85-1.977 0-1.286-.667-1.977-1.85-1.977z" style="fill:#000;fill-opacity:1;fill-rule:nonzero;stroke:none" transform="matrix(.35278 0 0 -.35278 9.937 12.496)"/>
    <path d="M0 0v-1.78h1.035c.594 0 .914.322.914.891 0 .544-.37.889-.913.889Zm.962-2.744H0v-3.312h-1.011V.989h2.097c1.105 0 1.85-.742 1.85-1.878 0-.84-.346-1.459-1.012-1.706l1.011-3.461H1.9Z" style="fill:#000;fill-opacity:1;fill-rule:nonzero;stroke:none" transform="matrix(.35278 0 0 -.35278 11.827 11.79)"/>
    <path d="M0 0c-.201 0-1.109.041-1.109-2.647 0-2.708.908-2.666 1.109-2.666.201 0 1.108-.042 1.108 2.666C1.108.041.201 0 0 0m-2.079-2.642c0 3.689 1.711 3.63 2.09 3.63.38 0 2.068.056 2.068-3.632 0-3.715-1.688-3.657-2.068-3.657-.379 0-2.09-.058-2.09 3.659" style="fill:#000;fill-opacity:1;fill-rule:nonzero;stroke:none" transform="matrix(.35278 0 0 -.35278 13.969 11.747)"/>
    <path d="M0 0h1.016l-.52 2.027zm1.263-.989h-1.51l-.472-1.927h-1.015L.025 4.128h.992l1.758-7.044H1.759Z" style="fill:#000;fill-opacity:1;fill-rule:nonzero;stroke:none" transform="matrix(.35278 0 0 -.35278 15.612 12.898)"/>
    <path d="M0 0c-.098.692-.372 1.014-.844 1.014-.818 0-1.117-.643-1.117-2.471 0-2.027.348-2.843 1.217-2.843.596 0 .744.495.744 1.014h1.018C.993-4.448.249-5.289-.744-5.289c-1.514 0-2.185 1.211-2.185 3.807 0 2.273.72 3.483 2.11 3.483C.472 2.001.984.823 1.018 0z" style="fill:#000;fill-opacity:1;fill-rule:nonzero;stroke:none" transform="matrix(.35278 0 0 -.35278 17.923 12.104)"/>
    <path d="M0 0h-1.925v-3.189h-1.011v7.045h1.011V.989h1.924v2.867h1.012v-7.045H0Z" style="fill:#000;fill-opacity:1;fill-rule:nonzero;stroke:none" transform="matrix(.35278 0 0 -.35278 19.815 12.802)"/>
    <path d="M450.938 190.069h.986v-7.045h-.986z" style="fill:#000;fill-opacity:1;fill-rule:nonzero;stroke:none" transform="matrix(.35278 0 0 -.35278 -138.363 78.494)"/>
    <path d="M0 0v-4.721h-1.011v7.045H0l1.924-4.227v4.227h1.012v-7.045h-.765Z" style="fill:#000;fill-opacity:1;fill-rule:nonzero;stroke:none" transform="matrix(.35278 0 0 -.35278 21.97 12.261)"/>
    <path d="M0 0c-.641 0-2.184.119-2.184 3.633 0 3.515 1.467 3.657 2.109 3.657 1.018 0 1.788-.74 1.837-1.779H.744c-.025.471-.347.792-.843.792-.34 0-1.117-.106-1.117-2.671 0-2.564.851-2.644 1.191-2.644.521 0 .769.343.769 1.088v.469H-.05v.99h1.812V2.076C1.762.314.601 0 0 0" style="fill:#000;fill-opacity:1;fill-rule:nonzero;stroke:none" transform="matrix(.35278 0 0 -.35278 24.273 13.97)"/>
    <path d="m0 0-.669 3.682L-1.339 0h-.892l-1.117 7.044h.993l.595-3.757.694 3.757h.794l.669-3.757.62 3.757h.992L.868 0Z" style="fill:#000;fill-opacity:1;fill-rule:nonzero;stroke:none" transform="matrix(.35278 0 0 -.35278 12.875 18.043)"/>
    <path d="M0 0h-1.925v-3.189h-1.011v7.045h1.011V.989h1.924v2.867h1.012v-7.045H0Z" style="fill:#000;fill-opacity:1;fill-rule:nonzero;stroke:none" transform="matrix(.35278 0 0 -.35278 14.967 16.918)"/>
    <path d="M0 0h3.321v-.989H1.016v-1.779h1.462v-.965H1.016v-2.323h2.578v-.988H0Z" style="fill:#000;fill-opacity:1;fill-rule:nonzero;stroke:none" transform="matrix(.35278 0 0 -.35278 15.87 15.557)"/>
    <path d="M0 0v-4.721h-1.011v7.045H0l1.924-4.227v4.227h1.012v-7.045h-.765Z" style="fill:#000;fill-opacity:1;fill-rule:nonzero;stroke:none" transform="matrix(.35278 0 0 -.35278 17.918 16.377)"/>
    <path d="M0 0h1.413v-.964H0v-3.312h-1.016v7.044h3.594V1.78H0Z" style="fill:#000;fill-opacity:1;fill-rule:nonzero;stroke:none" transform="matrix(.35278 0 0 -.35278 9.293 20.65)"/>
    <path d="M0 0h1.016v-6.105h2.578v-.939H0Z" style="fill:#000;fill-opacity:1;fill-rule:nonzero;stroke:none" transform="matrix(.35278 0 0 -.35278 10.55 19.673)"/>
    <path d="M0 0h1.016l-.52 2.027zm1.263-.989h-1.51l-.472-1.927h-1.016l1.76 7.044h.992l1.758-7.044H1.759Z" style="fill:#000;fill-opacity:1;fill-rule:nonzero;stroke:none" transform="matrix(.35278 0 0 -.35278 12.58 21.13)"/>
    <path d="M0 0c.771-.483 1.926-1.161 1.926-2.551 0-1.14-.869-2.051-1.961-2.051-1.241 0-1.986 1.05-1.986 2.2h.993c0-.6.298-1.212.993-1.212.546 0 .992.494.992 1.063 0 1.531-2.63 1.443-2.63 3.411 0 1.014.794 1.828 1.811 1.828.994 0 1.763-.766 1.788-1.829H.957c-.025.495-.372.816-.819.816-.472 0-.843-.345-.843-.815C-.705.403-.462.29 0 0" style="fill:#000;fill-opacity:1;fill-rule:nonzero;stroke:none" transform="matrix(.35278 0 0 -.35278 14.495 20.579)"/>
    <path d="M0 0h-1.925v-3.188h-1.011v7.044h1.011V.989h1.924v2.867h1.012v-7.044H0Z" style="fill:#000;fill-opacity:1;fill-rule:nonzero;stroke:none" transform="matrix(.35278 0 0 -.35278 16.633 21.034)"/>
    <path d="M441.918 166.734h.986v-7.044h-.986z" style="fill:#000;fill-opacity:1;fill-rule:nonzero;stroke:none" transform="matrix(.35278 0 0 -.35278 -138.363 78.494)"/>
    <path d="M0 0v-4.721h-1.011v7.045H0l1.924-4.227v4.227h1.012v-7.045h-.765Z" style="fill:#000;fill-opacity:1;fill-rule:nonzero;stroke:none" transform="matrix(.35278 0 0 -.35278 18.787 20.493)"/>
    <path d="M0 0c-.641 0-2.185.119-2.185 3.633 0 3.515 1.468 3.657 2.11 3.657 1.018 0 1.788-.74 1.837-1.779H.744c-.025.471-.347.792-.843.792-.34 0-1.117-.106-1.117-2.671 0-2.564.851-2.644 1.19-2.644.522 0 .77.343.77 1.088v.469H-.05v.99h1.812V2.076C1.762.314.601 0 0 0" style="fill:#000;fill-opacity:1;fill-rule:nonzero;stroke:none" transform="matrix(.35278 0 0 -.35278 21.09 22.202)"/>
</svg>
