<svg width="51.603" height="89.853" viewBox="0 0 13.653 23.774" xmlns="http://www.w3.org/2000/svg">
    <defs>
        <clipPath clipPathUnits="userSpaceOnUse" id="a">
            <path d="M65.632 39h507.732v576.085H65.632Z" transform="translate(-423.95 -130.483)"/>
        </clipPath>
    </defs>
    <path d="M0 0a2.507 2.507 0 0 0-2.504 2.504v62.155A2.507 2.507 0 0 0 0 67.163h33.468a2.506 2.506 0 0 0 2.504-2.504V2.504A2.506 2.506 0 0 0 33.468 0Z" style="fill:#fcd116;fill-opacity:1;fill-rule:nonzero;stroke:none" transform="matrix(.35278 0 0 -.35278 .923 23.734)" clip-path="url(#a)"/>
    <path d="M0 0h-33.469a2.62 2.62 0 0 1-2.616-2.617v-62.156a2.62 2.62 0 0 1 2.616-2.617H0a2.62 2.62 0 0 1 2.617 2.617v62.156A2.62 2.62 0 0 1 0 0m0-.226a2.392 2.392 0 0 0 2.391-2.391v-62.156A2.39 2.39 0 0 0 0-67.163h-33.469a2.39 2.39 0 0 0-2.39 2.39v62.156a2.391 2.391 0 0 0 2.39 2.391z" style="fill:#000;fill-opacity:1;fill-rule:nonzero;stroke:none" transform="matrix(.35278 0 0 -.35278 12.73 0)"/>
    <path d="M0 0c-.988 0-1.793.805-1.793 1.793v62.156c0 .988.805 1.793 1.793 1.793h33.469c.988 0 1.793-.805 1.793-1.793V1.793C35.262.805 34.457 0 33.469 0Z" style="fill:#000;fill-opacity:1;fill-rule:nonzero;stroke:none" transform="matrix(.35278 0 0 -.35278 .923 23.483)"/>
    <path d="M0 0v13.547c0 .439.357.797.797.797h33.468c.44 0 .798-.358.798-.797V0Z" style="fill:#fcd116;fill-opacity:1;fill-rule:nonzero;stroke:none" transform="matrix(.35278 0 0 -.35278 .642 5.702)"/>
    <path d="M0 0v-47.613a.798.798 0 0 0-.797-.797h-33.468a.799.799 0 0 0-.798.797V0Z" style="fill:#fcd116;fill-opacity:1;fill-rule:nonzero;stroke:none" transform="matrix(.35278 0 0 -.35278 13.011 6.054)"/>
    <path d="M451.84 154.971h-19.922v1.195h19.922z" style="fill:#000;fill-opacity:1;fill-rule:evenodd;stroke:none" transform="matrix(.35278 0 0 -.35278 -148.637 69.765)"/>
    <path d="M0 0v-1.997h-9.041C-9.041.871-7.458 3-5.12 4.114c1.288.612 3.114.627 3.114 1.913 0 .822-.784 1.293-2.199 1.293-1.456 0-2.516-.352-3.461-1.213l-1.375 1.525c1.296 1.135 2.908 1.721 4.718 1.721C-1.689 9.353 0 8.061 0 6.026c0-1.324-.758-2.348-1.852-2.858C-3.374 2.462-5.254 2.63-6.604 0Z" style="fill:#000;fill-opacity:1;fill-rule:nonzero;stroke:none" transform="matrix(.35278 0 0 -.35278 6.55 19.335)"/>
    <path d="m0 0 .354 5.245h7.469l-.039-1.958H2.241l-.119-1.606c.904.193 1.455.274 2.163.274 2.556 0 4.403-1.722 4.403-4.031 0-2.348-1.967-4.032-4.718-4.032-1.532 0-2.908.39-4.324 1.252L.707-3.173a6.52 6.52 0 0 1 3.345-.899c1.725 0 2.625.837 2.625 1.959 0 .968-.54 2.033-2.393 2.033-.822 0-1.402-.09-2.28-.429z" style="fill:#000;fill-opacity:1;fill-rule:nonzero;stroke:none" transform="matrix(.35278 0 0 -.35278 7.227 17.954)"/>
    <path d="M0 0v2.081h-2.156V0h-.86v4.781h.86V2.936H0v1.845h.86V0Z" style="fill:#000;fill-opacity:1;fill-rule:nonzero;stroke:none" transform="matrix(.35278 0 0 -.35278 9.41 22.71)"/>
    <path d="M0 0v2.919L-1.414 0l-1.399 2.919V0h-.842v4.781h.842l1.399-2.835L0 4.781h.843V0Z" style="fill:#000;fill-opacity:1;fill-rule:nonzero;stroke:none" transform="matrix(.35278 0 0 -.35278 5.23 22.71)"/>
    <path d="M0 0v-1.191h1.444c.419 0 .704.235.704.587 0 .37-.279.604-.705.604Zm0-2.046v-1.88h-.872V.856h2.339c1.007 0 1.536-.767 1.536-1.451 0-.636-.474-1.451-1.499-1.451z" style="fill:#000;fill-opacity:1;fill-rule:nonzero;stroke:none" transform="matrix(.35278 0 0 -.35278 6.712 21.325)"/>
    <path d="m0 0 .331.191A.511.511 0 0 0 .88.164a.506.506 0 0 0 .249.488l.332.191c.24.14.552.056.691-.185l.843-1.461a.506.506 0 0 0-.185-.69l-.331-.192a.51.51 0 0 0-.549.028.509.509 0 0 0-.249-.489l-.332-.191a.508.508 0 0 0-.691.185L-.185-.691A.507.507 0 0 0 0 0" style="fill:#000;fill-opacity:1;fill-rule:nonzero;stroke:none" transform="matrix(.35278 0 0 -.35278 6.79 13.638)"/>
    <path d="m0 0 .331.191A.511.511 0 0 0 .88.164a.506.506 0 0 0 .249.488l.332.191c.24.14.552.056.691-.185l.843-1.461a.506.506 0 0 0-.185-.69l-.331-.192a.51.51 0 0 0-.549.028.508.508 0 0 0-.25-.489l-.331-.191a.508.508 0 0 0-.691.185L-.186-.691A.508.508 0 0 0 0 0" style="fill:#000;fill-opacity:1;fill-rule:nonzero;stroke:none" transform="matrix(.35278 0 0 -.35278 8.688 12.542)"/>
    <path d="m0 0 7.737 4.467 5.139-8.9L5.138-8.9Z" style="fill:#000;fill-opacity:1;fill-rule:nonzero;stroke:none" transform="matrix(.35278 0 0 -.35278 4.754 10.475)"/>
    <path d="M0 0h-3.187v2.197a11.817 11.817 0 0 0 3.468 8.376 11.801 11.801 0 0 0 8.376 3.468c1.308 0 2.595-.211 3.823-.63a11.806 11.806 0 0 0 3.306-1.755l-1.92-2.544a8.585 8.585 0 0 1-5.209 1.742c-2.312 0-4.486-.9-6.121-2.536A8.596 8.596 0 0 1 0 2.197Z" style="fill:#000;fill-opacity:1;fill-rule:nonzero;stroke:none" transform="matrix(.35278 0 0 -.35278 3.775 12.061)"/>
    <path d="M0 0a.598.598 0 0 1-1.14-.029l-.54-1.813-1.095.826-1.92-2.545 1.098-.829-1.601-1.023a.598.598 0 0 1 .287-1.105l7.278-.375z" style="fill:#000;fill-opacity:1;fill-rule:nonzero;stroke:none" transform="matrix(.35278 0 0 -.35278 10.323 7.59)"/>
    <path d="M0 0v6.375h4.669V5.234H1.167V4.049h1.908V2.886H1.167V1.141h3.614V0Z" style="fill:#000;fill-opacity:1;fill-rule:nonzero;stroke:none" transform="matrix(.35278 0 0 -.35278 3.385 4.297)"/>
    <path d="M443.427 191.955h1.147v-6.375h-1.147z" style="fill:#000;fill-opacity:1;fill-rule:nonzero;stroke:none" transform="matrix(.35278 0 0 -.35278 -148.637 69.765)"/>
    <path d="M0 0v-5.257h-1.117V0h-1.832v1.119h4.781V0Z" style="fill:#000;fill-opacity:1;fill-rule:nonzero;stroke:none" transform="matrix(.35278 0 0 -.35278 9.622 2.442)"/>
    <path d="m0 0-1.438 2.259L-2.853 0h-1.349l2.09 3.356-1.91 3.019h1.37l1.214-1.946 1.214 1.946h1.37L-.741 3.356 1.348 0Z" style="fill:#000;fill-opacity:1;fill-rule:nonzero;stroke:none" transform="matrix(.35278 0 0 -.35278 6.869 4.297)"/>
</svg>
