<svg xmlns="http://www.w3.org/2000/svg" width="79.424" height="80.007" viewBox="0 0 21.014 21.169">
    <defs>
        <clipPath id="a" clipPathUnits="userSpaceOnUse">
            <path d="M63 45h513v252.78H63Z"/>
        </clipPath>
    </defs>
    <g clip-path="url(#a)" transform="matrix(.35278 0 0 -.35278 -53.334 44.047)">
        <path style="fill:#fccf34;fill-opacity:1;fill-rule:nonzero;stroke:#fccf34;stroke-width:.5;stroke-linecap:butt;stroke-linejoin:miter;stroke-miterlimit:4;stroke-dasharray:none;stroke-opacity:1" d="m0 0-26.271 26.464c-1.264 1.279-3.377 1.275-4.643-.001L-57.179.002c-1.264-1.272-1.268-3.399-.002-4.671l26.269-26.463c1.26-1.264 3.381-1.272 4.641 0L0-4.668C1.362-3.299 1.135-1.398 0 0" transform="translate(209.564 97.187)"/>
        <path style="fill:#231f20;fill-opacity:1;fill-rule:evenodd;stroke:none" d="m0 0-26.273-26.462c-.943-.949-2.52-.947-3.467 0L-56.005.001c-.942.952-.95 2.534-.003 3.487l26.27 26.466c.94.943 2.527.946 3.465.001L-.002 3.488C.938 2.538.942.948 0 0" transform="translate(208.978 93.11)"/>
        <path style="fill:#fccf34;fill-opacity:1;fill-rule:evenodd;stroke:none" d="M0 0a1.11 1.11 0 0 1 0 1.528l-26.276 26.459a1.075 1.075 0 0 1-1.511-.001l-26.27-26.458a1.102 1.102 0 0 1 .002-1.529l26.27-26.462a1.072 1.072 0 0 1 1.509 0L0 0" transform="translate(208.004 94.094)"/>
        <path style="fill:#231f20;fill-opacity:1;fill-rule:evenodd;stroke:none" d="M0 0v1.187h-3.407v2.014h2.143v1.187h-2.143v1.807h3.174v1.161h-4.336V0Zm-6.297 0v7.356h-1.162V2.659l-2.684 4.697h-1.162V0h1.162v4.981L-7.33 0Zm-8.49 3.252h-1.471l.748 2.065zM-12.414 0l-2.53 7.356h-1.16L-18.633 0h1.238l.723 2.064h2.297L-13.653 0Zm-6.659 0v1.084h-3.406v6.272h-1.162V0Z" transform="translate(192.797 91.297)"/>
        <path style="fill:#231f20;fill-opacity:1;fill-rule:evenodd;stroke:none" d="M0 0c0 2.89-3.459 1.988-3.56 3.355-.053.671.592.877 1.135.853.826-.027 1.084-.646 1.084-.646l1.033.309C-.67 4.775-1.369 5.369-2.4 5.369c-1.316 0-2.297-.542-2.297-1.988 0-1.213.981-1.651 1.42-1.833.955-.386 2.09-.541 2.09-1.522 0-.619-.465-1.084-1.135-1.084-.697 0-1.266.388-1.574 1.084l-1.11-.413c.489-1.109 1.418-1.862 2.684-1.862.619 0 1.186.211 1.6.572C-.257-1.264 0-.67 0 0m-7.277 1.575c0-.981-.232-1.781-.672-2.22-.207-.206-.439-.283-.826-.283h-1.162v5.006h1.318c.309 0 .567-.129.748-.31.362-.387.594-1.213.594-2.193m1.187 0c0 1.445-.439 2.606-1.214 3.277-.387.31-.67.388-1.418.388h-2.375v-7.356H-8.439c.387.026.773.155 1.058.413.827.645 1.291 1.806 1.291 3.278m-6.736-3.691V5.24h-1.162V.543l-2.684 4.697h-1.162v-7.356h1.162v4.981l2.813-4.981zm-6.221 0v1.188h-3.406v2.012h2.141v1.187h-2.141v1.807h3.174V5.24h-4.336v-7.356z" transform="translate(192.771 82.424)"/>
        <path d="M0 0v.785h-2.994V0h1.075v-5.1h.845V0Zm-3.345-.041v.826h-2.994V-5.1h.847v2.767h1.176v.806h-1.176v1.486zM-7.33-5.1v.826h-2.148v1.941h1.221v.806h-1.221v1.486h1.922v.826h-2.768V-5.1Zm-3.798 0v.784h-2.153V.785h-.849V-5.1Z" style="fill:#231f20;fill-opacity:1;fill-rule:evenodd;stroke:none" transform="matrix(1.52397 0 0 1.25155 191.735 108.553)"/>
    </g>
</svg>
