<svg xmlns="http://www.w3.org/2000/svg" width="2160" height="1080">
    <path style="fill:#fcd116;fill-rule:nonzero;stroke:none" d="M2959.002 754.621c0 92.233-74.766 167.005-167.005 167.005H453.93c-92.235 0-167.004-74.772-167.004-167.005V-247.408c0-92.235 74.77-167.005 167.004-167.005h2338.068c92.24 0 167.005 74.77 167.005 167.005v1002.03z" transform="matrix(.80836 0 0 .80836 -231.938 334.995)"/>
    <path style="fill:#000;fill-rule:nonzero;stroke:none" d="M453.93 879.875c-69.066 0-125.254-56.188-125.254-125.254V-247.408c0-69.066 56.188-125.253 125.253-125.253h2338.068c69.06 0 125.254 56.187 125.254 125.253v1002.03c0 69.065-56.194 125.253-125.254 125.253H453.93z" transform="matrix(.80836 0 0 .80836 -231.938 334.995)"/>
    <path style="fill:#fcd116;fill-rule:nonzero;stroke:none" d="M453.93 810.29c-30.696 0-55.669-24.97-55.669-55.669V-247.408c0-30.696 24.973-55.668 55.668-55.668h2338.068c30.695 0 55.668 24.972 55.668 55.668v1002.03c0 30.697-24.973 55.667-55.668 55.667H453.93z" transform="matrix(.80836 0 0 .80836 -231.938 334.995)"/>
    <path style="fill:#000;fill-rule:nonzero;stroke:none" d="m1756.433 185.558-23.5 96.1h48.178l-24.678-96.1zm59.927 234.392-23.5-91.412h-71.675l-22.326 91.412h-48.174l83.423-334.008h47.003l83.422 334.008h-48.173zM1993.173 268.769h-47.952v104.305h47.952c26.906 0 44.442-18.753 44.442-48.051 0-31.643-19.886-56.254-44.442-56.254zm2.335-135.95h-50.287v89.07h50.287c22.22 0 36.261-18.752 36.261-49.222 0-28.127-10.53-39.848-36.261-39.848zm0 287.13h-98.24V85.943h105.26c44.442 0 76.018 35.159 76.018 86.725 0 30.47-8.18 44.534-35.086 72.66 25.73 21.097 40.931 49.225 40.931 83.21 0 50.396-39.756 91.413-88.883 91.413zM1566.49 166.806c-8.182-23.44-22.22-33.987-43.274-33.987h-39.764v240.255h39.764c28.07 0 43.273-22.269 47.953-48.051 2.34-21.097 4.677-44.536 4.677-70.32 0-37.502-3.505-73.833-9.357-87.897zm8.187 237.91c-11.696 10.547-28.069 15.234-46.781 15.234h-92.394V85.942h85.376c28.068 0 42.103 3.514 53.8 12.891 19.882 14.063 33.917 39.847 39.763 73.834 4.68 24.611 8.188 53.91 8.188 79.693 0 77.35-15.203 126.573-47.952 152.357zM1347.807 419.95l-102.92-223.844V419.95h-47.955V85.942h47.956l91.221 200.407V85.942h47.952V419.95h-36.254zM854.937 169.15c-8.263-29.298-21.25-42.19-41.32-42.19-21.246 0-34.232 12.892-42.496 41.018-8.264 25.784-10.625 48.051-10.625 85.553 0 36.331 3.543 57.426 10.625 84.382 8.264 28.127 21.25 41.02 42.497 41.02 20.07 0 33.056-12.893 41.32-41.02 8.266-26.956 10.624-46.879 10.624-85.553 0-37.503-3.542-58.598-10.625-83.21zm37.778 199.234c-16.528 39.848-41.317 57.426-79.097 57.426-40.139 0-63.747-17.578-80.274-57.426-14.168-32.815-18.889-64.458-18.889-116.024 0-50.395 4.721-84.382 18.889-116.025 17.709-39.846 41.32-56.254 80.274-56.254 38.961 0 62.57 16.408 79.097 57.425 14.167 32.816 18.891 64.46 18.891 114.854 0 51.566-4.724 84.381-18.891 116.024zM589.329 132.819h-49.123V217.2h49.123c28.069 0 43.272-15.236 43.272-42.19 0-25.784-17.543-42.192-43.272-42.192zm40.933 287.13-44.444-157.041h-45.612V419.95h-47.952V85.942h99.411c52.631 0 87.72 35.159 87.72 89.069 0 39.846-16.375 69.146-47.953 80.866l47.952 164.073h-49.122zM2692.552 130.476V419.95h-48.184V130.476h-61.127V85.942h170.438v44.534h-61.127zM1132.63 378.933c-16.373 26.956-47.953 46.877-79.527 46.877-32.752 0-65.5-18.75-81.873-46.877-9.357-17.58-12.866-31.643-12.866-58.599V85.942h47.952v240.252c0 31.642 18.713 52.739 46.787 52.739 25.728 0 44.441-21.097 44.441-52.74V85.942h47.954v234.392c0 26.956-3.512 41.019-12.869 58.599zM2259.948 169.15c-8.258-29.298-21.247-42.19-41.319-42.19-21.246 0-34.236 12.892-42.493 41.018-8.258 25.784-10.623 48.051-10.623 85.553 0 36.331 3.54 57.426 10.623 84.382 8.257 28.127 21.247 41.02 42.493 41.02 20.072 0 33.061-12.893 41.319-41.02 8.273-26.956 10.623-46.879 10.623-85.553 0-37.503-3.541-58.598-10.623-83.21zm37.777 199.234c-16.53 39.848-41.319 57.426-79.096 57.426-40.143 0-63.74-17.578-80.27-57.426-14.165-32.815-18.897-64.458-18.897-116.024 0-50.395 4.732-84.382 18.897-116.025 17.705-39.846 41.318-56.254 80.27-56.254 38.968 0 62.565 16.408 79.096 57.425 14.164 32.816 18.896 64.46 18.896 114.854 0 51.566-4.732 84.381-18.896 116.024zM2537.64 378.933c-16.376 26.956-47.953 46.877-79.529 46.877-32.736 0-65.487-18.75-81.863-46.877-9.355-17.58-12.866-31.643-12.866-58.599V85.942h47.952v240.252c0 31.642 18.711 52.739 46.777 52.739 25.731 0 44.442-21.097 44.442-52.74V85.942h47.952v234.392c0 26.956-3.51 41.019-12.866 58.599z" transform="matrix(.80836 0 0 .80836 -231.938 334.995)"/>
</svg>
