<svg width="96.664" height="96.667" viewBox="0 0 25.576 25.576" xmlns="http://www.w3.org/2000/svg">
    <defs>
        <clipPath clipPathUnits="userSpaceOnUse" id="a">
            <path d="M66.922 41h505.156v560.197H66.922Z" transform="translate(-492.195 -184.735)"/>
        </clipPath>
        <clipPath clipPathUnits="userSpaceOnUse" id="b">
            <path d="M66.922 41h505.156v560.197H66.922Z" transform="translate(-492.196 -257.11)"/>
        </clipPath>
        <clipPath clipPathUnits="userSpaceOnUse" id="c">
            <path d="M66.922 41h505.156v560.197H66.922Z" transform="translate(-458.29 -218.495)"/>
        </clipPath>
        <clipPath clipPathUnits="userSpaceOnUse" id="d">
            <path d="M66.922 41h505.156v560.197H66.922Z" transform="translate(-459.604 -219.809)"/>
        </clipPath>
    </defs>
    <path d="M0 0a4.551 4.551 0 0 0-3.242 1.344l-31.54 31.539a4.592 4.592 0 0 0 0 6.485l31.54 31.54A4.553 4.553 0 0 0 0 72.25a4.556 4.556 0 0 0 3.243-1.342l31.54-31.54a4.593 4.593 0 0 0 0-6.484L3.243 1.343A4.557 4.557 0 0 0 0 0" style="fill:#fcd116;fill-opacity:1;fill-rule:nonzero;stroke:none" transform="matrix(.35278 0 0 -.35278 12.788 25.533)" clip-path="url(#a)"/>
    <path d="M0 0a4.68 4.68 0 0 1-3.331-1.38l-31.54-31.539a4.683 4.683 0 0 1-1.379-3.331c0-1.258.49-2.441 1.379-3.331l31.54-31.54A4.683 4.683 0 0 1 0-72.5c1.258 0 2.441.49 3.331 1.379l31.54 31.54a4.717 4.717 0 0 1 0 6.662L3.331-1.38A4.68 4.68 0 0 1 0 0m0-.25a4.445 4.445 0 0 0 3.154-1.306l31.54-31.54a4.46 4.46 0 0 0 0-6.308l-31.54-31.54A4.445 4.445 0 0 0 0-72.25a4.445 4.445 0 0 0-3.154 1.306l-31.54 31.54a4.46 4.46 0 0 0 0 6.308l31.54 31.54A4.445 4.445 0 0 0 0-.25" style="fill:#000;fill-opacity:1;fill-rule:nonzero;stroke:none" transform="matrix(.35278 0 0 -.35278 12.788 0)" clip-path="url(#b)"/>
    <path d="M0 0a3.35 3.35 0 0 0 0 4.731l31.54 31.54a3.35 3.35 0 0 0 4.731 0l31.54-31.54a3.35 3.35 0 0 0 0-4.731l-31.54-31.54a3.35 3.35 0 0 0-4.731 0z" style="fill:#000;fill-opacity:1;fill-rule:nonzero;stroke:none" transform="matrix(.35278 0 0 -.35278 .827 13.623)" clip-path="url(#c)"/>
    <path d="M0 0c-.58.58-.58 1.523 0 2.103l31.54 31.539c.579.58 1.523.58 2.102 0l31.54-31.539c.58-.58.58-1.523 0-2.103l-31.54-31.54a1.489 1.489 0 0 0-2.102 0z" style="fill:#fcd116;fill-opacity:1;fill-rule:nonzero;stroke:none" transform="matrix(.35278 0 0 -.35278 1.29 13.16)" clip-path="url(#d)"/>
    <path d="M0 0h1.407v-7.606h4.126v-1.315H0Z" style="fill:#000;fill-opacity:1;fill-rule:nonzero;stroke:none" transform="matrix(.35278 0 0 -.35278 7.882 11.32)"/>
    <path d="M0 0h1.794L.912 2.503Zm2.297-1.44H-.504l-.882-2.504h-1.511L.188 4.977h1.418L4.69-3.944H3.179Z" style="fill:#000;fill-opacity:1;fill-rule:nonzero;stroke:none" transform="matrix(.35278 0 0 -.35278 11.045 13.075)"/>
    <path d="M0 0v-6.04h-1.407v8.92H0l3.256-5.697V2.88h1.409v-8.92H3.413Z" style="fill:#000;fill-opacity:1;fill-rule:nonzero;stroke:none" transform="matrix(.35278 0 0 -.35278 13.668 12.336)"/>
    <path d="M0 0h5.252v-1.408H1.407V-3.6h2.595v-1.439H1.407v-2.442h4.126v-1.44H0Z" style="fill:#000;fill-opacity:1;fill-rule:nonzero;stroke:none" transform="matrix(.35278 0 0 -.35278 16.069 11.32)"/>
    <path d="M0 0h5.252v-1.408H1.407V-3.6h2.595v-1.439H1.407v-2.442h4.126v-1.44H0Z" style="fill:#000;fill-opacity:1;fill-rule:nonzero;stroke:none" transform="matrix(.35278 0 0 -.35278 7.88 16.04)"/>
    <path d="M0 0v-6.04h-1.407v8.92H0l3.256-5.697V2.88h1.41v-8.92H3.413Z" style="fill:#000;fill-opacity:1;fill-rule:nonzero;stroke:none" transform="matrix(.35278 0 0 -.35278 10.864 17.056)"/>
    <path d="M0 0h-1.597v-6.072h1.498c1.298 0 1.724 1.573 1.724 3.252C1.625-2.022 1.397 0 0 0m-3.004-7.512v8.92H.214c2.252 0 2.855-2.965 2.855-4.259 0-3.347-1.721-4.661-2.849-4.661z" style="fill:#000;fill-opacity:1;fill-rule:nonzero;stroke:none" transform="matrix(.35278 0 0 -.35278 14.325 16.537)"/>
    <path d="m0 0 1.346.501C1.722-.345 2.41-.814 3.255-.814c.814 0 1.378.563 1.378 1.315 0 1.193-1.377 1.377-2.535 1.846-.532.22-1.722.752-1.722 2.223 0 1.754 1.189 2.408 2.785 2.408 1.253 0 2.098-.72 2.536-1.815l-1.252-.376c-.141.352-.65.783-1.315.783-1.272 0-1.38-.679-1.38-.902 0-.834.719-.999 1.889-1.366C4.83 2.927 6.073 2.38 6.073.467c0-1.926-1.561-2.721-2.818-2.721C1.721-2.254.594-1.346 0 0" style="fill:#000;fill-opacity:1;fill-rule:nonzero;stroke:none" transform="matrix(.35278 0 0 -.35278 15.88 18.447)"/>
    <path d="M0 0a4.798 4.798 0 0 0-4.567 3.33l4.263.918a.625.625 0 1 1 .432 1.16l-2.621 3.484A4.795 4.795 0 1 0 0 0m-4.795 4.795a4.78 4.78 0 0 0 1.55 3.53L-.819 5.1l-3.945-.849c-.02.178-.031.36-.031.544m-1.064-.78-1.875-.404 2.177 7.787 1.639-2.179a5.892 5.892 0 0 1-1.941-5.204m-2.67.25-.291 1.106h.454v.446h-1.436v-.446h.572l.289-1.097-6.178 6.724.304.978h8.442zm-6.079.53a4.795 4.795 0 1 0-2.235 4.055c-.589-1.278-1.737-2.654-2.565-3.429a.627.627 0 1 1 .626-.703c.405.379.934.937 1.456 1.606.389.497.874 1.185 1.243 1.931a4.782 4.782 0 0 0 1.475-3.46M0 10.705a5.88 5.88 0 0 1-3.166-.919l-2.072 2.754.272.972c1.299.112 2.017.605 1.973 1.083-.043.463-1.331.116-2.764.098-.393-.005-2.478.004-2.466-.378.013-.392 1.346-.712 2.28-.801l-.167-.596h-8.415l.47 1.544.23.76-.612.468.289.293h2.254v.744h-2.565l-1.1-1.115.705-.539a311.184 311.184 0 0 0-1.598-5.156 5.91 5.91 0 1 1 .807-.56c.061.184.128.388.198.606l6.359-6.922a.693.693 0 0 1 .667-.747l.445-1.693h-.454V.155h1.436v.446h-.572l-.471 1.794a.692.692 0 0 1 .234.238l2.142.461A5.911 5.911 0 1 1 0 10.705" style="fill:#000;fill-opacity:1;fill-rule:nonzero;stroke:none" transform="matrix(.35278 0 0 -.35278 16.342 10.008)"/>
</svg>
