<svg width="115.837" height="115.839" viewBox="0 0 30.649 30.649" xmlns="http://www.w3.org/2000/svg">
    <defs>
        <clipPath clipPathUnits="userSpaceOnUse" id="a">
            <path d="M71.35 38.683h504.514v445.105H71.35Z" transform="translate(-316.696 -135.748)"/>
        </clipPath>
        <clipPath clipPathUnits="userSpaceOnUse" id="b">
            <path d="M71.35 38.683h504.514v445.105H71.35Z" transform="translate(-316.696 -222.502)"/>
        </clipPath>
        <clipPath clipPathUnits="userSpaceOnUse" id="c">
            <path d="M71.35 38.683h504.514v445.105H71.35Z" transform="translate(-318.72 -137.812)"/>
        </clipPath>
        <clipPath clipPathUnits="userSpaceOnUse" id="d">
            <path d="M71.35 38.683h504.514v445.105H71.35Z" transform="translate(-317.63 -138.902)"/>
        </clipPath>
        <clipPath clipPathUnits="userSpaceOnUse" id="e">
            <path d="M71.35 38.683h504.514v445.105H71.35Z" transform="translate(-301.347 -193.152)"/>
        </clipPath>
        <clipPath clipPathUnits="userSpaceOnUse" id="f">
            <path d="M71.35 38.683h504.514v445.105H71.35Z" transform="translate(-306.553 -197.354)"/>
        </clipPath>
        <clipPath clipPathUnits="userSpaceOnUse" id="g">
            <path d="M71.35 38.683h504.514v445.105H71.35Z" transform="translate(-311.69 -196.266)"/>
        </clipPath>
        <clipPath clipPathUnits="userSpaceOnUse" id="h">
            <path d="M71.35 38.683h504.514v445.105H71.35Z" transform="translate(-317.561 -197.354)"/>
        </clipPath>
        <clipPath clipPathUnits="userSpaceOnUse" id="i">
            <path d="M71.35 38.683h504.514v445.105H71.35Z" transform="translate(-322.987 -197.354)"/>
        </clipPath>
        <clipPath clipPathUnits="userSpaceOnUse" id="j">
            <path d="M71.35 38.683h504.514v445.105H71.35Z"/>
        </clipPath>
        <clipPath clipPathUnits="userSpaceOnUse" id="k">
            <path d="M71.35 38.683h504.514v445.105H71.35Z" transform="translate(-329.979 -196.686)"/>
        </clipPath>
        <clipPath clipPathUnits="userSpaceOnUse" id="l">
            <path d="M71.35 38.683h504.514v445.105H71.35Z" transform="translate(-295.514 -189.63)"/>
        </clipPath>
        <clipPath clipPathUnits="userSpaceOnUse" id="m">
            <path d="M71.35 38.683h504.514v445.105H71.35Z" transform="translate(-302.192 -187.355)"/>
        </clipPath>
        <clipPath clipPathUnits="userSpaceOnUse" id="n">
            <path d="M71.35 38.683h504.514v445.105H71.35Z" transform="translate(-309.663 -182.585)"/>
        </clipPath>
        <clipPath clipPathUnits="userSpaceOnUse" id="o">
            <path d="M71.35 38.683h504.514v445.105H71.35Z" transform="translate(-312.359 -189.63)"/>
        </clipPath>
        <clipPath clipPathUnits="userSpaceOnUse" id="p">
            <path d="M71.35 38.683h504.514v445.105H71.35Z" transform="translate(-320.436 -186.787)"/>
        </clipPath>
        <clipPath clipPathUnits="userSpaceOnUse" id="q">
            <path d="M71.35 38.683h504.514v445.105H71.35Z"/>
        </clipPath>
        <clipPath clipPathUnits="userSpaceOnUse" id="r">
            <path d="M71.35 38.683h504.514v445.105H71.35Z" transform="translate(-327.848 -187.355)"/>
        </clipPath>
        <clipPath clipPathUnits="userSpaceOnUse" id="s">
            <path d="M71.35 38.683h504.514v445.105H71.35Z" transform="translate(-335.635 -189.752)"/>
        </clipPath>
        <clipPath clipPathUnits="userSpaceOnUse" id="t">
            <path d="M71.35 38.683h504.514v445.105H71.35Z" transform="translate(-308.847 -172.018)"/>
        </clipPath>
        <clipPath clipPathUnits="userSpaceOnUse" id="u">
            <path d="M71.35 38.683h504.514v445.105H71.35Z" transform="translate(-315.62 -175.083)"/>
        </clipPath>
        <clipPath clipPathUnits="userSpaceOnUse" id="v">
            <path d="M71.35 38.683h504.514v445.105H71.35Z" transform="translate(-318.423 -179.063)"/>
        </clipPath>
        <clipPath clipPathUnits="userSpaceOnUse" id="w">
            <path d="M71.35 38.683h504.514v445.105H71.35Z" transform="translate(-325.1 -176.788)"/>
        </clipPath>
        <clipPath clipPathUnits="userSpaceOnUse" id="x">
            <path d="M71.35 38.683h504.514v445.105H71.35Z" transform="translate(-296.641 -165.654)"/>
        </clipPath>
        <clipPath clipPathUnits="userSpaceOnUse" id="y">
            <path d="M71.35 38.683h504.514v445.105H71.35Z" transform="translate(-300.956 -168.496)"/>
        </clipPath>
        <clipPath clipPathUnits="userSpaceOnUse" id="z">
            <path d="M71.35 38.683h504.514v445.105H71.35Z" transform="translate(-308.036 -164.566)"/>
        </clipPath>
        <clipPath clipPathUnits="userSpaceOnUse" id="A">
            <path d="M71.35 38.683h504.514v445.105H71.35Z" transform="translate(-312.303 -163.104)"/>
        </clipPath>
        <clipPath clipPathUnits="userSpaceOnUse" id="B">
            <path d="M71.35 38.683h504.514v445.105H71.35Z" transform="translate(-321.98 -164.517)"/>
        </clipPath>
        <clipPath clipPathUnits="userSpaceOnUse" id="C">
            <path d="M71.35 38.683h504.514v445.105H71.35Z"/>
        </clipPath>
        <clipPath clipPathUnits="userSpaceOnUse" id="D">
            <path d="M71.35 38.683h504.514v445.105H71.35Z" transform="translate(-328.712 -166.222)"/>
        </clipPath>
        <clipPath clipPathUnits="userSpaceOnUse" id="E">
            <path d="M71.35 38.683h504.514v445.105H71.35Z" transform="translate(-336.5 -168.618)"/>
        </clipPath>
    </defs>
    <path d="M0 0a4.062 4.062 0 0 0-2.891 1.197l-39.227 39.227a4.094 4.094 0 0 0 0 5.781l39.227 39.227A4.062 4.062 0 0 0 0 86.629a4.06 4.06 0 0 0 2.89-1.197l39.228-39.227a4.094 4.094 0 0 0 0-5.781L2.89 1.197A4.06 4.06 0 0 0 0 0" style="fill:#fcd116;fill-opacity:1;fill-rule:nonzero;stroke:none" transform="matrix(.35278 0 0 -.35278 15.324 30.605)" clip-path="url(#a)"/>
    <path d="M0 0a4.185 4.185 0 0 1-2.979-1.234l-39.227-39.227a4.184 4.184 0 0 1-1.233-2.978c0-1.126.438-2.183 1.233-2.979l39.227-39.227A4.185 4.185 0 0 1 0-86.879c1.125 0 2.183.438 2.979 1.234l39.227 39.227a4.187 4.187 0 0 1 1.233 2.979 4.184 4.184 0 0 1-1.233 2.978L2.979-1.234A4.185 4.185 0 0 1 0 0m0-.25a3.953 3.953 0 0 0 2.802-1.16l39.227-39.227a3.964 3.964 0 0 0 0-5.604L2.802-85.468A3.95 3.95 0 0 0 0-86.629a3.95 3.95 0 0 0-2.802 1.161l-39.227 39.227a3.964 3.964 0 0 0 0 5.604L-2.802-1.41A3.953 3.953 0 0 0 0-.25" style="fill:#000;fill-opacity:1;fill-rule:nonzero;stroke:none" transform="matrix(.35278 0 0 -.35278 15.324 0)" clip-path="url(#b)"/>
    <path d="M0 0a2.864 2.864 0 0 0-4.047 0l-39.227 39.227a2.864 2.864 0 0 0 0 4.047l39.227 39.227a2.864 2.864 0 0 0 4.047 0l39.227-39.227a2.864 2.864 0 0 0 0-4.047z" style="fill:#000;fill-opacity:1;fill-rule:nonzero;stroke:none" transform="matrix(.35278 0 0 -.35278 16.038 29.877)" clip-path="url(#c)"/>
    <path d="M0 0a1.322 1.322 0 0 0-1.868 0l-39.227 39.227a1.322 1.322 0 0 0 0 1.868l39.227 39.227a1.322 1.322 0 0 0 1.868 0l39.227-39.227a1.322 1.322 0 0 0 0-1.868z" style="fill:#fcd116;fill-opacity:1;fill-rule:nonzero;stroke:none" transform="matrix(.35278 0 0 -.35278 15.654 29.492)" clip-path="url(#d)"/>
    <path d="M0 0h-1.117v6.055H-2.73v.989h4.369v-.989H0Z" style="fill:#000;fill-opacity:1;fill-rule:nonzero;stroke:none" transform="matrix(.35278 0 0 -.35278 9.91 10.354)" clip-path="url(#e)"/>
    <path d="M0 0c.884 0 1.023.637 1.023.865 0 .307-.23.865-.969.865h-1.453V0Zm-1.399-1.136v-3.066H-2.51v7.044H.038c1.615 0 2.099-1.291 2.099-1.978C2.137.602 2.04-.428 1.043-.9l1.242-3.302H1.073L-.063-1.136z" style="fill:#000;fill-opacity:1;fill-rule:nonzero;stroke:none" transform="matrix(.35278 0 0 -.35278 11.746 8.872)" clip-path="url(#f)"/>
    <path d="M0 0h1.417L.72 1.977Zm1.814-1.137H-.398l-.697-1.977h-1.193L.149 3.93h1.119l2.435-7.044H2.51Z" style="fill:#000;fill-opacity:1;fill-rule:nonzero;stroke:none" transform="matrix(.35278 0 0 -.35278 13.558 9.255)" clip-path="url(#g)"/>
    <path d="M0 0h2.049v-1.137H0v-3.065h-1.111v7.044h4.369V1.73H0Z" style="fill:#000;fill-opacity:1;fill-rule:nonzero;stroke:none" transform="matrix(.35278 0 0 -.35278 15.63 8.872)" clip-path="url(#h)"/>
    <path d="M0 0h2.049v-1.137H0v-3.065h-1.111v7.044h4.369V1.73H0Z" style="fill:#000;fill-opacity:1;fill-rule:nonzero;stroke:none" transform="matrix(.35278 0 0 -.35278 17.544 8.872)" clip-path="url(#i)"/>
    <path d="M327.303 200.196h1.127v-7.044h-1.127z" style="fill:#000;fill-opacity:1;fill-rule:nonzero;stroke:none" transform="matrix(.35278 0 0 -.35278 -96.4 78.494)" clip-path="url(#j)"/>
    <path d="M0 0c0 .991.199 3.632 2.595 3.632 1.021 0 1.717-.415 2.2-1.433l-1.038-.445c-.36.518-.54.742-1.161.742-1.474 0-1.458-2.055-1.458-2.497 0-.437-.028-2.522 1.507-2.522.538 0 .847.325 1.088.816l1.062-.395c-.396-.98-1.062-1.556-2.126-1.556C.134-3.658 0-.858 0 0" style="fill:#000;fill-opacity:1;fill-rule:nonzero;stroke:none" transform="matrix(.35278 0 0 -.35278 20.01 9.107)" clip-path="url(#k)"/>
    <path d="M0 0h4.147v-1.112H1.111v-1.73H3.16v-1.137H1.111v-1.929h3.258v-1.136H0Z" style="fill:#000;fill-opacity:1;fill-rule:nonzero;stroke:none" transform="matrix(.35278 0 0 -.35278 7.852 11.597)" clip-path="url(#l)"/>
    <path d="M0 0v-4.77h-1.111v7.045H0l2.571-4.499v4.499h1.113V-4.77h-.989Z" style="fill:#000;fill-opacity:1;fill-rule:nonzero;stroke:none" transform="matrix(.35278 0 0 -.35278 10.207 12.4)" clip-path="url(#m)"/>
    <path d="M0 0h-1.117v6.056H-2.73v.988h4.369v-.988H0Z" style="fill:#000;fill-opacity:1;fill-rule:nonzero;stroke:none" transform="matrix(.35278 0 0 -.35278 12.843 14.082)" clip-path="url(#n)"/>
    <path d="M0 0h4.147v-1.112H1.111v-1.73H3.16v-1.137H1.111v-1.929h3.258v-1.136H0Z" style="fill:#000;fill-opacity:1;fill-rule:nonzero;stroke:none" transform="matrix(.35278 0 0 -.35278 13.794 11.597)" clip-path="url(#o)"/>
    <path d="M0 0c.884 0 1.023.638 1.023.865 0 .307-.23.865-.969.865h-1.453V0Zm-1.399-1.136v-3.066H-2.51v7.044H.038c1.615 0 2.099-1.291 2.099-1.978C2.137.602 2.04-.428 1.043-.9l1.242-3.302H1.073L-.063-1.136z" style="fill:#000;fill-opacity:1;fill-rule:nonzero;stroke:none" transform="matrix(.35278 0 0 -.35278 16.644 12.6)" clip-path="url(#p)"/>
    <path d="M323.919 189.629h1.127v-7.044h-1.127z" style="fill:#000;fill-opacity:1;fill-rule:nonzero;stroke:none" transform="matrix(.35278 0 0 -.35278 -96.4 78.494)" clip-path="url(#q)"/>
    <path d="M0 0v-4.77h-1.111v7.045H0l2.571-4.499v4.499h1.113V-4.77h-.989Z" style="fill:#000;fill-opacity:1;fill-rule:nonzero;stroke:none" transform="matrix(.35278 0 0 -.35278 19.258 12.4)" clip-path="url(#r)"/>
    <path d="M0 0c1.129 0 1.765-.428 2.242-1.557l-1.063-.419c-.297.618-.593.84-1.137.84-1.548 0-1.459-2.356-1.459-2.521 0-.265-.06-2.496 1.31-2.496.717 0 1.237.444 1.237 1.087v.296H-.156v1.113h2.397v-1.409c0-1.285-.939-2.224-2.225-2.224-.256 0-2.569-.211-2.569 3.645C-2.553-3.105-2.524 0 0 0" style="fill:#000;fill-opacity:1;fill-rule:nonzero;stroke:none" transform="matrix(.35278 0 0 -.35278 22.006 11.554)" clip-path="url(#s)"/>
    <path d="m0 0-1.117 4.523L-2.207 0H-3.2l-1.041 7.044H-3.1l.546-3.708.892 3.708H-.57l.916-3.708.546 3.708h1.14L.991 0Z" style="fill:#000;fill-opacity:1;fill-rule:nonzero;stroke:none" transform="matrix(.35278 0 0 -.35278 12.555 17.81)" clip-path="url(#t)"/>
    <path d="M0 0h-2.572v-3.065h-1.111v7.044h1.111V1.137h2.571v2.842h1.113v-7.044H0Z" style="fill:#000;fill-opacity:1;fill-rule:nonzero;stroke:none" transform="matrix(.35278 0 0 -.35278 14.945 16.728)" clip-path="url(#u)"/>
    <path d="M0 0h4.147v-1.112H1.111v-1.73H3.16v-1.137H1.111v-1.929h3.258v-1.136H0Z" style="fill:#000;fill-opacity:1;fill-rule:nonzero;stroke:none" transform="matrix(.35278 0 0 -.35278 15.933 15.324)" clip-path="url(#v)"/>
    <path d="M0 0v-4.77h-1.111v7.045H0l2.571-4.499v4.499h1.113V-4.77h-.989Z" style="fill:#000;fill-opacity:1;fill-rule:nonzero;stroke:none" transform="matrix(.35278 0 0 -.35278 18.29 16.127)" clip-path="url(#w)"/>
    <path d="M0 0h2.049v-1.137H0v-3.065h-1.111v7.044h4.369V1.73H0Z" style="fill:#000;fill-opacity:1;fill-rule:nonzero;stroke:none" transform="matrix(.35278 0 0 -.35278 8.25 20.055)" clip-path="url(#x)"/>
    <path d="M0 0h1.111v-6.006h3.258v-1.038H0Z" style="fill:#000;fill-opacity:1;fill-rule:nonzero;stroke:none" transform="matrix(.35278 0 0 -.35278 9.772 19.052)" clip-path="url(#y)"/>
    <path d="M0 0h1.417L.72 1.977Zm1.814-1.137H-.398l-.696-1.978h-1.194L.149 3.93h1.119l2.435-7.045H2.51Z" style="fill:#000;fill-opacity:1;fill-rule:nonzero;stroke:none" transform="matrix(.35278 0 0 -.35278 12.27 20.439)" clip-path="url(#z)"/>
    <path d="m0 0 1.062.395c.297-.667.842-1.037 1.508-1.037.642 0 1.09.444 1.09 1.037 0 .941-1.09 1.085-2.003 1.456-.42.172-1.358.593-1.358 1.752 0 1.384.938 1.901 2.197 1.901.987 0 1.654-.568 2-1.431l-.988-.296c-.163.318-.504.617-1.096.617-.853 0-1.03-.465-1.03-.711 0-.658.568-.789 1.49-1.078.939-.295 1.923-.728 1.923-2.235 0-1.52-1.234-2.147-2.225-2.147C1.36-1.777.469-1.062 0 0" style="fill:#000;fill-opacity:1;fill-rule:nonzero;stroke:none" transform="matrix(.35278 0 0 -.35278 13.775 20.954)" clip-path="url(#A)"/>
    <path d="M0 0h-2.572v-3.065h-1.111v7.044h1.111V1.137h2.571v2.842h1.113v-7.044H0Z" style="fill:#000;fill-opacity:1;fill-rule:nonzero;stroke:none" transform="matrix(.35278 0 0 -.35278 17.188 20.456)" clip-path="url(#B)"/>
    <path d="M324.783 168.495h1.127v-7.044h-1.127z" style="fill:#000;fill-opacity:1;fill-rule:nonzero;stroke:none" transform="matrix(.35278 0 0 -.35278 -96.4 78.494)" clip-path="url(#C)"/>
    <path d="M0 0v-4.77h-1.111v7.044H0l2.571-4.498v4.498h1.113V-4.77h-.989Z" style="fill:#000;fill-opacity:1;fill-rule:nonzero;stroke:none" transform="matrix(.35278 0 0 -.35278 19.563 19.855)" clip-path="url(#D)"/>
    <path d="M0 0c1.129 0 1.765-.428 2.242-1.557l-1.063-.419c-.297.618-.593.84-1.137.84-1.548 0-1.459-2.356-1.459-2.521 0-.265-.06-2.496 1.31-2.496.717 0 1.237.444 1.237 1.087v.296H-.156v1.113h2.397v-1.409c0-1.284-.939-2.224-2.225-2.224-.256 0-2.569-.21-2.569 3.645C-2.553-3.105-2.524 0 0 0" style="fill:#000;fill-opacity:1;fill-rule:nonzero;stroke:none" transform="matrix(.35278 0 0 -.35278 22.31 19.009)" clip-path="url(#E)"/>
</svg>
