<?xml version="1.0" encoding="UTF-8" standalone="no"?>
<!-- Created with Inkscape (http://www.inkscape.org/) -->

<svg
   xmlns:dc="http://purl.org/dc/elements/1.1/"
   xmlns:cc="http://creativecommons.org/ns#"
   xmlns:rdf="http://www.w3.org/1999/02/22-rdf-syntax-ns#"
   xmlns:svg="http://www.w3.org/2000/svg"
   xmlns="http://www.w3.org/2000/svg"
   xmlns:sodipodi="http://sodipodi.sourceforge.net/DTD/sodipodi-0.dtd"
   xmlns:inkscape="http://www.inkscape.org/namespaces/inkscape"
   width="198.4286mm"
   height="198.4286mm"
   viewBox="0 0 198.4286 198.4286"
   version="1.1"
   id="svg2405"
   sodipodi:docname="MUTCD_W9-2 (1961 final).svg"
   inkscape:version="0.92.3 (2405546, 2018-03-11)">
  <defs
     id="defs2399" />
  <sodipodi:namedview
     id="base"
     pagecolor="#ffffff"
     bordercolor="#666666"
     borderopacity="1.0"
     inkscape:pageopacity="0.0"
     inkscape:pageshadow="2"
     inkscape:zoom="0.49497475"
     inkscape:cx="286.06244"
     inkscape:cy="404.72366"
     inkscape:document-units="mm"
     inkscape:current-layer="layer1"
     showgrid="false"
     fit-margin-top="0"
     fit-margin-left="0"
     fit-margin-right="0"
     fit-margin-bottom="0"
     inkscape:window-width="1366"
     inkscape:window-height="745"
     inkscape:window-x="-8"
     inkscape:window-y="-8"
     inkscape:window-maximized="1" />
  <metadata
     id="metadata2402">
    <rdf:RDF>
      <cc:Work
         rdf:about="">
        <dc:format>image/svg+xml</dc:format>
        <dc:type
           rdf:resource="http://purl.org/dc/dcmitype/StillImage" />
        <dc:title></dc:title>
      </cc:Work>
    </rdf:RDF>
  </metadata>
  <g
     inkscape:label="Layer 1"
     inkscape:groupmode="layer"
     id="layer1"
     transform="translate(34.10697,-132.67836)">
    <rect
       style="fill:#ffd116;fill-opacity:1;stroke:none;stroke-width:0.26458332;stroke-miterlimit:4;stroke-dasharray:none;stroke-dashoffset:0;stroke-opacity:1"
       id="rect2950"
       width="148.04266"
       height="148.04266"
       x="43.913704"
       y="-284.03204"
       rx="13.229167"
       ry="13.229167"
       transform="rotate(135)" />
    <rect
       style="fill:#000000;fill-opacity:1;stroke:none;stroke-width:0.26458332;stroke-miterlimit:4;stroke-dasharray:none;stroke-dashoffset:0;stroke-opacity:1"
       id="rect2950-7"
       width="145.40312"
       height="145.40312"
       x="45.233475"
       y="-282.71228"
       rx="11.90626"
       ry="11.90626"
       transform="rotate(135)" />
    <rect
       style="fill:#ffd116;fill-opacity:1;stroke:none;stroke-width:0.26458329;stroke-miterlimit:4;stroke-dasharray:none;stroke-dashoffset:0;stroke-opacity:1"
       id="rect2950-7-6"
       width="137.46556"
       height="137.46556"
       x="49.202255"
       y="-278.7435"
       rx="7.9375"
       ry="7.9375"
       transform="rotate(135)" />
    <flowRoot
       xml:space="preserve"
       id="flowRoot3004"
       style="font-style:normal;font-variant:normal;font-weight:normal;font-stretch:normal;font-size:20px;line-height:1.25;font-family:'Roadgeek 2005 Series C';-inkscape-font-specification:'Roadgeek 2005 Series C';letter-spacing:0px;word-spacing:0px;fill:#000000;fill-opacity:1;stroke:none"
       transform="matrix(0.26458333,0,0,0.26458333,-35.018256,93.893122)"><flowRegion
         id="flowRegion3006"><rect
           id="rect3008"
           width="271.42856"
           height="25.714285"
           x="882.85712"
           y="331.42905" /></flowRegion><flowPara
         id="flowPara3010" /></flowRoot>    <path
       inkscape:connector-curvature="0"
       id="path983"
       style="font-style:normal;font-variant:normal;font-weight:normal;font-stretch:normal;font-size:medium;line-height:1.25;font-family:'Roadgeek 2005 Series C';-inkscape-font-specification:'Roadgeek 2005 Series C';letter-spacing:0px;word-spacing:0px;fill:#000000;fill-opacity:1;stroke:none;stroke-width:0.26458335"
       d="m 14.402999,222.59539 c 0,-4.62258 -2.716363,-8.10144 -8.8639223,-11.6756 -2.3351194,-1.33435 -3.0022964,-2.23981 -3.0022964,-3.81244 0,-2.09684 1.6679425,-3.66947 3.7647844,-3.66947 2.0491865,0 3.6218179,1.42966 3.7171293,3.66947 h 4.384305 c -0.142966,-4.8132 -3.574162,-8.29205 -8.1014343,-8.29205 -4.5749278,0 -8.1490902,3.71712 -8.1490902,8.29205 0,2.81168 1.33435393,5.28976 3.9077509,7.05302 6.5288032,4.3843 4.7178943,3.14526 5.3850713,3.81244 1.9062199,1.47732 2.5733973,2.81167 2.5733973,4.62258 0,2.5734 -2.0015313,4.8132 -4.4796173,4.8132 -3.1452629,0 -4.4796168,-2.81167 -4.4796168,-5.48038 H -3.420157 c 0,5.24211 3.33588492,9.96 8.9592337,9.96 4.9085163,0 8.8639223,-4.14603 8.8639223,-9.29282 z" />
    <path
       inkscape:connector-curvature="0"
       id="path985"
       style="font-style:normal;font-variant:normal;font-weight:normal;font-stretch:normal;font-size:medium;line-height:1.25;font-family:'Roadgeek 2005 Series C';-inkscape-font-specification:'Roadgeek 2005 Series C';letter-spacing:0px;word-spacing:0px;fill:#000000;fill-opacity:1;stroke:none;stroke-width:0.26458335"
       d="m 36.997662,207.9175 c -0.333589,-2.90699 -0.810144,-4.289 -2.001531,-5.86163 -1.477321,-2.09684 -3.717129,-3.24057 -6.290526,-3.24057 -6.290526,0 -9.5311,5.48038 -9.5311,15.82162 0,11.77091 3.049952,17.25129 9.864689,17.25129 4.479616,0 7.863157,-3.81244 7.958468,-9.1022 h -4.574928 c 0,2.38278 -0.714833,4.62258 -3.38354,4.62258 -3.907751,0 -5.480383,-3.71712 -5.480383,-12.91464 0,-8.29205 1.334354,-11.19904 5.051483,-11.19904 2.096842,0 3.335885,1.47732 3.81244,4.62259 z" />
    <path
       inkscape:connector-curvature="0"
       id="path987"
       style="font-style:normal;font-variant:normal;font-weight:normal;font-stretch:normal;font-size:medium;line-height:1.25;font-family:'Roadgeek 2005 Series C';-inkscape-font-specification:'Roadgeek 2005 Series C';letter-spacing:0px;word-spacing:0px;fill:#000000;fill-opacity:1;stroke:none;stroke-width:0.26458335"
       d="m 61.306435,231.31635 v -31.92919 h -4.574928 v 13.00995 h -8.768612 v -13.00995 h -4.574928 v 31.92919 h 4.574928 v -14.43962 h 8.768612 v 14.43962 z" />
    <path
       inkscape:connector-curvature="0"
       id="path989"
       style="font-style:normal;font-variant:normal;font-weight:normal;font-stretch:normal;font-size:medium;line-height:1.25;font-family:'Roadgeek 2005 Series C';-inkscape-font-specification:'Roadgeek 2005 Series C';letter-spacing:0px;word-spacing:0px;fill:#000000;fill-opacity:1;stroke:none;stroke-width:0.26458335"
       d="m 86.396309,215.3041 c 0,-4.81321 -0.476555,-7.86316 -1.810909,-11.00842 -1.572631,-3.90775 -3.81244,-5.48038 -7.481913,-5.48038 -3.717129,0 -5.956938,1.57263 -7.62488,5.38507 -1.334354,3.04995 -1.810909,6.29052 -1.810909,11.10373 0,4.90851 0.476555,7.95847 1.810909,11.10373 1.572631,3.76478 3.81244,5.48038 7.62488,5.48038 3.574162,0 5.909282,-1.7156 7.481913,-5.48038 1.334354,-3.04995 1.810909,-6.19522 1.810909,-11.10373 z m -4.384306,0 c 0,3.66947 -0.238277,5.57569 -1.000765,8.14909 -0.810144,2.71636 -2.001531,3.9554 -3.907751,3.9554 -2.049187,0 -3.28823,-1.23904 -4.050718,-3.9554 -0.667177,-2.5734 -1.000765,-4.57493 -1.000765,-8.05378 0,-3.57416 0.238277,-5.71866 1.000765,-8.14909 0.762488,-2.71636 2.001531,-3.95541 4.050718,-3.95541 1.90622,0 3.097607,1.23905 3.907751,4.05072 0.667177,2.33512 1.000765,4.38431 1.000765,7.95847 z" />
    <path
       inkscape:connector-curvature="0"
       id="path991"
       style="font-style:normal;font-variant:normal;font-weight:normal;font-stretch:normal;font-size:medium;line-height:1.25;font-family:'Roadgeek 2005 Series C';-inkscape-font-specification:'Roadgeek 2005 Series C';letter-spacing:0px;word-spacing:0px;fill:#000000;fill-opacity:1;stroke:none;stroke-width:0.26458335"
       d="m 110.96867,215.3041 c 0,-4.81321 -0.47655,-7.86316 -1.81091,-11.00842 -1.57263,-3.90775 -3.81244,-5.48038 -7.48191,-5.48038 -3.717127,0 -5.956936,1.57263 -7.624878,5.38507 -1.334354,3.04995 -1.810909,6.29052 -1.810909,11.10373 0,4.90851 0.476555,7.95847 1.810909,11.10373 1.572631,3.76478 3.81244,5.48038 7.624878,5.48038 3.57416,0 5.90928,-1.7156 7.48191,-5.48038 1.33436,-3.04995 1.81091,-6.19522 1.81091,-11.10373 z m -4.3843,0 c 0,3.66947 -0.23828,5.57569 -1.00077,8.14909 -0.81014,2.71636 -2.00153,3.9554 -3.90775,3.9554 -2.049185,0 -3.288228,-1.23904 -4.050716,-3.9554 -0.667177,-2.5734 -1.000765,-4.57493 -1.000765,-8.05378 0,-3.57416 0.238277,-5.71866 1.000765,-8.14909 0.762488,-2.71636 2.001531,-3.95541 4.050716,-3.95541 1.90622,0 3.09761,1.23905 3.90775,4.05072 0.66718,2.33512 1.00077,4.38431 1.00077,7.95847 z" />
    <path
       inkscape:connector-curvature="0"
       id="path993"
       style="font-style:normal;font-variant:normal;font-weight:normal;font-stretch:normal;font-size:medium;line-height:1.25;font-family:'Roadgeek 2005 Series C';-inkscape-font-specification:'Roadgeek 2005 Series C';letter-spacing:0px;word-spacing:0px;fill:#000000;fill-opacity:1;stroke:none;stroke-width:0.26458335"
       d="m 133.63483,231.31635 v -4.24134 h -11.6756 v -27.68785 h -4.57493 v 31.92919 z" />
    <path
       inkscape:connector-curvature="0"
       id="path966"
       style="font-style:normal;font-variant:normal;font-weight:normal;font-stretch:normal;font-size:medium;line-height:1.25;font-family:'Roadgeek 2005 Series B';-inkscape-font-specification:'Roadgeek 2005 Series B';letter-spacing:0px;word-spacing:0px;fill:#000000;fill-opacity:1;stroke:none;stroke-width:0.26458338"
       d="m 20.689557,265.06643 h -3.331223 c 0,2.25911 -0.536059,3.17807 -1.723046,3.17807 -1.072118,0 -1.684756,-0.91896 -2.067656,-2.60372 -0.459479,-2.18252 -0.536059,-3.71412 -0.536059,-7.31337 0,-3.4078 0.07658,-5.3223 0.536059,-7.38995 0.3829,-1.68476 0.995538,-2.48885 2.182526,-2.48885 0.880668,0 1.531596,0.53606 1.608176,1.60818 h 3.331223 c -0.26803,-3.13978 -2.182525,-4.9394 -5.054269,-4.9394 -3.063194,0 -4.59479,1.53159 -5.284009,5.47546 -0.3828989,1.99107 -0.6509283,5.39887 -0.6509283,7.73456 0,4.13531 0.3446093,7.65798 1.0721173,9.80222 0.804089,2.37397 2.450555,3.44609 5.054269,3.44609 2.259106,0 4.058732,-1.18699 4.479921,-3.06319 0.306319,-0.91896 0.382899,-1.45502 0.382899,-3.4461 z" />
    <path
       inkscape:connector-curvature="0"
       id="path968"
       style="font-style:normal;font-variant:normal;font-weight:normal;font-stretch:normal;font-size:medium;line-height:1.25;font-family:'Roadgeek 2005 Series B';-inkscape-font-specification:'Roadgeek 2005 Series B';letter-spacing:0px;word-spacing:0px;fill:#000000;fill-opacity:1;stroke:none;stroke-width:0.26458338"
       d="m 36.600214,252.6605 c 0,-4.78624 -2.067655,-7.1985 -6.011517,-7.1985 h -5.054269 v 25.65424 h 3.254643 V 259.1315 h 1.493307 l 2.910034,11.98474 h 3.331223 L 33.91992,258.32741 c 1.876206,-1.1487 2.680294,-2.79516 2.680294,-5.66691 z m -3.331222,-0.0766 c 0,2.41227 -0.536059,3.21635 -2.335685,3.21635 h -2.144236 v -7.00705 h 1.608177 c 2.259105,0 2.871744,0.88067 2.871744,3.7907 z" />
    <path
       inkscape:connector-curvature="0"
       id="path970"
       style="font-style:normal;font-variant:normal;font-weight:normal;font-stretch:normal;font-size:medium;line-height:1.25;font-family:'Roadgeek 2005 Series B';-inkscape-font-specification:'Roadgeek 2005 Series B';letter-spacing:0px;word-spacing:0px;fill:#000000;fill-opacity:1;stroke:none;stroke-width:0.26458338"
       d="m 51.783364,258.25083 c 0,-0.45948 0,-0.99554 0,-1.5316 0,-4.59479 -0.30632,-11.60184 -5.934938,-11.60184 -5.666907,0 -5.934937,7.08363 -5.934937,11.71671 0,0.49777 0,0.99554 0,1.41673 0,0.53606 0,1.1487 0,1.79963 0,4.5565 0.34461,11.52526 5.934937,11.52526 5.628618,0 5.934938,-7.23679 5.934938,-11.79329 0,-0.57435 0,-1.07212 0,-1.5316 z m -3.407803,0 c 0,0.34461 0,0.91896 0,1.60818 0,2.98661 -0.22974,8.38549 -2.527135,8.38549 -2.412264,0 -2.603714,-5.43717 -2.603714,-8.42378 0,-0.68922 0,-1.26357 0,-1.56989 0,-0.34461 0,-0.91896 0,-1.60818 0,-2.94832 0.19145,-8.19404 2.603714,-8.19404 2.450555,0 2.527135,7.73456 2.527135,9.80222 z" />
    <path
       inkscape:connector-curvature="0"
       id="path972"
       style="font-style:normal;font-variant:normal;font-weight:normal;font-stretch:normal;font-size:medium;line-height:1.25;font-family:'Roadgeek 2005 Series B';-inkscape-font-specification:'Roadgeek 2005 Series B';letter-spacing:0px;word-spacing:0px;fill:#000000;fill-opacity:1;stroke:none;stroke-width:0.26458338"
       d="m 66.10439,265.64078 c 0,-1.79962 -0.536059,-3.98215 -1.263567,-5.59032 -0.804088,-1.60818 -1.263567,-2.25911 -4.058731,-5.39888 -1.340147,-1.45502 -1.799626,-2.33569 -1.799626,-3.52268 0,-1.72304 0.727508,-2.79516 1.991075,-2.79516 1.186988,0 1.723046,0.80409 1.799626,2.79516 h 3.331223 c -0.344609,-4.05873 -2.067655,-6.01151 -5.207429,-6.01151 -3.063193,0 -5.245718,2.48884 -5.245718,6.01151 0,1.79963 0.650928,3.59926 2.067655,5.3223 0.26803,0.34461 1.110408,1.34015 2.259105,2.6803 1.991076,2.33568 2.795164,4.25018 2.795164,6.50928 0,1.60818 -0.804088,2.60372 -2.067655,2.60372 -0.995538,0 -1.799626,-0.65093 -2.067656,-1.64647 -0.191449,-0.53606 -0.268029,-0.88067 -0.268029,-1.8762 h -3.331223 c 0.19145,4.51821 2.067656,6.85389 5.666908,6.85389 1.340147,0 2.527134,-0.45948 3.331223,-1.18699 1.263567,-1.07211 2.067655,-2.94832 2.067655,-4.74795 z" />
    <path
       inkscape:connector-curvature="0"
       id="path974"
       style="font-style:normal;font-variant:normal;font-weight:normal;font-stretch:normal;font-size:medium;line-height:1.25;font-family:'Roadgeek 2005 Series B';-inkscape-font-specification:'Roadgeek 2005 Series B';letter-spacing:0px;word-spacing:0px;fill:#000000;fill-opacity:1;stroke:none;stroke-width:0.26458338"
       d="m 79.71526,265.64078 c 0,-1.79962 -0.536058,-3.98215 -1.263567,-5.59032 -0.804088,-1.60818 -1.263567,-2.25911 -4.058731,-5.39888 -1.340147,-1.45502 -1.799626,-2.33569 -1.799626,-3.52268 0,-1.72304 0.727508,-2.79516 1.991076,-2.79516 1.186987,0 1.723046,0.80409 1.799626,2.79516 h 3.331222 c -0.344609,-4.05873 -2.067655,-6.01151 -5.207428,-6.01151 -3.063194,0 -5.245719,2.48884 -5.245719,6.01151 0,1.79963 0.650929,3.59926 2.067656,5.3223 0.268029,0.34461 1.110407,1.34015 2.259105,2.6803 1.991075,2.33568 2.795164,4.25018 2.795164,6.50928 0,1.60818 -0.804089,2.60372 -2.067656,2.60372 -0.995538,0 -1.799626,-0.65093 -2.067655,-1.64647 -0.19145,-0.53606 -0.26803,-0.88067 -0.26803,-1.8762 h -3.331223 c 0.19145,4.51821 2.067656,6.85389 5.666908,6.85389 1.340147,0 2.527135,-0.45948 3.331223,-1.18699 1.263567,-1.07211 2.067655,-2.94832 2.067655,-4.74795 z" />
    <path
       inkscape:connector-curvature="0"
       id="path976"
       style="font-style:normal;font-variant:normal;font-weight:normal;font-stretch:normal;font-size:medium;line-height:1.25;font-family:'Roadgeek 2005 Series B';-inkscape-font-specification:'Roadgeek 2005 Series B';letter-spacing:0px;word-spacing:0px;fill:#000000;fill-opacity:1;stroke:none;stroke-width:0.26458338"
       d="M 87.046584,271.11624 V 245.462 h -3.254643 v 25.65424 z" />
    <path
       inkscape:connector-curvature="0"
       id="path978"
       style="font-style:normal;font-variant:normal;font-weight:normal;font-stretch:normal;font-size:medium;line-height:1.25;font-family:'Roadgeek 2005 Series B';-inkscape-font-specification:'Roadgeek 2005 Series B';letter-spacing:0px;word-spacing:0px;fill:#000000;fill-opacity:1;stroke:none;stroke-width:0.26458338"
       d="M 103.75714,271.11624 V 245.462 h -3.25464 v 12.78883 L 95.945998,245.462 h -3.254642 v 25.65424 h 3.254642 v -15.2011 l 5.015982,15.2011 z" />
    <path
       inkscape:connector-curvature="0"
       id="path980"
       style="font-style:normal;font-variant:normal;font-weight:normal;font-stretch:normal;font-size:medium;line-height:1.25;font-family:'Roadgeek 2005 Series B';-inkscape-font-specification:'Roadgeek 2005 Series B';letter-spacing:0px;word-spacing:0px;fill:#000000;fill-opacity:1;stroke:none;stroke-width:0.26458338"
       d="m 119.6301,265.25788 v -6.54757 h -4.78624 v 3.33122 h 1.5316 v 3.4078 c 0,1.72305 -0.61264,2.79517 -1.79963,2.79517 -1.1487,0 -1.79962,-0.91896 -2.14423,-2.60372 -0.26803,-2.18252 -0.45948,-3.86728 -0.45948,-7.38995 0,-3.52267 0.19145,-5.24572 0.53606,-7.31337 0.26803,-1.68476 1.07211,-2.48885 2.2591,-2.48885 0.88067,0 1.45502,0.53606 1.60818,1.60818 h 3.25464 c -0.3829,-3.13978 -2.06765,-4.9394 -4.9394,-4.9394 -2.52713,0 -4.05873,0.95725 -4.86282,3.33122 -0.91896,2.41227 -1.18699,4.67137 -1.18699,9.80222 0,5.20743 0.26803,7.54311 1.07212,9.8788 0.80409,2.45055 2.33569,3.44609 4.97769,3.44609 2.33569,0 4.02044,-1.18699 4.5565,-2.98661 0.19145,-0.80409 0.3829,-2.14424 0.3829,-3.33123 z" />
  </g>
</svg>
