<svg xmlns="http://www.w3.org/2000/svg" width="79.424" height="80.007" viewBox="0 0 21.014 21.169">
    <defs>
        <clipPath id="a" clipPathUnits="userSpaceOnUse">
            <path d="M63 45h513v252.78H63Z"/>
        </clipPath>
    </defs>
    <g clip-path="url(#a)" transform="matrix(.35278 0 0 -.35278 -78.445 44.047)">
        <path d="m0 0-26.271 26.464c-1.264 1.279-3.377 1.275-4.643-.001L-57.18.002c-1.263-1.272-1.267-3.399-.002-4.671l26.27-26.463c1.26-1.264 3.381-1.272 4.641 0L0-4.668C1.361-3.299 1.135-1.398 0 0" style="fill:#fccf34;fill-opacity:1;fill-rule:nonzero;stroke:#fccf34;stroke-width:.5;stroke-linecap:butt;stroke-linejoin:miter;stroke-miterlimit:4;stroke-dasharray:none;stroke-opacity:1" transform="translate(280.743 97.187)"/>
        <path d="m0 0-26.273-26.462c-.944-.949-2.52-.947-3.467 0L-56.006.001c-.941.952-.949 2.534-.002 3.487l26.27 26.466c.939.943 2.527.946 3.465.001L-.002 3.488C.938 2.538.941.948 0 0" style="fill:#231f20;fill-opacity:1;fill-rule:evenodd;stroke:none" transform="translate(280.157 93.11)"/>
        <path d="M0 0a1.109 1.109 0 0 1 0 1.528l-26.275 26.459c-.41.408-1.102.418-1.512-.001L-54.056 1.528a1.102 1.102 0 0 1 .002-1.529l26.269-26.462a1.073 1.073 0 0 1 1.51 0L0 0" style="fill:#fccf34;fill-opacity:1;fill-rule:evenodd;stroke:none" transform="translate(279.182 94.094)"/>
        <path d="M0 0c0 .846-.496 1.487-1.63 2.147-.434.248-.559.413-.559.702 0 .392.311.681.703.681.371 0 .66-.268.682-.681H0c-.021.888-.66 1.528-1.486 1.528a1.507 1.507 0 0 1-1.508-1.528c0-.517.248-.97.723-1.3 1.197-.807.867-.579.99-.703C-.929.577-.804.33-.804 0c0-.474-.371-.888-.826-.888-.579 0-.827.515-.827 1.011h-.826c0-.969.619-1.84 1.653-1.84C-.722-1.717 0-.95 0 0m-4.974 1.3c0-.454-.043-.866-.084-1.238-.082-.454-.352-.847-.846-.847h-.703v4.233h.703c.371 0 .619-.186.764-.599.103-.247.166-.888.166-1.549m.824.042c0 .453-.06.971-.144 1.403-.102.599-.35 1.054-.702 1.302-.207.164-.455.227-.951.227h-1.506v-5.885h1.631c.33 0 .619.082.826.27.578.453.846 1.32.846 2.683m-4.562-2.953v5.885h-.848V.742l-1.609 3.532h-.846v-5.885h.846v3.943l1.816-3.943zm-4.295 0v.826h-2.147v1.942h1.217v.804h-1.217v1.487h1.92v.826H-16v-5.885zm-6.916 0v.826h-2.149v1.942h1.219v.804h-1.219v1.487h1.92v.826h-2.766v-5.885zm-4.26 0v5.885h-.85V.742l-1.619 3.532h-.846v-5.885h.846v3.943l1.826-3.943zM-29.769.826h-.846l.412 1.692zm1.465-2.437-1.465 5.885h-.826l-1.465-5.885h.846L-30.822 0h1.26l.412-1.611zm-4.108 0v.785h-2.148v5.1h-.846v-5.885z" style="fill:#231f20;fill-opacity:1;fill-rule:evenodd;stroke:none" transform="matrix(.96566 0 0 .96566 269.242 99.063)"/>
        <path d="M0 0v.826h-2.146v1.941h1.219v.804h-1.219v1.488h1.92v.826h-2.768V0Zm-4.148 1.631v1.218h-1.508v-.825h.658v-.393c0-.619-.205-.908-.638-.908-.455 0-.743.309-.868.887-.082.455-.125.97-.125 1.466 0 .702.106 1.364.27 1.653.144.288.373.433.66.433.414 0 .682-.269.701-.661h.85c-.043.866-.684 1.487-1.529 1.487a1.582 1.582 0 0 1-1.487-1.074c-.207-.558-.267-1.157-.267-1.982 0-.764.123-1.59.308-2.024.289-.661.807-1.015 1.508-1.015.598 0 1.074.314 1.301.83.123.247.166.495.166.908m-4.979 2.684c0-.475-.265-.744-.763-.744h-.866v1.488h.866c.455 0 .763-.289.763-.744M-8.298 0l-.848 2.891c.556.207.848.722.848 1.424 0 .949-.622 1.57-1.549 1.57h-1.754V0h.845v2.767h.805L-9.168 0Zm-4.297 0v.826h-2.147v1.941h1.219v.804h-1.219v1.488h1.92v.826h-2.766V0Zm-4.28 0v5.885h-.849l-1.1-3.305-1.098 3.305h-.845V0h.845v3.303L-18.824 0l1.1 3.303V0Z" style="fill:#231f20;fill-opacity:1;fill-rule:evenodd;stroke:none" transform="matrix(.96566 0 0 .96566 262.174 87.562)"/>
    </g>
    <path style="fill:#231f20;fill-opacity:1;fill-rule:evenodd;stroke:none" d="M0 0v1.032h-4.543V0h1.678v-6.323h1.162V0Zm-5.627-6.323v7.355h-1.162v-2.968h-2.684v2.968h-1.162v-7.355h1.162v3.2h2.684v-3.2zm-6.607 2.194v1.471h-2.502v-1.163h1.341v-.308c0-.672-.543-1.137-1.291-1.137-.439 0-.773.182-1.007.594-.231.465-.362 1.239-.362 2.014 0 .619.106 1.291.285 1.728.258.647.645.904 1.239.904.568 0 .879-.232 1.187-.878l1.11.439c-.491 1.162-1.161 1.627-2.297 1.627-.826 0-1.446-.285-1.885-.826-.488-.647-.824-1.807-.824-2.994 0-.905.179-1.807.49-2.453.439-.928 1.084-1.346 2.193-1.346 1.342 0 2.323.985 2.323 2.328m-6.58 5.161h-1.188v-7.355h1.188zm-3.717-2.065a.903.903 0 0 0-.465-.774c-.18-.103-.309-.129-.67-.129h-1.395v1.807h1.395c.385 0 .49-.026.67-.129a.905.905 0 0 0 .465-.775m1.316-5.29-1.291 3.432c.67.31 1.137 1.084 1.137 1.858 0 .75-.467 1.523-1.112 1.834-.361.179-.748.231-1.316.231h-2.426v-7.355h1.162v3.2h1.395l1.185-3.2z" transform="matrix(.22853 0 0 -.2704 13.504 14.92)"/>
</svg>
