<?xml version="1.0" encoding="UTF-8" standalone="no"?>
<!-- Created with Inkscape (http://www.inkscape.org/) -->

<svg
   width="75.75946mm"
   height="76.320923mm"
   viewBox="0 0 75.75946 76.320923"
   version="1.1"
   id="svg1"
   xml:space="preserve"
   inkscape:version="1.3.2 (091e20e, 2023-11-25, custom)"
   sodipodi:docname="MUTCDstyledraw.svg"
   xmlns:inkscape="http://www.inkscape.org/namespaces/inkscape"
   xmlns:sodipodi="http://sodipodi.sourceforge.net/DTD/sodipodi-0.dtd"
   xmlns="http://www.w3.org/2000/svg"
   xmlns:svg="http://www.w3.org/2000/svg"><sodipodi:namedview
     id="namedview1"
     pagecolor="#ffffff"
     bordercolor="#000000"
     borderopacity="0.25"
     inkscape:showpageshadow="2"
     inkscape:pageopacity="0.0"
     inkscape:pagecheckerboard="0"
     inkscape:deskcolor="#d1d1d1"
     inkscape:document-units="mm"
     inkscape:zoom="0.64"
     inkscape:cx="6479.6875"
     inkscape:cy="6149.2187"
     inkscape:window-width="1920"
     inkscape:window-height="1017"
     inkscape:window-x="-8"
     inkscape:window-y="-8"
     inkscape:window-maximized="1"
     inkscape:current-layer="layer1"
     showguides="true" /><defs
     id="defs1"><style
       id="style1">
	.a {
		fill: #fff;
	}

	.b {
		fill: #af1e2d;
	}
  </style><style
       id="style1-8">
	.a {
		fill: #fff;
	}

	.b {
		fill: #af1e2d;
	}
  </style></defs><g
     inkscape:label="Layer 1"
     inkscape:groupmode="layer"
     id="layer1"
     transform="translate(-2020.4036,-1871.0164)"><g
       id="g537"><path
         d="m 2094.9609,1906.1861 -33.6961,-33.9403 c -1.6212,-1.6417 -4.332,-1.6365 -5.9543,0 l -33.6909,33.9403 c -1.6171,1.6315 -1.6253,4.3588 0,5.9902 l 33.6909,33.9413 c 1.6192,1.6212 4.3393,1.6315 5.9543,0 l 33.6961,-33.9433 c 1.7443,-1.7556 1.455,-4.1967 0,-5.9902"
         style="fill:#ffd033;fill-opacity:1;fill-rule:nonzero;stroke:none;stroke-width:1.02607"
         id="path471" /><path
         id="path472"
         style="fill:#000000;fill-opacity:1;fill-rule:evenodd;stroke:none;stroke-width:1.02607"
         d="m 2058.2885,1872.1828 c -0.8102,7e-4 -1.6203,0.3036 -2.2236,0.9075 l -33.691,33.9457 c -1.2149,1.2231 -1.2067,3.2526 0,4.4736 l 33.691,33.9421 c 1.2149,1.2139 3.2329,1.217 4.4468,0 l 33.6971,-33.941 v 0 c 1.2087,-1.2149 1.2036,-3.2567 0,-4.4737 l -33.6971,-33.9467 c -0.6029,-0.6064 -1.413,-0.9081 -2.2232,-0.9075 z m 0,1.7725 c 0.3534,0 0.7073,0.1358 0.9715,0.3974 l 33.6993,33.9359 a 1.4231566,1.4231566 0 0 1 0,1.9606 v 0 l -33.6992,33.9416 c -0.5335,0.5285 -1.409,0.5305 -1.9394,0 l -33.6931,-33.9416 a 1.4108438,1.4108438 0 0 1 0,-1.9606 l 33.6941,-33.9359 c 0.2617,-0.2678 0.6146,-0.3989 0.9679,-0.3974 z" /><path
         style="color:#000000;fill:#000000;-inkscape-stroke:none"
         d="m 2043.1602,1889.5527 -2.4043,2.4043 7.1152,7.1133 v 10.1074 10.1055 l -7.1152,7.1152 2.4043,2.4024 8.1113,-8.1094 v -11.5137 -11.5156 z m 30.2461,0 -8.1094,8.1094 v 11.5156 11.5137 l 8.1094,8.1094 2.4042,-2.4024 -7.1132,-7.1152 v -10.1055 -10.1074 l 7.1132,-7.1133 z"
         id="path476" /><path
         id="path481"
         style="color:#000000;fill:#000000;-inkscape-stroke:none"
         d="m 2034.1523,1900.4613 -0.5881,0.9131 c 0,0 -0.5021,0.8277 -0.9234,0.9663 -0.6681,0.22 -1.5722,0.22 -2.2402,0 -0.018,-0.01 -0.043,-0.028 -0.062,-0.036 l -0.9529,0.9601 c 0.1807,0.1224 0.3777,0.2346 0.6087,0.3106 0.9693,0.3191 2.0838,0.3191 3.0531,0 0.5162,-0.1699 0.8355,-0.5121 1.1053,-0.8268 0.2698,0.3147 0.5872,0.6569 1.1033,0.8268 0.9694,0.3191 2.0837,0.3191 3.0531,0 0.5782,-0.1903 0.9854,-0.5756 1.2929,-0.9044 0.3075,0.3286 0.7133,0.7143 1.2909,0.9044 0.9694,0.3191 2.0837,0.3191 3.053,0 0.5284,-0.1739 0.8727,-0.5207 1.1519,-0.8398 v -2.2742 l -0.5762,0.8909 c 0,0 -0.552,0.8476 -0.9803,0.9885 -0.668,0.22 -1.5721,0.22 -2.2402,0 -0.2246,-0.074 -0.5483,-0.3262 -0.7813,-0.5777 -0.2329,-0.2514 -0.3731,-0.4672 -0.3731,-0.4672 l -0.5431,-0.8345 -0.5447,0.8345 c 0,0 -0.1402,0.2158 -0.3731,0.4672 -0.2329,0.2515 -0.5568,0.5038 -0.7814,0.5777 -0.6681,0.22 -1.5721,0.22 -2.2401,0 -0.4213,-0.1386 -0.9219,-0.9663 -0.9219,-0.9663 z m 37.3171,0 v 2.2742 c 0.2792,0.3191 0.6235,0.6659 1.1519,0.8398 0.9693,0.3191 2.0836,0.3191 3.053,0 0.5776,-0.1901 0.9834,-0.5758 1.2909,-0.9044 0.3075,0.3288 0.7148,0.7141 1.293,0.9044 0.9694,0.3191 2.0836,0.3191 3.053,0 0.5161,-0.1699 0.8335,-0.5121 1.1033,-0.8268 0.2698,0.3147 0.5892,0.6569 1.1054,0.8268 0.9693,0.3191 2.0837,0.3191 3.053,0 0.236,-0.078 0.437,-0.1926 0.6206,-0.3183 l -0.9524,-0.9592 c -0.023,0.01 -0.053,0.036 -0.075,0.043 -0.668,0.22 -1.5721,0.22 -2.2402,0 -0.4213,-0.1386 -0.9234,-0.9663 -0.9234,-0.9663 l -0.5881,-0.9131 -0.5896,0.9131 c 0,0 -0.5006,0.8277 -0.9219,0.9663 -0.668,0.22 -1.5721,0.22 -2.2402,0 -0.2246,-0.074 -0.5485,-0.3262 -0.7814,-0.5777 -0.2329,-0.2514 -0.3731,-0.4672 -0.3731,-0.4672 l -0.5446,-0.8345 -0.5432,0.8345 c 0,0 -0.1402,0.2158 -0.3731,0.4672 -0.233,0.2515 -0.5567,0.5037 -0.7813,0.5777 -0.6681,0.22 -1.5722,0.22 -2.2402,0 -0.4283,-0.1409 -0.9803,-0.9885 -0.9803,-0.9885 z m -42.7664,4.3506 -0.5446,0.8341 c 0,0 -0.1402,0.2152 -0.3731,0.4666 -0.2329,0.2515 -0.5547,0.5044 -0.7793,0.5783 -0.3518,0.1158 -0.7681,0.1663 -1.1819,0.1601 l -1.1425,1.1509 c 0.89,0.2235 1.8654,0.2078 2.7306,-0.077 0.5776,-0.1901 0.9833,-0.5758 1.2908,-0.9044 0.3075,0.3286 0.7133,0.7143 1.2909,0.9044 0.9693,0.3191 2.0838,0.3191 3.0531,0 0.5162,-0.1699 0.8355,-0.5111 1.1053,-0.8258 0.2698,0.3147 0.5872,0.6559 1.1033,0.8258 0.9694,0.3191 2.0837,0.3191 3.0531,0 0.5782,-0.1903 0.9854,-0.5756 1.2929,-0.9044 0.3075,0.3286 0.7133,0.7143 1.2909,0.9044 0.9694,0.3191 2.0837,0.3191 3.053,0 0.5284,-0.1739 0.8727,-0.5207 1.1519,-0.8398 v -2.2732 l -0.5762,0.8904 c 0,0 -0.552,0.8477 -0.9803,0.9886 -0.668,0.22 -1.5721,0.22 -2.2402,0 -0.2246,-0.074 -0.5483,-0.3268 -0.7813,-0.5783 -0.2329,-0.2514 -0.3731,-0.4666 -0.3731,-0.4666 l -0.5431,-0.8341 -0.5447,0.8341 c 0,0 -0.1402,0.2152 -0.3731,0.4666 -0.2329,0.2515 -0.5568,0.5044 -0.7814,0.5783 -0.6681,0.22 -1.5721,0.22 -2.2401,0 -0.4213,-0.1386 -0.9219,-0.9669 -0.9219,-0.9669 l -0.5897,-0.9121 -0.5881,0.9121 c 0,0 -0.5021,0.8283 -0.9234,0.9669 -0.6681,0.22 -1.5722,0.22 -2.2402,0 -0.2246,-0.074 -0.5469,-0.3268 -0.7798,-0.5783 -0.2329,-0.2514 -0.3731,-0.4666 -0.3731,-0.4666 z m 42.7664,0 v 2.2732 c 0.2792,0.3191 0.6235,0.6659 1.1519,0.8398 0.9693,0.3191 2.0836,0.3191 3.053,0 0.5776,-0.1901 0.9834,-0.5758 1.2909,-0.9044 0.3075,0.3288 0.7148,0.7141 1.293,0.9044 0.9694,0.3191 2.0836,0.3191 3.053,0 0.5161,-0.1699 0.8335,-0.5111 1.1033,-0.8258 0.2698,0.3147 0.5892,0.6559 1.1054,0.8258 0.9693,0.3191 2.0837,0.3191 3.053,0 0.5776,-0.1901 0.9834,-0.5758 1.2909,-0.9044 0.3075,0.3286 0.7133,0.7143 1.2909,0.9044 0.8705,0.2865 1.8527,0.3014 2.7471,0.073 l -1.1405,-1.1483 c -0.4198,0.01 -0.8435,-0.042 -1.2005,-0.1591 -0.2246,-0.074 -0.5464,-0.3268 -0.7793,-0.5783 -0.2329,-0.2514 -0.3731,-0.4666 -0.3731,-0.4666 l -0.5446,-0.8341 -0.5447,0.8341 c 0,0 -0.1402,0.2152 -0.3731,0.4666 -0.2329,0.2515 -0.5552,0.5043 -0.7798,0.5783 -0.668,0.22 -1.5721,0.22 -2.2402,0 -0.4213,-0.1386 -0.9234,-0.9669 -0.9234,-0.9669 l -0.5881,-0.9121 -0.5896,0.9121 c 0,0 -0.5006,0.8283 -0.9219,0.9669 -0.668,0.22 -1.5721,0.22 -2.2402,0 -0.2246,-0.074 -0.5485,-0.3268 -0.7814,-0.5783 -0.2329,-0.2514 -0.3731,-0.4666 -0.3731,-0.4666 l -0.5446,-0.8341 -0.5432,0.8341 c 0,0 -0.1402,0.2152 -0.3731,0.4666 -0.233,0.2515 -0.5567,0.5043 -0.7813,0.5783 -0.6681,0.22 -1.5722,0.22 -2.2402,0 -0.4283,-0.1409 -0.9803,-0.9886 -0.9803,-0.9886 z m -42.7664,4.9578 -0.5446,0.8341 c 0,0 -0.1402,0.2152 -0.3731,0.4666 -0.2329,0.2515 -0.5547,0.5044 -0.7793,0.5783 -0.2673,0.088 -0.5747,0.1307 -0.8873,0.1483 l 1.1193,1.1276 c 0.057,-0.016 0.1179,-0.023 0.1742,-0.042 0.5776,-0.1901 0.9833,-0.5757 1.2908,-0.9043 0.3075,0.3286 0.7133,0.7142 1.2909,0.9043 0.9693,0.3191 2.0838,0.3191 3.0531,0 0.5162,-0.1699 0.8355,-0.5111 1.1053,-0.8258 0.2698,0.3147 0.5872,0.6559 1.1033,0.8258 0.9694,0.3191 2.0837,0.3191 3.0531,0 0.5782,-0.1903 0.9854,-0.5755 1.2929,-0.9043 0.3075,0.3286 0.7133,0.7142 1.2909,0.9043 0.9694,0.3191 2.0837,0.3191 3.053,0 0.5284,-0.1739 0.8727,-0.5206 1.1519,-0.8397 v -2.2733 l -0.5762,0.8904 c 0,0 -0.552,0.8477 -0.9803,0.9886 -0.668,0.22 -1.5721,0.22 -2.2402,0 -0.2246,-0.074 -0.5483,-0.3268 -0.7813,-0.5783 -0.2329,-0.2514 -0.3731,-0.4666 -0.3731,-0.4666 l -0.5431,-0.8341 -0.5447,0.8341 c 0,0 -0.1402,0.2152 -0.3731,0.4666 -0.2329,0.2515 -0.5568,0.5044 -0.7814,0.5783 -0.6681,0.22 -1.5721,0.22 -2.2401,0 -0.4213,-0.1386 -0.9219,-0.9669 -0.9219,-0.9669 l -0.5897,-0.9121 -0.5881,0.9121 c 0,0 -0.5021,0.8283 -0.9234,0.9669 -0.6681,0.22 -1.5722,0.22 -2.2402,0 -0.2246,-0.074 -0.5469,-0.3268 -0.7798,-0.5783 -0.2329,-0.2514 -0.3731,-0.4666 -0.3731,-0.4666 z m 42.7664,0 v 2.2733 c 0.2792,0.3191 0.6235,0.6658 1.1519,0.8397 0.9693,0.3191 2.0836,0.3191 3.053,0 0.5776,-0.1901 0.9834,-0.5757 1.2909,-0.9043 0.3075,0.3288 0.7148,0.714 1.293,0.9043 0.9694,0.3191 2.0836,0.3191 3.053,0 0.5161,-0.1699 0.8335,-0.5111 1.1033,-0.8258 0.2698,0.3147 0.5892,0.6559 1.1054,0.8258 0.9693,0.3191 2.0837,0.3191 3.053,0 0.5776,-0.1901 0.9834,-0.5757 1.2909,-0.9043 0.3075,0.3286 0.7133,0.7142 1.2909,0.9043 0.061,0.02 0.1276,0.028 0.1901,0.045 l 1.1214,-1.1296 c -0.3189,-0.017 -0.633,-0.06 -0.9054,-0.1499 -0.2246,-0.074 -0.5464,-0.3268 -0.7793,-0.5783 -0.2329,-0.2514 -0.3731,-0.4666 -0.3731,-0.4666 l -0.5446,-0.8341 -0.5447,0.8341 c 0,0 -0.1402,0.2152 -0.3731,0.4666 -0.2329,0.2515 -0.5552,0.5043 -0.7798,0.5783 -0.668,0.22 -1.5721,0.22 -2.2402,0 -0.4213,-0.1386 -0.9234,-0.9669 -0.9234,-0.9669 l -0.5881,-0.9121 -0.5896,0.9121 c 0,0 -0.5006,0.8283 -0.9219,0.9669 -0.668,0.22 -1.5721,0.22 -2.2402,0 -0.2246,-0.074 -0.5485,-0.3268 -0.7814,-0.5783 -0.2329,-0.2514 -0.3731,-0.4666 -0.3731,-0.4666 l -0.5446,-0.8341 -0.5432,0.8341 c 0,0 -0.1402,0.2152 -0.3731,0.4666 -0.233,0.2515 -0.5567,0.5043 -0.7813,0.5783 -0.6681,0.22 -1.5722,0.22 -2.2402,0 -0.4283,-0.1409 -0.9803,-0.9886 -0.9803,-0.9886 z m -37.3171,4.7708 -0.5881,0.9121 c 0,0 -0.5021,0.8283 -0.9234,0.9669 -0.5447,0.1793 -1.2402,0.2045 -1.8428,0.091 l 1.326,1.3353 c 0.3152,-0.038 0.6266,-0.095 0.923,-0.1927 0.5162,-0.1699 0.8355,-0.5111 1.1053,-0.8258 0.2698,0.3147 0.5872,0.6559 1.1033,0.8258 0.9694,0.3191 2.0837,0.3191 3.0531,0 0.5782,-0.1903 0.9854,-0.5755 1.2929,-0.9043 0.3075,0.3286 0.7133,0.7142 1.2909,0.9043 0.9694,0.3191 2.0837,0.3191 3.053,0 0.5284,-0.1739 0.8727,-0.5207 1.1519,-0.8398 v -2.2732 l -0.5762,0.8904 c 0,0 -0.552,0.8477 -0.9803,0.9886 -0.668,0.22 -1.5721,0.22 -2.2402,0 -0.2246,-0.074 -0.5483,-0.3268 -0.7813,-0.5783 -0.2329,-0.2514 -0.3731,-0.4672 -0.3731,-0.4672 l -0.5431,-0.8335 -0.5447,0.8335 c 0,0 -0.1402,0.2158 -0.3731,0.4672 -0.2329,0.2515 -0.5568,0.5044 -0.7814,0.5783 -0.6681,0.22 -1.5721,0.22 -2.2401,0 -0.4213,-0.1386 -0.9219,-0.9669 -0.9219,-0.9669 z m 37.3171,0 v 2.2732 c 0.2792,0.3191 0.6235,0.6659 1.1519,0.8398 0.9693,0.3191 2.0836,0.3191 3.053,0 0.5776,-0.1901 0.9834,-0.5757 1.2909,-0.9043 0.3075,0.3288 0.7148,0.714 1.293,0.9043 0.9694,0.3191 2.0836,0.3191 3.053,0 0.5161,-0.1699 0.8335,-0.5111 1.1033,-0.8258 0.2698,0.3147 0.5892,0.6559 1.1054,0.8258 0.3018,0.099 0.6193,0.1563 0.9405,0.1938 l 1.3327,-1.3421 c -0.6081,0.1188 -1.3148,0.096 -1.8671,-0.086 -0.4213,-0.1386 -0.9234,-0.9669 -0.9234,-0.9669 l -0.5881,-0.9121 -0.5896,0.9121 c 0,0 -0.5006,0.8283 -0.9219,0.9669 -0.668,0.22 -1.5721,0.22 -2.2402,0 -0.2246,-0.074 -0.5485,-0.3268 -0.7814,-0.5783 -0.2329,-0.2514 -0.3731,-0.4672 -0.3731,-0.4672 l -0.5446,-0.8335 -0.5432,0.8335 c 0,0 -0.1402,0.2158 -0.3731,0.4672 -0.233,0.2515 -0.5567,0.5043 -0.7813,0.5783 -0.6681,0.22 -1.5722,0.22 -2.2402,0 -0.4283,-0.1409 -0.9803,-0.9886 -0.9803,-0.9886 z" /><path
         id="rect484"
         style="fill:#000000;fill-opacity:1;stroke:none;stroke-width:1.3;stroke-dasharray:none;stroke-opacity:1"
         d="m 2057.1589,1878.4853 v 7.4084 h 2.249 v -7.4084 z m 0,13.4938 v 7.4083 h 2.249 v -7.4083 z m 0,13.4937 v 7.4084 h 2.249 v -7.4084 z m 0,13.4938 v 7.4083 h 2.249 v -7.4083 z m 0,13.4937 v 7.4084 h 2.249 v -7.4084 z" /></g></g></svg>
