<svg width="51.687" height="89.853" viewBox="0 0 13.675 23.774" xmlns="http://www.w3.org/2000/svg">
    <defs>
        <clipPath clipPathUnits="userSpaceOnUse" id="a">
            <path d="M65.632 39h507.732v576.085H65.632Z" transform="translate(-227.688 -130.336)"/>
        </clipPath>
    </defs>
    <path d="M0 0a2.509 2.509 0 0 0-2.508 2.504v62.155A2.509 2.509 0 0 0 0 67.163h33.523a2.509 2.509 0 0 0 2.508-2.504V2.504A2.509 2.509 0 0 0 33.523 0Z" style="fill:#fcd116;fill-opacity:1;fill-rule:nonzero;stroke:none" transform="matrix(.35278 0 0 -.35278 .925 23.734)" clip-path="url(#a)"/>
    <path d="M0 0h-33.523a2.621 2.621 0 0 1-2.621-2.617v-62.156a2.621 2.621 0 0 1 2.621-2.617H0a2.622 2.622 0 0 1 2.621 2.617v62.156A2.622 2.622 0 0 1 0 0m0-.226a2.394 2.394 0 0 0 2.395-2.391v-62.156c0-1.32-1.073-2.39-2.395-2.39h-33.523a2.392 2.392 0 0 0-2.395 2.39v62.156a2.393 2.393 0 0 0 2.395 2.391z" style="fill:#000;fill-opacity:1;fill-rule:nonzero;stroke:none" transform="matrix(.35278 0 0 -.35278 12.75 0)"/>
    <path d="M0 0c-.99 0-1.795.805-1.795 1.793v62.156c0 .988.805 1.793 1.795 1.793h33.523c.99 0 1.797-.805 1.797-1.793V1.793C35.32.805 34.513 0 33.523 0Z" style="fill:#000;fill-opacity:1;fill-rule:nonzero;stroke:none" transform="matrix(.35278 0 0 -.35278 .924 23.483)"/>
    <path d="M0 0v13.547c0 .439.358.797.798.797h33.524a.8.8 0 0 0 .798-.797V0Z" style="fill:#fcd116;fill-opacity:1;fill-rule:nonzero;stroke:none" transform="matrix(.35278 0 0 -.35278 .643 5.702)"/>
    <path d="M0 0v-47.613a.799.799 0 0 0-.798-.797h-33.524a.8.8 0 0 0-.798.797V0Z" style="fill:#fcd116;fill-opacity:1;fill-rule:nonzero;stroke:none" transform="matrix(.35278 0 0 -.35278 13.032 6.054)"/>
    <path d="M0 0v2.08h-2.16V0h-.861v4.781h.861V2.936H0v1.845h.861V0Z" style="fill:#000;fill-opacity:1;fill-rule:nonzero;stroke:none" transform="matrix(.35278 0 0 -.35278 9.424 22.71)"/>
    <path d="M0 0v2.919L-1.417 0l-1.4 2.919V0h-.844v4.781h.844l1.4-2.835L0 4.781h.843V0Z" style="fill:#000;fill-opacity:1;fill-rule:nonzero;stroke:none" transform="matrix(.35278 0 0 -.35278 5.239 22.71)"/>
    <path d="M0 0h-1.446v-1.191H0c.42 0 .705.234.705.587C.705-.235.42 0 0 0m.823-1.862c-.269-.152-.487-.185-.856-.185h-1.413v-1.879h-.873V.855h2.286c.369 0 .587-.05.856-.201.453-.251.739-.721.739-1.258 0-.504-.286-1.007-.739-1.258" style="fill:#000;fill-opacity:1;fill-rule:nonzero;stroke:none" transform="matrix(.35278 0 0 -.35278 7.233 21.325)"/>
    <path d="M0 0c0 1.331.276 2.309.906 3.405.984 1.645 2.402 2.663 4.45 3.21 1.259.353 1.693.744 1.693 1.409 0 .823-.788 1.293-2.206 1.293-1.457 0-2.52-.352-3.465-1.214L0 9.63c1.3 1.134 2.914 1.722 4.726 1.722 2.638 0 4.331-1.292 4.331-3.328 0-.939-.394-1.8-1.142-2.426-.354-.274-.866-.548-1.654-.784-1.496-.429-1.93-.626-2.599-1.212-.512-.431-.827-.862-1.22-1.606h6.615V0Z" style="fill:#000;fill-opacity:1;fill-rule:nonzero;stroke:none" transform="matrix(.35278 0 0 -.35278 3.367 20.04)"/>
    <path d="M0 0c-1.536 0-2.914.392-4.331 1.252l1.062 1.684A6.412 6.412 0 0 1 0 2.035c1.693 0 2.717.744 2.717 1.997 0 .587-.275 1.174-.709 1.526-.394.313-.984.47-1.811.47-.748 0-1.339-.117-2.166-.43l-2.008.509.354 5.245h7.482L3.82 9.394h-5.553l-.118-1.604c.906.195 1.457.274 2.166.274 2.559 0 4.411-1.723 4.411-4.032C4.726 1.683 2.757 0 0 0" style="fill:#000;fill-opacity:1;fill-rule:nonzero;stroke:none" transform="matrix(.35278 0 0 -.35278 8.642 20.108)"/>
    <path d="M0 0a.905.905 0 0 1-.317-.058l-2.716-1.001v.305a12.072 12.072 0 0 1-3.555 8.568 12.112 12.112 0 0 1-8.582 3.549 12.112 12.112 0 0 1-8.582-3.549 12.105 12.105 0 0 1-2.6-3.85 12.04 12.04 0 0 1-.954-4.718v-9.701h4.789v9.701a7.28 7.28 0 0 0 2.152 5.187 7.304 7.304 0 0 0 5.195 2.149 7.305 7.305 0 0 0 5.196-2.149A7.28 7.28 0 0 0-7.822-.754v-.313l-2.74 1.009a.892.892 0 0 1-1.054-1.336l6.177-9.061L.738-1.394A.894.894 0 0 1 0 0" style="fill:#000;fill-opacity:1;fill-rule:nonzero;stroke:none" transform="matrix(.35278 0 0 -.35278 11.497 11.187)"/>
    <path d="m0 0-.896-2.147H.896zm2.016-4.787-.627 1.499h-2.778l-.627-1.499h-1.255l2.688 6.375H.583l2.665-6.375z" style="fill:#000;fill-opacity:1;fill-rule:nonzero;stroke:none" transform="matrix(.35278 0 0 -.35278 5.422 2.608)"/>
    <path d="M0 0v3.892L-1.89 0l-1.866 3.892V0H-4.88v6.375h1.124l1.866-3.78L0 6.375h1.125V0Z" style="fill:#000;fill-opacity:1;fill-rule:nonzero;stroke:none" transform="matrix(.35278 0 0 -.35278 8.672 4.297)"/>
    <path d="M0 0h-1.928v-1.588H0c.56 0 .94.313.94.783C.94-.313.56 0 0 0m1.097-2.483c-.358-.201-.649-.246-1.141-.246h-1.884v-2.505h-1.165v6.375h3.049c.492 0 .783-.068 1.141-.269a1.9 1.9 0 0 0 .985-1.677c0-.671-.38-1.342-.985-1.678" style="fill:#000;fill-opacity:1;fill-rule:nonzero;stroke:none" transform="matrix(.35278 0 0 -.35278 10.746 2.45)"/>
    <path d="M0 0h-1.839v-1.588H0c.56 0 .919.313.919.783C.919-.313.56 0 0 0m.919-5.234L-.112-2.729h-1.727v-2.505h-1.142v6.375h2.958c.471 0 .762-.068 1.098-.269a1.9 1.9 0 0 0 .986-1.677c0-.716-.381-1.342-1.031-1.7l1.165-2.729z" style="fill:#000;fill-opacity:1;fill-rule:nonzero;stroke:none" transform="matrix(.35278 0 0 -.35278 3.246 2.45)"/>
</svg>
