<svg width="96.641" height="96.643" viewBox="0 0 25.57 25.57" xmlns="http://www.w3.org/2000/svg">
    <defs>
        <clipPath clipPathUnits="userSpaceOnUse" id="a">
            <path d="M31.412 45h504.176v508.157H31.412Z" transform="translate(-133.93 -216.945)"/>
        </clipPath>
    </defs>
    <path d="M0 0c-.916 0-1.776.356-2.423 1.003l-32.689 32.69a3.401 3.401 0 0 0-1.004 2.423c0 .916.356 1.776 1.004 2.424l32.689 32.689A3.403 3.403 0 0 0 0 72.232c.916 0 1.776-.356 2.423-1.003L35.112 38.54a3.404 3.404 0 0 0 1.004-2.424c0-.915-.356-1.776-1.004-2.423L2.423 1.003A3.403 3.403 0 0 0 0 0" style="fill:#fcd116;fill-opacity:1;fill-rule:nonzero;stroke:none" transform="matrix(.35278 0 0 -.35278 12.785 25.526)" clip-path="url(#a)"/>
    <path d="M0 0a3.529 3.529 0 0 1-2.512-1.04l-32.689-32.689a3.557 3.557 0 0 1 0-5.024l32.689-32.689A3.529 3.529 0 0 1 0-72.482c.949 0 1.841.369 2.512 1.04l32.689 32.689a3.529 3.529 0 0 1 1.04 2.512c0 .949-.369 1.841-1.04 2.511L2.512-1.04A3.529 3.529 0 0 1 0 0m0-.25c.845 0 1.69-.322 2.335-.967l32.689-32.689a3.301 3.301 0 0 0 0-4.67L2.335-71.265A3.291 3.291 0 0 0 0-72.232c-.845 0-1.69.322-2.335.967l-32.689 32.689a3.301 3.301 0 0 0 0 4.67L-2.335-1.217C-1.69-.572-.845-.25 0-.25" style="fill:#000;fill-opacity:1;fill-rule:nonzero;stroke:none" transform="matrix(.35278 0 0 -.35278 12.785 0)"/>
    <path d="M0 0a2.425 2.425 0 0 0-3.425 0l-32.689 32.689a2.425 2.425 0 0 0 0 3.425l32.689 32.689a2.425 2.425 0 0 0 3.425 0l32.689-32.689a2.425 2.425 0 0 0 0-3.425z" style="fill:#000;fill-opacity:1;fill-rule:nonzero;stroke:none" transform="matrix(.35278 0 0 -.35278 13.389 24.921)"/>
    <path d="M0 0a1.103 1.103 0 0 0-1.557 0l-32.689 32.689a1.103 1.103 0 0 0 0 1.557l32.689 32.689c.43.429 1.128.429 1.557 0l32.689-32.689a1.103 1.103 0 0 0 0-1.557z" style="fill:#fcd116;fill-opacity:1;fill-rule:nonzero;stroke:none" transform="matrix(.35278 0 0 -.35278 13.06 24.592)"/>
    <path d="M0 0h4.147v-1.112H1.111v-1.73H3.16v-1.137H1.111v-1.929h3.258v-1.136H0Z" style="fill:#000;fill-opacity:1;fill-rule:nonzero;stroke:none" transform="matrix(.35278 0 0 -.35278 8.78 11.232)"/>
    <path d="M0 0v-4.77h-1.111v7.044H0l2.571-4.498v4.498h1.113V-4.77h-.989Z" style="fill:#000;fill-opacity:1;fill-rule:nonzero;stroke:none" transform="matrix(.35278 0 0 -.35278 11.136 12.034)"/>
    <path d="M0 0h-1.261v-4.795h1.183c1.025 0 1.361 1.242 1.361 2.568C1.283-1.596 1.103 0 0 0m-2.372-5.932v7.044H.169c1.778 0 2.254-2.341 2.254-3.364 0-2.642-1.359-3.68-2.249-3.68z" style="fill:#000;fill-opacity:1;fill-rule:nonzero;stroke:none" transform="matrix(.35278 0 0 -.35278 13.87 11.624)"/>
    <path d="m0 0 1.063.395c.297-.667.84-1.038 1.507-1.038.643 0 1.089.445 1.089 1.038 0 .943-1.088 1.088-2.003 1.459-.42.173-1.359.593-1.359 1.754 0 1.386.938 1.902 2.199 1.902.989 0 1.657-.568 2.003-1.433L3.51 3.78c-.111.279-.514.618-1.038.618-1.005 0-1.09-.536-1.09-.712 0-.659.567-.789 1.491-1.079.941-.296 1.922-.728 1.922-2.238 0-1.521-1.232-2.149-2.225-2.149C1.359-1.78.469-1.063 0 0" style="fill:#000;fill-opacity:1;fill-rule:nonzero;stroke:none" transform="matrix(.35278 0 0 -.35278 15.097 13.133)"/>
    <path d="m0 0 .543.989C.84.84 1.359.741 1.878.741c1.015 0 1.804.67 1.804 1.582 0 .692-.56 1.236-1.261 1.236-.493 0-.716-.148-1.136-.741l-1.112.321.174 3.633H4.4V5.66H1.434l-.073-1.161c.519.148.741.197 1.087.197 1.288 0 2.348-1.07 2.348-2.372C4.796.766 3.512-.395 1.73-.395 1.112-.395.494-.247 0 0" style="fill:#000;fill-opacity:1;fill-rule:nonzero;stroke:none" transform="matrix(.35278 0 0 -.35278 7.284 17.97)"/>
    <path d="M0 0c.759 0 1.375.719 1.375 2.51C1.375 4.3.759 5.019 0 5.019s-1.375-.718-1.375-2.509S-.759 0 0 0m2.49 2.51c0-.253.054-3.646-2.502-3.646-2.557 0-2.503 3.393-2.503 3.646 0 .252-.054 3.644 2.503 3.644 2.556 0 2.502-3.392 2.502-3.644" style="fill:#000;fill-opacity:1;fill-rule:nonzero;stroke:none" transform="matrix(.35278 0 0 -.35278 10.36 17.709)"/>
    <path d="M0 0c.759 0 1.376.719 1.376 2.51C1.376 4.3.759 5.019 0 5.019c-.759 0-1.375-.718-1.375-2.509S-.759 0 0 0m2.49 2.51c0-.253.054-3.646-2.502-3.646-2.556 0-2.503 3.393-2.503 3.646 0 .252-.053 3.644 2.503 3.644S2.49 2.762 2.49 2.51" style="fill:#000;fill-opacity:1;fill-rule:nonzero;stroke:none" transform="matrix(.35278 0 0 -.35278 12.623 17.709)"/>
    <path d="M0 0h2.049v-1.137H0v-3.065h-1.111v7.044h4.368V1.73H0Z" style="fill:#000;fill-opacity:1;fill-rule:nonzero;stroke:none" transform="matrix(.35278 0 0 -.35278 15.446 16.584)"/>
    <path d="M0 0h-1.117v6.056H-2.73v.988h4.368v-.988H0Z" style="fill:#000;fill-opacity:1;fill-rule:nonzero;stroke:none" transform="matrix(.35278 0 0 -.35278 17.708 18.066)"/>
    <path d="M0 0c.884 0 1.023.637 1.023.865 0 .307-.23.865-.969.865h-1.453V0Zm-1.399-1.136v-3.066H-2.51v7.044H.038c1.615 0 2.099-1.291 2.099-1.978C2.137.602 2.04-.428 1.043-.9l1.242-3.302H1.073L-.063-1.136z" style="fill:#000;fill-opacity:1;fill-rule:nonzero;stroke:none" transform="matrix(.35278 0 0 -.35278 9.504 7.886)"/>
    <path d="M0 0c.759 0 1.375.719 1.375 2.51C1.375 4.3.759 5.019 0 5.019s-1.375-.718-1.375-2.509S-.759 0 0 0m2.49 2.51c0-.253.054-3.646-2.502-3.646-2.556 0-2.503 3.393-2.503 3.646 0 .252-.053 3.644 2.503 3.644S2.49 2.762 2.49 2.51" style="fill:#000;fill-opacity:1;fill-rule:nonzero;stroke:none" transform="matrix(.35278 0 0 -.35278 11.57 9.01)"/>
    <path d="M0 0h1.417L.72 1.977Zm1.814-1.137H-.398l-.696-1.977h-1.194L.149 3.93h1.119l2.435-7.044H2.51Z" style="fill:#000;fill-opacity:1;fill-rule:nonzero;stroke:none" transform="matrix(.35278 0 0 -.35278 13.58 8.27)"/>
    <path d="M0 0h-1.261v-4.795h1.183c1.025 0 1.361 1.242 1.361 2.568C1.283-1.596 1.103 0 0 0m-2.372-5.932v7.044H.169c1.778 0 2.254-2.341 2.254-3.364 0-2.642-1.359-3.68-2.25-3.68z" style="fill:#000;fill-opacity:1;fill-rule:nonzero;stroke:none" transform="matrix(.35278 0 0 -.35278 16.095 7.275)"/>
</svg>
