<?xml version="1.0" encoding="UTF-8" standalone="no"?>
<!-- Created with Inkscape (http://www.inkscape.org/) -->

<svg
   width="65.355309mm"
   height="65.360031mm"
   viewBox="0 0 65.355309 65.360031"
   version="1.1"
   id="svg1"
   xml:space="preserve"
   xmlns:inkscape="http://www.inkscape.org/namespaces/inkscape"
   xmlns:sodipodi="http://sodipodi.sourceforge.net/DTD/sodipodi-0.dtd"
   xmlns="http://www.w3.org/2000/svg"
   xmlns:svg="http://www.w3.org/2000/svg"><sodipodi:namedview
     id="namedview1"
     pagecolor="#ffffff"
     bordercolor="#000000"
     borderopacity="0.25"
     inkscape:showpageshadow="2"
     inkscape:pageopacity="0.0"
     inkscape:pagecheckerboard="0"
     inkscape:deskcolor="#d1d1d1"
     inkscape:document-units="mm" /><defs
     id="defs1" /><g
     inkscape:label="Layer 1"
     inkscape:groupmode="layer"
     id="layer1"
     transform="translate(-175.93967,786.69065)"><g
       id="g29"
       transform="translate(48.526124,-50.28008)"><path
         d="m 128.34834,-705.99623 29.47556,-29.47839 c 1.24717,-1.24794 3.28761,-1.24794 4.53504,0 l 29.47453,29.47839 c 1.24717,1.24614 1.24717,3.28685 0,4.53479 l -29.47453,29.47453 c -1.24743,1.24845 -3.28787,1.24845 -4.53504,0 l -29.47556,-29.47428 c -1.2464,-1.24794 -1.2464,-3.28838 0,-4.53478"
         style="fill:#fcd116;fill-opacity:1;fill-rule:nonzero;stroke:none;stroke-width:0.0937501"
         id="path1-81" /><path
         id="path2-9"
         style="fill:#000000;fill-opacity:1;fill-rule:evenodd;stroke:none;stroke-width:0.0937501"
         d="m 160.091,-735.50549 c -0.65208,0 -1.30366,0.2474 -1.79834,0.74207 l -29.23335,29.23543 c -0.98961,0.98933 -0.98961,2.60784 0,3.59719 l 29.23335,29.23284 c 0.98935,0.9896 2.60785,0.9896 3.59823,0 l 29.23181,-29.23284 c 0.9896,-0.98935 0.9896,-2.60786 0,-3.59719 l -29.23181,-29.23543 c -0.49519,-0.49467 -1.14781,-0.74207 -1.79989,-0.74207 z m 0,1.28416 c 0.32611,0 0.65229,0.12415 0.89917,0.37155 l 29.21837,29.22199 c 0.4948,0.49455 0.4948,1.30354 0,1.7973 l -29.21837,29.21993 c -0.49403,0.4948 -1.30457,0.4948 -1.79834,0 l -29.21888,-29.21993 c -0.49454,-0.4935 -0.49454,-1.30275 0,-1.7973 l 29.21888,-29.22199 c 0.24702,-0.2474 0.57307,-0.37155 0.89917,-0.37155 z" /><path
         id="path33-8"
         style="fill:#000000;fill-opacity:1;stroke:none;stroke-width:0.399999;stroke-miterlimit:19.4;stroke-dasharray:none;stroke-dashoffset:402.406;stroke-opacity:1"
         d="m 157.11941,-726.5293 a 2.610281,2.610281 0 0 0 -2.61028,2.61028 2.610281,2.610281 0 0 0 2.61028,2.61027 2.610281,2.610281 0 0 0 2.61028,-2.61027 2.610281,2.610281 0 0 0 -2.61028,-2.61028 z m 2.47024,5.12231 c -0.11103,-0.005 -0.22212,-0.005 -0.33319,7.6e-4 -0.25388,0.0127 -0.50747,0.0545 -0.75955,0.13144 -2.01664,0.61524 -2.93956,5.63969 -2.93956,5.63969 l -0.41015,1.70893 -5.23032,3.92879 0.94255,1.57106 5.5348,-2.34447 1.57106,-2.73118 2.10267,4.10887 -2.97276,6.11487 -2.34447,10.68271 3.04543,0.84607 2.48937,-9.6677 1.94565,-2.42903 5.69946,12.30824 2.39269,-1.94818 -4.95024,-14.49315 c 0.88218,-2.30815 -0.29003,-5.36547 -0.29003,-5.36547 l -0.93045,-2.71906 1.76148,0.0869 1.1279,6.93867 1.84585,0.37596 -0.41015,-8.85287 c 0,0 -2.83715,-1.36712 -4.34109,-2.05072 -1.23369,-0.56077 -2.88144,-1.76571 -4.54694,-1.84097 z m -22.04371,22.79369 1.39098,1.40133 h 15.63061 l 0.30761,-1.40133 z m 22.87201,0 -0.36073,1.40133 h 4.04988 l -0.649,-1.40133 z m 9.00873,0 0.4785,1.40133 h 11.33992 l 1.39097,-1.40133 z m -22.1773,9.77551 1.39117,1.40152 h 22.89994 l 1.39136,-1.40152 z" /></g></g></svg>
