<svg width="72.655" height="48.659" viewBox="0 0 19.223 12.874" xmlns="http://www.w3.org/2000/svg">
    <defs>
        <clipPath clipPathUnits="userSpaceOnUse" id="a">
            <path d="M66.889 73.092h505.222V462H66.889Z" transform="translate(-140.763 -365.14)"/>
        </clipPath>
    </defs>
    <path d="M0 0a4.629 4.629 0 0 0-4.624 4.624V31.62A4.63 4.63 0 0 0 0 36.244h44.993a4.63 4.63 0 0 0 4.624-4.624V4.624A4.63 4.63 0 0 0 44.993 0Z" style="fill:#fcd116;fill-opacity:1;fill-rule:nonzero;stroke:none" transform="matrix(.35278 0 0 -.35278 1.675 12.83)" clip-path="url(#a)"/>
    <path d="M0 0h-44.993a4.754 4.754 0 0 1-4.749-4.749v-26.996a4.754 4.754 0 0 1 4.749-4.749H0a4.754 4.754 0 0 1 4.749 4.749v26.996A4.754 4.754 0 0 1 0 0m0-.25a4.499 4.499 0 0 0 4.499-4.499v-26.996A4.499 4.499 0 0 0 0-36.244h-44.993a4.499 4.499 0 0 0-4.499 4.499v26.996A4.499 4.499 0 0 0-44.993-.25z" style="fill:#000;fill-opacity:1;fill-rule:nonzero;stroke:none" transform="matrix(.35278 0 0 -.35278 17.548 0)"/>
    <path d="M0 0a3.378 3.378 0 0 0-3.374 3.374V30.37A3.378 3.378 0 0 0 0 33.745h44.993a3.378 3.378 0 0 0 3.374-3.375V3.374A3.378 3.378 0 0 0 44.993 0Z" style="fill:#000;fill-opacity:1;fill-rule:nonzero;stroke:none" transform="matrix(.35278 0 0 -.35278 1.675 12.39)"/>
    <path d="M0 0a2.253 2.253 0 0 0-2.25 2.25v26.995c0 1.241 1.01 2.25 2.25 2.25h44.993a2.252 2.252 0 0 0 2.249-2.25V2.25A2.252 2.252 0 0 0 44.993 0Z" style="fill:#fcd116;fill-opacity:1;fill-rule:nonzero;stroke:none" transform="matrix(.35278 0 0 -.35278 1.675 11.993)"/>
    <path d="m0 0-3.442 6.094V0h-1.421v8.999h1.421l3.284-5.747v5.747h1.421V0Z" style="fill:#000;fill-opacity:1;fill-rule:nonzero;stroke:none" transform="matrix(.35278 0 0 -.35278 10.882 5.379)"/>
    <path d="M158.397 395.26h1.44v-8.999h-1.44z" style="fill:#000;fill-opacity:1;fill-rule:nonzero;stroke:none" transform="matrix(.35278 0 0 -.35278 -47.983 141.644)"/>
    <path d="m0 0 1.358.505C1.737-.348 2.431-.821 3.283-.821c.822 0 1.391.568 1.391 1.326 0 1.204-1.389 1.389-2.558 1.863-.537.221-1.737.758-1.737 2.241 0 1.77 1.199 2.43 2.81 2.43 1.263 0 2.116-.727 2.558-1.831l-1.263-.379c-.142.355-.656.789-1.327.789-1.283 0-1.392-.685-1.392-.91 0-.841.725-1.007 1.905-1.377C4.872 2.953 6.126 2.4 6.126.471c0-1.942-1.575-2.744-2.843-2.744C1.736-2.273.6-1.358 0 0" style="fill:#000;fill-opacity:1;fill-rule:nonzero;stroke:none" transform="matrix(.35278 0 0 -.35278 2.48 9.923)"/>
    <path d="M0 0h-1.427v7.735h-2.061v1.264h5.581V7.735H0Z" style="fill:#000;fill-opacity:1;fill-rule:nonzero;stroke:none" transform="matrix(.35278 0 0 -.35278 6.126 10.67)"/>
    <path d="M0 0c1.129 0 1.307.814 1.307 1.104 0 .393-.293 1.106-1.238 1.106h-1.856V0Zm-1.787-1.451v-3.917h-1.42v8.999H.048c2.063 0 2.682-1.65 2.682-2.528 0-.334-.124-1.65-1.397-2.253l1.586-4.218H1.371L-.081-1.451z" style="fill:#000;fill-opacity:1;fill-rule:nonzero;stroke:none" transform="matrix(.35278 0 0 -.35278 8.472 8.776)"/>
    <path d="M0 0h5.298v-1.421H1.419v-2.21h2.618v-1.452H1.419v-2.463h4.162v-1.453H0Z" style="fill:#000;fill-opacity:1;fill-rule:nonzero;stroke:none" transform="matrix(.35278 0 0 -.35278 10.042 7.495)"/>
    <path d="M0 0h5.298v-1.421H1.419v-2.21h2.618v-1.452H1.419v-2.463h4.162v-1.453H0Z" style="fill:#000;fill-opacity:1;fill-rule:nonzero;stroke:none" transform="matrix(.35278 0 0 -.35278 12.55 7.495)"/>
    <path d="M0 0h-1.427v7.735h-2.061v1.264h5.581V7.735H0Z" style="fill:#000;fill-opacity:1;fill-rule:nonzero;stroke:none" transform="matrix(.35278 0 0 -.35278 16.004 10.67)"/>
</svg>
