<svg width="116.027" height="115.839" viewBox="0 0 30.699 30.649" xmlns="http://www.w3.org/2000/svg">
    <defs>
        <clipPath clipPathUnits="userSpaceOnUse" id="a">
            <path d="M31.412 45h504.176v508.157H31.412Z" transform="translate(-179.38 -329.371)"/>
        </clipPath>
    </defs>
    <path d="M0 0a4.07 4.07 0 0 0-2.895 1.197l-39.292 39.227a4.062 4.062 0 0 0-1.198 2.89c0 1.092.426 2.119 1.198 2.891l39.292 39.227A4.07 4.07 0 0 0 0 86.629a4.073 4.073 0 0 0 2.895-1.197l39.291-39.227a4.06 4.06 0 0 0 1.199-2.891 4.06 4.06 0 0 0-1.199-2.89L2.895 1.197A4.073 4.073 0 0 0 0 0" style="fill:#fcd116;fill-opacity:1;fill-rule:nonzero;stroke:none" transform="matrix(.35278 0 0 -.35278 15.35 30.605)" clip-path="url(#a)"/>
    <path d="M0 0a4.193 4.193 0 0 1-2.983-1.234l-39.291-39.227a4.179 4.179 0 0 1-1.236-2.978 4.18 4.18 0 0 1 1.236-2.979l39.291-39.227A4.193 4.193 0 0 1 0-86.879c1.127 0 2.186.438 2.983 1.234l39.291 39.227a4.18 4.18 0 0 1 1.236 2.979 4.179 4.179 0 0 1-1.236 2.978L2.983-1.234A4.193 4.193 0 0 1 0 0m0-.25a3.962 3.962 0 0 0 2.807-1.161l39.291-39.227a3.957 3.957 0 0 0 0-5.603L2.807-85.468A3.962 3.962 0 0 0 0-86.629a3.956 3.956 0 0 0-2.806 1.161l-39.292 39.227a3.957 3.957 0 0 0 0 5.603L-2.806-1.411A3.958 3.958 0 0 0 0-.25" style="fill:#000;fill-opacity:1;fill-rule:nonzero;stroke:none" transform="matrix(.35278 0 0 -.35278 15.35 0)"/>
    <path d="M0 0a2.873 2.873 0 0 0-4.054 0l-39.291 39.227a2.86 2.86 0 0 0 0 4.047l39.291 39.227a2.873 2.873 0 0 0 4.054 0l39.291-39.227a2.86 2.86 0 0 0 0-4.047z" style="fill:#000;fill-opacity:1;fill-rule:nonzero;stroke:none" transform="matrix(.35278 0 0 -.35278 16.064 29.877)"/>
    <path d="M0 0c-.387 0-.75.15-1.024.423L-40.315 39.65a1.434 1.434 0 0 0-.423 1.022c0 .387.15.75.423 1.023l39.291 39.227c.274.272.637.423 1.024.423s.751-.151 1.024-.423l39.291-39.227c.273-.273.424-.636.424-1.023 0-.386-.151-.75-.424-1.022L1.024.423A1.439 1.439 0 0 0 0 0" style="fill:#fcd116;fill-opacity:1;fill-rule:nonzero;stroke:none" transform="matrix(.35278 0 0 -.35278 15.35 29.673)"/>
    <path d="M0 0c-.421 0-.815-.163-1.112-.459l-39.291-39.227a1.56 1.56 0 0 1-.461-1.111c0-.42.164-.815.461-1.111l39.291-39.227A1.563 1.563 0 0 1 0-81.594c.421 0 .815.163 1.112.459l39.291 39.227c.297.296.46.691.46 1.111 0 .42-.163.814-.46 1.111L1.112-.459A1.563 1.563 0 0 1 0 0m0-.25c.339 0 .678-.129.935-.386l39.292-39.227a1.322 1.322 0 0 0 0-1.868L.935-80.958A1.315 1.315 0 0 0 0-81.344c-.339 0-.678.128-.936.386l-39.291 39.227a1.32 1.32 0 0 0 0 1.868L-.936-.636c.258.257.597.386.936.386" style="fill:#000;fill-opacity:1;fill-rule:nonzero;stroke:none" transform="matrix(.35278 0 0 -.35278 15.35 .932)"/>
    <path d="M180.923 353.534h-3.087v5.283h3.087zM180.923 369.383h-3.087v5.283h3.087zM180.923 361.458h-3.087v5.283h3.087z" style="fill:#000;fill-opacity:1;fill-rule:nonzero;stroke:none" transform="matrix(.35278 0 0 -.35278 -47.932 146.8)"/>
    <path d="M180.923 353.534h-3.087v5.283h3.087zM180.923 369.383h-3.087v5.283h3.087zM180.923 361.458h-3.087v5.283h3.087z" style="fill:#000;fill-opacity:1;fill-rule:nonzero;stroke:none" transform="matrix(.35278 0 0 -.35278 -47.932 146.8)"/>
    <path d="M0 0h7.056v21.145l7.194 7.182v13.94H7.194V31.245L0 24.063Z" style="fill:#000;fill-opacity:1;fill-rule:nonzero;stroke:none" transform="matrix(.35278 0 0 -.35278 8.893 22.08)"/>
    <path d="M0 0h-7.056v21.145l-7.194 7.182v13.94h7.056V31.245L0 24.063Z" style="fill:#000;fill-opacity:1;fill-rule:nonzero;stroke:none" transform="matrix(.35278 0 0 -.35278 21.806 22.08)"/>
</svg>
