<svg xmlns="http://www.w3.org/2000/svg" width="72.001" height="90" viewBox="0 0 203.204 254">
    <path d="M0 237.067V16.933C0 7.606 7.606 0 16.937 0h169.33c9.32 0 16.937 7.606 16.937 16.933v220.134c0 9.327-7.617 16.933-16.937 16.933H16.937C7.606 254 0 246.394 0 237.067" style="fill:#fcd116;fill-opacity:1;fill-rule:nonzero;stroke:none"/>
    <path d="M4.403 236.095V17.905c0-7.436 6.05-13.504 13.476-13.504H185.32c7.423 0 13.476 6.068 13.476 13.505v218.19c0 7.432-6.053 13.5-13.476 13.5H17.88c-7.426 0-13.476-6.068-13.476-13.5" style="fill:#000;fill-opacity:1;fill-rule:evenodd;stroke:none"/>
    <path d="M11.176 235.95V18.05c0-3.786 3.08-6.876 6.854-6.876h167.132c3.778 0 6.865 3.09 6.865 6.876v217.9c0 3.782-3.087 6.872-6.865 6.872H18.03c-3.775 0-6.854-3.09-6.854-6.872" style="fill:#fcd116;fill-opacity:1;fill-rule:evenodd;stroke:none"/>
    <path d="M174.263 79.32v-5.942H158.83V59.426h8.756v-5.785h-8.756V42.944h13.8v-5.93h-19.885V79.32h21.52zm-34.438-31.028c0 3.419-1.93 5.349-5.49 5.349H128.1V42.944h6.237c3.263 0 5.489 2.082 5.489 5.348m5.94 31.027-6.085-20.782c4.004-1.489 6.086-5.193 6.086-10.245 0-6.83-4.452-11.278-11.134-11.278H122.01V79.32h6.089V59.426h5.789l5.64 19.893h6.238zM105.68 61.804h-6.086l2.97-12.175 3.116 12.175zm10.54 17.515-10.54-42.305h-5.934L89.205 79.32h6.082l2.825-11.578h9.053l2.97 11.578h6.086zm-32.804 0V37.014h-6.093v17.22H65.75v-17.22h-6.09V79.32h6.09V60.17h11.574v19.15h6.093zM52.534 67.741c0-6.089-3.564-10.693-11.727-15.438-3.115-1.785-4.01-2.97-4.01-5.051 0-2.819 2.232-4.9 5.05-4.9 2.675 0 4.75 1.93 4.901 4.9h5.786c-.145-6.379-4.749-10.982-10.686-10.982-6.086 0-10.837 4.896-10.837 10.982 0 3.714 1.781 6.981 5.192 9.355 8.615 5.79 6.238 4.156 7.127 5.045 2.529 1.93 3.418 3.715 3.418 6.09 0 3.41-2.674 6.38-5.94 6.38-4.157 0-5.942-3.71-5.942-7.273h-5.93c0 6.977 4.449 13.236 11.871 13.236 6.53 0 11.727-5.514 11.727-12.344M142.32 147.986v-5.933h-15.434v-13.96h8.756v-5.785h-8.756v-10.69h13.8v-5.937h-19.892v42.305h21.526zm-30.579 0v-42.305h-6.085v17.22H94.074v-17.22h-6.089v42.305h6.09v-19.148h11.58v19.148h6.086zm-29.545-36.66v-5.645H60.67v5.645h7.718v36.66h6.093v-36.66h7.715zM153.827 196.032c0 3.267-.297 6.237-.593 8.9-.593 3.268-2.522 6.093-6.092 6.093H142.1v-30.434h5.042c2.674 0 4.459 1.337 5.5 4.308.744 1.785 1.185 6.378 1.185 11.133m5.94-.296c0-3.267-.448-6.982-1.04-10.093-.745-4.307-2.523-7.574-5.052-9.36-1.482-1.185-3.267-1.633-6.823-1.633h-10.837v42.316h11.726c2.378 0 4.452-.6 5.934-1.93 4.163-3.266 6.092-9.503 6.092-19.3m-40.082 3.708h-6.09l2.968-12.168 3.122 12.168zm10.537 17.522-10.537-42.316h-5.937l-10.545 42.316h6.093l2.818-11.585h9.052l2.97 11.585h6.086zm-38-21.23c0 4.9-.297 7.419-1.338 10.83-1.04 3.57-2.674 5.204-5.196 5.204-2.67 0-4.304-1.634-5.345-5.204-.889-3.411-1.337-6.082-1.337-10.685 0-4.749.296-7.568 1.337-10.83 1.04-3.57 2.674-5.204 5.345-5.204 2.522 0 4.155 1.633 5.196 5.348.889 3.118 1.337 5.785 1.337 10.541m5.79 0c0-6.389-.594-10.396-2.379-14.552-2.074-5.197-5.044-7.274-9.944-7.274-4.897 0-7.867 2.077-10.093 7.13-1.785 4.01-2.378 8.307-2.378 14.696 0 6.533.593 10.541 2.378 14.697 2.074 5.044 5.044 7.295 10.093 7.295 4.748 0 7.87-2.25 9.944-7.295 1.785-4.011 2.378-8.164 2.378-14.697m-36.967-9.797c0 3.408-1.93 5.338-5.49 5.338h-6.237V180.59h6.237c3.264 0 5.49 2.082 5.49 5.348m5.94 31.027-6.085-20.79c4.004-1.48 6.085-5.196 6.085-10.237 0-6.83-4.452-11.289-11.133-11.289H43.23v42.316h6.086v-19.893h5.79l5.64 19.893h6.237z" style="fill:#000;fill-opacity:1;fill-rule:evenodd;stroke:none"/>
</svg>
