<?xml version="1.0" encoding="utf-8"?>
<!-- Generator: Adobe Illustrator 26.1.0, SVG Export Plug-In . SVG Version: 6.00 Build 0)  -->
<svg version="1.1" id="Calque_1" xmlns="http://www.w3.org/2000/svg" xmlns:xlink="http://www.w3.org/1999/xlink" x="0px" y="0px"
	 viewBox="0 0 334.25 417.62" style="enable-background:new 0 0 334.25 417.62;" xml:space="preserve">
<style type="text/css">
	.st0{fill:#FFFFFF;}
	.st1{fill:none;}
</style>
<path d="M21.24,417.62C9.53,417.62,0,408.09,0,396.38V21.24C0,9.53,9.53,0,21.24,0h291.77c11.71,0,21.24,9.53,21.24,21.24v375.14
	c0,11.71-9.53,21.24-21.24,21.24H21.24z"/>
<path class="st0" d="M21.24,0.4h291.77c11.51,0,20.84,9.33,20.84,20.84v375.14c0,11.51-9.33,20.84-20.84,20.84H21.24
	c-11.51,0-20.84-9.33-20.84-20.84V21.24C0.4,9.73,9.73,0.4,21.24,0.4z"/>
<path class="st1" d="M21.24,0.4h291.77c11.51,0,20.84,9.33,20.84,20.84v375.14c0,11.51-9.33,20.84-20.84,20.84H21.24
	c-11.51,0-20.84-9.33-20.84-20.84V21.24C0.4,9.73,9.73,0.4,21.24,0.4z"/>
<path d="M21.24,5.61h291.77c8.63,0,15.63,7,15.63,15.63v375.14c0,8.63-7,15.63-15.63,15.63H21.24c-8.63,0-15.63-7-15.63-15.63V21.24
	C5.61,12.61,12.61,5.61,21.24,5.61"/>
<path class="st0" d="M21.24,14.29h291.77c3.84,0,6.95,3.11,6.95,6.95v375.14c0,3.84-3.11,6.95-6.95,6.95H21.24
	c-3.84,0-6.95-3.11-6.95-6.95V21.24C14.29,17.4,17.4,14.29,21.24,14.29"/>
<g>
	<path d="M105.83,45.89h24.66c6.11,0.29,11.49,2.49,16.15,6.61c5.13,4.55,8.67,10.89,10.62,19.02c1.08,4.37,1.63,8.83,1.63,13.39
		c0,11.35-2.66,20.52-7.97,27.53c-5.17,6.83-12.39,10.59-21.68,11.27l-23.41,0.11V45.89z M129.13,111.53
		c5.78-0.29,10.12-2.89,13.01-7.8c2.96-5.02,4.44-11.2,4.44-18.54c0-5.38-0.8-10.26-2.38-14.63c-3.04-8.35-7.95-12.52-14.74-12.52
		h-11.22v53.5H129.13z"/>
	<path d="M180.73,117.44c-2.57-2.85-4.55-6.43-5.96-10.73c-1.92-5.89-2.87-13.41-2.87-22.55c0-8.2,0.98-15.21,2.93-21.03
		c1.52-4.48,3.52-8.11,6.02-10.89c4.91-5.38,11.13-8.08,18.64-8.08c8.71,0,15.64,3.52,20.81,10.57c1.73,2.38,3.23,5.8,4.5,10.24
		c1.63,5.89,2.44,12.52,2.44,19.89c0,7.59-0.87,14.31-2.6,20.16c-1.3,4.44-2.93,7.89-4.88,10.35c-2.38,3.07-5.44,5.51-9.16,7.32
		c-3.61,1.81-7.28,2.71-11,2.71c-3.36,0-6.76-0.71-10.19-2.11c-3.29-1.34-5.89-3-7.8-4.99L180.73,117.44z M188.86,108.11
		c1.01,1.55,2.47,2.82,4.39,3.79c1.95,1.01,3.99,1.52,6.12,1.52c3.69,0,6.85-1.25,9.49-3.74c0.65-0.65,1.23-1.35,1.73-2.11
		c0.76-1.12,1.41-2.49,1.95-4.12c1.48-4.41,2.37-10.6,2.66-18.59l-0.32-6.34c-0.76-8.64-2.69-14.76-5.8-18.37
		c-2.35-2.71-5.49-4.06-9.43-4.06c-2.06,0-4.06,0.47-6.02,1.41c-1.88,0.94-3.42,2.2-4.61,3.79l-0.05,0.11l-0.05,0.11
		c-0.11,0.11-0.2,0.22-0.27,0.33c-0.22,0.33-0.43,0.69-0.65,1.08c-0.62,1.12-1.16,2.44-1.63,3.96c-1.48,4.63-2.22,10.59-2.22,17.89
		c0,5.53,0.52,10.55,1.57,15.07c0.4,1.7,0.85,3.25,1.36,4.66c0.43,1.12,0.83,2.02,1.19,2.71L188.86,108.11z"/>
	<path d="M78.81,169.89h12.47l28.4,49.81v-49.81h12.19v77.94h-10.51L91,194.61v53.22H78.81V169.89z"/>
	<path d="M157.34,241.44c-2.57-2.85-4.55-6.43-5.96-10.73c-1.92-5.89-2.87-13.41-2.87-22.55c0-8.2,0.98-15.21,2.93-21.03
		c1.52-4.48,3.52-8.11,6.02-10.89c4.91-5.38,11.13-8.08,18.65-8.08c8.71,0,15.64,3.52,20.81,10.57c1.73,2.38,3.23,5.8,4.5,10.24
		c1.63,5.89,2.44,12.52,2.44,19.89c0,7.59-0.87,14.31-2.6,20.16c-1.3,4.44-2.93,7.89-4.88,10.35c-2.38,3.07-5.44,5.51-9.16,7.32
		c-3.61,1.81-7.28,2.71-11,2.71c-3.36,0-6.76-0.71-10.19-2.11c-3.29-1.34-5.89-3-7.8-4.99L157.34,241.44z M165.47,232.11
		c1.01,1.55,2.48,2.82,4.39,3.79c1.95,1.01,3.99,1.52,6.12,1.52c3.69,0,6.85-1.25,9.49-3.74c0.65-0.65,1.23-1.35,1.73-2.11
		c0.76-1.12,1.41-2.49,1.95-4.12c1.48-4.41,2.37-10.6,2.65-18.59l-0.32-6.34c-0.76-8.64-2.69-14.76-5.8-18.37
		c-2.35-2.71-5.49-4.07-9.43-4.07c-2.06,0-4.06,0.47-6.02,1.41c-1.88,0.94-3.41,2.2-4.61,3.79l-0.05,0.11l-0.05,0.11
		c-0.11,0.11-0.2,0.22-0.27,0.33c-0.22,0.33-0.43,0.69-0.65,1.08c-0.62,1.12-1.16,2.44-1.63,3.96c-1.48,4.62-2.22,10.59-2.22,17.88
		c0,5.53,0.52,10.55,1.57,15.07c0.4,1.7,0.85,3.25,1.35,4.66c0.43,1.12,0.83,2.02,1.19,2.71L165.47,232.11z"/>
	<path d="M231.43,180.95h-17.94v-11.06h48.35v10.95h-17.83v66.99h-12.57V180.95z"/>
	<path d="M42.69,293.89h33.17c5.46,0.43,10.12,2.75,13.98,6.94c3.94,4.26,5.91,9.29,5.91,15.07c0,6-2.15,11.17-6.45,15.5
		c-4.16,4.19-8.98,6.29-14.47,6.29H55.1v34.15H42.69V293.89z M74.5,325.55c2.53-0.22,4.46-0.99,5.8-2.33
		c2.13-2.13,3.2-4.66,3.2-7.59c0-2.78-0.9-5.09-2.71-6.94c-1.7-1.77-3.7-2.66-6.02-2.66H55.21v19.51H74.5z"/>
	<path d="M101.98,371.83l26.99-77.94h12.19l27.05,77.94h-12.95l-7.86-22.6h-24.44l-7.91,22.6H101.98z M143.23,337.2l-8.02-23.36
		l-8.13,23.36H143.23z"/>
	<path d="M175.26,352.27l11.71-3.63c1.66,4.19,4.08,7.41,7.26,9.65c3,2.1,6.36,3.14,10.08,3.14c3.07,0,5.78-1.16,8.13-3.47
		c2.35-2.28,3.52-4.93,3.52-7.97c0-2.67-0.83-5.13-2.49-7.37c-1.73-2.31-4.03-3.94-6.88-4.88c-1.01-0.36-2.31-0.65-3.9-0.87
		l-2.01-0.27l-2.01-0.27c-6.29-1.01-11-3.16-14.15-6.45c-3.83-3.97-5.75-8.67-5.75-14.09c0-6.14,2.38-11.56,7.15-16.26
		c4.84-4.73,10.46-7.1,16.86-7.1c5.35,0,10.12,1.52,14.31,4.55c4.23,3.07,7.17,7.21,8.83,12.41l-11.6,3.9
		c-2.31-5.71-6.12-8.56-11.44-8.56c-3.22,0-5.94,1.08-8.18,3.25c-2.24,2.17-3.36,4.81-3.36,7.91c0,2.64,0.94,4.66,2.82,6.07
		c0.9,0.72,3.97,1.57,9.21,2.55c5.17,0.98,9.27,2.3,12.3,3.96c2.53,1.34,4.82,3.27,6.88,5.8c3.83,4.66,5.75,9.9,5.75,15.72
		c0,4.73-1.41,9.14-4.23,13.22c-2.89,4.12-6.69,7.1-11.38,8.94c-2.13,0.87-4.86,1.3-8.18,1.3c-6.14,0-11.69-1.61-16.64-4.82
		c-5.09-3.36-8.98-8.08-11.65-14.15l-0.71-1.52L175.26,352.27z"/>
	<path d="M238.51,352.27l11.71-3.63c1.66,4.19,4.08,7.41,7.26,9.65c3,2.1,6.36,3.14,10.08,3.14c3.07,0,5.78-1.16,8.13-3.47
		c2.35-2.28,3.52-4.93,3.52-7.97c0-2.67-0.83-5.13-2.49-7.37c-1.73-2.31-4.03-3.94-6.88-4.88c-1.01-0.36-2.31-0.65-3.9-0.87
		l-2.01-0.27l-2.01-0.27c-6.29-1.01-11-3.16-14.15-6.45c-3.83-3.97-5.75-8.67-5.75-14.09c0-6.14,2.38-11.56,7.15-16.26
		c4.84-4.73,10.46-7.1,16.86-7.1c5.35,0,10.12,1.52,14.31,4.55c4.23,3.07,7.17,7.21,8.83,12.41l-11.6,3.9
		c-2.31-5.71-6.12-8.56-11.44-8.56c-3.22,0-5.94,1.08-8.18,3.25c-2.24,2.17-3.36,4.81-3.36,7.91c0,2.64,0.94,4.66,2.82,6.07
		c0.9,0.72,3.97,1.57,9.21,2.55c5.17,0.98,9.27,2.3,12.3,3.96c2.53,1.34,4.82,3.27,6.88,5.8c3.83,4.66,5.75,9.9,5.75,15.72
		c0,4.73-1.41,9.14-4.23,13.22c-2.89,4.12-6.69,7.1-11.38,8.94c-2.13,0.87-4.86,1.3-8.18,1.3c-6.14,0-11.69-1.61-16.64-4.82
		c-5.09-3.36-8.98-8.08-11.65-14.15l-0.71-1.52L238.51,352.27z"/>
</g>
</svg>
