<?xml version="1.0" encoding="UTF-8" standalone="no"?>
<!-- Created with Inkscape (http://www.inkscape.org/) -->

<svg
   width="26.08333mm"
   height="9.8922415mm"
   viewBox="0 0 26.08333 9.8922415"
   version="1.1"
   id="svg1"
   inkscape:version="1.3 (0e150ed, 2023-07-21)"
   sodipodi:docname="MUTCD_R9-25a.svg"
   xmlns:inkscape="http://www.inkscape.org/namespaces/inkscape"
   xmlns:sodipodi="http://sodipodi.sourceforge.net/DTD/sodipodi-0.dtd"
   xmlns="http://www.w3.org/2000/svg"
   xmlns:svg="http://www.w3.org/2000/svg">
  <sodipodi:namedview
     id="namedview1"
     pagecolor="#ffffff"
     bordercolor="#666666"
     borderopacity="1.0"
     inkscape:showpageshadow="2"
     inkscape:pageopacity="0.0"
     inkscape:pagecheckerboard="0"
     inkscape:deskcolor="#d1d1d1"
     inkscape:document-units="mm"
     inkscape:zoom="1"
     inkscape:cx="48"
     inkscape:cy="19"
     inkscape:window-width="1440"
     inkscape:window-height="431"
     inkscape:window-x="0"
     inkscape:window-y="23"
     inkscape:window-maximized="0"
     inkscape:current-layer="layer1" />
  <defs
     id="defs1">
    <clipPath
       clipPathUnits="userSpaceOnUse"
       id="clipPath157">
      <path
         d="M 92.917,175.072 H 546.082 V 743.001 H 92.917 Z"
         transform="translate(-286.81431,-645.47732)"
         id="path157" />
    </clipPath>
  </defs>
  <g
     inkscape:label="Layer 1"
     inkscape:groupmode="layer"
     id="layer1"
     transform="translate(-91.281248,-143.66875)">
    <g
       id="g155"
       transform="matrix(0.26458333,0,0,0.26458333,-8.193265,101.82708)">
      <path
         id="path156"
         d="m 0,0 c -2.6,0 -4.715,2.115 -4.715,4.715 v 18.361 c 0,2.6 2.115,4.716 4.715,4.716 h 64.258 c 2.599,0 4.715,-2.116 4.715,-4.716 V 4.715 C 68.973,2.115 66.857,0 64.258,0 Z"
         style="fill:#ffffff;fill-opacity:1;fill-rule:nonzero;stroke:none"
         transform="matrix(1.3333333,0,0,-1.3333333,382.41907,195.3636)"
         clip-path="url(#clipPath157)" />
    </g>
    <g
       id="g157"
       transform="matrix(0.26458333,0,0,0.26458333,-8.193265,101.82708)">
      <path
         id="path158"
         d="m 0,0 h -64.257 c -2.669,0 -4.84,-2.171 -4.84,-4.84 v -18.361 c 0,-2.669 2.171,-4.84 4.84,-4.84 H 0 c 2.669,0 4.84,2.171 4.84,4.84 V -4.84 C 4.84,-2.171 2.669,0 0,0 m 0,-0.25 c 2.535,0 4.59,-2.055 4.59,-4.59 v -18.361 c 0,-2.535 -2.055,-4.59 -4.59,-4.59 h -64.257 c -2.535,0 -4.59,2.055 -4.59,4.59 V -4.84 c 0,2.535 2.055,4.59 4.59,4.59 z"
         style="fill:#000000;fill-opacity:1;fill-rule:nonzero;stroke:none"
         transform="matrix(1.3333333,0,0,-1.3333333,468.096,158.14173)" />
    </g>
    <g
       id="g158"
       transform="matrix(0.26458333,0,0,0.26458333,-8.193265,101.82708)">
      <path
         id="path159"
         d="m 0,0 c -1.898,0 -3.442,1.544 -3.442,3.443 v 18.361 c 0,1.898 1.544,3.442 3.442,3.442 h 64.257 c 1.898,0 3.443,-1.544 3.443,-3.442 V 3.443 C 67.7,1.544 66.155,0 64.257,0 Z"
         style="fill:#000000;fill-opacity:1;fill-rule:nonzero;stroke:none"
         transform="matrix(1.3333333,0,0,-1.3333333,382.4196,193.66667)" />
      <path
         id="path160"
         d="m 0,0 c -1.265,0 -2.295,1.03 -2.295,2.295 v 18.361 c 0,1.266 1.03,2.295 2.295,2.295 h 64.257 c 1.266,0 2.295,-1.029 2.295,-2.295 V 2.295 C 66.552,1.03 65.523,0 64.257,0 Z"
         style="fill:#ffffff;fill-opacity:1;fill-rule:nonzero;stroke:none"
         transform="matrix(1.3333333,0,0,-1.3333333,382.4196,192.13653)" />
      <path
         id="path161"
         d="m 0,0 c -1.1,0 -2.031,0.72 -2.35,1.713 l 2.194,0.473 C -0.11,2.16 -0.057,2.145 0,2.145 c 0.178,0 0.322,0.144 0.322,0.322 0,0.155 -0.11,0.285 -0.256,0.316 L -1.283,4.575 C -0.909,4.803 -0.47,4.935 0,4.935 1.363,4.935 2.467,3.83 2.467,2.467 2.467,1.105 1.363,0 0,0 m -2.467,2.467 c 0,0.719 0.307,1.366 0.798,1.817 l 1.248,-1.66 -2.03,-0.437 c -0.01,0.092 -0.016,0.185 -0.016,0.28 M -3.014,2.066 -3.979,1.858 -2.859,5.865 -2.016,4.744 C -2.644,4.187 -3.041,3.373 -3.041,2.467 c 0,-0.136 0.009,-0.27 0.027,-0.401 m -1.374,0.129 -0.15,0.569 h 0.234 V 2.993 H -5.043 V 2.764 h 0.294 L -4.6,2.199 -7.779,5.659 c 0.052,0.165 0.104,0.334 0.157,0.503 h 4.343 z M -7.516,2.467 C -7.516,1.105 -8.62,0 -9.983,0 c -1.362,0 -2.467,1.105 -2.467,2.467 0,1.363 1.105,2.468 2.467,2.468 0.485,0 0.936,-0.14 1.317,-0.381 -0.303,-0.658 -0.894,-1.366 -1.319,-1.765 -0.177,-0.001 -0.32,-0.145 -0.32,-0.322 0,-0.178 0.144,-0.322 0.322,-0.322 0.165,0 0.3,0.123 0.32,0.283 0.208,0.195 0.48,0.482 0.749,0.826 0.2,0.256 0.449,0.61 0.639,0.993 0.468,-0.449 0.759,-1.08 0.759,-1.78 M 0,5.508 c -0.599,0 -1.158,-0.173 -1.629,-0.473 l -1.066,1.418 0.14,0.5 C -1.887,7.01 -1.517,7.264 -1.54,7.51 -1.562,7.748 -2.225,7.57 -2.962,7.56 -3.164,7.558 -4.237,7.562 -4.231,7.366 -4.224,7.164 -3.538,6.999 -3.058,6.953 L -3.143,6.647 h -4.33 c 0.092,0.301 0.176,0.579 0.242,0.794 0.055,0.185 0.097,0.323 0.118,0.392 l -0.315,0.24 0.149,0.151 H -6.12 V 8.607 H -7.439 L -8.005,8.033 -7.642,7.756 C -7.811,7.199 -8.208,5.891 -8.465,5.103 -8.911,5.361 -9.43,5.508 -9.983,5.508 c -1.679,0 -3.041,-1.361 -3.041,-3.041 0,-1.679 1.362,-3.041 3.041,-3.041 1.68,0 3.041,1.362 3.041,3.041 0,0.945 -0.431,1.79 -1.107,2.347 0.031,0.095 0.065,0.2 0.101,0.313 l 3.272,-3.562 c 0,-0.009 -10e-4,-0.019 -10e-4,-0.028 0,-0.193 0.153,-0.35 0.344,-0.356 l 0.23,-0.872 H -4.337 V 0.08 h 0.739 v 0.229 h -0.295 l -0.242,0.923 c 0.049,0.031 0.091,0.073 0.121,0.123 l 1.101,0.237 C -2.537,0.339 -1.375,-0.574 0,-0.574 c 1.679,0 3.041,1.362 3.041,3.041 0,1.68 -1.362,3.041 -3.041,3.041"
         style="fill:#000000;fill-opacity:1;fill-rule:nonzero;stroke:none"
         transform="matrix(1.3333333,0,0,-1.3333333,398.25453,182.44613)" />
    </g>
    <g
       id="g161"
       transform="matrix(0.26458333,0,0,0.26458333,-8.193265,101.82708)">
      <path
         id="path162"
         d="m 347.248,657.938 h -4.793 v 2.869 h 4.793 z"
         style="fill:#000000;fill-opacity:1;fill-rule:nonzero;stroke:none"
         transform="matrix(1.3333333,0,0,-1.3333333,0,1056)" />
    </g>
    <g
       id="g162"
       transform="matrix(0.26458333,0,0,0.26458333,-8.193265,101.82708)">
      <path
         id="path163"
         d="M 0,0 5.408,3.721 0,7.442 C -0.461,7.76 -1.058,7.298 -0.866,6.772 L 0.245,3.721 -0.866,0.67 C -1.058,0.144 -0.461,-0.317 0,0"
         style="fill:#000000;fill-opacity:1;fill-rule:nonzero;stroke:none"
         transform="matrix(1.3333333,0,0,-1.3333333,462.65587,181.79747)" />
    </g>
    <g
       id="g163"
       transform="matrix(0.26458333,0,0,0.26458333,-8.193265,101.82708)">
      <path
         id="path164"
         d="M 0,0 H -0.883 V 5.304 H -2.002 V 6.12 H 1.12 V 5.304 H 0 Z"
         style="fill:#000000;fill-opacity:1;fill-rule:nonzero;stroke:none"
         transform="matrix(1.3333333,0,0,-1.3333333,418.30333,187.03627)" />
      <path
         id="path165"
         d="M 0,0 V 4.342 H 0.878 V -0.06 c 0,-0.576 0.337,-0.967 0.857,-0.967 0.471,0 0.814,0.386 0.814,0.967 V 4.342 H 3.428 V -0.013 C 3.428,-1.405 2.353,-1.886 1.735,-1.886 1.169,-1.886 0,-1.518 0,0"
         style="fill:#000000;fill-opacity:1;fill-rule:nonzero;stroke:none"
         transform="matrix(1.3333333,0,0,-1.3333333,420.93893,184.6648)" />
      <path
         id="path166"
         d="m 0,0 v -1.546 h 0.899 c 0.516,0 0.794,0.279 0.794,0.773 C 1.693,-0.3 1.371,0 0.9,0 Z M 0.836,-2.384 H 0 v -2.877 h -0.878 v 6.12 h 1.821 c 0.96,0 1.607,-0.644 1.607,-1.632 0,-0.73 -0.3,-1.267 -0.879,-1.482 L 2.549,-5.261 H 1.651 Z"
         style="fill:#000000;fill-opacity:1;fill-rule:nonzero;stroke:none"
         transform="matrix(1.3333333,0,0,-1.3333333,428.47587,180.02147)" />
      <path
         id="path167"
         d="m 0,0 v -4.101 h -0.878 v 6.12 H 0 L 1.671,-1.653 V 2.019 H 2.55 v -6.12 H 1.886 Z"
         style="fill:#000000;fill-opacity:1;fill-rule:nonzero;stroke:none"
         transform="matrix(1.3333333,0,0,-1.3333333,434.434,181.56787)" />
      <path
         id="path168"
         d="m 0,0 c 0.474,0 0.862,0.43 0.862,0.924 -0.001,1.304 -2.285,1.301 -2.285,2.965 0,0.88 0.69,1.588 1.574,1.588 0.862,0 1.531,-0.665 1.552,-1.589 H 0.861 C 0.84,4.317 0.538,4.596 0.15,4.596 c -0.41,0 -0.733,-0.3 -0.733,-0.707 0,-0.367 0.23,-0.513 0.516,-0.692 0.827,-0.499 1.77,-1.102 1.77,-2.274 0,-0.99 -0.755,-1.782 -1.704,-1.782 -1.077,0 -1.724,0.912 -1.724,1.912 h 0.864 C -0.861,0.532 -0.603,0 0,0"
         style="fill:#000000;fill-opacity:1;fill-rule:nonzero;stroke:none"
         transform="matrix(1.3333333,0,0,-1.3333333,441.52133,186.03573)" />
    </g>
    <g
       id="g168"
       transform="matrix(0.26458333,0,0,0.26458333,-8.193265,101.82708)">
      <path
         id="path169"
         d="M 0,0 V 4.342 H 0.879 V -0.06 c 0,-0.576 0.336,-0.967 0.857,-0.967 0.471,0 0.815,0.386 0.815,0.967 V 4.342 H 3.43 V -0.013 C 3.43,-1.405 2.354,-1.886 1.736,-1.886 1.17,-1.886 0,-1.518 0,0"
         style="fill:#000000;fill-opacity:1;fill-rule:nonzero;stroke:none"
         transform="matrix(1.3333333,0,0,-1.3333333,404.34867,172.42413)" />
      <path
         id="path170"
         d="M 0,0 H 0.883 L 0.431,1.761 Z m 1.098,-0.859 h -1.313 l -0.409,-1.675 h -0.883 l 1.528,6.12 h 0.862 l 1.528,-6.12 H 1.528 Z"
         style="fill:#000000;fill-opacity:1;fill-rule:nonzero;stroke:none"
         transform="matrix(1.3333333,0,0,-1.3333333,415.01093,171.41733)" />
      <path
         id="path171"
         d="m 0,0 v -4.101 h -0.878 v 6.12 H 0 L 1.671,-1.653 V 2.019 H 2.55 v -6.12 H 1.886 Z"
         style="fill:#000000;fill-opacity:1;fill-rule:nonzero;stroke:none"
         transform="matrix(1.3333333,0,0,-1.3333333,420.53853,169.3272)" />
      <path
         id="path172"
         d="m 0,0 h -0.686 v -4.402 h 0.61 c 0.716,0 1.083,0.313 1.083,2.169 C 1.007,-0.083 0.47,0 0,0 m -1.564,-5.261 v 6.12 h 1.746 c 0.373,0 1.682,-0.018 1.682,-3.049 0,-2.774 -1.209,-3.071 -1.609,-3.071 z"
         style="fill:#000000;fill-opacity:1;fill-rule:nonzero;stroke:none"
         transform="matrix(1.3333333,0,0,-1.3333333,427.81933,167.78093)" />
      <path
         id="path173"
         d="M 0,0 H 0.883 V -5.304 H 3.122 V -6.12 H 0 Z"
         style="fill:#000000;fill-opacity:1;fill-rule:nonzero;stroke:none"
         transform="matrix(1.3333333,0,0,-1.3333333,435.4044,166.63533)" />
      <path
         id="path174"
         d="M 0,0 H 2.885 V -0.859 H 0.883 v -1.546 h 1.27 V -3.243 H 0.883 V -5.262 H 3.122 V -6.12 H 0 Z"
         style="fill:#000000;fill-opacity:1;fill-rule:nonzero;stroke:none"
         transform="matrix(1.3333333,0,0,-1.3333333,440.71013,166.63533)" />
      <path
         id="path175"
         d="M 0,0 H 1.228 V -0.838 H 0 v -2.877 h -0.883 v 6.12 H 2.24 V 1.546 H 0 Z"
         style="fill:#000000;fill-opacity:1;fill-rule:nonzero;stroke:none"
         transform="matrix(1.3333333,0,0,-1.3333333,447.43787,169.8424)" />
      <path
         id="path176"
         d="m 0,0 h -0.883 v 5.304 h -1.12 V 6.12 H 1.12 V 5.304 H 0 Z"
         style="fill:#000000;fill-opacity:1;fill-rule:nonzero;stroke:none"
         transform="matrix(1.3333333,0,0,-1.3333333,453.58413,174.79573)" />
    </g>
  </g>
</svg>
