<?xml version="1.0" encoding="UTF-8" standalone="no"?>
<!-- Created with Inkscape (http://www.inkscape.org/) -->

<svg
   xmlns:dc="http://purl.org/dc/elements/1.1/"
   xmlns:cc="http://creativecommons.org/ns#"
   xmlns:rdf="http://www.w3.org/1999/02/22-rdf-syntax-ns#"
   xmlns:svg="http://www.w3.org/2000/svg"
   xmlns="http://www.w3.org/2000/svg"
   xmlns:sodipodi="http://sodipodi.sourceforge.net/DTD/sodipodi-0.dtd"
   xmlns:inkscape="http://www.inkscape.org/namespaces/inkscape"
   width="158.75mm"
   height="198.4375mm"
   viewBox="0 0 158.75 198.4375"
   version="1.1"
   id="svg8"
   sodipodi:docname="MUTCD_R3-4 (1961 final).svg"
   inkscape:version="0.92.3 (2405546, 2018-03-11)">
  <defs
     id="defs2" />
  <sodipodi:namedview
     id="base"
     pagecolor="#ffffff"
     bordercolor="#666666"
     borderopacity="1.0"
     inkscape:pageopacity="0.0"
     inkscape:pageshadow="2"
     inkscape:zoom="0.49497475"
     inkscape:cx="130.72485"
     inkscape:cy="444.94714"
     inkscape:document-units="mm"
     inkscape:current-layer="layer1"
     showgrid="false"
     fit-margin-top="0"
     fit-margin-left="0"
     fit-margin-right="0"
     fit-margin-bottom="0"
     inkscape:window-width="1366"
     inkscape:window-height="745"
     inkscape:window-x="-8"
     inkscape:window-y="-8"
     inkscape:window-maximized="1" />
  <metadata
     id="metadata5">
    <rdf:RDF>
      <cc:Work
         rdf:about="">
        <dc:format>image/svg+xml</dc:format>
        <dc:type
           rdf:resource="http://purl.org/dc/dcmitype/StillImage" />
        <dc:title></dc:title>
      </cc:Work>
    </rdf:RDF>
  </metadata>
  <g
     inkscape:label="Layer 1"
     inkscape:groupmode="layer"
     id="layer1"
     transform="translate(0,-98.562502)">
    <rect
       style="fill:#ffffff;fill-opacity:1;stroke:#000000;stroke-width:0.26458332;stroke-miterlimit:4;stroke-dasharray:none;stroke-dashoffset:0;stroke-opacity:1"
       id="rect815"
       width="158.48541"
       height="198.17291"
       x="0.13229166"
       y="98.694794"
       rx="13.229167"
       ry="13.229167" />
    <rect
       style="fill:#000000;fill-opacity:1;stroke:none;stroke-width:0.26458335;stroke-miterlimit:4;stroke-dasharray:none;stroke-dashoffset:0;stroke-opacity:1"
       id="rect815-5"
       width="153.45834"
       height="193.14583"
       x="2.6458261"
       y="101.20834"
       rx="10.583333"
       ry="10.583333" />
    <rect
       style="fill:#ffffff;fill-opacity:1;stroke:none;stroke-width:0.26458338;stroke-miterlimit:4;stroke-dasharray:none;stroke-dashoffset:0;stroke-opacity:1"
       id="rect815-5-1"
       width="142.875"
       height="182.5625"
       x="7.9374981"
       y="106.5"
       rx="5.2916665"
       ry="5.2916665" />
    <path
       inkscape:connector-curvature="0"
       id="path1015"
       style="font-style:normal;font-variant:normal;font-weight:normal;font-stretch:normal;font-size:medium;line-height:1.25;font-family:'Roadgeek 2005 Series D';-inkscape-font-specification:'Roadgeek 2005 Series D';letter-spacing:0px;word-spacing:0px;fill:#000000;fill-opacity:1;stroke:none;stroke-width:0.26458335"
       d="M 75.461663,156.19897 V 124.26979 H 70.41018 v 20.39655 L 58.782239,124.26979 h -5.051483 v 31.92918 h 5.051483 v -21.63559 l 12.199807,21.63559 z" />
    <path
       inkscape:connector-curvature="0"
       id="path1017"
       style="font-style:normal;font-variant:normal;font-weight:normal;font-stretch:normal;font-size:medium;line-height:1.25;font-family:'Roadgeek 2005 Series D';-inkscape-font-specification:'Roadgeek 2005 Series D';letter-spacing:0px;word-spacing:0px;fill:#000000;fill-opacity:1;stroke:none;stroke-width:0.26458335"
       d="m 105.01924,140.28204 c 0,-4.00306 -0.81014,-8.05378 -2.1445,-10.86546 -2.00153,-3.90775 -4.813201,-5.71866 -8.863918,-5.71866 -3.669473,0 -6.24287,1.14374 -8.14909,3.57417 -2.144498,3.04995 -3.478852,7.76784 -3.478852,13.00995 0,3.81244 0.905455,8.05378 2.239809,10.77014 1.90622,3.90775 4.717894,5.71866 9.197511,5.71866 3.335885,0 5.909282,-1.14373 7.72019,-3.57416 2.23981,-2.81168 3.47885,-7.86316 3.47885,-12.91464 z m -5.051481,0 c 0,2.47808 -0.571866,5.62335 -1.239043,7.29129 -1.096076,2.81167 -2.573397,4.05072 -4.908516,4.05072 -2.049186,0 -3.38354,-0.81015 -4.384306,-2.47809 -1.239043,-2.00153 -1.90622,-5.48038 -1.90622,-8.86392 0,-2.66871 0.4289,-5.5757 1.239043,-7.48192 1.048421,-2.71636 2.573397,-3.9554 4.860861,-3.9554 0.09531,0 0.190622,0 0.285933,0 1.90622,0.14296 3.145263,0.81014 4.146028,2.47808 1.239043,2.1445 1.90622,5.38508 1.90622,8.95924 z" />
    <path
       inkscape:connector-curvature="0"
       id="path1006"
       style="font-style:normal;font-variant:normal;font-weight:normal;font-stretch:normal;font-size:medium;line-height:1.25;font-family:'Roadgeek 2005 Series D';-inkscape-font-specification:'Roadgeek 2005 Series D';letter-spacing:0px;word-spacing:0px;fill:#000000;fill-opacity:1;stroke:none;stroke-width:0.26458338"
       d="m 47.278782,243.3501 v -4.55843 h -20.07652 v 4.55843 h 7.419583 v 27.93255 h 5.140366 V 243.3501 Z" />
    <path
       inkscape:connector-curvature="0"
       id="path1008"
       style="font-style:normal;font-variant:normal;font-weight:normal;font-stretch:normal;font-size:medium;line-height:1.25;font-family:'Roadgeek 2005 Series D';-inkscape-font-specification:'Roadgeek 2005 Series D';letter-spacing:0px;word-spacing:0px;fill:#000000;fill-opacity:1;stroke:none;stroke-width:0.26458338"
       d="m 74.150526,259.64409 v -20.85242 h -5.140365 v 20.85242 c 0,4.21898 -2.376207,6.98314 -5.91627,6.98314 -3.540063,0 -5.916269,-2.76416 -5.916269,-6.98314 v -20.85242 h -5.140365 v 20.85242 c 0,2.52169 0.581928,4.80091 1.45482,6.74067 1.745784,3.2006 5.625305,5.47982 9.601814,5.47982 3.976509,0 7.85603,-2.27922 9.55332,-5.47982 0.921387,-1.93976 1.503315,-4.21898 1.503315,-6.74067 z" />
    <path
       inkscape:connector-curvature="0"
       id="path1010"
       style="font-style:normal;font-variant:normal;font-weight:normal;font-stretch:normal;font-size:medium;line-height:1.25;font-family:'Roadgeek 2005 Series D';-inkscape-font-specification:'Roadgeek 2005 Series D';letter-spacing:0px;word-spacing:0px;fill:#000000;fill-opacity:1;stroke:none;stroke-width:0.26458338"
       d="m 103.98571,271.28265 -5.722297,-15.17862 c 3.006627,-1.35783 5.043377,-4.75241 5.043377,-8.19549 0,-3.29759 -2.03675,-6.74067 -4.897895,-8.0985 -1.600303,-0.7759 -3.297593,-1.01837 -5.819282,-1.01837 H 81.872437 v 32.49098 h 5.140365 V 257.1224 h 6.15874 l 5.237353,14.16025 z m -5.819285,-23.37411 c 0,1.35783 -0.775905,2.71567 -2.036749,3.44308 -0.824398,0.43644 -1.357832,0.53343 -2.958134,0.53343 h -6.15874 v -7.95302 h 6.15874 c 1.69729,0 2.085242,0.097 2.958134,0.58193 1.260844,0.67892 2.036749,2.03675 2.036749,3.39458 z" />
    <path
       inkscape:connector-curvature="0"
       id="path1012"
       style="font-style:normal;font-variant:normal;font-weight:normal;font-stretch:normal;font-size:medium;line-height:1.25;font-family:'Roadgeek 2005 Series D';-inkscape-font-specification:'Roadgeek 2005 Series D';letter-spacing:0px;word-spacing:0px;fill:#000000;fill-opacity:1;stroke:none;stroke-width:0.26458338"
       d="m 131.54773,271.28265 v -32.49098 h -5.14036 v 20.75543 l -11.83254,-20.75543 h -5.14037 v 32.49098 h 5.14037 v -22.01628 l 12.41447,22.01628 z" />
    <path
       inkscape:connector-curvature="0"
       id="path1020"
       style="font-style:normal;font-variant:normal;font-weight:normal;font-stretch:normal;font-size:medium;line-height:1.25;font-family:'Roadgeek 2005 Series E';-inkscape-font-specification:'Roadgeek 2005 Series E';letter-spacing:0px;word-spacing:0px;fill:#000000;fill-opacity:1;stroke:none;stroke-width:0.26458341"
       d="m 100.36321,202.35909 v -31.03617 h -9.310854 v 31.03617 c 0,2.87084 -0.387952,4.73301 -1.629399,6.75036 -2.017351,3.41398 -5.896872,5.66411 -10.086755,5.66411 -4.189882,0 -7.991813,-2.25013 -10.009164,-5.66411 -1.241447,-2.01735 -1.629399,-3.64675 -1.629399,-6.75036 v -31.03617 h -9.310851 v 31.03617 c 0,12.72483 8.767718,21.8805 20.949414,21.8805 12.259287,0 21.027008,-9.15567 21.027008,-21.8805 z" />
  </g>
</svg>
