<?xml version="1.0" encoding="UTF-8" standalone="no"?>
<!-- Created with Inkscape (http://www.inkscape.org/) -->

<svg
   width="12in"
   height="21in"
   viewBox="0 0 304.8 533.40001"
   version="1.1"
   id="svg925"
   inkscape:version="1.1.1 (c3084ef, 2021-09-22)"
   sodipodi:docname="MUTCD R7-112b.svg"
   xmlns:inkscape="http://www.inkscape.org/namespaces/inkscape"
   xmlns:sodipodi="http://sodipodi.sourceforge.net/DTD/sodipodi-0.dtd"
   xmlns="http://www.w3.org/2000/svg"
   xmlns:svg="http://www.w3.org/2000/svg">
  <sodipodi:namedview
     id="namedview927"
     pagecolor="#ffffff"
     bordercolor="#666666"
     borderopacity="1.0"
     inkscape:pageshadow="2"
     inkscape:pageopacity="0.0"
     inkscape:pagecheckerboard="0"
     inkscape:document-units="in"
     showgrid="false"
     units="in"
     inkscape:zoom="0.36401473"
     inkscape:cx="548.05474"
     inkscape:cy="1204.6216"
     inkscape:window-width="1440"
     inkscape:window-height="855"
     inkscape:window-x="0"
     inkscape:window-y="23"
     inkscape:window-maximized="1"
     inkscape:current-layer="layer2"
     inkscape:snap-bbox="true"
     inkscape:snap-bbox-edge-midpoints="true"
     inkscape:snap-bbox-midpoints="true"
     inkscape:snap-midpoints="true"
     inkscape:bbox-paths="true"
     inkscape:bbox-nodes="true"
     inkscape:object-paths="true"
     inkscape:snap-intersection-paths="true"
     inkscape:snap-smooth-nodes="true" />
  <defs
     id="defs922" />
  <g
     inkscape:label="Sign Back"
     inkscape:groupmode="layer"
     id="layer1"
     sodipodi:insensitive="true">
    <rect
       style="fill:#ffffff;stroke:#000000;stroke-width:1.5748;stroke-linecap:square;stroke-miterlimit:10;stroke-dasharray:none"
       id="rect1008"
       width="303.21249"
       height="531.8252"
       x="0.7937547"
       y="0.79374337"
       rx="37.312599"
       ry="37.306252" />
    <rect
       style="fill:none;stroke:#006747;stroke-width:9.525;stroke-linecap:square;stroke-miterlimit:10;stroke-dasharray:none;stroke-opacity:1"
       id="rect1178"
       width="276.22501"
       height="504.82501"
       x="14.287498"
       y="14.287502"
       rx="23.799801"
       ry="23.8125" />
    <rect
       style="fill:#006747;stroke:none;stroke-width:19.05"
       id="rect1426"
       width="285.75"
       height="6.3499999"
       x="9.5250015"
       y="165.10001" />
    <path
       id="rect1582"
       style="fill:#006747;stroke:none;stroke-width:72"
       d="M 144,36 C 84.167999,36 36,84.167999 36,144 V 648.00001 H 372 V 36 Z"
       transform="scale(0.26458334)"
       sodipodi:nodetypes="cccccc" />
  </g>
  <g
     inkscape:groupmode="layer"
     id="layer2"
     inkscape:label="Legends">
    <g
       aria-label="2"
       id="text3191"
       style="font-size:151.642px;line-height:1.25;font-family:'Roadgeek 2005 Series C';-inkscape-font-specification:'Roadgeek 2005 Series C';text-align:center;letter-spacing:0px;text-anchor:middle;fill:#ffffff;stroke-width:3.79106">
      <path
         d="m 25.617947,142.87514 q 0.303284,-5.15583 0.606568,-8.94688 0.454926,-3.79105 0.909852,-6.82389 0.606568,-3.03284 1.364778,-5.7624 0.909852,-2.88119 2.122988,-6.21732 6.217322,-15.922408 16.377336,-25.324212 0.909852,-0.75821 1.819704,-1.51642 1.061493,-0.909852 2.426271,-1.971346 1.51642,-1.061494 3.487766,-2.577914 2.122988,-1.51642 5.155828,-3.639408 5.004186,-3.487766 6.672248,-5.914038 1.819704,-2.426272 1.819704,-6.217322 0,-2.881198 -1.213136,-5.459112 -1.061494,-2.577914 -3.03284,-4.54926 -1.819704,-1.971346 -4.54926,-3.03284 -2.577914,-1.213136 -5.459112,-1.213136 -3.03284,0 -5.610753,1.213136 -2.577914,1.061494 -4.54926,3.03284 -1.819704,1.971346 -3.03284,4.54926 -1.061494,2.577914 -1.061494,5.459112 H 25.617947 q 0.151642,-5.914038 2.27463,-11.069866 2.27463,-5.30747 6.06568,-9.09852 3.79105,-3.942692 8.946878,-6.06568 5.155828,-2.27463 11.221507,-2.27463 5.914038,0 10.918224,2.27463 5.155828,2.27463 8.946878,6.217322 3.942692,3.79105 6.06568,8.946878 2.27463,5.155828 2.27463,11.069866 0,12.13136 -8.643594,20.016744 -0.75821,0.606568 -1.668062,1.213136 -0.75821,0.454926 -1.51642,1.213136 l -3.487766,2.577914 -3.639408,2.426272 -3.942692,2.881198 q -2.426272,1.8197 -4.852544,4.39762 -2.27463,2.42627 -4.54926,5.45911 -2.122987,2.8812 -3.791049,6.21732 -1.668062,3.18448 -2.729556,6.36897 -0.909852,1.97134 -1.364778,3.6394 -0.303284,1.51642 -0.909852,4.24598 h 41.094981 v 14.25435 z"
         id="path49859" />
    </g>
    <g
       aria-label="PARKING"
       id="text6246"
       style="font-size:75.8209px;line-height:1.25;font-family:'Roadgeek 2005 Series B';-inkscape-font-specification:'Roadgeek 2005 Series B';text-align:center;letter-spacing:-3.175px;text-anchor:middle;fill:#006747;stroke-width:1.89553">
      <path
         d="m 128.72494,116.38508 q 0,6.36896 -3.2603,10.16 -3.2603,3.71523 -8.64359,3.71523 h -3.56358 v 22.1397 h -6.44477 v -50.8 h 10.00835 q 2.12299,0 3.94269,0.53074 1.89552,0.53075 3.18448,1.59224 2.12298,1.74388 3.41194,5.15582 1.36478,3.33612 1.36478,7.50627 z m -6.59642,0 q 0,-4.32179 -1.36478,-6.21731 -1.28895,-1.97135 -3.94269,-1.97135 h -3.56358 v 15.54329 h 3.56358 q 2.8812,0 4.09433,-1.59224 1.21314,-1.66806 1.21314,-5.76239 z"
         id="path49844" />
      <path
         d="m 149.27122,152.40001 -2.8812,-13.57194 h -8.3403 l -2.88119,13.57194 h -6.59642 l 10.38746,-50.8 h 6.5206 l 10.53911,50.8 z m -6.97553,-33.51284 -2.80537,13.34448 h 5.4591 z"
         id="path49846" />
      <path
         d="m 181.7581,115.85434 q 0,4.32179 -1.28895,6.8997 -1.21314,2.57791 -4.01851,4.32179 l 5.15582,25.32418 h -6.59642 l -5.76239,-23.73194 h -2.95701 v 23.73194 h -6.44478 v -50.8 h 10.00836 q 11.90388,0 11.90388,14.25433 z m -6.59642,-0.15165 q 0,-4.32179 -1.21313,-5.91403 -1.13732,-1.59224 -4.47343,-1.59224 h -3.18448 v 13.87523 h 4.24597 q 2.65373,0 3.6394,-1.36478 0.98567,-1.36477 0.98567,-5.00418 z"
         id="path49848" />
      <path
         d="m 202.2795,152.40001 -6.82388,-24.03523 -2.42627,4.92836 v 19.10687 h -6.44477 v -50.8 h 6.44477 v 16.22567 l 7.9612,-16.22567 h 7.50627 l -8.3403,17.4388 9.02269,33.3612 z"
         id="path49850" />
      <path
         d="m 214.21182,152.40001 v -50.8 h 6.44478 v 50.8 z"
         id="path49852" />
      <path
         d="m 245.03657,152.40001 -9.93254,-30.1009 v 30.1009 h -6.44478 v -50.8 h 6.44478 l 9.02269,25.32418 v -25.32418 h 6.44477 v 50.8 z"
         id="path49854" />
      <path
         d="m 278.82781,140.79941 q 0,1.74388 -0.22746,3.56358 -0.22746,1.81971 -0.53075,3.03284 -0.83403,2.65373 -3.18448,4.32179 -2.35044,1.59224 -5.8382,1.59224 -3.94269,0 -6.29314,-1.59224 -2.35045,-1.59224 -3.56358,-5.23164 -0.60657,-1.74388 -1.06149,-3.56358 -0.37911,-1.8197 -0.60657,-4.09433 -0.22746,-2.27463 -0.37911,-5.15582 -0.0758,-2.8812 -0.0758,-6.74806 0,-3.79105 0.0758,-6.59642 0.15165,-2.8812 0.37911,-5.08 0.30328,-2.27463 0.75821,-4.09433 0.45492,-1.8197 1.13731,-3.6394 1.21314,-3.56359 3.48776,-5.08 2.35045,-1.51642 6.1415,-1.51642 4.32179,0 6.74806,2.57791 2.42626,2.50209 3.03283,7.20298 h -6.44478 q -0.45492,-3.18447 -3.18447,-3.18447 -3.71523,0 -4.47344,4.92835 -0.22746,1.51642 -0.45492,3.03284 -0.22746,1.4406 -0.37911,3.10866 -0.0758,1.66806 -0.15164,3.71522 -0.0758,2.04717 -0.0758,4.62508 0,2.65373 0.0758,4.62507 0.0758,1.97135 0.15164,3.71523 0.15165,1.66806 0.30329,3.18447 0.15164,1.51642 0.3791,3.10866 0.53075,2.50209 1.51642,3.86687 0.98567,1.28895 2.72955,1.28895 1.74388,0 2.65373,-1.4406 0.90985,-1.51641 0.90985,-4.09432 v -6.74806 h -3.03283 v -6.59642 h 9.47761 v 12.96537 z"
         id="path49856" />
    </g>
    <g
       id="g18146"
       style="fill:#006747"
       transform="translate(0,76.200004)">
      <path
         id="rect8051"
         style="fill:#006747;stroke-width:0.145639;stroke-linecap:square;stroke-miterlimit:10"
         d="m 212.65596,368.3 a 3.8171621,3.8171621 0 0 0 -3.81716,3.81716 3.8171621,3.8171621 0 0 0 0.18471,1.1684 l -10e-4,9e-4 6.56901,20.41354 -6.56901,20.41354 10e-4,9.2e-4 a 3.8171621,3.8171621 0 0 0 -0.18471,1.1684 3.8171621,3.8171621 0 0 0 3.81716,3.81716 3.8171621,3.8171621 0 0 0 2.16049,-0.67084 l 3.7e-4,2.8e-4 36.01075,-24.72945 -36.01075,-24.72945 -2.8e-4,1.9e-4 A 3.8171621,3.8171621 0 0 0 212.65592,368.3 Z" />
      <rect
         style="fill:#006747;stroke-width:0.3777;stroke-linecap:square;stroke-miterlimit:10"
         id="rect18055"
         width="161.62021"
         height="19.050001"
         x="-215.5952"
         y="384.17502"
         transform="scale(-1,1)" />
    </g>
    <g
       aria-label="HR"
       id="text20558"
       style="font-size:75.8209px;line-height:1.25;font-family:'Roadgeek 2005 Series C';-inkscape-font-specification:'Roadgeek 2005 Series C';text-align:center;letter-spacing:-3.96875px;text-anchor:middle;fill:#006747;stroke-width:1.89553">
      <path
         d="M 182.50268,82.550003 V 59.57627 h -13.95105 v 22.973733 h -7.2788 V 31.75 h 7.2788 v 20.699106 h 13.95105 V 31.75 h 7.2788 v 50.800003 z"
         id="path49839" />
      <path
         d="M 217.84588,82.550003 211.09782,58.66642 h -6.97552 v 23.883583 h -7.27881 V 31.75 h 15.16418 q 2.95701,0 5.38328,0.985672 2.50209,0.985671 4.24597,2.729552 1.81971,1.743881 2.72956,4.321791 0.98567,2.50209 0.98567,5.534926 0,4.549254 -1.8197,7.733732 -1.8197,3.184478 -5.45911,4.549254 l 7.27881,24.945076 z m 0.3791,-37.228062 q 0,-2.957015 -1.8197,-4.700896 -1.8197,-1.74388 -4.77671,-1.74388 h -7.50627 v 12.813732 h 7.50627 q 3.18447,0 4.85253,-1.592239 1.74388,-1.66806 1.74388,-4.776717 z"
         id="path49841" />
    </g>
    <g
       aria-label="ELECTRIC"
       id="text23915"
       style="font-size:56.8657px;line-height:1.25;font-family:'Roadgeek 2005 Series C';-inkscape-font-specification:'Roadgeek 2005 Series C';text-align:center;text-anchor:middle;fill:#006747;stroke-width:1.42164">
      <path
         d="M 58.551159,231.14001 V 193.04 h 17.912695 v 5.34537 H 64.010266 v 9.6103 h 7.904332 v 5.23165 h -7.904332 v 12.56732 h 13.932096 v 5.34537 z"
         id="path49822" />
      <path
         d="M 84.31843,231.14001 V 193.04 h 5.459107 v 33.03897 h 13.932093 v 5.06104 z"
         id="path49824" />
      <path
         d="M 109.08611,231.14001 V 193.04 h 17.91269 v 5.34537 h -12.45358 v 9.6103 h 7.90433 v 5.23165 h -7.90433 v 12.56732 h 13.93209 v 5.34537 z"
         id="path49826" />
      <path
         d="m 149.97965,203.21896 q -0.85298,-5.51598 -4.54926,-5.51598 -1.6491,0 -2.84328,0.73926 -1.13731,0.68239 -1.87657,2.27463 -0.68239,1.53537 -1.02358,4.09433 -0.28433,2.55895 -0.28433,6.25522 0,8.24553 1.47851,11.82807 1.53537,3.58254 5.06105,3.58254 1.19418,0 1.93343,-0.45493 0.79612,-0.45492 1.25105,-1.19418 0.51179,-0.79612 0.68238,-1.76283 0.1706,-1.02359 0.1706,-2.10404 h 5.45911 q -0.0569,2.38836 -0.79612,4.37866 -0.73926,1.9903 -1.9903,3.46881 -1.25105,1.42164 -3.01388,2.21776 -1.70597,0.79612 -3.69627,0.79612 -6.1415,0 -8.98478,-5.00418 -2.78642,-5.00418 -2.78642,-15.5812 0,-9.32598 2.84328,-14.10269 2.84329,-4.77672 8.52986,-4.77672 2.33149,0 4.26492,1.02358 1.93344,0.96672 3.24135,2.84328 1.08045,1.42165 1.59224,2.90016 0.51179,1.4785 0.79612,4.09433 z"
         id="path49828" />
      <path
         d="m 172.56067,198.10104 v 33.03897 h -5.51597 v -33.03897 h -6.93762 V 193.04 h 19.39121 v 5.06104 z"
         id="path49830" />
      <path
         d="m 200.47373,231.14001 -5.06104,-17.91269 h -5.23165 v 17.91269 h -5.4591 V 193.04 h 11.37314 q 2.21776,0 4.03746,0.73925 1.87657,0.73925 3.18448,2.04717 1.36478,1.30791 2.04716,3.24134 0.73926,1.87657 0.73926,4.1512 0,3.41194 -1.36478,5.8003 -1.36478,2.38836 -4.09433,3.41194 l 5.45911,18.70881 z m 0.28433,-27.92105 q 0,-2.21777 -1.36477,-3.52568 -1.36478,-1.30791 -3.58254,-1.30791 h -5.62971 v 9.6103 h 5.62971 q 2.38836,0 3.6394,-1.19417 1.30791,-1.25105 1.30791,-3.58254 z"
         id="path49832" />
      <path
         d="M 212.48838,231.14001 V 193.04 h 5.34538 v 38.10001 z"
         id="path49834" />
      <path
         d="m 241.38682,203.21896 q -0.85299,-5.51598 -4.54926,-5.51598 -1.64911,0 -2.84328,0.73926 -1.13732,0.68239 -1.87657,2.27463 -0.68239,1.53537 -1.02359,4.09433 -0.28432,2.55895 -0.28432,6.25522 0,8.24553 1.4785,11.82807 1.53538,3.58254 5.06105,3.58254 1.19418,0 1.93344,-0.45493 0.79611,-0.45492 1.25104,-1.19418 0.51179,-0.79612 0.68239,-1.76283 0.1706,-1.02359 0.1706,-2.10404 h 5.4591 q -0.0569,2.38836 -0.79612,4.37866 -0.73925,1.9903 -1.9903,3.46881 -1.25104,1.42164 -3.01388,2.21776 -1.70597,0.79612 -3.69627,0.79612 -6.14149,0 -8.98478,-5.00418 -2.78642,-5.00418 -2.78642,-15.5812 0,-9.32598 2.84329,-14.10269 2.84328,-4.77672 8.52985,-4.77672 2.3315,0 4.26493,1.02358 1.93343,0.96672 3.24134,2.84328 1.08045,1.42165 1.59224,2.90016 0.51179,1.4785 0.79612,4.09433 z"
         id="path49836" />
    </g>
    <g
       aria-label="VEHICLES"
       id="text44240"
       style="font-size:56.8657px;line-height:1.25;font-family:'Roadgeek 2005 Series C';-inkscape-font-specification:'Roadgeek 2005 Series C';text-align:center;text-anchor:middle;fill:#006747;stroke-width:1.42164">
      <path
         d="M 67.523056,279.40002 H 63.37186 l -9.610304,-38.10001 h 5.515973 l 6.255227,24.73657 6.312093,-24.73657 h 5.459107 z"
         id="path49805" />
      <path
         d="M 82.596909,279.40002 V 241.30001 H 100.5096 v 5.34537 H 88.056016 v 9.6103 h 7.904332 v 5.23165 h -7.904332 v 12.56732 h 13.932094 v 5.34537 z"
         id="path49807" />
      <path
         d="m 124.28658,279.40002 v -17.2303 h -10.46329 v 17.2303 h -5.45911 v -38.10001 h 5.45911 v 15.52433 h 10.46329 v -15.52433 h 5.4591 v 38.10001 z"
         id="path49809" />
      <path
         d="m 138.01875,279.40002 v -38.10001 h 5.34538 v 38.10001 z"
         id="path49811" />
      <path
         d="m 166.91719,251.47897 q -0.85298,-5.51598 -4.54926,-5.51598 -1.6491,0 -2.84328,0.73926 -1.13731,0.68239 -1.87657,2.27463 -0.68239,1.53537 -1.02358,4.09433 -0.28433,2.55895 -0.28433,6.25522 0,8.24553 1.47851,11.82807 1.53537,3.58254 5.06105,3.58254 1.19418,0 1.93343,-0.45493 0.79612,-0.45492 1.25105,-1.19418 0.51179,-0.79612 0.68238,-1.76283 0.1706,-1.02359 0.1706,-2.10404 h 5.45911 q -0.0569,2.38836 -0.79612,4.37866 -0.73926,1.9903 -1.9903,3.46881 -1.25105,1.42164 -3.01388,2.21776 -1.70597,0.79612 -3.69627,0.79612 -6.1415,0 -8.98478,-5.00418 -2.78642,-5.00418 -2.78642,-15.5812 0,-9.32598 2.84328,-14.10269 2.84329,-4.77672 8.52986,-4.77672 2.33149,0 4.26492,1.02358 1.93344,0.96672 3.24135,2.84328 1.08045,1.42165 1.59224,2.90016 0.51179,1.4785 0.79612,4.09433 z"
         id="path49813" />
      <path
         d="m 180.00163,279.40002 v -38.10001 h 5.45911 v 33.03897 h 13.93209 v 5.06104 z"
         id="path49815" />
      <path
         d="M 204.76931,279.40002 V 241.30001 H 222.682 v 5.34537 h -12.45358 v 9.6103 h 7.90433 v 5.23165 h -7.90433 v 12.56732 h 13.93209 v 5.34537 z"
         id="path49817" />
      <path
         d="m 249.92778,268.9936 q 0,2.3315 -0.85298,4.37866 -0.79612,1.9903 -2.27463,3.46881 -1.42164,1.47851 -3.35507,2.38836 -1.87657,0.85298 -4.09434,0.85298 -2.50209,0 -4.49239,-0.96671 -1.9903,-0.96672 -3.35507,-2.61583 -1.36478,-1.6491 -2.10403,-3.81 -0.73926,-2.16089 -0.73926,-4.49239 h 5.34538 q 0,1.19418 0.28433,2.38836 0.34119,1.13731 0.96671,2.10403 0.68239,0.90985 1.64911,1.47851 1.02358,0.56866 2.44522,0.56866 1.08045,0 2.04717,-0.45493 1.02358,-0.45492 1.70597,-1.25104 0.73925,-0.79612 1.13731,-1.81971 0.45493,-1.08044 0.45493,-2.21776 0,-1.6491 -0.68239,-2.90015 -0.68239,-1.30791 -2.38836,-2.61582 -0.28433,-0.28433 -0.22746,-0.28433 0.0569,-0.0569 -0.34119,-0.34119 -0.39806,-0.28433 -1.70598,-1.08045 -1.25104,-0.85299 -4.15119,-2.84329 -2.3315,-1.59224 -3.52567,-3.69627 -1.13732,-2.16089 -1.13732,-4.71985 0,-2.04717 0.73926,-3.81 0.73925,-1.81971 2.04716,-3.18448 1.36478,-1.36478 3.12761,-2.10403 1.76284,-0.79612 3.81001,-0.79612 2.04716,0 3.75313,0.73925 1.76284,0.73926 3.01388,2.04717 1.30792,1.30791 2.04717,3.12761 0.79612,1.8197 0.85298,3.9806 h -5.23164 q -0.11373,-1.9903 -1.36478,-3.18448 -1.25104,-1.19418 -3.07074,-1.19418 -1.87657,0 -3.18448,1.25105 -1.30791,1.25104 -1.30791,3.12761 0,1.42164 0.73925,2.38836 0.73925,0.96672 2.84328,2.16089 5.51598,3.18448 8.01807,6.48269 2.55895,3.29822 2.55895,7.44941 z"
         id="path49819" />
    </g>
    <g
       aria-label="ONLY"
       id="text44244"
       style="font-size:56.8657px;line-height:1.25;font-family:'Roadgeek 2005 Series C';-inkscape-font-specification:'Roadgeek 2005 Series C';text-align:center;text-anchor:middle;fill:#006747;stroke-width:1.42164">
      <path
         d="m 122.97733,311.09314 q 0,4.37866 -0.51179,7.4494 -0.45493,3.07075 -1.64911,5.80031 -1.42164,3.41194 -3.58253,5.00418 -2.10404,1.53537 -5.34538,1.53537 -3.41194,0 -5.57284,-1.53537 -2.10403,-1.59224 -3.52567,-5.00418 -1.19418,-2.78642 -1.70597,-5.80031 -0.45493,-3.07074 -0.45493,-7.4494 0,-4.3218 0.45493,-7.39254 0.51179,-3.12762 1.70597,-5.85717 1.47851,-3.41194 3.58254,-4.89045 2.16089,-1.53538 5.51597,-1.53538 3.29821,0 5.40224,1.53538 2.10403,1.47851 3.52567,5.00418 0.56866,1.42164 0.96672,2.84329 0.45493,1.42164 0.68239,3.01388 0.28433,1.53537 0.39806,3.35507 0.11373,1.76284 0.11373,3.92374 z m -5.23164,0 q 0,-1.59224 -0.11373,-2.90015 -0.0569,-1.30791 -0.22747,-2.38836 -0.11373,-1.13732 -0.34119,-2.1609 -0.22746,-1.02358 -0.51179,-2.04716 -0.73926,-2.55896 -1.87657,-3.69628 -1.08045,-1.13731 -2.78642,-1.13731 -3.52567,0 -4.83358,4.71985 -0.68239,2.1609 -0.96672,4.37866 -0.22746,2.1609 -0.22746,5.34538 0,1.53537 0.0569,2.84328 0.11373,1.25105 0.22746,2.38836 0.1706,1.08045 0.39806,2.1609 0.22747,1.08045 0.5118,2.21776 1.30791,4.71985 4.83358,4.71985 1.70597,0 2.78642,-1.13731 1.13731,-1.13731 1.87657,-3.58254 0.34119,-1.13731 0.56865,-2.16089 0.22747,-1.08045 0.3412,-2.21777 0.1706,-1.13731 0.22746,-2.38836 0.0569,-1.30791 0.0569,-2.95701 z"
         id="path49796" />
      <path
         d="m 147.86318,330.20001 -11.7712,-25.5327 v 25.5327 h -5.4591 v -38.10002 h 5.4591 L 146.55527,314.96 v -22.86001 h 5.45911 v 38.10002 z"
         id="path49798" />
      <path
         d="m 160.28745,330.20001 v -38.10002 h 5.45911 v 33.03897 h 13.9321 v 5.06105 z"
         id="path49800" />
      <path
         d="m 196.94006,312.96971 v 17.2303 h -5.45911 v -17.2303 l -9.38284,-20.86972 h 5.74344 l 6.42582,13.7615 6.31209,-13.7615 h 5.85717 z"
         id="path49802" />
    </g>
    <g
       aria-label="7AM - 8:30PM"
       id="text44248"
       style="font-size:56.8657px;line-height:1.25;font-family:'Roadgeek 2005 Series C';-inkscape-font-specification:'Roadgeek 2005 Series C';text-align:center;text-anchor:middle;fill:#006747;stroke-width:1.42164">
      <path
         d="m 59.549418,347.84733 q -1.876568,3.86687 -3.241344,7.50627 -1.307912,3.6394 -2.160897,7.56314 -0.852986,3.92373 -1.307911,8.35926 -0.454926,4.37865 -0.625523,9.72403 h -4.947316 q 0.170597,-5.17478 0.682389,-9.72403 0.511791,-4.60613 1.364776,-8.64359 0.909852,-4.03747 2.217763,-7.67687 1.307911,-3.69627 3.070748,-7.10821 H 43.115231 v -4.94732 h 16.434187 v 4.94732 z"
         style="font-family:'Roadgeek 2005 Series B';-inkscape-font-specification:'Roadgeek 2005 Series B'"
         id="path49775" />
      <path
         d="m 79.392882,381.00003 -2.160896,-10.17896 h -6.255227 l -2.160897,10.17896 h -4.947316 l 7.790601,-38.10002 h 4.89045 l 7.904332,38.10002 z m -5.231644,-25.13464 -2.104031,10.00836 h 4.09433 z"
         style="font-family:'Roadgeek 2005 Series B';-inkscape-font-specification:'Roadgeek 2005 Series B'"
         id="path49777" />
      <path
         d="m 103.75095,381.00003 v -22.57568 l -4.549257,14.27329 -4.662987,-14.27329 v 22.57568 h -4.833585 v -38.10002 h 4.833585 l 4.662987,13.47717 4.549257,-13.47717 h 4.77672 v 38.10002 z"
         style="font-family:'Roadgeek 2005 Series B';-inkscape-font-specification:'Roadgeek 2005 Series B'"
         id="path49779" />
      <path
         d="m 121.28958,365.64629 v -4.94731 h 11.88493 v 4.94731 z"
         style="font-family:'Roadgeek 2005 Series B';-inkscape-font-specification:'Roadgeek 2005 Series B'"
         id="path49781" />
      <path
         d="m 160.17505,369.91122 q 0,2.72955 -0.62552,5.17478 -0.62552,2.38836 -1.76284,3.92373 -1.02358,1.30791 -2.44522,1.9903 -1.42165,0.68239 -3.29821,0.68239 -2.55896,0 -4.1512,-1.02358 -1.53537,-1.02359 -2.55896,-3.12762 -0.68238,-1.47851 -1.13731,-3.4688 -0.45493,-2.04717 -0.45493,-4.1512 0,-2.90015 0.73926,-5.28851 0.79612,-2.38836 2.21776,-4.20806 -1.25104,-1.42165 -1.76284,-3.12762 -0.51179,-1.70597 -0.51179,-4.20806 0,-4.94731 1.9903,-7.90433 2.04717,-2.95702 5.45911,-2.95702 3.58254,0 5.57284,2.95702 2.04716,2.90015 2.04716,7.90433 0,2.38836 -0.51179,4.20806 -0.51179,1.81971 -1.76283,3.12762 1.42164,1.8197 2.16089,4.15119 0.79612,2.27463 0.79612,5.34538 z m -5.6297,-16.60479 q 0,-3.01388 -0.62553,-4.54925 -0.56865,-1.59224 -1.87656,-1.59224 -1.42165,0 -2.04717,1.59224 -0.62552,1.53537 -0.62552,4.54925 0,5.11792 2.67269,5.11792 2.50209,0 2.50209,-5.11792 z m 0.68239,16.60479 q 0,-3.24135 -0.85299,-4.89045 -0.85299,-1.64911 -2.33149,-1.64911 -3.35508,0 -3.35508,6.53956 0,3.24134 0.85299,5.06105 0.85298,1.76283 2.50209,1.76283 1.4785,0 2.33149,-1.76283 0.85299,-1.81971 0.85299,-5.06105 z"
         style="font-family:'Roadgeek 2005 Series B';-inkscape-font-specification:'Roadgeek 2005 Series B'"
         id="path49783" />
      <path
         d="m 169.58455,358.31898 q 0,1.19418 -0.85299,1.9903 -0.79611,0.79612 -1.99029,0.79612 -1.13732,0 -1.9903,-0.79612 -0.79612,-0.79612 -0.79612,-1.9903 0,-1.25105 0.79612,-2.04717 0.85298,-0.79612 1.9903,-0.79612 1.19418,0 1.99029,0.79612 0.85299,0.79612 0.85299,2.04717 z m 0,10.52015 q 0,1.13732 -0.85299,1.9903 -0.79611,0.85299 -1.99029,0.85299 -1.13732,0 -1.9903,-0.85299 -0.79612,-0.85298 -0.79612,-1.9903 0,-1.19418 0.79612,-1.9903 0.85298,-0.79612 1.9903,-0.79612 1.19418,0 1.99029,0.79612 0.85299,0.79612 0.85299,1.9903 z"
         style="font-family:'Roadgeek 2005 Series B';-inkscape-font-specification:'Roadgeek 2005 Series B'"
         id="path49785" />
      <path
         d="m 189.14456,370.30928 q 0,2.84328 -0.56865,5.11791 -0.56866,2.27463 -1.70597,3.69627 -1.13732,1.30791 -2.50209,1.93344 -1.36478,0.62552 -3.75314,0.62552 -2.1609,0 -3.75314,-1.02358 -1.59224,-1.02359 -2.84328,-3.01389 -1.19418,-1.76283 -1.19418,-3.75313 h 4.94731 q 0.11374,1.25104 0.90986,2.04716 0.85298,0.79612 2.04716,0.79612 1.93343,0 2.67269,-1.47851 0.79612,-1.53537 0.79612,-4.94731 0,-2.27463 -0.22746,-3.75314 -0.1706,-1.47851 -0.62553,-2.33149 -0.45492,-0.85299 -1.30791,-1.19418 -0.79612,-0.34119 -1.9903,-0.34119 h -1.59224 v -4.94732 h 1.19418 q 1.9903,0 2.78642,-1.25105 0.85299,-1.30791 0.85299,-4.60612 0,-4.71985 -2.95702,-4.71985 -1.13731,0 -1.8197,0.68239 -0.62552,0.68239 -0.73926,1.87657 h -4.94731 q 0.22746,-3.52568 2.21776,-5.51598 2.04717,-1.9903 5.28851,-1.9903 7.90433,0 7.90433,9.66717 0,2.50209 -0.45492,4.37866 -0.45493,1.87657 -1.59224,3.86687 0.73925,0.73925 1.13731,1.30791 0.45493,0.51179 0.73926,1.13731 0.62552,1.36478 0.85298,3.29821 0.22746,1.87657 0.22746,4.43553 z"
         style="font-family:'Roadgeek 2005 Series B';-inkscape-font-specification:'Roadgeek 2005 Series B'"
         id="path49787" />
      <path
         d="m 211.93616,361.89316 q -0.0569,1.59223 -0.11373,3.69627 0,2.04716 -0.22746,4.26492 -0.1706,2.1609 -0.68239,4.26493 -0.45492,2.10403 -1.42164,3.75314 -0.96672,1.6491 -2.50209,2.67268 -1.53538,0.96672 -3.86687,0.96672 -2.38836,0 -3.9806,-0.96672 -1.59224,-1.02358 -2.61582,-2.67268 -0.96672,-1.64911 -1.47851,-3.75314 -0.51179,-2.10403 -0.73925,-4.26493 -0.1706,-2.21776 -0.1706,-4.26492 0,-2.10404 0,-3.69627 0,-1.70598 0.0569,-3.81001 0.0569,-2.10403 0.28432,-4.26492 0.28433,-2.21777 0.79612,-4.26493 0.56866,-2.10403 1.53538,-3.69627 1.02358,-1.64911 2.55895,-2.61582 1.53538,-1.02359 3.75314,-1.02359 2.33149,0 3.86687,1.02359 1.59224,0.96671 2.55895,2.61582 0.96672,1.59224 1.47851,3.69627 0.51179,2.04716 0.68239,4.26493 0.22746,2.16089 0.22746,4.32179 0,2.10403 0,3.75314 z m -5.11791,0 q 0,-0.68239 0,-1.9903 0.0569,-1.36478 0,-2.95702 -0.0569,-1.64911 -0.22746,-3.35508 -0.1706,-1.70597 -0.56866,-3.12761 -0.39806,-1.42164 -1.13731,-2.33149 -0.68239,-0.90986 -1.76284,-0.96672 -1.08045,0.0569 -1.8197,0.96672 -0.73926,0.90985 -1.19418,2.33149 -0.45493,1.42164 -0.68239,3.12761 -0.22746,1.70597 -0.28433,3.35508 -0.0569,1.59224 -0.0569,2.95702 0,1.30791 0,1.9903 0,0.68238 0,2.04716 0,1.30791 0.0569,2.95702 0.0569,1.59224 0.28433,3.35507 0.22746,1.70597 0.68239,3.12762 0.45492,1.36477 1.13731,2.27462 0.73926,0.90986 1.87657,0.90986 1.08045,0 1.76284,-0.85299 0.68239,-0.90985 1.08045,-2.33149 0.39806,-1.42165 0.56865,-3.12762 0.22747,-1.70597 0.28433,-3.29821 0.0569,-1.6491 0,-3.01388 0,-1.36478 0,-2.04716 z"
         style="font-family:'Roadgeek 2005 Series B';-inkscape-font-specification:'Roadgeek 2005 Series B'"
         id="path49789" />
      <path
         d="m 235.30886,353.98882 q 0,4.77672 -2.44522,7.62001 -2.44523,2.78642 -6.48269,2.78642 h -2.67269 v 16.60478 h -4.83358 v -38.10002 h 7.50627 q 1.59224,0 2.95702,0.39806 1.42164,0.39806 2.38835,1.19418 1.59224,1.30791 2.55896,3.86687 1.02358,2.50209 1.02358,5.6297 z m -4.94731,0 q 0,-3.24134 -1.02358,-4.66298 -0.96672,-1.47851 -2.95702,-1.47851 h -2.67269 v 11.65747 h 2.67269 q 2.1609,0 3.07075,-1.19418 0.90985,-1.25105 0.90985,-4.3218 z"
         style="font-family:'Roadgeek 2005 Series B';-inkscape-font-specification:'Roadgeek 2005 Series B'"
         id="path49791" />
      <path
         d="m 254.57833,381.00003 v -22.57568 l -4.54926,14.27329 -4.66299,-14.27329 v 22.57568 h -4.83358 v -38.10002 h 4.83358 l 4.66299,13.47717 4.54926,-13.47717 h 4.77671 v 38.10002 z"
         style="font-family:'Roadgeek 2005 Series B';-inkscape-font-specification:'Roadgeek 2005 Series B'"
         id="path49793" />
    </g>
    <g
       aria-label="MON - SAT"
       id="text44252"
       style="font-size:56.8657px;line-height:1.25;font-family:'Roadgeek 2005 Series C';-inkscape-font-specification:'Roadgeek 2005 Series C';text-align:center;text-anchor:middle;fill:#006747;stroke-width:1.42164">
      <path
         d="m 74.338054,431.80002 v -21.3815 l -7.051346,21.3815 -7.108213,-21.3815 v 21.3815 H 54.719388 V 393.7 h 5.459107 l 7.108213,21.3815 7.051346,-21.3815 h 5.515973 v 38.10002 z"
         id="path49760" />
      <path
         d="m 109.81603,412.69314 q 0,4.37866 -0.51179,7.44941 -0.45492,3.07075 -1.6491,5.8003 -1.42165,3.41194 -3.58254,5.00418 -2.10403,1.53538 -5.345379,1.53538 -3.411942,0 -5.572839,-1.53538 -2.10403,-1.59224 -3.525673,-5.00418 -1.19418,-2.78642 -1.705971,-5.8003 -0.454926,-3.07075 -0.454926,-7.44941 0,-4.32179 0.454926,-7.39254 0.511791,-3.12761 1.705971,-5.85716 1.478508,-3.41195 3.582539,-4.89046 2.160897,-1.53537 5.515973,-1.53537 3.298209,0 5.402239,1.53537 2.10403,1.47851 3.52568,5.00419 0.56865,1.42164 0.96671,2.84328 0.45493,1.42164 0.68239,3.01388 0.28433,1.53538 0.39806,3.35508 0.11373,1.76284 0.11373,3.92373 z m -5.23164,0 q 0,-1.59224 -0.11373,-2.90015 -0.0569,-1.30791 -0.22747,-2.38836 -0.11373,-1.13731 -0.34119,-2.16089 -0.22746,-1.02359 -0.51179,-2.04717 -0.73926,-2.55896 -1.87657,-3.69627 -1.08045,-1.13731 -2.786419,-1.13731 -3.525673,0 -4.833584,4.71985 -0.682389,2.1609 -0.966717,4.37866 -0.227463,2.1609 -0.227463,5.34537 0,1.53538 0.05687,2.84329 0.113731,1.25104 0.227462,2.38836 0.170597,1.08045 0.39806,2.1609 0.227463,1.08044 0.511792,2.21776 1.307911,4.71985 4.833584,4.71985 1.705969,0 2.786419,-1.13731 1.13731,-1.13732 1.87657,-3.58254 0.34119,-1.13732 0.56866,-2.1609 0.22746,-1.08045 0.34119,-2.21776 0.1706,-1.13732 0.22746,-2.38836 0.0569,-1.30791 0.0569,-2.95702 z"
         id="path49762" />
      <path
         d="m 134.70188,431.80002 -11.7712,-25.5327 v 25.5327 h -5.4591 V 393.7 h 5.4591 l 10.46329,22.86001 V 393.7 h 5.45911 v 38.10002 z"
         id="path49764" />
      <path
         d="m 154.83146,416.16195 v -5.06105 h 13.36344 v 5.06105 z"
         id="path49766" />
      <path
         d="m 203.61334,421.3936 q 0,2.33149 -0.85299,4.37865 -0.79612,1.9903 -2.27463,3.46881 -1.42164,1.47851 -3.35507,2.38836 -1.87657,0.85299 -4.09433,0.85299 -2.50209,0 -4.49239,-0.96672 -1.9903,-0.96672 -3.35508,-2.61582 -1.36478,-1.64911 -2.10403,-3.81 -0.73925,-2.1609 -0.73925,-4.49239 h 5.34537 q 0,1.19418 0.28433,2.38835 0.3412,1.13732 0.96672,2.10404 0.68239,0.90985 1.6491,1.4785 1.02359,0.56866 2.44523,0.56866 1.08045,0 2.04716,-0.45492 1.02359,-0.45493 1.70597,-1.25105 0.73926,-0.79612 1.13732,-1.8197 0.45492,-1.08045 0.45492,-2.21776 0,-1.64911 -0.68238,-2.90016 -0.68239,-1.30791 -2.38836,-2.61582 -0.28433,-0.28433 -0.22747,-0.28433 0.0569,-0.0569 -0.34119,-0.34119 -0.39806,-0.28433 -1.70597,-1.08045 -1.25105,-0.85298 -4.1512,-2.84328 -2.33149,-1.59224 -3.52567,-3.69627 -1.13732,-2.1609 -1.13732,-4.71986 0,-2.04716 0.73926,-3.81 0.73925,-1.8197 2.04716,-3.18448 1.36478,-1.36478 3.12762,-2.10403 1.76283,-0.79612 3.81,-0.79612 2.04716,0 3.75314,0.73926 1.76283,0.73925 3.01388,2.04716 1.30791,1.30791 2.04716,3.12761 0.79612,1.81971 0.85299,3.9806 h -5.23165 q -0.11373,-1.9903 -1.36477,-3.18448 -1.25105,-1.19418 -3.07075,-1.19418 -1.87657,0 -3.18448,1.25105 -1.30791,1.25104 -1.30791,3.12761 0,1.42165 0.73925,2.38836 0.73926,0.96672 2.84329,2.1609 5.51597,3.18448 8.01806,6.48269 2.55896,3.29821 2.55896,7.44941 z"
         id="path49768" />
      <path
         d="m 225.9118,431.80002 -2.67268,-10.40642 h -8.18867 l -2.50209,10.40642 h -5.51597 L 216.52896,393.7 h 5.34538 l 9.49657,38.10002 z m -6.82388,-26.72688 -2.67269,10.97508 h 5.45911 z"
         id="path49770" />
      <path
         d="m 246.14177,398.76105 v 33.03897 h -5.51597 v -33.03897 h -6.93762 V 393.7 h 19.39121 v 5.06105 z"
         id="path49772" />
    </g>
  </g>
</svg>
