<?xml version="1.0" encoding="UTF-8" standalone="no"?>
<!-- Created with Inkscape (http://www.inkscape.org/) -->

<svg
   width="16.940388mm"
   height="18.464388mm"
   viewBox="0 0 16.940388 18.464388"
   version="1.1"
   id="svg1"
   inkscape:version="1.3 (0e150ed, 2023-07-21)"
   sodipodi:docname="MUTCD_R3-52a.svg"
   xmlns:inkscape="http://www.inkscape.org/namespaces/inkscape"
   xmlns:sodipodi="http://sodipodi.sourceforge.net/DTD/sodipodi-0.dtd"
   xmlns="http://www.w3.org/2000/svg"
   xmlns:svg="http://www.w3.org/2000/svg">
  <sodipodi:namedview
     id="namedview1"
     pagecolor="#ffffff"
     bordercolor="#666666"
     borderopacity="1.0"
     inkscape:showpageshadow="2"
     inkscape:pageopacity="0.0"
     inkscape:pagecheckerboard="0"
     inkscape:deskcolor="#d1d1d1"
     inkscape:document-units="mm"
     inkscape:zoom="1"
     inkscape:cx="33"
     inkscape:cy="34"
     inkscape:window-width="1440"
     inkscape:window-height="431"
     inkscape:window-x="0"
     inkscape:window-y="23"
     inkscape:window-maximized="0"
     inkscape:current-layer="layer1" />
  <defs
     id="defs1" />
  <g
     inkscape:label="Layer 1"
     inkscape:groupmode="layer"
     id="layer1"
     transform="translate(-96.043749,-139.17083)">
    <g
       id="g352"
       transform="matrix(0.26458333,0,0,0.26458333,36.801036,38.937033)">
      <path
         id="path353"
         d="m 0,0 c -1.26,0 -2.285,1.025 -2.285,2.285 v 47.52 c 0,1.26 1.025,2.285 2.285,2.285 h 43.2 c 1.26,0 2.285,-1.025 2.285,-2.285 V 2.285 C 45.485,1.025 44.46,0 43.2,0 Z"
         style="fill:#ffffff;fill-opacity:1;fill-rule:nonzero;stroke:none"
         transform="matrix(1.3333333,0,0,-1.3333333,227.12267,448.45613)" />
    </g>
    <g
       id="g353"
       transform="matrix(0.26458333,0,0,0.26458333,36.801036,38.937033)">
      <path
         id="path354"
         d="m 0,0 h -43.2 c -1.329,0 -2.41,-1.081 -2.41,-2.41 v -47.52 c 0,-1.329 1.081,-2.41 2.41,-2.41 H 0 c 1.329,0 2.41,1.081 2.41,2.41 V -2.41 C 2.41,-1.081 1.329,0 0,0 m 0,-0.25 c 1.193,0 2.16,-0.967 2.16,-2.16 v -47.52 c 0,-1.193 -0.967,-2.16 -2.16,-2.16 h -43.2 c -1.193,0 -2.16,0.967 -2.16,2.16 v 47.52 c 0,1.193 0.967,2.16 2.16,2.16 z"
         style="fill:#000000;fill-opacity:1;fill-rule:nonzero;stroke:none"
         transform="matrix(1.3333333,0,0,-1.3333333,284.7228,378.8364)" />
    </g>
    <g
       id="g354"
       transform="matrix(0.26458333,0,0,0.26458333,36.801036,38.937033)">
      <path
         id="path355"
         d="m 0,0 c -0.893,0 -1.62,0.727 -1.62,1.62 v 47.52 c 0,0.893 0.727,1.62 1.62,1.62 h 43.2 c 0.893,0 1.62,-0.727 1.62,-1.62 V 1.62 C 44.82,0.727 44.093,0 43.2,0 Z"
         style="fill:#000000;fill-opacity:1;fill-rule:nonzero;stroke:none"
         transform="matrix(1.3333333,0,0,-1.3333333,227.1228,447.56973)" />
      <path
         id="path356"
         d="m 0,0 c -0.397,0 -0.72,0.323 -0.72,0.72 v 47.52 c 0,0.397 0.323,0.72 0.72,0.72 h 43.2 c 0.397,0 0.72,-0.323 0.72,-0.72 V 0.72 C 43.92,0.323 43.597,0 43.2,0 Z"
         style="fill:#ffffff;fill-opacity:1;fill-rule:nonzero;stroke:none"
         transform="matrix(1.3333333,0,0,-1.3333333,227.1228,446.36973)" />
    </g>
    <g
       id="g356"
       transform="matrix(0.26458333,0,0,0.26458333,36.801036,38.937033)">
      <path
         id="path357"
         d="m 0,0 -6.235,-10.8 h 1.164 L 1.164,0 Z"
         style="fill:#000000;fill-opacity:1;fill-rule:nonzero;stroke:none"
         transform="matrix(1.3333333,0,0,-1.3333333,243.23667,429.32973)" />
    </g>
    <g
       id="g357"
       transform="matrix(0.26458333,0,0,0.26458333,36.801036,38.937033)">
      <path
         id="path358"
         d="m 0,0 c 0.787,-0.494 1.968,-1.186 1.968,-2.607 0,-1.166 -0.888,-2.096 -2.004,-2.096 -1.268,0 -2.029,1.072 -2.029,2.248 h 1.015 c 0,-0.613 0.304,-1.239 1.014,-1.239 0.558,0 1.014,0.505 1.014,1.087 0,1.565 -2.688,1.475 -2.688,3.486 0,1.036 0.812,1.869 1.851,1.869 1.015,0 1.802,-0.783 1.827,-1.87 H 0.978 C 0.953,1.383 0.598,1.712 0.141,1.712 -0.341,1.712 -0.721,1.359 -0.721,0.879 -0.721,0.411 -0.472,0.296 0,0"
         style="fill:#000000;fill-opacity:1;fill-rule:nonzero;stroke:none"
         transform="matrix(1.3333333,0,0,-1.3333333,231.25907,404.50653)" />
      <path
         id="path359"
         d="M 0,0 H -1.967 V -3.259 H -3 v 7.2 h 1.033 v -2.93 h 1.966 v 2.93 h 1.034 v -7.2 H 0 Z"
         style="fill:#000000;fill-opacity:1;fill-rule:nonzero;stroke:none"
         transform="matrix(1.3333333,0,0,-1.3333333,239.51613,406.26453)" />
      <path
         id="path360"
         d="m 0,0 c -0.205,0 -1.133,0.042 -1.133,-2.705 0,-2.768 0.928,-2.726 1.133,-2.726 0.205,0 1.132,-0.042 1.132,2.726 C 1.132,0.042 0.205,0 0,0 m -2.125,-2.7 c 0,3.77 1.749,3.71 2.137,3.71 0.388,0 2.113,0.057 2.113,-3.713 0,-3.797 -1.725,-3.737 -2.113,-3.737 -0.388,0 -2.137,-0.06 -2.137,3.74"
         style="fill:#000000;fill-opacity:1;fill-rule:nonzero;stroke:none"
         transform="matrix(1.3333333,0,0,-1.3333333,245.6472,402.18933)" />
      <path
         id="path361"
         d="m 0,0 v 5.107 h 1.033 v -5.178 c 0,-0.678 0.396,-1.138 1.008,-1.138 0.554,0 0.959,0.455 0.959,1.138 V 5.107 H 4.034 V -0.015 C 4.034,-1.653 2.768,-2.219 2.041,-2.219 1.376,-2.219 0,-1.786 0,0"
         style="fill:#000000;fill-opacity:1;fill-rule:nonzero;stroke:none"
         transform="matrix(1.3333333,0,0,-1.3333333,250.40053,407.81973)" />
      <path
         id="path362"
         d="M 0,0 H 1.039 V -6.24 H 3.674 V -7.2 H 0 Z"
         style="fill:#000000;fill-opacity:1;fill-rule:nonzero;stroke:none"
         transform="matrix(1.3333333,0,0,-1.3333333,257.89107,401.00973)" />
      <path
         id="path363"
         d="m 0,0 h -0.807 v -5.179 h 0.718 c 0.842,0 1.273,0.369 1.273,2.552 C 1.184,-0.097 0.553,0 0,0 m -1.84,-6.189 v 7.2 h 2.054 c 0.439,0 1.979,-0.022 1.979,-3.588 0,-3.262 -1.422,-3.612 -1.893,-3.612 z"
         style="fill:#000000;fill-opacity:1;fill-rule:nonzero;stroke:none"
         transform="matrix(1.3333333,0,0,-1.3333333,266.58733,402.35733)" />
      <path
         id="path364"
         d="M 0,0 H 3.395 V -1.011 H 1.039 V -2.83 H 2.533 V -3.815 H 1.039 V -6.19 H 3.674 V -7.2 H 0 Z"
         style="fill:#000000;fill-opacity:1;fill-rule:nonzero;stroke:none"
         transform="matrix(1.3333333,0,0,-1.3333333,271.43187,401.00973)" />
      <path
         id="path365"
         d="m 0,0 v -1.819 h 1.058 c 0.607,0 0.934,0.329 0.934,0.91 C 1.992,-0.353 1.614,0 1.059,0 Z M 0.984,-2.804 H 0 v -3.385 h -1.033 v 7.2 H 1.11 C 2.239,1.011 3,0.253 3,-0.909 3,-1.768 2.647,-2.399 1.966,-2.652 L 3,-6.189 H 1.942 Z"
         style="fill:#000000;fill-opacity:1;fill-rule:nonzero;stroke:none"
         transform="matrix(1.3333333,0,0,-1.3333333,279.33987,402.35733)" />
      <path
         id="path366"
         d="M 0,0 H 3.395 V -1.011 H 1.039 V -2.83 H 2.533 V -3.815 H 1.039 V -6.19 H 3.674 V -7.2 H 0 Z"
         style="fill:#000000;fill-opacity:1;fill-rule:nonzero;stroke:none"
         transform="matrix(1.3333333,0,0,-1.3333333,242.81347,416.36973)" />
      <path
         id="path367"
         d="m 0,0 v -4.825 h -1.033 v 7.2 H 0 l 1.966,-4.32 v 4.32 h 1.035 v -7.2 H 2.219 Z"
         style="fill:#000000;fill-opacity:1;fill-rule:nonzero;stroke:none"
         transform="matrix(1.3333333,0,0,-1.3333333,250.72173,419.53653)" />
      <path
         id="path368"
         d="m 0,0 h -0.807 v -5.179 h 0.718 c 0.842,0 1.273,0.369 1.273,2.552 C 1.184,-0.097 0.553,0 0,0 m -1.84,-6.189 v 7.2 h 2.054 c 0.439,0 1.979,-0.022 1.979,-3.588 0,-3.262 -1.422,-3.612 -1.893,-3.612 z"
         style="fill:#000000;fill-opacity:1;fill-rule:nonzero;stroke:none"
         transform="matrix(1.3333333,0,0,-1.3333333,259.28893,417.71733)" />
      <path
         id="path369"
         d="m 0,0 c 0.787,-0.494 1.968,-1.186 1.968,-2.607 0,-1.166 -0.888,-2.096 -2.004,-2.096 -1.268,0 -2.029,1.072 -2.029,2.248 h 1.015 c 0,-0.613 0.304,-1.239 1.014,-1.239 0.558,0 1.014,0.505 1.014,1.087 0,1.565 -2.688,1.475 -2.688,3.486 0,1.036 0.812,1.869 1.851,1.869 1.015,0 1.802,-0.783 1.827,-1.87 H 0.978 C 0.953,1.383 0.598,1.712 0.141,1.712 -0.341,1.712 -0.721,1.359 -0.721,0.879 -0.721,0.411 -0.473,0.296 0,0"
         style="fill:#000000;fill-opacity:1;fill-rule:nonzero;stroke:none"
         transform="matrix(1.3333333,0,0,-1.3333333,266.40773,419.86653)" />
    </g>
    <g
       id="g369"
       transform="matrix(0.26458333,0,0,0.26458333,36.801036,38.937033)">
      <path
         id="path370"
         d="m 0,0 h -0.461 v 0.784 c 0.411,0.025 0.666,0.201 0.82,0.505 h 0.692 v -7.2 H 0 Z"
         style="fill:#000000;fill-opacity:1;fill-rule:nonzero;stroke:none"
         transform="matrix(1.3333333,0,0,-1.3333333,234.4572,431.04813)" />
    </g>
    <g
       id="g370"
       transform="matrix(0.26458333,0,0,0.26458333,36.801036,38.937033)">
      <path
         id="path371"
         d="m 0,0 v -1.011 h -4.034 c 0.058,2.269 1.056,3.393 1.885,4.054 0.636,0.507 1.159,0.639 1.159,1.25 0,0.56 -0.454,1.015 -1.014,1.015 -0.56,0 -1.015,-0.455 -1.015,-1.015 h -1.015 c 0.025,1.138 0.89,2.021 2.03,2.021 C -0.888,6.314 0,5.404 0,4.293 0,2.177 -2.263,2.902 -2.918,0 Z"
         style="fill:#000000;fill-opacity:1;fill-rule:nonzero;stroke:none"
         transform="matrix(1.3333333,0,0,-1.3333333,248.2428,442.38213)" />
      <path
         id="path372"
         d="M 0,0 -1.341,-4.042 -2.682,0 v -4.042 h -1.037 v 7.2 h 1.037 L -1.341,-0.884 0,3.158 h 1.037 v -7.2 H 0 Z"
         style="fill:#000000;fill-opacity:1;fill-rule:nonzero;stroke:none"
         transform="matrix(1.3333333,0,0,-1.3333333,260.88107,435.94053)" />
      <path
         id="path373"
         d="m 198.282,468.203 h 1.008 v -7.2 h -1.008 z"
         style="fill:#000000;fill-opacity:1;fill-rule:nonzero;stroke:none"
         transform="matrix(1.3333333,0,0,-1.3333333,0,1056)" />
      <path
         id="path374"
         d="M 0,0 H 1.039 V -6.24 H 3.674 V -7.2 H 0 Z"
         style="fill:#000000;fill-opacity:1;fill-rule:nonzero;stroke:none"
         transform="matrix(1.3333333,0,0,-1.3333333,267.83173,431.72973)" />
      <path
         id="path375"
         d="M 0,0 H 3.395 V -1.011 H 1.039 V -2.83 H 2.533 V -3.815 H 1.039 V -6.19 H 3.674 V -7.2 H 0 Z"
         style="fill:#000000;fill-opacity:1;fill-rule:nonzero;stroke:none"
         transform="matrix(1.3333333,0,0,-1.3333333,274.07413,431.72973)" />
    </g>
    <g
       id="g375"
       transform="matrix(0.26458333,0,0,0.26458333,36.801036,38.937033)">
      <path
         id="path376"
         d="M 0,0 H -1.039 V 6.24 H -2.356 V 7.2 H 1.318 V 6.24 H 0 Z"
         style="fill:#000000;fill-opacity:1;fill-rule:nonzero;stroke:none"
         transform="matrix(1.3333333,0,0,-1.3333333,231.98267,395.24973)" />
      <path
         id="path377"
         d="m 0,0 v -1.819 h 1.058 c 0.607,0 0.934,0.329 0.934,0.91 C 1.992,-0.353 1.614,0 1.059,0 Z M 0.984,-2.804 H 0 v -3.385 h -1.033 v 7.2 H 1.11 C 2.239,1.011 3,0.253 3,-0.909 3,-1.768 2.647,-2.399 1.966,-2.652 L 3,-6.189 H 1.942 Z"
         style="fill:#000000;fill-opacity:1;fill-rule:nonzero;stroke:none"
         transform="matrix(1.3333333,0,0,-1.3333333,236.1924,386.99733)" />
      <path
         id="path378"
         d="M 0,0 H 1.039 L 0.507,2.072 Z m 1.291,-1.011 h -1.544 l -0.481,-1.97 h -1.039 l 1.798,7.2 h 1.014 l 1.798,-7.2 H 1.798 Z"
         style="fill:#000000;fill-opacity:1;fill-rule:nonzero;stroke:none"
         transform="matrix(1.3333333,0,0,-1.3333333,243.2484,391.27533)" />
      <path
         id="path379"
         d="m 0,0 -1.827,7.2 h 1.04 L 0.407,2.525 1.598,7.2 H 2.639 L 0.787,0 Z"
         style="fill:#000000;fill-opacity:1;fill-rule:nonzero;stroke:none"
         transform="matrix(1.3333333,0,0,-1.3333333,249.9276,395.24973)" />
      <path
         id="path380"
         d="M 0,0 H 3.395 V -1.011 H 1.039 V -2.83 H 2.533 V -3.815 H 1.039 V -6.19 H 3.674 V -7.2 H 0 Z"
         style="fill:#000000;fill-opacity:1;fill-rule:nonzero;stroke:none"
         transform="matrix(1.3333333,0,0,-1.3333333,254.52133,385.64973)" />
      <path
         id="path381"
         d="M 0,0 H 1.039 V -6.24 H 3.674 V -7.2 H 0 Z"
         style="fill:#000000;fill-opacity:1;fill-rule:nonzero;stroke:none"
         transform="matrix(1.3333333,0,0,-1.3333333,260.72547,385.64973)" />
      <path
         id="path382"
         d="m 0,0 c -0.205,0 -1.133,0.042 -1.133,-2.705 0,-2.768 0.928,-2.726 1.133,-2.726 0.205,0 1.132,-0.042 1.132,2.726 C 1.132,0.042 0.205,0 0,0 m -2.125,-2.7 c 0,3.77 1.749,3.71 2.137,3.71 0.388,0 2.113,0.057 2.113,-3.713 0,-3.797 -1.725,-3.737 -2.113,-3.737 -0.388,0 -2.137,-0.06 -2.137,3.74"
         style="fill:#000000;fill-opacity:1;fill-rule:nonzero;stroke:none"
         transform="matrix(1.3333333,0,0,-1.3333333,273.25667,386.82933)" />
      <path
         id="path383"
         d="m 0,0 v -4.825 h -1.033 v 7.2 H 0 l 1.966,-4.32 v 4.32 H 3 v -7.2 H 2.219 Z"
         style="fill:#000000;fill-opacity:1;fill-rule:nonzero;stroke:none"
         transform="matrix(1.3333333,0,0,-1.3333333,279.00373,388.81653)" />
    </g>
  </g>
</svg>
