<?xml version="1.0" encoding="UTF-8" standalone="no"?>
<!-- Created with Inkscape (http://www.inkscape.org/) -->
<svg width="21.329649mm" height="37.19442mm" viewBox="0 0 21.329649 37.19442" version="1.1" id="svg1" inkscape:version="1.3 (0e150ed, 2023-07-21)" sodipodi:docname="MUTCD_R3-1c.svg" xmlns:inkscape="http://www.inkscape.org/namespaces/inkscape" xmlns:sodipodi="http://sodipodi.sourceforge.net/DTD/sodipodi-0.dtd" xmlns="http://www.w3.org/2000/svg" xmlns:svg="http://www.w3.org/2000/svg">
  <sodipodi:namedview id="namedview1" pagecolor="#ffffff" bordercolor="#666666" borderopacity="1.0" inkscape:showpageshadow="2" inkscape:pageopacity="0.0" inkscape:pagecheckerboard="0" inkscape:deskcolor="#d1d1d1" inkscape:document-units="mm" inkscape:zoom="2.8284271" inkscape:cx="37.476659" inkscape:cy="43.84062" inkscape:window-width="1440" inkscape:window-height="449" inkscape:window-x="0" inkscape:window-y="23" inkscape:window-maximized="0" inkscape:current-layer="layer1"/>
  <defs id="defs1"/>
  <g inkscape:label="Layer 1" inkscape:groupmode="layer" id="layer1" transform="translate(-94.335175,-129.90279)">
    <g id="g765" transform="matrix(0.26458333,0,0,0.26458333,31.317705,97.410688)">
      <path id="path766" d="m 0,0 c -2.135,0 -3.873,1.737 -3.873,3.873 v 97.437 c 0,2.135 1.738,3.873 3.873,3.873 h 52.466 c 2.136,0 3.873,-1.738 3.873,-3.873 V 3.873 C 56.339,1.737 54.602,0 52.466,0 Z" style="fill:#ffffff;fill-opacity:1;fill-rule:nonzero;stroke:none" transform="matrix(1.3333333,0,0,-1.3333333,243.5064,263.21507)"/>
    </g>
    <g id="g766" transform="matrix(0.26458333,0,0,0.26458333,31.317705,97.410688)">
      <path id="path767" d="m 0,0 h -52.466 c -2.205,0 -3.998,-1.793 -3.998,-3.998 v -97.437 c 0,-2.204 1.793,-3.998 3.998,-3.998 H 0 c 2.204,0 3.998,1.794 3.998,3.998 V -3.998 C 3.998,-1.793 2.204,0 0,0 m 0,-0.25 c 2.061,0 3.748,-1.686 3.748,-3.748 v -97.437 c 0,-2.061 -1.687,-3.748 -3.748,-3.748 h -52.466 c -2.062,0 -3.748,1.687 -3.748,3.748 v 97.437 c 0,2.062 1.686,3.748 3.748,3.748 z" style="fill:#000000;fill-opacity:1;fill-rule:nonzero;stroke:none" transform="matrix(1.3333333,0,0,-1.3333333,313.4616,122.8048)"/>
    </g>
    <g id="g767" transform="matrix(0.26458333,0,0,0.26458333,31.317705,97.410688)">
      <path id="path768" d="m 0,0 c -1.55,0 -2.811,1.261 -2.811,2.811 v 97.437 c 0,1.55 1.261,2.811 2.811,2.811 h 52.466 c 1.55,0 2.811,-1.261 2.811,-2.811 V 2.811 C 55.277,1.261 54.016,0 52.466,0 Z" style="fill:#000000;fill-opacity:1;fill-rule:nonzero;stroke:none" transform="matrix(1.3333333,0,0,-1.3333333,243.5064,261.79933)"/>
      <path id="path769" d="m 0,0 c -0.689,0 -1.249,0.56 -1.249,1.249 v 97.438 c 0,0.689 0.56,1.249 1.249,1.249 h 52.466 c 0.689,0 1.25,-0.56 1.25,-1.249 V 1.249 C 53.716,0.56 53.155,0 52.466,0 Z" style="fill:#ffffff;fill-opacity:1;fill-rule:nonzero;stroke:none" transform="matrix(1.3333333,0,0,-1.3333333,243.5064,259.71733)"/>
    </g>
    <g id="g769" transform="matrix(0.26458333,0,0,0.26458333,31.317705,97.410688)">
      <path id="path770" d="M 0,0 2.568,-6.726 0,-13.452 c -0.437,-1.145 0.86,-2.172 1.874,-1.484 l 12.093,8.21 -12.093,8.21 C 0.86,2.172 -0.437,1.145 0,0" style="fill:#000000;fill-opacity:1;fill-rule:nonzero;stroke:none" transform="matrix(1.3333333,0,0,-1.3333333,284.8452,200.78133)"/>
    </g>
    <g id="g770" transform="matrix(0.26458333,0,0,0.26458333,31.317705,97.410688)">
      <path id="path771" d="m 0,0 c -2.76,0 -4.997,-2.237 -4.997,-4.997 v -21.08 H 1.405 V -6.402 H 12.336 V 0 Z" style="fill:#000000;fill-opacity:1;fill-rule:nonzero;stroke:none" transform="matrix(1.3333333,0,0,-1.3333333,271.8216,205.3772)"/>
    </g>
    <g id="g771" transform="matrix(0.26458333,0,0,0.26458333,31.317705,97.410688)">
      <path id="path772" d="M 0,0 C 0,4.964 1.703,9.53 4.557,13.146 L 34.382,-16.679 C 30.766,-19.533 26.2,-21.236 21.236,-21.236 9.508,-21.236 0,-11.729 0,0 m 42.473,0 c 0,-4.964 -1.704,-9.53 -4.557,-13.146 L 8.09,16.679 c 3.616,2.854 8.182,4.557 13.146,4.557 11.729,0 21.237,-9.507 21.237,-21.236 M 21.236,26.233 C 6.748,26.233 -4.997,14.488 -4.997,0 c 0,-14.488 11.745,-26.233 26.233,-26.233 14.489,0 26.234,11.745 26.234,26.233 0,14.488 -11.745,26.233 -26.234,26.233" style="fill:#c0311a;fill-opacity:1;fill-rule:evenodd;stroke:none" transform="matrix(1.3333333,0,0,-1.3333333,250.1688,219.74293)"/>
    </g>
    <g id="g772" transform="matrix(0.26458333,0,0,0.26458333,31.317705,97.410688)">
      <path id="path773" d="M 0,0 H -1.585 V 8.591 H -3.874 V 9.994 H 2.325 V 8.591 H 0 Z" style="fill:#000000;fill-opacity:1;fill-rule:nonzero;stroke:none" transform="matrix(1.3333333,0,0,-1.3333333,252.124,151.45333)"/>
      <path id="path774" d="m 0,0 c 1.254,0 1.452,0.904 1.452,1.227 0,0.436 -0.327,1.228 -1.376,1.228 H -1.985 V 0 Z m -1.985,-1.611 v -4.35 H -3.561 V 4.032 H 0.054 C 2.345,4.032 3.032,2.2 3.032,1.225 3.032,0.854 2.894,-0.607 1.48,-1.277 L 3.242,-5.961 H 1.523 l -1.613,4.35 z" style="fill:#000000;fill-opacity:1;fill-rule:nonzero;stroke:none" transform="matrix(1.3333333,0,0,-1.3333333,261.5712,143.50507)"/>
      <path id="path775" d="M 0,0 V 6.417 H 1.576 V 0 c 0,-1.298 0.737,-2.139 1.824,-2.139 1.087,0 1.824,0.841 1.824,2.139 V 6.417 H 6.803 V 0 C 6.803,-3.16 4.378,-3.751 3.401,-3.751 2.512,-3.751 0,-3.228 0,0" style="fill:#000000;fill-opacity:1;fill-rule:nonzero;stroke:none" transform="matrix(1.3333333,0,0,-1.3333333,267.70587,146.6848)"/>
      <path id="path776" d="m 0,0 c 0,1.405 0.282,5.153 3.681,5.153 1.449,0 2.436,-0.59 3.122,-2.034 L 5.33,2.488 C 4.819,3.223 4.564,3.54 3.682,3.54 1.591,3.54 1.614,0.626 1.614,-0.001 c 0,-0.62 -0.039,-3.578 2.138,-3.578 0.764,0 1.202,0.461 1.543,1.158 L 6.803,-2.982 C 6.241,-4.372 5.296,-5.189 3.786,-5.189 0.19,-5.189 0,-1.217 0,0" style="fill:#000000;fill-opacity:1;fill-rule:nonzero;stroke:none" transform="matrix(1.3333333,0,0,-1.3333333,279.122,144.7676)"/>
      <path id="path777" d="M 0,0 -1.056,-1.298 V -4.733 H -2.638 V 5.26 h 1.582 V 1.298 L 2.111,5.26 h 2.04 L 1.056,1.368 4.362,-4.733 H 2.533 Z" style="fill:#000000;fill-opacity:1;fill-rule:nonzero;stroke:none" transform="matrix(1.3333333,0,0,-1.3333333,294.05587,145.1424)"/>
      <path id="path778" d="m 0,0 1.506,0.56 c 0.421,-0.946 1.195,-1.471 2.14,-1.471 0.911,0 1.545,0.63 1.545,1.471 0,1.335 -1.545,1.54 -2.84,2.066 -0.596,0.245 -1.926,0.841 -1.926,2.486 0,1.962 1.33,2.697 3.116,2.697 1.401,0 2.346,-0.806 2.837,-2.031 L 4.977,5.358 C 4.745,5.809 4.261,6.233 3.421,6.233 2.212,6.233 1.961,5.574 1.961,5.224 1.961,4.291 2.767,4.106 4.075,3.695 5.406,3.277 6.803,2.663 6.803,0.525 6.802,-1.631 5.052,-2.521 3.646,-2.521 1.93,-2.521 0.666,-1.507 0,0" style="fill:#000000;fill-opacity:1;fill-rule:nonzero;stroke:none" transform="matrix(1.3333333,0,0,-1.3333333,300.9384,148.32707)"/>
      <path id="path779" d="m 0,0 v -2.736 h 2.385 c 0.812,0 1.228,0.386 1.228,1.158 C 3.613,-0.806 3.078,0 2.261,0 Z M 2.316,4.067 H 0 V 1.613 h 2.009 c 0.897,0 1.394,0.782 1.394,1.438 0,0.665 -0.368,1.016 -1.087,1.016 M -1.576,-4.348 V 5.645 H 2.211 C 3.789,5.645 4.98,4.558 4.98,3.12 4.98,2.139 4.526,1.402 3.579,0.876 4.631,0.385 5.226,-0.466 5.226,-1.543 c 0,-0.712 -0.401,-2.805 -3.015,-2.805 z" style="fill:#000000;fill-opacity:1;fill-rule:nonzero;stroke:none" transform="matrix(1.3333333,0,0,-1.3333333,255.06053,168.97373)"/>
      <path id="path780" d="M 0,0 V 6.417 H 1.576 V 0 c 0,-1.298 0.737,-2.139 1.824,-2.139 1.087,0 1.824,0.841 1.824,2.139 V 6.417 H 6.803 V 0 C 6.803,-3.16 4.378,-3.751 3.401,-3.751 2.512,-3.751 0,-3.228 0,0" style="fill:#000000;fill-opacity:1;fill-rule:nonzero;stroke:none" transform="matrix(1.3333333,0,0,-1.3333333,263.84173,170.00307)"/>
      <path id="path781" d="m 0,0 1.506,0.56 c 0.421,-0.946 1.195,-1.471 2.14,-1.471 0.911,0 1.545,0.63 1.545,1.471 0,1.335 -1.545,1.54 -2.84,2.066 -0.596,0.245 -1.926,0.84 -1.926,2.486 0,1.962 1.33,2.697 3.116,2.697 1.401,0 2.346,-0.806 2.837,-2.032 L 4.977,5.358 C 4.745,5.809 4.261,6.233 3.421,6.233 2.212,6.233 1.961,5.574 1.961,5.224 1.961,4.291 2.767,4.106 4.075,3.695 5.406,3.277 6.803,2.663 6.803,0.525 6.802,-1.631 5.052,-2.521 3.646,-2.521 1.93,-2.521 0.666,-1.507 0,0" style="fill:#000000;fill-opacity:1;fill-rule:nonzero;stroke:none" transform="matrix(1.3333333,0,0,-1.3333333,274.72507,171.64533)"/>
      <path id="path782" d="M 0,0 H 5.883 V -1.578 H 1.576 V -4.032 H 4.483 V -5.645 H 1.576 V -8.381 H 6.198 V -9.994 H 0 Z" style="fill:#000000;fill-opacity:1;fill-rule:nonzero;stroke:none" transform="matrix(1.3333333,0,0,-1.3333333,285.60813,161.44693)"/>
      <path id="path783" d="m 0,0 1.506,0.56 c 0.421,-0.946 1.195,-1.471 2.14,-1.471 0.911,0 1.545,0.63 1.545,1.471 0,1.335 -1.545,1.54 -2.84,2.066 -0.596,0.245 -1.926,0.84 -1.926,2.486 0,1.962 1.33,2.697 3.116,2.697 1.401,0 2.346,-0.806 2.837,-2.032 L 4.977,5.358 C 4.745,5.809 4.261,6.233 3.421,6.233 2.212,6.233 1.961,5.574 1.961,5.224 1.961,4.291 2.767,4.106 4.075,3.695 5.406,3.277 6.803,2.663 6.803,0.525 6.802,-1.631 5.052,-2.521 3.646,-2.521 1.93,-2.521 0.666,-1.507 0,0" style="fill:#000000;fill-opacity:1;fill-rule:nonzero;stroke:none" transform="matrix(1.3333333,0,0,-1.3333333,294.9388,171.64533)"/>
    </g>
  </g>
</svg>
