<svg xmlns="http://www.w3.org/2000/svg" width="210.4" height="630.399" viewBox="-50 -30 21.04 63.04">
    <path d="M-28.98 30.395a2.625 2.625 0 0 1-2.625 2.625h-15.75a2.625 2.625 0 0 1-2.625-2.625v-57.75a2.625 2.625 0 0 1 2.625-2.625h15.75a2.625 2.625 0 0 1 2.625 2.625v57.75z" style="fill:#cdff00;fill-opacity:1;fill-rule:nonzero;stroke:none"/>
    <path d="M-30.73 21.645a1.75 1.75 0 0 1-1.75 1.75h-14a1.75 1.75 0 0 1-1.75-1.75v-38.5c0-.967.784-1.75 1.75-1.75h14c.966 0 1.75.783 1.75 1.75v38.5z" style="fill:#000;fill-opacity:1;fill-rule:nonzero;stroke:none"/>
    <path d="M-46.48 22.957a1.314 1.314 0 0 1-1.313-1.312v-38.5c0-.724.59-1.313 1.313-1.313h14c.724 0 1.313.59 1.313 1.313v38.5c0 .724-.59 1.312-1.313 1.312h-14z" style="fill:#fff;fill-opacity:1;fill-rule:nonzero;stroke:none"/>
    <path d="M-42.01-27.739v3.009h-.554v-3.009h-.802v-.491h2.171v.491h-.814zm5.569 0v3.009h-.555v-3.009h-.802v-.491h2.17v.491h-.813zm-7.549 2.8c-.196.172-.466.27-.761.27-.602 0-1.044-.356-1.278-.884l.529-.196c.147.331.417.516.749.516.32 0 .54-.222.54-.516 0-.467-.54-.54-.995-.725-.208-.086-.675-.295-.675-.872 0-.687.467-.945 1.093-.945.491 0 .823.282.995.712l-.492.147s-.122-.294-.515-.307c-.258-.012-.565.086-.54.406.048.65 1.694.22 1.694 1.596 0 .32-.123.602-.344.798m8.888.209v-3.5h2.06v.553h-1.509v.86h1.019v.564h-1.019v.958h1.62v.565h-2.171zm-4.388-2.53-.359.983h.705l-.346-.983zm.889 2.53-.346-.982h-1.1l-.345.982h-.593l1.21-3.5h.556l1.21 3.5h-.592zm-5.221 4.812v-3.5h.552v2.985h1.619v.515h-2.171zm8.167 0h-.493l-.554-2.247-.542 2.247h-.493l-.518-3.5h.567l.271 1.843.444-1.843h.542l.455 1.843.271-1.843h.567l-.517 3.5zm-4.292-2.529-.358.982h.704l-.346-.982zm.89 2.53-.346-.983h-1.1l-.345.982h-.593l1.21-3.5h.556l1.21 3.5h-.592z" style="fill:#000;fill-opacity:1;fill-rule:nonzero;stroke:none"/>
    <path d="m-36.241 9.927.722 1.103-.18.682-.242.06-.3-1.845zm-4.693 2.468-.221.039.2-.902.181.38-.16.483zm5.214 1.142 1.645-.48-.442-1.605-.42.06.14-.863-1.344-2.547-.723-.32-.12-.28a1.18 1.18 0 0 1-.29.177 1.048 1.048 0 0 1-.592.062l-.04.241-.562.521-.702 2.367-1.022.422-.582-1.284-.882-.5c-.072.04-.144.077-.223.1a.87.87 0 0 1-.227.042 1.178 1.178 0 0 1-.333-.043h-.02l-.62.661-.623 1.985-1.183 1.124.341.32 1.404-.922.18-.74.221.68-.902 2.787.32.101-.943 3.55.503.18 1.343-3.549.541.04 1.484 3.449.522-.16-1.063-3.35c.107-.023.214-.053.322-.077a3 3 0 0 0 .28-.083l-.541-1.664 1.343-.321-.28-1.365h-.321l.22-.34-.04-.08 1.163-.322.3-.52.442 1.844-.862 2.728-.241 4.151.943.081.34-3.45.582-1.283.44 1.764 1.645 3.069.862-.422-1.543-3.188.16-2.748zm-2.735-6.107c.359.246.84.254 1.2.006.31-.214.463-.526.472-.898a1.075 1.075 0 0 0-.47-.897c-.3-.204-.683-.24-1.016-.098a1.09 1.09 0 0 0-.66.995c0 .356.18.693.474.893" style="fill:#000;fill-opacity:1;fill-rule:evenodd;stroke:none"/>
    <path d="M-41.815 9.426c.387-.165.628-.525.64-.943.01-.337-.19-.676-.467-.858a1.036 1.036 0 0 0-1.28.132 1.035 1.035 0 0 0-.134 1.28c.268.408.79.582 1.241.39" style="fill:#000;fill-opacity:1;fill-rule:evenodd;stroke:none"/>
    <path d="M-38.215 27.332v-1.188h-.717v1.188h-.377v-2.625h.377v1.069h.717v-1.069h.377v2.625h-.377zm-3.535-2.625h.367v2.625h-.368v-2.625zm4.49 0h.367v2.625h-.368v-2.625zm2.13 2.625-.809-1.759v1.76h-.377v-2.626h.377l.717 1.575v-1.575h.377v2.625h-.285zm-5.027-2.275v2.275h-.379v-2.275h-.48v-.35h1.34v.35h-.48zm-2.387 2.275h-.323l-.25-1.372-.25 1.372h-.332l-.416-2.625h.37l.222 1.4.258-1.4h.296l.25 1.4.23-1.4h.37l-.425 2.625zm7.007 2.096-.185.755h.379l-.194-.755zm.471 1.842-.185-.718h-.563l-.175.718h-.379l.656-2.625h.369l.656 2.625h-.379zm-11.66-1.925c-.037-.258-.139-.378-.315-.378-.305 0-.416.24-.416.921 0 .756.13 1.06.453 1.06.222 0 .278-.185.278-.378h.379c-.01.433-.287.746-.657.746-.564 0-.814-.451-.814-1.418 0-.848.269-1.3.787-1.3.212 0 .397.093.517.268.102.129.14.24.167.48h-.38zm15.188 1.925-.46-1.28-.238.442v.838h-.377v-2.625h.377v1.05l.597-1.05h.432l-.542.921.607 1.704h-.396zm-2.782 0v-2.625h.379v2.275h.96v.35h-1.339zm-8.534-1.971c-.065-.23-.167-.332-.324-.332-.167 0-.27.102-.334.323-.065.202-.084.377-.084.672 0 .286.028.451.084.663.065.221.167.323.334.323.157 0 .26-.102.324-.323.065-.212.084-.368.084-.672 0-.295-.028-.46-.084-.654m.297 1.566c-.13.313-.324.451-.621.451-.316 0-.501-.138-.631-.451-.112-.258-.149-.507-.149-.912 0-.396.037-.663.149-.912.14-.313.325-.442.63-.442.307 0 .492.129.622.451.112.258.149.507.149.903 0 .405-.037.663-.149.912m-2.503-1.852h-.385v.664h.386c.22 0 .34-.12.34-.332 0-.203-.138-.332-.34-.332m.322 2.257-.35-1.234h-.358v1.234h-.377v-2.625h.781c.414 0 .69.276.69.7 0 .313-.129.543-.377.636l.377 1.289h-.386zm3.47-1.212a10.764 10.764 0 0 1-.294-.197c-.212-.15-.324-.35-.324-.58 0-.378.296-.682.675-.682.37 0 .657.285.666.681h-.36c-.01-.184-.14-.304-.306-.304a.304.304 0 0 0-.314.304c0 .13.055.203.25.314.508.294.73.58.73.958 0 .423-.324.764-.73.764-.463 0-.74-.387-.74-.82h.37c0 .221.11.452.37.452.203 0 .37-.185.37-.396 0-.165-.069-.304-.363-.494m1.786 0a10.574 10.574 0 0 1-.295-.197c-.211-.15-.323-.35-.323-.58 0-.378.296-.682.675-.682.37 0 .657.285.666.681h-.361c-.01-.184-.139-.304-.305-.304a.304.304 0 0 0-.315.304c0 .13.056.203.25.314.509.294.73.58.73.958 0 .423-.323.764-.73.764-.462 0-.74-.387-.74-.82h.37c0 .221.111.452.37.452.204 0 .37-.185.37-.396 0-.165-.068-.304-.362-.494m2.531 1.212h-.324l-.25-1.373-.25 1.373h-.332l-.416-2.625h.37l.222 1.4.258-1.4h.296l.25 1.4.23-1.4h.37l-.425 2.625zm-1.185-30.045a.382.382 0 0 0-.342-.202c-.203-.01-.332.092-.425.322a1.766 1.766 0 0 0-.101.617c0 .276.055.562.157.728a.383.383 0 0 0 .36.202c.194 0 .314-.101.406-.331.056-.138.102-.396.102-.599 0-.295-.056-.562-.157-.737m.286 1.796c-.148.203-.36.295-.637.295-.37 0-.6-.147-.757-.47-.11-.22-.185-.57-.185-.884 0-.433.111-.82.286-1.068.157-.203.37-.295.674-.295.333 0 .564.147.73.47.11.23.175.562.175.893 0 .415-.101.829-.286 1.06m-2.531-2.009V3.27h-.416V1.013h-.601V.645h1.628v.368h-.61z" style="fill:#000;fill-opacity:1;fill-rule:nonzero;stroke:none"/>
    <path d="m-35.314-12-3.602 6.268a.625.625 0 0 1-.543.323.625.625 0 0 1-.542-.323l-3.628-6.27a.619.619 0 0 1 .53-.935h7.165c.432 0 .71.277.71.617a.64.64 0 0 1-.09.32m3.43-2.195-.036-.113a1.71 1.71 0 0 0-.072-.16 1.815 1.815 0 0 0-.095-.147 1.778 1.778 0 0 0-.115-.132 1.814 1.814 0 0 0-.134-.114 1.74 1.74 0 0 0-.15-.095 1.756 1.756 0 0 0-.163-.073 1.817 1.817 0 0 0-.176-.05 1.88 1.88 0 0 0-.186-.023l-12.89-.003a1.779 1.779 0 0 0-.188.014c-.06.01-.116.024-.174.04-.057.02-.11.04-.164.065a1.735 1.735 0 0 0-.152.088c-.082.058-.15.118-.22.19a2.03 2.03 0 0 0-.108.137c-.032.05-.06.1-.087.152a1.695 1.695 0 0 0-.065.164 1.54 1.54 0 0 0-.048.235 1.28 1.28 0 0 0 .138.695l6.447 11.15c.021.038.043.073.066.109.04.055.081.105.128.155.119.117.245.203.397.271l.076.03c.146.048.285.07.439.067l.08-.005c.165-.02.31-.066.457-.143l.069-.04c.138-.091.249-.196.346-.33l.044-.068 6.43-11.187a1.233 1.233 0 0 0 .106-.879" style="fill:#af1e2d;fill-opacity:1;fill-rule:evenodd;stroke:none"/>
    <path d="M-40.812-11.854h-.24l-.255.56-.261-.56h-.234l.38.848v.703h.224v-.703l.386-.848zm.43 0h-.217v1.55h.217v-1.55zm1.127 1.55v-.217h-.566v-.512h.321v-.212h-.32v-.392h.505v-.217h-.729v1.55h.789zm1.05 0v-.206h-.566v-1.344h-.223v1.55h.79zm1.083-.778c0-.12-.016-.256-.038-.37-.027-.158-.092-.277-.185-.343-.054-.043-.12-.06-.25-.06h-.397v1.552h.43a.318.318 0 0 0 .217-.071c.153-.12.223-.349.223-.708m-.217.011c0 .12-.011.229-.022.327-.022.12-.092.223-.223.223h-.185v-1.116h.185c.098 0 .163.05.201.158.027.065.044.234.044.408" style="fill:#af1e2d;fill-opacity:1;fill-rule:nonzero;stroke:none"/>
</svg>
