<?xml version="1.0" encoding="UTF-8" standalone="no"?>
<!-- Created with Inkscape (http://www.inkscape.org/) -->

<svg
   width="26.08333mm"
   height="6.6537414mm"
   viewBox="0 0 26.08333 6.6537414"
   version="1.1"
   id="svg1"
   inkscape:version="1.3 (0e150ed, 2023-07-21)"
   sodipodi:docname="MUTCD_R9-26a.svg"
   xmlns:inkscape="http://www.inkscape.org/namespaces/inkscape"
   xmlns:sodipodi="http://sodipodi.sourceforge.net/DTD/sodipodi-0.dtd"
   xmlns="http://www.w3.org/2000/svg"
   xmlns:svg="http://www.w3.org/2000/svg">
  <sodipodi:namedview
     id="namedview1"
     pagecolor="#ffffff"
     bordercolor="#666666"
     borderopacity="1.0"
     inkscape:showpageshadow="2"
     inkscape:pageopacity="0.0"
     inkscape:pagecheckerboard="0"
     inkscape:deskcolor="#d1d1d1"
     inkscape:document-units="mm"
     inkscape:zoom="0.2102413"
     inkscape:cx="47.564393"
     inkscape:cy="14.269318"
     inkscape:window-width="1440"
     inkscape:window-height="431"
     inkscape:window-x="0"
     inkscape:window-y="23"
     inkscape:window-maximized="0"
     inkscape:current-layer="layer1" />
  <defs
     id="defs1">
    <clipPath
       clipPathUnits="userSpaceOnUse"
       id="clipPath179">
      <path
         d="M 92.917,175.072 H 546.082 V 743.001 H 92.917 Z"
         transform="translate(-286.81431,-604.11791)"
         id="path179" />
    </clipPath>
  </defs>
  <g
     inkscape:label="Layer 1"
     inkscape:groupmode="layer"
     id="layer1"
     transform="translate(-91.281248,-145.25625)">
    <g
       id="g177"
       transform="matrix(0.26458333,0,0,0.26458333,-8.193265,85.585266)">
      <path
         id="path178"
         d="m 0,0 c -2.6,0 -4.715,2.115 -4.715,4.715 v 9.181 c 0,2.6 2.115,4.715 4.715,4.715 h 64.258 c 2.599,0 4.715,-2.115 4.715,-4.715 V 4.715 C 68.973,2.115 66.857,0 64.258,0 Z"
         style="fill:#ffffff;fill-opacity:1;fill-rule:nonzero;stroke:none"
         transform="matrix(1.3333333,0,0,-1.3333333,382.41907,250.50947)"
         clip-path="url(#clipPath179)" />
    </g>
    <g
       id="g179"
       transform="matrix(0.26458333,0,0,0.26458333,-8.193265,85.585266)">
      <path
         id="path180"
         d="m 0,0 h -64.257 c -2.669,0 -4.84,-2.171 -4.84,-4.84 v -9.181 c 0,-2.669 2.171,-4.84 4.84,-4.84 H 0 c 2.669,0 4.84,2.171 4.84,4.84 V -4.84 C 4.84,-2.171 2.669,0 0,0 m 0,-0.25 c 2.535,0 4.59,-2.055 4.59,-4.59 v -9.181 c 0,-2.535 -2.055,-4.59 -4.59,-4.59 h -64.257 c -2.535,0 -4.59,2.055 -4.59,4.59 v 9.181 c 0,2.535 2.055,4.59 4.59,4.59 z"
         style="fill:#000000;fill-opacity:1;fill-rule:nonzero;stroke:none"
         transform="matrix(1.3333333,0,0,-1.3333333,468.096,225.52813)" />
    </g>
    <g
       id="g180"
       transform="matrix(0.26458333,0,0,0.26458333,-8.193265,85.585266)">
      <path
         id="path181"
         d="m 0,0 c -1.898,0 -3.442,1.544 -3.442,3.443 v 9.18 c 0,1.898 1.544,3.443 3.442,3.443 h 64.257 c 1.898,0 3.443,-1.545 3.443,-3.443 V 3.443 C 67.7,1.544 66.155,0 64.257,0 Z"
         style="fill:#000000;fill-opacity:1;fill-rule:nonzero;stroke:none"
         transform="matrix(1.3333333,0,0,-1.3333333,382.4196,248.81267)" />
      <path
         id="path182"
         d="m 0,0 c -1.265,0 -2.295,1.03 -2.295,2.295 v 9.181 c 0,1.265 1.03,2.295 2.295,2.295 h 64.257 c 1.266,0 2.295,-1.03 2.295,-2.295 V 2.295 C 66.552,1.03 65.523,0 64.257,0 Z"
         style="fill:#ffffff;fill-opacity:1;fill-rule:nonzero;stroke:none"
         transform="matrix(1.3333333,0,0,-1.3333333,382.4196,247.28253)" />
    </g>
    <g
       id="g182"
       transform="matrix(0.26458333,0,0,0.26458333,-8.193265,85.585266)">
      <path
         id="path183"
         d="m 346.19,611.989 h -4.793 v 2.869 h 4.793 z"
         style="fill:#000000;fill-opacity:1;fill-rule:nonzero;stroke:none"
         transform="matrix(1.3333333,0,0,-1.3333333,0,1056)" />
      <path
         id="path184"
         d="M 0,0 5.408,3.721 0,7.442 C -0.461,7.76 -1.058,7.298 -0.866,6.772 L 0.245,3.721 -0.866,0.67 C -1.058,0.144 -0.461,-0.317 0,0"
         style="fill:#000000;fill-opacity:1;fill-rule:nonzero;stroke:none"
         transform="matrix(1.3333333,0,0,-1.3333333,461.2452,243.06373)" />
    </g>
    <g
       id="g184"
       transform="matrix(0.26458333,0,0,0.26458333,-8.193265,85.585266)">
      <path
         id="path185"
         d="M 0,0 C -1.054,0 -1.946,0.69 -2.252,1.642 L -0.15,2.095 C -0.105,2.07 -0.054,2.056 0,2.056 c 0.17,0 0.309,0.138 0.309,0.309 0,0.148 -0.106,0.272 -0.246,0.302 L -1.229,4.385 C -0.871,4.603 -0.45,4.729 0,4.729 1.306,4.729 2.364,3.67 2.364,2.365 2.364,1.059 1.306,0 0,0 m -2.364,2.365 c 0,0.688 0.294,1.308 0.764,1.74 l 1.196,-1.59 -1.945,-0.419 c -0.01,0.088 -0.015,0.178 -0.015,0.269 M -2.889,1.98 -3.814,1.781 -2.74,5.621 -1.932,4.546 C -2.534,4.012 -2.914,3.233 -2.914,2.365 c 0,-0.131 0.009,-0.259 0.025,-0.385 m -1.317,0.123 -0.143,0.546 h 0.224 v 0.22 h -0.708 v -0.22 h 0.282 l 0.142,-0.541 -3.046,3.315 c 0.05,0.158 0.1,0.321 0.15,0.483 h 4.163 z M -7.203,2.365 C -7.203,1.059 -8.261,0 -9.567,0 c -1.306,0 -2.364,1.059 -2.364,2.365 0,1.305 1.058,2.364 2.364,2.364 0.464,0 0.897,-0.134 1.262,-0.365 -0.29,-0.63 -0.856,-1.308 -1.264,-1.691 -0.17,-10e-4 -0.306,-0.139 -0.306,-0.308 0,-0.171 0.138,-0.309 0.308,-0.309 0.158,0 0.288,0.118 0.306,0.27 0.2,0.187 0.46,0.463 0.718,0.792 0.192,0.246 0.431,0.585 0.613,0.952 0.448,-0.43 0.727,-1.035 0.727,-1.705 M 0,5.279 c -0.574,0 -1.11,-0.166 -1.561,-0.453 l -1.021,1.358 0.133,0.479 c 0.641,0.055 0.995,0.298 0.973,0.534 C -1.497,7.425 -2.132,7.254 -2.839,7.245 -3.032,7.243 -4.06,7.247 -4.054,7.059 -4.048,6.865 -3.391,6.708 -2.93,6.664 L -3.013,6.37 h -4.149 c 0.089,0.289 0.169,0.555 0.232,0.761 0.053,0.177 0.093,0.31 0.113,0.375 l -0.302,0.231 0.143,0.144 h 1.111 V 8.248 H -7.129 L -7.672,7.699 -7.324,7.433 C -7.485,6.899 -7.866,5.646 -8.112,4.89 -8.54,5.137 -9.037,5.279 -9.567,5.279 c -1.609,0 -2.914,-1.305 -2.914,-2.914 0,-1.61 1.305,-2.915 2.914,-2.915 1.61,0 2.914,1.305 2.914,2.915 0,0.905 -0.413,1.714 -1.061,2.249 0.03,0.091 0.063,0.191 0.097,0.299 L -4.481,1.5 C -4.482,1.491 -4.482,1.482 -4.482,1.473 c 0,-0.185 0.147,-0.336 0.33,-0.342 l 0.22,-0.834 h -0.224 v -0.22 h 0.707 v 0.22 H -3.73 l -0.233,0.884 c 0.048,0.029 0.087,0.069 0.116,0.117 l 1.056,0.228 C -2.431,0.325 -1.318,-0.55 0,-0.55 c 1.609,0 2.914,1.305 2.914,2.915 0,1.609 -1.305,2.914 -2.914,2.914"
         style="fill:#000000;fill-opacity:1;fill-rule:nonzero;stroke:none"
         transform="matrix(1.3333333,0,0,-1.3333333,401.1008,243.23427)" />
      <path
         id="path186"
         d="M 0,0 V 3.93 H 0.966 V 0 c 0,-0.795 0.451,-1.31 1.117,-1.31 C 2.749,-1.31 3.2,-0.795 3.2,0 V 3.93 H 4.168 V 0 C 4.168,-1.936 2.682,-2.297 2.084,-2.297 1.539,-2.297 0,-1.977 0,0"
         style="fill:#000000;fill-opacity:1;fill-rule:nonzero;stroke:none"
         transform="matrix(1.3333333,0,0,-1.3333333,411.10587,239.26187)" />
      <path
         id="path187"
         d="M 0,0 H -0.971 V 5.261 H -2.372 V 6.12 H 1.424 V 5.261 H 0 Z"
         style="fill:#000000;fill-opacity:1;fill-rule:nonzero;stroke:none"
         transform="matrix(1.3333333,0,0,-1.3333333,425.94507,242.18227)" />
      <path
         id="path188"
         d="M 0,0 V 3.93 H 0.965 V 0 c 0,-0.795 0.452,-1.31 1.117,-1.31 0.666,0 1.117,0.515 1.117,1.31 V 3.93 H 4.166 V 0 C 4.166,-1.936 2.681,-2.297 2.083,-2.297 1.538,-2.297 0,-1.977 0,0"
         style="fill:#000000;fill-opacity:1;fill-rule:nonzero;stroke:none"
         transform="matrix(1.3333333,0,0,-1.3333333,429.06733,239.26187)" />
      <path
         id="path189"
         d="m 0,0 c 0.768,0 0.889,0.554 0.889,0.751 0,0.267 -0.2,0.752 -0.842,0.752 H -1.216 V 0 Z m -1.216,-0.987 v -2.664 h -0.965 v 6.12 h 2.214 c 1.403,0 1.824,-1.122 1.824,-1.719 0,-0.227 -0.085,-1.122 -0.951,-1.532 L 1.985,-3.651 H 0.932 l -0.987,2.664 z"
         style="fill:#000000;fill-opacity:1;fill-rule:nonzero;stroke:none"
         transform="matrix(1.3333333,0,0,-1.3333333,439.48827,237.31453)" />
      <path
         id="path190"
         d="m 0,0 v -4.144 h -0.965 v 6.12 H 0 l 2.234,-3.908 v 3.908 h 0.967 v -6.12 h -0.86 z"
         style="fill:#000000;fill-opacity:1;fill-rule:nonzero;stroke:none"
         transform="matrix(1.3333333,0,0,-1.3333333,444.80947,236.65667)" />
    </g>
  </g>
</svg>
