<?xml version="1.0" encoding="UTF-8" standalone="no"?>
<!-- Created with Inkscape (http://www.inkscape.org/) -->

<svg
   width="19.227798mm"
   height="19.228151mm"
   viewBox="0 0 19.227798 19.228151"
   version="1.1"
   id="svg1"
   inkscape:version="1.3 (0e150ed, 2023-07-21)"
   sodipodi:docname="MUTCD_R9-16.svg"
   xmlns:inkscape="http://www.inkscape.org/namespaces/inkscape"
   xmlns:sodipodi="http://sodipodi.sourceforge.net/DTD/sodipodi-0.dtd"
   xmlns="http://www.w3.org/2000/svg"
   xmlns:svg="http://www.w3.org/2000/svg">
  <sodipodi:namedview
     id="namedview1"
     pagecolor="#ffffff"
     bordercolor="#666666"
     borderopacity="1.0"
     inkscape:showpageshadow="2"
     inkscape:pageopacity="0.0"
     inkscape:pagecheckerboard="0"
     inkscape:deskcolor="#d1d1d1"
     inkscape:document-units="mm"
     inkscape:zoom="5.6568542"
     inkscape:cx="36.062446"
     inkscape:cy="57.982756"
     inkscape:window-width="1440"
     inkscape:window-height="431"
     inkscape:window-x="0"
     inkscape:window-y="23"
     inkscape:window-maximized="0"
     inkscape:current-layer="layer1" />
  <defs
     id="defs1" />
  <g
     inkscape:label="Layer 1"
     inkscape:groupmode="layer"
     id="layer1"
     transform="translate(-80.962501,-102.39374)">
    <path
       id="path714"
       d="m 82.63823,121.57777 c -0.899583,0 -1.631597,-0.73201 -1.631597,-1.63195 v -15.87606 c 0,-0.89993 0.732014,-1.63195 1.631597,-1.63195 h 15.87641 c 0.899584,0 1.6316,0.73202 1.6316,1.63195 v 15.87606 c 0,0.89994 -0.732016,1.63195 -1.6316,1.63195 z"
       style="fill:#ffffff;fill-opacity:1;fill-rule:nonzero;stroke:none;stroke-width:0.352778" />
    <path
       id="path715"
       d="m 98.514606,102.39374 h -15.87641 c -0.923925,0 -1.675695,0.75212 -1.675695,1.67605 v 15.87605 c 0,0.92428 0.75177,1.67605 1.675695,1.67605 h 15.87641 c 0.923925,0 1.675694,-0.75177 1.675694,-1.67605 v -15.87605 c 0,-0.92393 -0.751769,-1.67605 -1.675694,-1.67605 m 0,0.0882 c 0.876653,0 1.587504,0.7112 1.587504,1.58786 v 15.87605 c 0,0.87701 -0.710851,1.58786 -1.587504,1.58786 h -15.87641 c -0.876653,0 -1.5875,-0.71085 -1.5875,-1.58786 V 104.0698 c 0,-0.87666 0.710847,-1.58786 1.5875,-1.58786 z"
       style="fill:#000000;fill-opacity:1;fill-rule:nonzero;stroke:none;stroke-width:0.352778" />
    <path
       id="path716"
       d="m 99.043772,119.94582 c 0,0.29175 -0.237419,0.52952 -0.529167,0.52952 h -15.87641 c -0.291747,0 -0.529167,-0.23777 -0.529167,-0.52952 v -15.87606 c 0,-0.29174 0.23742,-0.52916 0.529167,-0.52916 h 15.87641 c 0.291748,0 0.529167,0.23742 0.529167,0.52916 z m -0.529167,-17.06668 h -15.87641 c -0.656519,0 -1.190625,0.5341 -1.190625,1.19062 v 15.87606 c 0,0.65652 0.534106,1.19098 1.190625,1.19098 h 15.87641 c 0.65652,0 1.190625,-0.53446 1.190625,-1.19098 v -15.87606 c 0,-0.65652 -0.534105,-1.19062 -1.190625,-1.19062"
       style="fill:#000000;fill-opacity:1;fill-rule:nonzero;stroke:none;stroke-width:0.352778" />
    <path
       id="path717"
       d="m 94.071476,108.93735 v -1.49119 h -0.140053 c -0.410986,0 -0.745772,0.33408 -0.745772,0.74577 0,0.41169 0.334786,0.74542 0.745772,0.74542 z"
       style="fill:#000000;fill-opacity:1;fill-rule:nonzero;stroke:none;stroke-width:0.352778" />
    <path
       id="path718"
       d="m 92.943539,108.59593 -0.649111,-1.30104 c -0.144992,-0.266 -0.426156,-0.44697 -0.750358,-0.44697 l -1.513064,0.001 c -0.140759,0 -0.255059,0.11395 -0.255059,0.25542 0,0.14075 0.1143,0.25505 0.255059,0.25505 l 1.513064,-0.003 c 0.121002,0 0.256469,0.0822 0.309033,0.20038 l 0.41663,0.83009 z"
       style="fill:#000000;fill-opacity:1;fill-rule:nonzero;stroke:none;stroke-width:0.352778" />
    <path
       id="path719"
       d="m 95.947655,109.99085 c 0.197556,0.0557 0.342547,0.23777 0.342547,0.45261 l -1.099608,7.1e-4 c -1.449917,0 -2.625372,1.17581 -2.625372,2.62608 h -3.585633 c 0,-1.16417 -0.757767,-2.15124 -1.806575,-2.49555 l -1.976614,-0.65158 0.328083,-0.49848 c 0.117475,-0.17568 0.3175,-0.29139 0.545395,-0.29139 0.04762,0 0.0956,0.005 0.140052,0.0148 l 4.403725,1.36349 c 0.05221,0.0162 0.109361,0.0251 0.16757,0.0251 0.198614,0 0.372886,-0.1009 0.474839,-0.25471 l 0.999066,-1.44498 z"
       style="fill:#000000;fill-opacity:1;fill-rule:nonzero;stroke:none;stroke-width:0.352778" />
    <path
       id="path720"
       d="m 93.001784,113.52621 c 0,-0.98848 0.801158,-1.78964 1.788583,-1.78964 0.988484,0 1.789642,0.80116 1.789642,1.78964 0,0.98778 -0.801158,1.78894 -1.789642,1.78894 -0.987425,0 -1.788583,-0.80116 -1.788583,-1.78894 m 1.789289,0.66887 c 0.370064,0 0.669572,-0.29916 0.669572,-0.66887 0,-0.36936 -0.299508,-0.66887 -0.669572,-0.66887 -0.368653,0 -0.667809,0.29951 -0.667809,0.66887 0,0.36971 0.299156,0.66887 0.667809,0.66887"
       style="fill:#000000;fill-opacity:1;fill-rule:nonzero;stroke:none;stroke-width:0.352778" />
    <path
       id="path721"
       d="m 84.573006,113.33606 c 0,-1.0862 0.880886,-1.96744 1.968853,-1.96744 1.086908,0 1.967794,0.88124 1.967794,1.96744 0,1.08726 -0.880886,1.96885 -1.967794,1.96885 -1.087967,0 -1.968853,-0.88159 -1.968853,-1.96885 m 1.969911,0.73625 c 0.405694,0 0.735894,-0.32914 0.735894,-0.73554 0,-0.4064 -0.3302,-0.73625 -0.735894,-0.73625 -0.406047,0 -0.736247,0.32985 -0.736247,0.73625 0,0.4064 0.3302,0.73554 0.736247,0.73554"
       style="fill:#000000;fill-opacity:1;fill-rule:nonzero;stroke:none;stroke-width:0.352778" />
    <path
       id="path722"
       d="M 95.876006,116.18482 86.39969,106.7085 c 1.148997,-0.90699 2.599619,-1.44815 4.176888,-1.44815 3.726392,0 6.747228,3.02119 6.747228,6.74758 0,1.57727 -0.541161,3.02789 -1.4478,4.17689 m -5.299428,2.57034 c -3.726744,0 -6.747227,-3.02084 -6.747227,-6.74723 0,-1.57727 0.540808,-3.02824 1.447447,-4.17689 l 9.476316,9.47632 c -1.148644,0.90664 -2.599619,1.4478 -4.176536,1.4478 m 0,-15.08231 c -4.603397,0 -8.33508,3.73168 -8.33508,8.33508 0,4.6034 3.731683,8.33508 8.33508,8.33508 4.603045,0 8.334728,-3.73168 8.334728,-8.33508 0,-4.6034 -3.731683,-8.33508 -8.334728,-8.33508"
       style="fill:#c03019;fill-opacity:1;fill-rule:nonzero;stroke:none;stroke-width:0.352778" />
  </g>
</svg>
