<?xml version="1.0" encoding="UTF-8" standalone="no"?>
<svg
   xmlns:dc="http://purl.org/dc/elements/1.1/"
   xmlns:cc="http://creativecommons.org/ns#"
   xmlns:rdf="http://www.w3.org/1999/02/22-rdf-syntax-ns#"
   xmlns:svg="http://www.w3.org/2000/svg"
   xmlns="http://www.w3.org/2000/svg"
   xmlns:sodipodi="http://sodipodi.sourceforge.net/DTD/sodipodi-0.dtd"
   xmlns:inkscape="http://www.inkscape.org/namespaces/inkscape"
   sodipodi:docname="R10-4aL.svg"
   inkscape:version="1.0rc1 (09960d6f05, 2020-04-09)"
   id="svg10472"
   version="1.1"
   viewBox="0 0 23.21172 38.568489"
   height="38.568489mm"
   width="23.21172mm">
  <defs
     id="defs10466">
    <clipPath
       clipPathUnits="userSpaceOnUse"
       id="clipPath9623">
      <path
         d="M 27.125,595.6 H 540 V 740 H 27.125 Z"
         id="path9621"
         inkscape:connector-curvature="0" />
    </clipPath>
  </defs>
  <sodipodi:namedview
     inkscape:window-maximized="1"
     inkscape:window-y="0"
     inkscape:window-x="0"
     inkscape:window-height="836"
     inkscape:window-width="1600"
     showgrid="false"
     inkscape:document-rotation="0"
     inkscape:current-layer="g9619"
     inkscape:document-units="mm"
     inkscape:cy="72.885334"
     inkscape:cx="43.864667"
     inkscape:zoom="2.8"
     inkscape:pageshadow="2"
     inkscape:pageopacity="0.0"
     borderopacity="1.0"
     bordercolor="#666666"
     pagecolor="#ffffff"
     id="base" />
  <metadata
     id="metadata10469">
    <rdf:RDF>
      <cc:Work
         rdf:about="">
        <dc:format>image/svg+xml</dc:format>
        <dc:type
           rdf:resource="http://purl.org/dc/dcmitype/StillImage" />
        <dc:title></dc:title>
      </cc:Work>
    </rdf:RDF>
  </metadata>
  <g
     transform="translate(-48.870331,-112.25147)"
     id="layer1"
     inkscape:groupmode="layer"
     inkscape:label="Layer 1">
    <g
       transform="matrix(0.35277777,0,0,-0.35277777,-20.065091,367.63315)"
       id="g9617">
      <g
         id="g9619"
         clip-path="url(#clipPath9623)">
        <g
           id="g9625"
           transform="translate(260.9545,622.0936)">
          <path
             d="m 0,0 c 0,-4.007 -3.248,-7.255 -7.256,-7.255 h -50.785 c -4.008,0 -7.256,3.248 -7.256,7.255 v 94.319 c 0,4.006 3.248,7.254 7.256,7.254 H -7.256 C -3.248,101.573 0,98.325 0,94.319 Z"
             style="fill:#ffffff;fill-opacity:1;fill-rule:nonzero;stroke:none"
             id="path9627"
             inkscape:connector-curvature="0" />
        </g>
        <g
           id="g9629"
           transform="translate(260.9545,622.0936)">
          <path
             d="m 0,0 c 0,-4.007 -3.248,-7.255 -7.256,-7.255 h -50.785 c -4.008,0 -7.256,3.248 -7.256,7.255 v 94.319 c 0,4.006 3.248,7.254 7.256,7.254 H -7.256 C -3.248,101.573 0,98.325 0,94.319 Z"
             style="fill:none;stroke:#231f20;stroke-width:0.5;stroke-linecap:butt;stroke-linejoin:miter;stroke-miterlimit:4;stroke-dasharray:none;stroke-opacity:1"
             id="path9631"
             inkscape:connector-curvature="0" />
        </g>
        <g
           id="g9633"
           transform="translate(255.5135,622.0936)">
          <path
             d="M 0,0 C 0,-1 -0.815,-1.813 -1.815,-1.813 H -52.6 c -1,0 -1.814,0.813 -1.814,1.813 v 94.319 c 0,1 0.814,1.813 1.814,1.813 h 50.785 c 1,0 1.815,-0.813 1.815,-1.813 z M -1.815,98.853 H -52.6 c -2.502,0 -4.535,-2.034 -4.535,-4.534 V 0 c 0,-2.5 2.033,-4.534 4.535,-4.534 h 50.785 c 2.5,0 4.535,2.034 4.535,4.534 v 94.319 c 0,2.5 -2.035,4.534 -4.535,4.534"
             style="fill:#231f20;fill-opacity:1;fill-rule:nonzero;stroke:none"
             id="path9635"
             inkscape:connector-curvature="0" />
        </g>
        <g
           id="g9637"
           transform="matrix(-1,0,0,1,207.9775,689.2052)">
          <path
             d="m 0,0 v 14.958 h -3.321 v 4.805 l -1.029,0.229 v 1.259 l 1.145,0.457 v 0.686 H 0 v 2.06 H 1.488 V 0 Z"
             style="fill:#231f20;fill-opacity:1;fill-rule:nonzero;stroke:none"
             id="path9639"
             inkscape:connector-curvature="0" />
        </g>
        <g
           id="g9641"
           transform="matrix(-1,0,0,1,250.1205,710.915)">
          <path
             d="m 0,0 c 0,0 6.883,-0.574 12.936,3.732 0.375,0.059 0.773,0.256 1.09,0.276 3.234,-0.695 5.875,1.032 7.638,1.944 1.588,0.239 1.211,-3.292 -0.693,-3.769 1.885,-0.2 14.978,-1.468 14.978,-1.468 0,0 1.231,-0.158 1.192,-1.111 -0.026,-0.596 -0.158,-1.31 -1.012,-1.31 H 25.791 c 0,0 -0.019,-0.952 -0.853,-1.687 -0.992,-0.515 -2.42,-1.11 -2.481,-2.558 -0.793,-0.734 -3.054,-1.587 -3.451,-3.135 -0.715,-1.131 -3.115,-1.269 -4.008,-1.449 -0.674,0.119 -1.289,0.209 -2.142,0.297 C 7.678,-8.095 0,-7.776 0,-7.776 Z"
             style="fill:#231f20;fill-opacity:1;fill-rule:nonzero;stroke:none"
             id="path9643"
             inkscape:connector-curvature="0" />
        </g>
        <g
           id="g9645"
           transform="translate(213.2515,692.8301)">
          <path
             d="m 0,0 c 0,0.442 -0.176,0.688 -0.525,0.739 h -0.899 v -1.467 h 0.899 C -0.176,-0.712 0,-0.469 0,0 M 0.711,0 C 0.711,-0.595 0.5,-1.013 0.08,-1.252 -0.137,-1.378 -0.35,-1.44 -0.561,-1.44 h -0.863 v -2.185 h -0.713 v 5.076 h 1.576 C -0.346,1.451 -0.133,1.39 0.08,1.268 0.5,1.028 0.711,0.605 0.711,0"
             style="fill:#231f20;fill-opacity:1;fill-rule:nonzero;stroke:none"
             id="path9647"
             inkscape:connector-curvature="0" />
        </g>
        <g
           id="g9649"
           transform="translate(217.8215,690.5753)">
          <path
             d="m 0,0 c 0,-0.393 -0.138,-0.728 -0.414,-1.005 -0.275,-0.277 -0.613,-0.416 -1.01,-0.416 -0.392,0 -0.728,0.139 -1.005,0.416 -0.278,0.277 -0.416,0.612 -0.416,1.005 v 3.706 h 0.71 V 0.001 c 0,-0.196 0.069,-0.363 0.206,-0.502 0.138,-0.139 0.306,-0.208 0.505,-0.208 0.194,0 0.362,0.069 0.502,0.208 0.141,0.139 0.211,0.306 0.211,0.502 V 3.706 H 0 Z"
             style="fill:#231f20;fill-opacity:1;fill-rule:nonzero;stroke:none"
             id="path9651"
             inkscape:connector-curvature="0" />
        </g>
        <g
           id="g9653"
           transform="translate(221.5305,690.5908)">
          <path
             d="m 0,0 c 0,-0.359 -0.092,-0.669 -0.279,-0.929 -0.24,-0.339 -0.596,-0.507 -1.066,-0.507 -0.53,0 -0.924,0.168 -1.186,0.507 -0.209,0.268 -0.314,0.605 -0.314,1.011 h 0.71 c 0,-0.295 0.094,-0.513 0.28,-0.654 0.138,-0.102 0.308,-0.153 0.51,-0.153 0.406,0 0.609,0.243 0.609,0.726 0,0.379 -0.164,0.689 -0.492,0.929 -0.305,0.189 -0.61,0.377 -0.918,0.562 -0.328,0.254 -0.492,0.586 -0.492,0.995 0,0.267 0.074,0.513 0.224,0.736 0.229,0.345 0.598,0.517 1.106,0.517 0.535,0 0.914,-0.199 1.136,-0.597 C -0.08,2.978 -0.023,2.776 0,2.54 h -0.711 c 0,0.084 -0.029,0.168 -0.086,0.252 -0.101,0.158 -0.273,0.236 -0.513,0.236 -0.41,0 -0.616,-0.18 -0.616,-0.542 0,-0.2 0.166,-0.399 0.498,-0.599 C -0.933,1.596 -0.623,1.39 -0.498,1.268 -0.166,0.94 0,0.518 0,0"
             style="fill:#231f20;fill-opacity:1;fill-rule:nonzero;stroke:none"
             id="path9655"
             inkscape:connector-curvature="0" />
        </g>
        <g
           id="g9657"
           transform="translate(225.2355,689.2052)">
          <path
             d="M 0,0 H -0.711 V 2.336 H -2.134 V 0 h -0.711 v 5.076 h 0.711 V 3.048 h 1.423 V 5.076 H 0 Z"
             style="fill:#231f20;fill-opacity:1;fill-rule:nonzero;stroke:none"
             id="path9659"
             inkscape:connector-curvature="0" />
        </g>
        <g
           id="g9661"
           transform="translate(232.0405,690.7393)">
          <path
             d="m 0,0 c 0,0.338 -0.123,0.573 -0.371,0.705 -0.121,0.065 -0.25,0.097 -0.385,0.097 h -0.666 v -1.625 h 0.777 c 0.106,0 0.215,0.039 0.331,0.117 C -0.104,-0.567 0,-0.332 0,0 m -0.15,2.175 c 0,0.402 -0.194,0.621 -0.579,0.655 H -1.422 V 1.514 h 0.588 c 0.455,0 0.684,0.22 0.684,0.661 m 0.863,-2.187 c 0,-0.679 -0.244,-1.138 -0.733,-1.376 -0.207,-0.097 -0.455,-0.146 -0.748,-0.146 h -1.367 v 5.076 h 1.463 C -0.432,3.515 -0.225,3.452 -0.053,3.354 0.355,3.113 0.561,2.707 0.561,2.136 0.561,1.591 0.367,1.261 -0.018,1.146 0.469,0.878 0.713,0.492 0.713,-0.012"
             style="fill:#231f20;fill-opacity:1;fill-rule:nonzero;stroke:none"
             id="path9663"
             inkscape:connector-curvature="0" />
        </g>
        <g
           id="g9665"
           transform="translate(236.4605,690.5753)">
          <path
             d="m 0,0 c 0,-0.393 -0.139,-0.728 -0.414,-1.005 -0.278,-0.277 -0.613,-0.416 -1.01,-0.416 -0.393,0 -0.728,0.139 -1.006,0.416 -0.277,0.277 -0.418,0.612 -0.418,1.005 v 3.706 h 0.713 V 0.001 c 0,-0.196 0.068,-0.363 0.205,-0.502 0.137,-0.139 0.307,-0.208 0.506,-0.208 0.193,0 0.359,0.069 0.502,0.208 0.141,0.139 0.211,0.306 0.211,0.502 V 3.706 H 0 Z"
             style="fill:#231f20;fill-opacity:1;fill-rule:nonzero;stroke:none"
             id="path9667"
             inkscape:connector-curvature="0" />
        </g>
        <g
           id="g9669"
           transform="translate(239.7615,693.5693)">
          <path
             d="M 0,0 H -0.94 V -4.364 H -1.651 V 0 H -2.59 V 0.712 H 0 Z"
             style="fill:#231f20;fill-opacity:1;fill-rule:nonzero;stroke:none"
             id="path9671"
             inkscape:connector-curvature="0" />
        </g>
        <g
           id="g9673"
           transform="translate(242.6555,693.5693)">
          <path
             d="M 0,0 H -0.939 V -4.364 H -1.65 V 0 H -2.59 V 0.712 H 0 Z"
             style="fill:#231f20;fill-opacity:1;fill-rule:nonzero;stroke:none"
             id="path9675"
             inkscape:connector-curvature="0" />
        </g>
        <g
           id="g9677"
           transform="translate(245.5505,691.7433)">
          <path
             d="m 0,0 c 0,0.433 -0.045,0.809 -0.133,1.131 -0.133,0.497 -0.35,0.745 -0.654,0.745 -0.305,0 -0.524,-0.248 -0.657,-0.745 C -1.532,0.809 -1.574,0.433 -1.574,0 c 0,-0.434 0.042,-0.811 0.13,-1.132 0.133,-0.497 0.352,-0.745 0.657,-0.745 0.304,0 0.521,0.248 0.654,0.745 C -0.045,-0.811 0,-0.434 0,0 m 0.711,0 c 0,-0.623 -0.071,-1.139 -0.213,-1.549 -0.244,-0.693 -0.674,-1.04 -1.285,-1.04 -0.614,0 -1.043,0.347 -1.287,1.04 -0.141,0.41 -0.213,0.926 -0.213,1.549 0,1.725 0.5,2.588 1.5,2.588 0.998,0 1.498,-0.863 1.498,-2.588"
             style="fill:#231f20;fill-opacity:1;fill-rule:nonzero;stroke:none"
             id="path9679"
             inkscape:connector-curvature="0" />
        </g>
        <g
           id="g9681"
           transform="translate(250.1205,689.2052)">
          <path
             d="M 0,0 H -0.711 L -2.135,3.285 V 0 h -0.711 v 5.076 h 0.711 l 1.422,-3.278 0.002,3.278 H 0 Z"
             style="fill:#231f20;fill-opacity:1;fill-rule:nonzero;stroke:none"
             id="path9683"
             inkscape:connector-curvature="0" />
        </g>
        <g
           id="g9685"
           transform="translate(209.5505,684.4181)">
          <path
             d="M 0,0 H -1.672 V -6.096 H -2.83 V 0 H -4.498 V 1.159 H 0 Z"
             style="fill:#231f20;fill-opacity:1;fill-rule:nonzero;stroke:none"
             id="path9687"
             inkscape:connector-curvature="0" />
        </g>
        <g
           id="g9689"
           transform="translate(214.4875,681.9492)">
          <path
             d="M 0,0 C 0,0.741 -0.109,1.336 -0.326,1.781 -0.574,2.29 -0.937,2.545 -1.416,2.545 -1.902,2.545 -2.265,2.29 -2.508,1.781 -2.724,1.34 -2.834,0.747 -2.834,0 c 0,-0.741 0.11,-1.335 0.326,-1.781 0.248,-0.509 0.612,-0.763 1.092,-0.763 0.479,0 0.842,0.254 1.09,0.763 C -0.109,-1.335 0,-0.741 0,0 m 1.158,0 c 0,-0.977 -0.173,-1.793 -0.521,-2.447 -0.449,-0.837 -1.135,-1.256 -2.053,-1.256 -0.924,0 -1.609,0.419 -2.054,1.256 -0.348,0.649 -0.522,1.465 -0.522,2.447 0,0.983 0.174,1.799 0.522,2.447 0.445,0.838 1.13,1.256 2.054,1.256 0.918,0 1.604,-0.418 2.053,-1.256 C 0.985,1.794 1.158,0.979 1.158,0"
             style="fill:#231f20;fill-opacity:1;fill-rule:nonzero;stroke:none"
             id="path9691"
             inkscape:connector-curvature="0" />
        </g>
        <g
           id="g9693"
           transform="translate(227.0955,679.8232)">
          <path
             d="m 0,0 c -0.442,-1.052 -1.207,-1.577 -2.301,-1.577 -0.943,0 -1.639,0.419 -2.09,1.256 -0.352,0.649 -0.529,1.465 -0.529,2.447 0,0.987 0.174,1.804 0.523,2.447 0.453,0.838 1.153,1.256 2.096,1.256 1.064,0 1.836,-0.511 2.314,-1.533 l -1.095,-0.45 c -0.219,0.55 -0.625,0.825 -1.219,0.825 -0.504,0 -0.881,-0.255 -1.133,-0.764 C -3.653,3.471 -3.76,2.878 -3.76,2.126 c 0,-0.751 0.107,-1.345 0.326,-1.781 0.246,-0.509 0.623,-0.763 1.133,-0.763 0.555,0 0.967,0.282 1.232,0.847 z"
             style="fill:#231f20;fill-opacity:1;fill-rule:nonzero;stroke:none"
             id="path9695"
             inkscape:connector-curvature="0" />
        </g>
        <g
           id="g9697"
           transform="translate(232.3825,683.5605)">
          <path
             d="M 0,0 C 0,0.242 -0.08,0.446 -0.242,0.61 -0.405,0.775 -0.608,0.858 -0.85,0.858 h -1.668 v -1.745 h 1.668 c 0.242,0 0.445,0.086 0.608,0.258 C -0.08,-0.457 0,-0.247 0,0 M 1.256,-5.238 H 0.029 l -1.168,3.192 h -1.379 v -3.192 h -1.16 v 7.255 h 2.82 c 0.557,0 1.032,-0.198 1.426,-0.592 C 0.963,1.031 1.16,0.556 1.16,0 1.16,-0.813 0.775,-1.423 0.008,-1.829 Z"
             style="fill:#231f20;fill-opacity:1;fill-rule:nonzero;stroke:none"
             id="path9699"
             inkscape:connector-curvature="0" />
        </g>
        <g
           id="g9701"
           transform="translate(238.7205,681.9492)">
          <path
             d="m 0,0 c 0,0.741 -0.11,1.336 -0.328,1.781 -0.247,0.509 -0.61,0.764 -1.09,0.764 -0.485,0 -0.848,-0.255 -1.09,-0.764 C -2.725,1.34 -2.834,0.747 -2.834,0 c 0,-0.741 0.109,-1.335 0.326,-1.781 0.248,-0.509 0.611,-0.763 1.09,-0.763 0.48,0 0.843,0.254 1.09,0.763 C -0.11,-1.335 0,-0.741 0,0 m 1.158,0 c 0,-0.977 -0.174,-1.793 -0.522,-2.447 -0.451,-0.837 -1.134,-1.256 -2.054,-1.256 -0.924,0 -1.608,0.419 -2.053,1.256 -0.348,0.649 -0.522,1.465 -0.522,2.447 0,0.983 0.174,1.799 0.522,2.447 0.445,0.838 1.129,1.256 2.053,1.256 0.92,0 1.603,-0.418 2.054,-1.256 C 0.984,1.794 1.158,0.979 1.158,0"
             style="fill:#231f20;fill-opacity:1;fill-rule:nonzero;stroke:none"
             id="path9703"
             inkscape:connector-curvature="0" />
        </g>
        <g
           id="g9705"
           transform="translate(245.9015,680.4767)">
          <path
             d="m 0,0 c 0,-0.653 -0.234,-1.19 -0.703,-1.606 -0.471,-0.417 -1.047,-0.625 -1.734,-0.625 -0.869,0 -1.547,0.316 -2.029,0.945 -0.204,0.261 -0.36,0.576 -0.465,0.944 L -3.857,0 c 0.197,-0.714 0.676,-1.071 1.435,-1.071 0.325,0 0.61,0.093 0.856,0.283 0.271,0.208 0.406,0.47 0.406,0.784 0,0.412 -0.306,0.739 -0.92,0.981 -0.57,0.223 -1.14,0.446 -1.711,0.669 -0.613,0.358 -0.92,0.881 -0.92,1.569 0,0.586 0.168,1.048 0.508,1.387 0.387,0.383 0.969,0.574 1.746,0.574 1.016,0 1.746,-0.49 2.192,-1.468 L -1.347,3.366 c -0.207,0.435 -0.577,0.651 -1.102,0.651 -0.736,0 -1.103,-0.266 -1.103,-0.799 0,-0.344 0.306,-0.619 0.919,-0.828 C -1.67,2.06 -1.099,1.841 -0.922,1.729 -0.306,1.342 0,0.766 0,0"
             style="fill:#231f20;fill-opacity:1;fill-rule:nonzero;stroke:none"
             id="path9707"
             inkscape:connector-curvature="0" />
        </g>
        <g
           id="g9709"
           transform="translate(251.5606,680.4767)">
          <path
             d="m 0,0 c 0,-0.653 -0.235,-1.19 -0.704,-1.606 -0.468,-0.417 -1.046,-0.625 -1.732,-0.625 -0.871,0 -1.547,0.316 -2.031,0.945 -0.203,0.261 -0.358,0.576 -0.465,0.944 L -3.858,0 c 0.199,-0.714 0.678,-1.071 1.438,-1.071 0.322,0 0.609,0.093 0.855,0.283 0.272,0.208 0.406,0.47 0.406,0.784 0,0.412 -0.306,0.739 -0.92,0.981 -0.57,0.223 -1.14,0.446 -1.711,0.669 -0.615,0.358 -0.921,0.881 -0.921,1.569 0,0.586 0.169,1.048 0.507,1.387 0.387,0.383 0.969,0.574 1.748,0.574 1.016,0 1.745,-0.49 2.19,-1.468 l -1.08,-0.342 c -0.209,0.435 -0.576,0.651 -1.104,0.651 -0.734,0 -1.101,-0.266 -1.101,-0.799 0,-0.344 0.306,-0.619 0.92,-0.828 C -1.67,2.06 -1.1,1.841 -0.92,1.729 -0.307,1.342 0,0.766 0,0"
             style="fill:#231f20;fill-opacity:1;fill-rule:nonzero;stroke:none"
             id="path9711"
             inkscape:connector-curvature="0" />
        </g>
        <g
           id="g9713"
           transform="translate(209.4405,657.6152)">
          <path
             d="m 0,0 -1.173,-4.686 h -1.104 l -0.951,7.254 h 1.176 l 0.507,-3.918 0.987,3.918 H 0.559 L 1.547,-1.35 2.055,2.568 H 3.229 L 2.28,-4.686 H 1.176 Z"
             style="fill:#231f20;fill-opacity:1;fill-rule:nonzero;stroke:none"
             id="path9715"
             inkscape:connector-curvature="0" />
        </g>
        <g
           id="g9717"
           transform="translate(216.9505,656.1222)">
          <path
             d="M 0,0 -0.762,2.212 -1.515,0 Z M 2.322,-3.193 H 1.096 L 0.399,-1.159 H -1.93 l -0.681,-2.034 h -1.235 l 2.497,7.254 h 1.175 z"
             style="fill:#231f20;fill-opacity:1;fill-rule:nonzero;stroke:none"
             id="path9719"
             inkscape:connector-curvature="0" />
        </g>
        <path
           d="m 221.521,652.929 h -1.158 v 7.255 h 1.158 z"
           style="fill:#231f20;fill-opacity:1;fill-rule:nonzero;stroke:none"
           id="path9721"
           inkscape:connector-curvature="0" />
        <g
           id="g9723"
           transform="translate(227.1085,659.0255)">
          <path
             d="M 0,0 H -1.672 V -6.097 H -2.83 V 0 H -4.5 V 1.158 H 0 Z"
             style="fill:#231f20;fill-opacity:1;fill-rule:nonzero;stroke:none"
             id="path9725"
             inkscape:connector-curvature="0" />
        </g>
        <g
           id="g9727"
           transform="translate(233.2765,652.9288)">
          <path
             d="M 0,0 V 7.255 H 4.498 V 6.097 H 1.159 V 4.352 H 3.338 V 3.193 H 1.159 V 0 Z"
             style="fill:#231f20;fill-opacity:1;fill-rule:nonzero;stroke:none"
             id="path9729"
             inkscape:connector-curvature="0" />
        </g>
        <g
           id="g9731"
           transform="translate(242.7105,656.5566)">
          <path
             d="M 0,0 C 0,0.741 -0.109,1.335 -0.326,1.78 -0.574,2.29 -0.938,2.544 -1.416,2.544 -1.9,2.544 -2.264,2.29 -2.506,1.78 -2.725,1.34 -2.834,0.746 -2.834,0 c 0,-0.742 0.109,-1.336 0.328,-1.781 0.246,-0.509 0.609,-0.764 1.09,-0.764 0.478,0 0.842,0.255 1.09,0.764 C -0.109,-1.336 0,-0.742 0,0 m 1.16,0 c 0,-0.979 -0.176,-1.794 -0.523,-2.447 -0.45,-0.838 -1.135,-1.256 -2.053,-1.256 -0.924,0 -1.609,0.418 -2.055,1.256 -0.347,0.648 -0.521,1.464 -0.521,2.447 0,0.983 0.174,1.798 0.521,2.446 0.446,0.838 1.131,1.257 2.055,1.257 0.918,0 1.603,-0.419 2.053,-1.257 C 0.984,1.793 1.16,0.978 1.16,0"
             style="fill:#231f20;fill-opacity:1;fill-rule:nonzero;stroke:none"
             id="path9733"
             inkscape:connector-curvature="0" />
        </g>
        <g
           id="g9735"
           transform="translate(249.1436,658.1671)">
          <path
             d="m 0,0 c 0,0.243 -0.082,0.446 -0.244,0.611 -0.162,0.164 -0.365,0.247 -0.605,0.247 h -1.67 v -1.745 h 1.67 c 0.24,0 0.443,0.086 0.605,0.259 C -0.082,-0.456 0,-0.247 0,0 M 1.254,-5.238 H 0.028 l -1.168,3.193 h -1.379 v -3.193 h -1.16 v 7.255 h 2.822 c 0.555,0 1.031,-0.198 1.424,-0.591 C 0.961,1.031 1.159,0.557 1.159,0 c 0,-0.813 -0.385,-1.422 -1.153,-1.828 z"
             style="fill:#231f20;fill-opacity:1;fill-rule:nonzero;stroke:none"
             id="path9737"
             inkscape:connector-curvature="0" />
        </g>
        <g
           id="g9739"
           transform="translate(225.9075,667.7803)">
          <path
             d="M 0,0 C 0,-0.654 -0.234,-1.19 -0.703,-1.605 -1.172,-2.022 -1.75,-2.23 -2.435,-2.23 c -0.872,0 -1.547,0.314 -2.032,0.944 -0.203,0.262 -0.357,0.576 -0.463,0.944 L -3.857,0 c 0.199,-0.715 0.677,-1.071 1.437,-1.071 0.324,0 0.61,0.093 0.856,0.283 0.271,0.208 0.406,0.47 0.406,0.784 0,0.412 -0.307,0.738 -0.92,0.981 -0.57,0.222 -1.141,0.446 -1.711,0.669 -0.613,0.358 -0.922,0.88 -0.922,1.569 0,0.586 0.17,1.048 0.508,1.387 0.387,0.382 0.971,0.574 1.748,0.574 1.016,0 1.744,-0.489 2.189,-1.468 l -1.08,-0.342 c -0.209,0.434 -0.576,0.651 -1.103,0.651 -0.735,0 -1.102,-0.266 -1.102,-0.799 0,-0.344 0.307,-0.62 0.92,-0.828 C -1.67,2.06 -1.1,1.84 -0.92,1.729 -0.307,1.341 0,0.765 0,0"
             style="fill:#231f20;fill-opacity:1;fill-rule:nonzero;stroke:none"
             id="path9741"
             inkscape:connector-curvature="0" />
        </g>
        <g
           id="g9743"
           transform="translate(230.9835,671.7217)">
          <path
             d="M 0,0 H -1.672 V -6.097 H -2.83 V 0 H -4.498 V 1.159 H 0 Z"
             style="fill:#231f20;fill-opacity:1;fill-rule:nonzero;stroke:none"
             id="path9745"
             inkscape:connector-curvature="0" />
        </g>
        <g
           id="g9747"
           transform="translate(235.7515,670.8643)">
          <path
             d="M 0,0 C 0,0.242 -0.082,0.445 -0.244,0.61 -0.406,0.775 -0.608,0.857 -0.85,0.857 h -1.67 v -1.744 h 1.67 c 0.242,0 0.444,0.086 0.606,0.258 C -0.082,-0.457 0,-0.247 0,0 M 1.256,-5.239 H 0.029 l -1.17,3.193 H -2.52 v -3.193 h -1.158 v 7.256 h 2.82 c 0.557,0 1.032,-0.198 1.426,-0.592 0.393,-0.395 0.59,-0.869 0.59,-1.426 0,-0.812 -0.383,-1.422 -1.15,-1.828 z"
             style="fill:#231f20;fill-opacity:1;fill-rule:nonzero;stroke:none"
             id="path9749"
             inkscape:connector-curvature="0" />
        </g>
        <g
           id="g9751"
           transform="translate(242.7375,665.625)">
          <path
             d="m 0,0 h -4.498 v 7.256 h 4.354 V 6.097 H -3.338 V 4.353 h 2.207 V 3.193 H -3.338 V 1.159 H 0 Z"
             style="fill:#231f20;fill-opacity:1;fill-rule:nonzero;stroke:none"
             id="path9753"
             inkscape:connector-curvature="0" />
        </g>
        <g
           id="g9755"
           transform="translate(248.4705,665.625)">
          <path
             d="m 0,0 h -4.498 v 7.256 h 4.353 V 6.097 H -3.34 V 4.353 h 2.207 V 3.193 H -3.34 V 1.159 H 0 Z"
             style="fill:#231f20;fill-opacity:1;fill-rule:nonzero;stroke:none"
             id="path9757"
             inkscape:connector-curvature="0" />
        </g>
        <g
           id="g9759"
           transform="translate(253.5465,671.7217)">
          <path
             d="M 0,0 H -1.67 V -6.097 H -2.83 V 0 H -4.498 V 1.159 H 0 Z"
             style="fill:#231f20;fill-opacity:1;fill-rule:nonzero;stroke:none"
             id="path9761"
             inkscape:connector-curvature="0" />
        </g>
        <g
           id="g9763"
           transform="matrix(-1,0,0,1,212.2165,663.0586)">
          <path
             d="M 0,0 9.151,6.189 0,12.389 c -0.402,0.274 -0.955,0.169 -1.23,-0.235 -0.182,-0.269 -0.148,-0.548 -0.064,-0.88 L -0.488,8.588 H -6.689 V 3.794 h 6.201 L -1.277,1.151 C -1.378,0.786 -1.421,0.516 -1.23,0.234 -0.955,-0.169 -0.402,-0.274 0,0"
             style="fill:#231f20;fill-opacity:1;fill-rule:evenodd;stroke:none"
             id="path9765"
             inkscape:connector-curvature="0" />
        </g>
        <g
           id="g9767"
           transform="translate(218.6945,642.7267)">
          <path
             d="m 0,0 c 0,-0.581 -0.156,-1.11 -0.47,-1.59 -0.426,-0.653 -1.055,-0.98 -1.885,-0.98 -0.924,0 -1.61,0.419 -2.053,1.256 -0.35,0.649 -0.523,1.464 -0.523,2.447 0,0.983 0.175,1.799 0.523,2.447 0.445,0.838 1.129,1.256 2.053,1.256 1.103,0 1.844,-0.554 2.221,-1.663 L -1.195,2.744 c -0.242,0.622 -0.629,0.934 -1.16,0.934 -0.485,0 -0.848,-0.255 -1.09,-0.764 -0.219,-0.44 -0.326,-1.034 -0.326,-1.781 0,-0.741 0.107,-1.335 0.326,-1.781 0.246,-0.509 0.609,-0.763 1.088,-0.763 0.449,0 0.785,0.204 1.006,0.612 0.136,0.253 0.209,0.511 0.218,0.774 H -2.449 V 1.133 H 0 Z"
             style="fill:#231f20;fill-opacity:1;fill-rule:nonzero;stroke:none"
             id="path9769"
             inkscape:connector-curvature="0" />
        </g>
        <g
           id="g9771"
           transform="translate(223.9725,645.4708)">
          <path
             d="M 0,0 C 0,0.242 -0.082,0.446 -0.245,0.61 -0.407,0.775 -0.608,0.857 -0.85,0.857 h -1.67 v -1.744 h 1.67 c 0.242,0 0.443,0.086 0.605,0.258 C -0.082,-0.457 0,-0.247 0,0 M 1.254,-5.238 H 0.027 l -1.168,3.192 H -2.52 v -3.192 h -1.16 v 7.255 h 2.822 c 0.555,0 1.031,-0.198 1.424,-0.592 C 0.961,1.031 1.158,0.556 1.158,0 c 0,-0.813 -0.385,-1.423 -1.153,-1.829 z"
             style="fill:#231f20;fill-opacity:1;fill-rule:nonzero;stroke:none"
             id="path9773"
             inkscape:connector-curvature="0" />
        </g>
        <g
           id="g9775"
           transform="translate(230.9585,640.2324)">
          <path
             d="m 0,0 h -4.498 v 7.255 h 4.353 V 6.096 H -3.34 V 4.352 h 2.207 V 3.192 H -3.34 V 1.158 H 0 Z"
             style="fill:#231f20;fill-opacity:1;fill-rule:nonzero;stroke:none"
             id="path9777"
             inkscape:connector-curvature="0" />
        </g>
        <g
           id="g9779"
           transform="translate(236.6885,640.2324)">
          <path
             d="m 0,0 h -4.498 v 7.255 h 4.354 V 6.096 H -3.337 V 4.352 H -1.13 V 3.192 H -3.337 V 1.158 H 0 Z"
             style="fill:#231f20;fill-opacity:1;fill-rule:nonzero;stroke:none"
             id="path9781"
             inkscape:connector-curvature="0" />
        </g>
        <g
           id="g9783"
           transform="translate(242.8475,640.2324)">
          <path
             d="M 0,0 H -1.11 L -3.76,4.81 V 0 h -1.158 v 7.255 h 1.125 L -1.159,2.474 V 7.255 H 0 Z"
             style="fill:#231f20;fill-opacity:1;fill-rule:nonzero;stroke:none"
             id="path9785"
             inkscape:connector-curvature="0" />
        </g>
        <g
           id="g9787"
           transform="translate(235.5616,629.3495)">
          <path
             d="m 0,0 c 0,-4.007 -3.25,-7.256 -7.255,-7.256 -4.008,0 -7.256,3.249 -7.256,7.256 0,4.007 3.248,7.255 7.256,7.255 C -3.25,7.255 0,4.007 0,0"
             style="fill:#00674c;fill-opacity:1;fill-rule:nonzero;stroke:none"
             id="path9789"
             inkscape:connector-curvature="0" />
        </g>
      </g>
    </g>
  </g>
</svg>
