<?xml version="1.0" encoding="UTF-8" standalone="no"?>
<!-- Created with Inkscape (http://www.inkscape.org/) -->

<svg
   width="23.463249mm"
   height="14.730588mm"
   viewBox="0 0 23.463249 14.730588"
   version="1.1"
   id="svg1"
   inkscape:version="1.3 (0e150ed, 2023-07-21)"
   sodipodi:docname="MUTCD_R1-2bP.svg"
   xmlns:inkscape="http://www.inkscape.org/namespaces/inkscape"
   xmlns:sodipodi="http://sodipodi.sourceforge.net/DTD/sodipodi-0.dtd"
   xmlns="http://www.w3.org/2000/svg"
   xmlns:svg="http://www.w3.org/2000/svg">
  <sodipodi:namedview
     id="namedview1"
     pagecolor="#ffffff"
     bordercolor="#666666"
     borderopacity="1.0"
     inkscape:showpageshadow="2"
     inkscape:pageopacity="0.0"
     inkscape:pagecheckerboard="0"
     inkscape:deskcolor="#d1d1d1"
     inkscape:document-units="mm"
     inkscape:zoom="2.8284271"
     inkscape:cx="-24.041631"
     inkscape:cy="-1.0606602"
     inkscape:window-width="1440"
     inkscape:window-height="431"
     inkscape:window-x="0"
     inkscape:window-y="23"
     inkscape:window-maximized="0"
     inkscape:current-layer="g99" />
  <defs
     id="defs1">
    <clipPath
       clipPathUnits="userSpaceOnUse"
       id="clipPath98">
      <path
         d="M 87.622,53 H 479.378 V 260.121 H 87.622 Z"
         transform="translate(-200.32321,-72.353402)"
         id="path98" />
    </clipPath>
  </defs>
  <g
     inkscape:label="Layer 1"
     inkscape:groupmode="layer"
     id="layer1"
     transform="translate(-77.522916,-117.21042)">
    <g
       id="g96"
       transform="matrix(0.26458333,0,0,0.26458333,8.3970287,-121.97845)">
      <path
         id="path97"
         d="m 0,0 c -2.344,0 -4.251,1.907 -4.251,4.25 v 33.005 c 0,2.344 1.907,4.251 4.251,4.251 h 57.758 c 2.344,0 4.251,-1.907 4.251,-4.251 V 4.25 C 62.009,1.907 60.102,0 57.758,0 Z"
         style="fill:#ffffff;fill-opacity:1;fill-rule:nonzero;stroke:none"
         transform="matrix(1.3333333,0,0,-1.3333333,267.0976,959.5288)"
         clip-path="url(#clipPath98)" />
    </g>
    <g
       id="g98"
       transform="matrix(0.26458333,0,0,0.26458333,8.3970287,-121.97845)">
      <path
         id="path99"
         d="m 0,0 h -57.758 c -2.413,0 -4.376,-1.963 -4.376,-4.376 V -37.38 c 0,-2.413 1.963,-4.376 4.376,-4.376 H 0 c 2.413,0 4.376,1.963 4.376,4.376 V -4.376 C 4.376,-1.963 2.413,0 0,0 m 0,-0.25 c 2.269,0 4.126,-1.857 4.126,-4.126 V -37.38 c 0,-2.27 -1.857,-4.126 -4.126,-4.126 h -57.758 c -2.27,0 -4.126,1.856 -4.126,4.126 v 33.004 c 0,2.269 1.856,4.126 4.126,4.126 z"
         style="fill:#000000 icc-color(sRGB-IEC61966-2, 0.1, 0, 0, 0);fill-opacity:1;fill-rule:nonzero;stroke:none"
         transform="matrix(1.3333333,0,0,-1.3333333,344.10853,904.02093)" />
    </g>
    <g
       id="g99"
       transform="matrix(0.26458333,0,0,0.26458333,8.3970287,-121.97845)">
      <path
         id="path100"
         d="m 0,0 c -1.706,0 -3.094,1.388 -3.094,3.094 v 33.005 c 0,1.706 1.388,3.094 3.094,3.094 h 57.758 c 1.706,0 3.095,-1.388 3.095,-3.094 V 3.094 C 60.853,1.388 59.464,0 57.758,0 Z"
         style="fill:#000000 icc-color(sRGB-IEC61966-2, 0.1, 0, 0, 0);fill-opacity:1;fill-rule:nonzero;stroke:none"
         transform="matrix(1.3333333,0,0,-1.3333333,267.09733,957.98707)" />
      <path
         id="path101"
         d="M 0,0 C -0.758,0 -1.375,0.617 -1.375,1.375 V 34.38 c 0,0.758 0.617,1.375 1.375,1.375 h 57.758 c 0.759,0 1.376,-0.617 1.376,-1.375 V 1.375 C 59.134,0.617 58.517,0 57.758,0 Z"
         style="fill:#ffffff;fill-opacity:1;fill-rule:nonzero;stroke:none"
         transform="matrix(1.3333333,0,0,-1.3333333,267.09733,955.69507)" />
      <path
         id="path102"
         d="M 0,0 H -1.19 V 7.151 H -2.7 v 1.1 h 4.21 v -1.1 H 0 Z"
         style="fill:#000000 icc-color(sRGB-IEC61966-2, 0.1, 0, 0, 0);fill-opacity:1;fill-rule:nonzero;stroke:none"
         transform="matrix(1.3333333,0,0,-1.3333333,274.81347,927.27427)" />
      <path
         id="path103"
         d="m 0,0 c -0.235,0 -1.298,0.048 -1.298,-3.1 0,-3.172 1.063,-3.123 1.298,-3.123 0.235,0 1.297,-0.049 1.297,3.123 C 1.297,0.048 0.235,0 0,0 m -2.435,-3.094 c 0,4.32 2.004,4.251 2.448,4.251 0.445,0 2.422,0.066 2.422,-4.254 0,-4.352 -1.977,-4.284 -2.422,-4.284 -0.444,0 -2.448,-0.068 -2.448,4.287"
         style="fill:#000000 icc-color(sRGB-IEC61966-2, 0.1, 0, 0, 0);fill-opacity:1;fill-rule:nonzero;stroke:none"
         transform="matrix(1.3333333,0,0,-1.3333333,281.39307,917.62453)" />
      <path
         id="path104"
         d="M 0,0 H -1.19 V 7.151 H -2.7 v 1.1 h 4.21 v -1.1 H 0 Z"
         style="fill:#000000 icc-color(sRGB-IEC61966-2, 0.1, 0, 0, 0);fill-opacity:1;fill-rule:nonzero;stroke:none"
         transform="matrix(1.3333333,0,0,-1.3333333,296.49053,927.27427)" />
      <path
         id="path105"
         d="m 0,0 v -2.084 h 1.213 c 0.695,0 1.069,0.376 1.069,1.042 C 2.282,-0.404 1.849,0 1.214,0 Z M 1.127,-3.214 H 0 v -3.879 h -1.184 v 8.251 h 2.456 c 1.294,0 2.166,-0.868 2.166,-2.2 0,-0.984 -0.405,-1.708 -1.185,-1.997 L 3.437,-7.093 H 2.226 Z"
         style="fill:#000000 icc-color(sRGB-IEC61966-2, 0.1, 0, 0, 0);fill-opacity:1;fill-rule:nonzero;stroke:none"
         transform="matrix(1.3333333,0,0,-1.3333333,301.6228,917.81707)" />
      <path
         id="path106"
         d="M 0,0 H 1.19 L 0.581,2.374 Z m 1.48,-1.158 h -1.77 l -0.551,-2.258 h -1.191 l 2.061,8.251 h 1.162 l 2.06,-8.251 h -1.19 z"
         style="fill:#000000 icc-color(sRGB-IEC61966-2, 0.1, 0, 0, 0);fill-opacity:1;fill-rule:nonzero;stroke:none"
         transform="matrix(1.3333333,0,0,-1.3333333,309.90667,922.7196)" />
      <path
         id="path107"
         d="M 0,0 H 1.655 V -1.129 H 0 V -5.008 H -1.19 V 3.243 H 3.02 V 2.084 H 0 Z"
         style="fill:#000000 icc-color(sRGB-IEC61966-2, 0.1, 0, 0, 0);fill-opacity:1;fill-rule:nonzero;stroke:none"
         transform="matrix(1.3333333,0,0,-1.3333333,317.3684,920.59627)" />
      <path
         id="path108"
         d="M 0,0 H 1.655 V -1.129 H 0 V -5.008 H -1.19 V 3.243 H 3.02 V 2.084 H 0 Z"
         style="fill:#000000 icc-color(sRGB-IEC61966-2, 0.1, 0, 0, 0);fill-opacity:1;fill-rule:nonzero;stroke:none"
         transform="matrix(1.3333333,0,0,-1.3333333,324.52187,920.59627)" />
      <path
         id="path109"
         d="m 247.567,104.795 h 1.155 v -8.251 h -1.155 z"
         style="fill:#000000 icc-color(sRGB-IEC61966-2, 0.1, 0, 0, 0);fill-opacity:1;fill-rule:nonzero;stroke:none"
         transform="matrix(1.3333333,0,0,-1.3333333,0,1056)" />
      <path
         id="path110"
         d="m 0,0 c -0.115,0.811 -0.435,1.187 -0.988,1.187 -0.959,0 -1.309,-0.753 -1.309,-2.894 0,-2.374 0.408,-3.329 1.426,-3.329 0.698,0 0.871,0.579 0.871,1.187 h 1.192 c -0.029,-1.361 -0.9,-2.345 -2.063,-2.345 -1.773,0 -2.559,1.418 -2.559,4.458 0,2.662 0.842,4.079 2.471,4.079 1.512,0 2.111,-1.379 2.151,-2.343 z"
         style="fill:#000000 icc-color(sRGB-IEC61966-2, 0.1, 0, 0, 0);fill-opacity:1;fill-rule:nonzero;stroke:none"
         transform="matrix(1.3333333,0,0,-1.3333333,338.40253,919.206)" />
      <path
         id="path111"
         d="m 206.835,89.668 h 1.155 v -8.251 h -1.155 z"
         style="fill:#000000 icc-color(sRGB-IEC61966-2, 0.1, 0, 0, 0);fill-opacity:1;fill-rule:nonzero;stroke:none"
         transform="matrix(1.3333333,0,0,-1.3333333,0,1056)" />
      <path
         id="path112"
         d="M 0,0 V -5.529 H -1.184 V 2.722 H 0 L 2.254,-2.229 V 2.722 H 3.439 V -5.529 H 2.544 Z"
         style="fill:#000000 icc-color(sRGB-IEC61966-2, 0.1, 0, 0, 0);fill-opacity:1;fill-rule:nonzero;stroke:none"
         transform="matrix(1.3333333,0,0,-1.3333333,281.31933,940.07133)" />
      <path
         id="path113"
         d="m 0,0 c -0.115,0.811 -0.435,1.187 -0.988,1.187 -0.959,0 -1.309,-0.753 -1.309,-2.894 0,-2.374 0.408,-3.329 1.426,-3.329 0.698,0 0.871,0.579 0.871,1.187 h 1.192 c -0.029,-1.361 -0.9,-2.346 -2.063,-2.346 -1.774,0 -2.559,1.419 -2.559,4.459 0,2.662 0.842,4.079 2.471,4.079 1.512,0 2.111,-1.379 2.151,-2.343 z"
         style="fill:#000000 icc-color(sRGB-IEC61966-2, 0.1, 0, 0, 0);fill-opacity:1;fill-rule:nonzero;stroke:none"
         transform="matrix(1.3333333,0,0,-1.3333333,298.7296,939.37547)" />
      <path
         id="path114"
         d="m 226.89,89.668 h 1.155 v -8.251 h -1.155 z"
         style="fill:#000000 icc-color(sRGB-IEC61966-2, 0.1, 0, 0, 0);fill-opacity:1;fill-rule:nonzero;stroke:none"
         transform="matrix(1.3333333,0,0,-1.3333333,0,1056)" />
      <path
         id="path115"
         d="m 0,0 v -2.084 h 1.213 c 0.695,0 1.069,0.376 1.069,1.042 C 2.282,-0.404 1.849,0 1.214,0 Z M 1.127,-3.214 H 0 v -3.879 h -1.184 v 8.251 h 2.456 c 1.294,0 2.167,-0.868 2.167,-2.2 0,-0.984 -0.406,-1.708 -1.185,-1.998 L 3.438,-7.093 H 2.226 Z"
         style="fill:#000000 icc-color(sRGB-IEC61966-2, 0.1, 0, 0, 0);fill-opacity:1;fill-rule:nonzero;stroke:none"
         transform="matrix(1.3333333,0,0,-1.3333333,308.05933,937.98653)" />
      <path
         id="path116"
         d="m 0,0 c -0.115,0.811 -0.435,1.187 -0.988,1.187 -0.959,0 -1.309,-0.753 -1.309,-2.894 0,-2.374 0.408,-3.329 1.426,-3.329 0.698,0 0.871,0.579 0.871,1.187 h 1.192 c -0.029,-1.361 -0.9,-2.346 -2.063,-2.346 -1.774,0 -2.559,1.419 -2.559,4.459 0,2.662 0.842,4.079 2.471,4.079 1.512,0 2.111,-1.379 2.151,-2.343 z"
         style="fill:#000000 icc-color(sRGB-IEC61966-2, 0.1, 0, 0, 0);fill-opacity:1;fill-rule:nonzero;stroke:none"
         transform="matrix(1.3333333,0,0,-1.3333333,318.86867,939.37547)" />
      <path
         id="path117"
         d="m 0,0 h 1.19 v -7.151 h 3.02 v -1.1 H 0 Z"
         style="fill:#000000 icc-color(sRGB-IEC61966-2, 0.1, 0, 0, 0);fill-opacity:1;fill-rule:nonzero;stroke:none"
         transform="matrix(1.3333333,0,0,-1.3333333,322.65893,936.44227)" />
      <path
         id="path118"
         d="M 0,0 H 3.89 V -1.158 H 1.19 V -3.243 H 2.902 V -4.372 H 1.19 V -7.094 H 4.21 V -8.251 H 0 Z"
         style="fill:#000000 icc-color(sRGB-IEC61966-2, 0.1, 0, 0, 0);fill-opacity:1;fill-rule:nonzero;stroke:none"
         transform="matrix(1.3333333,0,0,-1.3333333,329.81293,936.44227)" />
    </g>
  </g>
</svg>
