<?xml version="1.0" encoding="UTF-8" standalone="no"?>
<!-- Created with Inkscape (http://www.inkscape.org/) -->

<svg
   width="12in"
   height="18in"
   viewBox="0 0 304.8 457.20001"
   version="1.1"
   id="svg925"
   inkscape:version="1.1.1 (c3084ef, 2021-09-22)"
   sodipodi:docname="MUTCD R9-23bL.svg"
   xmlns:inkscape="http://www.inkscape.org/namespaces/inkscape"
   xmlns:sodipodi="http://sodipodi.sourceforge.net/DTD/sodipodi-0.dtd"
   xmlns="http://www.w3.org/2000/svg"
   xmlns:svg="http://www.w3.org/2000/svg">
  <sodipodi:namedview
     id="namedview927"
     pagecolor="#ffffff"
     bordercolor="#666666"
     borderopacity="1.0"
     inkscape:pageshadow="2"
     inkscape:pageopacity="0.0"
     inkscape:pagecheckerboard="0"
     inkscape:document-units="in"
     showgrid="false"
     units="in"
     inkscape:zoom="0.36401473"
     inkscape:cx="521.9569"
     inkscape:cy="863.97603"
     inkscape:window-width="1417"
     inkscape:window-height="855"
     inkscape:window-x="0"
     inkscape:window-y="23"
     inkscape:window-maximized="0"
     inkscape:current-layer="layer2" />
  <defs
     id="defs922" />
  <g
     inkscape:label="Sign Back"
     inkscape:groupmode="layer"
     id="layer1"
     sodipodi:insensitive="true">
    <rect
       style="fill:#ffffff;stroke:#000000;stroke-width:1.5748;stroke-linecap:square;stroke-miterlimit:10;stroke-dasharray:none"
       id="rect1008"
       width="303.21249"
       height="455.61252"
       x="0.7937547"
       y="0.79374337"
       rx="24.606251"
       ry="24.606251" />
    <rect
       style="fill:none;stroke:#000000;stroke-width:9.525;stroke-linecap:square;stroke-miterlimit:10;stroke-dasharray:none;stroke-opacity:1"
       id="rect1178"
       width="276.22501"
       height="428.625"
       x="14.287498"
       y="14.287502"
       rx="12.7"
       ry="12.7" />
  </g>
  <g
     inkscape:groupmode="layer"
     id="layer2"
     inkscape:label="Legends">
    <path
       d="m 182.88284,113.38865 25.81635,-4.21454 -16.27094,-21.136371 c -8.43271,7.35455 -9.4818,16.183641 -9.54541,25.350911 m -7.10182,1.54546 c -0.044,-0.91637 -0.18912,-2.38909 -0.18912,-3.42001 0,-10.45818 3.38365,-20.621811 12.56546,-29.069091 l -9.56361,-11.450912 -14.80184,45.156373 z m -56.81458,-44.941833 0.82001,-2.51272 52.72185,-0.0691 -14.02367,42.516363 -0.60544,-4.43455 h 1.61269 l -0.20175,-2.82363 h -7.05637 l 0.20176,2.62182 h 1.8145 l 0.40187,4.83818 c 0,0 -35.48364,-39.934553 -35.68545,-40.136373 M 95.617367,110.8341 c 7.080013,-5.62364 12.590913,-10.983641 16.563623,-21.709101 6.27276,5.69091 9.85091,13.920001 9.85091,22.389091 0,16.81819 -13.71636,30.53637 -30.534523,30.53637 -16.81821,0 -30.53638,-13.71818 -30.53638,-30.53637 0,-16.818181 13.71817,-30.534541 30.53638,-30.534541 5.36726,0 10.854533,1.54909 15.278153,4.16182 -2.99454,9.46363 -5.90728,14.34363 -15.121803,21.761811 -2.23638,0.0946 -3.93818,1.8891 -3.93818,4.03273 0,2.22 1.81093,4.03091 4.03274,4.03091 2.22,0 3.86908,-1.81091 3.86908,-4.13272 m 88.347273,9.04181 c 3.45457,12.86909 15.73999,22.17455 29.33821,22.17455 16.81815,0 30.53451,-13.71818 30.53451,-30.53637 0,-16.818181 -13.71636,-30.536361 -30.53451,-30.536361 -5.36913,0 -11.58004,1.26727 -16.11091,3.92 l 16.57451,22.005451 c 2.02731,0.0308 3.79091,1.84364 3.79091,4.03273 0,2.22 -1.81088,4.03091 -4.03269,4.03091 -0.61275,0 -1.26003,-0.15635 -1.80367,-0.41275 z M 108.95556,78.074099 119.77375,48.232274 116.34463,42.385001 123.201,34.925 h 14.71816 l 0.20176,4.234544 h -12.90361 l -2.62181,2.82182 3.02362,5.443636 -3.80179,13.479997 h 52.81999 l 0.80725,-2.465453 c -4.24544,-0.552724 -11.56728,-3.167272 -13.31636,-4.687274 -1.74909,-1.519997 -0.21825,-2.91636 1.77453,-2.981814 10.42551,-0.441833 25.91277,-1.316364 28.85459,-1.32909 2.94364,-0.01264 3.24364,1.46727 1.27454,3.621815 -1.96909,2.154545 -3.69091,4.092726 -11.15271,5.249091 l -2.01637,5.443635 12.49998,15.483642 c 5.8909,-3.57455 13.01637,-5.436362 19.94002,-5.436362 20.7691,0 37.71089,16.939992 37.71089,37.710903 0,20.77091 -16.94179,37.71091 -37.71089,37.71091 -17.08731,0 -32.11273,-11.78545 -36.52909,-28.07091 l -11.48548,2.06364 c -0.49092,1.35455 -1.6382,2.39091 -3.00729,3.20364 l 2.04913,9.71636 h 2.62181 l 0.20176,2.62 -8.2673,0.40363 v -2.82182 h 2.01638 l -2.49636,-9.71091 c -3.71636,-0.60728 -5.66363,-3.78909 -4.55638,-6.94546 l -37.51815,-42.432721 -1.68003,4.55272 c 9.10544,7.17273 14.55637,18.221821 14.55637,29.710911 0,20.77091 -16.93998,37.71091 -37.710893,37.71091 -20.7709,0 -37.71094,-16.94 -37.71094,-37.71091 0,-20.770911 16.94004,-37.710903 37.71094,-37.710903 6.03999,0 12.227263,1.472722 17.458183,4.270912"
       style="fill:#000000;fill-opacity:1;fill-rule:evenodd;stroke:none;stroke-width:1.45454"
       id="path3877"
       inkscape:connector-curvature="0" />
    <g
       aria-label="LEFT TURN"
       id="text7207"
       style="font-size:66.3433px;line-height:1.25;font-family:'Roadgeek 2005 Series C';-inkscape-font-specification:'Roadgeek 2005 Series C';text-align:center;letter-spacing:-1.32292px;text-anchor:middle;stroke-width:1.65859">
      <path
         d="M 36.280327,212.72501 V 168.275 h 6.368956 v 38.54545 h 16.254109 v 5.90456 z"
         id="path41698" />
      <path
         d="M 63.853023,212.72501 V 168.275 h 20.89814 v 6.23627 H 70.22198 v 11.21201 h 9.221719 v 6.10359 H 70.22198 v 14.66187 h 16.254109 v 6.23627 z"
         id="path41700" />
      <path
         d="m 98.960868,174.51127 v 11.21201 h 8.890002 v 6.10359 h -8.890002 v 20.89814 H 92.591911 V 168.275 h 22.623069 v 6.23627 z"
         id="path41702" />
      <path
         d="m 131.24394,174.17955 v 38.54546 h -6.4353 v -38.54546 h -8.09389 V 168.275 h 22.62307 v 5.90455 z"
         id="path41704" />
      <path
         d="m 166.30493,174.17955 v 38.54546 h -6.4353 v -38.54546 h -8.09388 V 168.275 h 22.62306 v 5.90455 z"
         id="path41706" />
      <path
         d="m 204.11524,199.45635 q 0,1.32686 -0.13269,2.38835 -0.0663,1.0615 -0.26537,1.9903 -0.19903,0.86247 -0.53075,1.72493 -0.33171,0.86246 -0.79612,1.72493 -1.65858,2.72007 -4.57768,4.51134 -2.85277,1.72493 -6.03724,1.72493 -3.31717,0 -6.30262,-1.72493 -2.9191,-1.72493 -4.57769,-4.51134 -0.4644,-0.86247 -0.79612,-1.72493 -0.33171,-0.86246 -0.53074,-1.72493 -0.19903,-0.9288 -0.33172,-1.9903 -0.0663,-1.06149 -0.0663,-2.38835 V 168.275 h 6.36896 v 31.97747 q 0,3.18447 1.72492,5.10843 1.72493,1.92396 4.51135,1.92396 2.58738,0 4.24597,-1.92396 1.72492,-1.92396 1.72492,-5.10843 V 168.275 h 6.36896 v 31.18135 z"
         id="path41708" />
      <path
         d="m 230.82132,212.72501 -5.90456,-20.89814 h -6.10358 v 20.89814 h -6.36896 V 168.275 h 13.26866 q 2.58739,0 4.71038,0.86246 2.18932,0.86246 3.71522,2.38836 1.59224,1.52589 2.38836,3.78156 0.86246,2.18933 0.86246,4.84307 0,3.98059 -1.59224,6.76701 -1.59224,2.78642 -4.77671,3.9806 l 6.36895,21.82695 z m 0.33171,-32.57456 q 0,-2.58739 -1.59224,-4.11329 -1.59224,-1.52589 -4.17963,-1.52589 h -6.56798 v 11.21201 h 6.56798 q 2.78642,0 4.24598,-1.39321 1.52589,-1.45955 1.52589,-4.17962 z"
         id="path41710" />
      <path
         d="m 263.61751,212.72501 -13.73306,-29.78815 v 29.78815 H 243.5155 V 168.275 h 6.36895 l 12.20717,26.67 v -26.67 h 6.36896 v 44.45001 z"
         id="path41712" />
    </g>
    <g
       aria-label="MUST USE"
       id="text7335"
       style="font-size:66.3433px;line-height:1.25;font-family:'Roadgeek 2005 Series C';-inkscape-font-specification:'Roadgeek 2005 Series C';text-align:center;text-anchor:middle;stroke-width:1.65859">
      <path
         d="m 62.040421,282.57501 v -24.94508 l -8.226569,24.94508 -8.292913,-24.94508 v 24.94508 H 39.151983 V 238.125 h 6.368956 l 8.292913,24.94508 8.226569,-24.94508 h 6.4353 v 44.45001 z"
         id="path41715" />
      <path
         d="m 103.09967,269.30635 q 0,1.32687 -0.13269,2.38836 -0.0663,1.06149 -0.26537,1.9903 -0.19903,0.86246 -0.53075,1.72493 -0.33171,0.86246 -0.79612,1.72492 -1.65858,2.72008 -4.577685,4.51135 -2.852762,1.72492 -6.03724,1.72492 -3.317165,0 -6.302614,-1.72492 -2.919105,-1.72493 -4.577687,-4.51135 -0.464403,-0.86246 -0.79612,-1.72492 -0.331716,-0.86247 -0.530746,-1.72493 -0.19903,-0.92881 -0.331717,-1.9903 -0.06634,-1.06149 -0.06634,-2.38836 V 238.125 h 6.368957 v 31.97747 q 0,3.18448 1.724926,5.10844 1.724925,1.92395 4.511344,1.92395 2.587389,0 4.245971,-1.92395 1.724926,-1.92396 1.724926,-5.10844 V 238.125 h 6.368958 v 31.18135 z"
         id="path41717" />
      <path
         d="m 135.37464,270.43419 q 0,2.72007 -0.99515,5.10843 -0.9288,2.32202 -2.65373,4.04694 -1.65858,1.72493 -3.91425,2.78642 -2.18933,0.99515 -4.77672,0.99515 -2.91911,0 -5.24112,-1.12783 -2.32202,-1.12784 -3.91426,-3.0518 -1.59224,-1.92395 -2.4547,-4.445 -0.86246,-2.52104 -0.86246,-5.24112 h 6.23627 q 0,1.39321 0.33171,2.78642 0.39806,1.32687 1.12784,2.4547 0.79612,1.0615 1.92396,1.72493 1.19418,0.66343 2.85276,0.66343 1.26052,0 2.38836,-0.53074 1.19418,-0.53075 1.9903,-1.45956 0.86246,-0.9288 1.32686,-2.12298 0.53075,-1.26053 0.53075,-2.58739 0,-1.92396 -0.79612,-3.38351 -0.79612,-1.5259 -2.78642,-3.05179 -0.33172,-0.33172 -0.26537,-0.33172 0.0663,-0.0663 -0.39806,-0.39806 -0.46441,-0.33171 -1.9903,-1.26052 -1.45955,-0.99515 -4.84306,-3.31717 -2.72008,-1.85761 -4.11329,-4.31231 -1.32686,-2.52105 -1.32686,-5.50649 0,-2.38836 0.86246,-4.44501 0.86246,-2.12298 2.38836,-3.71522 1.59224,-1.59224 3.64888,-2.4547 2.05664,-0.92881 4.445,-0.92881 2.38836,0 4.37866,0.86246 2.05664,0.86247 3.51619,2.38836 1.5259,1.5259 2.38836,3.64888 0.92881,2.12299 0.99515,4.64404 h -6.10358 q -0.13269,-2.32202 -1.59224,-3.71523 -1.45955,-1.39321 -3.58254,-1.39321 -2.18933,0 -3.71522,1.45955 -1.5259,1.45956 -1.5259,3.64889 0,1.65858 0.86246,2.78641 0.86247,1.12784 3.31717,2.52105 6.4353,3.71522 9.3544,7.56314 2.98545,3.84791 2.98545,8.69097 z"
         id="path41719" />
      <path
         d="m 153.89272,244.02955 v 38.54546 h -6.4353 v -38.54546 h -8.09388 V 238.125 h 22.62306 v 5.90455 z"
         id="path41721" />
      <path
         d="m 205.4653,269.30635 q 0,1.32687 -0.13268,2.38836 -0.0663,1.06149 -0.26538,1.9903 -0.19903,0.86246 -0.53074,1.72493 -0.33172,0.86246 -0.79612,1.72492 -1.65858,2.72008 -4.57769,4.51135 -2.85276,1.72492 -6.03724,1.72492 -3.31717,0 -6.30261,-1.72492 -2.91911,-1.72493 -4.57769,-4.51135 -0.4644,-0.86246 -0.79612,-1.72492 -0.33172,-0.86247 -0.53075,-1.72493 -0.19903,-0.92881 -0.33171,-1.9903 -0.0663,-1.06149 -0.0663,-2.38836 V 238.125 h 6.36896 v 31.97747 q 0,3.18448 1.72493,5.10844 1.72492,1.92395 4.51134,1.92395 2.58739,0 4.24597,-1.92395 1.72493,-1.92396 1.72493,-5.10844 V 238.125 h 6.36895 v 31.18135 z"
         id="path41723" />
      <path
         d="m 237.74029,270.43419 q 0,2.72007 -0.99515,5.10843 -0.92881,2.32202 -2.65373,4.04694 -1.65859,1.72493 -3.91426,2.78642 -2.18933,0.99515 -4.77672,0.99515 -2.9191,0 -5.24112,-1.12783 -2.32201,-1.12784 -3.91425,-3.0518 -1.59224,-1.92395 -2.4547,-4.445 -0.86247,-2.52104 -0.86247,-5.24112 h 6.23627 q 0,1.39321 0.33172,2.78642 0.39806,1.32687 1.12784,2.4547 0.79612,1.0615 1.92395,1.72493 1.19418,0.66343 2.85276,0.66343 1.26053,0 2.38836,-0.53074 1.19418,-0.53075 1.9903,-1.45956 0.86247,-0.9288 1.32687,-2.12298 0.53074,-1.26053 0.53074,-2.58739 0,-1.92396 -0.79611,-3.38351 -0.79612,-1.5259 -2.78642,-3.05179 -0.33172,-0.33172 -0.26538,-0.33172 0.0663,-0.0663 -0.39806,-0.39806 -0.4644,-0.33171 -1.9903,-1.26052 -1.45955,-0.99515 -4.84306,-3.31717 -2.72007,-1.85761 -4.11328,-4.31231 -1.32687,-2.52105 -1.32687,-5.50649 0,-2.38836 0.86247,-4.44501 0.86246,-2.12298 2.38835,-3.71522 1.59224,-1.59224 3.64889,-2.4547 2.05664,-0.92881 4.445,-0.92881 2.38836,0 4.37866,0.86246 2.05664,0.86247 3.51619,2.38836 1.5259,1.5259 2.38836,3.64888 0.9288,2.12299 0.99515,4.64404 h -6.10359 q -0.13268,-2.32202 -1.59223,-3.71523 -1.45956,-1.39321 -3.58254,-1.39321 -2.18933,0 -3.71523,1.45955 -1.52589,1.45956 -1.52589,3.64889 0,1.65858 0.86246,2.78641 0.86246,1.12784 3.31716,2.52105 6.4353,3.71522 9.35441,7.56314 2.98545,3.84791 2.98545,8.69097 z"
         id="path41725" />
      <path
         d="M 245.17902,282.57501 V 238.125 h 20.89814 v 6.23627 h -14.52918 v 11.21202 h 9.22172 v 6.10358 h -9.22172 v 14.66187 h 16.25411 v 6.23627 z"
         id="path41727" />
    </g>
    <g
       aria-label="TURN BOX"
       id="text7339"
       style="font-size:66.3433px;line-height:1.25;font-family:'Roadgeek 2005 Series C';-inkscape-font-specification:'Roadgeek 2005 Series C';text-align:center;text-anchor:middle;stroke-width:1.65859">
      <path
         d="m 50.943986,313.87956 v 38.54546 h -6.4353 v -38.54546 h -8.093883 v -5.90455 h 22.623065 v 5.90455 z"
         id="path41730" />
      <path
         d="m 90.077203,339.15636 q 0,1.32686 -0.132687,2.38836 -0.06634,1.06149 -0.265373,1.9903 -0.19903,0.86246 -0.530746,1.72492 -0.331717,0.86246 -0.79612,1.72493 -1.658582,2.72007 -4.577688,4.51134 -2.852761,1.72493 -6.03724,1.72493 -3.317165,0 -6.302613,-1.72493 -2.919106,-1.72492 -4.577688,-4.51134 -0.464403,-0.86247 -0.79612,-1.72493 -0.331716,-0.86246 -0.530746,-1.72492 -0.19903,-0.92881 -0.331716,-1.9903 -0.06634,-1.0615 -0.06634,-2.38836 v -31.18135 h 6.368957 v 31.97747 q 0,3.18448 1.724926,5.10843 1.724926,1.92396 4.511344,1.92396 2.587389,0 4.245971,-1.92396 1.724926,-1.92395 1.724926,-5.10843 v -31.97747 h 6.368957 v 31.18135 z"
         id="path41732" />
      <path
         d="m 118.10621,352.42502 -5.90455,-20.89814 h -6.10359 v 20.89814 h -6.368955 v -44.45001 h 13.268655 q 2.58739,0 4.71038,0.86246 2.18933,0.86246 3.71522,2.38836 1.59224,1.52589 2.38836,3.78157 0.86247,2.18933 0.86247,4.84306 0,3.9806 -1.59224,6.76701 -1.59224,2.78642 -4.77672,3.9806 l 6.36896,21.82695 z m 0.33172,-32.57456 q 0,-2.58739 -1.59224,-4.11329 -1.59224,-1.52589 -4.17963,-1.52589 h -6.56799 v 11.21202 h 6.56799 q 2.78642,0 4.24597,-1.39321 1.5259,-1.45956 1.5259,-4.17963 z"
         id="path41734" />
      <path
         d="m 152.22533,352.42502 -13.73307,-29.78814 v 29.78814 h -6.36895 v -44.45001 h 6.36895 l 12.20717,26.67 v -26.67 h 6.36896 v 44.45001 z"
         id="path41736" />
      <path
         d="m 204.10475,340.28419 q 0,2.52105 -0.92881,4.77672 -0.9288,2.18933 -2.58739,3.84791 -1.59224,1.59224 -3.78156,2.58739 -2.12299,0.92881 -4.57769,0.92881 h -13.06963 v -44.45001 h 13.99843 q 2.25568,0 4.11329,0.86246 1.85761,0.79612 3.18448,2.32202 1.32686,1.52589 2.05664,3.64888 0.79612,2.12298 0.79612,4.71037 0,1.5259 -0.26537,2.72008 -0.19903,1.12783 -0.72978,2.25567 -0.53075,1.06149 -1.45955,2.18933 -0.86247,1.12783 -2.18933,2.52104 2.52104,2.12299 3.9806,4.90941 1.45955,2.72007 1.45955,6.16992 z m -7.03239,-20.76545 q 0,-2.78642 -1.12784,-4.04694 -1.12783,-1.26052 -3.71522,-1.26052 h -6.70068 v 11.87545 h 6.70068 q 2.25567,0 3.51619,-1.72493 1.32687,-1.79127 1.32687,-4.84306 z m 0.79612,20.30105 q 0,-1.59224 -0.4644,-2.9191 -0.46441,-1.39321 -1.26053,-2.38836 -0.79612,-1.0615 -1.92395,-1.59224 -1.0615,-0.59709 -2.25567,-0.59709 h -6.43531 v 13.86575 h 6.43531 q 2.72007,0 4.31231,-1.72493 1.59224,-1.72492 1.59224,-4.64403 z"
         id="path41738" />
      <path
         d="m 236.83065,330.13367 q 0,5.10843 -0.59709,8.69097 -0.53075,3.58254 -1.92396,6.76702 -1.65858,3.9806 -4.17963,5.83821 -2.4547,1.79127 -6.23627,1.79127 -3.9806,0 -6.50164,-1.79127 -2.4547,-1.85761 -4.11329,-5.83821 -1.39321,-3.25082 -1.99029,-6.76702 -0.53075,-3.58254 -0.53075,-8.69097 0,-5.04209 0.53075,-8.62463 0.59708,-3.64888 1.99029,-6.83336 1.72493,-3.9806 4.17963,-5.70552 2.52105,-1.79127 6.4353,-1.79127 3.84791,0 6.30262,1.79127 2.4547,1.72492 4.11328,5.83821 0.66343,1.65858 1.12784,3.31716 0.53074,1.65858 0.79612,3.5162 0.33171,1.79127 0.4644,3.91425 0.13269,2.05664 0.13269,4.57769 z m -6.10359,0 q 0,-1.85761 -0.13268,-3.38351 -0.0663,-1.52589 -0.26538,-2.78642 -0.13268,-1.32686 -0.39806,-2.52104 -0.26537,-1.19418 -0.59709,-2.38836 -0.86246,-2.98545 -2.18933,-4.31232 -1.26052,-1.32686 -3.25082,-1.32686 -4.11328,0 -5.63918,5.50649 -0.79612,2.52105 -1.12783,5.10844 -0.26538,2.52104 -0.26538,6.23627 0,1.79127 0.0663,3.31716 0.13268,1.45955 0.26537,2.78642 0.19903,1.26052 0.4644,2.52105 0.26538,1.26052 0.59709,2.58738 1.5259,5.5065 5.63918,5.5065 1.9903,0 3.25082,-1.32687 1.32687,-1.32686 2.18933,-4.17963 0.39806,-1.32686 0.66344,-2.52104 0.26537,-1.26052 0.39806,-2.58739 0.19903,-1.32687 0.26537,-2.78642 0.0663,-1.52589 0.0663,-3.44985 z"
         id="path41740" />
      <path
         d="m 261.48548,352.42502 -6.23627,-15.12627 -6.23627,15.12627 h -6.70068 l 9.68613,-23.08747 -9.02269,-21.36254 h 6.70067 l 5.57284,13.40134 5.63918,-13.40134 h 6.70067 l -8.89,21.36254 9.68612,23.08747 z"
         id="path41742" />
    </g>
    <g
       id="g9182"
       style="fill:#000000"
       transform="matrix(-0.06813367,0.06813367,-0.06813367,-0.06813367,169.83167,423.09429)">
      <path
         id="rect8051"
         style="fill:#000000;stroke-width:5.952;stroke-linecap:square;stroke-miterlimit:10"
         d="m 94.886719,126.86719 a 156.00001,156.00001 0 0 0 -156,156 156.00001,156.00001 0 0 0 7.548828,47.75 l -0.05078,0.0371 268.462893,834.26171 -268.462893,834.2617 0.05078,0.037 a 156.00001,156.00001 0 0 0 -7.548828,47.75 156.00001,156.00001 0 0 0 156,156 156.00001,156.00001 0 0 0 88.294921,-27.416 l 0.0156,0.012 L 1654.8867,1164.916 183.19727,154.27148 l -0.01,0.008 A 156.00001,156.00001 0 0 0 94.886719,126.86719 Z"
         transform="scale(0.26458333)" />
      <rect
         style="fill:#000000;stroke-width:2.46507;stroke-linecap:square;stroke-miterlimit:10"
         id="rect8443"
         width="497.88623"
         height="203.2"
         x="-440.99973"
         y="206.61729" />
    </g>
  </g>
</svg>
