<?xml version="1.0" encoding="UTF-8" standalone="no"?>
<!-- Created with Inkscape (http://www.inkscape.org/) -->

<svg
   width="20.750387mm"
   height="28.979988mm"
   viewBox="0 0 20.750387 28.979988"
   version="1.1"
   id="svg1"
   inkscape:version="1.3 (0e150ed, 2023-07-21)"
   sodipodi:docname="MUTCD_R3-11f.svg"
   xmlns:inkscape="http://www.inkscape.org/namespaces/inkscape"
   xmlns:sodipodi="http://sodipodi.sourceforge.net/DTD/sodipodi-0.dtd"
   xmlns="http://www.w3.org/2000/svg"
   xmlns:svg="http://www.w3.org/2000/svg">
  <sodipodi:namedview
     id="namedview1"
     pagecolor="#ffffff"
     bordercolor="#666666"
     borderopacity="1.0"
     inkscape:showpageshadow="2"
     inkscape:pageopacity="0.0"
     inkscape:pagecheckerboard="0"
     inkscape:deskcolor="#d1d1d1"
     inkscape:document-units="mm"
     inkscape:zoom="1"
     inkscape:cx="38"
     inkscape:cy="57"
     inkscape:window-width="1440"
     inkscape:window-height="431"
     inkscape:window-x="0"
     inkscape:window-y="23"
     inkscape:window-maximized="0"
     inkscape:current-layer="layer1" />
  <defs
     id="defs1">
    <clipPath
       clipPathUnits="userSpaceOnUse"
       id="clipPath480">
      <path
         d="M 31.801,205.58 H 535.198 V 746 H 31.801 Z"
         transform="translate(-391.35781,-509.96842)"
         id="path480" />
    </clipPath>
  </defs>
  <g
     inkscape:label="Layer 1"
     inkscape:groupmode="layer"
     id="layer1"
     transform="translate(-94.191667,-133.87917)">
    <g
       id="g478"
       transform="matrix(0.26458333,0,0,0.26458333,-42.496703,63.320578)">
      <path
         id="path479"
         d="m 0,0 c -2.078,0 -3.77,1.691 -3.77,3.77 v 74.358 c 0,2.079 1.692,3.77 3.77,3.77 h 51.03 c 2.078,0 3.77,-1.691 3.77,-3.77 L 54.8,3.77 C 54.8,1.691 53.108,0 51.03,0 Z"
         style="fill:#ffffff;fill-opacity:1;fill-rule:nonzero;stroke:none"
         transform="matrix(1.3333333,0,0,-1.3333333,521.8104,376.04213)"
         clip-path="url(#clipPath480)" />
    </g>
    <g
       id="g480"
       transform="matrix(0.26458333,0,0,0.26458333,-42.496703,63.320578)">
      <path
         id="path481"
         d="m 0,0 h -51.03 c -2.148,0 -3.895,-1.747 -3.895,-3.895 v -74.358 c 0,-2.148 1.747,-3.895 3.895,-3.895 H 0 c 2.148,0 3.895,1.747 3.895,3.895 V -3.895 C 3.895,-1.747 2.148,0 0,0 m 0,-0.25 c 2.005,0 3.645,-1.64 3.645,-3.645 v -74.358 c 0,-2.005 -1.64,-3.645 -3.645,-3.645 h -51.03 c -2.005,0 -3.645,1.64 -3.645,3.645 v 74.358 c 0,2.005 1.64,3.645 3.645,3.645 z"
         style="fill:#000000;fill-opacity:1;fill-rule:nonzero;stroke:none"
         transform="matrix(1.3333333,0,0,-1.3333333,589.8508,266.67813)" />
    </g>
    <g
       id="g481"
       transform="matrix(0.26458333,0,0,0.26458333,-42.496703,63.320578)">
      <path
         id="path482"
         d="m 0,0 c -0.71,0 -1.38,0.279 -1.887,0.786 -0.507,0.507 -0.786,1.177 -0.786,1.887 v 74.358 c 0,0.71 0.279,1.38 0.786,1.887 0.507,0.507 1.177,0.786 1.887,0.786 h 51.03 c 0.71,0 1.38,-0.279 1.887,-0.786 0.507,-0.507 0.786,-1.177 0.786,-1.887 V 2.673 c 0,-0.71 -0.279,-1.38 -0.786,-1.887 C 52.41,0.279 51.74,0 51.03,0 Z"
         style="fill:#000000;fill-opacity:1;fill-rule:nonzero;stroke:none"
         transform="matrix(1.3333333,0,0,-1.3333333,521.8108,374.57973)" />
    </g>
    <g
       id="g482"
       transform="matrix(0.26458333,0,0,0.26458333,-42.496703,63.320578)">
      <path
         id="path483"
         d="m 0,0 v -58.563 c 0,-0.325 0.124,-0.621 0.359,-0.856 0.235,-0.235 0.531,-0.359 0.856,-0.359 h 51.03 c 0.325,0 0.621,0.124 0.856,0.359 0.235,0.235 0.359,0.531 0.359,0.856 L 53.46,0 Z"
         style="fill:#ffffff;fill-opacity:1;fill-rule:nonzero;stroke:none"
         transform="matrix(1.3333333,0,0,-1.3333333,520.1908,292.93147)" />
    </g>
    <g
       id="g483"
       transform="matrix(0.26458333,0,0,0.26458333,-42.496703,63.320578)">
      <path
         id="path484"
         d="m 416.265,530.855 h 1.702 v -0.768 h -1.702 z"
         style="fill:#000000;fill-opacity:1;fill-rule:nonzero;stroke:none"
         transform="matrix(1.3333333,0,0,-1.3333333,0,1056)" />
    </g>
    <g
       id="g484"
       transform="matrix(0.26458333,0,0,0.26458333,-42.496703,63.320578)">
      <path
         id="path485"
         d="m 0,0 c 0,-0.39 0.392,-0.716 0.87,-0.716 0.477,0 0.887,0.324 0.887,0.716 0,0.385 -0.393,0.699 -0.887,0.699 C 0.392,0.699 0,0.375 0,0 m -0.784,0.052 c 0,1.346 0.75,2.727 1.876,3.477 L 1.484,2.881 C 0.888,2.42 0.58,2.028 0.29,1.414 0.563,1.465 0.683,1.465 0.871,1.465 1.775,1.465 2.524,0.8 2.524,-0.019 2.524,-0.857 1.818,-1.5 0.87,-1.5 c -0.938,0 -1.654,0.682 -1.654,1.552"
         style="fill:#000000;fill-opacity:1;fill-rule:nonzero;stroke:none"
         transform="matrix(1.3333333,0,0,-1.3333333,524.03373,350.01227)" />
      <path
         id="path486"
         d="M 0,0 C 0,0.222 0.207,0.426 0.447,0.426 0.669,0.426 0.875,0.222 0.875,0 0.874,-0.239 0.686,-0.443 0.447,-0.443 0.207,-0.443 0,-0.239 0,0 M 0,1.944 C 0,2.183 0.205,2.37 0.447,2.37 0.669,2.37 0.875,2.183 0.875,1.944 0.875,1.705 0.686,1.5 0.447,1.5 0.207,1.5 0,1.705 0,1.944"
         style="fill:#000000;fill-opacity:1;fill-rule:nonzero;stroke:none"
         transform="matrix(1.3333333,0,0,-1.3333333,528.3068,349.95547)" />
      <path
         id="path487"
         d="m 0,0 v 0.767 h 0.189 c 0.309,0 0.48,0.171 0.48,0.478 0,0.378 -0.307,0.648 -0.703,0.648 -0.326,0 -0.566,-0.154 -0.737,-0.478 l -0.72,0.273 c 0.257,0.614 0.806,0.989 1.44,0.989 0.823,0 1.491,-0.663 1.491,-1.484 0,-0.29 -0.068,-0.494 -0.274,-0.801 0.359,-0.324 0.463,-0.579 0.463,-1.058 0,-0.989 -0.681,-1.687 -1.68,-1.687 -0.789,0 -1.423,0.512 -1.629,1.296 l 0.755,0.222 c 0.12,-0.478 0.445,-0.734 0.908,-0.734 0.514,0 0.874,0.361 0.874,0.853 C 0.857,-0.516 0.775,0 0.216,0 Z"
         style="fill:#000000;fill-opacity:1;fill-rule:nonzero;stroke:none"
         transform="matrix(1.3333333,0,0,-1.3333333,532.62013,348.8756)" />
    </g>
    <g
       id="g487"
       transform="matrix(0.26458333,0,0,0.26458333,-42.496703,63.320578)">
      <path
         id="path488"
         d="m 0,0 h 0.977 l -0.48,1.364 z m 1.251,-0.784 h -1.526 l -0.48,-1.365 h -0.823 l 1.681,4.86 h 0.772 l 1.68,-4.86 H 1.732 Z"
         style="fill:#000000;fill-opacity:1;fill-rule:nonzero;stroke:none"
         transform="matrix(1.3333333,0,0,-1.3333333,543.63907,349.0344)" />
      <path
         id="path489"
         d="M 0,0 -1.127,-2.814 -2.255,0 v -2.814 h -0.769 v 4.86 h 0.769 L -1.127,-0.682 0,2.046 h 0.769 v -4.86 H 0 Z"
         style="fill:#000000;fill-opacity:1;fill-rule:nonzero;stroke:none"
         transform="matrix(1.3333333,0,0,-1.3333333,552.05053,348.1476)" />
    </g>
    <g
       id="g489"
       transform="matrix(0.26458333,0,0,0.26458333,-42.496703,63.320578)">
      <path
         id="path490"
         d="M 0,0 C 0.524,0 0.949,0.496 0.949,1.731 0.949,2.966 0.524,3.463 0,3.463 -0.524,3.463 -0.949,2.967 -0.949,1.731 -0.949,0.496 -0.524,0 0,0 m 1.718,1.731 c 0,-0.174 0.037,-2.515 -1.726,-2.515 -1.764,0 -1.727,2.341 -1.727,2.515 0,0.175 -0.037,2.515 1.727,2.515 1.763,0 1.726,-2.34 1.726,-2.515"
         style="fill:#000000;fill-opacity:1;fill-rule:nonzero;stroke:none"
         transform="matrix(1.3333333,0,0,-1.3333333,538.40133,350.968)" />
    </g>
    <g
       id="g490"
       transform="matrix(0.26458333,0,0,0.26458333,-42.496703,63.320578)">
      <path
         id="path491"
         d="m 0,0 c 0,-0.409 0.386,-0.699 0.87,-0.699 0.494,0 0.887,0.307 0.887,0.699 0,0.388 -0.4,0.699 -0.887,0.699 C 0.392,0.699 0,0.392 0,0 m 0.273,-2.899 c 0.58,0.46 0.887,0.852 1.177,1.484 -0.273,-0.051 -0.392,-0.068 -0.58,-0.068 -0.906,0 -1.654,0.665 -1.654,1.484 0,0.843 0.734,1.483 1.654,1.483 0.929,0 1.654,-0.666 1.654,-1.552 0,-1.327 -0.75,-2.711 -1.876,-3.479 z"
         style="fill:#000000;fill-opacity:1;fill-rule:nonzero;stroke:none"
         transform="matrix(1.3333333,0,0,-1.3333333,559.63133,347.284)" />
      <path
         id="path492"
         d="M 0,0 C 0,0.222 0.207,0.426 0.447,0.426 0.669,0.426 0.875,0.222 0.875,0 0.874,-0.239 0.686,-0.443 0.447,-0.443 0.207,-0.443 0,-0.239 0,0 M 0,1.944 C 0,2.183 0.205,2.37 0.447,2.37 0.669,2.37 0.875,2.183 0.875,1.944 0.875,1.705 0.686,1.5 0.447,1.5 0.207,1.5 0,1.705 0,1.944"
         style="fill:#000000;fill-opacity:1;fill-rule:nonzero;stroke:none"
         transform="matrix(1.3333333,0,0,-1.3333333,563.90427,349.95547)" />
      <path
         id="path493"
         d="m 0,0 v 0.767 h 0.189 c 0.309,0 0.48,0.171 0.48,0.478 0,0.378 -0.307,0.648 -0.703,0.648 -0.326,0 -0.566,-0.154 -0.737,-0.478 l -0.72,0.273 c 0.257,0.614 0.806,0.989 1.44,0.989 0.823,0 1.491,-0.663 1.491,-1.484 0,-0.29 -0.068,-0.494 -0.274,-0.801 0.359,-0.324 0.463,-0.579 0.463,-1.058 0,-0.989 -0.681,-1.687 -1.68,-1.687 -0.789,0 -1.423,0.512 -1.629,1.296 l 0.755,0.222 c 0.12,-0.478 0.445,-0.734 0.908,-0.734 0.514,0 0.874,0.361 0.874,0.853 C 0.857,-0.516 0.775,0 0.216,0 Z"
         style="fill:#000000;fill-opacity:1;fill-rule:nonzero;stroke:none"
         transform="matrix(1.3333333,0,0,-1.3333333,568.2176,348.8756)" />
    </g>
    <g
       id="g493"
       transform="matrix(0.26458333,0,0,0.26458333,-42.496703,63.320578)">
      <path
         id="path494"
         d="m 0,0 h 0.977 l -0.48,1.364 z m 1.251,-0.784 h -1.526 l -0.48,-1.365 h -0.823 l 1.681,4.86 h 0.772 l 1.68,-4.86 H 1.732 Z"
         style="fill:#000000;fill-opacity:1;fill-rule:nonzero;stroke:none"
         transform="matrix(1.3333333,0,0,-1.3333333,579.23667,349.0344)" />
      <path
         id="path495"
         d="M 0,0 -1.127,-2.814 -2.255,0 v -2.814 h -0.769 v 4.86 h 0.769 L -1.127,-0.682 0,2.046 h 0.769 v -4.86 H 0 Z"
         style="fill:#000000;fill-opacity:1;fill-rule:nonzero;stroke:none"
         transform="matrix(1.3333333,0,0,-1.3333333,587.648,348.1476)" />
    </g>
    <g
       id="g495"
       transform="matrix(0.26458333,0,0,0.26458333,-42.496703,63.320578)">
      <path
         id="path496"
         d="M 0,0 C 0.524,0 0.949,0.496 0.949,1.731 0.949,2.966 0.524,3.463 0,3.463 -0.524,3.463 -0.949,2.967 -0.949,1.731 -0.949,0.496 -0.524,0 0,0 m 1.718,1.731 c 0,-0.174 0.037,-2.515 -1.726,-2.515 -1.764,0 -1.727,2.341 -1.727,2.515 0,0.175 -0.037,2.515 1.727,2.515 1.763,0 1.726,-2.34 1.726,-2.515"
         style="fill:#000000;fill-opacity:1;fill-rule:nonzero;stroke:none"
         transform="matrix(1.3333333,0,0,-1.3333333,573.99893,350.968)" />
    </g>
    <g
       id="g496"
       transform="matrix(0.26458333,0,0,0.26458333,-42.496703,63.320578)">
      <path
         id="path497"
         d="m 418.041,522.593 h 1.702 v -0.768 h -1.702 z"
         style="fill:#000000;fill-opacity:1;fill-rule:nonzero;stroke:none"
         transform="matrix(1.3333333,0,0,-1.3333333,0,1056)" />
      <path
         id="path498"
         d="M 0,0 H 1.414 V -0.784 H 0 v -2.115 h -0.767 v 4.86 H 2.248 V 1.194 H 0 Z"
         style="fill:#000000;fill-opacity:1;fill-rule:nonzero;stroke:none"
         transform="matrix(1.3333333,0,0,-1.3333333,562.62347,359.05027)" />
      <path
         id="path499"
         d="m 0,0 c 0.61,0 0.706,0.44 0.706,0.597 0,0.212 -0.159,0.597 -0.669,0.597 H -0.965 V 0 Z m -0.965,-0.784 v -2.115 h -0.767 v 4.86 h 1.758 c 1.114,0 1.448,-0.891 1.448,-1.365 0,-0.18 -0.066,-0.891 -0.754,-1.217 L 1.576,-2.899 H 0.741 l -0.785,2.115 z"
         style="fill:#000000;fill-opacity:1;fill-rule:nonzero;stroke:none"
         transform="matrix(1.3333333,0,0,-1.3333333,568.902,359.05027)" />
      <path
         id="path500"
         d="m 429.079,524.673 h 0.778 v -4.86 h -0.778 z"
         style="fill:#000000;fill-opacity:1;fill-rule:nonzero;stroke:none"
         transform="matrix(1.3333333,0,0,-1.3333333,0,1056)" />
    </g>
    <g
       id="g500"
       transform="matrix(0.26458333,0,0,0.26458333,-42.496703,63.320578)">
      <path
         id="path501"
         d="M 0,0 -1.127,-2.814 -2.255,0 v -2.814 h -0.769 v 4.86 h 0.769 L -1.127,-0.682 0,2.046 h 0.769 v -4.86 H 0 Z"
         style="fill:#000000;fill-opacity:1;fill-rule:nonzero;stroke:none"
         transform="matrix(1.3333333,0,0,-1.3333333,542.55107,359.16347)" />
    </g>
    <g
       id="g501"
       transform="matrix(0.26458333,0,0,0.26458333,-42.496703,63.320578)">
      <path
         id="path502"
         d="m 0,0 v -3.291 h -0.767 v 4.86 H 0 l 1.774,-3.104 v 3.104 h 0.768 v -4.86 H 1.86 Z"
         style="fill:#000000;fill-opacity:1;fill-rule:nonzero;stroke:none"
         transform="matrix(1.3333333,0,0,-1.3333333,552.05467,358.52773)" />
    </g>
    <g
       id="g502"
       transform="matrix(0.26458333,0,0,0.26458333,-42.496703,63.320578)">
      <path
         id="path503"
         d="M 0,0 C 0.524,0 0.949,0.496 0.949,1.731 0.949,2.966 0.524,3.463 0,3.463 -0.524,3.463 -0.949,2.967 -0.949,1.731 -0.949,0.496 -0.524,0 0,0 m 1.718,1.731 c 0,-0.174 0.037,-2.515 -1.726,-2.515 -1.764,0 -1.727,2.341 -1.727,2.515 0,0.175 -0.037,2.515 1.727,2.515 1.763,0 1.726,-2.34 1.726,-2.515"
         style="fill:#000000;fill-opacity:1;fill-rule:nonzero;stroke:none"
         transform="matrix(1.3333333,0,0,-1.3333333,547.31587,361.98387)" />
    </g>
    <g
       id="g503"
       transform="matrix(0.26458333,0,0,0.26458333,-42.496703,63.320578)">
      <path
         id="path504"
         d="m 0,0 c 0.603,0 1.095,0.546 1.095,1.174 -10e-4,1.656 -2.903,1.653 -2.903,3.767 0,1.118 0.877,2.017 1.999,2.017 1.097,0 1.946,-0.844 1.974,-2.018 H 1.094 c -0.027,0.545 -0.411,0.9 -0.903,0.9 -0.521,0 -0.932,-0.381 -0.932,-0.899 0,-0.466 0.293,-0.652 0.655,-0.879 1.052,-0.635 2.25,-1.401 2.25,-2.889 0,-1.259 -0.96,-2.265 -2.165,-2.265 -1.369,0 -2.191,1.159 -2.191,2.43 h 1.098 C -1.094,0.677 -0.767,0 0,0"
         style="fill:#ffffff;fill-opacity:1;fill-rule:nonzero;stroke:none"
         transform="matrix(1.3333333,0,0,-1.3333333,527.79427,284.53213)" />
      <path
         id="path505"
         d="m 0,0 h -2.125 v -3.52 h -1.116 v 7.776 h 1.116 V 1.092 h 2.124 V 4.256 H 1.116 V -3.52 H 0 Z"
         style="fill:#ffffff;fill-opacity:1;fill-rule:nonzero;stroke:none"
         transform="matrix(1.3333333,0,0,-1.3333333,537.11627,281.11067)" />
      <path
         id="path506"
         d="m 0,0 c -0.222,0 -1.224,0.046 -1.224,-2.922 0,-2.989 1.002,-2.943 1.224,-2.943 0.222,0 1.223,-0.046 1.223,2.943 C 1.223,0.046 0.222,0 0,0 m -2.295,-2.916 c 0,4.072 1.889,4.007 2.308,4.007 0.419,0 2.282,0.062 2.282,-4.01 0,-4.101 -1.863,-4.037 -2.282,-4.037 -0.419,0 -2.308,-0.064 -2.308,4.04"
         style="fill:#ffffff;fill-opacity:1;fill-rule:nonzero;stroke:none"
         transform="matrix(1.3333333,0,0,-1.3333333,544.1524,276.70947)" />
      <path
         id="path507"
         d="m 0,0 v 5.516 h 1.116 v -5.593 c 0,-0.732 0.427,-1.228 1.088,-1.228 0.599,0 1.036,0.49 1.036,1.228 V 5.516 H 4.356 V -0.017 C 4.356,-1.786 2.99,-2.396 2.204,-2.396 1.486,-2.396 0,-1.928 0,0"
         style="fill:#ffffff;fill-opacity:1;fill-rule:nonzero;stroke:none"
         transform="matrix(1.3333333,0,0,-1.3333333,549.7008,282.79027)" />
      <path
         id="path508"
         d="M 0,0 H 1.122 V -6.739 H 3.967 V -7.776 H 0 Z"
         style="fill:#ffffff;fill-opacity:1;fill-rule:nonzero;stroke:none"
         transform="matrix(1.3333333,0,0,-1.3333333,558.2468,275.4356)" />
      <path
         id="path509"
         d="m 0,0 h -0.872 v -5.593 h 0.776 c 0.91,0 1.375,0.398 1.375,2.756 C 1.279,-0.105 0.598,0 0,0 m -1.988,-6.684 v 7.776 h 2.219 c 0.475,0 2.138,-0.024 2.138,-3.875 0,-3.523 -1.536,-3.901 -2.045,-3.901 z"
         style="fill:#ffffff;fill-opacity:1;fill-rule:nonzero;stroke:none"
         transform="matrix(1.3333333,0,0,-1.3333333,567.92907,276.89093)" />
      <path
         id="path510"
         d="M 0,0 H 3.666 V -1.092 H 1.122 V -3.056 H 2.735 V -4.12 H 1.122 V -6.685 H 3.967 V -7.776 H 0 Z"
         style="fill:#ffffff;fill-opacity:1;fill-rule:nonzero;stroke:none"
         transform="matrix(1.3333333,0,0,-1.3333333,573.57587,275.4356)" />
      <path
         id="path511"
         d="m 0,0 v -1.964 h 1.143 c 0.655,0 1.008,0.354 1.008,0.982 C 2.151,-0.381 1.743,0 1.144,0 Z M 1.062,-3.029 H 0 v -3.655 h -1.116 v 7.776 h 2.314 c 1.22,0 2.042,-0.819 2.042,-2.074 0,-0.927 -0.381,-1.609 -1.116,-1.883 L 3.24,-6.684 H 2.097 Z"
         style="fill:#ffffff;fill-opacity:1;fill-rule:nonzero;stroke:none"
         transform="matrix(1.3333333,0,0,-1.3333333,582.46893,276.89093)" />
    </g>
    <g
       id="g511"
       transform="matrix(0.26458333,0,0,0.26458333,-42.496703,63.320578)">
      <path
         id="path512"
         d="m 0,0 v -2.395 h 2.087 c 0.711,0 1.075,0.338 1.075,1.014 C 3.162,-0.705 2.694,0 1.979,0 Z M 2.027,3.56 H 0 V 1.412 h 1.758 c 0.785,0 1.221,0.684 1.221,1.258 0,0.583 -0.322,0.89 -0.952,0.89 M -1.38,-3.806 v 8.748 h 3.315 c 1.381,0 2.425,-0.952 2.425,-2.21 0,-0.86 -0.398,-1.505 -1.227,-1.965 0.92,-0.43 1.442,-1.175 1.442,-2.117 0,-0.624 -0.351,-2.456 -2.64,-2.456 z"
         style="fill:#000000;fill-opacity:1;fill-rule:nonzero;stroke:none"
         transform="matrix(1.3333333,0,0,-1.3333333,534.61493,310.53627)" />
      <path
         id="path513"
         d="M 0,0 V 5.617 H 1.38 V 0 c 0,-1.136 0.645,-1.872 1.596,-1.872 0.952,0 1.597,0.736 1.597,1.872 V 5.617 H 5.955 V 0 C 5.955,-2.767 3.833,-3.284 2.978,-3.284 2.199,-3.284 0,-2.826 0,0"
         style="fill:#000000;fill-opacity:1;fill-rule:nonzero;stroke:none"
         transform="matrix(1.3333333,0,0,-1.3333333,542.6984,311.43733)" />
      <path
         id="path514"
         d="m 0,0 1.32,0.491 c 0.368,-0.829 1.043,-1.289 1.872,-1.289 0.798,0 1.351,0.552 1.351,1.289 0,1.17 -1.35,1.35 -2.486,1.811 -0.522,0.215 -1.689,0.737 -1.689,2.179 0,1.72 1.166,2.362 2.732,2.362 1.228,0 2.057,-0.706 2.487,-1.78 L 4.359,4.694 C 4.221,5.04 3.721,5.462 3.069,5.462 1.822,5.462 1.716,4.796 1.716,4.577 1.716,3.759 2.421,3.598 3.568,3.238 4.736,2.87 5.955,2.333 5.955,0.458 5.955,-1.43 4.424,-2.21 3.192,-2.21 1.687,-2.21 0.583,-1.32 0,0"
         style="fill:#000000;fill-opacity:1;fill-rule:nonzero;stroke:none"
         transform="matrix(1.3333333,0,0,-1.3333333,552.62173,312.8692)" />
      <path
         id="path515"
         d="M 0,0 H 5.15 V -1.381 H 1.38 V -3.53 H 3.924 V -4.942 H 1.38 V -7.336 H 5.426 V -8.748 H 0 Z"
         style="fill:#000000;fill-opacity:1;fill-rule:nonzero;stroke:none"
         transform="matrix(1.3333333,0,0,-1.3333333,562.5452,303.94773)" />
      <path
         id="path516"
         d="m 0,0 1.32,0.491 c 0.368,-0.829 1.043,-1.289 1.872,-1.289 0.798,0 1.351,0.552 1.351,1.289 0,1.17 -1.35,1.35 -2.486,1.811 -0.522,0.215 -1.689,0.737 -1.689,2.179 0,1.72 1.166,2.362 2.732,2.362 1.228,0 2.057,-0.706 2.487,-1.78 L 4.359,4.694 C 4.221,5.04 3.721,5.462 3.069,5.462 1.822,5.462 1.716,4.796 1.716,4.577 1.716,3.759 2.421,3.598 3.568,3.238 4.736,2.87 5.955,2.333 5.955,0.458 5.955,-1.43 4.424,-2.21 3.192,-2.21 1.687,-2.21 0.583,-1.32 0,0"
         style="fill:#000000;fill-opacity:1;fill-rule:nonzero;stroke:none"
         transform="matrix(1.3333333,0,0,-1.3333333,570.94653,312.8692)" />
      <path
         id="path517"
         d="M 0,0 C 0.943,0 1.708,0.893 1.708,3.116 1.708,5.339 0.943,6.233 0,6.233 -0.943,6.233 -1.708,5.341 -1.708,3.116 -1.708,0.893 -0.943,0 0,0 m 3.092,3.116 c 0,-0.313 0.067,-4.527 -3.107,-4.527 -3.175,0 -3.108,4.214 -3.108,4.527 0,0.314 -0.067,4.526 3.108,4.526 3.174,0 3.107,-4.212 3.107,-4.526"
         style="fill:#000000;fill-opacity:1;fill-rule:nonzero;stroke:none"
         transform="matrix(1.3333333,0,0,-1.3333333,540.21267,333.37467)" />
      <path
         id="path518"
         d="M 0,0 V -5.923 H -1.38 V 2.825 H 0 L 3.193,-2.762 V 2.825 H 4.575 V -5.923 H 3.347 Z"
         style="fill:#000000;fill-opacity:1;fill-rule:nonzero;stroke:none"
         transform="matrix(1.3333333,0,0,-1.3333333,548.74213,327.15347)" />
      <path
         id="path519"
         d="M 0,0 H 1.38 V -7.459 H 5.426 V -8.748 H 0 Z"
         style="fill:#000000;fill-opacity:1;fill-rule:nonzero;stroke:none"
         transform="matrix(1.3333333,0,0,-1.3333333,557.642,323.38747)" />
      <path
         id="path520"
         d="m 0,0 h -1.389 v 3.806 l -3.084,4.942 h 1.666 L -0.71,5.371 1.419,8.748 H 3.054 L 0,3.806 Z"
         style="fill:#000000;fill-opacity:1;fill-rule:nonzero;stroke:none"
         transform="matrix(1.3333333,0,0,-1.3333333,571.5408,335.05147)" />
    </g>
  </g>
</svg>
