<?xml version="1.0" encoding="UTF-8" standalone="no"?>
<svg
   xmlns:dc="http://purl.org/dc/elements/1.1/"
   xmlns:cc="http://creativecommons.org/ns#"
   xmlns:rdf="http://www.w3.org/1999/02/22-rdf-syntax-ns#"
   xmlns:svg="http://www.w3.org/2000/svg"
   xmlns="http://www.w3.org/2000/svg"
   xmlns:sodipodi="http://sodipodi.sourceforge.net/DTD/sodipodi-0.dtd"
   xmlns:inkscape="http://www.inkscape.org/namespaces/inkscape"
   sodipodi:docname="R10-3L.svg"
   inkscape:version="1.0rc1 (09960d6f05, 2020-04-09)"
   id="svg6805"
   version="1.1"
   viewBox="0 0 23.21172 30.889927"
   height="30.889927mm"
   width="23.21172mm">
  <defs
     id="defs6799" />
  <sodipodi:namedview
     inkscape:window-maximized="1"
     inkscape:window-y="0"
     inkscape:window-x="0"
     inkscape:window-height="836"
     inkscape:window-width="1600"
     showgrid="false"
     inkscape:document-rotation="0"
     inkscape:current-layer="layer1"
     inkscape:document-units="mm"
     inkscape:cy="58.374665"
     inkscape:cx="43.864667"
     inkscape:zoom="3.959798"
     inkscape:pageshadow="2"
     inkscape:pageopacity="0.0"
     borderopacity="1.0"
     bordercolor="#666666"
     pagecolor="#ffffff"
     id="base" />
  <metadata
     id="metadata6802">
    <rdf:RDF>
      <cc:Work
         rdf:about="">
        <dc:format>image/svg+xml</dc:format>
        <dc:type
           rdf:resource="http://purl.org/dc/dcmitype/StillImage" />
        <dc:title></dc:title>
      </cc:Work>
    </rdf:RDF>
  </metadata>
  <g
     transform="translate(-358.81081,-26.88837)"
     id="layer1"
     inkscape:groupmode="layer"
     inkscape:label="Layer 1">
    <g
       id="g3944"
       transform="matrix(0.35277777,0,0,-0.35277777,381.93433,55.1307)">
      <path
         d="m 0,0 c 0,-4.007 -3.248,-7.255 -7.255,-7.255 h -50.786 c -4.007,0 -7.256,3.248 -7.256,7.255 v 72.552 c 0,4.007 3.249,7.255 7.256,7.255 H -7.255 C -3.248,79.807 0,76.559 0,72.552 Z"
         style="fill:#ffffff;fill-opacity:1;fill-rule:nonzero;stroke:none"
         id="path3946"
         inkscape:connector-curvature="0" />
    </g>
    <g
       id="g3948"
       transform="matrix(0.35277777,0,0,-0.35277777,381.93433,55.1307)">
      <path
         d="m 0,0 c 0,-4.007 -3.248,-7.255 -7.255,-7.255 h -50.786 c -4.007,0 -7.256,3.248 -7.256,7.255 v 72.552 c 0,4.007 3.249,7.255 7.256,7.255 H -7.255 C -3.248,79.807 0,76.559 0,72.552 Z"
         style="fill:none;stroke:#231f20;stroke-width:0.5;stroke-linecap:butt;stroke-linejoin:miter;stroke-miterlimit:4;stroke-dasharray:none;stroke-opacity:1"
         id="path3950"
         inkscape:connector-curvature="0" />
    </g>
    <g
       id="g3952"
       transform="matrix(0.35277777,0,0,-0.35277777,380.01487,55.1307)">
      <path
         d="M 0,0 C 0,-1.001 -0.814,-1.814 -1.814,-1.814 H -52.6 c -1,0 -1.814,0.813 -1.814,1.814 v 72.552 c 0,1 0.814,1.814 1.814,1.814 h 50.786 c 1,0 1.814,-0.814 1.814,-1.814 z M -1.814,77.086 H -52.6 c -2.501,0 -4.535,-2.034 -4.535,-4.534 V 0 c 0,-2.501 2.034,-4.535 4.535,-4.535 h 50.786 c 2.5,0 4.534,2.034 4.534,4.535 v 72.552 c 0,2.5 -2.034,4.534 -4.534,4.534"
         style="fill:#231f20;fill-opacity:1;fill-rule:nonzero;stroke:none"
         id="path3954"
         inkscape:connector-curvature="0" />
    </g>
    <g
       id="g3956"
       transform="matrix(-0.35277777,0,0,-0.35277777,363.24557,39.133995)">
      <path
         d="m 0,0 v 14.958 h -3.319 v 4.805 l -1.03,0.229 v 1.259 l 1.144,0.457 v 0.687 H 0 v 2.059 H 1.488 V 0 Z"
         style="fill:#231f20;fill-opacity:1;fill-rule:nonzero;stroke:none"
         id="path3958"
         inkscape:connector-curvature="0" />
    </g>
    <g
       id="g3960"
       transform="matrix(-0.35277777,0,0,-0.35277777,378.11262,31.475188)">
      <path
         d="m 0,0 c 0,0 6.884,-0.574 12.936,3.732 0.376,0.059 0.774,0.256 1.092,0.276 3.233,-0.694 5.873,1.032 7.638,1.944 1.587,0.238 1.211,-3.292 -0.694,-3.768 1.884,-0.2 14.978,-1.469 14.978,-1.469 0,0 1.232,-0.158 1.191,-1.111 -0.024,-0.596 -0.158,-1.31 -1.011,-1.31 H 25.792 c 0,0 -0.02,-0.952 -0.853,-1.687 -0.992,-0.515 -2.42,-1.109 -2.48,-2.558 -0.793,-0.734 -3.055,-1.586 -3.451,-3.135 -0.716,-1.131 -3.116,-1.269 -4.008,-1.449 -0.675,0.119 -1.29,0.209 -2.143,0.297 C 7.678,-8.096 0,-7.775 0,-7.775 Z"
         style="fill:#231f20;fill-opacity:1;fill-rule:nonzero;stroke:none"
         id="path3962"
         inkscape:connector-curvature="0" />
    </g>
    <g
       id="g3964"
       transform="matrix(0.35277777,0,0,-0.35277777,365.10542,37.854822)">
      <path
         d="m 0,0 c 0,0.441 -0.174,0.688 -0.523,0.738 h -0.9 v -1.466 h 0.9 C -0.174,-0.713 0,-0.47 0,0 m 0.712,0 c 0,-0.596 -0.21,-1.014 -0.63,-1.254 -0.217,-0.125 -0.431,-0.187 -0.641,-0.187 H -1.423 V -3.626 H -2.135 V 1.45 h 1.576 c 0.214,0 0.427,-0.061 0.641,-0.182 C 0.502,1.027 0.712,0.605 0.712,0"
         style="fill:#231f20;fill-opacity:1;fill-rule:nonzero;stroke:none"
         id="path3966"
         inkscape:connector-curvature="0" />
    </g>
    <g
       id="g3968"
       transform="matrix(0.35277777,0,0,-0.35277777,366.71832,38.650689)">
      <path
         d="m 0,0 c 0,-0.392 -0.139,-0.726 -0.415,-1.005 -0.276,-0.277 -0.613,-0.416 -1.009,-0.416 -0.393,0 -0.729,0.139 -1.006,0.416 -0.278,0.279 -0.417,0.613 -0.417,1.005 v 3.706 h 0.711 V 0.002 c 0,-0.197 0.069,-0.364 0.207,-0.503 0.137,-0.138 0.305,-0.208 0.505,-0.208 0.193,0 0.36,0.07 0.501,0.208 0.141,0.139 0.211,0.306 0.211,0.503 V 3.706 H 0 Z"
         style="fill:#231f20;fill-opacity:1;fill-rule:nonzero;stroke:none"
         id="path3970"
         inkscape:connector-curvature="0" />
    </g>
    <g
       id="g3972"
       transform="matrix(0.35277777,0,0,-0.35277777,368.02678,38.645045)">
      <path
         d="m 0,0 c 0,-0.36 -0.093,-0.668 -0.28,-0.929 -0.24,-0.339 -0.596,-0.508 -1.067,-0.508 -0.529,0 -0.924,0.169 -1.185,0.508 -0.21,0.268 -0.315,0.605 -0.315,1.011 h 0.712 c 0,-0.295 0.093,-0.513 0.28,-0.654 0.138,-0.102 0.308,-0.153 0.508,-0.153 0.407,0 0.61,0.242 0.61,0.726 0,0.379 -0.164,0.688 -0.492,0.929 -0.304,0.189 -0.61,0.376 -0.918,0.562 -0.328,0.254 -0.492,0.586 -0.492,0.995 0,0.267 0.074,0.513 0.223,0.736 0.23,0.345 0.599,0.517 1.107,0.517 0.534,0 0.913,-0.199 1.136,-0.598 C -0.081,2.976 -0.024,2.776 0,2.54 h -0.712 c 0,0.084 -0.029,0.168 -0.086,0.252 -0.102,0.157 -0.273,0.237 -0.514,0.237 -0.41,0 -0.615,-0.181 -0.615,-0.543 0,-0.2 0.166,-0.399 0.498,-0.599 0.495,-0.291 0.805,-0.498 0.931,-0.62 C -0.166,0.939 0,0.517 0,0"
         style="fill:#231f20;fill-opacity:1;fill-rule:nonzero;stroke:none"
         id="path3974"
         inkscape:connector-curvature="0" />
    </g>
    <g
       id="g3976"
       transform="matrix(0.35277777,0,0,-0.35277777,369.33382,39.133995)">
      <path
         d="M 0,0 H -0.712 V 2.337 H -2.135 V 0 h -0.711 v 5.076 h 0.711 V 3.048 h 1.423 V 5.076 H 0 Z"
         style="fill:#231f20;fill-opacity:1;fill-rule:nonzero;stroke:none"
         id="path3978"
         inkscape:connector-curvature="0" />
    </g>
    <g
       id="g3980"
       transform="matrix(0.35277777,0,0,-0.35277777,371.73447,38.592832)">
      <path
         d="M 0,0 C 0,0.338 -0.124,0.575 -0.371,0.705 -0.493,0.77 -0.622,0.803 -0.757,0.803 h -0.666 v -1.625 h 0.777 c 0.105,0 0.215,0.038 0.331,0.116 C -0.105,-0.567 0,-0.332 0,0 m -0.151,2.175 c 0,0.403 -0.193,0.622 -0.578,0.655 H -1.423 V 1.514 h 0.588 c 0.456,0 0.684,0.221 0.684,0.661 m 0.862,-2.186 c 0,-0.68 -0.244,-1.139 -0.732,-1.375 -0.206,-0.099 -0.455,-0.148 -0.747,-0.148 h -1.367 v 5.076 h 1.462 c 0.24,-0.027 0.446,-0.09 0.619,-0.188 0.409,-0.24 0.615,-0.647 0.615,-1.218 0,-0.545 -0.194,-0.875 -0.58,-0.989 0.487,-0.268 0.73,-0.655 0.73,-1.158"
         style="fill:#231f20;fill-opacity:1;fill-rule:nonzero;stroke:none"
         id="path3982"
         inkscape:connector-curvature="0" />
    </g>
    <g
       id="g3984"
       transform="matrix(0.35277777,0,0,-0.35277777,373.29339,38.650689)">
      <path
         d="m 0,0 c 0,-0.392 -0.138,-0.726 -0.415,-1.005 -0.276,-0.277 -0.612,-0.416 -1.008,-0.416 -0.393,0 -0.729,0.139 -1.007,0.416 -0.278,0.279 -0.417,0.613 -0.417,1.005 v 3.706 h 0.712 V 0.002 c 0,-0.197 0.069,-0.364 0.206,-0.503 0.137,-0.138 0.305,-0.208 0.506,-0.208 0.192,0 0.359,0.07 0.5,0.208 0.141,0.139 0.211,0.306 0.211,0.503 V 3.706 H 0 Z"
         style="fill:#231f20;fill-opacity:1;fill-rule:nonzero;stroke:none"
         id="path3986"
         inkscape:connector-curvature="0" />
    </g>
    <g
       id="g3988"
       transform="matrix(0.35277777,0,0,-0.35277777,374.45827,37.594472)">
      <path
         d="M 0,0 H -0.941 V -4.364 H -1.652 V 0 H -2.591 V 0.712 H 0 Z"
         style="fill:#231f20;fill-opacity:1;fill-rule:nonzero;stroke:none"
         id="path3990"
         inkscape:connector-curvature="0" />
    </g>
    <g
       id="g3992"
       transform="matrix(0.35277777,0,0,-0.35277777,375.47921,37.594472)">
      <path
         d="M 0,0 H -0.94 V -4.364 H -1.652 V 0 H -2.59 V 0.712 H 0 Z"
         style="fill:#231f20;fill-opacity:1;fill-rule:nonzero;stroke:none"
         id="path3994"
         inkscape:connector-curvature="0" />
    </g>
    <g
       id="g3996"
       transform="matrix(0.35277777,0,0,-0.35277777,376.49979,38.238645)">
      <path
         d="M 0,0 C 0,0.433 -0.044,0.81 -0.132,1.131 -0.264,1.628 -0.482,1.877 -0.787,1.877 -1.092,1.877 -1.31,1.628 -1.442,1.131 -1.53,0.81 -1.574,0.433 -1.574,0 c 0,-0.433 0.044,-0.81 0.132,-1.131 0.132,-0.498 0.35,-0.746 0.655,-0.746 0.305,0 0.523,0.248 0.655,0.746 C -0.044,-0.81 0,-0.433 0,0 m 0.712,0 c 0,-0.623 -0.071,-1.138 -0.214,-1.549 -0.243,-0.693 -0.672,-1.04 -1.285,-1.04 -0.613,0 -1.041,0.347 -1.285,1.04 -0.143,0.411 -0.214,0.926 -0.214,1.549 0,1.726 0.5,2.588 1.499,2.588 0.999,0 1.499,-0.862 1.499,-2.588"
         style="fill:#231f20;fill-opacity:1;fill-rule:nonzero;stroke:none"
         id="path3998"
         inkscape:connector-curvature="0" />
    </g>
    <g
       id="g4000"
       transform="matrix(0.35277777,0,0,-0.35277777,378.11269,39.133995)">
      <path
         d="M 0,0 H -0.711 L -2.135,3.286 V 0 h -0.712 v 5.076 h 0.711 l 1.423,-3.278 0.002,3.278 H 0 Z"
         style="fill:#231f20;fill-opacity:1;fill-rule:nonzero;stroke:none"
         id="path4002"
         inkscape:connector-curvature="0" />
    </g>
    <g
       id="g4004"
       transform="matrix(0.35277777,0,0,-0.35277777,367.39671,43.612862)">
      <path
         d="M 0,0 V 7.255 H 4.498 V 6.096 H 1.158 V 4.351 H 3.337 V 3.192 H 1.158 V 0 Z"
         style="fill:#231f20;fill-opacity:1;fill-rule:nonzero;stroke:none"
         id="path4006"
         inkscape:connector-curvature="0" />
    </g>
    <g
       id="g4008"
       transform="matrix(0.35277777,0,0,-0.35277777,370.72482,42.3333)">
      <path
         d="m 0,0 c 0,0.742 -0.109,1.336 -0.327,1.781 -0.247,0.509 -0.61,0.764 -1.09,0.764 -0.485,0 -0.848,-0.255 -1.09,-0.764 C -2.725,1.34 -2.834,0.746 -2.834,0 c 0,-0.741 0.109,-1.335 0.327,-1.781 0.247,-0.508 0.61,-0.764 1.09,-0.764 0.48,0 0.843,0.256 1.09,0.764 C -0.109,-1.335 0,-0.741 0,0 m 1.159,0 c 0,-0.978 -0.174,-1.793 -0.523,-2.447 -0.449,-0.837 -1.134,-1.256 -2.053,-1.256 -0.924,0 -1.608,0.419 -2.054,1.256 -0.348,0.648 -0.522,1.464 -0.522,2.447 0,0.982 0.174,1.799 0.522,2.447 0.446,0.838 1.13,1.256 2.054,1.256 0.919,0 1.604,-0.418 2.053,-1.256 C 0.985,1.793 1.159,0.978 1.159,0"
         style="fill:#231f20;fill-opacity:1;fill-rule:nonzero;stroke:none"
         id="path4010"
         inkscape:connector-curvature="0" />
    </g>
    <g
       id="g4012"
       transform="matrix(0.35277777,0,0,-0.35277777,372.99388,41.765012)">
      <path
         d="m 0,0 c 0,0.242 -0.081,0.445 -0.243,0.61 -0.162,0.165 -0.364,0.248 -0.606,0.248 h -1.67 v -1.745 h 1.67 c 0.242,0 0.444,0.086 0.606,0.258 C -0.081,-0.457 0,-0.247 0,0 M 1.256,-5.238 H 0.029 l -1.169,3.192 h -1.379 v -3.192 h -1.159 v 7.255 h 2.821 c 0.556,0 1.031,-0.198 1.425,-0.591 C 0.962,1.031 1.159,0.556 1.159,0 c 0,-0.812 -0.384,-1.423 -1.151,-1.829 z"
         style="fill:#231f20;fill-opacity:1;fill-rule:nonzero;stroke:none"
         id="path4014"
         inkscape:connector-curvature="0" />
    </g>
    <g
       id="g4016"
       transform="matrix(-0.35277777,0,0,-0.35277777,364.35154,53.063424)">
      <path
         d="M 0,0 3.632,-2.457 0,-4.918 c -0.16,-0.109 -0.379,-0.067 -0.488,0.093 -0.073,0.107 -0.06,0.217 -0.027,0.349 l 0.321,1.067 h -37.823 v 1.903 h 37.823 l -0.313,1.049 c -0.04,0.144 -0.057,0.252 0.019,0.363 C -0.379,0.066 -0.16,0.108 0,0"
         style="fill:#231f20;fill-opacity:1;fill-rule:evenodd;stroke:none"
         id="path4018"
         inkscape:connector-curvature="0" />
    </g>
    <path
       d="m 366.92657,45.532677 h 6.98076 v 6.398683 h -6.98076 z"
       style="fill:#231f20;fill-opacity:1;fill-rule:evenodd;stroke:none;stroke-width:0.352777"
       id="path4020"
       inkscape:connector-curvature="0" />
    <g
       id="g4022"
       transform="matrix(0.35277777,0,0,-0.35277777,370.97705,46.222709)">
      <path
         d="m 0,0 c -0.573,0 -1.042,-0.469 -1.042,-1.042 0,-0.572 0.469,-1.041 1.042,-1.041 0.573,0 1.04,0.469 1.04,1.041 C 1.04,-0.469 0.573,0 0,0"
         style="fill:#ffffff;fill-opacity:1;fill-rule:evenodd;stroke:none"
         id="path4024"
         inkscape:connector-curvature="0" />
    </g>
    <g
       id="g4026"
       transform="matrix(0.35277777,0,0,-0.35277777,372.08866,48.537991)">
      <path
         d="m 0,0 -2.184,1.455 c -0.1,0.428 -0.518,2.32 -1.36,2.758 C -4.375,4.764 -7.441,2.505 -7.46,2.486 v -3.297 l 0.665,0.117 0.262,2.63 c 0.249,0.051 0.501,0.101 0.75,0.152 C -6.33,0.673 -6.531,-0.693 -6.216,-1.59 l -1.331,-5.436 0.897,-0.636 1.938,5.03 0.896,-0.953 1.243,-3.787 1.185,0.432 -1.069,3.992 -1.244,2.225 0.476,1.643 0.507,-0.66 2.37,-0.782 z"
         style="fill:#ffffff;fill-opacity:1;fill-rule:evenodd;stroke:none"
         id="path4028"
         inkscape:connector-curvature="0" />
    </g>
  </g>
</svg>
