<?xml version="1.0" encoding="UTF-8" standalone="no"?>
<!-- Created with Inkscape (http://www.inkscape.org/) -->

<svg
   width="133.9944mm"
   height="166.92236mm"
   viewBox="0 0 133.9944 166.92236"
   version="1.1"
   id="svg1"
   xml:space="preserve"
   inkscape:version="1.3.2 (091e20e, 2023-11-25, custom)"
   sodipodi:docname="drawing.svg"
   xmlns:inkscape="http://www.inkscape.org/namespaces/inkscape"
   xmlns:sodipodi="http://sodipodi.sourceforge.net/DTD/sodipodi-0.dtd"
   xmlns="http://www.w3.org/2000/svg"
   xmlns:svg="http://www.w3.org/2000/svg"><sodipodi:namedview
     id="namedview1"
     pagecolor="#ffffff"
     bordercolor="#000000"
     borderopacity="0.25"
     inkscape:showpageshadow="2"
     inkscape:pageopacity="0.0"
     inkscape:pagecheckerboard="0"
     inkscape:deskcolor="#d1d1d1"
     inkscape:document-units="mm"
     inkscape:zoom="2.0686841"
     inkscape:cx="2890.4848"
     inkscape:cy="203.51101"
     inkscape:window-width="960"
     inkscape:window-height="1040"
     inkscape:window-x="0"
     inkscape:window-y="0"
     inkscape:window-maximized="0"
     inkscape:current-layer="layer1"
     showguides="true" /><defs
     id="defs1" /><g
     inkscape:label="Layer 1"
     inkscape:groupmode="layer"
     id="layer1"
     transform="translate(-941.33492,-2098.4645)"><g
       id="g54"
       transform="translate(0,2103.6883)"><path
         id="path51"
         style="color:#000000;fill:#ffffff;stroke:#000000;stroke-width:0.3;stroke-dasharray:none"
         d="m 951.50345,-5.073848 c -5.48113,0 -10.01853,4.535686 -10.01853,10.016818 v 146.58702 c 0,5.48116 4.5374,10.01852 10.01853,10.01852 h 113.65905 c 5.4812,0 10.0168,-4.53736 10.0168,-10.01852 V 4.94297 c 0,-5.481132 -4.5356,-10.016818 -10.0168,-10.016818 z" /><path
         d="m 1015.7985,23.963985 6.3249,-1.031623 -3.9866,-5.178521 c -2.0665,1.801324 -2.3225,3.964362 -2.3383,6.210144 m -1.7405,0.378642 c 0,-0.223934 -0.049,-0.584891 -0.049,-0.837221 0,-2.562862 0.8291,-5.052795 3.079,-7.122275 l -2.3436,-2.805876 -3.6253,11.063475 2.9366,-0.297776 z m -13.9196,-11.010332 0.202,-0.61513 12.9158,-0.01843 -3.4359,10.416676 -0.1485,-1.085626 h 0.3954 l -0.047,-0.692829 h -1.7282 l 0.05,0.643096 h 0.4434 l 0.099,1.185091 c 0,0 -8.6936,-9.784033 -8.7434,-9.833472 m -5.71975,10.00554 c 1.73431,-1.37777 3.08394,-2.690534 4.05806,-5.318092 1.53609,1.394422 2.41299,3.40995 2.41299,5.485354 0,4.119776 -3.35999,7.481165 -7.48065,7.481165 -4.12075,0 -7.48109,-3.361389 -7.48109,-7.481165 0,-4.120896 3.36034,-7.481113 7.48109,-7.481113 1.31464,0 2.65951,0.379761 3.74281,1.02005 -0.73273,2.318452 -1.44734,3.513686 -3.70481,5.330819 -0.54827,0.02411 -0.96511,0.463418 -0.96511,0.988985 a 0.99094763,0.99094763 0 0 0 0.98794,0.987538 c 0.54409,0 0.94877,-0.444441 0.94877,-1.013541 m 21.64485,2.21587 c 0.8454,3.152833 3.8558,5.432557 7.1872,5.432557 4.1198,0 7.4802,-3.361389 7.4802,-7.481165 0,-4.120896 -3.3604,-7.481113 -7.4802,-7.481113 -1.316,0 -2.8368,0.309967 -3.9466,0.959882 l 4.0602,5.390987 c 0.4964,0.0086 0.928,0.45157 0.928,0.988985 a 0.99009997,0.99009997 0 0 1 -0.9868,0.987538 1.055372,1.055372 0 0 1 -0.4428,-0.102461 z M 997.68906,15.31073 1000.3388,7.9999957 999.49928,6.5673954 1001.179,4.7403446 h 3.6054 l 0.049,1.0369958 h -3.1616 l -0.6408,0.6914336 0.7406,1.3337036 -0.932,3.3026164 h 12.9407 l 0.1989,-0.604988 c -1.0408,-0.134319 -2.835,-0.7756242 -3.2636,-1.1471892 -0.4276,-0.37215 -0.055,-0.714888 0.4344,-0.730989 2.554,-0.1084886 6.3489,-0.3218667 7.0705,-0.3258099 0.7207,-0.00347 0.7946,0.3608193 0.312,0.8880905 -0.4822,0.5272549 -0.9049,1.0031056 -2.7332,1.2859516 l -0.4933,1.333686 3.0622,3.792847 c 1.4434,-0.875107 3.1887,-1.330862 4.8854,-1.330862 5.0889,0 9.2385,4.149997 9.2385,9.238645 0,5.088975 -4.1496,9.238697 -9.2385,9.238697 -4.1868,0 -7.8677,-2.887794 -8.9495,-6.877297 l -2.813,0.505797 c -0.1202,0.331717 -0.4026,0.585753 -0.7386,0.785216 l 0.5023,2.380308 h 0.6429 l 0.049,0.641151 -2.0253,0.09953 v -0.691709 h 0.4955 l -0.6133,-2.378345 c -0.9096,-0.148613 -1.3865,-0.929058 -1.1153,-1.70272 l -9.19256,-10.395478 -0.41181,1.115263 c 2.23197,1.757566 3.56737,4.464494 3.56737,7.279669 0,5.088975 -4.1515,9.23868 -9.23917,9.23868 -5.08884,0 -9.23973,-4.149981 -9.23973,-9.23868 0,-5.088923 4.15089,-9.23837 9.23973,-9.23837 1.47939,0 2.99507,0.359683 4.27724,1.044625"
         style="fill:#000000;fill-opacity:1;fill-rule:evenodd;stroke:none;stroke-width:0.0807329"
         id="path52" /><path
         id="path53"
         style="color:#000000;fill:#000000;-inkscape-stroke:none"
         d="m 951.50213,-2.8887126 c -0.53855,0 -1.06487,0.054916 -1.57355,0.1596802 -0.50867,0.1047642 -1.00002,0.2595404 -1.46813,0.45837 -0.4681,0.1988295 -0.91331,0.4417905 -1.33015,0.7239868 -0.83367,0.56439253 -1.55382,1.28506672 -2.11822,2.11873371 -0.28219,0.41683349 -0.52567,0.86204739 -0.7245,1.33015139 -0.19883,0.468104 -0.35309,0.9589348 -0.45785,1.4676106 -0.10477,0.5086759 -0.15968,1.0349985 -0.15968,1.5735474 v 50.6620235 78.259819 17.66404 c 0,0.53855 0.0549,1.06487 0.15968,1.57355 0.10476,0.50867 0.25902,0.99951 0.45785,1.46761 0.19883,0.4681 0.44231,0.91332 0.7245,1.33015 0.2822,0.41683 0.60322,0.80579 0.95809,1.16065 0.35486,0.35487 0.7433,0.67589 1.16013,0.95809 0.41684,0.28219 0.86205,0.52515 1.33015,0.72398 0.46811,0.19883 0.95946,0.35361 1.46813,0.45837 0.50868,0.10477 1.035,0.15968 1.57355,0.15968 h 113.66177 c 3.2313,0 6.0201,-1.9823 7.2125,-4.79092 0.1987,-0.4681 0.3531,-0.95894 0.4579,-1.46761 0.1047,-0.50868 0.1596,-1.035 0.1596,-1.57355 V 133.86521 55.605391 4.9433675 c 0,-0.5385489 -0.055,-1.0648715 -0.1596,-1.5735474 -0.1048,-0.5086758 -0.2592,-0.9995066 -0.4579,-1.4676106 -1.1924,-2.80862412 -3.9812,-4.7909221 -7.2125,-4.7909221 z m 0,3.50004479 h 113.66177 c 0.303,1.3732e-4 0.5982,0.0296748 0.8821,0.0862996 1.4228,0.28378145 2.5723,1.24343721 3.113,2.54351401 0.2163,0.5200308 0.3349,1.0947379 0.3349,1.7022216 V 55.605391 c 0,2.429935 -1.9001,4.329969 -4.33,4.329969 H 951.50213 c -2.42993,0 -4.33204,-1.900034 -4.33204,-4.329969 V 4.9433675 c 0,-0.3037419 0.0296,-0.5991043 0.0863,-0.883667 0.3973,-1.9919389 2.11955,-3.44836831 4.24574,-3.44836831 z m 0,128.92391781 h 113.66177 c 2.4299,0 4.33,1.90004 4.33,4.32996 v 17.66404 c 0,0.60748 -0.1188,1.18219 -0.3349,1.70222 -0.5407,1.30008 -1.6902,2.25974 -3.113,2.54352 -0.2845,0.0567 -0.5804,0.0863 -0.8841,0.0863 H 951.50213 c -2.42993,0 -4.33204,-1.90211 -4.33204,-4.33204 v -17.66404 c 0,-2.42992 1.90211,-4.32996 4.33204,-4.32996 z"
         sodipodi:nodetypes="ssssssssccsssssssssssssccsssssscsssssssssssssscssssss" /><path
         style="font-size:25.5297px;font-family:'Highway Gothic';-inkscape-font-specification:'Highway Gothic, Normal';text-align:center;text-anchor:middle;stroke-width:3.5"
         d="m 987.66385,151.21675 h -2.85932 l -1.68497,-4.79958 h -5.3357 l -1.68496,4.79958 h -2.88486 l 5.87183,-17.1049 h 2.70615 z m -5.51441,-7.55679 -1.68496,-4.79958 -1.73602,4.79958 z m 18.91746,7.55679 h -2.70612 v -7.42914 h -6.22924 v 7.42914 h -2.70615 v -17.1049 h 2.70615 v 6.91855 h 6.22924 v -6.91855 h 2.70612 z m 13.1478,0 h -10.6203 v -17.1049 h 10.0842 v 2.70615 h -7.3781 v 4.2124 h 4.9783 v 2.75721 h -4.9783 v 4.67193 h 7.9142 z m 16.2114,0 h -2.8593 l -1.685,-4.79958 h -5.3357 l -1.685,4.79958 h -2.8848 l 5.8718,-17.1049 h 2.7061 z m -5.5144,-7.55679 -1.685,-4.79958 -1.736,4.79958 z m 18.9175,-0.99566 q -0.026,4.4677 -1.8637,6.51008 -1.8126,2.04237 -4.4677,2.04237 h -5.3357 v -17.1049 h 5.3357 q 2.6551,0 4.4677,2.04238 1.8381,2.04237 1.8637,6.51007 z m -8.961,0 v 5.8463 h 2.6296 q 1.7105,-0.0511 2.6551,-1.6339 0.9701,-1.58284 0.9956,-4.2124 0,-2.80827 -0.9701,-4.28899 -0.9701,-1.50625 -2.6806,-1.55731 h -2.6296 z"
         id="text53"
         aria-label="AHEAD" /><path
         style="font-size:25.5297px;font-family:'Highway Gothic';-inkscape-font-specification:'Highway Gothic, Normal';text-align:center;text-anchor:middle;stroke-width:3.5"
         d="M 992.83362,54.447567 H 982.21327 V 37.342668 h 2.70614 v 14.347691 h 7.91421 z m 16.21138,0 h -2.8594 l -1.6849,-4.799583 h -5.33573 l -1.68496,4.799583 h -2.88486 l 5.87185,-17.104899 h 2.7061 z m -5.5145,-7.556791 -1.6849,-4.799583 -1.736,4.799583 z m 18.9175,7.556791 h -2.3997 l -6.5357,-11.590484 v 11.590484 h -2.7061 V 37.342668 h 2.7061 l 6.2293,10.926712 V 37.342668 h 2.7061 z m 13.1478,0 h -10.6203 V 37.342668 h 10.0842 v 2.706149 h -7.3781 v 4.2124 h 4.9783 v 2.757207 h -4.9783 v 4.671935 h 7.9142 z"
         id="text54"
         aria-label="LANE" /><path
         id="rect54"
         style="fill:none;stroke:#ffffff;stroke-width:5.71598"
         transform="matrix(0.44430517,0.8958755,-0.44430517,0.8958755,0,0)"
         d="m 1173.9497,-1095.5083 h 26.796 v 26.796 h -26.796 z" /></g></g></svg>
