<?xml version="1.0" encoding="UTF-8" standalone="no"?>
<!-- Created with Inkscape (http://www.inkscape.org/) -->

<svg
   width="55.040386mm"
   height="55.040386mm"
   viewBox="0 0 55.040386 55.040386"
   version="1.1"
   id="svg1"
   sodipodi:docname="MUTCD_R1-5cL.svg"
   inkscape:version="1.3 (0e150ed, 2023-07-21)"
   xmlns:inkscape="http://www.inkscape.org/namespaces/inkscape"
   xmlns:sodipodi="http://sodipodi.sourceforge.net/DTD/sodipodi-0.dtd"
   xmlns="http://www.w3.org/2000/svg"
   xmlns:svg="http://www.w3.org/2000/svg">
  <sodipodi:namedview
     id="namedview1"
     pagecolor="#ffffff"
     bordercolor="#666666"
     borderopacity="1.0"
     inkscape:showpageshadow="2"
     inkscape:pageopacity="0.0"
     inkscape:pagecheckerboard="0"
     inkscape:deskcolor="#d1d1d1"
     inkscape:document-units="mm"
     inkscape:zoom="2"
     inkscape:cx="104.5"
     inkscape:cy="104.5"
     inkscape:window-width="1440"
     inkscape:window-height="855"
     inkscape:window-x="0"
     inkscape:window-y="23"
     inkscape:window-maximized="1"
     inkscape:current-layer="g224" />
  <defs
     id="defs1">
    <clipPath
       clipPathUnits="userSpaceOnUse"
       id="clipPath211">
      <path
         d="M 20.194,43.94 H 526.773 V 738 H 20.194 Z"
         transform="translate(-265.39711,-524.10172)"
         id="path211" />
    </clipPath>
  </defs>
  <g
     inkscape:label="Layer 1"
     inkscape:groupmode="layer"
     id="layer1"
     transform="translate(-76.993749,-120.91458)">
    <g
       id="g209"
       transform="matrix(0.26458333,0,0,0.26458333,-13.11515,81.402377)">
      <path
         id="path210"
         d="m 0,0 c -5.428,0 -9.845,4.417 -9.845,9.845 v 136.08 c 0,5.429 4.417,9.845 9.845,9.845 h 136.08 c 5.429,0 9.845,-4.416 9.845,-9.845 V 9.845 C 145.925,4.417 141.509,0 136.08,0 Z"
         style="fill:#ffffff;fill-opacity:1;fill-rule:nonzero;stroke:none"
         transform="matrix(1.3333333,0,0,-1.3333333,353.8628,357.19773)"
         clip-path="url(#clipPath211)" />
    </g>
    <g
       id="g211"
       transform="matrix(0.26458333,0,0,0.26458333,-13.11515,81.402377)">
      <path
         id="path212"
         d="m 0,0 h -136.08 c -5.497,0 -9.97,-4.473 -9.97,-9.97 v -136.08 c 0,-5.497 4.473,-9.97 9.97,-9.97 H 0 c 5.497,0 9.97,4.473 9.97,9.97 V -9.97 C 9.97,-4.473 5.497,0 0,0 m 0,-0.25 c 5.368,0 9.72,-4.352 9.72,-9.72 v -136.08 c 0,-5.368 -4.352,-9.72 -9.72,-9.72 h -136.08 c -5.368,0 -9.72,4.352 -9.72,9.72 V -9.97 c 0,5.368 4.352,9.72 9.72,9.72 z"
         style="fill:#000000;fill-opacity:1;fill-rule:nonzero;stroke:none"
         transform="matrix(1.3333333,0,0,-1.3333333,535.3024,149.33747)" />
    </g>
    <g
       id="g212"
       transform="matrix(0.26458333,0,0,0.26458333,-13.11515,81.402377)">
      <path
         id="path213"
         d="M 0,0 C -3.871,0 -7.02,3.149 -7.02,7.02 V 143.1 c 0,3.871 3.149,7.02 7.02,7.02 h 136.08 c 3.871,0 7.02,-3.149 7.02,-7.02 V 7.02 C 143.1,3.149 139.951,0 136.08,0 Z"
         style="fill:#000000;fill-opacity:1;fill-rule:nonzero;stroke:none"
         transform="matrix(1.3333333,0,0,-1.3333333,353.8628,353.4308)" />
      <path
         id="path214"
         d="m 0,0 c -1.786,0 -3.24,1.454 -3.24,3.24 v 136.08 c 0,1.786 1.454,3.24 3.24,3.24 h 136.08 c 1.786,0 3.24,-1.454 3.24,-3.24 V 3.24 C 139.32,1.454 137.866,0 136.08,0 Z"
         style="fill:#ffffff;fill-opacity:1;fill-rule:nonzero;stroke:none"
         transform="matrix(1.3333333,0,0,-1.3333333,353.8628,348.39067)" />
    </g>
    <g
       id="g214"
       transform="matrix(0.26458333,0,0,0.26458333,-13.11515,81.402377)">
      <path
         id="path215"
         d="m 0,0 c -15.053,0.001 -29.63,-5.493 -40.898,-15.554 l -3.061,8.901 c -0.286,0.899 -1.13,1.52 -2.078,1.512 -1.115,-0.01 -2.046,-0.882 -2.121,-1.989 l -4.491,-24.979 c 0.037,0.005 25.141,3.463 25.141,3.463 1.11,0.028 2.019,0.923 2.076,2.036 0.047,0.947 -0.539,1.816 -1.426,2.139 l -9.112,3.543 c 8.763,5.855 19.429,9.411 30.095,9.412 6.484,10e-4 13.594,-1.463 19.469,-3.805 L 13.82,-1.709 C 9.558,-0.718 4.54,0 0,0"
         style="fill:#000000;fill-opacity:1;fill-rule:nonzero;stroke:none"
         transform="matrix(1.3333333,0,0,-1.3333333,431.26133,279.6592)" />
    </g>
    <g
       id="g215"
       transform="matrix(0.26458333,0,0,0.26458333,-13.11515,81.402377)">
      <path
         id="path216"
         d="M 0,0 16.452,16.446 H 39.684 L 56.16,0 V -23.268 L 39.684,-39.714 H 16.452 L 0,-23.268 Z"
         style="fill:#c0311a;fill-opacity:1;fill-rule:evenodd;stroke:none"
         transform="matrix(1.3333333,0,0,-1.3333333,407.08947,188.8788)" />
      <path
         id="path217"
         d="m 0,0 c 1.507,0 2.739,1.366 2.739,2.935 -0.003,4.141 -7.259,4.131 -7.259,9.417 0,2.796 2.192,5.044 4.999,5.044 2.741,0 4.865,-2.112 4.933,-5.047 H 2.736 c -0.068,1.363 -1.028,2.25 -2.26,2.25 -1.302,0 -2.328,-0.952 -2.328,-2.247 0,-1.164 0.732,-1.628 1.638,-2.197 2.629,-1.587 5.623,-3.502 5.623,-7.222 0,-3.147 -2.398,-5.662 -5.411,-5.662 -3.424,0 -5.477,2.897 -5.477,6.075 h 2.743 C -2.736,1.691 -1.917,0 0,0"
         style="fill:#ffffff;fill-opacity:1;fill-rule:nonzero;stroke:none"
         transform="matrix(1.3333333,0,0,-1.3333333,417.73667,214.16907)" />
      <path
         id="path218"
         d="M 0,0 H -2.804 V 16.847 H -6.362 V 19.44 H 3.557 V 16.847 H 0 Z"
         style="fill:#ffffff;fill-opacity:1;fill-rule:nonzero;stroke:none"
         transform="matrix(1.3333333,0,0,-1.3333333,435.768,217.34747)" />
      <path
         id="path219"
         d="m 0,0 c -0.554,0 -3.06,0.114 -3.06,-7.304 0,-7.473 2.506,-7.358 3.06,-7.358 0.554,0 3.057,-0.115 3.057,7.358 C 3.057,0.114 0.554,0 0,0 m -5.737,-7.29 c 0,10.179 4.721,10.016 5.768,10.016 1.048,0 5.706,0.156 5.706,-10.023 0,-10.252 -4.658,-10.092 -5.706,-10.092 -1.047,0 -5.768,-0.16 -5.768,10.099"
         style="fill:#ffffff;fill-opacity:1;fill-rule:nonzero;stroke:none"
         transform="matrix(1.3333333,0,0,-1.3333333,451.272,194.61267)" />
      <path
         id="path220"
         d="m 0,0 h 2.858 c 1.633,0 2.52,1.021 2.52,2.794 0,1.638 -1.031,2.729 -2.518,2.729 H 0 Z m 0,-2.661 v -8.527 h -2.79 v 19.44 h 5.786 c 3.064,0 5.106,-2.192 5.106,-5.458 0,-3.547 -1.84,-5.455 -5.106,-5.455 z"
         style="fill:#ffffff;fill-opacity:1;fill-rule:nonzero;stroke:none"
         transform="matrix(1.3333333,0,0,-1.3333333,467.826,202.43053)" />
    </g>
    <g
       id="g220"
       transform="matrix(0.26458333,0,0,0.26458333,-13.11515,81.402377)">
      <path
         id="path221"
         d="m 0,0 h -4.722 v -7.821 h -2.479 v 17.28 h 2.479 V 2.426 h 4.72 V 9.459 H 2.479 V -7.821 H 0 Z"
         style="fill:#000000;fill-opacity:1;fill-rule:nonzero;stroke:none"
         transform="matrix(1.3333333,0,0,-1.3333333,368.88653,263.08213)" />
      <path
         id="path222"
         d="M 0,0 H 8.147 V -2.426 H 2.493 V -6.791 H 6.078 V -9.156 H 2.493 v -5.7 H 8.817 V -17.28 H 0 Z"
         style="fill:#000000;fill-opacity:1;fill-rule:nonzero;stroke:none"
         transform="matrix(1.3333333,0,0,-1.3333333,377.26227,250.47067)" />
      <path
         id="path223"
         d="m 0,0 v -4.365 h 2.54 c 1.456,0 2.24,0.788 2.24,2.183 C 4.78,-0.847 3.873,0 2.542,0 Z M 2.361,-6.731 H 0 v -8.123 h -2.48 v 17.28 h 5.143 c 2.711,0 4.538,-1.819 4.538,-4.608 0,-2.06 -0.849,-3.576 -2.482,-4.184 l 2.48,-8.488 H 4.661 Z"
         style="fill:#000000;fill-opacity:1;fill-rule:nonzero;stroke:none"
         transform="matrix(1.3333333,0,0,-1.3333333,396.2416,253.70493)" />
      <path
         id="path224"
         d="M 0,0 H 8.147 V -2.426 H 2.492 V -6.791 H 6.078 V -9.156 H 2.492 v -5.7 H 8.817 V -17.28 H 0 Z"
         style="fill:#000000;fill-opacity:1;fill-rule:nonzero;stroke:none"
         transform="matrix(1.3333333,0,0,-1.3333333,409.7604,250.47067)" />
    </g>
    <g
       id="g224"
       transform="matrix(0.26458333,0,0,0.26458333,-13.11515,81.402377)">
      <path
         id="path225"
         d="M 0,0 H 3.467 V -2.365 H 0 v -8.124 H -2.493 V 6.791 H 6.324 V 4.365 H 0 Z"
         style="fill:#000000;fill-opacity:1;fill-rule:nonzero;stroke:none"
         transform="matrix(1.3333333,0,0,-1.3333333,416.44733,315.68533)" />
      <path
         id="path226"
         d="m 0,0 c -0.492,0 -2.719,0.102 -2.719,-6.493 0,-6.642 2.227,-6.54 2.719,-6.54 0.492,0 2.717,-0.102 2.717,6.54 C 2.717,0.102 0.492,0 0,0 m -5.1,-6.48 c 0,9.048 4.197,8.904 5.128,8.904 0.931,0 5.072,0.138 5.072,-8.91 0,-9.113 -4.141,-8.971 -5.072,-8.971 -0.931,0 -5.128,-0.142 -5.128,8.977"
         style="fill:#000000;fill-opacity:1;fill-rule:nonzero;stroke:none"
         transform="matrix(1.3333333,0,0,-1.3333333,434.4444,309.46187)" />
      <path
         id="path227"
         d="m 0,0 v -4.365 h 2.54 c 1.456,0 2.24,0.788 2.24,2.183 C 4.78,-0.847 3.873,0 2.542,0 Z M 2.361,-6.731 H 0 v -8.123 h -2.48 v 17.28 h 5.143 c 2.711,0 4.538,-1.819 4.538,-4.608 0,-2.06 -0.849,-3.577 -2.481,-4.184 l 2.479,-8.488 H 4.661 Z"
         style="fill:#000000;fill-opacity:1;fill-rule:nonzero;stroke:none"
         transform="matrix(1.3333333,0,0,-1.3333333,449.15867,309.86493)" />
      <path
         id="path228"
         d="M 0,0 3.37,-5.149 2.528,-8.33 1.402,-8.614 Z m -21.905,-11.518 -1.031,-0.182 0.937,4.212 0.843,-1.779 z m -3.328,13.456 c -0.765,-0.411 -1.638,-0.643 -2.565,-0.643 -0.438,0 -0.864,0.052 -1.272,0.15 l -2.85,-3.036 -2.905,-9.267 -5.52,-5.244 1.591,-1.496 6.551,4.307 0.842,3.458 1.032,-3.182 -4.213,-13.008 1.496,-0.471 -4.401,-16.567 2.346,-0.842 6.268,16.566 2.527,-0.189 6.929,-16.094 2.433,0.748 -4.961,15.63 c 0.503,0.111 0.998,0.252 1.504,0.363 0.441,0.101 0.876,0.243 1.307,0.385 l -2.527,7.771 6.268,1.496 -1.308,6.369 h -1.496 l 1.024,1.591 -0.182,0.37 5.426,1.503 1.402,2.433 2.062,-8.613 -4.023,-12.732 -1.126,-19.377 4.401,-0.377 1.591,16.101 2.716,5.992 2.055,-8.236 7.677,-14.322 4.024,1.968 -7.205,14.881 0.748,12.826 7.677,2.245 -2.063,7.488 -1.961,-0.277 0.654,4.024 -6.275,11.889 -3.37,1.496 -0.6,1.407 c -0.963,-0.742 -2.169,-1.183 -3.477,-1.183 -0.195,0 -0.388,0.009 -0.579,0.029 l -0.21,-1.189 -2.622,-2.433 -3.276,-11.047 -4.771,-1.968 -2.716,5.992 z m 18.251,19.036 c -2.776,0 -5.027,-2.25 -5.027,-5.027 0,-2.777 2.251,-5.027 5.027,-5.027 2.777,0 5.028,2.25 5.028,5.027 0,2.777 -2.251,5.027 -5.028,5.027 M -23.032,6.741 c 0,-2.632 -2.134,-4.765 -4.766,-4.765 -2.632,0 -4.766,2.133 -4.766,4.765 0,2.632 2.134,4.766 4.766,4.766 2.632,0 4.766,-2.134 4.766,-4.766"
         style="fill:#000000;fill-opacity:1;fill-rule:nonzero;stroke:none"
         transform="matrix(1.3333333,0,0,-1.3333333,518.42267,276.99693)" />
    </g>
  </g>
</svg>
