<?xml version="1.0" encoding="UTF-8" standalone="no"?>
<!-- Created with Inkscape (http://www.inkscape.org/) -->

<svg
   width="16.940388mm"
   height="18.464388mm"
   viewBox="0 0 16.940388 18.464388"
   version="1.1"
   id="svg1"
   inkscape:version="1.3 (0e150ed, 2023-07-21)"
   sodipodi:docname="MUTCD_R3-52.svg"
   xmlns:inkscape="http://www.inkscape.org/namespaces/inkscape"
   xmlns:sodipodi="http://sodipodi.sourceforge.net/DTD/sodipodi-0.dtd"
   xmlns="http://www.w3.org/2000/svg"
   xmlns:svg="http://www.w3.org/2000/svg">
  <sodipodi:namedview
     id="namedview1"
     pagecolor="#ffffff"
     bordercolor="#666666"
     borderopacity="1.0"
     inkscape:showpageshadow="2"
     inkscape:pageopacity="0.0"
     inkscape:pagecheckerboard="0"
     inkscape:deskcolor="#d1d1d1"
     inkscape:document-units="mm"
     inkscape:zoom="1"
     inkscape:cx="33"
     inkscape:cy="34"
     inkscape:window-width="1440"
     inkscape:window-height="431"
     inkscape:window-x="0"
     inkscape:window-y="23"
     inkscape:window-maximized="0"
     inkscape:current-layer="layer1" />
  <defs
     id="defs1" />
  <g
     inkscape:label="Layer 1"
     inkscape:groupmode="layer"
     id="layer1"
     transform="translate(-96.043749,-139.17083)">
    <g
       id="g306"
       transform="matrix(0.26458333,0,0,0.26458333,36.801036,64.717472)">
      <path
         id="path307"
         d="m 0,0 c -1.26,0 -2.285,1.025 -2.285,2.285 v 47.52 c 0,1.26 1.025,2.285 2.285,2.285 h 43.2 c 1.26,0 2.285,-1.025 2.285,-2.285 V 2.285 C 45.485,1.025 44.46,0 43.2,0 Z"
         style="fill:#ffffff;fill-opacity:1;fill-rule:nonzero;stroke:none"
         transform="matrix(1.3333333,0,0,-1.3333333,227.12267,351.01867)" />
    </g>
    <g
       id="g307"
       transform="matrix(0.26458333,0,0,0.26458333,36.801036,64.717472)">
      <path
         id="path308"
         d="m 0,0 h -43.2 c -1.329,0 -2.41,-1.081 -2.41,-2.41 v -47.52 c 0,-1.329 1.081,-2.41 2.41,-2.41 H 0 c 1.329,0 2.41,1.081 2.41,2.41 V -2.41 C 2.41,-1.081 1.329,0 0,0 m 0,-0.25 c 1.193,0 2.16,-0.967 2.16,-2.16 v -47.52 c 0,-1.193 -0.967,-2.16 -2.16,-2.16 h -43.2 c -1.193,0 -2.16,0.967 -2.16,2.16 v 47.52 c 0,1.193 0.967,2.16 2.16,2.16 z"
         style="fill:#000000;fill-opacity:1;fill-rule:nonzero;stroke:none"
         transform="matrix(1.3333333,0,0,-1.3333333,284.7228,281.39853)" />
    </g>
    <g
       id="g308"
       transform="matrix(0.26458333,0,0,0.26458333,36.801036,64.717472)">
      <path
         id="path309"
         d="m 0,0 c -0.893,0 -1.62,0.727 -1.62,1.62 v 47.52 c 0,0.893 0.727,1.62 1.62,1.62 h 43.2 c 0.893,0 1.62,-0.727 1.62,-1.62 V 1.62 C 44.82,0.727 44.093,0 43.2,0 Z"
         style="fill:#000000;fill-opacity:1;fill-rule:nonzero;stroke:none"
         transform="matrix(1.3333333,0,0,-1.3333333,227.1228,350.13187)" />
      <path
         id="path310"
         d="m 0,0 c -0.397,0 -0.72,0.323 -0.72,0.72 v 47.52 c 0,0.397 0.323,0.72 0.72,0.72 h 43.2 c 0.397,0 0.72,-0.323 0.72,-0.72 V 0.72 C 43.92,0.323 43.597,0 43.2,0 Z"
         style="fill:#ffffff;fill-opacity:1;fill-rule:nonzero;stroke:none"
         transform="matrix(1.3333333,0,0,-1.3333333,227.1228,348.93187)" />
      <path
         id="path311"
         d="M 0,0 H 4.239 V -1.137 H 1.136 V -2.905 H 3.23 V -4.067 H 1.136 v -1.971 h 3.33 V -7.2 H 0 Z"
         style="fill:#000000;fill-opacity:1;fill-rule:nonzero;stroke:none"
         transform="matrix(1.3333333,0,0,-1.3333333,244.44267,288.45187)" />
      <path
         id="path312"
         d="m 0,0 v -4.875 h -1.136 v 7.2 H 0 l 2.628,-4.598 v 4.598 h 1.137 v -7.2 h -1.01 z"
         style="fill:#000000;fill-opacity:1;fill-rule:nonzero;stroke:none"
         transform="matrix(1.3333333,0,0,-1.3333333,253.54333,291.55133)" />
      <path
         id="path313"
         d="m 0,0 h -1.289 v -4.901 h 1.209 c 1.047,0 1.391,1.269 1.391,2.625 C 1.311,-1.632 1.128,0 0,0 m -2.424,-6.063 v 7.2 h 2.597 c 1.817,0 2.304,-2.393 2.304,-3.438 0,-2.701 -1.389,-3.762 -2.3,-3.762 z"
         style="fill:#000000;fill-opacity:1;fill-rule:nonzero;stroke:none"
         transform="matrix(1.3333333,0,0,-1.3333333,264.1008,289.96733)" />
      <path
         id="path314"
         d="M 0,0 H -1.039 V 6.24 H -2.356 V 7.2 H 1.318 V 6.24 H 0 Z"
         style="fill:#000000;fill-opacity:1;fill-rule:nonzero;stroke:none"
         transform="matrix(1.3333333,0,0,-1.3333333,240.09707,313.41173)" />
      <path
         id="path315"
         d="m 0,0 v -1.819 h 1.058 c 0.607,0 0.934,0.329 0.934,0.91 C 1.992,-0.353 1.614,0 1.059,0 Z M 0.984,-2.804 H 0 v -3.385 h -1.033 v 7.2 H 1.11 C 2.239,1.011 3,0.253 3,-0.909 3,-1.768 2.647,-2.399 1.966,-2.652 L 3,-6.189 H 1.942 Z"
         style="fill:#000000;fill-opacity:1;fill-rule:nonzero;stroke:none"
         transform="matrix(1.3333333,0,0,-1.3333333,244.5756,305.15947)" />
      <path
         id="path316"
         d="M 0,0 H 1.039 L 0.507,2.072 Z m 1.291,-1.011 h -1.544 l -0.481,-1.97 h -1.039 l 1.798,7.2 h 1.014 l 1.798,-7.2 H 1.798 Z"
         style="fill:#000000;fill-opacity:1;fill-rule:nonzero;stroke:none"
         transform="matrix(1.3333333,0,0,-1.3333333,251.80453,309.43747)" />
      <path
         id="path317"
         d="m 0,0 -1.827,7.2 h 1.04 L 0.407,2.525 1.598,7.2 H 2.639 L 0.787,0 Z"
         style="fill:#000000;fill-opacity:1;fill-rule:nonzero;stroke:none"
         transform="matrix(1.3333333,0,0,-1.3333333,258.59893,313.41173)" />
      <path
         id="path318"
         d="M 0,0 H 3.395 V -1.011 H 1.039 V -2.83 H 2.533 V -3.815 H 1.039 V -6.19 H 3.674 V -7.2 H 0 Z"
         style="fill:#000000;fill-opacity:1;fill-rule:nonzero;stroke:none"
         transform="matrix(1.3333333,0,0,-1.3333333,263.46133,303.81187)" />
      <path
         id="path319"
         d="M 0,0 H 1.039 V -6.24 H 3.674 V -7.2 H 0 Z"
         style="fill:#000000;fill-opacity:1;fill-rule:nonzero;stroke:none"
         transform="matrix(1.3333333,0,0,-1.3333333,269.99187,303.81187)" />
      <path
         id="path320"
         d="m 0,0 c -0.205,0 -1.133,0.042 -1.133,-2.705 0,-2.768 0.928,-2.726 1.133,-2.726 0.205,0 1.132,-0.042 1.132,2.726 C 1.132,0.042 0.205,0 0,0 m -2.125,-2.7 c 0,3.77 1.749,3.71 2.137,3.71 0.388,0 2.113,0.057 2.113,-3.713 0,-3.797 -1.725,-3.737 -2.113,-3.737 -0.388,0 -2.137,-0.06 -2.137,3.74"
         style="fill:#000000;fill-opacity:1;fill-rule:nonzero;stroke:none"
         transform="matrix(1.3333333,0,0,-1.3333333,252.27333,320.35147)" />
      <path
         id="path321"
         d="m 0,0 v -4.825 h -1.033 v 7.2 H 0 l 1.966,-4.32 v 4.32 h 1.035 v -7.2 H 2.219 Z"
         style="fill:#000000;fill-opacity:1;fill-rule:nonzero;stroke:none"
         transform="matrix(1.3333333,0,0,-1.3333333,258.4044,322.33867)" />
    </g>
    <g
       id="g321"
       transform="matrix(0.26458333,0,0,0.26458333,36.801036,64.717472)">
      <path
         id="path322"
         d="m 0,0 c 0.787,-0.494 1.968,-1.186 1.968,-2.607 0,-1.166 -0.888,-2.096 -2.004,-2.096 -1.268,0 -2.029,1.072 -2.029,2.248 h 1.015 c 0,-0.613 0.304,-1.239 1.014,-1.239 0.558,0 1.014,0.505 1.014,1.087 0,1.565 -2.688,1.475 -2.688,3.486 0,1.036 0.812,1.869 1.851,1.869 1.015,0 1.802,-0.783 1.827,-1.87 H 0.978 C 0.953,1.383 0.598,1.712 0.141,1.712 -0.341,1.712 -0.721,1.359 -0.721,0.879 -0.721,0.411 -0.472,0.296 0,0"
         style="fill:#000000;fill-opacity:1;fill-rule:nonzero;stroke:none"
         transform="matrix(1.3333333,0,0,-1.3333333,231.25907,338.02867)" />
      <path
         id="path323"
         d="M 0,0 H -1.967 V -3.259 H -3 v 7.2 h 1.033 v -2.93 h 1.966 v 2.93 h 1.034 v -7.2 H 0 Z"
         style="fill:#000000;fill-opacity:1;fill-rule:nonzero;stroke:none"
         transform="matrix(1.3333333,0,0,-1.3333333,239.51613,339.78667)" />
      <path
         id="path324"
         d="m 0,0 c -0.205,0 -1.133,0.042 -1.133,-2.705 0,-2.768 0.928,-2.726 1.133,-2.726 0.205,0 1.132,-0.042 1.132,2.726 C 1.132,0.042 0.205,0 0,0 m -2.125,-2.7 c 0,3.77 1.749,3.71 2.137,3.71 0.388,0 2.113,0.057 2.113,-3.713 0,-3.797 -1.725,-3.737 -2.113,-3.737 -0.388,0 -2.137,-0.06 -2.137,3.74"
         style="fill:#000000;fill-opacity:1;fill-rule:nonzero;stroke:none"
         transform="matrix(1.3333333,0,0,-1.3333333,245.6472,335.71147)" />
      <path
         id="path325"
         d="m 0,0 v 5.107 h 1.033 v -5.178 c 0,-0.678 0.396,-1.138 1.008,-1.138 0.554,0 0.959,0.455 0.959,1.138 V 5.107 H 4.034 V -0.015 C 4.034,-1.653 2.768,-2.219 2.041,-2.219 1.376,-2.219 0,-1.786 0,0"
         style="fill:#000000;fill-opacity:1;fill-rule:nonzero;stroke:none"
         transform="matrix(1.3333333,0,0,-1.3333333,250.40053,341.34187)" />
      <path
         id="path326"
         d="M 0,0 H 1.039 V -6.24 H 3.674 V -7.2 H 0 Z"
         style="fill:#000000;fill-opacity:1;fill-rule:nonzero;stroke:none"
         transform="matrix(1.3333333,0,0,-1.3333333,257.89107,334.53187)" />
      <path
         id="path327"
         d="m 0,0 h -0.807 v -5.179 h 0.718 c 0.842,0 1.273,0.369 1.273,2.552 C 1.184,-0.097 0.553,0 0,0 m -1.84,-6.189 v 7.2 h 2.054 c 0.439,0 1.979,-0.022 1.979,-3.588 0,-3.262 -1.422,-3.612 -1.893,-3.612 z"
         style="fill:#000000;fill-opacity:1;fill-rule:nonzero;stroke:none"
         transform="matrix(1.3333333,0,0,-1.3333333,266.58733,335.87947)" />
      <path
         id="path328"
         d="M 0,0 H 3.395 V -1.011 H 1.039 V -2.83 H 2.533 V -3.815 H 1.039 V -6.19 H 3.674 V -7.2 H 0 Z"
         style="fill:#000000;fill-opacity:1;fill-rule:nonzero;stroke:none"
         transform="matrix(1.3333333,0,0,-1.3333333,271.43187,334.53187)" />
      <path
         id="path329"
         d="m 0,0 v -1.819 h 1.058 c 0.607,0 0.934,0.329 0.934,0.91 C 1.992,-0.353 1.614,0 1.059,0 Z M 0.984,-2.804 H 0 v -3.385 h -1.033 v 7.2 H 1.11 C 2.239,1.011 3,0.253 3,-0.909 3,-1.768 2.647,-2.399 1.966,-2.652 L 3,-6.189 H 1.942 Z"
         style="fill:#000000;fill-opacity:1;fill-rule:nonzero;stroke:none"
         transform="matrix(1.3333333,0,0,-1.3333333,279.33987,335.87947)" />
    </g>
  </g>
</svg>
