<?xml version="1.0" encoding="UTF-8" standalone="no"?>
<svg
   id="R4-7"
   width="2.7062497in"
   height="1.8062502in"
   viewBox="0 0 194.84998 130.05002"
   version="1.1"
   xml:space="preserve"
   xmlns="http://www.w3.org/2000/svg"
   xmlns:svg="http://www.w3.org/2000/svg"><defs
     id="defs5" /><style
     type="text/css"
     id="style1">
	.st0{fill:#FFFFFF;}
	.st1{fill:#BF311A;}
</style><g
     id="g12"
     transform="matrix(0.75,0,0,0.75,6.5206979e-5,3.7673491e-5)">
	<g
   id="g2">
		<path
   class="st0"
   d="M 11,173.2 C 5,173.2 0.1,168.3 0.1,162.3 V 11.1 C 0.1,5 5,0.1 11,0.1 h 237.6 c 6,0 10.9,4.9 10.9,10.9 v 151.2 c 0,6 -4.9,10.9 -10.9,10.9 H 11 Z"
   id="path1" />
		<path
   d="m 248.6,0.2 c 5.9,0 10.8,4.9 10.8,10.8 v 151.2 c 0,5.9 -4.9,10.8 -10.8,10.8 H 11.1 C 5.2,173 0.3,168.1 0.3,162.2 V 11.1 C 0.3,5.2 5.2,0.3 11.1,0.3 h 237.5 m 0,-0.3 H 11.1 C 5,0 0,5 0,11.1 v 151.2 c 0,6.1 5,11.1 11.1,11.1 h 237.6 c 6.1,0 11.1,-5 11.1,-11.1 V 11.1 C 259.7,5 254.7,0 248.6,0 Z"
   id="path2" />
	</g>
	<path
   class="st1"
   d="m 11,169.5 c -4,0 -7.2,-3.2 -7.2,-7.2 V 11.1 C 3.8,7.1 7,3.9 11,3.9 h 237.6 c 4,0 7.2,3.2 7.2,7.2 v 151.2 c 0,4 -3.2,7.2 -7.2,7.2 z"
   id="path3" />
	<g
   id="g8"
   transform="translate(-11.437167,-74.553386)"><path
   style="font-size:80px;font-family:'Roadgeek 2014 Series D';-inkscape-font-specification:'Roadgeek 2014 Series D';fill:#ffffff"
   d="m 83.365844,107.59345 -6.72,45.71429 H 70.20013 l -7.268571,-29.34857 -7.04,29.34857 h -6.445715 l -6.72,-45.71429 h 7.451429 l 3.52,24.09143 5.714286,-24.09143 h 7.131428 l 5.851429,24.09143 3.52,-24.09143 z m 37.942876,45.71429 h -7.81714 l -7.45143,-19.88572 h -8.640003 v 19.88572 H 90.223004 V 107.59345 H 105.263 q 5.16572,0 8.22858,1.46286 2.97142,1.50857 4.89142,4.70857 1.96572,3.2 1.96572,6.67429 0,3.61143 -1.96572,6.85714 -1.92,3.24571 -5.07428,4.70857 z m -8.22857,-32.86857 q 0,-3.29143 -2.83429,-4.8 -1.50857,-0.86857 -4.20571,-0.86857 h -8.640003 v 11.29142 h 8.640003 q 2.83428,0 4.20571,-0.77714 2.83429,-1.46286 2.83429,-4.84571 z m 47.49711,10.10285 q 0,5.57715 -1.32571,10.56 -1.28,4.98286 -3.61143,7.90858 -3.74857,5.07428 -11.10857,5.07428 -4.75429,0 -7.95429,-1.96571 -3.2,-1.96572 -5.21143,-6.17143 -3.2,-6.26286 -3.2,-15.40572 0,-11.52 4.98286,-18.56 3.97714,-5.16571 11.65714,-5.16571 8.45715,0 12.70858,8.18286 3.06285,6.30857 3.06285,15.54285 z m -7.22285,0 q 0,-8.22857 -2.74286,-12.84571 -1.87429,-3.29143 -5.94286,-3.52 -5.07428,-0.22857 -7.36,5.62286 -1.73714,4.29714 -1.73714,10.74285 0,8.36572 2.69714,12.66286 2.05714,3.52 6.26286,3.52 4.75428,0 7.04,-5.80571 1.78286,-4.57143 1.78286,-10.37715 z m 48.36568,22.76572 h -6.44571 l -17.46286,-30.94857 v 30.94857 h -7.17714 v -45.71429 h 7.17714 l 16.68572,29.21143 v -29.21143 h 7.22285 z m 41.18862,-13.62286 q 0,6.17143 -4.11428,10.28572 -4.06857,4.11428 -10.37715,4.11428 -5.16571,0 -8.36571,-1.96571 -3.2,-1.96572 -5.25714,-6.30857 -3.06286,-6.26286 -3.01715,-15.26858 0,-5.48571 1.37143,-10.51428 1.41715,-5.02857 3.79429,-8.04572 4.20571,-5.16571 11.65714,-5.16571 5.30286,0 8.68572,2.33143 3.38285,2.33143 5.62285,7.77143 l -6.85714,2.69714 q -1.50857,-2.97143 -3.15429,-4.20571 -1.64571,-1.23429 -4.29714,-1.23429 -5.48571,0 -7.68,5.62286 -1.73714,4.29714 -1.73714,10.74285 0,8 2.19428,12.52572 2.05715,3.70286 6.26286,3.65714 3.42857,0 5.71429,-1.96571 2.28571,-1.96572 2.28571,-5.07429 v -1.96571 h -8.32 v -7.17715 h 15.58857 z"
   id="text10"
   aria-label="WRONG" />
		
		
		
		
		
	</g>
	
<g
   id="g11"
   transform="translate(-15.249555,3.8123888)"><path
   style="font-size:80px;font-family:'Roadgeek 2014 Series D';-inkscape-font-specification:'Roadgeek 2014 Series D';fill:#ffffff"
   d="m 124.87852,95.73269 -6.72,45.71429 h -6.44571 l -7.26857,-29.34858 -7.040001,29.34858 h -6.445714 l -6.72,-45.71429 h 7.451428 l 3.52,24.09143 5.714287,-24.09143 h 7.13143 l 5.85143,24.09143 3.52,-24.09143 z m 41.41716,45.71429 h -7.68 l -4.52571,-12.84572 h -14.26286 l -4.48,12.84572 h -7.72571 l 15.72571,-45.71429 h 7.22286 z m -14.72,-20.20572 -4.52571,-12.84571 -4.61714,12.84571 z m 56.5028,-25.50857 -15.81714,25.82857 v 19.88572 h -7.26857 V 121.56126 L 169.03848,95.73269 h 8.59429 l 10.97143,17.69143 11.01714,-17.69143 z"
   id="text11"
   aria-label="WAY" />
		
		
		
		
		
	</g></g></svg>
