<?xml version="1.0" encoding="UTF-8" standalone="no"?>
<!-- Created with Inkscape (http://www.inkscape.org/) -->

<svg
   width="37.194065mm"
   height="26.617788mm"
   viewBox="0 0 37.194065 26.617788"
   version="1.1"
   id="svg1"
   inkscape:version="1.3 (0e150ed, 2023-07-21)"
   sodipodi:docname="MUTCD_R3-8xb.svg"
   xmlns:inkscape="http://www.inkscape.org/namespaces/inkscape"
   xmlns:sodipodi="http://sodipodi.sourceforge.net/DTD/sodipodi-0.dtd"
   xmlns="http://www.w3.org/2000/svg"
   xmlns:svg="http://www.w3.org/2000/svg">
  <sodipodi:namedview
     id="namedview1"
     pagecolor="#ffffff"
     bordercolor="#666666"
     borderopacity="1.0"
     inkscape:showpageshadow="2"
     inkscape:pageopacity="0.0"
     inkscape:pagecheckerboard="0"
     inkscape:deskcolor="#d1d1d1"
     inkscape:document-units="mm"
     inkscape:zoom="1"
     inkscape:cx="114"
     inkscape:cy="40"
     inkscape:window-width="1440"
     inkscape:window-height="449"
     inkscape:window-x="0"
     inkscape:window-y="23"
     inkscape:window-maximized="0"
     inkscape:current-layer="layer1" />
  <defs
     id="defs1">
    <clipPath
       clipPathUnits="userSpaceOnUse"
       id="clipPath584">
      <path
         d="M 21.29,60.838 H 545.711 V 743 H 21.29 Z"
         transform="translate(-286.5844,-120.6121)"
         id="path584" />
    </clipPath>
    <clipPath
       clipPathUnits="userSpaceOnUse"
       id="clipPath586">
      <path
         d="M 21.29,60.838 H 545.711 V 743 H 21.29 Z"
         transform="translate(-382.14811,-195.93861)"
         id="path586" />
    </clipPath>
    <clipPath
       clipPathUnits="userSpaceOnUse"
       id="clipPath588">
      <path
         d="M 21.29,60.838 H 545.711 V 743 H 21.29 Z"
         transform="translate(-286.58431,-121.9858)"
         id="path588" />
    </clipPath>
    <clipPath
       clipPathUnits="userSpaceOnUse"
       id="clipPath590">
      <path
         d="M 21.29,60.838 H 545.711 V 743 H 21.29 Z"
         transform="translate(-286.58431,-123.8596)"
         id="path590" />
    </clipPath>
    <clipPath
       clipPathUnits="userSpaceOnUse"
       id="clipPath592">
      <path
         d="M 21.29,60.838 H 545.711 V 743 H 21.29 Z"
         id="path592" />
    </clipPath>
    <clipPath
       clipPathUnits="userSpaceOnUse"
       id="clipPath594">
      <path
         d="M 21.29,60.838 H 545.711 V 743 H 21.29 Z"
         transform="translate(-303.87841,-174.1107)"
         id="path594" />
    </clipPath>
    <clipPath
       clipPathUnits="userSpaceOnUse"
       id="clipPath596">
      <path
         d="M 21.29,60.838 H 545.711 V 743 H 21.29 Z"
         transform="translate(-316.87741,-142.5991)"
         id="path596" />
    </clipPath>
    <clipPath
       clipPathUnits="userSpaceOnUse"
       id="clipPath598">
      <path
         d="M 21.29,60.838 H 545.711 V 743 H 21.29 Z"
         transform="translate(-364.85401,-174.1107)"
         id="path598" />
    </clipPath>
    <clipPath
       clipPathUnits="userSpaceOnUse"
       id="clipPath600">
      <path
         d="M 21.29,60.838 H 545.711 V 743 H 21.29 Z"
         transform="translate(-351.85501,-142.5991)"
         id="path600" />
    </clipPath>
    <clipPath
       clipPathUnits="userSpaceOnUse"
       id="clipPath602">
      <path
         d="M 21.29,60.838 H 545.711 V 743 H 21.29 Z"
         transform="translate(-339.80021,-128.8564)"
         id="path602" />
    </clipPath>
    <clipPath
       clipPathUnits="userSpaceOnUse"
       id="clipPath604">
      <path
         d="M 21.29,60.838 H 545.711 V 743 H 21.29 Z"
         id="path604" />
    </clipPath>
    <clipPath
       clipPathUnits="userSpaceOnUse"
       id="clipPath606">
      <path
         d="M 21.29,60.838 H 545.711 V 743 H 21.29 Z"
         transform="translate(-335.28891,-166.90881)"
         id="path606" />
    </clipPath>
    <clipPath
       clipPathUnits="userSpaceOnUse"
       id="clipPath608">
      <path
         d="M 21.29,60.838 H 545.711 V 743 H 21.29 Z"
         transform="translate(-328.37601,-161.0373)"
         id="path608" />
    </clipPath>
    <clipPath
       clipPathUnits="userSpaceOnUse"
       id="clipPath610">
      <path
         d="M 21.29,60.838 H 545.711 V 743 H 21.29 Z"
         transform="translate(-340.29031,-146.9698)"
         id="path610" />
    </clipPath>
    <clipPath
       clipPathUnits="userSpaceOnUse"
       id="clipPath612">
      <path
         d="M 21.29,60.838 H 545.711 V 743 H 21.29 Z"
         transform="translate(-294.87381,-132.60411)"
         id="path612" />
    </clipPath>
    <clipPath
       clipPathUnits="userSpaceOnUse"
       id="clipPath614">
      <path
         d="M 21.29,60.838 H 545.711 V 743 H 21.29 Z"
         transform="translate(-298.0996,-134.37411)"
         id="path614" />
    </clipPath>
    <clipPath
       clipPathUnits="userSpaceOnUse"
       id="clipPath616">
      <path
         d="M 21.29,60.838 H 545.711 V 743 H 21.29 Z"
         transform="translate(-305.12521,-137.60061)"
         id="path616" />
    </clipPath>
    <clipPath
       clipPathUnits="userSpaceOnUse"
       id="clipPath618">
      <path
         d="M 21.29,60.838 H 545.711 V 743 H 21.29 Z"
         transform="translate(-316.88381,-127.6075)"
         id="path618" />
    </clipPath>
    <clipPath
       clipPathUnits="userSpaceOnUse"
       id="clipPath620">
      <path
         d="M 21.29,60.838 H 545.711 V 743 H 21.29 Z"
         transform="translate(-355.46001,-132.60411)"
         id="path620" />
    </clipPath>
    <clipPath
       clipPathUnits="userSpaceOnUse"
       id="clipPath622">
      <path
         d="M 21.29,60.838 H 545.711 V 743 H 21.29 Z"
         transform="translate(-358.68581,-134.37411)"
         id="path622" />
    </clipPath>
    <clipPath
       clipPathUnits="userSpaceOnUse"
       id="clipPath624">
      <path
         d="M 21.29,60.838 H 545.711 V 743 H 21.29 Z"
         transform="translate(-365.71141,-137.6007)"
         id="path624" />
    </clipPath>
    <clipPath
       clipPathUnits="userSpaceOnUse"
       id="clipPath626">
      <path
         d="M 21.29,60.838 H 545.711 V 743 H 21.29 Z"
         transform="translate(-377.47001,-127.6075)"
         id="path626" />
    </clipPath>
  </defs>
  <g
     inkscape:label="Layer 1"
     inkscape:groupmode="layer"
     id="layer1"
     transform="translate(-61.912499,-112.44791)">
    <path
       id="path583"
       d="m 0,0 c -2.652,0 -4.81,2.157 -4.81,4.809 v 65.583 c 0,2.652 2.158,4.809 4.81,4.809 h 95.563 c 2.653,0 4.81,-2.157 4.81,-4.809 V 4.809 C 100.373,2.157 98.216,0 95.563,0 Z"
       style="fill:#ffffff;fill-opacity:1;fill-rule:nonzero;stroke:none"
       transform="matrix(0.35277776,0,0,-0.35277776,63.653209,139.02143)"
       clip-path="url(#clipPath584)" />
    <path
       id="path585"
       d="m 0,0 h -95.564 c -2.721,0 -4.934,-2.214 -4.934,-4.934 v -65.583 c 0,-2.721 2.213,-4.935 4.934,-4.935 H 0 c 2.721,0 4.934,2.214 4.934,4.935 V -4.934 C 4.934,-2.214 2.721,0 0,0 m 0,-0.25 c 2.587,0 4.684,-2.097 4.684,-4.684 v -65.583 c 0,-2.588 -2.097,-4.685 -4.684,-4.685 h -95.564 c -2.587,0 -4.684,2.097 -4.684,4.685 v 65.583 c 0,2.587 2.097,4.684 4.684,4.684 z"
       style="fill:#000000;fill-opacity:1;fill-rule:nonzero;stroke:none"
       transform="matrix(0.35277776,0,0,-0.35277776,97.365959,112.44791)"
       clip-path="url(#clipPath586)" />
    <path
       id="path587"
       d="m 0,0 c -1.894,0 -3.435,1.541 -3.435,3.435 v 65.583 c 0,1.895 1.541,3.436 3.435,3.436 h 95.564 c 1.894,0 3.435,-1.541 3.435,-3.436 V 3.435 C 98.999,1.541 97.458,0 95.564,0 Z"
       style="fill:#000000;fill-opacity:1;fill-rule:nonzero;stroke:none"
       transform="matrix(0.35277776,0,0,-0.35277776,63.653174,138.53682)"
       clip-path="url(#clipPath588)" />
    <path
       id="path589"
       d="m 0,0 c -0.861,0 -1.561,0.701 -1.561,1.561 v 65.583 c 0,0.861 0.7,1.562 1.561,1.562 h 95.564 c 0.861,0 1.561,-0.701 1.561,-1.562 V 1.561 C 97.125,0.701 96.425,0 95.564,0 Z"
       style="fill:#ffffff;fill-opacity:1;fill-rule:nonzero;stroke:none"
       transform="matrix(0.35277776,0,0,-0.35277776,63.653174,137.87578)"
       clip-path="url(#clipPath590)" />
    <path
       id="path591"
       d="m 345.609,122.357 h -22.486 v 71.712 h 22.486 z"
       style="fill:#000000;fill-opacity:1;fill-rule:nonzero;stroke:none"
       transform="matrix(0.35277776,0,0,-0.35277776,-37.447397,181.57069)"
       clip-path="url(#clipPath592)" />
    <path
       id="path593"
       d="M 0,0 C 0.209,0.045 0.433,0.029 0.646,-0.059 1.203,-0.29 1.468,-0.93 1.237,-1.487 1.185,-1.614 1.111,-1.726 1.022,-1.82 l -4.399,-4.686 -0.203,-6.423 c -0.004,-0.13 -0.03,-0.261 -0.083,-0.388 -0.231,-0.558 -0.87,-0.823 -1.428,-0.592 -0.212,0.088 -0.382,0.236 -0.498,0.415 l -7.021,10.813 z"
       style="fill:#000000;fill-opacity:1;fill-rule:nonzero;stroke:none"
       transform="matrix(0.35277776,0,0,-0.35277776,69.754148,120.14831)"
       clip-path="url(#clipPath594)" />
    <path
       id="path595"
       d="m 0,0 h -5.621 v 9.369 c 0,2.418 -0.71,4.758 -2.053,6.768 -1.344,2.01 -3.234,3.562 -5.468,4.487 l -5.753,2.383 2.151,5.194 5.753,-2.384 c 3.265,-1.352 6.028,-3.619 7.99,-6.557 C -1.038,16.322 0,12.902 0,9.369 Z"
       style="fill:#000000;fill-opacity:1;fill-rule:nonzero;stroke:none"
       transform="matrix(0.35277776,0,0,-0.35277776,74.339907,131.2649)"
       clip-path="url(#clipPath596)" />
    <path
       id="path597"
       d="m 0,0 c -0.209,0.045 -0.433,0.029 -0.646,-0.059 -0.557,-0.231 -0.822,-0.871 -0.591,-1.428 0.052,-0.127 0.126,-0.239 0.215,-0.333 l 4.399,-4.686 0.203,-6.423 c 0.004,-0.13 0.03,-0.261 0.083,-0.388 0.231,-0.558 0.87,-0.823 1.428,-0.592 0.212,0.088 0.382,0.236 0.498,0.415 l 7.021,10.813 z"
       style="fill:#000000;fill-opacity:1;fill-rule:nonzero;stroke:none"
       transform="matrix(0.35277776,0,0,-0.35277776,91.264985,120.14831)"
       clip-path="url(#clipPath598)" />
    <path
       id="path599"
       d="m 0,0 h 5.621 v 9.369 c 0,2.418 0.71,4.758 2.053,6.768 1.344,2.01 3.234,3.562 5.468,4.487 l 5.753,2.383 -2.151,5.194 -5.753,-2.384 C 7.726,24.465 4.963,22.198 3.001,19.26 1.038,16.322 0,12.902 0,9.369 Z"
       style="fill:#000000;fill-opacity:1;fill-rule:nonzero;stroke:none"
       transform="matrix(0.35277776,0,0,-0.35277776,86.679226,131.2649)"
       clip-path="url(#clipPath600)" />
    <path
       id="path601"
       d="M 0,0 C -1.197,0 -2.211,0.783 -2.558,1.865 L -0.17,2.379 C -0.12,2.351 -0.062,2.335 0,2.335 c 0.194,0 0.351,0.157 0.351,0.351 0,0.169 -0.12,0.31 -0.279,0.343 L -1.396,4.98 C -0.989,5.229 -0.511,5.372 0,5.372 1.483,5.372 2.686,4.169 2.686,2.686 2.686,1.202 1.483,0 0,0 m -2.686,2.686 c 0,0.782 0.335,1.486 0.868,1.977 L -0.459,2.857 -2.668,2.381 c -0.012,0.1 -0.018,0.202 -0.018,0.305 m -0.596,-0.437 -1.05,-0.226 1.219,4.361 0.919,-1.22 C -2.879,4.558 -3.31,3.672 -3.31,2.686 c 0,-0.148 0.009,-0.294 0.028,-0.437 m -1.495,0.14 -0.163,0.62 h 0.254 V 3.258 H -5.49 V 3.009 h 0.32 L -5.008,2.394 -8.469,6.16 c 0.056,0.179 0.114,0.364 0.171,0.548 H -3.57 Z M -8.182,2.686 C -8.182,1.202 -9.385,0 -10.868,0 c -1.483,0 -2.686,1.202 -2.686,2.686 0,1.483 1.203,2.686 2.686,2.686 0.527,0 1.019,-0.153 1.434,-0.415 -0.33,-0.716 -0.973,-1.486 -1.437,-1.921 -0.192,-10e-4 -0.348,-0.158 -0.348,-0.35 0,-0.194 0.157,-0.351 0.351,-0.351 0.179,0 0.326,0.134 0.348,0.308 0.227,0.212 0.523,0.524 0.815,0.899 0.218,0.279 0.49,0.664 0.696,1.082 0.51,-0.489 0.827,-1.177 0.827,-1.938 M 0,5.996 c -0.652,0 -1.261,-0.189 -1.773,-0.514 l -1.161,1.542 0.153,0.544 c 0.727,0.063 1.129,0.34 1.105,0.607 C -1.7,8.434 -2.422,8.24 -3.225,8.23 -3.445,8.227 -4.613,8.232 -4.606,8.018 -4.599,7.798 -3.852,7.619 -3.329,7.569 L -3.422,7.236 h -4.714 c 0.101,0.328 0.192,0.63 0.263,0.865 0.061,0.2 0.106,0.351 0.129,0.426 l -0.343,0.262 0.162,0.164 h 1.263 V 9.369 H -8.099 L -8.715,8.745 -8.32,8.443 c -0.183,-0.606 -0.615,-2.03 -0.895,-2.888 -0.487,0.28 -1.051,0.441 -1.653,0.441 -1.828,0 -3.31,-1.482 -3.31,-3.31 0,-1.829 1.482,-3.311 3.31,-3.311 1.828,0 3.31,1.482 3.31,3.311 0,1.029 -0.469,1.948 -1.205,2.555 0.034,0.103 0.071,0.217 0.111,0.34 L -5.09,1.704 C -5.091,1.693 -5.092,1.683 -5.092,1.673 c 0,-0.21 0.167,-0.381 0.375,-0.388 l 0.25,-0.948 h -0.255 v -0.25 h 0.804 v 0.25 h -0.32 l -0.264,1.005 c 0.054,0.032 0.099,0.078 0.132,0.133 l 1.199,0.258 C -2.762,0.369 -1.497,-0.625 0,-0.625 c 1.828,0 3.31,1.482 3.31,3.311 0,1.828 -1.482,3.31 -3.31,3.31"
       style="fill:#ffffff;fill-opacity:1;fill-rule:nonzero;stroke:none"
       transform="matrix(0.35277776,0,0,-0.35277776,82.42656,136.11302)"
       clip-path="url(#clipPath602)" />
    <path
       id="path603"
       d="m 340.29,146.97 h -2.811 v 20.297 h 2.811 z"
       style="fill:#ffffff;fill-opacity:1;fill-rule:nonzero;stroke:none"
       transform="matrix(0.35277776,0,0,-0.35277776,-37.447397,181.57069)"
       clip-path="url(#clipPath604)" />
    <path
       id="path605"
       d="m 0,0 c -0.051,-0.075 -0.082,-0.166 -0.082,-0.264 0,-0.259 0.21,-0.469 0.469,-0.469 0.053,0 0.105,0.01 0.152,0.026 l 3.127,1.068 3.126,-1.068 c 0.048,-0.016 0.1,-0.026 0.153,-0.026 0.259,0 0.469,0.21 0.469,0.469 0,0.098 -0.031,0.189 -0.082,0.264 L 3.666,5.357 Z"
       style="fill:#ffffff;fill-opacity:1;fill-rule:nonzero;stroke:none"
       transform="matrix(0.35277776,0,0,-0.35277776,80.835075,122.68898)"
       clip-path="url(#clipPath606)" />
    <path
       id="path607"
       d="m 0,0 c 0.032,-0.085 0.089,-0.162 0.169,-0.218 0.212,-0.149 0.504,-0.097 0.653,0.115 0.031,0.044 0.052,0.091 0.066,0.14 L 1.807,3.21 4.475,5.159 C 4.516,5.189 4.553,5.225 4.584,5.269 4.732,5.481 4.68,5.773 4.469,5.921 4.388,5.978 4.296,6.005 4.205,6.006 l -6.491,0.07 z"
       style="fill:#ffffff;fill-opacity:1;fill-rule:nonzero;stroke:none"
       transform="matrix(0.35277776,0,0,-0.35277776,78.396358,124.76031)"
       clip-path="url(#clipPath608)" />
    <path
       id="path609"
       d="m 0,0 h -2.811 v 3.376 c 0,4.431 -2.167,8.594 -5.797,11.136 l -3.412,2.389 1.612,2.303 3.412,-2.39 C -2.615,13.747 0,8.723 0,3.376 Z"
       style="fill:#ffffff;fill-opacity:1;fill-rule:nonzero;stroke:none"
       transform="matrix(0.35277776,0,0,-0.35277776,82.599457,129.72302)"
       clip-path="url(#clipPath610)" />
    <path
       id="path611"
       d="m 0,0 c 0,-0.358 0.076,-5.171 -3.55,-5.171 -3.626,0 -3.55,4.813 -3.55,5.171 0,0.359 -0.076,5.17 3.55,5.17 C 0.076,5.17 0,0.359 0,0 m -3.533,-3.56 c 1.077,0 1.952,1.021 1.952,3.56 0,2.54 -0.875,3.56 -1.952,3.56 -1.076,0 -1.951,-1.019 -1.951,-3.56 0,-2.539 0.875,-3.56 1.951,-3.56"
       style="fill:#000000;fill-opacity:1;fill-rule:nonzero;stroke:none"
       transform="matrix(0.35277776,0,0,-0.35277776,66.577526,134.79091)"
       clip-path="url(#clipPath612)" />
    <path
       id="path613"
       d="M 0,0 V -6.767 H -1.577 V 3.227 H 0 L 3.647,-3.155 V 3.227 H 5.226 V -6.767 H 3.824 Z"
       style="fill:#000000;fill-opacity:1;fill-rule:nonzero;stroke:none"
       transform="matrix(0.35277776,0,0,-0.35277776,67.715515,134.1665)"
       clip-path="url(#clipPath614)" />
    <path
       id="path615"
       d="M 0,0 H 1.576 V -8.52 H 6.198 V -9.993 H 0 Z"
       style="fill:#000000;fill-opacity:1;fill-rule:nonzero;stroke:none"
       transform="matrix(0.35277776,0,0,-0.35277776,70.193992,133.02826)"
       clip-path="url(#clipPath616)" />
    <path
       id="path617"
       d="M 0,0 H -1.586 V 4.348 L -5.11,9.993 h 1.903 L -0.811,6.136 1.621,9.993 H 3.489 L 0,4.348 Z"
       style="fill:#000000;fill-opacity:1;fill-rule:nonzero;stroke:none"
       transform="matrix(0.35277776,0,0,-0.35277776,74.342163,136.5536)"
       clip-path="url(#clipPath618)" />
    <path
       id="path619"
       d="m 0,0 c 0,-0.358 0.076,-5.171 -3.55,-5.171 -3.626,0 -3.55,4.813 -3.55,5.171 0,0.359 -0.076,5.17 3.55,5.17 C 0.076,5.17 0,0.359 0,0 m -3.533,-3.56 c 1.077,0 1.952,1.021 1.952,3.56 0,2.54 -0.875,3.56 -1.952,3.56 -1.076,0 -1.951,-1.019 -1.951,-3.56 0,-2.539 0.875,-3.56 1.951,-3.56"
       style="fill:#000000;fill-opacity:1;fill-rule:nonzero;stroke:none"
       transform="matrix(0.35277776,0,0,-0.35277776,87.950991,134.79091)"
       clip-path="url(#clipPath620)" />
    <path
       id="path621"
       d="M 0,0 V -6.767 H -1.577 V 3.227 H 0 L 3.647,-3.155 V 3.227 H 5.226 V -6.767 H 3.824 Z"
       style="fill:#000000;fill-opacity:1;fill-rule:nonzero;stroke:none"
       transform="matrix(0.35277776,0,0,-0.35277776,89.08898,134.1665)"
       clip-path="url(#clipPath622)" />
    <path
       id="path623"
       d="M 0,0 H 1.577 V -8.521 H 6.198 V -9.993 H 0 Z"
       style="fill:#000000;fill-opacity:1;fill-rule:nonzero;stroke:none"
       transform="matrix(0.35277776,0,0,-0.35277776,91.567456,133.02822)"
       clip-path="url(#clipPath624)" />
    <path
       id="path625"
       d="M 0,0 H -1.586 V 4.348 L -5.11,9.993 h 1.903 L -0.811,6.136 1.621,9.993 H 3.489 L 0,4.348 Z"
       style="fill:#000000;fill-opacity:1;fill-rule:nonzero;stroke:none"
       transform="matrix(0.35277776,0,0,-0.35277776,95.715628,136.5536)"
       clip-path="url(#clipPath626)" />
  </g>
</svg>
