<?xml version="1.0" encoding="UTF-8" standalone="no"?>
<svg
   xmlns:dc="http://purl.org/dc/elements/1.1/"
   xmlns:cc="http://creativecommons.org/ns#"
   xmlns:rdf="http://www.w3.org/1999/02/22-rdf-syntax-ns#"
   xmlns:svg="http://www.w3.org/2000/svg"
   xmlns="http://www.w3.org/2000/svg"
   xmlns:sodipodi="http://sodipodi.sourceforge.net/DTD/sodipodi-0.dtd"
   xmlns:inkscape="http://www.inkscape.org/namespaces/inkscape"
   sodipodi:docname="R10-3cL.svg"
   inkscape:version="1.0rc1 (09960d6f05, 2020-04-09)"
   id="svg8264"
   version="1.1"
   viewBox="0 0 23.21172 30.889927"
   height="30.889927mm"
   width="23.21172mm">
  <defs
     id="defs8258">
    <clipPath
       clipPathUnits="userSpaceOnUse"
       id="clipPath958">
      <path
         d="M 63.125,61.226 H 576.393 V 738 H 63.125 Z"
         id="path956"
         inkscape:connector-curvature="0" />
    </clipPath>
  </defs>
  <sodipodi:namedview
     inkscape:window-maximized="1"
     inkscape:window-y="0"
     inkscape:window-x="0"
     inkscape:window-height="836"
     inkscape:window-width="1600"
     showgrid="false"
     inkscape:document-rotation="0"
     inkscape:current-layer="g954"
     inkscape:document-units="mm"
     inkscape:cy="58.374665"
     inkscape:cx="43.864667"
     inkscape:zoom="3.959798"
     inkscape:pageshadow="2"
     inkscape:pageopacity="0.0"
     borderopacity="1.0"
     bordercolor="#666666"
     pagecolor="#ffffff"
     id="base" />
  <metadata
     id="metadata8261">
    <rdf:RDF>
      <cc:Work
         rdf:about="">
        <dc:format>image/svg+xml</dc:format>
        <dc:type
           rdf:resource="http://purl.org/dc/dcmitype/StillImage" />
        <dc:title></dc:title>
      </cc:Work>
    </rdf:RDF>
  </metadata>
  <g
     transform="translate(-143.36438,-81.316937)"
     id="layer1"
     inkscape:groupmode="layer"
     inkscape:label="Layer 1">
    <g
       transform="matrix(0.35277777,0,0,-0.35277777,-4.2701901,186.58406)"
       id="g952">
      <g
         id="g954"
         clip-path="url(#clipPath958)">
        <g
           id="g960"
           transform="translate(476.7827,298.145)">
          <path
             d="m 0,0 h -50.785 c -4.008,0 -7.256,-3.248 -7.256,-7.255 v -72.553 c 0,-4.006 3.248,-7.254 7.256,-7.254 H 0 c 4.008,0 7.256,3.248 7.256,7.254 V -7.255 C 7.256,-3.248 4.008,0 0,0"
             style="fill:#ffffff;fill-opacity:1;fill-rule:nonzero;stroke:none"
             id="path962"
             inkscape:connector-curvature="0" />
        </g>
        <g
           id="g964"
           transform="translate(476.7827,298.145)">
          <path
             d="m 0,0 h -50.785 c -4.008,0 -7.256,-3.248 -7.256,-7.255 v -72.553 c 0,-4.006 3.248,-7.254 7.256,-7.254 H 0 c 4.008,0 7.256,3.248 7.256,7.254 V -7.255 C 7.256,-3.248 4.008,0 0,0 Z"
             style="fill:none;stroke:#231f20;stroke-width:0.5;stroke-linecap:butt;stroke-linejoin:miter;stroke-miterlimit:4;stroke-dasharray:none;stroke-opacity:1"
             id="path966"
             inkscape:connector-curvature="0" />
        </g>
        <g
           id="g968"
           transform="translate(479.9897,294.0961)">
          <path
             d="m 0,0 c -0.857,0.857 -1.996,1.328 -3.207,1.328 h -50.785 c -1.213,0 -2.352,-0.471 -3.207,-1.328 -0.858,-0.856 -1.328,-1.995 -1.328,-3.206 v -72.553 c 0,-1.211 0.47,-2.349 1.328,-3.206 0.855,-0.856 1.994,-1.328 3.207,-1.328 h 50.785 c 1.211,0 2.35,0.472 3.207,1.328 0.855,0.857 1.328,1.995 1.328,3.206 V -3.206 C 1.328,-1.995 0.855,-0.856 0,0"
             style="fill:#231f20;fill-opacity:1;fill-rule:nonzero;stroke:none"
             id="path970"
             inkscape:connector-curvature="0" />
        </g>
        <path
           d="m 424.183,236.476 h 54.414 v 17.412 h -54.414 z"
           style="fill:#ffffff;fill-opacity:1;fill-rule:nonzero;stroke:none"
           id="path972"
           inkscape:connector-curvature="0" />
        <path
           d="m 424.183,255.339 h 54.414 v 17.412 h -54.414 z"
           style="fill:#ffffff;fill-opacity:1;fill-rule:nonzero;stroke:none"
           id="path974"
           inkscape:connector-curvature="0" />
        <g
           id="g976"
           transform="translate(478.5967,290.89)">
          <path
             d="M 0,0 C 0,0.653 -0.334,1.084 -0.531,1.282 -0.73,1.481 -1.16,1.814 -1.814,1.814 h -50.785 c -0.654,0 -1.084,-0.333 -1.283,-0.532 C -54.082,1.084 -54.414,0.653 -54.414,0 V -16.687 H 0 Z"
             style="fill:#ffffff;fill-opacity:1;fill-rule:nonzero;stroke:none"
             id="path978"
             inkscape:connector-curvature="0" />
        </g>
        <g
           id="g980"
           transform="translate(424.1827,218.337)">
          <path
             d="M 0,0 C 0,-0.653 0.332,-1.084 0.532,-1.282 0.731,-1.48 1.161,-1.813 1.815,-1.813 H 52.6 c 0.654,0 1.084,0.333 1.283,0.531 0.197,0.198 0.531,0.629 0.531,1.282 V 16.688 H 0 Z"
             style="fill:#ffffff;fill-opacity:1;fill-rule:nonzero;stroke:none"
             id="path982"
             inkscape:connector-curvature="0" />
        </g>
        <g
           id="g984"
           transform="translate(444.2397,287.016)">
          <path
             d="m 0,0 c -0.131,-0.115 -0.316,-0.186 -0.531,-0.186 -0.574,0 -0.875,0.372 -0.903,1.088 h 0.53 c 0,-0.157 0.015,-0.214 0.043,-0.3 0.043,-0.158 0.172,-0.258 0.33,-0.258 0.201,0 0.33,0.157 0.33,0.416 0,0.357 -0.129,0.659 -0.445,1.031 -0.186,0.215 -0.315,0.373 -0.358,0.431 -0.23,0.271 -0.33,0.558 -0.33,0.845 0,0.559 0.344,0.96 0.832,0.96 0.502,0 0.774,-0.315 0.83,-0.96 h -0.529 c -0.016,0.315 -0.102,0.445 -0.287,0.445 -0.201,0 -0.315,-0.173 -0.315,-0.445 0,-0.186 0.071,-0.33 0.285,-0.559 C -0.072,2.006 0,1.906 0.129,1.649 0.242,1.39 0.328,1.046 0.328,0.76 0.328,0.473 0.199,0.172 0,0"
             style="fill:#231f20;fill-opacity:1;fill-rule:nonzero;stroke:none"
             id="path986"
             inkscape:connector-curvature="0" />
        </g>
        <g
           id="g988"
           transform="translate(445.9157,290.4561)">
          <path
             d="M 0,0 V -3.555 H -0.516 V 0 H -1.018 V 0.53 H 0.531 V 0 Z"
             style="fill:#231f20;fill-opacity:1;fill-rule:nonzero;stroke:none"
             id="path990"
             inkscape:connector-curvature="0" />
        </g>
        <g
           id="g992"
           transform="translate(447.8077,289.5961)">
          <path
             d="m 0,0 -0.23,-1.075 h 0.445 z m 0.559,-2.695 -0.23,1.09 h -0.672 l -0.231,-1.09 h -0.529 l 0.83,4.085 h 0.531 l 0.846,-4.085 z"
             style="fill:#231f20;fill-opacity:1;fill-rule:nonzero;stroke:none"
             id="path994"
             inkscape:connector-curvature="0" />
        </g>
        <g
           id="g996"
           transform="translate(450.2437,290.4561)">
          <path
             d="m 0,0 h -0.258 v -1.119 h 0.344 c 0.287,0 0.373,0.129 0.373,0.517 C 0.459,-0.144 0.359,0 0,0 m 0.559,-1.52 0.416,-2.035 h -0.53 l -0.459,1.906 H -0.258 V -3.555 H -0.774 V 0.53 h 0.803 c 0.631,0 0.959,-0.387 0.959,-1.147 0,-0.459 -0.129,-0.716 -0.429,-0.903"
             style="fill:#231f20;fill-opacity:1;fill-rule:nonzero;stroke:none"
             id="path998"
             inkscape:connector-curvature="0" />
        </g>
        <g
           id="g1000"
           transform="translate(452.5797,290.4561)">
          <path
             d="M 0,0 V -3.555 H -0.516 V 0 H -1.018 V 0.53 H 0.531 V 0 Z"
             style="fill:#231f20;fill-opacity:1;fill-rule:nonzero;stroke:none"
             id="path1002"
             inkscape:connector-curvature="0" />
        </g>
        <g
           id="g1004"
           transform="translate(457.2967,287.317)">
          <path
             d="m 0,0 c -0.073,-0.301 -0.36,-0.487 -0.717,-0.487 -0.416,0 -0.674,0.171 -0.803,0.545 -0.115,0.343 -0.172,0.902 -0.172,1.561 0,0.373 0.043,0.918 0.1,1.233 0.115,0.63 0.357,0.874 0.846,0.874 0.459,0 0.759,-0.287 0.802,-0.788 h -0.531 c -0.014,0.172 -0.113,0.258 -0.258,0.258 -0.185,0 -0.285,-0.129 -0.344,-0.401 -0.07,-0.33 -0.085,-0.631 -0.085,-1.176 0,-0.573 0.015,-0.816 0.085,-1.16 0.059,-0.273 0.159,-0.416 0.331,-0.416 0.185,0 0.271,0.143 0.271,0.502 H 0.056 C 0.056,0.229 0.043,0.143 0,0"
             style="fill:#231f20;fill-opacity:1;fill-rule:nonzero;stroke:none"
             id="path1006"
             inkscape:connector-curvature="0" />
        </g>
        <g
           id="g1008"
           transform="translate(458.8997,290.4561)">
          <path
             d="m 0,0 h -0.258 v -1.119 h 0.344 c 0.287,0 0.373,0.129 0.373,0.517 C 0.459,-0.144 0.36,0 0,0 m 0.561,-1.52 0.414,-2.035 h -0.53 l -0.458,1.906 H -0.258 V -3.555 H -0.773 V 0.53 H 0.029 C 0.66,0.53 0.99,0.143 0.99,-0.617 0.99,-1.076 0.862,-1.333 0.561,-1.52"
             style="fill:#231f20;fill-opacity:1;fill-rule:nonzero;stroke:none"
             id="path1010"
             inkscape:connector-curvature="0" />
        </g>
        <g
           id="g1012"
           transform="translate(461.3667,290.5131)">
          <path
             d="m 0,0 c -0.473,0 -0.416,-1.275 -0.416,-1.562 0,-0.273 -0.057,-1.591 0.416,-1.591 0.459,0 0.4,1.318 0.4,1.591 C 0.4,-1.232 0.387,0 0,0 m 0,-3.683 c -1.018,0 -0.947,1.447 -0.947,2.121 0,0.702 -0.057,2.092 0.947,2.092 1.002,0 0.945,-1.404 0.945,-2.092 0,-0.674 0.057,-2.121 -0.945,-2.121"
             style="fill:#231f20;fill-opacity:1;fill-rule:nonzero;stroke:none"
             id="path1014"
             inkscape:connector-curvature="0" />
        </g>
        <g
           id="g1016"
           transform="translate(464.2617,287.016)">
          <path
             d="m 0,0 c -0.129,-0.115 -0.315,-0.186 -0.532,-0.186 -0.572,0 -0.873,0.372 -0.902,1.088 h 0.531 c 0,-0.157 0.014,-0.214 0.043,-0.3 0.043,-0.158 0.172,-0.258 0.328,-0.258 0.201,0 0.33,0.157 0.33,0.416 0,0.357 -0.129,0.659 -0.443,1.031 -0.188,0.215 -0.316,0.373 -0.359,0.431 -0.229,0.271 -0.329,0.558 -0.329,0.845 0,0.559 0.344,0.96 0.831,0.96 0.502,0 0.773,-0.315 0.832,-0.96 h -0.532 c -0.013,0.315 -0.099,0.445 -0.287,0.445 -0.199,0 -0.314,-0.173 -0.314,-0.445 0,-0.186 0.072,-0.33 0.287,-0.559 C -0.073,2.006 0,1.906 0.128,1.649 0.244,1.39 0.33,1.046 0.33,0.76 0.33,0.473 0.201,0.172 0,0"
             style="fill:#231f20;fill-opacity:1;fill-rule:nonzero;stroke:none"
             id="path1018"
             inkscape:connector-curvature="0" />
        </g>
        <g
           id="g1020"
           transform="translate(466.4257,287.016)">
          <path
             d="m 0,0 c -0.129,-0.115 -0.317,-0.186 -0.532,-0.186 -0.572,0 -0.873,0.372 -0.902,1.088 h 0.531 c 0,-0.157 0.014,-0.214 0.043,-0.3 0.043,-0.158 0.172,-0.258 0.328,-0.258 0.201,0 0.33,0.157 0.33,0.416 0,0.357 -0.129,0.659 -0.443,1.031 -0.187,0.215 -0.316,0.373 -0.359,0.431 -0.229,0.271 -0.33,0.558 -0.33,0.845 0,0.559 0.345,0.96 0.832,0.96 0.502,0 0.773,-0.315 0.832,-0.96 h -0.532 c -0.013,0.315 -0.099,0.445 -0.287,0.445 -0.199,0 -0.314,-0.173 -0.314,-0.445 0,-0.186 0.072,-0.33 0.287,-0.559 C -0.073,2.006 0,1.906 0.128,1.649 0.244,1.39 0.33,1.046 0.33,0.76 0.33,0.473 0.201,0.172 0,0"
             style="fill:#231f20;fill-opacity:1;fill-rule:nonzero;stroke:none"
             id="path1022"
             inkscape:connector-curvature="0" />
        </g>
        <path
           d="m 467.4,290.986 h 0.516 v -4.085 H 467.4 Z"
           style="fill:#231f20;fill-opacity:1;fill-rule:nonzero;stroke:none"
           id="path1024"
           inkscape:connector-curvature="0" />
        <g
           id="g1026"
           transform="translate(470.1367,286.901)">
          <path
             d="M 0,0 -0.801,2.423 V 0 h -0.518 v 4.085 h 0.518 L -0.071,2.05 V 4.085 H 0.445 V 0 Z"
             style="fill:#231f20;fill-opacity:1;fill-rule:nonzero;stroke:none"
             id="path1028"
             inkscape:connector-curvature="0" />
        </g>
        <g
           id="g1030"
           transform="translate(473.0467,287.3021)">
          <path
             d="m 0,0 c -0.086,-0.286 -0.358,-0.472 -0.731,-0.472 -0.416,0 -0.66,0.157 -0.789,0.545 -0.129,0.372 -0.172,0.745 -0.172,1.576 0,0.817 0.043,1.175 0.188,1.562 0.129,0.372 0.371,0.53 0.773,0.53 0.459,0 0.731,-0.287 0.789,-0.788 H -0.459 C -0.487,3.125 -0.573,3.211 -0.717,3.211 -0.903,3.211 -1.032,3.082 -1.075,2.81 -1.133,2.48 -1.16,2.207 -1.16,1.649 c 0,-0.559 0.027,-0.831 0.07,-1.175 0.058,-0.273 0.158,-0.416 0.346,-0.416 0.185,0 0.285,0.172 0.285,0.444 v 0.545 h -0.243 v 0.53 h 0.76 V 0.531 C 0.058,0.344 0.029,0.129 0,0"
             style="fill:#231f20;fill-opacity:1;fill-rule:nonzero;stroke:none"
             id="path1032"
             inkscape:connector-curvature="0" />
        </g>
        <g
           id="g1034"
           transform="translate(451.4407,280.731)">
          <path
             d="M 0,0 H -0.445 L -0.832,2.294 -1.205,0 h -0.443 l -0.473,4.085 h 0.529 l 0.215,-1.892 0.33,1.892 h 0.446 l 0.328,-1.892 0.217,1.892 h 0.529 z"
             style="fill:#231f20;fill-opacity:1;fill-rule:nonzero;stroke:none"
             id="path1036"
             inkscape:connector-curvature="0" />
        </g>
        <g
           id="g1038"
           transform="translate(453.1597,282.093)">
          <path
             d="m 0,0 c 0,0 -0.027,0.101 -0.229,0.101 -0.128,0 -0.244,-0.115 -0.244,-0.474 0,-0.372 0.059,-0.545 0.274,-0.545 0.156,0 0.199,0.087 0.199,0.273 z m 0.045,-1.362 v 0.087 c -0.072,-0.087 -0.188,-0.13 -0.346,-0.13 -0.4,0 -0.687,0.445 -0.687,1.047 0,0.573 0.343,1.218 0.988,0.96 v 0.215 c 0,0.229 -0.057,0.315 -0.229,0.315 -0.214,0 -0.416,-0.272 -0.502,-0.43 l -0.128,0.645 c 0.201,0.229 0.386,0.345 0.617,0.345 0.631,0 0.76,-0.574 0.76,-1.061 v -1.993 z"
             style="fill:#231f20;fill-opacity:1;fill-rule:nonzero;stroke:none"
             id="path1040"
             inkscape:connector-curvature="0" />
        </g>
        <g
           id="g1042"
           transform="translate(455.1247,280.8751)">
          <path
             d="m 0,0 c -0.102,-0.129 -0.188,-0.187 -0.301,-0.187 -0.316,0 -0.545,0.33 -0.545,0.76 v 1.792 h -0.316 v 0.472 h 0.316 v 0.861 l 0.529,0.315 V 2.837 h 0.36 V 2.379 h -0.36 V 0.573 c 0,-0.143 0.073,-0.243 0.172,-0.243 0.086,0 0.129,0.057 0.201,0.157 z"
             style="fill:#231f20;fill-opacity:1;fill-rule:nonzero;stroke:none"
             id="path1044"
             inkscape:connector-curvature="0" />
        </g>
        <g
           id="g1046"
           transform="translate(456.1417,280.674)">
          <path
             d="m 0,0 c -0.617,0 -0.759,0.731 -0.759,1.491 0,0.831 0.07,1.62 0.759,1.62 0.401,0 0.602,-0.316 0.688,-0.775 L 0.215,2.107 C 0.2,2.351 0.143,2.551 0,2.551 c -0.3,0 -0.244,-0.846 -0.244,-1.046 0,-0.186 -0.013,-1.017 0.258,-1.017 0.115,0.013 0.172,0.243 0.201,0.472 L 0.688,0.788 C 0.588,0.329 0.401,0 0,0"
             style="fill:#231f20;fill-opacity:1;fill-rule:nonzero;stroke:none"
             id="path1048"
             inkscape:connector-curvature="0" />
        </g>
        <g
           id="g1050"
           transform="translate(458.1617,280.731)">
          <path
             d="M 0,0 V 2.05 C 0,2.352 -0.027,2.523 -0.215,2.523 -0.4,2.523 -0.414,2.279 -0.414,2.05 V 0 h -0.518 v 3.827 l 0.518,0.33 V 2.938 C -0.143,3.211 0.517,3.082 0.517,2.064 V 0 Z"
             style="fill:#231f20;fill-opacity:1;fill-rule:nonzero;stroke:none"
             id="path1052"
             inkscape:connector-curvature="0" />
        </g>
        <g
           id="g1054"
           transform="translate(461.9607,284.2861)">
          <path
             d="M 0,0 V -1.046 H 0.601 V -1.591 H 0 V -3.555 H -0.516 V 0.53 H 1.047 V 0 Z"
             style="fill:#231f20;fill-opacity:1;fill-rule:nonzero;stroke:none"
             id="path1056"
             inkscape:connector-curvature="0" />
        </g>
        <g
           id="g1058"
           transform="translate(463.7807,283.2401)">
          <path
             d="m 0,0 c -0.314,0 -0.242,-0.803 -0.242,-1.003 0,-0.187 -0.016,-1.032 0.242,-1.032 0.231,0.014 0.215,0.831 0.215,1.032 C 0.215,-0.803 0.273,0 0,0 m 0,-2.566 c -0.615,0 -0.773,0.788 -0.773,1.548 0,0.831 0.072,1.563 0.773,1.563 0.617,0 0.732,-0.702 0.732,-1.548 0,-0.76 -0.158,-1.563 -0.732,-1.563"
             style="fill:#231f20;fill-opacity:1;fill-rule:nonzero;stroke:none"
             id="path1060"
             inkscape:connector-curvature="0" />
        </g>
        <g
           id="g1062"
           transform="translate(466.0737,283.053)">
          <path
             d="M 0,0 C -0.07,0.101 -0.129,0.172 -0.215,0.172 -0.414,0.172 -0.5,-0.043 -0.5,-0.415 V -2.322 H -1.018 V 0.659 H -0.5 V 0.516 c 0.086,0.143 0.143,0.216 0.271,0.216 C -0.1,0.732 0,0.646 0.059,0.53 Z"
             style="fill:#231f20;fill-opacity:1;fill-rule:nonzero;stroke:none"
             id="path1064"
             inkscape:connector-curvature="0" />
        </g>
        <g
           id="g1066"
           transform="translate(452.4017,275.524)">
          <path
             d="m 0,0 h -0.445 l -0.731,4.085 h 0.53 l 0.431,-2.322 0.414,2.322 h 0.532 z"
             style="fill:#231f20;fill-opacity:1;fill-rule:nonzero;stroke:none"
             id="path1068"
             inkscape:connector-curvature="0" />
        </g>
        <g
           id="g1070"
           transform="translate(454.2067,278.0181)">
          <path
             d="M 0,0 C -0.172,0 -0.244,-0.186 -0.244,-0.774 H 0.258 C 0.258,-0.172 0.172,0 0,0 m -0.244,-1.305 c 0.015,-0.573 0.086,-0.716 0.273,-0.716 0.115,0 0.201,0.086 0.287,0.387 l 0.328,-0.473 c -0.099,-0.272 -0.3,-0.445 -0.543,-0.445 -0.66,0 -0.845,0.603 -0.845,1.534 0,0.946 0.172,1.577 0.759,1.577 0.745,0 0.731,-1.304 0.715,-1.864 z"
             style="fill:#231f20;fill-opacity:1;fill-rule:nonzero;stroke:none"
             id="path1072"
             inkscape:connector-curvature="0" />
        </g>
        <g
           id="g1074"
           transform="translate(456.3277,275.524)">
          <path
             d="M 0,0 V 2.05 C 0,2.351 -0.027,2.522 -0.215,2.522 -0.4,2.522 -0.416,2.279 -0.416,2.05 V 0 h -0.516 v 3.827 l 0.516,0.329 V 2.938 C -0.143,3.211 0.516,3.082 0.516,2.064 V 0 Z"
             style="fill:#231f20;fill-opacity:1;fill-rule:nonzero;stroke:none"
             id="path1076"
             inkscape:connector-curvature="0" />
        </g>
        <path
           d="m 457.461,278.505 h 0.515 v -2.981 h -0.515 z m 0.258,0.66 c -0.143,0 -0.258,0.115 -0.258,0.272 0,0.144 0.115,0.258 0.271,0.258 0.145,0 0.258,-0.114 0.258,-0.273 0,-0.142 -0.113,-0.257 -0.271,-0.257"
           style="fill:#231f20;fill-opacity:1;fill-rule:nonzero;stroke:none"
           id="path1078"
           inkscape:connector-curvature="0" />
        <g
           id="g1080"
           transform="translate(459.2807,275.4661)">
          <path
             d="m 0,0 c -0.617,0 -0.76,0.732 -0.76,1.492 0,0.831 0.073,1.619 0.76,1.619 0.4,0 0.602,-0.316 0.688,-0.774 L 0.215,2.108 C 0.201,2.351 0.143,2.552 0,2.552 c -0.301,0 -0.244,-0.846 -0.244,-1.047 0,-0.185 -0.014,-1.017 0.258,-1.017 0.115,0.014 0.172,0.244 0.201,0.473 L 0.688,0.789 C 0.588,0.33 0.4,0 0,0"
             style="fill:#231f20;fill-opacity:1;fill-rule:nonzero;stroke:none"
             id="path1082"
             inkscape:connector-curvature="0" />
        </g>
        <g
           id="g1084"
           transform="translate(460.3707,275.524)">
          <path
             d="M 0,0 V 3.842 L 0.516,4.156 V 0 Z"
             style="fill:#231f20;fill-opacity:1;fill-rule:nonzero;stroke:none"
             id="path1086"
             inkscape:connector-curvature="0" />
        </g>
        <g
           id="g1088"
           transform="translate(462.1617,278.0181)">
          <path
             d="M 0,0 C -0.172,0 -0.244,-0.186 -0.244,-0.774 H 0.258 C 0.258,-0.172 0.172,0 0,0 m -0.244,-1.305 c 0.013,-0.573 0.086,-0.716 0.271,-0.716 0.115,0 0.201,0.086 0.287,0.387 l 0.33,-0.473 C 0.545,-2.379 0.344,-2.552 0.1,-2.552 c -0.659,0 -0.846,0.603 -0.846,1.534 0,0.946 0.172,1.577 0.76,1.577 0.746,0 0.73,-1.304 0.716,-1.864 z"
             style="fill:#231f20;fill-opacity:1;fill-rule:nonzero;stroke:none"
             id="path1090"
             inkscape:connector-curvature="0" />
        </g>
        <g
           id="g1092"
           transform="translate(464.3097,275.753)">
          <path
             d="m 0,0 c -0.142,-0.186 -0.357,-0.287 -0.572,-0.287 -0.23,0 -0.416,0.058 -0.588,0.316 l 0.143,0.602 c 0.144,-0.315 0.273,-0.43 0.416,-0.43 0.187,0 0.258,0.129 0.258,0.373 0,0.115 -0.086,0.416 -0.358,0.631 -0.301,0.243 -0.459,0.444 -0.459,0.874 0,0.186 0.043,0.358 0.143,0.501 0.115,0.158 0.23,0.244 0.488,0.244 0.201,0 0.387,-0.115 0.588,-0.359 L -0.099,1.921 c -0.186,0.329 -0.272,0.43 -0.401,0.43 -0.101,0 -0.158,-0.129 -0.158,-0.258 0,-0.072 0.029,-0.172 0.086,-0.272 C -0.543,1.778 -0.5,1.72 -0.215,1.434 0.03,1.175 0.159,0.889 0.159,0.559 0.159,0.359 0.102,0.144 0,0"
             style="fill:#231f20;fill-opacity:1;fill-rule:nonzero;stroke:none"
             id="path1094"
             inkscape:connector-curvature="0" />
        </g>
        <path
           d="m 442.804,286.298 h 30.239 v -0.58 h -30.239 z"
           style="fill:#231f20;fill-opacity:1;fill-rule:evenodd;stroke:none"
           id="path1096"
           inkscape:connector-curvature="0" />
        <g
           id="g1098"
           transform="translate(447.9037,270.55)">
          <path
             d="m 0,0 c -0.043,0.445 -0.129,0.588 -0.344,0.588 h -0.33 v -3.024 h 0.33 c 0.188,0 0.287,0.129 0.344,0.429 0.016,0.144 0.043,0.603 0.043,0.961 C 0.043,-0.745 0.016,-0.287 0,0 M 0.201,-2.766 C 0.086,-2.895 -0.113,-2.967 -0.344,-2.967 h -0.845 v 4.085 h 0.845 c 0.287,0 0.489,-0.1 0.618,-0.3 C 0.373,0.659 0.459,0.387 0.488,0.129 0.545,-0.2 0.574,-0.573 0.574,-0.917 c 0,-0.961 -0.129,-1.577 -0.373,-1.849"
             style="fill:#231f20;fill-opacity:1;fill-rule:nonzero;stroke:none"
             id="path1100"
             inkscape:connector-curvature="0" />
        </g>
        <g
           id="g1102"
           transform="translate(450.0677,271.195)">
          <path
             d="m 0,0 c -0.473,0 -0.414,-1.276 -0.414,-1.562 0,-0.272 -0.059,-1.591 0.414,-1.591 0.459,0 0.402,1.319 0.402,1.591 C 0.402,-1.233 0.389,0 0,0 m 0,-3.683 c -1.017,0 -0.945,1.447 -0.945,2.121 0,0.702 -0.057,2.092 0.945,2.092 1.004,0 0.947,-1.404 0.947,-2.092 0,-0.674 0.057,-2.121 -0.947,-2.121"
             style="fill:#231f20;fill-opacity:1;fill-rule:nonzero;stroke:none"
             id="path1104"
             inkscape:connector-curvature="0" />
        </g>
        <g
           id="g1106"
           transform="translate(453.0937,267.5831)">
          <path
             d="M 0,0 -0.803,2.422 V 0 h -0.516 v 4.085 h 0.516 L -0.073,2.05 V 4.085 H 0.443 V 0 Z"
             style="fill:#231f20;fill-opacity:1;fill-rule:nonzero;stroke:none"
             id="path1108"
             inkscape:connector-curvature="0" />
        </g>
        <g
           id="g1110"
           transform="translate(454.5837,270.679)">
          <path
             d="m 0,0 -0.158,0.129 c 0.101,0.086 0.201,0.23 0.23,0.33 H 0.029 c -0.187,0 -0.301,0.114 -0.301,0.301 0,0.172 0.129,0.301 0.301,0.301 0.186,0 0.315,-0.129 0.315,-0.344 C 0.344,0.459 0.215,0.187 0,0"
             style="fill:#231f20;fill-opacity:1;fill-rule:nonzero;stroke:none"
             id="path1112"
             inkscape:connector-curvature="0" />
        </g>
        <g
           id="g1114"
           transform="translate(456.3897,271.138)">
          <path
             d="M 0,0 V -3.555 H -0.517 V 0 h -0.5 V 0.53 H 0.53 V 0 Z"
             style="fill:#231f20;fill-opacity:1;fill-rule:nonzero;stroke:none"
             id="path1116"
             inkscape:connector-curvature="0" />
        </g>
        <g
           id="g1118"
           transform="translate(460.7187,267.6981)">
          <path
             d="m 0,0 c -0.129,-0.115 -0.317,-0.186 -0.532,-0.186 -0.572,0 -0.873,0.372 -0.902,1.089 h 0.529 c 0,-0.158 0.016,-0.215 0.043,-0.301 0.043,-0.158 0.174,-0.258 0.33,-0.258 0.201,0 0.33,0.158 0.33,0.416 0,0.358 -0.129,0.659 -0.443,1.032 -0.187,0.215 -0.316,0.372 -0.359,0.429 -0.229,0.273 -0.33,0.56 -0.33,0.846 0,0.56 0.343,0.96 0.832,0.96 0.502,0 0.773,-0.314 0.832,-0.96 h -0.532 c -0.013,0.316 -0.099,0.444 -0.287,0.444 -0.199,0 -0.314,-0.171 -0.314,-0.444 0,-0.186 0.072,-0.329 0.287,-0.558 C -0.073,2.007 0,1.906 0.128,1.648 0.244,1.39 0.33,1.047 0.33,0.76 0.33,0.473 0.201,0.172 0,0"
             style="fill:#231f20;fill-opacity:1;fill-rule:nonzero;stroke:none"
             id="path1120"
             inkscape:connector-curvature="0" />
        </g>
        <g
           id="g1122"
           transform="translate(462.3937,271.138)">
          <path
             d="M 0,0 V -3.555 H -0.515 V 0 H -1.017 V 0.53 H 0.532 V 0 Z"
             style="fill:#231f20;fill-opacity:1;fill-rule:nonzero;stroke:none"
             id="path1124"
             inkscape:connector-curvature="0" />
        </g>
        <g
           id="g1126"
           transform="translate(464.2867,270.278)">
          <path
             d="M 0,0 -0.231,-1.075 H 0.215 Z M 0.558,-2.695 0.33,-1.606 h -0.674 l -0.23,-1.089 h -0.53 l 0.83,4.085 h 0.532 l 0.845,-4.085 z"
             style="fill:#231f20;fill-opacity:1;fill-rule:nonzero;stroke:none"
             id="path1128"
             inkscape:connector-curvature="0" />
        </g>
        <g
           id="g1130"
           transform="translate(466.7217,271.138)">
          <path
             d="m 0,0 h -0.257 v -1.118 h 0.343 c 0.287,0 0.373,0.129 0.373,0.516 C 0.459,-0.143 0.36,0 0,0 M 0.561,-1.519 0.975,-3.555 H 0.446 l -0.459,1.907 H -0.257 V -3.555 H -0.773 V 0.53 H 0.03 c 0.631,0 0.961,-0.386 0.961,-1.146 0,-0.459 -0.129,-0.717 -0.43,-0.903"
             style="fill:#231f20;fill-opacity:1;fill-rule:nonzero;stroke:none"
             id="path1132"
             inkscape:connector-curvature="0" />
        </g>
        <g
           id="g1134"
           transform="translate(469.0577,271.138)">
          <path
             d="M 0,0 V -3.555 H -0.515 V 0 H -1.017 V 0.53 H 0.532 V 0 Z"
             style="fill:#231f20;fill-opacity:1;fill-rule:nonzero;stroke:none"
             id="path1136"
             inkscape:connector-curvature="0" />
        </g>
        <g
           id="g1138"
           transform="translate(445.9197,264.968)">
          <path
             d="M 0,0 V -1.046 H 0.601 V -1.591 H 0 V -3.554 H -0.516 V 0.531 H 1.047 V 0 Z"
             style="fill:#231f20;fill-opacity:1;fill-rule:nonzero;stroke:none"
             id="path1140"
             inkscape:connector-curvature="0" />
        </g>
        <path
           d="m 447.123,264.395 h 0.517 v -2.981 h -0.517 z m 0.258,0.659 c -0.143,0 -0.258,0.115 -0.258,0.273 0,0.143 0.115,0.257 0.273,0.257 0.143,0 0.258,-0.114 0.258,-0.272 0,-0.143 -0.115,-0.258 -0.273,-0.258"
           style="fill:#231f20;fill-opacity:1;fill-rule:nonzero;stroke:none"
           id="path1142"
           inkscape:connector-curvature="0" />
        <g
           id="g1144"
           transform="translate(449.2437,261.4141)">
          <path
             d="M 0,0 V 2.049 C 0,2.35 -0.027,2.522 -0.215,2.522 -0.4,2.522 -0.414,2.279 -0.414,2.049 V 0 h -0.518 v 2.981 h 0.518 V 2.852 C -0.258,3.125 0.029,3.053 0.029,3.053 0.416,3.009 0.518,2.58 0.518,1.519 V 0 Z"
             style="fill:#231f20;fill-opacity:1;fill-rule:nonzero;stroke:none"
             id="path1146"
             inkscape:connector-curvature="0" />
        </g>
        <path
           d="m 450.377,264.395 h 0.515 v -2.981 h -0.515 z m 0.258,0.659 c -0.143,0 -0.258,0.115 -0.258,0.273 0,0.143 0.115,0.257 0.273,0.257 0.143,0 0.258,-0.114 0.258,-0.272 0,-0.143 -0.115,-0.258 -0.273,-0.258"
           style="fill:#231f20;fill-opacity:1;fill-rule:nonzero;stroke:none"
           id="path1148"
           inkscape:connector-curvature="0" />
        <g
           id="g1150"
           transform="translate(452.5267,261.6431)">
          <path
             d="m 0,0 c -0.142,-0.186 -0.359,-0.286 -0.574,-0.286 -0.229,0 -0.414,0.057 -0.588,0.315 l 0.145,0.602 c 0.142,-0.316 0.271,-0.43 0.416,-0.43 0.185,0 0.257,0.129 0.257,0.372 0,0.116 -0.086,0.416 -0.359,0.631 -0.301,0.243 -0.459,0.445 -0.459,0.874 0,0.187 0.045,0.359 0.145,0.502 0.115,0.157 0.228,0.244 0.486,0.244 0.201,0 0.389,-0.115 0.588,-0.358 L -0.099,1.921 c -0.188,0.329 -0.274,0.43 -0.403,0.43 -0.099,0 -0.158,-0.129 -0.158,-0.258 0,-0.071 0.029,-0.172 0.086,-0.273 0.029,-0.043 0.072,-0.1 0.359,-0.386 C 0.029,1.176 0.158,0.889 0.158,0.56 0.158,0.358 0.1,0.144 0,0"
             style="fill:#231f20;fill-opacity:1;fill-rule:nonzero;stroke:none"
             id="path1152"
             inkscape:connector-curvature="0" />
        </g>
        <g
           id="g1154"
           transform="translate(454.0167,261.4141)">
          <path
             d="M 0,0 V 2.049 C 0,2.35 -0.029,2.522 -0.214,2.522 -0.4,2.522 -0.416,2.279 -0.416,2.049 V 0 h -0.515 v 3.827 l 0.515,0.33 V 2.938 C -0.142,3.211 0.516,3.082 0.516,2.064 V 0 Z"
             style="fill:#231f20;fill-opacity:1;fill-rule:nonzero;stroke:none"
             id="path1156"
             inkscape:connector-curvature="0" />
        </g>
        <g
           id="g1158"
           transform="translate(459.1347,261.83)">
          <path
             d="m 0,0 c -0.073,-0.301 -0.358,-0.488 -0.717,-0.488 -0.416,0 -0.674,0.172 -0.803,0.545 -0.113,0.344 -0.172,0.903 -0.172,1.562 0,0.373 0.043,0.918 0.102,1.233 0.113,0.63 0.357,0.874 0.845,0.874 0.457,0 0.758,-0.287 0.801,-0.788 h -0.529 c -0.014,0.172 -0.115,0.258 -0.258,0.258 -0.187,0 -0.287,-0.129 -0.344,-0.401 -0.072,-0.331 -0.086,-0.631 -0.086,-1.176 0,-0.574 0.014,-0.817 0.086,-1.16 0.057,-0.273 0.157,-0.416 0.33,-0.416 0.186,0 0.272,0.143 0.272,0.502 H 0.056 C 0.056,0.229 0.043,0.143 0,0"
             style="fill:#231f20;fill-opacity:1;fill-rule:nonzero;stroke:none"
             id="path1160"
             inkscape:connector-curvature="0" />
        </g>
        <g
           id="g1162"
           transform="translate(460.5677,263.736)">
          <path
             d="m 0,0 c -0.072,0.1 -0.129,0.172 -0.215,0.172 -0.201,0 -0.287,-0.215 -0.287,-0.588 v -1.906 h -0.515 v 2.981 h 0.515 V 0.515 c 0.086,0.144 0.145,0.216 0.274,0.216 0.129,0 0.228,-0.087 0.285,-0.201 z"
             style="fill:#231f20;fill-opacity:1;fill-rule:nonzero;stroke:none"
             id="path1164"
             inkscape:connector-curvature="0" />
        </g>
        <g
           id="g1166"
           transform="translate(461.6717,263.922)">
          <path
             d="m 0,0 c -0.315,0 -0.244,-0.802 -0.244,-1.004 0,-0.185 -0.014,-1.031 0.244,-1.031 0.23,0.014 0.215,0.831 0.215,1.031 C 0.215,-0.802 0.273,0 0,0 m 0,-2.565 c -0.616,0 -0.774,0.788 -0.774,1.548 0,0.831 0.072,1.562 0.774,1.562 0.617,0 0.73,-0.703 0.73,-1.549 0,-0.759 -0.156,-1.561 -0.73,-1.561"
             style="fill:#231f20;fill-opacity:1;fill-rule:nonzero;stroke:none"
             id="path1168"
             inkscape:connector-curvature="0" />
        </g>
        <g
           id="g1170"
           transform="translate(463.9077,261.6431)">
          <path
             d="m 0,0 c -0.145,-0.186 -0.359,-0.286 -0.574,-0.286 -0.229,0 -0.416,0.057 -0.588,0.315 l 0.144,0.602 c 0.143,-0.316 0.272,-0.43 0.416,-0.43 0.186,0 0.258,0.129 0.258,0.372 0,0.116 -0.086,0.416 -0.359,0.631 -0.301,0.243 -0.459,0.445 -0.459,0.874 0,0.187 0.043,0.359 0.144,0.502 0.116,0.157 0.229,0.244 0.487,0.244 0.201,0 0.386,-0.115 0.588,-0.358 L -0.102,1.921 c -0.185,0.329 -0.271,0.43 -0.4,0.43 -0.1,0 -0.158,-0.129 -0.158,-0.258 0,-0.071 0.029,-0.172 0.086,-0.273 0.029,-0.043 0.072,-0.1 0.359,-0.386 C 0.029,1.176 0.158,0.889 0.158,0.56 0.158,0.358 0.1,0.144 0,0"
             style="fill:#231f20;fill-opacity:1;fill-rule:nonzero;stroke:none"
             id="path1172"
             inkscape:connector-curvature="0" />
        </g>
        <g
           id="g1174"
           transform="translate(465.4277,261.6431)">
          <path
             d="m 0,0 c -0.145,-0.186 -0.36,-0.286 -0.575,-0.286 -0.228,0 -0.416,0.057 -0.588,0.315 l 0.143,0.602 c 0.145,-0.316 0.273,-0.43 0.416,-0.43 0.188,0 0.258,0.129 0.258,0.372 0,0.116 -0.086,0.416 -0.358,0.631 -0.3,0.243 -0.459,0.445 -0.459,0.874 0,0.187 0.043,0.359 0.143,0.502 0.115,0.157 0.23,0.244 0.488,0.244 0.201,0 0.387,-0.115 0.588,-0.358 L -0.102,1.921 c -0.186,0.329 -0.272,0.43 -0.4,0.43 -0.102,0 -0.159,-0.129 -0.159,-0.258 0,-0.071 0.03,-0.172 0.086,-0.273 0.03,-0.043 0.073,-0.1 0.358,-0.386 C 0.027,1.176 0.156,0.889 0.156,0.56 0.156,0.358 0.099,0.144 0,0"
             style="fill:#231f20;fill-opacity:1;fill-rule:nonzero;stroke:none"
             id="path1176"
             inkscape:connector-curvature="0" />
        </g>
        <path
           d="m 465.986,264.395 h 0.516 v -2.981 h -0.516 z m 0.258,0.659 c -0.145,0 -0.258,0.115 -0.258,0.273 0,0.143 0.113,0.257 0.272,0.257 0.142,0 0.257,-0.114 0.257,-0.272 0,-0.143 -0.115,-0.258 -0.271,-0.258"
           style="fill:#231f20;fill-opacity:1;fill-rule:nonzero;stroke:none"
           id="path1178"
           inkscape:connector-curvature="0" />
        <g
           id="g1180"
           transform="translate(468.1067,261.4141)">
          <path
             d="m 0,0 v 2.049 c 0,0.301 -0.029,0.473 -0.215,0.473 -0.187,0 -0.201,-0.243 -0.201,-0.473 V 0 h -0.515 v 2.981 h 0.515 V 2.852 C -0.258,3.125 0.028,3.053 0.028,3.053 0.414,3.009 0.516,2.58 0.516,1.519 V 0 Z"
             style="fill:#231f20;fill-opacity:1;fill-rule:nonzero;stroke:none"
             id="path1182"
             inkscape:connector-curvature="0" />
        </g>
        <g
           id="g1184"
           transform="translate(470.0987,263.5491)">
          <path
             d="m 0,0 c 0,0.129 -0.029,0.359 -0.214,0.359 -0.215,0 -0.274,-0.416 -0.274,-1.046 0,-0.359 0.016,-0.588 0.086,-0.803 0.043,-0.129 0.115,-0.201 0.201,-0.201 C -0.072,-1.676 0,-1.404 0,-1.146 Z M 0.258,-3.224 C 0.114,-3.425 -0.015,-3.525 -0.244,-3.611 l -0.185,0.487 c 0.242,0.115 0.414,0.286 0.414,0.559 v 0.502 c -0.057,-0.086 -0.143,-0.144 -0.199,-0.144 -0.647,0 -0.776,0.861 -0.776,1.52 0,0.831 0.129,1.591 0.76,1.605 0.086,0 0.158,-0.044 0.287,-0.143 v 0.086 h 0.445 v -3.039 c 0,-0.559 -0.058,-0.788 -0.244,-1.046"
             style="fill:#231f20;fill-opacity:1;fill-rule:nonzero;stroke:none"
             id="path1186"
             inkscape:connector-curvature="0" />
        </g>
        <path
           d="m 450.312,260.292 h 0.516 v -4.085 h -0.516 z"
           style="fill:#231f20;fill-opacity:1;fill-rule:nonzero;stroke:none"
           id="path1188"
           inkscape:connector-curvature="0" />
        <g
           id="g1190"
           transform="translate(452.1327,258.714)">
          <path
             d="M 0,0 V -2.507 H -0.516 V 0 h -0.201 v 0.474 h 0.201 v 0.659 c 0,0.301 0.158,0.516 0.4,0.516 0.102,0 0.217,0 0.33,-0.071 V 1.104 C 0.158,1.204 0,1.204 0,0.947 V 0.474 H 0.23 V 0 Z"
             style="fill:#231f20;fill-opacity:1;fill-rule:nonzero;stroke:none"
             id="path1192"
             inkscape:connector-curvature="0" />
        </g>
        <g
           id="g1194"
           transform="translate(456.1167,256.321)">
          <path
             d="m 0,0 c -0.129,-0.114 -0.314,-0.187 -0.529,-0.187 -0.575,0 -0.875,0.373 -0.905,1.09 h 0.532 c 0,-0.158 0.013,-0.215 0.043,-0.301 0.043,-0.158 0.171,-0.258 0.33,-0.258 0.199,0 0.328,0.158 0.328,0.416 0,0.358 -0.129,0.659 -0.444,1.032 -0.185,0.215 -0.314,0.372 -0.357,0.429 -0.23,0.273 -0.33,0.56 -0.33,0.846 0,0.56 0.344,0.96 0.83,0.96 0.502,0 0.775,-0.314 0.832,-0.96 h -0.531 c -0.014,0.316 -0.1,0.445 -0.285,0.445 -0.202,0 -0.317,-0.172 -0.317,-0.445 0,-0.186 0.073,-0.329 0.287,-0.558 C -0.07,2.007 0,1.906 0.129,1.648 0.244,1.39 0.33,1.047 0.33,0.76 0.33,0.473 0.201,0.172 0,0"
             style="fill:#231f20;fill-opacity:1;fill-rule:nonzero;stroke:none"
             id="path1196"
             inkscape:connector-curvature="0" />
        </g>
        <g
           id="g1198"
           transform="translate(457.8077,256.35)">
          <path
             d="m 0,0 c -0.099,-0.129 -0.185,-0.186 -0.3,-0.186 -0.315,0 -0.545,0.329 -0.545,0.759 V 2.364 H -1.16 v 0.474 h 0.315 v 0.859 l 0.531,0.316 V 2.838 H 0.043 V 2.379 H -0.314 V 0.573 c 0,-0.143 0.07,-0.244 0.172,-0.244 0.086,0 0.129,0.058 0.199,0.158 z"
             style="fill:#231f20;fill-opacity:1;fill-rule:nonzero;stroke:none"
             id="path1200"
             inkscape:connector-curvature="0" />
        </g>
        <g
           id="g1202"
           transform="translate(458.9837,257.5681)">
          <path
             d="m 0,0 c 0,0 -0.029,0.1 -0.23,0.1 -0.129,0 -0.242,-0.115 -0.242,-0.472 0,-0.373 0.056,-0.545 0.271,-0.545 0.158,0 0.201,0.086 0.201,0.272 z m 0.043,-1.361 v 0.085 c -0.072,-0.085 -0.187,-0.128 -0.344,-0.128 -0.402,0 -0.689,0.444 -0.689,1.045 0,0.574 0.346,1.219 0.99,0.961 v 0.215 c 0,0.23 -0.058,0.316 -0.23,0.316 -0.215,0 -0.414,-0.273 -0.5,-0.431 l -0.131,0.646 c 0.201,0.229 0.389,0.343 0.617,0.343 0.631,0 0.76,-0.573 0.76,-1.06 v -1.992 z"
             style="fill:#231f20;fill-opacity:1;fill-rule:nonzero;stroke:none"
             id="path1204"
             inkscape:connector-curvature="0" />
        </g>
        <g
           id="g1206"
           transform="translate(461.1327,258.5281)">
          <path
             d="M 0,0 C -0.071,0.1 -0.129,0.173 -0.215,0.173 -0.414,0.173 -0.5,-0.043 -0.5,-0.415 V -2.321 H -1.018 V 0.66 H -0.5 V 0.516 c 0.086,0.144 0.142,0.215 0.271,0.215 0.129,0 0.229,-0.086 0.287,-0.2 z"
             style="fill:#231f20;fill-opacity:1;fill-rule:nonzero;stroke:none"
             id="path1208"
             inkscape:connector-curvature="0" />
        </g>
        <g
           id="g1210"
           transform="translate(462.4237,256.35)">
          <path
             d="m 0,0 c -0.1,-0.129 -0.188,-0.186 -0.301,-0.186 -0.317,0 -0.545,0.329 -0.545,0.759 v 1.791 h -0.316 v 0.474 h 0.316 v 0.859 l 0.529,0.316 V 2.838 h 0.36 V 2.379 h -0.36 V 0.573 c 0,-0.143 0.072,-0.244 0.174,-0.244 0.086,0 0.129,0.058 0.199,0.158 z"
             style="fill:#231f20;fill-opacity:1;fill-rule:nonzero;stroke:none"
             id="path1212"
             inkscape:connector-curvature="0" />
        </g>
        <g
           id="g1214"
           transform="translate(463.4277,258.701)">
          <path
             d="M 0,0 C -0.174,0 -0.245,-0.187 -0.245,-0.775 H 0.257 C 0.257,-0.173 0.171,0 0,0 m -0.245,-1.305 c 0.014,-0.573 0.086,-0.717 0.272,-0.717 0.115,0 0.201,0.086 0.287,0.387 l 0.33,-0.473 C 0.542,-2.38 0.343,-2.552 0.099,-2.552 c -0.66,0 -0.846,0.602 -0.846,1.533 0,0.946 0.172,1.577 0.76,1.577 0.744,0 0.731,-1.304 0.717,-1.863 z"
             style="fill:#231f20;fill-opacity:1;fill-rule:nonzero;stroke:none"
             id="path1216"
             inkscape:connector-curvature="0" />
        </g>
        <g
           id="g1218"
           transform="translate(465.4757,258.342)">
          <path
             d="m 0,0 c 0,0.143 -0.015,0.372 -0.201,0.372 -0.215,0 -0.258,-0.229 -0.258,-0.988 0,-0.674 0.014,-1.032 0.258,-1.032 C 0,-1.648 0,-1.333 0,-1.175 Z m 0.014,-2.135 v 0.114 C -0.072,-2.15 -0.158,-2.208 -0.3,-2.208 c -0.532,0 -0.69,0.746 -0.69,1.592 0,0.372 0.029,1.877 0.99,1.447 v 0.874 l 0.516,0.316 v -4.156 z"
             style="fill:#231f20;fill-opacity:1;fill-rule:nonzero;stroke:none"
             id="path1220"
             inkscape:connector-curvature="0" />
        </g>
        <path
           d="m 446.599,266.981 h 22.834 v -0.58 h -22.834 z"
           style="fill:#231f20;fill-opacity:1;fill-rule:evenodd;stroke:none"
           id="path1222"
           inkscape:connector-curvature="0" />
        <g
           id="g1224"
           transform="translate(447.9037,246.595)">
          <path
             d="m 0,0 c -0.043,0.445 -0.129,0.588 -0.344,0.588 h -0.33 v -3.024 h 0.33 c 0.188,0 0.287,0.129 0.344,0.43 0.016,0.143 0.043,0.602 0.043,0.96 C 0.043,-0.745 0.016,-0.286 0,0 M 0.201,-2.765 C 0.086,-2.894 -0.113,-2.967 -0.344,-2.967 h -0.845 v 4.085 h 0.845 c 0.287,0 0.489,-0.099 0.618,-0.3 C 0.373,0.66 0.459,0.388 0.488,0.13 0.545,-0.2 0.574,-0.573 0.574,-0.917 c 0,-0.96 -0.129,-1.576 -0.373,-1.848"
             style="fill:#231f20;fill-opacity:1;fill-rule:nonzero;stroke:none"
             id="path1226"
             inkscape:connector-curvature="0" />
        </g>
        <g
           id="g1228"
           transform="translate(450.0677,247.241)">
          <path
             d="m 0,0 c -0.473,0 -0.414,-1.276 -0.414,-1.563 0,-0.272 -0.059,-1.591 0.414,-1.591 0.459,0 0.402,1.319 0.402,1.591 C 0.402,-1.233 0.389,0 0,0 m 0,-3.684 c -1.017,0 -0.945,1.447 -0.945,2.121 0,0.702 -0.057,2.093 0.945,2.093 1.004,0 0.947,-1.404 0.947,-2.093 0,-0.674 0.057,-2.121 -0.947,-2.121"
             style="fill:#231f20;fill-opacity:1;fill-rule:nonzero;stroke:none"
             id="path1230"
             inkscape:connector-curvature="0" />
        </g>
        <g
           id="g1232"
           transform="translate(453.0937,243.628)">
          <path
             d="M 0,0 -0.803,2.423 V 0 h -0.516 v 4.085 h 0.516 L -0.073,2.05 V 4.085 H 0.443 V 0 Z"
             style="fill:#231f20;fill-opacity:1;fill-rule:nonzero;stroke:none"
             id="path1234"
             inkscape:connector-curvature="0" />
        </g>
        <g
           id="g1236"
           transform="translate(454.5837,246.7251)">
          <path
             d="m 0,0 -0.158,0.129 c 0.101,0.086 0.201,0.229 0.23,0.329 H 0.029 c -0.187,0 -0.301,0.115 -0.301,0.301 0,0.173 0.129,0.302 0.301,0.302 0.186,0 0.315,-0.129 0.315,-0.345 C 0.344,0.458 0.215,0.186 0,0"
             style="fill:#231f20;fill-opacity:1;fill-rule:nonzero;stroke:none"
             id="path1238"
             inkscape:connector-curvature="0" />
        </g>
        <g
           id="g1240"
           transform="translate(456.3897,247.1831)">
          <path
             d="M 0,0 V -3.555 H -0.517 V 0 h -0.5 V 0.53 H 0.53 V 0 Z"
             style="fill:#231f20;fill-opacity:1;fill-rule:nonzero;stroke:none"
             id="path1242"
             inkscape:connector-curvature="0" />
        </g>
        <g
           id="g1244"
           transform="translate(461.1047,244.044)">
          <path
             d="m 0,0 c -0.072,-0.3 -0.359,-0.487 -0.717,-0.487 -0.416,0 -0.673,0.172 -0.802,0.545 -0.116,0.344 -0.172,0.902 -0.172,1.563 0,0.372 0.043,0.917 0.099,1.232 0.116,0.63 0.36,0.874 0.846,0.874 0.459,0 0.76,-0.287 0.803,-0.788 H -0.472 C -0.488,3.111 -0.588,3.197 -0.73,3.197 -0.918,3.197 -1.017,3.068 -1.074,2.795 -1.146,2.465 -1.16,2.164 -1.16,1.621 c 0,-0.575 0.014,-0.818 0.086,-1.162 0.057,-0.272 0.156,-0.416 0.328,-0.416 0.188,0 0.274,0.144 0.274,0.502 H 0.057 C 0.057,0.23 0.043,0.144 0,0"
             style="fill:#231f20;fill-opacity:1;fill-rule:nonzero;stroke:none"
             id="path1246"
             inkscape:connector-curvature="0" />
        </g>
        <g
           id="g1248"
           transform="translate(462.3957,247.1831)">
          <path
             d="m 0,0 h -0.258 v -1.118 h 0.344 c 0.287,0 0.373,0.129 0.373,0.517 C 0.459,-0.143 0.358,0 0,0 M 0.559,-1.518 0.975,-3.555 H 0.444 l -0.459,1.907 H -0.258 V -3.555 H -0.775 V 0.53 h 0.803 c 0.63,0 0.961,-0.386 0.961,-1.146 0,-0.459 -0.129,-0.717 -0.43,-0.902"
             style="fill:#231f20;fill-opacity:1;fill-rule:nonzero;stroke:none"
             id="path1250"
             inkscape:connector-curvature="0" />
        </g>
        <g
           id="g1252"
           transform="translate(464.8607,247.241)">
          <path
             d="m 0,0 c -0.473,0 -0.416,-1.276 -0.416,-1.563 0,-0.272 -0.057,-1.591 0.416,-1.591 0.459,0 0.401,1.319 0.401,1.591 C 0.401,-1.233 0.387,0 0,0 m 0,-3.684 c -1.017,0 -0.945,1.447 -0.945,2.121 0,0.702 -0.059,2.093 0.945,2.093 1.004,0 0.945,-1.404 0.945,-2.093 0,-0.674 0.059,-2.121 -0.945,-2.121"
             style="fill:#231f20;fill-opacity:1;fill-rule:nonzero;stroke:none"
             id="path1254"
             inkscape:connector-curvature="0" />
        </g>
        <g
           id="g1256"
           transform="translate(467.7557,243.744)">
          <path
             d="m 0,0 c -0.129,-0.116 -0.315,-0.187 -0.53,-0.187 -0.574,0 -0.875,0.373 -0.904,1.089 h 0.531 c 0,-0.157 0.014,-0.215 0.043,-0.301 0.043,-0.157 0.172,-0.258 0.33,-0.258 0.2,0 0.328,0.158 0.328,0.416 0,0.359 -0.128,0.66 -0.443,1.032 -0.185,0.215 -0.314,0.373 -0.359,0.43 -0.229,0.273 -0.328,0.559 -0.328,0.846 0,0.559 0.343,0.96 0.83,0.96 0.502,0 0.775,-0.315 0.832,-0.96 h -0.532 c -0.013,0.314 -0.099,0.444 -0.285,0.444 -0.201,0 -0.316,-0.172 -0.316,-0.444 0,-0.186 0.072,-0.33 0.287,-0.56 C -0.073,2.006 0,1.906 0.129,1.648 0.244,1.389 0.33,1.046 0.33,0.759 0.33,0.472 0.201,0.172 0,0"
             style="fill:#231f20;fill-opacity:1;fill-rule:nonzero;stroke:none"
             id="path1258"
             inkscape:connector-curvature="0" />
        </g>
        <g
           id="g1260"
           transform="translate(469.9197,243.744)">
          <path
             d="m 0,0 c -0.129,-0.116 -0.315,-0.187 -0.53,-0.187 -0.574,0 -0.875,0.373 -0.904,1.089 h 0.531 c 0,-0.157 0.014,-0.215 0.043,-0.301 0.043,-0.157 0.172,-0.258 0.33,-0.258 0.2,0 0.329,0.158 0.329,0.416 0,0.359 -0.129,0.66 -0.444,1.032 -0.185,0.215 -0.316,0.373 -0.359,0.43 -0.229,0.273 -0.328,0.559 -0.328,0.846 0,0.559 0.343,0.96 0.83,0.96 0.502,0 0.775,-0.315 0.832,-0.96 h -0.531 c -0.014,0.314 -0.1,0.444 -0.286,0.444 -0.201,0 -0.316,-0.172 -0.316,-0.444 0,-0.186 0.072,-0.33 0.287,-0.56 C -0.073,2.006 0,1.906 0.129,1.648 0.244,1.389 0.33,1.046 0.33,0.759 0.33,0.472 0.201,0.172 0,0"
             style="fill:#231f20;fill-opacity:1;fill-rule:nonzero;stroke:none"
             id="path1262"
             inkscape:connector-curvature="0" />
        </g>
        <g
           id="g1264"
           transform="translate(443.6047,223.134)">
          <path
             d="M 0,0 V -3.54 H -0.588 V 0 H -1.332 V 0.545 H 0.746 V 0 Z"
             style="fill:#231f20;fill-opacity:1;fill-rule:nonzero;stroke:none"
             id="path1266"
             inkscape:connector-curvature="0" />
        </g>
        <g
           id="g1268"
           transform="translate(446.5417,222.662)">
          <path
             d="m 0,0 c -0.1,0.358 -0.258,0.516 -0.5,0.516 -0.26,0 -0.416,-0.158 -0.517,-0.502 -0.1,-0.315 -0.129,-0.588 -0.129,-1.047 0,-0.444 0.043,-0.702 0.129,-1.031 0.101,-0.345 0.257,-0.502 0.517,-0.502 0.242,0 0.4,0.157 0.5,0.502 0.102,0.329 0.129,0.573 0.129,1.046 C 0.129,-0.559 0.086,-0.301 0,0 M 0.459,-2.437 C 0.26,-2.924 -0.043,-3.139 -0.5,-3.139 c -0.488,0 -0.775,0.215 -0.975,0.702 -0.173,0.401 -0.23,0.788 -0.23,1.419 0,0.616 0.057,1.032 0.23,1.419 0.215,0.487 0.5,0.688 0.975,0.688 0.473,0 0.76,-0.201 0.959,-0.703 0.172,-0.401 0.231,-0.788 0.231,-1.404 0,-0.631 -0.059,-1.032 -0.231,-1.419"
             style="fill:#231f20;fill-opacity:1;fill-rule:nonzero;stroke:none"
             id="path1270"
             inkscape:connector-curvature="0" />
        </g>
        <g
           id="g1272"
           transform="translate(451.7017,222.5901)">
          <path
             d="m 0,0 c -0.056,0.402 -0.215,0.588 -0.486,0.588 -0.473,0 -0.647,-0.373 -0.647,-1.433 0,-1.176 0.202,-1.649 0.704,-1.649 0.343,0 0.429,0.287 0.429,0.588 H 0.588 C 0.574,-2.58 0.145,-3.067 -0.429,-3.067 c -0.875,0 -1.262,0.702 -1.262,2.207 0,1.318 0.416,2.021 1.219,2.021 0.33,0 0.617,-0.143 0.802,-0.416 C 0.489,0.544 0.545,0.372 0.588,0 Z"
             style="fill:#231f20;fill-opacity:1;fill-rule:nonzero;stroke:none"
             id="path1274"
             inkscape:connector-curvature="0" />
        </g>
        <g
           id="g1276"
           transform="translate(453.9947,223.106)">
          <path
             d="M 0,0 H -0.601 V -1.032 H 0 c 0.346,0 0.531,0.186 0.531,0.516 C 0.531,-0.2 0.317,0 0,0 m 0.502,-3.512 -0.545,1.921 H -0.601 V -3.512 H -1.189 V 0.573 H 0.03 c 0.644,0 1.076,-0.429 1.076,-1.089 0,-0.487 -0.201,-0.845 -0.588,-0.989 l 0.588,-2.007 z"
             style="fill:#231f20;fill-opacity:1;fill-rule:nonzero;stroke:none"
             id="path1278"
             inkscape:connector-curvature="0" />
        </g>
        <g
           id="g1280"
           transform="translate(457.4207,222.662)">
          <path
             d="m 0,0 c -0.1,0.358 -0.258,0.516 -0.5,0.516 -0.26,0 -0.416,-0.158 -0.518,-0.502 -0.099,-0.315 -0.128,-0.588 -0.128,-1.047 0,-0.444 0.042,-0.702 0.128,-1.031 0.102,-0.345 0.258,-0.502 0.518,-0.502 0.242,0 0.4,0.157 0.5,0.502 0.102,0.329 0.129,0.573 0.129,1.046 C 0.129,-0.559 0.086,-0.301 0,0 M 0.459,-2.437 C 0.258,-2.924 -0.043,-3.139 -0.5,-3.139 c -0.488,0 -0.775,0.215 -0.977,0.702 -0.171,0.401 -0.228,0.788 -0.228,1.419 0,0.616 0.057,1.032 0.228,1.419 0.217,0.487 0.502,0.688 0.977,0.688 0.473,0 0.758,-0.201 0.959,-0.703 0.172,-0.401 0.23,-0.788 0.23,-1.404 0,-0.631 -0.058,-1.032 -0.23,-1.419"
             style="fill:#231f20;fill-opacity:1;fill-rule:nonzero;stroke:none"
             id="path1282"
             inkscape:connector-curvature="0" />
        </g>
        <g
           id="g1284"
           transform="translate(459.8717,219.523)">
          <path
             d="m 0,0 c -0.717,0 -1.146,0.602 -1.146,1.275 h 0.574 C -0.572,0.932 -0.4,0.573 0,0.573 c 0.317,0 0.574,0.287 0.574,0.616 0,0.23 -0.086,0.402 -0.33,0.588 -0.086,0.086 0.143,-0.072 -0.687,0.488 -0.33,0.229 -0.502,0.545 -0.502,0.902 0,0.588 0.459,1.061 1.047,1.061 0.572,0 1.017,-0.444 1.031,-1.061 H 0.574 C 0.559,3.454 0.36,3.641 0.102,3.641 -0.172,3.641 -0.387,3.439 -0.387,3.167 -0.387,2.967 -0.301,2.852 0,2.681 0.789,2.222 1.133,1.777 1.133,1.189 1.133,0.53 0.631,0 0,0"
             style="fill:#231f20;fill-opacity:1;fill-rule:nonzero;stroke:none"
             id="path1286"
             inkscape:connector-curvature="0" />
        </g>
        <g
           id="g1288"
           transform="translate(462.6377,219.523)">
          <path
             d="m 0,0 c -0.715,0 -1.147,0.602 -1.147,1.275 h 0.575 c 0,-0.343 0.171,-0.702 0.572,-0.702 0.316,0 0.574,0.287 0.574,0.616 0,0.23 -0.086,0.402 -0.33,0.588 -0.086,0.086 0.144,-0.072 -0.688,0.488 -0.33,0.229 -0.502,0.545 -0.502,0.902 0,0.588 0.459,1.061 1.047,1.061 0.573,0 1.018,-0.444 1.032,-1.061 H 0.574 C 0.56,3.454 0.359,3.641 0.101,3.641 -0.172,3.641 -0.387,3.439 -0.387,3.167 -0.387,2.967 -0.301,2.852 0,2.681 0.789,2.222 1.133,1.777 1.133,1.189 1.133,0.53 0.631,0 0,0"
             style="fill:#231f20;fill-opacity:1;fill-rule:nonzero;stroke:none"
             id="path1290"
             inkscape:connector-curvature="0" />
        </g>
        <g
           id="g1292"
           transform="translate(438.8427,232.163)">
          <path
             d="M 0,0 H -0.601 V -1.162 H 0 c 0.344,0 0.53,0.215 0.53,0.588 C 0.53,-0.23 0.315,0 0,0 m 0.028,-1.72 h -0.629 v -1.792 h -0.588 v 4.085 h 1.217 c 0.646,0 1.076,-0.458 1.076,-1.147 0,-0.745 -0.387,-1.146 -1.076,-1.146"
             style="fill:#231f20;fill-opacity:1;fill-rule:nonzero;stroke:none"
             id="path1294"
             inkscape:connector-curvature="0" />
        </g>
        <g
           id="g1296"
           transform="translate(442.6397,229.153)">
          <path
             d="m 0,0 c -0.199,-0.33 -0.586,-0.573 -0.974,-0.573 -0.401,0 -0.803,0.229 -1.002,0.573 -0.116,0.215 -0.159,0.387 -0.159,0.717 v 2.866 h 0.588 V 0.644 C -1.547,0.258 -1.318,0 -0.974,0 c 0.316,0 0.545,0.258 0.545,0.644 V 3.583 H 0.158 V 0.717 C 0.158,0.387 0.115,0.215 0,0"
             style="fill:#231f20;fill-opacity:1;fill-rule:nonzero;stroke:none"
             id="path1298"
             inkscape:connector-curvature="0" />
        </g>
        <g
           id="g1300"
           transform="translate(444.6317,228.58)">
          <path
             d="m 0,0 c -0.716,0 -1.146,0.601 -1.146,1.275 h 0.574 C -0.572,0.931 -0.4,0.573 0,0.573 c 0.317,0 0.575,0.287 0.575,0.616 0,0.23 -0.086,0.401 -0.33,0.588 -0.086,0.086 0.144,-0.072 -0.688,0.487 -0.33,0.23 -0.502,0.545 -0.502,0.903 0,0.587 0.459,1.06 1.047,1.06 0.572,0 1.018,-0.443 1.031,-1.06 H 0.575 C 0.561,3.454 0.36,3.64 0.102,3.64 -0.171,3.64 -0.386,3.439 -0.386,3.167 -0.386,2.966 -0.3,2.852 0,2.679 0.789,2.221 1.133,1.777 1.133,1.189 1.133,0.53 0.631,0 0,0"
             style="fill:#231f20;fill-opacity:1;fill-rule:nonzero;stroke:none"
             id="path1302"
             inkscape:connector-curvature="0" />
        </g>
        <g
           id="g1304"
           transform="translate(448.1597,228.651)">
          <path
             d="M 0,0 V 1.849 H -1.119 V 0 h -0.588 v 4.085 h 0.588 V 2.423 H 0 V 4.085 H 0.588 V 0 Z"
             style="fill:#231f20;fill-opacity:1;fill-rule:nonzero;stroke:none"
             id="path1306"
             inkscape:connector-curvature="0" />
        </g>
        <g
           id="g1308"
           transform="translate(452.8447,230.5)">
          <path
             d="M 0,0 H -0.588 V -1.276 H 0 c 0.33,0 0.545,0.23 0.545,0.588 C 0.545,-0.301 0.301,0 0,0 M 0.03,1.663 H -0.588 V 0.574 H 0.03 c 0.271,0 0.443,0.229 0.443,0.601 0,0.344 -0.129,0.488 -0.443,0.488 m 0,-3.512 h -1.205 v 4.085 h 1.291 c 0.544,0 0.931,-0.43 0.931,-1.061 0,-0.372 -0.099,-0.545 -0.43,-0.888 0.315,-0.258 0.502,-0.602 0.502,-1.018 0,-0.616 -0.488,-1.118 -1.089,-1.118"
             style="fill:#231f20;fill-opacity:1;fill-rule:nonzero;stroke:none"
             id="path1310"
             inkscape:connector-curvature="0" />
        </g>
        <g
           id="g1312"
           transform="translate(456.7867,229.153)">
          <path
             d="m 0,0 c -0.201,-0.33 -0.588,-0.573 -0.975,-0.573 -0.4,0 -0.803,0.229 -1.004,0.573 -0.113,0.215 -0.156,0.387 -0.156,0.717 v 2.866 h 0.588 V 0.644 C -1.547,0.258 -1.319,0 -0.975,0 -0.659,0 -0.43,0.258 -0.43,0.644 V 3.583 H 0.158 V 0.717 C 0.158,0.387 0.115,0.215 0,0"
             style="fill:#231f20;fill-opacity:1;fill-rule:nonzero;stroke:none"
             id="path1314"
             inkscape:connector-curvature="0" />
        </g>
        <g
           id="g1316"
           transform="translate(458.8507,232.1911)">
          <path
             d="M 0,0 V -3.54 H -0.588 V 0 H -1.334 V 0.545 H 0.744 V 0 Z"
             style="fill:#231f20;fill-opacity:1;fill-rule:nonzero;stroke:none"
             id="path1318"
             inkscape:connector-curvature="0" />
        </g>
        <g
           id="g1320"
           transform="translate(461.1727,232.1911)">
          <path
             d="M 0,0 V -3.54 H -0.587 V 0 H -1.334 V 0.545 H 0.745 V 0 Z"
             style="fill:#231f20;fill-opacity:1;fill-rule:nonzero;stroke:none"
             id="path1322"
             inkscape:connector-curvature="0" />
        </g>
        <g
           id="g1324"
           transform="translate(464.1107,231.718)">
          <path
             d="m 0,0 c -0.1,0.359 -0.258,0.516 -0.502,0.516 -0.258,0 -0.416,-0.157 -0.516,-0.501 -0.099,-0.316 -0.129,-0.588 -0.129,-1.047 0,-0.444 0.043,-0.702 0.129,-1.031 0.1,-0.345 0.258,-0.502 0.516,-0.502 0.244,0 0.402,0.157 0.502,0.502 0.1,0.329 0.129,0.573 0.129,1.046 C 0.129,-0.558 0.086,-0.301 0,0 m 0.459,-2.436 c -0.201,-0.488 -0.502,-0.702 -0.961,-0.702 -0.486,0 -0.773,0.214 -0.975,0.702 -0.172,0.401 -0.228,0.788 -0.228,1.419 0,0.616 0.056,1.032 0.228,1.419 0.215,0.487 0.502,0.687 0.975,0.687 0.473,0 0.76,-0.2 0.961,-0.702 0.172,-0.401 0.228,-0.788 0.228,-1.404 0,-0.631 -0.056,-1.033 -0.228,-1.419"
             style="fill:#231f20;fill-opacity:1;fill-rule:nonzero;stroke:none"
             id="path1326"
             inkscape:connector-curvature="0" />
        </g>
        <g
           id="g1328"
           transform="translate(467.4637,228.651)">
          <path
             d="M 0,0 -1.261,2.738 V 0 h -0.588 v 4.085 h 0.588 L -0.142,1.634 V 4.085 H 0.446 V 0 Z"
             style="fill:#231f20;fill-opacity:1;fill-rule:nonzero;stroke:none"
             id="path1330"
             inkscape:connector-curvature="0" />
        </g>
        <g
           id="g1332"
           transform="matrix(-1,0,0,1,434.7617,228.606)">
          <path
             d="M 0,0 3.633,-2.456 0,-4.917 c -0.16,-0.108 -0.379,-0.067 -0.488,0.093 -0.072,0.107 -0.059,0.218 -0.025,0.349 l 0.32,1.067 h -37.822 v 1.902 h 37.822 l -0.313,1.049 c -0.041,0.145 -0.058,0.252 0.018,0.364 C -0.379,0.067 -0.16,0.109 0,0"
             style="fill:#231f20;fill-opacity:1;fill-rule:evenodd;stroke:none"
             id="path1334"
             inkscape:connector-curvature="0" />
        </g>
        <g
           id="g1336"
           transform="translate(429.6477,255.788)">
          <path
             d="M 0,0 V 2.031 H 0.774 V 1.766 H 0.266 V 1.218 H 0.569 V 0.954 H 0.266 V 0 Z"
             style="fill:#231f20;fill-opacity:1;fill-rule:nonzero;stroke:none"
             id="path1338"
             inkscape:connector-curvature="0" />
        </g>
        <g
           id="g1340"
           transform="translate(431.4777,255.788)">
          <path
             d="m 0,0 h -0.773 v 2.031 h 0.265 V 0.264 H 0 Z"
             style="fill:#231f20;fill-opacity:1;fill-rule:nonzero;stroke:none"
             id="path1342"
             inkscape:connector-curvature="0" />
        </g>
        <g
           id="g1344"
           transform="translate(432.2627,256.559)">
          <path
             d="M 0,0 -0.117,0.575 -0.236,0 Z M 0.432,-0.771 H 0.161 l -0.104,0.506 h -0.346 l -0.105,-0.506 h -0.272 l 0.418,2.031 h 0.264 z"
             style="fill:#231f20;fill-opacity:1;fill-rule:nonzero;stroke:none"
             id="path1346"
             inkscape:connector-curvature="0" />
        </g>
        <g
           id="g1348"
           transform="translate(433.7317,256.2161)">
          <path
             d="m 0,0 c 0,-0.123 -0.035,-0.225 -0.103,-0.306 -0.08,-0.095 -0.194,-0.143 -0.342,-0.143 -0.184,0 -0.311,0.088 -0.381,0.265 -0.027,0.072 -0.045,0.161 -0.049,0.263 h 0.266 c 0.008,-0.175 0.062,-0.263 0.164,-0.263 0.119,0 0.18,0.061 0.18,0.184 0,0.165 -0.049,0.314 -0.151,0.446 -0.092,0.105 -0.183,0.211 -0.275,0.316 -0.102,0.132 -0.153,0.28 -0.153,0.447 0,0.084 0.032,0.167 0.094,0.249 0.08,0.109 0.19,0.163 0.326,0.165 0.176,0.001 0.301,-0.077 0.371,-0.234 C -0.023,1.325 -0.006,1.246 0,1.156 h -0.265 c -0.01,0.135 -0.063,0.203 -0.159,0.203 -0.043,0 -0.08,-0.015 -0.109,-0.045 -0.029,-0.03 -0.045,-0.065 -0.045,-0.106 0,-0.117 0.051,-0.234 0.15,-0.349 C -0.246,0.648 -0.154,0.54 -0.15,0.536 -0.051,0.384 0,0.205 0,0"
             style="fill:#231f20;fill-opacity:1;fill-rule:nonzero;stroke:none"
             id="path1350"
             inkscape:connector-curvature="0" />
        </g>
        <g
           id="g1352"
           transform="translate(434.9307,255.788)">
          <path
             d="M 0,0 H -0.265 V 0.954 H -0.609 V 0 h -0.266 v 2.031 h 0.266 V 1.218 h 0.344 V 2.031 H 0 Z"
             style="fill:#231f20;fill-opacity:1;fill-rule:nonzero;stroke:none"
             id="path1354"
             inkscape:connector-curvature="0" />
        </g>
        <path
           d="m 435.642,255.788 h -0.263 v 2.031 h 0.263 z"
           style="fill:#231f20;fill-opacity:1;fill-rule:nonzero;stroke:none"
           id="path1356"
           inkscape:connector-curvature="0" />
        <g
           id="g1358"
           transform="translate(436.9626,255.788)">
          <path
             d="M 0,0 H -0.244 L -0.61,1.164 V 0 H -0.873 V 2.031 H -0.61 L -0.264,0.938 V 2.031 H 0 Z"
             style="fill:#231f20;fill-opacity:1;fill-rule:nonzero;stroke:none"
             id="path1360"
             inkscape:connector-curvature="0" />
        </g>
        <g
           id="g1362"
           transform="translate(437.8157,257.575)">
          <path
             d="m 0,0 c -0.08,0 -0.137,-0.072 -0.168,-0.213 -0.023,-0.115 -0.035,-0.302 -0.035,-0.559 0,-0.211 0.006,-0.362 0.018,-0.455 0.027,-0.211 0.089,-0.316 0.183,-0.316 0.096,0 0.143,0.082 0.143,0.247 v 0.198 H 0 v 0.265 h 0.406 v -0.463 c 0,-0.145 -0.029,-0.262 -0.087,-0.352 -0.071,-0.106 -0.178,-0.16 -0.321,-0.16 -0.187,0 -0.318,0.106 -0.388,0.317 -0.053,0.153 -0.079,0.393 -0.079,0.719 0,0.341 0.03,0.591 0.09,0.75 0.073,0.191 0.198,0.286 0.377,0.286 0.24,0 0.377,-0.131 0.408,-0.391 H 0.141 C 0.11,-0.043 0.061,0 0,0"
             style="fill:#231f20;fill-opacity:1;fill-rule:nonzero;stroke:none"
             id="path1364"
             inkscape:connector-curvature="0" />
        </g>
        <path
           d="m 426.289,290.434 h 14.508 v -14.508 h -14.508 z"
           style="fill:#231f20;fill-opacity:1;fill-rule:evenodd;stroke:none"
           id="path1366"
           inkscape:connector-curvature="0" />
        <path
           d="m 426.869,289.853 h 13.348 v -13.347 h -13.348 z"
           style="fill:#ffffff;fill-opacity:1;fill-rule:evenodd;stroke:none"
           id="path1368"
           inkscape:connector-curvature="0" />
        <g
           id="g1370"
           transform="translate(430.7887,281.003)">
          <path
             d="M 0,0 H -0.475 L -0.887,2.443 -1.283,0 H -1.756 L -2.26,4.35 h 0.565 l 0.228,-2.015 0.352,2.015 h 0.472 l 0.352,-2.015 0.228,2.015 h 0.565 z"
             style="fill:#231f20;fill-opacity:1;fill-rule:nonzero;stroke:none"
             id="path1372"
             inkscape:connector-curvature="0" />
        </g>
        <g
           id="g1374"
           transform="translate(432.7256,283.873)">
          <path
             d="M 0,0 -0.244,-1.145 H 0.229 Z M 0.596,-2.87 0.352,-1.709 H -0.367 L -0.611,-2.87 h -0.564 l 0.884,4.35 h 0.567 l 0.9,-4.35 z"
             style="fill:#231f20;fill-opacity:1;fill-rule:nonzero;stroke:none"
             id="path1376"
             inkscape:connector-curvature="0" />
        </g>
        <g
           id="g1378"
           transform="translate(434.4957,281.003)">
          <path
             d="M 0,0 V 4.35 H 0.549 V 0.504 H 1.664 V 0 Z"
             style="fill:#231f20;fill-opacity:1;fill-rule:nonzero;stroke:none"
             id="path1380"
             inkscape:connector-curvature="0" />
        </g>
        <g
           id="g1382"
           transform="translate(438.0967,281.003)">
          <path
             d="M 0,0 -0.58,2.061 -0.793,1.634 V 0 h -0.548 v 4.35 h 0.548 V 2.961 L -0.105,4.35 H 0.536 L -0.183,2.855 0.596,0 Z"
             style="fill:#231f20;fill-opacity:1;fill-rule:nonzero;stroke:none"
             id="path1384"
             inkscape:connector-curvature="0" />
        </g>
        <path
           d="m 433.547,272.304 h 0.427 v -1.941 h -0.427 z"
           style="fill:#231f20;fill-opacity:1;fill-rule:evenodd;stroke:none"
           id="path1386"
           inkscape:connector-curvature="0" />
        <g
           id="g1388"
           transform="translate(441.4547,271.844)">
          <path
             d="m 0,0 0.297,-0.254 -1.696,-1.349 -0.296,0.255 z"
             style="fill:#231f20;fill-opacity:1;fill-rule:evenodd;stroke:none"
             id="path1390"
             inkscape:connector-curvature="0" />
        </g>
        <g
           id="g1392"
           transform="translate(425.9387,271.575)">
          <path
             d="M 0,0 0.303,0.249 1.969,-1.124 1.664,-1.373 Z"
             style="fill:#231f20;fill-opacity:1;fill-rule:evenodd;stroke:none"
             id="path1394"
             inkscape:connector-curvature="0" />
        </g>
        <g
           id="g1396"
           transform="translate(441.0797,256.408)">
          <path
             d="M 0,0 0.246,0.254 -1.152,1.602 -1.397,1.348 Z"
             style="fill:#231f20;fill-opacity:1;fill-rule:evenodd;stroke:none"
             id="path1398"
             inkscape:connector-curvature="0" />
        </g>
        <g
           id="g1400"
           transform="translate(426.1187,256.677)">
          <path
             d="M 0,0 0.25,-0.25 1.623,1.123 1.375,1.373 Z"
             style="fill:#231f20;fill-opacity:1;fill-rule:evenodd;stroke:none"
             id="path1402"
             inkscape:connector-curvature="0" />
        </g>
        <path
           d="m 440.265,264.449 h 1.942 v -0.353 h -1.942 z"
           style="fill:#231f20;fill-opacity:1;fill-rule:evenodd;stroke:none"
           id="path1404"
           inkscape:connector-curvature="0" />
        <g
           id="g1406"
           transform="translate(437.2767,272.288)">
          <path
             d="m 0,0 0.387,-0.149 -0.994,-1.76 -0.389,0.149 z"
             style="fill:#231f20;fill-opacity:1;fill-rule:evenodd;stroke:none"
             id="path1408"
             inkscape:connector-curvature="0" />
        </g>
        <g
           id="g1410"
           transform="translate(430.2437,272.288)">
          <path
             d="m 0,0 -0.387,-0.149 0.994,-1.76 0.389,0.149 z"
             style="fill:#231f20;fill-opacity:1;fill-rule:evenodd;stroke:none"
             id="path1412"
             inkscape:connector-curvature="0" />
        </g>
        <g
           id="g1414"
           transform="translate(440.4307,266.908)">
          <path
             d="M 0,0 -0.15,0.32 1.61,1.14 1.76,0.821 Z"
             style="fill:#231f20;fill-opacity:1;fill-rule:evenodd;stroke:none"
             id="path1416"
             inkscape:connector-curvature="0" />
        </g>
        <g
           id="g1418"
           transform="translate(440.2807,261.0521)">
          <path
             d="M 0,0 0.15,0.321 1.91,-0.501 1.76,-0.82 Z"
             style="fill:#231f20;fill-opacity:1;fill-rule:evenodd;stroke:none"
             id="path1420"
             inkscape:connector-curvature="0" />
        </g>
        <g
           id="g1422"
           transform="translate(427.2377,266.908)">
          <path
             d="M 0,0 0.15,0.32 -1.609,1.14 -1.76,0.821 Z"
             style="fill:#231f20;fill-opacity:1;fill-rule:evenodd;stroke:none"
             id="path1424"
             inkscape:connector-curvature="0" />
        </g>
        <g
           id="g1426"
           transform="translate(427.3877,261.0521)">
          <path
             d="M 0,0 -0.15,0.321 -1.91,-0.501 -1.759,-0.82 Z"
             style="fill:#231f20;fill-opacity:1;fill-rule:evenodd;stroke:none"
             id="path1428"
             inkscape:connector-curvature="0" />
        </g>
        <path
           d="m 425.418,264.449 h 1.943 v -0.353 h -1.943 z"
           style="fill:#231f20;fill-opacity:1;fill-rule:evenodd;stroke:none"
           id="path1430"
           inkscape:connector-curvature="0" />
        <path
           d="m 427.871,269.925 h 11.607 v -11.606 h -11.607 z"
           style="fill:#231f20;fill-opacity:1;fill-rule:evenodd;stroke:none"
           id="path1432"
           inkscape:connector-curvature="0" />
        <g
           id="g1434"
           transform="translate(431.0447,266.938)">
          <path
             d="m 0,0 c -0.032,0.317 -0.094,0.42 -0.246,0.42 h -0.237 v -2.16 h 0.237 c 0.132,0 0.205,0.093 0.246,0.307 0.009,0.102 0.029,0.43 0.029,0.686 C 0.029,-0.532 0.009,-0.205 0,0 M 0.142,-1.976 C 0.06,-2.067 -0.082,-2.119 -0.246,-2.119 H -0.85 v 2.917 h 0.604 c 0.205,0 0.347,-0.071 0.439,-0.215 0.072,-0.112 0.133,-0.307 0.154,-0.491 0.041,-0.236 0.061,-0.501 0.061,-0.747 0,-0.686 -0.092,-1.126 -0.266,-1.321"
             style="fill:#f48412;fill-opacity:1;fill-rule:nonzero;stroke:none"
             id="path1436"
             inkscape:connector-curvature="0" />
        </g>
        <g
           id="g1438"
           transform="translate(432.5897,267.399)">
          <path
             d="m 0,0 c -0.338,0 -0.297,-0.911 -0.297,-1.116 0,-0.195 -0.041,-1.136 0.297,-1.136 0.328,0 0.287,0.941 0.287,1.136 C 0.287,-0.881 0.275,0 0,0 m 0,-2.631 c -0.727,0 -0.676,1.034 -0.676,1.515 0,0.502 -0.041,1.494 0.676,1.494 0.716,0 0.675,-1.003 0.675,-1.494 0,-0.481 0.041,-1.515 -0.675,-1.515"
             style="fill:#f48412;fill-opacity:1;fill-rule:nonzero;stroke:none"
             id="path1440"
             inkscape:connector-curvature="0" />
        </g>
        <g
           id="g1442"
           transform="translate(434.7497,264.819)">
          <path
             d="M 0,0 -0.574,1.73 V 0 h -0.37 v 2.917 h 0.37 L -0.053,1.464 V 2.917 H 0.316 V 0 Z"
             style="fill:#f48412;fill-opacity:1;fill-rule:nonzero;stroke:none"
             id="path1444"
             inkscape:connector-curvature="0" />
        </g>
        <g
           id="g1446"
           transform="translate(435.8027,267.03)">
          <path
             d="m 0,0 -0.112,0.093 c 0.071,0.061 0.143,0.163 0.164,0.235 H 0.021 c -0.133,0 -0.215,0.082 -0.215,0.215 0,0.123 0.092,0.215 0.215,0.215 0.133,0 0.225,-0.092 0.225,-0.246 C 0.246,0.328 0.154,0.134 0,0"
             style="fill:#f48412;fill-opacity:1;fill-rule:nonzero;stroke:none"
             id="path1448"
             inkscape:connector-curvature="0" />
        </g>
        <g
           id="g1450"
           transform="translate(437.0937,267.358)">
          <path
             d="M 0,0 V -2.539 H -0.37 V 0 H -0.727 V 0.378 H 0.378 V 0 Z"
             style="fill:#f48412;fill-opacity:1;fill-rule:nonzero;stroke:none"
             id="path1452"
             inkscape:connector-curvature="0" />
        </g>
        <g
           id="g1454"
           transform="translate(431.8257,260.4561)">
          <path
             d="M 0,0 H -0.316 L -0.592,1.636 -0.859,0 h -0.317 l -0.338,2.917 h 0.379 l 0.153,-1.352 0.236,1.352 h 0.316 l 0.237,-1.352 0.152,1.352 h 0.379 z"
             style="fill:#f48412;fill-opacity:1;fill-rule:nonzero;stroke:none"
             id="path1456"
             inkscape:connector-curvature="0" />
        </g>
        <g
           id="g1458"
           transform="translate(433.1267,262.379)">
          <path
             d="M 0,0 -0.164,-0.767 H 0.154 Z M 0.398,-1.923 0.236,-1.146 H -0.246 L -0.41,-1.923 h -0.377 l 0.591,2.917 h 0.379 l 0.604,-2.917 z"
             style="fill:#f48412;fill-opacity:1;fill-rule:nonzero;stroke:none"
             id="path1460"
             inkscape:connector-curvature="0" />
        </g>
        <g
           id="g1462"
           transform="translate(434.3137,260.4561)">
          <path
             d="M 0,0 V 2.917 H 0.369 V 0.337 H 1.115 V 0 Z"
             style="fill:#f48412;fill-opacity:1;fill-rule:nonzero;stroke:none"
             id="path1464"
             inkscape:connector-curvature="0" />
        </g>
        <g
           id="g1466"
           transform="translate(436.7297,260.4561)">
          <path
             d="M 0,0 -0.39,1.38 -0.533,1.094 V 0 h -0.369 v 2.917 h 0.369 V 1.985 l 0.461,0.932 h 0.43 L -0.123,1.914 0.399,0 Z"
             style="fill:#f48412;fill-opacity:1;fill-rule:nonzero;stroke:none"
             id="path1468"
             inkscape:connector-curvature="0" />
        </g>
        <path
           d="m 426.289,252.49 h 14.508 v -14.508 h -14.508 z"
           style="fill:#231f20;fill-opacity:1;fill-rule:evenodd;stroke:none"
           id="path1470"
           inkscape:connector-curvature="0" />
        <g
           id="g1472"
           transform="translate(430.7887,240.24)">
          <path
             d="M 0,0 H -0.475 L -0.887,2.441 -1.283,0 H -1.756 L -2.26,4.348 h 0.565 l 0.228,-2.013 0.352,2.013 h 0.472 l 0.352,-2.013 0.228,2.013 h 0.565 z"
             style="fill:#f48412;fill-opacity:1;fill-rule:nonzero;stroke:none"
             id="path1474"
             inkscape:connector-curvature="0" />
        </g>
        <g
           id="g1476"
           transform="translate(432.7256,243.1091)">
          <path
             d="M 0,0 -0.244,-1.145 H 0.229 Z M 0.596,-2.869 0.352,-1.71 h -0.719 l -0.244,-1.159 h -0.564 l 0.884,4.348 h 0.567 l 0.9,-4.348 z"
             style="fill:#f48412;fill-opacity:1;fill-rule:nonzero;stroke:none"
             id="path1478"
             inkscape:connector-curvature="0" />
        </g>
        <g
           id="g1480"
           transform="translate(434.4957,240.24)">
          <path
             d="M 0,0 V 4.348 H 0.549 V 0.503 H 1.664 V 0 Z"
             style="fill:#f48412;fill-opacity:1;fill-rule:nonzero;stroke:none"
             id="path1482"
             inkscape:connector-curvature="0" />
        </g>
        <g
           id="g1484"
           transform="translate(438.0967,240.24)">
          <path
             d="M 0,0 -0.58,2.059 -0.793,1.633 V 0 h -0.548 v 4.348 h 0.548 V 2.96 l 0.688,1.388 H 0.536 L -0.183,2.853 0.596,0 Z"
             style="fill:#f48412;fill-opacity:1;fill-rule:nonzero;stroke:none"
             id="path1486"
             inkscape:connector-curvature="0" />
        </g>
        <g
           id="g1488"
           transform="translate(429.6207,248.9621)">
          <path
             d="m 0,0 c -0.047,0.473 -0.139,0.626 -0.367,0.626 h -0.352 v -3.22 h 0.352 c 0.199,0 0.304,0.137 0.367,0.458 0.016,0.153 0.045,0.64 0.045,1.022 C 0.045,-0.794 0.016,-0.305 0,0 m 0.213,-2.945 c -0.121,-0.138 -0.336,-0.214 -0.58,-0.214 h -0.901 v 4.35 h 0.901 c 0.304,0 0.519,-0.107 0.656,-0.32 0.107,-0.168 0.199,-0.458 0.228,-0.734 0.063,-0.35 0.092,-0.747 0.092,-1.113 0,-1.023 -0.136,-1.679 -0.396,-1.969"
             style="fill:#f48412;fill-opacity:1;fill-rule:nonzero;stroke:none"
             id="path1490"
             inkscape:connector-curvature="0" />
        </g>
        <g
           id="g1492"
           transform="translate(431.9257,249.649)">
          <path
             d="m 0,0 c -0.504,0 -0.444,-1.358 -0.444,-1.663 0,-0.29 -0.06,-1.694 0.444,-1.694 0.488,0 0.425,1.404 0.425,1.694 C 0.425,-1.313 0.412,0 0,0 m 0,-3.922 c -1.084,0 -1.008,1.541 -1.008,2.259 0,0.748 -0.061,2.228 1.008,2.228 1.068,0 1.005,-1.496 1.005,-2.228 0,-0.718 0.063,-2.259 -1.005,-2.259"
             style="fill:#f48412;fill-opacity:1;fill-rule:nonzero;stroke:none"
             id="path1494"
             inkscape:connector-curvature="0" />
        </g>
        <g
           id="g1496"
           transform="translate(435.1437,245.803)">
          <path
             d="M 0,0 -0.853,2.579 V 0 h -0.551 v 4.35 h 0.551 L -0.076,2.183 V 4.35 H 0.475 V 0 Z"
             style="fill:#f48412;fill-opacity:1;fill-rule:nonzero;stroke:none"
             id="path1498"
             inkscape:connector-curvature="0" />
        </g>
        <g
           id="g1500"
           transform="translate(436.7167,249.099)">
          <path
             d="M 0,0 -0.168,0.138 C -0.061,0.23 0.046,0.382 0.076,0.489 H 0.031 c -0.199,0 -0.32,0.122 -0.32,0.321 0,0.182 0.136,0.32 0.32,0.32 0.197,0 0.336,-0.138 0.336,-0.366 C 0.367,0.489 0.228,0.199 0,0"
             style="fill:#f48412;fill-opacity:1;fill-rule:nonzero;stroke:none"
             id="path1502"
             inkscape:connector-curvature="0" />
        </g>
        <g
           id="g1504"
           transform="translate(438.6397,249.588)">
          <path
             d="M 0,0 V -3.785 H -0.55 V 0 H -1.084 V 0.565 H 0.565 V 0 Z"
             style="fill:#f48412;fill-opacity:1;fill-rule:nonzero;stroke:none"
             id="path1506"
             inkscape:connector-curvature="0" />
        </g>
      </g>
    </g>
  </g>
</svg>
