<?xml version="1.0" encoding="UTF-8" standalone="no"?>
<!-- Created with Inkscape (http://www.inkscape.org/) -->

<svg
   width="133.9944mm"
   height="166.92236mm"
   viewBox="0 0 133.9944 166.92236"
   version="1.1"
   id="svg1"
   xml:space="preserve"
   inkscape:version="1.3.2 (091e20e, 2023-11-25, custom)"
   sodipodi:docname="drawing.svg"
   xmlns:inkscape="http://www.inkscape.org/namespaces/inkscape"
   xmlns:sodipodi="http://sodipodi.sourceforge.net/DTD/sodipodi-0.dtd"
   xmlns="http://www.w3.org/2000/svg"
   xmlns:svg="http://www.w3.org/2000/svg"><sodipodi:namedview
     id="namedview1"
     pagecolor="#ffffff"
     bordercolor="#000000"
     borderopacity="0.25"
     inkscape:showpageshadow="2"
     inkscape:pageopacity="0.0"
     inkscape:pagecheckerboard="0"
     inkscape:deskcolor="#d1d1d1"
     inkscape:document-units="mm"
     inkscape:zoom="2.0686841"
     inkscape:cx="2890.4848"
     inkscape:cy="203.51101"
     inkscape:window-width="960"
     inkscape:window-height="1040"
     inkscape:window-x="0"
     inkscape:window-y="0"
     inkscape:window-maximized="0"
     inkscape:current-layer="layer1"
     showguides="true" /><defs
     id="defs1" /><g
     inkscape:label="Layer 1"
     inkscape:groupmode="layer"
     id="layer1"
     transform="translate(-484.93098,-2115.1782)"><g
       id="g46"
       transform="translate(0,2103.6883)"
       inkscape:export-filename="MUTCD R3-16 (2000-2003).svg"
       inkscape:export-xdpi="96"
       inkscape:export-ydpi="96"><path
         id="path42"
         style="color:#000000;fill:#ffffff;stroke:#000000;stroke-width:0.3;stroke-dasharray:none"
         d="m 495.09954,11.639832 c -5.48113,0 -10.01853,4.535686 -10.01853,10.016818 v 146.58702 c 0,5.48116 4.5374,10.01852 10.01853,10.01852 h 113.65907 c 5.48117,0 10.01682,-4.53736 10.01682,-10.01852 V 21.65665 c 0,-5.481132 -4.53565,-10.016818 -10.01682,-10.016818 z" /><path
         id="path43"
         style="color:#000000;fill:#000000;-inkscape-stroke:none"
         d="m 495.09784,13.826029 c -4.3084,0 -7.83156,3.521623 -7.83156,7.830013 V 168.24244 c 0,4.30839 3.52316,7.83157 7.83156,7.83157 h 113.66231 c 4.30839,0 7.83001,-3.52318 7.83001,-7.83157 V 21.656042 c 0,-4.30839 -3.52162,-7.830013 -7.83001,-7.830013 z m -4.33204,68.744125 h 122.32432 v 85.672286 c 0,2.42994 -1.90004,4.33152 -4.32997,4.33152 H 495.09784 c -2.42994,0 -4.33204,-1.90158 -4.33204,-4.33152 z" /><path
         d="m 560.93809,115.91663 7.63221,-1.24486 -4.81058,-6.24889 c -2.49362,2.17364 -2.80266,4.78377 -2.82163,7.49375 m -2.10027,0.4569 c 0,-0.27022 -0.059,-0.70579 -0.059,-1.01027 0,-3.09259 1.00048,-6.09718 3.71547,-8.59441 l -2.82807,-3.38584 -4.37466,13.35024 3.54364,-0.35932 z m -16.79672,-13.28611 0.24375,-0.74228 15.58542,-0.0222 -4.14617,12.56975 -0.17912,-1.31002 h 0.47708 l -0.0572,-0.83603 h -2.08541 l 0.0609,0.77602 h 0.53504 l 0.1197,1.43004 c 0,0 -10.49047,-11.80634 -10.55061,-11.866 m -6.90192,12.07364 c 2.09277,-1.66255 3.72137,-3.24666 4.89684,-6.41732 1.85353,1.68264 2.91178,4.11477 2.91178,6.61915 0,4.97132 -4.05453,9.02748 -9.0269,9.02748 -4.9725,0 -9.0274,-4.05616 -9.0274,-9.02748 0,-4.97266 4.0549,-9.02742 9.0274,-9.02742 1.58637,0 3.20921,0.45825 4.51642,1.23089 -0.88417,2.79766 -1.7465,4.23995 -4.47057,6.43267 -0.6616,0.0291 -1.16459,0.5592 -1.16459,1.1934 a 1.1957716,1.1957716 0 0 0 1.19214,1.19166 c 0.65655,0 1.14488,-0.5363 1.14488,-1.22303 m 26.11869,2.67388 c 1.02016,3.8045 4.65276,6.55543 8.67275,6.55543 4.97146,0 9.02637,-4.05616 9.02637,-9.02748 0,-4.97266 -4.05491,-9.02742 -9.02637,-9.02742 -1.58795,0 -3.42303,0.37403 -4.76227,1.15828 l 4.89934,6.50528 c 0.59912,0.0104 1.11984,0.54491 1.11984,1.1934 a 1.1947488,1.1947488 0 0 1 -1.1907,1.19166 1.2735122,1.2735122 0 0 1 -0.53433,-0.12364 z m -22.17581,-12.3594 3.1974,-8.82183 -1.01301,-1.728712 2.0269,-2.204693 h 4.35054 l 0.059,1.251337 h -3.81511 l -0.77321,0.83435 0.89363,1.609373 -1.12466,3.985255 h 15.61549 l 0.23996,-0.730039 c -1.25583,-0.162083 -3.42089,-0.935943 -3.93806,-1.384308 -0.51607,-0.449072 -0.0661,-0.862652 0.52412,-0.882081 3.082,-0.130913 7.66122,-0.388395 8.53196,-0.393153 0.86967,-0.0042 0.9588,0.435399 0.37648,1.071654 -0.58191,0.636236 -1.09191,1.210443 -3.29814,1.551751 l -0.59534,1.609356 3.69523,4.57681 c 1.74167,-1.05599 3.84785,-1.60595 5.89517,-1.60595 6.14068,0 11.14811,5.00778 11.14811,11.14823 0,6.14084 -5.00743,11.14829 -11.14811,11.14829 -5.05216,0 -9.49394,-3.48469 -10.79935,-8.2988 l -3.3944,0.61034 c -0.14504,0.40029 -0.48585,0.70683 -0.89135,0.94752 l 0.60626,2.8723 h 0.77574 l 0.059,0.77368 -2.44402,0.1201 v -0.83467 h 0.59803 l -0.74011,-2.86995 c -1.09764,-0.17933 -1.67315,-1.12108 -1.34585,-2.05466 l -11.0926,-12.54417 -0.49694,1.34578 c 2.6933,2.12085 4.30473,5.38728 4.30473,8.78435 0,6.14084 -5.00959,11.14826 -11.14885,11.14826 -6.14068,0 -11.14954,-5.00776 -11.14954,-11.14826 0,-6.14079 5.00886,-11.1479 11.14954,-11.1479 1.78516,0 3.61414,0.43403 5.16132,1.26054"
         style="fill:#000000;fill-opacity:1;fill-rule:evenodd;stroke:none;stroke-width:0.0807329"
         id="path44" /><path
         style="font-size:40.9716px;font-family:'Highway Gothic';-inkscape-font-specification:'Highway Gothic, Normal';text-align:center;text-anchor:middle;stroke-width:3.5"
         d="m 516.95896,163.2017 q -4.83465,0 -7.45683,-3.64648 -2.58121,-3.68744 -2.58121,-10.57067 0,-6.71934 2.58121,-10.44776 2.62218,-3.72841 7.45683,-3.72841 4.91659,0 7.45683,3.72841 2.58121,3.72842 2.58121,10.44776 0,6.88323 -2.58121,10.57067 -2.54024,3.64648 -7.45683,3.64648 z m 0,-24.05033 q -2.86801,0 -4.1791,2.74509 -1.31109,2.70413 -1.35207,7.00615 0,4.83465 1.27012,7.33391 1.31109,2.49927 4.26105,2.4583 3.11384,-0.0819 4.30202,-2.58121 1.18817,-2.49927 1.27012,-7.211 -0.082,-4.58882 -1.39304,-7.08809 -1.27012,-2.49927 -4.1791,-2.66315 z m 32.32661,23.55867 h -3.85133 l -10.48873,-18.60111 v 18.60111 h -4.34299 v -27.45097 h 4.34299 l 9.99707,17.53584 v -17.53584 h 4.34299 z m 21.10039,0 h -17.04419 v -27.45097 h 4.34299 v 23.02603 h 12.7012 z m 26.54957,-27.45097 -9.50541,15.52823 v 11.92274 h -4.34299 V 150.7873 l -9.62833,-15.52823 h 5.20339 l 6.55546,10.61164 6.6374,-10.61164 z"
         id="text44"
         aria-label="ONLY" /><path
         style="font-size:26.3553px;font-family:'Highway Gothic';-inkscape-font-specification:'Highway Gothic, Normal';text-align:center;text-anchor:middle;fill:#ffffff;stroke-width:3.5"
         d="m 532.79428,41.336102 h -3.03086 l -2.84637,-7.669393 h -3.34713 v 7.669393 h -2.79366 V 23.67805 h 6.98416 q 2.16113,0.02636 3.39983,1.581318 1.26505,1.528607 1.26505,3.373478 0,1.396831 -0.7643,2.661886 -0.7643,1.238699 -1.97665,1.79216 z M 529.658,28.711912 q 0,-1.027856 -0.63253,-1.581318 -0.60617,-0.553461 -1.37048,-0.579816 h -4.08507 v 4.348624 h 4.1905 q 0.79065,0 1.34412,-0.579816 0.55346,-0.579817 0.55346,-1.607674 z m 9.46156,12.62419 h -2.84637 V 23.67805 h 2.84637 z m 9.88323,-2.503754 q 2.37197,-0.05271 2.82001,-3.268057 h -2.71459 v -2.951794 h 5.90358 v 0.764304 q -0.0263,4.085071 -1.63402,6.193495 -1.58132,2.082069 -4.29592,2.082069 -3.18899,-0.02636 -4.87573,-2.424688 -1.66038,-2.398332 -1.66038,-6.720601 0,-4.32227 1.66038,-6.720602 1.68674,-2.398332 4.79667,-2.398332 3.82151,0.07907 5.42919,3.347123 l -2.60918,1.29141 q -0.86972,-1.818516 -2.82001,-1.844871 -1.84488,0 -2.68825,1.765805 -0.84336,1.73945 -0.84336,4.559467 0,2.820017 0.84336,4.585822 0.84337,1.73945 2.68825,1.73945 z m 20.55714,2.503754 h -2.79366 v -7.669393 h -6.43069 v 7.669393 h -2.79366 V 23.67805 h 2.79366 v 7.142286 h 6.43069 V 23.67805 h 2.79366 z m 13.52028,-15.180654 h -4.08507 v 15.180654 h -2.79366 V 26.155448 h -4.03236 V 23.67805 h 10.91109 z"
         id="text45"
         aria-label="RIGHT" /><path
         style="font-size:26.3553px;font-family:'Highway Gothic';-inkscape-font-specification:'Highway Gothic, Normal';text-align:center;text-anchor:middle;fill:#ffffff;stroke-width:3.5"
         d="m 535.33757,69.55291 h -10.9638 V 51.894858 h 2.79366 v 14.811679 h 8.17014 z m 16.7356,0 h -2.95179 l -1.73945,-4.954797 h -5.50826 l -1.73945,4.954797 h -2.97815 l 6.06172,-17.658052 h 2.79366 z m -5.69274,-7.801169 -1.73945,-4.954797 -1.79216,4.954797 z m 19.52926,7.801169 H 563.4323 L 556.68534,57.587603 V 69.55291 h -2.79366 V 51.894858 h 2.79366 l 6.43069,11.280069 V 51.894858 h 2.79366 z m 13.57299,0 h -10.9638 V 51.894858 h 10.41034 v 2.793662 h -7.61668 v 4.348625 h 5.13928 v 2.846372 h -5.13928 v 4.82302 h 8.17014 z"
         id="text46"
         aria-label="LANE" /></g></g></svg>
