<?xml version="1.0" encoding="UTF-8" standalone="no"?>
<!-- Created with Inkscape (http://www.inkscape.org/) -->

<svg
   xmlns:dc="http://purl.org/dc/elements/1.1/"
   xmlns:cc="http://creativecommons.org/ns#"
   xmlns:rdf="http://www.w3.org/1999/02/22-rdf-syntax-ns#"
   xmlns:svg="http://www.w3.org/2000/svg"
   xmlns="http://www.w3.org/2000/svg"
   xmlns:sodipodi="http://sodipodi.sourceforge.net/DTD/sodipodi-0.dtd"
   xmlns:inkscape="http://www.inkscape.org/namespaces/inkscape"
   width="158.75mm"
   height="198.4375mm"
   viewBox="0 0 158.75 198.4375"
   version="1.1"
   id="svg8"
   sodipodi:docname="MUTCD_R3-1 (1961 final).svg"
   inkscape:version="0.92.3 (2405546, 2018-03-11)">
  <defs
     id="defs2" />
  <sodipodi:namedview
     id="base"
     pagecolor="#ffffff"
     bordercolor="#666666"
     borderopacity="1.0"
     inkscape:pageopacity="0.0"
     inkscape:pageshadow="2"
     inkscape:zoom="0.35"
     inkscape:cx="195.1504"
     inkscape:cy="408.75662"
     inkscape:document-units="mm"
     inkscape:current-layer="layer1"
     showgrid="false"
     fit-margin-top="0"
     fit-margin-left="0"
     fit-margin-right="0"
     fit-margin-bottom="0"
     inkscape:window-width="1366"
     inkscape:window-height="745"
     inkscape:window-x="-8"
     inkscape:window-y="-8"
     inkscape:window-maximized="1"
     showguides="false" />
  <metadata
     id="metadata5">
    <rdf:RDF>
      <cc:Work
         rdf:about="">
        <dc:format>image/svg+xml</dc:format>
        <dc:type
           rdf:resource="http://purl.org/dc/dcmitype/StillImage" />
        <dc:title></dc:title>
      </cc:Work>
    </rdf:RDF>
  </metadata>
  <g
     inkscape:label="Layer 1"
     inkscape:groupmode="layer"
     id="layer1"
     transform="translate(0,-98.562502)">
    <rect
       style="fill:#ffffff;fill-opacity:1;stroke:#000000;stroke-width:0.26458332;stroke-miterlimit:4;stroke-dasharray:none;stroke-dashoffset:0;stroke-opacity:1"
       id="rect815"
       width="158.48541"
       height="198.17291"
       x="0.13229166"
       y="98.694794"
       rx="13.229167"
       ry="13.229167" />
    <rect
       style="fill:#000000;fill-opacity:1;stroke:none;stroke-width:0.26458335;stroke-miterlimit:4;stroke-dasharray:none;stroke-dashoffset:0;stroke-opacity:1"
       id="rect815-5"
       width="153.45834"
       height="193.14583"
       x="2.6458261"
       y="101.20834"
       rx="10.583333"
       ry="10.583333" />
    <rect
       style="fill:#ffffff;fill-opacity:1;stroke:none;stroke-width:0.26458338;stroke-miterlimit:4;stroke-dasharray:none;stroke-dashoffset:0;stroke-opacity:1"
       id="rect815-5-1"
       width="142.875"
       height="182.5625"
       x="7.9374981"
       y="106.5"
       rx="5.2916665"
       ry="5.2916665" />
    <path
       inkscape:connector-curvature="0"
       id="path937"
       style="font-style:normal;font-variant:normal;font-weight:normal;font-stretch:normal;font-size:medium;line-height:1.25;font-family:'Roadgeek 2005 Series D';-inkscape-font-specification:'Roadgeek 2005 Series D';letter-spacing:0px;word-spacing:0px;fill:#000000;fill-opacity:1;stroke:none;stroke-width:0.26458335"
       d="m 74.678997,162.69917 v -38.31502 h -6.061779 v 24.47587 l -13.95353,-24.47587 h -6.061779 v 38.31502 h 6.061779 v -25.96271 l 14.639769,25.96271 z" />
    <path
       inkscape:connector-curvature="0"
       id="path939"
       style="font-style:normal;font-variant:normal;font-weight:normal;font-stretch:normal;font-size:medium;line-height:1.25;font-family:'Roadgeek 2005 Series D';-inkscape-font-specification:'Roadgeek 2005 Series D';letter-spacing:0px;word-spacing:0px;fill:#000000;fill-opacity:1;stroke:none;stroke-width:0.26458335"
       d="m 110.14809,143.59885 c 0,-4.80367 -0.97217,-9.66453 -2.5734,-13.03854 -2.40184,-4.6893 -5.77584,-6.8624 -10.636705,-6.8624 -4.403368,0 -7.491444,1.37248 -9.778908,4.289 -2.573397,3.65994 -4.174621,9.32141 -4.174621,15.61194 0,4.57493 1.086545,9.66453 2.68777,12.92417 2.287463,4.6893 5.661473,6.86239 11.037013,6.86239 4.003061,0 7.091141,-1.37248 9.264231,-4.28899 2.68777,-3.37401 4.17462,-9.43579 4.17462,-15.49757 z m -6.06178,0 c 0,2.9737 -0.68624,6.74802 -1.48685,8.74955 -1.31529,3.37401 -3.088078,4.86086 -5.890221,4.86086 -2.459024,0 -4.060249,-0.97217 -5.261167,-2.9737 -1.486852,-2.40184 -2.287464,-6.57646 -2.287464,-10.63671 0,-3.20245 0.514679,-6.69083 1.486851,-8.9783 1.258106,-3.25963 3.088077,-4.74648 5.833033,-4.74648 0.114373,0 0.228747,0 0.34312,0 2.287464,0.17156 3.774318,0.97217 4.975238,2.9737 1.48685,2.5734 2.28746,6.46209 2.28746,10.75108 z" />
    <path
       inkscape:connector-curvature="0"
       id="path953"
       style="font-style:normal;font-variant:normal;font-weight:normal;font-stretch:normal;font-size:medium;line-height:1.25;font-family:'Roadgeek 2005 Series D';-inkscape-font-specification:'Roadgeek 2005 Series D';letter-spacing:0px;word-spacing:0px;fill:#000000;fill-opacity:1;stroke:none;stroke-width:0.26458338"
       d="m 47.278782,243.3501 v -4.55843 h -20.07652 v 4.55843 h 7.419583 v 27.93255 h 5.140366 V 243.3501 Z" />
    <path
       inkscape:connector-curvature="0"
       id="path955"
       style="font-style:normal;font-variant:normal;font-weight:normal;font-stretch:normal;font-size:medium;line-height:1.25;font-family:'Roadgeek 2005 Series D';-inkscape-font-specification:'Roadgeek 2005 Series D';letter-spacing:0px;word-spacing:0px;fill:#000000;fill-opacity:1;stroke:none;stroke-width:0.26458338"
       d="m 74.150526,259.64409 v -20.85242 h -5.140365 v 20.85242 c 0,4.21898 -2.376207,6.98314 -5.91627,6.98314 -3.540063,0 -5.916269,-2.76416 -5.916269,-6.98314 v -20.85242 h -5.140365 v 20.85242 c 0,2.52169 0.581928,4.80091 1.45482,6.74067 1.745784,3.2006 5.625305,5.47982 9.601814,5.47982 3.976509,0 7.85603,-2.27922 9.55332,-5.47982 0.921387,-1.93976 1.503315,-4.21898 1.503315,-6.74067 z" />
    <path
       inkscape:connector-curvature="0"
       id="path957"
       style="font-style:normal;font-variant:normal;font-weight:normal;font-stretch:normal;font-size:medium;line-height:1.25;font-family:'Roadgeek 2005 Series D';-inkscape-font-specification:'Roadgeek 2005 Series D';letter-spacing:0px;word-spacing:0px;fill:#000000;fill-opacity:1;stroke:none;stroke-width:0.26458338"
       d="m 103.98571,271.28265 -5.722297,-15.17862 c 3.006627,-1.35783 5.043377,-4.75241 5.043377,-8.19549 0,-3.29759 -2.03675,-6.74067 -4.897895,-8.0985 -1.600303,-0.7759 -3.297593,-1.01837 -5.819282,-1.01837 H 81.872437 v 32.49098 h 5.140365 V 257.1224 h 6.15874 l 5.237353,14.16025 z m -5.819285,-23.37411 c 0,1.35783 -0.775905,2.71567 -2.036749,3.44308 -0.824398,0.43644 -1.357832,0.53343 -2.958134,0.53343 h -6.15874 v -7.95302 h 6.15874 c 1.69729,0 2.085242,0.097 2.958134,0.58193 1.260844,0.67892 2.036749,2.03675 2.036749,3.39458 z" />
    <path
       inkscape:connector-curvature="0"
       id="path959"
       style="font-style:normal;font-variant:normal;font-weight:normal;font-stretch:normal;font-size:medium;line-height:1.25;font-family:'Roadgeek 2005 Series D';-inkscape-font-specification:'Roadgeek 2005 Series D';letter-spacing:0px;word-spacing:0px;fill:#000000;fill-opacity:1;stroke:none;stroke-width:0.26458338"
       d="m 131.54773,271.28265 v -32.49098 h -5.14036 v 20.75543 l -11.83254,-20.75543 h -5.14037 v 32.49098 h 5.14037 v -22.01628 l 12.41447,22.01628 z" />
    <path
       inkscape:connector-curvature="0"
       id="path942"
       style="font-style:normal;font-variant:normal;font-weight:normal;font-stretch:normal;font-size:medium;line-height:1.25;font-family:'Roadgeek 2005 Series D';-inkscape-font-specification:'Roadgeek 2005 Series D';letter-spacing:0px;word-spacing:0px;fill:#000000;fill-opacity:1;stroke:none;stroke-width:0.26458341"
       d="M 44.060784,218.37607 38.437435,203.4599 c 2.954641,-1.33436 4.956172,-4.67024 4.956172,-8.05378 0,-3.24058 -2.001531,-6.62412 -4.813205,-7.95847 -1.572632,-0.76249 -3.240574,-1.00077 -5.71866,-1.00077 H 22.329877 v 31.92919 h 5.051483 v -13.91541 h 6.052248 l 5.146794,13.91541 z m -5.71866,-22.96995 c 0,1.33435 -0.762488,2.66871 -2.001531,3.38354 -0.810143,0.4289 -1.334354,0.52421 -2.906985,0.52421 H 27.38136 v -7.8155 h 6.052248 c 1.667942,0 2.049186,0.0953 2.906985,0.57186 1.239043,0.66718 2.001531,2.00153 2.001531,3.33589 z" />
    <path
       inkscape:connector-curvature="0"
       id="path944"
       style="font-style:normal;font-variant:normal;font-weight:normal;font-stretch:normal;font-size:medium;line-height:1.25;font-family:'Roadgeek 2005 Series D';-inkscape-font-specification:'Roadgeek 2005 Series D';letter-spacing:0px;word-spacing:0px;fill:#000000;fill-opacity:1;stroke:none;stroke-width:0.26458341"
       d="m 54.56212,218.37607 v -31.92919 h -5.146794 v 31.92919 z" />
    <path
       inkscape:connector-curvature="0"
       id="path946"
       style="font-style:normal;font-variant:normal;font-weight:normal;font-stretch:normal;font-size:medium;line-height:1.25;font-family:'Roadgeek 2005 Series D';-inkscape-font-specification:'Roadgeek 2005 Series D';letter-spacing:0px;word-spacing:0px;fill:#000000;fill-opacity:1;stroke:none;stroke-width:0.26458341"
       d="m 83.230624,208.84497 v -6.38584 H 72.365171 v 5.05148 h 5.81397 v 1.33436 c 0,2.90698 -2.335119,4.95617 -5.575693,4.95617 -1.90622,0 -3.38354,-0.81014 -4.384306,-2.5734 -1.000765,-2.04918 -1.572631,-5.38507 -1.572631,-8.76861 0,-2.66871 0.428899,-5.57569 1.239043,-7.48191 1.096076,-2.81168 2.811674,-3.95541 5.385071,-3.95541 2.43043,0 3.81244,1.04842 5.146794,3.81244 l 4.813205,-1.90622 c -2.144497,-5.00383 -5.051483,-7.05301 -9.959999,-7.05301 -3.621818,0 -6.290526,1.23904 -8.196746,3.57416 -2.144497,2.81167 -3.574162,7.86316 -3.574162,13.00995 0,3.90775 0.762488,7.86316 2.096842,10.67483 1.90622,4.00307 4.717894,5.81397 9.5311,5.81397 5.861626,0 10.102965,-4.28899 10.102965,-10.10296 z" />
    <path
       inkscape:connector-curvature="0"
       id="path948"
       style="font-style:normal;font-variant:normal;font-weight:normal;font-stretch:normal;font-size:medium;line-height:1.25;font-family:'Roadgeek 2005 Series D';-inkscape-font-specification:'Roadgeek 2005 Series D';letter-spacing:0px;word-spacing:0px;fill:#000000;fill-opacity:1;stroke:none;stroke-width:0.26458341"
       d="m 111.91403,218.37607 v -31.92919 h -5.05149 v 12.86699 H 95.234601 v -12.86699 h -5.051483 v 31.92919 h 5.051483 v -13.91541 h 11.627939 v 13.91541 z" />
    <path
       inkscape:connector-curvature="0"
       id="path950"
       style="font-style:normal;font-variant:normal;font-weight:normal;font-stretch:normal;font-size:medium;line-height:1.25;font-family:'Roadgeek 2005 Series D';-inkscape-font-specification:'Roadgeek 2005 Series D';letter-spacing:0px;word-spacing:0px;fill:#000000;fill-opacity:1;stroke:none;stroke-width:0.26458341"
       d="m 136.42012,190.9265 v -4.47962 h -19.72938 v 4.47962 h 7.29129 v 27.44957 h 5.05149 V 190.9265 Z" />
    <text
       xml:space="preserve"
       style="font-style:normal;font-variant:normal;font-weight:normal;font-stretch:normal;font-size:5.29166651px;line-height:1.25;font-family:'Roadgeek 2005 Series C';-inkscape-font-specification:'Roadgeek 2005 Series C';letter-spacing:0px;word-spacing:0px;fill:#000000;fill-opacity:1;stroke:none;stroke-width:0.26458332"
       x="-171.58704"
       y="143.05275"
       id="text1690"><tspan
         sodipodi:role="line"
         id="tspan1688"
         x="-171.58704"
         y="147.86238"
         style="stroke-width:0.26458332"></tspan></text>
  </g>
</svg>
