<?xml version="1.0" encoding="UTF-8" standalone="no"?>
<!-- Created with Inkscape (http://www.inkscape.org/) -->

<svg
   width="26.617788mm"
   height="21.329649mm"
   viewBox="0 0 26.617788 21.329649"
   version="1.1"
   id="svg1"
   sodipodi:docname="MUTCD_R3-19.svg"
   inkscape:version="1.3 (0e150ed, 2023-07-21)"
   xmlns:inkscape="http://www.inkscape.org/namespaces/inkscape"
   xmlns:sodipodi="http://sodipodi.sourceforge.net/DTD/sodipodi-0.dtd"
   xmlns="http://www.w3.org/2000/svg"
   xmlns:svg="http://www.w3.org/2000/svg">
  <sodipodi:namedview
     id="namedview1"
     pagecolor="#ffffff"
     bordercolor="#666666"
     borderopacity="1.0"
     inkscape:showpageshadow="2"
     inkscape:pageopacity="0.0"
     inkscape:pagecheckerboard="0"
     inkscape:deskcolor="#d1d1d1"
     inkscape:document-units="mm"
     inkscape:zoom="2"
     inkscape:cx="40"
     inkscape:cy="43.5"
     inkscape:window-width="1440"
     inkscape:window-height="449"
     inkscape:window-x="0"
     inkscape:window-y="23"
     inkscape:window-maximized="0"
     inkscape:current-layer="layer1" />
  <defs
     id="defs1">
    <clipPath
       clipPathUnits="userSpaceOnUse"
       id="clipPath56">
      <path
         d="m 57.29,429.951 h 524.26 v 313.05 H 57.29 Z"
         transform="translate(-150.42591,-623.78782)"
         id="path56" />
    </clipPath>
    <clipPath
       clipPathUnits="userSpaceOnUse"
       id="clipPath58">
      <path
         d="m 57.29,429.951 h 524.26 v 313.05 H 57.29 Z"
         transform="translate(-217.89861,-684.12401)"
         id="path58" />
    </clipPath>
    <clipPath
       clipPathUnits="userSpaceOnUse"
       id="clipPath60">
      <path
         d="m 57.29,429.951 h 524.26 v 313.05 H 57.29 Z"
         transform="translate(-217.8985,-625.78642)"
         id="path60" />
    </clipPath>
    <clipPath
       clipPathUnits="userSpaceOnUse"
       id="clipPath62">
      <path
         d="m 57.29,429.951 h 524.26 v 313.05 H 57.29 Z"
         transform="translate(-164.4622,-638.42302)"
         id="path62" />
    </clipPath>
    <clipPath
       clipPathUnits="userSpaceOnUse"
       id="clipPath64">
      <path
         d="m 57.29,429.951 h 524.26 v 313.05 H 57.29 Z"
         transform="translate(-156.6972,-633.33092)"
         id="path64" />
    </clipPath>
    <clipPath
       clipPathUnits="userSpaceOnUse"
       id="clipPath66">
      <path
         d="m 57.29,429.951 h 524.26 v 313.05 H 57.29 Z"
         transform="translate(-150.7336,-660.13922)"
         id="path66" />
    </clipPath>
    <clipPath
       clipPathUnits="userSpaceOnUse"
       id="clipPath68">
      <path
         d="m 57.29,429.951 h 524.26 v 313.05 H 57.29 Z"
         transform="translate(-158.50671,-660.13922)"
         id="path68" />
    </clipPath>
    <clipPath
       clipPathUnits="userSpaceOnUse"
       id="clipPath70">
      <path
         d="m 57.29,429.951 h 524.26 v 313.05 H 57.29 Z"
         transform="translate(-168.38181,-655.23002)"
         id="path70" />
    </clipPath>
    <clipPath
       clipPathUnits="userSpaceOnUse"
       id="clipPath72">
      <path
         d="m 57.29,429.951 h 524.26 v 313.05 H 57.29 Z"
         transform="translate(-177.6414,-647.64731)"
         id="path72" />
    </clipPath>
    <clipPath
       clipPathUnits="userSpaceOnUse"
       id="clipPath74">
      <path
         d="m 57.29,429.951 h 524.26 v 313.05 H 57.29 Z"
         transform="translate(-189.012,-647.63432)"
         id="path74" />
    </clipPath>
    <clipPath
       clipPathUnits="userSpaceOnUse"
       id="clipPath76">
      <path
         d="m 57.29,429.951 h 524.26 v 313.05 H 57.29 Z"
         transform="translate(-192.69741,-651.26482)"
         id="path76" />
    </clipPath>
    <clipPath
       clipPathUnits="userSpaceOnUse"
       id="clipPath78">
      <path
         d="m 57.29,429.951 h 524.26 v 313.05 H 57.29 Z"
         transform="translate(-203.68741,-658.37272)"
         id="path78" />
    </clipPath>
    <clipPath
       clipPathUnits="userSpaceOnUse"
       id="clipPath80">
      <path
         d="m 57.29,429.951 h 524.26 v 313.05 H 57.29 Z"
         transform="translate(-212.38491,-656.00542)"
         id="path80" />
    </clipPath>
    <clipPath
       clipPathUnits="userSpaceOnUse"
       id="clipPath82">
      <path
         d="m 57.29,429.951 h 524.26 v 313.05 H 57.29 Z"
         transform="translate(-152.1717,-677.62822)"
         id="path82" />
    </clipPath>
    <clipPath
       clipPathUnits="userSpaceOnUse"
       id="clipPath84">
      <path
         d="m 57.29,429.951 h 524.26 v 313.05 H 57.29 Z"
         transform="translate(-162.37131,-670.30772)"
         id="path84" />
    </clipPath>
    <clipPath
       clipPathUnits="userSpaceOnUse"
       id="clipPath86">
      <path
         d="m 57.29,429.951 h 524.26 v 313.05 H 57.29 Z"
         transform="translate(-170.8347,-673.50731)"
         id="path86" />
    </clipPath>
    <clipPath
       clipPathUnits="userSpaceOnUse"
       id="clipPath88">
      <path
         d="m 57.29,429.951 h 524.26 v 313.05 H 57.29 Z"
         transform="translate(-178.7892,-677.62822)"
         id="path88" />
    </clipPath>
    <clipPath
       clipPathUnits="userSpaceOnUse"
       id="clipPath90">
      <path
         d="m 57.29,429.951 h 524.26 v 313.05 H 57.29 Z"
         transform="translate(-193.21101,-672.71872)"
         id="path90" />
    </clipPath>
    <clipPath
       clipPathUnits="userSpaceOnUse"
       id="clipPath92">
      <path
         d="m 57.29,429.951 h 524.26 v 313.05 H 57.29 Z"
         transform="translate(-202.96911,-676.09312)"
         id="path92" />
    </clipPath>
    <clipPath
       clipPathUnits="userSpaceOnUse"
       id="clipPath94">
      <path
         d="m 57.29,429.951 h 524.26 v 313.05 H 57.29 Z"
         transform="translate(-210.9472,-675.87461)"
         id="path94" />
    </clipPath>
    <clipPath
       clipPathUnits="userSpaceOnUse"
       id="clipPath96">
      <path
         d="m 57.29,429.951 h 524.26 v 313.05 H 57.29 Z"
         transform="translate(-180.3892,-641.11552)"
         id="path96" />
    </clipPath>
    <clipPath
       clipPathUnits="userSpaceOnUse"
       id="clipPath98">
      <path
         d="m 57.29,429.951 h 524.26 v 313.05 H 57.29 Z"
         transform="translate(-188.3671,-638.52971)"
         id="path98" />
    </clipPath>
    <clipPath
       clipPathUnits="userSpaceOnUse"
       id="clipPath100">
      <path
         d="m 57.29,429.951 h 524.26 v 313.05 H 57.29 Z"
         transform="translate(-196.3216,-642.65062)"
         id="path100" />
    </clipPath>
    <clipPath
       clipPathUnits="userSpaceOnUse"
       id="clipPath102">
      <path
         d="m 57.29,429.951 h 524.26 v 313.05 H 57.29 Z"
         transform="translate(-208.32321,-630.15862)"
         id="path102" />
    </clipPath>
  </defs>
  <g
     inkscape:label="Layer 1"
     inkscape:groupmode="layer"
     id="layer1"
     transform="translate(-106.3625,-142.875)">
    <path
       id="path55"
       d="m 0,0 c -2.131,0 -3.865,1.733 -3.865,3.864 v 52.483 c 0,2.131 1.734,3.864 3.865,3.864 h 67.473 c 2.131,0 3.864,-1.733 3.864,-3.864 V 3.864 C 71.337,1.733 69.604,0 67.473,0 Z"
       style="fill:#ffffff;fill-opacity:1;fill-rule:nonzero;stroke:none"
       transform="matrix(0.35277776,0,0,-0.35277776,107.76983,164.16026)"
       clip-path="url(#clipPath56)" />
    <path
       id="path57"
       d="m 0,0 h -67.473 c -2.2,0 -3.989,-1.79 -3.989,-3.99 v -52.482 c 0,-2.2 1.789,-3.99 3.989,-3.99 H 0 c 2.2,0 3.99,1.79 3.99,3.99 V -3.99 C 3.99,-1.79 2.2,0 0,0 m 0,-0.25 c 2.057,0 3.74,-1.683 3.74,-3.74 v -52.482 c 0,-2.057 -1.683,-3.74 -3.74,-3.74 h -67.473 c -2.057,0 -3.739,1.683 -3.739,3.74 V -3.99 c 0,2.057 1.682,3.74 3.739,3.74 z"
       style="fill:#000000 icc-color(sRGB-IEC61966-2, 0.1, 0, 0, 0);fill-opacity:1;fill-rule:nonzero;stroke:none"
       transform="matrix(0.35277776,0,0,-0.35277776,131.5727,142.875)"
       clip-path="url(#clipPath58)" />
    <path
       id="path59"
       d="m 0,0 c 1.029,0 1.866,0.837 1.866,1.866 v 52.482 c 0,1.029 -0.837,1.866 -1.866,1.866 h -67.473 c -1.029,0 -1.866,-0.837 -1.866,-1.866 V 1.866 C -69.339,0.837 -68.502,0 -67.473,0 Z m -67.473,-0.937 c -1.545,0 -2.802,1.257 -2.802,2.803 v 52.482 c 0,1.546 1.257,2.803 2.802,2.803 H 0 c 1.545,0 2.803,-1.257 2.803,-2.803 V 1.866 C 2.803,0.32 1.545,-0.937 0,-0.937 Z"
       style="fill:#000000 icc-color(sRGB-IEC61966-2, 0.1, 0, 0, 0);fill-opacity:1;fill-rule:nonzero;stroke:none"
       transform="matrix(0.35277776,0,0,-0.35277776,131.57267,163.4552)"
       clip-path="url(#clipPath60)" />
    <path
       id="path61"
       d="m 0,0 4.745,-8.219 -4.462,-2.576 -4.746,8.219 z"
       style="fill:#000000 icc-color(sRGB-IEC61966-2, 0.1, 0, 0, 0);fill-opacity:1;fill-rule:nonzero;stroke:none"
       transform="matrix(0.35277776,0,0,-0.35277776,112.72153,158.99729)"
       clip-path="url(#clipPath62)" />
    <path
       id="path63"
       d="m 0,0 c -0.015,-0.183 0.024,-0.372 0.122,-0.542 0.259,-0.448 0.832,-0.602 1.28,-0.343 0.1,0.057 0.185,0.13 0.254,0.214 l 3.87,4.511 5.842,1.096 c 0.107,0.018 0.212,0.055 0.312,0.112 0.448,0.259 0.601,0.832 0.343,1.28 -0.099,0.171 -0.243,0.299 -0.409,0.378 L 0.92,11.818 Z"
       style="fill:#000000 icc-color(sRGB-IEC61966-2, 0.1, 0, 0, 0);fill-opacity:1;fill-rule:nonzero;stroke:none"
       transform="matrix(0.35277776,0,0,-0.35277776,109.98221,160.79367)"
       clip-path="url(#clipPath64)" />
    <path
       id="path65"
       d="m 0,0 h 1.802 v -10.826 h 4.572 v -1.666 H 0 Z"
       style="fill:#000000 icc-color(sRGB-IEC61966-2, 0.1, 0, 0, 0);fill-opacity:1;fill-rule:nonzero;stroke:none"
       transform="matrix(0.35277776,0,0,-0.35277776,107.87838,151.3363)"
       clip-path="url(#clipPath66)" />
    <path
       id="path67"
       d="M 0,0 H 5.89 V -1.754 H 1.802 v -3.155 h 2.592 v -1.71 H 1.802 v -4.121 h 4.572 v -1.752 H 0 Z"
       style="fill:#000000 icc-color(sRGB-IEC61966-2, 0.1, 0, 0, 0);fill-opacity:1;fill-rule:nonzero;stroke:none"
       transform="matrix(0.35277776,0,0,-0.35277776,110.62056,151.3363)"
       clip-path="url(#clipPath68)" />
    <path
       id="path69"
       d="M 0,0 H 2.506 V -1.71 H 0 V -7.583 H -1.802 V 4.909 H 4.572 V 3.156 H 0 Z"
       style="fill:#000000 icc-color(sRGB-IEC61966-2, 0.1, 0, 0, 0);fill-opacity:1;fill-rule:nonzero;stroke:none"
       transform="matrix(0.35277776,0,0,-0.35277776,114.10428,153.06816)"
       clip-path="url(#clipPath70)" />
    <path
       id="path71"
       d="m 0,0 h -1.802 v 10.826 h -2.286 v 1.666 H 2.286 V 10.826 H 0 Z"
       style="fill:#000000 icc-color(sRGB-IEC61966-2, 0.1, 0, 0, 0);fill-opacity:1;fill-rule:nonzero;stroke:none"
       transform="matrix(0.35277776,0,0,-0.35277776,117.37086,155.74316)"
       clip-path="url(#clipPath72)" />
    <path
       id="path73"
       d="m 0,0 h -1.802 v 10.826 h -2.286 v 1.666 H 2.286 V 10.826 H 0 Z"
       style="fill:#000000 icc-color(sRGB-IEC61966-2, 0.1, 0, 0, 0);fill-opacity:1;fill-rule:nonzero;stroke:none"
       transform="matrix(0.35277776,0,0,-0.35277776,121.38215,155.74775)"
       clip-path="url(#clipPath74)" />
    <path
       id="path75"
       d="m 0,0 v 8.861 h 1.793 v -8.984 c 0,-1.176 0.687,-1.974 1.748,-1.974 0.962,0 1.663,0.788 1.663,1.974 V 8.861 H 6.998 V -0.027 C 6.998,-2.868 4.803,-3.849 3.541,-3.849 2.387,-3.849 0,-3.098 0,0"
       style="fill:#000000 icc-color(sRGB-IEC61966-2, 0.1, 0, 0, 0);fill-opacity:1;fill-rule:nonzero;stroke:none"
       transform="matrix(0.35277776,0,0,-0.35277776,122.68228,154.46699)"
       clip-path="url(#clipPath76)" />
    <path
       id="path77"
       d="m 0,0 v -3.156 h 1.836 c 1.053,0 1.619,0.57 1.619,1.579 C 3.455,-0.612 2.8,0 1.838,0 Z M 1.707,-4.866 H 0 v -5.872 H -1.793 V 1.754 h 3.718 c 1.96,0 3.281,-1.315 3.281,-3.331 0,-1.49 -0.614,-2.586 -1.794,-3.025 l 1.792,-6.136 H 3.37 Z"
       style="fill:#000000 icc-color(sRGB-IEC61966-2, 0.1, 0, 0, 0);fill-opacity:1;fill-rule:nonzero;stroke:none"
       transform="matrix(0.35277776,0,0,-0.35277776,126.55931,151.95948)"
       clip-path="url(#clipPath78)" />
    <path
       id="path79"
       d="M 0,0 V -8.371 H -1.793 V 4.121 H 0 L 3.412,-3.374 V 4.121 H 5.206 V -8.371 H 3.85 Z"
       style="fill:#000000 icc-color(sRGB-IEC61966-2, 0.1, 0, 0, 0);fill-opacity:1;fill-rule:nonzero;stroke:none"
       transform="matrix(0.35277776,0,0,-0.35277776,129.62759,152.79461)"
       clip-path="url(#clipPath80)" />
    <path
       id="path81"
       d="m 0,0 h 1.802 v -10.826 h 4.572 v -1.666 H 0 Z"
       style="fill:#000000 icc-color(sRGB-IEC61966-2, 0.1, 0, 0, 0);fill-opacity:1;fill-rule:nonzero;stroke:none"
       transform="matrix(0.35277776,0,0,-0.35277776,108.38571,145.16657)"
       clip-path="url(#clipPath82)" />
    <path
       id="path83"
       d="M 0,0 H 1.802 L 0.879,3.595 Z m 2.241,-1.754 h -2.68 L -1.274,-5.172 H -3.076 L 0.044,7.32 H 1.803 L 4.922,-5.172 H 3.12 Z"
       style="fill:#000000 icc-color(sRGB-IEC61966-2, 0.1, 0, 0, 0);fill-opacity:1;fill-rule:nonzero;stroke:none"
       transform="matrix(0.35277776,0,0,-0.35277776,111.98391,147.74908)"
       clip-path="url(#clipPath84)" />
    <path
       id="path85"
       d="M 0,0 V -8.371 H -1.793 V 4.121 H 0 L 3.412,-3.374 V 4.121 H 5.206 V -8.371 H 3.851 Z"
       style="fill:#000000 icc-color(sRGB-IEC61966-2, 0.1, 0, 0, 0);fill-opacity:1;fill-rule:nonzero;stroke:none"
       transform="matrix(0.35277776,0,0,-0.35277776,114.9696,146.62033)"
       clip-path="url(#clipPath86)" />
    <path
       id="path87"
       d="M 0,0 H 5.89 V -1.754 H 1.802 v -3.155 h 2.592 v -1.71 H 1.802 v -4.121 h 4.572 v -1.752 H 0 Z"
       style="fill:#000000 icc-color(sRGB-IEC61966-2, 0.1, 0, 0, 0);fill-opacity:1;fill-rule:nonzero;stroke:none"
       transform="matrix(0.35277776,0,0,-0.35277776,117.77577,145.16657)"
       clip-path="url(#clipPath88)" />
    <path
       id="path89"
       d="M 0,0 H 2.506 V -1.71 H 0 V -7.583 H -1.802 V 4.909 H 4.572 V 3.156 H 0 Z"
       style="fill:#000000 icc-color(sRGB-IEC61966-2, 0.1, 0, 0, 0);fill-opacity:1;fill-rule:nonzero;stroke:none"
       transform="matrix(0.35277776,0,0,-0.35277776,122.86347,146.89853)"
       clip-path="url(#clipPath90)" />
    <path
       id="path91"
       d="m 0,0 c -0.356,0 -1.966,0.073 -1.966,-4.694 0,-4.801 1.61,-4.728 1.966,-4.728 0.356,0 1.964,-0.073 1.964,4.728 C 1.964,0.073 0.356,0 0,0 m -3.687,-4.685 c 0,6.542 3.034,6.437 3.707,6.437 0.673,0 3.667,0.1 3.667,-6.441 0,-6.588 -2.994,-6.485 -3.667,-6.485 -0.673,0 -3.707,-0.103 -3.707,6.489"
       style="fill:#000000 icc-color(sRGB-IEC61966-2, 0.1, 0, 0, 0);fill-opacity:1;fill-rule:nonzero;stroke:none"
       transform="matrix(0.35277776,0,0,-0.35277776,126.30591,145.70812)"
       clip-path="url(#clipPath92)" />
    <path
       id="path93"
       d="m 0,0 v -3.156 h 1.836 c 1.053,0 1.62,0.57 1.62,1.579 C 3.456,-0.612 2.8,0 1.838,0 Z M 1.707,-4.866 H 0 v -5.872 H -1.793 V 1.754 h 3.718 c 1.96,0 3.281,-1.315 3.281,-3.331 0,-1.49 -0.614,-2.586 -1.794,-3.025 l 1.792,-6.136 H 3.37 Z"
       style="fill:#000000 icc-color(sRGB-IEC61966-2, 0.1, 0, 0, 0);fill-opacity:1;fill-rule:nonzero;stroke:none"
       transform="matrix(0.35277776,0,0,-0.35277776,129.1204,145.7852)"
       clip-path="url(#clipPath94)" />
    <path
       id="path95"
       d="m 0,0 c -0.356,0 -1.966,0.073 -1.966,-4.694 0,-4.801 1.61,-4.728 1.966,-4.728 0.356,0 1.964,-0.073 1.964,4.728 C 1.964,0.073 0.356,0 0,0 m -3.687,-4.684 c 0,6.541 3.034,6.436 3.707,6.436 0.673,0 3.667,0.1 3.667,-6.441 0,-6.588 -2.994,-6.485 -3.667,-6.485 -0.673,0 -3.707,-0.103 -3.707,6.49"
       style="fill:#000000 icc-color(sRGB-IEC61966-2, 0.1, 0, 0, 0);fill-opacity:1;fill-rule:nonzero;stroke:none"
       transform="matrix(0.35277776,0,0,-0.35277776,118.34022,158.04744)"
       clip-path="url(#clipPath96)" />
    <path
       id="path97"
       d="M 0,0 V -8.371 H -1.793 V 4.121 H 0 L 3.412,-3.374 V 4.121 H 5.206 V -8.371 H 3.851 Z"
       style="fill:#000000 icc-color(sRGB-IEC61966-2, 0.1, 0, 0, 0);fill-opacity:1;fill-rule:nonzero;stroke:none"
       transform="matrix(0.35277776,0,0,-0.35277776,121.15464,158.95965)"
       clip-path="url(#clipPath98)" />
    <path
       id="path99"
       d="m 0,0 h 1.802 v -10.826 h 4.572 v -1.666 H 0 Z"
       style="fill:#000000 icc-color(sRGB-IEC61966-2, 0.1, 0, 0, 0);fill-opacity:1;fill-rule:nonzero;stroke:none"
       transform="matrix(0.35277776,0,0,-0.35277776,123.96082,157.50589)"
       clip-path="url(#clipPath100)" />
    <path
       id="path101"
       d="m 0,0 h -1.802 v 5.654 l -3.076,6.838 h 1.889 l 2.11,-4.514 2.066,4.514 H 3.12 L 0,5.654 Z"
       style="fill:#000000 icc-color(sRGB-IEC61966-2, 0.1, 0, 0, 0);fill-opacity:1;fill-rule:nonzero;stroke:none"
       transform="matrix(0.35277776,0,0,-0.35277776,128.19471,161.91279)"
       clip-path="url(#clipPath102)" />
  </g>
</svg>
