<?xml version="1.0" encoding="UTF-8" standalone="no"?>
<!-- Created with Inkscape (http://www.inkscape.org/) -->

<svg
   width="26.08333mm"
   height="32.561035mm"
   viewBox="0 0 26.08333 32.561035"
   version="1.1"
   id="svg1"
   inkscape:version="1.3 (0e150ed, 2023-07-21)"
   sodipodi:docname="MUTCD_R9-21.svg"
   xmlns:inkscape="http://www.inkscape.org/namespaces/inkscape"
   xmlns:sodipodi="http://sodipodi.sourceforge.net/DTD/sodipodi-0.dtd"
   xmlns="http://www.w3.org/2000/svg"
   xmlns:svg="http://www.w3.org/2000/svg">
  <sodipodi:namedview
     id="namedview1"
     pagecolor="#ffffff"
     bordercolor="#666666"
     borderopacity="1.0"
     inkscape:showpageshadow="2"
     inkscape:pageopacity="0.0"
     inkscape:pagecheckerboard="0"
     inkscape:deskcolor="#d1d1d1"
     inkscape:document-units="mm"
     inkscape:zoom="1"
     inkscape:cx="48"
     inkscape:cy="62"
     inkscape:window-width="1440"
     inkscape:window-height="431"
     inkscape:window-x="0"
     inkscape:window-y="23"
     inkscape:window-maximized="0"
     inkscape:current-layer="layer1" />
  <defs
     id="defs1">
    <clipPath
       clipPathUnits="userSpaceOnUse"
       id="clipPath600">
      <path
         d="M 26.392,39 H 542.609 V 593.262 H 26.392 Z"
         transform="translate(-146.851,-58.093599)"
         id="path600" />
    </clipPath>
  </defs>
  <g
     inkscape:label="Layer 1"
     inkscape:groupmode="layer"
     id="layer1"
     transform="translate(-91.28125,-132.29167)">
    <g
       id="g598"
       transform="matrix(0.26458333,0,0,0.26458333,41.182854,-94.097153)">
      <path
         id="path599"
         d="m 0,0 c -2.6,0 -4.714,2.115 -4.714,4.715 v 82.619 c 0,2.6 2.114,4.715 4.714,4.715 h 64.257 c 2.6,0 4.715,-2.115 4.715,-4.715 V 4.715 C 68.972,2.115 66.857,0 64.257,0 Z"
         style="fill:#ffffff;fill-opacity:1;fill-rule:nonzero;stroke:none"
         transform="matrix(1.3333333,0,0,-1.3333333,195.80133,978.54187)"
         clip-path="url(#clipPath600)" />
    </g>
    <g
       id="g600"
       transform="matrix(0.26458333,0,0,0.26458333,41.182854,-94.097153)">
      <path
         id="path601"
         d="m 0,0 h -64.257 c -2.669,0 -4.84,-2.171 -4.84,-4.84 v -82.619 c 0,-2.669 2.171,-4.84 4.84,-4.84 H 0 c 2.669,0 4.84,2.171 4.84,4.84 V -4.84 C 4.84,-2.171 2.669,0 0,0 m 0,-0.25 c 2.535,0 4.59,-2.055 4.59,-4.59 v -82.619 c 0,-2.535 -2.055,-4.59 -4.59,-4.59 h -64.257 c -2.535,0 -4.59,2.055 -4.59,4.59 V -4.84 c 0,2.535 2.055,4.59 4.59,4.59 z"
         style="fill:#000000;fill-opacity:1;fill-rule:nonzero;stroke:none"
         transform="matrix(1.3333333,0,0,-1.3333333,281.4776,855.6428)" />
    </g>
    <g
       id="g601"
       transform="matrix(0.26458333,0,0,0.26458333,41.182854,-94.097153)">
      <path
         id="path602"
         d="m 0,0 c -1.898,0 -3.442,1.544 -3.442,3.442 v 82.62 c 0,1.898 1.544,3.442 3.442,3.442 h 64.257 c 1.898,0 3.442,-1.544 3.442,-3.442 V 3.442 C 67.699,1.544 66.155,0 64.257,0 Z"
         style="fill:#000000;fill-opacity:1;fill-rule:nonzero;stroke:none"
         transform="matrix(1.3333333,0,0,-1.3333333,195.8016,976.84533)" />
      <path
         id="path603"
         d="m 0,0 c -0.844,0 -1.53,0.686 -1.53,1.53 v 82.619 c 0,0.844 0.686,1.53 1.53,1.53 h 64.257 c 0.844,0 1.53,-0.686 1.53,-1.53 V 1.53 C 65.787,0.686 65.101,0 64.257,0 Z"
         style="fill:#ffffff;fill-opacity:1;fill-rule:nonzero;stroke:none"
         transform="matrix(1.3333333,0,0,-1.3333333,195.8016,974.29533)" />
      <path
         id="path604"
         d="m 0,0 c -2.749,0 -5.077,1.799 -5.874,4.283 l 5.483,1.181 C -0.275,5.4 -0.142,5.363 0,5.363 c 0.445,0 0.805,0.36 0.805,0.805 0,0.388 -0.275,0.712 -0.64,0.788 l -3.371,4.481 c 0.934,0.57 2.032,0.899 3.206,0.899 3.406,0 6.168,-2.762 6.168,-6.168 C 6.168,2.761 3.406,0 0,0 m -6.168,6.168 c 0,1.796 0.769,3.413 1.994,4.54 L -1.053,6.56 -6.128,5.468 c -0.026,0.229 -0.04,0.463 -0.04,0.7 m -1.368,-1.004 -2.412,-0.519 2.8,10.016 2.109,-2.802 c -1.572,-1.393 -2.563,-3.426 -2.563,-5.691 0,-0.34 0.023,-0.675 0.066,-1.004 m -3.435,0.322 -0.374,1.423 h 0.584 v 0.574 h -1.846 V 6.909 h 0.735 l 0.371,-1.412 -7.946,8.65 c 0.129,0.411 0.261,0.836 0.391,1.258 h 10.859 z m -7.818,0.682 C -18.789,2.761 -21.551,0 -24.957,0 c -3.406,0 -6.168,2.761 -6.168,6.168 0,3.406 2.762,6.168 6.168,6.168 1.211,0 2.34,-0.35 3.293,-0.953 -0.758,-1.643 -2.235,-3.413 -3.299,-4.41 -0.442,-0.004 -0.799,-0.363 -0.799,-0.805 0,-0.445 0.36,-0.805 0.805,-0.805 0.411,0 0.75,0.308 0.799,0.706 0.521,0.487 1.2,1.205 1.873,2.065 0.5,0.64 1.123,1.524 1.598,2.484 1.169,-1.123 1.898,-2.701 1.898,-4.45 M 0,13.77 c -1.498,0 -2.895,-0.434 -4.072,-1.182 l -2.665,3.542 0.35,1.25 c 1.67,0.144 2.594,0.779 2.537,1.394 -0.055,0.595 -1.712,0.149 -3.555,0.126 -0.505,-0.007 -3.187,0.005 -3.172,-0.487 0.016,-0.504 1.731,-0.915 2.933,-1.03 l -0.215,-0.766 h -10.824 c 0.231,0.752 0.442,1.447 0.605,1.986 0.139,0.46 0.243,0.806 0.295,0.978 l -0.787,0.602 0.372,0.376 h 2.899 v 0.957 h -3.299 l -1.415,-1.434 0.907,-0.693 c -0.42,-1.392 -1.413,-4.662 -2.055,-6.633 -1.117,0.645 -2.414,1.014 -3.796,1.014 -4.198,0 -7.602,-3.404 -7.602,-7.602 0,-4.199 3.404,-7.602 7.602,-7.602 4.198,0 7.602,3.403 7.602,7.602 0,2.362 -1.078,4.473 -2.768,5.867 0.078,0.238 0.164,0.5 0.254,0.781 l 8.18,-8.904 c -0.002,-0.023 -0.003,-0.047 -0.003,-0.071 0,-0.482 0.382,-0.874 0.861,-0.89 l 0.572,-2.178 h -0.584 V 0.2 h 1.847 v 0.573 h -0.735 l -0.607,2.308 c 0.124,0.076 0.228,0.181 0.302,0.306 l 2.754,0.593 c 0.94,-3.132 3.844,-5.414 7.282,-5.414 4.198,0 7.602,3.403 7.602,7.602 0,4.198 -3.404,7.602 -7.602,7.602"
         style="fill:#000000;fill-opacity:1;fill-rule:nonzero;stroke:none"
         transform="matrix(1.3333333,0,0,-1.3333333,255.2776,895.88347)" />
      <path
         id="path605"
         d="m 0,0 v 7.597 h 1.537 v -7.703 c 0,-1.008 0.589,-1.692 1.499,-1.692 0.824,0 1.425,0.676 1.425,1.692 v 7.703 h 1.538 v -7.62 C 5.999,-2.459 4.117,-3.3 3.036,-3.3 2.047,-3.3 0,-2.656 0,0"
         style="fill:#000000;fill-opacity:1;fill-rule:nonzero;stroke:none"
         transform="matrix(1.3333333,0,0,-1.3333333,224.5684,916.59587)" />
      <path
         id="path606"
         d="m 0,0 c 1.171,-0.735 2.927,-1.764 2.927,-3.878 0,-1.734 -1.321,-3.118 -2.981,-3.118 -1.885,0 -3.018,1.595 -3.018,3.344 h 1.51 c 0,-0.912 0.452,-1.842 1.508,-1.842 0.83,0 1.509,0.751 1.509,1.616 0,2.328 -3.998,2.194 -3.998,5.186 0,1.541 1.207,2.779 2.753,2.779 1.51,0 2.68,-1.165 2.717,-2.78 H 1.455 C 1.418,2.058 0.889,2.546 0.21,2.546 -0.507,2.546 -1.072,2.022 -1.072,1.308 -1.072,0.612 -0.703,0.44 0,0"
         style="fill:#000000;fill-opacity:1;fill-rule:nonzero;stroke:none"
         transform="matrix(1.3333333,0,0,-1.3333333,239.0932,911.66733)" />
      <path
         id="path607"
         d="M 0,0 H 5.049 V -1.503 H 1.545 V -4.209 H 3.767 V -5.675 H 1.545 V -9.208 H 5.464 V -10.71 H 0 Z"
         style="fill:#000000;fill-opacity:1;fill-rule:nonzero;stroke:none"
         transform="matrix(1.3333333,0,0,-1.3333333,245.42573,906.46587)" />
      <path
         id="path608"
         d="m 0,0 c 1.171,-0.735 2.927,-1.764 2.927,-3.878 0,-1.734 -1.321,-3.118 -2.981,-3.118 -1.885,0 -3.018,1.595 -3.018,3.344 h 1.51 c 0,-0.912 0.452,-1.842 1.508,-1.842 0.83,0 1.509,0.751 1.509,1.616 0,2.328 -3.998,2.194 -3.998,5.186 0,1.541 1.207,2.779 2.753,2.779 1.51,0 2.68,-1.164 2.717,-2.78 H 1.455 C 1.417,2.058 0.889,2.546 0.21,2.546 -0.507,2.546 -1.072,2.022 -1.072,1.308 -1.072,0.612 -0.703,0.44 0,0"
         style="fill:#000000;fill-opacity:1;fill-rule:nonzero;stroke:none"
         transform="matrix(1.3333333,0,0,-1.3333333,203.80973,934.61707)" />
      <path
         id="path609"
         d="m 0,0 h -2.926 v -4.848 h -1.536 v 10.71 h 1.536 V 1.503 h 2.925 V 5.862 H 1.536 V -4.848 H 0 Z"
         style="fill:#000000;fill-opacity:1;fill-rule:nonzero;stroke:none"
         transform="matrix(1.3333333,0,0,-1.3333333,215.60587,937.232)" />
      <path
         id="path610"
         d="m 0,0 c -0.305,0 -1.685,0.063 -1.685,-4.024 0,-4.117 1.38,-4.054 1.685,-4.054 0.305,0 1.684,-0.063 1.684,4.054 C 1.684,0.063 0.305,0 0,0 m -3.16,-4.016 c 0,5.608 2.601,5.518 3.177,5.518 0.577,0 3.143,0.086 3.143,-5.522 0,-5.648 -2.566,-5.56 -3.143,-5.56 -0.576,0 -3.177,-0.088 -3.177,5.564"
         style="fill:#000000;fill-opacity:1;fill-rule:nonzero;stroke:none"
         transform="matrix(1.3333333,0,0,-1.3333333,224.15453,931.17027)" />
      <path
         id="path611"
         d="m 0,0 v 7.597 h 1.536 v -7.703 c 0,-1.008 0.589,-1.692 1.499,-1.692 0.825,0 1.426,0.676 1.426,1.692 v 7.703 h 1.538 v -7.62 C 5.999,-2.459 4.117,-3.3 3.035,-3.3 2.046,-3.3 0,-2.656 0,0"
         style="fill:#000000;fill-opacity:1;fill-rule:nonzero;stroke:none"
         transform="matrix(1.3333333,0,0,-1.3333333,230.65453,939.54547)" />
      <path
         id="path612"
         d="M 0,0 H 1.544 V -9.282 H 5.463 V -10.71 H 0 Z"
         style="fill:#000000;fill-opacity:1;fill-rule:nonzero;stroke:none"
         transform="matrix(1.3333333,0,0,-1.3333333,241.168,929.41547)" />
      <path
         id="path613"
         d="m 0,0 h -1.201 v -7.703 h 1.069 c 1.252,0 1.893,0.547 1.893,3.795 C 1.761,-0.145 0.823,0 0,0 m -2.737,-9.207 v 10.71 h 3.056 c 0.653,0 2.943,-0.032 2.943,-5.336 0,-4.853 -2.115,-5.374 -2.816,-5.374 z"
         style="fill:#000000;fill-opacity:1;fill-rule:nonzero;stroke:none"
         transform="matrix(1.3333333,0,0,-1.3333333,253.7028,931.42)" />
      <path
         id="path614"
         d="M 0,0 H 5.048 V -1.503 H 1.544 V -4.209 H 3.766 V -5.675 H 1.544 V -9.208 H 5.463 V -10.71 H 0 Z"
         style="fill:#000000;fill-opacity:1;fill-rule:nonzero;stroke:none"
         transform="matrix(1.3333333,0,0,-1.3333333,260.3384,929.41547)" />
      <path
         id="path615"
         d="m 0,0 v -2.706 h 1.574 c 0.902,0 1.388,0.489 1.388,1.354 C 2.962,-0.525 2.4,0 1.575,0 Z M 1.463,-4.172 H 0 V -9.207 H -1.536 V 1.503 H 1.65 c 1.68,0 2.812,-1.127 2.812,-2.855 0,-1.277 -0.526,-2.217 -1.538,-2.593 L 4.461,-9.207 H 2.888 Z"
         style="fill:#000000;fill-opacity:1;fill-rule:nonzero;stroke:none"
         transform="matrix(1.3333333,0,0,-1.3333333,271.61533,931.42)" />
      <path
         id="path616"
         d="m 0,0 c -0.305,0 -1.685,0.063 -1.685,-4.024 0,-4.117 1.38,-4.054 1.685,-4.054 0.305,0 1.684,-0.063 1.684,4.054 C 1.684,0.063 0.305,0 0,0 m -3.16,-4.016 c 0,5.608 2.601,5.518 3.177,5.518 0.577,0 3.143,0.086 3.143,-5.522 0,-5.649 -2.566,-5.56 -3.143,-5.56 -0.576,0 -3.177,-0.089 -3.177,5.564"
         style="fill:#000000;fill-opacity:1;fill-rule:nonzero;stroke:none"
         transform="matrix(1.3333333,0,0,-1.3333333,222.9968,954.12013)" />
      <path
         id="path617"
         d="M 0,0 V -7.177 H -1.537 V 3.533 H 0 L 2.925,-2.893 V 3.533 H 4.463 V -7.177 H 3.301 Z"
         style="fill:#000000;fill-opacity:1;fill-rule:nonzero;stroke:none"
         transform="matrix(1.3333333,0,0,-1.3333333,232.1172,957.07613)" />
      <path
         id="path618"
         d="M 0,0 H 1.545 V -9.282 H 5.464 V -10.71 H 0 Z"
         style="fill:#000000;fill-opacity:1;fill-rule:nonzero;stroke:none"
         transform="matrix(1.3333333,0,0,-1.3333333,241.2112,952.3656)" />
      <path
         id="path619"
         d="m 0,0 h -1.545 v 4.848 l -2.637,5.862 h 1.62 l 1.808,-3.87 1.771,3.87 H 2.674 L 0,4.848 Z"
         style="fill:#000000;fill-opacity:1;fill-rule:nonzero;stroke:none"
         transform="matrix(1.3333333,0,0,-1.3333333,254.93027,966.6456)" />
    </g>
  </g>
</svg>
