<?xml version="1.0" encoding="UTF-8" standalone="no"?>
<svg
   xmlns:dc="http://purl.org/dc/elements/1.1/"
   xmlns:cc="http://creativecommons.org/ns#"
   xmlns:rdf="http://www.w3.org/1999/02/22-rdf-syntax-ns#"
   xmlns:svg="http://www.w3.org/2000/svg"
   xmlns="http://www.w3.org/2000/svg"
   xmlns:sodipodi="http://sodipodi.sourceforge.net/DTD/sodipodi-0.dtd"
   xmlns:inkscape="http://www.inkscape.org/namespaces/inkscape"
   sodipodi:docname="R10-6aR.svg"
   inkscape:version="1.0rc1 (09960d6f05, 2020-04-09)"
   id="svg13016"
   version="1.1"
   viewBox="0 0 24.566385 30.663445"
   height="30.663445mm"
   width="24.566385mm">
  <defs
     id="defs13010">
    <clipPath
       clipPathUnits="userSpaceOnUse"
       id="clipPath10910">
      <path
         d="M 27,65.641 H 540.335 V 738 H 27 Z"
         id="path10908"
         inkscape:connector-curvature="0" />
    </clipPath>
  </defs>
  <sodipodi:namedview
     inkscape:window-maximized="1"
     inkscape:window-y="0"
     inkscape:window-x="0"
     inkscape:window-height="836"
     inkscape:window-width="1600"
     showgrid="false"
     inkscape:document-rotation="0"
     inkscape:current-layer="g10906"
     inkscape:document-units="mm"
     inkscape:cy="57.946667"
     inkscape:cx="46.424665"
     inkscape:zoom="2.8"
     inkscape:pageshadow="2"
     inkscape:pageopacity="0.0"
     borderopacity="1.0"
     bordercolor="#666666"
     pagecolor="#ffffff"
     id="base" />
  <metadata
     id="metadata13013">
    <rdf:RDF>
      <cc:Work
         rdf:about="">
        <dc:format>image/svg+xml</dc:format>
        <dc:type
           rdf:resource="http://purl.org/dc/dcmitype/StillImage" />
        <dc:title></dc:title>
      </cc:Work>
    </rdf:RDF>
  </metadata>
  <g
     transform="translate(-49.704902,-21.709949)"
     id="layer1"
     inkscape:groupmode="layer"
     inkscape:label="Layer 1">
    <g
       transform="matrix(0.35277777,0,0,-0.35277777,-22.712507,268.17521)"
       id="g10904">
      <g
         id="g10906"
         clip-path="url(#clipPath10910)">
        <g
           id="g10912"
           transform="translate(209.8497,698.3917)">
          <path
             d="m 0,0 h 60.494 c 2.38,0 4.321,-1.941 4.321,-4.321 v -77.778 c 0,-2.38 -1.941,-4.321 -4.321,-4.321 H 0 c -2.38,0 -4.322,1.941 -4.322,4.321 V -4.321 C -4.322,-1.971 -2.35,0 0,0"
             style="fill:#ffffff;fill-opacity:1;fill-rule:nonzero;stroke:#231f20;stroke-width:0.5;stroke-linecap:butt;stroke-linejoin:miter;stroke-miterlimit:4;stroke-dasharray:none;stroke-opacity:1"
             id="path10914"
             inkscape:connector-curvature="0" />
        </g>
        <g
           id="g10916"
           transform="translate(209.8627,697.3111)">
          <path
             d="m 0,0 h 60.467 c 1.78,-0.002 3.247,-1.476 3.254,-3.255 v -77.75 c -0.007,-1.781 -1.474,-3.248 -3.254,-3.255 L 0,-84.26 c -1.778,0.007 -3.251,1.474 -3.254,3.255 v 77.75 C -3.252,-1.476 -1.778,-0.002 0,0"
             style="fill:#231f20;fill-opacity:1;fill-rule:evenodd;stroke:none"
             id="path10918"
             inkscape:connector-curvature="0" />
        </g>
        <g
           id="g10920"
           transform="translate(209.8857,695.5108)">
          <path
             d="m 0,0 h 60.42 c 0.812,0.012 1.491,-0.664 1.478,-1.477 v -77.704 c 0.013,-0.811 -0.666,-1.491 -1.478,-1.477 H 0 c -0.813,-0.014 -1.488,0.666 -1.477,1.477 V -1.477 C -1.488,-0.663 -0.813,0.012 0,0"
             style="fill:#ffffff;fill-opacity:1;fill-rule:evenodd;stroke:none"
             id="path10922"
             inkscape:connector-curvature="0" />
        </g>
        <g
           id="g10924"
           transform="translate(261.3317,685.7091)">
          <path
             d="m 0,0 c 0,-0.607 -0.354,-1.263 -0.858,-1.516 -0.405,-0.202 -0.658,-0.252 -1.365,-0.252 h -2.979 v 3.536 h 2.979 c 0.707,0 0.96,-0.051 1.365,-0.253 C -0.354,1.212 0,0.606 0,0 m 2.322,0 c 0,1.464 -0.96,2.98 -2.221,3.585 -0.707,0.354 -1.465,0.456 -2.627,0.456 h -4.949 v -14.395 h 2.273 v 6.263 h 2.676 c 1.112,0 1.97,0.202 2.627,0.505 1.261,0.556 2.221,2.07 2.221,3.586 m -16.018,-3.182 c 0,-1.112 -0.253,-2.526 -0.556,-3.283 -0.506,-1.263 -1.162,-1.819 -2.222,-1.819 -0.909,0 -1.515,0.354 -1.969,1.112 -0.556,0.909 -0.859,2.475 -0.859,3.99 0,1.212 0.201,2.525 0.555,3.384 0.505,1.262 1.212,1.818 2.324,1.768 0.858,-0.051 1.414,-0.354 1.868,-1.112 0.555,-0.959 0.859,-2.424 0.859,-4.04 m 2.272,0 c 0,1.818 -0.353,3.636 -0.96,4.899 -0.909,1.768 -2.171,2.576 -3.988,2.576 -1.668,0 -2.828,-0.505 -3.688,-1.616 -0.959,-1.364 -1.565,-3.486 -1.565,-5.859 0,-1.717 0.403,-3.637 1.01,-4.849 0.858,-1.768 2.122,-2.584 4.141,-2.584 1.515,0 2.676,0.513 3.485,1.624 1.009,1.263 1.565,3.536 1.565,5.809 M -24.262,2.02 v 2.021 h -8.887 V 2.02 h 3.282 v -12.374 h 2.273 V 2.02 Z m -10.817,-8.232 c 0,5.656 -6.768,3.889 -6.969,6.566 -0.101,1.313 1.161,1.717 2.222,1.666 1.615,-0.05 2.121,-1.263 2.121,-1.263 l 2.019,0.607 c -0.706,1.767 -2.069,2.929 -4.089,2.929 -2.577,0 -4.495,-1.061 -4.495,-3.889 0,-2.374 1.918,-3.233 2.777,-3.586 1.868,-0.758 4.091,-1.061 4.091,-2.98 0,-1.213 -0.909,-2.122 -2.223,-2.122 -1.363,0 -2.474,0.758 -3.079,2.122 l -2.172,-0.808 c 0.959,-2.172 2.777,-3.645 5.251,-3.645 1.213,0 2.324,0.412 3.132,1.119 0.909,0.808 1.414,1.97 1.414,3.284"
             style="fill:#231f20;fill-opacity:1;fill-rule:evenodd;stroke:none"
             id="path10926"
             inkscape:connector-curvature="0" />
        </g>
        <g
           id="g10928"
           transform="translate(243.9337,627.8446)">
          <path
             d="M 0,0 C 0,-1.92 -0.455,-3.484 -1.314,-4.343 -1.717,-4.748 -2.172,-4.9 -2.929,-4.9 h -2.272 v 9.799 h 2.574 c 0.606,0 1.112,-0.253 1.465,-0.606 C -0.455,3.535 0,1.919 0,0 m 2.322,0 c 0,2.828 -0.858,5.101 -2.373,6.414 -0.757,0.606 -1.312,0.758 -2.777,0.758 H -7.475 V -7.222 h 4.395 0.807 c 0.758,0.051 1.515,0.302 2.072,0.808 C 1.413,-5.152 2.322,-2.879 2.322,0 M -9.847,-7.222 V -4.9 h -6.667 v 3.94 h 4.192 v 2.324 h -4.192 v 3.535 h 6.211 v 2.273 h -8.483 V -7.222 Z M -23.736,3.132 c 0,-0.607 -0.352,-1.213 -0.909,-1.515 -0.353,-0.203 -0.606,-0.253 -1.312,-0.253 h -2.728 v 3.535 h 2.728 c 0.757,0 0.959,-0.051 1.312,-0.253 0.557,-0.302 0.909,-0.908 0.909,-1.514 m 2.577,-10.354 -2.526,6.718 c 1.313,0.606 2.223,2.121 2.223,3.636 0,1.465 -0.91,2.981 -2.172,3.586 -0.707,0.353 -1.465,0.454 -2.575,0.454 h -4.748 V -7.222 h 2.272 v 6.262 h 2.728 l 2.323,-6.262 z"
             style="fill:#231f20;fill-opacity:1;fill-rule:evenodd;stroke:none"
             id="path10930"
             inkscape:connector-curvature="0" />
        </g>
        <g
           id="g10932"
           transform="translate(254.1657,662.3883)">
          <path
             d="m 0,0 v 1.394 h -3.998 v 2.364 h 2.515 v 1.394 h -2.515 v 2.121 h 3.727 v 1.364 h -5.09 L -5.361,0 Z M -8.577,6.212 C -8.577,5.849 -8.79,5.485 -9.123,5.303 -9.335,5.183 -9.485,5.152 -9.91,5.152 h -1.637 v 2.121 h 1.637 c 0.454,0 0.575,-0.03 0.787,-0.151 0.333,-0.182 0.546,-0.546 0.546,-0.91 M -7.033,0 -8.547,4.031 c 0.787,0.363 1.333,1.272 1.333,2.181 0,0.88 -0.546,1.789 -1.303,2.152 -0.424,0.213 -0.878,0.273 -1.545,0.273 H -12.91 V 0 h 1.363 V 3.758 H -9.91 L -8.517,0 Z m -7.547,0 v 1.394 h -4 v 2.364 h 2.516 v 1.394 h -2.516 v 2.121 h 3.727 v 1.364 h -5.09 V 0 Z m -7.639,0 v 8.637 h -1.363 V 5.152 h -3.151 v 3.485 h -1.364 V 0 h 1.364 v 3.758 h 3.151 V 0 Z"
             style="fill:#231f20;fill-opacity:1;fill-rule:evenodd;stroke:none"
             id="path10934"
             inkscape:connector-curvature="0" />
        </g>
        <g
           id="g10936"
           transform="translate(238.1988,639.3433)">
          <path
             d="M 0,0 V 8.636 H -1.364 V 3.121 L -4.515,8.636 H -5.878 V 0 h 1.363 V 5.849 L -1.213,0 Z m -9.401,4.302 c 0,-0.666 -0.152,-1.515 -0.334,-1.969 -0.302,-0.758 -0.696,-1.092 -1.333,-1.092 -0.545,0 -0.908,0.212 -1.181,0.668 -0.332,0.546 -0.515,1.486 -0.515,2.393 0,0.728 0.121,1.515 0.333,2.031 0.303,0.758 0.726,1.092 1.394,1.062 0.514,-0.032 0.848,-0.212 1.122,-0.668 0.332,-0.576 0.514,-1.455 0.514,-2.425 m 1.363,0 c 0,1.092 -0.211,2.183 -0.576,2.941 -0.546,1.059 -1.301,1.545 -2.392,1.545 -1,0 -1.698,-0.304 -2.212,-0.97 -0.576,-0.817 -0.941,-2.09 -0.941,-3.516 0,-1.029 0.244,-2.181 0.607,-2.909 0.515,-1.06 1.272,-1.551 2.484,-1.551 0.909,0 1.607,0.31 2.091,0.975 0.606,0.758 0.939,2.122 0.939,3.485"
             style="fill:#231f20;fill-opacity:1;fill-rule:evenodd;stroke:none"
             id="path10938"
             inkscape:connector-curvature="0" />
        </g>
        <g
           id="g10940"
           transform="matrix(-1,0,0,1,254.2038,645.8038)">
          <path
             d="M 0,0 6.082,-2.365 C 6.673,-2.579 7.064,-3.16 7.033,-3.79 6.996,-4.535 6.388,-5.131 5.648,-5.15 l -16.742,-2.306 -0.032,0.033 2.992,16.633 c 0.049,0.74 0.67,1.322 1.415,1.329 0.633,0.005 1.195,-0.409 1.387,-1.01 L -3.29,3.588 c 7.522,6.715 17.249,10.383 27.297,10.382 3.031,0 6.38,-0.479 9.226,-1.14 L 33.082,3.744 C 29.16,5.307 24.415,6.283 20.086,6.283 12.967,6.283 5.848,3.909 0,0"
             style="fill:#231f20;fill-opacity:1;fill-rule:evenodd;stroke:none"
             id="path10942"
             inkscape:connector-curvature="0" />
        </g>
      </g>
    </g>
  </g>
</svg>
