<svg id="R3-51aP" xmlns="http://www.w3.org/2000/svg" width="66in" height="12in" viewBox="0 0 4752 864">
  <g>
    <rect width="4752" height="864" rx="135" fill="#fff"/>
    <path d="M4617,2.2535A132.7472,132.7472,0,0,1,4749.7466,135V729A132.7472,132.7472,0,0,1,4617,861.7465H135A132.7467,132.7467,0,0,1,2.2535,729V135A132.7467,132.7467,0,0,1,135,2.2535H4617M4617,0H135A135,135,0,0,0,0,135V729A135,135,0,0,0,135,864H4617a135,135,0,0,0,135-135V135A135,135,0,0,0,4617,0Z"/>
  </g>
  <path d="M4617,45H135a90.097,90.097,0,0,0-90,90V729a90.097,90.097,0,0,0,90,90H4617a90.0971,90.0971,0,0,0,90-90V135A90.0971,90.0971,0,0,0,4617,45Zm36,684a36.0413,36.0413,0,0,1-36,36H135a36.0414,36.0414,0,0,1-36-36V135a36.0414,36.0414,0,0,1,36-36H4617a36.0413,36.0413,0,0,1,36,36Z"/>
  <g id="NO TRUCKS">
    <path d="M573.1034,350.8906v297.106H497.016V216h76.0332L772.5824,501.01V216h74.5752V647.9966H780.1425Z"/>
    <path d="M966.3764,431.2423c0-137.9153,69.8769-222.7483,183.8188-222.7483,107.57,0,179.2827,88.7753,179.2827,221.29,0,134.8373-69.3369,225.7727-179.2827,225.7727C1022.5912,655.557,966.3764,539.6729,966.3764,431.2423Zm79.0034,0c0,92.4476,39.4746,146.9864,104.8154,146.9864,82.0273,0,101.7915-80.3507,101.7915-146.9864,0-91.7454-37.6382-145.5294-101.7915-145.5294C1084.8544,285.7129,1045.38,340.3069,1045.38,431.2423Z"/>
    <path d="M1889.3389,647.9966h-75.71V291.8153H1689.48V216h324.0086v75.8156h-124.15Z"/>
    <path d="M2372.9657,463.1014l78.7879,184.8952h-86.3475L2295.69,478.2222H2178.9389V647.9966h-77.33V216H2305.842c89.2646,0,136.84,70.5233,136.84,131.8671C2442.6822,396.3583,2416.9232,438.8559,2372.9657,463.1014ZM2178.9389,293.327V400.8944h124.42c37.8549,0,62.1012-21.7617,62.1012-53.0276,0-33.3718-24.301-54.54-62.1559-54.54Z"/>
    <path d="M2730.28,576.5549c45.3071,0,97.6347-31.9133,97.6347-99.3591V216h77.6532V473.6862c0,106.1088-73.0633,181.8708-175.0721,181.8708s-175.072-75.762-175.072-181.8708V216h77.6531V476.7642C2633.0767,541.833,2681.624,576.5549,2730.28,576.5549Z"/>
    <path d="M3103.6292,429.73c0,94.0135,39.3676,148.4986,104.5469,148.4986,39.4213,0,60.6442-13.6618,98.5527-54.5935l68.2038,36.3957c-31.8069,60.6421-97.041,95.4714-166.7565,95.4714-113.673,0-183.3885-90.18-183.3885-224.3142,0-137.8611,69.8776-222.6941,183.3885-222.6941,69.7155,0,133.4378,34.7756,166.7565,95.4172l-68.2038,36.3957c-15.0128-26.19-52.6509-54.594-98.5527-54.594C3129.3345,285.7129,3103.6292,363.0407,3103.6292,429.73Z"/>
    <path d="M3653.7821,423.6824,3571.7,526.7133V647.9966h-77.5467V216H3571.7V403.9724L3725.2261,216H3825.56L3710.0512,356.9925l142.8881,291.0041h-88.1845Z"/>
    <path d="M4193.9993,626.4512c-30.4573,18.4136-69.8239,29.2132-109.5694,29.2132-74.576,0-130.9535-27.6478-179.6629-84.5088l62.4263-49.1942c31.9681,38.3937,66.9616,55.3493,115.6711,55.3493,54.8111,0,94.3945-25.7572,94.3945-56.861,0-43.9023-43.7954-46.8719-164.7048-80.838-60.8052-17.0635-88.0223-63.3413-88.0223-109.7269,0-72.3055,60.9674-121.3908,149.2056-121.3908,63.9381,0,117.3458,21.4375,161.4107,67.4994l-57.8892,52.2713c-27.3792-29.2137-62.4264-43.0376-103.5215-43.0376-47.3589,0-69.9851,19.2242-69.9851,44.0639,0,47.8974,58.8072,37.3136,166.27,75.1673,75.8718,26.784,84.89,91.5838,84.89,119.0148C4254.912,568.0229,4235.0944,601.8805,4193.9993,626.4512Z"/>
  </g>
</svg>
