<?xml version="1.0" encoding="UTF-8" standalone="no"?>
<svg
   xmlns:dc="http://purl.org/dc/elements/1.1/"
   xmlns:cc="http://creativecommons.org/ns#"
   xmlns:rdf="http://www.w3.org/1999/02/22-rdf-syntax-ns#"
   xmlns:svg="http://www.w3.org/2000/svg"
   xmlns="http://www.w3.org/2000/svg"
   xmlns:sodipodi="http://sodipodi.sourceforge.net/DTD/sodipodi-0.dtd"
   xmlns:inkscape="http://www.inkscape.org/namespaces/inkscape"
   width="24.306742mm"
   height="36.371037mm"
   viewBox="0 0 24.306742 36.371037"
   version="1.1"
   id="svg6015"
   inkscape:version="1.0rc1 (09960d6f05, 2020-04-09)"
   sodipodi:docname="R7-3R.svg">
  <defs
     id="defs6009">
    <clipPath
       id="clipPath4096"
       clipPathUnits="userSpaceOnUse">
      <path
         inkscape:connector-curvature="0"
         id="path4094"
         d="M 27,33.9 H 539.875 V 635.4 H 27 Z" />
    </clipPath>
  </defs>
  <sodipodi:namedview
     id="base"
     pagecolor="#ffffff"
     bordercolor="#666666"
     borderopacity="1.0"
     inkscape:pageopacity="0.0"
     inkscape:pageshadow="2"
     inkscape:zoom="3.959798"
     inkscape:cx="45.934"
     inkscape:cy="68.732667"
     inkscape:document-units="mm"
     inkscape:current-layer="g4092"
     inkscape:document-rotation="0"
     showgrid="false"
     fit-margin-top="0"
     fit-margin-left="0"
     fit-margin-right="0"
     fit-margin-bottom="0"
     inkscape:window-width="1600"
     inkscape:window-height="836"
     inkscape:window-x="0"
     inkscape:window-y="0"
     inkscape:window-maximized="1" />
  <metadata
     id="metadata6012">
    <rdf:RDF>
      <cc:Work
         rdf:about="">
        <dc:format>image/svg+xml</dc:format>
        <dc:type
           rdf:resource="http://purl.org/dc/dcmitype/StillImage" />
        <dc:title></dc:title>
      </cc:Work>
    </rdf:RDF>
  </metadata>
  <g
     inkscape:label="Layer 1"
     inkscape:groupmode="layer"
     id="layer1"
     transform="translate(-60.418058,-95.207338)">
    <g
       id="g4090"
       transform="matrix(0.35277777,0,0,-0.35277777,-62.624549,311.55335)">
      <g
         clip-path="url(#clipPath4096)"
         id="g4092">
        <g
           transform="translate(357.5832,613.0143)"
           id="g4098">
          <path
             inkscape:connector-curvature="0"
             id="path4100"
             style="fill:#ffffff;fill-opacity:1;fill-rule:nonzero;stroke:#231f20;stroke-width:0.5;stroke-linecap:butt;stroke-linejoin:miter;stroke-miterlimit:4;stroke-dasharray:none;stroke-opacity:1"
             d="m 0,0 h 51.299 c 4.71,0 8.551,-3.841 8.551,-8.55 v -85.5 c 0,-4.709 -3.841,-8.549 -8.551,-8.549 H 0 c -4.71,0 -8.551,3.84 -8.551,8.549 v 85.5 C -8.551,-3.9 -4.65,0 0,0" />
        </g>
        <g
           transform="translate(357.6092,610.8771)"
           id="g4102">
          <path
             inkscape:connector-curvature="0"
             id="path4104"
             style="fill:#bf2519;fill-opacity:1;fill-rule:evenodd;stroke:none"
             d="m 0,0 h 51.245 c 3.532,-0.014 6.418,-2.914 6.441,-6.44 v -85.445 c -0.023,-3.528 -2.909,-6.422 -6.441,-6.44 H 0 c -3.523,0.018 -6.428,2.912 -6.439,6.44 V -6.44 C -6.426,-2.914 -3.523,-0.014 0,0" />
        </g>
        <g
           transform="translate(357.6422,608.3804)"
           id="g4106">
          <path
             inkscape:connector-curvature="0"
             id="path4108"
             style="fill:#ffffff;fill-opacity:1;fill-rule:evenodd;stroke:none"
             d="m 0,0 h 51.181 c 2.2,-0.013 3.962,-1.774 3.975,-3.975 v -85.382 c -0.013,-2.19 -1.775,-3.976 -3.975,-3.974 H 0 c -2.2,-0.002 -3.964,1.784 -3.975,3.974 V -3.975 C -3.965,-1.774 -2.2,-0.013 0,0" />
        </g>
        <g
           transform="translate(411.1282,577.1588)"
           id="g4110">
          <path
             inkscape:connector-curvature="0"
             id="path4112"
             style="fill:#bf2519;fill-opacity:1;fill-rule:evenodd;stroke:none"
             d="m 0,0 c -0.232,2.153 -1.385,3.357 -3.256,3.357 -1.615,0 -2.614,-0.717 -3.178,-2.255 -0.59,-1.589 -0.769,-3.101 -0.769,-6.561 0,-3.486 0.179,-4.999 0.718,-6.587 0.563,-1.589 1.538,-2.26 3.229,-2.26 1.512,0 2.666,0.747 3,1.952 0.152,0.538 0.256,1.435 0.256,2.23 v 4.383 h -3.102 v -2.231 h 0.973 v -2.255 c 0,-1.179 -0.436,-1.845 -1.204,-1.845 -0.743,0 -1.179,0.564 -1.358,1.692 -0.231,1.435 -0.308,2.588 -0.308,4.921 0,2.358 0.077,3.511 0.334,4.895 0.204,1.127 0.692,1.692 1.46,1.692 0.59,0 0.974,-0.41 1.076,-1.128 z" />
        </g>
        <g
           transform="translate(401.9882,580.235)"
           id="g4114">
          <path
             inkscape:connector-curvature="0"
             id="path4116"
             style="fill:#bf2519;fill-opacity:1;fill-rule:evenodd;stroke:none"
             d="M 0,0 H -2.127 V -8.535 L -5.075,0 h -2.127 v -17.1 h 2.127 V -6.946 L -1.794,-17.1 H 0 Z" />
        </g>
        <path
           inkscape:connector-curvature="0"
           id="path4118"
           style="fill:#bf2519;fill-opacity:1;fill-rule:evenodd;stroke:none"
           d="m 392.851,580.235 h -2.127 v -17.1 h 2.127 z" />
        <g
           transform="translate(386.3782,574.3395)"
           id="g4120">
          <path
             inkscape:connector-curvature="0"
             id="path4122"
             style="fill:#bf2519;fill-opacity:1;fill-rule:evenodd;stroke:none"
             d="M 0,0 2.768,5.896 H 0.332 l -2.64,-5.461 v 5.461 h -2.128 v -17.101 h 2.128 v 6.412 l 0.795,1.691 2.255,-8.103 h 2.307 z" />
        </g>
        <g
           transform="translate(374.1692,595.9731)"
           id="g4124">
          <path
             inkscape:connector-curvature="0"
             id="path4126"
             style="fill:#bf2519;fill-opacity:1;fill-rule:evenodd;stroke:none"
             d="m 0,0 5.125,-11.461 h 1.82 V 5.638 H 4.536 V -4.588 L 0,5.638 H -2.41 V -11.461 H 0 Z" />
        </g>
        <g
           transform="translate(389.6752,599.5104)"
           id="g4128">
          <path
             inkscape:connector-curvature="0"
             id="path4130"
             style="fill:#bf2519;fill-opacity:1;fill-rule:evenodd;stroke:none"
             d="m 0,0 c -1.026,0 -1.692,-0.641 -2.103,-2.076 -0.384,-1.333 -0.512,-2.461 -0.512,-4.383 0,-1.871 0.128,-2.973 0.512,-4.306 0.411,-1.461 1.052,-2.127 2.103,-2.127 1,0 1.666,0.666 2.076,2.101 0.384,1.359 0.512,2.41 0.512,4.357 0,1.923 -0.128,3.051 -0.512,4.306 C 1.64,-0.641 1,0 0,0 m 0,2.383 c 1.948,0 3.101,-0.846 3.972,-2.921 0.692,-1.666 0.948,-3.281 0.948,-5.896 0,-2.639 -0.256,-4.279 -0.948,-5.946 -0.845,-2.024 -2.05,-2.9 -3.972,-2.9 -1.974,0 -3.153,0.876 -3.998,2.926 -0.694,1.665 -0.949,3.306 -0.949,5.92 0,2.615 0.282,4.358 0.974,5.973 0.872,1.998 2.051,2.844 3.973,2.844" />
        </g>
        <g
           transform="translate(374.9312,573.3657)"
           id="g4132">
          <path
             inkscape:connector-curvature="0"
             id="path4134"
             style="fill:#bf2519;fill-opacity:1;fill-rule:evenodd;stroke:none"
             d="m 0,0 h 1.384 c 1.155,0 1.512,0.512 1.512,2.128 0,1.947 -0.41,2.511 -1.846,2.511 H 0 Z m 3.333,-1.692 1.69,-8.539 H 2.845 L 0.974,-2.23 H 0 v -8.001 h -2.126 v 17.1 h 3.255 c 2.613,0 3.947,-1.615 3.947,-4.767 0,-1.948 -0.488,-2.999 -1.743,-3.794" />
        </g>
        <g
           transform="translate(367.8962,569.9053)"
           id="g4136">
          <path
             inkscape:connector-curvature="0"
             id="path4138"
             style="fill:#bf2519;fill-opacity:1;fill-rule:evenodd;stroke:none"
             d="M 0,0 -0.924,4.511 -1.847,0 Z M 0.459,-2.23 H -2.308 L -3.231,-6.771 H -5.46 L -2.026,10.33 H 0.177 L 3.613,-6.771 H 1.382 Z" />
        </g>
        <g
           transform="translate(357.6032,572.8271)"
           id="g4140">
          <path
             inkscape:connector-curvature="0"
             id="path4142"
             style="fill:#bf2519;fill-opacity:1;fill-rule:evenodd;stroke:none"
             d="m 0,0 h 1.128 c 1.306,0 1.768,0.641 1.768,2.435 0,1.897 -0.564,2.742 -1.768,2.742 H 0 Z m 0,-2.23 v -7.462 h -2.128 v 17.1 H 1.128 C 2.101,7.408 2.947,7.151 3.486,6.715 4.46,5.921 5.075,4.28 5.075,2.461 5.075,-0.358 3.486,-2.23 1.128,-2.23 Z" />
        </g>
        <g
           transform="translate(395.3082,558.0972)"
           id="g4144">
          <path
             inkscape:connector-curvature="0"
             id="path4146"
             style="fill:#bf2519;fill-opacity:1;fill-rule:evenodd;stroke:none"
             d="M 0,0 V 0.76 H -2.901 V 0 h 1.041 v -4.938 h 0.82 V 0 Z m -4.464,-0.84 c 0,-0.519 -0.26,-0.82 -0.74,-0.82 h -0.839 v 1.62 h 0.839 c 0.44,0 0.74,-0.32 0.74,-0.8 m 0.8,0 c 0,0.96 -0.6,1.6 -1.5,1.6 h -1.7 v -5.698 h 0.821 v 2.499 h 0.879 c 0.96,0 1.5,0.56 1.5,1.599 m -4.584,-4.098 v 0.8 h -2.08 v 1.879 h 1.18 v 0.779 h -1.18 v 1.44 h 1.859 v 0.8 h -2.678 v -5.698 z m -4.445,4.178 c -0.059,0.52 -0.139,0.76 -0.36,1.039 -0.26,0.381 -0.658,0.581 -1.118,0.581 -1.12,0 -1.7,-0.98 -1.7,-2.818 0,-2.1 0.541,-3.083 1.759,-3.083 0.799,0 1.401,0.684 1.419,1.622 h -0.819 c 0,-0.419 -0.119,-0.818 -0.6,-0.818 -0.699,0 -0.98,0.659 -0.98,2.298 0,1.48 0.24,1.999 0.9,1.999 0.381,0 0.6,-0.26 0.68,-0.82 z m -4.283,-4.178 -1.239,2.959 1.138,2.739 h -0.858 l -0.72,-1.721 -0.72,1.721 h -0.86 l 1.159,-2.739 -1.239,-2.959 h 0.86 l 0.8,1.939 0.799,-1.939 z m -4.283,0 v 0.8 h -2.079 v 1.879 h 1.179 v 0.779 h -1.179 v 1.44 h 1.859 v 0.8 h -2.68 v -5.698 z" />
        </g>
        <g
           transform="translate(387.8492,544.7236)"
           id="g4148">
          <path
             inkscape:connector-curvature="0"
             id="path4150"
             style="fill:#bf2519;fill-opacity:1;fill-rule:evenodd;stroke:none"
             d="m 0,0 c 0,0.818 -0.48,1.438 -1.578,2.078 -0.421,0.24 -0.542,0.4 -0.542,0.679 0,0.381 0.3,0.661 0.68,0.661 0.36,0 0.641,-0.26 0.66,-0.661 H 0 c -0.02,0.86 -0.641,1.48 -1.44,1.48 -0.819,0 -1.459,-0.659 -1.459,-1.48 0,-0.499 0.24,-0.939 0.699,-1.257 1.161,-0.781 0.84,-0.561 0.96,-0.682 0.339,-0.259 0.46,-0.499 0.46,-0.818 0,-0.46 -0.359,-0.86 -0.798,-0.86 -0.561,0 -0.801,0.5 -0.801,0.979 h -0.799 c 0,-0.939 0.599,-1.781 1.6,-1.781 C -0.7,-1.662 0,-0.92 0,0 m -3.678,4.137 h -0.88 l -0.94,-2.059 -0.96,2.059 h -0.861 l 1.401,-3.118 v -2.578 h 0.82 V 1.019 Z M -9.077,0.799 h -0.82 l 0.4,1.639 z m 1.418,-2.358 -1.418,5.696 h -0.8 l -1.42,-5.696 h 0.82 L -10.098,0 h 1.221 l 0.399,-1.559 z m -5.118,2.817 c 0,-0.44 -0.04,-0.838 -0.08,-1.198 -0.079,-0.44 -0.339,-0.821 -0.819,-0.821 h -0.68 v 4.099 h 0.68 c 0.359,0 0.599,-0.18 0.74,-0.581 0.1,-0.239 0.159,-0.859 0.159,-1.499 m 0.8,0.041 c 0,0.44 -0.059,0.939 -0.14,1.359 -0.1,0.58 -0.34,1.02 -0.68,1.259 -0.199,0.16 -0.44,0.22 -0.918,0.22 h -1.461 v -5.696 h 1.579 c 0.321,0 0.601,0.08 0.8,0.259 0.56,0.44 0.82,1.28 0.82,2.599 m -4.418,-2.858 v 5.696 h -0.82 V 0.719 l -1.561,3.418 h -0.819 v -5.696 h 0.819 v 3.817 l 1.76,-3.817 z m -4.42,1.698 v 3.998 h -0.82 V 0.039 c 0,-0.539 -0.318,-0.899 -0.759,-0.899 -0.48,0 -0.8,0.36 -0.8,0.899 v 4.098 h -0.82 V 0.139 c 0,-0.46 0.06,-0.699 0.221,-0.999 0.279,-0.479 0.84,-0.802 1.399,-0.802 0.54,0 1.08,0.343 1.359,0.802 0.161,0.3 0.22,0.539 0.22,0.999 M -24.973,0 c 0,0.818 -0.48,1.438 -1.58,2.078 -0.42,0.24 -0.539,0.4 -0.539,0.679 0,0.381 0.299,0.661 0.68,0.661 0.359,0 0.639,-0.26 0.659,-0.661 h 0.78 c -0.021,0.86 -0.641,1.48 -1.439,1.48 -0.821,0 -1.461,-0.659 -1.461,-1.48 0,-0.499 0.24,-0.939 0.699,-1.257 1.16,-0.781 0.842,-0.561 0.961,-0.682 0.34,-0.259 0.46,-0.499 0.46,-0.818 0,-0.46 -0.361,-0.86 -0.8,-0.86 -0.561,0 -0.801,0.5 -0.801,0.979 h -0.799 c 0,-0.939 0.6,-1.781 1.6,-1.781 0.88,0 1.58,0.742 1.58,1.662" />
        </g>
        <g
           transform="translate(398.0412,534.7279)"
           id="g4152">
          <path
             inkscape:connector-curvature="0"
             id="path4154"
             style="fill:#bf2519;fill-opacity:1;fill-rule:evenodd;stroke:none"
             d="m 0,0 c 0,0.819 -0.48,1.439 -1.58,2.079 -0.421,0.239 -0.54,0.399 -0.54,0.679 0,0.38 0.3,0.66 0.68,0.66 0.36,0 0.64,-0.261 0.66,-0.66 H 0 c -0.02,0.859 -0.64,1.479 -1.44,1.479 -0.821,0 -1.46,-0.659 -1.46,-1.479 0,-0.5 0.241,-0.939 0.7,-1.259 1.16,-0.781 0.84,-0.559 0.961,-0.68 0.34,-0.26 0.459,-0.5 0.459,-0.819 0,-0.46 -0.36,-0.86 -0.8,-0.86 -0.56,0 -0.8,0.5 -0.8,0.979 h -0.8 c 0,-0.939 0.601,-1.782 1.6,-1.782 C -0.7,-1.663 0,-0.92 0,0 M -3.68,4.137 H -4.56 L -5.499,2.079 -6.459,4.137 H -7.317 L -5.919,1.019 V -1.56 h 0.82 V 1.019 Z M -9.078,0.799 h -0.819 l 0.399,1.64 z m 1.419,-2.359 -1.419,5.697 h -0.8 l -1.42,-5.697 h 0.82 l 0.38,1.56 h 1.22 l 0.4,-1.56 z m -5.117,2.818 c 0,-0.439 -0.041,-0.838 -0.08,-1.198 -0.081,-0.44 -0.341,-0.82 -0.821,-0.82 h -0.679 v 4.098 h 0.679 c 0.36,0 0.6,-0.181 0.74,-0.58 0.1,-0.24 0.161,-0.859 0.161,-1.5 m 0.798,0.041 c 0,0.44 -0.058,0.939 -0.139,1.358 -0.101,0.581 -0.341,1.021 -0.681,1.261 -0.199,0.159 -0.439,0.219 -0.919,0.219 h -1.46 V -1.56 h 1.58 c 0.321,0 0.6,0.08 0.799,0.26 0.561,0.44 0.82,1.28 0.82,2.599 m -4.439,2.838 h -0.799 V -1.56 h 0.799 z m -1.578,-5.697 v 0.76 h -2.08 v 4.937 h -0.82 V -1.56 Z m -4.82,2.859 c 0,-0.66 -0.039,-1 -0.18,-1.46 -0.139,-0.479 -0.359,-0.699 -0.699,-0.699 -0.36,0 -0.58,0.22 -0.721,0.699 -0.119,0.46 -0.18,0.82 -0.18,1.44 0,0.64 0.041,1.019 0.18,1.458 0.141,0.481 0.361,0.701 0.721,0.701 0.34,0 0.56,-0.22 0.699,-0.72 0.121,-0.42 0.18,-0.779 0.18,-1.419 m 0.781,0 c 0,0.859 -0.08,1.399 -0.32,1.959 -0.281,0.699 -0.68,0.979 -1.34,0.979 -0.66,0 -1.06,-0.28 -1.361,-0.959 -0.239,-0.541 -0.319,-1.12 -0.319,-1.979 0,-0.879 0.08,-1.419 0.319,-1.98 0.281,-0.679 0.681,-0.982 1.361,-0.982 0.64,0 1.059,0.303 1.34,0.982 0.24,0.54 0.32,1.101 0.32,1.98 m -4.46,-2.859 v 5.697 h -0.819 V 1.819 h -1.56 v 2.318 h -0.82 V -1.56 h 0.82 v 2.579 h 1.56 V -1.56 Z" />
        </g>
        <g
           transform="translate(405.9012,545.9819)"
           id="g4156">
          <path
             inkscape:connector-curvature="0"
             id="path4158"
             style="fill:#bf2519;fill-opacity:1;fill-rule:evenodd;stroke:none"
             d="m 0,0 c 0,-0.44 -0.039,-0.839 -0.08,-1.199 -0.08,-0.44 -0.34,-0.82 -0.82,-0.82 H -1.58 V 2.08 h 0.68 c 0.359,0 0.6,-0.18 0.74,-0.581 C -0.06,1.26 0,0.64 0,0 m 0.799,0.041 c 0,0.44 -0.058,0.938 -0.138,1.359 -0.101,0.579 -0.34,1.02 -0.68,1.259 -0.2,0.159 -0.441,0.219 -0.92,0.219 H -2.4 v -5.696 h 1.58 c 0.32,0 0.601,0.08 0.801,0.26 0.558,0.44 0.818,1.28 0.818,2.599 m -4.418,-2.859 v 5.696 h -0.82 V -0.539 L -6,2.878 H -6.818 V -2.818 H -6 V 1 l 1.762,-3.818 z m -5.398,2.359 h -0.821 l 0.401,1.639 z m 1.419,-2.359 -1.419,5.696 h -0.801 l -1.419,-5.696 h 0.819 l 0.38,1.56 h 1.22 l 0.4,-1.56 z" />
        </g>
        <g
           transform="matrix(-1,0,0,1,361.0842,522.562)"
           id="g326">
          <path
             inkscape:connector-curvature="0"
             id="path328"
             style="fill:#bf2519;fill-opacity:1;fill-rule:evenodd;stroke:none"
             d="m 0,0 h -35.708 l 0.713,-2.69 c 0.017,-0.018 0.034,-0.029 0.039,-0.052 0.017,-0.034 0.029,-0.069 0.041,-0.108 -0.018,-0.154 -0.052,-0.297 -0.149,-0.422 -0.17,-0.234 -0.404,-0.303 -0.684,-0.29 -0.091,0.005 -0.199,0.027 -0.273,0.08 l -8.157,5.62 8.157,5.546 c 0.113,0.079 0.193,0.118 0.336,0.148 0.239,0.05 0.501,-0.137 0.638,-0.331 0.08,-0.114 0.12,-0.234 0.132,-0.376 -0.012,-0.046 -0.012,-0.097 -0.035,-0.142 -0.011,-0.035 -0.028,-0.064 -0.045,-0.092 L -35.708,4.275 H 0 Z" />
        </g>
      </g>
    </g>
  </g>
</svg>
