<?xml version="1.0" encoding="UTF-8" standalone="no"?>
<!-- Generator: Adobe Illustrator 12.0.1, SVG Export Plug-In  -->

<svg
   version="1.1"
   width="226"
   height="282.09375"
   viewBox="-1 0 226 282.09375"
   enable-background="new -1 0 289 288"
   xml:space="preserve"
   id="svg2"
   inkscape:version="1.2.1 (9c6d41e410, 2022-07-14)"
   sodipodi:docname="MUTCD_R10-15R (unoffical).svg"
   xmlns:inkscape="http://www.inkscape.org/namespaces/inkscape"
   xmlns:sodipodi="http://sodipodi.sourceforge.net/DTD/sodipodi-0.dtd"
   xmlns="http://www.w3.org/2000/svg"
   xmlns:svg="http://www.w3.org/2000/svg"
   xmlns:rdf="http://www.w3.org/1999/02/22-rdf-syntax-ns#"
   xmlns:cc="http://creativecommons.org/ns#"
   xmlns:dc="http://purl.org/dc/elements/1.1/"><metadata
   id="metadata22"><rdf:RDF><cc:Work
       rdf:about=""><dc:format>image/svg+xml</dc:format><dc:type
         rdf:resource="http://purl.org/dc/dcmitype/StillImage" /></cc:Work></rdf:RDF></metadata><sodipodi:namedview
   pagecolor="#ffffff"
   bordercolor="#666666"
   borderopacity="1"
   objecttolerance="10"
   gridtolerance="10"
   guidetolerance="10"
   inkscape:pageopacity="0"
   inkscape:pageshadow="2"
   inkscape:window-width="1280"
   inkscape:window-height="889"
   id="namedview20"
   showgrid="false"
   fit-margin-top="0"
   fit-margin-left="0"
   fit-margin-right="0"
   fit-margin-bottom="0"
   inkscape:zoom="2.3177391"
   inkscape:cx="72.70016"
   inkscape:cy="164.81579"
   inkscape:window-x="-8"
   inkscape:window-y="-8"
   inkscape:window-maximized="1"
   inkscape:current-layer="svg2"
   showguides="true"
   inkscape:guide-bbox="true"
   inkscape:showpageshadow="2"
   inkscape:pagecheckerboard="0"
   inkscape:deskcolor="#d1d1d1" />
<defs
   id="defs4">
</defs>







<path
   inkscape:connector-curvature="0"
   d="m 224.24214,267.32562 c 0,7.7175 -6.31375,14.03 -14.03,14.03 l -196.42875,0 c -7.71625,0 -14.03,-6.3125 -14.03,-14.03 l 0,-252.55 c 0,-7.7175 6.31375,-14.03125 14.03,-14.03125 l 196.42875,0 c 7.71625,0 14.03,6.31375 14.03,14.03125 l 0,252.55 z"
   style="fill:#ffffff;fill-opacity:1;fill-rule:nonzero;stroke:#000000;stroke-width:1.5;stroke-miterlimit:4;stroke-opacity:1;stroke-dasharray:none"
   id="path14648" /><path
   inkscape:connector-curvature="0"
   d="m 210.21163,4.25249 -196.4275,0 c -5.7875,0 -10.52375,4.735 -10.52375,10.5225 l 0,252.55125 c 0,5.7875 4.73625,10.5225 10.52375,10.5225 l 196.4275,0 c 5.7875,0 10.5225,-4.735 10.5225,-10.5225 l 0,-252.55125 c 0,-5.7875 -4.735,-10.5225 -10.5225,-10.5225 m 4.6775,263.07375 c 0,2.57125 -2.105,4.67625 -4.6775,4.67625 l -196.4275,0 c -2.5725,0 -4.6775,-2.105 -4.6775,-4.67625 l 0,-252.55125 c 0,-2.57125 2.105,-4.67625 4.6775,-4.67625 l 196.4275,0 c 2.5725,0 4.6775,2.105 4.6775,4.67625 l 0,252.55125 z"
   style="fill:#000000;fill-opacity:1;fill-rule:nonzero;stroke:none"
   id="path14656" /><path
   style="fill:#feca2f;fill-opacity:1;stroke:#feca2f;stroke-width:22.4895;stroke-linecap:butt;stroke-linejoin:round;stroke-miterlimit:4;stroke-dasharray:none;stroke-opacity:1"
   d="M 40.801156,85.77615 110.66101,208.93692 180.52087,85.776239 Z"
   id="path1110"
   inkscape:connector-curvature="0"
   sodipodi:nodetypes="cccc" /><path
   style="fill:none;fill-opacity:1;stroke:#000000;stroke-width:15.7426;stroke-linejoin:round;stroke-miterlimit:4;stroke-dasharray:none;stroke-opacity:1"
   d="M 110.66159,208.93666 40.801989,85.776239 180.5212,85.77615 Z"
   id="rect5050"
   inkscape:connector-curvature="0"
   sodipodi:nodetypes="cccc" /><path
   sodipodi:nodetypes="cccc"
   inkscape:connector-curvature="0"
   id="path1001"
   d="M 110.66101,208.93559 40.801989,85.776239 180.52004,85.77615 Z"
   style="fill:#feca2f;fill-opacity:1;stroke:#feca2f;stroke-width:8.99578;stroke-linejoin:round;stroke-miterlimit:4;stroke-dasharray:none;stroke-opacity:1" /><path
   style="font-style:normal;font-variant:normal;font-weight:normal;font-stretch:normal;letter-spacing:normal;word-spacing:normal;text-anchor:start;fill:#000000;fill-opacity:1;fill-rule:nonzero;stroke:none;stroke-width:0.969266"
   d="m 71.367758,108.63914 8.30077,-18.775436 v 0 H 74.36526 L 68.831441,102.06774 63.297622,89.863704 h -5.072716 l 8.30077,18.775436 v 15.25504 h 4.842082 z"
   id="polygon148"
   inkscape:connector-curvature="0" /><path
   style="font-style:normal;font-variant:normal;font-weight:normal;font-stretch:normal;letter-spacing:normal;word-spacing:normal;text-anchor:start;fill:#000000;fill-opacity:1;stroke:none;stroke-width:0.969266"
   d="m 84.971712,89.863704 v 34.030476 0 h 4.61153 V 89.863704 Z"
   id="polygon150"
   inkscape:connector-curvature="0" /><path
   style="font-style:normal;font-variant:normal;font-weight:normal;font-stretch:normal;letter-spacing:normal;word-spacing:normal;text-anchor:start;fill:#000000;fill-opacity:1;fill-rule:nonzero;stroke:none;stroke-width:0.969266"
   d="m 114.02428,123.89418 v 0 -4.69386 h -11.98992 v -11.26526 h 6.91729 v -4.69386 h -6.91729 v -8.683637 h 10.83708 V 89.863704 H 97.192275 v 34.030476 z"
   id="polygon152"
   inkscape:connector-curvature="0" /><path
   style="font-style:normal;font-variant:normal;font-weight:normal;font-stretch:normal;letter-spacing:normal;word-spacing:normal;text-anchor:start;fill:#000000;fill-opacity:1;fill-rule:nonzero;stroke:none;stroke-width:0.969266"
   d="m 125.09192,89.863704 h -4.84208 v 34.030476 h 17.06265 v 0 -4.44938 h -12.22057 z"
   id="polygon154"
   inkscape:connector-curvature="0" /><path
   id="path156"
   d="m 142.16664,89.860324 v 34.030656 h 9.43929 c 1.84466,0 3.45861,-0.45471 4.6117,-1.39366 3.22789,-2.57201 4.85182,-7.75474 4.85182,-15.74409 l -0.0233,-0.48896 v -0.48895 l -0.0233,-0.48896 -0.0233,-0.53789 -0.0483,-0.51334 -0.0483,-0.51333 -0.0724,-0.51343 -0.0483,-0.51333 -0.0724,-0.51343 -0.0724,-0.51333 -0.0716,-0.51334 -0.096,-0.48896 -0.0724,-0.48895 -0.0724,-0.464498 -0.096,-0.488959 -0.096,-0.440116 c -0.69165,-3.520302 -2.07038,-6.097121 -3.91505,-7.505278 -1.15309,-0.948558 -2.52682,-1.417944 -5.52424,-1.417944 h -8.52658 z m 4.82793,4.693948 h 3.91513 c 2.3056,0 3.70373,1.173464 4.39538,3.520394 0.69165,1.408155 0.91288,5.168224 0.91288,8.923314 v 0.5378 0.48896 l -0.0233,0.51333 v 0.48896 l -0.0483,0.48896 v 0.46449 l -0.0483,0.4645 -0.0233,0.46449 -0.0233,0.44003 -0.0483,0.44011 -0.0483,0.44003 -0.0233,0.41556 -0.0483,0.41565 -0.0233,0.41556 -0.0483,0.41565 -0.0483,0.39119 c -0.46118,2.58153 -1.85415,4.91387 -4.85182,4.91387 h -3.91513 V 94.554183 Z"
   style="font-style:normal;font-variant:normal;font-weight:normal;font-stretch:normal;letter-spacing:normal;word-spacing:normal;text-anchor:start;fill:#000000;fill-opacity:1;fill-rule:nonzero;stroke:none;stroke-width:0.698231"
   inkscape:connector-curvature="0" /><path
   inkscape:connector-curvature="0"
   style="fill:#000000;fill-rule:nonzero;stroke:none;stroke-width:0.0627305"
   d="m 118.08472,36.315698 -6.75258,-11.003912 v 11.003912 h -2.78769 V 20.066466 h 2.78769 l 6.44281,10.376664 V 20.066466 h 2.78794 v 16.249232 z"
   id="path43" /><path
   inkscape:connector-curvature="0"
   style="fill:#000000;fill-rule:nonzero;stroke:none;stroke-width:0.0627305"
   d="m 141.40167,36.315698 -6.75201,-11.003912 v 11.003912 h -2.78794 V 20.066466 h 2.78794 L 141.0919,30.44313 V 20.066466 h 2.78793 v 16.249232 z"
   id="path45" /><path
   inkscape:connector-curvature="0"
   style="fill:#000000;fill-rule:nonzero;stroke:none;stroke-width:0.0627305"
   d="M 124.79995,36.315698 V 20.066466 h 2.82471 v 16.249232 z"
   id="path47" /><path
   inkscape:connector-curvature="0"
   style="fill:#000000;fill-rule:nonzero;stroke:none;stroke-width:0.0627305"
   d="m 88.48256,33.864029 c -0.929312,1.596414 -3.035508,2.736712 -5.203812,2.736712 -2.168224,0 -4.274576,-1.140298 -5.203807,-2.736712 C 77.579392,32.894798 77.269534,31.7545 77.269534,30.500155 V 20.066542 h 2.787768 v 10.433613 c 0,2.109611 1.301037,3.477997 3.221446,3.477997 1.920414,0 3.221445,-1.368386 3.221445,-3.477997 V 20.066542 h 2.787682 v 10.433613 c 0,1.254345 -0.309686,2.394643 -0.805315,3.363874 z"
   id="path49" /><path
   inkscape:connector-curvature="0"
   style="fill:#000000;fill-rule:nonzero;stroke:none;stroke-width:0.0627305"
   d="m 70.51508,22.346996 v 13.96856 h -2.799541 v -13.96856 h -4.04425 v -2.280601 h 10.950252 v 2.280601 h -4.106455 z"
   id="path51" /><path
   inkscape:connector-curvature="0"
   style="fill:#000000;fill-rule:nonzero;stroke:none;stroke-width:0.0627305"
   d="M 101.26854,22.917214 C 100.83495,22.689126 100.58713,22.6321 99.657821,22.6321 h -3.345189 v 3.991051 h 3.345189 c 0.867439,0 1.177129,-0.05702 1.610719,-0.284962 0.68158,-0.34221 1.11526,-1.026403 1.11526,-1.71045 0,-0.684269 -0.43368,-1.368462 -1.11526,-1.710525 z m 1.239,13.398413 -2.849719,-7.069968 h -3.345189 v 7.069968 H 93.524939 V 20.066466 h 5.82319 c 1.362991,0 2.292221,0.11397 3.159411,0.513126 1.54876,0.684269 2.66394,2.394571 2.66394,4.048147 0,1.71045 -1.11517,3.420748 -2.72573,4.105017 l 3.09753,7.582871 z"
   id="path53" /><path
   inkscape:connector-curvature="0"
   style="fill:#000000;fill-rule:nonzero;stroke:none;stroke-width:0.0627305"
   d="m 154.20686,36.600741 c -2.66371,0 -4.21255,-0.912292 -5.26608,-2.9648 -0.74298,-1.425336 -1.17697,-3.420899 -1.17697,-5.416387 0,-2.622736 0.80508,-5.188365 1.98287,-6.613706 1.05273,-1.197324 2.53945,-1.82442 4.52229,-1.82442 2.72583,0 4.33597,1.026257 5.51291,3.591967 l -2.66367,0.96916 c -0.74293,-1.425412 -1.48673,-1.938543 -2.84924,-1.938543 -1.42542,0 -2.35473,0.570151 -2.97426,1.995563 -0.4332,0.969231 -0.68088,2.451588 -0.68088,3.819979 0,1.710455 0.30979,3.4209 0.86721,4.447151 0.55741,0.91221 1.36251,1.311452 2.41604,1.311452 1.79651,0 3.09772,-1.026409 3.09772,-2.508771 v -0.684193 h -3.22194 v -2.565639 h 6.00902 v 3.249832 c 0,2.9648 -2.35388,5.131355 -5.57502,5.131355 z"
   id="path55" /><path
   inkscape:connector-curvature="0"
   style="fill:#000000;fill-rule:nonzero;stroke:none;stroke-width:0.0627305"
   d="M 104.62517,64.751952 V 48.502495 h 2.82455 v 16.249457 z"
   id="path57" /><path
   inkscape:connector-curvature="0"
   style="fill:#000000;fill-rule:nonzero;stroke:none;stroke-width:0.0627305"
   d="M 125.68267,64.751957 V 48.502424 h 2.78385 v 13.854662 h 8.166 v 2.394871 z"
   id="path59" /><path
   inkscape:connector-curvature="0"
   style="fill:#000000;fill-rule:nonzero;stroke:none;stroke-width:0.0627305"
   d="m 161.39781,63.76271 c -0.99148,0.798164 -2.35479,1.254046 -3.84152,1.254046 -3.03556,0 -5.26528,-1.653353 -6.44221,-4.104946 l 2.66366,-0.912286 c 0.74299,1.539382 2.1063,2.394572 3.77855,2.394572 1.611,0 2.72583,-1.026257 2.72583,-2.394572 0,-2.166479 -2.72583,-2.508539 -5.01765,-3.363875 -1.05353,-0.399085 -3.40746,-1.368163 -3.40746,-4.04792 0,-3.192959 2.35393,-4.390288 5.51376,-4.390288 2.47815,0 4.15039,1.311371 5.0176,3.306935 l -2.47734,0.684046 c 0,0 -0.61953,-1.36824 -2.60237,-1.425113 -1.3012,-0.05717 -2.85004,0.398932 -2.72582,1.881365 0.24762,3.021744 8.54932,1.026256 8.54932,7.4118 0,1.482432 -0.61952,2.793727 -1.73435,3.706236 z"
   id="path61" /><path
   inkscape:connector-curvature="0"
   style="fill:#000000;fill-rule:nonzero;stroke:none;stroke-width:0.0627305"
   d="M 68.09119,64.751952 H 65.915608 L 60.321439,48.502495 h 2.921482 l 3.791615,10.832695 3.729432,-10.832695 h 2.983595 l -5.656368,16.249457 z"
   id="path63" /><path
   inkscape:connector-curvature="0"
   style="fill:#000000;fill-rule:nonzero;stroke:none;stroke-width:0.0627305"
   d="m 98.447834,64.751952 v -7.070188 h -6.442885 v 7.070188 H 89.217256 V 48.502495 h 2.787693 v 6.556609 h 6.442885 v -6.556609 h 2.787766 v 16.249457 z"
   id="path65" /><path
   inkscape:connector-curvature="0"
   style="fill:#000000;fill-rule:nonzero;stroke:none;stroke-width:0.0627305"
   d="M 75.866095,64.751952 V 48.502495 H 86.25949 v 2.565634 h -7.609472 v 3.991051 h 5.134989 v 2.62266 h -5.134989 v 4.447229 h 8.166319 v 2.622883 H 75.86609 Z"
   id="path67" /><path
   inkscape:connector-curvature="0"
   style="fill:#000000;fill-rule:nonzero;stroke:none;stroke-width:0.0627305"
   d="M 138.75105,64.751952 V 48.502495 h 10.39322 v 2.565634 h -7.60938 v 3.991051 h 5.13533 v 2.62266 h -5.13533 v 4.447229 h 8.1668 v 2.622883 z"
   id="path69" /><path
   inkscape:connector-curvature="0"
   style="fill:#000000;fill-rule:nonzero;stroke:none;stroke-width:0.0627305"
   d="m 117.24752,65.037066 c -2.6019,0 -4.27458,-0.91251 -5.38959,-2.907997 -0.8054,-1.425412 -1.30087,-3.477997 -1.30087,-5.530506 0,-2.565639 0.74321,-5.13135 1.98237,-6.556685 1.05306,-1.197248 2.53995,-1.824426 4.52231,-1.824426 2.66419,0 4.33645,1.026262 5.51342,3.306858 l -2.60158,1.026257 c -0.99142,-1.368391 -1.54885,-1.71045 -2.91184,-1.71045 -1.42494,0 -2.35416,0.570147 -2.97354,1.995488 -0.43377,0.969231 -0.68149,2.394643 -0.68149,3.762958 0,1.767472 0.43359,3.534942 1.11517,4.561199 0.61946,0.855184 1.42477,1.254421 2.66369,1.254421 1.17704,0 2.04423,-0.570228 2.72589,-1.881517 l 2.6637,0.912205 c -1.05272,2.394571 -2.78793,3.592195 -5.32764,3.592195 z"
   id="path71" /><path
   d="m 99.450063,225.54728 v 2.14362 h 3.073847 v 14.11478 h 2.53477 V 227.6909 h 3.01435 v -2.14362 h -8.622967 v 0"
   style="fill:#000000;fill-opacity:1;fill-rule:nonzero;stroke:none;stroke-width:0.118143"
   id="path1176"
   inkscape:connector-curvature="0" /><path
   d="m 116.19511,239.77294 c -0.97674,0 -1.67217,-0.59006 -2.08808,-1.77073 -0.33114,-0.96793 -0.49674,-2.41521 -0.49674,-4.34195 0,-4.11779 0.86178,-6.17542 2.58482,-6.17542 1.71225,0 2.56782,2.05763 2.56782,6.17542 0,4.07534 -0.85557,6.11268 -2.56782,6.11268 z m 0,2.34165 c 1.6789,0 2.9448,-0.75951 3.79792,-2.27889 0.79142,-1.43928 1.18692,-3.49817 1.18692,-6.17544 0,-5.62563 -1.6503,-8.43815 -4.95052,-8.43815 -3.37965,0 -5.06937,2.81252 -5.06937,8.43815 0,5.63548 1.67789,8.45433 5.03505,8.45433 v 0"
   style="fill:#000000;fill-opacity:1;fill-rule:nonzero;stroke:none;stroke-width:0.118145"
   id="path1178"
   inkscape:connector-curvature="0" /><path
   d="m 57.887343,249.93492 v 16.2584 h 2.104669 v -7.07379 h 1.567083 c 0.976699,0 1.817014,-0.44851 2.518119,-1.3492 0.691519,-0.89918 1.036092,-1.96113 1.036092,-3.18313 0,-1.23884 -0.356401,-2.32281 -1.069413,-3.25526 -0.712934,-0.93017 -1.518551,-1.39702 -2.416918,-1.39702 z m 2.104669,2.04716 h 1.272387 c 0.426732,0 0.815103,0.21234 1.163467,0.63585 0.364576,0.4773 0.547552,1.06641 0.547552,1.77083 0,0.72497 -0.154521,1.33889 -0.463322,1.84245 -0.309047,0.49655 -0.677414,0.74559 -1.103761,0.74559 h -1.416323 v -4.99472 0"
   style="fill:#000000;fill-opacity:1;fill-rule:nonzero;stroke:none;stroke-width:0.118142"
   id="path1192"
   inkscape:connector-curvature="0" /><path
   d="m 68.897151,249.93492 v 16.2584 h 6.570701 v -1.98456 h -4.413526 v -5.851 h 2.729373 v -2.00062 h -2.729373 v -4.40591 h 4.194871 v -2.01631 h -6.352046 v 0"
   style="fill:#000000;fill-opacity:1;fill-rule:nonzero;stroke:none;stroke-width:0.118147"
   id="path1194"
   inkscape:connector-curvature="0" /><path
   d="m 81.247794,249.93492 h -3.048185 v 16.2584 h 3.418936 c 0.595111,0 1.204855,-0.21103 1.827594,-0.63536 0.527481,-0.37052 0.922923,-0.78818 1.186718,-1.25376 0.208326,-0.36603 0.384994,-1.15154 0.531508,-2.35816 0.173496,-1.31694 0.261447,-2.75663 0.261447,-4.31907 0,-1.52884 -0.09278,-2.8515 -0.278002,-3.96854 -0.156936,-1.02125 -0.368331,-1.69917 -0.632121,-2.03157 -0.886534,-1.12784 -1.97643,-1.69194 -3.267793,-1.69194 z m 0.1935,2.01631 c 1.253867,0 1.879782,1.89266 1.879782,5.67574 0,1.91559 -0.0783,3.33467 -0.236265,4.2545 -0.270067,1.58308 -0.795166,2.37431 -1.575606,2.37431 h -1.222997 v -12.30455 h 1.154983 v 0"
   style="fill:#000000;fill-opacity:1;fill-rule:nonzero;stroke:none;stroke-width:0.118142"
   id="path1196"
   inkscape:connector-curvature="0" /><path
   d="m 98.097979,262.17627 c 0,1.53952 0.378819,2.67723 1.136928,3.41263 0.622789,0.59764 1.463173,0.89703 2.518453,0.89703 1.04907,0 1.93082,-0.40285 2.64377,-1.20676 0.61793,-0.7043 0.9269,-1.44993 0.9269,-2.23809 0,-1.11717 -0.29217,-2.32614 -0.87553,-3.62819 -0.71297,-1.56121 -1.71592,-2.86778 -3.00655,-3.92218 -0.26526,-0.21559 -0.48858,-0.57896 -0.67402,-1.08609 -0.16867,-0.46561 -0.25284,-0.91104 -0.25284,-1.33398 0,-0.93157 0.42393,-1.39717 1.27149,-1.39717 0.83041,0 1.24634,0.58481 1.24634,1.7538 h 2.12246 c 0,-1.20089 -0.33976,-2.14852 -1.01961,-2.84137 -0.62265,-0.65144 -1.41181,-0.97631 -2.36585,-0.97631 -0.88174,0 -1.65655,0.29395 -2.324353,0.88224 -0.724901,0.64928 -1.086187,1.49353 -1.086187,2.53165 0,0.67222 0.187647,1.43756 0.563288,2.29423 0.359839,0.79851 0.747279,1.40393 1.162242,1.81793 0.93735,0.92044 1.44834,1.43664 1.53289,1.54768 0.51682,0.609 0.94128,1.36849 1.27165,2.27817 0.21939,0.58158 0.32908,1.13814 0.32908,1.66776 0,0.5654 -0.12589,1.01529 -0.37881,1.34784 -0.26388,0.33966 -0.63704,0.50943 -1.12089,0.50943 -0.47153,0 -0.83903,-0.18469 -1.10285,-0.55645 -0.29699,-0.40688 -0.44683,-0.99213 -0.44683,-1.7538 h -2.070997 v 0"
   style="fill:#000000;fill-opacity:1;fill-rule:nonzero;stroke:none;stroke-width:0.118148"
   id="path1198"
   inkscape:connector-curvature="0" /><path
   d="m 108.09027,249.93492 v 2.00016 h 2.24094 v 14.25824 h 2.19008 v -14.25824 h 2.13968 v -2.00016 h -6.5707 v 0"
   style="fill:#000000;fill-opacity:1;fill-rule:nonzero;stroke:none;stroke-width:0.118138"
   id="path1200"
   inkscape:connector-curvature="0" /><path
   d="m 122.86808,257.86577 c 1.09567,-0.75716 1.64373,-1.89979 1.64373,-3.42996 0,-1.6355 -0.3984,-2.831 -1.19555,-3.58773 -0.61796,-0.60805 -1.43216,-0.91316 -2.44325,-0.91316 h -3.46993 v 16.2584 h 2.08672 v -7.60613 h 1.27249 l 1.72683,7.60613 h 2.14001 z m -1.96319,-1.34907 h -1.41509 v -4.58162 h 1.41509 c 0.44914,0 0.82371,0.27637 1.12085,0.82621 0.25284,0.47593 0.3788,0.99661 0.3788,1.56334 0,0.47593 -0.14245,0.95313 -0.42869,1.43029 -0.32562,0.50725 -0.68218,0.76178 -1.07096,0.76178 v 0"
   style="fill:#000000;fill-opacity:1;fill-rule:nonzero;stroke:none;stroke-width:0.118146"
   id="path1202"
   inkscape:connector-curvature="0" /><path
   d="m 136.47299,260.08066 0.98627,-4.76265 1.13757,4.76265 z m -3.52097,6.11266 h 2.20658 l 0.80949,-4.09631 h 2.97433 l 0.96013,4.09631 h 2.20707 l -3.64022,-16.2584 h -2.15667 l -3.3607,16.2584 v 0"
   style="fill:#000000;fill-opacity:1;fill-rule:nonzero;stroke:none;stroke-width:0.118147"
   id="path1204"
   inkscape:connector-curvature="0" /><path
   d="m 144.87587,249.93492 v 16.2584 h 2.15509 v -9.62154 l 3.20696,9.62154 h 1.86055 v -16.2584 h -2.11858 v 8.65227 l -2.94893,-8.65227 h -2.15509 v 0"
   style="fill:#000000;fill-opacity:1;fill-rule:nonzero;stroke:none;stroke-width:0.118133"
   id="path1206"
   inkscape:connector-curvature="0" /><path
   inkscape:connector-curvature="0"
   id="path1208"
   style="fill:#000000;fill-opacity:1;fill-rule:nonzero;stroke:none;stroke-width:0.118147"
   d="m 88.795517,249.93492 v 16.2584 h 6.570701 v -1.98456 h -4.413521 v -5.851 h 2.729367 v -2.00062 h -2.729367 v -4.40591 h 4.194865 v -2.01631 h -6.352045 v 0" /><rect
   y="249.93486"
   x="128.00244"
   height="16.2584"
   width="2.1557426"
   id="rect1210"
   style="fill:#000000;fill-opacity:1;fill-rule:nonzero;stroke:none;stroke-width:0.493335;stroke-linecap:square;stroke-linejoin:round;stroke-miterlimit:4;stroke-dasharray:none;stroke-dashoffset:0;stroke-opacity:1" /><path
   inkscape:connector-curvature="0"
   id="path1212"
   style="fill:#000000;fill-opacity:1;fill-rule:nonzero;stroke:none;stroke-width:0.118148"
   d="m 155.51661,262.17627 c 0,1.53952 0.37882,2.67723 1.13693,3.41263 0.62279,0.59764 1.46317,0.89703 2.51846,0.89703 1.04907,0 1.93081,-0.40285 2.64377,-1.20676 0.61792,-0.7043 0.92689,-1.44993 0.92689,-2.23809 0,-1.11717 -0.29216,-2.32614 -0.87553,-3.62819 -0.71296,-1.56121 -1.71591,-2.86778 -3.00655,-3.92218 -0.26525,-0.21559 -0.48857,-0.57896 -0.67402,-1.08609 -0.16867,-0.46561 -0.25284,-0.91104 -0.25284,-1.33398 0,-0.93157 0.42394,-1.39717 1.27149,-1.39717 0.83042,0 1.24635,0.58481 1.24635,1.7538 h 2.12246 c 0,-1.20089 -0.33977,-2.14852 -1.01961,-2.84137 -0.62266,-0.65144 -1.41182,-0.97631 -2.36586,-0.97631 -0.88173,0 -1.65654,0.29395 -2.32435,0.88224 -0.7249,0.64928 -1.08619,1.49353 -1.08619,2.53165 0,0.67222 0.18765,1.43756 0.56329,2.29423 0.35984,0.79851 0.74728,1.40393 1.16225,1.81793 0.93734,0.92044 1.44834,1.43664 1.53288,1.54768 0.51682,0.609 0.94128,1.36849 1.27167,2.27817 0.21939,0.58158 0.32907,1.13814 0.32907,1.66776 0,0.5654 -0.1259,1.01529 -0.37881,1.34784 -0.26388,0.33966 -0.63704,0.50943 -1.12089,0.50943 -0.47153,0 -0.83903,-0.18469 -1.10285,-0.55645 -0.297,-0.40688 -0.44683,-0.99213 -0.44683,-1.7538 h -2.071 v 0" /></svg>
