<?xml version="1.0" encoding="UTF-8" standalone="no"?>
<!-- Created with Inkscape (http://www.inkscape.org/) -->

<svg
   width="25.57674mm"
   height="31.926741mm"
   viewBox="0 0 25.57674 31.926741"
   version="1.1"
   id="svg1"
   inkscape:version="1.3 (0e150ed, 2023-07-21)"
   sodipodi:docname="MUTCD_R2-2bP.svg"
   xmlns:inkscape="http://www.inkscape.org/namespaces/inkscape"
   xmlns:sodipodi="http://sodipodi.sourceforge.net/DTD/sodipodi-0.dtd"
   xmlns="http://www.w3.org/2000/svg"
   xmlns:svg="http://www.w3.org/2000/svg">
  <sodipodi:namedview
     id="namedview1"
     pagecolor="#ffffff"
     bordercolor="#666666"
     borderopacity="1.0"
     inkscape:showpageshadow="2"
     inkscape:pageopacity="0.0"
     inkscape:pagecheckerboard="0"
     inkscape:deskcolor="#d1d1d1"
     inkscape:document-units="mm"
     inkscape:zoom="1"
     inkscape:cx="29"
     inkscape:cy="53"
     inkscape:window-width="1440"
     inkscape:window-height="431"
     inkscape:window-x="0"
     inkscape:window-y="23"
     inkscape:window-maximized="0"
     inkscape:current-layer="g89" />
  <defs
     id="defs1">
    <clipPath
       clipPathUnits="userSpaceOnUse"
       id="clipPath88">
      <path
         d="M 70.849,240.105 H 496.151 V 742.387 H 70.849 Z"
         transform="translate(-338.39961,-623.02472)"
         id="path88" />
    </clipPath>
  </defs>
  <g
     inkscape:label="Layer 1"
     inkscape:groupmode="layer"
     id="layer1"
     transform="translate(-60.324993,-123.825)">
    <g
       id="g86"
       transform="matrix(0.26458333,0,0,0.26458333,-57.37903,96.096807)">
      <path
         id="path87"
         d="m 0,0 c -2.55,0 -4.625,2.075 -4.625,4.625 v 81 c 0,2.551 2.075,4.626 4.625,4.626 h 63.001 c 2.55,0 4.625,-2.075 4.625,-4.626 v -81 C 67.626,2.075 65.551,0 63.001,0 Z"
         style="fill:#ffffff;fill-opacity:1;fill-rule:nonzero;stroke:none"
         transform="matrix(1.3333333,0,0,-1.3333333,451.19947,225.3004)"
         clip-path="url(#clipPath88)" />
    </g>
    <g
       id="g88"
       transform="matrix(0.26458333,0,0,0.26458333,-57.37903,96.096807)">
      <path
         id="path89"
         d="m 0,0 h -63 c -2.62,0 -4.751,-2.131 -4.751,-4.75 v -81.001 c 0,-2.619 2.131,-4.75 4.751,-4.75 H 0 c 2.619,0 4.75,2.131 4.75,4.75 V -4.75 C 4.75,-2.131 2.619,0 0,0 m 0,-0.25 c 2.475,0 4.5,-2.025 4.5,-4.5 v -81.001 c 0,-2.475 -2.025,-4.5 -4.5,-4.5 h -63 c -2.476,0 -4.501,2.025 -4.501,4.5 V -4.75 c 0,2.475 2.025,4.5 4.501,4.5 z"
         style="fill:#000000 icc-color(sRGB-IEC61966-2, 0.1, 0, 0, 0);fill-opacity:1;fill-rule:nonzero;stroke:none"
         transform="matrix(1.3333333,0,0,-1.3333333,535.20027,104.79947)" />
    </g>
    <g
       id="g89"
       transform="matrix(0.26458333,0,0,0.26458333,-57.37903,96.096807)">
      <path
         id="path90"
         d="m 0,0 c -1.861,0 -3.375,1.514 -3.375,3.375 v 81.001 c 0,1.861 1.514,3.375 3.375,3.375 h 63 c 1.861,0 3.376,-1.514 3.376,-3.375 V 3.375 C 66.376,1.514 64.861,0 63,0 Z"
         style="fill:#000000 icc-color(sRGB-IEC61966-2, 0.1, 0, 0, 0);fill-opacity:1;fill-rule:nonzero;stroke:none"
         transform="matrix(1.3333333,0,0,-1.3333333,451.1996,223.63373)" />
      <path
         id="path91"
         d="m 0,0 c -0.827,0 -1.5,0.673 -1.5,1.5 v 81.001 c 0,0.827 0.673,1.5 1.5,1.5 h 63 c 0.828,0 1.501,-0.673 1.501,-1.5 V 1.5 C 64.501,0.673 63.828,0 63,0 Z"
         style="fill:#ffffff;fill-opacity:1;fill-rule:nonzero;stroke:none"
         transform="matrix(1.3333333,0,0,-1.3333333,451.1996,221.23507)" />
    </g>
    <g
       id="g91"
       transform="matrix(0.26458333,0,0,0.26458333,-57.37903,96.096807)">
      <path
         id="path92"
         d="m 0,0 v -3.285 h 2.863 c 0.975,0 1.475,0.464 1.475,1.391 C 4.338,-0.967 3.696,0 2.715,0 Z M 2.781,4.884 H 0 V 1.936 h 2.412 c 1.077,0 1.674,0.939 1.674,1.727 0,0.799 -0.441,1.221 -1.305,1.221 M -1.893,-5.221 V 6.778 H 2.655 C 4.549,6.778 5.98,5.473 5.98,3.747 5.98,2.568 5.434,1.683 4.297,1.051 5.56,0.462 6.276,-0.56 6.276,-1.852 c 0,-0.855 -0.482,-3.369 -3.621,-3.369 z"
         style="fill:#000000 icc-color(sRGB-IEC61966-2, 0.1, 0, 0, 0);fill-opacity:1;fill-rule:nonzero;stroke:none"
         transform="matrix(1.3333333,0,0,-1.3333333,464.0976,154.17093)" />
      <path
         id="path93"
         d="M 0,0 V 7.705 H 1.893 V 0 c 0,-1.559 0.885,-2.568 2.19,-2.568 1.305,0 2.19,1.009 2.19,2.568 V 7.705 H 8.169 V 0 C 8.169,-3.795 5.257,-4.504 4.084,-4.504 3.016,-4.504 0,-3.876 0,0"
         style="fill:#000000 icc-color(sRGB-IEC61966-2, 0.1, 0, 0, 0);fill-opacity:1;fill-rule:nonzero;stroke:none"
         transform="matrix(1.3333333,0,0,-1.3333333,475.186,155.40693)" />
      <path
         id="path94"
         d="m 0,0 1.81,0.674 c 0.506,-1.138 1.431,-1.769 2.568,-1.769 1.095,0 1.854,0.758 1.854,1.769 0,1.605 -1.852,1.852 -3.411,2.483 -0.715,0.296 -2.316,1.011 -2.316,2.99 0,2.359 1.599,3.24 3.747,3.24 1.685,0 2.822,-0.969 3.411,-2.442 L 5.979,6.439 C 5.79,6.913 5.104,7.492 4.21,7.492 2.499,7.492 2.353,6.579 2.353,6.279 2.353,5.157 3.321,4.935 4.894,4.441 6.496,3.937 8.169,3.201 8.169,0.629 c 0,-2.591 -2.1,-3.66 -3.791,-3.66 C 2.314,-3.031 0.799,-1.81 0,0"
         style="fill:#000000 icc-color(sRGB-IEC61966-2, 0.1, 0, 0, 0);fill-opacity:1;fill-rule:nonzero;stroke:none"
         transform="matrix(1.3333333,0,0,-1.3333333,488.79813,157.37093)" />
      <path
         id="path95"
         d="M 0,0 H 7.065 V -1.894 H 1.893 v -2.948 h 3.49 v -1.936 h -3.49 v -3.285 h 5.55 V -12 H 0 Z"
         style="fill:#000000 icc-color(sRGB-IEC61966-2, 0.1, 0, 0, 0);fill-opacity:1;fill-rule:nonzero;stroke:none"
         transform="matrix(1.3333333,0,0,-1.3333333,502.4104,145.13307)" />
      <path
         id="path96"
         d="m 0,0 1.81,0.674 c 0.506,-1.138 1.431,-1.769 2.568,-1.769 1.095,0 1.854,0.758 1.854,1.769 0,1.605 -1.852,1.852 -3.411,2.483 -0.715,0.296 -2.316,1.011 -2.316,2.99 0,2.359 1.599,3.24 3.747,3.24 1.685,0 2.822,-0.969 3.411,-2.442 L 5.979,6.439 C 5.79,6.913 5.104,7.492 4.21,7.492 2.499,7.492 2.353,6.579 2.353,6.279 2.353,5.157 3.321,4.935 4.894,4.441 6.496,3.937 8.169,3.201 8.169,0.629 c 0,-2.591 -2.1,-3.66 -3.791,-3.66 C 2.314,-3.031 0.799,-1.81 0,0"
         style="fill:#000000 icc-color(sRGB-IEC61966-2, 0.1, 0, 0, 0);fill-opacity:1;fill-rule:nonzero;stroke:none"
         transform="matrix(1.3333333,0,0,-1.3333333,513.93467,157.37093)" />
      <path
         id="path97"
         d="m 0,0 h 11.685 v 12 z m 16.95,-10.946 h -5.265 v 6.105 H -6.844 V 0 L 11.685,19.053 H 16.95 V 0 h 4.421 V -4.841 H 16.95 Z"
         style="fill:#000000 icc-color(sRGB-IEC61966-2, 0.1, 0, 0, 0);fill-opacity:1;fill-rule:nonzero;stroke:none"
         transform="matrix(1.3333333,0,0,-1.3333333,463.90453,194.53787)" />
      <path
         id="path98"
         d="M 0,0 0.953,14.103 H 21.037 L 20.932,8.839 H 6.026 L 5.707,4.519 c 2.43,0.521 3.912,0.738 5.817,0.738 6.873,0 11.838,-4.631 11.838,-10.841 0,-6.314 -5.287,-10.841 -12.686,-10.841 -4.121,0 -7.822,1.05 -11.628,3.368 l 2.853,4.526 c 3.379,-1.961 6.518,-2.419 8.996,-2.419 4.639,0 7.058,2.25 7.058,5.269 0,2.602 -1.452,5.467 -6.435,5.467 -2.209,0 -3.769,-0.243 -6.131,-1.155 z"
         style="fill:#000000 icc-color(sRGB-IEC61966-2, 0.1, 0, 0, 0);fill-opacity:1;fill-rule:nonzero;stroke:none"
         transform="matrix(1.3333333,0,0,-1.3333333,500.47093,187.93813)" />
    </g>
    <g
       id="g98"
       transform="matrix(0.26458333,0,0,0.26458333,-57.37903,96.096807)">
      <path
         id="path99"
         d="M 0,0 H -1.903 V 10.316 H -4.651 V 12 H 2.791 V 10.316 H 0 Z"
         style="fill:#000000 icc-color(sRGB-IEC61966-2, 0.1, 0, 0, 0);fill-opacity:1;fill-rule:nonzero;stroke:none"
         transform="matrix(1.3333333,0,0,-1.3333333,460.17147,137.13307)" />
      <path
         id="path100"
         d="m 0,0 c 1.506,0 1.743,1.086 1.743,1.473 0,0.524 -0.392,1.475 -1.651,1.475 H -2.383 V 0 Z m -2.383,-1.935 v -5.223 h -1.893 v 12 h 4.341 c 2.75,0 3.575,-2.201 3.575,-3.371 0,-0.445 -0.165,-2.2 -1.863,-3.004 L 3.892,-7.158 H 1.828 l -1.936,5.223 z"
         style="fill:#000000 icc-color(sRGB-IEC61966-2, 0.1, 0, 0, 0);fill-opacity:1;fill-rule:nonzero;stroke:none"
         transform="matrix(1.3333333,0,0,-1.3333333,471.99547,127.58893)" />
      <path
         id="path101"
         d="M 0,0 V 7.706 H 1.893 V 0 c 0,-1.559 0.885,-2.568 2.19,-2.568 1.305,0 2.19,1.009 2.19,2.568 V 7.706 H 8.169 V 0 C 8.169,-3.795 5.257,-4.505 4.084,-4.505 3.016,-4.505 0,-3.876 0,0"
         style="fill:#000000 icc-color(sRGB-IEC61966-2, 0.1, 0, 0, 0);fill-opacity:1;fill-rule:nonzero;stroke:none"
         transform="matrix(1.3333333,0,0,-1.3333333,479.90587,131.40693)" />
      <path
         id="path102"
         d="m 0,0 c 0,1.687 0.339,6.188 4.42,6.188 1.74,0 2.925,-0.708 3.749,-2.442 L 6.4,2.988 C 5.787,3.87 5.481,4.251 4.422,4.251 c -2.511,0 -2.484,-3.499 -2.484,-4.253 0,-0.744 -0.047,-4.296 2.568,-4.296 0.916,0 1.443,0.554 1.852,1.391 L 8.169,-3.581 C 7.494,-5.25 6.36,-6.231 4.546,-6.231 0.228,-6.231 0,-1.461 0,0"
         style="fill:#000000 icc-color(sRGB-IEC61966-2, 0.1, 0, 0, 0);fill-opacity:1;fill-rule:nonzero;stroke:none"
         transform="matrix(1.3333333,0,0,-1.3333333,494.31813,129.10493)" />
      <path
         id="path103"
         d="M 0,0 -1.267,-1.558 V -5.684 H -3.168 V 6.317 h 1.901 V 1.559 L 2.535,6.317 H 4.984 L 1.267,1.643 5.238,-5.684 H 3.042 Z"
         style="fill:#000000 icc-color(sRGB-IEC61966-2, 0.1, 0, 0, 0);fill-opacity:1;fill-rule:nonzero;stroke:none"
         transform="matrix(1.3333333,0,0,-1.3333333,512.95413,129.55493)" />
      <path
         id="path104"
         d="m 0,0 1.81,0.674 c 0.506,-1.138 1.431,-1.769 2.568,-1.769 1.095,0 1.854,0.757 1.854,1.769 0,1.605 -1.852,1.852 -3.411,2.484 -0.715,0.295 -2.316,1.011 -2.316,2.989 0,2.36 1.599,3.24 3.747,3.24 1.685,0 2.822,-0.969 3.411,-2.442 L 5.979,6.44 C 5.79,6.914 5.104,7.493 4.21,7.493 2.499,7.493 2.353,6.579 2.353,6.279 2.353,5.157 3.321,4.935 4.894,4.442 6.496,3.938 8.169,3.201 8.169,0.628 c 0,-2.59 -2.1,-3.66 -3.791,-3.66 C 2.314,-3.032 0.799,-1.811 0,0"
         style="fill:#000000 icc-color(sRGB-IEC61966-2, 0.1, 0, 0, 0);fill-opacity:1;fill-rule:nonzero;stroke:none"
         transform="matrix(1.3333333,0,0,-1.3333333,521.53867,133.37093)" />
    </g>
  </g>
</svg>
