<?xml version="1.0" encoding="UTF-8" standalone="no"?>
<svg
   xmlns:dc="http://purl.org/dc/elements/1.1/"
   xmlns:cc="http://creativecommons.org/ns#"
   xmlns:rdf="http://www.w3.org/1999/02/22-rdf-syntax-ns#"
   xmlns:svg="http://www.w3.org/2000/svg"
   xmlns="http://www.w3.org/2000/svg"
   xmlns:sodipodi="http://sodipodi.sourceforge.net/DTD/sodipodi-0.dtd"
   xmlns:inkscape="http://www.inkscape.org/namespaces/inkscape"
   sodipodi:docname="R7-21aL.svg"
   inkscape:version="1.0rc1 (09960d6f05, 2020-04-09)"
   id="svg2449"
   version="1.1"
   viewBox="0 0 24.550158 36.737217"
   height="36.737217mm"
   width="24.550158mm">
  <defs
     id="defs2443" />
  <sodipodi:namedview
     inkscape:window-maximized="1"
     inkscape:window-y="0"
     inkscape:window-x="0"
     inkscape:window-height="836"
     inkscape:window-width="1600"
     showgrid="false"
     inkscape:document-rotation="0"
     inkscape:current-layer="layer1"
     inkscape:document-units="mm"
     inkscape:cy="69.424662"
     inkscape:cx="46.393999"
     inkscape:zoom="2.8"
     inkscape:pageshadow="2"
     inkscape:pageopacity="0.0"
     borderopacity="1.0"
     bordercolor="#666666"
     pagecolor="#ffffff"
     id="base" />
  <metadata
     id="metadata2446">
    <rdf:RDF>
      <cc:Work
         rdf:about="">
        <dc:format>image/svg+xml</dc:format>
        <dc:type
           rdf:resource="http://purl.org/dc/dcmitype/StillImage" />
        <dc:title></dc:title>
      </cc:Work>
    </rdf:RDF>
  </metadata>
  <g
     transform="translate(-231.14159,-116.19092)"
     id="layer1"
     inkscape:groupmode="layer"
     inkscape:label="Layer 1">
    <g
       id="g2038"
       transform="matrix(0.35277777,0,0,-0.35277777,255.60355,149.793)">
      <path
         d="m 0,0 c 0,-4.771 -3.866,-8.637 -8.636,-8.637 h -51.818 c -4.77,0 -8.637,3.866 -8.637,8.637 v 86.363 c 0,4.77 3.867,8.637 8.637,8.637 H -8.636 C -3.866,95 0,91.133 0,86.363 Z"
         style="fill:#ffffff;fill-opacity:1;fill-rule:nonzero;stroke:none"
         id="path2040"
         inkscape:connector-curvature="0" />
    </g>
    <g
       id="g2042"
       transform="matrix(0.35277777,0,0,-0.35277777,255.60355,149.793)">
      <path
         d="m 0,0 c 0,-4.771 -3.866,-8.637 -8.636,-8.637 h -51.818 c -4.77,0 -8.637,3.866 -8.637,8.637 v 86.363 c 0,4.77 3.867,8.637 8.637,8.637 H -8.636 C -3.866,95 0,91.133 0,86.363 Z"
         style="fill:none;stroke:#231f20;stroke-width:0.5;stroke-linecap:butt;stroke-linejoin:miter;stroke-miterlimit:4;stroke-dasharray:none;stroke-opacity:1"
         id="path2044"
         inkscape:connector-curvature="0" />
    </g>
    <g
       id="g2046"
       transform="matrix(0.35277777,0,0,-0.35277777,244.57678,122.39592)">
      <path
         d="M 0,0 H -5.496 V -4.33 H 0 c 1.475,0 2.413,0.866 2.413,2.198 C 2.413,-0.932 1.408,0 0,0 m 3.217,-7.328 c -1.139,-0.6 -1.943,-0.8 -3.686,-0.8 h -5.027 v -7.129 H -9.25 V 3.798 h 8.982 c 1.608,0 2.413,-0.2 3.485,-0.8 C 5.027,1.932 6.166,0 6.166,-2.132 6.166,-4.33 5.027,-6.329 3.217,-7.328"
         style="fill:#231f20;fill-opacity:1;fill-rule:nonzero;stroke:none"
         id="path2048"
         inkscape:connector-curvature="0" />
    </g>
    <g
       id="g2050"
       transform="matrix(0.35277777,0,0,-0.35277777,243.41649,128.87222)">
      <path
         d="m 0,0 c -6.995,0 -12.666,5.671 -12.666,12.666 0,6.996 5.671,12.667 12.666,12.667 6.997,0 12.667,-5.671 12.667,-12.667 C 12.667,5.671 6.997,0 0,0 m 0,28.5 c -8.72,0 -15.833,-7.113 -15.833,-15.834 0,-8.72 7.113,-15.833 15.833,-15.833 8.721,0 15.834,7.113 15.834,15.833 C 15.834,21.387 8.721,28.5 0,28.5"
         style="fill:#00674c;fill-opacity:1;fill-rule:evenodd;stroke:none"
         id="path2052"
         inkscape:connector-curvature="0" />
    </g>
    <g
       id="g2054"
       transform="matrix(0.35277777,0,0,-0.35277777,237.12364,145.76353)">
      <path
         d="m 0,0 h -1.81 v 10.621 h -0.909 v 1.426 c 0.223,0.017 0.38,0.035 0.466,0.052 0.155,0.034 0.324,0.104 0.504,0.208 0.181,0.103 0.393,0.318 0.634,0.646 H 0 Z"
         style="fill:#00674c;fill-opacity:1;fill-rule:nonzero;stroke:none"
         id="path2056"
         inkscape:connector-curvature="0" />
    </g>
    <g
       id="g2058"
       transform="matrix(0.35277777,0,0,-0.35277777,240.46092,144.17392)">
      <path
         d="m 0,0 c 0,-1.727 -0.537,-2.989 -1.608,-3.782 -0.778,-0.57 -1.767,-0.855 -2.969,-0.855 -0.941,0 -1.819,0.406 -2.631,1.219 l 1.272,1.308 c 0,-0.07 0.143,-0.191 0.428,-0.365 0.381,-0.236 0.83,-0.353 1.349,-0.353 0.692,0 1.263,0.281 1.713,0.843 0.424,0.545 0.636,1.203 0.636,1.973 0,0.77 -0.204,1.379 -0.61,1.828 C -2.757,2.205 -3.143,2.4 -3.575,2.4 -4.311,2.408 -4.787,2.158 -5.002,1.646 l -1.909,0.26 0.454,6.541 h 5.972 V 6.619 h -4.183 l -0.196,-2.76 c 0.364,0.234 0.783,0.35 1.258,0.35 1.098,0 1.984,-0.428 2.658,-1.282 C -0.317,2.133 0,1.156 0,0"
         style="fill:#00674c;fill-opacity:1;fill-rule:nonzero;stroke:none"
         id="path2060"
         inkscape:connector-curvature="0" />
    </g>
    <g
       id="g2062"
       transform="matrix(0.35277777,0,0,-0.35277777,244.13051,143.2253)">
      <path
         d="M 0,0 H -0.805 V 3.225 L -1.9,0 -2.994,3.225 V 0 h -0.805 v 5.758 h 0.807 l 1.093,-3.223 1.094,3.223 H 0 Z"
         style="fill:#00674c;fill-opacity:1;fill-rule:nonzero;stroke:none"
         id="path2064"
         inkscape:connector-curvature="0" />
    </g>
    <path
       d="m 244.8614,143.2253 h -0.28399 v -2.0313 h 0.28399 z"
       style="fill:#00674c;fill-opacity:1;fill-rule:nonzero;stroke:none;stroke-width:0.352777"
       id="path2066"
       inkscape:connector-curvature="0" />
    <g
       id="g2068"
       transform="matrix(0.35277777,0,0,-0.35277777,246.44615,143.2253)">
      <path
         d="M 0,0 H -0.804 L -2.42,3.727 V 0 h -0.804 v 5.758 h 0.806 l 1.613,-3.719 0.001,3.719 H 0 Z"
         style="fill:#00674c;fill-opacity:1;fill-rule:nonzero;stroke:none"
         id="path2070"
         inkscape:connector-curvature="0" />
    </g>
    <g
       id="g2072"
       transform="matrix(0.35277777,0,0,-0.35277777,248.03047,142.67743)">
      <path
         d="m 0,0 c 0,-0.445 -0.157,-0.824 -0.469,-1.139 -0.313,-0.316 -0.695,-0.472 -1.143,-0.472 -0.445,0 -0.825,0.156 -1.139,0.472 -0.316,0.315 -0.473,0.694 -0.473,1.139 v 4.205 h 0.805 V 0 c 0,-0.223 0.078,-0.414 0.233,-0.57 0.156,-0.159 0.347,-0.237 0.574,-0.237 0.219,0 0.408,0.078 0.568,0.237 0.16,0.156 0.239,0.347 0.239,0.57 V 4.205 H 0 Z"
         style="fill:#00674c;fill-opacity:1;fill-rule:nonzero;stroke:none"
         id="path2074"
         inkscape:connector-curvature="0" />
    </g>
    <g
       id="g2076"
       transform="matrix(0.35277777,0,0,-0.35277777,249.34951,141.47802)">
      <path
         d="M 0,0 H -1.068 V -4.953 H -1.872 V 0 H -2.937 V 0.805 H 0 Z"
         style="fill:#00674c;fill-opacity:1;fill-rule:nonzero;stroke:none"
         id="path2078"
         inkscape:connector-curvature="0" />
    </g>
    <g
       id="g2080"
       transform="matrix(0.35277777,0,0,-0.35277777,250.66925,143.22671)">
      <path
         d="M 0,0 -2.937,0.004 V 5.762 H 0 V 4.957 H -2.132 V 3.459 h 1.269 V 2.655 H -2.132 V 0.809 H 0 Z"
         style="fill:#00674c;fill-opacity:1;fill-rule:nonzero;stroke:none"
         id="path2082"
         inkscape:connector-curvature="0" />
    </g>
    <g
       id="g2084"
       transform="matrix(0.35277777,0,0,-0.35277777,245.07384,145.76353)">
      <path
         d="m 0,0 h -2.937 v 5.756 h 0.805 V 0.805 H 0 Z"
         style="fill:#00674c;fill-opacity:1;fill-rule:nonzero;stroke:none"
         id="path2086"
         inkscape:connector-curvature="0" />
    </g>
    <path
       d="m 245.64351,145.76353 h -0.28399 v -2.03059 h 0.28399 z"
       style="fill:#00674c;fill-opacity:1;fill-rule:nonzero;stroke:none;stroke-width:0.352777"
       id="path2088"
       inkscape:connector-curvature="0" />
    <g
       id="g2090"
       transform="matrix(0.35277777,0,0,-0.35277777,247.43075,145.76353)">
      <path
         d="M 0,0 H -0.804 V 3.223 L -1.899,0 -2.993,3.223 V 0 h -0.805 v 5.756 h 0.806 l 1.094,-3.223 1.094,3.223 H 0 Z"
         style="fill:#00674c;fill-opacity:1;fill-rule:nonzero;stroke:none"
         id="path2092"
         inkscape:connector-curvature="0" />
    </g>
    <path
       d="m 248.16234,145.76353 h -0.28399 v -2.03059 h 0.28399 z"
       style="fill:#00674c;fill-opacity:1;fill-rule:nonzero;stroke:none;stroke-width:0.352777"
       id="path2094"
       inkscape:connector-curvature="0" />
    <g
       id="g2096"
       transform="matrix(0.35277777,0,0,-0.35277777,249.48145,144.01693)">
      <path
         d="M 0,0 H -1.068 V -4.951 H -1.872 V 0 H -2.937 V 0.805 H 0 Z"
         style="fill:#00674c;fill-opacity:1;fill-rule:nonzero;stroke:none"
         id="path2098"
         inkscape:connector-curvature="0" />
    </g>
    <g
       id="g2100"
       transform="matrix(0.35277777,0,0,-0.35277777,253.95361,149.793)">
      <path
         d="m 0,0 c 0,-2.184 -1.776,-3.959 -3.959,-3.959 h -51.818 c -2.183,0 -3.959,1.775 -3.959,3.959 v 86.363 c 0,2.183 1.776,3.958 3.959,3.958 H -3.959 C -1.776,90.321 0,88.546 0,86.363 Z m -3.959,92.84 h -51.818 c -3.572,0 -6.478,-2.905 -6.478,-6.477 V 0 c 0,-3.572 2.906,-6.479 6.478,-6.479 h 51.818 c 3.572,0 6.477,2.907 6.477,6.479 v 86.363 c 0,3.572 -2.905,6.477 -6.477,6.477"
         style="fill:#00674c;fill-opacity:1;fill-rule:nonzero;stroke:none"
         id="path2102"
         inkscape:connector-curvature="0" />
    </g>
    <g
       id="g2104"
       transform="matrix(0.35277777,0,0,-0.35277777,251.49475,139.23365)">
      <path
         d="m 0,0 c -0.391,-0.885 -1.207,-1.414 -2.236,-1.414 -1.208,0 -2.095,0.601 -2.592,1.732 -0.321,0.742 -0.533,2.156 -0.533,3.464 0,1.414 0.106,2.44 0.461,3.394 0.356,1.06 1.385,1.839 2.557,1.839 1.455,0 2.556,-1.061 2.627,-2.546 h -1.456 c -0.035,0.672 -0.497,1.132 -1.207,1.132 -0.497,0 -0.888,-0.248 -1.136,-0.742 -0.284,-0.497 -0.462,-1.627 -0.462,-2.83 0,-0.848 0.072,-1.731 0.213,-2.51 C -3.551,0.529 -3.054,0 -2.273,0 c 0.746,0 1.101,0.494 1.101,1.554 V 2.226 H -2.308 V 3.641 H 0.284 V 1.554 C 0.284,0.847 0.213,0.423 0,0"
         style="fill:#00674c;fill-opacity:1;fill-rule:nonzero;stroke:none"
         id="path2106"
         inkscape:connector-curvature="0" />
    </g>
    <path
       d="m 245.62128,136.11612 h 0.49777 v 3.55459 h -0.49777 z"
       style="fill:#00674c;fill-opacity:1;fill-rule:nonzero;stroke:none;stroke-width:0.352777"
       id="path2108"
       inkscape:connector-curvature="0" />
    <g
       id="g2110"
       transform="matrix(0.35277777,0,0,-0.35277777,244.48188,139.67071)">
      <path
         d="M 0,0 -1.764,4.915 -2.681,3.219 V 0 h -1.446 v 10.076 h 1.446 V 6.047 l 2.293,4.029 H 1.27 L -0.811,6.541 1.518,0 Z"
         style="fill:#00674c;fill-opacity:1;fill-rule:nonzero;stroke:none"
         id="path2112"
         inkscape:connector-curvature="0" />
    </g>
    <g
       id="g2114"
       transform="matrix(0.35277777,0,0,-0.35277777,248.50672,139.67071)">
      <path
         d="M 0,0 -3.104,6.754 V 0 h -1.448 v 10.076 h 1.448 l 2.752,-6.045 v 6.045 H 1.094 V 0 Z"
         style="fill:#00674c;fill-opacity:1;fill-rule:nonzero;stroke:none"
         id="path2116"
         inkscape:connector-curvature="0" />
    </g>
    <g
       id="g2118"
       transform="matrix(0.35277777,0,0,-0.35277777,238.7824,137.1759)">
      <path
         d="M 0,0 -0.709,-2.899 H 0.744 Z M 1.806,-7.072 1.097,-4.314 H -1.065 L -1.738,-7.072 H -3.191 L -0.674,3.004 H 0.744 L 3.259,-7.072 Z"
         style="fill:#00674c;fill-opacity:1;fill-rule:nonzero;stroke:none"
         id="path2120"
         inkscape:connector-curvature="0" />
    </g>
    <g
       id="g2122"
       transform="matrix(0.35277777,0,0,-0.35277777,236.27168,136.61495)">
      <path
         d="M 0,0 H -1.481 V -2.863 H 0 c 0.847,0 1.306,0.53 1.306,1.449 C 1.306,-0.564 0.777,0 0,0 m 0.071,-4.242 h -1.552 v -4.42 H -2.928 V 1.414 h 2.999 c 1.587,0 2.645,-1.131 2.645,-2.828 0,-1.838 -0.952,-2.828 -2.645,-2.828"
         style="fill:#00674c;fill-opacity:1;fill-rule:nonzero;stroke:none"
         id="path2124"
         inkscape:connector-curvature="0" />
    </g>
    <g
       id="g2126"
       transform="matrix(0.35277777,0,0,-0.35277777,241.46316,136.61495)">
      <path
         d="M 0,0 H -1.482 V -2.545 H 0 c 0.847,0 1.305,0.459 1.305,1.274 C 1.305,-0.494 0.776,0 0,0 m 1.235,-8.662 -1.34,4.738 H -1.482 V -8.662 H -2.928 V 1.414 h 2.999 c 1.588,0 2.646,-1.06 2.646,-2.685 0,-1.204 -0.494,-2.086 -1.447,-2.44 l 1.447,-4.951 z"
         style="fill:#00674c;fill-opacity:1;fill-rule:nonzero;stroke:none"
         id="path2128"
         inkscape:connector-curvature="0" />
    </g>
    <g
       id="g2130"
       transform="matrix(0.35277777,0,0,-0.35277777,243.36886,132.09798)">
      <path
         d="M 0,0 -0.709,-2.9 H 0.744 Z M 1.807,-7.072 1.098,-4.314 H -1.064 L -1.738,-7.072 H -3.191 L -0.673,3.005 H 0.744 L 3.26,-7.072 Z"
         style="fill:#00674c;fill-opacity:1;fill-rule:nonzero;stroke:none"
         id="path2132"
         inkscape:connector-curvature="0" />
    </g>
    <g
       id="g2134"
       transform="matrix(0.35277777,0,0,-0.35277777,240.85814,131.53675)">
      <path
         d="M 0,0 H -1.481 V -2.864 H 0 c 0.848,0 1.306,0.53 1.306,1.449 C 1.306,-0.567 0.777,0 0,0 m 0.071,-4.243 h -1.552 v -4.42 H -2.927 V 1.414 h 2.998 c 1.588,0 2.646,-1.131 2.646,-2.829 0,-1.837 -0.952,-2.828 -2.646,-2.828"
         style="fill:#00674c;fill-opacity:1;fill-rule:nonzero;stroke:none"
         id="path2136"
         inkscape:connector-curvature="0" />
    </g>
    <g
       id="g2138"
       transform="matrix(0.35277777,0,0,-0.35277777,246.12018,132.98384)">
      <path
         d="M 0,0 V -4.561 H -1.453 V 0 l -2.481,5.516 h 1.524 l 1.701,-3.642 1.667,3.642 h 1.559 z"
         style="fill:#00674c;fill-opacity:1;fill-rule:nonzero;stroke:none"
         id="path2140"
         inkscape:connector-curvature="0" />
    </g>
    <g
       id="g2210"
       transform="matrix(-0.35277777,0,0,-0.35277777,238.60355,149.5838)">
      <path
         d="m 0,0 -0.711,-2.697 c -0.018,-0.011 -0.035,-0.029 -0.041,-0.05 -0.016,-0.035 -0.027,-0.069 -0.039,-0.104 0.017,-0.159 0.051,-0.301 0.148,-0.428 0.172,-0.233 0.41,-0.29 0.684,-0.284 0.09,0 0.199,0.029 0.273,0.079 L 8.473,2.137 0.314,7.678 C 0.201,7.757 0.121,7.803 -0.016,7.831 -0.256,7.877 -0.524,7.688 -0.66,7.501 -0.74,7.382 -0.779,7.266 -0.791,7.125 -0.779,7.079 -0.779,7.027 -0.758,6.983 -0.746,6.948 -0.729,6.92 -0.711,6.886 L 0,4.274 H -35.762 V 0 Z"
         style="fill:#00674c;fill-opacity:1;fill-rule:evenodd;stroke:none"
         id="path2212"
         inkscape:connector-curvature="0" />
    </g>
  </g>
</svg>
