<?xml version="1.0" encoding="UTF-8" standalone="no"?>
<svg
   xmlns:dc="http://purl.org/dc/elements/1.1/"
   xmlns:cc="http://creativecommons.org/ns#"
   xmlns:rdf="http://www.w3.org/1999/02/22-rdf-syntax-ns#"
   xmlns:svg="http://www.w3.org/2000/svg"
   xmlns="http://www.w3.org/2000/svg"
   xmlns:sodipodi="http://sodipodi.sourceforge.net/DTD/sodipodi-0.dtd"
   xmlns:inkscape="http://www.inkscape.org/namespaces/inkscape"
   sodipodi:docname="R10-26R.svg"
   inkscape:version="1.0 (4035a4fb49, 2020-05-01)"
   id="svg2955"
   version="1.1"
   viewBox="0 0 13.211528 21.901855"
   height="21.901855mm"
   width="13.211528mm">
  <defs
     id="defs2949">
    <clipPath
       clipPathUnits="userSpaceOnUse"
       id="clipPath1628">
      <path
         d="M 62.625,45 H 576.237 V 738 H 62.625 Z"
         id="path1626" />
    </clipPath>
  </defs>
  <sodipodi:namedview
     inkscape:window-maximized="1"
     inkscape:window-y="0"
     inkscape:window-x="0"
     inkscape:window-height="836"
     inkscape:window-width="1600"
     showgrid="false"
     inkscape:document-rotation="0"
     inkscape:current-layer="g1646"
     inkscape:document-units="mm"
     inkscape:cy="41.389333"
     inkscape:cx="24.966667"
     inkscape:zoom="5.8208202"
     inkscape:pageshadow="2"
     inkscape:pageopacity="0.0"
     borderopacity="1.0"
     bordercolor="#666666"
     pagecolor="#ffffff"
     id="base" />
  <metadata
     id="metadata2952">
    <rdf:RDF>
      <cc:Work
         rdf:about="">
        <dc:format>image/svg+xml</dc:format>
        <dc:type
           rdf:resource="http://purl.org/dc/dcmitype/StillImage" />
        <dc:title></dc:title>
      </cc:Work>
    </rdf:RDF>
  </metadata>
  <g
     transform="translate(-213.0311,-154.14035)"
     id="layer1"
     inkscape:groupmode="layer"
     inkscape:label="Layer 1">
    <g
       transform="matrix(0.35277777,0,0,-0.35277777,137.89631,222.38394)"
       id="g1622">
      <g
         id="g1624"
         clip-path="url(#clipPath1628)">
        <g
           id="g1630"
           transform="translate(250.1805,135.7184)">
          <path
             d="m 0,0 c 0,-2.266 -1.838,-4.106 -4.106,-4.106 h -28.739 c -2.266,0 -4.105,1.84 -4.105,4.106 v 53.373 c 0,2.268 1.839,4.105 4.105,4.105 H -4.106 C -1.838,57.478 0,55.641 0,53.373 Z"
             style="fill:#ffffff;fill-opacity:1;fill-rule:nonzero;stroke:none"
             id="path1632" />
        </g>
        <g
           id="g1634"
           transform="translate(250.1805,135.7184)">
          <path
             d="m 0,0 c 0,-2.266 -1.838,-4.106 -4.106,-4.106 h -28.739 c -2.266,0 -4.105,1.84 -4.105,4.106 v 53.373 c 0,2.268 1.839,4.105 4.105,4.105 H -4.106 C -1.838,57.478 0,55.641 0,53.373 Z"
             style="fill:none;stroke:#231f20;stroke-width:0.5;stroke-linecap:butt;stroke-linejoin:miter;stroke-miterlimit:4;stroke-dasharray:none;stroke-opacity:1"
             id="path1636" />
        </g>
        <g
           id="g1638"
           transform="translate(247.1025,135.7184)">
          <path
             d="m 0,0 c 0,-0.565 -0.461,-1.026 -1.028,-1.026 h -28.739 c -0.565,0 -1.026,0.461 -1.026,1.026 v 53.373 c 0,0.566 0.461,1.027 1.026,1.027 H -1.028 C -0.461,54.4 0,53.939 0,53.373 Z m -1.028,55.939 h -28.739 c -1.415,0 -2.565,-1.15 -2.565,-2.566 V 0 c 0,-1.414 1.15,-2.567 2.565,-2.567 h 28.739 c 1.416,0 2.567,1.153 2.567,2.567 v 53.373 c 0,1.416 -1.151,2.566 -2.567,2.566"
             style="fill:#231f20;fill-opacity:1;fill-rule:nonzero;stroke:none"
             id="path1640" />
        </g>
        <g
           id="g1642"
           transform="matrix(-1,0,0,1,244.6155,157.2734)">
          <path
             d="m 0,0 v 10.021 h 2.109 v 3.053 l 0.655,0.144 v 0.799 l -0.727,0.291 v 0.436 H 0 v 1.308 H -0.944 V 0 Z"
             style="fill:#231f20;fill-opacity:1;fill-rule:nonzero;stroke:none"
             id="path1644" />
        </g>
        <g
           id="g1646"
           transform="translate(245.5595,171.5834)">
          <path
             d="m -27.708,0 c 0,0 4.372,-0.365 8.215,2.369 0.239,0.037 0.49,0.164 0.694,0.176 2.052,-0.441 3.73,0.654 4.849,1.234 1.008,0.151 0.77,-2.091 -0.439,-2.394 1.195,-0.125 9.511,-0.932 9.511,-0.932 0,0 0.782,-0.099 0.756,-0.705 -0.015,-0.379 -0.101,-0.832 -0.642,-0.832 h -6.565 c 0,0 -0.011,-0.605 -0.543,-1.072 -0.629,-0.326 -1.535,-0.703 -1.574,-1.623 -0.504,-0.467 -1.939,-1.008 -2.191,-1.992 -0.455,-0.719 -1.979,-0.805 -2.545,-0.92 -0.43,0.076 -0.821,0.133 -1.362,0.189 -3.289,1.361 -8.164,1.563 -8.164,1.563 z"
             style="fill:#231f20;fill-opacity:1;fill-rule:nonzero;stroke:none"
             id="path1648" />
        </g>
        <g
           id="g1650"
           transform="translate(227.7235,161.2324)">
          <path
             d="M 0,0 C 0,0.359 -0.143,0.558 -0.424,0.599 H -1.153 V -0.59 h 0.729 C -0.143,-0.577 0,-0.379 0,0 m 0.572,0 c 0,-0.481 -0.17,-0.819 -0.508,-1.014 -0.176,-0.1 -0.35,-0.151 -0.517,-0.151 h -0.7 v -1.767 h -0.574 v 4.105 h 1.274 c 0.171,0 0.343,-0.048 0.517,-0.148 C 0.402,0.832 0.572,0.49 0.572,0"
             style="fill:#231f20;fill-opacity:1;fill-rule:nonzero;stroke:none"
             id="path1652" />
        </g>
        <g
           id="g1654"
           transform="translate(231.4205,159.4074)">
          <path
             d="M 0,0 C 0,-0.318 -0.111,-0.59 -0.336,-0.814 -0.559,-1.039 -0.83,-1.15 -1.15,-1.15 c -0.317,0 -0.588,0.111 -0.813,0.336 C -2.188,-0.59 -2.299,-0.318 -2.299,0 v 2.998 h 0.572 v -3 c 0,-0.158 0.057,-0.295 0.168,-0.406 0.11,-0.113 0.248,-0.168 0.409,-0.168 0.156,0 0.291,0.055 0.406,0.168 0.113,0.111 0.17,0.248 0.17,0.406 v 3 H 0 Z"
             style="fill:#231f20;fill-opacity:1;fill-rule:nonzero;stroke:none"
             id="path1656" />
        </g>
        <g
           id="g1658"
           transform="translate(234.4165,159.4194)">
          <path
             d="m 0,0 c 0,-0.289 -0.076,-0.541 -0.227,-0.752 -0.193,-0.273 -0.482,-0.41 -0.863,-0.41 -0.426,0 -0.744,0.137 -0.955,0.41 -0.17,0.217 -0.254,0.49 -0.254,0.818 h 0.572 c 0,-0.238 0.077,-0.416 0.227,-0.531 0.111,-0.082 0.25,-0.123 0.41,-0.123 0.328,0 0.494,0.195 0.494,0.588 0,0.307 -0.133,0.557 -0.398,0.752 -0.246,0.152 -0.492,0.305 -0.74,0.455 -0.266,0.205 -0.399,0.475 -0.399,0.807 0,0.217 0.061,0.414 0.18,0.595 0.187,0.28 0.484,0.42 0.894,0.42 0.432,0 0.739,-0.162 0.918,-0.486 C -0.066,2.408 -0.02,2.246 0,2.055 h -0.574 c 0,0.068 -0.024,0.136 -0.071,0.205 -0.082,0.131 -0.22,0.195 -0.414,0.195 -0.33,0 -0.496,-0.146 -0.496,-0.439 0,-0.162 0.133,-0.325 0.403,-0.487 0.398,-0.234 0.648,-0.402 0.75,-0.5 C -0.135,0.762 0,0.42 0,0"
             style="fill:#231f20;fill-opacity:1;fill-rule:nonzero;stroke:none"
             id="path1660" />
        </g>
        <g
           id="g1662"
           transform="translate(237.4145,158.3004)">
          <path
             d="M 0,0 H -0.574 V 1.889 H -1.727 V 0 h -0.572 v 4.105 h 0.572 V 2.463 h 1.153 V 4.105 H 0 Z"
             style="fill:#231f20;fill-opacity:1;fill-rule:nonzero;stroke:none"
             id="path1664" />
        </g>
        <g
           id="g1666"
           transform="translate(225.2585,153.3804)">
          <path
             d="m 0,0 c 0,0.275 -0.1,0.465 -0.299,0.572 -0.1,0.051 -0.203,0.078 -0.313,0.078 h -0.539 v -1.314 h 0.629 c 0.084,0 0.174,0.029 0.268,0.094 C -0.084,-0.459 0,-0.268 0,0 m -0.117,1.758 c 0,0.328 -0.157,0.504 -0.469,0.531 H -1.151 V 1.225 h 0.479 c 0.369,0 0.555,0.177 0.555,0.533 m 0.691,-1.766 c 0,-0.551 -0.197,-0.92 -0.592,-1.113 -0.166,-0.078 -0.367,-0.117 -0.603,-0.117 h -1.104 v 4.105 h 1.184 C -0.348,2.844 -0.18,2.795 -0.039,2.715 0.291,2.52 0.457,2.191 0.457,1.729 0.457,1.289 0.301,1.021 -0.01,0.93 0.379,0.713 0.574,0.4 0.574,-0.008"
             style="fill:#231f20;fill-opacity:1;fill-rule:nonzero;stroke:none"
             id="path1668" />
        </g>
        <g
           id="g1670"
           transform="translate(228.8345,153.2494)">
          <path
             d="M 0,0 C 0,-0.318 -0.113,-0.59 -0.336,-0.814 -0.559,-1.039 -0.83,-1.15 -1.15,-1.15 c -0.319,0 -0.588,0.111 -0.813,0.336 C -2.188,-0.59 -2.299,-0.318 -2.299,0 v 2.998 h 0.572 v -3 c 0,-0.158 0.055,-0.295 0.168,-0.406 0.11,-0.113 0.246,-0.168 0.409,-0.168 0.156,0 0.291,0.055 0.404,0.168 0.113,0.111 0.172,0.248 0.172,0.406 v 3 H 0 Z"
             style="fill:#231f20;fill-opacity:1;fill-rule:nonzero;stroke:none"
             id="path1672" />
        </g>
        <g
           id="g1674"
           transform="translate(231.4985,155.6734)">
          <path
             d="M 0,0 H -0.76 V -3.531 H -1.334 V 0 h -0.76 V 0.574 H 0 Z"
             style="fill:#231f20;fill-opacity:1;fill-rule:nonzero;stroke:none"
             id="path1676" />
        </g>
        <g
           id="g1678"
           transform="translate(233.8405,155.6734)">
          <path
             d="M 0,0 H -0.762 V -3.531 H -1.336 V 0 H -2.094 V 0.574 H 0 Z"
             style="fill:#231f20;fill-opacity:1;fill-rule:nonzero;stroke:none"
             id="path1680" />
        </g>
        <g
           id="g1682"
           transform="translate(236.1825,154.1944)">
          <path
             d="M 0,0 C 0,0.35 -0.037,0.657 -0.108,0.916 -0.215,1.321 -0.391,1.522 -0.639,1.522 -0.885,1.522 -1.063,1.321 -1.17,0.916 -1.241,0.657 -1.278,0.35 -1.278,0 c 0,-0.351 0.037,-0.656 0.108,-0.918 0.107,-0.402 0.285,-0.603 0.531,-0.603 0.248,0 0.424,0.201 0.531,0.603 C -0.037,-0.656 0,-0.351 0,0 m 0.574,0 c 0,-0.503 -0.059,-0.921 -0.174,-1.253 -0.197,-0.561 -0.543,-0.842 -1.039,-0.842 -0.496,0 -0.842,0.281 -1.039,0.842 -0.115,0.332 -0.172,0.75 -0.172,1.253 0,1.397 0.402,2.096 1.211,2.096 C 0.17,2.096 0.574,1.397 0.574,0"
             style="fill:#231f20;fill-opacity:1;fill-rule:nonzero;stroke:none"
             id="path1684" />
        </g>
        <g
           id="g1686"
           transform="translate(239.8775,152.1424)">
          <path
             d="M 0,0 H -0.574 L -1.725,2.656 V 0 h -0.574 v 4.105 h 0.574 L -0.574,1.453 V 4.105 H 0 Z"
             style="fill:#231f20;fill-opacity:1;fill-rule:nonzero;stroke:none"
             id="path1688" />
        </g>
        <g
           id="g1690"
           transform="translate(220.9885,149.5154)">
          <path
             d="m 0,0 h -1.519 v -1.069 h 0.904 V -1.643 H -1.519 V -3.531 H -2.093 V 0.572 H 0 Z"
             style="fill:#231f20;fill-opacity:1;fill-rule:nonzero;stroke:none"
             id="path1692" />
        </g>
        <g
           id="g1694"
           transform="translate(223.3305,148.0364)">
          <path
             d="M 0,0 C 0,0.35 -0.035,0.656 -0.107,0.916 -0.213,1.321 -0.391,1.522 -0.639,1.522 -0.885,1.522 -1.062,1.321 -1.168,0.916 -1.24,0.656 -1.275,0.35 -1.275,0 c 0,-0.351 0.035,-0.656 0.107,-0.918 0.106,-0.404 0.283,-0.605 0.529,-0.605 0.248,0 0.426,0.201 0.532,0.605 C -0.035,-0.656 0,-0.351 0,0 m 0.574,0 c 0,-0.504 -0.056,-0.922 -0.172,-1.254 -0.197,-0.562 -0.545,-0.841 -1.041,-0.841 -0.494,0 -0.841,0.279 -1.037,0.841 -0.115,0.332 -0.174,0.75 -0.174,1.254 0,1.397 0.405,2.096 1.211,2.096 C 0.17,2.096 0.574,1.397 0.574,0"
             style="fill:#231f20;fill-opacity:1;fill-rule:nonzero;stroke:none"
             id="path1696" />
        </g>
        <g
           id="g1698"
           transform="translate(226.4495,148.9804)">
          <path
             d="M 0,0 C 0,0.339 -0.14,0.517 -0.424,0.535 H -1.15 v -1.069 h 0.726 C -0.14,-0.518 0,-0.34 0,0 m 0.574,-2.996 h -0.595 l -0.543,1.888 H -1.15 v -1.888 h -0.574 v 4.103 h 1.271 C -0.234,1.089 -0.111,1.078 -0.084,1.072 0.106,1.027 0.254,0.937 0.36,0.8 0.502,0.617 0.574,0.349 0.574,0 c 0,-0.506 -0.191,-0.84 -0.57,-1.002 z"
             style="fill:#231f20;fill-opacity:1;fill-rule:nonzero;stroke:none"
             id="path1700" />
        </g>
        <g
           id="g1702"
           transform="translate(232.8125,149.1184)">
          <path
             d="m 0,0 h -0.615 c -0.095,0.293 -0.254,0.44 -0.476,0.44 -0.248,0 -0.426,-0.207 -0.534,-0.621 -0.064,-0.258 -0.097,-0.559 -0.097,-0.901 0,-0.344 0.033,-0.644 0.099,-0.902 0.108,-0.414 0.286,-0.621 0.536,-0.621 0.173,0 0.31,0.101 0.41,0.301 0.068,0.14 0.103,0.277 0.103,0.408 v 0.115 h -0.513 v 0.574 H 0 v -0.748 c 0,-0.191 -0.052,-0.396 -0.156,-0.615 -0.189,-0.406 -0.5,-0.607 -0.931,-0.607 -0.496,0 -0.842,0.279 -1.039,0.841 -0.116,0.332 -0.172,0.75 -0.172,1.254 0,1.397 0.402,2.096 1.207,2.096 0.386,0 0.683,-0.17 0.894,-0.508 C -0.109,0.367 -0.044,0.198 0,0"
             style="fill:#231f20;fill-opacity:1;fill-rule:nonzero;stroke:none"
             id="path1704" />
        </g>
        <g
           id="g1706"
           transform="translate(235.3575,148.9804)">
          <path
             d="M 0,0 C 0,0.339 -0.14,0.517 -0.421,0.535 H -1.15 v -1.069 h 0.729 C -0.14,-0.518 0,-0.34 0,0 m 0.575,-2.996 h -0.596 l -0.541,1.888 H -1.15 v -1.888 h -0.574 v 4.103 h 1.273 C -0.232,1.089 -0.109,1.078 -0.082,1.072 0.108,1.027 0.254,0.937 0.362,0.8 0.504,0.617 0.575,0.349 0.575,0 c 0,-0.506 -0.19,-0.84 -0.571,-1.002 z"
             style="fill:#231f20;fill-opacity:1;fill-rule:nonzero;stroke:none"
             id="path1708" />
        </g>
        <g
           id="g1710"
           transform="translate(238.7255,145.9804)">
          <path
             d="M 0,0 -2.094,0.004 V 4.107 H 0 V 3.535 H -1.52 V 2.466 h 0.902 V 1.892 H -1.52 V 0.576 H 0 Z"
             style="fill:#231f20;fill-opacity:1;fill-rule:nonzero;stroke:none"
             id="path1712" />
        </g>
        <g
           id="g1714"
           transform="translate(241.5165,145.9804)">
          <path
             d="M 0,0 -2.094,0.004 V 4.107 H 0 V 3.535 H -1.52 V 2.466 h 0.904 V 1.892 H -1.52 V 0.576 H 0 Z"
             style="fill:#231f20;fill-opacity:1;fill-rule:nonzero;stroke:none"
             id="path1716" />
        </g>
        <g
           id="g1718"
           transform="translate(244.5165,145.9844)">
          <path
             d="m 0,0 h -0.575 l -1.15,2.656 V 0 h -0.574 v 4.103 h 0.576 l 1.148,-2.65 v 2.65 H 0 Z"
             style="fill:#231f20;fill-opacity:1;fill-rule:nonzero;stroke:none"
             id="path1720" />
        </g>
        <g
           id="g1722"
           transform="translate(227.7235,139.8233)">
          <path
             d="M 0,0 H -2.094 V 4.106 H -1.52 V 0.575 H 0 Z"
             style="fill:#231f20;fill-opacity:1;fill-rule:nonzero;stroke:none"
             id="path1724" />
        </g>
        <path
           d="m 228.875,139.823 h -0.574 v 4.106 h 0.574 z"
           style="fill:#231f20;fill-opacity:1;fill-rule:nonzero;stroke:none"
           id="path1726" />
        <g
           id="g1728"
           transform="translate(231.9925,142.9604)">
          <path
             d="m 0,0 h -0.615 c -0.096,0.293 -0.254,0.438 -0.475,0.438 -0.248,0 -0.427,-0.206 -0.533,-0.62 -0.066,-0.257 -0.099,-0.558 -0.099,-0.9 0,-0.344 0.033,-0.644 0.099,-0.902 0.108,-0.414 0.285,-0.621 0.535,-0.621 0.176,0 0.313,0.101 0.412,0.3 0.069,0.141 0.102,0.276 0.102,0.409 v 0.115 h -0.514 v 0.574 H 0 v -0.748 c 0,-0.191 -0.053,-0.396 -0.156,-0.615 -0.19,-0.406 -0.5,-0.608 -0.932,-0.608 -0.496,0 -0.842,0.28 -1.039,0.842 -0.115,0.332 -0.172,0.748 -0.172,1.254 0,1.397 0.403,2.094 1.209,2.094 0.385,0 0.684,-0.168 0.893,-0.506 C -0.109,0.367 -0.045,0.197 0,0"
             style="fill:#231f20;fill-opacity:1;fill-rule:nonzero;stroke:none"
             id="path1730" />
        </g>
        <g
           id="g1732"
           transform="translate(235.1155,139.8233)">
          <path
             d="m 0,0 h -0.574 v 1.889 h -1.15 V 0 h -0.575 v 4.106 h 0.575 V 2.463 h 1.15 V 4.106 H 0 Z"
             style="fill:#231f20;fill-opacity:1;fill-rule:nonzero;stroke:none"
             id="path1734" />
        </g>
        <g
           id="g1736"
           transform="translate(237.7815,143.3574)">
          <path
             d="M 0,0 H -0.76 V -3.534 H -1.334 V 0 h -0.76 V 0.572 H 0 Z"
             style="fill:#231f20;fill-opacity:1;fill-rule:nonzero;stroke:none"
             id="path1738" />
        </g>
        <g
           id="g1740"
           transform="translate(237.8615,177.2594)">
          <path
             d="m 0,0 c -1.496,0 -2.75,1.016 -3.09,2.383 l 3.016,0.636 c 0,0 0.268,0.082 0.295,0.227 C 0.248,3.389 0.116,3.58 0.116,3.58 l -1.745,2.236 c 0.477,0.28 1.034,0.44 1.629,0.44 1.758,0 3.182,-1.401 3.182,-3.127 C 3.182,1.4 1.758,0 0,0 m -3.181,3.129 c 0,0.929 0.412,1.763 1.068,2.338 L -0.588,3.49 -3.177,2.965 C -3.179,3.019 -3.181,3.074 -3.181,3.129 M -4.963,2.603 -3.48,7.238 -2.537,6.014 c -0.822,-0.7 -1.344,-1.733 -1.344,-2.885 0,-0.104 0.006,-0.205 0.014,-0.305 z m -0.519,0.444 -0.147,0.777 h 0.293 V 4.115 H -6.261 V 3.824 h 0.271 l 0.158,-0.654 -3.754,3.99 0.147,0.488 h 5.416 z M -9.131,3.041 c 0,-1.729 -1.423,-3.129 -3.181,-3.129 -1.756,0 -3.182,1.4 -3.182,3.129 0,1.728 1.426,3.129 3.182,3.129 0.576,0 1.117,-0.153 1.582,-0.416 -0.229,-0.563 -0.611,-1.373 -1.078,-1.83 -0.145,-0.143 -0.385,-0.426 -0.535,-0.465 -0.569,-0.151 -0.407,-0.633 -0.348,-0.693 0.057,-0.053 0.662,-0.379 0.787,0.281 0,0 0.119,0.152 0.537,0.551 0.598,0.572 0.973,1.267 1.186,1.765 0.646,-0.572 1.05,-1.4 1.05,-2.322 M 0,6.943 c -0.756,0 -1.459,-0.213 -2.056,-0.58 l -1.209,1.553 0.17,0.578 c 0,0 0.451,0.111 0.937,0.445 1.108,0.766 -0.769,0.477 -1.424,0.444 -0.847,-0.043 -1.617,0 -1.617,-0.244 0,-0.256 1.041,-0.522 1.469,-0.522 L -3.832,8.26 h -5.414 l 0.463,1.423 -0.406,0.389 0.191,0.199 h 1.448 v 0.536 H -9.213 L -9.947,10.072 -9.484,9.605 -10.49,6.41 c -0.543,0.283 -1.162,0.447 -1.822,0.447 -2.143,0 -3.881,-1.709 -3.881,-3.816 0,-2.108 1.738,-3.816 3.881,-3.816 2.144,0 3.881,1.708 3.881,3.816 0,1.226 -0.588,2.316 -1.504,3.016 l 0.123,0.402 3.81,-4.035 c 0,0 -0.08,-0.254 0.078,-0.477 0.114,-0.156 0.25,-0.234 0.43,-0.256 L -5.3,0.625 H -5.527 V 0.346 h 0.928 v 0.279 h -0.295 l -0.281,1.121 c 0.066,0.023 0.111,0.068 0.168,0.111 0.044,0.034 0.113,0.145 0.113,0.145 l 1.121,0.236 C -3.365,0.56 -1.832,-0.688 0,-0.688 c 2.143,0 3.881,1.709 3.881,3.817 0,2.105 -1.738,3.814 -3.881,3.814"
             style="fill:#231f20;fill-opacity:1;fill-rule:evenodd;stroke:none"
             id="path1742" />
        </g>
        <g
           id="g1744"
           transform="matrix(-1,0,0,1,241.4935,135.7534)">
          <path
             d="M 0,0 -2.054,1.391 0,2.783 C 0.092,2.844 0.215,2.82 0.278,2.731 0.319,2.67 0.311,2.607 0.291,2.531 L 0.11,1.928 H 21.514 V 0.852 H 0.11 L 0.287,0.258 C 0.311,0.176 0.319,0.115 0.278,0.053 0.215,-0.039 0.092,-0.061 0,0"
             style="fill:#231f20;fill-opacity:1;fill-rule:evenodd;stroke:none"
             id="path1746" />
        </g>
      </g>
    </g>
  </g>
</svg>
