<svg id="R3-33aR" xmlns="http://www.w3.org/2000/svg" width="42in" height="60in" viewBox="0 0 3024 4320">
  <g>
    <rect width="3024" height="4320" rx="162" fill="#fff"/>
    <path d="M2862,1.0011A160.9979,160.9979,0,0,1,3022.999,162V4158A160.9979,160.9979,0,0,1,2862,4318.999H162A160.9979,160.9979,0,0,1,1.0011,4158V162A160.9979,160.9979,0,0,1,162,1.0011H2862M2862,0H162A162,162,0,0,0,0,162V4158a162,162,0,0,0,162,162H2862a162,162,0,0,0,162-162V162A162,162,0,0,0,2862,0Z"/>
  </g>
  <path d="M2862,45H162A117.1377,117.1377,0,0,0,45,162V4158a117.1378,117.1378,0,0,0,117,117H2862a117.1378,117.1378,0,0,0,117-117V162A117.1377,117.1377,0,0,0,2862,45Zm54,4113a54.0558,54.0558,0,0,1-54,54H162a54.0558,54.0558,0,0,1-54-54V162a54.0556,54.0556,0,0,1,54-54H2862a54.0556,54.0556,0,0,1,54,54Z"/>
  <g id="RIGHT">
    <path d="M714.447,770.4721,819.4822,1017H704.3684l-92.94-226.3682H455.7834V1017H352.6926V441h272.27c119.001,0,182.4249,94.0318,182.4249,175.8238C807.3875,681.48,773.0481,738.1443,714.447,770.4721ZM455.7834,544.1039V687.5281H621.6506c50.4659,0,82.79-29.0158,82.79-70.7042,0-44.4958-32.396-72.72-82.8618-72.72Z"/>
    <path d="M911.698,441h103.667v576H911.698Z"/>
    <path d="M1588.1453,804.744c0,123.4081-101.0747,222.336-228.355,222.336-168.7461,0-238.4336-149.5437-238.4336-299.0878,0-175.8239,94.956-297,238.3623-297,103.0185,0,173.7856,54.5762,214.1724,143.496L1468.929,610.7763c-22.2452-48.5281-58.6006-76.8241-109.1387-76.8241-80.8457,0-135.4141,80.8558-135.4141,194.04,0,92.7357,28.22,195.984,135.4141,195.984,56.5849,0,107.0508-38.4481,121.2334-91.008h-94.9561V730.008h202.0777Z"/>
    <path d="M2057.45,766.3681H1797.7068V1017H1694.1833V441h103.5235v222.336H2057.45V441h103.5224v576H2057.45Z"/>
    <path d="M2505.8005,1017H2404.8689V542.088H2239.3621V441h431.9453V542.088H2505.8005Z"/>
  </g>
  <g id="LANE">
    <path d="M405.7549,1395H509.2061v487.08H837.7009V1971H405.7549Z"/>
    <path d="M1304.0478,1835.568H1053.5193L996.9343,1971H883.8366l242.466-576h105.0342l240.378,576H1360.5615Zm-206.11-103.032h161.6192l-80.7735-194.04Z"/>
    <path d="M1671.1314,1574.8561V1971H1569.6968V1395H1671.06l266.006,380.0159V1395h99.42v576h-89.3409Z"/>
    <path d="M2186.2987,1395h421.796v103.1038H2291.7655V1605.168h172.3468v105.12H2291.7655v157.6081h326.48V1971H2186.2987Z"/>
  </g>
  <g id="MUST">
    <path d="M834.3865,2573.3515,663.9841,2925,495.5969,2573.3515V2925H394.1619V2349h101.435l168.3872,341.5682L834.3865,2349H935.822v576H834.3865Z"/>
    <path d="M1318.75,2829.744c60.4,0,130.1591-42.5513,130.1591-132.4805V2349h103.523v343.5841c0,141.48-97.4038,242.4962-233.3941,242.4962s-233.3945-101.0165-233.3945-242.4962V2349h103.5225v347.6881C1189.1658,2783.4481,1253.8855,2829.744,1318.75,2829.744Z"/>
    <path d="M2053.2727,2896.2718c-40.6025,24.5529-93.084,38.9522-146.0693,38.9522-99.42,0-174.5782-36.864-239.5137-112.68l83.2207-65.5913c42.6191,51.192,89.27,73.7993,154.2051,73.7993,73.07,0,125.84-34.3432,125.84-75.8152,0-58.5366-58.3847-62.4961-219.5722-107.785-81.0616-22.7518-117.3448-84.4559-117.3448-146.3035,0-96.4085,81.2774-161.8562,198.91-161.8562,85.2373,0,156.4365,28.5837,215.1816,90l-77.1748,69.6962c-36.499-38.9521-83.2217-57.3841-138.0068-57.3841-63.1358,0-93.3,25.6321-93.3,58.7524,0,63.8645,78.3984,49.7514,221.66,100.2245,101.1475,35.7115,113.17,122.111,113.17,158.6879C2134.4788,2818.3685,2108.0579,2863.5119,2053.2727,2896.2718Z"/>
    <path d="M2464.3313,2925H2363.4V2450.088H2197.8928V2349h431.9453V2450.088H2464.3313Z"/>
  </g>
  <g id="EXIT">
    <path d="M601.233,3303h421.7956v103.1038H706.7V3513.168H879.0461v105.1206H706.7v157.6076H1033.179V3879H601.233Z"/>
    <path d="M1379.6645,3674.88,1251.808,3879H1129.9993L1318.76,3575.8086,1146.2689,3303h123.753l109.6426,175.8238L1489.2344,3303h123.8242l-170.4742,272.8086L1631.3438,3879H1509.6074Z"/>
    <path d="M1769.6349,3303h103.667v576h-103.667Z"/>
    <path d="M2257.2591,3879H2156.3274V3404.0879H1990.8205V3303H2422.767v101.0879H2257.2591Z"/>
  </g>
</svg>
