<?xml version="1.0" encoding="UTF-8" standalone="no"?>
<!-- Created with Inkscape (http://www.inkscape.org/) -->

<svg
   width="12in"
   height="18in"
   viewBox="0 0 304.8 457.20001"
   version="1.1"
   id="svg925"
   inkscape:version="1.1.1 (c3084ef, 2021-09-22)"
   sodipodi:docname="MUTCD R7-114.svg"
   xmlns:inkscape="http://www.inkscape.org/namespaces/inkscape"
   xmlns:sodipodi="http://sodipodi.sourceforge.net/DTD/sodipodi-0.dtd"
   xmlns="http://www.w3.org/2000/svg"
   xmlns:svg="http://www.w3.org/2000/svg">
  <sodipodi:namedview
     id="namedview927"
     pagecolor="#ffffff"
     bordercolor="#666666"
     borderopacity="1.0"
     inkscape:pageshadow="2"
     inkscape:pageopacity="0.0"
     inkscape:pagecheckerboard="0"
     inkscape:document-units="in"
     showgrid="false"
     units="in"
     inkscape:zoom="0.36401473"
     inkscape:cx="523.33047"
     inkscape:cy="863.97603"
     inkscape:window-width="1412"
     inkscape:window-height="855"
     inkscape:window-x="0"
     inkscape:window-y="23"
     inkscape:window-maximized="0"
     inkscape:current-layer="layer2"
     inkscape:snap-bbox="true"
     inkscape:snap-bbox-edge-midpoints="true"
     inkscape:snap-bbox-midpoints="true"
     inkscape:snap-midpoints="true"
     inkscape:bbox-paths="true"
     inkscape:bbox-nodes="true"
     inkscape:object-paths="true"
     inkscape:snap-intersection-paths="true"
     inkscape:snap-smooth-nodes="true" />
  <defs
     id="defs922" />
  <g
     inkscape:label="Sign Back"
     inkscape:groupmode="layer"
     id="layer1">
    <rect
       style="fill:#ffffff;stroke:#000000;stroke-width:1.5748;stroke-linecap:square;stroke-miterlimit:10;stroke-dasharray:none"
       id="rect1008"
       width="303.21249"
       height="455.61252"
       x="0.7937547"
       y="0.79374337"
       rx="37.306252"
       ry="37.306252" />
    <rect
       style="fill:none;stroke:#006747;stroke-width:9.525;stroke-linecap:square;stroke-miterlimit:10;stroke-dasharray:none;stroke-opacity:1"
       id="rect1178"
       width="276.22501"
       height="428.625"
       x="14.287498"
       y="14.287502"
       rx="23.8125"
       ry="23.8125" />
    <rect
       style="fill:#006747;stroke:none;stroke-width:19.05"
       id="rect1426"
       width="285.75"
       height="6.3499999"
       x="9.5250015"
       y="117.475" />
    <path
       id="rect1582"
       style="fill:#006747;stroke:none;stroke-width:72"
       d="M 144,36 C 84.167999,36 36,84.167999 36,144 V 443.99999 H 372 V 36 Z"
       transform="scale(0.26458334)"
       sodipodi:nodetypes="cccccc" />
  </g>
  <g
     inkscape:groupmode="layer"
     id="layer2"
     inkscape:label="Legends">
    <g
       aria-label="2"
       id="text3191"
       style="font-size:113.731px;line-height:1.25;font-family:'Roadgeek 2005 Series D';-inkscape-font-specification:'Roadgeek 2005 Series D';text-align:center;letter-spacing:0px;text-anchor:middle;fill:#ffffff;stroke-width:2.84329">
      <path
         d="m 28.02123,107.94978 q 0.227462,-6.71013 1.705965,-12.282945 1.478503,-5.572819 4.662971,-11.031907 2.388351,-4.321778 5.914012,-7.96117 3.525661,-3.753124 7.506246,-6.71013 1.023579,-0.568655 1.819696,-1.13731 0.796117,-0.682386 1.592234,-1.251041 l 4.094316,-2.160889 3.753124,-2.160889 3.639392,-2.047158 q 2.27462,-1.478503 3.639392,-3.639392 1.478503,-2.27462 1.478503,-4.662971 0,-2.160889 -1.13731,-3.980585 -1.13731,-1.933427 -3.070737,-3.298199 -1.819696,-1.364772 -4.321778,-2.160889 -2.502083,-0.796117 -5.345358,-0.796117 -5.800281,0 -9.439673,2.729544 -3.525661,2.729544 -4.435509,7.96117 L 28.02123,50.743089 q 1.933427,-9.553404 8.871018,-14.898761 6.937591,-5.459089 17.05965,-5.459089 5.459089,0 10.12206,1.819696 4.776702,1.819697 8.188632,4.890434 3.525661,3.070737 5.572819,7.278784 2.047158,4.094316 2.047158,8.757287 0,4.435509 -2.047158,8.757287 -1.933427,4.208047 -5.68655,7.506246 -0.909848,0.682386 -1.705965,1.251041 -0.682386,0.568655 -1.478503,0.909848 l -3.753123,2.388351 -4.094316,2.16089 -3.753124,2.160889 q -2.729544,1.592234 -4.890433,3.41193 -2.047158,1.705965 -3.866854,3.753123 -1.705965,2.047158 -3.298199,4.54924 -1.478503,2.502082 -2.843275,5.68655 h 37.4175 v 12.282945 z"
         id="path5411" />
    </g>
    <g
       aria-label="HR"
       id="text20558"
       style="font-size:75.8209px;line-height:1.25;font-family:'Roadgeek 2005 Series C';-inkscape-font-specification:'Roadgeek 2005 Series C';text-align:center;letter-spacing:0px;text-anchor:middle;fill:#006747;stroke-width:1.89553">
      <path
         d="M 180.5183,95.25 V 72.276267 H 166.56726 V 95.25 h -7.27881 V 44.449997 h 7.27881 V 65.149103 H 180.5183 V 44.449997 h 7.27881 V 95.25 Z"
         id="path5406" />
      <path
         d="m 219.83025,95.25 -6.74806,-23.883583 h -6.97552 V 95.25 h -7.27881 V 44.449997 h 15.16418 q 2.95702,0 5.38329,0.985672 2.50209,0.985671 4.24597,2.729552 1.8197,1.743881 2.72955,4.321791 0.98567,2.50209 0.98567,5.534926 0,4.549254 -1.8197,7.733732 -1.8197,3.184478 -5.4591,4.549254 L 227.33652,95.25 Z m 0.37911,-37.228062 q 0,-2.957015 -1.8197,-4.700896 -1.8197,-1.74388 -4.77672,-1.74388 h -7.50627 v 12.813732 h 7.50627 q 3.18448,0 4.85254,-1.592239 1.74388,-1.66806 1.74388,-4.776717 z"
         id="path5408" />
    </g>
    <g
       aria-label="VEHICLE"
       id="text23915"
       style="font-size:56.8657px;line-height:1.25;font-family:'Roadgeek 2005 Series C';-inkscape-font-specification:'Roadgeek 2005 Series C';text-align:center;text-anchor:middle;fill:#006747;stroke-width:1.42164">
      <path
         d="M 80.406691,206.37502 H 76.255495 L 66.645192,168.275 h 5.515972 l 6.255227,24.73658 6.312093,-24.73658 h 5.459107 z"
         id="path5391" />
      <path
         d="M 95.480544,206.37502 V 168.275 h 17.912696 v 5.34537 h -12.45359 v 9.61031 h 7.90433 v 5.23164 h -7.90433 v 12.56732 h 13.9321 v 5.34538 z"
         id="path5393" />
      <path
         d="m 137.17021,206.37502 v -17.23031 h -10.46329 v 17.23031 h -5.45911 V 168.275 h 5.45911 v 15.52433 h 10.46329 V 168.275 h 5.45911 v 38.10002 z"
         id="path5395" />
      <path
         d="M 150.90239,206.37502 V 168.275 h 5.34537 v 38.10002 z"
         id="path5397" />
      <path
         d="m 179.80083,178.45396 q -0.85299,-5.51598 -4.54926,-5.51598 -1.64911,0 -2.84329,0.73926 -1.13731,0.68239 -1.87656,2.27463 -0.68239,1.53537 -1.02359,4.09433 -0.28432,2.55895 -0.28432,6.25522 0,8.24553 1.4785,11.82807 1.53538,3.58254 5.06105,3.58254 1.19418,0 1.93344,-0.45493 0.79611,-0.45492 1.25104,-1.19418 0.51179,-0.79612 0.68239,-1.76283 0.1706,-1.02359 0.1706,-2.10403 h 5.4591 q -0.0569,2.38835 -0.79612,4.37865 -0.73925,1.9903 -1.9903,3.46881 -1.25104,1.42164 -3.01388,2.21776 -1.70597,0.79612 -3.69627,0.79612 -6.14149,0 -8.98478,-5.00418 -2.78642,-5.00418 -2.78642,-15.5812 0,-9.32597 2.84329,-14.10269 2.84328,-4.77672 8.52985,-4.77672 2.3315,0 4.26493,1.02358 1.93343,0.96672 3.24134,2.84329 1.08045,1.42164 1.59224,2.90015 0.51179,1.4785 0.79612,4.09433 z"
         id="path5399" />
      <path
         d="M 192.88527,206.37502 V 168.275 h 5.4591 v 33.03897 h 13.9321 v 5.06105 z"
         id="path5401" />
      <path
         d="M 217.65294,206.37502 V 168.275 h 17.9127 v 5.34537 h -12.45359 v 9.61031 h 7.90433 v 5.23164 h -7.90433 v 12.56732 h 13.9321 v 5.34538 z"
         id="path5403" />
    </g>
    <g
       id="g18146-7"
       style="fill:#006747"
       transform="matrix(-1,0,0,1,304.80256,0.00465292)">
      <path
         id="rect8051-9"
         style="fill:#006747;stroke-width:0.145639;stroke-linecap:square;stroke-miterlimit:10"
         d="m 212.65596,368.3 a 3.8171621,3.8171621 0 0 0 -3.81716,3.81716 3.8171621,3.8171621 0 0 0 0.18471,1.1684 l -10e-4,9e-4 6.56901,20.41354 -6.56901,20.41354 10e-4,9.2e-4 a 3.8171621,3.8171621 0 0 0 -0.18471,1.1684 3.8171621,3.8171621 0 0 0 3.81716,3.81716 3.8171621,3.8171621 0 0 0 2.16049,-0.67084 l 3.7e-4,2.8e-4 36.01075,-24.72945 -36.01075,-24.72945 -2.8e-4,1.9e-4 A 3.8171621,3.8171621 0 0 0 212.65592,368.3 Z" />
      <rect
         style="fill:#006747;stroke-width:0.3777;stroke-linecap:square;stroke-miterlimit:10"
         id="rect18055-3"
         width="161.62021"
         height="19.050001"
         x="-215.5952"
         y="384.17502"
         transform="scale(-1,1)" />
    </g>
    <g
       aria-label="CHARGING"
       id="text4125"
       style="font-size:56.8657px;line-height:1.25;font-family:'Roadgeek 2005 Series C';-inkscape-font-specification:'Roadgeek 2005 Series C';text-align:center;text-anchor:middle;fill:#006747;stroke-width:1.42164">
      <path
         d="m 65.56963,241.95397 q -0.852985,-5.51597 -4.549256,-5.51597 -1.649105,0 -2.843285,0.73925 -1.137314,0.68239 -1.876568,2.27463 -0.682388,1.53538 -1.023583,4.09433 -0.284328,2.55896 -0.284328,6.25523 0,8.24552 1.478508,11.82806 1.535374,3.58254 5.061047,3.58254 1.19418,0 1.933434,-0.45492 0.79612,-0.45493 1.251046,-1.19418 0.511791,-0.79612 0.682388,-1.76284 0.170597,-1.02358 0.170597,-2.10403 h 5.459107 q -0.05687,2.38836 -0.796119,4.37866 -0.739255,1.9903 -1.9903,3.46881 -1.251045,1.42164 -3.013882,2.21776 -1.705971,0.79612 -3.696271,0.79612 -6.141495,0 -8.98478,-5.00418 -2.786419,-5.00418 -2.786419,-15.5812 0,-9.32598 2.843285,-14.1027 2.843285,-4.77672 8.529855,-4.77672 2.331493,0 4.264927,1.02359 1.933434,0.96671 3.241345,2.84328 1.080448,1.42164 1.59224,2.90015 0.511791,1.47851 0.796119,4.09433 z"
         id="path5374" />
      <path
         d="M 94.576468,269.87503 V 252.64472 H 84.113179 v 17.23031 h -5.459107 v -38.10002 h 5.459107 v 15.52434 h 10.463289 v -15.52434 h 5.459112 v 38.10002 z"
         id="path5376" />
      <path
         d="m 124.23104,269.87503 -2.67269,-10.40642 h -8.18866 l -2.50209,10.40642 h -5.51597 l 9.49657,-38.10002 h 5.34538 l 9.49657,38.10002 z m -6.82388,-26.72688 -2.67269,10.97508 h 5.45911 z"
         id="path5378" />
      <path
         d="m 150.71624,269.87503 -5.06105,-17.91269 h -5.23164 v 17.91269 h -5.45911 v -38.10002 h 11.37314 q 2.21776,0 4.03747,0.73926 1.87656,0.73925 3.18448,2.04716 1.36477,1.30791 2.04716,3.24135 0.73925,1.87656 0.73925,4.15119 0,3.41194 -1.36477,5.8003 -1.36478,2.38836 -4.09433,3.41195 l 5.4591,18.70881 z m 0.28433,-27.92106 q 0,-2.21776 -1.36478,-3.52567 -1.36477,-1.30791 -3.58254,-1.30791 h -5.6297 v 9.6103 h 5.6297 q 2.38836,0 3.63941,-1.19418 1.30791,-1.25104 1.30791,-3.58254 z"
         id="path5380" />
      <path
         d="m 183.31628,259.29801 q 0,1.9903 -0.22746,3.35508 -0.22746,1.36477 -0.85299,2.55895 -1.13731,2.50209 -3.35507,3.92374 -2.1609,1.42164 -5.06105,1.42164 -3.41194,0 -5.91403,-1.64911 -2.44523,-1.6491 -3.86687,-4.89045 -0.90985,-2.16089 -1.47851,-5.74343 -0.51179,-3.63941 -0.51179,-7.39254 0,-4.03747 0.34119,-7.05135 0.39806,-3.07075 1.42165,-5.8003 0.51179,-1.47851 1.42164,-2.72955 0.96672,-1.30792 2.21776,-2.21777 1.25105,-0.96671 2.78642,-1.47851 1.53537,-0.51179 3.18448,-0.51179 2.04716,0 3.81,0.73926 1.76284,0.68239 3.07075,1.9903 1.30791,1.25104 2.10403,3.07074 0.79612,1.76284 0.90985,3.86687 h -5.45911 q -0.11373,-1.93343 -1.36477,-3.12761 -1.19418,-1.19418 -3.18448,-1.19418 -2.84329,0 -4.32179,2.84328 -0.79612,1.42165 -1.25105,4.37866 -0.45493,2.90015 -0.45493,6.3121 0,2.38835 0.1706,4.83358 0.22746,2.44523 0.62552,4.66299 0.62553,2.78642 1.9903,4.26492 1.42165,1.47851 3.63941,1.47851 4.15119,0 4.15119,-5.91403 v -2.50209 h -4.32179 v -5.34538 h 9.7809 v 7.84747 z"
         id="path5382" />
      <path
         d="m 190.94161,269.87503 v -38.10002 h 5.34538 v 38.10002 z"
         id="path5384" />
      <path
         d="m 221.94408,269.87503 -11.7712,-25.5327 v 25.5327 h -5.45911 v -38.10002 h 5.45911 l 10.46329,22.86001 v -22.86001 h 5.4591 v 38.10002 z"
         id="path5386" />
      <path
         d="m 254.95373,259.29801 q 0,1.9903 -0.22747,3.35508 -0.22746,1.36477 -0.85298,2.55895 -1.13732,2.50209 -3.35508,3.92374 -2.1609,1.42164 -5.06105,1.42164 -3.41194,0 -5.91403,-1.64911 -2.44522,-1.6491 -3.86687,-4.89045 -0.90985,-2.16089 -1.47851,-5.74343 -0.51179,-3.63941 -0.51179,-7.39254 0,-4.03747 0.3412,-7.05135 0.39806,-3.07075 1.42164,-5.8003 0.51179,-1.47851 1.42164,-2.72955 0.96672,-1.30792 2.21776,-2.21777 1.25105,-0.96671 2.78642,-1.47851 1.53538,-0.51179 3.18448,-0.51179 2.04717,0 3.81001,0.73926 1.76283,0.68239 3.07074,1.9903 1.30791,1.25104 2.10403,3.07074 0.79612,1.76284 0.90986,3.86687 h -5.45911 q -0.11373,-1.93343 -1.36478,-3.12761 -1.19418,-1.19418 -3.18448,-1.19418 -2.84328,0 -4.32179,2.84328 -0.79612,1.42165 -1.25105,4.37866 -0.45492,2.90015 -0.45492,6.3121 0,2.38835 0.17059,4.83358 0.22747,2.44523 0.62553,4.66299 0.62552,2.78642 1.9903,4.26492 1.42164,1.47851 3.6394,1.47851 4.1512,0 4.1512,-5.91403 v -2.50209 h -4.3218 v -5.34538 h 9.78091 v 7.84747 z"
         id="path5388" />
    </g>
    <g
       aria-label="ONLY"
       id="text4129"
       style="font-size:56.8657px;line-height:1.25;font-family:'Roadgeek 2005 Series C';-inkscape-font-specification:'Roadgeek 2005 Series C';text-align:center;text-anchor:middle;fill:#006747;stroke-width:1.42164">
      <path
         d="m 122.97733,314.26816 q 0,4.37865 -0.51179,7.4494 -0.45493,3.07075 -1.64911,5.8003 -1.42164,3.41195 -3.58253,5.00419 -2.10404,1.53537 -5.34538,1.53537 -3.41194,0 -5.57284,-1.53537 -2.10403,-1.59224 -3.52567,-5.00419 -1.19418,-2.78642 -1.70597,-5.8003 -0.45493,-3.07075 -0.45493,-7.4494 0,-4.3218 0.45493,-7.39255 0.51179,-3.12761 1.70597,-5.85716 1.47851,-3.41194 3.58254,-4.89045 2.16089,-1.53538 5.51597,-1.53538 3.29821,0 5.40224,1.53538 2.10403,1.47851 3.52567,5.00418 0.56866,1.42164 0.96672,2.84328 0.45493,1.42165 0.68239,3.01389 0.28433,1.53537 0.39806,3.35507 0.11373,1.76284 0.11373,3.92374 z m -5.23164,0 q 0,-1.59224 -0.11373,-2.90016 -0.0569,-1.30791 -0.22747,-2.38835 -0.11373,-1.13732 -0.34119,-2.1609 -0.22746,-1.02358 -0.51179,-2.04717 -0.73926,-2.55895 -1.87657,-3.69627 -1.08045,-1.13731 -2.78642,-1.13731 -3.52567,0 -4.83358,4.71985 -0.68239,2.1609 -0.96672,4.37866 -0.22746,2.1609 -0.22746,5.34538 0,1.53537 0.0569,2.84328 0.11373,1.25105 0.22746,2.38836 0.1706,1.08045 0.39806,2.1609 0.22747,1.08045 0.5118,2.21776 1.30791,4.71985 4.83358,4.71985 1.70597,0 2.78642,-1.13731 1.13731,-1.13731 1.87657,-3.58254 0.34119,-1.13731 0.56865,-2.1609 0.22747,-1.08044 0.3412,-2.21776 0.1706,-1.13731 0.22746,-2.38836 0.0569,-1.30791 0.0569,-2.95701 z"
         id="path5365" />
      <path
         d="m 147.86318,333.37503 -11.7712,-25.5327 v 25.5327 h -5.4591 v -38.10002 h 5.4591 l 10.46329,22.86001 v -22.86001 h 5.45911 v 38.10002 z"
         id="path5367" />
      <path
         d="m 160.28745,333.37503 v -38.10002 h 5.45911 v 33.03897 h 13.9321 v 5.06105 z"
         id="path5369" />
      <path
         d="m 196.94006,316.14472 v 17.23031 h -5.45911 v -17.23031 l -9.38284,-20.86971 h 5.74344 l 6.42582,13.7615 6.31209,-13.7615 h 5.85717 z"
         id="path5371" />
    </g>
  </g>
</svg>
