<svg id="R11-2a" xmlns="http://www.w3.org/2000/svg" width="48in" height="30in" viewBox="0 0 3456 2160">
  <g>
    <rect width="3456" height="2160" rx="135" fill="#fff"/>
    <path d="M3321,2.2536A132.746,132.746,0,0,1,3453.7463,135V2025A132.7456,132.7456,0,0,1,3321,2157.7463H135A132.746,132.746,0,0,1,2.2536,2025V135A132.7463,132.7463,0,0,1,135,2.2536ZM3321,0H135A135,135,0,0,0,0,135V2025a135,135,0,0,0,135,135H3321a135,135,0,0,0,135-135V135A135,135,0,0,0,3321,0Z"/>
  </g>
  <path d="M3321,36H135a99.1106,99.1106,0,0,0-99,99V2025a99.1107,99.1107,0,0,0,99,99H3321a99.1106,99.1106,0,0,0,99-99V135A99.11,99.11,0,0,0,3321,36Zm45,1989a45.0548,45.0548,0,0,1-45,45H135a45.0549,45.0549,0,0,1-45-45V135a45.0549,45.0549,0,0,1,45-45H3321a45.0549,45.0549,0,0,1,45,45Z"/>
  <g id="STREET">
    <path d="M434.16,800.857l86.8236-32.2562c24.2614,54.5042,68.8251,84.7444,123.3237,84.7444,52.4828,0,89.0551-36.2879,89.0551-84.7444,0-76.968-89.0551-88.7762-163.7119-119.0887-34.34-14.1122-111.0128-48.4565-111.0128-143.28,0-113.1128,76.6725-155.4489,179.622-155.4489,80.7044,0,135.2029,46.44,163.4961,117.0728L720.98,492.0473c-13.3187-25.9917-41.2521-50.4724-89.6313-50.4724-69.6889,0-84.1595,38.0166-84.1595,58.1765,0,53.7843,46.4354,64.44,121.8119,88.1286C745.745,612,826.2335,647.3526,826.2335,770.6167c-.0722,124.273-100.9343,175.5365-181.9262,175.5365C545.3891,946.1532,472.5321,887.69,434.16,800.857Z"/>
    <path d="M1095.6124,936.0015H1004.253V440.8551H872.3622V359.9988h357.2289v80.8563H1095.6124Z"/>
    <path d="M1406.8771,685.296V936.0015h-90.855V359.9988H1524.37c132.0348,0,171.6311,105.6241,171.6311,161.7848,0,21.3846-7.9192,105.624-89.415,144.217l101.51,270.0009h-99.0623L1516.0905,685.296Zm114.3966-92.88c72.2813,0,83.6561-52.1279,83.6561-70.7045,0-25.1283-18.79-70.7758-79.2643-70.7758H1406.8771v141.48Z"/>
    <path d="M1806.0622,359.9988h339.0862v90.9367H1896.9171v141.48h167.528v92.9525h-167.528V843.049h266.3734v92.9525H1806.0622Z"/>
    <path d="M2261.2541,359.9988H2600.34v90.9367H2352.1091v141.48H2519.637v92.9525H2352.1091V843.049h266.3734v92.9525H2261.2541Z"/>
    <path d="M2887.8608,936.0015h-91.3589V440.8551h-131.89V359.9988H3021.84v80.8563H2887.8608Z"/>
  </g>
  <g id="CLOSED">
    <path d="M336.024,1510.9923c0-81.0008,16.2705-297.0016,212.1631-297.0016,83.512,0,140.3861,33.984,179.9107,117.2165l-84.88,36.36c-29.4452-42.3356-44.1316-60.6241-94.9587-60.6241-120.5165,0-119.2205,167.9769-119.2205,204.1212,0,35.7117-2.2315,206.2085,123.2519,206.2085,43.988,0,69.2573-26.5679,88.9116-66.744l86.8955,32.3284c-32.3969,80.1364-86.8237,127.2246-173.8632,127.2246C346.9667,1810.082,336.024,1581.1205,336.024,1510.9923Z"/>
    <path d="M854.8635,1223.9989h90.855v491.1147h266.374v84.8879H854.8635Z"/>
    <path d="M1696.2206,1512c0,20.6638,4.3912,298.0818-204.6043,298.0818S1287.0125,1532.664,1287.0125,1512s-4.3917-298.0095,204.6038-298.0095S1696.2206,1491.3364,1696.2206,1512Zm-203.5965,205.2005c62.0584,0,112.4533-58.824,112.4533-205.2005s-50.3949-205.2-112.4533-205.2-112.4528,58.7518-112.4528,205.2C1380.1713,1658.3767,1430.5663,1717.2007,1492.6241,1717.2007Z"/>
    <path d="M1782.6741,1664.857l86.8232-32.2561c24.2614,54.5041,68.8251,84.7444,123.3237,84.7444,52.4829,0,89.0552-36.2879,89.0552-84.7444,0-76.9681-89.0552-88.7762-163.7115-119.0888-34.3408-14.1122-111.0134-48.4565-111.0134-143.28,0-113.1124,76.6726-155.449,179.6227-155.449,80.7033,0,135.2019,46.4406,163.4957,117.0729l-80.7757,24.1916c-13.3187-25.9917-41.2521-50.4724-89.6314-50.4724-69.6894,0-84.16,38.0167-84.16,58.1765,0,53.7844,46.4359,64.44,121.8129,88.1287,76.7443,24.12,157.2319,59.4726,157.2319,182.7367-.0713,124.273-100.9334,175.5365-181.9259,175.5365C1893.9023,1810.1533,1821.0463,1751.69,1782.6741,1664.857Z"/>
    <path d="M2272.7105,1223.9989H2611.797v90.9366H2363.5656v141.48h167.528v92.9526h-167.528V1707.049h266.3735v92.9525H2272.7105Z"/>
    <path d="M2727.9027,1800.0015V1223.9989h207.7714c145.3536,0,184.3019,191.4487,184.3019,275.0416,0,216.0731-111.0851,300.961-183.9416,300.961Zm193.9487-485.066H2818.7578v392.0413h96.6862c83.8,0,111.3019-101.52,111.3019-209.9531C3026.7459,1445.472,3012.059,1314.9355,2921.8514,1314.9355Z"/>
  </g>
</svg>
