<svg xmlns="http://www.w3.org/2000/svg" width="24in" height="18in" viewBox="0 0 1728 1296">
  <g>
    <rect width="1728" height="1296" rx="108" fill="#fff"/>
    <path d="M1620,2.2537A105.8661,105.8661,0,0,1,1725.7463,108V1188A105.8661,105.8661,0,0,1,1620,1293.7463H108A105.8661,105.8661,0,0,1,2.2537,1188V108A105.8661,105.8661,0,0,1,108,2.2537ZM1620,0H108A108,108,0,0,0,0,108V1188a108,108,0,0,0,108,108H1620a108,108,0,0,0,108-108V108A108,108,0,0,0,1620,0Z"/>
  </g>
  <path d="M1620,27H108a80.9937,80.9937,0,0,0-81,81V1188a81,81,0,0,0,81,81H1620a81.0065,81.0065,0,0,0,81-81V108A81,81,0,0,0,1620,27Zm36,1161a36.0029,36.0029,0,0,1-36,36H108a36.0029,36.0029,0,0,1-36-36V108a36.0029,36.0029,0,0,1,36-36H1620a36.0029,36.0029,0,0,1,36,36Z"/>
  <g id="FOR">
    <path d="M642.9853,267.1565h62.8289v34.857H642.9853v93.9872H608.9112V180H742.8857v34.101h-99.9Z"/>
    <path d="M924.475,288.0005c0,7.7491,1.6469,111.78-76.734,111.78s-76.734-104.0309-76.734-111.78S769.36,176.2473,847.741,176.2473,924.475,280.2513,924.475,288.0005Zm-76.356,76.95c23.2734,0,42.174-22.0591,42.174-76.95s-18.9006-76.95-42.174-76.95-42.1739,22.0323-42.1739,76.95C805.9451,342.8917,824.8452,364.9508,848.119,364.9508Z"/>
    <path d="M1006.12,301.9866v94.0141H972.0464V180h78.1382c49.5181,0,64.3678,39.6093,64.3678,60.6692,0,8.0192-2.9695,39.6093-33.5334,54.0809l38.07,101.25h-37.1526l-34.857-94.0141Zm42.9031-34.83c27.1089,0,31.3746-19.5482,31.3746-26.514,0-9.4229-7.0468-26.5413-29.7267-26.5413H1006.12v53.0553Z"/>
  </g>
  <g id="ONCOMING">
    <path d="M299.6952,648c0,7.75,1.6469,111.7815-76.7351,111.7815S146.2254,655.7492,146.2254,648,144.5785,536.2454,222.96,536.2454,299.6952,640.25,299.6952,648ZM223.3381,724.951c23.2745,0,42.1748-22.06,42.1748-76.9515s-18.9-76.951-42.1748-76.951S181.1638,593.081,181.1638,648C181.1638,702.8912,200.0641,724.951,223.3381,724.951Z"/>
    <path d="M381.3408,609.74V756.0006H347.2665V539.9984h34.0743l78.8407,137.9445V539.9984H494.31V756.0006H463.9887Z"/>
    <path d="M541.88,647.6215c0-30.3751,6.1023-111.3761,79.57-111.3761,31.32,0,52.65,12.7443,67.4738,43.9565l-31.8336,13.6352c-11.0431-15.8765-16.5509-22.7344-35.6133-22.7344-45.1986,0-44.7126,62.9916-44.7126,76.5456,0,13.3924-.8367,77.3291,46.2247,77.3291,16.4972,0,25.974-9.9627,33.3452-25.0294l32.59,12.1235c-12.15,30.0512-32.5628,47.7095-65.2061,47.7095C545.9846,759.781,541.88,673.92,541.88,647.6215Z"/>
    <path d="M885.6421,648c0,7.75,1.6469,111.7815-76.7341,111.7815S732.1733,655.7492,732.1733,648s-1.6469-111.7541,76.7347-111.7541S885.6421,640.25,885.6421,648ZM809.286,724.951c23.2745,0,42.1748-22.06,42.1748-76.9515s-18.9-76.951-42.1748-76.951S767.1117,593.081,767.1117,648C767.1117,702.8912,786.012,724.951,809.286,724.951Z"/>
    <path d="M1067.6212,630.9352,1017.536,756.0006l-50.14-125.0654V756.0006H933.2139V539.9984h34.1823l50.14,121.2582,50.0852-121.2582h34.1823V756.0006h-34.1823Z"/>
    <path d="M1153.7,539.9984h34.56V756.0006H1153.7Z"/>
    <path d="M1274.194,609.74V756.0006H1240.12V539.9984h34.0739l78.8412,137.9445V539.9984h34.1286V756.0006h-30.3219Z"/>
    <path d="M1513.0346,536.2454c34.615,0,54.1087,13.1223,68.7426,47.7364l-32.5891,12.8522c-9.0992-18.954-18.171-25.7581-34.8573-25.7581-47.4662,0-44.7389,72.2524-44.7389,77.3021,0,8.1273-1.8365,76.5457,40.1761,76.5457,21.9778,0,37.908-13.6357,37.908-33.3452v-9.0728h-39.42V648.378h73.495v43.2c0,39.3927-28.7824,68.2025-68.23,68.2025-7.83,0-78.7874,6.4529-78.7874-111.7815C1434.7336,631.4485,1435.6518,536.2454,1513.0346,536.2454Z"/>
  </g>
  <g id="TRAFFIC">
    <path d="M393.2725,1116H359.01V930.32H309.5456V900H443.5193V930.32H393.2725Z"/>
    <path d="M510.0292,1021.9854V1116h-34.074V900h78.138c49.5181,0,64.3677,39.6092,64.3677,60.6686,0,8.02-2.97,39.6091-33.5338,54.0808L622.9973,1116h-37.152l-34.8569-94.0143Zm42.903-34.83c27.1078,0,31.3741-19.5482,31.3741-26.5139,0-9.4234-7.0473-26.5413-29.7271-26.5413h-44.55v53.0552Z"/>
    <path d="M766.09,1055.3576H698.2659L676.9091,1116H640.3242l74.7089-216H749.35l74.682,216H787.4469Zm-55.62-34.857H753.913l-21.3572-60.6148Z"/>
    <path d="M890.5569,987.1558h62.8292v34.8569H890.5569V1116h-34.074V900H990.4566v34.1009h-99.9Z"/>
    <path d="M1056.9714,987.1558h62.8292v34.8569h-62.8292V1116h-34.0736V900H1156.872v34.1009h-99.9006Z"/>
    <path d="M1189.3133,900h34.56v216h-34.56Z"/>
    <path d="M1271.4133,1007.6212c0-30.3743,6.1012-111.3744,79.5681-111.3744,31.3208,0,52.6507,12.7436,67.473,43.956l-31.8327,13.6345c-11.043-15.8763-16.5513-22.7336-35.613-22.7336-45.1976,0-44.7121,62.9905-44.7121,76.5449,0,13.3922-.8371,77.3282,46.2242,77.3282,16.4966,0,25.9737-9.9626,33.3449-25.0292l32.5887,12.1234c-12.15,30.051-32.5614,47.709-65.2049,47.709C1275.5169,1119.78,1271.4133,1033.9192,1271.4133,1007.6212Z"/>
  </g>
</svg>