<svg width="104.347" height="138.907" viewBox="0 0 27.608 36.752" xmlns="http://www.w3.org/2000/svg">
    <defs>
        <clipPath clipPathUnits="userSpaceOnUse" id="a">
            <path d="M30.17 41.388h506.66v700.52H30.17Z" transform="translate(-190.027 -174.15)"/>
        </clipPath>
    </defs>
    <path d="M0 0a4.99 4.99 0 0 0-4.985 4.985v93.96A4.991 4.991 0 0 0 0 103.931h68.04a4.991 4.991 0 0 0 4.985-4.986V4.985A4.99 4.99 0 0 0 68.04 0Z" style="fill:#fff;fill-opacity:1;fill-rule:nonzero;stroke:none" transform="matrix(.35278 0 0 -.35278 1.803 36.708)" clip-path="url(#a)"/>
    <path d="M0 0h-68.04a5.115 5.115 0 0 1-5.11-5.11v-93.96a5.115 5.115 0 0 1 5.11-5.11H0a5.115 5.115 0 0 1 5.11 5.11v93.96A5.115 5.115 0 0 1 0 0m0-.25a4.874 4.874 0 0 0 4.86-4.86v-93.96A4.874 4.874 0 0 0 0-103.93h-68.04a4.874 4.874 0 0 0-4.86 4.86v93.96a4.874 4.874 0 0 0 4.86 4.86z" style="fill:#231f20;fill-opacity:1;fill-rule:nonzero;stroke:none" transform="matrix(.35278 0 0 -.35278 25.806 0)"/>
    <path d="M0 0c-.932 0-1.812.367-2.478 1.032A3.488 3.488 0 0 0-3.51 3.51v93.96c0 .932.367 1.812 1.032 2.478A3.488 3.488 0 0 0 0 100.98h68.04c.932 0 1.812-.367 2.478-1.032a3.488 3.488 0 0 0 1.032-2.478V3.51c0-.932-.367-1.812-1.032-2.478A3.488 3.488 0 0 0 68.04 0Z" style="fill:#231f20;fill-opacity:1;fill-rule:nonzero;stroke:none" transform="matrix(.35278 0 0 -.35278 1.803 36.188)"/>
    <path d="M0 0a1.58 1.58 0 0 0-1.141.479A1.585 1.585 0 0 0-1.62 1.62v93.96c0 .434.166.828.479 1.141.313.313.707.479 1.141.479h68.04c.434 0 .828-.166 1.141-.479a1.58 1.58 0 0 0 .479-1.141V1.62c0-.434-.166-.828-.479-1.141A1.585 1.585 0 0 0 68.04 0Z" style="fill:#fff;fill-opacity:1;fill-rule:nonzero;stroke:none" transform="matrix(.35278 0 0 -.35278 1.803 35.521)"/>
    <path d="M0 0h-1.714v10.295h-2.174v1.585h6.062v-1.585H0Z" style="fill:#231f20;fill-opacity:1;fill-rule:nonzero;stroke:none" transform="matrix(.35278 0 0 -.35278 3.768 24.339)"/>
    <path d="M0 0c-.339 0-1.87.07-1.87-4.464C-1.87-9.03-.339-8.96 0-8.96c.339 0 1.868-.07 1.868 4.496C1.868.07.339 0 0 0m-3.506-4.455c0 6.221 2.885 6.121 3.525 6.121.64 0 3.487.095 3.487-6.125 0-6.266-2.847-6.168-3.487-6.168-.64 0-3.525-.098-3.525 6.172" style="fill:#231f20;fill-opacity:1;fill-rule:nonzero;stroke:none" transform="matrix(.35278 0 0 -.35278 6.275 20.663)"/>
    <path d="m0 0-2.213-6.669L-4.425 0v-6.669h-1.711v11.88h1.711l2.212-6.669L0 5.211h1.711v-11.88H0Z" style="fill:#231f20;fill-opacity:1;fill-rule:nonzero;stroke:none" transform="matrix(.35278 0 0 -.35278 12.534 22.024)"/>
    <path d="M0 0h5.601v-1.668H1.714v-3.001h2.465v-1.626H1.714v-3.919h4.347v-1.666H0Z" style="fill:#231f20;fill-opacity:1;fill-rule:nonzero;stroke:none" transform="matrix(.35278 0 0 -.35278 14.06 20.186)"/>
    <path d="M0 0v-3.001h1.746c1.001 0 1.54.542 1.54 1.501 0 .918-.624 1.5-1.538 1.5zm1.623-4.627H0v-5.585h-1.705v11.88h3.536c1.863 0 3.12-1.251 3.12-3.168 0-1.417-.584-2.459-1.706-2.876l1.704-5.836H3.204Z" style="fill:#231f20;fill-opacity:1;fill-rule:nonzero;stroke:none" transform="matrix(.35278 0 0 -.35278 17.512 20.774)"/>
    <path d="M0 0c-1.081 0-3.684.2-3.684 6.127s2.475 6.167 3.558 6.167c1.716 0 3.014-1.249 3.097-2.999H1.255c-.042.793-.585 1.335-1.423 1.335-.573 0-1.883-.18-1.883-4.504 0-4.325 1.435-4.46 2.008-4.46.879 0 1.298.579 1.298 1.834v.792h-1.34v1.669h3.056V3.502C2.971.529 1.014 0 0 0" style="fill:#231f20;fill-opacity:1;fill-rule:nonzero;stroke:none" transform="matrix(.35278 0 0 -.35278 21.187 24.45)"/>
    <path d="M0 0h5.601v-1.668H1.714v-3.001h2.465v-1.626H1.714v-3.919h4.347v-1.666H0Z" style="fill:#231f20;fill-opacity:1;fill-rule:nonzero;stroke:none" transform="matrix(.35278 0 0 -.35278 23.073 20.186)"/>
    <path d="M0 0h1.746c.998 0 1.54.624 1.54 1.708 0 1.001-.629 1.667-1.538 1.667H0Zm0-1.626v-5.211h-1.705v11.88h3.536c1.873 0 3.12-1.339 3.12-3.335 0-2.168-1.124-3.334-3.12-3.334z" style="fill:#231f20;fill-opacity:1;fill-rule:nonzero;stroke:none" transform="matrix(.35278 0 0 -.35278 7.907 29.68)"/>
    <path d="M0 0c-.339 0-1.87.07-1.87-4.464C-1.87-9.03-.339-8.96 0-8.96c.339 0 1.868-.07 1.868 4.496C1.868.07.339 0 0 0m-3.506-4.455c0 6.221 2.885 6.121 3.525 6.121.64 0 3.487.095 3.487-6.125 0-6.266-2.847-6.168-3.487-6.168-.64 0-3.525-.098-3.525 6.172" style="fill:#231f20;fill-opacity:1;fill-rule:nonzero;stroke:none" transform="matrix(.35278 0 0 -.35278 11.645 28.416)"/>
    <path d="M223.81 199.115h1.663v-11.88h-1.663z" style="fill:#231f20;fill-opacity:1;fill-rule:nonzero;stroke:none" transform="matrix(.35278 0 0 -.35278 -65.235 98.144)"/>
    <path d="M0 0v-7.961h-1.705v11.88H0l3.245-7.128v7.128h1.706v-11.88H3.662Z" style="fill:#231f20;fill-opacity:1;fill-rule:nonzero;stroke:none" transform="matrix(.35278 0 0 -.35278 15.83 29.284)"/>
    <path d="M0 0h-1.714v10.295h-2.174v1.585h6.062v-1.585H0Z" style="fill:#231f20;fill-opacity:1;fill-rule:nonzero;stroke:none" transform="matrix(.35278 0 0 -.35278 19.536 32.092)"/>
    <path d="m0 0 1.792.665C2.291-.459 3.21-1.083 4.336-1.083c1.126 0 1.834.749 1.834 1.748 0 1.588-1.834 1.831-3.375 2.456-.709.292-2.292 1-2.292 2.957 0 2.333 1.583 3.205 3.708 3.205 1.666 0 2.792-.958 3.376-2.415L5.92 6.369c-.274.538-.85 1.041-1.85 1.041-.999 0-1.739-.416-1.739-1.2 0-1.109.961-1.329 2.516-1.817 1.584-.498 3.24-1.227 3.24-3.769 0-2.543-2.079-3.621-3.751-3.621C2.294-2.997.793-1.791 0 0" style="fill:#231f20;fill-opacity:1;fill-rule:nonzero;stroke:none" transform="matrix(.35278 0 0 -.35278 3.285 7.963)"/>
    <path d="M0 0h-1.884v10.212h-2.721v1.668h7.368v-1.668H0Z" style="fill:#231f20;fill-opacity:1;fill-rule:nonzero;stroke:none" transform="matrix(.35278 0 0 -.35278 8.098 8.946)"/>
    <path d="M0 0h2.389L1.215 3.334Zm3.059-1.917h-3.73l-1.175-3.335h-2.012L.251 6.628h1.887l4.108-11.88H4.234Z" style="fill:#231f20;fill-opacity:1;fill-rule:nonzero;stroke:none" transform="matrix(.35278 0 0 -.35278 10.685 7.094)"/>
    <path d="M0 0h-1.886v5.169l-4.189 6.711h2.263l2.848-4.586 2.891 4.586h2.22L0 5.169Z" style="fill:#231f20;fill-opacity:1;fill-rule:nonzero;stroke:none" transform="matrix(.35278 0 0 -.35278 15.283 8.946)"/>
    <path d="M241.027 264.725h1.901v-11.88h-1.901z" style="fill:#231f20;fill-opacity:1;fill-rule:nonzero;stroke:none" transform="matrix(.35278 0 0 -.35278 -65.235 98.144)"/>
    <path d="M0 0v-8.044h-1.874v11.88H0l4.336-7.587v7.587h1.877v-11.88H4.545Z" style="fill:#231f20;fill-opacity:1;fill-rule:nonzero;stroke:none" transform="matrix(.35278 0 0 -.35278 22.132 6.109)"/>
    <path d="M0 0h1.874v-10.129h5.494v-1.751H0Z" style="fill:#231f20;fill-opacity:1;fill-rule:nonzero;stroke:none" transform="matrix(.35278 0 0 -.35278 7.053 12.47)"/>
    <path d="M0 0h2.389L1.215 3.334Zm3.059-1.917h-3.73l-1.175-3.335h-2.012L.251 6.628h1.887l4.108-11.88H4.234Z" style="fill:#231f20;fill-opacity:1;fill-rule:nonzero;stroke:none" transform="matrix(.35278 0 0 -.35278 11.265 14.809)"/>
    <path d="M0 0v-8.044h-1.874v11.88H0l4.336-7.587v7.587h1.877v-11.88H4.545Z" style="fill:#231f20;fill-opacity:1;fill-rule:nonzero;stroke:none" transform="matrix(.35278 0 0 -.35278 14.758 13.824)"/>
    <path d="M0 0h6.994v-1.876h-5.12v-2.918H5.33v-1.917H1.874v-3.252h5.494v-1.917H0Z" style="fill:#231f20;fill-opacity:1;fill-rule:nonzero;stroke:none" transform="matrix(.35278 0 0 -.35278 17.956 12.47)"/>
</svg>
