<?xml version="1.0" encoding="UTF-8" standalone="no"?>
<!-- Created with Inkscape (http://www.inkscape.org/) -->
<svg width="37.19442mm" height="26.617788mm" viewBox="0 0 37.19442 26.617788" version="1.1" id="svg1" inkscape:version="1.3 (0e150ed, 2023-07-21)" sodipodi:docname="MUTCD_R3-8xa.svg" xmlns:inkscape="http://www.inkscape.org/namespaces/inkscape" xmlns:sodipodi="http://sodipodi.sourceforge.net/DTD/sodipodi-0.dtd" xmlns="http://www.w3.org/2000/svg" xmlns:svg="http://www.w3.org/2000/svg">
  <sodipodi:namedview id="namedview1" pagecolor="#ffffff" bordercolor="#666666" borderopacity="1.0" inkscape:showpageshadow="2" inkscape:pageopacity="0.0" inkscape:pagecheckerboard="0" inkscape:deskcolor="#d1d1d1" inkscape:document-units="mm" inkscape:zoom="1" inkscape:cx="82" inkscape:cy="52" inkscape:window-width="1440" inkscape:window-height="449" inkscape:window-x="0" inkscape:window-y="23" inkscape:window-maximized="0" inkscape:current-layer="layer1"/>
  <defs id="defs1">
    <clipPath clipPathUnits="userSpaceOnUse" id="clipPath507">
      <path d="M 21.29,60.838 H 545.711 V 743 H 21.29 Z" transform="translate(-168.55221,-120.5926)" id="path507"/>
    </clipPath>
    <clipPath clipPathUnits="userSpaceOnUse" id="clipPath509">
      <path d="M 21.29,60.838 H 545.711 V 743 H 21.29 Z" transform="translate(-264.11601,-195.91911)" id="path509"/>
    </clipPath>
    <clipPath clipPathUnits="userSpaceOnUse" id="clipPath511">
      <path d="M 21.29,60.838 H 545.711 V 743 H 21.29 Z" transform="translate(-168.5523,-121.9663)" id="path511"/>
    </clipPath>
    <clipPath clipPathUnits="userSpaceOnUse" id="clipPath513">
      <path d="M 21.29,60.838 H 545.711 V 743 H 21.29 Z" transform="translate(-168.5523,-123.8401)" id="path513"/>
    </clipPath>
    <clipPath clipPathUnits="userSpaceOnUse" id="clipPath515">
      <path d="M 21.29,60.838 H 545.711 V 743 H 21.29 Z" id="path515"/>
    </clipPath>
    <clipPath clipPathUnits="userSpaceOnUse" id="clipPath517">
      <path d="M 21.29,60.838 H 545.711 V 743 H 21.29 Z" transform="translate(-168.55221,-120.5926)" id="path517"/>
    </clipPath>
    <clipPath clipPathUnits="userSpaceOnUse" id="clipPath519">
      <path d="M 21.29,60.838 H 545.711 V 743 H 21.29 Z" transform="translate(-264.11601,-195.91911)" id="path519"/>
    </clipPath>
    <clipPath clipPathUnits="userSpaceOnUse" id="clipPath521">
      <path d="M 21.29,60.838 H 545.711 V 743 H 21.29 Z" transform="translate(-168.5523,-121.9663)" id="path521"/>
    </clipPath>
    <clipPath clipPathUnits="userSpaceOnUse" id="clipPath523">
      <path d="M 21.29,60.838 H 545.711 V 743 H 21.29 Z" transform="translate(-168.5523,-123.8401)" id="path523"/>
    </clipPath>
    <clipPath clipPathUnits="userSpaceOnUse" id="clipPath525">
      <path d="M 21.29,60.838 H 545.711 V 743 H 21.29 Z" id="path525"/>
    </clipPath>
    <clipPath clipPathUnits="userSpaceOnUse" id="clipPath527">
      <path d="M 21.29,60.838 H 545.711 V 743 H 21.29 Z" transform="translate(-185.8465,-174.0912)" id="path527"/>
    </clipPath>
    <clipPath clipPathUnits="userSpaceOnUse" id="clipPath529">
      <path d="M 21.29,60.838 H 545.711 V 743 H 21.29 Z" transform="translate(-173.2543,-171.4098)" id="path529"/>
    </clipPath>
    <clipPath clipPathUnits="userSpaceOnUse" id="clipPath531">
      <path d="M 21.29,60.838 H 545.711 V 743 H 21.29 Z" transform="translate(-198.8454,-142.5796)" id="path531"/>
    </clipPath>
    <clipPath clipPathUnits="userSpaceOnUse" id="clipPath533">
      <path d="M 21.29,60.838 H 545.711 V 743 H 21.29 Z" transform="translate(-246.82201,-174.0912)" id="path533"/>
    </clipPath>
    <clipPath clipPathUnits="userSpaceOnUse" id="clipPath535">
      <path d="M 21.29,60.838 H 545.711 V 743 H 21.29 Z" transform="translate(-233.82301,-142.5796)" id="path535"/>
    </clipPath>
    <clipPath clipPathUnits="userSpaceOnUse" id="clipPath537">
      <path d="M 21.29,60.838 H 545.711 V 743 H 21.29 Z" transform="translate(-221.76831,-142.5781)" id="path537"/>
    </clipPath>
    <clipPath clipPathUnits="userSpaceOnUse" id="clipPath539">
      <path d="M 21.29,60.838 H 545.711 V 743 H 21.29 Z" id="path539"/>
    </clipPath>
    <clipPath clipPathUnits="userSpaceOnUse" id="clipPath541">
      <path d="M 21.29,60.838 H 545.711 V 743 H 21.29 Z" transform="translate(-212.66821,-173.75991)" id="path541"/>
    </clipPath>
    <clipPath clipPathUnits="userSpaceOnUse" id="clipPath543">
      <path d="M 21.29,60.838 H 545.711 V 743 H 21.29 Z" transform="translate(-185.8465,-174.0912)" id="path543"/>
    </clipPath>
    <clipPath clipPathUnits="userSpaceOnUse" id="clipPath545">
      <path d="M 21.29,60.838 H 545.711 V 743 H 21.29 Z" transform="translate(-173.2543,-171.4098)" id="path545"/>
    </clipPath>
    <clipPath clipPathUnits="userSpaceOnUse" id="clipPath547">
      <path d="M 21.29,60.838 H 545.711 V 743 H 21.29 Z" transform="translate(-198.8454,-142.5796)" id="path547"/>
    </clipPath>
    <clipPath clipPathUnits="userSpaceOnUse" id="clipPath549">
      <path d="M 21.29,60.838 H 545.711 V 743 H 21.29 Z" transform="translate(-246.82201,-174.0912)" id="path549"/>
    </clipPath>
    <clipPath clipPathUnits="userSpaceOnUse" id="clipPath551">
      <path d="M 21.29,60.838 H 545.711 V 743 H 21.29 Z" transform="translate(-233.82301,-142.5796)" id="path551"/>
    </clipPath>
    <clipPath clipPathUnits="userSpaceOnUse" id="clipPath553">
      <path d="M 21.29,60.838 H 545.711 V 743 H 21.29 Z" transform="translate(-221.76831,-142.5781)" id="path553"/>
    </clipPath>
    <clipPath clipPathUnits="userSpaceOnUse" id="clipPath555">
      <path d="M 21.29,60.838 H 545.711 V 743 H 21.29 Z" id="path555"/>
    </clipPath>
    <clipPath clipPathUnits="userSpaceOnUse" id="clipPath557">
      <path d="M 21.29,60.838 H 545.711 V 743 H 21.29 Z" transform="translate(-212.66821,-173.75991)" id="path557"/>
    </clipPath>
    <clipPath clipPathUnits="userSpaceOnUse" id="clipPath559">
      <path d="M 21.29,60.838 H 545.711 V 743 H 21.29 Z" transform="translate(-206.36191,-131.97591)" id="path559"/>
    </clipPath>
    <clipPath clipPathUnits="userSpaceOnUse" id="clipPath561">
      <path d="M 21.29,60.838 H 545.711 V 743 H 21.29 Z" transform="translate(-212.98581,-133.23501)" id="path561"/>
    </clipPath>
    <clipPath clipPathUnits="userSpaceOnUse" id="clipPath563">
      <path d="M 21.29,60.838 H 545.711 V 743 H 21.29 Z" transform="translate(-217.34631,-135.7075)" id="path563"/>
    </clipPath>
    <clipPath clipPathUnits="userSpaceOnUse" id="clipPath565">
      <path d="M 21.29,60.838 H 545.711 V 743 H 21.29 Z" transform="translate(-224.43481,-128.2123)" id="path565"/>
    </clipPath>
    <clipPath clipPathUnits="userSpaceOnUse" id="clipPath567">
      <path d="M 21.29,60.838 H 545.711 V 743 H 21.29 Z" transform="translate(-176.84181,-132.58461)" id="path567"/>
    </clipPath>
    <clipPath clipPathUnits="userSpaceOnUse" id="clipPath569">
      <path d="M 21.29,60.838 H 545.711 V 743 H 21.29 Z" transform="translate(-180.0676,-134.35461)" id="path569"/>
    </clipPath>
    <clipPath clipPathUnits="userSpaceOnUse" id="clipPath571">
      <path d="M 21.29,60.838 H 545.711 V 743 H 21.29 Z" transform="translate(-187.0933,-137.58111)" id="path571"/>
    </clipPath>
    <clipPath clipPathUnits="userSpaceOnUse" id="clipPath573">
      <path d="M 21.29,60.838 H 545.711 V 743 H 21.29 Z" transform="translate(-198.8518,-127.588)" id="path573"/>
    </clipPath>
    <clipPath clipPathUnits="userSpaceOnUse" id="clipPath575">
      <path d="M 21.29,60.838 H 545.711 V 743 H 21.29 Z" transform="translate(-237.42801,-132.58461)" id="path575"/>
    </clipPath>
    <clipPath clipPathUnits="userSpaceOnUse" id="clipPath577">
      <path d="M 21.29,60.838 H 545.711 V 743 H 21.29 Z" transform="translate(-240.6538,-134.35461)" id="path577"/>
    </clipPath>
    <clipPath clipPathUnits="userSpaceOnUse" id="clipPath579">
      <path d="M 21.29,60.838 H 545.711 V 743 H 21.29 Z" transform="translate(-247.6795,-137.5812)" id="path579"/>
    </clipPath>
    <clipPath clipPathUnits="userSpaceOnUse" id="clipPath581">
      <path d="M 21.29,60.838 H 545.711 V 743 H 21.29 Z" transform="translate(-259.43791,-127.588)" id="path581"/>
    </clipPath>
  </defs>
  <g inkscape:label="Layer 1" inkscape:groupmode="layer" id="layer1" transform="translate(-61.912499,-137.58333)">
    <path id="path506" d="m 0,0 c -2.652,0 -4.81,2.157 -4.81,4.809 v 65.583 c 0,2.652 2.158,4.809 4.81,4.809 h 95.563 c 2.653,0 4.81,-2.157 4.81,-4.809 V 4.809 C 100.373,2.157 98.216,0 95.563,0 Z" style="fill:#ffffff;fill-opacity:1;fill-rule:nonzero;stroke:none" transform="matrix(0.35277776,0,0,-0.35277776,63.653175,164.15685)" clip-path="url(#clipPath507)"/>
    <path id="path508" d="m 0,0 h -95.564 c -2.721,0 -4.934,-2.214 -4.934,-4.935 v -65.583 c 0,-2.72 2.213,-4.934 4.934,-4.934 H 0 c 2.721,0 4.935,2.214 4.935,4.934 V -4.935 C 4.935,-2.214 2.721,0 0,0 m 0,-0.25 c 2.587,0 4.685,-2.097 4.685,-4.685 v -65.583 c 0,-2.587 -2.098,-4.684 -4.685,-4.684 h -95.564 c -2.587,0 -4.684,2.097 -4.684,4.684 v 65.583 c 0,2.588 2.097,4.685 4.684,4.685 z" style="fill:#000000;fill-opacity:1;fill-rule:nonzero;stroke:none" transform="matrix(0.35277776,0,0,-0.35277776,97.365959,137.58333)" clip-path="url(#clipPath509)"/>
    <path id="path510" d="m 0,0 c -1.894,0 -3.435,1.541 -3.435,3.435 v 65.583 c 0,1.895 1.541,3.436 3.435,3.436 h 95.564 c 1.894,0 3.435,-1.541 3.435,-3.436 V 3.435 C 98.999,1.541 97.458,0 95.564,0 Z" style="fill:#000000;fill-opacity:1;fill-rule:nonzero;stroke:none" transform="matrix(0.35277776,0,0,-0.35277776,63.653209,163.67224)" clip-path="url(#clipPath511)"/>
    <path id="path512" d="m 0,0 c -0.861,0 -1.561,0.701 -1.561,1.561 v 65.584 c 0,0.86 0.7,1.561 1.561,1.561 h 95.564 c 0.861,0 1.561,-0.701 1.561,-1.561 V 1.561 C 97.125,0.701 96.425,0 95.564,0 Z" style="fill:#ffffff;fill-opacity:1;fill-rule:nonzero;stroke:none" transform="matrix(0.35277776,0,0,-0.35277776,63.653209,163.01121)" clip-path="url(#clipPath513)"/>
    <path id="path514" d="m 227.577,122.678 h -22.486 v 70.891 h 22.486 z" style="fill:#000000;fill-opacity:1;fill-rule:nonzero;stroke:none" transform="matrix(0.35277776,0,0,-0.35277776,4.191704,206.69924)" clip-path="url(#clipPath515)"/>
    <path id="path516" d="m 0,0 c -2.652,0 -4.81,2.157 -4.81,4.809 v 65.583 c 0,2.652 2.158,4.809 4.81,4.809 h 95.563 c 2.653,0 4.81,-2.157 4.81,-4.809 V 4.809 C 100.373,2.157 98.216,0 95.563,0 Z" style="fill:#ffffff;fill-opacity:1;fill-rule:nonzero;stroke:none" transform="matrix(0.35277776,0,0,-0.35277776,63.653175,164.15685)" clip-path="url(#clipPath517)"/>
    <path id="path518" d="m 0,0 h -95.564 c -2.721,0 -4.934,-2.214 -4.934,-4.935 v -65.583 c 0,-2.72 2.213,-4.934 4.934,-4.934 H 0 c 2.721,0 4.935,2.214 4.935,4.934 V -4.935 C 4.935,-2.214 2.721,0 0,0 m 0,-0.25 c 2.587,0 4.685,-2.097 4.685,-4.685 v -65.583 c 0,-2.587 -2.098,-4.684 -4.685,-4.684 h -95.564 c -2.587,0 -4.684,2.097 -4.684,4.684 v 65.583 c 0,2.588 2.097,4.685 4.684,4.685 z" style="fill:#000000;fill-opacity:1;fill-rule:nonzero;stroke:none" transform="matrix(0.35277776,0,0,-0.35277776,97.365959,137.58333)" clip-path="url(#clipPath519)"/>
    <path id="path520" d="m 0,0 c -1.894,0 -3.435,1.541 -3.435,3.435 v 65.583 c 0,1.895 1.541,3.436 3.435,3.436 h 95.564 c 1.894,0 3.435,-1.541 3.435,-3.436 V 3.435 C 98.999,1.541 97.458,0 95.564,0 Z" style="fill:#000000;fill-opacity:1;fill-rule:nonzero;stroke:none" transform="matrix(0.35277776,0,0,-0.35277776,63.653209,163.67224)" clip-path="url(#clipPath521)"/>
    <path id="path522" d="m 0,0 c -0.861,0 -1.561,0.701 -1.561,1.561 v 65.584 c 0,0.86 0.7,1.561 1.561,1.561 h 95.564 c 0.861,0 1.561,-0.701 1.561,-1.561 V 1.561 C 97.125,0.701 96.425,0 95.564,0 Z" style="fill:#ffffff;fill-opacity:1;fill-rule:nonzero;stroke:none" transform="matrix(0.35277776,0,0,-0.35277776,63.653209,163.01121)" clip-path="url(#clipPath523)"/>
    <path id="path524" d="m 227.577,122.678 h -22.486 v 70.891 h 22.486 z" style="fill:#000000;fill-opacity:1;fill-rule:nonzero;stroke:none" transform="matrix(0.35277776,0,0,-0.35277776,4.191704,206.69924)" clip-path="url(#clipPath525)"/>
    <path id="path526" d="M 0,0 C 0.209,0.045 0.433,0.029 0.646,-0.059 1.203,-0.29 1.468,-0.93 1.237,-1.487 1.185,-1.614 1.111,-1.726 1.022,-1.82 l -4.399,-4.686 -0.203,-6.423 c -0.004,-0.13 -0.03,-0.261 -0.083,-0.388 -0.231,-0.558 -0.87,-0.823 -1.428,-0.592 -0.212,0.088 -0.382,0.236 -0.498,0.415 l -7.021,10.813 z" style="fill:#000000;fill-opacity:1;fill-rule:nonzero;stroke:none" transform="matrix(0.35277776,0,0,-0.35277776,69.754218,145.28373)" clip-path="url(#clipPath527)"/>
    <path id="path528" d="M 0,0 C 0.184,-0.007 0.423,0.012 0.59,0.068 L 0.383,-0.159 0.369,-0.465 C 0.291,-0.308 0.135,-0.125 0,0" style="fill:#c0311a;fill-opacity:1;fill-rule:nonzero;stroke:none" transform="matrix(0.35277776,0,0,-0.35277776,65.311969,146.22967)" clip-path="url(#clipPath529)"/>
    <path id="path530" d="m 0,0 h -5.621 v 9.369 c 0,2.418 -0.71,4.758 -2.053,6.768 -1.344,2.01 -3.234,3.562 -5.468,4.487 l -5.753,2.383 2.151,5.194 5.753,-2.384 C -7.726,24.465 -4.963,22.198 -3,19.26 -1.038,16.322 0,12.902 0,9.369 Z" style="fill:#000000;fill-opacity:1;fill-rule:nonzero;stroke:none" transform="matrix(0.35277776,0,0,-0.35277776,74.339941,156.40033)" clip-path="url(#clipPath531)"/>
    <path id="path532" d="m 0,0 c -0.209,0.045 -0.433,0.029 -0.646,-0.059 -0.557,-0.231 -0.822,-0.871 -0.591,-1.428 0.052,-0.127 0.126,-0.239 0.215,-0.333 l 4.399,-4.686 0.203,-6.423 c 0.004,-0.13 0.03,-0.261 0.083,-0.388 0.231,-0.558 0.87,-0.823 1.428,-0.592 0.212,0.088 0.382,0.236 0.498,0.415 l 7.02,10.813 z" style="fill:#000000;fill-opacity:1;fill-rule:nonzero;stroke:none" transform="matrix(0.35277776,0,0,-0.35277776,91.26502,145.28373)" clip-path="url(#clipPath533)"/>
    <path id="path534" d="m 0,0 h 5.621 v 9.369 c 0,2.418 0.71,4.758 2.053,6.768 1.344,2.01 3.234,3.562 5.468,4.487 l 5.753,2.383 -2.151,5.194 -5.753,-2.384 C 7.726,24.465 4.964,22.198 3.001,19.26 1.038,16.322 0,12.902 0,9.369 Z" style="fill:#000000;fill-opacity:1;fill-rule:nonzero;stroke:none" transform="matrix(0.35277776,0,0,-0.35277776,86.679261,156.40033)" clip-path="url(#clipPath535)"/>
    <path id="path536" d="M 0,0 C -1.197,0 -2.211,0.783 -2.558,1.865 L -0.17,2.379 C -0.12,2.351 -0.062,2.335 0,2.335 c 0.194,0 0.35,0.157 0.35,0.351 0,0.169 -0.119,0.31 -0.278,0.343 L -1.396,4.98 C -0.99,5.229 -0.512,5.372 0,5.372 1.483,5.372 2.686,4.169 2.686,2.686 2.686,1.202 1.483,0 0,0 m -2.686,2.686 c 0,0.782 0.335,1.486 0.868,1.977 l 1.359,-1.806 -2.21,-0.476 c -0.011,0.1 -0.017,0.202 -0.017,0.305 m -0.596,-0.437 -1.05,-0.226 1.219,4.361 0.918,-1.22 C -2.879,4.558 -3.31,3.672 -3.31,2.686 c 0,-0.148 0.009,-0.294 0.028,-0.437 m -1.495,0.14 -0.164,0.62 h 0.255 V 3.258 H -5.49 V 3.009 h 0.32 L -5.008,2.394 -8.469,6.16 c 0.056,0.18 0.114,0.364 0.171,0.548 H -3.57 Z M -8.182,2.686 C -8.182,1.202 -9.385,0 -10.868,0 c -1.483,0 -2.686,1.202 -2.686,2.686 0,1.483 1.203,2.686 2.686,2.686 0.527,0 1.019,-0.152 1.434,-0.415 -0.33,-0.716 -0.973,-1.486 -1.437,-1.921 -0.192,-10e-4 -0.348,-0.157 -0.348,-0.35 0,-0.194 0.157,-0.351 0.351,-0.351 0.179,0 0.326,0.134 0.348,0.308 0.226,0.212 0.523,0.525 0.815,0.899 0.218,0.279 0.49,0.664 0.696,1.082 0.51,-0.489 0.827,-1.177 0.827,-1.938 M 0,5.996 c -0.652,0 -1.261,-0.189 -1.773,-0.514 l -1.161,1.542 0.152,0.544 c 0.728,0.063 1.13,0.34 1.106,0.607 C -1.7,8.434 -2.422,8.24 -3.225,8.23 -3.445,8.227 -4.613,8.232 -4.606,8.018 -4.599,7.798 -3.852,7.619 -3.329,7.569 L -3.422,7.236 h -4.714 c 0.1,0.328 0.192,0.63 0.263,0.865 0.061,0.2 0.107,0.351 0.129,0.426 l -0.343,0.262 0.162,0.164 h 1.263 V 9.369 H -8.099 L -8.715,8.745 -8.32,8.443 c -0.183,-0.606 -0.616,-2.03 -0.895,-2.888 -0.487,0.28 -1.051,0.441 -1.653,0.441 -1.828,0 -3.31,-1.482 -3.31,-3.31 0,-1.828 1.482,-3.311 3.31,-3.311 1.828,0 3.31,1.483 3.31,3.311 0,1.029 -0.469,1.948 -1.205,2.555 0.034,0.103 0.071,0.217 0.111,0.34 L -5.09,1.704 C -5.091,1.693 -5.092,1.683 -5.092,1.673 c 0,-0.21 0.167,-0.381 0.375,-0.388 l 0.25,-0.948 h -0.255 v -0.25 h 0.804 v 0.25 h -0.32 l -0.264,1.005 c 0.054,0.033 0.099,0.078 0.132,0.133 l 1.199,0.258 C -2.762,0.369 -1.497,-0.625 0,-0.625 c 1.828,0 3.31,1.483 3.31,3.311 0,1.828 -1.482,3.31 -3.31,3.31" style="fill:#ffffff;fill-opacity:1;fill-rule:nonzero;stroke:none" transform="matrix(0.35277776,0,0,-0.35277776,82.426632,156.40086)" clip-path="url(#clipPath537)"/>
    <path id="path538" d="m 217.739,158.193 h -2.811 v 16.058 h 2.811 z" style="fill:#ffffff;fill-opacity:1;fill-rule:nonzero;stroke:none" transform="matrix(0.35277776,0,0,-0.35277776,4.191704,206.69924)" clip-path="url(#clipPath539)"/>
    <path id="path540" d="m 0,0 c -0.051,-0.075 -0.082,-0.166 -0.082,-0.264 0,-0.259 0.21,-0.469 0.469,-0.469 0.053,0 0.105,0.01 0.153,0.026 L 3.666,0.36 6.792,-0.707 c 0.048,-0.016 0.1,-0.026 0.153,-0.026 0.259,0 0.469,0.21 0.469,0.469 0,0.098 -0.031,0.189 -0.082,0.264 L 3.666,5.357 Z" style="fill:#ffffff;fill-opacity:1;fill-rule:nonzero;stroke:none" transform="matrix(0.35277776,0,0,-0.35277776,79.216318,145.40061)" clip-path="url(#clipPath541)"/>
    <path id="path542" d="M 0,0 C 0.209,0.045 0.433,0.029 0.646,-0.059 1.203,-0.29 1.468,-0.93 1.237,-1.487 1.185,-1.614 1.111,-1.726 1.022,-1.82 l -4.399,-4.686 -0.203,-6.423 c -0.004,-0.13 -0.03,-0.261 -0.083,-0.388 -0.231,-0.558 -0.87,-0.823 -1.428,-0.592 -0.212,0.088 -0.382,0.236 -0.498,0.415 l -7.021,10.813 z" style="fill:#000000;fill-opacity:1;fill-rule:nonzero;stroke:none" transform="matrix(0.35277776,0,0,-0.35277776,69.754218,145.28373)" clip-path="url(#clipPath543)"/>
    <path id="path544" d="M 0,0 C 0.184,-0.007 0.423,0.012 0.59,0.068 L 0.383,-0.159 0.369,-0.465 C 0.291,-0.308 0.135,-0.125 0,0" style="fill:#c0311a;fill-opacity:1;fill-rule:nonzero;stroke:none" transform="matrix(0.35277776,0,0,-0.35277776,65.311969,146.22967)" clip-path="url(#clipPath545)"/>
    <path id="path546" d="m 0,0 h -5.621 v 9.369 c 0,2.418 -0.71,4.758 -2.053,6.768 -1.344,2.01 -3.234,3.562 -5.468,4.487 l -5.753,2.383 2.151,5.194 5.753,-2.384 C -7.726,24.465 -4.963,22.198 -3,19.26 -1.038,16.322 0,12.902 0,9.369 Z" style="fill:#000000;fill-opacity:1;fill-rule:nonzero;stroke:none" transform="matrix(0.35277776,0,0,-0.35277776,74.339941,156.40033)" clip-path="url(#clipPath547)"/>
    <path id="path548" d="m 0,0 c -0.209,0.045 -0.433,0.029 -0.646,-0.059 -0.557,-0.231 -0.822,-0.871 -0.591,-1.428 0.052,-0.127 0.126,-0.239 0.215,-0.333 l 4.399,-4.686 0.203,-6.423 c 0.004,-0.13 0.03,-0.261 0.083,-0.388 0.231,-0.558 0.87,-0.823 1.428,-0.592 0.212,0.088 0.382,0.236 0.498,0.415 l 7.02,10.813 z" style="fill:#000000;fill-opacity:1;fill-rule:nonzero;stroke:none" transform="matrix(0.35277776,0,0,-0.35277776,91.26502,145.28373)" clip-path="url(#clipPath549)"/>
    <path id="path550" d="m 0,0 h 5.621 v 9.369 c 0,2.418 0.71,4.758 2.053,6.768 1.344,2.01 3.234,3.562 5.468,4.487 l 5.753,2.383 -2.151,5.194 -5.753,-2.384 C 7.726,24.465 4.964,22.198 3.001,19.26 1.038,16.322 0,12.902 0,9.369 Z" style="fill:#000000;fill-opacity:1;fill-rule:nonzero;stroke:none" transform="matrix(0.35277776,0,0,-0.35277776,86.679261,156.40033)" clip-path="url(#clipPath551)"/>
    <path id="path552" d="M 0,0 C -1.197,0 -2.211,0.783 -2.558,1.865 L -0.17,2.379 C -0.12,2.351 -0.062,2.335 0,2.335 c 0.194,0 0.35,0.157 0.35,0.351 0,0.169 -0.119,0.31 -0.278,0.343 L -1.396,4.98 C -0.99,5.229 -0.512,5.372 0,5.372 1.483,5.372 2.686,4.169 2.686,2.686 2.686,1.202 1.483,0 0,0 m -2.686,2.686 c 0,0.782 0.335,1.486 0.868,1.977 l 1.359,-1.806 -2.21,-0.476 c -0.011,0.1 -0.017,0.202 -0.017,0.305 m -0.596,-0.437 -1.05,-0.226 1.219,4.361 0.918,-1.22 C -2.879,4.558 -3.31,3.672 -3.31,2.686 c 0,-0.148 0.009,-0.294 0.028,-0.437 m -1.495,0.14 -0.164,0.62 h 0.255 V 3.258 H -5.49 V 3.009 h 0.32 L -5.008,2.394 -8.469,6.16 c 0.056,0.18 0.114,0.364 0.171,0.548 H -3.57 Z M -8.182,2.686 C -8.182,1.202 -9.385,0 -10.868,0 c -1.483,0 -2.686,1.202 -2.686,2.686 0,1.483 1.203,2.686 2.686,2.686 0.527,0 1.019,-0.152 1.434,-0.415 -0.33,-0.716 -0.973,-1.486 -1.437,-1.921 -0.192,-10e-4 -0.348,-0.157 -0.348,-0.35 0,-0.194 0.157,-0.351 0.351,-0.351 0.179,0 0.326,0.134 0.348,0.308 0.226,0.212 0.523,0.525 0.815,0.899 0.218,0.279 0.49,0.664 0.696,1.082 0.51,-0.489 0.827,-1.177 0.827,-1.938 M 0,5.996 c -0.652,0 -1.261,-0.189 -1.773,-0.514 l -1.161,1.542 0.152,0.544 c 0.728,0.063 1.13,0.34 1.106,0.607 C -1.7,8.434 -2.422,8.24 -3.225,8.23 -3.445,8.227 -4.613,8.232 -4.606,8.018 -4.599,7.798 -3.852,7.619 -3.329,7.569 L -3.422,7.236 h -4.714 c 0.1,0.328 0.192,0.63 0.263,0.865 0.061,0.2 0.107,0.351 0.129,0.426 l -0.343,0.262 0.162,0.164 h 1.263 V 9.369 H -8.099 L -8.715,8.745 -8.32,8.443 c -0.183,-0.606 -0.616,-2.03 -0.895,-2.888 -0.487,0.28 -1.051,0.441 -1.653,0.441 -1.828,0 -3.31,-1.482 -3.31,-3.31 0,-1.828 1.482,-3.311 3.31,-3.311 1.828,0 3.31,1.483 3.31,3.311 0,1.029 -0.469,1.948 -1.205,2.555 0.034,0.103 0.071,0.217 0.111,0.34 L -5.09,1.704 C -5.091,1.693 -5.092,1.683 -5.092,1.673 c 0,-0.21 0.167,-0.381 0.375,-0.388 l 0.25,-0.948 h -0.255 v -0.25 h 0.804 v 0.25 h -0.32 l -0.264,1.005 c 0.054,0.033 0.099,0.078 0.132,0.133 l 1.199,0.258 C -2.762,0.369 -1.497,-0.625 0,-0.625 c 1.828,0 3.31,1.483 3.31,3.311 0,1.828 -1.482,3.31 -3.31,3.31" style="fill:#ffffff;fill-opacity:1;fill-rule:nonzero;stroke:none" transform="matrix(0.35277776,0,0,-0.35277776,82.426632,156.40086)" clip-path="url(#clipPath553)"/>
    <path id="path554" d="m 217.739,158.193 h -2.811 v 16.058 h 2.811 z" style="fill:#ffffff;fill-opacity:1;fill-rule:nonzero;stroke:none" transform="matrix(0.35277776,0,0,-0.35277776,4.191704,206.69924)" clip-path="url(#clipPath555)"/>
    <path id="path556" d="m 0,0 c -0.051,-0.075 -0.082,-0.166 -0.082,-0.264 0,-0.259 0.21,-0.469 0.469,-0.469 0.053,0 0.105,0.01 0.153,0.026 L 3.666,0.36 6.792,-0.707 c 0.048,-0.016 0.1,-0.026 0.153,-0.026 0.259,0 0.469,0.21 0.469,0.469 0,0.098 -0.031,0.189 -0.082,0.264 L 3.666,5.357 Z" style="fill:#ffffff;fill-opacity:1;fill-rule:nonzero;stroke:none" transform="matrix(0.35277776,0,0,-0.35277776,79.216318,145.40061)" clip-path="url(#clipPath557)"/>
    <path id="path558" d="m 0,0 c 0,3.925 1.82,3.862 2.224,3.862 0.404,0 2.2,0.06 2.2,-3.865 0,-3.953 -1.796,-3.891 -2.2,-3.891 C 1.82,-3.894 0,-3.956 0,0 m 2.212,2.811 c -0.214,0 -1.18,0.044 -1.18,-2.817 0,-2.881 0.966,-2.837 1.18,-2.837 0.214,0 1.179,-0.044 1.179,2.837 0,2.861 -0.965,2.817 -1.179,2.817" style="fill:#ffffff;fill-opacity:1;fill-rule:nonzero;stroke:none" transform="matrix(0.35277776,0,0,-0.35277776,76.991596,160.14107)" clip-path="url(#clipPath559)"/>
    <path id="path560" d="M 0,0 V -5.023 H -1.076 V 2.473 H 0 L 2.047,-2.025 V 2.473 H 3.124 V -5.023 H 2.31 Z" style="fill:#ffffff;fill-opacity:1;fill-rule:nonzero;stroke:none" transform="matrix(0.35277776,0,0,-0.35277776,79.328361,159.69689)" clip-path="url(#clipPath561)"/>
    <path id="path562" d="m 0,0 h 1.081 v -6.495 h 2.743 v -1 H 0 Z" style="fill:#ffffff;fill-opacity:1;fill-rule:nonzero;stroke:none" transform="matrix(0.35277776,0,0,-0.35277776,80.866649,158.82465)" clip-path="url(#clipPath563)"/>
    <path id="path564" d="m 0,0 h -1.081 v 3.393 l -1.846,4.102 h 1.134 l 1.265,-2.708 1.24,2.708 h 1.16 L 0,3.393 Z" style="fill:#ffffff;fill-opacity:1;fill-rule:nonzero;stroke:none" transform="matrix(0.35277776,0,0,-0.35277776,83.367313,161.46879)" clip-path="url(#clipPath565)"/>
    <path id="path566" d="m 0,0 c 0,-0.358 0.076,-5.171 -3.55,-5.171 -3.626,0 -3.55,4.813 -3.55,5.171 0,0.359 -0.076,5.17 3.55,5.17 C 0.076,5.17 0,0.359 0,0 m -3.533,-3.56 c 1.077,0 1.952,1.021 1.952,3.56 0,2.54 -0.875,3.56 -1.952,3.56 -1.076,0 -1.951,-1.019 -1.951,-3.56 0,-2.539 0.875,-3.56 1.951,-3.56" style="fill:#000000;fill-opacity:1;fill-rule:nonzero;stroke:none" transform="matrix(0.35277776,0,0,-0.35277776,66.577561,159.92634)" clip-path="url(#clipPath567)"/>
    <path id="path568" d="M 0,0 V -6.767 H -1.576 V 3.227 H 0 L 3.647,-3.155 V 3.227 H 5.226 V -6.767 H 3.824 Z" style="fill:#000000;fill-opacity:1;fill-rule:nonzero;stroke:none" transform="matrix(0.35277776,0,0,-0.35277776,67.71555,159.30192)" clip-path="url(#clipPath569)"/>
    <path id="path570" d="M 0,0 H 1.576 V -8.52 H 6.198 V -9.993 H 0 Z" style="fill:#000000;fill-opacity:1;fill-rule:nonzero;stroke:none" transform="matrix(0.35277776,0,0,-0.35277776,70.194061,158.16368)" clip-path="url(#clipPath571)"/>
    <path id="path572" d="M 0,0 H -1.586 V 4.348 L -5.11,9.993 h 1.904 L -0.811,6.136 1.621,9.993 H 3.489 L 0,4.348 Z" style="fill:#000000;fill-opacity:1;fill-rule:nonzero;stroke:none" transform="matrix(0.35277776,0,0,-0.35277776,74.342198,161.68903)" clip-path="url(#clipPath573)"/>
    <path id="path574" d="m 0,0 c 0,-0.358 0.076,-5.171 -3.55,-5.171 -3.626,0 -3.55,4.813 -3.55,5.171 0,0.359 -0.076,5.17 3.55,5.17 C 0.076,5.17 0,0.359 0,0 m -3.533,-3.56 c 1.077,0 1.952,1.021 1.952,3.56 0,2.54 -0.875,3.56 -1.952,3.56 -1.076,0 -1.951,-1.019 -1.951,-3.56 0,-2.539 0.875,-3.56 1.951,-3.56" style="fill:#000000;fill-opacity:1;fill-rule:nonzero;stroke:none" transform="matrix(0.35277776,0,0,-0.35277776,87.951026,159.92634)" clip-path="url(#clipPath575)"/>
    <path id="path576" d="M 0,0 V -6.767 H -1.576 V 3.227 H 0 L 3.647,-3.155 V 3.227 H 5.226 V -6.767 H 3.824 Z" style="fill:#000000;fill-opacity:1;fill-rule:nonzero;stroke:none" transform="matrix(0.35277776,0,0,-0.35277776,89.089015,159.30192)" clip-path="url(#clipPath577)"/>
    <path id="path578" d="M 0,0 H 1.576 V -8.521 H 6.198 V -9.993 H 0 Z" style="fill:#000000;fill-opacity:1;fill-rule:nonzero;stroke:none" transform="matrix(0.35277776,0,0,-0.35277776,91.567526,158.16365)" clip-path="url(#clipPath579)"/>
    <path id="path580" d="M 0,0 H -1.586 V 4.348 L -5.11,9.993 h 1.903 L -0.811,6.136 1.621,9.993 H 3.489 L 0,4.348 Z" style="fill:#000000;fill-opacity:1;fill-rule:nonzero;stroke:none" transform="matrix(0.35277776,0,0,-0.35277776,95.715629,161.68903)" clip-path="url(#clipPath581)"/>
  </g>
</svg>
