<?xml version="1.0" encoding="UTF-8" standalone="no"?>
<!-- Created with Inkscape (http://www.inkscape.org/) -->

<svg
   width="13.129683mm"
   height="19.607388mm"
   viewBox="0 0 13.129683 19.607388"
   version="1.1"
   id="svg1"
   inkscape:version="1.3 (0e150ed, 2023-07-21)"
   sodipodi:docname="MUTCD_R9-23aL.svg"
   xmlns:inkscape="http://www.inkscape.org/namespaces/inkscape"
   xmlns:sodipodi="http://sodipodi.sourceforge.net/DTD/sodipodi-0.dtd"
   xmlns="http://www.w3.org/2000/svg"
   xmlns:svg="http://www.w3.org/2000/svg">
  <sodipodi:namedview
     id="namedview1"
     pagecolor="#ffffff"
     bordercolor="#666666"
     borderopacity="1.0"
     inkscape:showpageshadow="2"
     inkscape:pageopacity="0.0"
     inkscape:pagecheckerboard="0"
     inkscape:deskcolor="#d1d1d1"
     inkscape:document-units="mm"
     inkscape:zoom="1"
     inkscape:cx="24"
     inkscape:cy="38"
     inkscape:window-width="1440"
     inkscape:window-height="431"
     inkscape:window-x="0"
     inkscape:window-y="23"
     inkscape:window-maximized="0"
     inkscape:current-layer="layer1" />
  <defs
     id="defs1">
    <clipPath
       clipPathUnits="userSpaceOnUse"
       id="clipPath622">
      <path
         d="M 26.392,39 H 542.609 V 593.262 H 26.392 Z"
         transform="translate(-389.67181,-58.947999)"
         id="path622" />
    </clipPath>
  </defs>
  <g
     inkscape:label="Layer 1"
     inkscape:groupmode="layer"
     id="layer1"
     transform="translate(-97.89583,-138.64167)">
    <g
       id="g620"
       transform="matrix(0.26458333,0,0,0.26458333,-37.864487,-100.39949)">
      <path
         id="path621"
         d="m 0,0 c -2.6,0 -4.715,2.115 -4.715,4.715 v 45.9 c 0,2.6 2.115,4.715 4.715,4.715 h 27.539 c 2.6,0 4.714,-2.115 4.714,-4.715 V 4.715 C 32.253,2.115 30.139,0 27.539,0 Z"
         style="fill:#ffffff;fill-opacity:1;fill-rule:nonzero;stroke:none"
         transform="matrix(1.3333333,0,0,-1.3333333,519.5624,977.40267)"
         clip-path="url(#clipPath622)" />
    </g>
    <g
       id="g622"
       transform="matrix(0.26458333,0,0,0.26458333,-37.864487,-100.39949)">
      <path
         id="path623"
         d="m 0,0 h -27.539 c -2.668,0 -4.839,-2.171 -4.839,-4.84 v -45.9 c 0,-2.668 2.171,-4.84 4.839,-4.84 H 0 c 2.669,0 4.84,2.172 4.84,4.84 v 45.9 C 4.84,-2.171 2.669,0 0,0 m 0,-0.25 c 2.535,0 4.59,-2.055 4.59,-4.59 v -45.9 c 0,-2.535 -2.055,-4.59 -4.59,-4.59 h -27.539 c -2.535,0 -4.589,2.055 -4.589,4.59 v 45.9 c 0,2.535 2.054,4.59 4.589,4.59 z"
         style="fill:#000000;fill-opacity:1;fill-rule:nonzero;stroke:none"
         transform="matrix(1.3333333,0,0,-1.3333333,556.28053,903.46267)" />
    </g>
    <g
       id="g623"
       transform="matrix(0.26458333,0,0,0.26458333,-37.864487,-100.39949)">
      <path
         id="path624"
         d="m 0,0 c -1.898,0 -3.442,1.544 -3.442,3.442 v 45.9 c 0,1.898 1.544,3.443 3.442,3.443 h 27.539 c 1.898,0 3.442,-1.545 3.442,-3.443 V 3.442 C 30.981,1.544 29.437,0 27.539,0 Z"
         style="fill:#000000;fill-opacity:1;fill-rule:nonzero;stroke:none"
         transform="matrix(1.3333333,0,0,-1.3333333,519.56227,975.7056)" />
      <path
         id="path625"
         d="m 0,0 c -1.265,0 -2.295,1.03 -2.295,2.295 v 45.9 c 0,1.265 1.03,2.295 2.295,2.295 h 27.539 c 1.265,0 2.295,-1.03 2.295,-2.295 V 2.295 C 29.834,1.03 28.804,0 27.539,0 Z"
         style="fill:#ffffff;fill-opacity:1;fill-rule:nonzero;stroke:none"
         transform="matrix(1.3333333,0,0,-1.3333333,519.56227,974.1756)" />
      <path
         id="path626"
         d="m 0,0 c -1.649,0 -3.046,1.079 -3.524,2.57 l 3.289,0.708 c 0.07,-0.038 0.15,-0.06 0.235,-0.06 0.267,0 0.483,0.216 0.483,0.483 0,0.233 -0.165,0.427 -0.384,0.473 L -1.924,6.862 C -1.363,7.204 -0.705,7.401 0,7.401 2.044,7.401 3.7,5.745 3.7,3.701 3.7,1.657 2.044,0 0,0 m -3.7,3.701 c 0,1.078 0.46,2.048 1.196,2.724 L -0.632,3.936 -3.677,3.281 C -3.692,3.419 -3.7,3.559 -3.7,3.701 m -0.821,-0.602 -1.448,-0.312 1.68,6.01 1.266,-1.682 C -3.966,6.28 -4.561,5.06 -4.561,3.701 c 0,-0.204 0.014,-0.405 0.04,-0.602 m -2.061,0.193 -0.225,0.854 h 0.351 V 4.49 H -7.564 V 4.146 h 0.441 l 0.222,-0.847 -4.767,5.189 c 0.077,0.247 0.156,0.502 0.235,0.755 h 6.515 z m -4.692,0.409 c 0,-2.044 -1.656,-3.701 -3.7,-3.701 -2.044,0 -3.701,1.657 -3.701,3.701 0,2.044 1.657,3.7 3.701,3.7 0.726,0 1.404,-0.209 1.976,-0.571 -0.455,-0.986 -1.341,-2.048 -1.98,-2.646 -0.265,-0.002 -0.479,-0.218 -0.479,-0.483 0,-0.267 0.216,-0.483 0.483,-0.483 0.246,0 0.45,0.185 0.479,0.423 0.313,0.293 0.72,0.723 1.124,1.24 0.3,0.383 0.674,0.914 0.959,1.49 0.701,-0.674 1.138,-1.621 1.138,-2.67 M 0,8.262 c -0.899,0 -1.737,-0.26 -2.443,-0.709 l -1.599,2.125 0.21,0.75 c 1.002,0.087 1.556,0.468 1.522,0.836 -0.033,0.358 -1.027,0.09 -2.133,0.076 -0.303,-0.004 -1.912,0.003 -1.903,-0.292 0.01,-0.303 1.038,-0.549 1.759,-0.618 L -4.715,9.97 h -6.495 c 0.139,0.452 0.265,0.868 0.363,1.192 0.084,0.276 0.146,0.484 0.177,0.586 l -0.472,0.362 0.223,0.226 h 1.739 v 0.573 h -1.979 l -0.849,-0.859 0.544,-0.417 c -0.252,-0.835 -0.847,-2.797 -1.233,-3.979 -0.67,0.387 -1.448,0.608 -2.277,0.608 -2.519,0 -4.561,-2.042 -4.561,-4.561 0,-2.519 2.042,-4.562 4.561,-4.562 2.519,0 4.561,2.043 4.561,4.562 0,1.417 -0.647,2.684 -1.661,3.52 0.047,0.143 0.098,0.3 0.152,0.468 L -7.014,2.347 C -7.015,2.333 -7.015,2.319 -7.015,2.305 c 0,-0.289 0.229,-0.525 0.516,-0.534 L -6.155,0.464 H -6.506 V 0.12 h 1.108 v 0.344 h -0.441 l -0.364,1.385 c 0.074,0.045 0.137,0.108 0.181,0.183 l 1.653,0.356 C -3.805,0.509 -2.063,-0.861 0,-0.861 c 2.519,0 4.561,2.043 4.561,4.562 C 4.561,6.22 2.519,8.262 0,8.262"
         style="fill:#000000;fill-opacity:1;fill-rule:nonzero;stroke:none"
         transform="matrix(1.3333333,0,0,-1.3333333,547.90413,930.6984)" />
    </g>
    <g
       id="g626"
       transform="matrix(0.26458333,0,0,0.26458333,-37.864487,-100.39949)">
      <path
         id="path627"
         d="m 0,0 h 0.768 c 0.432,0 0.713,0.301 0.713,0.77 0,0.518 -0.31,0.902 -0.712,0.902 L 0,1.672 Z M 0,3.852 V 2.424 h 0.806 c 0.357,0 0.582,0.3 0.582,0.789 0,0.46 -0.166,0.639 -0.581,0.639 z M -0.768,-0.752 V 4.603 H 0.919 C 1.63,4.603 2.138,4.04 2.138,3.213 2.138,2.722 2.007,2.499 1.576,2.048 1.988,1.71 2.232,1.258 2.232,0.714 c 0,-0.802 -0.638,-1.466 -1.425,-1.466 z"
         style="fill:#000000;fill-opacity:1;fill-rule:nonzero;stroke:none"
         transform="matrix(1.3333333,0,0,-1.3333333,519.15693,966.54333)" />
      <path
         id="path628"
         d="m 392.51,71.696 h 0.75 v -5.355 h -0.75 z"
         style="fill:#000000;fill-opacity:1;fill-rule:nonzero;stroke:none"
         transform="matrix(1.3333333,0,0,-1.3333333,0,1056)" />
      <path
         id="path629"
         d="m 0,0 -0.488,-0.901 v -1.711 h -0.768 v 5.355 h 0.768 V 0.601 L 0.731,2.743 H 1.613 L 0.506,0.864 1.744,-2.612 H 0.938 Z"
         style="fill:#000000;fill-opacity:1;fill-rule:nonzero;stroke:none"
         transform="matrix(1.3333333,0,0,-1.3333333,527.59187,964.06307)" />
      <path
         id="path630"
         d="M 0,0 H 2.525 V -0.752 H 0.772 V -2.104 H 1.884 V -2.837 H 0.772 v -1.767 h 1.96 V -5.355 H 0 Z"
         style="fill:#000000;fill-opacity:1;fill-rule:nonzero;stroke:none"
         transform="matrix(1.3333333,0,0,-1.3333333,531.13067,960.40573)" />
      <path
         id="path631"
         d="m 0,0 h 0.772 v -4.641 h 1.96 V -5.355 H 0 Z"
         style="fill:#000000;fill-opacity:1;fill-rule:nonzero;stroke:none"
         transform="matrix(1.3333333,0,0,-1.3333333,538.85347,960.40573)" />
      <path
         id="path632"
         d="M 0,0 H 0.772 L 0.377,1.541 Z M 0.961,-0.752 H -0.188 L -0.546,-2.217 H -1.319 L 0.019,3.138 H 0.773 L 2.11,-2.217 H 1.337 Z"
         style="fill:#000000;fill-opacity:1;fill-rule:nonzero;stroke:none"
         transform="matrix(1.3333333,0,0,-1.3333333,544.68333,964.58973)" />
      <path
         id="path633"
         d="M 0,0 V -3.588 H -0.768 V 1.766 H 0 L 1.463,-1.447 V 1.766 H 2.232 V -3.588 H 1.651 Z"
         style="fill:#000000;fill-opacity:1;fill-rule:nonzero;stroke:none"
         transform="matrix(1.3333333,0,0,-1.3333333,549.52067,962.76107)" />
      <path
         id="path634"
         d="M 0,0 H 2.525 V -0.752 H 0.772 V -2.104 H 1.884 V -2.837 H 0.772 v -1.767 h 1.96 V -5.355 H 0 Z"
         style="fill:#000000;fill-opacity:1;fill-rule:nonzero;stroke:none"
         transform="matrix(1.3333333,0,0,-1.3333333,554.06733,960.40573)" />
    </g>
    <g
       id="g634"
       transform="matrix(0.26458333,0,0,0.26458333,-37.864487,-100.39949)">
      <path
         id="path635"
         d="M 0,0 H 1.557 V -0.864 H 0 v -2.33 H -0.845 V 2.161 H 2.476 V 1.315 H 0 Z"
         style="fill:#000000;fill-opacity:1;fill-rule:nonzero;stroke:none"
         transform="matrix(1.3333333,0,0,-1.3333333,527.2244,952.06667)" />
      <path
         id="path636"
         d="m 0,0 c 0.672,0 0.778,0.485 0.778,0.657 0,0.234 -0.175,0.658 -0.737,0.658 H -1.064 V 0 Z m -1.064,-0.863 v -2.331 h -0.844 v 5.355 h 1.937 c 1.227,0 1.595,-0.982 1.595,-1.504 0,-0.199 -0.073,-0.982 -0.831,-1.341 l 0.944,-2.51 H 0.816 l -0.864,2.331 z"
         style="fill:#000000;fill-opacity:1;fill-rule:nonzero;stroke:none"
         transform="matrix(1.3333333,0,0,-1.3333333,534.14173,952.06667)" />
      <path
         id="path637"
         d="M 0,0 C 0.577,0 1.045,0.547 1.045,1.908 1.045,3.269 0.577,3.815 0,3.815 -0.577,3.815 -1.045,3.269 -1.045,1.908 -1.045,0.547 -0.577,0 0,0 m 1.893,1.908 c 0,-0.192 0.041,-2.771 -1.902,-2.771 -1.943,0 -1.903,2.579 -1.903,2.771 0,0.192 -0.04,2.77 1.903,2.77 1.943,0 1.902,-2.578 1.902,-2.77"
         style="fill:#000000;fill-opacity:1;fill-rule:nonzero;stroke:none"
         transform="matrix(1.3333333,0,0,-1.3333333,540.0776,955.29933)" />
      <path
         id="path638"
         d="M 0,0 -1.242,-3.101 -2.484,0 v -3.101 h -0.848 v 5.355 h 0.848 L -1.242,-0.752 0,2.254 H 0.847 V -3.101 H 0 Z"
         style="fill:#000000;fill-opacity:1;fill-rule:nonzero;stroke:none"
         transform="matrix(1.3333333,0,0,-1.3333333,548.6148,952.19173)" />
    </g>
    <g
       id="g638"
       transform="matrix(0.26458333,0,0,0.26458333,-37.864487,-100.39949)">
      <path
         id="path639"
         d="m 0,0 h -0.772 v 4.641 h -0.98 V 5.355 H 0.98 V 4.641 H 0 Z"
         style="fill:#000000;fill-opacity:1;fill-rule:nonzero;stroke:none"
         transform="matrix(1.3333333,0,0,-1.3333333,540.79427,945.10587)" />
      <path
         id="path640"
         d="m 0,0 v 3.799 h 0.768 v -3.852 c 0,-0.504 0.295,-0.846 0.75,-0.846 0.412,0 0.713,0.338 0.713,0.846 V 3.799 H 3 v -3.81 C 3,-1.23 2.059,-1.65 1.518,-1.65 1.023,-1.65 0,-1.328 0,0"
         style="fill:#000000;fill-opacity:1;fill-rule:nonzero;stroke:none"
         transform="matrix(1.3333333,0,0,-1.3333333,542.90067,943.0308)" />
      <path
         id="path641"
         d="m 0,0 v -1.353 h 0.787 c 0.451,0 0.694,0.245 0.694,0.677 C 1.481,-0.262 1.2,0 0.788,0 Z M 0.732,-2.086 H 0 v -2.517 h -0.768 v 5.355 h 1.593 c 0.84,0 1.407,-0.564 1.407,-1.428 0,-0.639 -0.263,-1.109 -0.769,-1.297 l 0.768,-2.63 H 1.444 Z"
         style="fill:#000000;fill-opacity:1;fill-rule:nonzero;stroke:none"
         transform="matrix(1.3333333,0,0,-1.3333333,549.18227,938.96813)" />
      <path
         id="path642"
         d="M 0,0 V -3.588 H -0.768 V 1.766 H 0 L 1.463,-1.447 V 1.766 H 2.232 V -3.588 H 1.651 Z"
         style="fill:#000000;fill-opacity:1;fill-rule:nonzero;stroke:none"
         transform="matrix(1.3333333,0,0,-1.3333333,554.1536,940.3212)" />
    </g>
    <g
       id="g642"
       transform="matrix(0.26458333,0,0,0.26458333,-37.864487,-100.39949)">
      <path
         id="path643"
         d="M 0,0 V 5.355 H 2.525 V 4.603 H 0.773 V 3.251 H 1.884 V 2.518 H 0.773 V 0.752 H 2.732 V 0 Z"
         style="fill:#000000;fill-opacity:1;fill-rule:nonzero;stroke:none"
         transform="matrix(1.3333333,0,0,-1.3333333,523.15653,945.10587)" />
      <path
         id="path644"
         d="M 0,0 V -1.353 H 1.074 V -2.086 H 0 V -4.603 H -0.773 V 0.752 H 1.96 V 0 Z"
         style="fill:#000000;fill-opacity:1;fill-rule:nonzero;stroke:none"
         transform="matrix(1.3333333,0,0,-1.3333333,528.80053,938.968)" />
    </g>
    <g
       id="g644"
       transform="matrix(0.26458333,0,0,0.26458333,-37.864487,-100.39949)">
      <path
         id="path645"
         d="M 0,0 V 5.355 H 0.773 V 0.714 H 2.732 V 0 Z"
         style="fill:#000000;fill-opacity:1;fill-rule:nonzero;stroke:none"
         transform="matrix(1.3333333,0,0,-1.3333333,518.71387,945.10587)" />
    </g>
    <g
       id="g645"
       transform="matrix(0.26458333,0,0,0.26458333,-37.864487,-100.39949)">
      <path
         id="path646"
         d="M 0,0 V -4.641 H -0.773 V 0 H -1.752 V 0.714 H 0.98 V 0 Z"
         style="fill:#000000;fill-opacity:1;fill-rule:nonzero;stroke:none"
         transform="matrix(1.3333333,0,0,-1.3333333,534.09293,938.91787)" />
    </g>
  </g>
</svg>
