<?xml version="1.0" encoding="UTF-8" standalone="no"?>
<svg
   xmlns:dc="http://purl.org/dc/elements/1.1/"
   xmlns:cc="http://creativecommons.org/ns#"
   xmlns:rdf="http://www.w3.org/1999/02/22-rdf-syntax-ns#"
   xmlns:svg="http://www.w3.org/2000/svg"
   xmlns="http://www.w3.org/2000/svg"
   xmlns:sodipodi="http://sodipodi.sourceforge.net/DTD/sodipodi-0.dtd"
   xmlns:inkscape="http://www.inkscape.org/namespaces/inkscape"
   sodipodi:docname="R8-3hPR.svg"
   inkscape:version="1.0rc1 (09960d6f05, 2020-04-09)"
   id="svg1559"
   version="1.1"
   viewBox="0 0 25.575684 19.226389"
   height="19.226389mm"
   width="25.575684mm">
  <defs
     id="defs1553">
    <clipPath
       clipPathUnits="userSpaceOnUse"
       id="clipPath1110">
      <path
         d="M 26.875,413.909 H 539.75 V 737.85 H 26.875 Z"
         id="path1108"
         inkscape:connector-curvature="0" />
    </clipPath>
    <clipPath
       clipPathUnits="userSpaceOnUse"
       id="clipPath1122">
      <path
         d="M 41.035,413.909 H 525.59 V 737.85 H 41.035 Z"
         id="path1120"
         inkscape:connector-curvature="0" />
    </clipPath>
  </defs>
  <sodipodi:namedview
     inkscape:window-maximized="1"
     inkscape:window-y="0"
     inkscape:window-x="0"
     inkscape:window-height="836"
     inkscape:window-width="1600"
     showgrid="false"
     inkscape:document-rotation="0"
     inkscape:current-layer="layer1"
     inkscape:document-units="mm"
     inkscape:cy="36.333333"
     inkscape:cx="48.332"
     inkscape:zoom="5.6"
     inkscape:pageshadow="2"
     inkscape:pageopacity="0.0"
     borderopacity="1.0"
     bordercolor="#666666"
     pagecolor="#ffffff"
     id="base" />
  <metadata
     id="metadata1556">
    <rdf:RDF>
      <cc:Work
         rdf:about="">
        <dc:format>image/svg+xml</dc:format>
        <dc:type
           rdf:resource="http://purl.org/dc/dcmitype/StillImage" />
        <dc:title></dc:title>
      </cc:Work>
    </rdf:RDF>
  </metadata>
  <g
     transform="translate(82.33546,-190.71419)"
     id="layer1"
     inkscape:groupmode="layer"
     inkscape:label="Layer 1">
    <g
       transform="matrix(0.35277777,0,0,-0.35277777,-96.867964,360.84497)"
       id="g1104">
      <g
         id="g1106"
         clip-path="url(#clipPath1110)">
        <g
           id="g1112"
           transform="translate(41.4445,432.5105)">
          <path
             d="m 0,0 v 45 c 0,2.478 2.021,4.5 4.5,4.5 h 62.998 c 2.479,0 4.5,-2.022 4.5,-4.5 V 0 c 0,-2.479 -2.021,-4.5 -4.5,-4.5 H 4.5 C 2.053,-4.5 0,-2.448 0,0"
             style="fill:#ffffff;fill-opacity:1;fill-rule:nonzero;stroke:none"
             id="path1114"
             inkscape:connector-curvature="0" />
        </g>
      </g>
    </g>
    <g
       transform="matrix(0.35277777,0,0,-0.35277777,-96.867964,360.84497)"
       id="g1116">
      <g
         id="g1118"
         clip-path="url(#clipPath1122)">
        <g
           id="g1124"
           transform="translate(41.4445,432.5105)">
          <path
             d="m 0,0 v 45 c 0,2.478 2.021,4.5 4.5,4.5 h 62.998 c 2.479,0 4.5,-2.022 4.5,-4.5 V 0 c 0,-2.479 -2.021,-4.5 -4.5,-4.5 H 4.5 C 2.053,-4.5 0,-2.448 0,0"
             style="fill:none;stroke:#231f20;stroke-width:0.5;stroke-linecap:butt;stroke-linejoin:miter;stroke-miterlimit:4;stroke-dasharray:none;stroke-opacity:1"
             id="path1126"
             inkscape:connector-curvature="0" />
        </g>
      </g>
    </g>
    <g
       id="g1136"
       transform="matrix(0.35277777,0,0,-0.35277777,-81.850391,208.2603)">
      <path
         d="m 0,0 v 44.973 c 0.004,1.853 1.537,3.381 3.389,3.389 h 62.97 c 1.856,-0.008 3.383,-1.536 3.389,-3.389 L 69.748,0 C 69.742,-1.851 68.215,-3.384 66.359,-3.388 H 3.389 C 1.537,-3.386 0.002,-1.851 0,0"
         style="fill:#bf2519;fill-opacity:1;fill-rule:evenodd;stroke:none"
         id="path1138"
         inkscape:connector-curvature="0" />
    </g>
    <g
       id="g1140"
       transform="matrix(0.35277777,0,0,-0.35277777,-81.188932,208.25183)">
      <path
         d="m 0,0 v 44.924 c -0.012,0.845 0.691,1.552 1.537,1.539 h 62.924 c 0.844,0.013 1.553,-0.694 1.537,-1.539 V 0 c 0.016,-0.846 -0.693,-1.549 -1.537,-1.537 H 1.537 C 0.691,-1.549 -0.012,-0.846 0,0"
         style="fill:#ffffff;fill-opacity:1;fill-rule:evenodd;stroke:none"
         id="path1142"
         inkscape:connector-curvature="0" />
    </g>
    <g
       id="g1144"
       transform="matrix(-0.35277777,0,0,-0.35277777,-65.446895,203.54049)">
      <path
         d="M 0,0 -8.566,-5.793 0,-11.597 c 0.379,-0.256 0.895,-0.159 1.152,0.22 0.172,0.252 0.141,0.512 0.061,0.823 l -0.754,2.515 h 31.355 v 4.488 H 0.459 l 0.736,2.473 C 1.291,-0.736 1.332,-0.482 1.152,-0.219 0.895,0.158 0.379,0.258 0,0"
         style="fill:#bf2519;fill-opacity:1;fill-rule:evenodd;stroke:none"
         id="path1146"
         inkscape:connector-curvature="0" />
    </g>
    <g
       id="g1152"
       transform="matrix(0.35277777,0,0,-0.35277777,-76.202313,195.53137)">
      <path
         d="m 0,0 c -0.815,0 -1.359,-0.693 -1.359,-1.584 0,-1.056 0.544,-1.815 1.359,-1.815 0.816,0 1.36,0.693 1.36,1.683 C 1.36,-0.726 0.816,0 0,0 m 0,-4.719 c -1.768,0 -2.685,1.254 -2.685,3.399 0,2.277 1.224,4.653 3.331,6.237 L 1.428,3.861 C 0.612,3.267 -0.272,2.145 -0.612,1.254 -0.374,1.287 -0.17,1.287 0,1.287 1.665,1.287 2.719,0.066 2.719,-1.716 2.719,-3.498 1.665,-4.719 0,-4.719"
         style="fill:#bf2519;fill-opacity:1;fill-rule:nonzero;stroke:none"
         id="path1154"
         inkscape:connector-curvature="0" />
    </g>
    <g
       id="g1156"
       transform="matrix(0.35277777,0,0,-0.35277777,-72.233387,194.6466)">
      <path
         d="m 0,0 c -0.238,0.825 -0.612,1.188 -1.19,1.188 -0.612,0 -0.985,-0.363 -1.224,-1.155 -0.237,-0.726 -0.305,-1.353 -0.305,-2.409 0,-1.023 0.102,-1.617 0.305,-2.376 0.239,-0.792 0.612,-1.155 1.224,-1.155 0.578,0 0.952,0.363 1.19,1.155 0.238,0.759 0.306,1.32 0.306,2.409 C 0.306,-1.287 0.204,-0.693 0,0 m 1.087,-5.61 c -0.475,-1.122 -1.189,-1.617 -2.277,-1.617 -1.156,0 -1.835,0.495 -2.311,1.617 -0.408,0.924 -0.544,1.815 -0.544,3.267 0,1.419 0.136,2.376 0.544,3.267 0.51,1.122 1.19,1.584 2.311,1.584 1.122,0 1.802,-0.462 2.277,-1.617 0.409,-0.924 0.544,-1.815 0.544,-3.234 0,-1.452 -0.135,-2.376 -0.544,-3.267"
         style="fill:#bf2519;fill-opacity:1;fill-rule:nonzero;stroke:none"
         id="path1158"
         inkscape:connector-curvature="0" />
    </g>
    <g
       id="g1160"
       transform="matrix(0.35277777,0,0,-0.35277777,-69.60738,194.6466)">
      <path
         d="m 0,0 c -0.238,0.825 -0.612,1.188 -1.19,1.188 -0.612,0 -0.986,-0.363 -1.223,-1.155 -0.238,-0.726 -0.306,-1.353 -0.306,-2.409 0,-1.023 0.102,-1.617 0.306,-2.376 0.237,-0.792 0.611,-1.155 1.223,-1.155 0.578,0 0.952,0.363 1.19,1.155 0.238,0.759 0.306,1.32 0.306,2.409 C 0.306,-1.287 0.204,-0.693 0,0 m 1.087,-5.61 c -0.475,-1.122 -1.189,-1.617 -2.277,-1.617 -1.156,0 -1.835,0.495 -2.311,1.617 -0.408,0.924 -0.544,1.815 -0.544,3.267 0,1.419 0.136,2.376 0.544,3.267 0.51,1.122 1.189,1.584 2.311,1.584 1.122,0 1.802,-0.462 2.277,-1.617 0.409,-0.924 0.544,-1.815 0.544,-3.234 0,-1.452 -0.135,-2.376 -0.544,-3.267"
         style="fill:#bf2519;fill-opacity:1;fill-rule:nonzero;stroke:none"
         id="path1162"
         inkscape:connector-curvature="0" />
    </g>
    <g
       id="g1164"
       transform="matrix(0.35277777,0,0,-0.35277777,-65.830505,194.80959)">
      <path
         d="m 0,0 -0.68,-2.706 h 1.394 z m 1.734,-6.6 -0.68,2.574 H -1.02 L -1.665,-6.6 h -1.394 l 2.413,9.405 h 1.36 L 3.127,-6.6 Z"
         style="fill:#bf2519;fill-opacity:1;fill-rule:nonzero;stroke:none"
         id="path1166"
         inkscape:connector-curvature="0" />
    </g>
    <g
       id="g1168"
       transform="matrix(0.35277777,0,0,-0.35277777,-62.497038,197.13792)">
      <path
         d="M 0,0 V 5.28 L -1.802,0 -3.603,5.28 V 0 h -1.394 v 9.405 h 1.394 L -1.802,4.125 0,9.405 H 1.394 V 0 Z"
         style="fill:#bf2519;fill-opacity:1;fill-rule:nonzero;stroke:none"
         id="path1170"
         inkscape:connector-curvature="0" />
    </g>
    <g
       id="g1172"
       transform="matrix(0.35277777,0,0,-0.35277777,-79.373856,199.20132)">
      <path
         d="M 0,0 V -8.151 H -1.394 V 0 H -3.161 V 1.254 H 1.768 V 0 Z"
         style="fill:#bf2519;fill-opacity:1;fill-rule:nonzero;stroke:none"
         id="path1174"
         inkscape:connector-curvature="0" />
    </g>
    <g
       id="g1176"
       transform="matrix(0.35277777,0,0,-0.35277777,-76.915806,199.58549)">
      <path
         d="m 0,0 c -0.238,0.825 -0.612,1.188 -1.19,1.188 -0.612,0 -0.986,-0.363 -1.223,-1.155 -0.238,-0.726 -0.306,-1.353 -0.306,-2.409 0,-1.023 0.102,-1.617 0.306,-2.376 0.237,-0.792 0.611,-1.155 1.223,-1.155 0.578,0 0.952,0.363 1.19,1.155 0.238,0.759 0.306,1.32 0.306,2.409 C 0.306,-1.287 0.204,-0.693 0,0 m 1.087,-5.61 c -0.475,-1.122 -1.189,-1.617 -2.277,-1.617 -1.156,0 -1.835,0.495 -2.311,1.617 -0.408,0.924 -0.544,1.815 -0.544,3.267 0,1.419 0.136,2.376 0.544,3.267 0.51,1.122 1.19,1.584 2.311,1.584 1.122,0 1.802,-0.462 2.277,-1.617 0.409,-0.924 0.544,-1.815 0.544,-3.234 0,-1.452 -0.135,-2.376 -0.544,-3.267"
         style="fill:#bf2519;fill-opacity:1;fill-rule:nonzero;stroke:none"
         id="path1178"
         inkscape:connector-curvature="0" />
    </g>
    <g
       id="g1180"
       transform="matrix(0.35277777,0,0,-0.35277777,-73.06693,200.47026)">
      <path
         d="m 0,0 c -0.815,0 -1.359,-0.693 -1.359,-1.584 0,-1.056 0.544,-1.815 1.359,-1.815 0.816,0 1.36,0.693 1.36,1.683 C 1.36,-0.726 0.816,0 0,0 m 0,-4.719 c -1.768,0 -2.685,1.254 -2.685,3.399 0,2.277 1.224,4.653 3.331,6.237 L 1.428,3.861 C 0.612,3.267 -0.272,2.145 -0.612,1.254 -0.374,1.287 -0.17,1.287 0,1.287 1.665,1.287 2.719,0.066 2.719,-1.716 2.719,-3.498 1.665,-4.719 0,-4.719"
         style="fill:#bf2519;fill-opacity:1;fill-rule:nonzero;stroke:none"
         id="path1182"
         inkscape:connector-curvature="0" />
    </g>
    <g
       id="g1184"
       transform="matrix(0.35277777,0,0,-0.35277777,-69.098004,199.58549)">
      <path
         d="m 0,0 c -0.238,0.825 -0.612,1.188 -1.19,1.188 -0.612,0 -0.985,-0.363 -1.224,-1.155 -0.237,-0.726 -0.305,-1.353 -0.305,-2.409 0,-1.023 0.102,-1.617 0.305,-2.376 0.239,-0.792 0.612,-1.155 1.224,-1.155 0.578,0 0.952,0.363 1.19,1.155 0.238,0.759 0.306,1.32 0.306,2.409 C 0.306,-1.287 0.204,-0.693 0,0 m 1.087,-5.61 c -0.475,-1.122 -1.189,-1.617 -2.277,-1.617 -1.156,0 -1.835,0.495 -2.311,1.617 -0.408,0.924 -0.544,1.815 -0.544,3.267 0,1.419 0.136,2.376 0.544,3.267 0.51,1.122 1.19,1.584 2.311,1.584 1.122,0 1.802,-0.462 2.277,-1.617 0.409,-0.924 0.544,-1.815 0.544,-3.234 0,-1.452 -0.135,-2.376 -0.544,-3.267"
         style="fill:#bf2519;fill-opacity:1;fill-rule:nonzero;stroke:none"
         id="path1186"
         inkscape:connector-curvature="0" />
    </g>
    <g
       id="g1188"
       transform="matrix(0.35277777,0,0,-0.35277777,-66.471996,199.58549)">
      <path
         d="m 0,0 c -0.238,0.825 -0.612,1.188 -1.19,1.188 -0.612,0 -0.986,-0.363 -1.223,-1.155 -0.238,-0.726 -0.306,-1.353 -0.306,-2.409 0,-1.023 0.102,-1.617 0.306,-2.376 0.237,-0.792 0.611,-1.155 1.223,-1.155 0.578,0 0.952,0.363 1.19,1.155 0.238,0.759 0.306,1.32 0.306,2.409 C 0.306,-1.287 0.204,-0.693 0,0 m 1.087,-5.61 c -0.475,-1.122 -1.189,-1.617 -2.277,-1.617 -1.156,0 -1.835,0.495 -2.311,1.617 -0.408,0.924 -0.544,1.815 -0.544,3.267 0,1.419 0.136,2.376 0.544,3.267 0.51,1.122 1.19,1.584 2.311,1.584 1.122,0 1.802,-0.462 2.277,-1.617 0.409,-0.924 0.544,-1.815 0.544,-3.234 0,-1.452 -0.135,-2.376 -0.544,-3.267"
         style="fill:#bf2519;fill-opacity:1;fill-rule:nonzero;stroke:none"
         id="path1190"
         inkscape:connector-curvature="0" />
    </g>
    <g
       id="g1192"
       transform="matrix(0.35277777,0,0,-0.35277777,-62.515099,199.2246)">
      <path
         d="M 0,0 H -1.428 V -2.673 H 0 c 0.815,0 1.257,0.495 1.257,1.353 C 1.257,-0.528 0.747,0 0,0 M 0.068,-3.96 H -1.428 V -8.085 H -2.821 V 1.32 h 2.889 c 1.529,0 2.549,-1.056 2.549,-2.64 0,-1.716 -0.918,-2.64 -2.549,-2.64"
         style="fill:#bf2519;fill-opacity:1;fill-rule:nonzero;stroke:none"
         id="path1194"
         inkscape:connector-curvature="0" />
    </g>
    <g
       id="g1196"
       transform="matrix(0.35277777,0,0,-0.35277777,-59.361655,202.07681)">
      <path
         d="M 0,0 V 5.28 L -1.802,0 -3.603,5.28 V 0 h -1.394 v 9.405 h 1.394 L -1.802,4.125 0,9.405 H 1.394 V 0 Z"
         style="fill:#bf2519;fill-opacity:1;fill-rule:nonzero;stroke:none"
         id="path1198"
         inkscape:connector-curvature="0" />
    </g>
    <g
       id="g1200"
       transform="matrix(0.35277777,0,0,-0.35277777,-74.207249,194.82687)">
      <path
         d="m 0,0 c 0,0.395 -0.297,0.692 -0.693,0.692 -0.362,0 -0.693,-0.297 -0.693,-0.692 0,-0.396 0.331,-0.693 0.693,-0.693 C -0.297,-0.693 0,-0.396 0,0"
         style="fill:#bf2519;fill-opacity:1;fill-rule:evenodd;stroke:none"
         id="path1202"
         inkscape:connector-curvature="0" />
    </g>
    <g
       id="g1204"
       transform="matrix(0.35277777,0,0,-0.35277777,-74.207249,196.15261)">
      <path
         d="m 0,0 c 0,0.396 -0.297,0.693 -0.693,0.693 -0.362,0 -0.693,-0.297 -0.693,-0.693 0,-0.363 0.331,-0.698 0.693,-0.698 C -0.297,-0.698 0,-0.363 0,0"
         style="fill:#bf2519;fill-opacity:1;fill-rule:evenodd;stroke:none"
         id="path1206"
         inkscape:connector-curvature="0" />
    </g>
    <g
       id="g1208"
       transform="matrix(0.35277777,0,0,-0.35277777,-71.071866,199.76576)">
      <path
         d="m 0,0 c 0,0.395 -0.297,0.692 -0.693,0.692 -0.362,0 -0.693,-0.297 -0.693,-0.692 0,-0.396 0.331,-0.693 0.693,-0.693 C -0.297,-0.693 0,-0.396 0,0"
         style="fill:#bf2519;fill-opacity:1;fill-rule:evenodd;stroke:none"
         id="path1210"
         inkscape:connector-curvature="0" />
    </g>
    <g
       id="g1212"
       transform="matrix(0.35277777,0,0,-0.35277777,-71.071866,201.0915)">
      <path
         d="m 0,0 c 0,0.396 -0.297,0.693 -0.693,0.693 -0.362,0 -0.693,-0.297 -0.693,-0.693 0,-0.363 0.331,-0.698 0.693,-0.698 C -0.297,-0.698 0,-0.363 0,0"
         style="fill:#bf2519;fill-opacity:1;fill-rule:evenodd;stroke:none"
         id="path1214"
         inkscape:connector-curvature="0" />
    </g>
  </g>
</svg>
