<?xml version="1.0" encoding="UTF-8" standalone="no"?>
<svg
   xmlns:dc="http://purl.org/dc/elements/1.1/"
   xmlns:cc="http://creativecommons.org/ns#"
   xmlns:rdf="http://www.w3.org/1999/02/22-rdf-syntax-ns#"
   xmlns:svg="http://www.w3.org/2000/svg"
   xmlns="http://www.w3.org/2000/svg"
   xmlns:sodipodi="http://sodipodi.sourceforge.net/DTD/sodipodi-0.dtd"
   xmlns:inkscape="http://www.inkscape.org/namespaces/inkscape"
   sodipodi:docname="R10-17aL.svg"
   inkscape:version="1.0rc1 (09960d6f05, 2020-04-09)"
   id="svg5621"
   version="1.1"
   viewBox="0 0 30.663092 36.765442"
   height="36.765442mm"
   width="30.663092mm">
  <defs
     id="defs5615">
    <clipPath
       clipPathUnits="userSpaceOnUse"
       id="clipPath3730">
      <path
         d="M 27,65.641 H 540.335 V 738 H 27 Z"
         id="path3728"
         inkscape:connector-curvature="0" />
    </clipPath>
  </defs>
  <sodipodi:namedview
     inkscape:window-maximized="1"
     inkscape:window-y="0"
     inkscape:window-x="0"
     inkscape:window-height="836"
     inkscape:window-width="1600"
     showgrid="false"
     inkscape:document-rotation="0"
     inkscape:current-layer="layer1"
     inkscape:document-units="mm"
     inkscape:cy="69.478"
     inkscape:cx="57.946"
     inkscape:zoom="3.959798"
     inkscape:pageshadow="2"
     inkscape:pageopacity="0.0"
     borderopacity="1.0"
     bordercolor="#666666"
     pagecolor="#ffffff"
     id="base" />
  <metadata
     id="metadata5618">
    <rdf:RDF>
      <cc:Work
         rdf:about="">
        <dc:format>image/svg+xml</dc:format>
        <dc:type
           rdf:resource="http://purl.org/dc/dcmitype/StillImage" />
        <dc:title></dc:title>
      </cc:Work>
    </rdf:RDF>
  </metadata>
  <g
     transform="translate(-101.84107,-73.087516)"
     id="layer1"
     inkscape:groupmode="layer"
     inkscape:label="Layer 1">
    <g
       transform="matrix(0.35277777,0,0,-0.35277777,8.8856481,183.38652)"
       id="g3724">
      <g
         id="g3726"
         clip-path="url(#clipPath3730)">
        <g
           id="g3732"
           transform="translate(263.7457,213.0006)">
          <path
             d="m 0,0 v 95.098 c 0,2.371 1.939,4.31 4.309,4.31 h 77.799 c 2.372,0 4.311,-1.939 4.311,-4.31 L 86.419,0 c 0,-2.37 -1.939,-4.309 -4.311,-4.309 H 4.309 C 1.939,-4.309 0,-2.37 0,0"
             style="fill:#ffffff;fill-opacity:1;fill-rule:nonzero;stroke:none"
             id="path3734"
             inkscape:connector-curvature="0" />
        </g>
        <g
           id="g3736"
           transform="translate(263.7457,213.0006)">
          <path
             d="m 0,0 v 95.098 c 0,2.371 1.939,4.31 4.309,4.31 h 77.799 c 2.372,0 4.311,-1.939 4.311,-4.31 L 86.419,0 c 0,-2.37 -1.939,-4.309 -4.311,-4.309 H 4.309 C 1.939,-4.309 0,-2.37 0,0 Z"
             style="fill:none;stroke:#231f20;stroke-width:0.5;stroke-linecap:butt;stroke-linejoin:miter;stroke-miterlimit:4;stroke-dasharray:none;stroke-opacity:1"
             id="path3738"
             inkscape:connector-curvature="0" />
        </g>
        <g
           id="g3740"
           transform="translate(264.9457,213.0006)">
          <path
             d="m 0,0 v 95.098 c 0,1.711 1.399,3.109 3.109,3.109 h 77.799 c 1.711,0 3.11,-1.398 3.11,-3.109 V 0 c 0,-1.71 -1.399,-3.109 -3.11,-3.109 H 3.109 C 1.399,-3.109 0,-1.71 0,0"
             style="fill:#231f20;fill-opacity:1;fill-rule:evenodd;stroke:none"
             id="path3742"
             inkscape:connector-curvature="0" />
        </g>
        <g
           id="g3744"
           transform="translate(266.6257,213.0006)">
          <path
             d="m 0,0 v 95.098 c 0,0.786 0.644,1.429 1.429,1.429 h 77.799 c 0.787,0 1.43,-0.643 1.43,-1.429 L 80.658,0 c 0,-0.785 -0.643,-1.429 -1.43,-1.429 H 1.429 C 0.644,-1.429 0,-0.785 0,0"
             style="fill:#ffffff;fill-opacity:1;fill-rule:evenodd;stroke:none"
             id="path3746"
             inkscape:connector-curvature="0" />
        </g>
        <g
           id="g3748"
           transform="translate(291.1767,300.8246)" />
        <g
           id="g3766"
           transform="translate(285.4108,282.0006)">
          <path
             d="M 0,0 C -0.368,0.614 -0.82,0.86 -1.517,0.901 -2.42,0.943 -2.995,0.49 -3.406,-0.535 c -0.287,-0.697 -0.45,-1.765 -0.45,-2.75 0,-1.23 0.245,-2.502 0.697,-3.242 0.37,-0.616 0.861,-0.903 1.6,-0.903 0.863,0 1.395,0.453 1.806,1.479 0.245,0.615 0.45,1.764 0.45,2.666 C 0.697,-1.97 0.451,-0.781 0,0 m 1.274,-8.003 c -0.658,-0.904 -1.6,-1.315 -2.833,-1.315 -1.641,0 -2.667,0.658 -3.364,2.093 -0.494,0.987 -0.822,2.545 -0.822,3.94 0,1.93 0.493,3.654 1.273,4.76 0.698,0.904 1.642,1.315 2.996,1.315 1.476,0 2.503,-0.656 3.24,-2.093 0.494,-1.027 0.781,-2.504 0.781,-3.982 0,-1.847 -0.451,-3.692 -1.271,-4.718"
             style="fill:#231f20;fill-opacity:1;fill-rule:nonzero;stroke:none"
             id="path3768"
             inkscape:connector-curvature="0" />
        </g>
        <g
           id="g3770"
           transform="translate(296.8597,272.8896)">
          <path
             d="M 0,0 -4.474,7.92 V 0 h -1.844 v 11.695 h 1.844 l 4.269,-7.469 v 7.469 H 1.642 V 0 Z"
             style="fill:#231f20;fill-opacity:1;fill-rule:nonzero;stroke:none"
             id="path3772"
             inkscape:connector-curvature="0" />
        </g>
        <g
           id="g3774"
           transform="translate(312.2487,282.5336)">
          <path
             d="m 0,0 c -0.287,0.164 -0.452,0.205 -1.067,0.205 h -2.217 v -2.873 h 2.217 c 0.574,0 0.78,0.041 1.067,0.204 0.451,0.247 0.738,0.74 0.738,1.233 C 0.738,-0.74 0.451,-0.247 0,0 m 0.821,-9.644 -1.888,5.088 H -3.284 V -9.644 H -5.129 V 2.051 h 3.858 c 0.902,0 1.517,-0.081 2.092,-0.369 1.027,-0.492 1.765,-1.725 1.765,-2.913 0,-1.233 -0.738,-2.462 -1.806,-2.956 l 2.052,-5.457 z"
             style="fill:#231f20;fill-opacity:1;fill-rule:nonzero;stroke:none"
             id="path3776"
             inkscape:connector-curvature="0" />
        </g>
        <g
           id="g3778"
           transform="translate(317.0497,272.8896)">
          <path
             d="M 0,0 V 11.695 H 6.894 V 9.849 H 1.847 V 6.976 H 5.254 V 5.088 H 1.847 V 1.886 H 7.263 V 0 Z"
             style="fill:#231f20;fill-opacity:1;fill-rule:nonzero;stroke:none"
             id="path3780"
             inkscape:connector-curvature="0" />
        </g>
        <g
           id="g3782"
           transform="translate(331.4117,282.2456)">
          <path
             d="M 0,0 C -0.287,0.288 -0.698,0.493 -1.188,0.493 H -3.282 V -7.47 h 1.848 c 0.615,0 0.984,0.123 1.312,0.453 0.697,0.697 1.067,1.968 1.067,3.529 C 0.945,-1.929 0.575,-0.615 0,0 M 0.78,-8.7 C 0.328,-9.108 -0.287,-9.315 -0.902,-9.356 H -1.558 -5.13 V 2.339 h 3.776 c 1.191,0 1.64,-0.122 2.257,-0.615 1.231,-1.068 1.929,-2.912 1.929,-5.212 0,-2.339 -0.739,-4.187 -2.052,-5.212"
             style="fill:#231f20;fill-opacity:1;fill-rule:nonzero;stroke:none"
             id="path3784"
             inkscape:connector-curvature="0" />
        </g>
        <g
           id="g3786"
           transform="translate(286.1718,263.0506)">
          <path
             d="m 0,0 -1.191,-3.282 h 2.338 z m 2.954,-8.452 -1.15,3.281 h -3.651 l -1.15,-3.281 H -4.966 L -0.943,3.243 H 0.902 L 4.924,-8.452 Z"
             style="fill:#231f20;fill-opacity:1;fill-rule:nonzero;stroke:none"
             id="path3788"
             inkscape:connector-curvature="0" />
        </g>
        <g
           id="g3790"
           transform="translate(297.9877,264.2406)">
          <path
             d="m 0,0 c -0.285,0.166 -0.45,0.205 -1.065,0.205 h -2.217 v -2.873 h 2.217 c 0.574,0 0.78,0.043 1.065,0.206 0.452,0.247 0.74,0.74 0.74,1.233 C 0.74,-0.738 0.452,-0.245 0,0 m 0.822,-9.642 -1.887,5.088 H -3.282 V -9.642 H -5.13 V 2.053 h 3.859 c 0.903,0 1.518,-0.083 2.093,-0.369 1.025,-0.492 1.764,-1.725 1.764,-2.913 0,-1.233 -0.739,-2.464 -1.803,-2.956 l 2.05,-5.457 z"
             style="fill:#231f20;fill-opacity:1;fill-rule:nonzero;stroke:none"
             id="path3792"
             inkscape:connector-curvature="0" />
        </g>
        <g
           id="g3794"
           transform="translate(307.9207,264.2406)">
          <path
             d="m 0,0 c -0.287,0.166 -0.453,0.205 -1.067,0.205 h -2.217 v -2.873 h 2.217 c 0.573,0 0.78,0.043 1.067,0.206 0.449,0.247 0.736,0.74 0.736,1.233 C 0.736,-0.738 0.449,-0.245 0,0 m 0.82,-9.642 -1.887,5.088 H -3.284 V -9.642 H -5.13 V 2.053 h 3.856 c 0.904,0 1.519,-0.083 2.094,-0.369 1.025,-0.492 1.764,-1.725 1.764,-2.913 0,-1.233 -0.739,-2.464 -1.805,-2.956 l 2.053,-5.457 z"
             style="fill:#231f20;fill-opacity:1;fill-rule:nonzero;stroke:none"
             id="path3796"
             inkscape:connector-curvature="0" />
        </g>
        <g
           id="g3798"
           transform="translate(318.2197,263.7086)">
          <path
             d="m 0,0 c -0.369,0.615 -0.821,0.86 -1.519,0.902 -0.902,0.041 -1.477,-0.411 -1.887,-1.436 -0.288,-0.697 -0.452,-1.765 -0.452,-2.75 0,-1.232 0.246,-2.503 0.698,-3.242 0.37,-0.616 0.861,-0.903 1.601,-0.903 0.861,0 1.395,0.452 1.805,1.477 0.248,0.617 0.452,1.766 0.452,2.668 C 0.698,-1.971 0.453,-0.78 0,0 m 1.271,-8.003 c -0.656,-0.903 -1.599,-1.314 -2.83,-1.314 -1.642,0 -2.668,0.656 -3.365,2.093 -0.492,0.985 -0.822,2.545 -0.822,3.94 0,1.929 0.494,3.652 1.273,4.76 0.697,0.902 1.641,1.313 2.995,1.313 1.478,0 2.504,-0.656 3.243,-2.091 0.492,-1.027 0.78,-2.504 0.78,-3.982 0,-1.847 -0.452,-3.693 -1.274,-4.719"
             style="fill:#231f20;fill-opacity:1;fill-rule:nonzero;stroke:none"
             id="path3800"
             inkscape:connector-curvature="0" />
        </g>
        <g
           id="g3802"
           transform="translate(330.9817,254.5986)">
          <path
             d="M 0,0 H -1.641 L -3.488,7.508 -5.294,0 h -1.64 l -1.725,11.695 h 1.887 l 0.904,-6.156 1.477,6.156 h 1.805 l 1.519,-6.156 0.902,6.156 h 1.889 z"
             style="fill:#231f20;fill-opacity:1;fill-rule:nonzero;stroke:none"
             id="path3804"
             inkscape:connector-curvature="0" />
        </g>
        <g
           id="g3806"
           transform="translate(289.0447,244.8466)">
          <path
             d="m 0,0 -1.191,-3.285 h 2.338 z m 2.953,-8.455 -1.15,3.284 h -3.65 l -1.15,-3.284 H -4.966 L -0.944,3.242 H 0.902 L 4.923,-8.455 Z"
             style="fill:#231f20;fill-opacity:1;fill-rule:nonzero;stroke:none"
             id="path3808"
             inkscape:connector-curvature="0" />
        </g>
        <g
           id="g3810"
           transform="translate(297.5787,246.2406)">
          <path
             d="M 0,0 V -2.873 H 3.406 V -4.76 H 0 V -9.849 H -1.848 V 1.848 H 5.416 V 0 Z"
             style="fill:#231f20;fill-opacity:1;fill-rule:nonzero;stroke:none"
             id="path3812"
             inkscape:connector-curvature="0" />
        </g>
        <g
           id="g3814"
           transform="translate(308.2077,246.4456)">
          <path
             d="M 0,0 V -10.054 H -1.848 V 0 H -4.515 V 1.643 H 2.707 V 0 Z"
             style="fill:#231f20;fill-opacity:1;fill-rule:nonzero;stroke:none"
             id="path3816"
             inkscape:connector-curvature="0" />
        </g>
        <g
           id="g3818"
           transform="translate(312.6397,236.3916)">
          <path
             d="M 0,0 V 11.697 H 6.893 V 9.849 H 1.846 V 6.976 H 5.252 V 5.089 H 1.846 V 1.888 H 7.262 V 0 Z"
             style="fill:#231f20;fill-opacity:1;fill-rule:nonzero;stroke:none"
             id="path3820"
             inkscape:connector-curvature="0" />
        </g>
        <g
           id="g3822"
           transform="translate(327.0027,246.0346)">
          <path
             d="m 0,0 c -0.289,0.165 -0.452,0.206 -1.067,0.206 h -2.216 v -2.873 h 2.216 c 0.574,0 0.778,0.041 1.067,0.207 0.45,0.245 0.736,0.738 0.736,1.23 C 0.736,-0.737 0.45,-0.245 0,0 m 0.819,-9.643 -1.886,5.089 H -3.283 V -9.643 H -5.131 V 2.054 h 3.857 c 0.905,0 1.52,-0.082 2.093,-0.369 1.027,-0.494 1.765,-1.725 1.765,-2.915 0,-1.23 -0.738,-2.462 -1.806,-2.956 L 2.83,-9.643 Z"
             style="fill:#231f20;fill-opacity:1;fill-rule:nonzero;stroke:none"
             id="path3824"
             inkscape:connector-curvature="0" />
        </g>
        <g
           id="g3826"
           transform="translate(295.5477,218.7975)">
          <path
             d="m 0,0 c -0.658,-0.575 -1.561,-0.903 -2.545,-0.903 -2.011,0 -3.486,1.19 -4.268,2.956 l 1.766,0.656 c 0.491,-1.11 1.395,-1.725 2.502,-1.725 1.067,0 1.805,0.74 1.805,1.725 0,1.56 -1.805,1.805 -3.324,2.421 -0.697,0.286 -2.255,0.984 -2.255,2.915 0,2.297 1.558,3.159 3.651,3.159 1.642,0 2.749,-0.944 3.324,-2.382 L -0.986,8.331 c 0,0 -0.409,0.985 -1.723,1.026 C -3.57,9.398 -4.597,9.07 -4.514,8.003 -4.351,5.828 1.148,7.264 1.148,2.668 1.148,1.599 0.737,0.656 0,0"
             style="fill:#231f20;fill-opacity:1;fill-rule:nonzero;stroke:none"
             id="path3828"
             inkscape:connector-curvature="0" />
        </g>
        <g
           id="g3830"
           transform="translate(302.1527,228.1546)">
          <path
             d="M 0,0 V -10.054 H -1.847 V 0 H -4.513 V 1.641 H 2.71 V 0 Z"
             style="fill:#231f20;fill-opacity:1;fill-rule:nonzero;stroke:none"
             id="path3832"
             inkscape:connector-curvature="0" />
        </g>
        <g
           id="g3834"
           transform="translate(312.0858,227.2096)">
          <path
             d="m 0,0 c -0.372,0.617 -0.821,0.862 -1.52,0.904 -0.903,0.041 -1.477,-0.412 -1.887,-1.435 -0.287,-0.698 -0.451,-1.767 -0.451,-2.751 0,-1.231 0.246,-2.504 0.698,-3.241 0.367,-0.616 0.86,-0.905 1.599,-0.905 0.861,0 1.396,0.453 1.806,1.479 0.246,0.615 0.452,1.762 0.452,2.667 C 0.697,-1.97 0.45,-0.779 0,0 m 1.271,-8.003 c -0.658,-0.901 -1.601,-1.312 -2.832,-1.312 -1.641,0 -2.667,0.658 -3.364,2.094 -0.494,0.985 -0.822,2.543 -0.822,3.939 0,1.929 0.494,3.653 1.271,4.761 0.699,0.902 1.642,1.313 2.998,1.313 1.478,0 2.502,-0.656 3.241,-2.093 0.493,-1.025 0.78,-2.504 0.78,-3.981 0,-1.846 -0.45,-3.693 -1.272,-4.721"
             style="fill:#231f20;fill-opacity:1;fill-rule:nonzero;stroke:none"
             id="path3836"
             inkscape:connector-curvature="0" />
        </g>
        <g
           id="g3838"
           transform="translate(322.5897,227.7436)">
          <path
             d="m 0,0 c -0.328,0.165 -0.532,0.204 -1.109,0.204 h -2.42 v -2.871 h 2.42 c 0.577,0 0.781,0.039 1.109,0.205 0.411,0.205 0.698,0.739 0.698,1.231 C 0.698,-0.739 0.411,-0.245 0,0 M 0.78,-4.144 C 0.245,-4.39 -0.452,-4.556 -1.355,-4.556 H -3.529 V -9.643 H -5.376 V 2.052 h 4.021 c 0.944,0 1.559,-0.082 2.135,-0.369 1.026,-0.492 1.807,-1.725 1.807,-2.914 0,-1.231 -0.781,-2.461 -1.807,-2.913"
             style="fill:#231f20;fill-opacity:1;fill-rule:nonzero;stroke:none"
             id="path3840"
             inkscape:connector-curvature="0" />
        </g>
      </g>
    </g>
    <g
       id="g3466"
       transform="matrix(0.44835569,0,0,-0.35852022,123.37024,77.110034)">
      <path
         d="M 0,0 V 1.535 H -5.86 V 0 h 2.102 V -9.981 H -2.1 V 0 Z m -6.547,-0.08 v 1.615 h -5.861 V -9.981 h 1.657 v 5.415 h 2.305 v 1.576 h -2.305 v 2.91 z m -7.802,-9.901 v 1.617 h -4.203 v 3.798 h 2.384 v 1.576 h -2.384 v 2.91 h 3.759 v 1.615 h -5.416 V -9.981 Z m -7.436,0 v 1.536 h -4.204 v 9.98 h -1.657 V -9.981 Z"
         style="fill:#231f20;fill-opacity:1;fill-rule:evenodd;stroke:none"
         id="path3468"
         inkscape:connector-curvature="0" />
    </g>
  </g>
</svg>
