<?xml version="1.0" encoding="UTF-8" standalone="no"?>
<!-- Created with Inkscape (http://www.inkscape.org/) -->

<svg
   width="26.08333mm"
   height="6.6537414mm"
   viewBox="0 0 26.08333 6.6537414"
   version="1.1"
   id="svg1"
   inkscape:version="1.3 (0e150ed, 2023-07-21)"
   sodipodi:docname="MUTCD_R9-27a.svg"
   xmlns:inkscape="http://www.inkscape.org/namespaces/inkscape"
   xmlns:sodipodi="http://sodipodi.sourceforge.net/DTD/sodipodi-0.dtd"
   xmlns="http://www.w3.org/2000/svg"
   xmlns:svg="http://www.w3.org/2000/svg">
  <sodipodi:namedview
     id="namedview1"
     pagecolor="#ffffff"
     bordercolor="#666666"
     borderopacity="1.0"
     inkscape:showpageshadow="2"
     inkscape:pageopacity="0.0"
     inkscape:pagecheckerboard="0"
     inkscape:deskcolor="#d1d1d1"
     inkscape:document-units="mm"
     inkscape:zoom="0.2102413"
     inkscape:cx="85.615908"
     inkscape:cy="-147.44962"
     inkscape:window-width="1440"
     inkscape:window-height="431"
     inkscape:window-x="0"
     inkscape:window-y="23"
     inkscape:window-maximized="0"
     inkscape:current-layer="layer1" />
  <defs
     id="defs1">
    <clipPath
       clipPathUnits="userSpaceOnUse"
       id="clipPath193">
      <path
         d="M 92.917,175.072 H 546.082 V 743.001 H 92.917 Z"
         transform="translate(-286.81431,-562.86401)"
         id="path193" />
    </clipPath>
  </defs>
  <g
     inkscape:label="Layer 1"
     inkscape:groupmode="layer"
     id="layer1"
     transform="translate(-81.227081,-187.85417)">
    <g
       id="g191"
       transform="matrix(0.26458333,0,0,0.26458333,-18.247432,113.62962)">
      <path
         id="path192"
         d="m 0,0 c -2.6,0 -4.715,2.115 -4.715,4.715 v 9.181 c 0,2.6 2.115,4.715 4.715,4.715 h 64.258 c 2.599,0 4.715,-2.115 4.715,-4.715 V 4.715 C 68.973,2.115 66.857,0 64.258,0 Z"
         style="fill:#ffffff;fill-opacity:1;fill-rule:nonzero;stroke:none"
         transform="matrix(1.3333333,0,0,-1.3333333,382.41907,305.51467)"
         clip-path="url(#clipPath193)" />
    </g>
    <g
       id="g193"
       transform="matrix(0.26458333,0,0,0.26458333,-18.247432,113.62962)">
      <path
         id="path194"
         d="m 0,0 h -64.257 c -2.669,0 -4.84,-2.171 -4.84,-4.84 v -9.181 c 0,-2.669 2.171,-4.84 4.84,-4.84 H 0 c 2.669,0 4.84,2.171 4.84,4.84 V -4.84 C 4.84,-2.171 2.669,0 0,0 m 0,-0.25 c 2.535,0 4.59,-2.055 4.59,-4.59 v -9.181 c 0,-2.535 -2.055,-4.59 -4.59,-4.59 h -64.257 c -2.535,0 -4.59,2.055 -4.59,4.59 v 9.181 c 0,2.535 2.055,4.59 4.59,4.59 z"
         style="fill:#000000;fill-opacity:1;fill-rule:nonzero;stroke:none"
         transform="matrix(1.3333333,0,0,-1.3333333,468.096,280.53373)" />
    </g>
    <g
       id="g194"
       transform="matrix(0.26458333,0,0,0.26458333,-18.247432,113.62962)">
      <path
         id="path195"
         d="m 0,0 c -1.898,0 -3.442,1.544 -3.442,3.443 v 9.18 c 0,1.898 1.544,3.443 3.442,3.443 h 64.257 c 1.898,0 3.443,-1.545 3.443,-3.443 V 3.443 C 67.7,1.544 66.155,0 64.257,0 Z"
         style="fill:#000000;fill-opacity:1;fill-rule:nonzero;stroke:none"
         transform="matrix(1.3333333,0,0,-1.3333333,382.4196,303.81813)" />
      <path
         id="path196"
         d="m 0,0 c -1.265,0 -2.295,1.03 -2.295,2.295 v 9.181 c 0,1.265 1.03,2.295 2.295,2.295 h 64.257 c 1.266,0 2.295,-1.03 2.295,-2.295 V 2.295 C 66.552,1.03 65.523,0 64.257,0 Z"
         style="fill:#ffffff;fill-opacity:1;fill-rule:nonzero;stroke:none"
         transform="matrix(1.3333333,0,0,-1.3333333,382.4196,302.288)" />
    </g>
    <g
       id="g196"
       transform="matrix(0.26458333,0,0,0.26458333,-18.247432,113.62962)">
      <path
         id="path197"
         d="m 346.754,570.735 h -4.793 v 2.869 h 4.793 z"
         style="fill:#000000;fill-opacity:1;fill-rule:nonzero;stroke:none"
         transform="matrix(1.3333333,0,0,-1.3333333,0,1056)" />
      <path
         id="path198"
         d="M 0,0 5.408,3.721 0,7.442 C -0.461,7.76 -1.058,7.298 -0.866,6.772 L 0.245,3.721 -0.866,0.67 C -1.058,0.144 -0.461,-0.317 0,0"
         style="fill:#000000;fill-opacity:1;fill-rule:nonzero;stroke:none"
         transform="matrix(1.3333333,0,0,-1.3333333,461.99747,298.06907)" />
    </g>
    <g
       id="g198"
       transform="matrix(0.26458333,0,0,0.26458333,-18.247432,113.62962)">
      <path
         id="path199"
         d="M 0,0 C -1.054,0 -1.946,0.69 -2.252,1.642 L -0.15,2.095 C -0.105,2.07 -0.054,2.056 0,2.056 c 0.17,0 0.309,0.138 0.309,0.308 0,0.149 -0.106,0.273 -0.246,0.303 L -1.229,4.385 C -0.871,4.603 -0.45,4.729 0,4.729 1.306,4.729 2.364,3.67 2.364,2.364 2.364,1.059 1.306,0 0,0 m -2.364,2.364 c 0,0.689 0.294,1.309 0.764,1.741 l 1.196,-1.59 -1.945,-0.419 c -0.01,0.088 -0.015,0.178 -0.015,0.268 M -2.889,1.98 -3.814,1.781 -2.74,5.621 -1.932,4.546 C -2.534,4.012 -2.914,3.233 -2.914,2.364 c 0,-0.13 0.009,-0.258 0.025,-0.384 m -1.317,0.123 -0.143,0.546 h 0.224 v 0.22 h -0.708 v -0.22 h 0.282 l 0.142,-0.542 -3.046,3.316 c 0.05,0.158 0.1,0.321 0.15,0.483 h 4.163 z M -7.203,2.364 C -7.203,1.059 -8.261,0 -9.567,0 c -1.306,0 -2.364,1.059 -2.364,2.364 0,1.306 1.058,2.365 2.364,2.365 0.464,0 0.897,-0.134 1.262,-0.365 -0.29,-0.63 -0.856,-1.309 -1.264,-1.691 -0.17,-10e-4 -0.306,-0.139 -0.306,-0.309 0,-0.17 0.138,-0.308 0.308,-0.308 0.158,0 0.288,0.118 0.306,0.27 0.2,0.187 0.46,0.463 0.718,0.792 0.192,0.246 0.431,0.585 0.613,0.952 0.448,-0.43 0.727,-1.035 0.727,-1.706 M 0,5.279 c -0.574,0 -1.11,-0.166 -1.561,-0.453 l -1.022,1.358 0.134,0.479 c 0.641,0.055 0.995,0.298 0.973,0.534 C -1.497,7.425 -2.132,7.254 -2.839,7.245 -3.032,7.243 -4.06,7.247 -4.054,7.059 -4.048,6.865 -3.391,6.708 -2.93,6.664 L -3.013,6.37 h -4.149 c 0.089,0.289 0.169,0.555 0.232,0.761 0.053,0.177 0.093,0.31 0.113,0.375 l -0.302,0.231 0.143,0.144 h 1.111 V 8.248 H -7.129 L -7.672,7.699 -7.324,7.433 C -7.485,6.899 -7.866,5.646 -8.112,4.89 -8.54,5.137 -9.037,5.279 -9.567,5.279 c -1.609,0 -2.914,-1.305 -2.914,-2.915 0,-1.609 1.305,-2.914 2.914,-2.914 1.609,0 2.914,1.305 2.914,2.914 0,0.906 -0.413,1.715 -1.061,2.25 0.03,0.091 0.063,0.191 0.097,0.299 L -4.481,1.5 C -4.482,1.491 -4.482,1.482 -4.482,1.473 c 0,-0.185 0.147,-0.336 0.33,-0.342 l 0.22,-0.835 h -0.225 v -0.22 h 0.708 v 0.22 H -3.73 l -0.233,0.885 c 0.048,0.029 0.087,0.069 0.116,0.117 l 1.056,0.228 C -2.431,0.325 -1.318,-0.55 0,-0.55 c 1.609,0 2.914,1.305 2.914,2.914 0,1.61 -1.305,2.915 -2.914,2.915"
         style="fill:#000000;fill-opacity:1;fill-rule:nonzero;stroke:none"
         transform="matrix(1.3333333,0,0,-1.3333333,397.9488,298.2396)" />
      <path
         id="path200"
         d="M 0,0 H 0.883 V -5.304 H 3.122 V -6.12 H 0 Z"
         style="fill:#000000;fill-opacity:1;fill-rule:nonzero;stroke:none"
         transform="matrix(1.3333333,0,0,-1.3333333,405.914,289.02733)" />
      <path
         id="path201"
         d="M 0,0 H 2.885 V -0.859 H 0.883 v -1.546 h 1.27 V -3.243 H 0.883 V -5.262 H 3.122 V -6.12 H 0 Z"
         style="fill:#000000;fill-opacity:1;fill-rule:nonzero;stroke:none"
         transform="matrix(1.3333333,0,0,-1.3333333,411.21973,289.02733)" />
      <path
         id="path202"
         d="M 0,0 H 1.228 V -0.838 H 0 v -2.877 h -0.883 v 6.12 H 2.24 V 1.546 H 0 Z"
         style="fill:#000000;fill-opacity:1;fill-rule:nonzero;stroke:none"
         transform="matrix(1.3333333,0,0,-1.3333333,417.94747,292.2344)" />
      <path
         id="path203"
         d="m 0,0 h -0.883 v 5.304 h -1.12 V 6.12 H 1.12 V 5.304 H 0 Z"
         style="fill:#000000;fill-opacity:1;fill-rule:nonzero;stroke:none"
         transform="matrix(1.3333333,0,0,-1.3333333,424.09373,297.18773)" />
      <path
         id="path204"
         d="m 0,0 h -0.883 v 5.304 h -1.12 V 6.12 H 1.12 V 5.304 H 0 Z"
         style="fill:#000000;fill-opacity:1;fill-rule:nonzero;stroke:none"
         transform="matrix(1.3333333,0,0,-1.3333333,432.3368,297.18773)" />
      <path
         id="path205"
         d="M 0,0 V 4.342 H 0.878 V -0.06 c 0,-0.577 0.337,-0.967 0.857,-0.967 0.471,0 0.815,0.386 0.815,0.967 V 4.342 H 3.428 V -0.013 C 3.428,-1.405 2.353,-1.886 1.735,-1.886 1.17,-1.886 0,-1.518 0,0"
         style="fill:#000000;fill-opacity:1;fill-rule:nonzero;stroke:none"
         transform="matrix(1.3333333,0,0,-1.3333333,434.97253,294.81613)" />
      <path
         id="path206"
         d="m 0,0 v -1.546 h 0.9 c 0.515,0 0.793,0.279 0.793,0.773 C 1.693,-0.3 1.372,0 0.9,0 Z M 0.836,-2.384 H 0 v -2.877 h -0.878 v 6.12 h 1.821 c 0.96,0 1.607,-0.644 1.607,-1.632 0,-0.73 -0.3,-1.267 -0.879,-1.482 L 2.55,-5.261 H 1.651 Z"
         style="fill:#000000;fill-opacity:1;fill-rule:nonzero;stroke:none"
         transform="matrix(1.3333333,0,0,-1.3333333,442.51,290.17293)" />
      <path
         id="path207"
         d="m 0,0 v -4.101 h -0.878 v 6.12 H 0 L 1.671,-1.653 V 2.019 H 2.55 v -6.12 H 1.886 Z"
         style="fill:#000000;fill-opacity:1;fill-rule:nonzero;stroke:none"
         transform="matrix(1.3333333,0,0,-1.3333333,448.46867,291.71933)" />
    </g>
  </g>
</svg>
