<?xml version="1.0" encoding="UTF-8" standalone="no"?>
<svg
   xmlns:dc="http://purl.org/dc/elements/1.1/"
   xmlns:cc="http://creativecommons.org/ns#"
   xmlns:rdf="http://www.w3.org/1999/02/22-rdf-syntax-ns#"
   xmlns:svg="http://www.w3.org/2000/svg"
   xmlns="http://www.w3.org/2000/svg"
   xmlns:sodipodi="http://sodipodi.sourceforge.net/DTD/sodipodi-0.dtd"
   xmlns:inkscape="http://www.inkscape.org/namespaces/inkscape"
   sodipodi:docname="R10-4R.svg"
   inkscape:version="1.0rc1 (09960d6f05, 2020-04-09)"
   id="svg10223"
   version="1.1"
   viewBox="0 0 23.212072 30.89028"
   height="30.89028mm"
   width="23.212072mm">
  <defs
     id="defs10217">
    <clipPath
       clipPathUnits="userSpaceOnUse"
       id="clipPath9495">
      <path
         d="M 27.125,595.6 H 540 V 740 H 27.125 Z"
         id="path9493"
         inkscape:connector-curvature="0" />
    </clipPath>
    <clipPath
       clipPathUnits="userSpaceOnUse"
       id="clipPath9507">
      <path
         d="M 84.893,600.019 H 482.231 V 740 H 84.893 Z"
         id="path9505"
         inkscape:connector-curvature="0" />
    </clipPath>
    <clipPath
       clipPathUnits="userSpaceOnUse"
       id="clipPath9519">
      <path
         d="M 27.125,595.6 H 540 V 740 H 27.125 Z"
         id="path9517"
         inkscape:connector-curvature="0" />
    </clipPath>
  </defs>
  <sodipodi:namedview
     inkscape:window-maximized="1"
     inkscape:window-y="0"
     inkscape:window-x="0"
     inkscape:window-height="836"
     inkscape:window-width="1600"
     showgrid="false"
     inkscape:document-rotation="0"
     inkscape:current-layer="g9515"
     inkscape:document-units="mm"
     inkscape:cy="58.375332"
     inkscape:cx="43.865334"
     inkscape:zoom="3.959798"
     inkscape:pageshadow="2"
     inkscape:pageopacity="0.0"
     borderopacity="1.0"
     bordercolor="#666666"
     pagecolor="#ffffff"
     id="base" />
  <metadata
     id="metadata10220">
    <rdf:RDF>
      <cc:Work
         rdf:about="">
        <dc:format>image/svg+xml</dc:format>
        <dc:type
           rdf:resource="http://purl.org/dc/dcmitype/StillImage" />
        <dc:title></dc:title>
      </cc:Work>
    </rdf:RDF>
  </metadata>
  <g
     transform="translate(49.403655,-190.92986)"
     id="layer1"
     inkscape:groupmode="layer"
     inkscape:label="Layer 1">
    <g
       transform="matrix(0.35277777,0,0,-0.35277777,-79.352159,438.63334)"
       id="g9489">
      <g
         id="g9491"
         clip-path="url(#clipPath9495)">
        <g
           id="g9497"
           transform="translate(150.4414,622.0936)">
          <path
             d="m 0,0 c 0,-4.007 -3.249,-7.255 -7.256,-7.255 h -50.787 c -4.007,0 -7.255,3.248 -7.255,7.255 v 72.553 c 0,4.007 3.248,7.255 7.255,7.255 H -7.256 C -3.249,79.808 0,76.56 0,72.553 Z"
             style="fill:#ffffff;fill-opacity:1;fill-rule:nonzero;stroke:none"
             id="path9499"
             inkscape:connector-curvature="0" />
        </g>
      </g>
    </g>
    <g
       transform="matrix(0.35277777,0,0,-0.35277777,-79.352159,438.63334)"
       id="g9501">
      <g
         id="g9503"
         clip-path="url(#clipPath9507)">
        <g
           id="g9509"
           transform="translate(150.4414,622.0936)">
          <path
             d="m 0,0 c 0,-4.007 -3.249,-7.255 -7.256,-7.255 h -50.787 c -4.007,0 -7.255,3.248 -7.255,7.255 v 72.553 c 0,4.007 3.248,7.255 7.255,7.255 H -7.256 C -3.249,79.808 0,76.56 0,72.553 Z"
             style="fill:none;stroke:#231f20;stroke-width:0.5;stroke-linecap:butt;stroke-linejoin:miter;stroke-miterlimit:4;stroke-dasharray:none;stroke-opacity:1"
             id="path9511"
             inkscape:connector-curvature="0" />
        </g>
      </g>
    </g>
    <g
       transform="matrix(0.35277777,0,0,-0.35277777,-79.352159,438.63334)"
       id="g9513">
      <g
         id="g9515"
         clip-path="url(#clipPath9519)">
        <g
           id="g9521"
           transform="translate(144.999,622.0936)">
          <path
             d="m 0,0 c 0,-1 -0.813,-1.813 -1.814,-1.813 h -50.787 c -1,0 -1.813,0.813 -1.813,1.813 v 72.553 c 0,1 0.813,1.813 1.813,1.813 H -1.814 C -0.813,74.366 0,73.553 0,72.553 Z m -1.814,77.087 h -50.787 c -2.5,0 -4.534,-2.034 -4.534,-4.534 V 0 c 0,-2.5 2.034,-4.534 4.534,-4.534 h 50.787 c 2.501,0 4.535,2.034 4.535,4.534 v 72.553 c 0,2.5 -2.034,4.534 -4.535,4.534"
             style="fill:#231f20;fill-opacity:1;fill-rule:nonzero;stroke:none"
             id="path9523"
             inkscape:connector-curvature="0" />
        </g>
        <g
           id="g9525"
           transform="matrix(-1,0,0,1,138.1205,667.4395)">
          <path
             d="m 0,0 v 14.958 h 3.319 v 4.805 l 1.032,0.229 v 1.259 l -1.146,0.457 v 0.687 H 0 v 2.059 H -1.487 V 0 Z"
             style="fill:#231f20;fill-opacity:1;fill-rule:nonzero;stroke:none"
             id="path9527"
             inkscape:connector-curvature="0" />
        </g>
        <g
           id="g9529"
           transform="matrix(-1,0,0,1,95.9768,689.1495)">
          <path
             d="m 0,0 c 0,0 -6.884,-0.574 -12.936,3.731 -0.376,0.06 -0.773,0.257 -1.091,0.277 -3.234,-0.694 -5.873,1.032 -7.638,1.944 -1.587,0.238 -1.211,-3.292 0.693,-3.769 -1.884,-0.2 -14.977,-1.468 -14.977,-1.468 0,0 -1.233,-0.158 -1.192,-1.112 0.025,-0.595 0.158,-1.309 1.011,-1.309 h 10.338 c 0,0 0.021,-0.952 0.853,-1.687 0.993,-0.515 2.419,-1.11 2.48,-2.558 0.794,-0.734 3.056,-1.587 3.451,-3.135 0.716,-1.131 3.115,-1.27 4.008,-1.449 0.676,0.119 1.291,0.209 2.143,0.297 C -7.678,-8.095 0,-7.776 0,-7.776 Z"
             style="fill:#231f20;fill-opacity:1;fill-rule:nonzero;stroke:none"
             id="path9531"
             inkscape:connector-curvature="0" />
        </g>
        <g
           id="g9533"
           transform="translate(98.1118,671.0645)">
          <path
             d="m 0,0 c 0,0.442 -0.175,0.688 -0.523,0.739 h -0.9 v -1.468 h 0.9 C -0.175,-0.712 0,-0.469 0,0 m 0.712,0 c 0,-0.595 -0.21,-1.013 -0.63,-1.252 -0.218,-0.126 -0.431,-0.188 -0.641,-0.188 h -0.864 v -2.185 h -0.712 v 5.076 h 1.576 c 0.213,0 0.427,-0.061 0.641,-0.182 C 0.502,1.028 0.712,0.605 0.712,0"
             style="fill:#231f20;fill-opacity:1;fill-rule:nonzero;stroke:none"
             id="path9535"
             inkscape:connector-curvature="0" />
        </g>
        <g
           id="g9537"
           transform="translate(102.6831,668.8097)">
          <path
             d="m 0,0 c 0,-0.393 -0.138,-0.728 -0.414,-1.005 -0.276,-0.277 -0.612,-0.416 -1.009,-0.416 -0.393,0 -0.728,0.139 -1.007,0.416 -0.277,0.277 -0.417,0.612 -0.417,1.005 v 3.706 h 0.712 V 0.001 c 0,-0.196 0.069,-0.363 0.206,-0.502 0.137,-0.139 0.306,-0.208 0.506,-0.208 0.193,0 0.359,0.069 0.5,0.208 0.141,0.139 0.211,0.306 0.211,0.502 V 3.706 H 0 Z"
             style="fill:#231f20;fill-opacity:1;fill-rule:nonzero;stroke:none"
             id="path9539"
             inkscape:connector-curvature="0" />
        </g>
        <g
           id="g9541"
           transform="translate(106.393,668.8242)">
          <path
             d="m 0,0 c 0,-0.358 -0.094,-0.668 -0.28,-0.928 -0.241,-0.339 -0.597,-0.507 -1.068,-0.507 -0.528,0 -0.923,0.168 -1.184,0.507 -0.21,0.268 -0.315,0.605 -0.315,1.011 h 0.711 c 0,-0.295 0.094,-0.513 0.281,-0.654 0.138,-0.102 0.308,-0.153 0.507,-0.153 0.408,0 0.611,0.243 0.611,0.726 0,0.379 -0.164,0.688 -0.493,0.929 -0.303,0.189 -0.61,0.377 -0.917,0.562 -0.329,0.254 -0.493,0.586 -0.493,0.995 0,0.267 0.076,0.512 0.224,0.736 0.231,0.344 0.599,0.517 1.107,0.517 0.534,0 0.912,-0.199 1.136,-0.597 C -0.082,2.978 -0.024,2.777 0,2.541 h -0.712 c 0,0.084 -0.029,0.168 -0.087,0.252 -0.101,0.157 -0.272,0.236 -0.514,0.236 -0.41,0 -0.615,-0.18 -0.615,-0.543 0,-0.199 0.166,-0.398 0.498,-0.598 C -0.934,1.597 -0.624,1.391 -0.499,1.269 -0.166,0.94 0,0.519 0,0"
             style="fill:#231f20;fill-opacity:1;fill-rule:nonzero;stroke:none"
             id="path9543"
             inkscape:connector-curvature="0" />
        </g>
        <g
           id="g9545"
           transform="translate(110.0982,667.4395)">
          <path
             d="M 0,0 H -0.712 V 2.336 H -2.135 V 0 h -0.712 v 5.076 h 0.712 V 3.048 h 1.423 V 5.076 H 0 Z"
             style="fill:#231f20;fill-opacity:1;fill-rule:nonzero;stroke:none"
             id="path9547"
             inkscape:connector-curvature="0" />
        </g>
        <g
           id="g9549"
           transform="translate(116.9028,668.9736)">
          <path
             d="M 0,0 C 0,0.338 -0.123,0.573 -0.371,0.705 -0.493,0.77 -0.622,0.802 -0.758,0.802 h -0.666 v -1.625 h 0.779 c 0.104,0 0.215,0.039 0.33,0.117 C -0.105,-0.567 0,-0.332 0,0 m -0.151,2.175 c 0,0.402 -0.193,0.621 -0.577,0.655 H -1.424 V 1.514 h 0.588 c 0.457,0 0.685,0.22 0.685,0.661 m 0.863,-2.187 c 0,-0.68 -0.244,-1.138 -0.733,-1.376 -0.206,-0.097 -0.456,-0.146 -0.747,-0.146 h -1.367 v 5.076 h 1.462 C -0.433,3.515 -0.227,3.452 -0.054,3.354 0.355,3.113 0.561,2.707 0.561,2.136 0.561,1.591 0.367,1.261 -0.02,1.146 0.469,0.878 0.712,0.492 0.712,-0.012"
             style="fill:#231f20;fill-opacity:1;fill-rule:nonzero;stroke:none"
             id="path9551"
             inkscape:connector-curvature="0" />
        </g>
        <g
           id="g9553"
           transform="translate(121.3218,668.8097)">
          <path
             d="m 0,0 c 0,-0.393 -0.138,-0.728 -0.414,-1.005 -0.276,-0.277 -0.612,-0.416 -1.009,-0.416 -0.393,0 -0.728,0.139 -1.007,0.416 -0.278,0.277 -0.417,0.612 -0.417,1.005 v 3.706 h 0.712 V 0.001 c 0,-0.196 0.069,-0.363 0.206,-0.502 0.137,-0.139 0.306,-0.208 0.506,-0.208 0.193,0 0.36,0.069 0.5,0.208 0.141,0.139 0.211,0.306 0.211,0.502 V 3.706 H 0 Z"
             style="fill:#231f20;fill-opacity:1;fill-rule:nonzero;stroke:none"
             id="path9555"
             inkscape:connector-curvature="0" />
        </g>
        <g
           id="g9557"
           transform="translate(124.6235,671.8037)">
          <path
             d="M 0,0 H -0.939 V -4.364 H -1.652 V 0 H -2.59 V 0.712 H 0 Z"
             style="fill:#231f20;fill-opacity:1;fill-rule:nonzero;stroke:none"
             id="path9559"
             inkscape:connector-curvature="0" />
        </g>
        <g
           id="g9561"
           transform="translate(127.518,671.8037)">
          <path
             d="M 0,0 H -0.939 V -4.364 H -1.651 V 0 H -2.59 V 0.712 H 0 Z"
             style="fill:#231f20;fill-opacity:1;fill-rule:nonzero;stroke:none"
             id="path9563"
             inkscape:connector-curvature="0" />
        </g>
        <g
           id="g9565"
           transform="translate(130.4116,669.9775)">
          <path
             d="m 0,0 c 0,0.433 -0.044,0.81 -0.132,1.131 -0.133,0.497 -0.35,0.745 -0.655,0.745 -0.305,0 -0.524,-0.248 -0.655,-0.745 C -1.531,0.81 -1.574,0.433 -1.574,0 c 0,-0.434 0.043,-0.81 0.132,-1.132 0.131,-0.497 0.35,-0.745 0.655,-0.745 0.305,0 0.522,0.248 0.655,0.745 C -0.044,-0.81 0,-0.434 0,0 m 0.712,0 c 0,-0.623 -0.071,-1.139 -0.214,-1.549 -0.244,-0.693 -0.673,-1.04 -1.285,-1.04 -0.613,0 -1.042,0.347 -1.286,1.04 -0.142,0.41 -0.213,0.926 -0.213,1.549 0,1.726 0.499,2.588 1.499,2.588 0.999,0 1.499,-0.862 1.499,-2.588"
             style="fill:#231f20;fill-opacity:1;fill-rule:nonzero;stroke:none"
             id="path9567"
             inkscape:connector-curvature="0" />
        </g>
        <g
           id="g9569"
           transform="translate(134.983,667.4395)">
          <path
             d="M 0,0 H -0.712 L -2.135,3.285 V 0 h -0.712 v 5.076 h 0.711 l 1.422,-3.278 0.002,3.278 H 0 Z"
             style="fill:#231f20;fill-opacity:1;fill-rule:nonzero;stroke:none"
             id="path9571"
             inkscape:connector-curvature="0" />
        </g>
        <g
           id="g9573"
           transform="translate(125.0468,634.7915)">
          <path
             d="m 0,0 c 0,-4.007 -3.248,-7.256 -7.255,-7.256 -4.007,0 -7.255,3.249 -7.255,7.256 0,4.006 3.248,7.254 7.255,7.254 C -3.248,7.254 0,4.006 0,0"
             style="fill:#00674c;fill-opacity:1;fill-rule:nonzero;stroke:none"
             id="path9575"
             inkscape:connector-curvature="0" />
        </g>
        <g
           id="g9577"
           transform="translate(109.5616,656.5566)">
          <path
             d="M 0,0 V 7.255 H 4.498 V 6.096 H 1.159 V 4.352 H 3.338 V 3.192 H 1.159 V 0 Z"
             style="fill:#231f20;fill-opacity:1;fill-rule:nonzero;stroke:none"
             id="path9579"
             inkscape:connector-curvature="0" />
        </g>
        <g
           id="g9581"
           transform="translate(118.996,660.1837)">
          <path
             d="M 0,0 C 0,0.742 -0.109,1.336 -0.327,1.781 -0.574,2.29 -0.938,2.545 -1.417,2.545 -1.901,2.545 -2.265,2.29 -2.507,1.781 -2.725,1.341 -2.834,0.747 -2.834,0 c 0,-0.741 0.109,-1.335 0.327,-1.78 0.247,-0.51 0.611,-0.764 1.09,-0.764 0.479,0 0.843,0.254 1.09,0.764 C -0.109,-1.335 0,-0.741 0,0 m 1.159,0 c 0,-0.978 -0.175,-1.793 -0.522,-2.446 -0.45,-0.838 -1.135,-1.257 -2.054,-1.257 -0.924,0 -1.608,0.419 -2.054,1.257 -0.348,0.648 -0.522,1.464 -0.522,2.446 0,0.983 0.174,1.799 0.522,2.447 0.446,0.838 1.13,1.256 2.054,1.256 0.919,0 1.604,-0.418 2.054,-1.256 C 0.984,1.794 1.159,0.979 1.159,0"
             style="fill:#231f20;fill-opacity:1;fill-rule:nonzero;stroke:none"
             id="path9583"
             inkscape:connector-curvature="0" />
        </g>
        <g
           id="g9585"
           transform="translate(125.4277,661.7949)">
          <path
             d="m 0,0 c 0,0.242 -0.08,0.446 -0.242,0.61 -0.162,0.165 -0.365,0.247 -0.607,0.247 h -1.67 v -1.744 h 1.67 c 0.242,0 0.445,0.086 0.607,0.258 C -0.08,-0.457 0,-0.247 0,0 M 1.256,-5.238 H 0.029 l -1.168,3.192 h -1.38 v -3.192 h -1.159 v 7.255 h 2.821 c 0.556,0 1.031,-0.198 1.425,-0.591 C 0.963,1.031 1.159,0.556 1.159,0 c 0,-0.813 -0.384,-1.423 -1.151,-1.829 z"
             style="fill:#231f20;fill-opacity:1;fill-rule:nonzero;stroke:none"
             id="path9587"
             inkscape:connector-curvature="0" />
        </g>
        <g
           id="g9589"
           transform="translate(108.1816,648.1689)">
          <path
             d="m 0,0 c 0,-0.581 -0.157,-1.111 -0.472,-1.591 -0.425,-0.653 -1.053,-0.98 -1.885,-0.98 -0.924,0 -1.608,0.419 -2.052,1.257 -0.349,0.648 -0.523,1.463 -0.523,2.446 0,0.983 0.174,1.799 0.523,2.447 0.444,0.838 1.129,1.256 2.052,1.256 1.103,0 1.843,-0.554 2.221,-1.663 l -1.06,-0.429 c -0.242,0.622 -0.629,0.934 -1.161,0.934 -0.485,0 -0.847,-0.255 -1.089,-0.764 -0.218,-0.44 -0.327,-1.034 -0.327,-1.781 0,-0.741 0.109,-1.335 0.327,-1.78 0.246,-0.51 0.608,-0.764 1.087,-0.764 0.449,0 0.785,0.204 1.007,0.612 0.136,0.253 0.208,0.511 0.218,0.774 H -2.45 V 1.132 H 0 Z"
             style="fill:#231f20;fill-opacity:1;fill-rule:nonzero;stroke:none"
             id="path9591"
             inkscape:connector-curvature="0" />
        </g>
        <g
           id="g9593"
           transform="translate(113.457,650.9121)">
          <path
             d="M 0,0 C 0,0.242 -0.081,0.446 -0.243,0.61 -0.405,0.775 -0.607,0.857 -0.85,0.857 h -1.669 v -1.744 h 1.669 c 0.243,0 0.445,0.086 0.607,0.258 C -0.081,-0.457 0,-0.247 0,0 M 1.256,-5.238 H 0.029 l -1.169,3.192 h -1.379 v -3.192 h -1.159 v 7.255 h 2.821 c 0.556,0 1.031,-0.198 1.425,-0.591 C 0.962,1.031 1.159,0.556 1.159,0 c 0,-0.812 -0.384,-1.423 -1.151,-1.829 z"
             style="fill:#231f20;fill-opacity:1;fill-rule:nonzero;stroke:none"
             id="path9595"
             inkscape:connector-curvature="0" />
        </g>
        <g
           id="g9597"
           transform="translate(120.4443,645.6738)">
          <path
             d="m 0,0 h -4.498 v 7.255 h 4.353 V 6.096 H -3.34 V 4.352 h 2.208 V 3.192 H -3.34 V 1.158 H 0 Z"
             style="fill:#231f20;fill-opacity:1;fill-rule:nonzero;stroke:none"
             id="path9599"
             inkscape:connector-curvature="0" />
        </g>
        <g
           id="g9601"
           transform="translate(126.1758,645.6738)">
          <path
             d="m 0,0 h -4.498 v 7.255 h 4.353 V 6.096 H -3.34 V 4.352 h 2.208 V 3.192 H -3.34 V 1.158 H 0 Z"
             style="fill:#231f20;fill-opacity:1;fill-rule:nonzero;stroke:none"
             id="path9603"
             inkscape:connector-curvature="0" />
        </g>
        <g
           id="g9605"
           transform="translate(132.334,645.6738)">
          <path
             d="M 0,0 H -1.11 L -3.76,4.81 V 0 h -1.158 v 7.255 h 1.125 L -1.158,2.474 V 7.255 H 0 Z"
             style="fill:#231f20;fill-opacity:1;fill-rule:nonzero;stroke:none"
             id="path9607"
             inkscape:connector-curvature="0" />
        </g>
        <g
           id="g9609"
           transform="matrix(-1,0,0,1,134.9847,622.1295)">
          <path
             d="M 0,0 -3.632,2.456 0,4.917 C 0.16,5.026 0.38,4.985 0.488,4.825 0.561,4.717 0.548,4.607 0.515,4.475 L 0.194,3.409 H 38.017 V 1.506 H 0.194 L 0.507,0.457 C 0.548,0.312 0.564,0.204 0.488,0.093 0.38,-0.067 0.16,-0.109 0,0"
             style="fill:#231f20;fill-opacity:1;fill-rule:evenodd;stroke:none"
             id="path9611"
             inkscape:connector-curvature="0" />
        </g>
      </g>
    </g>
  </g>
</svg>
