<?xml version="1.0" encoding="UTF-8" standalone="no"?>
<!-- Created with Inkscape (http://www.inkscape.org/) -->

<svg
   width="158.74998mm"
   height="198.4375mm"
   viewBox="0 0 158.74998 198.4375"
   version="1.1"
   id="svg1"
   xml:space="preserve"
   xmlns="http://www.w3.org/2000/svg"
   xmlns:svg="http://www.w3.org/2000/svg"><defs
     id="defs1" /><g
     id="layer1"
     transform="translate(-118.00416,-91.810416)"><g
       id="layer1-0"
       transform="translate(118.00416,-6.7520833)"><rect
         style="fill:#ffffff;fill-opacity:1;stroke:#000000;stroke-width:0.264583;stroke-miterlimit:4;stroke-dasharray:none;stroke-dashoffset:0;stroke-opacity:1"
         id="rect815"
         width="158.48541"
         height="198.17291"
         x="0.13229166"
         y="98.694794"
         rx="13.229167"
         ry="13.229167" /><rect
         style="fill:#000000;fill-opacity:1;stroke:none;stroke-width:0.264583;stroke-miterlimit:4;stroke-dasharray:none;stroke-dashoffset:0;stroke-opacity:1"
         id="rect815-5"
         width="153.45834"
         height="193.14583"
         x="2.6458261"
         y="101.20834"
         rx="10.583333"
         ry="10.583333" /><rect
         style="fill:#ffffff;fill-opacity:1;stroke:none;stroke-width:0.264583;stroke-miterlimit:4;stroke-dasharray:none;stroke-dashoffset:0;stroke-opacity:1"
         id="rect815-5-1"
         width="142.875"
         height="182.5625"
         x="7.9374981"
         y="106.5"
         rx="5.2916665"
         ry="5.2916665" /><g
         id="g10"
         transform="matrix(0.35277779,0,0,0.35277779,-984.45114,-310.94902)"><g
           id="g5"
           transform="matrix(0.22653244,0,0,0.2206462,2120.2565,1179.7623)"><path
             d="m 3527.64,1350 c -57.1,0 -111.2,-34.5 -133.7,-91.29 -99.2,-250.17 -154.3,-522.83 -154.3,-808.71 h 576 c 0,285.88 -55.1,558.64 -154.3,808.71 -22.5,56.79 -76.5,91.29 -133.7,91.29"
             id="path2" /><g
             id="g4"><path
               d="m 4085.64,2070 h -288 v -180 c 0,-98.28 17.82,-194.26 52.98,-285.27 33.93,-87.84 82.87,-168.28 145.47,-239.09 v 0 c 2.93,-3.32 5.87,-6.6 8.75,-9.75 81.13,-92 125.8,-210.27 125.8,-333.13 V 774 h 288 v 248.76 c 0,98.28 -17.82,194.26 -52.98,285.27 -33.81,87.55 -82.55,167.75 -144.86,238.39 l -1.95,2.2 c -2.44,2.75 -4.95,5.54 -7.63,8.48 -81,91.96 -125.58,210.14 -125.58,332.89 v 180 z"
               id="path3" /><path
               d="m 4666.14,846 c 0,32.31 -26.19,58.5 -58.5,58.5 -6.74,0 -13.21,-1.14 -19.24,-3.24 L 4274.64,801 3960.88,901.26 c -6.03,2.1 -12.5,3.24 -19.24,3.24 -32.31,0 -58.5,-26.19 -58.5,-58.5 0,-12.18 3.72,-23.49 10.09,-32.85 0.38,-0.52 380.88,-551.39 381.41,-552.15 0.53,0.76 381.03,551.63 381.41,552.15 6.37,9.36 10.09,20.67 10.09,32.85 z"
               id="path4" /></g></g></g></g></g></svg>
