<?xml version="1.0" encoding="UTF-8" standalone="no"?>
<svg
   xmlns:dc="http://purl.org/dc/elements/1.1/"
   xmlns:cc="http://creativecommons.org/ns#"
   xmlns:rdf="http://www.w3.org/1999/02/22-rdf-syntax-ns#"
   xmlns:svg="http://www.w3.org/2000/svg"
   xmlns="http://www.w3.org/2000/svg"
   xmlns:sodipodi="http://sodipodi.sourceforge.net/DTD/sodipodi-0.dtd"
   xmlns:inkscape="http://www.inkscape.org/namespaces/inkscape"
   sodipodi:docname="R10-3i.svg"
   inkscape:version="1.0rc1 (09960d6f05, 2020-04-09)"
   id="svg5908"
   version="1.1"
   viewBox="0 0 23.3172 38.743465"
   height="38.743465mm"
   width="23.3172mm">
  <defs
     id="defs5902">
    <clipPath
       clipPathUnits="userSpaceOnUse"
       id="clipPath4850">
      <path
         d="M 63.125,61.226 H 576.393 V 738 H 63.125 Z"
         id="path4848"
         inkscape:connector-curvature="0" />
    </clipPath>
    <clipPath
       clipPathUnits="userSpaceOnUse"
       id="clipPath4862">
      <path
         d="M 67.241,61.226 H 572.278 V 738 H 67.241 Z"
         id="path4860"
         inkscape:connector-curvature="0" />
    </clipPath>
    <clipPath
       clipPathUnits="userSpaceOnUse"
       id="clipPath4874">
      <path
         d="M 63.125,61.226 H 576.393 V 738 H 63.125 Z"
         id="path4872"
         inkscape:connector-curvature="0" />
    </clipPath>
  </defs>
  <sodipodi:namedview
     inkscape:window-maximized="1"
     inkscape:window-y="0"
     inkscape:window-x="0"
     inkscape:window-height="836"
     inkscape:window-width="1600"
     showgrid="false"
     inkscape:document-rotation="0"
     inkscape:current-layer="layer1"
     inkscape:document-units="mm"
     inkscape:cy="73.215998"
     inkscape:cx="44.063999"
     inkscape:zoom="2.8"
     inkscape:pageshadow="2"
     inkscape:pageopacity="0.0"
     borderopacity="1.0"
     bordercolor="#666666"
     pagecolor="#ffffff"
     id="base" />
  <metadata
     id="metadata5905">
    <rdf:RDF>
      <cc:Work
         rdf:about="">
        <dc:format>image/svg+xml</dc:format>
        <dc:type
           rdf:resource="http://purl.org/dc/dcmitype/StillImage" />
        <dc:title></dc:title>
      </cc:Work>
    </rdf:RDF>
  </metadata>
  <g
     transform="translate(-141.79973,-51.687794)"
     id="layer1"
     inkscape:groupmode="layer"
     inkscape:label="Layer 1">
    <g
       transform="matrix(0.35277777,0,0,-0.35277777,-36.769918,117.10902)"
       id="g4844">
      <g
         id="g4846"
         clip-path="url(#clipPath4850)">
        <g
           id="g4852"
           transform="translate(564.7407,185.196)">
          <path
             d="m 0,0 h -51.02 c -4.025,0 -7.289,-3.262 -7.289,-7.287 v -94.748 c 0,-4.026 3.264,-7.289 7.289,-7.289 H 0 c 4.023,0 7.287,3.263 7.287,7.289 V -7.287 C 7.287,-3.262 4.023,0 0,0"
             style="fill:#ffffff;fill-opacity:1;fill-rule:nonzero;stroke:none"
             id="path4854"
             inkscape:connector-curvature="0" />
        </g>
      </g>
    </g>
    <g
       transform="matrix(0.35277777,0,0,-0.35277777,-36.769918,117.10902)"
       id="g4856">
      <g
         id="g4858"
         clip-path="url(#clipPath4862)">
        <g
           id="g4864"
           transform="translate(564.7407,185.196)">
          <path
             d="m 0,0 h -51.02 c -4.025,0 -7.289,-3.262 -7.289,-7.287 v -94.748 c 0,-4.026 3.264,-7.289 7.289,-7.289 H 0 c 4.023,0 7.287,3.263 7.287,7.289 V -7.287 C 7.287,-3.262 4.023,0 0,0 Z"
             style="fill:none;stroke:#231f20;stroke-width:0.5;stroke-linecap:butt;stroke-linejoin:miter;stroke-miterlimit:4;stroke-dasharray:none;stroke-opacity:1"
             id="path4866"
             inkscape:connector-curvature="0" />
        </g>
      </g>
    </g>
    <g
       transform="matrix(0.35277777,0,0,-0.35277777,-36.769918,117.10902)"
       id="g4868">
      <g
         id="g4870"
         clip-path="url(#clipPath4874)">
        <g
           id="g4876"
           transform="translate(567.9617,181.1291)">
          <path
             d="m 0,0 c -0.862,0.86 -2.006,1.334 -3.221,1.334 h -51.02 c -1.216,0 -2.361,-0.474 -3.22,-1.334 -0.862,-0.861 -1.334,-2.004 -1.334,-3.22 v -94.748 c 0,-1.217 0.472,-2.362 1.334,-3.223 0.859,-0.859 2.004,-1.334 3.22,-1.334 h 51.02 c 1.215,0 2.359,0.475 3.221,1.334 0.859,0.861 1.334,2.006 1.334,3.223 V -3.22 C 1.334,-2.004 0.859,-0.861 0,0"
             style="fill:#231f20;fill-opacity:1;fill-rule:nonzero;stroke:none"
             id="path4878"
             inkscape:connector-curvature="0" />
        </g>
        <path
           d="m 511.899,127.62 h 54.662 v 32.068 h -54.662 z"
           style="fill:#ffffff;fill-opacity:1;fill-rule:nonzero;stroke:none"
           id="path4880"
           inkscape:connector-curvature="0" />
        <g
           id="g4882"
           transform="translate(566.5607,177.909)">
          <path
             d="M 0,0 C 0,0.656 -0.334,1.088 -0.533,1.287 -0.732,1.486 -1.164,1.822 -1.82,1.822 h -51.02 c -0.656,0 -1.089,-0.336 -1.289,-0.535 C -54.328,1.088 -54.662,0.656 -54.662,0 V -16.764 H 0 Z"
             style="fill:#ffffff;fill-opacity:1;fill-rule:nonzero;stroke:none"
             id="path4884"
             inkscape:connector-curvature="0" />
        </g>
        <path
           d="m 511.899,108.668 h 54.662 v 17.493 h -54.662 z"
           style="fill:#ffffff;fill-opacity:1;fill-rule:nonzero;stroke:none"
           id="path4886"
           inkscape:connector-curvature="0" />
        <g
           id="g4888"
           transform="translate(511.8987,83.1611)">
          <path
             d="m 0,0 c 0,-0.659 0.334,-1.09 0.533,-1.289 0.2,-0.2 0.633,-0.534 1.289,-0.534 h 51.02 c 0.656,0 1.088,0.334 1.287,0.534 0.199,0.199 0.533,0.63 0.533,1.289 V 24.05 H 0 Z"
             style="fill:#ffffff;fill-opacity:1;fill-rule:nonzero;stroke:none"
             id="path4890"
             inkscape:connector-curvature="0" />
        </g>
        <g
           id="g4892"
           transform="translate(529.5627,95.2681)">
          <path
             d="M 0,0 V -3.557 H -0.592 V 0 H -1.34 V 0.547 H 0.748 V 0 Z"
             style="fill:#231f20;fill-opacity:1;fill-rule:nonzero;stroke:none"
             id="path4894"
             inkscape:connector-curvature="0" />
        </g>
        <g
           id="g4896"
           transform="translate(532.5137,94.7921)">
          <path
             d="m 0,0 c -0.101,0.361 -0.259,0.519 -0.503,0.519 -0.26,0 -0.418,-0.158 -0.518,-0.504 -0.102,-0.318 -0.131,-0.592 -0.131,-1.053 0,-0.445 0.043,-0.705 0.131,-1.035 0.1,-0.345 0.258,-0.504 0.518,-0.504 0.244,0 0.402,0.159 0.503,0.504 0.102,0.33 0.129,0.576 0.129,1.051 C 0.129,-0.561 0.086,-0.303 0,0 m 0.461,-2.448 c -0.201,-0.49 -0.504,-0.705 -0.964,-0.705 -0.491,0 -0.778,0.215 -0.979,0.705 -0.174,0.403 -0.23,0.791 -0.23,1.426 0,0.619 0.056,1.037 0.23,1.426 0.215,0.488 0.504,0.689 0.979,0.689 0.474,0 0.763,-0.201 0.964,-0.705 0.172,-0.402 0.231,-0.791 0.231,-1.41 0,-0.635 -0.059,-1.037 -0.231,-1.426"
             style="fill:#231f20;fill-opacity:1;fill-rule:nonzero;stroke:none"
             id="path4898"
             inkscape:connector-curvature="0" />
        </g>
        <g
           id="g4900"
           transform="translate(537.6977,94.719)">
          <path
             d="m 0,0 c -0.059,0.405 -0.217,0.592 -0.49,0.592 -0.475,0 -0.649,-0.375 -0.649,-1.441 0,-1.18 0.203,-1.655 0.707,-1.655 0.346,0 0.432,0.287 0.432,0.59 H 0.59 C 0.576,-2.592 0.145,-3.08 -0.432,-3.08 c -0.879,0 -1.267,0.705 -1.267,2.217 0,1.324 0.418,2.029 1.224,2.029 0.331,0 0.62,-0.142 0.805,-0.416 C 0.488,0.549 0.547,0.375 0.59,0 Z"
             style="fill:#231f20;fill-opacity:1;fill-rule:nonzero;stroke:none"
             id="path4902"
             inkscape:connector-curvature="0" />
        </g>
        <g
           id="g4904"
           transform="translate(540.3037,95.239)">
          <path
             d="M 0,0 H -0.606 V -1.037 H 0 c 0.345,0 0.533,0.187 0.533,0.517 C 0.533,-0.201 0.316,0 0,0 M 0.503,-3.528 -0.043,-1.6 h -0.563 v -1.928 h -0.59 v 4.104 h 1.225 c 0.648,0 1.08,-0.434 1.08,-1.096 0,-0.488 -0.201,-0.849 -0.592,-0.992 l 0.592,-2.016 z"
             style="fill:#231f20;fill-opacity:1;fill-rule:nonzero;stroke:none"
             id="path4906"
             inkscape:connector-curvature="0" />
        </g>
        <g
           id="g4908"
           transform="translate(543.7447,94.7921)">
          <path
             d="m 0,0 c -0.102,0.361 -0.26,0.519 -0.504,0.519 -0.26,0 -0.418,-0.158 -0.518,-0.504 -0.101,-0.318 -0.13,-0.592 -0.13,-1.053 0,-0.445 0.043,-0.705 0.13,-1.035 0.1,-0.345 0.258,-0.504 0.518,-0.504 0.244,0 0.402,0.159 0.504,0.504 0.101,0.33 0.129,0.576 0.129,1.051 C 0.129,-0.561 0.086,-0.303 0,0 m 0.461,-2.448 c -0.201,-0.49 -0.504,-0.705 -0.965,-0.705 -0.49,0 -0.777,0.215 -0.979,0.705 -0.173,0.403 -0.23,0.791 -0.23,1.426 0,0.619 0.057,1.037 0.23,1.426 0.215,0.488 0.504,0.689 0.979,0.689 0.475,0 0.764,-0.201 0.965,-0.705 0.172,-0.402 0.23,-0.791 0.23,-1.41 0,-0.635 -0.058,-1.037 -0.23,-1.426"
             style="fill:#231f20;fill-opacity:1;fill-rule:nonzero;stroke:none"
             id="path4910"
             inkscape:connector-curvature="0" />
        </g>
        <g
           id="g4912"
           transform="translate(546.2077,91.639)">
          <path
             d="m 0,0 c -0.721,0 -1.153,0.604 -1.153,1.281 h 0.577 c 0,-0.345 0.172,-0.705 0.576,-0.705 0.316,0 0.574,0.287 0.574,0.619 0,0.231 -0.086,0.403 -0.33,0.59 -0.086,0.086 0.144,-0.072 -0.691,0.491 -0.332,0.228 -0.504,0.546 -0.504,0.906 0,0.59 0.461,1.064 1.05,1.064 0.577,0 1.024,-0.445 1.038,-1.064 H 0.574 C 0.56,3.469 0.359,3.656 0.099,3.656 -0.174,3.656 -0.391,3.455 -0.391,3.182 -0.391,2.981 -0.303,2.865 0,2.692 0.791,2.231 1.137,1.785 1.137,1.195 1.137,0.533 0.633,0 0,0"
             style="fill:#231f20;fill-opacity:1;fill-rule:nonzero;stroke:none"
             id="path4914"
             inkscape:connector-curvature="0" />
        </g>
        <g
           id="g4916"
           transform="translate(548.9847,91.639)">
          <path
             d="m 0,0 c -0.719,0 -1.15,0.604 -1.15,1.281 h 0.574 c 0,-0.345 0.174,-0.705 0.576,-0.705 0.317,0 0.576,0.287 0.576,0.619 0,0.231 -0.086,0.403 -0.33,0.59 -0.088,0.086 0.143,-0.072 -0.691,0.491 -0.332,0.228 -0.504,0.546 -0.504,0.906 0,0.59 0.461,1.064 1.051,1.064 0.576,0 1.021,-0.445 1.037,-1.064 H 0.576 C 0.563,3.469 0.361,3.656 0.102,3.656 -0.172,3.656 -0.389,3.455 -0.389,3.182 -0.389,2.981 -0.303,2.865 0,2.692 0.793,2.231 1.139,1.785 1.139,1.195 1.139,0.533 0.635,0 0,0"
             style="fill:#231f20;fill-opacity:1;fill-rule:nonzero;stroke:none"
             id="path4918"
             inkscape:connector-curvature="0" />
        </g>
        <g
           id="g4920"
           transform="translate(528.8427,84.625)">
          <path
             d="M 0,0 V 2.303 L -0.764,0 -1.526,2.303 V 0 h -0.592 v 4.104 h 0.592 L -0.764,1.799 0,4.104 H 0.589 V 0 Z"
             style="fill:#231f20;fill-opacity:1;fill-rule:nonzero;stroke:none"
             id="path4922"
             inkscape:connector-curvature="0" />
        </g>
        <g
           id="g4924"
           transform="translate(531.4497,85.9501)">
          <path
             d="m 0,0 c -0.303,0.273 -0.836,0.201 -0.836,-0.332 0,-0.373 0.201,-0.532 0.49,-0.532 0.201,0 0.346,0.086 0.346,0.274 z m 0.027,-1.325 v 0.086 c -0.099,-0.086 -0.316,-0.128 -0.504,-0.128 -0.503,0 -0.935,0.445 -0.935,1.05 0,0.85 0.721,1.223 1.412,0.893 -0.016,0.359 -0.016,0.633 -0.477,0.633 -0.257,0 -0.517,-0.215 -0.619,-0.375 L -1.24,1.396 c 0.246,0.231 0.549,0.346 0.836,0.346 0.793,0 0.965,-0.576 0.965,-1.067 v -2 z"
             style="fill:#231f20;fill-opacity:1;fill-rule:nonzero;stroke:none"
             id="path4926"
             inkscape:connector-curvature="0" />
        </g>
        <g
           id="g4928"
           transform="translate(533.7527,87.1291)">
          <path
             d="m 0,0 c -0.231,0.03 -0.461,-0.099 -0.461,-0.675 v -0.678 c 0,-0.459 0.217,-0.676 0.447,-0.676 0.389,0 0.475,0.576 0.475,1.008 C 0.461,-0.287 0.259,-0.013 0,0 m 0.058,-2.576 c -0.332,0 -0.533,0.115 -0.533,0.115 v -0.921 l -0.576,-0.274 v 4.147 h 0.576 V 0.346 c 0.129,0.115 0.244,0.203 0.504,0.217 0.893,0.029 1.008,-0.85 1.008,-1.584 0,-0.705 -0.158,-1.555 -0.979,-1.555"
             style="fill:#231f20;fill-opacity:1;fill-rule:nonzero;stroke:none"
             id="path4930"
             inkscape:connector-curvature="0" />
        </g>
        <g
           id="g4932"
           transform="translate(535.4087,84.625)">
          <path
             d="M 0,0 V 3.858 L 0.561,4.176 V 0 Z"
             style="fill:#231f20;fill-opacity:1;fill-rule:nonzero;stroke:none"
             id="path4934"
             inkscape:connector-curvature="0" />
        </g>
        <g
           id="g4936"
           transform="translate(537.6257,87.159)">
          <path
             d="M 0,0 C -0.418,0 -0.475,-0.446 -0.475,-0.748 H 0.461 C 0.461,-0.461 0.418,0 0,0 m -0.461,-1.268 c 0.029,-0.33 0.129,-0.777 0.461,-0.777 0.23,0 0.418,0.217 0.474,0.476 L 0.922,-1.901 C 0.777,-2.289 0.504,-2.592 0,-2.592 c -0.864,0 -1.037,0.793 -1.037,1.57 0,0.662 0.173,1.555 1.037,1.555 0.994,0 1.051,-1.067 1.037,-1.801 z"
             style="fill:#231f20;fill-opacity:1;fill-rule:nonzero;stroke:none"
             id="path4938"
             inkscape:connector-curvature="0" />
        </g>
        <g
           id="g4940"
           transform="translate(542.9377,87.735)">
          <path
             d="m 0,0 c -0.099,0.287 -0.273,0.418 -0.533,0.418 h -0.488 v -2.951 h 0.488 c 0.346,0 0.533,0.273 0.592,0.59 0.027,0.259 0.057,0.546 0.057,0.863 C 0.116,-0.619 0.073,-0.172 0,0 M 0.102,-2.924 C -0.043,-3.053 -0.244,-3.11 -0.474,-3.11 h -1.137 v 4.104 h 1.051 c 0.345,0 0.517,-0.043 0.662,-0.158 0.244,-0.174 0.418,-0.49 0.488,-0.908 0.059,-0.303 0.102,-0.663 0.102,-0.979 0,-0.951 -0.188,-1.555 -0.59,-1.873"
             style="fill:#231f20;fill-opacity:1;fill-rule:nonzero;stroke:none"
             id="path4942"
             inkscape:connector-curvature="0" />
        </g>
        <g
           id="g4944"
           transform="translate(545.6317,86.9581)">
          <path
             d="m 0,0 c -0.116,0.101 -0.203,0.171 -0.332,0.171 -0.33,0 -0.375,-0.214 -0.375,-0.589 v -1.915 h -0.561 v 2.995 h 0.561 V 0.517 c 0.144,0.145 0.203,0.217 0.404,0.217 0.201,0 0.287,-0.086 0.389,-0.201 z"
             style="fill:#231f20;fill-opacity:1;fill-rule:nonzero;stroke:none"
             id="path4946"
             inkscape:connector-curvature="0" />
        </g>
        <path
           d="m 546.163,87.62 h 0.576 v -2.995 h -0.576 z m 0.289,0.576 c -0.158,0 -0.289,0.129 -0.289,0.287 0,0.174 0.131,0.303 0.289,0.303 0.172,0 0.303,-0.129 0.303,-0.303 0,-0.158 -0.131,-0.287 -0.303,-0.287"
           style="fill:#231f20;fill-opacity:1;fill-rule:nonzero;stroke:none"
           id="path4948"
           inkscape:connector-curvature="0" />
        <g
           id="g4950"
           transform="translate(548.6387,84.625)">
          <path
             d="m 0,0 h -0.474 l -0.965,2.995 h 0.576 l 0.619,-2.016 0.606,2.016 h 0.603 z"
             style="fill:#231f20;fill-opacity:1;fill-rule:nonzero;stroke:none"
             id="path4952"
             inkscape:connector-curvature="0" />
        </g>
        <g
           id="g4954"
           transform="translate(550.9727,87.159)">
          <path
             d="M 0,0 C -0.418,0 -0.476,-0.446 -0.476,-0.748 H 0.459 C 0.459,-0.461 0.416,0 0,0 m -0.461,-1.268 c 0.028,-0.33 0.129,-0.777 0.461,-0.777 0.229,0 0.416,0.217 0.475,0.476 L 0.92,-1.901 C 0.778,-2.289 0.504,-2.592 0,-2.592 c -0.865,0 -1.037,0.793 -1.037,1.57 0,0.662 0.172,1.555 1.037,1.555 0.993,0 1.051,-1.067 1.036,-1.801 z"
             style="fill:#231f20;fill-opacity:1;fill-rule:nonzero;stroke:none"
             id="path4956"
             inkscape:connector-curvature="0" />
        </g>
        <g
           id="g4958"
           transform="translate(524.9597,104.336)">
          <path
             d="M 0,0 H -0.604 V -1.166 H 0 c 0.345,0 0.533,0.215 0.533,0.59 C 0.533,-0.23 0.318,0 0,0 m 0.029,-1.728 h -0.633 v -1.799 h -0.59 v 4.104 h 1.223 c 0.648,0 1.08,-0.461 1.08,-1.153 0,-0.748 -0.389,-1.152 -1.08,-1.152"
             style="fill:#231f20;fill-opacity:1;fill-rule:nonzero;stroke:none"
             id="path4960"
             inkscape:connector-curvature="0" />
        </g>
        <g
           id="g4962"
           transform="translate(528.7757,101.313)">
          <path
             d="m 0,0 c -0.201,-0.332 -0.59,-0.576 -0.978,-0.576 -0.405,0 -0.807,0.23 -1.008,0.576 -0.115,0.215 -0.16,0.389 -0.16,0.719 V 3.6 h 0.591 V 0.648 C -1.555,0.26 -1.324,0 -0.978,0 c 0.316,0 0.547,0.26 0.547,0.648 V 3.6 H 0.158 V 0.719 C 0.158,0.389 0.115,0.215 0,0"
             style="fill:#231f20;fill-opacity:1;fill-rule:nonzero;stroke:none"
             id="path4964"
             inkscape:connector-curvature="0" />
        </g>
        <g
           id="g4966"
           transform="translate(530.7777,100.737)">
          <path
             d="m 0,0 c -0.721,0 -1.152,0.605 -1.152,1.281 h 0.576 c 0,-0.346 0.172,-0.705 0.576,-0.705 0.317,0 0.576,0.287 0.576,0.619 0,0.231 -0.088,0.402 -0.332,0.59 -0.086,0.086 0.145,-0.072 -0.691,0.49 -0.332,0.231 -0.504,0.547 -0.504,0.906 0,0.59 0.461,1.067 1.051,1.067 0.576,0 1.023,-0.447 1.037,-1.067 H 0.576 C 0.561,3.471 0.359,3.656 0.1,3.656 -0.174,3.656 -0.389,3.455 -0.389,3.181 -0.389,2.98 -0.303,2.865 0,2.691 0.791,2.232 1.137,1.785 1.137,1.195 1.137,0.533 0.633,0 0,0"
             style="fill:#231f20;fill-opacity:1;fill-rule:nonzero;stroke:none"
             id="path4968"
             inkscape:connector-curvature="0" />
        </g>
        <g
           id="g4970"
           transform="translate(534.3187,100.8091)">
          <path
             d="M 0,0 V 1.858 H -1.123 V 0 h -0.59 v 4.104 h 0.59 V 2.434 H 0 v 1.67 H 0.59 V 0 Z"
             style="fill:#231f20;fill-opacity:1;fill-rule:nonzero;stroke:none"
             id="path4972"
             inkscape:connector-curvature="0" />
        </g>
        <g
           id="g4974"
           transform="translate(539.0277,102.6671)">
          <path
             d="M 0,0 H -0.592 V -1.282 H 0 c 0.33,0 0.547,0.231 0.547,0.59 C 0.547,-0.303 0.301,0 0,0 M 0.027,1.669 H -0.592 V 0.576 h 0.619 c 0.274,0 0.448,0.23 0.448,0.603 0,0.346 -0.129,0.49 -0.448,0.49 m 0,-3.527 h -1.209 v 4.104 h 1.297 c 0.547,0 0.936,-0.432 0.936,-1.067 0,-0.373 -0.102,-0.547 -0.432,-0.892 0.317,-0.26 0.504,-0.604 0.504,-1.022 0,-0.619 -0.49,-1.123 -1.096,-1.123"
             style="fill:#231f20;fill-opacity:1;fill-rule:nonzero;stroke:none"
             id="path4976"
             inkscape:connector-curvature="0" />
        </g>
        <g
           id="g4978"
           transform="translate(542.9867,101.313)">
          <path
             d="m 0,0 c -0.201,-0.332 -0.59,-0.576 -0.978,-0.576 -0.405,0 -0.807,0.23 -1.008,0.576 -0.115,0.215 -0.16,0.389 -0.16,0.719 V 3.6 h 0.591 V 0.648 C -1.555,0.26 -1.324,0 -0.978,0 c 0.316,0 0.546,0.26 0.546,0.648 V 3.6 h 0.59 V 0.719 C 0.158,0.389 0.115,0.215 0,0"
             style="fill:#231f20;fill-opacity:1;fill-rule:nonzero;stroke:none"
             id="path4980"
             inkscape:connector-curvature="0" />
        </g>
        <g
           id="g4982"
           transform="translate(545.0587,104.3661)">
          <path
             d="M 0,0 V -3.557 H -0.589 V 0 H -1.338 V 0.547 H 0.75 V 0 Z"
             style="fill:#231f20;fill-opacity:1;fill-rule:nonzero;stroke:none"
             id="path4984"
             inkscape:connector-curvature="0" />
        </g>
        <g
           id="g4986"
           transform="translate(547.3927,104.3661)">
          <path
             d="M 0,0 V -3.557 H -0.591 V 0 H -1.339 V 0.547 H 0.748 V 0 Z"
             style="fill:#231f20;fill-opacity:1;fill-rule:nonzero;stroke:none"
             id="path4988"
             inkscape:connector-curvature="0" />
        </g>
        <g
           id="g4990"
           transform="translate(550.3447,103.889)">
          <path
             d="m 0,0 c -0.102,0.361 -0.26,0.52 -0.504,0.52 -0.26,0 -0.418,-0.159 -0.52,-0.504 -0.1,-0.317 -0.129,-0.59 -0.129,-1.051 0,-0.447 0.043,-0.707 0.129,-1.037 0.102,-0.346 0.26,-0.504 0.52,-0.504 0.244,0 0.402,0.158 0.504,0.504 0.099,0.33 0.128,0.576 0.128,1.051 C 0.128,-0.56 0.085,-0.301 0,0 m 0.46,-2.447 c -0.203,-0.488 -0.503,-0.705 -0.964,-0.705 -0.491,0 -0.778,0.217 -0.981,0.705 -0.172,0.404 -0.23,0.793 -0.23,1.426 0,0.619 0.058,1.037 0.23,1.425 0.217,0.489 0.504,0.692 0.981,0.692 0.474,0 0.761,-0.203 0.964,-0.707 0.172,-0.403 0.231,-0.791 0.231,-1.41 0,-0.633 -0.059,-1.037 -0.231,-1.426"
             style="fill:#231f20;fill-opacity:1;fill-rule:nonzero;stroke:none"
             id="path4992"
             inkscape:connector-curvature="0" />
        </g>
        <g
           id="g4994"
           transform="translate(553.7137,100.8091)">
          <path
             d="M 0,0 -1.268,2.75 V 0 h -0.59 v 4.104 h 0.59 l 1.123,-2.463 v 2.463 h 0.59 L 0.445,0 Z"
             style="fill:#231f20;fill-opacity:1;fill-rule:nonzero;stroke:none"
             id="path4996"
             inkscape:connector-curvature="0" />
        </g>
        <g
           id="g4998"
           transform="translate(557.0667,100.764)">
          <path
             d="M 0,0 3.649,-2.469 0,-4.941 c -0.162,-0.108 -0.381,-0.067 -0.49,0.094 -0.074,0.107 -0.061,0.218 -0.027,0.351 l 0.322,1.07 h -37.996 v 1.912 h 37.996 l -0.315,1.055 c -0.041,0.145 -0.056,0.252 0.02,0.365 C -0.381,0.067 -0.162,0.11 0,0"
             style="fill:#231f20;fill-opacity:1;fill-rule:evenodd;stroke:none"
             id="path5000"
             inkscape:connector-curvature="0" />
        </g>
        <path
           d="m 511.899,108.668 h 54.662 v 17.493 h -54.662 z"
           style="fill:#ffffff;fill-opacity:1;fill-rule:nonzero;stroke:none"
           id="path5002"
           inkscape:connector-curvature="0" />
        <path
           d="m 511.899,127.62 h 54.662 v 32.068 h -54.662 z"
           style="fill:#ffffff;fill-opacity:1;fill-rule:nonzero;stroke:none"
           id="path5004"
           inkscape:connector-curvature="0" />
        <g
           id="g5006"
           transform="translate(566.5607,177.909)">
          <path
             d="M 0,0 C 0,0.656 -0.334,1.088 -0.533,1.287 -0.732,1.486 -1.164,1.822 -1.82,1.822 h -51.02 c -0.656,0 -1.089,-0.336 -1.289,-0.535 C -54.328,1.088 -54.662,0.656 -54.662,0 V -16.764 H 0 Z"
             style="fill:#ffffff;fill-opacity:1;fill-rule:nonzero;stroke:none"
             id="path5008"
             inkscape:connector-curvature="0" />
        </g>
        <path
           d="m 517.001,176.032 h 9.33 V 164.37 h -9.33 z"
           style="fill:#231f20;fill-opacity:1;fill-rule:evenodd;stroke:none"
           id="path5010"
           inkscape:connector-curvature="0" />
        <g
           id="g5012"
           transform="translate(522.1977,174.8251)">
          <path
             d="m 0,0 c -0.377,0 -0.684,-0.307 -0.684,-0.684 0,-0.375 0.307,-0.682 0.684,-0.682 0.377,0 0.682,0.307 0.682,0.682 C 0.682,-0.307 0.377,0 0,0 M 2.066,-4.305 0.635,-3.35 c -0.067,0.279 -0.34,1.522 -0.891,1.809 -0.547,0.361 -2.558,-1.121 -2.57,-1.133 v -2.162 l 0.437,0.076 0.17,1.725 c 0.164,0.033 0.328,0.066 0.494,0.099 -0.359,-0.928 -0.492,-1.822 -0.285,-2.412 l -0.873,-3.564 0.588,-0.418 1.272,3.3 0.587,-0.627 0.815,-2.484 0.777,0.285 -0.701,2.617 -0.814,1.459 0.312,1.079 0.332,-0.434 1.555,-0.512 z"
             style="fill:#ffffff;fill-opacity:1;fill-rule:evenodd;stroke:none"
             id="path5014"
             inkscape:connector-curvature="0" />
        </g>
        <path
           d="m 517.001,156.811 h 9.33 v -11.662 h -9.33 z"
           style="fill:#231f20;fill-opacity:1;fill-rule:evenodd;stroke:none"
           id="path5016"
           inkscape:connector-curvature="0" />
        <path
           d="m 517.001,142.104 h 9.33 v -10.705 h -9.33 z"
           style="fill:#231f20;fill-opacity:1;fill-rule:evenodd;stroke:none"
           id="path5018"
           inkscape:connector-curvature="0" />
        <g
           id="g5020"
           transform="translate(519.5957,145.674)">
          <path
             d="m 0,0 c 0.098,0.118 0.209,0.246 0.219,0.453 v 1.516 c 0,0.66 -0.222,0.774 -0.439,0.975 -0.36,0.334 -0.305,0.808 -0.285,1.42 0.054,1.695 0.119,2.716 0.125,4.3 0.002,0.202 0.166,0.368 0.367,0.368 0.201,0 0.367,-0.166 0.367,-0.368 l 0.125,-2.57 0.166,0.004 c 0.027,1.174 0.08,2.359 0.08,3.531 0,0.203 0.166,0.367 0.367,0.367 0.203,0 0.367,-0.164 0.367,-0.367 V 9.619 L 1.51,6.094 h 0.17 c 0.047,1.33 0.143,2.69 0.143,4.018 0,0.203 0.164,0.367 0.367,0.367 0.201,0 0.365,-0.164 0.365,-0.367 0,0 0,-0.004 0.002,-0.004 L 2.635,6.094 h 0.223 c 0.012,1.186 0.025,2.371 0.039,3.555 0.008,0.195 0.172,0.347 0.365,0.347 0.197,0 0.363,-0.158 0.367,-0.357 l 0.18,-4.727 c 0,-0.087 0.078,-0.152 0.166,-0.152 0.049,0 0.162,0.035 0.25,0.17 L 5.053,6.129 C 5.366,6.571 5.786,6.657 6.276,6.471 5.971,5.899 5.344,4.491 4.708,3.698 4.372,3.172 3.247,2.647 3.247,1.971 V 0.59 C 3.247,0.305 3.526,-0.015 3.514,0 Z"
             style="fill:#f48412;fill-opacity:1;fill-rule:evenodd;stroke:none"
             id="path5022"
             inkscape:connector-curvature="0" />
        </g>
        <path
           d="m 517.001,122.26 h 9.33 v -11.662 h -9.33 z"
           style="fill:#231f20;fill-opacity:1;fill-rule:evenodd;stroke:none"
           id="path5024"
           inkscape:connector-curvature="0" />
        <g
           id="g5026"
           transform="translate(519.5957,111.1241)">
          <path
             d="m 0,0 c 0.098,0.119 0.209,0.246 0.219,0.453 v 1.515 c 0,0.66 -0.222,0.774 -0.439,0.975 -0.36,0.334 -0.305,0.808 -0.285,1.42 0.054,1.695 0.119,2.717 0.125,4.301 0.002,0.201 0.166,0.367 0.367,0.367 0.201,0 0.367,-0.166 0.367,-0.367 L 0.479,6.093 0.645,6.097 c 0.027,1.174 0.08,2.36 0.08,3.531 0,0.204 0.166,0.368 0.367,0.368 0.203,0 0.367,-0.164 0.367,-0.368 V 9.619 L 1.51,6.093 h 0.17 c 0.047,1.33 0.143,2.69 0.143,4.02 0,0.201 0.164,0.365 0.367,0.365 0.201,0 0.365,-0.164 0.365,-0.365 0,0 0,-0.006 0.002,-0.006 L 2.635,6.093 h 0.223 c 0.012,1.186 0.025,2.371 0.039,3.555 0.008,0.195 0.172,0.348 0.365,0.348 0.197,0 0.363,-0.159 0.367,-0.358 l 0.18,-4.726 c 0,-0.088 0.078,-0.153 0.166,-0.153 0.049,0 0.162,0.035 0.25,0.17 L 5.053,6.128 C 5.366,6.57 5.786,6.656 6.276,6.47 5.971,5.898 5.344,4.49 4.708,3.697 4.372,3.173 3.247,2.646 3.247,1.972 V 0.589 C 3.247,0.304 3.526,-0.016 3.514,0 Z"
             style="fill:#f48412;fill-opacity:1;fill-rule:evenodd;stroke:none"
             id="path5028"
             inkscape:connector-curvature="0" />
        </g>
        <path
           d="m 521.473,159.19 h 0.356 v -1.951 h -0.356 z"
           style="fill:#231f20;fill-opacity:1;fill-rule:evenodd;stroke:none"
           id="path5030"
           inkscape:connector-curvature="0" />
        <g
           id="g5032"
           transform="translate(528.0237,158.727)">
          <path
             d="m 0,0 0.246,-0.256 -1.404,-1.355 -0.246,0.256 z"
             style="fill:#231f20;fill-opacity:1;fill-rule:evenodd;stroke:none"
             id="path5034"
             inkscape:connector-curvature="0" />
        </g>
        <g
           id="g5036"
           transform="translate(515.1727,158.456)">
          <path
             d="M 0,0 0.25,0.252 1.631,-1.129 1.379,-1.379 Z"
             style="fill:#231f20;fill-opacity:1;fill-rule:evenodd;stroke:none"
             id="path5038"
             inkscape:connector-curvature="0" />
        </g>
        <g
           id="g5040"
           transform="translate(528.0237,143.217)">
          <path
             d="M 0,0 0.246,0.254 -1.158,1.61 -1.404,1.356 Z"
             style="fill:#231f20;fill-opacity:1;fill-rule:evenodd;stroke:none"
             id="path5042"
             inkscape:connector-curvature="0" />
        </g>
        <g
           id="g5044"
           transform="translate(515.1727,143.487)">
          <path
             d="M 0,0 0.25,-0.25 1.631,1.129 1.379,1.381 Z"
             style="fill:#231f20;fill-opacity:1;fill-rule:evenodd;stroke:none"
             id="path5046"
             inkscape:connector-curvature="0" />
        </g>
        <path
           d="m 526.929,151.297 h 1.951 v -0.355 h -1.951 z"
           style="fill:#231f20;fill-opacity:1;fill-rule:evenodd;stroke:none"
           id="path5048"
           inkscape:connector-curvature="0" />
        <g
           id="g5050"
           transform="translate(524.5627,159.174)">
          <path
             d="m 0,0 0.323,-0.15 -0.825,-1.77 -0.322,0.151 z"
             style="fill:#231f20;fill-opacity:1;fill-rule:evenodd;stroke:none"
             id="path5052"
             inkscape:connector-curvature="0" />
        </g>
        <g
           id="g5054"
           transform="translate(518.7387,159.174)">
          <path
             d="m 0,0 -0.32,-0.15 0.824,-1.77 0.32,0.151 z"
             style="fill:#231f20;fill-opacity:1;fill-rule:evenodd;stroke:none"
             id="path5056"
             inkscape:connector-curvature="0" />
        </g>
        <g
           id="g5058"
           transform="translate(527.0947,153.7681)">
          <path
             d="M 0,0 -0.151,0.32 1.619,1.145 1.767,0.824 Z"
             style="fill:#231f20;fill-opacity:1;fill-rule:evenodd;stroke:none"
             id="path5060"
             inkscape:connector-curvature="0" />
        </g>
        <g
           id="g5062"
           transform="translate(526.9437,147.883)">
          <path
             d="M 0,0 0.151,0.323 1.918,-0.502 1.77,-0.824 Z"
             style="fill:#231f20;fill-opacity:1;fill-rule:evenodd;stroke:none"
             id="path5064"
             inkscape:connector-curvature="0" />
        </g>
        <g
           id="g5066"
           transform="translate(516.2977,153.7681)">
          <path
             d="M 0,0 0.148,0.32 -1.619,1.145 -1.77,0.824 Z"
             style="fill:#231f20;fill-opacity:1;fill-rule:evenodd;stroke:none"
             id="path5068"
             inkscape:connector-curvature="0" />
        </g>
        <g
           id="g5070"
           transform="translate(516.4457,147.883)">
          <path
             d="m 0,0 -0.148,0.323 -1.77,-0.825 0.151,-0.322 z"
             style="fill:#231f20;fill-opacity:1;fill-rule:evenodd;stroke:none"
             id="path5072"
             inkscape:connector-curvature="0" />
        </g>
        <path
           d="m 514.468,151.297 h 1.951 v -0.355 h -1.951 z"
           style="fill:#231f20;fill-opacity:1;fill-rule:evenodd;stroke:none"
           id="path5074"
           inkscape:connector-curvature="0" />
        <g
           id="g5076"
           transform="translate(532.0477,174.016)">
          <path
             d="m 0,0 c -0.131,-0.115 -0.317,-0.187 -0.534,-0.187 -0.576,0 -0.878,0.375 -0.906,1.095 h 0.531 c 0,-0.16 0.016,-0.216 0.043,-0.302 0.045,-0.159 0.174,-0.26 0.332,-0.26 0.202,0 0.332,0.158 0.332,0.418 0,0.359 -0.13,0.662 -0.447,1.037 -0.187,0.215 -0.316,0.373 -0.359,0.432 -0.231,0.273 -0.332,0.56 -0.332,0.849 0,0.561 0.346,0.965 0.836,0.965 C 0,4.047 0.273,3.729 0.33,3.082 h -0.532 c -0.015,0.317 -0.101,0.445 -0.289,0.445 -0.201,0 -0.316,-0.171 -0.316,-0.445 0,-0.187 0.072,-0.332 0.287,-0.562 C -0.073,2.016 0,1.916 0.129,1.656 0.244,1.397 0.33,1.051 0.33,0.764 0.33,0.475 0.201,0.174 0,0"
             style="fill:#231f20;fill-opacity:1;fill-rule:nonzero;stroke:none"
             id="path5078"
             inkscape:connector-curvature="0" />
        </g>
        <g
           id="g5080"
           transform="translate(533.7307,177.471)">
          <path
             d="M 0,0 V -3.57 H -0.517 V 0 H -1.021 V 0.533 H 0.533 V 0 Z"
             style="fill:#231f20;fill-opacity:1;fill-rule:nonzero;stroke:none"
             id="path5082"
             inkscape:connector-curvature="0" />
        </g>
        <g
           id="g5084"
           transform="translate(535.6317,176.608)">
          <path
             d="m 0,0 -0.231,-1.08 h 0.447 z m 0.562,-2.707 -0.23,1.094 h -0.678 l -0.231,-1.094 h -0.531 l 0.834,4.103 h 0.533 l 0.85,-4.103 z"
             style="fill:#231f20;fill-opacity:1;fill-rule:nonzero;stroke:none"
             id="path5086"
             inkscape:connector-curvature="0" />
        </g>
        <g
           id="g5088"
           transform="translate(538.0787,177.471)">
          <path
             d="m 0,0 h -0.258 v -1.123 h 0.346 c 0.287,0 0.373,0.131 0.373,0.52 C 0.461,-0.142 0.361,0 0,0 M 0.562,-1.525 0.98,-3.57 H 0.447 l -0.461,1.916 H -0.258 V -3.57 h -0.519 v 4.103 h 0.806 c 0.633,0 0.965,-0.388 0.965,-1.152 0,-0.459 -0.129,-0.719 -0.432,-0.906"
             style="fill:#231f20;fill-opacity:1;fill-rule:nonzero;stroke:none"
             id="path5090"
             inkscape:connector-curvature="0" />
        </g>
        <g
           id="g5092"
           transform="translate(540.4267,177.471)">
          <path
             d="M 0,0 V -3.57 H -0.518 V 0 H -1.022 V 0.533 H 0.533 V 0 Z"
             style="fill:#231f20;fill-opacity:1;fill-rule:nonzero;stroke:none"
             id="path5094"
             inkscape:connector-curvature="0" />
        </g>
        <g
           id="g5096"
           transform="translate(545.1627,174.319)">
          <path
             d="m 0,0 c -0.072,-0.303 -0.359,-0.49 -0.719,-0.49 -0.418,0 -0.678,0.173 -0.807,0.546 -0.115,0.346 -0.173,0.909 -0.173,1.571 0,0.375 0.045,0.922 0.101,1.238 0.115,0.633 0.36,0.879 0.85,0.879 0.461,0 0.764,-0.289 0.806,-0.793 h -0.533 c -0.013,0.174 -0.115,0.26 -0.259,0.26 -0.186,0 -0.288,-0.129 -0.346,-0.405 -0.071,-0.33 -0.086,-0.632 -0.086,-1.179 0,-0.576 0.015,-0.821 0.086,-1.166 0.058,-0.274 0.16,-0.418 0.332,-0.418 0.187,0 0.273,0.144 0.273,0.504 H 0.058 C 0.058,0.23 0.043,0.144 0,0"
             style="fill:#231f20;fill-opacity:1;fill-rule:nonzero;stroke:none"
             id="path5098"
             inkscape:connector-curvature="0" />
        </g>
        <g
           id="g5100"
           transform="translate(546.7757,177.471)">
          <path
             d="m 0,0 h -0.26 v -1.123 h 0.346 c 0.289,0 0.375,0.131 0.375,0.52 C 0.461,-0.142 0.36,0 0,0 M 0.561,-1.525 0.979,-3.57 H 0.447 l -0.461,1.916 H -0.26 V -3.57 h -0.517 v 4.103 h 0.806 c 0.633,0 0.965,-0.388 0.965,-1.152 0,-0.459 -0.131,-0.719 -0.433,-0.906"
             style="fill:#231f20;fill-opacity:1;fill-rule:nonzero;stroke:none"
             id="path5102"
             inkscape:connector-curvature="0" />
        </g>
        <g
           id="g5104"
           transform="translate(549.2527,177.5301)">
          <path
             d="m 0,0 c -0.475,0 -0.418,-1.281 -0.418,-1.571 0,-0.273 -0.057,-1.597 0.418,-1.597 0.461,0 0.402,1.324 0.402,1.597 C 0.402,-1.238 0.388,0 0,0 m 0,-3.701 c -1.022,0 -0.951,1.455 -0.951,2.13 0,0.708 -0.057,2.104 0.951,2.104 1.008,0 0.949,-1.412 0.949,-2.104 0,-0.675 0.059,-2.13 -0.949,-2.13"
             style="fill:#231f20;fill-opacity:1;fill-rule:nonzero;stroke:none"
             id="path5106"
             inkscape:connector-curvature="0" />
        </g>
        <g
           id="g5108"
           transform="translate(552.1607,174.016)">
          <path
             d="m 0,0 c -0.129,-0.115 -0.316,-0.187 -0.533,-0.187 -0.576,0 -0.877,0.375 -0.907,1.095 h 0.534 c 0,-0.16 0.013,-0.216 0.043,-0.302 0.043,-0.159 0.172,-0.26 0.33,-0.26 0.201,0 0.332,0.158 0.332,0.418 0,0.359 -0.131,0.662 -0.448,1.037 -0.187,0.215 -0.316,0.373 -0.359,0.432 -0.23,0.273 -0.332,0.56 -0.332,0.849 0,0.561 0.346,0.965 0.836,0.965 0.504,0 0.777,-0.318 0.836,-0.965 h -0.533 c -0.016,0.317 -0.102,0.445 -0.289,0.445 -0.201,0 -0.317,-0.171 -0.317,-0.445 0,-0.187 0.073,-0.332 0.289,-0.562 C -0.072,2.016 0,1.916 0.129,1.656 0.244,1.397 0.332,1.051 0.332,0.764 0.332,0.475 0.201,0.174 0,0"
             style="fill:#231f20;fill-opacity:1;fill-rule:nonzero;stroke:none"
             id="path5110"
             inkscape:connector-curvature="0" />
        </g>
        <g
           id="g5112"
           transform="translate(554.3347,174.016)">
          <path
             d="m 0,0 c -0.129,-0.115 -0.317,-0.187 -0.533,-0.187 -0.577,0 -0.877,0.375 -0.907,1.095 h 0.534 c 0,-0.16 0.013,-0.216 0.042,-0.302 0.043,-0.159 0.172,-0.26 0.331,-0.26 0.203,0 0.332,0.158 0.332,0.418 0,0.359 -0.129,0.662 -0.448,1.037 -0.185,0.215 -0.316,0.373 -0.359,0.432 -0.231,0.273 -0.33,0.56 -0.33,0.849 0,0.561 0.344,0.965 0.834,0.965 0.504,0 0.777,-0.318 0.836,-0.965 h -0.533 c -0.014,0.317 -0.102,0.445 -0.289,0.445 -0.202,0 -0.317,-0.171 -0.317,-0.445 0,-0.187 0.072,-0.332 0.289,-0.562 C -0.073,2.016 0,1.916 0.129,1.656 0.244,1.397 0.332,1.051 0.332,0.764 0.332,0.475 0.201,0.174 0,0"
             style="fill:#231f20;fill-opacity:1;fill-rule:nonzero;stroke:none"
             id="path5114"
             inkscape:connector-curvature="0" />
        </g>
        <path
           d="m 555.313,178.004 h 0.52 v -4.103 h -0.52 z"
           style="fill:#231f20;fill-opacity:1;fill-rule:nonzero;stroke:none"
           id="path5116"
           inkscape:connector-curvature="0" />
        <g
           id="g5118"
           transform="translate(558.0627,173.9011)">
          <path
             d="M 0,0 -0.804,2.433 V 0 h -0.52 v 4.103 h 0.52 l 0.732,-2.045 v 2.045 h 0.52 L 0.448,0 Z"
             style="fill:#231f20;fill-opacity:1;fill-rule:nonzero;stroke:none"
             id="path5120"
             inkscape:connector-curvature="0" />
        </g>
        <g
           id="g5122"
           transform="translate(560.9867,174.3051)">
          <path
             d="m 0,0 c -0.086,-0.289 -0.359,-0.476 -0.734,-0.476 -0.418,0 -0.662,0.158 -0.793,0.546 -0.129,0.375 -0.172,0.75 -0.172,1.584 0,0.823 0.043,1.182 0.187,1.571 0.129,0.375 0.373,0.533 0.778,0.533 0.461,0 0.734,-0.289 0.791,-0.793 h -0.518 c -0.029,0.174 -0.115,0.26 -0.26,0.26 -0.187,0 -0.316,-0.129 -0.359,-0.405 -0.059,-0.33 -0.086,-0.603 -0.086,-1.166 0,-0.56 0.027,-0.834 0.072,-1.179 0.057,-0.274 0.159,-0.418 0.344,-0.418 0.188,0 0.289,0.174 0.289,0.447 V 1.051 H -0.705 V 1.584 H 0.057 V 0.531 C 0.057,0.346 0.029,0.129 0,0"
             style="fill:#231f20;fill-opacity:1;fill-rule:nonzero;stroke:none"
             id="path5124"
             inkscape:connector-curvature="0" />
        </g>
        <g
           id="g5126"
           transform="translate(539.2817,167.704)">
          <path
             d="M 0,0 H -0.447 L -0.836,2.302 -1.209,0 h -0.447 l -0.475,4.103 h 0.533 l 0.215,-1.9 0.332,1.9 h 0.446 l 0.332,-1.9 0.214,1.9 h 0.534 z"
             style="fill:#231f20;fill-opacity:1;fill-rule:nonzero;stroke:none"
             id="path5128"
             inkscape:connector-curvature="0" />
        </g>
        <g
           id="g5130"
           transform="translate(541.0107,169.071)">
          <path
             d="m 0,0 c 0,0 -0.03,0.101 -0.231,0.101 -0.131,0 -0.246,-0.115 -0.246,-0.474 0,-0.375 0.059,-0.549 0.273,-0.549 0.159,0 0.204,0.088 0.204,0.273 z m 0.043,-1.367 v 0.086 C -0.03,-1.367 -0.145,-1.41 -0.303,-1.41 c -0.404,0 -0.692,0.445 -0.692,1.05 0,0.577 0.346,1.225 0.995,0.965 L 0,0.82 c 0,0.231 -0.059,0.318 -0.231,0.318 -0.217,0 -0.418,-0.273 -0.504,-0.433 l -0.131,0.648 c 0.201,0.231 0.389,0.346 0.619,0.346 0.635,0 0.764,-0.576 0.764,-1.064 v -2.002 z"
             style="fill:#231f20;fill-opacity:1;fill-rule:nonzero;stroke:none"
             id="path5132"
             inkscape:connector-curvature="0" />
        </g>
        <g
           id="g5134"
           transform="translate(542.9807,167.8481)">
          <path
             d="m 0,0 c -0.099,-0.131 -0.185,-0.187 -0.301,-0.187 -0.318,0 -0.548,0.33 -0.548,0.761 V 2.375 H -1.166 V 2.85 h 0.317 v 0.865 l 0.533,0.316 V 2.85 H 0.045 V 2.389 H -0.316 V 0.574 c 0,-0.142 0.072,-0.244 0.174,-0.244 0.086,0 0.129,0.059 0.201,0.158 z"
             style="fill:#231f20;fill-opacity:1;fill-rule:nonzero;stroke:none"
             id="path5136"
             inkscape:connector-curvature="0" />
        </g>
        <g
           id="g5138"
           transform="translate(544.0047,167.6451)">
          <path
             d="m 0,0 c -0.619,0 -0.764,0.734 -0.764,1.498 0,0.836 0.072,1.627 0.764,1.627 0.402,0 0.603,-0.316 0.691,-0.777 L 0.215,2.117 C 0.201,2.361 0.142,2.564 0,2.564 -0.303,2.564 -0.246,1.715 -0.246,1.512 -0.246,1.326 -0.26,0.49 0.013,0.49 0.129,0.504 0.187,0.734 0.215,0.965 L 0.691,0.793 C 0.59,0.332 0.402,0 0,0"
             style="fill:#231f20;fill-opacity:1;fill-rule:nonzero;stroke:none"
             id="path5140"
             inkscape:connector-curvature="0" />
        </g>
        <g
           id="g5142"
           transform="translate(546.0337,167.704)">
          <path
             d="m 0,0 v 2.058 c 0,0.303 -0.029,0.475 -0.215,0.475 -0.187,0 -0.203,-0.244 -0.203,-0.475 V 0 h -0.518 v 3.843 l 0.518,0.332 V 2.951 C -0.145,3.224 0.52,3.095 0.52,2.072 V 0 Z"
             style="fill:#231f20;fill-opacity:1;fill-rule:nonzero;stroke:none"
             id="path5144"
             inkscape:connector-curvature="0" />
        </g>
        <g
           id="g5146"
           transform="translate(549.8497,171.274)">
          <path
             d="M 0,0 V -1.051 H 0.604 V -1.598 H 0 V -3.57 h -0.519 v 4.103 h 1.57 L 1.051,0 Z"
             style="fill:#231f20;fill-opacity:1;fill-rule:nonzero;stroke:none"
             id="path5148"
             inkscape:connector-curvature="0" />
        </g>
        <g
           id="g5150"
           transform="translate(551.6787,170.2231)">
          <path
             d="m 0,0 c -0.317,0 -0.245,-0.806 -0.245,-1.008 0,-0.187 -0.013,-1.037 0.245,-1.037 0.23,0.016 0.216,0.836 0.216,1.037 C 0.216,-0.806 0.273,0 0,0 m 0,-2.578 c -0.62,0 -0.778,0.793 -0.778,1.557 0,0.834 0.072,1.568 0.778,1.568 0.619,0 0.734,-0.705 0.734,-1.555 0,-0.763 -0.158,-1.57 -0.734,-1.57"
             style="fill:#231f20;fill-opacity:1;fill-rule:nonzero;stroke:none"
             id="path5152"
             inkscape:connector-curvature="0" />
        </g>
        <g
           id="g5154"
           transform="translate(553.9827,170.036)">
          <path
             d="m 0,0 c -0.072,0.101 -0.131,0.173 -0.217,0.173 -0.201,0 -0.287,-0.216 -0.287,-0.591 v -1.914 h -0.519 v 2.994 h 0.519 V 0.519 c 0.086,0.143 0.143,0.215 0.274,0.215 0.129,0 0.23,-0.086 0.287,-0.201 z"
             style="fill:#231f20;fill-opacity:1;fill-rule:nonzero;stroke:none"
             id="path5156"
             inkscape:connector-curvature="0" />
        </g>
        <g
           id="g5158"
           transform="translate(540.2467,162.4731)">
          <path
             d="m 0,0 h -0.447 l -0.735,4.104 h 0.533 L -0.217,1.77 0.201,4.104 h 0.533 z"
             style="fill:#231f20;fill-opacity:1;fill-rule:nonzero;stroke:none"
             id="path5160"
             inkscape:connector-curvature="0" />
        </g>
        <g
           id="g5162"
           transform="translate(542.0607,164.9771)">
          <path
             d="M 0,0 C -0.174,0 -0.246,-0.187 -0.246,-0.777 H 0.258 C 0.258,-0.172 0.172,0 0,0 m -0.246,-1.31 c 0.016,-0.575 0.088,-0.719 0.274,-0.719 0.115,0 0.203,0.086 0.289,0.388 l 0.33,-0.474 C 0.547,-2.391 0.346,-2.562 0.1,-2.562 c -0.662,0 -0.85,0.605 -0.85,1.541 0,0.949 0.174,1.584 0.764,1.584 0.748,0 0.734,-1.311 0.721,-1.873 z"
             style="fill:#231f20;fill-opacity:1;fill-rule:nonzero;stroke:none"
             id="path5164"
             inkscape:connector-curvature="0" />
        </g>
        <g
           id="g5166"
           transform="translate(544.1917,162.4731)">
          <path
             d="m 0,0 v 2.059 c 0,0.302 -0.029,0.474 -0.217,0.474 -0.187,0 -0.201,-0.244 -0.201,-0.474 V 0 h -0.519 v 3.844 l 0.519,0.33 V 2.951 C -0.144,3.225 0.518,3.096 0.518,2.072 V 0 Z"
             style="fill:#231f20;fill-opacity:1;fill-rule:nonzero;stroke:none"
             id="path5168"
             inkscape:connector-curvature="0" />
        </g>
        <path
           d="m 545.329,165.467 h 0.517 v -2.994 h -0.517 z m 0.26,0.662 c -0.145,0 -0.26,0.116 -0.26,0.274 0,0.144 0.115,0.26 0.273,0.26 0.145,0 0.26,-0.116 0.26,-0.274 0,-0.144 -0.115,-0.26 -0.273,-0.26"
           style="fill:#231f20;fill-opacity:1;fill-rule:nonzero;stroke:none"
           id="path5170"
           inkscape:connector-curvature="0" />
        <g
           id="g5172"
           transform="translate(547.1567,162.415)">
          <path
             d="m 0,0 c -0.619,0 -0.762,0.734 -0.762,1.498 0,0.834 0.071,1.627 0.762,1.627 0.404,0 0.605,-0.317 0.691,-0.778 L 0.217,2.117 C 0.201,2.361 0.145,2.562 0,2.562 c -0.303,0 -0.244,-0.85 -0.244,-1.051 0,-0.187 -0.014,-1.021 0.26,-1.021 0.115,0.013 0.172,0.244 0.201,0.474 L 0.691,0.793 C 0.59,0.332 0.404,0 0,0"
             style="fill:#231f20;fill-opacity:1;fill-rule:nonzero;stroke:none"
             id="path5174"
             inkscape:connector-curvature="0" />
        </g>
        <g
           id="g5176"
           transform="translate(548.2507,162.4731)">
          <path
             d="M 0,0 V 3.858 L 0.519,4.174 V 0 Z"
             style="fill:#231f20;fill-opacity:1;fill-rule:nonzero;stroke:none"
             id="path5178"
             inkscape:connector-curvature="0" />
        </g>
        <g
           id="g5180"
           transform="translate(550.0517,164.9771)">
          <path
             d="M 0,0 C -0.174,0 -0.245,-0.187 -0.245,-0.777 H 0.259 C 0.259,-0.172 0.171,0 0,0 m -0.245,-1.31 c 0.014,-0.575 0.086,-0.719 0.274,-0.719 0.115,0 0.201,0.086 0.287,0.388 L 0.648,-2.115 C 0.546,-2.391 0.345,-2.562 0.099,-2.562 c -0.662,0 -0.847,0.605 -0.847,1.541 0,0.949 0.171,1.584 0.761,1.584 0.75,0 0.735,-1.311 0.721,-1.873 z"
             style="fill:#231f20;fill-opacity:1;fill-rule:nonzero;stroke:none"
             id="path5182"
             inkscape:connector-curvature="0" />
        </g>
        <g
           id="g5184"
           transform="translate(552.2117,162.7021)">
          <path
             d="m 0,0 c -0.145,-0.186 -0.362,-0.287 -0.576,-0.287 -0.231,0 -0.418,0.058 -0.592,0.316 l 0.144,0.605 c 0.145,-0.316 0.274,-0.431 0.418,-0.431 0.188,0 0.26,0.129 0.26,0.373 0,0.115 -0.088,0.418 -0.361,0.635 -0.301,0.244 -0.461,0.445 -0.461,0.877 0,0.187 0.045,0.361 0.144,0.503 0.116,0.161 0.231,0.247 0.491,0.247 0.201,0 0.388,-0.116 0.589,-0.362 L -0.102,1.929 c -0.187,0.332 -0.273,0.432 -0.402,0.432 -0.102,0 -0.16,-0.129 -0.16,-0.258 0,-0.072 0.029,-0.174 0.088,-0.273 C -0.549,1.787 -0.504,1.728 -0.217,1.441 0.027,1.181 0.158,0.894 0.158,0.562 0.158,0.361 0.099,0.144 0,0"
             style="fill:#231f20;fill-opacity:1;fill-rule:nonzero;stroke:none"
             id="path5186"
             inkscape:connector-curvature="0" />
        </g>
        <path
           d="m 530.606,173.295 h 30.375 v -0.582 h -30.375 z"
           style="fill:#231f20;fill-opacity:1;fill-rule:evenodd;stroke:none"
           id="path5188"
           inkscape:connector-curvature="0" />
        <g
           id="g5190"
           transform="translate(536.7077,157.475)">
          <path
             d="m 0,0 c -0.043,0.447 -0.131,0.592 -0.346,0.592 h -0.332 v -3.039 h 0.332 c 0.188,0 0.287,0.129 0.346,0.431 0.013,0.145 0.043,0.606 0.043,0.965 C 0.043,-0.748 0.013,-0.287 0,0 M 0.201,-2.777 C 0.086,-2.908 -0.115,-2.98 -0.346,-2.98 h -0.85 v 4.103 h 0.85 c 0.287,0 0.49,-0.099 0.619,-0.301 0.102,-0.16 0.188,-0.433 0.215,-0.691 0.059,-0.332 0.088,-0.707 0.088,-1.051 0,-0.965 -0.131,-1.584 -0.375,-1.857"
             style="fill:#231f20;fill-opacity:1;fill-rule:nonzero;stroke:none"
             id="path5192"
             inkscape:connector-curvature="0" />
        </g>
        <g
           id="g5194"
           transform="translate(538.8817,158.1241)">
          <path
             d="m 0,0 c -0.475,0 -0.418,-1.282 -0.418,-1.569 0,-0.275 -0.057,-1.599 0.418,-1.599 0.461,0 0.402,1.324 0.402,1.599 C 0.402,-1.239 0.388,0 0,0 m 0,-3.702 c -1.022,0 -0.952,1.455 -0.952,2.133 0,0.705 -0.056,2.102 0.952,2.102 1.007,0 0.951,-1.412 0.951,-2.102 0,-0.678 0.056,-2.133 -0.951,-2.133"
             style="fill:#231f20;fill-opacity:1;fill-rule:nonzero;stroke:none"
             id="path5196"
             inkscape:connector-curvature="0" />
        </g>
        <g
           id="g5198"
           transform="translate(541.9187,154.495)">
          <path
             d="M 0,0 -0.805,2.433 V 0 h -0.519 v 4.103 h 0.519 L -0.071,2.06 V 4.103 H 0.447 V 0 Z"
             style="fill:#231f20;fill-opacity:1;fill-rule:nonzero;stroke:none"
             id="path5200"
             inkscape:connector-curvature="0" />
        </g>
        <g
           id="g5202"
           transform="translate(543.4167,157.6061)">
          <path
             d="m 0,0 -0.158,0.129 c 0.101,0.086 0.201,0.23 0.23,0.332 H 0.029 c -0.187,0 -0.303,0.115 -0.303,0.301 0,0.174 0.129,0.302 0.303,0.302 0.188,0 0.316,-0.128 0.316,-0.345 C 0.345,0.461 0.217,0.187 0,0"
             style="fill:#231f20;fill-opacity:1;fill-rule:nonzero;stroke:none"
             id="path5204"
             inkscape:connector-curvature="0" />
        </g>
        <g
           id="g5206"
           transform="translate(545.2307,158.067)">
          <path
             d="M 0,0 V -3.572 H -0.517 V 0 H -1.021 V 0.531 H 0.533 V 0 Z"
             style="fill:#231f20;fill-opacity:1;fill-rule:nonzero;stroke:none"
             id="path5208"
             inkscape:connector-curvature="0" />
        </g>
        <g
           id="g5210"
           transform="translate(549.5787,154.61)">
          <path
             d="m 0,0 c -0.129,-0.115 -0.317,-0.188 -0.533,-0.188 -0.575,0 -0.877,0.375 -0.907,1.096 h 0.534 c 0,-0.158 0.013,-0.217 0.043,-0.303 0.043,-0.158 0.171,-0.259 0.33,-0.259 0.203,0 0.332,0.158 0.332,0.418 0,0.359 -0.129,0.662 -0.448,1.037 -0.185,0.214 -0.316,0.373 -0.359,0.431 -0.23,0.274 -0.33,0.561 -0.33,0.85 0,0.56 0.346,0.965 0.834,0.965 C 0,4.047 0.273,3.73 0.332,3.082 h -0.533 c -0.014,0.316 -0.102,0.445 -0.287,0.445 -0.204,0 -0.319,-0.172 -0.319,-0.445 0,-0.188 0.073,-0.332 0.289,-0.563 C -0.072,2.015 0,1.916 0.131,1.656 0.244,1.396 0.332,1.051 0.332,0.764 0.332,0.476 0.201,0.174 0,0"
             style="fill:#231f20;fill-opacity:1;fill-rule:nonzero;stroke:none"
             id="path5212"
             inkscape:connector-curvature="0" />
        </g>
        <g
           id="g5214"
           transform="translate(551.2637,158.067)">
          <path
             d="M 0,0 V -3.572 H -0.519 V 0 H -1.023 V 0.531 H 0.532 V 0 Z"
             style="fill:#231f20;fill-opacity:1;fill-rule:nonzero;stroke:none"
             id="path5216"
             inkscape:connector-curvature="0" />
        </g>
        <g
           id="g5218"
           transform="translate(553.1647,157.2021)">
          <path
             d="m 0,0 -0.231,-1.08 h 0.446 z m 0.56,-2.707 -0.23,1.095 h -0.676 l -0.23,-1.095 H -1.11 l 0.836,4.103 h 0.532 l 0.849,-4.103 z"
             style="fill:#231f20;fill-opacity:1;fill-rule:nonzero;stroke:none"
             id="path5220"
             inkscape:connector-curvature="0" />
        </g>
        <g
           id="g5222"
           transform="translate(555.6117,158.067)">
          <path
             d="m 0,0 h -0.26 v -1.123 h 0.346 c 0.289,0 0.375,0.129 0.375,0.517 C 0.461,-0.145 0.359,0 0,0 M 0.561,-1.527 0.979,-3.572 H 0.445 l -0.459,1.916 H -0.26 v -1.916 h -0.517 v 4.103 h 0.806 c 0.633,0 0.963,-0.389 0.963,-1.15 0,-0.461 -0.129,-0.721 -0.431,-0.908"
             style="fill:#231f20;fill-opacity:1;fill-rule:nonzero;stroke:none"
             id="path5224"
             inkscape:connector-curvature="0" />
        </g>
        <g
           id="g5226"
           transform="translate(557.9577,158.067)">
          <path
             d="M 0,0 V -3.572 H -0.518 V 0 H -1.022 V 0.531 H 0.533 V 0 Z"
             style="fill:#231f20;fill-opacity:1;fill-rule:nonzero;stroke:none"
             id="path5228"
             inkscape:connector-curvature="0" />
        </g>
        <g
           id="g5230"
           transform="translate(534.8637,151.868)">
          <path
             d="M 0,0 V -1.051 H 0.606 V -1.598 H 0 V -3.571 H -0.518 V 0.533 H 1.051 V 0 Z"
             style="fill:#231f20;fill-opacity:1;fill-rule:nonzero;stroke:none"
             id="path5232"
             inkscape:connector-curvature="0" />
        </g>
        <path
           d="m 536.073,151.292 h 0.52 v -2.995 h -0.52 z m 0.26,0.664 c -0.145,0 -0.26,0.115 -0.26,0.273 0,0.143 0.115,0.258 0.273,0.258 0.145,0 0.26,-0.115 0.26,-0.274 0,-0.142 -0.115,-0.257 -0.273,-0.257"
           style="fill:#231f20;fill-opacity:1;fill-rule:nonzero;stroke:none"
           id="path5234"
           inkscape:connector-curvature="0" />
        <g
           id="g5236"
           transform="translate(538.2037,148.2971)">
          <path
             d="m 0,0 v 2.059 c 0,0.303 -0.027,0.477 -0.215,0.477 -0.187,0 -0.201,-0.247 -0.201,-0.477 V 0 h -0.52 v 2.995 h 0.52 V 2.866 C -0.258,3.139 0.029,3.067 0.029,3.067 0.418,3.024 0.519,2.592 0.519,1.528 V 0 Z"
             style="fill:#231f20;fill-opacity:1;fill-rule:nonzero;stroke:none"
             id="path5238"
             inkscape:connector-curvature="0" />
        </g>
        <path
           d="m 539.343,151.292 h 0.517 v -2.995 h -0.517 z m 0.257,0.664 c -0.142,0 -0.257,0.115 -0.257,0.273 0,0.143 0.115,0.258 0.273,0.258 0.145,0 0.26,-0.115 0.26,-0.274 0,-0.142 -0.115,-0.257 -0.276,-0.257"
           style="fill:#231f20;fill-opacity:1;fill-rule:nonzero;stroke:none"
           id="path5240"
           inkscape:connector-curvature="0" />
        <g
           id="g5242"
           transform="translate(541.5027,148.5281)">
          <path
             d="m 0,0 c -0.145,-0.188 -0.362,-0.287 -0.576,-0.287 -0.231,0 -0.418,0.056 -0.592,0.316 l 0.144,0.604 c 0.145,-0.317 0.274,-0.432 0.418,-0.432 0.188,0 0.26,0.131 0.26,0.375 0,0.115 -0.088,0.418 -0.361,0.633 -0.303,0.246 -0.461,0.447 -0.461,0.879 0,0.187 0.043,0.359 0.144,0.504 0.116,0.158 0.231,0.244 0.491,0.244 0.201,0 0.388,-0.115 0.589,-0.36 L -0.102,1.93 c -0.187,0.33 -0.273,0.431 -0.404,0.431 -0.1,0 -0.158,-0.129 -0.158,-0.26 0,-0.07 0.029,-0.171 0.088,-0.273 0.027,-0.043 0.07,-0.1 0.359,-0.389 C 0.027,1.181 0.158,0.892 0.158,0.562 0.158,0.359 0.099,0.144 0,0"
             style="fill:#231f20;fill-opacity:1;fill-rule:nonzero;stroke:none"
             id="path5244"
             inkscape:connector-curvature="0" />
        </g>
        <g
           id="g5246"
           transform="translate(542.9987,148.2971)">
          <path
             d="m 0,0 v 2.059 c 0,0.303 -0.029,0.477 -0.215,0.477 -0.188,0 -0.203,-0.247 -0.203,-0.477 V 0 h -0.518 v 3.844 l 0.518,0.332 V 2.952 C -0.145,3.225 0.519,3.096 0.519,2.075 V 0 Z"
             style="fill:#231f20;fill-opacity:1;fill-rule:nonzero;stroke:none"
             id="path5248"
             inkscape:connector-curvature="0" />
        </g>
        <g
           id="g5250"
           transform="translate(548.1387,148.7151)">
          <path
             d="m 0,0 c -0.072,-0.302 -0.359,-0.49 -0.718,-0.49 -0.418,0 -0.678,0.174 -0.807,0.547 -0.115,0.346 -0.174,0.908 -0.174,1.57 0,0.375 0.043,0.922 0.102,1.239 0.115,0.632 0.359,0.878 0.849,0.878 0.461,0 0.762,-0.289 0.807,-0.792 h -0.533 c -0.016,0.173 -0.115,0.259 -0.26,0.259 -0.187,0 -0.287,-0.129 -0.346,-0.404 -0.072,-0.33 -0.086,-0.633 -0.086,-1.18 0,-0.576 0.014,-0.82 0.086,-1.166 0.059,-0.273 0.159,-0.418 0.332,-0.418 0.188,0 0.274,0.145 0.274,0.504 H 0.059 C 0.059,0.231 0.043,0.145 0,0"
             style="fill:#231f20;fill-opacity:1;fill-rule:nonzero;stroke:none"
             id="path5252"
             inkscape:connector-curvature="0" />
        </g>
        <g
           id="g5254"
           transform="translate(549.5787,150.6291)">
          <path
             d="m 0,0 c -0.07,0.102 -0.129,0.174 -0.215,0.174 -0.201,0 -0.289,-0.217 -0.289,-0.59 v -1.916 h -0.518 v 2.995 h 0.518 V 0.52 c 0.088,0.143 0.145,0.215 0.275,0.215 C -0.1,0.735 0,0.649 0.058,0.534 Z"
             style="fill:#231f20;fill-opacity:1;fill-rule:nonzero;stroke:none"
             id="path5256"
             inkscape:connector-curvature="0" />
        </g>
        <g
           id="g5258"
           transform="translate(550.6877,150.817)">
          <path
             d="m 0,0 c -0.316,0 -0.244,-0.807 -0.244,-1.008 0,-0.187 -0.015,-1.037 0.244,-1.037 0.231,0.016 0.217,0.836 0.217,1.037 C 0.217,-0.807 0.274,0 0,0 m 0,-2.576 c -0.619,0 -0.777,0.791 -0.777,1.554 0,0.834 0.072,1.569 0.777,1.569 0.619,0 0.735,-0.705 0.735,-1.555 0,-0.764 -0.159,-1.568 -0.735,-1.568"
             style="fill:#231f20;fill-opacity:1;fill-rule:nonzero;stroke:none"
             id="path5260"
             inkscape:connector-curvature="0" />
        </g>
        <g
           id="g5262"
           transform="translate(552.9337,148.5281)">
          <path
             d="m 0,0 c -0.144,-0.188 -0.359,-0.287 -0.576,-0.287 -0.23,0 -0.418,0.056 -0.59,0.316 l 0.145,0.604 c 0.142,-0.317 0.273,-0.432 0.416,-0.432 0.187,0 0.26,0.131 0.26,0.375 0,0.115 -0.086,0.418 -0.36,0.633 -0.302,0.246 -0.461,0.447 -0.461,0.879 0,0.187 0.043,0.359 0.145,0.504 0.115,0.158 0.23,0.244 0.488,0.244 0.201,0 0.389,-0.115 0.592,-0.36 L -0.101,1.93 c -0.186,0.33 -0.274,0.431 -0.403,0.431 -0.101,0 -0.158,-0.129 -0.158,-0.26 0,-0.07 0.03,-0.171 0.086,-0.273 0.029,-0.043 0.072,-0.1 0.36,-0.389 C 0.03,1.181 0.159,0.892 0.159,0.562 0.159,0.359 0.102,0.144 0,0"
             style="fill:#231f20;fill-opacity:1;fill-rule:nonzero;stroke:none"
             id="path5264"
             inkscape:connector-curvature="0" />
        </g>
        <g
           id="g5266"
           transform="translate(554.4597,148.5281)">
          <path
             d="m 0,0 c -0.143,-0.188 -0.36,-0.287 -0.576,-0.287 -0.229,0 -0.416,0.056 -0.59,0.316 l 0.144,0.604 c 0.145,-0.317 0.274,-0.432 0.418,-0.432 0.188,0 0.258,0.131 0.258,0.375 0,0.115 -0.086,0.418 -0.359,0.633 -0.303,0.246 -0.461,0.447 -0.461,0.879 0,0.187 0.043,0.359 0.144,0.504 0.116,0.158 0.231,0.244 0.491,0.244 0.201,0 0.388,-0.115 0.589,-0.36 L -0.1,1.93 c -0.187,0.33 -0.273,0.431 -0.404,0.431 -0.1,0 -0.158,-0.129 -0.158,-0.26 0,-0.07 0.029,-0.171 0.086,-0.273 0.029,-0.043 0.072,-0.1 0.361,-0.389 C 0.029,1.181 0.158,0.892 0.158,0.562 0.158,0.359 0.101,0.144 0,0"
             style="fill:#231f20;fill-opacity:1;fill-rule:nonzero;stroke:none"
             id="path5268"
             inkscape:connector-curvature="0" />
        </g>
        <path
           d="m 555.022,151.292 h 0.518 v -2.995 h -0.518 z m 0.26,0.664 c -0.145,0 -0.26,0.115 -0.26,0.273 0,0.143 0.115,0.258 0.274,0.258 0.144,0 0.259,-0.115 0.259,-0.274 0,-0.142 -0.115,-0.257 -0.273,-0.257"
           style="fill:#231f20;fill-opacity:1;fill-rule:nonzero;stroke:none"
           id="path5270"
           inkscape:connector-curvature="0" />
        <g
           id="g5272"
           transform="translate(557.1527,148.2971)">
          <path
             d="m 0,0 v 2.059 c 0,0.303 -0.029,0.477 -0.217,0.477 -0.187,0 -0.201,-0.247 -0.201,-0.477 V 0 h -0.517 v 2.995 h 0.517 V 2.866 C -0.26,3.139 0.027,3.067 0.027,3.067 0.418,3.024 0.518,2.592 0.518,1.528 V 0 Z"
             style="fill:#231f20;fill-opacity:1;fill-rule:nonzero;stroke:none"
             id="path5274"
             inkscape:connector-curvature="0" />
        </g>
        <g
           id="g5276"
           transform="translate(559.1527,150.444)">
          <path
             d="m 0,0 c 0,0.129 -0.027,0.359 -0.215,0.359 -0.217,0 -0.273,-0.418 -0.273,-1.051 0,-0.361 0.014,-0.591 0.086,-0.806 0.043,-0.129 0.115,-0.201 0.201,-0.201 C -0.07,-1.686 0,-1.412 0,-1.152 Z M 0.26,-3.24 C 0.115,-3.442 -0.014,-3.543 -0.244,-3.629 l -0.188,0.488 c 0.247,0.115 0.418,0.289 0.418,0.563 v 0.504 c -0.056,-0.086 -0.144,-0.145 -0.201,-0.145 -0.648,0 -0.777,0.865 -0.777,1.527 0,0.834 0.129,1.598 0.764,1.612 0.086,0 0.158,-0.043 0.287,-0.143 V 0.863 H 0.504 V -2.19 c 0,-0.562 -0.057,-0.791 -0.244,-1.05"
             style="fill:#231f20;fill-opacity:1;fill-rule:nonzero;stroke:none"
             id="path5278"
             inkscape:connector-curvature="0" />
        </g>
        <path
           d="m 539.126,147.17 h 0.519 v -4.103 h -0.519 z"
           style="fill:#231f20;fill-opacity:1;fill-rule:nonzero;stroke:none"
           id="path5280"
           inkscape:connector-curvature="0" />
        <g
           id="g5282"
           transform="translate(540.9557,145.586)">
          <path
             d="M 0,0 V -2.519 H -0.52 V 0 h -0.201 v 0.475 h 0.201 v 0.662 c 0,0.303 0.159,0.52 0.405,0.52 0.099,0 0.214,0 0.33,-0.073 V 1.108 C 0.158,1.209 0,1.209 0,0.95 V 0.475 H 0.23 V 0 Z"
             style="fill:#231f20;fill-opacity:1;fill-rule:nonzero;stroke:none"
             id="path5284"
             inkscape:connector-curvature="0" />
        </g>
        <g
           id="g5286"
           transform="translate(544.9577,143.182)">
          <path
             d="m 0,0 c -0.129,-0.115 -0.317,-0.187 -0.533,-0.187 -0.577,0 -0.877,0.375 -0.907,1.093 h 0.534 c 0,-0.158 0.013,-0.214 0.043,-0.302 0.042,-0.159 0.171,-0.258 0.33,-0.258 0.201,0 0.332,0.158 0.332,0.416 0,0.361 -0.131,0.664 -0.448,1.037 -0.187,0.217 -0.316,0.375 -0.359,0.432 -0.23,0.273 -0.332,0.562 -0.332,0.849 0,0.563 0.346,0.965 0.836,0.965 C 0,4.045 0.273,3.729 0.332,3.08 h -0.533 c -0.016,0.317 -0.102,0.447 -0.289,0.447 -0.202,0 -0.317,-0.173 -0.317,-0.447 0,-0.187 0.072,-0.33 0.289,-0.56 C -0.072,2.016 0,1.914 0.129,1.654 0.244,1.397 0.332,1.051 0.332,0.762 0.332,0.475 0.201,0.172 0,0"
             style="fill:#231f20;fill-opacity:1;fill-rule:nonzero;stroke:none"
             id="path5288"
             inkscape:connector-curvature="0" />
        </g>
        <g
           id="g5290"
           transform="translate(546.6567,143.209)">
          <path
             d="m 0,0 c -0.102,-0.128 -0.187,-0.185 -0.303,-0.185 -0.316,0 -0.547,0.33 -0.547,0.762 v 1.8 h -0.316 v 0.475 h 0.316 v 0.863 l 0.534,0.319 V 2.852 H 0.043 V 2.391 H -0.316 V 0.577 c 0,-0.143 0.07,-0.244 0.171,-0.244 0.086,0 0.129,0.056 0.202,0.158 z"
             style="fill:#231f20;fill-opacity:1;fill-rule:nonzero;stroke:none"
             id="path5292"
             inkscape:connector-curvature="0" />
        </g>
        <g
           id="g5294"
           transform="translate(547.8367,144.4341)">
          <path
             d="m 0,0 c 0,0 -0.03,0.102 -0.231,0.102 -0.129,0 -0.244,-0.116 -0.244,-0.477 0,-0.373 0.057,-0.547 0.274,-0.547 0.158,0 0.201,0.086 0.201,0.274 z m 0.043,-1.367 v 0.086 C -0.03,-1.367 -0.145,-1.41 -0.303,-1.41 c -0.402,0 -0.689,0.445 -0.689,1.051 0,0.576 0.345,1.222 0.992,0.965 V 0.82 c 0,0.231 -0.057,0.317 -0.231,0.317 -0.215,0 -0.416,-0.274 -0.504,-0.432 l -0.129,0.649 c 0.202,0.23 0.389,0.345 0.62,0.345 0.632,0 0.763,-0.576 0.763,-1.066 v -2 z"
             style="fill:#231f20;fill-opacity:1;fill-rule:nonzero;stroke:none"
             id="path5296"
             inkscape:connector-curvature="0" />
        </g>
        <g
           id="g5298"
           transform="translate(549.9967,145.399)">
          <path
             d="m 0,0 c -0.072,0.101 -0.129,0.172 -0.217,0.172 -0.201,0 -0.287,-0.215 -0.287,-0.59 v -1.914 h -0.52 v 2.994 h 0.52 V 0.518 c 0.086,0.144 0.144,0.216 0.273,0.216 0.129,0 0.231,-0.086 0.288,-0.201 z"
             style="fill:#231f20;fill-opacity:1;fill-rule:nonzero;stroke:none"
             id="path5300"
             inkscape:connector-curvature="0" />
        </g>
        <g
           id="g5302"
           transform="translate(551.2917,143.209)">
          <path
             d="m 0,0 c -0.1,-0.128 -0.188,-0.185 -0.301,-0.185 -0.318,0 -0.549,0.33 -0.549,0.762 v 1.8 h -0.316 v 0.475 h 0.316 v 0.863 l 0.533,0.319 V 2.852 H 0.045 V 2.391 H -0.317 V 0.577 c 0,-0.143 0.073,-0.244 0.174,-0.244 0.086,0 0.129,0.056 0.201,0.158 z"
             style="fill:#231f20;fill-opacity:1;fill-rule:nonzero;stroke:none"
             id="path5304"
             inkscape:connector-curvature="0" />
        </g>
        <g
           id="g5306"
           transform="translate(552.2997,145.571)">
          <path
             d="M 0,0 C -0.172,0 -0.245,-0.186 -0.245,-0.778 H 0.259 C 0.259,-0.172 0.173,0 0,0 m -0.245,-1.309 c 0.014,-0.576 0.086,-0.72 0.274,-0.72 0.115,0 0.201,0.085 0.287,0.388 l 0.332,-0.474 c -0.1,-0.274 -0.303,-0.448 -0.547,-0.448 -0.662,0 -0.849,0.606 -0.849,1.541 0,0.951 0.171,1.584 0.763,1.584 0.748,0 0.735,-1.31 0.719,-1.871 z"
             style="fill:#231f20;fill-opacity:1;fill-rule:nonzero;stroke:none"
             id="path5308"
             inkscape:connector-curvature="0" />
        </g>
        <g
           id="g5310"
           transform="translate(554.3577,145.211)">
          <path
             d="m 0,0 c 0,0.145 -0.013,0.375 -0.201,0.375 -0.215,0 -0.258,-0.23 -0.258,-0.994 0,-0.675 0.014,-1.037 0.258,-1.037 C 0,-1.656 0,-1.337 0,-1.179 Z m 0.016,-2.144 v 0.115 c -0.086,-0.131 -0.174,-0.187 -0.317,-0.187 -0.533,0 -0.691,0.748 -0.691,1.597 0,0.375 0.027,1.887 0.992,1.455 v 0.877 l 0.52,0.319 v -4.176 z"
             style="fill:#231f20;fill-opacity:1;fill-rule:nonzero;stroke:none"
             id="path5312"
             inkscape:connector-curvature="0" />
        </g>
        <path
           d="m 535.532,153.891 h 22.939 v -0.584 h -22.939 z"
           style="fill:#231f20;fill-opacity:1;fill-rule:evenodd;stroke:none"
           id="path5314"
           inkscape:connector-curvature="0" />
        <path
           d="m 535.532,141.788 h 22.939 v -0.584 h -22.939 z"
           style="fill:#231f20;fill-opacity:1;fill-rule:evenodd;stroke:none"
           id="path5316"
           inkscape:connector-curvature="0" />
        <g
           id="g5318"
           transform="translate(535.7287,118.834)">
          <path
             d="m 0,0 c -0.043,0.448 -0.129,0.592 -0.345,0.592 h -0.33 v -3.039 h 0.33 c 0.187,0 0.289,0.129 0.345,0.432 0.016,0.144 0.043,0.605 0.043,0.965 C 0.043,-0.748 0.016,-0.287 0,0 M 0.201,-2.777 C 0.086,-2.908 -0.115,-2.98 -0.345,-2.98 h -0.85 v 4.104 h 0.85 c 0.289,0 0.49,-0.1 0.619,-0.301 0.101,-0.16 0.187,-0.434 0.217,-0.692 0.056,-0.332 0.085,-0.705 0.085,-1.05 0,-0.965 -0.128,-1.584 -0.375,-1.858"
             style="fill:#231f20;fill-opacity:1;fill-rule:nonzero;stroke:none"
             id="path5320"
             inkscape:connector-curvature="0" />
        </g>
        <g
           id="g5322"
           transform="translate(537.9027,119.483)">
          <path
             d="m 0,0 c -0.474,0 -0.416,-1.281 -0.416,-1.568 0,-0.276 -0.058,-1.6 0.416,-1.6 0.461,0 0.404,1.324 0.404,1.6 C 0.404,-1.238 0.389,0 0,0 m 0,-3.699 c -1.021,0 -0.949,1.453 -0.949,2.131 0,0.705 -0.059,2.101 0.949,2.101 1.008,0 0.951,-1.412 0.951,-2.101 0,-0.678 0.057,-2.131 -0.951,-2.131"
             style="fill:#231f20;fill-opacity:1;fill-rule:nonzero;stroke:none"
             id="path5324"
             inkscape:connector-curvature="0" />
        </g>
        <g
           id="g5326"
           transform="translate(540.9417,115.854)">
          <path
             d="M 0,0 -0.806,2.434 V 0 h -0.52 v 4.104 h 0.52 L -0.072,2.061 V 4.104 H 0.445 V 0 Z"
             style="fill:#231f20;fill-opacity:1;fill-rule:nonzero;stroke:none"
             id="path5328"
             inkscape:connector-curvature="0" />
        </g>
        <g
           id="g5330"
           transform="translate(542.4377,118.9651)">
          <path
             d="M 0,0 -0.158,0.129 C -0.056,0.215 0.043,0.36 0.073,0.461 H 0.03 c -0.188,0 -0.303,0.116 -0.303,0.301 0,0.174 0.131,0.303 0.303,0.303 0.187,0 0.316,-0.129 0.316,-0.346 C 0.346,0.461 0.217,0.188 0,0"
             style="fill:#231f20;fill-opacity:1;fill-rule:nonzero;stroke:none"
             id="path5332"
             inkscape:connector-curvature="0" />
        </g>
        <g
           id="g5334"
           transform="translate(544.2527,119.4261)">
          <path
             d="M 0,0 V -3.572 H -0.518 V 0 H -1.022 V 0.532 H 0.533 V 0 Z"
             style="fill:#231f20;fill-opacity:1;fill-rule:nonzero;stroke:none"
             id="path5336"
             inkscape:connector-curvature="0" />
        </g>
        <g
           id="g5338"
           transform="translate(548.9907,116.272)">
          <path
             d="m 0,0 c -0.072,-0.303 -0.361,-0.488 -0.721,-0.488 -0.418,0 -0.675,0.172 -0.806,0.547 -0.116,0.345 -0.172,0.906 -0.172,1.568 0,0.375 0.043,0.922 0.099,1.238 0.116,0.633 0.362,0.879 0.85,0.879 0.461,0 0.764,-0.289 0.807,-0.793 h -0.534 c -0.013,0.174 -0.115,0.26 -0.257,0.26 -0.188,0 -0.289,-0.129 -0.346,-0.402 -0.072,-0.332 -0.088,-0.635 -0.088,-1.182 0,-0.576 0.016,-0.82 0.088,-1.166 0.057,-0.274 0.158,-0.418 0.33,-0.418 0.188,0 0.273,0.144 0.273,0.504 H 0.057 C 0.057,0.23 0.043,0.145 0,0"
             style="fill:#231f20;fill-opacity:1;fill-rule:nonzero;stroke:none"
             id="path5340"
             inkscape:connector-curvature="0" />
        </g>
        <g
           id="g5342"
           transform="translate(550.2857,119.4261)">
          <path
             d="m 0,0 h -0.258 v -1.123 h 0.346 c 0.287,0 0.373,0.129 0.373,0.518 C 0.461,-0.144 0.361,0 0,0 M 0.562,-1.527 0.98,-3.572 H 0.447 l -0.461,1.916 h -0.244 v -1.916 h -0.519 v 4.104 h 0.806 c 0.633,0 0.965,-0.389 0.965,-1.151 0,-0.461 -0.129,-0.721 -0.432,-0.908"
             style="fill:#231f20;fill-opacity:1;fill-rule:nonzero;stroke:none"
             id="path5344"
             inkscape:connector-curvature="0" />
        </g>
        <g
           id="g5346"
           transform="translate(552.7617,119.483)">
          <path
             d="m 0,0 c -0.474,0 -0.416,-1.281 -0.416,-1.568 0,-0.276 -0.058,-1.6 0.416,-1.6 0.461,0 0.405,1.324 0.405,1.6 C 0.405,-1.238 0.389,0 0,0 m 0,-3.699 c -1.021,0 -0.949,1.453 -0.949,2.131 0,0.705 -0.058,2.101 0.949,2.101 1.008,0 0.952,-1.412 0.952,-2.101 0,-0.678 0.056,-2.131 -0.952,-2.131"
             style="fill:#231f20;fill-opacity:1;fill-rule:nonzero;stroke:none"
             id="path5348"
             inkscape:connector-curvature="0" />
        </g>
        <g
           id="g5350"
           transform="translate(555.6707,115.9691)">
          <path
             d="m 0,0 c -0.129,-0.115 -0.317,-0.185 -0.532,-0.185 -0.576,0 -0.878,0.373 -0.908,1.093 h 0.533 c 0,-0.158 0.014,-0.216 0.043,-0.302 0.043,-0.158 0.174,-0.26 0.332,-0.26 0.202,0 0.331,0.158 0.331,0.418 0,0.359 -0.129,0.662 -0.446,1.037 -0.187,0.215 -0.316,0.373 -0.361,0.432 -0.231,0.273 -0.33,0.562 -0.33,0.849 0,0.561 0.346,0.965 0.834,0.965 0.504,0 0.779,-0.316 0.836,-0.965 h -0.533 c -0.014,0.317 -0.1,0.446 -0.288,0.446 -0.201,0 -0.316,-0.172 -0.316,-0.446 0,-0.187 0.07,-0.332 0.287,-0.562 C -0.071,2.016 0,1.916 0.131,1.656 0.246,1.397 0.332,1.053 0.332,0.764 0.332,0.477 0.203,0.174 0,0"
             style="fill:#231f20;fill-opacity:1;fill-rule:nonzero;stroke:none"
             id="path5352"
             inkscape:connector-curvature="0" />
        </g>
        <g
           id="g5354"
           transform="translate(557.8447,115.9691)">
          <path
             d="m 0,0 c -0.129,-0.115 -0.317,-0.185 -0.532,-0.185 -0.576,0 -0.879,0.373 -0.908,1.093 h 0.533 c 0,-0.158 0.014,-0.216 0.043,-0.302 0.043,-0.158 0.174,-0.26 0.332,-0.26 0.201,0 0.33,0.158 0.33,0.418 0,0.359 -0.129,0.662 -0.445,1.037 -0.187,0.215 -0.316,0.373 -0.361,0.432 -0.231,0.273 -0.33,0.562 -0.33,0.849 0,0.561 0.345,0.965 0.834,0.965 0.504,0 0.779,-0.316 0.836,-0.965 h -0.534 c -0.013,0.317 -0.099,0.446 -0.287,0.446 -0.201,0 -0.316,-0.172 -0.316,-0.446 0,-0.187 0.072,-0.332 0.287,-0.562 C -0.071,2.016 0,1.916 0.13,1.656 0.246,1.397 0.332,1.053 0.332,0.764 0.332,0.477 0.203,0.174 0,0"
             style="fill:#231f20;fill-opacity:1;fill-rule:nonzero;stroke:none"
             id="path5356"
             inkscape:connector-curvature="0" />
        </g>
        <g
           id="g5358"
           transform="translate(519.2467,123.192)">
          <path
             d="m 0,0 c 0,-0.123 -0.035,-0.227 -0.104,-0.309 -0.08,-0.093 -0.193,-0.142 -0.343,-0.142 -0.186,0 -0.313,0.088 -0.381,0.265 -0.03,0.075 -0.045,0.162 -0.049,0.266 h 0.264 c 0.007,-0.178 0.064,-0.266 0.166,-0.266 0.121,0 0.181,0.063 0.181,0.186 0,0.166 -0.051,0.314 -0.152,0.447 -0.092,0.106 -0.184,0.213 -0.277,0.319 -0.1,0.13 -0.151,0.281 -0.151,0.449 0,0.084 0.031,0.168 0.094,0.25 0.08,0.109 0.189,0.164 0.326,0.166 0.178,0.002 0.301,-0.078 0.373,-0.235 C -0.024,1.33 -0.006,1.252 0,1.16 h -0.266 c -0.01,0.137 -0.062,0.205 -0.16,0.205 -0.043,0 -0.08,-0.015 -0.109,-0.045 C -0.567,1.289 -0.58,1.254 -0.58,1.213 -0.58,1.096 -0.529,0.978 -0.43,0.863 -0.246,0.65 -0.154,0.543 -0.151,0.539 -0.051,0.387 0,0.207 0,0"
             style="fill:#231f20;fill-opacity:1;fill-rule:nonzero;stroke:none"
             id="path5360"
             inkscape:connector-curvature="0" />
        </g>
        <g
           id="g5362"
           transform="translate(520.1857,124.536)">
          <path
             d="M 0,0 H -0.256 V -1.774 H -0.521 V 0 H -0.775 V 0.265 H 0 Z"
             style="fill:#231f20;fill-opacity:1;fill-rule:nonzero;stroke:none"
             id="path5364"
             inkscape:connector-curvature="0" />
        </g>
        <g
           id="g5366"
           transform="translate(521.2467,122.7621)">
          <path
             d="M 0,0 H -0.776 V 2.039 H 0 V 1.774 H -0.51 V 1.223 h 0.326 V 0.975 H -0.51 V 0.266 H 0 Z"
             style="fill:#231f20;fill-opacity:1;fill-rule:nonzero;stroke:none"
             id="path5368"
             inkscape:connector-curvature="0" />
        </g>
        <g
           id="g5370"
           transform="translate(522.0787,123.536)">
          <path
             d="M 0,0 -0.119,0.578 -0.238,0 Z M 0.432,-0.774 H 0.158 L 0.055,-0.266 H -0.293 L -0.399,-0.774 H -0.67 l 0.418,2.039 h 0.266 z"
             style="fill:#231f20;fill-opacity:1;fill-rule:nonzero;stroke:none"
             id="path5372"
             inkscape:connector-curvature="0" />
        </g>
        <g
           id="g5374"
           transform="translate(523.4107,123.782)">
          <path
             d="m 0,0 c 0,0.338 -0.031,0.562 -0.092,0.676 -0.031,0.052 -0.076,0.078 -0.137,0.078 h -0.119 v -1.508 h 0.119 c 0.063,0 0.108,0.025 0.137,0.076 C -0.031,-0.569 0,-0.342 0,0 m 0.266,0 c 0,-0.444 -0.061,-0.742 -0.18,-0.895 C 0.019,-0.979 -0.082,-1.02 -0.215,-1.02 h -0.398 v 2.039 h 0.398 c 0.133,0 0.233,-0.043 0.299,-0.131 C 0.205,0.736 0.266,0.439 0.266,0"
             style="fill:#231f20;fill-opacity:1;fill-rule:nonzero;stroke:none"
             id="path5376"
             inkscape:connector-curvature="0" />
        </g>
        <g
           id="g5378"
           transform="translate(525.0007,124.8011)">
          <path
             d="M 0,0 -0.418,-1.08 V -2.039 H -0.684 V -1.08 L -1.102,0 h 0.283 L -0.551,-0.687 -0.283,0 Z"
             style="fill:#231f20;fill-opacity:1;fill-rule:nonzero;stroke:none"
             id="path5380"
             inkscape:connector-curvature="0" />
        </g>
        <g
           id="g5382"
           transform="translate(517.3887,142.6451)">
          <path
             d="M 0,0 V 2.041 H 0.778 V 1.775 H 0.266 V 1.225 H 0.573 V 0.959 H 0.266 V 0 Z"
             style="fill:#231f20;fill-opacity:1;fill-rule:nonzero;stroke:none"
             id="path5384"
             inkscape:connector-curvature="0" />
        </g>
        <g
           id="g5386"
           transform="translate(519.2267,142.6451)">
          <path
             d="m 0,0 h -0.775 v 2.041 h 0.266 V 0.266 H 0 Z"
             style="fill:#231f20;fill-opacity:1;fill-rule:nonzero;stroke:none"
             id="path5388"
             inkscape:connector-curvature="0" />
        </g>
        <g
           id="g5390"
           transform="translate(520.0177,143.42)">
          <path
             d="M 0,0 -0.119,0.579 -0.24,0 Z M 0.432,-0.775 H 0.159 l -0.104,0.51 h -0.348 l -0.105,-0.51 H -0.67 l 0.418,2.041 h 0.266 z"
             style="fill:#231f20;fill-opacity:1;fill-rule:nonzero;stroke:none"
             id="path5392"
             inkscape:connector-curvature="0" />
        </g>
        <g
           id="g5394"
           transform="translate(521.4907,143.0771)">
          <path
             d="m 0,0 c 0,-0.125 -0.033,-0.227 -0.104,-0.309 -0.078,-0.096 -0.193,-0.143 -0.343,-0.143 -0.184,0 -0.313,0.088 -0.381,0.266 -0.029,0.072 -0.045,0.162 -0.049,0.266 h 0.266 c 0.007,-0.178 0.062,-0.266 0.164,-0.266 0.121,0 0.181,0.063 0.181,0.186 0,0.166 -0.05,0.314 -0.15,0.447 -0.094,0.105 -0.186,0.211 -0.279,0.318 -0.1,0.131 -0.151,0.282 -0.151,0.448 0,0.085 0.032,0.168 0.094,0.252 0.08,0.109 0.19,0.164 0.328,0.166 0.176,0 0.301,-0.079 0.371,-0.237 C -0.023,1.33 -0.004,1.252 0,1.16 H -0.266 C -0.275,1.297 -0.328,1.363 -0.424,1.363 -0.469,1.363 -0.506,1.349 -0.535,1.32 -0.564,1.289 -0.58,1.254 -0.58,1.213 -0.58,1.095 -0.529,0.978 -0.428,0.863 -0.246,0.65 -0.154,0.543 -0.15,0.537 -0.051,0.384 0,0.207 0,0"
             style="fill:#231f20;fill-opacity:1;fill-rule:nonzero;stroke:none"
             id="path5396"
             inkscape:connector-curvature="0" />
        </g>
        <g
           id="g5398"
           transform="translate(522.6957,142.6451)">
          <path
             d="M 0,0 H -0.266 V 0.959 H -0.611 V 0 h -0.266 v 2.041 h 0.266 V 1.225 h 0.345 V 2.041 H 0 Z"
             style="fill:#231f20;fill-opacity:1;fill-rule:nonzero;stroke:none"
             id="path5400"
             inkscape:connector-curvature="0" />
        </g>
        <path
           d="m 523.411,142.645 h -0.266 v 2.041 h 0.266 z"
           style="fill:#231f20;fill-opacity:1;fill-rule:nonzero;stroke:none"
           id="path5402"
           inkscape:connector-curvature="0" />
        <g
           id="g5404"
           transform="translate(524.7367,142.6451)">
          <path
             d="M 0,0 H -0.244 L -0.611,1.17 V 0 h -0.266 v 2.041 h 0.264 L -0.266,0.943 V 2.041 H 0 Z"
             style="fill:#231f20;fill-opacity:1;fill-rule:nonzero;stroke:none"
             id="path5406"
             inkscape:connector-curvature="0" />
        </g>
        <g
           id="g5408"
           transform="translate(525.5947,144.4401)">
          <path
             d="m 0,0 c -0.081,0 -0.137,-0.07 -0.168,-0.213 -0.026,-0.115 -0.038,-0.303 -0.038,-0.56 0,-0.213 0.006,-0.366 0.02,-0.458 0.027,-0.212 0.09,-0.318 0.186,-0.318 0.093,0 0.142,0.082 0.142,0.248 v 0.199 H 0 v 0.266 H 0.408 V -1.301 C 0.408,-1.445 0.378,-1.565 0.32,-1.654 0.248,-1.762 0.142,-1.815 0,-1.815 c -0.19,0 -0.321,0.106 -0.393,0.319 -0.053,0.154 -0.078,0.394 -0.078,0.723 0,0.341 0.029,0.593 0.09,0.751 0.072,0.192 0.199,0.29 0.381,0.29 0.24,0 0.376,-0.133 0.408,-0.395 H 0.142 C 0.109,-0.041 0.062,0 0,0"
             style="fill:#231f20;fill-opacity:1;fill-rule:nonzero;stroke:none"
             id="path5410"
             inkscape:connector-curvature="0" />
        </g>
        <g
           id="g5412"
           transform="translate(533.0947,139.0551)">
          <path
             d="M 0,0 H -0.545 V -3.803 H -1.114 V 0 H -1.659 V 0.569 H 0 Z"
             style="fill:#231f20;fill-opacity:1;fill-rule:nonzero;stroke:none"
             id="path5414"
             inkscape:connector-curvature="0" />
        </g>
        <path
           d="m 534.214,135.252 h -0.571 v 4.372 h 0.571 z"
           style="fill:#231f20;fill-opacity:1;fill-rule:nonzero;stroke:none"
           id="path5416"
           inkscape:connector-curvature="0" />
        <g
           id="g5418"
           transform="translate(537.2527,135.252)">
          <path
             d="M 0,0 H -0.569 V 2.536 L -1.073,0.961 -1.574,2.536 V 0 h -0.571 v 4.372 h 0.569 L -1.073,2.754 -0.53,4.372 H 0 Z"
             style="fill:#231f20;fill-opacity:1;fill-rule:nonzero;stroke:none"
             id="path5420"
             inkscape:connector-curvature="0" />
        </g>
        <g
           id="g5422"
           transform="translate(539.8087,135.252)">
          <path
             d="M 0,0 H -1.662 V 4.372 H 0 V 3.803 H -1.091 V 2.625 h 0.697 V 2.094 H -1.091 V 0.569 H 0 Z"
             style="fill:#231f20;fill-opacity:1;fill-rule:nonzero;stroke:none"
             id="path5424"
             inkscape:connector-curvature="0" />
        </g>
        <g
           id="g5426"
           transform="translate(543.2387,138.444)">
          <path
             d="M 0,0 C 0,0.406 -0.125,0.611 -0.375,0.611 H -0.74 v -1.178 h 0.353 C -0.129,-0.567 0,-0.377 0,0 m 0.57,-3.192 h -0.582 l -0.453,2.055 H -0.74 V -3.192 H -1.309 V 1.18 h 0.788 c 0.246,0 0.457,-0.053 0.628,-0.159 C 0.416,0.83 0.57,0.488 0.57,0 0.57,-0.504 0.41,-0.842 0.09,-1.01 Z"
             style="fill:#231f20;fill-opacity:1;fill-rule:nonzero;stroke:none"
             id="path5428"
             inkscape:connector-curvature="0" />
        </g>
        <g
           id="g5430"
           transform="translate(546.1057,135.252)">
          <path
             d="M 0,0 H -1.662 V 4.372 H 0 V 3.803 H -1.092 V 2.625 h 0.698 V 2.094 H -1.092 V 0.569 H 0 Z"
             style="fill:#231f20;fill-opacity:1;fill-rule:nonzero;stroke:none"
             id="path5432"
             inkscape:connector-curvature="0" />
        </g>
        <g
           id="g5434"
           transform="translate(548.8857,135.252)">
          <path
             d="M 0,0 H -0.571 V 2.536 L -1.073,0.961 -1.577,2.536 V 0 h -0.568 v 4.372 h 0.568 l 0.504,-1.618 0.541,1.618 H 0 Z"
             style="fill:#231f20;fill-opacity:1;fill-rule:nonzero;stroke:none"
             id="path5436"
             inkscape:connector-curvature="0" />
        </g>
        <g
           id="g5438"
           transform="translate(550.8657,136.917)">
          <path
             d="M 0,0 -0.254,1.234 -0.512,0 Z M 0.928,-1.665 H 0.34 l -0.223,1.094 h -0.742 l -0.229,-1.094 h -0.582 l 0.897,4.372 h 0.568 z"
             style="fill:#231f20;fill-opacity:1;fill-rule:nonzero;stroke:none"
             id="path5440"
             inkscape:connector-curvature="0" />
        </g>
        <path
           d="m 552.907,135.252 h -0.57 v 4.372 h 0.57 z"
           style="fill:#231f20;fill-opacity:1;fill-rule:nonzero;stroke:none"
           id="path5442"
           inkscape:connector-curvature="0" />
        <g
           id="g5444"
           transform="translate(555.6797,135.252)">
          <path
             d="M 0,0 H -0.523 L -1.308,2.506 V 0 h -0.57 V 4.372 H -1.31 L -0.568,2.02 V 4.372 H 0 Z"
             style="fill:#231f20;fill-opacity:1;fill-rule:nonzero;stroke:none"
             id="path5446"
             inkscape:connector-curvature="0" />
        </g>
        <path
           d="m 557.149,135.252 h -0.57 v 4.372 h 0.57 z"
           style="fill:#231f20;fill-opacity:1;fill-rule:nonzero;stroke:none"
           id="path5448"
           inkscape:connector-curvature="0" />
        <g
           id="g5450"
           transform="translate(559.9227,135.252)">
          <path
             d="M 0,0 H -0.524 L -1.309,2.506 V 0 h -0.57 v 4.372 h 0.568 L -0.569,2.02 V 4.372 H 0 Z"
             style="fill:#231f20;fill-opacity:1;fill-rule:nonzero;stroke:none"
             id="path5452"
             inkscape:connector-curvature="0" />
        </g>
        <g
           id="g5454"
           transform="translate(561.6937,139.0981)">
          <path
             d="m 0,0 c -0.172,0 -0.291,-0.152 -0.357,-0.459 -0.053,-0.248 -0.08,-0.648 -0.08,-1.201 0,-0.455 0.013,-0.781 0.039,-0.979 0.062,-0.455 0.193,-0.681 0.396,-0.681 0.203,0 0.305,0.178 0.305,0.533 v 0.428 H 0 v 0.568 h 0.873 v -0.996 c 0,-0.312 -0.062,-0.564 -0.187,-0.758 -0.153,-0.23 -0.381,-0.345 -0.688,-0.345 -0.404,0 -0.683,0.226 -0.838,0.681 -0.111,0.33 -0.166,0.846 -0.166,1.549 0,0.734 0.065,1.271 0.192,1.613 0.154,0.412 0.425,0.617 0.812,0.617 0.516,0 0.809,-0.281 0.875,-0.843 H 0.305 C 0.236,-0.092 0.133,0 0,0"
             style="fill:#231f20;fill-opacity:1;fill-rule:nonzero;stroke:none"
             id="path5456"
             inkscape:connector-curvature="0" />
        </g>
        <g
           id="g5458"
           transform="translate(532.4707,133.377)">
          <path
             d="M 0,0 H -0.544 V -3.802 H -1.115 V 0 H -1.658 V 0.569 H 0 Z"
             style="fill:#231f20;fill-opacity:1;fill-rule:nonzero;stroke:none"
             id="path5460"
             inkscape:connector-curvature="0" />
        </g>
        <g
           id="g5462"
           transform="translate(533.8036,131.2111)">
          <path
             d="m 0,0 c 0,0.373 -0.006,0.604 -0.018,0.696 -0.029,0.22 -0.104,0.33 -0.223,0.33 -0.107,0 -0.179,-0.108 -0.215,-0.322 C -0.473,0.579 -0.481,0.344 -0.481,0 c 0,-0.74 0.08,-1.111 0.24,-1.111 0.117,0 0.19,0.127 0.219,0.383 C -0.008,-0.615 0,-0.371 0,0 m 0.57,0 c 0,-0.517 -0.047,-0.904 -0.141,-1.162 -0.125,-0.345 -0.349,-0.519 -0.67,-0.519 -0.318,0 -0.539,0.174 -0.666,0.519 -0.095,0.258 -0.142,0.645 -0.142,1.162 0,0.493 0.047,0.862 0.142,1.106 0.127,0.328 0.348,0.49 0.666,0.49 0.319,0 0.541,-0.162 0.666,-0.49 C 0.521,0.862 0.57,0.493 0.57,0"
             style="fill:#231f20;fill-opacity:1;fill-rule:nonzero;stroke:none"
             id="path5464"
             inkscape:connector-curvature="0" />
        </g>
        <g
           id="g5466"
           transform="translate(536.8677,129.575)">
          <path
             d="M 0,0 V 4.371 H 1.662 V 3.802 H 0.568 V 2.625 H 1.227 V 2.056 H 0.568 V 0 Z"
             style="fill:#231f20;fill-opacity:1;fill-rule:nonzero;stroke:none"
             id="path5468"
             inkscape:connector-curvature="0" />
        </g>
        <path
           d="m 539.512,129.575 h -0.57 v 3.191 h 0.57 z m -0.283,4.371 c 0.078,0 0.147,-0.028 0.201,-0.084 0.055,-0.055 0.082,-0.121 0.082,-0.201 0,-0.078 -0.027,-0.145 -0.082,-0.202 -0.054,-0.054 -0.123,-0.082 -0.201,-0.082 -0.078,0 -0.144,0.028 -0.201,0.082 -0.057,0.057 -0.086,0.124 -0.086,0.202 0,0.082 0.029,0.15 0.084,0.205 0.055,0.052 0.123,0.08 0.203,0.08"
           style="fill:#231f20;fill-opacity:1;fill-rule:nonzero;stroke:none"
           id="path5470"
           inkscape:connector-curvature="0" />
        <g
           id="g5472"
           transform="translate(541.7207,129.575)">
          <path
             d="m 0,0 h -0.57 v 2.414 c 0,0.195 -0.072,0.293 -0.219,0.293 -0.144,0 -0.216,-0.098 -0.216,-0.293 V 0 h -0.571 v 3.191 h 0.571 V 3.082 c 0.097,0.099 0.22,0.15 0.367,0.15 0.183,0 0.334,-0.072 0.449,-0.215 C -0.062,2.861 0,2.646 0,2.371 Z"
             style="fill:#231f20;fill-opacity:1;fill-rule:nonzero;stroke:none"
             id="path5474"
             inkscape:connector-curvature="0" />
        </g>
        <path
           d="m 542.88,129.575 h -0.571 v 3.191 h 0.571 z m -0.284,4.371 c 0.079,0 0.145,-0.028 0.202,-0.084 0.054,-0.055 0.082,-0.121 0.082,-0.201 0,-0.078 -0.028,-0.145 -0.082,-0.202 -0.057,-0.054 -0.123,-0.082 -0.202,-0.082 -0.078,0 -0.144,0.028 -0.201,0.082 -0.056,0.057 -0.086,0.124 -0.086,0.202 0,0.082 0.03,0.15 0.084,0.205 0.055,0.052 0.123,0.08 0.203,0.08"
           style="fill:#231f20;fill-opacity:1;fill-rule:nonzero;stroke:none"
           id="path5476"
           inkscape:connector-curvature="0" />
        <g
           id="g5478"
           transform="translate(544.7407,130.463)">
          <path
             d="m 0,0 c 0,-0.265 -0.072,-0.484 -0.215,-0.652 -0.156,-0.187 -0.375,-0.281 -0.652,-0.281 -0.238,0 -0.432,0.121 -0.576,0.363 l 0.166,0.625 c 0.162,-0.279 0.304,-0.418 0.429,-0.418 0.186,0 0.278,0.121 0.278,0.363 0,0.155 -0.076,0.311 -0.227,0.467 -0.14,0.141 -0.279,0.283 -0.42,0.426 -0.15,0.189 -0.226,0.404 -0.226,0.646 0,0.209 0.054,0.391 0.162,0.549 0.127,0.184 0.297,0.276 0.51,0.276 0.285,0 0.511,-0.137 0.677,-0.409 L -0.295,1.381 c -0.139,0.297 -0.271,0.444 -0.402,0.444 -0.127,0 -0.19,-0.084 -0.19,-0.254 0,-0.133 0.076,-0.28 0.229,-0.438 C -0.393,0.86 -0.25,0.709 -0.229,0.682 -0.076,0.479 0,0.25 0,0"
             style="fill:#231f20;fill-opacity:1;fill-rule:nonzero;stroke:none"
             id="path5480"
             inkscape:connector-curvature="0" />
        </g>
        <g
           id="g5482"
           transform="translate(546.6837,129.575)">
          <path
             d="m 0,0 h -0.57 v 2.414 c 0,0.195 -0.072,0.293 -0.217,0.293 -0.146,0 -0.218,-0.098 -0.218,-0.293 V 0 h -0.571 v 4.078 l 0.571,0.338 V 3.082 c 0.099,0.099 0.22,0.15 0.367,0.15 0.183,0 0.334,-0.072 0.451,-0.215 C -0.062,2.861 0,2.646 0,2.371 Z"
             style="fill:#231f20;fill-opacity:1;fill-rule:nonzero;stroke:none"
             id="path5484"
             inkscape:connector-curvature="0" />
        </g>
        <g
           id="g5486"
           transform="translate(551.0117,130.633)">
          <path
             d="m 0,0 c -0.005,-0.213 -0.037,-0.398 -0.095,-0.552 -0.145,-0.368 -0.403,-0.551 -0.78,-0.551 -0.433,0 -0.724,0.24 -0.869,0.722 -0.091,0.299 -0.136,0.803 -0.136,1.508 0,0.723 0.058,1.248 0.175,1.578 0.155,0.436 0.432,0.653 0.83,0.653 0.301,0 0.534,-0.123 0.7,-0.369 C -0.058,2.821 0,2.662 0,2.516 h -0.572 c -0.078,0.182 -0.179,0.271 -0.303,0.271 -0.291,0 -0.435,-0.552 -0.435,-1.66 0,-0.558 0.021,-0.953 0.064,-1.179 0.065,-0.321 0.19,-0.481 0.371,-0.481 0.19,0 0.293,0.178 0.307,0.533 z"
             style="fill:#231f20;fill-opacity:1;fill-rule:nonzero;stroke:none"
             id="path5488"
             inkscape:connector-curvature="0" />
        </g>
        <g
           id="g5490"
           transform="translate(552.6917,132.067)">
          <path
             d="m 0,0 c -0.029,0.043 -0.058,0.088 -0.088,0.133 -0.047,0.054 -0.105,0.082 -0.174,0.082 -0.142,0 -0.214,-0.162 -0.214,-0.489 v -2.218 h -0.569 v 3.191 h 0.569 V 0.59 c 0.064,0.099 0.156,0.15 0.275,0.15 0.1,0 0.197,-0.043 0.293,-0.131 z"
             style="fill:#231f20;fill-opacity:1;fill-rule:nonzero;stroke:none"
             id="path5492"
             inkscape:connector-curvature="0" />
        </g>
        <g
           id="g5494"
           transform="translate(554.0727,131.2111)">
          <path
             d="m 0,0 c 0,0.373 -0.006,0.604 -0.018,0.696 -0.029,0.22 -0.103,0.33 -0.222,0.33 -0.11,0 -0.18,-0.108 -0.215,-0.322 C -0.473,0.579 -0.482,0.344 -0.482,0 c 0,-0.74 0.08,-1.111 0.242,-1.111 0.115,0 0.189,0.127 0.219,0.383 C -0.008,-0.615 0,-0.371 0,0 m 0.568,0 c 0,-0.517 -0.046,-0.904 -0.138,-1.162 -0.127,-0.345 -0.35,-0.519 -0.67,-0.519 -0.319,0 -0.541,0.174 -0.666,0.519 -0.096,0.258 -0.145,0.645 -0.145,1.162 0,0.493 0.049,0.862 0.145,1.106 0.125,0.328 0.347,0.49 0.666,0.49 0.316,0 0.539,-0.162 0.664,-0.49 C 0.522,0.862 0.568,0.493 0.568,0"
             style="fill:#231f20;fill-opacity:1;fill-rule:nonzero;stroke:none"
             id="path5496"
             inkscape:connector-curvature="0" />
        </g>
        <g
           id="g5498"
           transform="translate(556.3717,130.463)">
          <path
             d="m 0,0 c 0,-0.265 -0.07,-0.484 -0.213,-0.652 -0.158,-0.187 -0.375,-0.281 -0.654,-0.281 -0.239,0 -0.43,0.121 -0.575,0.363 l 0.165,0.625 c 0.162,-0.279 0.304,-0.418 0.429,-0.418 0.186,0 0.28,0.121 0.28,0.363 0,0.155 -0.077,0.311 -0.229,0.467 -0.139,0.141 -0.279,0.283 -0.418,0.426 -0.152,0.189 -0.227,0.404 -0.227,0.646 0,0.209 0.053,0.391 0.161,0.549 0.129,0.184 0.298,0.276 0.511,0.276 0.285,0 0.51,-0.137 0.676,-0.409 L -0.295,1.381 c -0.137,0.297 -0.272,0.444 -0.402,0.444 -0.125,0 -0.188,-0.084 -0.188,-0.254 0,-0.133 0.076,-0.28 0.227,-0.438 C -0.393,0.86 -0.248,0.709 -0.229,0.682 -0.076,0.479 0,0.25 0,0"
             style="fill:#231f20;fill-opacity:1;fill-rule:nonzero;stroke:none"
             id="path5500"
             inkscape:connector-curvature="0" />
        </g>
        <g
           id="g5502"
           transform="translate(557.9677,130.463)">
          <path
             d="m 0,0 c 0,-0.265 -0.071,-0.484 -0.213,-0.652 -0.157,-0.187 -0.375,-0.281 -0.655,-0.281 -0.238,0 -0.429,0.121 -0.574,0.363 l 0.164,0.625 c 0.162,-0.279 0.307,-0.418 0.43,-0.418 0.185,0 0.279,0.121 0.279,0.363 0,0.155 -0.076,0.311 -0.226,0.467 -0.141,0.141 -0.282,0.283 -0.42,0.426 -0.153,0.189 -0.227,0.404 -0.227,0.646 0,0.209 0.053,0.391 0.16,0.549 0.129,0.184 0.299,0.276 0.512,0.276 0.285,0 0.512,-0.137 0.678,-0.409 L -0.293,1.381 c -0.139,0.297 -0.274,0.444 -0.405,0.444 -0.125,0 -0.187,-0.084 -0.187,-0.254 0,-0.133 0.076,-0.28 0.228,-0.438 C -0.391,0.86 -0.248,0.709 -0.227,0.682 -0.077,0.479 0,0.25 0,0"
             style="fill:#231f20;fill-opacity:1;fill-rule:nonzero;stroke:none"
             id="path5504"
             inkscape:connector-curvature="0" />
        </g>
        <path
           d="m 558.907,129.575 h -0.57 v 3.191 h 0.57 z m -0.283,4.371 c 0.078,0 0.144,-0.028 0.199,-0.084 0.055,-0.055 0.084,-0.121 0.084,-0.201 0,-0.078 -0.029,-0.145 -0.084,-0.202 -0.055,-0.054 -0.121,-0.082 -0.199,-0.082 -0.078,0 -0.147,0.028 -0.203,0.082 -0.057,0.057 -0.084,0.124 -0.084,0.202 0,0.082 0.027,0.15 0.082,0.205 0.056,0.052 0.123,0.08 0.205,0.08"
           style="fill:#231f20;fill-opacity:1;fill-rule:nonzero;stroke:none"
           id="path5506"
           inkscape:connector-curvature="0" />
        <g
           id="g5508"
           transform="translate(561.1136,129.575)">
          <path
             d="m 0,0 h -0.568 v 2.414 c 0,0.195 -0.073,0.293 -0.219,0.293 -0.145,0 -0.219,-0.098 -0.219,-0.293 V 0 h -0.568 v 3.191 h 0.568 V 3.082 c 0.1,0.099 0.223,0.15 0.367,0.15 0.184,0 0.334,-0.072 0.452,-0.215 C -0.062,2.861 0,2.646 0,2.371 Z"
             style="fill:#231f20;fill-opacity:1;fill-rule:nonzero;stroke:none"
             id="path5510"
             inkscape:connector-curvature="0" />
        </g>
        <g
           id="g5512"
           transform="translate(562.1217,131.125)">
          <path
             d="m 0,0 c 0,-0.683 0.086,-1.025 0.256,-1.025 0.162,0 0.244,0.094 0.244,0.283 V 0.829 C 0.5,0.918 0.474,0.989 0.424,1.04 0.373,1.088 0.32,1.112 0.265,1.112 0.146,1.112 0.068,0.993 0.035,0.754 0.012,0.616 0,0.364 0,0 M 0.5,-1.498 C 0.371,-1.562 0.269,-1.595 0.195,-1.595 c -0.279,0 -0.48,0.189 -0.605,0.568 -0.09,0.272 -0.135,0.613 -0.135,1.027 0,1.122 0.246,1.682 0.74,1.682 0.156,0 0.258,-0.051 0.305,-0.15 v 0.109 h 0.568 v -3.578 c 0,-0.6 -0.275,-0.996 -0.826,-1.189 l -0.213,0.5 C 0.342,-2.511 0.5,-2.277 0.5,-1.927 Z"
             style="fill:#231f20;fill-opacity:1;fill-rule:nonzero;stroke:none"
             id="path5514"
             inkscape:connector-curvature="0" />
        </g>
        <path
           d="m 522.573,137.067 h 2.459 v 3.182 h -2.459 z m 0,-3.772 h 2.459 v 3.248 h -2.459 z m 0.131,7.512 h 2.197 c 0.395,0 0.721,-0.197 0.721,-0.426 v -3.314 c 0,-0.131 -0.065,-0.229 -0.162,-0.293 0.097,-0.1 0.162,-0.197 0.162,-0.297 v -3.312 c 0,-0.262 -0.326,-0.457 -0.721,-0.457 h -2.197 c -0.395,0 -0.723,0.195 -0.723,0.457 v 3.312 c 0,0.1 0.067,0.197 0.199,0.297 -0.132,0.064 -0.199,0.162 -0.199,0.293 v 3.314 c 0,0.229 0.328,0.426 0.723,0.426"
           style="fill:#f48412;fill-opacity:1;fill-rule:evenodd;stroke:none"
           id="path5516"
           inkscape:connector-curvature="0" />
        <g
           id="g5518"
           transform="translate(521.1197,136.958)">
          <path
             d="M 0,0 C 0,-0.1 -0.08,-0.182 -0.182,-0.182 H -0.418 C -0.52,-0.182 -0.6,-0.1 -0.6,0 v 3.669 c 0,0.1 0.08,0.182 0.182,0.182 h 0.236 C -0.08,3.851 0,3.769 0,3.669 Z"
             style="fill:#f48412;fill-opacity:1;fill-rule:evenodd;stroke:none"
             id="path5520"
             inkscape:connector-curvature="0" />
        </g>
        <g
           id="g5522"
           transform="translate(521.1197,132.924)">
          <path
             d="M 0,0 C 0,-0.099 -0.08,-0.181 -0.182,-0.181 H -0.418 C -0.52,-0.181 -0.6,-0.099 -0.6,0 v 3.67 c 0,0.1 0.08,0.182 0.182,0.182 h 0.236 C -0.08,3.852 0,3.77 0,3.67 Z"
             style="fill:#f48412;fill-opacity:1;fill-rule:evenodd;stroke:none"
             id="path5524"
             inkscape:connector-curvature="0" />
        </g>
        <g
           id="g5526"
           transform="translate(519.8947,130.633)">
          <path
             d="M 0,0 H -0.254 V -1.773 H -0.519 V 0 H -0.775 V 0.268 H 0 Z"
             style="fill:#231f20;fill-opacity:1;fill-rule:nonzero;stroke:none"
             id="path5528"
             inkscape:connector-curvature="0" />
        </g>
        <path
           d="m 520.417,128.86 h -0.266 v 2.041 h 0.266 z"
           style="fill:#231f20;fill-opacity:1;fill-rule:nonzero;stroke:none"
           id="path5530"
           inkscape:connector-curvature="0" />
        <g
           id="g5532"
           transform="translate(521.8327,128.86)">
          <path
             d="M 0,0 H -0.266 V 1.183 L -0.498,0.449 -0.733,1.183 V 0 h -0.265 v 2.041 h 0.263 l 0.237,-0.756 0.252,0.756 H 0 Z"
             style="fill:#231f20;fill-opacity:1;fill-rule:nonzero;stroke:none"
             id="path5534"
             inkscape:connector-curvature="0" />
        </g>
        <g
           id="g5536"
           transform="translate(523.0277,128.86)">
          <path
             d="M 0,0 H -0.775 V 2.041 H 0 V 1.773 H -0.51 V 1.224 h 0.327 V 0.976 H -0.51 V 0.265 H 0 Z"
             style="fill:#231f20;fill-opacity:1;fill-rule:nonzero;stroke:none"
             id="path5538"
             inkscape:connector-curvature="0" />
        </g>
        <g
           id="g5540"
           transform="translate(523.9357,130.3481)">
          <path
             d="m 0,0 c 0,0.192 -0.058,0.285 -0.175,0.285 h -0.172 v -0.549 h 0.166 C -0.06,-0.264 0,-0.176 0,0 m 0.266,-1.488 h -0.272 l -0.212,0.959 h -0.129 v -0.959 h -0.266 v 2.041 h 0.367 c 0.117,0 0.215,-0.026 0.295,-0.074 C 0.194,0.389 0.266,0.229 0.266,0 0.266,-0.234 0.19,-0.39 0.041,-0.471 Z"
             style="fill:#231f20;fill-opacity:1;fill-rule:nonzero;stroke:none"
             id="path5542"
             inkscape:connector-curvature="0" />
        </g>
      </g>
    </g>
  </g>
</svg>
