<?xml version="1.0" encoding="UTF-8" standalone="no"?>
<!-- Created with Inkscape (http://www.inkscape.org/) -->

<svg
   width="55.040386mm"
   height="55.040386mm"
   viewBox="0 0 55.040386 55.040386"
   version="1.1"
   id="svg1"
   sodipodi:docname="MUTCD_R1-5aR.svg"
   inkscape:version="1.3 (0e150ed, 2023-07-21)"
   xmlns:inkscape="http://www.inkscape.org/namespaces/inkscape"
   xmlns:sodipodi="http://sodipodi.sourceforge.net/DTD/sodipodi-0.dtd"
   xmlns="http://www.w3.org/2000/svg"
   xmlns:svg="http://www.w3.org/2000/svg">
  <sodipodi:namedview
     id="namedview1"
     pagecolor="#ffffff"
     bordercolor="#666666"
     borderopacity="1.0"
     inkscape:showpageshadow="2"
     inkscape:pageopacity="0.0"
     inkscape:pagecheckerboard="0"
     inkscape:deskcolor="#d1d1d1"
     inkscape:document-units="mm"
     inkscape:zoom="2"
     inkscape:cx="94"
     inkscape:cy="99.5"
     inkscape:window-width="1440"
     inkscape:window-height="855"
     inkscape:window-x="0"
     inkscape:window-y="23"
     inkscape:window-maximized="1"
     inkscape:current-layer="layer1" />
  <defs
     id="defs1">
    <clipPath
       clipPathUnits="userSpaceOnUse"
       id="clipPath249">
      <path
         d="M 20.194,43.94 H 526.773 V 738 H 20.194 Z"
         transform="translate(-79.574799,-524.10172)"
         id="path249" />
    </clipPath>
  </defs>
  <g
     inkscape:label="Layer 1"
     inkscape:groupmode="layer"
     id="layer1"
     transform="translate(-371.475,-162.45417)">
    <g
       id="g247"
       transform="matrix(-0.26458333,0,0,0.26458333,451.07048,122.94196)">
      <path
         id="path248"
         d="m 0,0 c -5.428,0 -9.845,4.417 -9.845,9.845 v 136.08 c 0,5.429 4.417,9.845 9.846,9.845 H 136.08 c 5.429,0 9.845,-4.416 9.845,-9.845 V 9.845 C 145.925,4.417 141.509,0 136.08,0 Z"
         style="fill:#ffffff;fill-opacity:1;fill-rule:nonzero;stroke:none"
         transform="matrix(1.3333333,0,0,-1.3333333,106.09973,357.19773)"
         clip-path="url(#clipPath249)" />
    </g>
    <g
       id="g249"
       transform="matrix(-0.26458333,0,0,0.26458333,451.07048,122.94196)">
      <path
         id="path250"
         d="m 0,0 h -136.08 c -5.497,0 -9.97,-4.473 -9.97,-9.97 v -136.08 c 0,-5.497 4.473,-9.97 9.97,-9.97 H 0 c 5.497,0 9.97,4.473 9.97,9.97 V -9.97 C 9.97,-4.473 5.497,0 0,0 m 0,-0.25 c 5.368,0 9.72,-4.352 9.72,-9.72 v -136.08 c 0,-5.368 -4.352,-9.72 -9.72,-9.72 h -136.08 c -5.368,0 -9.72,4.352 -9.72,9.72 V -9.97 c 0,5.368 4.352,9.72 9.72,9.72 z"
         style="fill:#000000;fill-opacity:1;fill-rule:nonzero;stroke:none"
         transform="matrix(1.3333333,0,0,-1.3333333,287.54,149.33747)" />
    </g>
    <g
       id="g250"
       transform="matrix(-0.26458333,0,0,0.26458333,451.07048,122.94196)">
      <path
         id="path251"
         d="M 0,0 C -3.871,0 -7.02,3.149 -7.02,7.02 V 143.1 c 0,3.871 3.149,7.02 7.02,7.02 h 136.08 c 3.871,0 7.02,-3.149 7.02,-7.02 V 7.02 C 143.1,3.149 139.951,0 136.08,0 Z"
         style="fill:#000000;fill-opacity:1;fill-rule:nonzero;stroke:none"
         transform="matrix(1.3333333,0,0,-1.3333333,106.1,353.4308)" />
      <path
         id="path252"
         d="m 0,0 c -1.786,0 -3.24,1.454 -3.24,3.24 v 136.08 c 0,1.787 1.454,3.24 3.24,3.24 h 136.08 c 1.787,0 3.24,-1.454 3.24,-3.24 V 3.24 C 139.32,1.454 137.867,0 136.08,0 Z"
         style="fill:#ffffff;fill-opacity:1;fill-rule:nonzero;stroke:none"
         transform="matrix(1.3333333,0,0,-1.3333333,106.1,348.39067)" />
    </g>
    <g
       id="g252"
       transform="matrix(-0.26458333,0,0,0.26458333,451.07048,122.94196)">
      <path
         id="path253"
         d="m 0,0 c -15.053,0.001 -29.63,-5.493 -40.898,-15.554 l -3.061,8.901 c -0.286,0.899 -1.13,1.52 -2.078,1.512 -1.115,-0.01 -2.046,-0.882 -2.12,-1.99 l -4.492,-24.978 c 0.037,0.005 25.141,3.463 25.141,3.463 1.11,0.028 2.02,0.922 2.076,2.036 0.047,0.947 -0.539,1.816 -1.426,2.139 l -9.112,3.543 c 8.763,5.855 19.43,9.411 30.096,9.412 6.483,10e-4 13.594,-1.463 19.469,-3.805 l 0.226,13.612 C 9.558,-0.718 4.54,-0.001 0,0"
         style="fill:#000000;fill-opacity:1;fill-rule:nonzero;stroke:none"
         transform="matrix(1.3333333,0,0,-1.3333333,183.49853,279.6592)" />
      <path
         id="path254"
         d="m 203.34067,329.67053 h 3.324 v -19.96667 h 4.216 v -3.07333 h -11.756 v 3.07333 h 4.216 z"
         style="fill:#000000;fill-opacity:1;fill-rule:nonzero;stroke:none;stroke-width:1.33333" />
      <path
         id="path255"
         d="m 189.55933,309.46187 c 0.656,0 3.62533,-0.136 3.62533,8.65733 0,8.856 -2.96933,8.72 -3.62533,8.72 -0.65733,0 -3.62267,0.136 -3.62267,-8.72 0,-8.79333 2.96534,-8.65733 3.62267,-8.65733 m 6.8,8.64 c 0,-12.064 -5.596,-11.87067 -6.83733,-11.87067 -1.24134,0 -6.76267,-0.18533 -6.76267,11.87867 0,12.15067 5.52133,11.96133 6.76267,11.96133 1.24133,0 6.83733,0.18934 6.83733,-11.96933"
         style="fill:#000000;fill-opacity:1;fill-rule:nonzero;stroke:none;stroke-width:1.33333" />
    </g>
    <g
       id="g255"
       transform="matrix(0.26458333,0,0,0.26458333,375.59121,122.94196)">
      <path
         id="path256"
         d="m 0,0 h -4.722 v -7.821 h -2.479 v 17.28 h 2.479 V 2.426 h 4.72 V 9.459 H 2.48 V -7.821 H 0 Z"
         style="fill:#000000;fill-opacity:1;fill-rule:nonzero;stroke:none"
         transform="matrix(1.3333333,0,0,-1.3333333,121.12373,261.64213)" />
      <path
         id="path257"
         d="M 0,0 H 8.147 V -2.426 H 2.493 V -6.791 H 6.078 V -9.156 H 2.493 v -5.701 H 8.817 V -17.28 H 0 Z"
         style="fill:#000000;fill-opacity:1;fill-rule:nonzero;stroke:none"
         transform="matrix(1.3333333,0,0,-1.3333333,129.49947,249.0308)" />
      <path
         id="path258"
         d="m 0,0 v -4.365 h 2.54 c 1.456,0 2.24,0.788 2.24,2.183 C 4.78,-0.847 3.873,0 2.542,0 Z M 2.361,-6.731 H 0 v -8.123 h -2.48 v 17.28 h 5.143 c 2.711,0 4.538,-1.819 4.538,-4.608 0,-2.06 -0.849,-3.577 -2.482,-4.184 l 2.48,-8.488 H 4.661 Z"
         style="fill:#000000;fill-opacity:1;fill-rule:nonzero;stroke:none"
         transform="matrix(1.3333333,0,0,-1.3333333,148.47853,252.26493)" />
      <path
         id="path259"
         d="M 0,0 H 8.147 V -2.426 H 2.493 V -6.791 H 6.078 V -9.156 H 2.493 v -5.701 H 8.817 V -17.28 H 0 Z"
         style="fill:#000000;fill-opacity:1;fill-rule:nonzero;stroke:none"
         transform="matrix(1.3333333,0,0,-1.3333333,161.9976,249.0308)" />
    </g>
    <g
       id="g259"
       transform="matrix(-0.26458333,0,0,0.26458333,451.07048,122.94196)">
      <path
         id="path260"
         d="m 0,0 c -0.966,0 -1.87,0.52 -2.359,1.357 l -31.766,55.02 c -0.243,0.416 -0.371,0.891 -0.371,1.372 0,1.506 1.225,2.731 2.732,2.731 h 63.528 c 1.507,0 2.732,-1.225 2.732,-2.731 0,-0.481 -0.128,-0.956 -0.371,-1.372 L 2.359,1.357 C 1.87,0.52 0.966,0 0,0"
         style="fill:#c0311a;fill-opacity:1;fill-rule:nonzero;stroke:none"
         transform="matrix(1.3333333,0,0,-1.3333333,196.81987,249.0308)" />
      <path
         id="path261"
         d="m 0,0 c 1.508,0 2.731,-1.223 2.731,-2.731 0,-0.496 -0.133,-0.959 -0.363,-1.36 l -12.845,-22.248 c -0.473,-0.814 -1.355,-1.361 -2.363,-1.361 -1.009,0 -1.891,0.547 -2.364,1.361 l -12.845,22.248 c -0.23,0.401 -0.363,0.864 -0.363,1.36 0,1.508 1.223,2.731 2.731,2.731 z"
         style="fill:#ffffff;fill-opacity:1;fill-rule:nonzero;stroke:none"
         transform="matrix(1.3333333,0,0,-1.3333333,213.94053,182.9584)" />
    </g>
    <g
       id="g261"
       transform="matrix(0.26458333,0,0,0.26458333,346.9199,122.94196)">
      <path
         id="path262"
         d="M 0,0 V 6.555 H 3.091 V 5.635 H 0.946 V 3.979 H 2.307 V 3.082 H 0.946 V 0.92 H 3.345 V 0 Z"
         style="fill:#c0311a;fill-opacity:1;fill-rule:nonzero;stroke:none"
         transform="matrix(1.3333333,0,0,-1.3333333,193.54,197.52573)" />
    </g>
    <g
       id="g262"
       transform="matrix(0.26458333,0,0,0.26458333,346.9199,122.94196)">
      <path
         id="path263"
         d="m 142.795,650.411 h 0.918 v -6.555 h -0.918 z"
         style="fill:#c0311a;fill-opacity:1;fill-rule:nonzero;stroke:none"
         transform="matrix(1.3333333,0,0,-1.3333333,0,1056)" />
    </g>
    <g
       id="g263"
       transform="matrix(0.26458333,0,0,0.26458333,346.9199,122.94196)">
      <path
         id="path264"
         d="M 0,0 V 6.555 H 0.946 V 0.874 H 3.345 V 0 Z"
         style="fill:#c0311a;fill-opacity:1;fill-rule:nonzero;stroke:none"
         transform="matrix(1.3333333,0,0,-1.3333333,199.48573,197.526)" />
    </g>
    <g
       id="g264"
       transform="matrix(0.26458333,0,0,0.26458333,346.9199,122.94196)">
      <path
         id="path265"
         d="M 0,0 V -2.967 H -0.946 V 0 L -2.56,3.588 h 0.992 l 1.107,-2.369 1.084,2.369 h 1.014 z"
         style="fill:#c0311a;fill-opacity:1;fill-rule:nonzero;stroke:none"
         transform="matrix(1.3333333,0,0,-1.3333333,186.9868,193.5696)" />
    </g>
    <g
       id="g265"
       transform="matrix(0.26458333,0,0,0.26458333,346.9199,122.94196)">
      <path
         id="path266"
         d="m 0,0 h -0.735 v -4.715 h 0.654 c 0.767,0 1.159,0.335 1.159,2.323 C 1.078,-0.089 0.504,0 0,0 M -1.676,-5.635 V 0.92 h 1.871 c 0.4,0 1.802,-0.019 1.802,-3.266 0,-2.971 -1.295,-3.289 -1.724,-3.289 z"
         style="fill:#c0311a;fill-opacity:1;fill-rule:nonzero;stroke:none"
         transform="matrix(1.3333333,0,0,-1.3333333,207.4036,190.01227)" />
    </g>
    <g
       id="g266"
       transform="matrix(-0.26458333,0,0,0.26458333,451.07048,122.94196)">
      <path
         id="path267"
         d="M 0,0 3.37,-5.149 2.527,-8.33 1.402,-8.614 Z m -21.905,-11.518 -1.031,-0.182 0.937,4.212 0.843,-1.779 z m -3.328,13.456 c -0.764,-0.41 -1.638,-0.643 -2.565,-0.643 -0.438,0 -0.864,0.052 -1.272,0.15 l -2.85,-3.036 -2.905,-9.267 -5.52,-5.244 1.591,-1.496 6.551,4.307 0.842,3.458 1.032,-3.182 -4.213,-13.008 1.496,-0.471 -4.401,-16.567 2.346,-0.842 6.268,16.566 2.527,-0.189 6.929,-16.094 2.433,0.748 -4.961,15.629 c 0.503,0.112 0.998,0.253 1.503,0.364 0.442,0.102 0.877,0.243 1.308,0.385 l -2.527,7.771 6.268,1.496 -1.308,6.369 h -1.496 l 1.024,1.591 -0.182,0.37 5.426,1.503 1.402,2.433 2.062,-8.613 -4.023,-12.732 -1.126,-19.377 4.401,-0.377 1.591,16.101 2.716,5.992 2.055,-8.236 7.677,-14.322 4.024,1.968 -7.205,14.881 0.748,12.826 7.677,2.245 -2.062,7.488 -1.962,-0.277 0.654,4.024 -6.275,11.889 -3.37,1.496 -0.6,1.407 c -0.963,-0.742 -2.169,-1.183 -3.477,-1.183 -0.195,0 -0.388,0.01 -0.579,0.029 l -0.21,-1.189 -2.622,-2.433 -3.275,-11.047 -4.772,-1.968 -2.716,5.992 z m 18.252,19.037 c -2.777,0 -5.028,-2.251 -5.028,-5.028 0,-2.777 2.251,-5.028 5.028,-5.028 2.776,0 5.027,2.251 5.027,5.028 0,2.777 -2.251,5.028 -5.027,5.028 M -23.032,6.741 c 0,-2.632 -2.134,-4.765 -4.766,-4.765 -2.632,0 -4.766,2.133 -4.766,4.765 0,2.632 2.134,4.766 4.766,4.766 2.632,0 4.766,-2.134 4.766,-4.766"
         style="fill:#000000;fill-opacity:1;fill-rule:nonzero;stroke:none"
         transform="matrix(1.3333333,0,0,-1.3333333,270.65987,276.9968)" />
    </g>
  </g>
</svg>
