<?xml version="1.0" encoding="UTF-8" standalone="no"?>
<!-- Created with Inkscape (http://www.inkscape.org/) -->

<svg
   width="26.082272mm"
   height="32.559624mm"
   viewBox="0 0 26.082272 32.559624"
   version="1.1"
   id="svg1"
   inkscape:version="1.3 (0e150ed, 2023-07-21)"
   sodipodi:docname="MUTCD_R9-22.svg"
   xmlns:inkscape="http://www.inkscape.org/namespaces/inkscape"
   xmlns:sodipodi="http://sodipodi.sourceforge.net/DTD/sodipodi-0.dtd"
   xmlns="http://www.w3.org/2000/svg"
   xmlns:svg="http://www.w3.org/2000/svg">
  <sodipodi:namedview
     id="namedview1"
     pagecolor="#ffffff"
     bordercolor="#666666"
     borderopacity="1.0"
     inkscape:showpageshadow="2"
     inkscape:pageopacity="0.0"
     inkscape:pagecheckerboard="0"
     inkscape:deskcolor="#d1d1d1"
     inkscape:document-units="mm"
     inkscape:zoom="1"
     inkscape:cx="48"
     inkscape:cy="62"
     inkscape:window-width="1440"
     inkscape:window-height="431"
     inkscape:window-x="0"
     inkscape:window-y="23"
     inkscape:window-maximized="0"
     inkscape:current-layer="layer1" />
  <defs
     id="defs1">
    <clipPath
       clipPathUnits="userSpaceOnUse"
       id="clipPath520">
      <path
         d="M 26.392,39 H 542.609 V 593.262 H 26.392 Z"
         transform="translate(-240.03171,-58.095601)"
         id="path520" />
    </clipPath>
  </defs>
  <g
     inkscape:label="Layer 1"
     inkscape:groupmode="layer"
     id="layer1"
     transform="translate(-91.281249,-132.29166)">
    <g
       id="g518"
       transform="matrix(0.26458333,0,0,0.26458333,8.310843,-94.097933)">
      <path
         id="path519"
         d="M 0,0 C -2.6,0 -4.714,2.115 -4.714,4.715 V 87.33 c 0,2.6 2.114,4.715 4.714,4.715 h 64.254 c 2.6,0 4.714,-2.115 4.714,-4.715 V 4.715 C 68.968,2.115 66.854,0 64.254,0 Z"
         style="fill:#ffffff;fill-opacity:1;fill-rule:nonzero;stroke:none"
         transform="matrix(1.3333333,0,0,-1.3333333,320.04227,978.5392)"
         clip-path="url(#clipPath520)" />
    </g>
    <g
       id="g520"
       transform="matrix(0.26458333,0,0,0.26458333,8.310843,-94.097933)">
      <path
         id="path521"
         d="m 0,0 h -64.254 c -2.668,0 -4.84,-2.171 -4.84,-4.84 v -82.615 c 0,-2.669 2.172,-4.84 4.84,-4.84 H 0 c 2.669,0 4.84,2.171 4.84,4.84 V -4.84 C 4.84,-2.171 2.669,0 0,0 m 0,-0.25 c 2.535,0 4.59,-2.055 4.59,-4.59 v -82.615 c 0,-2.535 -2.055,-4.59 -4.59,-4.59 h -64.254 c -2.535,0 -4.59,2.055 -4.59,4.59 V -4.84 c 0,2.535 2.055,4.59 4.59,4.59 z"
         style="fill:#000000;fill-opacity:1;fill-rule:nonzero;stroke:none"
         transform="matrix(1.3333333,0,0,-1.3333333,405.71427,855.64573)" />
    </g>
    <g
       id="g521"
       transform="matrix(0.26458333,0,0,0.26458333,8.310843,-94.097933)">
      <path
         id="path522"
         d="m 0,0 c -1.898,0 -3.442,1.544 -3.442,3.442 v 82.616 c 0,1.898 1.544,3.442 3.442,3.442 h 64.254 c 1.898,0 3.442,-1.544 3.442,-3.442 V 3.442 C 67.696,1.544 66.152,0 64.254,0 Z"
         style="fill:#000000;fill-opacity:1;fill-rule:nonzero;stroke:none"
         transform="matrix(1.3333333,0,0,-1.3333333,320.04227,976.84253)" />
      <path
         id="path523"
         d="m 0,0 c -0.844,0 -1.53,0.686 -1.53,1.53 v 82.615 c 0,0.844 0.686,1.53 1.53,1.53 h 64.254 c 0.844,0 1.53,-0.686 1.53,-1.53 V 1.53 C 65.784,0.686 65.098,0 64.254,0 Z"
         style="fill:#ffffff;fill-opacity:1;fill-rule:nonzero;stroke:none"
         transform="matrix(1.3333333,0,0,-1.3333333,320.04227,974.29267)" />
    </g>
    <g
       id="g523"
       transform="matrix(0.26458333,0,0,0.26458333,8.310843,-94.097933)">
      <path
         id="path524"
         d="M 0,0 -2.279,-6.871 -4.559,0 V -6.871 H -6.321 V 5.368 h 1.762 l 2.28,-6.87 L 0,5.368 H 1.762 V -6.871 H 0 Z"
         style="fill:#000000;fill-opacity:1;fill-rule:nonzero;stroke:none"
         transform="matrix(1.3333333,0,0,-1.3333333,348.6952,899.3452)" />
      <path
         id="path525"
         d="m 0,0 v 8.682 h 1.756 v -8.803 c 0,-1.152 0.673,-1.934 1.714,-1.934 0.942,0 1.629,0.773 1.629,1.934 V 8.682 H 6.856 V -0.026 C 6.856,-2.81 4.706,-3.771 3.47,-3.771 2.339,-3.771 0,-3.035 0,0"
         style="fill:#000000;fill-opacity:1;fill-rule:nonzero;stroke:none"
         transform="matrix(1.3333333,0,0,-1.3333333,354.6356,903.76333)" />
      <path
         id="path526"
         d="m 0,0 c 1.339,-0.84 3.346,-2.016 3.346,-4.432 0,-1.981 -1.51,-3.563 -3.407,-3.563 -2.156,0 -3.45,1.823 -3.45,3.821 h 1.726 c 0,-1.042 0.517,-2.105 1.724,-2.105 0.948,0 1.724,0.858 1.724,1.847 0,2.66 -4.57,2.507 -4.57,5.927 0,1.761 1.38,3.176 3.147,3.176 1.726,0 3.063,-1.331 3.106,-3.178 H 1.663 C 1.62,2.351 1.016,2.91 0.24,2.91 -0.58,2.91 -1.225,2.31 -1.225,1.495 -1.225,0.699 -0.803,0.503 0,0"
         style="fill:#000000;fill-opacity:1;fill-rule:nonzero;stroke:none"
         transform="matrix(1.3333333,0,0,-1.3333333,371.2336,898.13133)" />
      <path
         id="path527"
         d="m 0,0 h -1.765 v 10.607 h -2.24 v 1.632 H 2.24 V 10.607 H 0 Z"
         style="fill:#000000;fill-opacity:1;fill-rule:nonzero;stroke:none"
         transform="matrix(1.3333333,0,0,-1.3333333,382.50333,908.50627)" />
      <path
         id="path528"
         d="M 0,0 H 5.77 V -1.718 H 1.765 V -4.81 h 2.54 v -1.675 h -2.54 v -4.038 h 4.48 v -1.716 H 0 Z"
         style="fill:#000000;fill-opacity:1;fill-rule:nonzero;stroke:none"
         transform="matrix(1.3333333,0,0,-1.3333333,345.57467,916.66573)" />
      <path
         id="path529"
         d="m 0,0 -1.73,-4.164 h -1.86 l 2.681,6.355 -2.509,5.884 h 1.861 L 0,4.382 1.557,8.075 H 3.418 L 0.952,2.191 3.633,-4.164 H 1.73 Z"
         style="fill:#000000;fill-opacity:1;fill-rule:nonzero;stroke:none"
         transform="matrix(1.3333333,0,0,-1.3333333,360.1572,927.43227)" />
      <path
         id="path530"
         d="m 275.465,104.501 h 1.713 V 92.262 h -1.713 z"
         style="fill:#000000;fill-opacity:1;fill-rule:nonzero;stroke:none"
         transform="matrix(1.3333333,0,0,-1.3333333,0,1056)" />
      <path
         id="path531"
         d="m 0,0 h -1.765 v 10.607 h -2.24 v 1.632 H 2.24 V 10.607 H 0 Z"
         style="fill:#000000;fill-opacity:1;fill-rule:nonzero;stroke:none"
         transform="matrix(1.3333333,0,0,-1.3333333,377.19587,932.9848)" />
      <path
         id="path532"
         d="m 0,0 c -0.097,-0.2 -0.252,-0.375 -0.459,-0.495 -0.549,-0.316 -1.251,-0.128 -1.568,0.42 -0.073,0.126 -0.118,0.261 -0.14,0.396 l -0.603,3.576 -21.374,-12.325 -3.059,5.3 21.382,12.33 -2.817,2.329 c -0.107,0.086 -0.2,0.193 -0.273,0.319 -0.317,0.549 -0.129,1.251 0.42,1.567 0.207,0.12 0.436,0.168 0.658,0.151 L 6.124,12.581 Z"
         style="fill:#000000;fill-opacity:1;fill-rule:nonzero;stroke:none"
         transform="matrix(1.3333333,0,0,-1.3333333,376.93133,959.2396)" />
    </g>
    <g
       id="g532"
       transform="matrix(0.26458333,0,0,0.26458333,8.310843,-94.097933)">
      <path
         id="path533"
         d="m 0,0 h 1.756 c 0.987,0 1.629,0.687 1.629,1.761 0,1.183 -0.708,2.061 -1.627,2.061 H 0 Z M 0,8.803 V 5.54 h 1.842 c 0.817,0 1.329,0.687 1.329,1.804 0,1.052 -0.378,1.459 -1.328,1.459 z M -1.756,-1.718 V 10.521 H 2.1 c 1.625,0 2.786,-1.288 2.786,-3.177 C 4.886,6.222 4.586,5.711 3.601,4.68 4.543,3.907 5.1,2.876 5.1,1.631 5.1,-0.2 3.642,-1.718 1.843,-1.718 Z"
         style="fill:#000000;fill-opacity:1;fill-rule:nonzero;stroke:none"
         transform="matrix(1.3333333,0,0,-1.3333333,326.13107,881.7368)" />
      <path
         id="path534"
         d="m 251.156,141.218 h 1.713 v -12.239 h -1.713 z"
         style="fill:#000000;fill-opacity:1;fill-rule:nonzero;stroke:none"
         transform="matrix(1.3333333,0,0,-1.3333333,0,1056)" />
      <path
         id="path535"
         d="m 0,0 c -0.17,1.202 -0.646,1.761 -1.466,1.761 -1.422,0 -1.941,-1.117 -1.941,-4.293 0,-3.522 0.604,-4.939 2.114,-4.939 1.036,0 1.293,0.86 1.293,1.761 h 1.768 c -0.042,-2.018 -1.335,-3.479 -3.061,-3.479 -2.629,0 -3.795,2.104 -3.795,6.614 0,3.949 1.25,6.051 3.665,6.051 C 0.82,3.476 1.709,1.43 1.768,0 Z"
         style="fill:#000000;fill-opacity:1;fill-rule:nonzero;stroke:none"
         transform="matrix(1.3333333,0,0,-1.3333333,346.22733,872.05973)" />
      <path
         id="path536"
         d="m 0,0 h -1.765 v 5.54 l -3.014,6.699 h 1.851 l 2.067,-4.423 2.024,4.423 H 3.056 L 0,5.54 Z"
         style="fill:#000000;fill-opacity:1;fill-rule:nonzero;stroke:none"
         transform="matrix(1.3333333,0,0,-1.3333333,356.32867,884.02773)" />
      <path
         id="path537"
         d="m 0,0 c -0.17,1.202 -0.646,1.761 -1.466,1.761 -1.422,0 -1.941,-1.117 -1.941,-4.293 0,-3.522 0.604,-4.939 2.114,-4.939 1.036,0 1.293,0.86 1.293,1.761 h 1.768 c -0.042,-2.018 -1.335,-3.479 -3.061,-3.479 -2.629,0 -3.795,2.104 -3.795,6.614 0,3.949 1.25,6.051 3.665,6.051 C 0.82,3.476 1.709,1.43 1.768,0 Z"
         style="fill:#000000;fill-opacity:1;fill-rule:nonzero;stroke:none"
         transform="matrix(1.3333333,0,0,-1.3333333,368.5592,872.05973)" />
      <path
         id="path538"
         d="m 0,0 h 1.765 v -10.607 h 4.48 v -1.632 H 0 Z"
         style="fill:#000000;fill-opacity:1;fill-rule:nonzero;stroke:none"
         transform="matrix(1.3333333,0,0,-1.3333333,373.20227,867.70867)" />
      <path
         id="path539"
         d="M 0,0 H 5.77 V -1.718 H 1.765 V -4.81 h 2.54 v -1.675 h -2.54 v -4.038 h 4.48 v -1.716 H 0 Z"
         style="fill:#000000;fill-opacity:1;fill-rule:nonzero;stroke:none"
         transform="matrix(1.3333333,0,0,-1.3333333,383.12787,867.70867)" />
      <path
         id="path540"
         d="m 0,0 c 1.339,-0.84 3.346,-2.016 3.346,-4.432 0,-1.981 -1.51,-3.563 -3.407,-3.563 -2.156,0 -3.45,1.823 -3.45,3.821 h 1.726 c 0,-1.041 0.517,-2.105 1.724,-2.105 0.948,0 1.724,0.859 1.724,1.847 0,2.66 -4.57,2.507 -4.57,5.927 0,1.761 1.38,3.176 3.147,3.176 1.726,0 3.063,-1.331 3.106,-3.178 H 1.663 C 1.62,2.352 1.016,2.91 0.24,2.91 -0.58,2.91 -1.225,2.31 -1.225,1.495 -1.225,0.699 -0.803,0.503 0,0"
         style="fill:#000000;fill-opacity:1;fill-rule:nonzero;stroke:none"
         transform="matrix(1.3333333,0,0,-1.3333333,397.50627,873.65293)" />
    </g>
  </g>
</svg>
