<?xml version="1.0" encoding="UTF-8" standalone="no"?>
<!-- Created with Inkscape (http://www.inkscape.org/) -->

<svg
   xmlns:dc="http://purl.org/dc/elements/1.1/"
   xmlns:cc="http://creativecommons.org/ns#"
   xmlns:rdf="http://www.w3.org/1999/02/22-rdf-syntax-ns#"
   xmlns:svg="http://www.w3.org/2000/svg"
   xmlns="http://www.w3.org/2000/svg"
   xmlns:sodipodi="http://sodipodi.sourceforge.net/DTD/sodipodi-0.dtd"
   xmlns:inkscape="http://www.inkscape.org/namespaces/inkscape"
   width="601"
   height="751"
   id="svg2"
   version="1.1"
   inkscape:version="0.48.2 r9819"
   sodipodi:docname="MUTCD_R2-5c.svg">
  <defs
     id="defs4" />
  <sodipodi:namedview
     id="base"
     pagecolor="#ffffff"
     bordercolor="#666666"
     borderopacity="1.0"
     inkscape:pageopacity="0.0"
     inkscape:pageshadow="2"
     inkscape:zoom="0.35"
     inkscape:cx="631.12668"
     inkscape:cy="306.91907"
     inkscape:document-units="px"
     inkscape:current-layer="layer1"
     showgrid="false"
     inkscape:window-width="1280"
     inkscape:window-height="962"
     inkscape:window-x="-8"
     inkscape:window-y="-8"
     inkscape:window-maximized="1"
     fit-margin-top="0"
     fit-margin-left="0"
     fit-margin-right="0"
     fit-margin-bottom="0" />
  <metadata
     id="metadata7">
    <rdf:RDF>
      <cc:Work
         rdf:about="">
        <dc:format>image/svg+xml</dc:format>
        <dc:type
           rdf:resource="http://purl.org/dc/dcmitype/StillImage" />
        <dc:title></dc:title>
      </cc:Work>
    </rdf:RDF>
  </metadata>
  <g
     inkscape:label="Layer 1"
     inkscape:groupmode="layer"
     id="layer1"
     transform="translate(-68.0625,-88.28125)">
    <path
       inkscape:connector-curvature="0"
       style="color:#000000;fill:#ffffff;fill-opacity:1;fill-rule:nonzero;stroke:#000000;stroke-width:1;stroke-linecap:butt;stroke-linejoin:miter;stroke-miterlimit:4;stroke-opacity:1;stroke-dashoffset:0;marker:none;visibility:visible;display:inline;overflow:visible"
       d="m 106.07142,88.79075 525.00001,0 c 20.775,0 37.5,16.725 37.5,37.5 l 0,675 c 0,20.775 -16.725,37.5 -37.5,37.5 l -525.00001,0 c -20.775001,0 -37.500001,-16.725 -37.500001,-37.5 l 0,-675 c 0,-20.775 16.725,-37.5 37.500001,-37.5 z"
       id="rect1872" />
    <path
       inkscape:connector-curvature="0"
       style="color:#000000;fill:#000000;fill-opacity:1;fill-rule:nonzero;stroke:none;stroke-width:0.8735441;marker:none;visibility:visible;display:inline;overflow:visible"
       d="m 106.07142,98.16575 525.00001,0 c 15.5812,0 28.125,12.54375 28.125,28.125 l 0,675 c 0,15.58125 -12.5438,28.125 -28.125,28.125 l -525.00001,0 c -15.581251,0 -28.125001,-12.54375 -28.125001,-28.125 l 0,-675 c 0,-15.58125 12.54375,-28.125 28.125001,-28.125 z"
       id="rect2760" />
    <path
       inkscape:connector-curvature="0"
       style="color:#000000;fill:#ffffff;fill-opacity:1;fill-rule:nonzero;stroke:none;stroke-width:0.8735441;marker:none;visibility:visible;display:inline;overflow:visible"
       d="m 106.07142,113.79075 525.00001,0 c 6.925,0 12.5,5.575 12.5,12.5 l 0,675 c 0,6.925 -5.575,12.5 -12.5,12.5 l -525.00001,0 c -6.925001,0 -12.500001,-5.575 -12.500001,-12.5 l 0,-675 c 0,-6.925 5.575,-12.5 12.500001,-12.5 z"
       id="rect2762" />
    <g
       id="g3647"
       transform="translate(702.85711,237.14286)">
      <path
         d="m -453.25256,67.824456 c -0.0376,-4.804073 -0.66256,-9.795671 -1.87498,-14.974809 -1.21255,-5.17905 -2.78752,-9.920651 -4.72494,-14.224815 -1.80836,-3.824892 -4.04167,-7.524842 -6.69991,-11.09986 -2.65835,-3.574881 -7.49162,-9.274801 -14.49981,-17.099777 -3.45416,-3.7040333 -5.8958,-6.9456554 -7.32491,-9.72487654 -1.42918,-2.77902966 -2.12084,-5.67065566 -2.07497,-8.67488686 0.0208,-4.5456666 0.92913,-8.1039526 2.72497,-10.6748666 1.79578,-2.570685 4.35407,-3.878998 7.67489,-3.924945 3.07909,-0.04154 5.37072,1.091773 6.87491,3.399956 1.50411,2.308414 2.34576,6.041696 2.52497,11.1998556 l 17.39978,0 c -0.89589,-10.5830866 -3.60418,-18.4663126 -8.1249,-23.6497016 -4.52083,-5.183132 -10.87907,-7.766428 -19.07475,-7.749894 -8.14159,0.158469 -14.70817,3.091762 -19.69975,8.799887 -4.99162,5.708378 -7.55825,13.241607 -7.6999,22.5997086 -0.0125,4.70837 0.86248,9.3916383 2.62497,14.0498191 1.76246,4.6583613 4.48743,9.2416313 8.17489,13.7498233 0.72914,0.933393 2.12079,2.616702 4.17495,5.049932 2.05411,2.433373 4.59574,5.416666 7.6249,8.949887 5.15823,6.016645 8.89151,11.733233 11.19986,17.14978 2.30825,5.416638 3.44157,11.033226 3.39995,16.849783 -0.0375,4.241638 -1.01253,7.558258 -2.92496,9.949872 -1.91252,2.39165 -4.53748,3.6083 -7.8749,3.649953 -2.6375,-0.03332 -4.91247,-0.816639 -6.82491,-2.34997 -1.9125,-1.533297 -3.23748,-3.616601 -3.97495,-6.24992 -0.49585,-1.308293 -0.85418,-2.641608 -1.07499,-3.999948 -0.22086,-1.358286 -0.32919,-3.291592 -0.32499,-5.799925 l -17.39978,0 c 0.49582,11.816535 3.20412,20.733078 8.1249,26.749655 4.92075,6.016591 12.07898,9.033216 21.47472,9.049884 3.52492,-0.02084 6.77487,-0.579163 9.74988,-1.67498 2.97491,-1.095819 5.52488,-2.604131 7.6499,-4.524941 3.33739,-2.895789 5.96236,-6.554071 7.87489,-10.974857 1.91241,-4.420756 2.8874,-9.029026 2.92497,-13.824823 z"
         style="font-size:200px;font-style:normal;font-variant:normal;font-weight:normal;font-stretch:normal;line-height:125%;letter-spacing:0px;word-spacing:0px;fill:#000000;fill-opacity:1;stroke:none;font-family:Roadgeek 2005 Series B;-inkscape-font-specification:Roadgeek 2005 Series B"
         id="path3605"
         inkscape:connector-curvature="0" />
      <path
         d="m -374.15892,1.4253106 c -0.0626,-7.3914696 -1.23755,-14.0080456 -3.52495,-19.8497476 -2.28754,-5.841472 -5.3125,-10.358075 -9.07488,-13.549822 -2.24587,-1.895679 -5.00417,-3.303994 -8.2749,-4.224947 -3.27084,-0.920689 -6.77912,-1.379016 -10.52486,-1.374981 l -26.39966,0 0,133.998275 16.99978,0 0,-58.399249 9.39988,0 c 9.53316,-0.137437 17.11639,-3.46239 22.74971,-9.97487 5.63319,-6.512342 8.51648,-15.38722 8.64988,-26.6246584 z m -17.39977,0 c 0.0541,7.0208317 -1.00421,12.0290954 -3.17496,15.0248054 -2.17086,2.99587 -5.77914,4.454183 -10.82486,4.374945 l -9.39988,0 0,-40.999472 9.39988,0 c 4.69572,-0.03738 8.20401,1.687594 10.52486,5.174935 2.32075,3.487563 3.47907,8.9624869 3.47496,16.4247866 z"
         style="font-size:200px;font-style:normal;font-variant:normal;font-weight:normal;font-stretch:normal;line-height:125%;letter-spacing:0px;word-spacing:0px;fill:#000000;fill-opacity:1;stroke:none;font-family:Roadgeek 2005 Series B;-inkscape-font-specification:Roadgeek 2005 Series B"
         id="path3607"
         inkscape:connector-curvature="0" />
      <path
         d="m -304.58696,96.424088 0,-17.399776 -34.19956,0 0,-46.999395 21.59973,0 0,-17.799771 -21.59973,0 0,-34.399557 32.39959,0 0,-17.399776 -49.39937,0 0,133.998275 z"
         style="font-size:200px;font-style:normal;font-variant:normal;font-weight:normal;font-stretch:normal;line-height:125%;letter-spacing:0px;word-spacing:0px;fill:#000000;fill-opacity:1;stroke:none;font-family:Roadgeek 2005 Series B;-inkscape-font-specification:Roadgeek 2005 Series B"
         id="path3609"
         inkscape:connector-curvature="0" />
      <path
         d="m -232.32133,96.424088 0,-17.399776 -34.19956,0 0,-46.999395 21.59972,0 0,-17.799771 -21.59972,0 0,-34.399557 32.39958,0 0,-17.399776 -49.39936,0 0,133.998275 z"
         style="font-size:200px;font-style:normal;font-variant:normal;font-weight:normal;font-stretch:normal;line-height:125%;letter-spacing:0px;word-spacing:0px;fill:#000000;fill-opacity:1;stroke:none;font-family:Roadgeek 2005 Series B;-inkscape-font-specification:Roadgeek 2005 Series B"
         id="path3611"
         inkscape:connector-curvature="0" />
      <path
         d="m -153.45579,29.224953 c -0.004,-5.745688 -0.2459,-11.553942 -0.72499,-17.42478 -0.47924,-5.8706694 -1.17089,-11.52892276 -2.07497,-16.9747774 -0.52924,-4.291508 -1.42089,-8.4581176 -2.67497,-12.4998416 -1.25422,-4.041496 -2.69587,-7.408115 -4.32494,-10.099867 -2.0917,-3.295664 -4.80833,-5.753964 -8.1499,-7.374907 -3.34168,-1.62068 -7.35829,-2.429002 -12.04984,-2.424967 l -27.79965,0 0,133.998275 27.79965,0 c 3.74156,-0.0125 7.15818,-0.587494 10.24986,-1.72498 3.09157,-1.137482 5.60821,-2.762459 7.54991,-4.874936 4.00821,-4.499932 7.0415,-11.799832 9.09988,-21.899721 2.05823,-10.099831 3.09155,-22.999651 3.09996,-38.699498 z m -17.39978,4.199946 c -0.0334,6.183311 -0.21671,12.316559 -0.54999,18.399763 -0.33338,6.083292 -0.61671,10.416565 -0.84999,12.999832 -0.87921,4.966628 -2.22086,8.583243 -4.02495,10.849858 -1.80419,2.266656 -4.19583,3.383308 -7.1749,3.34996 l -10.79987,0 0,-99.198723 10.79987,0 c 3.44157,-0.112381 6.0082,1.262601 7.69989,4.124951 1.6916,2.862575 2.85825,7.8875038 3.49996,15.07480151 0.23328,4.93336229 0.5166,10.61661679 0.84999,17.04978049 0.33327,6.433324 0.5166,12.216578 0.54999,17.349777 z"
         style="font-size:200px;font-style:normal;font-variant:normal;font-weight:normal;font-stretch:normal;line-height:125%;letter-spacing:0px;word-spacing:0px;fill:#000000;fill-opacity:1;stroke:none;font-family:Roadgeek 2005 Series B;-inkscape-font-specification:Roadgeek 2005 Series B"
         id="path3613"
         inkscape:connector-curvature="0" />
    </g>
    <g
       id="g3654"
       transform="translate(734.28571,185.71429)">
      <path
         d="m -453.25256,346.42409 0,-18.79976 -38.9995,0 38.9995,-97.79874 0,-17.39978 -54.5993,0 0,17.39978 35.79954,0 -38.9995,97.79874 0,18.79976 z"
         style="font-size:200px;font-style:normal;font-variant:normal;font-weight:normal;font-stretch:normal;line-height:125%;letter-spacing:0px;word-spacing:0px;fill:#000000;fill-opacity:1;stroke:none;font-family:Roadgeek 2005 Series B;-inkscape-font-specification:Roadgeek 2005 Series B"
         id="path3615"
         inkscape:connector-curvature="0" />
      <path
         d="m -373.75892,279.22495 c -7e-5,-1.20825 -7e-5,-2.49156 0,-3.84995 -7e-5,-1.35825 -7e-5,-2.74156 0,-4.14994 0.16165,-8.30352 -0.33957,-17.09599 -1.50368,-26.37744 -1.16425,-9.28125 -3.96175,-17.22929 -8.39249,-23.84414 -4.43087,-6.6146 -11.46534,-10.07381 -21.10343,-10.37764 -9.70114,0.30754 -16.76524,3.80378 -21.19232,10.48875 -4.42712,6.68521 -7.2098,14.71473 -8.34804,24.08858 -1.13827,9.37405 -1.62468,18.248 -1.45924,26.62188 -10e-6,1.30839 -10e-6,2.5917 0,3.84995 -10e-6,1.25838 -10e-6,2.4417 0,3.54995 -10e-6,2.83337 -10e-6,5.96666 0,9.39988 -0.15804,8.23574 0.358,16.96402 1.54812,26.18485 1.1901,9.22089 4.0024,17.11955 8.43693,23.69599 4.43449,6.57646 11.43933,10.01592 21.01455,10.31839 9.63809,-0.31975 16.67256,-3.8802 21.10343,-10.68135 4.43074,-6.80113 7.22823,-14.92447 8.39248,-24.37006 1.16412,-9.44551 1.66534,-18.29477 1.50369,-26.5478 -7e-5,-2.96657 -7e-5,-5.6332 0,-7.9999 z m -17.79977,0 c -6e-5,0.91256 -6e-5,2.08754 0,3.52496 -6e-5,1.43754 -6e-5,3.06252 0,4.87493 0.0592,5.45184 -0.19265,11.54805 -0.75555,18.28866 -0.56301,6.74068 -1.79263,12.61467 -3.68885,17.62199 -1.89632,5.00736 -4.81479,7.63695 -8.75543,7.88879 -4.13456,-0.2543 -7.17649,-2.90118 -9.12582,-7.94064 -1.94938,-5.03941 -3.19875,-10.9455 -3.74809,-17.71829 -0.54941,-6.7727 -0.79138,-12.8862 -0.72592,-18.3405 -2e-5,-1.81659 -2e-5,-3.43323 0,-4.84995 -2e-5,-1.41658 -2e-5,-2.53323 0,-3.34995 -2e-5,-0.91242 -2e-5,-2.0874 0,-3.52495 -2e-5,-1.43741 -2e-5,-3.06239 0,-4.87494 -0.0655,-5.37639 0.17652,-11.35656 0.72592,-17.94051 0.54934,-6.58377 1.7987,-12.31209 3.74809,-17.18497 1.94933,-4.87266 4.99126,-7.43065 9.12582,-7.67397 4.19249,0.43221 7.22949,4.05685 9.11099,10.87393 1.8814,6.8173 3.05175,14.23448 3.51106,22.25157 0.4592,8.01726 0.6518,14.04187 0.57778,18.07384 z"
         style="font-size:200px;font-style:normal;font-variant:normal;font-weight:normal;font-stretch:normal;line-height:125%;letter-spacing:0px;word-spacing:0px;fill:#000000;fill-opacity:1;stroke:none;font-family:Roadgeek 2005 Series B;-inkscape-font-specification:Roadgeek 2005 Series B"
         id="path3617"
         inkscape:connector-curvature="0" />
      <path
         d="m -290.95579,346.42409 0,-133.99828 -16.99978,0 0,66.79914 -23.7997,-66.79914 -16.99978,0 0,133.99828 16.99978,0 0,-79.39898 26.19967,79.39898 z"
         style="font-size:200px;font-style:normal;font-variant:normal;font-weight:normal;font-stretch:normal;line-height:125%;letter-spacing:0px;word-spacing:0px;fill:#000000;fill-opacity:1;stroke:none;font-family:Roadgeek 2005 Series B;-inkscape-font-specification:Roadgeek 2005 Series B"
         id="path3619"
         inkscape:connector-curvature="0" />
      <path
         d="m -210.44633,346.42409 0,-17.39978 -34.19956,0 0,-46.99939 21.59972,0 0,-17.79977 -21.59972,0 0,-34.39956 32.39958,0 0,-17.39978 -49.39936,0 0,133.99828 z"
         style="font-size:200px;font-style:normal;font-variant:normal;font-weight:normal;font-stretch:normal;line-height:125%;letter-spacing:0px;word-spacing:0px;fill:#000000;fill-opacity:1;stroke:none;font-family:Roadgeek 2005 Series B;-inkscape-font-specification:Roadgeek 2005 Series B"
         id="path3621"
         inkscape:connector-curvature="0" />
    </g>
    <g
       id="g3660"
       transform="translate(685.71431,134.28572)">
      <path
         d="m -441.05272,596.42409 -27.79964,-133.99828 -17.19978,0 -27.39965,133.99828 17.39978,0 7.5999,-35.79954 21.99972,0 7.5999,35.79954 z m -29.19962,-53.19932 -14.39982,0 7.39991,-35.19954 z"
         style="font-size:200px;font-style:normal;font-variant:normal;font-weight:normal;font-stretch:normal;line-height:125%;letter-spacing:0px;word-spacing:0px;fill:#000000;fill-opacity:1;stroke:none;font-family:Roadgeek 2005 Series B;-inkscape-font-specification:Roadgeek 2005 Series B"
         id="path3623"
         inkscape:connector-curvature="0" />
      <path
         d="m -364.78392,596.42409 0,-133.99828 -16.99978,0 0,53.99931 -23.79969,0 0,-53.99931 -16.99978,0 0,133.99828 16.99978,0 0,-62.5992 23.79969,0 0,62.5992 z"
         style="font-size:200px;font-style:normal;font-variant:normal;font-weight:normal;font-stretch:normal;line-height:125%;letter-spacing:0px;word-spacing:0px;fill:#000000;fill-opacity:1;stroke:none;font-family:Roadgeek 2005 Series B;-inkscape-font-specification:Roadgeek 2005 Series B"
         id="path3625"
         inkscape:connector-curvature="0" />
      <path
         d="m -284.27446,596.42409 0,-17.39978 -34.19956,0 0,-46.99939 21.59973,0 0,-17.79977 -21.59973,0 0,-34.39956 32.39959,0 0,-17.39978 -49.39937,0 0,133.99828 z"
         style="font-size:200px;font-style:normal;font-variant:normal;font-weight:normal;font-stretch:normal;line-height:125%;letter-spacing:0px;word-spacing:0px;fill:#000000;fill-opacity:1;stroke:none;font-family:Roadgeek 2005 Series B;-inkscape-font-specification:Roadgeek 2005 Series B"
         id="path3627"
         inkscape:connector-curvature="0" />
      <path
         d="m -201.20897,596.42409 -27.79964,-133.99828 -17.19978,0 -27.39965,133.99828 17.39978,0 7.5999,-35.79954 21.99972,0 7.5999,35.79954 z m -29.19962,-53.19932 -14.39982,0 7.39991,-35.19954 z"
         style="font-size:200px;font-style:normal;font-variant:normal;font-weight:normal;font-stretch:normal;line-height:125%;letter-spacing:0px;word-spacing:0px;fill:#000000;fill-opacity:1;stroke:none;font-family:Roadgeek 2005 Series B;-inkscape-font-specification:Roadgeek 2005 Series B"
         id="path3629"
         inkscape:connector-curvature="0" />
      <path
         d="m -124.94017,529.22495 c -0.004,-5.74568 -0.2459,-11.55394 -0.72499,-17.42478 -0.47923,-5.87067 -1.17089,-11.52892 -2.07497,-16.97477 -0.52923,-4.29151 -1.42089,-8.45812 -2.67497,-12.49985 -1.25422,-4.04149 -2.69586,-7.40811 -4.32494,-10.09986 -2.0917,-3.29567 -4.80833,-5.75397 -8.14989,-7.37491 -3.34168,-1.62068 -7.35829,-2.429 -12.04985,-2.42497 l -27.79964,0 0,133.99828 27.79964,0 c 3.74157,-0.0125 7.15819,-0.5875 10.24987,-1.72498 3.09157,-1.13748 5.6082,-2.76246 7.5499,-4.87494 4.00822,-4.49993 7.04151,-11.79983 9.09988,-21.89972 2.05824,-10.09983 3.09156,-22.99965 3.09996,-38.6995 z m -17.39977,4.19995 c -0.0334,6.18331 -0.21672,12.31656 -0.54999,18.39976 -0.33339,6.08329 -0.61672,10.41657 -0.84999,12.99983 -0.87921,4.96663 -2.22086,8.58325 -4.02496,10.84986 -1.80419,2.26666 -4.19582,3.38331 -7.1749,3.34996 l -10.79986,0 0,-99.19872 10.79986,0 c 3.44157,-0.11238 6.0082,1.2626 7.6999,4.12495 1.69159,2.86258 2.85824,7.8875 3.49996,15.0748 0.23327,4.93336 0.5166,10.61662 0.84998,17.04978 0.33328,6.43333 0.51661,12.21658 0.55,17.34978 z"
         style="font-size:200px;font-style:normal;font-variant:normal;font-weight:normal;font-stretch:normal;line-height:125%;letter-spacing:0px;word-spacing:0px;fill:#000000;fill-opacity:1;stroke:none;font-family:Roadgeek 2005 Series B;-inkscape-font-specification:Roadgeek 2005 Series B"
         id="path3631"
         inkscape:connector-curvature="0" />
    </g>
  </g>
</svg>
