<?xml version="1.0" encoding="UTF-8" standalone="no"?>
<!-- Created with Inkscape (http://www.inkscape.org/) -->
<svg width="21.329649mm" height="31.905926mm" viewBox="0 0 21.329649 31.905926" version="1.1" id="svg1" inkscape:version="1.3 (0e150ed, 2023-07-21)" sodipodi:docname="MUTCD_R3-1g.svg" xmlns:inkscape="http://www.inkscape.org/namespaces/inkscape" xmlns:sodipodi="http://sodipodi.sourceforge.net/DTD/sodipodi-0.dtd" xmlns="http://www.w3.org/2000/svg" xmlns:svg="http://www.w3.org/2000/svg">
  <sodipodi:namedview id="namedview1" pagecolor="#ffffff" bordercolor="#666666" borderopacity="1.0" inkscape:showpageshadow="2" inkscape:pageopacity="0.0" inkscape:pagecheckerboard="0" inkscape:deskcolor="#d1d1d1" inkscape:document-units="mm" inkscape:zoom="1" inkscape:cx="-14" inkscape:cy="76" inkscape:window-width="1440" inkscape:window-height="449" inkscape:window-x="0" inkscape:window-y="23" inkscape:window-maximized="0" inkscape:current-layer="layer1"/>
  <defs id="defs1">
    <clipPath clipPathUnits="userSpaceOnUse" id="clipPath915">
      <path d="M 21.29,60.838 H 545.711 V 743 H 21.29 Z" transform="translate(-478.63131,-594.58871)" id="path915"/>
    </clipPath>
    <clipPath clipPathUnits="userSpaceOnUse" id="clipPath917">
      <path d="M 21.29,60.838 H 545.711 V 743 H 21.29 Z" transform="translate(-531.09781,-684.90602)" id="path917"/>
    </clipPath>
    <clipPath clipPathUnits="userSpaceOnUse" id="clipPath919">
      <path d="M 21.29,60.838 H 545.711 V 743 H 21.29 Z" transform="translate(-478.63141,-595.65052)" id="path919"/>
    </clipPath>
    <clipPath clipPathUnits="userSpaceOnUse" id="clipPath921">
      <path d="M 21.29,60.838 H 545.711 V 743 H 21.29 Z" transform="translate(-478.63141,-597.21202)" id="path921"/>
    </clipPath>
    <clipPath clipPathUnits="userSpaceOnUse" id="clipPath923">
      <path d="M 21.29,60.838 H 545.711 V 743 H 21.29 Z" transform="translate(-509.63561,-668.27182)" id="path923"/>
    </clipPath>
    <clipPath clipPathUnits="userSpaceOnUse" id="clipPath925">
      <path d="M 21.29,60.838 H 545.711 V 743 H 21.29 Z" transform="translate(-499.86781,-664.82492)" id="path925"/>
    </clipPath>
    <clipPath clipPathUnits="userSpaceOnUse" id="clipPath927">
      <path d="M 21.29,60.838 H 545.711 V 743 H 21.29 Z" transform="translate(-483.62821,-654.05062)" id="path927"/>
    </clipPath>
    <clipPath clipPathUnits="userSpaceOnUse" id="clipPath929">
      <path d="M 21.29,60.838 H 545.711 V 743 H 21.29 Z" id="path929"/>
    </clipPath>
    <clipPath clipPathUnits="userSpaceOnUse" id="clipPath931">
      <path d="M 21.29,60.838 H 545.711 V 743 H 21.29 Z" transform="translate(-487.07101,-606.02261)" id="path931"/>
    </clipPath>
    <clipPath clipPathUnits="userSpaceOnUse" id="clipPath933">
      <path d="M 21.29,60.838 H 545.711 V 743 H 21.29 Z" transform="translate(-493.49981,-602.21672)" id="path933"/>
    </clipPath>
    <clipPath clipPathUnits="userSpaceOnUse" id="clipPath935">
      <path d="M 21.29,60.838 H 545.711 V 743 H 21.29 Z" transform="translate(-499.89351,-606.88072)" id="path935"/>
    </clipPath>
    <clipPath clipPathUnits="userSpaceOnUse" id="clipPath937">
      <path d="M 21.29,60.838 H 545.711 V 743 H 21.29 Z" transform="translate(-513.90281,-606.17561)" id="path937"/>
    </clipPath>
    <clipPath clipPathUnits="userSpaceOnUse" id="clipPath939">
      <path d="M 21.29,60.838 H 545.711 V 743 H 21.29 Z" transform="translate(-522.37561,-606.17561)" id="path939"/>
    </clipPath>
    <clipPath clipPathUnits="userSpaceOnUse" id="clipPath941">
      <path d="M 21.29,60.838 H 545.711 V 743 H 21.29 Z" id="path941"/>
    </clipPath>
    <clipPath clipPathUnits="userSpaceOnUse" id="clipPath943">
      <path d="M 21.29,60.838 H 545.711 V 743 H 21.29 Z" id="path943"/>
    </clipPath>
    <clipPath clipPathUnits="userSpaceOnUse" id="clipPath945">
      <path d="M 21.29,60.838 H 545.711 V 743 H 21.29 Z" transform="translate(-480.23261,-618.13742)" id="path945"/>
    </clipPath>
    <clipPath clipPathUnits="userSpaceOnUse" id="clipPath947">
      <path d="M 21.29,60.838 H 545.711 V 743 H 21.29 Z" transform="translate(-510.60901,-617.24762)" id="path947"/>
    </clipPath>
    <clipPath clipPathUnits="userSpaceOnUse" id="clipPath949">
      <path d="M 21.29,60.838 H 545.711 V 743 H 21.29 Z" transform="translate(-488.82401,-619.68052)" id="path949"/>
    </clipPath>
    <clipPath clipPathUnits="userSpaceOnUse" id="clipPath951">
      <path d="M 21.29,60.838 H 545.711 V 743 H 21.29 Z" transform="translate(-499.75701,-619.52741)" id="path951"/>
    </clipPath>
    <clipPath clipPathUnits="userSpaceOnUse" id="clipPath953">
      <path d="M 21.29,60.838 H 545.711 V 743 H 21.29 Z" transform="translate(-519.02771,-619.68052)" id="path953"/>
    </clipPath>
    <clipPath clipPathUnits="userSpaceOnUse" id="clipPath955">
      <path d="M 21.29,60.838 H 545.711 V 743 H 21.29 Z" transform="translate(-529.96081,-619.52741)" id="path955"/>
    </clipPath>
  </defs>
  <g inkscape:label="Layer 1" inkscape:groupmode="layer" id="layer1" transform="translate(-210.87291,-184.15)">
    <path id="path914" d="M 0,0 C -2.135,0 -3.872,1.737 -3.872,3.873 V 86.32 c 0,2.135 1.737,3.872 3.872,3.872 h 52.467 c 2.135,0 3.872,-1.737 3.872,-3.872 V 3.873 C 56.339,1.737 54.602,0 52.467,0 Z" style="fill:#ffffff;fill-opacity:1;fill-rule:nonzero;stroke:none" transform="matrix(0.35277776,0,0,-0.35277776,212.28314,216.01194)" clip-path="url(#clipPath915)"/>
    <path id="path916" d="m 0,0 h -52.466 c -2.205,0 -3.998,-1.793 -3.998,-3.998 v -82.447 c 0,-2.204 1.793,-3.997 3.998,-3.997 H 0 c 2.204,0 3.998,1.793 3.998,3.997 V -3.998 C 3.998,-1.793 2.204,0 0,0 m 0,-0.25 c 2.061,0 3.748,-1.686 3.748,-3.748 v -82.447 c 0,-2.061 -1.687,-3.747 -3.748,-3.747 h -52.466 c -2.062,0 -3.748,1.686 -3.748,3.747 v 82.447 c 0,2.062 1.686,3.748 3.748,3.748 z" style="fill:#000000;fill-opacity:1;fill-rule:nonzero;stroke:none" transform="matrix(0.35277776,0,0,-0.35277776,230.79216,184.15)" clip-path="url(#clipPath917)"/>
    <path id="path918" d="m 0,0 c -1.55,0 -2.811,1.261 -2.811,2.811 v 82.447 c 0,1.55 1.261,2.811 2.811,2.811 h 52.466 c 1.55,0 2.811,-1.261 2.811,-2.811 V 2.811 C 55.277,1.261 54.016,0 52.466,0 Z" style="fill:#000000;fill-opacity:1;fill-rule:nonzero;stroke:none" transform="matrix(0.35277776,0,0,-0.35277776,212.28318,215.63736)" clip-path="url(#clipPath919)"/>
    <path id="path920" d="m 0,0 c -0.689,0 -1.249,0.56 -1.249,1.249 v 82.447 c 0,0.689 0.56,1.25 1.249,1.25 h 52.466 c 0.689,0 1.25,-0.561 1.25,-1.25 V 1.249 C 53.716,0.56 53.155,0 52.466,0 Z" style="fill:#ffffff;fill-opacity:1;fill-rule:nonzero;stroke:none" transform="matrix(0.35277776,0,0,-0.35277776,212.28318,215.0865)" clip-path="url(#clipPath921)"/>
    <path id="path922" d="M 0,0 2.568,-6.726 0,-13.452 c -0.437,-1.145 0.86,-2.172 1.874,-1.484 l 12.093,8.21 -12.093,8.21 C 0.86,2.172 -0.437,1.145 0,0" style="fill:#000000;fill-opacity:1;fill-rule:nonzero;stroke:none" transform="matrix(0.35277776,0,0,-0.35277776,223.22077,190.01818)" clip-path="url(#clipPath923)"/>
    <path id="path924" d="m 0,0 c -2.76,0 -4.997,-2.237 -4.997,-4.997 v -21.08 H 1.405 V -6.402 H 12.336 V 0 Z" style="fill:#000000;fill-opacity:1;fill-rule:nonzero;stroke:none" transform="matrix(0.35277776,0,0,-0.35277776,219.77491,191.23417)" clip-path="url(#clipPath925)"/>
    <path id="path926" d="M 0,0 C 0,4.964 1.703,9.53 4.557,13.146 L 34.382,-16.679 C 30.766,-19.533 26.2,-21.236 21.236,-21.236 9.508,-21.236 0,-11.729 0,0 m 42.473,0 c 0,-4.964 -1.704,-9.53 -4.557,-13.146 L 8.09,16.679 c 3.616,2.854 8.182,4.557 13.146,4.557 11.729,0 21.237,-9.507 21.237,-21.236 M 21.236,26.233 C 6.748,26.233 -4.997,14.488 -4.997,0 c 0,-14.488 11.745,-26.233 26.233,-26.233 14.489,0 26.234,11.745 26.234,26.233 0,14.488 -11.745,26.233 -26.234,26.233" style="fill:#c0311a;fill-opacity:1;fill-rule:evenodd;stroke:none" transform="matrix(0.35277776,0,0,-0.35277776,214.04594,195.0351)" clip-path="url(#clipPath927)"/>
    <path id="path928" d="m 506.964,605.962 h 3.061 v -1.382 h -3.061 z" style="fill:#000000;fill-opacity:1;fill-rule:nonzero;stroke:none" transform="matrix(0.35277776,0,0,-0.35277776,43.432657,425.76962)" clip-path="url(#clipPath929)"/>
    <path id="path930" d="M 0,0 -2.027,-5.063 -4.057,0 V -5.063 H -5.44 v 8.744 h 1.383 L -2.027,-1.227 0,3.681 H 1.384 V -5.063 H 0 Z" style="fill:#000000;fill-opacity:1;fill-rule:nonzero;stroke:none" transform="matrix(0.35277776,0,0,-0.35277776,215.26048,211.97831)" clip-path="url(#clipPath931)"/>
    <path id="path932" d="M 0,0 C 0.942,0 1.707,0.893 1.707,3.115 1.707,5.337 0.942,6.23 0,6.23 -0.942,6.23 -1.707,5.338 -1.707,3.115 -1.707,0.893 -0.942,0 0,0 m 3.091,3.115 c 0,-0.314 0.066,-4.525 -3.106,-4.525 -3.173,0 -3.106,4.211 -3.106,4.525 0,0.314 -0.067,4.524 3.106,4.524 3.172,0 3.106,-4.21 3.106,-4.524" style="fill:#000000;fill-opacity:1;fill-rule:nonzero;stroke:none" transform="matrix(0.35277776,0,0,-0.35277776,217.52842,213.32095)" clip-path="url(#clipPath933)"/>
    <path id="path934" d="M 0,0 V -5.921 H -1.379 V 2.823 H 0 L 3.191,-2.761 V 2.823 H 4.573 V -5.921 H 3.345 Z" style="fill:#000000;fill-opacity:1;fill-rule:nonzero;stroke:none" transform="matrix(0.35277776,0,0,-0.35277776,219.78397,211.67559)" clip-path="url(#clipPath935)"/>
    <path id="path936" d="M 0,0 H 2.544 V -1.411 H 0 V -5.216 H -1.379 V 3.528 H 4.044 V 2.148 H 0 Z" style="fill:#000000;fill-opacity:1;fill-rule:nonzero;stroke:none" transform="matrix(0.35277776,0,0,-0.35277776,224.72614,211.92434)" clip-path="url(#clipPath937)"/>
    <path id="path938" d="m 0,0 c 1.097,0 1.27,0.791 1.27,1.073 0,0.382 -0.285,1.075 -1.203,1.075 H -1.737 V 0 Z m -1.737,-1.41 v -3.806 h -1.379 v 8.744 h 3.163 c 2.005,0 2.606,-1.603 2.606,-2.456 0,-0.324 -0.12,-1.603 -1.358,-2.189 L 2.837,-5.216 H 1.332 l -1.411,3.806 z" style="fill:#000000;fill-opacity:1;fill-rule:nonzero;stroke:none" transform="matrix(0.35277776,0,0,-0.35277776,227.71516,211.92434)" clip-path="url(#clipPath939)"/>
    <path id="path940" d="m 526.699,609.704 h 1.399 v -8.744 h -1.399 z" style="fill:#000000;fill-opacity:1;fill-rule:nonzero;stroke:none" transform="matrix(0.35277776,0,0,-0.35277776,43.432657,425.76962)" clip-path="url(#clipPath941)"/>
    <path id="path942" d="m 503.639,619.703 h 3.061 v -1.382 h -3.061 z" style="fill:#000000;fill-opacity:1;fill-rule:nonzero;stroke:none" transform="matrix(0.35277776,0,0,-0.35277776,43.432657,425.76962)" clip-path="url(#clipPath943)"/>
    <path id="path944" d="M 0,0 H 2.495 V 3.284 Z M 3.882,-3.437 H 2.495 v 2.179 h -4.343 v 0.827 L 2.495,5.308 H 3.882 V 0 H 4.714 V -1.258 H 3.882 Z" style="fill:#000000;fill-opacity:1;fill-rule:nonzero;stroke:none" transform="matrix(0.35277776,0,0,-0.35277776,212.84804,207.70448)" clip-path="url(#clipPath945)"/>
    <path id="path946" d="m 0,0 c 0,-0.702 0.706,-1.289 1.565,-1.289 0.859,0 1.596,0.583 1.596,1.289 0,0.692 -0.706,1.258 -1.596,1.258 C 0.706,1.258 0,0.676 0,0 m -1.411,0.093 c 0,2.422 1.35,4.908 3.376,6.257 L 2.67,5.183 C 1.597,4.355 1.044,3.65 0.522,2.545 c 0.491,0.09 0.706,0.091 1.044,0.091 1.626,0 2.975,-1.196 2.975,-2.67 0,-1.508 -1.271,-2.666 -2.976,-2.666 -1.687,0 -2.976,1.229 -2.976,2.793" style="fill:#000000;fill-opacity:1;fill-rule:nonzero;stroke:none" transform="matrix(0.35277776,0,0,-0.35277776,223.56416,208.01838)" clip-path="url(#clipPath947)"/>
    <path id="path948" d="m 0,0 h 1.947 c 1.097,0 1.214,0.791 1.214,1.073 0,0.41 -0.308,1.075 -1.167,1.075 L 0,2.148 Z M 1.629,-1.411 H 0 v -3.805 h -1.379 v 8.744 h 3.305 c 2.057,0 2.647,-1.672 2.647,-2.455 0,-0.543 -0.298,-2.484 -2.944,-2.484" style="fill:#000000;fill-opacity:1;fill-rule:nonzero;stroke:none" transform="matrix(0.35277776,0,0,-0.35277776,215.8789,207.16011)" clip-path="url(#clipPath949)"/>
    <path id="path950" d="M 0,0 -2.028,-5.063 -4.057,0 v -5.063 h -1.384 v 8.744 h 1.384 L -2.028,-1.227 0,3.681 H 1.384 V -5.063 H 0 Z" style="fill:#000000;fill-opacity:1;fill-rule:nonzero;stroke:none" transform="matrix(0.35277776,0,0,-0.35277776,219.73582,207.21412)" clip-path="url(#clipPath951)"/>
    <path id="path952" d="m 0,0 h 1.947 c 1.097,0 1.214,0.791 1.214,1.073 0,0.41 -0.308,1.075 -1.167,1.075 L 0,2.148 Z M 1.629,-1.411 H 0 v -3.805 h -1.379 v 8.744 h 3.305 c 2.057,0 2.647,-1.672 2.647,-2.455 0,-0.543 -0.298,-2.484 -2.944,-2.484" style="fill:#000000;fill-opacity:1;fill-rule:nonzero;stroke:none" transform="matrix(0.35277776,0,0,-0.35277776,226.53409,207.16011)" clip-path="url(#clipPath953)"/>
    <path id="path954" d="M 0,0 -2.028,-5.063 -4.057,0 v -5.063 h -1.384 v 8.744 h 1.384 L -2.028,-1.227 0,3.681 H 1.384 V -5.063 H 0 Z" style="fill:#000000;fill-opacity:1;fill-rule:nonzero;stroke:none" transform="matrix(0.35277776,0,0,-0.35277776,230.39105,207.21412)" clip-path="url(#clipPath955)"/>
  </g>
</svg>
