<?xml version="1.0" encoding="UTF-8" standalone="no"?>
<!-- Created with Inkscape (http://www.inkscape.org/) -->

<svg
   width="30.656387mm"
   height="45.896389mm"
   viewBox="0 0 30.656387 45.896389"
   version="1.1"
   id="svg1"
   inkscape:version="1.3 (0e150ed, 2023-07-21)"
   sodipodi:docname="MUTCD_R8-3e.svg"
   xmlns:inkscape="http://www.inkscape.org/namespaces/inkscape"
   xmlns:sodipodi="http://sodipodi.sourceforge.net/DTD/sodipodi-0.dtd"
   xmlns="http://www.w3.org/2000/svg"
   xmlns:svg="http://www.w3.org/2000/svg">
  <sodipodi:namedview
     id="namedview1"
     pagecolor="#ffffff"
     bordercolor="#666666"
     borderopacity="1.0"
     inkscape:showpageshadow="2"
     inkscape:pageopacity="0.0"
     inkscape:pagecheckerboard="0"
     inkscape:deskcolor="#d1d1d1"
     inkscape:document-units="mm"
     inkscape:zoom="2.8284271"
     inkscape:cx="59.043416"
     inkscape:cy="72.124892"
     inkscape:window-width="1440"
     inkscape:window-height="431"
     inkscape:window-x="0"
     inkscape:window-y="23"
     inkscape:window-maximized="0"
     inkscape:current-layer="layer1" />
  <defs
     id="defs1">
    <clipPath
       clipPathUnits="userSpaceOnUse"
       id="clipPath1123">
      <path
         d="M 26.975,44.288 H 537.001 V 743 H 26.975 Z"
         transform="translate(-80.031302,-176.5743)"
         id="path1123" />
    </clipPath>
    <clipPath
       clipPathUnits="userSpaceOnUse"
       id="clipPath1125">
      <path
         d="M 26.975,44.288 H 537.001 V 743 H 26.975 Z"
         transform="translate(-155.6314,-306.54971)"
         id="path1125" />
    </clipPath>
    <clipPath
       clipPathUnits="userSpaceOnUse"
       id="clipPath1127">
      <path
         d="M 26.975,44.288 H 537.001 V 743 H 26.975 Z"
         transform="translate(-155.6314,-180.2997)"
         id="path1127" />
    </clipPath>
    <clipPath
       clipPathUnits="userSpaceOnUse"
       id="clipPath1129">
      <path
         d="M 26.975,44.288 H 537.001 V 743 H 26.975 Z"
         transform="translate(-112.7877,-276.09211)"
         id="path1129" />
    </clipPath>
    <clipPath
       clipPathUnits="userSpaceOnUse"
       id="clipPath1131">
      <path
         d="M 26.975,44.288 H 537.001 V 743 H 26.975 Z"
         transform="translate(-87.2314,-263.09971)"
         id="path1131" />
    </clipPath>
    <clipPath
       clipPathUnits="userSpaceOnUse"
       id="clipPath1133">
      <path
         d="M 26.975,44.288 H 537.001 V 743 H 26.975 Z"
         transform="translate(-112.17561,-208.21081)"
         id="path1133" />
    </clipPath>
    <clipPath
       clipPathUnits="userSpaceOnUse"
       id="clipPath1135">
      <path
         d="M 26.975,44.288 H 537.001 V 743 H 26.975 Z"
         transform="translate(-121.3891,-214.93131)"
         id="path1135" />
    </clipPath>
    <clipPath
       clipPathUnits="userSpaceOnUse"
       id="clipPath1137">
      <path
         d="M 26.975,44.288 H 537.001 V 743 H 26.975 Z"
         transform="translate(-91.882,-187.0494)"
         id="path1137" />
    </clipPath>
    <clipPath
       clipPathUnits="userSpaceOnUse"
       id="clipPath1139">
      <path
         d="M 26.975,44.288 H 537.001 V 743 H 26.975 Z"
         transform="translate(-101.19321,-194.56521)"
         id="path1139" />
    </clipPath>
    <clipPath
       clipPathUnits="userSpaceOnUse"
       id="clipPath1141">
      <path
         d="M 26.975,44.288 H 537.001 V 743 H 26.975 Z"
         transform="translate(-110.38011,-192.6201)"
         id="path1141" />
    </clipPath>
    <clipPath
       clipPathUnits="userSpaceOnUse"
       id="clipPath1143">
      <path
         d="M 26.975,44.288 H 537.001 V 743 H 26.975 Z"
         transform="translate(-118.6428,-193.3714)"
         id="path1143" />
    </clipPath>
    <clipPath
       clipPathUnits="userSpaceOnUse"
       id="clipPath1145">
      <path
         d="M 26.975,44.288 H 537.001 V 743 H 26.975 Z"
         transform="translate(-133.3183,-193.017)"
         id="path1145" />
    </clipPath>
    <clipPath
       clipPathUnits="userSpaceOnUse"
       id="clipPath1147">
      <path
         d="M 26.975,44.288 H 537.001 V 743 H 26.975 Z"
         transform="translate(-140.0785,-190.0056)"
         id="path1147" />
    </clipPath>
  </defs>
  <g
     inkscape:label="Layer 1"
     inkscape:groupmode="layer"
     id="layer1"
     transform="translate(-66.410417,-115.35833)">
    <path
       id="path1122"
       d="m 0,0 c -3.046,0 -5.525,2.479 -5.525,5.525 v 118.8 c 0,3.047 2.479,5.526 5.525,5.526 h 75.6 c 3.046,0 5.525,-2.479 5.525,-5.526 V 5.525 C 81.125,2.479 78.646,0 75.6,0 Z"
       style="fill:#ffffff;fill-opacity:1;fill-rule:nonzero;stroke:none"
       transform="matrix(0.35277776,0,0,-0.35277776,68.403576,161.21076)"
       clip-path="url(#clipPath1123)" />
    <path
       id="path1124"
       d="m 0,0 h -75.6 c -3.115,0 -5.65,-2.535 -5.65,-5.65 v -118.8 c 0,-3.115 2.535,-5.65 5.65,-5.65 H 0 c 3.115,0 5.65,2.535 5.65,5.65 V -5.65 C 5.65,-2.535 3.115,0 0,0 m 0,-0.25 c 2.97,0 5.4,-2.43 5.4,-5.4 v -118.8 c 0,-2.97 -2.43,-5.4 -5.4,-5.4 h -75.6 c -2.97,0 -5.4,2.43 -5.4,5.4 v 118.8 c 0,2.97 2.43,5.4 5.4,5.4 z"
       style="fill:#000000;fill-opacity:1;fill-rule:nonzero;stroke:none"
       transform="matrix(0.35277776,0,0,-0.35277776,95.07361,115.35833)"
       clip-path="url(#clipPath1125)" />
    <path
       id="path1126"
       d="m 0,0 c 0.993,0 1.8,0.807 1.8,1.8 v 118.8 c 0,0.992 -0.807,1.8 -1.8,1.8 h -75.6 c -0.993,0 -1.8,-0.808 -1.8,-1.8 V 1.8 c 0,-0.993 0.807,-1.8 1.8,-1.8 z m -75.6,-2.25 c -2.233,0 -4.05,1.817 -4.05,4.05 v 118.8 c 0,2.233 1.817,4.05 4.05,4.05 H 0 c 2.233,0 4.05,-1.817 4.05,-4.05 V 1.8 C 4.05,-0.433 2.233,-2.25 0,-2.25 Z"
       style="fill:#c0311a;fill-opacity:1;fill-rule:nonzero;stroke:none"
       transform="matrix(0.35277776,0,0,-0.35277776,95.07361,159.89652)"
       clip-path="url(#clipPath1127)" />
    <path
       id="path1128"
       d="m 0,0 v -9.817 h 12.663 c 3.321,0 5.438,1.965 5.438,4.984 0,2.722 -2.263,4.833 -5.438,4.833 z m 0,-18.43 v -16.162 h -8.456 v 43.2 h 21.81 c 6.685,0 13.203,-5.616 13.203,-13.441 0,-7.42 -5.508,-13.597 -13.786,-13.597 z"
       style="fill:#000000;fill-opacity:1;fill-rule:nonzero;stroke:none"
       transform="matrix(0.35277776,0,0,-0.35277776,79.959306,126.10309)"
       clip-path="url(#clipPath1129)" />
    <path
       id="path1130"
       d="M 0,0 C 0,7.153 2.454,13.732 6.567,18.942 L 49.542,-24.033 C 44.332,-28.146 37.753,-30.6 30.6,-30.6 13.7,-30.6 0,-16.9 0,0 m 61.2,0 c 0,-7.153 -2.454,-13.732 -6.567,-18.942 L 11.658,24.033 C 16.868,28.146 23.447,30.6 30.6,30.6 47.5,30.6 61.2,16.9 61.2,0 M 30.6,37.8 C 9.724,37.8 -7.2,20.876 -7.2,0 c 0,-20.876 16.924,-37.8 37.8,-37.8 20.876,0 37.8,16.924 37.8,37.8 0,20.876 -16.924,37.8 -37.8,37.8"
       style="fill:#c0311a;fill-opacity:1;fill-rule:nonzero;stroke:none"
       transform="matrix(0.35277776,0,0,-0.35277776,70.94361,130.68652)"
       clip-path="url(#clipPath1131)" />
    <path
       id="path1132"
       d="M 0,0 C 1.357,0 2.46,1.287 2.46,4.489 2.46,7.691 1.357,8.977 0,8.977 -1.357,8.977 -2.46,7.692 -2.46,4.489 -2.46,1.287 -1.357,0 0,0 m 4.454,4.489 c 0,-0.452 0.096,-6.521 -4.476,-6.521 -4.572,0 -4.476,6.069 -4.476,6.521 0,0.452 -0.096,6.519 4.476,6.519 4.572,0 4.476,-6.067 4.476,-6.519"
       style="fill:#c0311a;fill-opacity:1;fill-rule:nonzero;stroke:none"
       transform="matrix(0.35277776,0,0,-0.35277776,79.743371,150.05011)"
       clip-path="url(#clipPath1133)" />
    <path
       id="path1134"
       d="m 0,0 v -8.532 h -1.987 v 12.6 H 0 l 4.598,-8.046 v 8.046 h 1.991 v -12.6 H 4.821 Z"
       style="fill:#c0311a;fill-opacity:1;fill-rule:nonzero;stroke:none"
       transform="matrix(0.35277776,0,0,-0.35277776,82.993688,147.67926)"
       clip-path="url(#clipPath1135)" />
    <path
       id="path1136"
       d="M 0,0 H -1.999 V 10.831 H -4.884 V 12.6 H 2.931 V 10.831 H 0 Z"
       style="fill:#c0311a;fill-opacity:1;fill-rule:nonzero;stroke:none"
       transform="matrix(0.35277776,0,0,-0.35277776,72.584238,157.51538)"
       clip-path="url(#clipPath1137)" />
    <path
       id="path1138"
       d="m 0,0 c 1.581,0 1.83,1.14 1.83,1.547 0,0.549 -0.411,1.548 -1.734,1.548 H -2.503 V 0 Z M -2.503,-2.032 V -7.516 H -4.49 v 12.6 h 4.558 c 2.888,0 3.754,-2.31 3.754,-3.539 0,-0.468 -0.173,-2.31 -1.956,-3.155 L 4.087,-7.516 H 1.92 l -2.033,5.484 z"
       style="fill:#c0311a;fill-opacity:1;fill-rule:nonzero;stroke:none"
       transform="matrix(0.35277776,0,0,-0.35277776,75.869025,154.86397)"
       clip-path="url(#clipPath1139)" />
    <path
       id="path1140"
       d="M 0,0 H 2.534 L 1.288,3.536 Z m 3.244,-2.033 h -3.956 l -1.246,-3.538 h -2.134 l 4.358,12.6 h 2.002 l 4.356,-12.6 H 4.49 Z"
       style="fill:#c0311a;fill-opacity:1;fill-rule:nonzero;stroke:none"
       transform="matrix(0.35277776,0,0,-0.35277776,79.109959,155.55016)"
       clip-path="url(#clipPath1141)" />
    <path
       id="path1142"
       d="m 0,0 c 0,1.772 0.356,6.497 4.641,6.497 1.827,0 3.071,-0.744 3.936,-2.564 L 6.72,3.137 C 6.076,4.063 5.755,4.464 4.643,4.464 c -2.637,0 -2.608,-3.675 -2.608,-4.466 0,-0.781 -0.049,-4.51 2.696,-4.51 0.962,0 1.515,0.581 1.945,1.46 L 8.577,-3.76 C 7.868,-5.512 6.678,-6.543 4.774,-6.543 0.239,-6.543 0,-1.534 0,0"
       style="fill:#c0311a;fill-opacity:1;fill-rule:nonzero;stroke:none"
       transform="matrix(0.35277776,0,0,-0.35277776,82.024855,155.28512)"
       clip-path="url(#clipPath1143)" />
    <path
       id="path1144"
       d="m 0,0 -1.331,-1.636 v -4.332 h -1.995 v 12.6 h 1.995 V 1.636 L 2.662,6.632 H 5.233 L 1.331,1.725 5.5,-5.968 H 3.194 Z"
       style="fill:#c0311a;fill-opacity:1;fill-rule:nonzero;stroke:none"
       transform="matrix(0.35277776,0,0,-0.35277776,87.202044,155.41014)"
       clip-path="url(#clipPath1145)" />
    <path
       id="path1146"
       d="m 0,0 1.899,0.706 c 0.531,-1.193 1.506,-1.854 2.698,-1.854 1.148,0 1.948,0.794 1.948,1.854 0,1.683 -1.948,1.942 -3.581,2.605 -0.751,0.308 -2.429,1.06 -2.429,3.134 0,2.474 1.678,3.4 3.93,3.4 1.765,0 2.958,-1.016 3.576,-2.561 L 6.274,6.755 C 5.983,7.324 5.372,7.859 4.314,7.859 2.789,7.859 2.473,7.028 2.473,6.587 2.473,5.41 3.488,5.177 5.137,4.659 6.816,4.131 8.577,3.358 8.577,0.661 8.575,-2.057 6.369,-3.178 4.597,-3.178 2.433,-3.178 0.839,-1.899 0,0"
       style="fill:#c0311a;fill-opacity:1;fill-rule:nonzero;stroke:none"
       transform="matrix(0.35277776,0,0,-0.35277776,89.586892,156.4725)"
       clip-path="url(#clipPath1147)" />
  </g>
</svg>
