<?xml version="1.0" encoding="UTF-8" standalone="no"?>
<!-- Created with Inkscape (http://www.inkscape.org/) -->
<svg width="21.329649mm" height="37.194416mm" viewBox="0 0 21.329649 37.194416" version="1.1" id="svg1" sodipodi:docname="MUTCD_R3-1h_(1_time_span).svg" inkscape:version="1.3 (0e150ed, 2023-07-21)" xmlns:inkscape="http://www.inkscape.org/namespaces/inkscape" xmlns:sodipodi="http://sodipodi.sourceforge.net/DTD/sodipodi-0.dtd" xmlns="http://www.w3.org/2000/svg" xmlns:svg="http://www.w3.org/2000/svg">
  <sodipodi:namedview id="namedview1" pagecolor="#ffffff" bordercolor="#666666" borderopacity="1.0" inkscape:showpageshadow="2" inkscape:pageopacity="0.0" inkscape:pagecheckerboard="0" inkscape:deskcolor="#d1d1d1" inkscape:document-units="mm" inkscape:zoom="1.1893044" inkscape:cx="90.809384" inkscape:cy="104.26263" inkscape:window-width="1440" inkscape:window-height="449" inkscape:window-x="94" inkscape:window-y="130" inkscape:window-maximized="0" inkscape:current-layer="layer1"/>
  <defs id="defs1">
    <clipPath clipPathUnits="userSpaceOnUse" id="clipPath958">
      <path d="M 21.29,60.838 H 545.711 V 743 H 21.29 Z" transform="translate(-34.593201,-464.90751)" id="path958"/>
    </clipPath>
    <clipPath clipPathUnits="userSpaceOnUse" id="clipPath960">
      <path d="M 21.29,60.838 H 545.711 V 743 H 21.29 Z" transform="translate(-87.059402,-570.21511)" id="path960"/>
    </clipPath>
    <clipPath clipPathUnits="userSpaceOnUse" id="clipPath962">
      <path d="M 21.29,60.838 H 545.711 V 743 H 21.29 Z" transform="translate(-34.593001,-465.96921)" id="path962"/>
    </clipPath>
    <clipPath clipPathUnits="userSpaceOnUse" id="clipPath964">
      <path d="M 21.29,60.838 H 545.711 V 743 H 21.29 Z" transform="translate(-34.593001,-467.53071)" id="path964"/>
    </clipPath>
    <clipPath clipPathUnits="userSpaceOnUse" id="clipPath966">
      <path d="M 21.29,60.838 H 545.711 V 743 H 21.29 Z" transform="translate(-65.597201,-553.58092)" id="path966"/>
    </clipPath>
    <clipPath clipPathUnits="userSpaceOnUse" id="clipPath968">
      <path d="M 21.29,60.838 H 545.711 V 743 H 21.29 Z" transform="translate(-55.829401,-550.13401)" id="path968"/>
    </clipPath>
    <clipPath clipPathUnits="userSpaceOnUse" id="clipPath970">
      <path d="M 21.29,60.838 H 545.711 V 743 H 21.29 Z" transform="translate(-39.589801,-539.35972)" id="path970"/>
    </clipPath>
    <clipPath clipPathUnits="userSpaceOnUse" id="clipPath972">
      <path d="M 21.29,60.838 H 545.711 V 743 H 21.29 Z" id="path972"/>
    </clipPath>
    <clipPath clipPathUnits="userSpaceOnUse" id="clipPath974">
      <path d="M 21.29,60.838 H 545.711 V 743 H 21.29 Z" transform="translate(-43.032701,-476.96591)" id="path974"/>
    </clipPath>
    <clipPath clipPathUnits="userSpaceOnUse" id="clipPath976">
      <path d="M 21.29,60.838 H 545.711 V 743 H 21.29 Z" transform="translate(-49.461401,-473.15991)" id="path976"/>
    </clipPath>
    <clipPath clipPathUnits="userSpaceOnUse" id="clipPath978">
      <path d="M 21.29,60.838 H 545.711 V 743 H 21.29 Z" transform="translate(-55.855102,-477.82391)" id="path978"/>
    </clipPath>
    <clipPath clipPathUnits="userSpaceOnUse" id="clipPath980">
      <path d="M 21.29,60.838 H 545.711 V 743 H 21.29 Z" transform="translate(-69.864502,-477.11891)" id="path980"/>
    </clipPath>
    <clipPath clipPathUnits="userSpaceOnUse" id="clipPath982">
      <path d="M 21.29,60.838 H 545.711 V 743 H 21.29 Z" transform="translate(-78.337404,-477.11891)" id="path982"/>
    </clipPath>
    <clipPath clipPathUnits="userSpaceOnUse" id="clipPath984">
      <path d="M 21.29,60.838 H 545.711 V 743 H 21.29 Z" id="path984"/>
    </clipPath>
    <clipPath clipPathUnits="userSpaceOnUse" id="clipPath986">
      <path d="M 21.29,60.838 H 545.711 V 743 H 21.29 Z" id="path986"/>
    </clipPath>
    <clipPath clipPathUnits="userSpaceOnUse" id="clipPath988">
      <path d="M 21.29,60.838 H 545.711 V 743 H 21.29 Z" transform="translate(-36.194201,-489.08061)" id="path988"/>
    </clipPath>
    <clipPath clipPathUnits="userSpaceOnUse" id="clipPath990">
      <path d="M 21.29,60.838 H 545.711 V 743 H 21.29 Z" transform="translate(-66.570701,-488.19081)" id="path990"/>
    </clipPath>
    <clipPath clipPathUnits="userSpaceOnUse" id="clipPath992">
      <path d="M 21.29,60.838 H 545.711 V 743 H 21.29 Z" transform="translate(-44.785601,-490.62371)" id="path992"/>
    </clipPath>
    <clipPath clipPathUnits="userSpaceOnUse" id="clipPath994">
      <path d="M 21.29,60.838 H 545.711 V 743 H 21.29 Z" transform="translate(-55.718602,-490.47071)" id="path994"/>
    </clipPath>
    <clipPath clipPathUnits="userSpaceOnUse" id="clipPath996">
      <path d="M 21.29,60.838 H 545.711 V 743 H 21.29 Z" transform="translate(-74.989502,-490.62371)" id="path996"/>
    </clipPath>
    <clipPath clipPathUnits="userSpaceOnUse" id="clipPath998">
      <path d="M 21.29,60.838 H 545.711 V 743 H 21.29 Z" transform="translate(-85.9225,-490.47071)" id="path998"/>
    </clipPath>
    <clipPath clipPathUnits="userSpaceOnUse" id="clipPath1000">
      <path d="M 21.29,60.838 H 545.711 V 743 H 21.29 Z" id="path1000"/>
    </clipPath>
    <clipPath clipPathUnits="userSpaceOnUse" id="clipPath1002">
      <path d="M 21.29,60.838 H 545.711 V 743 H 21.29 Z" transform="translate(-66.266002,-505.61341)" id="path1002"/>
    </clipPath>
    <clipPath clipPathUnits="userSpaceOnUse" id="clipPath1004">
      <path d="M 21.29,60.838 H 545.711 V 743 H 21.29 Z" transform="translate(-74.896502,-503.25131)" id="path1004"/>
    </clipPath>
    <clipPath clipPathUnits="userSpaceOnUse" id="clipPath1006">
      <path d="M 21.29,60.838 H 545.711 V 743 H 21.29 Z" transform="translate(-85.591,-504.44821)" id="path1006"/>
    </clipPath>
    <clipPath clipPathUnits="userSpaceOnUse" id="clipPath1008">
      <path d="M 21.29,60.838 H 545.711 V 743 H 21.29 Z" transform="translate(-36.621101,-499.38521)" id="path1008"/>
    </clipPath>
    <clipPath clipPathUnits="userSpaceOnUse" id="clipPath1010">
      <path d="M 21.29,60.838 H 545.711 V 743 H 21.29 Z" transform="translate(-44.719301,-503.25131)" id="path1010"/>
    </clipPath>
    <clipPath clipPathUnits="userSpaceOnUse" id="clipPath1012">
      <path d="M 21.29,60.838 H 545.711 V 743 H 21.29 Z" transform="translate(-55.413802,-504.44821)" id="path1012"/>
    </clipPath>
    <clipPath clipPathUnits="userSpaceOnUse" id="clipPath1014">
      <path d="M 21.29,60.838 H 545.711 V 743 H 21.29 Z" transform="translate(-113.07711,-464.90751)" id="path1014"/>
    </clipPath>
    <clipPath clipPathUnits="userSpaceOnUse" id="clipPath1016">
      <path d="M 21.29,60.838 H 545.711 V 743 H 21.29 Z" transform="translate(-165.5437,-570.21511)" id="path1016"/>
    </clipPath>
    <clipPath clipPathUnits="userSpaceOnUse" id="clipPath1018">
      <path d="M 21.29,60.838 H 545.711 V 743 H 21.29 Z" transform="translate(-113.0773,-465.96921)" id="path1018"/>
    </clipPath>
    <clipPath clipPathUnits="userSpaceOnUse" id="clipPath1020">
      <path d="M 21.29,60.838 H 545.711 V 743 H 21.29 Z" transform="translate(-113.0773,-467.53071)" id="path1020"/>
    </clipPath>
    <clipPath clipPathUnits="userSpaceOnUse" id="clipPath1022">
      <path d="M 21.29,60.838 H 545.711 V 743 H 21.29 Z" transform="translate(-144.0814,-553.58092)" id="path1022"/>
    </clipPath>
    <clipPath clipPathUnits="userSpaceOnUse" id="clipPath1024">
      <path d="M 21.29,60.838 H 545.711 V 743 H 21.29 Z" transform="translate(-134.3137,-550.13401)" id="path1024"/>
    </clipPath>
    <clipPath clipPathUnits="userSpaceOnUse" id="clipPath1026">
      <path d="M 21.29,60.838 H 545.711 V 743 H 21.29 Z" transform="translate(-118.0741,-539.35972)" id="path1026"/>
    </clipPath>
    <clipPath clipPathUnits="userSpaceOnUse" id="clipPath1028">
      <path d="M 21.29,60.838 H 545.711 V 743 H 21.29 Z" id="path1028"/>
    </clipPath>
    <clipPath clipPathUnits="userSpaceOnUse" id="clipPath1030">
      <path d="M 21.29,60.838 H 545.711 V 743 H 21.29 Z" transform="translate(-121.5169,-476.96591)" id="path1030"/>
    </clipPath>
    <clipPath clipPathUnits="userSpaceOnUse" id="clipPath1032">
      <path d="M 21.29,60.838 H 545.711 V 743 H 21.29 Z" transform="translate(-127.9456,-473.15991)" id="path1032"/>
    </clipPath>
    <clipPath clipPathUnits="userSpaceOnUse" id="clipPath1034">
      <path d="M 21.29,60.838 H 545.711 V 743 H 21.29 Z" transform="translate(-134.3394,-477.82391)" id="path1034"/>
    </clipPath>
    <clipPath clipPathUnits="userSpaceOnUse" id="clipPath1036">
      <path d="M 21.29,60.838 H 545.711 V 743 H 21.29 Z" transform="translate(-148.3488,-477.11891)" id="path1036"/>
    </clipPath>
    <clipPath clipPathUnits="userSpaceOnUse" id="clipPath1038">
      <path d="M 21.29,60.838 H 545.711 V 743 H 21.29 Z" transform="translate(-156.82161,-477.11891)" id="path1038"/>
    </clipPath>
    <clipPath clipPathUnits="userSpaceOnUse" id="clipPath1040">
      <path d="M 21.29,60.838 H 545.711 V 743 H 21.29 Z" id="path1040"/>
    </clipPath>
    <clipPath clipPathUnits="userSpaceOnUse" id="clipPath1042">
      <path d="M 21.29,60.838 H 545.711 V 743 H 21.29 Z" transform="translate(-117.04791,-501.93211)" id="path1042"/>
    </clipPath>
    <clipPath clipPathUnits="userSpaceOnUse" id="clipPath1044">
      <path d="M 21.29,60.838 H 545.711 V 743 H 21.29 Z" transform="translate(-122.814,-502.00871)" id="path1044"/>
    </clipPath>
    <clipPath clipPathUnits="userSpaceOnUse" id="clipPath1046">
      <path d="M 21.29,60.838 H 545.711 V 743 H 21.29 Z" transform="translate(-126.7609,-502.82191)" id="path1046"/>
    </clipPath>
    <clipPath clipPathUnits="userSpaceOnUse" id="clipPath1048">
      <path d="M 21.29,60.838 H 545.711 V 743 H 21.29 Z" transform="translate(-133.3992,-499.72311)" id="path1048"/>
    </clipPath>
    <clipPath clipPathUnits="userSpaceOnUse" id="clipPath1050">
      <path d="M 21.29,60.838 H 545.711 V 743 H 21.29 Z" transform="translate(-144.69,-503.25142)" id="path1050"/>
    </clipPath>
    <clipPath clipPathUnits="userSpaceOnUse" id="clipPath1052">
      <path d="M 21.29,60.838 H 545.711 V 743 H 21.29 Z" transform="translate(-156.0412,-504.44831)" id="path1052"/>
    </clipPath>
    <clipPath clipPathUnits="userSpaceOnUse" id="clipPath1054">
      <path d="M 21.29,60.838 H 545.711 V 743 H 21.29 Z" transform="translate(-119.74,-491.87221)" id="path1054"/>
    </clipPath>
    <clipPath clipPathUnits="userSpaceOnUse" id="clipPath1056">
      <path d="M 21.29,60.838 H 545.711 V 743 H 21.29 Z" transform="translate(-125.506,-488.26741)" id="path1056"/>
    </clipPath>
    <clipPath clipPathUnits="userSpaceOnUse" id="clipPath1058">
      <path d="M 21.29,60.838 H 545.711 V 743 H 21.29 Z" transform="translate(-131.3263,-489.72441)" id="path1058"/>
    </clipPath>
    <clipPath clipPathUnits="userSpaceOnUse" id="clipPath1060">
      <path d="M 21.29,60.838 H 545.711 V 743 H 21.29 Z" transform="translate(-139.1275,-486.90111)" id="path1060"/>
    </clipPath>
    <clipPath clipPathUnits="userSpaceOnUse" id="clipPath1062">
      <path d="M 21.29,60.838 H 545.711 V 743 H 21.29 Z" transform="translate(-147.5569,-489.51011)" id="path1062"/>
    </clipPath>
    <clipPath clipPathUnits="userSpaceOnUse" id="clipPath1064">
      <path d="M 21.29,60.838 H 545.711 V 743 H 21.29 Z" transform="translate(-158.9082,-490.70701)" id="path1064"/>
    </clipPath>
    <clipPath clipPathUnits="userSpaceOnUse" id="clipPath1066">
      <path d="M 21.29,60.838 H 545.711 V 743 H 21.29 Z" id="path1066"/>
    </clipPath>
  </defs>
  <g inkscape:label="Layer 1" inkscape:groupmode="layer" id="layer1" transform="translate(-121.35002,-161.39583)">
    <path id="path1013" d="m 0,0 c -2.135,0 -3.873,1.737 -3.873,3.873 v 97.437 c 0,2.135 1.738,3.873 3.873,3.873 h 52.467 c 2.135,0 3.872,-1.738 3.872,-3.873 V 3.873 C 56.339,1.737 54.602,0 52.467,0 Z" style="fill:#ffffff;fill-opacity:1;fill-rule:nonzero;stroke:none" transform="matrix(0.35277776,0,0,-0.35277776,122.76021,198.54601)" clip-path="url(#clipPath1014)"/>
    <path id="path1015" d="m 0,0 h -52.466 c -2.205,0 -3.998,-1.793 -3.998,-3.998 v -97.437 c 0,-2.205 1.793,-3.998 3.998,-3.998 H 0 c 2.204,0 3.998,1.793 3.998,3.998 V -3.998 C 3.998,-1.793 2.204,0 0,0 m 0,-0.25 c 2.061,0 3.748,-1.686 3.748,-3.748 v -97.437 c 0,-2.061 -1.687,-3.748 -3.748,-3.748 h -52.466 c -2.062,0 -3.748,1.687 -3.748,3.748 v 97.437 c 0,2.062 1.686,3.748 3.748,3.748 z" style="fill:#000000;fill-opacity:1;fill-rule:nonzero;stroke:none" transform="matrix(0.35277776,0,0,-0.35277776,141.26926,161.39583)" clip-path="url(#clipPath1016)"/>
    <path id="path1017" d="m 0,0 c -1.55,0 -2.811,1.261 -2.811,2.811 v 97.437 c 0,1.55 1.261,2.811 2.811,2.811 h 52.466 c 1.55,0 2.811,-1.261 2.811,-2.811 V 2.811 C 55.277,1.261 54.016,0 52.466,0 Z" style="fill:#000000;fill-opacity:1;fill-rule:nonzero;stroke:none" transform="matrix(0.35277776,0,0,-0.35277776,122.76028,198.17147)" clip-path="url(#clipPath1018)"/>
    <path id="path1019" d="m 0,0 c -0.689,0 -1.249,0.56 -1.249,1.249 v 97.438 c 0,0.689 0.56,1.249 1.249,1.249 h 52.466 c 0.689,0 1.25,-0.56 1.25,-1.249 V 1.249 C 53.716,0.56 53.155,0 52.466,0 Z" style="fill:#ffffff;fill-opacity:1;fill-rule:nonzero;stroke:none" transform="matrix(0.35277776,0,0,-0.35277776,122.76028,197.62061)" clip-path="url(#clipPath1020)"/>
    <path id="path1021" d="M 0,0 2.568,-6.726 0,-13.452 c -0.437,-1.145 0.86,-2.172 1.874,-1.484 l 12.093,8.21 -12.093,8.21 C 0.86,2.172 -0.437,1.145 0,0" style="fill:#000000;fill-opacity:1;fill-rule:nonzero;stroke:none" transform="matrix(0.35277776,0,0,-0.35277776,133.69784,167.26401)" clip-path="url(#clipPath1022)"/>
    <path id="path1023" d="m 0,0 c -2.76,0 -4.997,-2.237 -4.997,-4.997 v -21.08 H 1.405 V -6.402 H 12.336 V 0 Z" style="fill:#000000;fill-opacity:1;fill-rule:nonzero;stroke:none" transform="matrix(0.35277776,0,0,-0.35277776,130.25201,168.48)" clip-path="url(#clipPath1024)"/>
    <path id="path1025" d="M 0,0 C 0,4.964 1.703,9.53 4.557,13.146 L 34.382,-16.679 C 30.766,-19.533 26.2,-21.236 21.236,-21.236 9.508,-21.236 0,-11.729 0,0 m 42.473,0 c 0,-4.964 -1.704,-9.53 -4.557,-13.146 L 8.09,16.679 c 3.616,2.854 8.182,4.557 13.146,4.557 11.729,0 21.237,-9.507 21.237,-21.236 M 21.236,26.233 C 6.748,26.233 -4.997,14.488 -4.997,0 c 0,-14.488 11.745,-26.233 26.233,-26.233 14.489,0 26.234,11.745 26.234,26.233 0,14.488 -11.745,26.233 -26.234,26.233" style="fill:#c0311a;fill-opacity:1;fill-rule:evenodd;stroke:none" transform="matrix(0.35277776,0,0,-0.35277776,124.52304,172.28093)" clip-path="url(#clipPath1026)"/>
    <path id="path1027" d="m 141.41,476.905 h 3.061 v -1.382 h -3.061 z" style="fill:#000000;fill-opacity:1;fill-rule:nonzero;stroke:none" transform="matrix(0.35277776,0,0,-0.35277776,82.869122,362.55505)" clip-path="url(#clipPath1028)"/>
    <path id="path1029" d="M 0,0 -2.027,-5.063 -4.057,0 V -5.063 H -5.44 v 8.744 h 1.383 L -2.027,-1.228 0,3.681 H 1.384 V -5.063 H 0 Z" style="fill:#000000;fill-opacity:1;fill-rule:nonzero;stroke:none" transform="matrix(0.35277776,0,0,-0.35277776,125.73758,194.29208)" clip-path="url(#clipPath1030)"/>
    <path id="path1031" d="M 0,0 C 0.942,0 1.707,0.893 1.707,3.115 1.707,5.337 0.942,6.23 0,6.23 -0.942,6.23 -1.707,5.338 -1.707,3.115 -1.707,0.893 -0.942,0 0,0 m 3.091,3.115 c 0,-0.314 0.066,-4.525 -3.106,-4.525 -3.173,0 -3.106,4.211 -3.106,4.525 0,0.314 -0.067,4.524 3.106,4.524 3.172,0 3.106,-4.21 3.106,-4.524" style="fill:#000000;fill-opacity:1;fill-rule:nonzero;stroke:none" transform="matrix(0.35277776,0,0,-0.35277776,128.00548,195.63475)" clip-path="url(#clipPath1032)"/>
    <path id="path1033" d="M 0,0 V -5.921 H -1.379 V 2.823 H 0 L 3.191,-2.761 V 2.823 H 4.573 V -5.921 H 3.345 Z" style="fill:#000000;fill-opacity:1;fill-rule:nonzero;stroke:none" transform="matrix(0.35277776,0,0,-0.35277776,130.26108,193.98939)" clip-path="url(#clipPath1034)"/>
    <path id="path1035" d="M 0,0 H 2.544 V -1.411 H 0 V -5.216 H -1.379 V 3.528 H 4.044 V 2.148 H 0 Z" style="fill:#000000;fill-opacity:1;fill-rule:nonzero;stroke:none" transform="matrix(0.35277776,0,0,-0.35277776,135.20328,194.2381)" clip-path="url(#clipPath1036)"/>
    <path id="path1037" d="m 0,0 c 1.097,0 1.27,0.791 1.27,1.073 0,0.382 -0.285,1.075 -1.203,1.075 H -1.737 V 0 Z m -1.737,-1.41 v -3.806 h -1.379 v 8.744 h 3.163 c 2.005,0 2.606,-1.603 2.606,-2.456 0,-0.324 -0.12,-1.603 -1.358,-2.189 L 2.837,-5.216 H 1.332 l -1.411,3.806 z" style="fill:#000000;fill-opacity:1;fill-rule:nonzero;stroke:none" transform="matrix(0.35277776,0,0,-0.35277776,138.1923,194.2381)" clip-path="url(#clipPath1038)"/>
    <path id="path1039" d="m 161.145,480.648 h 1.399 v -8.744 h -1.399 z" style="fill:#000000;fill-opacity:1;fill-rule:nonzero;stroke:none" transform="matrix(0.35277776,0,0,-0.35277776,82.869122,362.55505)" clip-path="url(#clipPath1040)"/>
    <path id="path1041" d="m 0,0 c 0,-0.702 0.706,-1.289 1.565,-1.289 0.859,0 1.596,0.583 1.596,1.289 0,0.692 -0.706,1.258 -1.596,1.258 C 0.706,1.258 0,0.676 0,0 m -1.411,0.093 c 0,2.422 1.35,4.908 3.376,6.256 L 2.67,5.183 C 1.597,4.355 1.044,3.65 0.522,2.545 c 0.491,0.09 0.707,0.091 1.044,0.091 1.627,0 2.975,-1.196 2.975,-2.67 0,-1.508 -1.271,-2.666 -2.976,-2.666 -1.687,0 -2.976,1.229 -2.976,2.793" style="fill:#000000;fill-opacity:1;fill-rule:nonzero;stroke:none" transform="matrix(0.35277776,0,0,-0.35277776,124.16102,185.48456)" clip-path="url(#clipPath1042)"/>
    <path id="path1043" d="M 0,0 C 0,0.399 0.372,0.767 0.803,0.767 1.204,0.767 1.574,0.399 1.574,0 1.573,-0.43 1.234,-0.798 0.803,-0.798 0.372,-0.798 0,-0.43 0,0 M 0,3.498 C 0,3.927 0.369,4.265 0.803,4.265 1.204,4.265 1.574,3.927 1.574,3.498 1.574,3.068 1.234,2.7 0.803,2.7 0.372,2.7 0,3.068 0,3.498" style="fill:#000000;fill-opacity:1;fill-rule:nonzero;stroke:none" transform="matrix(0.35277776,0,0,-0.35277776,126.19517,185.45753)" clip-path="url(#clipPath1044)"/>
    <path id="path1045" d="M 0,0 H 2.495 V 3.284 Z M 3.882,-3.437 H 2.495 v 2.179 h -4.343 v 0.827 L 2.495,5.308 H 3.882 V 0 H 4.714 V -1.258 H 3.882 Z" style="fill:#000000;fill-opacity:1;fill-rule:nonzero;stroke:none" transform="matrix(0.35277776,0,0,-0.35277776,127.58755,185.17066)" clip-path="url(#clipPath1046)"/>
    <path id="path1047" d="M 0,0 0.674,1.228 C 1.043,1.043 1.687,0.92 2.331,0.92 c 1.26,0 2.24,0.832 2.24,1.963 0,0.86 -0.696,1.535 -1.565,1.535 -0.613,0 -0.89,-0.184 -1.411,-0.92 L 0.214,3.897 0.431,8.407 H 5.462 V 7.026 H 1.779 L 1.689,5.584 c 0.645,0.184 0.92,0.245 1.35,0.245 1.599,0 2.914,-1.328 2.914,-2.944 0,-1.934 -1.594,-3.376 -3.805,-3.376 C 1.38,-0.491 0.613,-0.307 0,0" style="fill:#000000;fill-opacity:1;fill-rule:nonzero;stroke:none" transform="matrix(0.35277776,0,0,-0.35277776,129.92939,186.26384)" clip-path="url(#clipPath1048)"/>
    <path id="path1049" d="M 0,0 H 1.759 L 0.894,2.454 Z M 2.252,-1.411 H -0.494 L -1.359,-3.866 H -2.84 L 0.185,4.878 H 1.574 L 4.598,-3.866 H 3.116 Z" style="fill:#000000;fill-opacity:1;fill-rule:nonzero;stroke:none" transform="matrix(0.35277776,0,0,-0.35277776,133.91254,185.01914)" clip-path="url(#clipPath1050)"/>
    <path id="path1051" d="M 0,0 -2.028,-5.063 -4.058,0 v -5.063 h -1.383 v 8.744 h 1.383 L -2.028,-1.228 0,3.681 H 1.384 V -5.063 H 0 Z" style="fill:#000000;fill-opacity:1;fill-rule:nonzero;stroke:none" transform="matrix(0.35277776,0,0,-0.35277776,137.91699,184.5969)" clip-path="url(#clipPath1052)"/>
    <path id="path1053" d="m 0,0 c 0,-0.737 0.695,-1.257 1.565,-1.257 0.89,0 1.596,0.551 1.596,1.257 0,0.697 -0.72,1.258 -1.596,1.258 C 0.706,1.258 0,0.706 0,0 m 0.492,-5.216 c 1.043,0.829 1.596,1.534 2.117,2.669 -0.491,-0.091 -0.706,-0.121 -1.044,-0.121 -1.631,0 -2.976,1.196 -2.976,2.669 0,1.518 1.32,2.669 2.976,2.669 1.672,0 2.976,-1.199 2.976,-2.792 0,-2.388 -1.349,-4.879 -3.375,-6.259 z" style="fill:#000000;fill-opacity:1;fill-rule:nonzero;stroke:none" transform="matrix(0.35277776,0,0,-0.35277776,125.11073,189.03347)" clip-path="url(#clipPath1054)"/>
    <path id="path1055" d="M 0,0 C 0,0.399 0.372,0.767 0.803,0.767 1.204,0.767 1.574,0.399 1.574,0 1.573,-0.43 1.234,-0.798 0.803,-0.798 0.372,-0.798 0,-0.43 0,0 M 0,3.498 C 0,3.927 0.369,4.265 0.803,4.265 1.204,4.265 1.574,3.927 1.574,3.498 1.574,3.068 1.234,2.7 0.803,2.7 0.372,2.7 0,3.068 0,3.498" style="fill:#000000;fill-opacity:1;fill-rule:nonzero;stroke:none" transform="matrix(0.35277776,0,0,-0.35277776,127.14485,190.30516)" clip-path="url(#clipPath1056)"/>
    <path id="path1057" d="m 0,0 v 1.381 h 0.34 c 0.555,0 0.863,0.307 0.863,0.859 0,0.68 -0.552,1.166 -1.264,1.166 -0.586,0 -1.018,-0.277 -1.326,-0.859 l -1.295,0.491 c 0.461,1.105 1.449,1.778 2.59,1.778 1.48,0 2.683,-1.191 2.683,-2.669 0,-0.522 -0.123,-0.89 -0.494,-1.442 0.648,-0.583 0.833,-1.042 0.833,-1.903 0,-1.779 -1.225,-3.036 -3.022,-3.036 -1.419,0 -2.56,0.921 -2.93,2.332 l 1.357,0.399 c 0.217,-0.859 0.802,-1.319 1.634,-1.319 0.925,0 1.573,0.649 1.573,1.533 C 1.542,-0.928 1.394,0 0.389,0 Z" style="fill:#000000;fill-opacity:1;fill-rule:nonzero;stroke:none" transform="matrix(0.35277776,0,0,-0.35277776,129.19812,189.79116)" clip-path="url(#clipPath1058)"/>
    <path id="path1059" d="M 0,0 C 0.942,0 1.707,0.893 1.707,3.115 1.707,5.337 0.942,6.23 0,6.23 -0.942,6.23 -1.707,5.338 -1.707,3.115 -1.707,0.893 -0.942,0 0,0 m 3.091,3.115 c 0,-0.314 0.067,-4.525 -3.106,-4.525 -3.173,0 -3.107,4.211 -3.107,4.525 0,0.314 -0.066,4.524 3.107,4.524 3.173,0 3.106,-4.21 3.106,-4.524" style="fill:#000000;fill-opacity:1;fill-rule:nonzero;stroke:none" transform="matrix(0.35277776,0,0,-0.35277776,131.95021,190.78716)" clip-path="url(#clipPath1060)"/>
    <path id="path1061" d="M 0,0 H 1.759 L 0.894,2.454 Z M 2.252,-1.411 H -0.494 L -1.359,-3.866 H -2.84 L 0.185,4.878 H 1.574 L 4.598,-3.866 H 3.116 Z" style="fill:#000000;fill-opacity:1;fill-rule:nonzero;stroke:none" transform="matrix(0.35277776,0,0,-0.35277776,134.92392,189.86676)" clip-path="url(#clipPath1062)"/>
    <path id="path1063" d="M 0,0 -2.028,-5.063 -4.058,0 v -5.063 h -1.383 v 8.744 h 1.383 L -2.028,-1.228 0,3.681 H 1.384 V -5.063 H 0 Z" style="fill:#000000;fill-opacity:1;fill-rule:nonzero;stroke:none" transform="matrix(0.35277776,0,0,-0.35277776,138.9284,189.44452)" clip-path="url(#clipPath1064)"/>
    <path id="path1065" d="m 159.923,504.449 h 3.061 v -1.382 h -3.061 z" style="fill:#000000;fill-opacity:1;fill-rule:nonzero;stroke:none" transform="matrix(0.35277776,0,0,-0.35277776,82.869122,362.55505)" clip-path="url(#clipPath1066)"/>
  </g>
</svg>
