<svg id="R4-20R" xmlns="http://www.w3.org/2000/svg" width="24in" height="30in" viewBox="0 0 1728 2160">
  <g>
    <rect width="1728" height="2160" rx="108" fill="#fff"/>
    <path d="M1620,2.2536A105.866,105.866,0,0,1,1725.7463,108V2052A105.8659,105.8659,0,0,1,1620,2157.7463H108A105.866,105.866,0,0,1,2.2536,2052V108A105.866,105.866,0,0,1,108,2.2536H1620M1620,0H108A108,108,0,0,0,0,108V2052a108,108,0,0,0,108,108H1620a108,108,0,0,0,108-108V108A108,108,0,0,0,1620,0Z"/>
  </g>
  <path d="M1620,27H108a81.0963,81.0963,0,0,0-81,81V2052a81.0964,81.0964,0,0,0,81,81H1620a81.0964,81.0964,0,0,0,81-81V108A81.0964,81.0964,0,0,0,1620,27Zm36,2025a36.0413,36.0413,0,0,1-36,36H108a36.0413,36.0413,0,0,1-36-36V108a36.0414,36.0414,0,0,1,36-36H1620a36.0414,36.0414,0,0,1,36,36Z"/>
  <g>
    <rect x="432.0012" y="1640.267" width="553.2192" height="175.5023"/>
    <path d="M916.9236,1924.56A29.2479,29.2479,0,0,0,961.52,1956.888L1295.9988,1728,961.52,1499.112a29.2406,29.2406,0,0,0-44.5968,32.328L974.2548,1728Z"/>
  </g>
  <g id="ALL">
    <path d="M657.8017,567.495h-77.22L556.5061,666h-51.93l89.91-360h50.7152l89.8654,360h-51.93ZM593.2265,516.96h51.93l-26.595-103.59Z"/>
    <path d="M795.5521,306h51.931V617.9849h131.76V666H795.5521Z"/>
    <path d="M1039.7331,306h51.931V617.9849h131.76V666H1039.7331Z"/>
  </g>
  <g id="TRAFFIC">
    <path d="M241.7225,1296.0016h-51.93V984.014h-65.88V935.9984H307.6029V984.014h-65.88Z"/>
    <path d="M448.7754,1126.7549H399.59v169.2467H347.93V935.9984H455.0755c56.4752,0,94.5457,37.8905,94.5457,95.9857,0,42.93-17.6853,74.5208-51.7054,87.166l51.66,176.8515H496.7009ZM399.59,986.5341V1077.48h52.92c30.33,0,46.6652-16.4251,46.6652-45.4954,0-27.81-18.9-45.45-46.62-45.45Z"/>
    <path d="M728.7719,1197.4957h-77.22l-24.0753,98.5059h-51.93l89.91-360.0032h50.7152l89.8654,360.0032h-51.93ZM664.1968,1146.96h51.93l-26.5949-103.5906Z"/>
    <path d="M898.2953,1077.48h72.2259v49.2754H898.2953v169.2467h-51.93V935.9984h183.6909v50.5357H898.2953Z"/>
    <path d="M1122.31,1077.48h72.2259v49.2754H1122.31v169.2467h-51.93V935.9984h183.691v50.5357H1122.31Z"/>
    <path d="M1294.3952,935.9984h50.4v360.0032h-50.4Z"/>
    <path d="M1552.0681,1031.9841c-4.9954-35.37-18.99-51.7955-43.11-51.7955-41.8505,0-57.1051,32.8507-57.1051,126.2714,0,103.5911,17.7752,145.2611,62.19,145.2611,30.4653,0,38.0252-25.29,38.0252-51.7955h52.02c-1.26,59.3554-39.285,102.3312-90.0451,102.3312-77.3551,0-111.6457-61.8761-111.6457-194.537,0-116.1459,36.7654-177.9766,107.82-177.9766,65.9708,0,92.1155,60.1656,93.8705,102.2409Z"/>
  </g>
</svg>
