<?xml version="1.0" encoding="UTF-8" standalone="no"?>
<svg
   xmlns:dc="http://purl.org/dc/elements/1.1/"
   xmlns:cc="http://creativecommons.org/ns#"
   xmlns:rdf="http://www.w3.org/1999/02/22-rdf-syntax-ns#"
   xmlns:svg="http://www.w3.org/2000/svg"
   xmlns="http://www.w3.org/2000/svg"
   xmlns:sodipodi="http://sodipodi.sourceforge.net/DTD/sodipodi-0.dtd"
   xmlns:inkscape="http://www.inkscape.org/namespaces/inkscape"
   sodipodi:docname="R7-107aL.svg"
   inkscape:version="1.0rc1 (09960d6f05, 2020-04-09)"
   id="svg5650"
   version="1.1"
   viewBox="0 0 24.306742 60.50174"
   height="60.50174mm"
   width="24.306742mm">
  <defs
     id="defs5644">
    <clipPath
       clipPathUnits="userSpaceOnUse"
       id="clipPath1354">
      <path
         d="M 27,33.9 H 539.875 V 635.4 H 27 Z"
         id="path1352"
         inkscape:connector-curvature="0" />
    </clipPath>
  </defs>
  <sodipodi:namedview
     inkscape:window-maximized="1"
     inkscape:window-y="0"
     inkscape:window-x="0"
     inkscape:window-height="836"
     inkscape:window-width="1600"
     showgrid="false"
     inkscape:document-rotation="0"
     inkscape:current-layer="g1350"
     inkscape:document-units="mm"
     inkscape:cy="114.334"
     inkscape:cx="45.934"
     inkscape:zoom="2.8"
     inkscape:pageshadow="2"
     inkscape:pageopacity="0.0"
     borderopacity="1.0"
     bordercolor="#666666"
     pagecolor="#ffffff"
     id="base" />
  <metadata
     id="metadata5647">
    <rdf:RDF>
      <cc:Work
         rdf:about="">
        <dc:format>image/svg+xml</dc:format>
        <dc:type
           rdf:resource="http://purl.org/dc/dcmitype/StillImage" />
        <dc:title></dc:title>
      </cc:Work>
    </rdf:RDF>
  </metadata>
  <g
     transform="translate(-134.50139,-45.344365)"
     id="layer1"
     inkscape:groupmode="layer"
     inkscape:label="Layer 1">
    <g
       transform="matrix(0.35277777,0,0,-0.35277777,11.37059,126.1763)"
       id="g1348">
      <g
         id="g1350"
         clip-path="url(#clipPath1354)">
        <g
           id="g1356"
           transform="translate(357.8312,228.8799)">
          <path
             d="m 0,0 h 51.301 c 4.709,0 8.551,-3.841 8.551,-8.55 v -153.901 c 0,-4.709 -3.842,-8.55 -8.551,-8.55 H 0 c -4.709,0 -8.549,3.841 -8.549,8.55 V -8.55 C -8.549,-3.9 -4.648,0 0,0"
             style="fill:#ffffff;fill-opacity:1;fill-rule:nonzero;stroke:#231f20;stroke-width:0.5;stroke-linecap:butt;stroke-linejoin:miter;stroke-miterlimit:4;stroke-dasharray:none;stroke-opacity:1"
             id="path1358"
             inkscape:connector-curvature="0" />
        </g>
        <g
           id="g1360"
           transform="translate(357.8582,226.7419)">
          <path
             d="m 0,0 h 51.246 c 3.532,-0.02 6.418,-2.908 6.44,-6.44 v -153.845 c -0.022,-3.534 -2.908,-6.418 -6.44,-6.44 H 0 c -3.523,0.022 -6.427,2.906 -6.439,6.44 V -6.44 C -6.427,-2.908 -3.523,-0.02 0,0"
             style="fill:#bf2519;fill-opacity:1;fill-rule:evenodd;stroke:none"
             id="path1362"
             inkscape:connector-curvature="0" />
        </g>
        <g
           id="g1364"
           transform="translate(357.8862,224.6049)">
          <path
             d="m 0,0 h 51.191 c 2.395,-0.016 4.311,-1.937 4.33,-4.328 v -153.795 c -0.019,-2.395 -1.933,-4.311 -4.33,-4.328 H 0 c -2.393,0.017 -4.315,1.933 -4.328,4.328 V -4.328 C -4.315,-1.937 -2.391,-0.016 0,0"
             style="fill:#ffffff;fill-opacity:1;fill-rule:evenodd;stroke:none"
             id="path1366"
             inkscape:connector-curvature="0" />
        </g>
        <g
           id="g1368"
           transform="matrix(-1,0,0,1,369.6042,74.033)">
          <path
             d="M 0,0 8.164,-5.522 0,-11.053 c -0.359,-0.246 -0.851,-0.15 -1.098,0.209 -0.162,0.24 -0.132,0.488 -0.056,0.785 l 0.719,2.395 h -35.37 v 4.277 h 35.37 l -0.704,2.359 c -0.089,0.327 -0.128,0.567 0.041,0.817 C -0.851,0.15 -0.359,0.244 0,0"
             style="fill:#bf2519;fill-opacity:1;fill-rule:evenodd;stroke:none"
             id="path1370"
             inkscape:connector-curvature="0" />
        </g>
        <g
           id="g1372"
           transform="translate(379.0342,106.0389)">
          <path
             d="m 0,0 v 7.769 h 9.799 c 2.51,0 4.303,-1.674 4.303,-3.824 C 14.102,1.552 12.428,0 9.799,0 Z M -6.691,-19.619 H 0 v 12.808 h 8.963 c 3.107,0 4.541,0.358 6.572,1.434 3.227,1.793 5.258,5.377 5.258,9.322 0,3.824 -2.031,7.291 -5.258,9.201 C 13.623,14.222 12.19,14.58 9.32,14.58 H -6.691 Z"
             style="fill:#231f20;fill-opacity:1;fill-rule:evenodd;stroke:none"
             id="path1374"
             inkscape:connector-curvature="0" />
        </g>
        <g
           id="g1376"
           transform="translate(361.2292,147.1129)">
          <path
             d="M 0,0 V -4.961 H 3.694 V -9.5 h 7.758 v 4.49 h 21.851 v -4.277 h 7.707 v 4.486 h 3.692 v 4.752 l -0.739,1.051 0.901,7.603 -2.746,21.323 c -0.18,1.404 -0.52,2.8 -1.373,3.957 -0.493,0.666 -1.118,1.254 -1.825,1.687 -0.552,0.338 -1.168,0.529 -1.818,0.529 H 10.448 C 9.301,36.101 8.116,36.098 7,35.777 5.879,35.459 4.891,34.82 4.069,33.998 3.188,33.121 2.532,32.021 2.372,30.771 L -0.318,9.553 0.635,0.898 Z"
             style="fill:#231f20;fill-opacity:1;fill-rule:evenodd;stroke:none"
             id="path1378"
             inkscape:connector-curvature="0" />
        </g>
        <g
           id="g1380"
           transform="translate(365.2902,146.2199)">
          <path
             d="M 0,0 0.004,1.317 H 36.787 V 0 Z"
             style="fill:#ffffff;fill-opacity:1;fill-rule:evenodd;stroke:none"
             id="path1382"
             inkscape:connector-curvature="0" />
        </g>
        <path
           d="m 372.261,181.898 h 22.215 v -5.068 h -22.215 z"
           style="fill:#ffffff;fill-opacity:1;fill-rule:evenodd;stroke:none"
           id="path1384"
           inkscape:connector-curvature="0" />
        <g
           id="g1386"
           transform="translate(385.0322,175.5069)">
          <path
             d="m 0,0 16.94,-1.105 1.424,-13.777 H 0 Z"
             style="fill:#ffffff;fill-opacity:1;fill-rule:evenodd;stroke:none"
             id="path1388"
             inkscape:connector-curvature="0" />
        </g>
        <g
           id="g1390"
           transform="translate(363.6552,160.6249)">
          <path
             d="m 0,0 1.582,13.617 16.467,1.322 V 0 Z"
             style="fill:#ffffff;fill-opacity:1;fill-rule:evenodd;stroke:none"
             id="path1392"
             inkscape:connector-curvature="0" />
        </g>
        <g
           id="g1394"
           transform="translate(368.6712,151.3359)">
          <path
             d="m 0,0 c -0.246,-0.44 -0.572,-0.784 -1.061,-0.971 -0.855,-0.332 -1.82,-0.031 -2.341,0.721 -0.454,0.66 -0.454,1.544 0.002,2.203 0.517,0.744 1.492,1.043 2.339,0.72 C -0.57,2.488 -0.246,2.132 0,1.691 0.24,2.134 0.564,2.49 1.049,2.677 1.889,2.996 2.875,2.687 3.387,1.955 3.851,1.294 3.853,0.421 3.396,-0.245 2.889,-0.989 1.894,-1.305 1.049,-0.981 0.564,-0.793 0.242,-0.44 0,0"
             style="fill:#ffffff;fill-opacity:1;fill-rule:evenodd;stroke:none"
             id="path1396"
             inkscape:connector-curvature="0" />
        </g>
        <g
           id="g1398"
           transform="translate(398.3272,151.39)">
          <path
             d="M 0,0 C -0.236,-0.443 -0.564,-0.806 -1.053,-0.99 -1.887,-1.301 -2.879,-1.019 -3.387,-0.279 -3.848,0.393 -3.855,1.248 -3.404,1.926 -2.896,2.69 -1.902,2.99 -1.053,2.658 -0.551,2.463 -0.254,2.135 0,1.69 0.244,2.127 0.57,2.477 1.049,2.662 1.893,2.996 2.891,2.67 3.399,1.926 3.776,1.371 3.854,0.692 3.58,0.074 3.19,-0.806 2.301,-1.23 1.365,-1.078 0.719,-0.972 0.295,-0.551 0,0"
             style="fill:#ffffff;fill-opacity:1;fill-rule:evenodd;stroke:none"
             id="path1400"
             inkscape:connector-curvature="0" />
        </g>
        <g
           id="g1402"
           transform="translate(397.2372,86.103)">
          <path
             d="m 0,0 c -8.847,-6.863 -21.679,-6.058 -29.615,1.877 -7.935,7.934 -8.803,20.705 -1.922,29.57 z m 3.987,3.986 c 6.865,8.848 6.058,21.68 -1.877,29.616 -7.934,7.935 -20.705,8.802 -29.571,1.922 z M -33.66,37.631 c 10.961,10.963 28.84,10.963 39.801,0 10.961,-10.959 10.961,-28.838 0,-39.801 -10.961,-10.961 -28.84,-10.961 -39.801,0 -10.961,10.963 -10.961,28.842 0,39.801"
             style="fill:#bf2519;fill-opacity:1;fill-rule:evenodd;stroke:none"
             id="path1404"
             inkscape:connector-curvature="0" />
        </g>
        <path
           d="m 355.231,219.617 h 56.561 v -30.67 h -56.561 z"
           style="fill:none;stroke:#231f20;stroke-width:0.462;stroke-linecap:butt;stroke-linejoin:miter;stroke-miterlimit:2.613;stroke-dasharray:none;stroke-opacity:1"
           id="path1406"
           inkscape:connector-curvature="0" />
        <g
           id="g1408"
           transform="translate(361.0422,214.2999)">
          <path
             d="M 0,0 H 1.967 V -0.453 H 1.25 V -3.218 H 0.715 v 2.765 H 0 Z"
             style="fill:#231f20;fill-opacity:1;fill-rule:nonzero;stroke:none"
             id="path1410"
             inkscape:connector-curvature="0" />
        </g>
        <g
           id="g1412"
           transform="translate(363.2902,214.2999)">
          <path
             d="M 0,0 H 0.533 V -1.33 H 1.484 V 0 H 2.016 V -3.218 H 1.484 v 1.433 H 0.533 V -3.218 H 0 Z"
             style="fill:#231f20;fill-opacity:1;fill-rule:nonzero;stroke:none"
             id="path1414"
             inkscape:connector-curvature="0" />
        </g>
        <path
           d="m 365.968,214.3 h 0.535 v -3.218 h -0.535 z"
           style="fill:#231f20;fill-opacity:1;fill-rule:nonzero;stroke:none"
           id="path1416"
           inkscape:connector-curvature="0" />
        <g
           id="g1418"
           transform="translate(369.0832,213.5799)">
          <path
             d="M 0,0 -0.453,-0.16 C -0.506,0.011 -0.576,0.138 -0.664,0.22 -0.75,0.302 -0.871,0.343 -1.02,0.343 -1.16,0.343 -1.268,0.302 -1.344,0.218 -1.42,0.134 -1.459,0.041 -1.459,-0.065 c 0,-0.119 0.045,-0.213 0.129,-0.283 0.086,-0.072 0.256,-0.152 0.512,-0.252 0.218,-0.082 0.388,-0.162 0.504,-0.238 0.119,-0.074 0.212,-0.176 0.287,-0.301 0.072,-0.129 0.109,-0.275 0.109,-0.439 0,-0.27 -0.096,-0.5 -0.287,-0.692 -0.19,-0.189 -0.459,-0.283 -0.803,-0.283 -0.594,0 -0.963,0.301 -1.105,0.904 l 0.478,0.133 c 0.084,-0.402 0.301,-0.603 0.653,-0.603 0.17,0 0.3,0.044 0.388,0.134 0.09,0.088 0.135,0.2 0.135,0.33 0,0.098 -0.029,0.186 -0.092,0.268 -0.06,0.082 -0.213,0.172 -0.459,0.264 -0.256,0.097 -0.443,0.179 -0.558,0.246 -0.114,0.068 -0.211,0.166 -0.291,0.299 -0.08,0.13 -0.121,0.283 -0.121,0.451 0,0.254 0.089,0.468 0.267,0.642 0.18,0.176 0.416,0.262 0.711,0.262 C -0.479,0.777 -0.145,0.517 0,0"
             style="fill:#231f20;fill-opacity:1;fill-rule:nonzero;stroke:none"
             id="path1420"
             inkscape:connector-curvature="0" />
        </g>
        <g
           id="g1422"
           transform="translate(370.3042,211.082)">
          <path
             d="M 0,0 H 0.508 L 0.709,0.812 H 1.652 L 1.853,0 H 2.394 L 1.529,3.218 H 0.927 Z m 0.812,1.226 0.365,1.475 0.37,-1.475 z"
             style="fill:#231f20;fill-opacity:1;fill-rule:nonzero;stroke:none"
             id="path1424"
             inkscape:connector-curvature="0" />
        </g>
        <g
           id="g1426"
           transform="translate(373.0632,211.082)">
          <path
             d="m 0,0 h 0.534 v 1.345 h 0.5 L 1.532,0 h 0.58 L 1.5,1.457 C 1.827,1.623 1.991,1.902 1.991,2.298 1.991,2.595 1.909,2.822 1.743,2.98 1.577,3.14 1.319,3.218 0.969,3.218 H 0 Z M 0.946,2.804 C 1.297,2.804 1.471,2.636 1.471,2.3 1.471,2.14 1.428,2.009 1.342,1.91 1.256,1.812 1.124,1.761 0.942,1.761 H 0.534 v 1.043 z"
             style="fill:#231f20;fill-opacity:1;fill-rule:nonzero;stroke:none"
             id="path1428"
             inkscape:connector-curvature="0" />
        </g>
        <g
           id="g1430"
           transform="translate(375.6592,214.2999)">
          <path
             d="M 0,0 H 1.848 V -0.427 H 0.533 V -1.343 H 1.565 V -1.777 H 0.533 V -2.783 H 1.865 V -3.218 H 0 Z"
             style="fill:#231f20;fill-opacity:1;fill-rule:nonzero;stroke:none"
             id="path1432"
             inkscape:connector-curvature="0" />
        </g>
        <g
           id="g1434"
           transform="translate(377.6012,211.082)">
          <path
             d="M 0,0 H 0.505 L 0.709,0.812 H 1.652 L 1.853,0 H 2.394 L 1.529,3.218 H 0.927 Z M 0.812,1.226 1.179,2.701 1.548,1.226 Z"
             style="fill:#231f20;fill-opacity:1;fill-rule:nonzero;stroke:none"
             id="path1436"
             inkscape:connector-curvature="0" />
        </g>
        <g
           id="g1438"
           transform="translate(381.2962,214.2999)">
          <path
             d="M 0,0 H 0.791 L 1.43,-2.32 2.088,0 h 0.76 V -3.218 H 2.344 v 2.746 L 1.582,-3.218 H 1.195 l -0.748,2.75 v -2.75 H 0 Z"
             style="fill:#231f20;fill-opacity:1;fill-rule:nonzero;stroke:none"
             id="path1440"
             inkscape:connector-curvature="0" />
        </g>
        <g
           id="g1442"
           transform="translate(384.4812,211.082)">
          <path
             d="M 0,0 H 0.51 L 0.711,0.812 H 1.653 L 1.856,0 H 2.395 L 1.532,3.218 H 0.93 Z M 0.813,1.226 1.18,2.701 1.549,1.226 Z"
             style="fill:#231f20;fill-opacity:1;fill-rule:nonzero;stroke:none"
             id="path1444"
             inkscape:connector-curvature="0" />
        </g>
        <g
           id="g1446"
           transform="translate(386.6652,214.2999)">
          <path
             d="M 0,0 H 0.572 L 1.17,-1.355 1.777,0 H 2.279 L 1.387,-1.857 V -3.218 H 0.854 v 1.361 z"
             style="fill:#231f20;fill-opacity:1;fill-rule:nonzero;stroke:none"
             id="path1448"
             inkscape:connector-curvature="0" />
        </g>
        <g
           id="g1450"
           transform="translate(390.6122,212.5539)">
          <path
             d="m 0,0 h 0.387 c 0.258,0 0.428,-0.054 0.514,-0.16 0.082,-0.107 0.125,-0.23 0.125,-0.363 0,-0.346 -0.2,-0.52 -0.594,-0.52 H 0 Z m -0.521,-1.472 h 0.992 c 0.43,0 0.721,0.089 0.873,0.265 0.152,0.178 0.229,0.387 0.229,0.623 0,0.418 -0.194,0.688 -0.581,0.811 C 1.311,0.338 1.471,0.573 1.471,0.93 1.471,1.123 1.426,1.289 1.34,1.424 1.252,1.563 1.141,1.649 1.014,1.688 0.887,1.727 0.7,1.746 0.455,1.746 H -0.521 Z M 0,1.332 H 0.391 C 0.573,1.332 0.707,1.297 0.793,1.229 0.881,1.157 0.924,1.043 0.924,0.879 0.924,0.744 0.885,0.631 0.809,0.545 0.735,0.457 0.578,0.416 0.338,0.416 H 0 Z"
             style="fill:#231f20;fill-opacity:1;fill-rule:nonzero;stroke:none"
             id="path1452"
             inkscape:connector-curvature="0" />
        </g>
        <g
           id="g1454"
           transform="translate(392.7692,214.2999)">
          <path
             d="M 0,0 H 1.847 V -0.427 H 0.533 V -1.343 H 1.564 V -1.777 H 0.533 V -2.783 H 1.867 V -3.218 H 0 Z"
             style="fill:#231f20;fill-opacity:1;fill-rule:nonzero;stroke:none"
             id="path1456"
             inkscape:connector-curvature="0" />
        </g>
        <g
           id="g1458"
           transform="translate(395.9622,214.2999)">
          <path
             d="m 0,0 h 0.519 v -1.998 c 0,-0.224 0.012,-0.39 0.038,-0.496 0.021,-0.105 0.078,-0.191 0.162,-0.252 0.084,-0.064 0.199,-0.093 0.341,-0.093 0.137,0 0.245,0.025 0.319,0.076 0.076,0.052 0.131,0.125 0.162,0.217 0.031,0.095 0.047,0.281 0.047,0.556 V 0 H 2.064 V -1.959 C 2.064,-2.273 2.043,-2.515 1.998,-2.685 1.953,-2.853 1.85,-2.994 1.687,-3.107 1.523,-3.218 1.305,-3.273 1.029,-3.273 0.818,-3.273 0.633,-3.24 0.475,-3.168 0.318,-3.099 0.199,-2.986 0.119,-2.83 0.039,-2.673 0,-2.396 0,-1.996 Z"
             style="fill:#231f20;fill-opacity:1;fill-rule:nonzero;stroke:none"
             id="path1460"
             inkscape:connector-curvature="0" />
        </g>
        <g
           id="g1462"
           transform="translate(400.5792,213.5799)">
          <path
             d="m 0,0 -0.451,-0.16 c -0.055,0.171 -0.123,0.298 -0.211,0.38 -0.088,0.082 -0.205,0.123 -0.357,0.123 -0.139,0 -0.247,-0.041 -0.323,-0.125 -0.078,-0.084 -0.115,-0.177 -0.115,-0.283 0,-0.119 0.043,-0.213 0.129,-0.283 0.084,-0.072 0.258,-0.152 0.512,-0.252 0.216,-0.082 0.386,-0.162 0.504,-0.238 0.117,-0.074 0.212,-0.176 0.285,-0.301 0.074,-0.129 0.111,-0.275 0.111,-0.439 0,-0.27 -0.098,-0.5 -0.287,-0.692 -0.191,-0.189 -0.459,-0.283 -0.805,-0.283 -0.593,0 -0.961,0.301 -1.101,0.904 l 0.476,0.133 c 0.084,-0.402 0.301,-0.603 0.653,-0.603 0.17,0 0.3,0.044 0.39,0.134 0.088,0.088 0.133,0.2 0.133,0.33 0,0.098 -0.031,0.186 -0.094,0.268 -0.058,0.082 -0.213,0.172 -0.459,0.264 -0.256,0.097 -0.441,0.179 -0.554,0.246 -0.116,0.068 -0.213,0.166 -0.293,0.299 -0.08,0.13 -0.121,0.283 -0.121,0.451 0,0.254 0.089,0.468 0.269,0.642 0.176,0.176 0.414,0.262 0.709,0.262 0.524,0 0.858,-0.26 1,-0.777"
             style="fill:#231f20;fill-opacity:1;fill-rule:nonzero;stroke:none"
             id="path1464"
             inkscape:connector-curvature="0" />
        </g>
        <g
           id="g1466"
           transform="translate(401.1792,214.2999)">
          <path
             d="M 0,0 H 1.847 V -0.427 H 0.535 V -1.343 H 1.564 V -1.777 H 0.535 V -2.783 H 1.867 V -3.218 H 0 Z"
             style="fill:#231f20;fill-opacity:1;fill-rule:nonzero;stroke:none"
             id="path1468"
             inkscape:connector-curvature="0" />
        </g>
        <g
           id="g1470"
           transform="translate(403.4462,211.082)">
          <path
             d="m 0,0 h 0.768 c 0.367,0 0.65,0.076 0.849,0.226 0.2,0.153 0.348,0.352 0.446,0.596 0.095,0.248 0.142,0.527 0.142,0.842 0,0.299 -0.05,0.568 -0.16,0.816 C 1.938,2.722 1.778,2.908 1.569,3.035 1.36,3.156 1.076,3.218 0.727,3.218 H 0 Z M 0.758,2.791 C 1.352,2.791 1.647,2.396 1.647,1.609 1.647,1.252 1.576,0.963 1.438,0.75 1.295,0.535 1.071,0.429 0.758,0.429 H 0.535 v 2.362 z"
             style="fill:#231f20;fill-opacity:1;fill-rule:nonzero;stroke:none"
             id="path1472"
             inkscape:connector-curvature="0" />
        </g>
        <g
           id="g1474"
           transform="translate(364.0952,208.6699)">
          <path
             d="m 0,0 h 1.783 v -0.426 h -1.25 v -0.963 h 1 v -0.428 h -1 V -3.219 H 0 Z"
             style="fill:#231f20;fill-opacity:1;fill-rule:nonzero;stroke:none"
             id="path1476"
             inkscape:connector-curvature="0" />
        </g>
        <g
           id="g1478"
           transform="translate(368.1082,208.306)">
          <path
             d="m 0,0 c -0.199,0.281 -0.486,0.42 -0.859,0.42 -0.375,0 -0.662,-0.139 -0.859,-0.424 -0.202,-0.279 -0.299,-0.693 -0.299,-1.238 0,-0.553 0.099,-0.967 0.299,-1.246 0.199,-0.281 0.486,-0.42 0.863,-0.42 0.375,0 0.658,0.141 0.855,0.42 0.196,0.279 0.295,0.695 0.295,1.246 C 0.295,-0.693 0.196,-0.279 0,0 m -0.4,-2.152 c -0.088,-0.217 -0.24,-0.324 -0.455,-0.324 -0.229,0 -0.389,0.111 -0.473,0.334 -0.088,0.226 -0.131,0.523 -0.131,0.898 0,0.381 0.043,0.68 0.133,0.9 0.088,0.221 0.242,0.333 0.463,0.333 0.223,0 0.377,-0.112 0.465,-0.331 0.09,-0.22 0.133,-0.521 0.133,-0.902 0,-0.391 -0.043,-0.693 -0.135,-0.908"
             style="fill:#231f20;fill-opacity:1;fill-rule:nonzero;stroke:none"
             id="path1480"
             inkscape:connector-curvature="0" />
        </g>
        <g
           id="g1482"
           transform="translate(368.9622,205.4509)">
          <path
             d="M 0,0 H 0.533 V 1.345 H 1.031 L 1.531,0 H 2.109 L 1.498,1.459 c 0.328,0.162 0.494,0.443 0.494,0.84 0,0.296 -0.084,0.525 -0.25,0.683 C 1.576,3.142 1.316,3.219 0.967,3.219 H 0 Z M 0.943,2.804 C 1.295,2.804 1.471,2.638 1.471,2.303 1.471,2.14 1.426,2.011 1.342,1.912 1.256,1.81 1.121,1.761 0.941,1.761 H 0.533 v 1.043 z"
             style="fill:#231f20;fill-opacity:1;fill-rule:nonzero;stroke:none"
             id="path1484"
             inkscape:connector-curvature="0" />
        </g>
        <g
           id="g1486"
           transform="translate(372.1792,205.4509)">
          <path
             d="M 0,0 H 0.506 L 0.709,0.81 H 1.652 L 1.855,0 H 2.392 L 1.527,3.219 h -0.6 z m 0.812,1.226 0.367,1.475 0.37,-1.475 z"
             style="fill:#231f20;fill-opacity:1;fill-rule:nonzero;stroke:none"
             id="path1488"
             inkscape:connector-curvature="0" />
        </g>
        <g
           id="g1490"
           transform="translate(375.4972,208.6699)">
          <path
             d="M 0,0 H 1.967 V -0.452 H 1.25 V -3.219 H 0.717 v 2.767 H 0 Z"
             style="fill:#231f20;fill-opacity:1;fill-rule:nonzero;stroke:none"
             id="path1492"
             inkscape:connector-curvature="0" />
        </g>
        <g
           id="g1494"
           transform="translate(377.7452,205.4509)">
          <path
             d="M 0,0 H 0.535 V 1.345 H 1.033 L 1.531,0 h 0.58 L 1.5,1.459 c 0.328,0.162 0.492,0.443 0.492,0.84 0,0.296 -0.082,0.525 -0.25,0.683 C 1.576,3.142 1.317,3.219 0.967,3.219 H 0 Z m 0.945,2.804 c 0.35,0 0.524,-0.166 0.524,-0.501 C 1.469,2.14 1.428,2.011 1.34,1.912 1.258,1.81 1.123,1.761 0.942,1.761 H 0.535 v 1.043 z"
             style="fill:#231f20;fill-opacity:1;fill-rule:nonzero;stroke:none"
             id="path1496"
             inkscape:connector-curvature="0" />
        </g>
        <g
           id="g1498"
           transform="translate(380.0132,205.4509)">
          <path
             d="M 0,0 H 0.508 L 0.711,0.81 H 1.652 L 1.855,0 H 2.394 L 1.531,3.219 H 0.929 Z m 0.812,1.226 0.367,1.475 0.37,-1.475 z"
             style="fill:#231f20;fill-opacity:1;fill-rule:nonzero;stroke:none"
             id="path1500"
             inkscape:connector-curvature="0" />
        </g>
        <g
           id="g1502"
           transform="translate(382.7612,208.6699)">
          <path
             d="M 0,0 H 0.627 L 1.683,-2.319 V 0 H 2.129 V -3.219 H 1.633 L 0.447,-0.641 V -3.219 H 0 Z"
             style="fill:#231f20;fill-opacity:1;fill-rule:nonzero;stroke:none"
             id="path1504"
             inkscape:connector-curvature="0" />
        </g>
        <g
           id="g1506"
           transform="translate(387.4502,207.9489)">
          <path
             d="m 0,0 -0.453,-0.158 c -0.053,0.171 -0.123,0.298 -0.211,0.38 -0.086,0.083 -0.205,0.124 -0.355,0.124 -0.139,0 -0.248,-0.041 -0.325,-0.125 -0.076,-0.084 -0.113,-0.178 -0.113,-0.284 0,-0.121 0.041,-0.216 0.127,-0.285 0.086,-0.07 0.256,-0.154 0.512,-0.25 0.219,-0.084 0.389,-0.166 0.504,-0.24 0.119,-0.076 0.215,-0.176 0.287,-0.301 0.072,-0.127 0.109,-0.273 0.109,-0.441 0,-0.268 -0.095,-0.498 -0.287,-0.69 -0.189,-0.187 -0.459,-0.281 -0.803,-0.281 -0.595,0 -0.963,0.301 -1.103,0.9 l 0.476,0.135 c 0.084,-0.402 0.303,-0.603 0.653,-0.603 0.17,0 0.301,0.045 0.39,0.134 0.088,0.088 0.133,0.2 0.133,0.331 0,0.097 -0.029,0.185 -0.092,0.267 -0.062,0.082 -0.212,0.172 -0.459,0.264 -0.255,0.097 -0.443,0.178 -0.556,0.246 -0.115,0.068 -0.213,0.166 -0.291,0.299 -0.08,0.133 -0.121,0.283 -0.121,0.449 0,0.256 0.088,0.473 0.267,0.646 0.178,0.174 0.414,0.26 0.709,0.26 C -0.478,0.777 -0.144,0.519 0,0"
             style="fill:#231f20;fill-opacity:1;fill-rule:nonzero;stroke:none"
             id="path1508"
             inkscape:connector-curvature="0" />
        </g>
        <path
           d="m 388.05,208.67 h 0.533 v -3.219 h -0.533 z"
           style="fill:#231f20;fill-opacity:1;fill-rule:nonzero;stroke:none"
           id="path1510"
           inkscape:connector-curvature="0" />
        <g
           id="g1512"
           transform="translate(388.8582,208.6699)">
          <path
             d="M 0,0 H 1.967 V -0.452 H 1.25 V -3.219 H 0.715 v 2.767 H 0 Z"
             style="fill:#231f20;fill-opacity:1;fill-rule:nonzero;stroke:none"
             id="path1514"
             inkscape:connector-curvature="0" />
        </g>
        <g
           id="g1516"
           transform="translate(392.0542,208.6699)">
          <path
             d="M 0,0 H 0.535 V -2.764 H 1.672 V -3.219 H 0 Z"
             style="fill:#231f20;fill-opacity:1;fill-rule:nonzero;stroke:none"
             id="path1518"
             inkscape:connector-curvature="0" />
        </g>
        <g
           id="g1520"
           transform="translate(395.9642,208.306)">
          <path
             d="m 0,0 c -0.197,0.281 -0.483,0.42 -0.856,0.42 -0.377,0 -0.666,-0.139 -0.863,-0.424 -0.197,-0.279 -0.297,-0.693 -0.297,-1.238 0,-0.553 0.1,-0.967 0.301,-1.246 0.199,-0.281 0.486,-0.42 0.863,-0.42 0.373,0 0.659,0.141 0.854,0.42 0.197,0.279 0.295,0.695 0.295,1.246 C 0.297,-0.693 0.199,-0.279 0,0 m -0.397,-2.152 c -0.089,-0.217 -0.242,-0.324 -0.455,-0.324 -0.23,0 -0.388,0.111 -0.474,0.334 -0.086,0.226 -0.131,0.523 -0.131,0.898 0,0.381 0.045,0.68 0.133,0.9 0.089,0.221 0.242,0.333 0.464,0.333 0.221,0 0.377,-0.112 0.465,-0.331 0.088,-0.22 0.133,-0.521 0.133,-0.902 0,-0.391 -0.045,-0.693 -0.135,-0.908"
             style="fill:#231f20;fill-opacity:1;fill-rule:nonzero;stroke:none"
             id="path1522"
             inkscape:connector-curvature="0" />
        </g>
        <g
           id="g1524"
           transform="translate(397.9132,207.1069)">
          <path
             d="M 0,0 H 1.074 V -1.68 H 0.787 l -0.07,0.414 c -0.164,-0.296 -0.42,-0.443 -0.774,-0.443 -0.359,0 -0.64,0.145 -0.841,0.436 -0.203,0.289 -0.303,0.683 -0.303,1.183 0,0.528 0.1,0.944 0.301,1.248 0.199,0.309 0.508,0.461 0.92,0.461 0.578,0 0.921,-0.326 1.035,-0.978 L 0.572,0.522 C 0.516,0.799 0.44,0.98 0.342,1.063 0.248,1.147 0.135,1.188 0.002,1.188 c -0.428,0 -0.644,-0.409 -0.644,-1.231 0,-0.822 0.222,-1.234 0.662,-1.234 0.369,0 0.552,0.283 0.552,0.847 L 0,-0.43 Z"
             style="fill:#231f20;fill-opacity:1;fill-rule:nonzero;stroke:none"
             id="path1526"
             inkscape:connector-curvature="0" />
        </g>
        <g
           id="g1528"
           transform="translate(401.4912,208.306)">
          <path
             d="m 0,0 c -0.199,0.281 -0.484,0.42 -0.855,0.42 -0.379,0 -0.666,-0.139 -0.865,-0.424 -0.198,-0.279 -0.295,-0.693 -0.295,-1.238 0,-0.553 0.097,-0.967 0.296,-1.246 0.202,-0.281 0.489,-0.42 0.866,-0.42 0.375,0 0.658,0.141 0.855,0.42 0.195,0.279 0.295,0.695 0.295,1.246 C 0.297,-0.693 0.196,-0.279 0,0 m -0.398,-2.152 c -0.09,-0.217 -0.24,-0.324 -0.455,-0.324 -0.231,0 -0.389,0.111 -0.473,0.334 -0.088,0.226 -0.133,0.523 -0.133,0.898 0,0.381 0.045,0.68 0.133,0.9 0.09,0.221 0.244,0.333 0.465,0.333 0.223,0 0.377,-0.112 0.465,-0.331 0.088,-0.22 0.133,-0.521 0.133,-0.902 0,-0.391 -0.045,-0.693 -0.135,-0.908"
             style="fill:#231f20;fill-opacity:1;fill-rule:nonzero;stroke:none"
             id="path1530"
             inkscape:connector-curvature="0" />
        </g>
        <path
           d="m 402.345,206.062 h 0.539 v -0.611 h -0.539 z"
           style="fill:#231f20;fill-opacity:1;fill-rule:nonzero;stroke:none"
           id="path1532"
           inkscape:connector-curvature="0" />
        <g
           id="g1534"
           transform="translate(362.0072,203.039)">
          <path
             d="m 0,0 h 0.39 c -0.369,-0.608 -0.552,-1.278 -0.552,-2.01 0,-0.734 0.183,-1.406 0.552,-2.012 H 0 c -0.436,0.623 -0.653,1.295 -0.653,2.012 0,0.732 0.217,1.402 0.653,2.01"
             style="fill:#231f20;fill-opacity:1;fill-rule:nonzero;stroke:none"
             id="path1536"
             inkscape:connector-curvature="0" />
        </g>
        <path
           d="m 362.724,203.039 h 0.533 v -3.217 h -0.533 z"
           style="fill:#231f20;fill-opacity:1;fill-rule:nonzero;stroke:none"
           id="path1538"
           inkscape:connector-curvature="0" />
        <g
           id="g1540"
           transform="translate(363.9212,203.039)">
          <path
             d="M 0,0 H 1.785 V -0.426 H 0.535 V -1.389 H 1.533 V -1.817 H 0.535 v -1.4 H 0 Z"
             style="fill:#231f20;fill-opacity:1;fill-rule:nonzero;stroke:none"
             id="path1542"
             inkscape:connector-curvature="0" />
        </g>
        <g
           id="g1544"
           transform="translate(366.9602,203.039)">
          <path
             d="M 0,0 H 0.629 L 1.686,-2.319 V 0 H 2.131 V -3.217 H 1.633 L 0.447,-0.643 V -3.217 H 0 Z"
             style="fill:#231f20;fill-opacity:1;fill-rule:nonzero;stroke:none"
             id="path1546"
             inkscape:connector-curvature="0" />
        </g>
        <g
           id="g1548"
           transform="translate(371.6422,202.6749)">
          <path
             d="m 0,0 c -0.198,0.28 -0.483,0.422 -0.856,0.422 -0.377,0 -0.664,-0.142 -0.863,-0.424 -0.197,-0.281 -0.295,-0.695 -0.295,-1.242 0,-0.552 0.098,-0.965 0.297,-1.246 0.201,-0.279 0.488,-0.42 0.863,-0.42 0.375,0 0.66,0.143 0.856,0.42 0.197,0.281 0.296,0.695 0.296,1.246 C 0.298,-0.693 0.197,-0.279 0,0 m -0.397,-2.152 c -0.09,-0.217 -0.24,-0.324 -0.457,-0.324 -0.228,0 -0.387,0.111 -0.473,0.334 -0.086,0.226 -0.128,0.523 -0.128,0.898 0,0.379 0.042,0.68 0.13,0.901 0.09,0.218 0.243,0.33 0.465,0.33 0.223,0 0.377,-0.112 0.465,-0.328 0.088,-0.221 0.133,-0.522 0.133,-0.903 0,-0.39 -0.045,-0.693 -0.135,-0.908"
             style="fill:#231f20;fill-opacity:1;fill-rule:nonzero;stroke:none"
             id="path1550"
             inkscape:connector-curvature="0" />
        </g>
        <g
           id="g1552"
           transform="translate(372.1242,203.039)">
          <path
             d="M 0,0 H 1.969 V -0.453 H 1.252 V -3.217 H 0.719 v 2.764 H 0 Z"
             style="fill:#231f20;fill-opacity:1;fill-rule:nonzero;stroke:none"
             id="path1554"
             inkscape:connector-curvature="0" />
        </g>
        <g
           id="g1556"
           transform="translate(375.2982,203.039)">
          <path
             d="m 0,0 h 0.519 v -2 c 0,-0.225 0.014,-0.387 0.037,-0.496 0.024,-0.106 0.079,-0.188 0.163,-0.25 0.084,-0.063 0.197,-0.094 0.341,-0.094 0.137,0 0.243,0.025 0.319,0.078 0.076,0.049 0.131,0.121 0.162,0.215 0.033,0.094 0.049,0.279 0.049,0.556 V 0 H 2.066 V -1.959 C 2.066,-2.276 2.043,-2.516 2,-2.684 1.953,-2.856 1.849,-2.994 1.685,-3.108 1.523,-3.217 1.305,-3.274 1.029,-3.274 0.818,-3.274 0.633,-3.241 0.474,-3.168 0.318,-3.1 0.201,-2.987 0.119,-2.83 0.039,-2.674 0,-2.395 0,-1.996 Z"
             style="fill:#231f20;fill-opacity:1;fill-rule:nonzero;stroke:none"
             id="path1558"
             inkscape:connector-curvature="0" />
        </g>
        <g
           id="g1560"
           transform="translate(379.9152,202.3179)">
          <path
             d="m 0,0 -0.449,-0.158 c -0.055,0.17 -0.125,0.299 -0.211,0.381 -0.088,0.08 -0.209,0.121 -0.359,0.121 -0.139,0 -0.247,-0.041 -0.323,-0.123 -0.076,-0.084 -0.113,-0.18 -0.113,-0.285 0,-0.12 0.043,-0.215 0.127,-0.284 0.086,-0.07 0.258,-0.154 0.512,-0.25 0.218,-0.084 0.386,-0.166 0.504,-0.24 0.119,-0.076 0.212,-0.176 0.287,-0.303 0.07,-0.125 0.107,-0.271 0.107,-0.439 0,-0.27 -0.094,-0.498 -0.285,-0.69 -0.19,-0.187 -0.459,-0.283 -0.803,-0.283 -0.594,0 -0.961,0.301 -1.105,0.903 l 0.478,0.132 c 0.084,-0.402 0.301,-0.601 0.653,-0.601 0.171,0 0.3,0.045 0.39,0.135 0.088,0.087 0.133,0.199 0.133,0.33 0,0.097 -0.029,0.185 -0.092,0.267 -0.06,0.082 -0.213,0.17 -0.459,0.264 -0.258,0.096 -0.441,0.178 -0.556,0.246 -0.116,0.066 -0.213,0.166 -0.293,0.299 -0.08,0.133 -0.121,0.283 -0.121,0.449 0,0.256 0.087,0.471 0.269,0.647 0.176,0.173 0.412,0.261 0.709,0.261 0.523,0 0.857,-0.26 1,-0.779"
             style="fill:#231f20;fill-opacity:1;fill-rule:nonzero;stroke:none"
             id="path1562"
             inkscape:connector-curvature="0" />
        </g>
        <g
           id="g1564"
           transform="translate(380.5152,203.039)">
          <path
             d="M 0,0 H 1.849 V -0.426 H 0.535 v -0.92 H 1.566 V -1.78 H 0.535 V -2.785 H 1.867 V -3.217 H 0 Z"
             style="fill:#231f20;fill-opacity:1;fill-rule:nonzero;stroke:none"
             id="path1566"
             inkscape:connector-curvature="0" />
        </g>
        <g
           id="g1568"
           transform="translate(382.7842,199.8219)">
          <path
             d="M 0,0 H 0.764 C 1.133,0 1.418,0.074 1.617,0.224 1.815,0.377 1.963,0.574 2.061,0.822 2.158,1.066 2.205,1.348 2.205,1.66 2.205,1.959 2.151,2.232 2.043,2.476 1.938,2.723 1.776,2.908 1.567,3.031 1.356,3.156 1.076,3.217 0.725,3.217 H 0 Z M 0.756,2.791 C 1.35,2.791 1.647,2.394 1.647,1.607 1.647,1.25 1.576,0.963 1.436,0.75 1.295,0.533 1.069,0.426 0.756,0.426 H 0.533 v 2.365 z"
             style="fill:#231f20;fill-opacity:1;fill-rule:nonzero;stroke:none"
             id="path1570"
             inkscape:connector-curvature="0" />
        </g>
        <g
           id="g1572"
           transform="translate(386.4912,199.8219)">
          <path
             d="m 0,0 h 0.768 c 0.369,0 0.65,0.074 0.851,0.224 0.198,0.153 0.348,0.35 0.444,0.598 0.095,0.244 0.144,0.526 0.144,0.838 0,0.299 -0.052,0.572 -0.162,0.816 C 1.938,2.723 1.78,2.908 1.569,3.031 1.36,3.156 1.078,3.217 0.729,3.217 H 0 Z M 0.758,2.791 C 1.35,2.791 1.649,2.394 1.649,1.607 1.649,1.25 1.578,0.963 1.438,0.75 1.295,0.533 1.069,0.426 0.758,0.426 H 0.535 v 2.365 z"
             style="fill:#231f20;fill-opacity:1;fill-rule:nonzero;stroke:none"
             id="path1574"
             inkscape:connector-curvature="0" />
        </g>
        <g
           id="g1576"
           transform="translate(389.2532,203.039)">
          <path
             d="M 0,0 H 1.848 V -0.426 H 0.533 v -0.92 H 1.564 V -1.78 H 0.533 V -2.785 H 1.867 V -3.217 H 0 Z"
             style="fill:#231f20;fill-opacity:1;fill-rule:nonzero;stroke:none"
             id="path1578"
             inkscape:connector-curvature="0" />
        </g>
        <g
           id="g1580"
           transform="translate(393.1362,200.9079)">
          <path
             d="M 0,0 0.492,-0.069 C 0.39,-0.785 0.039,-1.143 -0.561,-1.143 c -0.39,0 -0.681,0.149 -0.875,0.447 -0.189,0.301 -0.285,0.702 -0.285,1.206 0,0.541 0.1,0.957 0.303,1.246 0.203,0.287 0.494,0.433 0.877,0.433 0.59,0 0.935,-0.367 1.037,-1.097 L -0.006,1.017 c -0.055,0.491 -0.234,0.737 -0.541,0.737 -0.408,0 -0.615,-0.424 -0.615,-1.276 0,-0.793 0.207,-1.187 0.619,-1.187 0.164,0 0.287,0.06 0.371,0.183 C -0.092,-0.404 -0.033,-0.229 0,0"
             style="fill:#231f20;fill-opacity:1;fill-rule:nonzero;stroke:none"
             id="path1582"
             inkscape:connector-curvature="0" />
        </g>
        <g
           id="g1584"
           transform="translate(394.1162,199.8219)">
          <path
             d="m 0,0 h 0.533 v 1.344 h 0.5 L 1.533,0 H 2.112 L 1.5,1.457 C 1.83,1.619 1.992,1.9 1.992,2.297 1.992,2.594 1.908,2.822 1.742,2.98 1.576,3.139 1.319,3.217 0.969,3.217 H 0 Z m 0.946,2.801 c 0.351,0 0.527,-0.164 0.527,-0.5 C 1.473,2.139 1.428,2.01 1.344,1.908 1.258,1.808 1.125,1.758 0.942,1.758 H 0.533 v 1.043 z"
             style="fill:#231f20;fill-opacity:1;fill-rule:nonzero;stroke:none"
             id="path1586"
             inkscape:connector-curvature="0" />
        </g>
        <g
           id="g1588"
           transform="translate(396.7122,203.039)">
          <path
             d="M 0,0 H 1.848 V -0.426 H 0.535 v -0.92 H 1.566 V -1.78 H 0.535 V -2.785 H 1.867 V -3.217 H 0 Z"
             style="fill:#231f20;fill-opacity:1;fill-rule:nonzero;stroke:none"
             id="path1590"
             inkscape:connector-curvature="0" />
        </g>
        <g
           id="g1592"
           transform="translate(398.6532,199.8219)">
          <path
             d="M 0,0 H 0.508 L 0.709,0.808 H 1.653 L 1.856,0 H 2.395 L 1.53,3.217 H 0.93 Z M 0.813,1.224 1.18,2.699 1.549,1.224 Z"
             style="fill:#231f20;fill-opacity:1;fill-rule:nonzero;stroke:none"
             id="path1594"
             inkscape:connector-curvature="0" />
        </g>
        <g
           id="g1596"
           transform="translate(403.3312,202.3179)">
          <path
             d="m 0,0 -0.453,-0.158 c -0.053,0.17 -0.123,0.299 -0.211,0.381 -0.088,0.08 -0.205,0.121 -0.355,0.121 -0.141,0 -0.249,-0.041 -0.325,-0.123 -0.076,-0.084 -0.117,-0.18 -0.117,-0.285 0,-0.12 0.045,-0.215 0.131,-0.284 0.086,-0.07 0.254,-0.154 0.512,-0.25 0.218,-0.084 0.386,-0.166 0.504,-0.24 0.117,-0.076 0.212,-0.176 0.285,-0.303 0.074,-0.125 0.109,-0.271 0.109,-0.439 0,-0.27 -0.096,-0.498 -0.285,-0.69 -0.191,-0.187 -0.459,-0.283 -0.803,-0.283 -0.595,0 -0.963,0.301 -1.103,0.903 l 0.476,0.132 c 0.082,-0.402 0.301,-0.601 0.653,-0.601 0.17,0 0.3,0.045 0.39,0.135 0.088,0.087 0.133,0.199 0.133,0.33 0,0.097 -0.031,0.185 -0.092,0.267 -0.062,0.082 -0.215,0.17 -0.457,0.264 -0.26,0.096 -0.447,0.178 -0.56,0.246 -0.116,0.066 -0.211,0.166 -0.291,0.299 -0.082,0.133 -0.121,0.283 -0.121,0.449 0,0.256 0.089,0.471 0.267,0.647 0.178,0.173 0.414,0.261 0.709,0.261 C -0.48,0.779 -0.146,0.519 0,0"
             style="fill:#231f20;fill-opacity:1;fill-rule:nonzero;stroke:none"
             id="path1598"
             inkscape:connector-curvature="0" />
        </g>
        <g
           id="g1600"
           transform="translate(403.9292,203.039)">
          <path
             d="M 0,0 H 1.847 V -0.426 H 0.535 v -0.92 H 1.566 V -1.78 H 0.535 V -2.785 H 1.867 V -3.217 H 0 Z"
             style="fill:#231f20;fill-opacity:1;fill-rule:nonzero;stroke:none"
             id="path1602"
             inkscape:connector-curvature="0" />
        </g>
        <g
           id="g1604"
           transform="translate(361.2532,196.6869)">
          <path
             d="m 0,0 -0.453,-0.158 c -0.053,0.17 -0.125,0.299 -0.211,0.379 -0.086,0.082 -0.207,0.123 -0.358,0.123 -0.138,0 -0.246,-0.041 -0.322,-0.125 -0.078,-0.082 -0.115,-0.176 -0.115,-0.283 0,-0.119 0.043,-0.213 0.127,-0.282 0.088,-0.07 0.258,-0.156 0.512,-0.254 0.218,-0.082 0.388,-0.162 0.504,-0.238 0.119,-0.074 0.214,-0.174 0.287,-0.301 0.072,-0.128 0.111,-0.273 0.111,-0.439 0,-0.27 -0.096,-0.5 -0.289,-0.691 -0.19,-0.188 -0.459,-0.284 -0.803,-0.284 -0.594,0 -0.961,0.301 -1.103,0.905 l 0.478,0.132 c 0.084,-0.402 0.301,-0.603 0.651,-0.603 0.171,0 0.3,0.045 0.39,0.135 0.09,0.088 0.133,0.199 0.133,0.33 0,0.097 -0.029,0.185 -0.092,0.269 -0.06,0.08 -0.213,0.168 -0.457,0.262 -0.258,0.098 -0.445,0.18 -0.558,0.248 -0.116,0.067 -0.213,0.164 -0.291,0.297 -0.082,0.131 -0.122,0.281 -0.122,0.449 0,0.256 0.09,0.471 0.268,0.645 0.178,0.176 0.414,0.261 0.709,0.261 C -0.481,0.777 -0.145,0.518 0,0"
             style="fill:#231f20;fill-opacity:1;fill-rule:nonzero;stroke:none"
             id="path1606"
             inkscape:connector-curvature="0" />
        </g>
        <path
           d="m 361.851,197.408 h 0.533 v -3.217 h -0.533 z"
           style="fill:#231f20;fill-opacity:1;fill-rule:nonzero;stroke:none"
           id="path1608"
           inkscape:connector-curvature="0" />
        <g
           id="g1610"
           transform="translate(364.1422,195.8429)">
          <path
             d="M 0,0 H 1.076 V -1.677 H 0.791 L 0.716,-1.263 C 0.554,-1.56 0.298,-1.709 -0.055,-1.709 c -0.358,0 -0.641,0.147 -0.842,0.436 -0.203,0.293 -0.303,0.687 -0.303,1.185 0,0.526 0.1,0.942 0.299,1.25 0.201,0.307 0.508,0.459 0.922,0.459 0.576,0 0.922,-0.328 1.037,-0.978 L 0.574,0.522 C 0.515,0.801 0.439,0.983 0.343,1.063 0.248,1.147 0.136,1.188 0.005,1.188 c -0.429,0 -0.644,-0.408 -0.644,-1.229 0,-0.824 0.219,-1.234 0.66,-1.234 0.369,0 0.553,0.283 0.553,0.85 H 0 Z"
             style="fill:#231f20;fill-opacity:1;fill-rule:nonzero;stroke:none"
             id="path1612"
             inkscape:connector-curvature="0" />
        </g>
        <g
           id="g1614"
           transform="translate(365.8002,197.4079)">
          <path
             d="M 0,0 H 0.627 L 1.683,-2.319 V 0 h 0.448 v -3.217 h -0.5 L 0.445,-0.641 V -3.217 H 0 Z"
             style="fill:#231f20;fill-opacity:1;fill-rule:nonzero;stroke:none"
             id="path1616"
             inkscape:connector-curvature="0" />
        </g>
        <g
           id="g1618"
           transform="translate(369.5212,197.4079)">
          <path
             d="M 0,0 H 0.533 V -1.332 H 1.484 V 0 H 2.017 V -3.217 H 1.484 v 1.434 H 0.533 V -3.217 H 0 Z"
             style="fill:#231f20;fill-opacity:1;fill-rule:nonzero;stroke:none"
             id="path1620"
             inkscape:connector-curvature="0" />
        </g>
        <g
           id="g1622"
           transform="translate(372.1982,197.4079)">
          <path
             d="M 0,0 H 1.848 V -0.428 H 0.535 V -1.344 H 1.567 V -1.778 H 0.535 V -2.783 H 1.867 V -3.217 H 0 Z"
             style="fill:#231f20;fill-opacity:1;fill-rule:nonzero;stroke:none"
             id="path1624"
             inkscape:connector-curvature="0" />
        </g>
        <path
           d="m 374.468,197.408 h 0.533 v -3.217 h -0.533 z"
           style="fill:#231f20;fill-opacity:1;fill-rule:nonzero;stroke:none"
           id="path1626"
           inkscape:connector-curvature="0" />
        <g
           id="g1628"
           transform="translate(376.7592,195.8429)">
          <path
             d="M 0,0 H 1.074 V -1.677 H 0.789 l -0.072,0.414 c -0.163,-0.297 -0.42,-0.446 -0.772,-0.446 -0.359,0 -0.641,0.147 -0.842,0.436 -0.203,0.293 -0.304,0.687 -0.304,1.185 0,0.526 0.101,0.942 0.298,1.25 0.202,0.307 0.508,0.459 0.924,0.459 0.576,0 0.922,-0.328 1.035,-0.978 L 0.572,0.522 C 0.513,0.801 0.439,0.983 0.342,1.063 0.246,1.147 0.135,1.188 0.006,1.188 c -0.432,0 -0.647,-0.408 -0.647,-1.229 0,-0.824 0.221,-1.234 0.662,-1.234 0.367,0 0.551,0.283 0.551,0.85 H 0 Z"
             style="fill:#231f20;fill-opacity:1;fill-rule:nonzero;stroke:none"
             id="path1630"
             inkscape:connector-curvature="0" />
        </g>
        <g
           id="g1632"
           transform="translate(378.4292,197.4079)">
          <path
             d="M 0,0 H 0.535 V -1.332 H 1.482 V 0 H 2.017 V -3.217 H 1.482 v 1.434 H 0.535 V -3.217 H 0 Z"
             style="fill:#231f20;fill-opacity:1;fill-rule:nonzero;stroke:none"
             id="path1634"
             inkscape:connector-curvature="0" />
        </g>
        <g
           id="g1636"
           transform="translate(380.7182,197.4079)">
          <path
             d="M 0,0 H 1.965 V -0.453 H 1.25 V -3.217 H 0.715 v 2.764 H 0 Z"
             style="fill:#231f20;fill-opacity:1;fill-rule:nonzero;stroke:none"
             id="path1638"
             inkscape:connector-curvature="0" />
        </g>
        <g
           id="g1640"
           transform="translate(384.4352,195.662)">
          <path
             d="m 0,0 h 0.386 c 0.258,0 0.428,-0.055 0.512,-0.162 0.084,-0.106 0.127,-0.227 0.127,-0.362 0,-0.345 -0.199,-0.519 -0.594,-0.519 L 0,-1.043 Z M -0.522,-1.471 H 0.47 c 0.43,0 0.721,0.088 0.873,0.264 0.153,0.179 0.229,0.386 0.229,0.625 0,0.416 -0.195,0.685 -0.582,0.806 0.32,0.114 0.48,0.35 0.48,0.705 0,0.196 -0.045,0.36 -0.131,0.496 C 1.252,1.56 1.14,1.65 1.013,1.687 0.886,1.726 0.699,1.746 0.453,1.746 H -0.522 Z M 0,1.33 H 0.39 C 0.572,1.33 0.707,1.297 0.793,1.228 0.88,1.158 0.923,1.043 0.923,0.881 0.923,0.744 0.884,0.631 0.81,0.543 0.732,0.459 0.576,0.414 0.339,0.414 H 0 Z"
             style="fill:#231f20;fill-opacity:1;fill-rule:nonzero;stroke:none"
             id="path1642"
             inkscape:connector-curvature="0" />
        </g>
        <g
           id="g1644"
           transform="translate(386.1202,197.4079)">
          <path
             d="M 0,0 H 0.572 L 1.17,-1.358 1.777,0 H 2.279 L 1.387,-1.856 V -3.217 H 0.852 v 1.361 z"
             style="fill:#231f20;fill-opacity:1;fill-rule:nonzero;stroke:none"
             id="path1646"
             inkscape:connector-curvature="0" />
        </g>
        <g
           id="g1648"
           transform="translate(391.1832,197.2789)">
          <path
             d="m 0,0 c -0.168,0.125 -0.36,0.185 -0.584,0.185 -0.338,0 -0.608,-0.15 -0.805,-0.447 -0.199,-0.299 -0.299,-0.728 -0.299,-1.293 0,-0.545 0.1,-0.945 0.297,-1.203 0.195,-0.258 0.453,-0.387 0.768,-0.387 0.296,0 0.537,0.098 0.718,0.297 0.182,0.199 0.272,0.461 0.272,0.785 0,0.321 -0.086,0.575 -0.256,0.764 -0.17,0.19 -0.379,0.285 -0.623,0.285 -0.318,0 -0.545,-0.16 -0.686,-0.474 0.01,0.425 0.061,0.74 0.159,0.947 0.097,0.207 0.248,0.312 0.445,0.312 0.254,0 0.414,-0.168 0.492,-0.504 l 0.445,0.141 C 0.279,-0.322 0.164,-0.123 0,0 m -0.625,-2.731 c -0.159,0 -0.284,0.061 -0.375,0.184 -0.094,0.123 -0.141,0.279 -0.141,0.469 0,0.183 0.045,0.338 0.135,0.463 0.09,0.127 0.219,0.185 0.39,0.185 0.143,0 0.256,-0.054 0.34,-0.162 0.086,-0.105 0.129,-0.267 0.129,-0.482 0,-0.438 -0.16,-0.657 -0.478,-0.657"
             style="fill:#231f20;fill-opacity:1;fill-rule:nonzero;stroke:none"
             id="path1650"
             inkscape:connector-curvature="0" />
        </g>
        <path
           d="m 393.009,197.408 h 0.533 v -3.217 h -0.533 z"
           style="fill:#231f20;fill-opacity:1;fill-rule:nonzero;stroke:none"
           id="path1652"
           inkscape:connector-curvature="0" />
        <g
           id="g1654"
           transform="translate(394.1922,197.4079)">
          <path
             d="M 0,0 H 0.629 L 1.686,-2.319 V 0 H 2.131 V -3.217 H 1.633 L 0.448,-0.641 V -3.217 H 0 Z"
             style="fill:#231f20;fill-opacity:1;fill-rule:nonzero;stroke:none"
             id="path1656"
             inkscape:connector-curvature="0" />
        </g>
        <g
           id="g1658"
           transform="translate(398.5812,195.277)">
          <path
             d="m 0,0 0.49,-0.066 c -0.099,-0.719 -0.451,-1.077 -1.05,-1.077 -0.393,0 -0.682,0.151 -0.874,0.45 -0.191,0.3 -0.289,0.701 -0.289,1.205 0,0.539 0.104,0.955 0.307,1.244 0.199,0.287 0.492,0.431 0.875,0.431 0.59,0 0.936,-0.365 1.039,-1.095 L -0.004,1.019 c -0.055,0.491 -0.236,0.735 -0.541,0.735 -0.412,0 -0.617,-0.424 -0.617,-1.276 0,-0.791 0.207,-1.187 0.619,-1.187 0.166,0 0.287,0.062 0.371,0.184 C -0.092,-0.404 -0.033,-0.229 0,0"
             style="fill:#231f20;fill-opacity:1;fill-rule:nonzero;stroke:none"
             id="path1660"
             inkscape:connector-curvature="0" />
        </g>
        <g
           id="g1662"
           transform="translate(399.5622,197.4079)">
          <path
             d="M 0,0 H 0.535 V -1.332 H 1.482 V 0 H 2.017 V -3.217 H 1.482 v 1.434 H 0.535 V -3.217 H 0 Z"
             style="fill:#231f20;fill-opacity:1;fill-rule:nonzero;stroke:none"
             id="path1664"
             inkscape:connector-curvature="0" />
        </g>
        <g
           id="g1666"
           transform="translate(402.2412,197.4079)">
          <path
             d="M 0,0 H 1.848 V -0.428 H 0.533 v -0.916 h 1.03 V -1.778 H 0.533 V -2.783 H 1.867 V -3.217 H 0 Z"
             style="fill:#231f20;fill-opacity:1;fill-rule:nonzero;stroke:none"
             id="path1668"
             inkscape:connector-curvature="0" />
        </g>
        <g
           id="g1670"
           transform="translate(406.4252,196.6869)">
          <path
             d="m 0,0 -0.453,-0.158 c -0.053,0.17 -0.123,0.299 -0.209,0.379 -0.088,0.082 -0.207,0.123 -0.358,0.123 -0.138,0 -0.248,-0.041 -0.324,-0.125 -0.076,-0.082 -0.115,-0.176 -0.115,-0.283 0,-0.119 0.045,-0.213 0.129,-0.282 0.084,-0.07 0.258,-0.156 0.511,-0.254 0.219,-0.082 0.387,-0.162 0.506,-0.238 0.116,-0.074 0.213,-0.174 0.284,-0.301 0.074,-0.128 0.111,-0.273 0.111,-0.439 0,-0.27 -0.096,-0.5 -0.287,-0.691 -0.192,-0.188 -0.457,-0.284 -0.803,-0.284 -0.594,0 -0.963,0.301 -1.104,0.905 l 0.479,0.132 c 0.082,-0.402 0.299,-0.603 0.65,-0.603 0.172,0 0.301,0.045 0.391,0.135 0.088,0.088 0.133,0.199 0.133,0.33 0,0.097 -0.031,0.185 -0.092,0.269 -0.061,0.08 -0.215,0.168 -0.459,0.262 -0.258,0.098 -0.443,0.18 -0.557,0.248 -0.117,0.067 -0.211,0.164 -0.293,0.297 -0.08,0.131 -0.121,0.281 -0.121,0.449 0,0.256 0.09,0.471 0.27,0.645 0.178,0.176 0.414,0.261 0.709,0.261 C -0.477,0.777 -0.145,0.518 0,0"
             style="fill:#231f20;fill-opacity:1;fill-rule:nonzero;stroke:none"
             id="path1672"
             inkscape:connector-curvature="0" />
        </g>
        <g
           id="g1674"
           transform="translate(407.0752,193.3859)">
          <path
             d="m 0,0 h -0.388 c 0.367,0.608 0.552,1.28 0.552,2.014 0,0.73 -0.185,1.4 -0.552,2.008 H 0 C 0.436,3.412 0.654,2.743 0.654,2.014 0.654,1.282 0.436,0.61 0,0"
             style="fill:#231f20;fill-opacity:1;fill-rule:nonzero;stroke:none"
             id="path1676"
             inkscape:connector-curvature="0" />
        </g>
      </g>
    </g>
  </g>
</svg>
