<?xml version="1.0" encoding="UTF-8" standalone="no"?>
<svg
   xmlns:dc="http://purl.org/dc/elements/1.1/"
   xmlns:cc="http://creativecommons.org/ns#"
   xmlns:rdf="http://www.w3.org/1999/02/22-rdf-syntax-ns#"
   xmlns:svg="http://www.w3.org/2000/svg"
   xmlns="http://www.w3.org/2000/svg"
   xmlns:sodipodi="http://sodipodi.sourceforge.net/DTD/sodipodi-0.dtd"
   xmlns:inkscape="http://www.inkscape.org/namespaces/inkscape"
   sodipodi:docname="R7-108R.svg"
   inkscape:version="1.0rc1 (09960d6f05, 2020-04-09)"
   id="svg469"
   version="1.1"
   viewBox="0 0 24.306671 36.371037"
   height="36.371037mm"
   width="24.306671mm">
  <defs
     id="defs463">
    <clipPath
       clipPathUnits="userSpaceOnUse"
       id="clipPath1248">
      <path
         d="M 27,33.9 H 539.875 V 635.4 H 27 Z"
         id="path1246"
         inkscape:connector-curvature="0" />
    </clipPath>
    <clipPath
       clipPathUnits="userSpaceOnUse"
       id="clipPath1260">
      <path
         d="M 49.396,43.029 H 517.479 V 635.4 H 49.396 Z"
         id="path1258"
         inkscape:connector-curvature="0" />
    </clipPath>
    <clipPath
       clipPathUnits="userSpaceOnUse"
       id="clipPath1272">
      <path
         d="M 27,33.9 H 539.875 V 635.4 H 27 Z"
         id="path1270"
         inkscape:connector-curvature="0" />
    </clipPath>
  </defs>
  <sodipodi:namedview
     inkscape:window-maximized="1"
     inkscape:window-y="0"
     inkscape:window-x="0"
     inkscape:window-height="836"
     inkscape:window-width="1600"
     showgrid="false"
     inkscape:document-rotation="0"
     inkscape:current-layer="g1268"
     inkscape:document-units="mm"
     inkscape:cy="68.732667"
     inkscape:cx="45.933867"
     inkscape:zoom="2.8"
     inkscape:pageshadow="2"
     inkscape:pageopacity="0.0"
     borderopacity="1.0"
     bordercolor="#666666"
     pagecolor="#ffffff"
     id="base" />
  <metadata
     id="metadata466">
    <rdf:RDF>
      <cc:Work
         rdf:about="">
        <dc:format>image/svg+xml</dc:format>
        <dc:type
           rdf:resource="http://purl.org/dc/dcmitype/StillImage" />
        <dc:title></dc:title>
      </cc:Work>
    </rdf:RDF>
  </metadata>
  <g
     transform="translate(-323.48952,-250.17758)"
     id="layer1"
     inkscape:groupmode="layer"
     inkscape:label="Layer 1">
    <g
       transform="matrix(0.35277777,0,0,-0.35277777,165.2411,306.87881)"
       id="g1242">
      <g
         id="g1244"
         clip-path="url(#clipPath1248)">
        <g
           id="g1250"
           transform="translate(448.8282,66.4349)">
          <path
             d="m 0,0 c 0,-2.254 0.883,-4.476 2.485,-6.072 1.595,-1.602 3.818,-2.484 6.07,-2.484 h 51.283 c 2.264,0 4.436,0.882 6.037,2.484 1.596,1.596 2.526,3.808 2.526,6.072 v 85.5 c 0,2.238 -0.948,4.445 -2.526,6.029 -1.59,1.59 -3.785,2.514 -6.037,2.514 H 8.555 c -2.264,0 -4.469,-0.906 -6.07,-2.514 C 0.889,89.934 0,87.75 0,85.5 Z"
             style="fill:#ffffff;fill-opacity:1;fill-rule:nonzero;stroke:none"
             id="path1252"
             inkscape:connector-curvature="0" />
        </g>
      </g>
    </g>
    <g
       transform="matrix(0.35277777,0,0,-0.35277777,165.2411,306.87881)"
       id="g1254">
      <g
         id="g1256"
         clip-path="url(#clipPath1260)">
        <g
           id="g1262"
           transform="translate(448.8282,66.4349)">
          <path
             d="m 0,0 c 0,-2.254 0.883,-4.476 2.485,-6.072 1.595,-1.602 3.818,-2.484 6.07,-2.484 h 51.283 c 2.264,0 4.436,0.882 6.037,2.484 1.596,1.596 2.526,3.808 2.526,6.072 v 85.5 c 0,2.238 -0.948,4.445 -2.526,6.029 -1.59,1.59 -3.785,2.514 -6.037,2.514 H 8.555 c -2.264,0 -4.469,-0.906 -6.07,-2.514 C 0.889,89.934 0,87.75 0,85.5 Z"
             style="fill:none;stroke:#231f20;stroke-width:0.5;stroke-linecap:butt;stroke-linejoin:miter;stroke-miterlimit:4;stroke-dasharray:none;stroke-opacity:1"
             id="path1264"
             inkscape:connector-curvature="0" />
        </g>
      </g>
    </g>
    <g
       transform="matrix(0.35277777,0,0,-0.35277777,165.2411,306.87881)"
       id="g1266">
      <g
         id="g1268"
         clip-path="url(#clipPath1272)">
        <g
           id="g1274"
           transform="translate(450.9572,66.4349)">
          <path
             d="m 0,0 v 85.5 c 0,1.68 0.695,3.311 1.893,4.492 1.209,1.196 2.832,1.834 4.531,1.834 h 51.287 c 1.684,0 3.312,-0.644 4.504,-1.834 1.197,-1.191 1.842,-2.818 1.842,-4.492 V 0 c 0,-1.695 -0.639,-3.34 -1.842,-4.545 -1.18,-1.191 -2.826,-1.879 -4.504,-1.879 H 6.424 c -2.121,0 -4.151,1.086 -5.33,2.85 C 0.324,-2.43 0.086,-1.34 0,0"
             style="fill:#00674c;fill-opacity:1;fill-rule:evenodd;stroke:none"
             id="path1276"
             inkscape:connector-curvature="0" />
        </g>
        <g
           id="g1278"
           transform="translate(453.1052,122.0089)">
          <path
             d="m 0,0 v -55.574 c 0,-1.148 0.416,-2.228 1.233,-3.045 0.814,-0.814 1.896,-1.23 3.043,-1.23 h 51.287 c 1.119,0 2.18,0.41 2.977,1.185 0.832,0.809 1.306,1.932 1.306,3.09 V 0 Z"
             style="fill:#ffffff;fill-opacity:1;fill-rule:evenodd;stroke:none"
             id="path1280"
             inkscape:connector-curvature="0" />
        </g>
        <g
           id="g1282"
           transform="translate(512.9512,151.935)">
          <path
             d="m 0,0 v 0 c 0,1.127 -0.474,2.205 -1.273,3.004 -0.797,0.797 -1.873,1.26 -3.01,1.26 H -42.039 V -28.404 H 0 Z"
             style="fill:#ffffff;fill-opacity:1;fill-rule:evenodd;stroke:none"
             id="path1284"
             inkscape:connector-curvature="0" />
        </g>
        <g
           id="g1286"
           transform="translate(490.3612,141.8839)">
          <path
             d="M 0,0 V 5.157 H -3.117 V 0 h -1.639 v 11.393 h 1.639 V 6.756 H 0 v 4.637 H 1.639 V 0 Z"
             style="fill:#00674c;fill-opacity:1;fill-rule:nonzero;stroke:none"
             id="path1288"
             inkscape:connector-curvature="0" />
        </g>
        <g
           id="g1290"
           transform="translate(497.7932,151.677)">
          <path
             d="M 0,0 H -1.678 V -2.877 H 0 c 0.961,0 1.48,0.52 1.48,1.44 C 1.48,-0.556 0.881,0 0,0 m 1.398,-9.793 -1.517,5.358 H -1.678 V -9.793 H -3.316 V 1.6 H 0.08 c 1.799,0 2.998,-1.197 2.998,-3.037 0,-1.36 -0.56,-2.36 -1.639,-2.758 l 1.639,-5.598 z"
             style="fill:#00674c;fill-opacity:1;fill-rule:nonzero;stroke:none"
             id="path1292"
             inkscape:connector-curvature="0" />
        </g>
        <g
           id="g1294"
           transform="translate(474.9162,136.1809)">
          <path
             d="M 0,0 H -0.799 V -3.476 H 0 c 0.879,0 1.199,0.439 1.199,1.638 C 1.199,-0.558 0.799,0 0,0 M 0,-4.955 H -0.799 V -9.914 H -2.238 V 1.479 H 0 C 0.639,1.479 1.238,1.321 1.598,1 2.238,0.481 2.678,-0.599 2.678,-1.838 2.678,-3.719 1.598,-4.955 0,-4.955"
             style="fill:#00674c;fill-opacity:1;fill-rule:nonzero;stroke:none"
             id="path1296"
             inkscape:connector-curvature="0" />
        </g>
        <g
           id="g1298"
           transform="translate(480.6932,133.7829)">
          <path
             d="M 0,0 -0.638,-2.998 H 0.6 Z M 1.559,-7.516 0.92,-4.479 H -0.959 L -1.597,-7.516 H -3.076 L -0.757,3.877 H 0.721 L 3.078,-7.516 Z"
             style="fill:#00674c;fill-opacity:1;fill-rule:nonzero;stroke:none"
             id="path1300"
             inkscape:connector-curvature="0" />
        </g>
        <g
           id="g1302"
           transform="translate(486.8482,136.1809)">
          <path
             d="M 0,0 H -0.719 V -3.117 H 0.24 c 0.799,0 1.039,0.359 1.039,1.438 C 1.279,-0.398 1,0 0,0 M 1.558,-4.238 2.716,-9.914 H 1.238 l -1.277,5.317 h -0.68 v -5.317 h -1.44 V 1.479 H 0.08 c 1.758,0 2.677,-1.078 2.677,-3.198 0,-1.279 -0.359,-2 -1.199,-2.519"
             style="fill:#00674c;fill-opacity:1;fill-rule:nonzero;stroke:none"
             id="path1304"
             inkscape:connector-curvature="0" />
        </g>
        <g
           id="g1306"
           transform="translate(494.2792,126.2669)">
          <path
             d="M 0,0 -1.517,5.399 -2.078,4.278 V 0 h -1.437 v 11.393 h 1.437 V 7.756 l 1.799,3.637 H 1.399 L -0.478,7.477 1.559,0 Z"
             style="fill:#00674c;fill-opacity:1;fill-rule:nonzero;stroke:none"
             id="path1308"
             inkscape:connector-curvature="0" />
        </g>
        <path
           d="m 497.037,137.66 h 1.438 v -11.393 h -1.438 z"
           style="fill:#00674c;fill-opacity:1;fill-rule:nonzero;stroke:none"
           id="path1310"
           inkscape:connector-curvature="0" />
        <g
           id="g1312"
           transform="translate(504.0292,126.2669)">
          <path
             d="M 0,0 -2.236,6.756 V 0 h -1.439 v 11.393 h 1.439 l 2.037,-5.676 v 5.676 h 1.44 L 1.241,0 Z"
             style="fill:#00674c;fill-opacity:1;fill-rule:nonzero;stroke:none"
             id="path1314"
             inkscape:connector-curvature="0" />
        </g>
        <g
           id="g1316"
           transform="translate(511.5022,127.386)">
          <path
             d="m 0,0 c -0.238,-0.799 -0.998,-1.318 -2.037,-1.318 -1.16,0 -1.838,0.439 -2.199,1.519 -0.36,1.04 -0.479,2.079 -0.479,4.397 0,2.279 0.119,3.279 0.52,4.357 0.359,1.041 1.039,1.481 2.158,1.481 1.279,0 2.037,-0.801 2.197,-2.199 h -1.437 c -0.08,0.478 -0.321,0.718 -0.721,0.718 -0.52,0 -0.879,-0.361 -0.998,-1.119 -0.16,-0.918 -0.24,-1.679 -0.24,-3.238 0,-1.559 0.08,-2.318 0.199,-3.277 0.16,-0.76 0.439,-1.161 0.959,-1.161 0.519,0 0.801,0.481 0.801,1.239 v 1.519 h -0.68 V 4.399 H 0.16 V 1.479 C 0.16,0.959 0.08,0.36 0,0"
             style="fill:#00674c;fill-opacity:1;fill-rule:nonzero;stroke:none"
             id="path1318"
             inkscape:connector-curvature="0" />
        </g>
        <g
           id="g1320"
           transform="translate(501.1802,102.726)">
          <path
             d="M 0,0 V 11.393 H -1.438 L -2.797,7.354 -4.196,11.393 H -5.633 V 0 h 1.437 v 6.756 l 1.399,-4.277 1.359,4.277 V 0 Z m -9.67,4.516 h -1.239 l 0.639,2.998 z M -7.192,0 -9.549,11.393 H -11.03 L -13.346,0 h 1.479 l 0.638,3.037 H -9.35 L -8.711,0 Z m -10.55,5.717 c 0,-0.842 0.16,-4.398 -1.12,-4.398 -1.318,0 -1.197,3.597 -1.197,4.398 0,0.799 -0.121,4.355 1.197,4.396 1.319,-0.041 1.12,-3.597 1.12,-4.396 m 1.517,0 c 0,1.998 0.162,5.875 -2.637,5.875 -2.636,0 -2.675,-3.877 -2.675,-5.875 0,-1.92 -0.161,-5.885 2.675,-5.885 2.799,0 2.598,3.965 2.637,5.885 m -6.791,-2.522 c 0,1.002 -0.08,1.76 -0.32,2.321 -0.119,0.24 -0.28,0.439 -0.559,0.72 0.44,0.799 0.6,1.479 0.6,2.479 0,1.918 -0.801,2.877 -2.358,2.877 -1.279,0 -2.158,-0.84 -2.238,-2.238 h 1.479 c 0.039,0.48 0.318,0.759 0.759,0.759 0.598,0 0.877,-0.439 0.877,-1.398 0,-1.32 -0.279,-1.76 -1.078,-1.76 h -0.359 v -1.48 h 0.478 c 0.959,0 1.241,-0.479 1.241,-2.28 0,-1.357 -0.282,-1.917 -1.04,-1.917 -0.48,0 -0.839,0.359 -0.878,0.841 h -1.479 c 0,-0.361 0.119,-0.761 0.359,-1.121 0.479,-0.799 1.12,-1.207 1.957,-1.207 0.959,0 1.44,0.248 1.879,0.768 0.44,0.558 0.68,1.519 0.68,2.636 m -9.711,0.122 c 0,-1.278 -0.359,-2.039 -0.959,-2.039 -0.639,0 -0.998,0.761 -0.998,2.039 0,1.279 0.359,1.959 0.998,1.959 0.6,0 0.959,-0.68 0.959,-1.959 m -0.199,4.959 c 0,-1.041 -0.24,-1.52 -0.76,-1.52 -0.558,0 -0.799,0.479 -0.799,1.52 0,1.197 0.241,1.837 0.799,1.837 0.52,0 0.76,-0.64 0.76,-1.837 m 1.678,-4.959 c 0,1.199 -0.321,2.119 -0.879,2.839 0.48,0.52 0.679,1.239 0.679,2.198 0,1.959 -0.878,3.238 -2.277,3.238 -1.359,0 -2.238,-1.279 -2.238,-3.238 0,-1 0.199,-1.639 0.679,-2.198 -0.56,-0.72 -0.878,-1.679 -0.878,-2.839 0,-0.838 0.199,-1.68 0.478,-2.278 0.4,-0.84 1,-1.248 1.998,-1.248 0.76,0 1.319,0.287 1.719,0.807 0.439,0.599 0.719,1.638 0.719,2.719"
             style="fill:#00674c;fill-opacity:1;fill-rule:evenodd;stroke:none"
             id="path1322"
             inkscape:connector-curvature="0" />
        </g>
        <g
           id="g1324"
           transform="translate(467.1042,89.9179)">
          <path
             d="m 0,0 c 0,-0.762 0.16,-4.44 -1.12,-4.44 -1.318,0 -1.158,3.678 -1.158,4.44 0,0.796 -0.16,4.355 1.158,4.355 C -0.04,4.355 0,0.918 0,0 m 1.519,0 c 0,1.918 0.16,5.836 -2.639,5.836 -2.796,0 -2.636,-3.879 -2.636,-5.836 0,-1.881 -0.2,-5.926 2.636,-5.926 2.799,0 2.639,4.045 2.639,5.926 M -5.036,4.197 V 5.675 H -9.35 V 4.197 h 1.398 v -9.914 h 1.438 v 9.914 z"
             style="fill:#00674c;fill-opacity:1;fill-rule:evenodd;stroke:none"
             id="path1326"
             inkscape:connector-curvature="0" />
        </g>
        <g
           id="g1328"
           transform="translate(490.0312,89.9179)">
          <path
             d="m 0,0 c 0,-0.842 0.158,-4.399 -1.119,-4.399 -1.318,0 -1.199,3.598 -1.199,4.399 0,0.796 -0.119,4.355 1.199,4.396 C 0.199,4.355 0,0.796 0,0 m 1.518,0 c 0,1.998 0.16,5.875 -2.637,5.875 -2.637,0 -2.678,-3.877 -2.678,-5.875 0,-1.92 -0.16,-5.885 2.678,-5.885 2.797,0 2.598,3.965 2.637,5.885 m -6.793,-2.52 c 0,1 -0.08,1.758 -0.32,2.318 -0.12,0.241 -0.28,0.44 -0.559,0.721 0.439,0.797 0.6,1.479 0.6,2.477 0,1.92 -0.799,2.879 -2.358,2.879 -1.279,0 -2.158,-0.84 -2.238,-2.239 h 1.478 c 0.041,0.481 0.321,0.76 0.76,0.76 0.6,0 0.879,-0.441 0.879,-1.4 0,-1.319 -0.279,-1.76 -1.078,-1.76 h -0.361 v -1.479 h 0.48 c 0.959,0 1.238,-0.478 1.238,-2.277 0,-1.359 -0.279,-1.92 -1.039,-1.92 -0.478,0 -0.838,0.361 -0.879,0.84 h -1.478 c 0,-0.359 0.119,-0.76 0.359,-1.119 0.481,-0.801 1.119,-1.207 1.959,-1.207 0.959,0 1.438,0.248 1.877,0.767 0.44,0.561 0.68,1.52 0.68,2.639 m -7.832,1.318 c 0,0.801 -0.199,1.6 -0.52,2.12 -0.439,0.72 -0.998,1.039 -1.877,1.039 -0.24,0 -0.439,-0.039 -0.759,-0.08 l 0.039,2.32 h 2.797 v 1.478 h -4.196 L -17.822,0.158 -16.343,0 c 0.279,0.318 0.478,0.478 0.798,0.478 0.6,0 0.959,-0.56 0.959,-1.439 0,-0.76 -0.199,-1.76 -0.478,-2.399 -0.279,-0.76 -0.641,-1.08 -1.199,-1.08 -0.321,0 -0.559,0.08 -0.959,0.32 l -0.76,-1.279 c 0.56,-0.367 1.119,-0.527 1.719,-0.527 1.078,0 1.877,0.527 2.437,1.566 0.479,0.959 0.719,2.078 0.719,3.158"
             style="fill:#00674c;fill-opacity:1;fill-rule:evenodd;stroke:none"
             id="path1330"
             inkscape:connector-curvature="0" />
        </g>
        <g
           id="g1332"
           transform="translate(507.5512,84.201)">
          <path
             d="M 0,0 V 11.392 H -1.44 L -2.797,7.355 -4.196,11.392 H -5.635 V 0 h 1.439 v 6.756 l 1.399,-4.28 1.357,4.28 V 0 Z m -8.672,8.074 c 0,-1.199 -0.318,-1.641 -1.197,-1.641 h -0.799 v 3.481 h 0.799 c 0.798,0 1.197,-0.561 1.197,-1.84 m 1.478,0 c 0,1.24 -0.439,2.318 -1.078,2.838 -0.359,0.32 -0.959,0.48 -1.597,0.48 h -2.239 V 0 h 1.44 v 4.955 h 0.799 c 1.597,0 2.675,1.24 2.675,3.119"
             style="fill:#00674c;fill-opacity:1;fill-rule:evenodd;stroke:none"
             id="path1334"
             inkscape:connector-curvature="0" />
        </g>
        <g
           id="g1340"
           transform="translate(454.5332,128.3369)">
          <path
             d="m 0,0 c 0.16,3.118 0.401,4.239 1.121,6.237 0.959,2.4 2.159,4.238 3.676,5.676 0.561,0.48 1.041,0.88 2.879,2.16 1.52,1.039 1.92,1.599 1.92,2.719 0,1.759 -1.44,3.197 -3.199,3.197 -1.758,0 -3.198,-1.438 -3.198,-3.197 H 0 c 0.082,3.597 2.799,6.396 6.397,6.396 3.517,0 6.316,-2.879 6.316,-6.396 0,-1.838 -0.641,-3.28 -1.918,-4.477 -0.24,-0.16 -0.48,-0.322 -0.721,-0.561 L 9.276,11.196 8.475,10.635 7.596,9.995 C 6.156,8.956 4.639,6.877 3.998,4.959 3.758,4.399 3.68,3.999 3.518,3.2 h 9.195 V 0 Z"
             style="fill:#ffffff;fill-opacity:1;fill-rule:nonzero;stroke:none"
             id="path1342"
             inkscape:connector-curvature="0" />
        </g>
        <g
           transform="translate(496.1462,70.1559)"
           id="g2300">
          <path
             inkscape:connector-curvature="0"
             id="path2302"
             style="fill:#00674c;fill-opacity:1;fill-rule:evenodd;stroke:none"
             d="M 0,0 -0.712,-2.697 C -0.73,-2.708 -0.747,-2.725 -0.753,-2.748 -0.769,-2.783 -0.78,-2.816 -0.791,-2.85 c 0.017,-0.16 0.05,-0.302 0.147,-0.428 0.172,-0.234 0.411,-0.291 0.684,-0.285 0.091,0 0.2,0.028 0.274,0.08 l 8.158,5.62 -8.158,5.54 C 0.2,7.757 0.12,7.802 -0.017,7.831 -0.256,7.876 -0.524,7.689 -0.661,7.501 -0.741,7.381 -0.78,7.266 -0.791,7.125 -0.78,7.079 -0.78,7.027 -0.758,6.983 -0.747,6.948 -0.73,6.919 -0.712,6.885 L 0,4.275 H -35.763 V 0 Z" />
        </g>
      </g>
    </g>
    <g
       id="g2284"
       transform="matrix(0.35277777,0,0,-0.35277777,332.00981,267.82705)">
      <path
         d="m 0,0 c 0,0.48 -0.359,0.84 -0.839,0.84 -0.44,0 -0.84,-0.36 -0.84,-0.84 0,-0.479 0.4,-0.84 0.84,-0.84 C -0.359,-0.84 0,-0.479 0,0"
         style="fill:#00674c;fill-opacity:1;fill-rule:evenodd;stroke:none"
         id="path2286"
         inkscape:connector-curvature="0" />
    </g>
    <g
       id="g2288"
       transform="matrix(0.35277777,0,0,-0.35277777,332.00981,269.43395)">
      <path
         d="m 0,0 c 0,0.481 -0.359,0.84 -0.839,0.84 -0.44,0 -0.84,-0.359 -0.84,-0.84 0,-0.439 0.4,-0.846 0.84,-0.846 C -0.359,-0.846 0,-0.439 0,0"
         style="fill:#00674c;fill-opacity:1;fill-rule:evenodd;stroke:none"
         id="path2290"
         inkscape:connector-curvature="0" />
    </g>
    <g
       id="g2292"
       transform="matrix(0.35277777,0,0,-0.35277777,334.47679,274.36928)">
      <path
         d="m 0,0 c 0,0.48 -0.36,0.84 -0.84,0.84 -0.44,0 -0.84,-0.36 -0.84,-0.84 0,-0.479 0.4,-0.84 0.84,-0.84 C -0.36,-0.84 0,-0.479 0,0"
         style="fill:#00674c;fill-opacity:1;fill-rule:evenodd;stroke:none"
         id="path2294"
         inkscape:connector-curvature="0" />
    </g>
    <g
       id="g2296"
       transform="matrix(0.35277777,0,0,-0.35277777,334.47679,275.97621)">
      <path
         d="m 0,0 c 0,0.481 -0.36,0.84 -0.84,0.84 -0.44,0 -0.84,-0.359 -0.84,-0.84 0,-0.439 0.4,-0.845 0.84,-0.845 C -0.36,-0.845 0,-0.439 0,0"
         style="fill:#00674c;fill-opacity:1;fill-rule:evenodd;stroke:none"
         id="path2298"
         inkscape:connector-curvature="0" />
    </g>
  </g>
</svg>
