<?xml version="1.0" encoding="UTF-8" standalone="no"?>
<!-- Created with Inkscape (http://www.inkscape.org/) -->

<svg
   width="12in"
   height="6in"
   viewBox="0 0 304.8 152.4"
   version="1.1"
   id="svg925"
   inkscape:version="1.1.1 (c3084ef, 2021-09-22)"
   sodipodi:docname="MUTCD R7-113bP.svg"
   xmlns:inkscape="http://www.inkscape.org/namespaces/inkscape"
   xmlns:sodipodi="http://sodipodi.sourceforge.net/DTD/sodipodi-0.dtd"
   xmlns="http://www.w3.org/2000/svg"
   xmlns:svg="http://www.w3.org/2000/svg">
  <sodipodi:namedview
     id="namedview927"
     pagecolor="#ffffff"
     bordercolor="#666666"
     borderopacity="1.0"
     inkscape:pageshadow="2"
     inkscape:pageopacity="0.0"
     inkscape:pagecheckerboard="0"
     inkscape:document-units="in"
     showgrid="false"
     units="in"
     inkscape:zoom="0.36401473"
     inkscape:cx="523.33047"
     inkscape:cy="863.97603"
     inkscape:window-width="1440"
     inkscape:window-height="855"
     inkscape:window-x="0"
     inkscape:window-y="23"
     inkscape:window-maximized="1"
     inkscape:current-layer="layer2"
     inkscape:snap-bbox="true"
     inkscape:snap-bbox-edge-midpoints="true"
     inkscape:snap-bbox-midpoints="true"
     inkscape:snap-midpoints="true"
     inkscape:bbox-paths="true"
     inkscape:bbox-nodes="true" />
  <defs
     id="defs922" />
  <g
     inkscape:label="Sign Back"
     inkscape:groupmode="layer"
     id="layer1"
     sodipodi:insensitive="true">
    <rect
       style="fill:#ffffff;stroke:#000000;stroke-width:1.5748;stroke-linecap:square;stroke-miterlimit:10;stroke-dasharray:none"
       id="rect1008"
       width="303.1998"
       height="150.8252"
       x="0.7937547"
       y="0.79374337"
       rx="37.312599"
       ry="37.306252" />
    <rect
       style="fill:none;stroke:#000000;stroke-width:9.525;stroke-linecap:square;stroke-miterlimit:10;stroke-dasharray:none;stroke-opacity:1"
       id="rect1178"
       width="276.22501"
       height="123.825"
       x="14.287498"
       y="14.287502"
       rx="23.825199"
       ry="23.8125" />
  </g>
  <g
     inkscape:groupmode="layer"
     id="layer2"
     inkscape:label="Legends">
    <g
       aria-label="VACATE   STALL"
       id="text54339"
       style="font-size:37.9104px;line-height:1.25;font-family:'Roadgeek 2005 Series C';-inkscape-font-specification:'Roadgeek 2005 Series C';text-align:center;text-anchor:middle;stroke-width:0.947763">
      <path
         d="M 58.884522,53.974968 H 56.117063 L 49.710205,28.575 h 3.677309 L 57.557658,45.066024 61.765712,28.575 h 3.639399 z"
         id="path71684" />
      <path
         d="m 79.548651,53.974968 -1.781788,-6.937603 h -5.459098 l -1.668058,6.937603 H 66.962398 L 73.293435,28.575 h 3.563578 L 83.18805,53.974968 Z M 74.999403,36.15708 73.217615,43.473787 h 3.639398 z"
         id="path71686" />
      <path
         d="m 96.788406,35.360961 q -0.568656,-3.677308 -3.032832,-3.677308 -1.099402,0 -1.89552,0.492835 -0.758208,0.454925 -1.251043,1.516416 -0.454925,1.023581 -0.682388,2.729549 -0.189552,1.705968 -0.189552,4.170144 0,5.497008 0.985671,7.885363 1.023581,2.388355 3.374026,2.388355 0.796118,0 1.288953,-0.303283 0.530746,-0.303283 0.834029,-0.796118 0.341194,-0.530746 0.454925,-1.175223 0.113731,-0.682387 0.113731,-1.402685 h 3.639394 q -0.0379,1.592237 -0.530741,2.919101 -0.492835,1.326864 -1.326864,2.312535 -0.834029,0.94776 -2.009251,1.478505 -1.137312,0.530746 -2.464176,0.530746 -4.094324,0 -5.989844,-3.336115 -1.857609,-3.336116 -1.857609,-10.38745 0,-6.217306 1.89552,-9.401779 1.89552,-3.184474 5.68656,-3.184474 1.554326,0 2.84328,0.682387 1.288953,0.644477 2.160893,1.89552 0.720297,0.94776 1.061491,1.933431 0.341191,0.98567 0.530741,2.729548 z"
         id="path71688" />
      <path
         d="m 116.12627,53.974968 -1.78179,-6.937603 h -5.4591 l -1.66806,6.937603 h -3.67731 L 109.87105,28.575 h 3.56358 l 6.33103,25.399968 z m -4.54925,-17.817888 -1.78179,7.316707 h 3.6394 z"
         id="path71690" />
      <path
         d="m 129.61289,31.949025 v 22.025943 h -3.6773 V 31.949025 h -4.62507 V 28.575 h 12.92744 v 3.374025 z"
         id="path71692" />
      <path
         d="M 137.72039,53.974968 V 28.575 h 11.94177 v 3.563577 h -8.30237 v 6.406858 h 5.26954 v 3.487757 h -5.26954 v 8.378198 h 9.28804 v 3.563578 z"
         id="path71694" />
      <path
         d="m 189.15058,47.037365 q 0,1.554326 -0.56866,2.919101 -0.53074,1.326864 -1.51641,2.312534 -0.94776,0.98567 -2.23672,1.592237 -1.25104,0.568656 -2.72954,0.568656 -1.66806,0 -2.99493,-0.644477 -1.32686,-0.644477 -2.23671,-1.743878 -0.90985,-1.099402 -1.40268,-2.539997 -0.49284,-1.440596 -0.49284,-2.994922 h 3.56358 q 0,0.796118 0.18955,1.592237 0.22746,0.758208 0.64448,1.402685 0.45492,0.606566 1.0994,0.98567 0.68239,0.379104 1.63015,0.379104 0.72029,0 1.36477,-0.303283 0.68239,-0.303283 1.13731,-0.834029 0.49284,-0.530745 0.75821,-1.213133 0.30328,-0.720297 0.30328,-1.478505 0,-1.099402 -0.45492,-1.933431 -0.45493,-0.871939 -1.59224,-1.743878 -0.18955,-0.189552 -0.15164,-0.189552 0.0379,-0.03791 -0.22746,-0.227463 -0.26538,-0.189552 -1.13731,-0.720297 -0.83403,-0.568656 -2.76746,-1.89552 -1.55433,-1.061491 -2.35045,-2.464176 -0.75821,-1.440595 -0.75821,-3.146563 0,-1.364775 0.49284,-2.539997 0.49283,-1.213133 1.36477,-2.122983 0.90985,-0.909849 2.08508,-1.402685 1.17522,-0.530745 2.53999,-0.530745 1.36478,0 2.50209,0.492835 1.17522,0.492835 2.00925,1.364775 0.87194,0.871939 1.36477,2.085072 0.53075,1.213132 0.56866,2.653728 h -3.48776 q -0.0758,-1.326864 -0.90985,-2.122983 -0.83403,-0.796118 -2.04716,-0.796118 -1.25104,0 -2.12298,0.834029 -0.87194,0.834028 -0.87194,2.085072 0,0.94776 0.49284,1.592236 0.49283,0.644477 1.89552,1.440596 3.6773,2.122982 5.34536,4.321785 1.70597,2.198803 1.70597,4.966263 z"
         id="path71696" />
      <path
         d="m 199.73232,31.949025 v 22.025943 h -3.6773 V 31.949025 h -4.62507 V 28.575 h 12.92744 v 3.374025 z"
         id="path71698" />
      <path
         d="m 218.45472,53.974968 -1.78179,-6.937603 h -5.45909 l -1.66806,6.937603 h -3.67731 L 212.19951,28.575 h 3.56357 l 6.33104,25.399968 z m -4.54925,-17.817888 -1.78178,7.316707 h 3.63939 z"
         id="path71700" />
      <path
         d="M 225.61032,53.974968 V 28.575 h 3.6394 v 22.025942 h 9.28804 v 3.374026 z"
         id="path71702" />
      <path
         d="M 242.12207,53.974968 V 28.575 h 3.6394 v 22.025942 h 9.28804 v 3.374026 z"
         id="path71704" />
    </g>
    <g
       aria-label="WHEN  CHARGING"
       id="text54445"
       style="font-size:37.9104px;line-height:1.25;font-family:'Roadgeek 2005 Series C';-inkscape-font-specification:'Roadgeek 2005 Series C';text-align:center;text-anchor:middle;stroke-width:0.947763">
      <path
         d="m 51.768621,88.899971 h -3.108653 l -2.426265,-13.26864 -2.388355,13.26864 H 40.622964 L 36.604461,63.500003 h 3.563578 l 2.160893,13.534013 2.464176,-13.534013 h 2.88119 l 2.388355,13.534013 2.236714,-13.534013 h 3.563578 z"
         id="path71659" />
      <path
         d="M 69.997008,88.899971 V 77.41312 H 63.021494 V 88.899971 H 59.382095 V 63.500003 h 3.639399 v 10.349539 h 6.975514 V 63.500003 h 3.639398 v 25.399968 z"
         id="path71661" />
      <path
         d="M 79.151775,88.899971 V 63.500003 h 11.941777 v 3.563577 h -8.302378 v 6.406858 h 5.269546 v 3.487757 h -5.269546 v 8.378198 h 9.288048 v 3.563578 z"
         id="path71663" />
      <path
         d="m 107.81678,88.899971 -7.847452,-17.02177 v 17.02177 H 96.329929 V 63.500003 h 3.639399 l 6.975512,15.239981 V 63.500003 h 3.6394 v 25.399968 z"
         id="path71665" />
      <path
         d="m 140.40017,70.285964 q -0.56865,-3.677308 -3.03283,-3.677308 -1.0994,0 -1.89552,0.492835 -0.75821,0.454925 -1.25104,1.516416 -0.45493,1.023581 -0.68239,2.729549 -0.18955,1.705968 -0.18955,4.170144 0,5.497008 0.98567,7.885363 1.02358,2.388355 3.37402,2.388355 0.79612,0 1.28896,-0.303283 0.53074,-0.303283 0.83403,-0.796118 0.34119,-0.530746 0.45492,-1.175223 0.11373,-0.682387 0.11373,-1.402685 h 3.6394 q -0.0379,1.592237 -0.53074,2.919101 -0.49284,1.326864 -1.32687,2.312535 -0.83403,0.94776 -2.00925,1.478505 -1.13731,0.530746 -2.46418,0.530746 -4.09432,0 -5.98984,-3.336115 -1.85761,-3.336116 -1.85761,-10.38745 0,-6.217306 1.89552,-9.401779 1.89552,-3.184474 5.68656,-3.184474 1.55433,0 2.84328,0.682387 1.28895,0.644477 2.16089,1.89552 0.7203,0.94776 1.0615,1.933431 0.34119,0.98567 0.53074,2.729548 z"
         id="path71667" />
      <path
         d="M 159.73803,88.899971 V 77.41312 h -6.97551 v 11.486851 h -3.6394 V 63.500003 h 3.6394 v 10.349539 h 6.97551 V 63.500003 h 3.6394 v 25.399968 z"
         id="path71669" />
      <path
         d="m 179.50772,88.899971 -1.78179,-6.937603 h -5.4591 l -1.66806,6.937603 h -3.67731 l 6.33104,-25.399968 h 3.56358 l 6.33103,25.399968 z m -4.54925,-17.817888 -1.78179,7.316707 h 3.6394 z"
         id="path71671" />
      <path
         d="m 197.16449,88.899971 -3.37402,-11.941776 h -3.48776 v 11.941776 h -3.6394 V 63.500003 h 7.58208 q 1.47851,0 2.69164,0.492835 1.25104,0.492835 2.12298,1.364774 0.90985,0.87194 1.36478,2.160893 0.49283,1.251043 0.49283,2.767459 0,2.274624 -0.90985,3.866861 -0.90985,1.592237 -2.72955,2.274624 l 3.6394,12.472522 z m 0.18955,-18.614007 q 0,-1.478505 -0.90985,-2.350444 -0.90985,-0.87194 -2.38835,-0.87194 h -3.75313 v 6.406858 h 3.75313 q 1.59224,0 2.42626,-0.796118 0.87194,-0.834029 0.87194,-2.388356 z"
         id="path71673" />
      <path
         d="m 218.8978,81.848637 q 0,1.326864 -0.15164,2.236713 -0.15164,0.90985 -0.56866,1.705968 -0.7582,1.668058 -2.23671,2.615818 -1.4406,0.94776 -3.37403,0.94776 -2.27462,0 -3.94268,-1.099402 -1.63014,-1.099401 -2.5779,-3.260294 -0.60657,-1.440595 -0.98567,-3.828951 -0.3412,-2.426265 -0.3412,-4.928352 0,-2.691638 0.22746,-4.700889 0.26538,-2.047162 0.94776,-3.866861 0.3412,-0.985671 0.94776,-1.819699 0.64448,-0.87194 1.47851,-1.478506 0.83403,-0.644477 1.85761,-0.98567 1.02358,-0.341194 2.12298,-0.341194 1.36478,0 2.54,0.492835 1.17522,0.454925 2.04716,1.326864 0.87194,0.834029 1.40268,2.047162 0.53075,1.175222 0.60657,2.577907 h -3.6394 q -0.0758,-1.288954 -0.90985,-2.085072 -0.79612,-0.796118 -2.12298,-0.796118 -1.89552,0 -2.88119,1.89552 -0.53075,0.94776 -0.83403,2.9191 -0.30328,1.933431 -0.30328,4.208055 0,1.592237 0.11373,3.222384 0.15164,1.630147 0.41701,3.108653 0.41702,1.857609 1.32687,2.84328 0.94776,0.98567 2.42626,0.98567 2.76746,0 2.76746,-3.942681 v -1.668058 h -2.88119 v -3.563578 h 6.52059 v 5.231636 z"
         id="path71675" />
      <path
         d="M 223.98135,88.899971 V 63.500003 h 3.56358 v 25.399968 z"
         id="path71677" />
      <path
         d="m 244.64963,88.899971 -7.84745,-17.02177 v 17.02177 h -3.6394 V 63.500003 h 3.6394 l 6.97551,15.239981 V 63.500003 h 3.6394 v 25.399968 z"
         id="path71679" />
      <path
         d="m 266.65603,81.848637 q 0,1.326864 -0.15165,2.236713 -0.15164,0.90985 -0.56865,1.705968 -0.75821,1.668058 -2.23672,2.615818 -1.44059,0.94776 -3.37402,0.94776 -2.27463,0 -3.94268,-1.099402 -1.63015,-1.099401 -2.57791,-3.260294 -0.60657,-1.440595 -0.98567,-3.828951 -0.34119,-2.426265 -0.34119,-4.928352 0,-2.691638 0.22746,-4.700889 0.26537,-2.047162 0.94776,-3.866861 0.34119,-0.985671 0.94776,-1.819699 0.64448,-0.87194 1.4785,-1.478506 0.83403,-0.644477 1.85761,-0.98567 1.02358,-0.341194 2.12299,-0.341194 1.36477,0 2.53999,0.492835 1.17523,0.454925 2.04716,1.326864 0.87194,0.834029 1.40269,2.047162 0.53074,1.175222 0.60657,2.577907 h -3.6394 q -0.0758,-1.288954 -0.90985,-2.085072 -0.79612,-0.796118 -2.12298,-0.796118 -1.89552,0 -2.8812,1.89552 -0.53074,0.94776 -0.83402,2.9191 -0.30329,1.933431 -0.30329,4.208055 0,1.592237 0.11373,3.222384 0.15165,1.630147 0.41702,3.108653 0.41701,1.857609 1.32686,2.84328 0.94776,0.98567 2.42627,0.98567 2.76746,0 2.76746,-3.942681 v -1.668058 h -2.88119 v -3.563578 h 6.52059 v 5.231636 z"
         id="path71681" />
    </g>
    <g
       aria-label="COMPLETED"
       id="text54449"
       style="font-size:37.9104px;line-height:1.25;font-family:'Roadgeek 2005 Series C';-inkscape-font-specification:'Roadgeek 2005 Series C';text-align:center;text-anchor:middle;stroke-width:0.947763">
      <path
         d="m 83.756706,105.21096 q -0.568656,-3.67731 -3.032832,-3.67731 -1.099401,0 -1.89552,0.49284 -0.758208,0.45492 -1.251043,1.51641 -0.454925,1.02358 -0.682387,2.72955 -0.189552,1.70597 -0.189552,4.17015 0,5.497 0.98567,7.88536 1.023581,2.38835 3.374026,2.38835 0.796118,0 1.288953,-0.30328 0.530746,-0.30328 0.834029,-0.79612 0.341194,-0.53074 0.454925,-1.17522 0.113731,-0.68239 0.113731,-1.40269 h 3.639399 q -0.03791,1.59224 -0.530746,2.91911 -0.492835,1.32686 -1.326864,2.31253 -0.834029,0.94776 -2.009251,1.47851 -1.137312,0.53074 -2.464176,0.53074 -4.094323,0 -5.989843,-3.33611 -1.85761,-3.33612 -1.85761,-10.38745 0,-6.21731 1.89552,-9.40178 1.89552,-3.184477 5.68656,-3.184477 1.554326,0 2.84328,0.682388 1.288954,0.644476 2.160893,1.895519 0.720298,0.94776 1.061491,1.93343 0.341194,0.98567 0.530746,2.72955 z"
         id="path71640" />
      <path
         d="m 106.92352,111.08707 q 0,2.9191 -0.3412,4.96626 -0.30328,2.04717 -1.0994,3.86687 -0.94776,2.27462 -2.38835,3.33611 -1.40269,1.02358 -3.563582,1.02358 -2.274624,0 -3.715219,-1.02358 -1.402685,-1.06149 -2.350445,-3.33611 -0.796119,-1.85761 -1.137312,-3.86687 -0.303283,-2.04716 -0.303283,-4.96626 0,-2.88119 0.303283,-4.92835 0.341193,-2.08507 1.137312,-3.90477 0.98567,-2.274625 2.388355,-3.260296 1.440595,-1.023581 3.677309,-1.023581 2.198802,0 3.601492,1.023581 1.40268,0.985671 2.35044,3.336116 0.3791,0.94776 0.64448,1.89552 0.30328,0.94776 0.45492,2.00925 0.18955,1.02358 0.26538,2.23671 0.0758,1.17523 0.0758,2.61582 z m -3.48776,0 q 0,-1.06149 -0.0758,-1.93343 -0.0379,-0.87194 -0.15164,-1.59224 -0.0758,-0.7582 -0.22747,-1.44059 -0.15164,-0.68239 -0.34119,-1.36477 -0.49283,-1.70597 -1.25104,-2.46418 -0.7203,-0.75821 -1.857612,-0.75821 -2.350445,0 -3.222384,3.14656 -0.454925,1.4406 -0.644477,2.91911 -0.151642,1.44059 -0.151642,3.56357 0,1.02358 0.03791,1.89552 0.07582,0.83403 0.151641,1.59224 0.113732,0.7203 0.265373,1.44059 0.151642,0.7203 0.341194,1.47851 0.871939,3.14656 3.222384,3.14656 1.137312,0 1.857612,-0.7582 0.75821,-0.75821 1.25104,-2.38836 0.22746,-0.75821 0.3791,-1.44059 0.15165,-0.7203 0.22747,-1.47851 0.11373,-0.75821 0.15164,-1.59224 0.0379,-0.87194 0.0379,-1.97134 z"
         id="path71642" />
      <path
         d="m 125.10629,123.82497 v -14.25431 l -4.70089,14.25431 -4.7388,-14.25431 v 14.25431 h -3.6394 V 98.424998 h 3.6394 l 4.7388,14.254312 4.70089,-14.254312 h 3.67731 v 25.399972 z"
         id="path71644" />
      <path
         d="m 148.56868,105.55215 q 0,3.48776 -1.74388,5.30746 -1.70597,1.8197 -4.92835,1.8197 h -3.94268 v 11.14566 h -3.6394 V 98.424998 h 7.58208 q 1.47851,0 2.69164,0.530746 1.25104,0.492835 2.12298,1.440596 0.90985,0.90985 1.36478,2.23671 0.49283,1.32687 0.49283,2.9191 z m -3.56358,0 q 0,-1.59223 -0.90985,-2.5779 -0.90985,-0.98567 -2.38835,-0.98567 h -3.75313 v 7.20297 h 3.75313 q 1.59224,0 2.42626,-0.94776 0.87194,-0.94776 0.87194,-2.69164 z"
         id="path71646" />
      <path
         d="M 152.08487,123.82497 V 98.424998 h 3.6394 v 22.025942 h 9.28805 v 3.37403 z"
         id="path71648" />
      <path
         d="M 168.59663,123.82497 V 98.424998 h 11.94177 v 3.563582 h -8.30237 v 6.40685 h 5.26954 v 3.48776 h -5.26954 v 8.3782 h 9.28804 v 3.56358 z"
         id="path71650" />
      <path
         d="m 192.10582,101.79902 v 22.02595 h -3.67731 v -22.02595 h -4.62507 v -3.374022 h 12.92745 v 3.374022 z"
         id="path71652" />
      <path
         d="M 200.21331,123.82497 V 98.424998 h 11.94178 v 3.563582 h -8.30238 v 6.40685 h 5.26955 v 3.48776 h -5.26955 v 8.3782 h 9.28805 v 3.56358 z"
         id="path71654" />
      <path
         d="m 231.64577,111.08707 q 0,8.71939 -3.6394,11.56267 -0.68239,0.64448 -1.59224,0.90985 -0.90985,0.26538 -1.97134,0.26538 h -7.05133 V 98.424998 h 6.48268 q 1.63014,0 2.53999,0.227463 0.90985,0.227462 1.59224,0.758208 1.13731,0.796121 1.89552,2.236711 0.79612,1.4406 1.13731,3.37403 0.26537,1.40268 0.41702,2.99492 0.18955,1.59224 0.18955,3.07074 z m -3.56358,0.18955 q 0,-2.16089 -0.18955,-4.0185 -0.18955,-1.89552 -0.53075,-2.69164 -0.87194,-2.5779 -3.2982,-2.5779 h -3.03283 v 18.27281 h 3.03283 q 0.79612,0 1.40268,-0.30328 0.64448,-0.30329 1.0994,-0.79612 0.45493,-0.49284 0.7203,-1.13731 0.30329,-0.68239 0.45493,-1.40269 0.11373,-1.21313 0.22746,-2.54 0.11373,-1.36477 0.11373,-2.80537 z"
         id="path71656" />
    </g>
  </g>
</svg>
