<?xml version="1.0" encoding="UTF-8" standalone="no"?>
<!-- Created with Inkscape (http://www.inkscape.org/) -->

<svg
   width="13.892388mm"
   height="10.844388mm"
   viewBox="0 0 13.892388 10.844388"
   version="1.1"
   id="svg1"
   inkscape:version="1.3 (0e150ed, 2023-07-21)"
   sodipodi:docname="MUTCD_R3-51cP.svg"
   xmlns:inkscape="http://www.inkscape.org/namespaces/inkscape"
   xmlns:sodipodi="http://sodipodi.sourceforge.net/DTD/sodipodi-0.dtd"
   xmlns="http://www.w3.org/2000/svg"
   xmlns:svg="http://www.w3.org/2000/svg">
  <sodipodi:namedview
     id="namedview1"
     pagecolor="#ffffff"
     bordercolor="#666666"
     borderopacity="1.0"
     inkscape:showpageshadow="2"
     inkscape:pageopacity="0.0"
     inkscape:pagecheckerboard="0"
     inkscape:deskcolor="#d1d1d1"
     inkscape:document-units="mm"
     inkscape:zoom="1"
     inkscape:cx="24"
     inkscape:cy="19"
     inkscape:window-width="1440"
     inkscape:window-height="431"
     inkscape:window-x="0"
     inkscape:window-y="23"
     inkscape:window-maximized="0"
     inkscape:current-layer="layer1" />
  <defs
     id="defs1" />
  <g
     inkscape:label="Layer 1"
     inkscape:groupmode="layer"
     id="layer1"
     transform="translate(-97.631249,-143.13958)">
    <g
       id="g489"
       transform="matrix(0.26458333,0,0,0.26458333,47.095093,-44.556537)">
      <path
         id="path490"
         d="m 0,0 c -0.962,0 -1.745,0.783 -1.745,1.745 v 27 c 0,0.962 0.783,1.745 1.745,1.745 h 35.64 c 0.962,0 1.745,-0.783 1.745,-1.745 v -27 C 37.385,0.783 36.602,0 35.64,0 Z"
         style="fill:#ffffff;fill-opacity:1;fill-rule:nonzero;stroke:none"
         transform="matrix(1.3333333,0,0,-1.3333333,193.4964,750.22307)" />
    </g>
    <g
       id="g490"
       transform="matrix(0.26458333,0,0,0.26458333,47.095093,-44.556537)">
      <path
         id="path491"
         d="m 0,0 h -35.64 c -1.031,0 -1.87,-0.839 -1.87,-1.87 v -27 c 0,-1.031 0.839,-1.87 1.87,-1.87 H 0 c 1.031,0 1.87,0.839 1.87,1.87 v 27 C 1.87,-0.839 1.031,0 0,0 m 0,-0.25 c 0.895,0 1.62,-0.725 1.62,-1.62 v -27 c 0,-0.895 -0.725,-1.62 -1.62,-1.62 h -35.64 c -0.895,0 -1.62,0.725 -1.62,1.62 v 27 c 0,0.895 0.725,1.62 1.62,1.62 z"
         style="fill:#000000;fill-opacity:1;fill-rule:nonzero;stroke:none"
         transform="matrix(1.3333333,0,0,-1.3333333,241.01613,709.40267)" />
    </g>
    <g
       id="g491"
       transform="matrix(0.26458333,0,0,0.26458333,47.095093,-44.556537)">
      <path
         id="path492"
         d="m 0,0 c -0.645,0 -1.17,0.525 -1.17,1.17 v 27 c 0,0.645 0.525,1.17 1.17,1.17 h 35.64 c 0.645,0 1.17,-0.525 1.17,-1.17 v -27 C 36.81,0.525 36.285,0 35.64,0 Z"
         style="fill:#000000;fill-opacity:1;fill-rule:nonzero;stroke:none"
         transform="matrix(1.3333333,0,0,-1.3333333,193.49613,749.456)" />
      <path
         id="path493"
         d="m 0,0 c -0.298,0 -0.54,0.242 -0.54,0.54 v 27 c 0,0.298 0.242,0.54 0.54,0.54 h 35.64 c 0.298,0 0.54,-0.242 0.54,-0.54 v -27 C 36.18,0.242 35.938,0 35.64,0 Z"
         style="fill:#ffffff;fill-opacity:1;fill-rule:nonzero;stroke:none"
         transform="matrix(1.3333333,0,0,-1.3333333,193.49613,748.616)" />
    </g>
    <g
       id="g493"
       transform="matrix(0.26458333,0,0,0.26458333,47.095093,-44.556537)">
      <path
         id="path494"
         d="m 0,0 0.652,0.242 c 0.182,-0.409 0.515,-0.636 0.924,-0.636 0.394,0 0.668,0.272 0.668,0.636 0,0.578 -0.667,0.667 -1.228,0.895 -0.258,0.106 -0.834,0.364 -0.834,1.076 0,0.849 0.576,1.166 1.349,1.166 0.606,0 1.016,-0.349 1.228,-0.879 L 2.152,2.318 C 2.084,2.489 1.838,2.697 1.516,2.697 0.9,2.697 0.847,2.368 0.847,2.26 0.847,1.857 1.196,1.777 1.762,1.599 2.339,1.417 2.941,1.152 2.941,0.226 2.941,-0.706 2.185,-1.091 1.576,-1.091 0.833,-1.091 0.288,-0.652 0,0"
         style="fill:#000000;fill-opacity:1;fill-rule:nonzero;stroke:none"
         transform="matrix(1.3333333,0,0,-1.3333333,199.73213,727.8216)" />
      <path
         id="path495"
         d="M 0,0 H -0.685 V 3.714 H -1.674 V 4.32 H 1.005 V 3.714 H 0 Z"
         style="fill:#000000;fill-opacity:1;fill-rule:nonzero;stroke:none"
         transform="matrix(1.3333333,0,0,-1.3333333,206.3468,729.176)" />
    </g>
    <g
       id="g495"
       transform="matrix(0.26458333,0,0,0.26458333,47.095093,-44.556537)">
      <path
         id="path496"
         d="m 0,0 h 0.962 c 0.542,0 0.6,0.391 0.6,0.53 0,0.203 -0.153,0.531 -0.577,0.531 H 0 Z M 0.805,-0.697 H 0 v -1.88 h -0.681 v 4.32 h 1.632 c 1.017,0 1.308,-0.826 1.308,-1.213 0,-0.268 -0.147,-1.227 -1.454,-1.227"
         style="fill:#000000;fill-opacity:1;fill-rule:nonzero;stroke:none"
         transform="matrix(1.3333333,0,0,-1.3333333,214.70387,725.74013)" />
      <path
         id="path497"
         d="m 0,0 h 0.962 c 0.542,0 0.6,0.391 0.6,0.53 0,0.203 -0.153,0.531 -0.577,0.531 H 0 Z M 0.805,-0.697 H 0 v -1.88 h -0.681 v 4.32 h 1.632 c 1.017,0 1.308,-0.826 1.308,-1.213 0,-0.268 -0.147,-1.227 -1.454,-1.227"
         style="fill:#000000;fill-opacity:1;fill-rule:nonzero;stroke:none"
         transform="matrix(1.3333333,0,0,-1.3333333,219.48907,725.74013)" />
      <path
         id="path498"
         d="m 167.524,249.438 h 0.691 v -4.32 h -0.691 z"
         style="fill:#000000;fill-opacity:1;fill-rule:nonzero;stroke:none"
         transform="matrix(1.3333333,0,0,-1.3333333,0,1056)" />
      <path
         id="path499"
         d="m 0,0 v -2.925 h -0.681 v 4.32 H 0 l 1.577,-2.759 v 2.759 h 0.682 v -4.32 H 1.653 Z"
         style="fill:#000000;fill-opacity:1;fill-rule:nonzero;stroke:none"
         transform="matrix(1.3333333,0,0,-1.3333333,226.57813,725.27573)" />
      <path
         id="path500"
         d="M 0,0 C 0.692,0 1.082,-0.262 1.375,-0.955 L 0.723,-1.212 c -0.182,0.379 -0.363,0.515 -0.697,0.515 -0.949,0 -0.895,-1.445 -0.895,-1.546 0,-0.162 -0.037,-1.53 0.804,-1.53 0.439,0 0.758,0.272 0.758,0.666 v 0.182 h -0.789 v 0.682 h 1.47 v -0.864 c 0,-0.787 -0.575,-1.364 -1.364,-1.364 -0.157,0 -1.576,-0.129 -1.576,2.236 C -1.566,-1.904 -1.548,0 0,0"
         style="fill:#000000;fill-opacity:1;fill-rule:nonzero;stroke:none"
         transform="matrix(1.3333333,0,0,-1.3333333,232.94587,723.31587)" />
    </g>
    <g
       id="g500"
       transform="matrix(0.26458333,0,0,0.26458333,47.095093,-44.556537)">
      <path
         id="path501"
         d="m 0,0 v -2.925 h -0.681 v 4.32 H 0 l 1.577,-2.759 v 2.759 h 0.682 v -4.32 H 1.653 Z"
         style="fill:#000000;fill-opacity:1;fill-rule:nonzero;stroke:none"
         transform="matrix(1.3333333,0,0,-1.3333333,213.7552,734.39573)" />
      <path
         id="path502"
         d="M 0,0 H 0.681 V -3.683 H 2.679 V -4.32 H 0 Z"
         style="fill:#000000;fill-opacity:1;fill-rule:nonzero;stroke:none"
         transform="matrix(1.3333333,0,0,-1.3333333,218.15013,732.536)" />
      <path
         id="path503"
         d="m 0,0 h -0.686 v 1.88 l -1.523,2.44 h 0.823 L -0.35,2.652 0.701,4.32 H 1.508 L 0,1.88 Z"
         style="fill:#000000;fill-opacity:1;fill-rule:nonzero;stroke:none"
         transform="matrix(1.3333333,0,0,-1.3333333,225.01387,738.296)" />
    </g>
    <g
       id="g503"
       transform="matrix(0.26458333,0,0,0.26458333,47.095093,-44.556537)">
      <path
         id="path504"
         d="M 0,0 H -0.571 V 3.095 H -1.395 V 3.6 H 0.837 V 3.095 H 0 Z"
         style="fill:#000000;fill-opacity:1;fill-rule:nonzero;stroke:none"
         transform="matrix(1.3333333,0,0,-1.3333333,202.52493,746.45587)" />
      <path
         id="path505"
         d="m 0,0 h -1.314 v -1.566 h -0.568 v 3.6 h 0.568 V 0.581 H 0 v 1.453 h 0.568 v -3.6 H 0 Z"
         style="fill:#000000;fill-opacity:1;fill-rule:nonzero;stroke:none"
         transform="matrix(1.3333333,0,0,-1.3333333,206.8712,744.36733)" />
      <path
         id="path506"
         d="M 0,0 H 2.119 V -0.568 H 0.568 V -1.453 H 1.615 V -2.034 H 0.568 V -3.019 H 2.233 V -3.6 H 0 Z"
         style="fill:#000000;fill-opacity:1;fill-rule:nonzero;stroke:none"
         transform="matrix(1.3333333,0,0,-1.3333333,208.78107,741.656)" />
      <path
         id="path507"
         d="m 0,0 c 0.452,0 0.523,0.326 0.523,0.442 0,0.157 -0.118,0.442 -0.496,0.442 H -0.715 V 0 Z m -0.715,-0.581 v -1.566 h -0.568 v 3.6 h 1.302 c 0.826,0 1.073,-0.661 1.073,-1.012 0,-0.133 -0.049,-0.66 -0.559,-0.901 L 1.168,-2.147 H 0.549 l -0.581,1.566 z"
         style="fill:#000000;fill-opacity:1;fill-rule:nonzero;stroke:none"
         transform="matrix(1.3333333,0,0,-1.3333333,214.28467,743.59267)" />
      <path
         id="path508"
         d="M 0,0 H -0.571 V 3.095 H -1.395 V 3.6 H 0.837 V 3.095 H 0 Z"
         style="fill:#000000;fill-opacity:1;fill-rule:nonzero;stroke:none"
         transform="matrix(1.3333333,0,0,-1.3333333,222.50213,746.45587)" />
      <path
         id="path509"
         d="m 168.254,235.758 h 0.576 v -3.6 h -0.576 z"
         style="fill:#000000;fill-opacity:1;fill-rule:nonzero;stroke:none"
         transform="matrix(1.3333333,0,0,-1.3333333,0,1056)" />
      <path
         id="path510"
         d="M 0,0 -0.835,-2.084 -1.67,0 v -2.084 h -0.57 v 3.6 h 0.57 L -0.835,-0.505 0,1.516 h 0.57 v -3.6 H 0 Z"
         style="fill:#000000;fill-opacity:1;fill-rule:nonzero;stroke:none"
         transform="matrix(1.3333333,0,0,-1.3333333,229.2456,743.67667)" />
      <path
         id="path511"
         d="M 0,0 H 2.119 V -0.568 H 0.568 V -1.453 H 1.615 V -2.034 H 0.568 V -3.019 H 2.233 V -3.6 H 0 Z"
         style="fill:#000000;fill-opacity:1;fill-rule:nonzero;stroke:none"
         transform="matrix(1.3333333,0,0,-1.3333333,231.15733,741.656)" />
      <path
         id="path512"
         d="m 0,0 0.543,0.202 c 0.152,-0.341 0.429,-0.53 0.771,-0.53 0.328,0 0.556,0.227 0.556,0.53 0,0.482 -0.556,0.556 -1.024,0.745 -0.214,0.089 -0.694,0.304 -0.694,0.897 0,0.708 0.479,0.972 1.124,0.972 0.505,0 0.846,-0.291 1.023,-0.733 L 1.794,1.932 C 1.737,2.074 1.531,2.248 1.263,2.248 0.75,2.248 0.706,1.974 0.706,1.884 0.706,1.547 0.996,1.481 1.468,1.332 1.949,1.181 2.451,0.96 2.451,0.189 2.451,-0.589 1.821,-0.909 1.314,-0.909 0.694,-0.909 0.24,-0.543 0,0"
         style="fill:#000000;fill-opacity:1;fill-rule:nonzero;stroke:none"
         transform="matrix(1.3333333,0,0,-1.3333333,234.61467,745.32733)" />
    </g>
    <g
       id="g512"
       transform="matrix(0.26458333,0,0,0.26458333,47.095093,-44.556537)">
      <path
         id="path513"
         d="M 0,0 H 2.543 V -0.682 H 0.681 V -1.743 H 1.938 V -2.44 H 0.681 V -3.623 H 2.679 V -4.32 H 0 Z"
         style="fill:#000000;fill-opacity:1;fill-rule:nonzero;stroke:none"
         transform="matrix(1.3333333,0,0,-1.3333333,195.94173,714.296)" />
      <path
         id="path514"
         d="M 0,0 -1.002,-2.501 -2.004,0 v -2.501 h -0.684 v 4.32 h 0.684 L -1.002,-0.606 0,1.819 h 0.684 v -4.32 H 0 Z"
         style="fill:#000000;fill-opacity:1;fill-rule:nonzero;stroke:none"
         transform="matrix(1.3333333,0,0,-1.3333333,203.88173,716.72093)" />
      <path
         id="path515"
         d="M 0,0 H 2.543 V -0.682 H 0.681 V -1.743 H 1.938 V -2.44 H 0.681 V -3.623 H 2.679 V -4.32 H 0 Z"
         style="fill:#000000;fill-opacity:1;fill-rule:nonzero;stroke:none"
         transform="matrix(1.3333333,0,0,-1.3333333,205.89947,714.296)" />
      <path
         id="path516"
         d="m 0,0 c 0.542,0 0.627,0.391 0.627,0.53 0,0.189 -0.14,0.531 -0.594,0.531 H -0.858 V 0 Z m -0.858,-0.697 v -1.88 h -0.681 v 4.32 h 1.562 c 0.991,0 1.288,-0.792 1.288,-1.213 0,-0.161 -0.06,-0.792 -0.671,-1.082 L 1.401,-2.577 H 0.658 l -0.697,1.88 z"
         style="fill:#000000;fill-opacity:1;fill-rule:nonzero;stroke:none"
         transform="matrix(1.3333333,0,0,-1.3333333,212.30827,716.62013)" />
      <path
         id="path517"
         d="M 0,0 C 0.692,0 1.082,-0.262 1.375,-0.955 L 0.723,-1.212 c -0.182,0.379 -0.363,0.515 -0.697,0.515 -0.949,0 -0.895,-1.445 -0.895,-1.546 0,-0.162 -0.037,-1.53 0.804,-1.53 0.439,0 0.758,0.272 0.758,0.666 v 0.182 h -0.789 v 0.682 h 1.47 v -0.864 c 0,-0.787 -0.575,-1.364 -1.364,-1.364 -0.157,0 -1.576,-0.129 -1.576,2.236 C -1.566,-1.904 -1.548,0 0,0"
         style="fill:#000000;fill-opacity:1;fill-rule:nonzero;stroke:none"
         transform="matrix(1.3333333,0,0,-1.3333333,216.95587,714.19587)" />
      <path
         id="path518"
         d="M 0,0 H 2.543 V -0.682 H 0.681 V -1.743 H 1.938 V -2.44 H 0.681 V -3.623 H 2.679 V -4.32 H 0 Z"
         style="fill:#000000;fill-opacity:1;fill-rule:nonzero;stroke:none"
         transform="matrix(1.3333333,0,0,-1.3333333,219.80293,714.296)" />
      <path
         id="path519"
         d="m 0,0 v -2.925 h -0.681 v 4.32 H 0 l 1.577,-2.759 v 2.759 h 0.682 v -4.32 H 1.653 Z"
         style="fill:#000000;fill-opacity:1;fill-rule:nonzero;stroke:none"
         transform="matrix(1.3333333,0,0,-1.3333333,225.0676,716.15573)" />
      <path
         id="path520"
         d="m 0,0 c 0,0.608 0.122,2.228 1.591,2.228 0.627,0 1.053,-0.255 1.35,-0.88 L 2.304,1.076 C 2.083,1.393 1.973,1.53 1.592,1.53 0.688,1.53 0.698,0.271 0.698,-0.001 c 0,-0.267 -0.017,-1.546 0.924,-1.546 0.33,0 0.52,0.199 0.667,0.5 L 2.941,-1.289 C 2.698,-1.89 2.29,-2.243 1.637,-2.243 0.082,-2.243 0,-0.526 0,0"
         style="fill:#000000;fill-opacity:1;fill-rule:nonzero;stroke:none"
         transform="matrix(1.3333333,0,0,-1.3333333,229.094,717.16587)" />
      <path
         id="path521"
         d="m 0,0 h -0.686 v 1.88 l -1.523,2.44 h 0.823 L -0.35,2.652 0.701,4.32 H 1.508 L 0,1.88 Z"
         style="fill:#000000;fill-opacity:1;fill-rule:nonzero;stroke:none"
         transform="matrix(1.3333333,0,0,-1.3333333,236.5596,720.05587)" />
    </g>
    <g
       id="g521"
       transform="matrix(0.26458333,0,0,0.26458333,47.095093,-44.556537)">
      <path
         id="path522"
         d="M 0,0 C 0.465,0 0.843,0.441 0.843,1.539 0.843,2.637 0.465,3.078 0,3.078 -0.465,3.078 -0.843,2.637 -0.843,1.539 -0.843,0.441 -0.465,0 0,0 m 1.527,1.539 c 0,-0.155 0.033,-2.236 -1.535,-2.236 -1.567,0 -1.534,2.081 -1.534,2.236 0,0.155 -0.033,2.235 1.534,2.235 1.568,0 1.535,-2.08 1.535,-2.235"
         style="fill:#000000;fill-opacity:1;fill-rule:nonzero;stroke:none"
         transform="matrix(1.3333333,0,0,-1.3333333,210.49173,728.348)" />
    </g>
    <g
       id="g522"
       transform="matrix(0.26458333,0,0,0.26458333,47.095093,-44.556537)">
      <path
         id="path523"
         d="M 0,0 C 0.465,0 0.843,0.441 0.843,1.539 0.843,2.637 0.465,3.078 0,3.078 -0.465,3.078 -0.843,2.637 -0.843,1.539 -0.843,0.441 -0.465,0 0,0 m 1.527,1.539 c 0,-0.155 0.033,-2.236 -1.535,-2.236 -1.567,0 -1.534,2.081 -1.534,2.236 0,0.155 -0.033,2.235 1.534,2.235 1.568,0 1.535,-2.08 1.535,-2.235"
         style="fill:#000000;fill-opacity:1;fill-rule:nonzero;stroke:none"
         transform="matrix(1.3333333,0,0,-1.3333333,209.5432,737.468)" />
    </g>
    <g
       id="g523"
       transform="matrix(0.26458333,0,0,0.26458333,47.095093,-44.556537)">
      <path
         id="path524"
         d="M 0,0 C 0.388,0 0.703,0.368 0.703,1.282 0.703,2.197 0.388,2.565 0,2.565 -0.388,2.565 -0.703,2.198 -0.703,1.282 -0.703,0.368 -0.388,0 0,0 m 1.273,1.282 c 0,-0.129 0.027,-1.863 -1.279,-1.863 -1.307,0 -1.279,1.734 -1.279,1.863 0,0.13 -0.028,1.863 1.279,1.863 1.306,0 1.279,-1.733 1.279,-1.863"
         style="fill:#000000;fill-opacity:1;fill-rule:nonzero;stroke:none"
         transform="matrix(1.3333333,0,0,-1.3333333,198.34373,745.76587)" />
    </g>
  </g>
</svg>
