<?xml version="1.0" encoding="UTF-8" standalone="no"?>
<!-- Created with Inkscape (http://www.inkscape.org/) -->

<svg
   width="12in"
   height="6in"
   viewBox="0 0 304.8 152.4"
   version="1.1"
   id="svg925"
   inkscape:version="1.1.1 (c3084ef, 2021-09-22)"
   sodipodi:docname="MUTCD R7-113aP.svg"
   xmlns:inkscape="http://www.inkscape.org/namespaces/inkscape"
   xmlns:sodipodi="http://sodipodi.sourceforge.net/DTD/sodipodi-0.dtd"
   xmlns="http://www.w3.org/2000/svg"
   xmlns:svg="http://www.w3.org/2000/svg">
  <sodipodi:namedview
     id="namedview927"
     pagecolor="#ffffff"
     bordercolor="#666666"
     borderopacity="1.0"
     inkscape:pageshadow="2"
     inkscape:pageopacity="0.0"
     inkscape:pagecheckerboard="0"
     inkscape:document-units="in"
     showgrid="false"
     units="in"
     inkscape:zoom="0.36401473"
     inkscape:cx="523.33047"
     inkscape:cy="863.97603"
     inkscape:window-width="1440"
     inkscape:window-height="855"
     inkscape:window-x="0"
     inkscape:window-y="23"
     inkscape:window-maximized="1"
     inkscape:current-layer="layer2"
     inkscape:snap-bbox="true"
     inkscape:snap-bbox-edge-midpoints="true"
     inkscape:snap-bbox-midpoints="true"
     inkscape:snap-midpoints="true"
     inkscape:bbox-paths="true"
     inkscape:bbox-nodes="true" />
  <defs
     id="defs922" />
  <g
     inkscape:label="Sign Back"
     inkscape:groupmode="layer"
     id="layer1"
     sodipodi:insensitive="true">
    <rect
       style="fill:#ffffff;stroke:#000000;stroke-width:1.5748;stroke-linecap:square;stroke-miterlimit:10;stroke-dasharray:none"
       id="rect1008"
       width="303.1998"
       height="150.8252"
       x="0.7937547"
       y="0.79374337"
       rx="37.312599"
       ry="37.306252" />
    <rect
       style="fill:none;stroke:#000000;stroke-width:9.525;stroke-linecap:square;stroke-miterlimit:10;stroke-dasharray:none;stroke-opacity:1"
       id="rect1178"
       width="276.22501"
       height="123.825"
       x="14.287498"
       y="14.287502"
       rx="23.825199"
       ry="23.8125" />
  </g>
  <g
     inkscape:groupmode="layer"
     id="layer2"
     inkscape:label="Legends">
    <g
       aria-label="VEHICLE"
       id="text54339"
       style="font-size:37.9104px;line-height:1.25;font-family:'Roadgeek 2005 Series D';-inkscape-font-specification:'Roadgeek 2005 Series D';text-align:center;text-anchor:middle;stroke-width:0.947763">
      <path
         d="M 96.211754,53.974968 H 93.103101 L 85.066096,28.575 H 89.27415 L 94.695338,45.520949 100.0407,28.575 h 4.28388 z"
         id="path60279" />
      <path
         d="M 108.1091,53.974968 V 28.575 h 14.97461 v 4.018502 h -10.9561 v 6.217306 h 7.39252 v 4.094323 h -7.39252 v 6.975514 h 11.75222 v 4.094323 z"
         id="path60281" />
      <path
         d="M 141.4436,53.974968 V 42.905131 h -9.25014 v 11.069837 h -4.0185 V 28.575 h 4.0185 v 10.235808 h 9.25014 V 28.575 h 4.0185 v 25.399968 z"
         id="path60283" />
      <path
         d="M 151.49874,53.974968 V 28.575 h 4.09432 v 25.399968 z"
         id="path60285" />
      <path
         d="m 178.39913,48.819154 q -2.27462,5.610739 -7.6579,5.610739 -2.84328,0 -4.70089,-1.099402 -1.85761,-1.099401 -3.07074,-3.449846 -0.87194,-1.705968 -1.36477,-3.980592 -0.49284,-2.274624 -0.49284,-4.66298 0,-3.032832 0.75821,-5.800291 0.75821,-2.767459 2.08507,-4.473427 1.13731,-1.402685 2.72955,-2.122983 1.63015,-0.720297 3.79104,-0.720297 2.88119,0 4.7388,1.251043 1.89552,1.251043 3.18447,3.942682 l -3.75313,1.592237 q -0.53074,-0.796119 -0.98567,-1.326864 -0.41701,-0.530746 -0.90985,-0.834029 -0.45492,-0.303283 -1.02358,-0.417015 -0.53074,-0.113731 -1.25104,-0.113731 -1.55433,0 -2.61582,0.720298 -1.02358,0.720297 -1.66805,2.426265 -0.49284,1.137312 -0.75821,2.691639 -0.22747,1.554326 -0.22747,3.184473 0,2.085072 0.41702,4.018503 0.41701,1.89552 1.17522,3.108653 0.68239,0.98567 1.59224,1.478505 0.90985,0.492836 2.23671,0.492836 1.28896,0 2.23672,-0.682388 0.94776,-0.720297 1.70596,-2.274624 l 3.82895,1.440596 z"
         id="path60287" />
      <path
         d="M 183.9299,53.974968 V 28.575 h 4.0185 v 21.646838 h 11.75223 v 3.75313 z"
         id="path60289" />
      <path
         d="M 203.47745,53.974968 V 28.575 h 14.97461 v 4.018502 h -10.9561 v 6.217306 h 7.39252 v 4.094323 h -7.39252 v 6.975514 h 11.75222 v 4.094323 z"
         id="path60291" />
    </g>
    <g
       aria-label="MUST  BE"
       id="text54445"
       style="font-size:37.9104px;line-height:1.25;font-family:'Roadgeek 2005 Series D';-inkscape-font-specification:'Roadgeek 2005 Series D';text-align:center;text-anchor:middle;stroke-width:0.947763">
      <path
         d="M 98.964108,88.899971 V 74.190736 L 93.087996,88.899971 87.211884,74.190736 V 88.899971 H 83.193381 V 63.500003 h 4.018503 l 5.876112,14.25431 5.876112,-14.25431 h 4.018502 v 25.399968 z"
         id="path60266" />
      <path
         d="m 126.32179,79.801475 q 0,1.478506 -0.34119,2.80537 -0.30328,1.326864 -0.83403,2.464176 -0.49284,0.94776 -1.28895,1.743878 -0.79612,0.758208 -1.78179,1.326864 -0.98567,0.568656 -2.12298,0.871939 -1.09941,0.341194 -2.27463,0.341194 -1.17522,0 -2.31253,-0.341194 -1.0994,-0.303283 -2.08508,-0.871939 -0.98567,-0.568656 -1.81969,-1.326864 -0.79612,-0.796118 -1.28896,-1.743878 -0.53074,-1.137312 -0.83403,-2.464176 -0.30328,-1.326864 -0.30328,-2.80537 V 63.500003 h 4.0185 v 16.301472 q 0,2.502086 1.25105,3.980592 1.28895,1.478506 3.37402,1.478506 2.08507,0 3.33612,-1.478506 1.28895,-1.478506 1.28895,-3.980592 V 63.500003 h 4.0185 v 16.301472 z"
         id="path60268" />
      <path
         d="m 147.86379,81.583264 q 0,1.743878 -0.64448,3.222384 -0.64448,1.478505 -1.85761,2.577907 -1.06149,0.94776 -2.50209,1.478506 -1.40268,0.492835 -3.03283,0.492835 -3.2982,0 -5.64865,-1.743879 -2.31253,-1.781788 -3.60149,-4.700889 l 3.82895,-1.402685 q 0.79612,1.819699 2.19881,2.80537 1.40268,0.94776 3.22238,0.94776 1.78179,0 2.84328,-1.061492 1.0994,-1.099401 1.0994,-2.691638 0,-1.251043 -0.68238,-2.047162 -0.64448,-0.796118 -1.70597,-1.326864 -1.06149,-0.568656 -2.35045,-0.98567 -1.25104,-0.417015 -2.50208,-0.90985 -0.56866,-0.227462 -1.40269,-0.644477 -0.83403,-0.417014 -1.63015,-1.137312 -0.7582,-0.758208 -1.32686,-1.857609 -0.53075,-1.099402 -0.53075,-2.691639 0,-1.857609 0.60657,-3.146563 0.60657,-1.326864 1.63015,-2.122982 1.06149,-0.834029 2.50208,-1.213133 1.47851,-0.379104 3.18448,-0.379104 2.69164,0 4.47343,1.402685 1.81969,1.402685 2.76745,3.79104 l -3.56357,1.061491 q -0.30329,-0.606566 -0.79612,-1.099402 -0.41702,-0.417014 -1.17522,-0.758208 -0.7203,-0.341193 -1.78179,-0.379104 -0.68239,-0.03791 -1.4406,0.113732 -0.7203,0.113731 -1.28895,0.454924 -0.56866,0.341194 -0.90985,0.94776 -0.34119,0.568656 -0.26537,1.440596 0.0758,1.175222 1.02358,1.819699 0.94776,0.606566 2.31253,1.061491 1.36478,0.454925 2.9191,0.94776 1.59224,0.454925 2.9191,1.364774 1.32687,0.87194 2.19881,2.388356 0.90985,1.478505 0.90985,3.980592 z"
         id="path60270" />
      <path
         d="m 159.71019,67.06358 v 21.836391 h -4.0185 V 67.06358 h -5.80029 v -3.563577 h 15.6949 v 3.563577 z"
         id="path60272" />
      <path
         d="m 203.3273,81.772816 q 0,1.023581 -0.30329,2.047161 -0.30328,1.023581 -0.87194,1.89552 -0.53074,0.87194 -1.28895,1.554327 -0.7203,0.644477 -1.63015,1.023581 -0.68239,0.265372 -1.70597,0.454924 -0.98567,0.151642 -1.85761,0.151642 h -9.62924 V 63.500003 h 9.62924 q 1.51642,0 2.80537,0.492835 1.28896,0.492835 2.23672,1.364774 0.94776,0.834029 1.4785,2.009252 0.53075,1.175222 0.53075,2.539996 0,3.677309 -3.56358,5.724471 2.00925,0.94776 3.07074,2.502086 1.09941,1.554327 1.09941,3.639399 z m -4.62507,-11.676404 q 0,-2.577907 -2.76746,-2.577907 h -5.87611 v 6.217306 h 4.81462 q 0.87194,0 1.36477,-0.113731 0.49284,-0.151642 1.02358,-0.568656 1.4406,-1.137312 1.4406,-2.957012 z m 0.53074,11.752225 q 0,-1.251044 -0.68239,-2.312535 -0.64447,-1.099401 -1.74387,-1.516416 -0.41702,-0.151642 -0.7203,-0.151642 -0.30328,-0.03791 -0.94776,-0.03791 h -5.07999 v 6.975514 h 6.06566 q 3.10865,0 3.10865,-2.957011 z"
         id="path60274" />
      <path
         d="M 207.58688,88.899971 V 63.500003 h 14.97461 v 4.018502 h -10.9561 v 6.217306 h 7.39252 v 4.094323 h -7.39252 v 6.975514 h 11.75222 v 4.094323 z"
         id="path60276" />
    </g>
    <g
       aria-label="PLUGGED  IN"
       id="text54449"
       style="font-size:37.9104px;line-height:1.25;font-family:'Roadgeek 2005 Series D';-inkscape-font-specification:'Roadgeek 2005 Series D';text-align:center;text-anchor:middle;stroke-width:0.947763">
      <path
         d="m 71.936658,105.55215 q 0,1.02358 -0.303283,2.00925 -0.303283,0.94776 -0.834029,1.8197 -0.530746,0.83403 -1.251043,1.47851 -0.682387,0.64448 -1.516416,1.02358 -0.871939,0.41701 -2.047162,0.64448 -1.137312,0.22746 -2.615817,0.22746 h -4.70089 v 11.06984 H 54.649516 V 98.424998 h 8.719392 q 1.554326,0 2.615817,0.189552 1.099402,0.151642 2.047162,0.606567 0.834029,0.417014 1.516416,1.099403 0.720297,0.64447 1.251043,1.51641 0.530746,0.83403 0.834029,1.8197 0.303283,0.94776 0.303283,1.89552 z m -4.094323,0 q 0,-0.79611 -0.454925,-1.51641 -0.417014,-0.7203 -1.061491,-1.13731 -0.530746,-0.30329 -1.023581,-0.37911 -0.454925,-0.0758 -1.402685,-0.0758 h -5.231635 v 6.21731 h 5.231635 q 0.94776,0 1.402685,-0.0758 0.492835,-0.0758 1.023581,-0.3412 0.644477,-0.34119 1.061491,-1.0994 0.454925,-0.79612 0.454925,-1.59224 z"
         id="path60247" />
      <path
         d="M 75.677941,123.82497 V 98.424998 h 4.018502 v 21.646842 h 11.752224 v 3.75313 z"
         id="path60249" />
      <path
         d="m 112.51263,114.72647 q 0,1.47851 -0.34119,2.80537 -0.30329,1.32686 -0.83403,2.46418 -0.49284,0.94776 -1.28895,1.74387 -0.79612,0.75821 -1.78179,1.32687 -0.98567,0.56865 -2.12299,0.87194 -1.0994,0.34119 -2.27462,0.34119 -1.17522,0 -2.31253,-0.34119 -1.09941,-0.30329 -2.085076,-0.87194 -0.985671,-0.56866 -1.819699,-1.32687 -0.796119,-0.79611 -1.288954,-1.74387 -0.530746,-1.13732 -0.834029,-2.46418 -0.303283,-1.32686 -0.303283,-2.80537 V 98.424998 h 4.018502 v 16.301472 q 0,2.50209 1.251039,3.98059 1.28896,1.47851 3.37403,1.47851 2.08507,0 3.33612,-1.47851 1.28895,-1.4785 1.28895,-3.98059 V 98.424998 h 4.0185 v 16.301472 z"
         id="path60251" />
      <path
         d="m 135.30567,116.24289 q 0,1.74387 -0.60657,3.22238 -0.60656,1.4406 -1.66805,2.54 -1.0615,1.06149 -2.54,1.66805 -1.47851,0.60657 -3.22239,0.60657 -2.88119,0 -4.66297,-1.0994 -1.78179,-1.13731 -2.91911,-3.52567 -0.79611,-1.70597 -1.25104,-3.90477 -0.41701,-2.23671 -0.41701,-4.58716 0,-1.51641 0.18955,-2.99492 0.22746,-1.51641 0.56866,-2.84328 0.3791,-1.36477 0.90984,-2.50209 0.53075,-1.17522 1.17523,-2.00925 1.13731,-1.402681 2.72955,-2.122979 1.63014,-0.720298 3.79104,-0.720298 2.9191,0 4.77671,1.326864 1.85761,1.288953 3.14656,4.283873 l -3.82895,1.51642 q -0.79612,-1.66806 -1.74388,-2.35045 -0.90985,-0.68238 -2.35044,-0.68238 -1.55433,0 -2.61582,0.72029 -1.02358,0.7203 -1.66806,2.42627 -0.49283,1.13731 -0.75821,2.76746 -0.22746,1.59224 -0.22746,3.18447 0,2.04716 0.30328,3.90477 0.3412,1.85761 0.94776,3.07075 1.17523,2.04716 3.48776,2.04716 1.93343,0 3.18447,-1.0994 1.25105,-1.09941 1.25105,-2.84328 v -1.06149 h -4.62507 v -4.01851 h 8.64357 v 5.08 z"
         id="path60253" />
      <path
         d="m 157.59284,116.24289 q 0,1.74387 -0.60657,3.22238 -0.60656,1.4406 -1.66805,2.54 -1.06149,1.06149 -2.54,1.66805 -1.47851,0.60657 -3.22238,0.60657 -2.8812,0 -4.66298,-1.0994 -1.78179,-1.13731 -2.9191,-3.52567 -0.79612,-1.70597 -1.25105,-3.90477 -0.41701,-2.23671 -0.41701,-4.58716 0,-1.51641 0.18955,-2.99492 0.22746,-1.51641 0.56866,-2.84328 0.3791,-1.36477 0.90985,-2.50209 0.53074,-1.17522 1.17522,-2.00925 1.13731,-1.402681 2.72955,-2.122979 1.63014,-0.720298 3.79104,-0.720298 2.9191,0 4.77671,1.326864 1.85761,1.288953 3.14656,4.283873 l -3.82895,1.51642 q -0.79612,-1.66806 -1.74388,-2.35045 -0.90985,-0.68238 -2.35044,-0.68238 -1.55433,0 -2.61582,0.72029 -1.02358,0.7203 -1.66806,2.42627 -0.49283,1.13731 -0.75821,2.76746 -0.22746,1.59224 -0.22746,3.18447 0,2.04716 0.30328,3.90477 0.3412,1.85761 0.94776,3.07075 1.17523,2.04716 3.48776,2.04716 1.93343,0 3.18447,-1.0994 1.25105,-1.09941 1.25105,-2.84328 v -1.06149 h -4.62507 v -4.01851 h 8.64357 v 5.08 z"
         id="path60255" />
      <path
         d="M 163.12361,123.82497 V 98.424998 h 14.9746 v 4.018502 h -10.9561 v 6.21731 h 7.39253 v 4.09432 h -7.39253 v 6.97551 h 11.75222 v 4.09433 z"
         id="path60257" />
      <path
         d="m 200.47661,111.08707 q 0,3.82895 -1.17523,6.74805 -1.13731,2.88119 -3.2982,4.54925 -0.7203,0.68239 -1.70597,1.02358 -0.94776,0.3412 -1.93343,0.41702 h -1.4406 -7.73372 V 98.424998 h 8.18865 q 0.94776,0 1.63015,0.07582 0.72029,0.03791 1.28895,0.189552 0.56866,0.151642 1.02358,0.417014 0.45493,0.265373 0.98567,0.644477 2.00925,1.743878 3.07074,4.662978 1.09941,2.88119 1.09941,6.67223 z m -4.09433,0 q 0,-2.57791 -0.56865,-4.58716 -0.53075,-2.00925 -1.47851,-2.99492 -0.49283,-0.45492 -1.13731,-0.75821 -0.64448,-0.30328 -1.4406,-0.30328 h -4.54924 v 17.28714 h 4.0185 q 0.98567,0 1.63015,-0.22746 0.68238,-0.22746 1.21313,-0.75821 1.13731,-1.13731 1.70597,-3.10865 0.60656,-2.00925 0.60656,-4.54925 z"
         id="path60259" />
      <path
         d="M 222.72883,123.82497 V 98.424998 h 4.09432 v 25.399972 z"
         id="path60261" />
      <path
         d="m 246.59639,123.82497 -9.70506,-17.21133 v 17.21133 h -4.0185 V 98.424998 h 4.0185 l 9.25014,16.225652 V 98.424998 h 4.0185 v 25.399972 z"
         id="path60263" />
    </g>
  </g>
</svg>
