<?xml version="1.0" encoding="UTF-8" standalone="no"?>
<svg
   xmlns:dc="http://purl.org/dc/elements/1.1/"
   xmlns:cc="http://creativecommons.org/ns#"
   xmlns:rdf="http://www.w3.org/1999/02/22-rdf-syntax-ns#"
   xmlns:svg="http://www.w3.org/2000/svg"
   xmlns="http://www.w3.org/2000/svg"
   xmlns:sodipodi="http://sodipodi.sourceforge.net/DTD/sodipodi-0.dtd"
   xmlns:inkscape="http://www.inkscape.org/namespaces/inkscape"
   sodipodi:docname="R10-3aR.svg"
   inkscape:version="1.0rc1 (09960d6f05, 2020-04-09)"
   id="svg7005"
   version="1.1"
   viewBox="0 0 23.21172 38.568489"
   height="38.568489mm"
   width="23.21172mm">
  <defs
     id="defs6999" />
  <sodipodi:namedview
     inkscape:window-maximized="1"
     inkscape:window-y="0"
     inkscape:window-x="0"
     inkscape:window-height="836"
     inkscape:window-width="1600"
     showgrid="false"
     inkscape:document-rotation="0"
     inkscape:current-layer="layer1"
     inkscape:document-units="mm"
     inkscape:cy="72.885334"
     inkscape:cx="43.864667"
     inkscape:zoom="3.959798"
     inkscape:pageshadow="2"
     inkscape:pageopacity="0.0"
     borderopacity="1.0"
     bordercolor="#666666"
     pagecolor="#ffffff"
     id="base" />
  <metadata
     id="metadata7002">
    <rdf:RDF>
      <cc:Work
         rdf:about="">
        <dc:format>image/svg+xml</dc:format>
        <dc:type
           rdf:resource="http://purl.org/dc/dcmitype/StillImage" />
        <dc:title></dc:title>
      </cc:Work>
    </rdf:RDF>
  </metadata>
  <g
     transform="translate(-181.91795,-64.626466)"
     id="layer1"
     inkscape:groupmode="layer"
     inkscape:label="Layer 1">
    <g
       id="g4030"
       transform="matrix(0.35277777,0,0,-0.35277777,205.04147,100.54771)">
      <path
         d="m 0,0 c 0,-4.006 -3.249,-7.254 -7.256,-7.254 h -50.786 c -4.007,0 -7.255,3.248 -7.255,7.254 v 94.319 c 0,4.007 3.248,7.255 7.255,7.255 H -7.256 C -3.249,101.574 0,98.326 0,94.319 Z"
         style="fill:#ffffff;fill-opacity:1;fill-rule:nonzero;stroke:none"
         id="path4032"
         inkscape:connector-curvature="0" />
    </g>
    <g
       id="g4034"
       transform="matrix(0.35277777,0,0,-0.35277777,205.04147,100.54771)">
      <path
         d="m 0,0 c 0,-4.006 -3.249,-7.254 -7.256,-7.254 h -50.786 c -4.007,0 -7.255,3.248 -7.255,7.254 v 94.319 c 0,4.007 3.248,7.255 7.255,7.255 H -7.256 C -3.249,101.574 0,98.326 0,94.319 Z"
         style="fill:none;stroke:#231f20;stroke-width:0.5;stroke-linecap:butt;stroke-linejoin:miter;stroke-miterlimit:4;stroke-dasharray:none;stroke-opacity:1"
         id="path4036"
         inkscape:connector-curvature="0" />
    </g>
    <g
       id="g4038"
       transform="matrix(0.35277777,0,0,-0.35277777,203.12166,100.54771)">
      <path
         d="M 0,0 C 0,-1 -0.813,-1.813 -1.814,-1.813 H -52.6 c -1,0 -1.814,0.813 -1.814,1.813 v 94.319 c 0,1 0.814,1.813 1.814,1.813 H -1.814 C -0.813,96.132 0,95.319 0,94.319 Z M -1.814,98.853 H -52.6 c -2.5,0 -4.535,-2.034 -4.535,-4.534 V 0 c 0,-2.5 2.035,-4.534 4.535,-4.534 h 50.786 c 2.501,0 4.535,2.034 4.535,4.534 v 94.319 c 0,2.5 -2.034,4.534 -4.535,4.534"
         style="fill:#231f20;fill-opacity:1;fill-rule:nonzero;stroke:none"
         id="path4040"
         inkscape:connector-curvature="0" />
    </g>
    <g
       id="g4042"
       transform="matrix(-0.35277777,0,0,-0.35277777,200.6949,76.87209)">
      <path
         d="m 0,0 v 14.958 h 3.318 v 4.804 l 1.032,0.23 v 1.259 l -1.145,0.457 v 0.686 H 0 v 2.06 H -1.488 V 0 Z"
         style="fill:#231f20;fill-opacity:1;fill-rule:nonzero;stroke:none"
         id="path4044"
         inkscape:connector-curvature="0" />
    </g>
    <g
       id="g4046"
       transform="matrix(-0.35277777,0,0,-0.35277777,185.82779,69.21325)">
      <path
         d="m 0,0 c 0,0 -6.885,-0.575 -12.936,3.731 -0.376,0.06 -0.774,0.257 -1.091,0.277 -3.234,-0.695 -5.874,1.032 -7.638,1.944 -1.587,0.238 -1.211,-3.292 0.693,-3.769 -1.884,-0.199 -14.978,-1.468 -14.978,-1.468 0,0 -1.232,-0.159 -1.191,-1.112 0.024,-0.595 0.158,-1.309 1.011,-1.309 h 10.338 c 0,0 0.02,-0.953 0.853,-1.687 0.992,-0.516 2.42,-1.109 2.48,-2.558 0.794,-0.735 3.055,-1.586 3.451,-3.135 0.716,-1.131 3.116,-1.27 4.008,-1.449 0.675,0.119 1.29,0.209 2.143,0.296 C -7.678,-8.096 0,-7.776 0,-7.776 Z"
         style="fill:#231f20;fill-opacity:1;fill-rule:nonzero;stroke:none"
         id="path4048"
         inkscape:connector-curvature="0" />
    </g>
    <g
       id="g4050"
       transform="matrix(0.35277777,0,0,-0.35277777,186.58097,75.59292)">
      <path
         d="m 0,0 c 0,0.441 -0.175,0.687 -0.524,0.738 h -0.899 v -1.467 h 0.899 C -0.175,-0.713 0,-0.47 0,0 m 0.711,0 c 0,-0.596 -0.21,-1.014 -0.63,-1.253 -0.217,-0.126 -0.43,-0.189 -0.64,-0.189 h -0.864 v -2.184 h -0.712 v 5.075 h 1.576 c 0.213,0 0.427,-0.061 0.64,-0.182 C 0.501,1.027 0.711,0.604 0.711,0"
         style="fill:#231f20;fill-opacity:1;fill-rule:nonzero;stroke:none"
         id="path4052"
         inkscape:connector-curvature="0" />
    </g>
    <g
       id="g4054"
       transform="matrix(0.35277777,0,0,-0.35277777,188.19352,76.388787)">
      <path
         d="m 0,0 c 0,-0.393 -0.138,-0.727 -0.414,-1.004 -0.276,-0.278 -0.613,-0.417 -1.009,-0.417 -0.393,0 -0.729,0.139 -1.007,0.417 -0.278,0.277 -0.416,0.611 -0.416,1.004 v 3.705 h 0.711 V 0.002 c 0,-0.197 0.069,-0.364 0.206,-0.503 0.137,-0.139 0.306,-0.208 0.506,-0.208 0.193,0 0.36,0.069 0.5,0.208 0.141,0.139 0.211,0.306 0.211,0.503 V 3.705 H 0 Z"
         style="fill:#231f20;fill-opacity:1;fill-rule:nonzero;stroke:none"
         id="path4056"
         inkscape:connector-curvature="0" />
    </g>
    <g
       id="g4058"
       transform="matrix(0.35277777,0,0,-0.35277777,189.50233,76.383495)">
      <path
         d="m 0,0 c 0,-0.359 -0.093,-0.667 -0.28,-0.928 -0.241,-0.339 -0.597,-0.508 -1.067,-0.508 -0.529,0 -0.924,0.169 -1.185,0.508 -0.21,0.267 -0.315,0.604 -0.315,1.011 h 0.712 c 0,-0.295 0.093,-0.513 0.279,-0.655 0.139,-0.101 0.309,-0.152 0.509,-0.152 0.406,0 0.609,0.242 0.609,0.725 0,0.379 -0.164,0.689 -0.491,0.929 -0.304,0.19 -0.611,0.377 -0.918,0.563 -0.328,0.254 -0.492,0.586 -0.492,0.995 0,0.266 0.074,0.512 0.223,0.735 0.23,0.346 0.599,0.518 1.106,0.518 0.535,0 0.914,-0.2 1.137,-0.598 C -0.082,2.977 -0.024,2.777 0,2.541 h -0.712 c 0,0.083 -0.029,0.167 -0.087,0.251 -0.102,0.158 -0.272,0.238 -0.513,0.238 -0.41,0 -0.615,-0.182 -0.615,-0.543 0,-0.2 0.166,-0.4 0.498,-0.6 0.495,-0.291 0.805,-0.496 0.93,-0.619 C -0.167,0.94 0,0.518 0,0"
         style="fill:#231f20;fill-opacity:1;fill-rule:nonzero;stroke:none"
         id="path4060"
         inkscape:connector-curvature="0" />
    </g>
    <g
       id="g4062"
       transform="matrix(0.35277777,0,0,-0.35277777,190.80937,76.87209)">
      <path
         d="M 0,0 H -0.712 V 2.337 H -2.135 V 0 h -0.712 v 5.075 h 0.712 V 3.048 h 1.423 V 5.075 H 0 Z"
         style="fill:#231f20;fill-opacity:1;fill-rule:nonzero;stroke:none"
         id="path4064"
         inkscape:connector-curvature="0" />
    </g>
    <g
       id="g4066"
       transform="matrix(0.35277777,0,0,-0.35277777,193.21002,76.33093)">
      <path
         d="m 0,0 c 0,0.338 -0.124,0.574 -0.372,0.705 -0.122,0.064 -0.251,0.098 -0.386,0.098 h -0.666 v -1.625 h 0.778 c 0.105,0 0.215,0.039 0.33,0.116 C -0.105,-0.567 0,-0.332 0,0 m -0.152,2.174 c 0,0.404 -0.192,0.623 -0.577,0.656 H -1.424 V 1.514 h 0.588 c 0.456,0 0.684,0.22 0.684,0.66 m 0.863,-2.186 c 0,-0.679 -0.244,-1.138 -0.732,-1.375 -0.206,-0.098 -0.456,-0.147 -0.747,-0.147 h -1.367 v 5.075 h 1.462 C -0.433,3.515 -0.227,3.452 -0.054,3.353 0.355,3.113 0.56,2.707 0.56,2.136 0.56,1.591 0.367,1.261 -0.019,1.145 0.468,0.879 0.711,0.492 0.711,-0.012"
         style="fill:#231f20;fill-opacity:1;fill-rule:nonzero;stroke:none"
         id="path4068"
         inkscape:connector-curvature="0" />
    </g>
    <g
       id="g4070"
       transform="matrix(0.35277777,0,0,-0.35277777,194.76895,76.388787)">
      <path
         d="m 0,0 c 0,-0.393 -0.139,-0.727 -0.415,-1.004 -0.276,-0.278 -0.612,-0.417 -1.009,-0.417 -0.393,0 -0.728,0.139 -1.006,0.417 -0.278,0.277 -0.417,0.611 -0.417,1.004 v 3.705 h 0.712 V 0.002 c 0,-0.197 0.068,-0.364 0.205,-0.503 0.138,-0.139 0.306,-0.208 0.506,-0.208 0.194,0 0.36,0.069 0.501,0.208 0.141,0.139 0.211,0.306 0.211,0.503 V 3.705 H 0 Z"
         style="fill:#231f20;fill-opacity:1;fill-rule:nonzero;stroke:none"
         id="path4072"
         inkscape:connector-curvature="0" />
    </g>
    <g
       id="g4074"
       transform="matrix(0.35277777,0,0,-0.35277777,195.93346,75.33257)">
      <path
         d="M 0,0 H -0.94 V -4.364 H -1.652 V 0 H -2.59 V 0.711 H 0 Z"
         style="fill:#231f20;fill-opacity:1;fill-rule:nonzero;stroke:none"
         id="path4076"
         inkscape:connector-curvature="0" />
    </g>
    <g
       id="g4078"
       transform="matrix(0.35277777,0,0,-0.35277777,196.95476,75.33257)">
      <path
         d="M 0,0 H -0.94 V -4.364 H -1.652 V 0 H -2.59 V 0.711 H 0 Z"
         style="fill:#231f20;fill-opacity:1;fill-rule:nonzero;stroke:none"
         id="path4080"
         inkscape:connector-curvature="0" />
    </g>
    <g
       id="g4082"
       transform="matrix(0.35277777,0,0,-0.35277777,197.97534,75.976706)">
      <path
         d="M 0,0 C 0,0.432 -0.044,0.809 -0.132,1.131 -0.264,1.628 -0.483,1.877 -0.787,1.877 -1.092,1.877 -1.31,1.628 -1.443,1.131 -1.53,0.809 -1.574,0.432 -1.574,0 c 0,-0.434 0.044,-0.811 0.131,-1.131 0.133,-0.498 0.351,-0.746 0.656,-0.746 0.304,0 0.523,0.248 0.655,0.746 C -0.044,-0.811 0,-0.434 0,0 m 0.712,0 c 0,-0.623 -0.072,-1.139 -0.214,-1.549 -0.244,-0.693 -0.672,-1.04 -1.285,-1.04 -0.614,0 -1.042,0.347 -1.286,1.04 -0.142,0.41 -0.213,0.926 -0.213,1.549 0,1.725 0.5,2.588 1.499,2.588 0.999,0 1.499,-0.863 1.499,-2.588"
         style="fill:#231f20;fill-opacity:1;fill-rule:nonzero;stroke:none"
         id="path4084"
         inkscape:connector-curvature="0" />
    </g>
    <g
       id="g4086"
       transform="matrix(0.35277777,0,0,-0.35277777,199.58824,76.87209)">
      <path
         d="M 0,0 H -0.712 L -2.135,3.286 V 0 h -0.712 v 5.075 h 0.711 l 1.422,-3.277 0.002,3.277 H 0 Z"
         style="fill:#231f20;fill-opacity:1;fill-rule:nonzero;stroke:none"
         id="path4088"
         inkscape:connector-curvature="0" />
    </g>
    <g
       id="g4090"
       transform="matrix(0.35277777,0,0,-0.35277777,186.90693,79.840364)">
      <path
         d="M 0,0 H -1.671 V -6.097 H -2.829 V 0 H -4.498 V 1.159 H 0 Z"
         style="fill:#231f20;fill-opacity:1;fill-rule:nonzero;stroke:none"
         id="path4092"
         inkscape:connector-curvature="0" />
    </g>
    <g
       id="g4094"
       transform="matrix(0.35277777,0,0,-0.35277777,188.64895,80.711372)">
      <path
         d="m 0,0 c 0,0.741 -0.109,1.335 -0.327,1.78 -0.247,0.51 -0.61,0.764 -1.09,0.764 -0.485,0 -0.848,-0.254 -1.09,-0.764 C -2.725,1.34 -2.834,0.746 -2.834,0 c 0,-0.741 0.109,-1.335 0.327,-1.781 0.247,-0.509 0.61,-0.763 1.09,-0.763 0.48,0 0.843,0.254 1.09,0.763 C -0.109,-1.335 0,-0.741 0,0 m 1.159,0 c 0,-0.978 -0.174,-1.794 -0.522,-2.447 -0.45,-0.837 -1.135,-1.256 -2.054,-1.256 -0.924,0 -1.608,0.419 -2.053,1.256 -0.349,0.648 -0.523,1.464 -0.523,2.447 0,0.982 0.174,1.798 0.523,2.446 0.445,0.838 1.129,1.257 2.053,1.257 0.919,0 1.604,-0.419 2.054,-1.257 C 0.985,1.793 1.159,0.977 1.159,0"
         style="fill:#231f20;fill-opacity:1;fill-rule:nonzero;stroke:none"
         id="path4096"
         inkscape:connector-curvature="0" />
    </g>
    <g
       id="g4098"
       transform="matrix(0.35277777,0,0,-0.35277777,193.09642,81.46173)">
      <path
         d="m 0,0 c -0.44,-1.051 -1.207,-1.576 -2.3,-1.576 -0.943,0 -1.64,0.419 -2.089,1.256 -0.353,0.648 -0.53,1.464 -0.53,2.447 0,0.987 0.174,1.803 0.522,2.446 0.455,0.838 1.154,1.257 2.097,1.257 1.064,0 1.836,-0.511 2.314,-1.533 L -1.082,3.847 C -1.3,4.395 -1.706,4.671 -2.301,4.671 -2.804,4.671 -3.182,4.417 -3.433,3.907 -3.651,3.472 -3.76,2.878 -3.76,2.127 c 0,-0.751 0.109,-1.345 0.327,-1.781 0.246,-0.509 0.624,-0.763 1.132,-0.763 0.556,0 0.968,0.281 1.234,0.846 z"
         style="fill:#231f20;fill-opacity:1;fill-rule:nonzero;stroke:none"
         id="path4100"
         inkscape:connector-curvature="0" />
    </g>
    <g
       id="g4102"
       transform="matrix(0.35277777,0,0,-0.35277777,194.96191,80.143399)">
      <path
         d="m 0,0 c 0,0.242 -0.081,0.447 -0.243,0.612 -0.162,0.164 -0.364,0.247 -0.606,0.247 h -1.67 v -1.745 h 1.67 c 0.242,0 0.444,0.085 0.606,0.257 C -0.081,-0.456 0,-0.246 0,0 M 1.256,-5.238 H 0.029 l -1.169,3.193 h -1.379 v -3.193 h -1.159 v 7.256 h 2.821 c 0.556,0 1.031,-0.197 1.425,-0.592 C 0.962,1.032 1.159,0.557 1.159,0 c 0,-0.812 -0.384,-1.422 -1.151,-1.828 z"
         style="fill:#231f20;fill-opacity:1;fill-rule:nonzero;stroke:none"
         id="path4104"
         inkscape:connector-curvature="0" />
    </g>
    <g
       id="g4106"
       transform="matrix(0.35277777,0,0,-0.35277777,197.19746,80.711372)">
      <path
         d="m 0,0 c 0,0.741 -0.109,1.335 -0.327,1.78 -0.247,0.51 -0.61,0.764 -1.09,0.764 -0.484,0 -0.847,-0.254 -1.09,-0.764 C -2.725,1.34 -2.834,0.746 -2.834,0 c 0,-0.741 0.109,-1.335 0.327,-1.781 0.247,-0.509 0.611,-0.763 1.09,-0.763 0.48,0 0.843,0.254 1.09,0.763 C -0.109,-1.335 0,-0.741 0,0 m 1.159,0 c 0,-0.978 -0.174,-1.794 -0.523,-2.447 -0.449,-0.837 -1.134,-1.256 -2.053,-1.256 -0.924,0 -1.608,0.419 -2.053,1.256 -0.349,0.648 -0.522,1.464 -0.522,2.447 0,0.982 0.173,1.798 0.522,2.446 0.445,0.838 1.129,1.257 2.053,1.257 0.919,0 1.604,-0.419 2.053,-1.257 C 0.985,1.793 1.159,0.977 1.159,0"
         style="fill:#231f20;fill-opacity:1;fill-rule:nonzero;stroke:none"
         id="path4108"
         inkscape:connector-curvature="0" />
    </g>
    <g
       id="g4110"
       transform="matrix(0.35277777,0,0,-0.35277777,199.73111,81.231365)">
      <path
         d="m 0,0 c 0,-0.653 -0.234,-1.188 -0.704,-1.605 -0.468,-0.416 -1.046,-0.624 -1.733,-0.624 -0.87,0 -1.547,0.314 -2.03,0.944 -0.204,0.262 -0.358,0.576 -0.464,0.944 L -3.858,0 c 0.199,-0.714 0.677,-1.07 1.437,-1.07 0.324,0 0.609,0.094 0.856,0.283 0.27,0.207 0.406,0.469 0.406,0.784 0,0.411 -0.307,0.739 -0.921,0.981 -0.57,0.222 -1.14,0.446 -1.71,0.669 -0.614,0.357 -0.921,0.881 -0.921,1.568 0,0.586 0.169,1.049 0.508,1.388 0.387,0.383 0.969,0.574 1.747,0.574 1.015,0 1.745,-0.489 2.19,-1.468 L -1.347,3.367 c -0.208,0.434 -0.575,0.651 -1.103,0.651 -0.735,0 -1.102,-0.266 -1.102,-0.799 0,-0.344 0.307,-0.62 0.921,-0.828 C -1.67,2.061 -1.1,1.841 -0.921,1.73 -0.307,1.342 0,0.766 0,0"
         style="fill:#231f20;fill-opacity:1;fill-rule:nonzero;stroke:none"
         id="path4112"
         inkscape:connector-curvature="0" />
    </g>
    <g
       id="g4114"
       transform="matrix(0.35277777,0,0,-0.35277777,201.72748,81.231365)">
      <path
         d="m 0,0 c 0,-0.653 -0.235,-1.188 -0.704,-1.605 -0.469,-0.416 -1.046,-0.624 -1.733,-0.624 -0.87,0 -1.547,0.314 -2.03,0.944 -0.203,0.262 -0.358,0.576 -0.465,0.944 L -3.858,0 c 0.198,-0.714 0.677,-1.07 1.437,-1.07 0.324,0 0.609,0.094 0.856,0.283 0.271,0.207 0.406,0.469 0.406,0.784 0,0.411 -0.307,0.739 -0.921,0.981 -0.57,0.222 -1.14,0.446 -1.71,0.669 -0.614,0.357 -0.921,0.881 -0.921,1.568 0,0.586 0.169,1.049 0.507,1.388 0.387,0.383 0.97,0.574 1.748,0.574 1.015,0 1.745,-0.489 2.189,-1.468 l -1.08,-0.342 c -0.208,0.434 -0.576,0.651 -1.103,0.651 -0.734,0 -1.102,-0.266 -1.102,-0.799 0,-0.344 0.306,-0.62 0.92,-0.828 C -1.67,2.061 -1.1,1.841 -0.921,1.73 -0.307,1.342 0,0.766 0,0"
         style="fill:#231f20;fill-opacity:1;fill-rule:nonzero;stroke:none"
         id="path4116"
         inkscape:connector-curvature="0" />
    </g>
    <g
       id="g4118"
       transform="matrix(0.35277777,0,0,-0.35277777,186.86883,89.295865)">
      <path
         d="m 0,0 -1.175,-4.688 h -1.103 l -0.951,7.256 h 1.176 l 0.508,-3.918 0.986,3.918 H 0.559 L 1.545,-1.35 2.053,2.568 H 3.228 L 2.278,-4.688 H 1.175 Z"
         style="fill:#231f20;fill-opacity:1;fill-rule:nonzero;stroke:none"
         id="path4120"
         inkscape:connector-curvature="0" />
    </g>
    <g
       id="g4122"
       transform="matrix(0.35277777,0,0,-0.35277777,189.51784,89.822881)">
      <path
         d="M 0,0 -0.761,2.212 -1.516,0 Z M 2.322,-3.194 H 1.096 L 0.399,-1.158 H -1.93 l -0.682,-2.036 h -1.233 l 2.496,7.256 h 1.175 z"
         style="fill:#231f20;fill-opacity:1;fill-rule:nonzero;stroke:none"
         id="path4124"
         inkscape:connector-curvature="0" />
    </g>
    <path
       d="m 191.13049,90.949688 h -0.40887 v -2.559755 h 0.40887 z"
       style="fill:#231f20;fill-opacity:1;fill-rule:nonzero;stroke:none;stroke-width:0.352777"
       id="path4126"
       inkscape:connector-curvature="0" />
    <g
       id="g4128"
       transform="matrix(0.35277777,0,0,-0.35277777,193.101,88.798803)">
      <path
         d="M 0,0 H -1.67 V -6.097 H -2.829 V 0 H -4.498 V 1.159 H 0 Z"
         style="fill:#231f20;fill-opacity:1;fill-rule:nonzero;stroke:none"
         id="path4130"
         inkscape:connector-curvature="0" />
    </g>
    <g
       id="g4132"
       transform="matrix(0.35277777,0,0,-0.35277777,195.27729,90.949689)">
      <path
         d="M 0,0 V 7.256 H 4.498 V 6.097 H 1.159 V 4.353 H 3.337 V 3.194 H 1.159 V 0 Z"
         style="fill:#231f20;fill-opacity:1;fill-rule:nonzero;stroke:none"
         id="path4134"
         inkscape:connector-curvature="0" />
    </g>
    <g
       id="g4136"
       transform="matrix(0.35277777,0,0,-0.35277777,198.6054,89.669809)">
      <path
         d="m 0,0 c 0,0.742 -0.108,1.335 -0.327,1.782 -0.247,0.508 -0.61,0.763 -1.09,0.763 -0.484,0 -0.847,-0.255 -1.09,-0.763 C -2.725,1.34 -2.834,0.746 -2.834,0 c 0,-0.741 0.109,-1.335 0.327,-1.781 0.247,-0.509 0.611,-0.763 1.09,-0.763 0.48,0 0.843,0.254 1.09,0.763 C -0.108,-1.335 0,-0.741 0,0 m 1.159,0 c 0,-0.977 -0.174,-1.793 -0.522,-2.447 -0.45,-0.837 -1.135,-1.256 -2.054,-1.256 -0.923,0 -1.608,0.419 -2.053,1.256 -0.348,0.65 -0.522,1.465 -0.522,2.447 0,0.983 0.174,1.799 0.522,2.448 0.445,0.837 1.13,1.255 2.053,1.255 0.919,0 1.604,-0.418 2.054,-1.255 C 0.985,1.794 1.159,0.978 1.159,0"
         style="fill:#231f20;fill-opacity:1;fill-rule:nonzero;stroke:none"
         id="path4138"
         inkscape:connector-curvature="0" />
    </g>
    <g
       id="g4140"
       transform="matrix(0.35277777,0,0,-0.35277777,200.87482,89.101132)">
      <path
         d="M 0,0 C 0,0.242 -0.081,0.445 -0.244,0.61 -0.406,0.775 -0.608,0.857 -0.85,0.857 h -1.669 v -1.744 h 1.669 c 0.242,0 0.444,0.086 0.606,0.258 C -0.081,-0.457 0,-0.247 0,0 M 1.255,-5.24 H 0.028 l -1.169,3.194 H -2.519 V -5.24 h -1.16 v 7.256 h 2.822 c 0.555,0 1.03,-0.197 1.424,-0.592 0.395,-0.394 0.591,-0.869 0.591,-1.425 0,-0.813 -0.383,-1.422 -1.151,-1.828 z"
         style="fill:#231f20;fill-opacity:1;fill-rule:nonzero;stroke:none"
         id="path4142"
         inkscape:connector-curvature="0" />
    </g>
    <g
       id="g4144"
       transform="matrix(0.35277777,0,0,-0.35277777,186.39647,85.710198)">
      <path
         d="m 0,0 c 0,-0.653 -0.234,-1.189 -0.703,-1.605 -0.47,-0.416 -1.047,-0.625 -1.733,-0.625 -0.871,0 -1.548,0.315 -2.031,0.945 -0.203,0.261 -0.358,0.576 -0.464,0.943 L -3.858,0 c 0.199,-0.714 0.678,-1.071 1.437,-1.071 0.324,0 0.609,0.094 0.856,0.283 0.271,0.208 0.406,0.47 0.406,0.785 0,0.411 -0.307,0.738 -0.92,0.981 C -2.65,1.2 -3.22,1.423 -3.79,1.646 c -0.614,0.358 -0.921,0.88 -0.921,1.569 0,0.586 0.169,1.048 0.508,1.388 0.387,0.382 0.969,0.574 1.747,0.574 1.015,0 1.745,-0.49 2.19,-1.469 L -1.347,3.366 c -0.208,0.434 -0.576,0.652 -1.102,0.652 -0.735,0 -1.103,-0.267 -1.103,-0.8 0,-0.344 0.307,-0.619 0.92,-0.828 C -1.67,2.061 -1.099,1.841 -0.921,1.729 -0.307,1.342 0,0.766 0,0"
         style="fill:#231f20;fill-opacity:1;fill-rule:nonzero;stroke:none"
         id="path4146"
         inkscape:connector-curvature="0" />
    </g>
    <g
       id="g4148"
       transform="matrix(0.35277777,0,0,-0.35277777,188.18681,84.319582)">
      <path
         d="M 0,0 H -1.67 V -6.096 H -2.83 V 0 H -4.499 V 1.159 H 0 Z"
         style="fill:#231f20;fill-opacity:1;fill-rule:nonzero;stroke:none"
         id="path4150"
         inkscape:connector-curvature="0" />
    </g>
    <g
       id="g4152"
       transform="matrix(0.35277777,0,0,-0.35277777,189.86886,84.622265)">
      <path
         d="M 0,0 C 0,0.243 -0.081,0.446 -0.243,0.61 -0.405,0.775 -0.607,0.858 -0.85,0.858 h -1.669 v -1.745 h 1.669 c 0.243,0 0.445,0.086 0.607,0.259 C -0.081,-0.456 0,-0.247 0,0 M 1.255,-5.238 H 0.029 l -1.169,3.192 h -1.379 v -3.192 h -1.159 v 7.255 h 2.821 c 0.556,0 1.031,-0.198 1.425,-0.592 C 0.962,1.031 1.159,0.556 1.159,0 c 0,-0.813 -0.384,-1.423 -1.151,-1.829 z"
         style="fill:#231f20;fill-opacity:1;fill-rule:nonzero;stroke:none"
         id="path4154"
         inkscape:connector-curvature="0" />
    </g>
    <g
       id="g4156"
       transform="matrix(0.35277777,0,0,-0.35277777,192.33372,86.470115)">
      <path
         d="m 0,0 h -4.498 v 7.255 h 4.353 V 6.096 H -3.339 V 4.351 h 2.208 V 3.192 H -3.339 V 1.158 H 0 Z"
         style="fill:#231f20;fill-opacity:1;fill-rule:nonzero;stroke:none"
         id="path4158"
         inkscape:connector-curvature="0" />
    </g>
    <g
       id="g4160"
       transform="matrix(0.35277777,0,0,-0.35277777,194.35584,86.470115)">
      <path
         d="m 0,0 h -4.499 v 7.255 h 4.354 V 6.096 H -3.34 V 4.351 h 2.208 V 3.192 H -3.34 V 1.158 H 0 Z"
         style="fill:#231f20;fill-opacity:1;fill-rule:nonzero;stroke:none"
         id="path4162"
         inkscape:connector-curvature="0" />
    </g>
    <g
       id="g4164"
       transform="matrix(0.35277777,0,0,-0.35277777,196.14654,84.319582)">
      <path
         d="M 0,0 H -1.67 V -6.096 H -2.829 V 0 H -4.498 V 1.159 H 0 Z"
         style="fill:#231f20;fill-opacity:1;fill-rule:nonzero;stroke:none"
         id="path4166"
         inkscape:connector-curvature="0" />
    </g>
    <g
       id="g4168"
       transform="matrix(-0.35277777,0,0,-0.35277777,199.16208,83.005487)">
      <path
         d="M 0,0 -9.151,-6.189 0,-12.389 c 0.403,-0.273 0.955,-0.169 1.23,0.235 0.183,0.269 0.15,0.549 0.066,0.881 l -0.808,2.685 h 6.201 v 4.794 H 0.488 l 0.789,2.643 C 1.379,-0.786 1.421,-0.516 1.23,-0.234 0.955,0.17 0.403,0.274 0,0"
         style="fill:#231f20;fill-opacity:1;fill-rule:evenodd;stroke:none"
         id="path4170"
         inkscape:connector-curvature="0" />
    </g>
    <path
       d="m 190.03336,92.869151 h 6.98076 v 6.398683 h -6.98076 z"
       style="fill:#231f20;fill-opacity:1;fill-rule:evenodd;stroke:none;stroke-width:0.352777"
       id="path4172"
       inkscape:connector-curvature="0" />
    <g
       id="g4174"
       transform="matrix(0.35277777,0,0,-0.35277777,194.0842,93.558832)">
      <path
         d="m 0,0 c -0.574,0 -1.043,-0.47 -1.043,-1.042 0,-0.572 0.469,-1.041 1.043,-1.041 0.573,0 1.039,0.469 1.039,1.041 C 1.039,-0.47 0.573,0 0,0"
         style="fill:#ffffff;fill-opacity:1;fill-rule:evenodd;stroke:none"
         id="path4176"
         inkscape:connector-curvature="0" />
    </g>
    <g
       id="g4178"
       transform="matrix(0.35277777,0,0,-0.35277777,195.19545,95.874431)">
      <path
         d="m 0,0 -2.183,1.456 c -0.1,0.427 -0.519,2.32 -1.36,2.757 C -4.375,4.765 -7.44,2.505 -7.459,2.486 V -0.81 l 0.665,0.116 0.261,2.631 c 0.249,0.051 0.501,0.101 0.75,0.151 -0.547,-1.415 -0.748,-2.78 -0.432,-3.677 l -1.331,-5.436 0.897,-0.637 1.938,5.031 0.896,-0.953 1.243,-3.788 1.185,0.433 -1.07,3.991 -1.243,2.226 0.476,1.642 0.507,-0.66 2.37,-0.781 z"
         style="fill:#ffffff;fill-opacity:1;fill-rule:evenodd;stroke:none"
         id="path4180"
         inkscape:connector-curvature="0" />
    </g>
  </g>
</svg>
