<?xml version="1.0" encoding="UTF-8" standalone="no"?>
<!-- Created with Inkscape (http://www.inkscape.org/) -->

<svg
   width="31.926741mm"
   height="38.276741mm"
   viewBox="0 0 31.926741 38.276741"
   version="1.1"
   id="svg1"
   inkscape:version="1.3 (0e150ed, 2023-07-21)"
   sodipodi:docname="MUTCD_R12-7.svg"
   xmlns:inkscape="http://www.inkscape.org/namespaces/inkscape"
   xmlns:sodipodi="http://sodipodi.sourceforge.net/DTD/sodipodi-0.dtd"
   xmlns="http://www.w3.org/2000/svg"
   xmlns:svg="http://www.w3.org/2000/svg">
  <sodipodi:namedview
     id="namedview1"
     pagecolor="#ffffff"
     bordercolor="#666666"
     borderopacity="1.0"
     inkscape:showpageshadow="2"
     inkscape:pageopacity="0.0"
     inkscape:pagecheckerboard="0"
     inkscape:deskcolor="#d1d1d1"
     inkscape:document-units="mm"
     inkscape:zoom="1"
     inkscape:cx="62"
     inkscape:cy="72"
     inkscape:window-width="1440"
     inkscape:window-height="431"
     inkscape:window-x="0"
     inkscape:window-y="23"
     inkscape:window-maximized="0"
     inkscape:current-layer="layer1" />
  <defs
     id="defs1">
    <clipPath
       clipPathUnits="userSpaceOnUse"
       id="clipPath530">
      <path
         d="M 31.251,41 H 535.75 V 579.254 H 31.251 Z"
         transform="translate(-292.49911,-60.110102)"
         id="path530" />
    </clipPath>
    <clipPath
       clipPathUnits="userSpaceOnUse"
       id="clipPath532">
      <path
         d="M 31.251,41 H 535.75 V 579.254 H 31.251 Z"
         transform="translate(-373.49951,-168.48591)"
         id="path532" />
    </clipPath>
    <clipPath
       clipPathUnits="userSpaceOnUse"
       id="clipPath534">
      <path
         d="M 31.251,41 H 535.75 V 579.254 H 31.251 Z"
         transform="translate(-374.99951,-64.735104)"
         id="path534" />
    </clipPath>
    <clipPath
       clipPathUnits="userSpaceOnUse"
       id="clipPath536">
      <path
         d="M 31.251,41 H 535.75 V 579.254 H 31.251 Z"
         transform="translate(-298.3729,-159.2358)"
         id="path536" />
    </clipPath>
    <clipPath
       clipPathUnits="userSpaceOnUse"
       id="clipPath538">
      <path
         d="M 31.251,41 H 535.75 V 579.254 H 31.251 Z"
         transform="translate(-311.08511,-155.4468)"
         id="path538" />
    </clipPath>
    <clipPath
       clipPathUnits="userSpaceOnUse"
       id="clipPath540">
      <path
         d="M 31.251,41 H 535.75 V 579.254 H 31.251 Z"
         transform="translate(-314.66961,-159.2358)"
         id="path540" />
    </clipPath>
    <clipPath
       clipPathUnits="userSpaceOnUse"
       id="clipPath542">
      <path
         d="M 31.251,41 H 535.75 V 579.254 H 31.251 Z"
         transform="translate(-324.98921,-155.6043)"
         id="path542" />
    </clipPath>
    <clipPath
       clipPathUnits="userSpaceOnUse"
       id="clipPath544">
      <path
         d="M 31.251,41 H 535.75 V 579.254 H 31.251 Z"
         transform="translate(-332.52111,-159.3922)"
         id="path544" />
    </clipPath>
    <clipPath
       clipPathUnits="userSpaceOnUse"
       id="clipPath546">
      <path
         d="M 31.251,41 H 535.75 V 579.254 H 31.251 Z"
         transform="translate(-337.36541,-159.2358)"
         id="path546" />
    </clipPath>
    <clipPath
       clipPathUnits="userSpaceOnUse"
       id="clipPath548">
      <path
         d="M 31.251,41 H 535.75 V 579.254 H 31.251 Z"
         transform="translate(-345.89751,-156.33)"
         id="path548" />
    </clipPath>
    <clipPath
       clipPathUnits="userSpaceOnUse"
       id="clipPath550">
      <path
         d="M 31.251,41 H 535.75 V 579.254 H 31.251 Z"
         transform="translate(-352.58461,-154.75161)"
         id="path550" />
    </clipPath>
    <clipPath
       clipPathUnits="userSpaceOnUse"
       id="clipPath552">
      <path
         d="M 31.251,41 H 535.75 V 579.254 H 31.251 Z"
         transform="translate(-364.48351,-150.2358)"
         id="path552" />
    </clipPath>
    <clipPath
       clipPathUnits="userSpaceOnUse"
       id="clipPath554">
      <path
         d="M 31.251,41 H 535.75 V 579.254 H 31.251 Z"
         transform="translate(-312.03371,-135.23571)"
         id="path554" />
    </clipPath>
    <clipPath
       clipPathUnits="userSpaceOnUse"
       id="clipPath556">
      <path
         d="M 31.251,41 H 535.75 V 579.254 H 31.251 Z"
         transform="translate(-317.37651,-144.2358)"
         id="path556" />
    </clipPath>
    <clipPath
       clipPathUnits="userSpaceOnUse"
       id="clipPath558">
      <path
         d="M 31.251,41 H 535.75 V 579.254 H 31.251 Z"
         transform="translate(-329.19441,-139.15191)"
         id="path558" />
    </clipPath>
    <clipPath
       clipPathUnits="userSpaceOnUse"
       id="clipPath560">
      <path
         d="M 31.251,41 H 535.75 V 579.254 H 31.251 Z"
         id="path560" />
    </clipPath>
    <clipPath
       clipPathUnits="userSpaceOnUse"
       id="clipPath562">
      <path
         d="M 31.251,41 H 535.75 V 579.254 H 31.251 Z"
         transform="translate(-336.19531,-139.7515)"
         id="path562" />
    </clipPath>
    <clipPath
       clipPathUnits="userSpaceOnUse"
       id="clipPath564">
      <path
         d="M 31.251,41 H 535.75 V 579.254 H 31.251 Z"
         transform="translate(-344.30221,-144.2358)"
         id="path564" />
    </clipPath>
    <clipPath
       clipPathUnits="userSpaceOnUse"
       id="clipPath566">
      <path
         d="M 31.251,41 H 535.75 V 579.254 H 31.251 Z"
         transform="translate(-351.23431,-144.2358)"
         id="path566" />
    </clipPath>
    <clipPath
       clipPathUnits="userSpaceOnUse"
       id="clipPath568">
      <path
         d="M 31.251,41 H 535.75 V 579.254 H 31.251 Z"
         transform="translate(-300.84021,-120.23571)"
         id="path568" />
    </clipPath>
    <clipPath
       clipPathUnits="userSpaceOnUse"
       id="clipPath570">
      <path
         d="M 31.251,41 H 535.75 V 579.254 H 31.251 Z"
         transform="translate(-304.78731,-129.23571)"
         id="path570" />
    </clipPath>
    <clipPath
       clipPathUnits="userSpaceOnUse"
       id="clipPath572">
      <path
         d="M 31.251,41 H 535.75 V 579.254 H 31.251 Z"
         id="path572" />
    </clipPath>
    <clipPath
       clipPathUnits="userSpaceOnUse"
       id="clipPath574">
      <path
         d="M 31.251,41 H 535.75 V 579.254 H 31.251 Z"
         transform="translate(-318.58261,-129.3921)"
         id="path574" />
    </clipPath>
    <clipPath
       clipPathUnits="userSpaceOnUse"
       id="clipPath576">
      <path
         d="M 31.251,41 H 535.75 V 579.254 H 31.251 Z"
         transform="translate(-328.13311,-124.1518)"
         id="path576" />
    </clipPath>
    <clipPath
       clipPathUnits="userSpaceOnUse"
       id="clipPath578">
      <path
         d="M 31.251,41 H 535.75 V 579.254 H 31.251 Z"
         transform="translate(-334.39311,-120.23571)"
         id="path578" />
    </clipPath>
    <clipPath
       clipPathUnits="userSpaceOnUse"
       id="clipPath580">
      <path
         d="M 31.251,41 H 535.75 V 579.254 H 31.251 Z"
         transform="translate(-342.48681,-129.23571)"
         id="path580" />
    </clipPath>
    <clipPath
       clipPathUnits="userSpaceOnUse"
       id="clipPath582">
      <path
         d="M 31.251,41 H 535.75 V 579.254 H 31.251 Z"
         id="path582" />
    </clipPath>
    <clipPath
       clipPathUnits="userSpaceOnUse"
       id="clipPath584">
      <path
         d="M 31.251,41 H 535.75 V 579.254 H 31.251 Z"
         transform="translate(-358.61931,-125.44671)"
         id="path584" />
    </clipPath>
    <clipPath
       clipPathUnits="userSpaceOnUse"
       id="clipPath586">
      <path
         d="M 31.251,41 H 535.75 V 579.254 H 31.251 Z"
         id="path586" />
    </clipPath>
    <clipPath
       clipPathUnits="userSpaceOnUse"
       id="clipPath588">
      <path
         d="M 31.251,41 H 535.75 V 579.254 H 31.251 Z"
         transform="translate(-368.48251,-120.23571)"
         id="path588" />
    </clipPath>
    <clipPath
       clipPathUnits="userSpaceOnUse"
       id="clipPath590">
      <path
         d="M 31.251,41 H 535.75 V 579.254 H 31.251 Z"
         transform="translate(-295.0807,-104.95731)"
         id="path590" />
    </clipPath>
    <clipPath
       clipPathUnits="userSpaceOnUse"
       id="clipPath592">
      <path
         d="M 31.251,41 H 535.75 V 579.254 H 31.251 Z"
         id="path592" />
    </clipPath>
    <clipPath
       clipPathUnits="userSpaceOnUse"
       id="clipPath594">
      <path
         d="M 31.251,41 H 535.75 V 579.254 H 31.251 Z"
         transform="translate(-302.55001,-105.2667)"
         id="path594" />
    </clipPath>
    <clipPath
       clipPathUnits="userSpaceOnUse"
       id="clipPath596">
      <path
         d="M 31.251,41 H 535.75 V 579.254 H 31.251 Z"
         transform="translate(-310.35211,-99.078002)"
         id="path596" />
    </clipPath>
    <clipPath
       clipPathUnits="userSpaceOnUse"
       id="clipPath598">
      <path
         d="M 31.251,41 H 535.75 V 579.254 H 31.251 Z"
         transform="translate(-313.86351,-108.2356)"
         id="path598" />
    </clipPath>
    <clipPath
       clipPathUnits="userSpaceOnUse"
       id="clipPath600">
      <path
         d="M 31.251,41 H 535.75 V 579.254 H 31.251 Z"
         transform="translate(-319.33791,-108.2356)"
         id="path600" />
    </clipPath>
    <clipPath
       clipPathUnits="userSpaceOnUse"
       id="clipPath602">
      <path
         d="M 31.251,41 H 535.75 V 579.254 H 31.251 Z"
         transform="translate(-330.64621,-102.9615)"
         id="path602" />
    </clipPath>
    <clipPath
       clipPathUnits="userSpaceOnUse"
       id="clipPath604">
      <path
         d="M 31.251,41 H 535.75 V 579.254 H 31.251 Z"
         transform="translate(-337.21081,-102.29781)"
         id="path604" />
    </clipPath>
    <clipPath
       clipPathUnits="userSpaceOnUse"
       id="clipPath606">
      <path
         d="M 31.251,41 H 535.75 V 579.254 H 31.251 Z"
         transform="translate(-340.76491,-108.2356)"
         id="path606" />
    </clipPath>
    <clipPath
       clipPathUnits="userSpaceOnUse"
       id="clipPath608">
      <path
         d="M 31.251,41 H 535.75 V 579.254 H 31.251 Z"
         transform="translate(-346.23921,-108.2356)"
         id="path608" />
    </clipPath>
    <clipPath
       clipPathUnits="userSpaceOnUse"
       id="clipPath610">
      <path
         d="M 31.251,41 H 535.75 V 579.254 H 31.251 Z"
         transform="translate(-360.21041,-106.6245)"
         id="path610" />
    </clipPath>
    <clipPath
       clipPathUnits="userSpaceOnUse"
       id="clipPath612">
      <path
         d="M 31.251,41 H 535.75 V 579.254 H 31.251 Z"
         transform="translate(-368.09701,-100.4989)"
         id="path612" />
    </clipPath>
    <clipPath
       clipPathUnits="userSpaceOnUse"
       id="clipPath614">
      <path
         d="M 31.251,41 H 535.75 V 579.254 H 31.251 Z"
         transform="translate(-371.85241,-99.235502)"
         id="path614" />
    </clipPath>
    <clipPath
       clipPathUnits="userSpaceOnUse"
       id="clipPath616">
      <path
         d="M 31.251,41 H 535.75 V 579.254 H 31.251 Z"
         transform="translate(-295.44391,-84.235202)"
         id="path616" />
    </clipPath>
    <clipPath
       clipPathUnits="userSpaceOnUse"
       id="clipPath618">
      <path
         d="M 31.251,41 H 535.75 V 579.254 H 31.251 Z"
         transform="translate(-299.8471,-87.961202)"
         id="path618" />
    </clipPath>
    <clipPath
       clipPathUnits="userSpaceOnUse"
       id="clipPath620">
      <path
         d="M 31.251,41 H 535.75 V 579.254 H 31.251 Z"
         transform="translate(-305.94461,-90.266305)"
         id="path620" />
    </clipPath>
    <clipPath
       clipPathUnits="userSpaceOnUse"
       id="clipPath622">
      <path
         d="M 31.251,41 H 535.75 V 579.254 H 31.251 Z"
         transform="translate(-313.97601,-91.971805)"
         id="path622" />
    </clipPath>
    <clipPath
       clipPathUnits="userSpaceOnUse"
       id="clipPath624">
      <path
         d="M 31.251,41 H 535.75 V 579.254 H 31.251 Z"
         transform="translate(-318.51781,-93.235202)"
         id="path624" />
    </clipPath>
    <clipPath
       clipPathUnits="userSpaceOnUse"
       id="clipPath626">
      <path
         d="M 31.251,41 H 535.75 V 579.254 H 31.251 Z"
         transform="translate(-329.28821,-89.287502)"
         id="path626" />
    </clipPath>
    <clipPath
       clipPathUnits="userSpaceOnUse"
       id="clipPath628">
      <path
         d="M 31.251,41 H 535.75 V 579.254 H 31.251 Z"
         transform="translate(-361.43441,-85.498502)"
         id="path628" />
    </clipPath>
    <clipPath
       clipPathUnits="userSpaceOnUse"
       id="clipPath630">
      <path
         d="M 31.251,41 H 535.75 V 579.254 H 31.251 Z"
         transform="translate(-364.02101,-87.079105)"
         id="path630" />
    </clipPath>
    <clipPath
       clipPathUnits="userSpaceOnUse"
       id="clipPath632">
      <path
         d="M 31.251,41 H 535.75 V 579.254 H 31.251 Z"
         transform="translate(-371.85241,-84.235202)"
         id="path632" />
    </clipPath>
    <clipPath
       clipPathUnits="userSpaceOnUse"
       id="clipPath634">
      <path
         d="M 31.251,41 H 535.75 V 579.254 H 31.251 Z"
         transform="translate(-295.28991,-69.077604)"
         id="path634" />
    </clipPath>
    <clipPath
       clipPathUnits="userSpaceOnUse"
       id="clipPath636">
      <path
         d="M 31.251,41 H 535.75 V 579.254 H 31.251 Z"
         transform="translate(-300.63281,-76.971699)"
         id="path636" />
    </clipPath>
    <clipPath
       clipPathUnits="userSpaceOnUse"
       id="clipPath638">
      <path
         d="M 31.251,41 H 535.75 V 579.254 H 31.251 Z"
         transform="translate(-308.39001,-77.129199)"
         id="path638" />
    </clipPath>
    <clipPath
       clipPathUnits="userSpaceOnUse"
       id="clipPath640">
      <path
         d="M 31.251,41 H 535.75 V 579.254 H 31.251 Z"
         transform="translate(-314.97821,-74.956802)"
         id="path640" />
    </clipPath>
    <clipPath
       clipPathUnits="userSpaceOnUse"
       id="clipPath642">
      <path
         d="M 31.251,41 H 535.75 V 579.254 H 31.251 Z"
         transform="translate(-321.10071,-74.956802)"
         id="path642" />
    </clipPath>
    <clipPath
       clipPathUnits="userSpaceOnUse"
       id="clipPath644">
      <path
         d="M 31.251,41 H 535.75 V 579.254 H 31.251 Z"
         transform="translate(-357.70831,-72.614604)"
         id="path644" />
    </clipPath>
    <clipPath
       clipPathUnits="userSpaceOnUse"
       id="clipPath646">
      <path
         d="M 31.251,41 H 535.75 V 579.254 H 31.251 Z"
         transform="translate(-365.59271,-77.130399)"
         id="path646" />
    </clipPath>
    <clipPath
       clipPathUnits="userSpaceOnUse"
       id="clipPath648">
      <path
         d="M 31.251,41 H 535.75 V 579.254 H 31.251 Z"
         transform="translate(-371.85241,-69.235104)"
         id="path648" />
    </clipPath>
  </defs>
  <g
     inkscape:label="Layer 1"
     inkscape:groupmode="layer"
     id="layer1"
     transform="translate(-88.370828,-129.38124)">
    <path
       id="path529"
       d="m 0,0 c -2.55,0 -4.625,2.075 -4.625,4.625 v 99.001 c 0,2.55 2.075,4.625 4.625,4.625 h 81 c 2.55,0 4.625,-2.075 4.625,-4.625 V 4.625 C 85.625,2.075 83.55,0 81,0 Z"
       style="fill:#ffffff;fill-opacity:1;fill-rule:nonzero;stroke:none"
       transform="matrix(0.35277776,0,0,-0.35277776,90.046734,167.61382)"
       clip-path="url(#clipPath530)" />
    <path
       id="path531"
       d="m 0,0 h -81.001 c -2.619,0 -4.75,-2.131 -4.75,-4.75 v -99.001 c 0,-2.619 2.131,-4.75 4.75,-4.75 H 0 c 2.619,0 4.75,2.131 4.75,4.75 V -4.75 C 4.75,-2.131 2.619,0 0,0 m 0,-0.25 c 2.475,0 4.5,-2.025 4.5,-4.5 v -99.001 c 0,-2.475 -2.025,-4.5 -4.5,-4.5 h -81.001 c -2.475,0 -4.5,2.025 -4.5,4.5 V -4.75 c 0,2.475 2.025,4.5 4.5,4.5 z"
       style="fill:#000000;fill-opacity:1;fill-rule:nonzero;stroke:none"
       transform="matrix(0.35277776,0,0,-0.35277776,118.62187,129.38124)"
       clip-path="url(#clipPath532)" />
    <path
       id="path533"
       d="m 0,0 c 0,-0.827 -0.673,-1.5 -1.5,-1.5 h -81.001 c -0.827,0 -1.5,0.673 -1.5,1.5 v 99.001 c 0,0.827 0.673,1.5 1.5,1.5 H -1.5 c 0.827,0 1.5,-0.673 1.5,-1.5 z m -1.5,102.376 h -81.001 c -1.861,0 -3.375,-1.514 -3.375,-3.375 V 0 c 0,-1.861 1.514,-3.375 3.375,-3.375 H -1.5 c 1.861,0 3.375,1.514 3.375,3.375 v 99.001 c 0,1.861 -1.514,3.375 -3.375,3.375"
       style="fill:#000000;fill-opacity:1;fill-rule:nonzero;stroke:none"
       transform="matrix(0.35277776,0,0,-0.35277776,119.15104,165.98222)"
       clip-path="url(#clipPath534)" />
    <path
       id="path535"
       d="M 0,0 H 5.298 V -1.421 H 1.42 V -3.632 H 4.037 V -5.084 H 1.42 V -7.548 H 5.582 V -9 H 0 Z"
       style="fill:#000000;fill-opacity:1;fill-rule:nonzero;stroke:none"
       transform="matrix(0.35277776,0,0,-0.35277776,92.118879,132.64448)"
       clip-path="url(#clipPath536)" />
    <path
       id="path537"
       d="M 0,0 -2.087,-5.211 -4.176,0 V -5.211 H -5.6 v 9 h 1.424 L -2.087,-1.263 0,3.789 h 1.424 v -9 H 0 Z"
       style="fill:#000000;fill-opacity:1;fill-rule:nonzero;stroke:none"
       transform="matrix(0.35277776,0,0,-0.35277776,96.603461,133.98115)"
       clip-path="url(#clipPath538)" />
    <path
       id="path539"
       d="M 0,0 H 5.298 V -1.421 H 1.42 V -3.632 H 4.037 V -5.084 H 1.42 V -7.548 H 5.582 V -9 H 0 Z"
       style="fill:#000000;fill-opacity:1;fill-rule:nonzero;stroke:none"
       transform="matrix(0.35277776,0,0,-0.35277776,97.867995,132.64448)"
       clip-path="url(#clipPath540)" />
    <path
       id="path541"
       d="m 0,0 c 1.129,0 1.307,0.814 1.307,1.105 0,0.392 -0.293,1.106 -1.238,1.106 H -1.788 V 0 Z M -1.788,-1.451 V -5.369 H -3.207 V 3.632 H 0.048 C 2.112,3.632 2.73,1.981 2.73,1.104 2.73,0.77 2.606,-0.547 1.333,-1.15 L 2.919,-5.369 H 1.371 l -1.452,3.918 z"
       style="fill:#000000;fill-opacity:1;fill-rule:nonzero;stroke:none"
       transform="matrix(0.35277776,0,0,-0.35277776,101.50852,133.92559)"
       clip-path="url(#clipPath542)" />
    <path
       id="path543"
       d="M 0,0 C 1.442,0 2.254,-0.547 2.864,-1.989 L 1.506,-2.525 c -0.379,0.79 -0.757,1.074 -1.452,1.074 -1.978,0 -1.864,-3.011 -1.864,-3.221 0,-0.339 -0.077,-3.19 1.674,-3.19 0.916,0 1.579,0.569 1.579,1.39 v 0.378 h -1.642 v 1.422 h 3.062 v -1.8 c 0,-1.642 -1.199,-2.842 -2.843,-2.842 -0.326,0 -3.282,-0.269 -3.282,4.658 C -3.262,-3.967 -3.224,0 0,0"
       style="fill:#000000;fill-opacity:1;fill-rule:nonzero;stroke:none"
       transform="matrix(0.35277776,0,0,-0.35277776,104.16561,132.5893)"
       clip-path="url(#clipPath544)" />
    <path
       id="path545"
       d="M 0,0 H 5.298 V -1.421 H 1.42 V -3.632 H 4.037 V -5.084 H 1.42 V -7.548 H 5.582 V -9 H 0 Z"
       style="fill:#000000;fill-opacity:1;fill-rule:nonzero;stroke:none"
       transform="matrix(0.35277776,0,0,-0.35277776,105.87457,132.64448)"
       clip-path="url(#clipPath546)" />
    <path
       id="path547"
       d="m 0,0 v -6.094 h -1.42 v 9 H 0 l 3.285,-5.748 v 5.748 h 1.422 v -9 H 3.443 Z"
       style="fill:#000000;fill-opacity:1;fill-rule:nonzero;stroke:none"
       transform="matrix(0.35277776,0,0,-0.35277776,108.8845,133.66958)"
       clip-path="url(#clipPath548)" />
    <path
       id="path549"
       d="M 0,0 C 0,1.266 0.254,4.641 3.315,4.641 4.62,4.641 5.509,4.11 6.126,2.809 L 4.8,2.241 C 4.34,2.902 4.111,3.188 3.316,3.188 c -1.883,0 -1.863,-2.624 -1.863,-3.189 0,-0.558 -0.034,-3.222 1.926,-3.222 0.688,0 1.083,0.415 1.39,1.043 L 6.126,-2.685 C 5.62,-3.938 4.77,-4.673 3.41,-4.673 0.171,-4.673 0,-1.096 0,0"
       style="fill:#000000;fill-opacity:1;fill-rule:nonzero;stroke:none"
       transform="matrix(0.35277776,0,0,-0.35277776,111.24356,134.2264)"
       clip-path="url(#clipPath550)" />
    <path
       id="path551"
       d="M 0,0 H -1.429 V 3.916 L -4.602,9 h 1.714 L -0.73,5.526 1.46,9 H 3.142 L 0,3.916 Z"
       style="fill:#000000;fill-opacity:1;fill-rule:nonzero;stroke:none"
       transform="matrix(0.35277776,0,0,-0.35277776,115.44123,135.81948)"
       clip-path="url(#clipPath552)" />
    <path
       id="path553"
       d="m 0,0 -2.852,9 h 1.49 L 0.57,3 2.471,9 H 3.992 L 1.109,0 Z"
       style="fill:#000000;fill-opacity:1;fill-rule:nonzero;stroke:none"
       transform="matrix(0.35277776,0,0,-0.35277776,96.938106,141.11118)"
       clip-path="url(#clipPath554)" />
    <path
       id="path555"
       d="M 0,0 H 5.298 V -1.421 H 1.42 V -3.632 H 4.037 V -5.084 H 1.42 V -7.548 H 5.582 V -9 H 0 Z"
       style="fill:#000000;fill-opacity:1;fill-rule:nonzero;stroke:none"
       transform="matrix(0.35277776,0,0,-0.35277776,98.822929,137.93614)"
       clip-path="url(#clipPath556)" />
    <path
       id="path557"
       d="m 0,0 h -3.286 v -3.916 h -1.42 v 9 h 1.42 V 1.452 h 3.285 v 3.632 h 1.422 v -9 H 0 Z"
       style="fill:#000000;fill-opacity:1;fill-rule:nonzero;stroke:none"
       transform="matrix(0.35277776,0,0,-0.35277776,102.99202,139.72963)"
       clip-path="url(#clipPath558)" />
    <path
       id="path559"
       d="m 332.775,144.236 h 1.44 v -9 h -1.44 z"
       style="fill:#000000;fill-opacity:1;fill-rule:nonzero;stroke:none"
       transform="matrix(0.35277776,0,0,-0.35277776,-13.140447,188.81933)"
       clip-path="url(#clipPath560)" />
    <path
       id="path561"
       d="M 0,0 C 0,1.266 0.254,4.641 3.315,4.641 4.62,4.641 5.509,4.11 6.126,2.809 L 4.8,2.241 C 4.34,2.903 4.111,3.188 3.316,3.188 c -1.883,0 -1.863,-2.624 -1.863,-3.189 0,-0.558 -0.034,-3.222 1.926,-3.222 0.688,0 1.083,0.415 1.39,1.043 L 6.126,-2.685 C 5.62,-3.938 4.77,-4.673 3.41,-4.673 0.171,-4.673 0,-1.096 0,0"
       style="fill:#000000;fill-opacity:1;fill-rule:nonzero;stroke:none"
       transform="matrix(0.35277776,0,0,-0.35277776,105.46178,139.5181)"
       clip-path="url(#clipPath562)" />
    <path
       id="path563"
       d="M 0,0 H 1.42 V -7.674 H 5.582 V -9 H 0 Z"
       style="fill:#000000;fill-opacity:1;fill-rule:nonzero;stroke:none"
       transform="matrix(0.35277776,0,0,-0.35277776,108.32172,137.93614)"
       clip-path="url(#clipPath564)" />
    <path
       id="path565"
       d="M 0,0 H 5.298 V -1.421 H 1.42 V -3.632 H 4.037 V -5.084 H 1.42 V -7.548 H 5.582 V -9 H 0 Z"
       style="fill:#000000;fill-opacity:1;fill-rule:nonzero;stroke:none"
       transform="matrix(0.35277776,0,0,-0.35277776,110.76721,137.93614)"
       clip-path="url(#clipPath566)" />
    <path
       id="path567"
       d="M 0,0 -1.427,5.779 -2.82,0 h -1.268 l -1.33,9 h 1.457 L -3.264,4.263 -2.124,9 h 1.395 L 0.442,4.263 1.14,9 H 2.596 L 1.266,0 Z"
       style="fill:#000000;fill-opacity:1;fill-rule:nonzero;stroke:none"
       transform="matrix(0.35277776,0,0,-0.35277776,92.98929,146.40284)"
       clip-path="url(#clipPath568)" />
    <path
       id="path569"
       d="M 0,0 H 5.299 V -1.421 H 1.42 V -3.632 H 4.038 V -5.084 H 1.42 V -7.548 H 5.582 V -9 H 0 Z"
       style="fill:#000000;fill-opacity:1;fill-rule:nonzero;stroke:none"
       transform="matrix(0.35277776,0,0,-0.35277776,94.381739,143.22784)"
       clip-path="url(#clipPath570)" />
    <path
       id="path571"
       d="m 311.9,129.236 h 1.44 v -9 h -1.44 z"
       style="fill:#000000;fill-opacity:1;fill-rule:nonzero;stroke:none"
       transform="matrix(0.35277776,0,0,-0.35277776,-13.140447,188.81933)"
       clip-path="url(#clipPath572)" />
    <path
       id="path573"
       d="M 0,0 C 1.442,0 2.255,-0.547 2.864,-1.989 L 1.506,-2.525 c -0.379,0.79 -0.757,1.074 -1.452,1.074 -1.978,0 -1.864,-3.011 -1.864,-3.221 0,-0.339 -0.077,-3.19 1.674,-3.19 0.916,0 1.579,0.569 1.579,1.39 v 0.378 h -1.642 v 1.422 h 3.062 v -1.8 c 0,-1.642 -1.199,-2.842 -2.843,-2.842 -0.326,0 -3.283,-0.269 -3.283,4.658 C -3.263,-3.967 -3.224,0 0,0"
       style="fill:#000000;fill-opacity:1;fill-rule:nonzero;stroke:none"
       transform="matrix(0.35277776,0,0,-0.35277776,99.248413,143.17267)"
       clip-path="url(#clipPath574)" />
    <path
       id="path575"
       d="m 0,0 h -3.286 v -3.916 h -1.42 v 9 h 1.42 V 1.452 h 3.285 v 3.632 h 1.422 v -9 H 0 Z"
       style="fill:#000000;fill-opacity:1;fill-rule:nonzero;stroke:none"
       transform="matrix(0.35277776,0,0,-0.35277776,102.61762,145.02133)"
       clip-path="url(#clipPath576)" />
    <path
       id="path577"
       d="M 0,0 H -1.428 V 7.737 H -3.489 V 9 H 2.094 V 7.737 H 0 Z"
       style="fill:#000000;fill-opacity:1;fill-rule:nonzero;stroke:none"
       transform="matrix(0.35277776,0,0,-0.35277776,104.82601,146.40284)"
       clip-path="url(#clipPath578)" />
    <path
       id="path579"
       d="M 0,0 H 1.42 V -7.674 H 5.582 V -9 H 0 Z"
       style="fill:#000000;fill-opacity:1;fill-rule:nonzero;stroke:none"
       transform="matrix(0.35277776,0,0,-0.35277776,107.68128,143.22784)"
       clip-path="url(#clipPath580)" />
    <path
       id="path581"
       d="m 349.419,129.236 h 1.44 v -9 h -1.44 z"
       style="fill:#000000;fill-opacity:1;fill-rule:nonzero;stroke:none"
       transform="matrix(0.35277776,0,0,-0.35277776,-13.140447,188.81933)"
       clip-path="url(#clipPath582)" />
    <path
       id="path583"
       d="M 0,0 -2.087,-5.211 -4.176,0 V -5.211 H -5.6 v 9 h 1.424 L -2.087,-1.263 0,3.789 h 1.424 v -9 H 0 Z"
       style="fill:#000000;fill-opacity:1;fill-rule:nonzero;stroke:none"
       transform="matrix(0.35277776,0,0,-0.35277776,113.37247,144.56452)"
       clip-path="url(#clipPath584)" />
    <path
       id="path585"
       d="m 362.204,129.236 h 1.44 v -9 h -1.44 z"
       style="fill:#000000;fill-opacity:1;fill-rule:nonzero;stroke:none"
       transform="matrix(0.35277776,0,0,-0.35277776,-13.140447,188.81933)"
       clip-path="url(#clipPath586)" />
    <path
       id="path587"
       d="M 0,0 H -1.428 V 7.737 H -3.489 V 9 H 2.094 V 7.737 H 0 Z"
       style="fill:#000000;fill-opacity:1;fill-rule:nonzero;stroke:none"
       transform="matrix(0.35277776,0,0,-0.35277776,116.85199,146.40284)"
       clip-path="url(#clipPath588)" />
    <path
       id="path589"
       d="m 0,0 c 0.984,-0.618 2.46,-1.483 2.46,-3.259 0,-1.457 -1.11,-2.62 -2.505,-2.62 -1.585,0 -2.537,1.341 -2.537,2.81 h 1.269 c 0,-0.766 0.38,-1.548 1.268,-1.548 0.697,0 1.268,0.631 1.268,1.358 0,1.956 -3.36,1.844 -3.36,4.358 0,1.295 1.014,2.336 2.314,2.336 1.269,0 2.252,-0.979 2.283,-2.337 H 1.223 C 1.191,1.729 0.747,2.14 0.177,2.14 -0.426,2.14 -0.901,1.699 -0.901,1.099 -0.901,0.514 -0.591,0.37 0,0"
       style="fill:#000000;fill-opacity:1;fill-rule:nonzero;stroke:none"
       transform="matrix(0.35277776,0,0,-0.35277776,90.957464,151.79272)"
       clip-path="url(#clipPath590)" />
    <path
       id="path591"
       d="m 298.612,108.235 h 1.26 v -9 h -1.26 z"
       style="fill:#000000;fill-opacity:1;fill-rule:nonzero;stroke:none"
       transform="matrix(0.35277776,0,0,-0.35277776,-13.140447,188.81933)"
       clip-path="url(#clipPath592)" />
    <path
       id="path593"
       d="m 0,0 v -6.031 h -1.292 v 9 H 0 l 2.458,-5.4 v 5.4 h 1.293 v -9 H 2.774 Z"
       style="fill:#000000;fill-opacity:1;fill-rule:nonzero;stroke:none"
       transform="matrix(0.35277776,0,0,-0.35277776,93.592468,151.68357)"
       clip-path="url(#clipPath594)" />
    <path
       id="path595"
       d="m 0,0 c -0.819,0 -2.791,0.152 -2.791,4.642 0,4.49 1.875,4.672 2.695,4.672 1.301,0 2.284,-0.946 2.347,-2.273 h -1.3 c -0.032,0.601 -0.444,1.012 -1.078,1.012 -0.434,0 -1.427,-0.136 -1.427,-3.412 0,-3.276 1.087,-3.379 1.521,-3.379 0.666,0 0.984,0.439 0.984,1.39 V 3.251 H -0.064 V 4.516 H 2.251 V 2.653 C 2.251,0.401 0.768,0 0,0"
       style="fill:#000000;fill-opacity:1;fill-rule:nonzero;stroke:none"
       transform="matrix(0.35277776,0,0,-0.35277776,96.344876,153.86681)"
       clip-path="url(#clipPath596)" />
    <path
       id="path597"
       d="M 0,0 H 1.298 V -7.8 H 4.592 V -9 H 0 Z"
       style="fill:#000000;fill-opacity:1;fill-rule:nonzero;stroke:none"
       transform="matrix(0.35277776,0,0,-0.35277776,97.583621,150.63621)"
       clip-path="url(#clipPath598)" />
    <path
       id="path599"
       d="M 0,0 H 4.243 V -1.263 H 1.298 V -3.537 H 3.166 V -4.769 H 1.298 V -7.738 H 4.592 V -9 H 0 Z"
       style="fill:#000000;fill-opacity:1;fill-rule:nonzero;stroke:none"
       transform="matrix(0.35277776,0,0,-0.35277776,99.514867,150.63621)"
       clip-path="url(#clipPath600)" />
    <path
       id="path601"
       d="M 0,0 H 1.298 L 0.633,2.59 Z m 1.614,-1.263 h -1.93 l -0.602,-2.463 h -1.298 l 2.247,9 h 1.268 l 2.247,-9 H 2.248 Z"
       style="fill:#000000;fill-opacity:1;fill-rule:nonzero;stroke:none"
       transform="matrix(0.35277776,0,0,-0.35277776,103.50418,152.4968)"
       clip-path="url(#clipPath602)" />
    <path
       id="path603"
       d="M 0,0 -1.272,-3.062 H -2.64 l 1.972,4.673 -1.845,4.327 h 1.368 L 0,3.222 1.145,5.938 H 2.513 L 0.7,1.611 2.672,-3.062 h -1.4 z"
       style="fill:#000000;fill-opacity:1;fill-rule:nonzero;stroke:none"
       transform="matrix(0.35277776,0,0,-0.35277776,105.82003,152.73094)"
       clip-path="url(#clipPath604)" />
    <path
       id="path605"
       d="M 0,0 H 1.298 V -7.8 H 4.592 V -9 H 0 Z"
       style="fill:#000000;fill-opacity:1;fill-rule:nonzero;stroke:none"
       transform="matrix(0.35277776,0,0,-0.35277776,107.07384,150.63621)"
       clip-path="url(#clipPath606)" />
    <path
       id="path607"
       d="M 0,0 H 4.243 V -1.263 H 1.298 V -3.537 H 3.166 V -4.769 H 1.298 V -7.738 H 4.592 V -9 H 0 Z"
       style="fill:#000000;fill-opacity:1;fill-rule:nonzero;stroke:none"
       transform="matrix(0.35277776,0,0,-0.35277776,109.00505,150.63621)"
       clip-path="url(#clipPath608)" />
    <path
       id="path609"
       d="m 0,0 h -0.576 v 0.98 c 0.513,0.031 0.833,0.252 1.025,0.631 h 0.865 v -9 H 0 Z"
       style="fill:#000000;fill-opacity:1;fill-rule:nonzero;stroke:none"
       transform="matrix(0.35277776,0,0,-0.35277776,113.93377,151.20457)"
       clip-path="url(#clipPath610)" />
    <path
       id="path611"
       d="m 0,0 v -1.263 h -5.042 c 0.072,2.836 1.319,4.241 2.355,5.067 0.796,0.634 1.449,0.798 1.449,1.562 0,0.7 -0.568,1.269 -1.267,1.269 -0.7,0 -1.268,-0.569 -1.268,-1.269 H -5.042 C -5.011,6.788 -3.93,7.893 -2.505,7.893 -1.11,7.893 0,6.756 0,5.366 0,2.721 -2.828,3.627 -3.647,0 Z"
       style="fill:#000000;fill-opacity:1;fill-rule:nonzero;stroke:none"
       transform="matrix(0.35277776,0,0,-0.35277776,116.71599,153.36555)"
       clip-path="url(#clipPath612)" />
    <path
       id="path613"
       d="M 0,0 H -1.298 V 7.8 H -2.945 V 9 H 1.647 V 7.8 H 0 Z"
       style="fill:#000000;fill-opacity:1;fill-rule:nonzero;stroke:none"
       transform="matrix(0.35277776,0,0,-0.35277776,118.04081,153.81125)"
       clip-path="url(#clipPath614)" />
    <path
       id="path615"
       d="M 0,0 H -1.298 V 7.8 H -2.945 V 9 H 1.647 V 7.8 H 0 Z"
       style="fill:#000000;fill-opacity:1;fill-rule:nonzero;stroke:none"
       transform="matrix(0.35277776,0,0,-0.35277776,91.085594,159.10302)"
       clip-path="url(#clipPath616)" />
    <path
       id="path617"
       d="M 0,0 H 1.298 L 0.633,2.59 Z m 1.614,-1.263 h -1.93 l -0.602,-2.463 h -1.298 l 2.247,9 h 1.268 l 2.247,-9 H 2.248 Z"
       style="fill:#000000;fill-opacity:1;fill-rule:nonzero;stroke:none"
       transform="matrix(0.35277776,0,0,-0.35277776,92.638944,157.78857)"
       clip-path="url(#clipPath618)" />
    <path
       id="path619"
       d="m 0,0 v -6.031 h -1.291 v 9 H 0 l 2.458,-5.4 v 5.4 h 1.293 v -9 H 2.774 Z"
       style="fill:#000000;fill-opacity:1;fill-rule:nonzero;stroke:none"
       transform="matrix(0.35277776,0,0,-0.35277776,94.790007,156.97538)"
       clip-path="url(#clipPath620)" />
    <path
       id="path621"
       d="m 0,0 h -1.009 v -6.473 h 0.898 c 1.053,0 1.591,0.46 1.591,3.189 C 1.48,-0.121 0.692,0 0,0 m -2.3,-7.737 v 9 h 2.568 c 0.549,0 2.473,-0.027 2.473,-4.484 0,-4.078 -1.777,-4.516 -2.366,-4.516 z"
       style="fill:#000000;fill-opacity:1;fill-rule:nonzero;stroke:none"
       transform="matrix(0.35277776,0,0,-0.35277776,97.623308,156.37372)"
       clip-path="url(#clipPath622)" />
    <path
       id="path623"
       d="M 0,0 H 4.243 V -1.263 H 1.298 V -3.537 H 3.166 V -4.769 H 1.298 V -7.738 H 4.592 V -9 H 0 Z"
       style="fill:#000000;fill-opacity:1;fill-rule:nonzero;stroke:none"
       transform="matrix(0.35277776,0,0,-0.35277776,99.225553,155.92802)"
       clip-path="url(#clipPath624)" />
    <path
       id="path625"
       d="M 0,0 -1.676,-5.052 -3.352,0 v -5.052 h -1.296 v 9 h 1.296 L -1.676,-1.105 0,3.948 h 1.296 v -9 H 0 Z"
       style="fill:#000000;fill-opacity:1;fill-rule:nonzero;stroke:none"
       transform="matrix(0.35277776,0,0,-0.35277776,103.02511,157.32068)"
       clip-path="url(#clipPath626)" />
    <path
       id="path627"
       d="m 0,0 v -1.263 h -5.042 c 0.072,2.836 1.319,4.241 2.355,5.067 0.796,0.634 1.449,0.798 1.449,1.562 0,0.7 -0.568,1.269 -1.267,1.269 -0.7,0 -1.268,-0.569 -1.268,-1.269 H -5.042 C -5.011,6.788 -3.93,7.893 -2.505,7.893 -1.11,7.893 0,6.756 0,5.366 0,2.721 -2.828,3.627 -3.647,0 Z"
       style="fill:#000000;fill-opacity:1;fill-rule:nonzero;stroke:none"
       transform="matrix(0.35277776,0,0,-0.35277776,114.36557,158.65736)"
       clip-path="url(#clipPath628)" />
    <path
       id="path629"
       d="m 0,0 c 0,-1 0.506,-1.738 1.269,-1.738 0.763,0 1.269,0.663 1.269,1.61 0,0.947 -0.506,1.643 -1.269,1.643 C 0.506,1.515 0,0.853 0,0 M 3.806,-0.128 C 3.806,-1.835 2.823,-3 1.269,-3 c -1.65,0 -2.505,1.2 -2.505,3.253 0,2.162 1.14,4.453 3.106,5.968 L 2.598,5.212 C 1.835,4.643 1.013,3.569 0.694,2.718 0.884,2.743 1.076,2.75 1.266,2.75 c 1.553,0 2.54,-1.172 2.54,-2.878"
       style="fill:#000000;fill-opacity:1;fill-rule:nonzero;stroke:none"
       transform="matrix(0.35277776,0,0,-0.35277776,115.27807,158.09975)"
       clip-path="url(#clipPath630)" />
    <path
       id="path631"
       d="M 0,0 H -1.298 V 7.8 H -2.945 V 9 H 1.647 V 7.8 H 0 Z"
       style="fill:#000000;fill-opacity:1;fill-rule:nonzero;stroke:none"
       transform="matrix(0.35277776,0,0,-0.35277776,118.04081,159.10302)"
       clip-path="url(#clipPath632)" />
    <path
       id="path633"
       d="m 0,0 c -0.819,0 -2.791,0.152 -2.791,4.642 0,4.49 1.875,4.672 2.695,4.672 1.301,0 2.284,-0.946 2.347,-2.273 h -1.3 c -0.032,0.601 -0.444,1.012 -1.078,1.012 -0.434,0 -1.427,-0.136 -1.427,-3.412 0,-3.276 1.087,-3.379 1.521,-3.379 0.666,0 0.984,0.439 0.984,1.39 V 3.251 H -0.064 V 4.516 H 2.251 V 2.653 C 2.251,0.4 0.768,0 0,0"
       style="fill:#000000;fill-opacity:1;fill-rule:nonzero;stroke:none"
       transform="matrix(0.35277776,0,0,-0.35277776,91.031267,164.45028)"
       clip-path="url(#clipPath634)" />
    <path
       id="path635"
       d="m 0,0 v -2.274 h 1.323 c 0.758,0 1.167,0.411 1.167,1.138 C 2.49,-0.441 2.017,0 1.324,0 Z M 1.23,-3.506 H 0 v -4.231 h -1.292 v 9 h 2.679 c 1.412,0 2.364,-0.947 2.364,-2.399 0,-1.074 -0.442,-1.863 -1.293,-2.179 L 3.75,-7.737 H 2.428 Z"
       style="fill:#000000;fill-opacity:1;fill-rule:nonzero;stroke:none"
       transform="matrix(0.35277776,0,0,-0.35277776,92.916122,161.66542)"
       clip-path="url(#clipPath636)" />
    <path
       id="path637"
       d="m 0,0 c -0.256,0 -1.416,0.053 -1.416,-3.382 0,-3.459 1.16,-3.406 1.416,-3.406 0.257,0 1.415,-0.053 1.415,3.406 C 1.415,0.053 0.257,0 0,0 m -2.656,-3.375 c 0,4.713 2.186,4.637 2.671,4.637 0.485,0 2.641,0.072 2.641,-4.64 0,-4.747 -2.156,-4.673 -2.641,-4.673 -0.485,0 -2.671,-0.074 -2.671,4.676"
       style="fill:#000000;fill-opacity:1;fill-rule:nonzero;stroke:none"
       transform="matrix(0.35277776,0,0,-0.35277776,95.652691,161.60986)"
       clip-path="url(#clipPath638)" />
    <path
       id="path639"
       d="m 0,0 c 0.984,-0.618 2.46,-1.483 2.46,-3.259 0,-1.457 -1.11,-2.62 -2.505,-2.62 -1.585,0 -2.537,1.341 -2.537,2.81 h 1.269 c 0,-0.766 0.38,-1.548 1.268,-1.548 0.697,0 1.268,0.631 1.268,1.358 0,1.956 -3.36,1.844 -3.36,4.358 0,1.295 1.014,2.336 2.314,2.336 1.269,0 2.252,-0.979 2.283,-2.337 H 1.223 C 1.191,1.729 0.747,2.14 0.177,2.14 -0.426,2.14 -0.901,1.699 -0.901,1.099 -0.901,0.514 -0.591,0.37 0,0"
       style="fill:#000000;fill-opacity:1;fill-rule:nonzero;stroke:none"
       transform="matrix(0.35277776,0,0,-0.35277776,97.97686,162.37623)"
       clip-path="url(#clipPath640)" />
    <path
       id="path641"
       d="m 0,0 c 0.984,-0.618 2.46,-1.483 2.46,-3.259 0,-1.457 -1.11,-2.62 -2.505,-2.62 -1.585,0 -2.537,1.341 -2.537,2.81 h 1.269 c 0,-0.766 0.38,-1.548 1.268,-1.548 0.697,0 1.268,0.631 1.268,1.358 0,1.956 -3.36,1.844 -3.36,4.358 0,1.295 1.014,2.336 2.314,2.336 1.269,0 2.252,-0.979 2.283,-2.337 H 1.223 C 1.191,1.729 0.747,2.14 0.177,2.14 -0.426,2.14 -0.901,1.699 -0.901,1.099 -0.901,0.514 -0.591,0.37 0,0"
       style="fill:#000000;fill-opacity:1;fill-rule:nonzero;stroke:none"
       transform="matrix(0.35277776,0,0,-0.35277776,100.13674,162.37623)"
       clip-path="url(#clipPath642)" />
    <path
       id="path643"
       d="M 0,0 H 2.157 V 3.378 Z M 3.456,-3.38 H 2.157 v 2.18 h -3.743 v 0.914 L 2.157,5.62 H 3.456 V 0 h 0.54 v -1.2 h -0.54 z"
       style="fill:#000000;fill-opacity:1;fill-rule:nonzero;stroke:none"
       transform="matrix(0.35277776,0,0,-0.35277776,113.05109,163.20251)"
       clip-path="url(#clipPath644)" />
    <path
       id="path645"
       d="m 0,0 c -0.573,0 -0.921,-0.348 -0.984,-0.947 l -1.268,0.157 c 0.127,1.201 1.046,2.051 2.251,2.051 1.3,0 2.284,-0.987 2.284,-2.305 0,-0.758 -0.222,-1.358 -0.825,-2.053 0.698,-0.631 1.046,-1.453 1.046,-2.368 0,-1.484 -1.046,-2.59 -2.505,-2.59 -1.459,0 -2.474,1.043 -2.537,2.527 h 1.269 c 0.063,-0.727 0.57,-1.264 1.268,-1.264 0.729,0 1.268,0.585 1.268,1.327 0,0.947 -0.545,1.737 -1.173,1.737 H -0.54 v 1.233 h 0.614 c 0.459,0 0.973,0.653 0.973,1.358 C 1.047,-0.442 0.634,0 0,0"
       style="fill:#000000;fill-opacity:1;fill-rule:nonzero;stroke:none"
       transform="matrix(0.35277776,0,0,-0.35277776,115.83253,161.60944)"
       clip-path="url(#clipPath646)" />
    <path
       id="path647"
       d="M 0,0 H -1.298 V 7.8 H -2.945 V 9 H 1.647 V 7.8 H 0 Z"
       style="fill:#000000;fill-opacity:1;fill-rule:nonzero;stroke:none"
       transform="matrix(0.35277776,0,0,-0.35277776,118.04081,164.39472)"
       clip-path="url(#clipPath648)" />
  </g>
</svg>
