<?xml version="1.0" encoding="UTF-8" standalone="no"?>
<!-- Created with Inkscape (http://www.inkscape.org/) -->

<svg
   width="25.57674mm"
   height="31.926741mm"
   viewBox="0 0 25.57674 31.926741"
   version="1.1"
   id="svg1"
   inkscape:version="1.3 (0e150ed, 2023-07-21)"
   sodipodi:docname="MUTCD_R2-13.svg"
   xmlns:inkscape="http://www.inkscape.org/namespaces/inkscape"
   xmlns:sodipodi="http://sodipodi.sourceforge.net/DTD/sodipodi-0.dtd"
   xmlns="http://www.w3.org/2000/svg"
   xmlns:svg="http://www.w3.org/2000/svg">
  <sodipodi:namedview
     id="namedview1"
     pagecolor="#ffffff"
     bordercolor="#666666"
     borderopacity="1.0"
     inkscape:showpageshadow="2"
     inkscape:pageopacity="0.0"
     inkscape:pagecheckerboard="0"
     inkscape:deskcolor="#d1d1d1"
     inkscape:document-units="mm"
     inkscape:zoom="1"
     inkscape:cx="16"
     inkscape:cy="59"
     inkscape:window-width="1440"
     inkscape:window-height="431"
     inkscape:window-x="0"
     inkscape:window-y="23"
     inkscape:window-maximized="0"
     inkscape:current-layer="layer1" />
  <defs
     id="defs1">
    <clipPath
       clipPathUnits="userSpaceOnUse"
       id="clipPath430">
      <path
         d="M 70.849,240.105 H 496.151 V 742.387 H 70.849 Z"
         transform="translate(-297.00021,-259.80931)"
         id="path430" />
    </clipPath>
    <clipPath
       clipPathUnits="userSpaceOnUse"
       id="clipPath432">
      <path
         d="M 70.849,240.105 H 496.151 V 742.387 H 70.849 Z"
         transform="translate(-360.00071,-350.18551)"
         id="path432" />
    </clipPath>
    <clipPath
       clipPathUnits="userSpaceOnUse"
       id="clipPath434">
      <path
         d="M 70.849,240.105 H 496.151 V 742.387 H 70.849 Z"
         transform="translate(-297.00021,-261.0598)"
         id="path434" />
    </clipPath>
    <clipPath
       clipPathUnits="userSpaceOnUse"
       id="clipPath436">
      <path
         d="M 70.849,240.105 H 496.151 V 742.387 H 70.849 Z"
         transform="translate(-297.00021,-262.9348)"
         id="path436" />
    </clipPath>
    <clipPath
       clipPathUnits="userSpaceOnUse"
       id="clipPath438">
      <path
         d="M 70.849,240.105 H 496.151 V 742.387 H 70.849 Z"
         transform="translate(-314.14991,-340.18541)"
         id="path438" />
    </clipPath>
    <clipPath
       clipPathUnits="userSpaceOnUse"
       id="clipPath440">
      <path
         d="M 70.849,240.105 H 496.151 V 742.387 H 70.849 Z"
         transform="translate(-325.52611,-336.31091)"
         id="path440" />
    </clipPath>
    <clipPath
       clipPathUnits="userSpaceOnUse"
       id="clipPath442">
      <path
         d="M 70.849,240.105 H 496.151 V 742.387 H 70.849 Z"
         transform="translate(-338.72321,-338.29091)"
         id="path442" />
    </clipPath>
    <clipPath
       clipPathUnits="userSpaceOnUse"
       id="clipPath444">
      <path
         d="M 70.849,240.105 H 496.151 V 742.387 H 70.849 Z"
         transform="translate(-300.69461,-308.68521)"
         id="path444" />
    </clipPath>
    <clipPath
       clipPathUnits="userSpaceOnUse"
       id="clipPath446">
      <path
         d="M 70.849,240.105 H 496.151 V 742.387 H 70.849 Z"
         transform="translate(-308.76771,-313.65321)"
         id="path446" />
    </clipPath>
    <clipPath
       clipPathUnits="userSpaceOnUse"
       id="clipPath448">
      <path
         d="M 70.849,240.105 H 496.151 V 742.387 H 70.849 Z"
         transform="translate(-316.89781,-319.00081)"
         id="path448" />
    </clipPath>
    <clipPath
       clipPathUnits="userSpaceOnUse"
       id="clipPath450">
      <path
         d="M 70.849,240.105 H 496.151 V 742.387 H 70.849 Z"
         id="path450" />
    </clipPath>
    <clipPath
       clipPathUnits="userSpaceOnUse"
       id="clipPath452">
      <path
         d="M 70.849,240.105 H 496.151 V 742.387 H 70.849 Z"
         transform="translate(-330.25401,-313.65321)"
         id="path452" />
    </clipPath>
    <clipPath
       clipPathUnits="userSpaceOnUse"
       id="clipPath454">
      <path
         d="M 70.849,240.105 H 496.151 V 742.387 H 70.849 Z"
         transform="translate(-338.38421,-310.36971)"
         id="path454" />
    </clipPath>
    <clipPath
       clipPathUnits="userSpaceOnUse"
       id="clipPath456">
      <path
         d="M 70.849,240.105 H 496.151 V 742.387 H 70.849 Z"
         transform="translate(-345.42541,-320.68531)"
         id="path456" />
    </clipPath>
    <clipPath
       clipPathUnits="userSpaceOnUse"
       id="clipPath458">
      <path
         d="M 70.849,240.105 H 496.151 V 742.387 H 70.849 Z"
         transform="translate(-353.22841,-320.68531)"
         id="path458" />
    </clipPath>
    <clipPath
       clipPathUnits="userSpaceOnUse"
       id="clipPath460">
      <path
         d="M 70.849,240.105 H 496.151 V 742.387 H 70.849 Z"
         transform="translate(-304.84381,-292.00651)"
         id="path460" />
    </clipPath>
    <clipPath
       clipPathUnits="userSpaceOnUse"
       id="clipPath462">
      <path
         d="M 70.849,240.105 H 496.151 V 742.387 H 70.849 Z"
         transform="translate(-316.94591,-296.3431)"
         id="path462" />
    </clipPath>
    <clipPath
       clipPathUnits="userSpaceOnUse"
       id="clipPath464">
      <path
         d="M 70.849,240.105 H 496.151 V 742.387 H 70.849 Z"
         transform="translate(-325.02211,-301.18511)"
         id="path464" />
    </clipPath>
    <clipPath
       clipPathUnits="userSpaceOnUse"
       id="clipPath466">
      <path
         d="M 70.849,240.105 H 496.151 V 742.387 H 70.849 Z"
         transform="translate(-334.50531,-301.18511)"
         id="path466" />
    </clipPath>
    <clipPath
       clipPathUnits="userSpaceOnUse"
       id="clipPath468">
      <path
         d="M 70.849,240.105 H 496.151 V 742.387 H 70.849 Z"
         transform="translate(-348.02931,-299.2906)"
         id="path468" />
    </clipPath>
    <clipPath
       clipPathUnits="userSpaceOnUse"
       id="clipPath470">
      <path
         d="M 70.849,240.105 H 496.151 V 742.387 H 70.849 Z"
         transform="translate(-309.77431,-281.68501)"
         id="path470" />
    </clipPath>
    <clipPath
       clipPathUnits="userSpaceOnUse"
       id="clipPath472">
      <path
         d="M 70.849,240.105 H 496.151 V 742.387 H 70.849 Z"
         id="path472" />
    </clipPath>
    <clipPath
       clipPathUnits="userSpaceOnUse"
       id="clipPath474">
      <path
         d="M 70.849,240.105 H 496.151 V 742.387 H 70.849 Z"
         transform="translate(-331.28431,-276.63291)"
         id="path474" />
    </clipPath>
    <clipPath
       clipPathUnits="userSpaceOnUse"
       id="clipPath476">
      <path
         d="M 70.849,240.105 H 496.151 V 742.387 H 70.849 Z"
         id="path476" />
    </clipPath>
    <clipPath
       clipPathUnits="userSpaceOnUse"
       id="clipPath478">
      <path
         d="M 70.849,240.105 H 496.151 V 742.387 H 70.849 Z"
         transform="translate(-344.43521,-269.68491)"
         id="path478" />
    </clipPath>
  </defs>
  <g
     inkscape:label="Layer 1"
     inkscape:groupmode="layer"
     id="layer1"
     transform="translate(-81.491665,-117.475)">
    <path
       id="path429"
       d="m 0,0 c -2.55,0 -4.625,2.075 -4.625,4.625 v 81.001 c 0,2.55 2.075,4.625 4.625,4.625 h 63.001 c 2.55,0 4.625,-2.075 4.625,-4.625 V 4.625 C 67.626,2.075 65.551,0 63.001,0 Z"
       style="fill:#ffffff;fill-opacity:1;fill-rule:nonzero;stroke:none"
       transform="matrix(0.35277776,0,0,-0.35277776,83.167537,149.35771)"
       clip-path="url(#clipPath430)" />
    <path
       id="path431"
       d="m 0,0 h -63.001 c -2.619,0 -4.75,-2.131 -4.75,-4.75 v -81.001 c 0,-2.619 2.131,-4.75 4.75,-4.75 H 0 c 2.619,0 4.75,2.131 4.75,4.75 V -4.75 C 4.75,-2.131 2.619,0 0,0 m 0,-0.25 c 2.485,0 4.5,-2.015 4.5,-4.5 v -81.001 c 0,-2.485 -2.015,-4.5 -4.5,-4.5 h -63.001 c -2.485,0 -4.5,2.015 -4.5,4.5 V -4.75 c 0,2.485 2.015,4.5 4.5,4.5 z"
       style="fill:#000000 icc-color(sRGB-IEC61966-2, 0.1, 0, 0, 0);fill-opacity:1;fill-rule:nonzero;stroke:none"
       transform="matrix(0.35277776,0,0,-0.35277776,105.39271,117.475)"
       clip-path="url(#clipPath432)" />
    <path
       id="path433"
       d="m 0,0 c -1.861,0 -3.375,1.514 -3.375,3.375 v 81.001 c 0,1.861 1.514,3.375 3.375,3.375 h 63.001 c 1.86,0 3.375,-1.514 3.375,-3.375 V 3.375 C 66.376,1.514 64.861,0 63.001,0 Z"
       style="fill:#000000 icc-color(sRGB-IEC61966-2, 0.1, 0, 0, 0);fill-opacity:1;fill-rule:nonzero;stroke:none"
       transform="matrix(0.35277776,0,0,-0.35277776,83.167537,148.91656)"
       clip-path="url(#clipPath434)" />
    <path
       id="path435"
       d="m 0,0 c -0.827,0 -1.5,0.673 -1.5,1.5 v 81.001 c 0,0.827 0.673,1.5 1.5,1.5 h 63.001 c 0.827,0 1.5,-0.673 1.5,-1.5 V 1.5 c 0,-0.827 -0.673,-1.5 -1.5,-1.5 z"
       style="fill:#ffffff;fill-opacity:1;fill-rule:nonzero;stroke:none"
       transform="matrix(0.35277776,0,0,-0.35277776,83.167537,148.2551)"
       clip-path="url(#clipPath436)" />
    <path
       id="path437"
       d="M 0,0 H 7.065 V -1.895 H 1.893 v -2.947 h 3.49 v -1.937 h -3.49 v -3.285 h 5.55 V -12 H 0 Z"
       style="fill:#000000 icc-color(sRGB-IEC61966-2, 0.1, 0, 0, 0);fill-opacity:1;fill-rule:nonzero;stroke:none"
       transform="matrix(0.35277776,0,0,-0.35277776,89.217568,121.00281)"
       clip-path="url(#clipPath438)" />
    <path
       id="path439"
       d="M 0,0 V -8.126 H -1.893 V 3.875 H 0 L 4.38,-3.789 V 3.875 H 6.276 V -8.126 H 4.591 Z"
       style="fill:#000000 icc-color(sRGB-IEC61966-2, 0.1, 0, 0, 0);fill-opacity:1;fill-rule:nonzero;stroke:none"
       transform="matrix(0.35277776,0,0,-0.35277776,93.23084,122.36965)"
       clip-path="url(#clipPath440)" />
    <path
       id="path441"
       d="m 0,0 h -2.148 v -8.168 h 2.014 c 1.746,0 2.319,2.115 2.319,4.374 C 2.185,-2.72 1.879,0 0,0 M -4.041,-10.106 V 1.895 h 4.329 c 3.028,0 3.84,-3.989 3.84,-5.731 0,-4.501 -2.315,-6.27 -3.832,-6.27 z"
       style="fill:#000000 icc-color(sRGB-IEC61966-2, 0.1, 0, 0, 0);fill-opacity:1;fill-rule:nonzero;stroke:none"
       transform="matrix(0.35277776,0,0,-0.35277776,97.886482,121.67115)"
       clip-path="url(#clipPath442)" />
    <path
       id="path443"
       d="m 0,0 -3.045,12 h 1.734 L 0.678,4.209 2.664,12 H 4.398 L 1.311,0 Z"
       style="fill:#000000 icc-color(sRGB-IEC61966-2, 0.1, 0, 0, 0);fill-opacity:1;fill-rule:nonzero;stroke:none"
       transform="matrix(0.35277776,0,0,-0.35277776,84.470838,132.11538)"
       clip-path="url(#clipPath444)" />
    <path
       id="path445"
       d="M 0,0 H 1.731 L 0.844,3.453 Z m 2.152,-1.685 h -2.574 l -0.802,-3.283 h -1.731 l 2.997,12 h 1.69 l 2.996,-12 H 2.997 Z"
       style="fill:#000000 icc-color(sRGB-IEC61966-2, 0.1, 0, 0, 0);fill-opacity:1;fill-rule:nonzero;stroke:none"
       transform="matrix(0.35277776,0,0,-0.35277776,87.31885,130.36278)"
       clip-path="url(#clipPath446)" />
    <path
       id="path447"
       d="m 0,0 v -3.032 h 1.764 c 1.011,0 1.555,0.548 1.555,1.517 C 3.319,-0.588 2.689,0 1.765,0 Z M 1.639,-4.674 H 0 v -5.642 H -1.722 V 1.685 h 3.571 c 1.883,0 3.152,-1.263 3.152,-3.2 0,-1.431 -0.59,-2.484 -1.724,-2.906 l 1.722,-5.895 H 3.237 Z"
       style="fill:#000000 icc-color(sRGB-IEC61966-2, 0.1, 0, 0, 0);fill-opacity:1;fill-rule:nonzero;stroke:none"
       transform="matrix(0.35277776,0,0,-0.35277776,90.186967,128.47626)"
       clip-path="url(#clipPath448)" />
    <path
       id="path449"
       d="m 323.939,320.686 h 1.68 v -12 h -1.68 z"
       style="fill:#000000 icc-color(sRGB-IEC61966-2, 0.1, 0, 0, 0);fill-opacity:1;fill-rule:nonzero;stroke:none"
       transform="matrix(0.35277776,0,0,-0.35277776,-21.607533,241.01266)"
       clip-path="url(#clipPath450)" />
    <path
       id="path451"
       d="M 0,0 H 1.731 L 0.844,3.453 Z m 2.152,-1.685 h -2.574 l -0.802,-3.283 h -1.731 l 2.997,12 h 1.69 l 2.996,-12 H 2.997 Z"
       style="fill:#000000 icc-color(sRGB-IEC61966-2, 0.1, 0, 0, 0);fill-opacity:1;fill-rule:nonzero;stroke:none"
       transform="matrix(0.35277776,0,0,-0.35277776,94.898739,130.36278)"
       clip-path="url(#clipPath452)" />
    <path
       id="path453"
       d="m 0,0 h 1.722 c 0.967,0 1.597,0.674 1.597,1.727 0,1.159 -0.694,2.02 -1.596,2.02 H 0 Z M 0,8.631 V 5.432 h 1.806 c 0.801,0 1.303,0.673 1.303,1.768 0,1.032 -0.37,1.431 -1.302,1.431 z M -1.722,-1.685 v 12.001 h 3.781 c 1.593,0 2.732,-1.263 2.732,-3.116 0,-1.099 -0.294,-1.6 -1.26,-2.611 0.924,-0.758 1.47,-1.769 1.47,-2.99 0,-1.796 -1.43,-3.284 -3.194,-3.284 z"
       style="fill:#000000 icc-color(sRGB-IEC61966-2, 0.1, 0, 0, 0);fill-opacity:1;fill-rule:nonzero;stroke:none"
       transform="matrix(0.35277776,0,0,-0.35277776,97.766891,131.52112)"
       clip-path="url(#clipPath454)" />
    <path
       id="path455"
       d="M 0,0 H 1.731 V -10.4 H 6.123 V -12 H 0 Z"
       style="fill:#000000 icc-color(sRGB-IEC61966-2, 0.1, 0, 0, 0);fill-opacity:1;fill-rule:nonzero;stroke:none"
       transform="matrix(0.35277776,0,0,-0.35277776,100.25087,127.88201)"
       clip-path="url(#clipPath456)" />
    <path
       id="path457"
       d="M 0,0 H 5.658 V -1.685 H 1.731 v -3.031 h 2.49 v -1.643 h -2.49 v -3.958 H 6.123 V -12 H 0 Z"
       style="fill:#000000 icc-color(sRGB-IEC61966-2, 0.1, 0, 0, 0);fill-opacity:1;fill-rule:nonzero;stroke:none"
       transform="matrix(0.35277776,0,0,-0.35277776,103.0036,127.88201)"
       clip-path="url(#clipPath458)" />
    <path
       id="path459"
       d="m 0,0 1.81,0.674 c 0.506,-1.138 1.431,-1.769 2.568,-1.769 1.095,0 1.854,0.758 1.854,1.769 0,1.605 -1.852,1.852 -3.411,2.484 -0.715,0.295 -2.316,1.011 -2.316,2.989 0,2.36 1.599,3.24 3.747,3.24 1.685,0 2.822,-0.969 3.411,-2.442 L 5.979,6.44 C 5.79,6.914 5.104,7.493 4.21,7.493 2.499,7.493 2.353,6.579 2.353,6.279 2.353,5.157 3.321,4.935 4.894,4.442 6.496,3.938 8.169,3.201 8.169,0.629 c 0,-2.591 -2.1,-3.66 -3.791,-3.66 C 2.314,-3.031 0.799,-1.81 0,0"
       style="fill:#000000 icc-color(sRGB-IEC61966-2, 0.1, 0, 0, 0);fill-opacity:1;fill-rule:nonzero;stroke:none"
       transform="matrix(0.35277776,0,0,-0.35277776,85.934584,137.99925)"
       clip-path="url(#clipPath460)" />
    <path
       id="path461"
       d="m 0,0 h 2.671 c 1.506,0 1.667,1.086 1.667,1.473 0,0.563 -0.423,1.475 -1.602,1.475 L 0,2.948 Z M 2.235,-1.937 H 0 v -5.221 h -1.893 v 12 h 4.536 c 2.823,0 3.633,-2.295 3.633,-3.369 0,-0.746 -0.41,-3.41 -4.041,-3.41"
       style="fill:#000000 icc-color(sRGB-IEC61966-2, 0.1, 0, 0, 0);fill-opacity:1;fill-rule:nonzero;stroke:none"
       transform="matrix(0.35277776,0,0,-0.35277776,90.203935,136.4694)"
       clip-path="url(#clipPath462)" />
    <path
       id="path463"
       d="M 0,0 H 7.065 V -1.895 H 1.893 v -2.947 h 3.49 v -1.937 h -3.49 v -3.285 h 5.55 V -12 H 0 Z"
       style="fill:#000000 icc-color(sRGB-IEC61966-2, 0.1, 0, 0, 0);fill-opacity:1;fill-rule:nonzero;stroke:none"
       transform="matrix(0.35277776,0,0,-0.35277776,93.05304,134.76125)"
       clip-path="url(#clipPath464)" />
    <path
       id="path465"
       d="M 0,0 H 7.065 V -1.895 H 1.893 v -2.947 h 3.49 v -1.937 h -3.49 v -3.285 h 5.55 V -12 H 0 Z"
       style="fill:#000000 icc-color(sRGB-IEC61966-2, 0.1, 0, 0, 0);fill-opacity:1;fill-rule:nonzero;stroke:none"
       transform="matrix(0.35277776,0,0,-0.35277776,96.398503,134.76125)"
       clip-path="url(#clipPath466)" />
    <path
       id="path467"
       d="m 0,0 h -2.148 v -8.168 h 2.014 c 1.746,0 2.319,2.115 2.319,4.374 C 2.185,-2.719 1.879,0 0,0 M -4.041,-10.106 V 1.895 h 4.329 c 3.028,0 3.84,-3.989 3.84,-5.731 0,-4.501 -2.315,-6.27 -3.832,-6.27 z"
       style="fill:#000000 icc-color(sRGB-IEC61966-2, 0.1, 0, 0, 0);fill-opacity:1;fill-rule:nonzero;stroke:none"
       transform="matrix(0.35277776,0,0,-0.35277776,101.16947,135.42959)"
       clip-path="url(#clipPath468)" />
    <path
       id="path469"
       d="m 0,0 h 1.893 v -10.232 h 5.55 V -12 H 0 Z"
       style="fill:#000000 icc-color(sRGB-IEC61966-2, 0.1, 0, 0, 0);fill-opacity:1;fill-rule:nonzero;stroke:none"
       transform="matrix(0.35277776,0,0,-0.35277776,87.673955,141.64045)"
       clip-path="url(#clipPath470)" />
    <path
       id="path471"
       d="m 319.017,281.685 h 1.92 v -12 h -1.92 z"
       style="fill:#000000 icc-color(sRGB-IEC61966-2, 0.1, 0, 0, 0);fill-opacity:1;fill-rule:nonzero;stroke:none"
       transform="matrix(0.35277776,0,0,-0.35277776,-21.607533,241.01266)"
       clip-path="url(#clipPath472)" />
    <path
       id="path473"
       d="M 0,0 -2.782,-6.948 -5.568,0 v -6.948 h -1.899 v 12 h 1.899 L -2.782,-1.685 0,5.052 h 1.899 v -12 H 0 Z"
       style="fill:#000000 icc-color(sRGB-IEC61966-2, 0.1, 0, 0, 0);fill-opacity:1;fill-rule:nonzero;stroke:none"
       transform="matrix(0.35277776,0,0,-0.35277776,95.262205,143.42272)"
       clip-path="url(#clipPath474)" />
    <path
       id="path475"
       d="m 336.064,281.685 h 1.92 v -12 h -1.92 z"
       style="fill:#000000 icc-color(sRGB-IEC61966-2, 0.1, 0, 0, 0);fill-opacity:1;fill-rule:nonzero;stroke:none"
       transform="matrix(0.35277776,0,0,-0.35277776,-21.607533,241.01266)"
       clip-path="url(#clipPath476)" />
    <path
       id="path477"
       d="M 0,0 H -1.903 V 10.316 H -4.651 V 12 H 2.791 V 10.316 H 0 Z"
       style="fill:#000000 icc-color(sRGB-IEC61966-2, 0.1, 0, 0, 0);fill-opacity:1;fill-rule:nonzero;stroke:none"
       transform="matrix(0.35277776,0,0,-0.35277776,99.901549,145.87382)"
       clip-path="url(#clipPath478)" />
  </g>
</svg>
