<svg id="R1-5dR" xmlns="http://www.w3.org/2000/svg" width="36in" height="42in" viewBox="0 0 2592 3024">
  <defs>
    <style>
      .a {
        fill: #fff;
      }

      .b {
        fill: #af1e2d;
      }

      .c {
        fill-rule: evenodd;
      }
    </style>
  </defs>
  <g>
    <rect class="a" width="2592" height="3024" rx="162"/>
    <path d="M2430,1.0008A160.9993,160.9993,0,0,1,2590.9993,162V2862A160.9989,160.9989,0,0,1,2430,3022.9993H162A160.9993,160.9993,0,0,1,1.0008,2862V162A161,161,0,0,1,162,1.0008ZM2430,0H162A162,162,0,0,0,0,162V2862a162,162,0,0,0,162,162H2430a162,162,0,0,0,162-162V162A162,162,0,0,0,2430,0Z"/>
  </g>
  <path d="M2430,45H162A117.1377,117.1377,0,0,0,45,162V2862a117.1377,117.1377,0,0,0,117,117H2430a117.1377,117.1377,0,0,0,117-117V162A117.1377,117.1377,0,0,0,2430,45Zm54,2817a54.0556,54.0556,0,0,1-54,54H162a54.0556,54.0556,0,0,1-54-54V162a54.0556,54.0556,0,0,1,54-54H2430a54.0556,54.0556,0,0,1,54,54Z"/>
  <g id="YIELD SIGN">
    <path class="b" d="M1296,1242a45.062,45.062,0,0,1-39.4261-22.7626L727.1729,302.2879A45.5253,45.5253,0,0,1,766.599,234H1825.4007a45.5253,45.5253,0,0,1,39.4261,68.2879l-529.401,916.95A45.0609,45.0609,0,0,1,1296,1242Z"/>
    <path class="a" d="M1015.1044,378h561.7912c34.641,0,56.2917,37.5,38.9711,67.5L1334.9711,932.0254c-17.3205,30-60.6217,30-77.9422,0L976.1333,445.5C958.8127,415.5,980.4634,378,1015.1044,378Z"/>
    <g id="YIELD">
      <path class="b" d="M1167.2653,557.5023h-15.5182V508.7281L1125.216,450h16.5194l18.0211,38.82L1177.7777,450h16.5194l-27.0318,58.7281Z"/>
      <path class="b" d="M1209.3146,450.4977h15.0177V558h-15.0177Z"/>
      <path class="b" d="M1248.3605,450.4977h51.06v14.9309h-35.5416v27.3732h22.5264v14.9309h-22.5264v35.3364h39.5464V558h-55.0646Z"/>
      <path class="b" d="M1321.9468,450.4977h15.5182v93.0691h39.5464V558h-55.0646Z"/>
      <path class="b" d="M1392.029,557.5023V450.4977h31.0364c6.5076,0,29.5346.4977,29.5346,53.7512,0,48.7741-21.5253,53.7511-28.5335,53.7511H1392.029Zm28.0329-92.0737h-12.0141v77.1428h11.0129c12.5147,0,19.0224-5.4746,19.0224-38.3225C1437.5825,466.9217,1428.0713,465.4286,1420.0619,465.4286Z"/>
    </g>
  </g>
  <g id="HERE">
    <path d="M1596.0088,1732.6438h-78.6855V1863H1476V1575h41.3233v117.2159h78.65V1575h41.3584v288h-41.3233Z"/>
    <path d="M1700.712,1575h135.7755v40.4279h-94.2364v72.7562h59.753v39.42h-59.753v95.0041h105.3946V1863H1700.712Z"/>
    <path d="M1977.2854,1727.6041h-39.3428V1863h-41.3233V1575h85.7052c45.1748,0,75.6269,30.3124,75.6269,76.788,0,34.3441-14.1465,59.6158-41.3584,69.7323L2057.9153,1863H2015.62Zm-39.3428-112.1762v72.7562h42.33c24.2617,0,37.3281-13.14,37.3281-36.3961,0-22.248-15.1181-36.36-37.292-36.36Z"/>
    <path d="M2106.929,1575h135.7755v40.4279h-94.2364v72.7562h59.7529v39.42h-59.7529v95.0041h105.3946V1863H2106.929Z"/>
  </g>
  <g id="TO">
    <path d="M1327.2474,2708.9989h-41.5439V2459.413H1233v-38.4118h146.9509v38.4118h-52.7035Z"/>
    <path d="M1414.53,2564.3882c0-150.8029,69.9477-148.39,85.4632-148.39s84.5275-2.304,84.5275,148.4979c0,151.8831-69.012,149.5068-84.5275,149.5068S1414.53,2716.3787,1414.53,2564.3882Zm84.9954-107.999c-8.208,0-45.3237-1.6926-45.3237,108.2148,0,110.7,37.1157,109.007,45.3237,109.007s45.2875,1.6926,45.2875-109.007C1544.813,2454.6966,1507.7335,2456.3892,1499.5255,2456.3892Z"/>
  </g>
  <path class="c" d="M559.3333,1763.41l-130.105-21.2374,81.9976-106.5113C553.7281,1672.7182,559.0134,1717.2065,559.3333,1763.41Zm35.7881,7.7909c.2117-4.6182.9534-12.0421.9534-17.2375,0-52.7058-17.0517-103.925-63.3267-146.4927l48.1957-57.7033,74.5921,227.56ZM881.4322,1544.72l-4.1354-12.665-265.6827-.3473,70.6745,214.2579,3.0493-22.3523h-8.129l1.0159-14.2248h35.5611L712.77,1722.597h-9.1435l-2.0335,24.3842S880.4147,1545.7356,881.4322,1544.72Zm117.6684,205.8181c-35.68-28.3383-63.4517-55.35-83.4766-109.4023-31.61,28.6749-49.6442,70.15-49.6442,112.8279,0,84.753,69.1254,153.8784,153.88,153.8784,84.753,0,153.8785-69.1254,153.8785-153.8784,0-84.7546-69.1255-153.88-153.8785-153.88a154.8165,154.8165,0,0,0-76.9956,20.9739c15.093,47.6915,29.7732,72.2875,76.2081,109.6672a20.3233,20.3233,0,0,1-.4767,40.6409C1007.4049,1771.3654,999.1006,1762.2387,999.1006,1750.5378ZM553.88,1796.103c-17.4052,64.856-79.3184,111.7418-147.8437,111.7418-84.7545,0-153.88-69.1269-153.88-153.8814s69.1254-153.8815,153.88-153.8815c27.05,0,58.349,6.3835,81.1827,19.7508l-83.5223,110.8918c-10.2158.16-19.1065,9.2883-19.1065,20.3205a20.3586,20.3586,0,0,0,20.32,20.32,21.9252,21.9252,0,0,0,9.0979-2.0867Zm377.9972-210.66-54.5092-150.3843,17.2726-29.4639L860.0943,1368h-74.17l-1.016,21.3379h65.0266l13.2089,14.2232-15.2408,27.4336,19.1644,67.9267H600.8835l-4.0654-12.4259c21.3928-2.7828,58.2928-15.9627,67.1042-23.6181s1.0952-14.6939-8.9424-15.0228c-52.5352-2.233-130.5863-6.6334-145.4142-6.6989-14.8264-.0655-16.3435,7.3919-6.4187,18.2474,9.925,10.8571,18.5993,20.63,56.2015,26.4573l10.161,27.4335-62.9886,78.03c-29.6879-18.022-65.5948-27.3985-100.4842-27.3985C301.3684,1563.9252,216,1649.2936,216,1753.9634,216,1858.6316,301.3684,1944,406.0367,1944c86.1117,0,161.8293-59.3863,184.0841-141.4617l57.8754,10.4017c2.4782,6.8237,8.254,12.0527,15.1524,16.1485L652.8231,1878.05H639.6158L638.6,1891.2577l41.6568,2.0318v-14.2232H670.0972l12.5844-48.9344c18.7226-3.0631,28.5348-19.0928,22.957-35.0007l189.0725-213.8344,8.4657,22.94c-45.89,36.1491-73.3553,91.8235-73.3553,149.7264C829.8215,1858.6316,915.19,1944,1019.86,1944s190.0367-85.3684,190.0367-190.0366c0-104.67-85.3669-190.0382-190.0367-190.0382C989.424,1563.9252,958.245,1571.349,931.8776,1585.4428Z"/>
  <g>
    <path class="c" d="M748.6833,2016a57.9508,57.9508,0,1,0,57.9514,57.9514A58.0628,58.0628,0,0,0,748.6833,2016Z"/>
    <path class="c" d="M924.1465,2381.4146l-121.5644-81.0425c-5.6185-23.7528-28.9281-129.2009-75.6882-153.6053-46.3169-30.6222-217.0824,95.1751-218.0641,96.2089v183.5112l37.0243-6.4377,14.4882-146.4881q20.9263-4.2081,41.8528-8.4176c-30.4863,78.8137-41.6827,154.7673-24.1465,204.8079L504,2772.5848,553.9021,2808l107.8548-280.0985,49.9021,53.1228,69.2188,210.8785,66.0006-24.1466-59.5617-222.1471-69.2188-123.9508,26.5328-91.4781,28.1991,36.7462,132,43.4632Z"/>
  </g>
  <path d="M2394,2565l-424.4167-77.1734a30.24,30.24,0,0,1-15.926-51.1636,30.5021,30.5021,0,0,1,10.8283-6.9583l152.0769-55.5173c-151.7049-113.7506-340.2474-181.175-544.456-181.175-112.6713,0-220.5061,23.0327-320.0794,60.5406V2028.6187C1321.684,2013.251,1394.02,2007,1468.2912,2007c284.9167,0,541.925,119.2208,723.9567,310.4795l66.4564-181.9935a29.8614,29.8614,0,0,1,6.9587-10.7914,30.24,30.24,0,0,1,51.1636,15.9259Z"/>
</svg>
