<?xml version="1.0" encoding="UTF-8" standalone="no"?>
<!-- Created with Inkscape (http://www.inkscape.org/) -->

<svg
   width="133.9944mm"
   height="166.92236mm"
   viewBox="0 0 133.9944 166.92236"
   version="1.1"
   id="svg1"
   xml:space="preserve"
   inkscape:version="1.3.2 (091e20e, 2023-11-25, custom)"
   sodipodi:docname="drawing.svg"
   xmlns:inkscape="http://www.inkscape.org/namespaces/inkscape"
   xmlns:sodipodi="http://sodipodi.sourceforge.net/DTD/sodipodi-0.dtd"
   xmlns="http://www.w3.org/2000/svg"
   xmlns:svg="http://www.w3.org/2000/svg"><sodipodi:namedview
     id="namedview1"
     pagecolor="#ffffff"
     bordercolor="#000000"
     borderopacity="0.25"
     inkscape:showpageshadow="2"
     inkscape:pageopacity="0.0"
     inkscape:pagecheckerboard="0"
     inkscape:deskcolor="#d1d1d1"
     inkscape:document-units="mm"
     inkscape:zoom="2.0686841"
     inkscape:cx="2890.4848"
     inkscape:cy="203.51101"
     inkscape:window-width="960"
     inkscape:window-height="1040"
     inkscape:window-x="0"
     inkscape:window-y="0"
     inkscape:window-maximized="0"
     inkscape:current-layer="layer1"
     showguides="true" /><defs
     id="defs1" /><g
     inkscape:label="Layer 1"
     inkscape:groupmode="layer"
     id="layer1"
     transform="translate(-702.35988,-2115.1782)"><g
       id="g63"
       transform="translate(0,2103.6883)"><path
         id="path59"
         style="color:#000000;fill:#ffffff;stroke:#000000;stroke-width:0.3;stroke-dasharray:none"
         d="m 712.52841,11.639832 c -5.48113,0 -10.01853,4.535686 -10.01853,10.016818 v 146.58702 c 0,5.48116 4.5374,10.01852 10.01853,10.01852 h 113.65907 c 5.48117,0 10.01682,-4.53736 10.01682,-10.01852 V 21.65665 c 0,-5.481132 -4.53565,-10.016818 -10.01682,-10.016818 z" /><path
         id="path60"
         style="fill:#006e53;fill-opacity:1;stroke:none;stroke-width:5.1;stroke-dasharray:none"
         d="M 801.33042,68.959098 A 23.107035,23.107035 0 0 0 778.2233,92.066215 23.107035,23.107035 0 0 0 801.33042,115.17333 23.107035,23.107035 0 0 0 824.43753,92.066215 23.107035,23.107035 0 0 0 801.33042,68.959098 Z m 0,4.88394 a 18.223356,18.223356 0 0 1 18.22317,18.223177 18.223356,18.223356 0 0 1 -18.22317,18.223695 18.223356,18.223356 0 0 1 -18.2237,-18.223695 18.223356,18.223356 0 0 1 18.2237,-18.223177 z" /><path
         d="m 746.99932,98.181003 5.81484,-0.948432 -3.66509,-4.76092 c -1.89985,1.656063 -2.13529,3.644672 -2.14975,5.709352 m -1.60016,0.348108 c 0,-0.205877 -0.0449,-0.537725 -0.0449,-0.769707 0,-2.35619 0.76225,-4.645332 2.83075,-6.547927 l -2.15465,-2.579607 -3.33298,10.171303 2.69984,-0.273762 z m -12.79711,-10.122448 0.18571,-0.565524 11.87424,-0.01695 -3.15888,9.576664 -0.13648,-0.998081 h 0.36349 l -0.0436,-0.636958 h -1.58885 l 0.0464,0.591236 h 0.40764 l 0.0912,1.089524 c 0,0 -7.99249,-8.995037 -8.03831,-9.040489 m -5.25845,9.198681 c 1.59446,-1.266665 2.83525,-2.473566 3.73082,-4.889235 1.41218,1.281974 2.21843,3.134968 2.21843,5.043009 0,3.78756 -3.08906,6.87787 -6.87743,6.87787 -3.78845,0 -6.8778,-3.09031 -6.8778,-6.87787 0,-3.788582 3.08935,-6.877827 6.8778,-6.877827 1.20863,0 2.44504,0.349137 3.44099,0.937793 -0.67364,2.131488 -1.33063,3.230337 -3.40607,4.900934 -0.50405,0.02217 -0.88726,0.426048 -0.88726,0.909232 a 0.91103647,0.91103647 0 0 0 0.90827,0.907903 c 0.50021,0 0.87225,-0.408601 0.87225,-0.931809 m 19.89936,2.037185 c 0.77724,2.898589 3.54485,4.994459 6.60761,4.994459 3.78766,0 6.87702,-3.09031 6.87702,-6.87787 0,-3.788582 -3.08936,-6.877827 -6.87702,-6.877827 -1.20983,0 -2.60795,0.284971 -3.62828,0.882476 l 3.73271,4.956251 c 0.45646,0.0079 0.85318,0.415156 0.85318,0.909232 a 0.91025716,0.91025716 0 0 1 -0.90717,0.907903 0.97026555,0.97026555 0 0 1 -0.40709,-0.0942 z m -16.89534,-9.416403 2.43604,-6.721189 -0.77179,-1.317074 1.54425,-1.679715 h 3.3146 l 0.0449,0.953371 h -2.90666 l -0.5891,0.635676 0.68085,1.226152 -0.85687,3.036289 h 11.89715 l 0.18283,-0.5562 c -0.95679,-0.123488 -2.60632,-0.713078 -3.00034,-1.054679 -0.39318,-0.34214 -0.0503,-0.657239 0.39933,-0.672041 2.34811,-0.09974 5.83694,-0.295911 6.50034,-0.299536 0.66258,-0.0032 0.73048,0.331722 0.28683,0.816473 -0.44334,0.484737 -0.8319,0.922214 -2.5128,1.182251 l -0.45358,1.226136 2.81533,3.486987 c 1.32695,-0.804536 2.93161,-1.22354 4.49144,-1.22354 4.67847,0 8.49353,3.815337 8.49353,8.493631 0,4.6786 -3.81506,8.49368 -8.49353,8.49368 -3.84916,0 -7.23327,-2.65491 -8.22784,-6.322704 l -2.58613,0.465014 c -0.11055,0.30497 -0.37016,0.53852 -0.6791,0.72189 l 0.4619,2.18836 h 0.59102 l 0.0449,0.58945 -1.86206,0.0916 v -0.63593 h 0.45563 l -0.56387,-2.18656 c -0.83628,-0.13663 -1.27474,-0.85413 -1.02538,-1.565414 l -8.45125,-9.557171 -0.3786,1.025326 c 2.05197,1.615834 3.27968,4.104473 3.27968,6.692628 0,4.678601 -3.81672,8.493671 -8.4941,8.493671 -4.67847,0 -8.49464,-3.81532 -8.49464,-8.493671 0,-4.678546 3.81617,-8.493377 8.49464,-8.493377 1.36008,0 2.75354,0.330678 3.93232,0.960386"
         style="fill:#000000;fill-opacity:1;fill-rule:evenodd;stroke:none;stroke-width:0.0807326"
         id="path61" /><path
         id="rect61"
         style="fill:none;stroke:#000000;stroke-width:3.5"
         d="M 712.52624,15.575588 H 826.188 c 3.36917,0 6.08154,2.712364 6.08154,6.081534 V 168.24306 c 0,3.36917 -2.71237,6.08154 -6.08154,6.08154 H 712.52624 c -3.36917,0 -6.08154,-2.71237 -6.08154,-6.08154 V 21.657122 c 0,-3.36917 2.71237,-6.081534 6.08154,-6.081534 z" /><path
         style="font-size:41.5253px;font-family:'Highway Gothic';-inkscape-font-specification:'Highway Gothic, Normal';text-align:center;text-anchor:middle;stroke-width:3.5"
         d="m 734.59813,163.5854 q -4.89999,0 -7.55761,-3.69575 -2.61609,-3.73728 -2.61609,-10.71353 0,-6.81015 2.61609,-10.58895 2.65762,-3.7788 7.55761,-3.7788 4.98303,0 7.5576,3.7788 2.61609,3.7788 2.61609,10.58895 0,6.97625 -2.61609,10.71353 -2.57457,3.69575 -7.5576,3.69575 z m 0,-24.37535 q -2.90677,0 -4.23558,2.7822 -1.32881,2.74066 -1.37034,7.10082 0,4.89999 1.28729,7.43303 1.3288,2.53304 4.31863,2.49152 3.15592,-0.083 4.36015,-2.6161 1.20424,-2.53304 1.28729,-7.30845 -0.0831,-4.65083 -1.41186,-7.18388 -1.28729,-2.53304 -4.23558,-2.69914 z m 32.76348,23.87705 h -3.90338 l -10.63047,-18.85249 v 18.85249 h -4.40169 v -27.82195 h 4.40169 l 10.13217,17.77282 v -17.77282 h 4.40168 z m 21.38554,0 h -17.27452 v -27.82195 h 4.40168 v 23.33721 h 12.87284 z m 26.90837,-27.82195 -9.63387,15.73809 v 12.08386 h -4.40168 v -12.08386 l -9.75845,-15.73809 h 5.27372 l 6.64405,10.75505 6.72709,-10.75505 z"
         id="text61"
         aria-label="ONLY" /><path
         style="font-size:41.5253px;font-family:'Highway Gothic';-inkscape-font-specification:'Highway Gothic, Normal';text-align:center;text-anchor:middle;stroke-width:3.5"
         d="m 803.51216,94.818291 h -5.27371 v 12.083859 h -4.40168 V 79.080203 h 9.17709 q 3.07287,0 4.94151,0.913556 1.86864,0.872031 3.03135,2.823721 1.20423,1.951689 1.20423,4.069479 0,2.200841 -0.95508,3.986429 -0.95508,1.785587 -2.90677,2.906771 -1.91017,1.079657 -4.81694,1.038132 z m 4.23558,-7.848282 q 0,-1.619486 -0.9966,-2.491517 -0.95509,-0.872032 -2.15932,-0.913557 h -6.43642 v 6.851674 h 6.60252 q 1.24576,0 2.11779,-0.913556 0.87203,-0.913557 0.87203,-2.533044 z"
         id="path62"
         aria-label="P" /><path
         id="rect62"
         style="stroke-width:5.1"
         d="m 768.54315,27.855057 h 1.62789 v 94.417783 h -1.62789 z" /><path
         style="font-size:27.5707px;font-family:'Highway Gothic Condensed';-inkscape-font-specification:'Highway Gothic Condensed, Normal';text-align:center;text-anchor:middle;stroke-width:3.5"
         d="m 786.57752,33.807545 q -0.0276,3.363626 -2.15051,4.494024 l 2.09537,8.795053 h -2.37108 l -1.92995,-8.629629 h -1.29582 v 8.629629 h -2.31594 V 28.624254 h 3.61176 q 1.84724,0 3.11549,1.350964 1.26825,1.350964 1.24068,3.832327 z m -2.39865,-0.05514 q 0,-1.406106 -0.57899,-2.067803 -0.55141,-0.661696 -1.48881,-0.661696 h -1.18554 v 5.073008 h 1.37853 q 0.88226,-0.08271 1.37854,-0.716838 0.49627,-0.634126 0.49627,-1.626671 z m 8.13337,13.344218 H 789.9963 V 28.624254 h 2.31594 z m 7.41653,-16.459707 q -0.74441,-0.02757 -1.24068,0.882262 -0.46871,0.909833 -0.63413,6.396402 0.16542,5.128151 0.68927,6.037984 0.52384,0.909833 1.32339,0.854691 1.21311,0 1.37854,-1.792095 v -2.453792 h -1.54396 v -2.453793 h 3.83232 v 4.907585 q 0,2.122944 -1.1304,3.280913 -1.10282,1.130399 -2.59164,1.130399 -2.31594,0 -3.25334,-2.122944 -0.93741,-2.150515 -0.99255,-7.416518 0.0551,-5.651994 1.10283,-7.609513 1.04769,-1.95752 3.14306,-1.95752 1.37853,0 2.5365,1.102828 1.18554,1.075257 1.18554,3.060348 h -2.28836 q -0.0552,-1.819667 -1.51639,-1.847237 z m 14.55733,16.459707 h -2.34351 v -8.629629 h -3.30848 v 8.629629 h -2.31594 V 28.624254 h 2.31594 v 7.471659 h 3.30848 v -7.471659 h 2.34351 z m 9.45677,-16.073717 h -2.42623 v 16.073717 h -2.34351 V 31.022905 h -2.28836 v -2.398651 h 7.0581 z"
         id="text62"
         aria-label="RIGHT" /><path
         style="font-size:27.5707px;font-family:'Highway Gothic Condensed';-inkscape-font-specification:'Highway Gothic Condensed, Normal';text-align:center;text-anchor:middle;stroke-width:3.5"
         d="m 730.53378,47.096622 h -7.0581 V 28.624254 h 2.31594 v 16.073718 h 4.74216 z m 8.9605,0 h -7.0581 V 28.624254 h 6.80996 v 2.398651 h -4.49402 v 4.74216 h 3.0052 v 2.453792 h -3.0052 v 6.479115 h 4.74216 z m 8.9605,-16.073717 h -4.74216 v 4.74216 h 2.72949 v 2.453792 h -2.72949 v 8.877765 h -2.31594 V 28.624254 h 7.0581 z m 8.93292,0 h -2.42622 v 16.073717 h -2.34351 V 31.022905 h -2.28836 v -2.398651 h 7.05809 z"
         id="text63"
         aria-label="LEFT" /></g></g></svg>
