<?xml version="1.0" encoding="UTF-8" standalone="no"?>
<svg
   xmlns:dc="http://purl.org/dc/elements/1.1/"
   xmlns:cc="http://creativecommons.org/ns#"
   xmlns:rdf="http://www.w3.org/1999/02/22-rdf-syntax-ns#"
   xmlns:svg="http://www.w3.org/2000/svg"
   xmlns="http://www.w3.org/2000/svg"
   xmlns:sodipodi="http://sodipodi.sourceforge.net/DTD/sodipodi-0.dtd"
   xmlns:inkscape="http://www.inkscape.org/namespaces/inkscape"
   sodipodi:docname="R7-7.svg"
   inkscape:version="1.0rc1 (09960d6f05, 2020-04-09)"
   id="svg6388"
   version="1.1"
   viewBox="0 0 24.306742 36.371037"
   height="36.371037mm"
   width="24.306742mm">
  <defs
     id="defs6382">
    <clipPath
       clipPathUnits="userSpaceOnUse"
       id="clipPath4538">
      <path
         d="M 27,33.9 H 539.875 V 635.4 H 27 Z"
         id="path4536"
         inkscape:connector-curvature="0" />
    </clipPath>
  </defs>
  <sodipodi:namedview
     inkscape:window-maximized="1"
     inkscape:window-y="0"
     inkscape:window-x="0"
     inkscape:window-height="836"
     inkscape:window-width="1600"
     fit-margin-bottom="0"
     fit-margin-right="0"
     fit-margin-left="0"
     fit-margin-top="0"
     showgrid="false"
     inkscape:document-rotation="0"
     inkscape:current-layer="layer1"
     inkscape:document-units="mm"
     inkscape:cy="93.018364"
     inkscape:cx="140.21971"
     inkscape:zoom="1.4"
     inkscape:pageshadow="2"
     inkscape:pageopacity="0.0"
     borderopacity="1.0"
     bordercolor="#666666"
     pagecolor="#ffffff"
     id="base" />
  <metadata
     id="metadata6385">
    <rdf:RDF>
      <cc:Work
         rdf:about="">
        <dc:format>image/svg+xml</dc:format>
        <dc:type
           rdf:resource="http://purl.org/dc/dcmitype/StillImage" />
        <dc:title></dc:title>
      </cc:Work>
    </rdf:RDF>
  </metadata>
  <g
     transform="translate(-61.929962,-70.260915)"
     id="layer1"
     inkscape:groupmode="layer"
     inkscape:label="Layer 1">
    <g
       transform="matrix(0.35277777,0,0,-0.35277777,-25.878259,241.48725)"
       id="g4532">
      <g
         id="g4534"
         clip-path="url(#clipPath4538)">
        <g
           id="g4540"
           transform="translate(257.7052,485.116)">
          <path
             d="m 0,0 h 51.3 c 4.709,0 8.551,-3.841 8.551,-8.549 v -85.5 c 0,-4.709 -3.842,-8.55 -8.551,-8.55 H 0 c -4.709,0 -8.55,3.841 -8.55,8.55 v 85.5 C -8.55,-3.899 -4.65,0 0,0"
             style="fill:#ffffff;fill-opacity:1;fill-rule:nonzero;stroke:#231f20;stroke-width:0.5;stroke-linecap:butt;stroke-linejoin:miter;stroke-miterlimit:4;stroke-dasharray:none;stroke-opacity:1"
             id="path4542"
             inkscape:connector-curvature="0" />
        </g>
        <g
           id="g4544"
           transform="translate(257.7312,482.9789)">
          <path
             d="m 0,0 h 51.247 c 3.531,-0.014 6.418,-2.914 6.439,-6.439 v -85.446 c -0.021,-3.528 -2.908,-6.421 -6.439,-6.44 H 0 c -3.523,0.019 -6.427,2.912 -6.439,6.44 V -6.439 C -6.427,-2.914 -3.523,-0.014 0,0"
             style="fill:#bf2519;fill-opacity:1;fill-rule:evenodd;stroke:none"
             id="path4546"
             inkscape:connector-curvature="0" />
        </g>
        <g
           id="g4548"
           transform="translate(257.7642,480.4829)">
          <path
             d="m 0,0 h 51.182 c 2.2,-0.013 3.961,-1.775 3.975,-3.976 v -85.381 c -0.014,-2.19 -1.775,-3.976 -3.975,-3.975 H 0 c -2.2,-0.001 -3.964,1.785 -3.975,3.975 V -3.976 C -3.965,-1.775 -2.2,-0.014 0,0"
             style="fill:#ffffff;fill-opacity:1;fill-rule:evenodd;stroke:none"
             id="path4550"
             inkscape:connector-curvature="0" />
        </g>
        <g
           id="g4552"
           transform="translate(297.0142,394.6249)">
          <path
             d="m 0,0 -0.712,-2.697 c -0.018,-0.012 -0.035,-0.028 -0.041,-0.05 -0.016,-0.036 -0.028,-0.069 -0.038,-0.103 0.016,-0.16 0.049,-0.302 0.147,-0.428 0.172,-0.234 0.41,-0.291 0.684,-0.285 0.091,0 0.2,0.028 0.274,0.08 l 8.157,5.62 -8.157,5.54 C 0.2,7.757 0.12,7.802 -0.017,7.83 -0.256,7.877 -0.525,7.689 -0.661,7.5 -0.742,7.381 -0.781,7.266 -0.791,7.125 -0.781,7.079 -0.781,7.027 -0.758,6.983 -0.747,6.947 -0.73,6.92 -0.712,6.885 L 0,4.275 H -35.763 V 0 Z"
             style="fill:#bf2519;fill-opacity:1;fill-rule:evenodd;stroke:none"
             id="path4554"
             inkscape:connector-curvature="0" />
        </g>
        <g
           id="g4556"
           transform="translate(274.3712,468.812)">
          <path
             d="m 0,0 5.126,-11.461 h 1.819 v 17.1 H 4.536 V -4.588 L 0,5.639 h -2.41 v -17.1 H 0 Z"
             style="fill:#bf2519;fill-opacity:1;fill-rule:evenodd;stroke:none"
             id="path4558"
             inkscape:connector-curvature="0" />
        </g>
        <g
           id="g4560"
           transform="translate(311.3002,449.2869)">
          <path
             d="m 0,0 c -0.233,2.154 -1.385,3.358 -3.256,3.358 -1.615,0 -2.613,-0.717 -3.178,-2.255 -0.59,-1.59 -0.769,-3.102 -0.769,-6.562 0,-3.486 0.179,-4.998 0.718,-6.587 0.565,-1.589 1.538,-2.26 3.229,-2.26 1.514,0 2.666,0.748 3,1.953 0.152,0.538 0.256,1.435 0.256,2.229 v 4.383 H -3.102 V -7.97 h 0.975 v -2.256 c 0,-1.179 -0.438,-1.845 -1.205,-1.845 -0.742,0 -1.18,0.563 -1.358,1.691 -0.232,1.435 -0.308,2.589 -0.308,4.921 0,2.358 0.076,3.511 0.334,4.895 0.203,1.129 0.691,1.693 1.461,1.693 0.59,0 0.972,-0.411 1.076,-1.129 z"
             style="fill:#bf2519;fill-opacity:1;fill-rule:evenodd;stroke:none"
             id="path4562"
             inkscape:connector-curvature="0" />
        </g>
        <g
           id="g4564"
           transform="translate(302.0632,452.3629)">
          <path
             d="M 0,0 H -2.128 V -8.535 L -5.074,0 h -2.129 v -17.1 h 2.129 V -6.945 L -1.794,-17.1 H 0 Z"
             style="fill:#bf2519;fill-opacity:1;fill-rule:evenodd;stroke:none"
             id="path4566"
             inkscape:connector-curvature="0" />
        </g>
        <path
           d="M 292.827,452.363 H 290.7 v -17.1 h 2.127 z"
           style="fill:#bf2519;fill-opacity:1;fill-rule:evenodd;stroke:none"
           id="path4568"
           inkscape:connector-curvature="0" />
        <g
           id="g4570"
           transform="translate(286.2562,446.4679)">
          <path
             d="M 0,0 2.768,5.895 H 0.333 l -2.64,-5.459 v 5.459 h -2.128 v -17.1 h 2.128 v 6.412 l 0.794,1.692 2.256,-8.104 H 3.05 Z"
             style="fill:#bf2519;fill-opacity:1;fill-rule:evenodd;stroke:none"
             id="path4572"
             inkscape:connector-curvature="0" />
        </g>
        <g
           id="g4574"
           transform="translate(294.8412,428.95)">
          <path
             d="m 0,0 c -0.07,1.708 -1.266,2.939 -2.855,2.939 -1.571,0 -2.853,-1.316 -2.853,-2.939 0,-1.026 0.478,-1.88 1.401,-2.529 2.238,-1.572 1.623,-1.128 1.879,-1.35 0.633,-0.546 0.872,-1.009 0.872,-1.64 0,-0.94 -0.701,-1.726 -1.555,-1.726 -0.905,0 -1.573,0.786 -1.573,1.828 v 0.137 h -1.554 v -0.154 c 0,-1.914 1.367,-3.403 3.127,-3.403 1.709,0 3.111,1.489 3.111,3.318 0,1.623 -0.958,2.887 -3.111,4.151 -0.803,0.479 -1.042,0.787 -1.042,1.368 0,0.734 0.581,1.333 1.298,1.333 0.718,0 1.265,-0.547 1.299,-1.333 z"
             style="fill:#bf2519;fill-opacity:1;fill-rule:evenodd;stroke:none"
             id="path4576"
             inkscape:connector-curvature="0" />
        </g>
        <g
           id="g4578"
           transform="translate(284.9212,431.7009)">
          <path
             d="m 0,0 v -8.202 c 0,-1.077 -0.598,-1.794 -1.486,-1.794 -0.924,0 -1.538,0.717 -1.538,1.794 V 0 H -4.63 v -7.98 c 0,-0.94 0.103,-1.418 0.426,-1.998 0.548,-0.974 1.641,-1.61 2.718,-1.61 1.059,0 2.135,0.652 2.666,1.61 0.325,0.58 0.427,1.058 0.427,1.998 V 0 Z"
             style="fill:#bf2519;fill-opacity:1;fill-rule:evenodd;stroke:none"
             id="path4580"
             inkscape:connector-curvature="0" />
        </g>
        <g
           id="g4582"
           transform="translate(271.9612,431.7009)">
          <path
             d="m 0,0 v -11.4 h 3.281 c 1.64,0 2.956,1.404 2.956,3.13 0,1.144 -0.478,2.101 -1.367,2.836 0.922,0.94 1.179,1.452 1.179,2.478 C 6.049,-1.213 5.007,0 3.503,0 Z"
             style="fill:#bf2519;fill-opacity:1;fill-rule:evenodd;stroke:none"
             id="path4584"
             inkscape:connector-curvature="0" />
        </g>
        <g
           id="g4586"
           transform="translate(293.7552,410.3299)">
          <path
             d="m 0,0 h 1.725 c 1.88,0 2.905,1.145 2.905,3.214 0,1.913 -1.161,3.195 -2.905,3.195 h -3.333 v -11.4 H 0 Z"
             style="fill:#bf2519;fill-opacity:1;fill-rule:evenodd;stroke:none"
             id="path4588"
             inkscape:connector-curvature="0" />
        </g>
        <g
           id="g4590"
           transform="translate(281.9142,415.2169)">
          <path
             d="M 0,0 V 1.522 H -5.69 V 0 h 2.068 v -9.878 h 1.606 V 0 Z"
             style="fill:#bf2519;fill-opacity:1;fill-rule:evenodd;stroke:none"
             id="path4592"
             inkscape:connector-curvature="0" />
        </g>
        <g
           id="g4594"
           transform="translate(274.6352,413.9869)">
          <path
             d="m 0,0 c -0.068,1.709 -1.263,2.939 -2.853,2.939 -1.572,0 -2.853,-1.316 -2.853,-2.939 0,-1.025 0.478,-1.879 1.401,-2.529 2.238,-1.572 1.623,-1.128 1.879,-1.35 0.633,-0.546 0.872,-1.008 0.872,-1.64 0,-0.94 -0.701,-1.726 -1.555,-1.726 -0.906,0 -1.572,0.786 -1.572,1.829 v 0.137 h -1.555 v -0.155 c 0,-1.914 1.367,-3.403 3.127,-3.403 1.708,0 3.109,1.489 3.109,3.318 0,1.623 -0.956,2.888 -3.109,4.152 -0.803,0.478 -1.043,0.786 -1.043,1.367 0,0.735 0.581,1.333 1.299,1.333 0.718,0 1.264,-0.546 1.299,-1.333 z"
             style="fill:#bf2519;fill-opacity:1;fill-rule:evenodd;stroke:none"
             id="path4596"
             inkscape:connector-curvature="0" />
        </g>
        <g
           id="g4598"
           transform="translate(289.8772,472.349)">
          <path
             d="m 0,0 c -1.024,0 -1.691,-0.641 -2.102,-2.076 -0.384,-1.333 -0.512,-2.46 -0.512,-4.383 0,-1.871 0.128,-2.973 0.512,-4.306 0.411,-1.461 1.052,-2.127 2.102,-2.127 1,0 1.666,0.666 2.076,2.102 0.384,1.358 0.513,2.409 0.513,4.357 0,1.922 -0.129,3.049 -0.513,4.306 C 1.64,-0.641 1,0 0,0 m 0,2.384 c 1.948,0 3.102,-0.846 3.974,-2.922 0.691,-1.666 0.947,-3.281 0.947,-5.895 0,-2.64 -0.256,-4.281 -0.947,-5.947 -0.847,-2.025 -2.052,-2.9 -3.974,-2.9 -1.974,0 -3.153,0.875 -3.999,2.926 -0.691,1.666 -0.947,3.307 -0.947,5.921 0,2.614 0.281,4.357 0.973,5.972 0.872,1.999 2.05,2.845 3.973,2.845"
             style="fill:#bf2519;fill-opacity:1;fill-rule:evenodd;stroke:none"
             id="path4600"
             inkscape:connector-curvature="0" />
        </g>
        <g
           id="g4602"
           transform="translate(274.7132,445.4939)">
          <path
             d="m 0,0 h 1.384 c 1.153,0 1.512,0.513 1.512,2.128 0,1.947 -0.41,2.511 -1.845,2.511 H 0 Z m 3.332,-1.691 1.692,-8.54 H 2.845 L 0.974,-2.229 H 0 v -8.002 h -2.128 v 17.1 h 3.255 c 2.615,0 3.948,-1.614 3.948,-4.767 0,-1.948 -0.487,-2.999 -1.743,-3.793"
             style="fill:#bf2519;fill-opacity:1;fill-rule:evenodd;stroke:none"
             id="path4604"
             inkscape:connector-curvature="0" />
        </g>
        <g
           id="g4606"
           transform="translate(267.8342,442.0339)">
          <path
             d="M 0,0 -0.922,4.511 -1.845,0 Z m 0.462,-2.23 h -2.768 l -0.923,-4.541 h -2.23 l 3.435,17.1 H 0.18 l 3.435,-17.1 H 1.384 Z"
             style="fill:#bf2519;fill-opacity:1;fill-rule:evenodd;stroke:none"
             id="path4608"
             inkscape:connector-curvature="0" />
        </g>
        <g
           id="g4610"
           transform="translate(257.7012,444.9559)">
          <path
             d="m 0,0 h 1.128 c 1.307,0 1.769,0.641 1.769,2.435 0,1.896 -0.565,2.742 -1.769,2.742 H 0 Z m 0,-2.23 v -7.463 h -2.127 v 17.1 H 1.128 C 2.102,7.407 2.947,7.151 3.486,6.715 4.46,5.921 5.075,4.28 5.075,2.46 c 0,-2.819 -1.589,-4.69 -3.947,-4.69 z"
             style="fill:#bf2519;fill-opacity:1;fill-rule:evenodd;stroke:none"
             id="path4612"
             inkscape:connector-curvature="0" />
        </g>
        <g
           id="g4614"
           transform="translate(273.5672,425.4639)">
          <path
             d="m 0,0 h 1.606 c 0.821,0 1.47,-0.855 1.47,-1.931 0,-0.99 -0.598,-1.64 -1.487,-1.64 H 0 Z"
             style="fill:#ffffff;fill-opacity:1;fill-rule:evenodd;stroke:none"
             id="path4616"
             inkscape:connector-curvature="0" />
        </g>
        <g
           id="g4618"
           transform="translate(273.5672,430.111)">
          <path
             d="m 0,0 h 1.675 c 0.838,0 1.213,-0.427 1.213,-1.366 0,-1.042 -0.461,-1.692 -1.213,-1.692 H 0 Z"
             style="fill:#ffffff;fill-opacity:1;fill-rule:evenodd;stroke:none"
             id="path4620"
             inkscape:connector-curvature="0" />
        </g>
        <g
           id="g4622"
           transform="translate(293.7552,411.92)">
          <path
             d="m 0,0 v 3.229 h 1.641 c 0.853,0 1.434,-0.65 1.434,-1.605 C 3.075,0.581 2.562,0 1.641,0 Z"
             style="fill:#ffffff;fill-opacity:1;fill-rule:evenodd;stroke:none"
             id="path4624"
             inkscape:connector-curvature="0" />
        </g>
        <g
           id="g4626"
           transform="translate(286.8002,415.3369)">
          <path
             d="m 0,0 c -0.682,0 -1.127,-0.428 -1.401,-1.383 -0.255,-0.889 -0.341,-1.641 -0.341,-2.923 0,-1.247 0.086,-1.981 0.341,-2.87 0.274,-0.974 0.702,-1.419 1.401,-1.419 0.666,0 1.111,0.445 1.385,1.401 0.255,0.907 0.341,1.606 0.341,2.905 0,1.282 -0.086,2.034 -0.341,2.871 C 1.094,-0.428 0.666,0 0,0 m 0,1.589 c 1.299,0 2.068,-0.564 2.649,-1.948 0.461,-1.111 0.632,-2.187 0.632,-3.93 0,-1.76 -0.171,-2.854 -0.632,-3.964 -0.563,-1.35 -1.366,-1.934 -2.649,-1.934 -1.315,0 -2.101,0.584 -2.665,1.952 -0.462,1.11 -0.633,2.204 -0.633,3.946 0,1.743 0.188,2.906 0.65,3.982 0.581,1.332 1.367,1.896 2.648,1.896"
             style="fill:#bf2519;fill-opacity:1;fill-rule:evenodd;stroke:none"
             id="path4628"
             inkscape:connector-curvature="0" />
        </g>
      </g>
    </g>
  </g>
</svg>
