<?xml version="1.0" encoding="UTF-8" standalone="no"?>
<!-- Created with Inkscape (http://www.inkscape.org/) -->

<svg
   width="30.656387mm"
   height="45.896389mm"
   viewBox="0 0 30.656387 45.896389"
   version="1.1"
   id="svg1"
   inkscape:version="1.3 (0e150ed, 2023-07-21)"
   sodipodi:docname="MUTCD_R8-3c.svg"
   xmlns:inkscape="http://www.inkscape.org/namespaces/inkscape"
   xmlns:sodipodi="http://sodipodi.sourceforge.net/DTD/sodipodi-0.dtd"
   xmlns="http://www.w3.org/2000/svg"
   xmlns:svg="http://www.w3.org/2000/svg">
  <sodipodi:namedview
     id="namedview1"
     pagecolor="#ffffff"
     bordercolor="#666666"
     borderopacity="1.0"
     inkscape:showpageshadow="2"
     inkscape:pageopacity="0.0"
     inkscape:pagecheckerboard="0"
     inkscape:deskcolor="#d1d1d1"
     inkscape:document-units="mm"
     inkscape:zoom="2.3786088"
     inkscape:cx="33.633105"
     inkscape:cy="74.833659"
     inkscape:window-width="1440"
     inkscape:window-height="431"
     inkscape:window-x="0"
     inkscape:window-y="23"
     inkscape:window-maximized="0"
     inkscape:current-layer="layer1" />
  <defs
     id="defs1">
    <clipPath
       clipPathUnits="userSpaceOnUse"
       id="clipPath1065">
      <path
         d="M 26.975,44.288 H 537.001 V 743 H 26.975 Z"
         transform="translate(-300.82621,-329.80091)"
         id="path1065" />
    </clipPath>
    <clipPath
       clipPathUnits="userSpaceOnUse"
       id="clipPath1067">
      <path
         d="M 26.975,44.288 H 537.001 V 743 H 26.975 Z"
         transform="translate(-376.42661,-459.77631)"
         id="path1067" />
    </clipPath>
    <clipPath
       clipPathUnits="userSpaceOnUse"
       id="clipPath1069">
      <path
         d="M 26.975,44.288 H 537.001 V 743 H 26.975 Z"
         transform="translate(-376.42661,-333.52631)"
         id="path1069" />
    </clipPath>
    <clipPath
       clipPathUnits="userSpaceOnUse"
       id="clipPath1071">
      <path
         d="M 26.975,44.288 H 537.001 V 743 H 26.975 Z"
         transform="translate(-333.58301,-429.31881)"
         id="path1071" />
    </clipPath>
    <clipPath
       clipPathUnits="userSpaceOnUse"
       id="clipPath1073">
      <path
         d="M 26.975,44.288 H 537.001 V 743 H 26.975 Z"
         transform="translate(-308.02661,-416.32641)"
         id="path1073" />
    </clipPath>
    <clipPath
       clipPathUnits="userSpaceOnUse"
       id="clipPath1075">
      <path
         d="M 26.975,44.288 H 537.001 V 743 H 26.975 Z"
         transform="translate(-333.78131,-362.07891)"
         id="path1075" />
    </clipPath>
    <clipPath
       clipPathUnits="userSpaceOnUse"
       id="clipPath1077">
      <path
         d="M 26.975,44.288 H 537.001 V 743 H 26.975 Z"
         transform="translate(-341.67941,-367.83921)"
         id="path1077" />
    </clipPath>
    <clipPath
       clipPathUnits="userSpaceOnUse"
       id="clipPath1079">
      <path
         d="M 26.975,44.288 H 537.001 V 743 H 26.975 Z"
         transform="translate(-304.61441,-348.06851)"
         id="path1079" />
    </clipPath>
    <clipPath
       clipPathUnits="userSpaceOnUse"
       id="clipPath1081">
      <path
         d="M 26.975,44.288 H 537.001 V 743 H 26.975 Z"
         transform="translate(-314.41791,-346.40121)"
         id="path1081" />
    </clipPath>
    <clipPath
       clipPathUnits="userSpaceOnUse"
       id="clipPath1083">
      <path
         d="M 26.975,44.288 H 537.001 V 743 H 26.975 Z"
         transform="translate(-324.16621,-341.62631)"
         id="path1083" />
    </clipPath>
    <clipPath
       clipPathUnits="userSpaceOnUse"
       id="clipPath1085">
      <path
         d="M 26.975,44.288 H 537.001 V 743 H 26.975 Z"
         transform="translate(-330.57751,-352.42631)"
         id="path1085" />
    </clipPath>
    <clipPath
       clipPathUnits="userSpaceOnUse"
       id="clipPath1087">
      <path
         d="M 26.975,44.288 H 537.001 V 743 H 26.975 Z"
         transform="translate(-345.83201,-347.87951)"
         id="path1087" />
    </clipPath>
    <clipPath
       clipPathUnits="userSpaceOnUse"
       id="clipPath1089">
      <path
         d="M 26.975,44.288 H 537.001 V 743 H 26.975 Z"
         transform="translate(-350.13341,-352.42631)"
         id="path1089" />
    </clipPath>
    <clipPath
       clipPathUnits="userSpaceOnUse"
       id="clipPath1091">
      <path
         d="M 26.975,44.288 H 537.001 V 743 H 26.975 Z"
         transform="translate(-360.37161,-348.93921)"
         id="path1091" />
    </clipPath>
    <clipPath
       clipPathUnits="userSpaceOnUse"
       id="clipPath1093">
      <path
         d="M 26.975,44.288 H 537.001 V 743 H 26.975 Z"
         transform="translate(-371.82621,-341.62631)"
         id="path1093" />
    </clipPath>
  </defs>
  <g
     inkscape:label="Layer 1"
     inkscape:groupmode="layer"
     id="layer1"
     transform="translate(-71.437504,-62.706246)">
    <path
       id="path1064"
       d="m 0,0 c -3.046,0 -5.524,2.479 -5.524,5.525 v 118.8 c 0,3.047 2.478,5.526 5.524,5.526 h 75.601 c 3.045,0 5.524,-2.479 5.524,-5.526 V 5.525 C 81.125,2.479 78.646,0 75.601,0 Z"
       style="fill:#ffffff;fill-opacity:1;fill-rule:nonzero;stroke:none"
       transform="matrix(0.35277776,0,0,-0.35277776,73.430557,108.55868)"
       clip-path="url(#clipPath1065)" />
    <path
       id="path1066"
       d="m 0,0 h -75.6 c -3.115,0 -5.65,-2.535 -5.65,-5.65 v -118.8 c 0,-3.115 2.535,-5.65 5.65,-5.65 H 0 c 3.115,0 5.65,2.535 5.65,5.65 V -5.65 C 5.65,-2.535 3.115,0 0,0 m 0,-0.25 c 2.97,0 5.4,-2.43 5.4,-5.4 v -118.8 c 0,-2.97 -2.43,-5.4 -5.4,-5.4 h -75.6 c -2.97,0 -5.4,2.43 -5.4,5.4 v 118.8 c 0,2.97 2.43,5.4 5.4,5.4 z"
       style="fill:#000000;fill-opacity:1;fill-rule:nonzero;stroke:none"
       transform="matrix(0.35277776,0,0,-0.35277776,100.1007,62.706246)"
       clip-path="url(#clipPath1067)" />
    <path
       id="path1068"
       d="m 0,0 c 0.993,0 1.8,0.807 1.8,1.8 v 118.8 c 0,0.992 -0.807,1.8 -1.8,1.8 h -75.6 c -0.993,0 -1.8,-0.808 -1.8,-1.8 V 1.8 c 0,-0.993 0.807,-1.8 1.8,-1.8 z m -75.6,-2.25 c -2.233,0 -4.05,1.817 -4.05,4.05 v 118.8 c 0,2.233 1.817,4.05 4.05,4.05 H 0 c 2.233,0 4.05,-1.817 4.05,-4.05 V 1.8 C 4.05,-0.433 2.233,-2.25 0,-2.25 Z"
       style="fill:#c0311a;fill-opacity:1;fill-rule:nonzero;stroke:none"
       transform="matrix(0.35277776,0,0,-0.35277776,100.1007,107.24444)"
       clip-path="url(#clipPath1069)" />
    <path
       id="path1070"
       d="m 0,0 v -9.817 h 12.663 c 3.321,0 5.438,1.965 5.438,4.984 0,2.722 -2.263,4.833 -5.438,4.833 z m 0,-18.43 v -16.162 h -8.456 v 43.2 h 21.81 c 6.685,0 13.203,-5.616 13.203,-13.441 0,-7.42 -5.508,-13.597 -13.786,-13.597 z"
       style="fill:#000000;fill-opacity:1;fill-rule:nonzero;stroke:none"
       transform="matrix(0.35277776,0,0,-0.35277776,84.986427,73.450975)"
       clip-path="url(#clipPath1071)" />
    <path
       id="path1072"
       d="M 0,0 C 0,7.153 2.454,13.732 6.567,18.942 L 49.542,-24.033 C 44.332,-28.146 37.753,-30.6 30.6,-30.6 13.7,-30.6 0,-16.9 0,0 m 61.2,0 c 0,-7.153 -2.454,-13.732 -6.567,-18.942 L 11.658,24.033 C 16.868,28.146 23.447,30.6 30.6,30.6 47.5,30.6 61.2,16.9 61.2,0 M 30.6,37.8 C 9.724,37.8 -7.2,20.876 -7.2,0 c 0,-20.876 16.924,-37.8 37.8,-37.8 20.876,0 37.8,16.924 37.8,37.8 0,20.876 -16.924,37.8 -37.8,37.8"
       style="fill:#c0311a;fill-opacity:1;fill-rule:nonzero;stroke:none"
       transform="matrix(0.35277776,0,0,-0.35277776,75.970697,78.034405)"
       clip-path="url(#clipPath1073)" />
    <path
       id="path1074"
       d="M 0,0 C 1.164,0 2.109,1.103 2.109,3.847 2.109,6.592 1.164,7.695 0,7.695 -1.164,7.695 -2.109,6.593 -2.109,3.847 -2.109,1.103 -1.164,0 0,0 m 3.818,3.847 c 0,-0.387 0.082,-5.589 -3.837,-5.589 -3.919,0 -3.837,5.202 -3.837,5.589 0,0.388 -0.082,5.588 3.837,5.588 3.919,0 3.837,-5.2 3.837,-5.588"
       style="fill:#c0311a;fill-opacity:1;fill-rule:nonzero;stroke:none"
       transform="matrix(0.35277776,0,0,-0.35277776,85.056383,97.171717)"
       clip-path="url(#clipPath1075)" />
    <path
       id="path1076"
       d="m 0,0 v -7.313 h -1.704 v 10.8 H 0 L 3.942,-3.41 v 6.897 h 1.706 v -10.8 H 4.132 Z"
       style="fill:#c0311a;fill-opacity:1;fill-rule:nonzero;stroke:none"
       transform="matrix(0.35277776,0,0,-0.35277776,87.842657,95.139612)"
       clip-path="url(#clipPath1077)" />
    <path
       id="path1078"
       d="m 0,0 h 2.404 c 1.356,0 1.5,0.977 1.5,1.326 0,0.506 -0.381,1.327 -1.442,1.327 H 0 Z M 2.011,-1.743 H 0 v -4.699 h -1.704 v 10.8 h 4.083 c 2.54,0 3.269,-2.066 3.269,-3.032 0,-0.671 -0.368,-3.069 -3.637,-3.069"
       style="fill:#c0311a;fill-opacity:1;fill-rule:nonzero;stroke:none"
       transform="matrix(0.35277776,0,0,-0.35277776,74.766949,102.11428)"
       clip-path="url(#clipPath1079)" />
    <path
       id="path1080"
       d="M 0,0 H 2.172 L 1.104,3.031 Z M 2.781,-1.743 H -0.61 l -1.068,-3.032 h -1.829 l 3.735,10.8 h 1.716 l 3.734,-10.8 H 3.849 Z"
       style="fill:#c0311a;fill-opacity:1;fill-rule:nonzero;stroke:none"
       transform="matrix(0.35277776,0,0,-0.35277776,78.225408,102.70246)"
       clip-path="url(#clipPath1081)" />
    <path
       id="path1082"
       d="m 0,0 -3.422,10.8 h 1.787 L 0.684,3.6 2.966,10.8 H 4.791 L 1.331,0 Z"
       style="fill:#c0311a;fill-opacity:1;fill-rule:nonzero;stroke:none"
       transform="matrix(0.35277776,0,0,-0.35277776,81.66439,104.38694)"
       clip-path="url(#clipPath1083)" />
    <path
       id="path1084"
       d="M 0,0 H 6.358 V -1.705 H 1.704 V -4.358 H 4.845 V -6.101 H 1.704 V -9.057 H 6.698 V -10.8 H 0 Z"
       style="fill:#c0311a;fill-opacity:1;fill-rule:nonzero;stroke:none"
       transform="matrix(0.35277776,0,0,-0.35277776,83.926154,100.57694)"
       clip-path="url(#clipPath1085)" />
    <path
       id="path1086"
       d="M 0,0 -2.504,-6.253 -5.011,0 V -6.253 H -6.72 v 10.8 h 1.709 L -2.504,-1.516 0,4.547 h 1.709 v -10.8 H 0 Z"
       style="fill:#c0311a;fill-opacity:1;fill-rule:nonzero;stroke:none"
       transform="matrix(0.35277776,0,0,-0.35277776,89.307602,102.18095)"
       clip-path="url(#clipPath1087)" />
    <path
       id="path1088"
       d="M 0,0 H 6.358 V -1.705 H 1.704 V -4.358 H 4.845 V -6.101 H 1.704 V -9.057 H 6.698 V -10.8 H 0 Z"
       style="fill:#c0311a;fill-opacity:1;fill-rule:nonzero;stroke:none"
       transform="matrix(0.35277776,0,0,-0.35277776,90.82504,100.57694)"
       clip-path="url(#clipPath1089)" />
    <path
       id="path1090"
       d="m 0,0 v -7.313 h -1.704 v 10.8 H 0 L 3.942,-3.41 v 6.897 h 1.706 v -10.8 H 4.132 Z"
       style="fill:#c0311a;fill-opacity:1;fill-rule:nonzero;stroke:none"
       transform="matrix(0.35277776,0,0,-0.35277776,94.436852,101.80711)"
       clip-path="url(#clipPath1091)" />
    <path
       id="path1092"
       d="M 0,0 H -1.713 V 9.284 H -4.186 V 10.8 H 2.512 V 9.284 H 0 Z"
       style="fill:#c0311a;fill-opacity:1;fill-rule:nonzero;stroke:none"
       transform="matrix(0.35277776,0,0,-0.35277776,98.47778,104.38694)"
       clip-path="url(#clipPath1093)" />
  </g>
</svg>
