<?xml version="1.0" encoding="UTF-8" standalone="no"?>
<!-- Created with Inkscape (http://www.inkscape.org/) -->

<svg
   width="16.940388mm"
   height="21.512388mm"
   viewBox="0 0 16.940388 21.512388"
   version="1.1"
   id="svg1"
   inkscape:version="1.3 (0e150ed, 2023-07-21)"
   sodipodi:docname="MUTCD_R3-51d.svg"
   xmlns:inkscape="http://www.inkscape.org/namespaces/inkscape"
   xmlns:sodipodi="http://sodipodi.sourceforge.net/DTD/sodipodi-0.dtd"
   xmlns="http://www.w3.org/2000/svg"
   xmlns:svg="http://www.w3.org/2000/svg">
  <sodipodi:namedview
     id="namedview1"
     pagecolor="#ffffff"
     bordercolor="#666666"
     borderopacity="1.0"
     inkscape:showpageshadow="2"
     inkscape:pageopacity="0.0"
     inkscape:pagecheckerboard="0"
     inkscape:deskcolor="#d1d1d1"
     inkscape:document-units="mm"
     inkscape:zoom="1"
     inkscape:cx="33"
     inkscape:cy="39"
     inkscape:window-width="1440"
     inkscape:window-height="431"
     inkscape:window-x="0"
     inkscape:window-y="23"
     inkscape:window-maximized="0"
     inkscape:current-layer="layer1" />
  <defs
     id="defs1" />
  <g
     inkscape:label="Layer 1"
     inkscape:groupmode="layer"
     id="layer1"
     transform="translate(-96.043749,-137.84791)">
    <g
       id="g450"
       transform="matrix(0.26458333,0,0,0.26458333,47.031593,-28.424013)">
      <path
         id="path451"
         d="m 0,0 c -1.26,0 -2.285,1.025 -2.285,2.285 v 56.16 c 0,1.26 1.025,2.285 2.285,2.285 h 43.2 c 1.26,0 2.285,-1.025 2.285,-2.285 V 2.285 C 45.485,1.025 44.46,0 43.2,0 Z"
         style="fill:#ffffff;fill-opacity:1;fill-rule:nonzero;stroke:none"
         transform="matrix(1.3333333,0,0,-1.3333333,188.456,709.56947)" />
    </g>
    <g
       id="g451"
       transform="matrix(0.26458333,0,0,0.26458333,47.031593,-28.424013)">
      <path
         id="path452"
         d="m 0,0 h -43.2 c -1.329,0 -2.41,-1.081 -2.41,-2.41 v -56.16 c 0,-1.329 1.081,-2.41 2.41,-2.41 H 0 c 1.329,0 2.41,1.081 2.41,2.41 V -2.41 C 2.41,-1.081 1.329,0 0,0 m 0,-0.25 c 1.193,0 2.16,-0.967 2.16,-2.16 v -56.16 c 0,-1.193 -0.967,-2.16 -2.16,-2.16 h -43.2 c -1.193,0 -2.16,0.967 -2.16,2.16 v 56.16 c 0,1.193 0.967,2.16 2.16,2.16 z"
         style="fill:#000000;fill-opacity:1;fill-rule:nonzero;stroke:none"
         transform="matrix(1.3333333,0,0,-1.3333333,246.05613,628.42933)" />
    </g>
    <g
       id="g452"
       transform="matrix(0.26458333,0,0,0.26458333,47.031593,-28.424013)">
      <path
         id="path453"
         d="m 0,0 c -0.893,0 -1.62,0.727 -1.62,1.62 v 56.16 c 0,0.893 0.727,1.62 1.62,1.62 h 43.2 c 0.893,0 1.62,-0.727 1.62,-1.62 V 1.62 C 44.82,0.727 44.093,0 43.2,0 Z"
         style="fill:#000000;fill-opacity:1;fill-rule:nonzero;stroke:none"
         transform="matrix(1.3333333,0,0,-1.3333333,188.45613,708.68267)" />
      <path
         id="path454"
         d="m 0,0 c -0.397,0 -0.72,0.323 -0.72,0.72 v 56.16 c 0,0.397 0.323,0.72 0.72,0.72 h 43.2 c 0.397,0 0.72,-0.323 0.72,-0.72 V 0.72 C 43.92,0.323 43.597,0 43.2,0 Z"
         style="fill:#ffffff;fill-opacity:1;fill-rule:nonzero;stroke:none"
         transform="matrix(1.3333333,0,0,-1.3333333,188.45613,707.48267)" />
      <path
         id="path455"
         d="M 0,0 H -1.039 V 6.24 H -2.356 V 7.2 H 1.318 V 6.24 H 0 Z"
         style="fill:#000000;fill-opacity:1;fill-rule:nonzero;stroke:none"
         transform="matrix(1.3333333,0,0,-1.3333333,193.31907,645.56267)" />
      <path
         id="path456"
         d="m 0,0 v -1.819 h 1.058 c 0.607,0 0.934,0.329 0.934,0.91 C 1.992,-0.353 1.614,0 1.059,0 Z M 0.984,-2.804 H 0 v -3.385 h -1.033 v 7.2 H 1.11 C 2.239,1.011 3,0.253 3,-0.909 3,-1.768 2.647,-2.399 1.966,-2.652 L 3,-6.189 H 1.942 Z"
         style="fill:#000000;fill-opacity:1;fill-rule:nonzero;stroke:none"
         transform="matrix(1.3333333,0,0,-1.3333333,197.5288,637.31027)" />
      <path
         id="path457"
         d="M 0,0 H 1.039 L 0.507,2.072 Z m 1.291,-1.011 h -1.544 l -0.481,-1.97 h -1.039 l 1.798,7.2 h 1.014 l 1.798,-7.2 H 1.798 Z"
         style="fill:#000000;fill-opacity:1;fill-rule:nonzero;stroke:none"
         transform="matrix(1.3333333,0,0,-1.3333333,204.58493,641.58827)" />
      <path
         id="path458"
         d="m 0,0 -1.827,7.2 h 1.04 L 0.407,2.525 1.598,7.2 H 2.639 L 0.787,0 Z"
         style="fill:#000000;fill-opacity:1;fill-rule:nonzero;stroke:none"
         transform="matrix(1.3333333,0,0,-1.3333333,211.26427,645.56267)" />
      <path
         id="path459"
         d="M 0,0 H 3.395 V -1.011 H 1.039 V -2.83 H 2.533 V -3.815 H 1.039 V -6.19 H 3.674 V -7.2 H 0 Z"
         style="fill:#000000;fill-opacity:1;fill-rule:nonzero;stroke:none"
         transform="matrix(1.3333333,0,0,-1.3333333,215.858,635.96267)" />
      <path
         id="path460"
         d="M 0,0 H 1.039 V -6.24 H 3.674 V -7.2 H 0 Z"
         style="fill:#000000;fill-opacity:1;fill-rule:nonzero;stroke:none"
         transform="matrix(1.3333333,0,0,-1.3333333,222.06213,635.96267)" />
    </g>
    <g
       id="g460"
       transform="matrix(0.26458333,0,0,0.26458333,47.031593,-28.424013)">
      <path
         id="path461"
         d="m 0,0 c 0.558,0 1.014,0.506 1.014,1.087 -0.001,1.534 -2.688,1.53 -2.688,3.488 0,1.036 0.812,1.868 1.851,1.868 1.015,0 1.802,-0.782 1.827,-1.869 H 1.013 c -0.025,0.505 -0.38,0.833 -0.837,0.833 -0.482,0 -0.862,-0.353 -0.862,-0.832 0,-0.431 0.271,-0.603 0.607,-0.814 0.974,-0.588 2.082,-1.297 2.082,-2.675 0,-1.165 -0.888,-2.097 -2.004,-2.097 -1.268,0 -2.028,1.073 -2.028,2.25 h 1.016 C -1.013,0.626 -0.71,0 0,0"
         style="fill:#000000;fill-opacity:1;fill-rule:nonzero;stroke:none"
         transform="matrix(1.3333333,0,0,-1.3333333,192.54547,658.78547)" />
      <path
         id="path462"
         d="M 0,0 H -1.967 V -3.259 H -3 v 7.2 h 1.033 v -2.93 h 1.966 v 2.93 h 1.034 v -7.2 H 0 Z"
         style="fill:#000000;fill-opacity:1;fill-rule:nonzero;stroke:none"
         transform="matrix(1.3333333,0,0,-1.3333333,200.85053,655.61747)" />
      <path
         id="path463"
         d="m 0,0 c -0.205,0 -1.133,0.042 -1.133,-2.705 0,-2.768 0.928,-2.726 1.133,-2.726 0.205,0 1.132,-0.042 1.132,2.726 C 1.132,0.042 0.205,0 0,0 m -2.125,-2.7 c 0,3.77 1.749,3.71 2.137,3.71 0.388,0 2.113,0.057 2.113,-3.713 0,-3.797 -1.725,-3.737 -2.113,-3.737 -0.388,0 -2.137,-0.06 -2.137,3.74"
         style="fill:#000000;fill-opacity:1;fill-rule:nonzero;stroke:none"
         transform="matrix(1.3333333,0,0,-1.3333333,206.98147,651.54227)" />
      <path
         id="path464"
         d="m 0,0 v 5.107 h 1.033 v -5.178 c 0,-0.678 0.396,-1.138 1.008,-1.138 0.554,0 0.959,0.455 0.959,1.138 V 5.107 H 4.034 V -0.015 C 4.034,-1.653 2.768,-2.218 2.041,-2.218 1.376,-2.218 0,-1.786 0,0"
         style="fill:#000000;fill-opacity:1;fill-rule:nonzero;stroke:none"
         transform="matrix(1.3333333,0,0,-1.3333333,211.7348,657.17267)" />
      <path
         id="path465"
         d="M 0,0 H 1.039 V -6.24 H 3.674 V -7.2 H 0 Z"
         style="fill:#000000;fill-opacity:1;fill-rule:nonzero;stroke:none"
         transform="matrix(1.3333333,0,0,-1.3333333,219.22533,650.36267)" />
      <path
         id="path466"
         d="m 0,0 h -0.807 v -5.179 h 0.718 c 0.842,0 1.273,0.369 1.273,2.552 C 1.184,-0.097 0.553,0 0,0 m -1.84,-6.189 v 7.2 h 2.054 c 0.439,0 1.979,-0.022 1.979,-3.588 0,-3.262 -1.422,-3.612 -1.893,-3.612 z"
         style="fill:#000000;fill-opacity:1;fill-rule:nonzero;stroke:none"
         transform="matrix(1.3333333,0,0,-1.3333333,227.9216,651.7104)" />
      <path
         id="path467"
         d="M 0,0 H 3.395 V -1.011 H 1.039 V -2.83 H 2.532 V -3.815 H 1.039 V -6.19 H 3.674 V -7.2 H 0 Z"
         style="fill:#000000;fill-opacity:1;fill-rule:nonzero;stroke:none"
         transform="matrix(1.3333333,0,0,-1.3333333,232.76613,650.36267)" />
      <path
         id="path468"
         d="m 0,0 v -1.819 h 1.058 c 0.607,0 0.934,0.329 0.934,0.91 C 1.992,-0.353 1.614,0 1.059,0 Z M 0.984,-2.804 H 0 v -3.385 h -1.033 v 7.2 H 1.11 C 2.239,1.011 3,0.253 3,-0.909 3,-1.768 2.647,-2.399 1.966,-2.652 L 3,-6.189 H 1.942 Z"
         style="fill:#000000;fill-opacity:1;fill-rule:nonzero;stroke:none"
         transform="matrix(1.3333333,0,0,-1.3333333,240.67413,651.7104)" />
    </g>
    <g
       id="g468"
       transform="matrix(0.26458333,0,0,0.26458333,47.031593,-28.424013)">
      <path
         id="path469"
         d="m 0,0 c -0.205,0 -1.133,0.042 -1.133,-2.705 0,-2.768 0.928,-2.726 1.133,-2.726 0.205,0 1.132,-0.042 1.132,2.726 C 1.132,0.042 0.205,0 0,0 m -2.125,-2.7 c 0,3.77 1.749,3.71 2.137,3.71 0.388,0 2.113,0.057 2.113,-3.713 0,-3.797 -1.725,-3.737 -2.113,-3.737 -0.388,0 -2.137,-0.06 -2.137,3.74"
         style="fill:#000000;fill-opacity:1;fill-rule:nonzero;stroke:none"
         transform="matrix(1.3333333,0,0,-1.3333333,234.5932,637.14227)" />
      <path
         id="path470"
         d="m 0,0 v -4.825 h -1.033 v 7.2 H 0 l 1.966,-4.32 v 4.32 h 1.035 v -7.2 H 2.219 Z"
         style="fill:#000000;fill-opacity:1;fill-rule:nonzero;stroke:none"
         transform="matrix(1.3333333,0,0,-1.3333333,240.34027,639.12947)" />
    </g>
    <g
       id="g470"
       transform="matrix(0.26458333,0,0,0.26458333,47.031593,-28.424013)">
      <path
         id="path471"
         d="M 0,0 H 1.039 L 0.507,2.072 Z m 1.291,-1.011 h -1.544 l -0.481,-1.97 h -1.039 l 1.798,7.2 h 1.014 l 1.798,-7.2 H 1.798 Z"
         style="fill:#000000;fill-opacity:1;fill-rule:nonzero;stroke:none"
         transform="matrix(1.3333333,0,0,-1.3333333,196.0424,670.38773)" />
      <path
         id="path472"
         d="M 0,0 H 1.039 V -6.24 H 3.674 V -7.2 H 0 Z"
         style="fill:#000000;fill-opacity:1;fill-rule:nonzero;stroke:none"
         transform="matrix(1.3333333,0,0,-1.3333333,201.16893,664.76213)" />
      <path
         id="path473"
         d="M 0,0 H 1.039 V -6.24 H 3.674 V -7.2 H 0 Z"
         style="fill:#000000;fill-opacity:1;fill-rule:nonzero;stroke:none"
         transform="matrix(1.3333333,0,0,-1.3333333,207.41133,664.76213)" />
      <path
         id="path474"
         d="m 0,0 c -0.205,0 -1.133,0.042 -1.133,-2.705 0,-2.768 0.928,-2.726 1.133,-2.726 0.205,0 1.132,-0.042 1.132,2.726 C 1.132,0.042 0.205,0 0,0 m -2.125,-2.7 c 0,3.77 1.749,3.71 2.137,3.71 0.388,0 2.113,0.057 2.113,-3.713 0,-3.797 -1.725,-3.737 -2.113,-3.737 -0.388,0 -2.137,-0.06 -2.137,3.74"
         style="fill:#000000;fill-opacity:1;fill-rule:nonzero;stroke:none"
         transform="matrix(1.3333333,0,0,-1.3333333,216.2948,665.94173)" />
      <path
         id="path475"
         d="M 0,0 -0.684,3.764 -1.369,0 h -0.912 l -1.141,7.2 h 1.015 L -1.799,3.36 -1.09,7.2 h 0.812 L 0.406,3.36 1.039,7.2 H 2.054 L 0.887,0 Z"
         style="fill:#000000;fill-opacity:1;fill-rule:nonzero;stroke:none"
         transform="matrix(1.3333333,0,0,-1.3333333,224.84253,674.36213)" />
      <path
         id="path476"
         d="M 0,0 H 3.395 V -1.011 H 1.039 V -2.83 H 2.533 V -3.815 H 1.039 V -6.19 H 3.674 V -7.2 H 0 Z"
         style="fill:#000000;fill-opacity:1;fill-rule:nonzero;stroke:none"
         transform="matrix(1.3333333,0,0,-1.3333333,228.9252,664.76213)" />
      <path
         id="path477"
         d="m 0,0 h -0.807 v -5.179 h 0.718 c 0.842,0 1.273,0.369 1.273,2.552 C 1.184,-0.097 0.553,0 0,0 m -1.84,-6.189 v 7.2 h 2.054 c 0.439,0 1.979,-0.022 1.979,-3.588 0,-3.262 -1.422,-3.612 -1.893,-3.612 z"
         style="fill:#000000;fill-opacity:1;fill-rule:nonzero;stroke:none"
         transform="matrix(1.3333333,0,0,-1.3333333,237.90947,666.10973)" />
    </g>
    <g
       id="g477"
       transform="matrix(0.26458333,0,0,0.26458333,47.031593,-28.424013)">
      <path
         id="path478"
         d="M 0,0 -0.684,3.764 -1.369,0 h -0.912 l -1.141,7.2 h 1.015 L -1.799,3.36 -1.09,7.2 h 0.812 L 0.406,3.36 1.039,7.2 H 2.054 L 0.887,0 Z"
         style="fill:#000000;fill-opacity:1;fill-rule:nonzero;stroke:none"
         transform="matrix(1.3333333,0,0,-1.3333333,207.79613,688.76267)" />
      <path
         id="path479"
         d="m 0,0 h -1.967 v -3.259 h -1.034 v 7.2 h 1.034 v -2.93 h 1.966 v 2.93 h 1.034 v -7.2 H 0 Z"
         style="fill:#000000;fill-opacity:1;fill-rule:nonzero;stroke:none"
         transform="matrix(1.3333333,0,0,-1.3333333,215.8796,684.41747)" />
      <path
         id="path480"
         d="M 0,0 H 3.395 V -1.011 H 1.039 V -2.83 H 2.533 V -3.815 H 1.039 V -6.19 H 3.674 V -7.2 H 0 Z"
         style="fill:#000000;fill-opacity:1;fill-rule:nonzero;stroke:none"
         transform="matrix(1.3333333,0,0,-1.3333333,219.3696,679.16267)" />
      <path
         id="path481"
         d="m 0,0 v -4.825 h -1.033 v 7.2 H 0 l 1.966,-4.32 v 4.32 h 1.035 v -7.2 H 2.219 Z"
         style="fill:#000000;fill-opacity:1;fill-rule:nonzero;stroke:none"
         transform="matrix(1.3333333,0,0,-1.3333333,227.27773,682.32947)" />
    </g>
    <g
       id="g481"
       transform="matrix(0.26458333,0,0,0.26458333,47.031593,-28.424013)">
      <path
         id="path482"
         d="M 0,0 H 1.444 V -0.985 H 0 V -4.37 h -1.039 v 7.2 H 2.635 V 1.819 H 0 Z"
         style="fill:#000000;fill-opacity:1;fill-rule:nonzero;stroke:none"
         transform="matrix(1.3333333,0,0,-1.3333333,193.96027,697.33547)" />
      <path
         id="path483"
         d="M 0,0 H 1.039 V -6.24 H 3.674 V -7.2 H 0 Z"
         style="fill:#000000;fill-opacity:1;fill-rule:nonzero;stroke:none"
         transform="matrix(1.3333333,0,0,-1.3333333,198.81787,693.56267)" />
      <path
         id="path484"
         d="M 0,0 H 1.039 L 0.507,2.072 Z m 1.291,-1.011 h -1.544 l -0.481,-1.97 h -1.039 l 1.798,7.2 h 1.014 l 1.798,-7.2 H 1.798 Z"
         style="fill:#000000;fill-opacity:1;fill-rule:nonzero;stroke:none"
         transform="matrix(1.3333333,0,0,-1.3333333,206.65627,699.18827)" />
      <path
         id="path485"
         d="m 0,0 c 0.558,0 1.014,0.506 1.014,1.087 -0.001,1.534 -2.688,1.53 -2.688,3.488 0,1.036 0.812,1.868 1.851,1.868 1.015,0 1.802,-0.782 1.827,-1.869 H 1.013 c -0.025,0.505 -0.38,0.833 -0.837,0.833 -0.482,0 -0.862,-0.353 -0.862,-0.832 0,-0.431 0.271,-0.603 0.607,-0.814 0.974,-0.588 2.082,-1.297 2.082,-2.675 0,-1.165 -0.888,-2.097 -2.004,-2.097 -1.268,0 -2.028,1.073 -2.028,2.25 h 1.016 C -1.013,0.626 -0.71,0 0,0"
         style="fill:#000000;fill-opacity:1;fill-rule:nonzero;stroke:none"
         transform="matrix(1.3333333,0,0,-1.3333333,214.0088,701.98547)" />
      <path
         id="path486"
         d="M 0,0 H -1.967 V -3.259 H -3 v 7.2 h 1.033 v -2.93 h 1.966 v 2.93 h 1.034 v -7.2 H 0 Z"
         style="fill:#000000;fill-opacity:1;fill-rule:nonzero;stroke:none"
         transform="matrix(1.3333333,0,0,-1.3333333,222.314,698.81747)" />
      <path
         id="path487"
         d="m 169.353,271.828 h 1.008 v -7.2 h -1.008 z"
         style="fill:#000000;fill-opacity:1;fill-rule:nonzero;stroke:none"
         transform="matrix(1.3333333,0,0,-1.3333333,0,1056)" />
      <path
         id="path488"
         d="m 0,0 v -4.825 h -1.033 v 7.2 H 0 l 1.966,-4.32 v 4.32 H 3 v -7.2 H 2.219 Z"
         style="fill:#000000;fill-opacity:1;fill-rule:nonzero;stroke:none"
         transform="matrix(1.3333333,0,0,-1.3333333,230.63747,696.72947)" />
      <path
         id="path489"
         d="m 0,0 c -0.655,0 -2.233,0.121 -2.233,3.713 0,3.592 1.5,3.738 2.157,3.738 1.04,0 1.826,-0.757 1.877,-1.818 H 0.76 c -0.025,0.481 -0.354,0.809 -0.862,0.809 -0.347,0 -1.141,-0.109 -1.141,-2.73 0,-2.62 0.87,-2.702 1.217,-2.702 0.533,0 0.786,0.351 0.786,1.111 v 0.48 H -0.051 V 3.613 H 1.801 V 2.122 C 1.801,0.32 0.615,0 0,0"
         style="fill:#000000;fill-opacity:1;fill-rule:nonzero;stroke:none"
         transform="matrix(1.3333333,0,0,-1.3333333,239.53573,703.33067)" />
    </g>
  </g>
</svg>
