<?xml version="1.0" encoding="UTF-8" standalone="no"?>
<!-- Created with Inkscape (http://www.inkscape.org/) -->

<svg
   width="26.08333mm"
   height="6.6537414mm"
   viewBox="0 0 26.08333 6.6537414"
   version="1.1"
   id="svg1"
   inkscape:version="1.3 (0e150ed, 2023-07-21)"
   sodipodi:docname="MUTCD_R9-24.svg"
   xmlns:inkscape="http://www.inkscape.org/namespaces/inkscape"
   xmlns:sodipodi="http://sodipodi.sourceforge.net/DTD/sodipodi-0.dtd"
   xmlns="http://www.w3.org/2000/svg"
   xmlns:svg="http://www.w3.org/2000/svg">
  <sodipodi:namedview
     id="namedview1"
     pagecolor="#ffffff"
     bordercolor="#666666"
     borderopacity="1.0"
     inkscape:showpageshadow="2"
     inkscape:pageopacity="0.0"
     inkscape:pagecheckerboard="0"
     inkscape:deskcolor="#d1d1d1"
     inkscape:document-units="mm"
     inkscape:zoom="1"
     inkscape:cx="48"
     inkscape:cy="14"
     inkscape:window-width="1440"
     inkscape:window-height="431"
     inkscape:window-x="0"
     inkscape:window-y="23"
     inkscape:window-maximized="0"
     inkscape:current-layer="layer1" />
  <defs
     id="defs1">
    <clipPath
       clipPathUnits="userSpaceOnUse"
       id="clipPath70">
      <path
         d="M 92.917,175.072 H 546.082 V 743.001 H 92.917 Z"
         transform="translate(-163.3495,-695.89082)"
         id="path70" />
    </clipPath>
  </defs>
  <g
     inkscape:label="Layer 1"
     inkscape:groupmode="layer"
     id="layer1"
     transform="translate(-91.281249,-145.25625)">
    <g
       id="g68"
       transform="matrix(0.26458333,0,0,0.26458333,35.362372,117.9606)">
      <path
         id="path69"
         d="m 0,0 c -2.6,0 -4.714,2.115 -4.714,4.715 v 9.181 c 0,2.6 2.114,4.715 4.714,4.715 h 64.258 c 2.599,0 4.715,-2.115 4.715,-4.715 V 4.715 C 68.973,2.115 66.857,0 64.258,0 Z"
         style="fill:#ffffff;fill-opacity:1;fill-rule:nonzero;stroke:none"
         transform="matrix(1.3333333,0,0,-1.3333333,217.79933,128.1456)"
         clip-path="url(#clipPath70)" />
    </g>
    <g
       id="g70"
       transform="matrix(0.26458333,0,0,0.26458333,35.362372,117.9606)">
      <path
         id="path71"
         d="m 0,0 h -64.257 c -2.669,0 -4.84,-2.171 -4.84,-4.84 v -9.181 c 0,-2.669 2.171,-4.84 4.84,-4.84 H 0 c 2.669,0 4.84,2.171 4.84,4.84 V -4.84 C 4.84,-2.171 2.669,0 0,0 m 0,-0.25 c 2.535,0 4.59,-2.055 4.59,-4.59 v -9.181 c 0,-2.535 -2.055,-4.59 -4.59,-4.59 h -64.257 c -2.535,0 -4.59,2.055 -4.59,4.59 v 9.181 c 0,2.535 2.055,4.59 4.59,4.59 z"
         style="fill:#000000;fill-opacity:1;fill-rule:nonzero;stroke:none"
         transform="matrix(1.3333333,0,0,-1.3333333,303.47627,103.16467)" />
    </g>
    <g
       id="g71"
       transform="matrix(0.26458333,0,0,0.26458333,35.362372,117.9606)">
      <path
         id="path72"
         d="m 0,0 c -1.898,0 -3.442,1.544 -3.442,3.443 v 9.18 c 0,1.898 1.544,3.443 3.442,3.443 h 64.257 c 1.898,0 3.443,-1.545 3.443,-3.443 V 3.443 C 67.7,1.544 66.155,0 64.257,0 Z"
         style="fill:#000000;fill-opacity:1;fill-rule:nonzero;stroke:none"
         transform="matrix(1.3333333,0,0,-1.3333333,217.8,126.44907)" />
      <path
         id="path73"
         d="m 0,0 c -1.265,0 -2.295,1.03 -2.295,2.295 v 9.181 c 0,1.265 1.03,2.295 2.295,2.295 h 64.257 c 1.266,0 2.295,-1.03 2.295,-2.295 V 2.295 C 66.552,1.03 65.523,0 64.257,0 Z"
         style="fill:#ffffff;fill-opacity:1;fill-rule:nonzero;stroke:none"
         transform="matrix(1.3333333,0,0,-1.3333333,217.8,124.9188)" />
      <path
         id="path74"
         d="M 0,0 C -1.054,0 -1.946,0.69 -2.252,1.642 L -0.15,2.095 C -0.105,2.07 -0.054,2.056 0,2.056 c 0.17,0 0.309,0.138 0.309,0.309 0,0.148 -0.106,0.272 -0.246,0.302 L -1.229,4.385 C -0.871,4.603 -0.45,4.729 0,4.729 1.306,4.729 2.364,3.67 2.364,2.365 2.364,1.059 1.306,0 0,0 m -2.364,2.365 c 0,0.688 0.294,1.308 0.764,1.74 l 1.196,-1.59 -1.945,-0.419 c -0.01,0.088 -0.015,0.178 -0.015,0.269 M -2.889,1.98 -3.814,1.781 -2.74,5.621 -1.932,4.546 C -2.534,4.012 -2.914,3.233 -2.914,2.365 c 0,-0.131 0.009,-0.259 0.025,-0.385 m -1.317,0.123 -0.143,0.546 h 0.224 v 0.22 h -0.708 v -0.22 h 0.282 l 0.142,-0.542 -3.046,3.316 c 0.05,0.158 0.1,0.321 0.15,0.483 h 4.163 z M -7.203,2.365 C -7.203,1.059 -8.261,0 -9.567,0 c -1.306,0 -2.364,1.059 -2.364,2.365 0,1.305 1.058,2.364 2.364,2.364 0.464,0 0.897,-0.134 1.262,-0.365 -0.29,-0.63 -0.856,-1.308 -1.264,-1.691 -0.17,-10e-4 -0.306,-0.139 -0.306,-0.308 0,-0.171 0.138,-0.309 0.308,-0.309 0.158,0 0.288,0.118 0.306,0.27 0.2,0.187 0.46,0.463 0.718,0.792 0.192,0.246 0.431,0.585 0.613,0.952 0.448,-0.43 0.727,-1.035 0.727,-1.705 M 0,5.279 c -0.574,0 -1.11,-0.166 -1.561,-0.453 l -1.022,1.358 0.134,0.479 c 0.641,0.055 0.995,0.298 0.973,0.534 C -1.497,7.425 -2.132,7.254 -2.839,7.245 -3.032,7.243 -4.06,7.247 -4.054,7.059 -4.048,6.865 -3.391,6.708 -2.93,6.664 L -3.013,6.37 h -4.149 c 0.089,0.289 0.169,0.555 0.232,0.761 0.053,0.177 0.093,0.31 0.113,0.375 l -0.302,0.231 0.143,0.144 h 1.111 V 8.248 H -7.129 L -7.672,7.699 -7.324,7.433 C -7.485,6.899 -7.866,5.646 -8.112,4.89 -8.54,5.137 -9.037,5.279 -9.567,5.279 c -1.609,0 -2.914,-1.305 -2.914,-2.914 0,-1.61 1.305,-2.915 2.914,-2.915 1.609,0 2.914,1.305 2.914,2.915 0,0.905 -0.413,1.714 -1.061,2.249 0.03,0.091 0.063,0.191 0.097,0.299 L -4.481,1.5 C -4.482,1.491 -4.482,1.482 -4.482,1.473 c 0,-0.185 0.147,-0.336 0.33,-0.342 l 0.22,-0.834 h -0.225 v -0.22 h 0.708 v 0.22 H -3.73 l -0.233,0.884 c 0.048,0.029 0.087,0.069 0.116,0.117 l 1.056,0.228 C -2.431,0.325 -1.318,-0.55 0,-0.55 c 1.609,0 2.914,1.305 2.914,2.915 0,1.609 -1.305,2.914 -2.914,2.914"
         style="fill:#000000;fill-opacity:1;fill-rule:nonzero;stroke:none"
         transform="matrix(1.3333333,0,0,-1.3333333,233.4212,120.87067)" />
      <path
         id="path75"
         d="M 0,0 H 0.883 L 0.431,1.761 Z m 1.098,-0.859 h -1.313 l -0.409,-1.675 h -0.883 l 1.528,6.12 h 0.863 l 1.527,-6.12 H 1.529 Z"
         style="fill:#000000;fill-opacity:1;fill-rule:nonzero;stroke:none"
         transform="matrix(1.3333333,0,0,-1.3333333,243.39587,116.44027)" />
      <path
         id="path76"
         d="m 0,0 h 0.883 v -5.304 h 2.24 V -6.12 H 0 Z"
         style="fill:#000000;fill-opacity:1;fill-rule:nonzero;stroke:none"
         transform="matrix(1.3333333,0,0,-1.3333333,247.75387,111.65827)" />
      <path
         id="path77"
         d="m 0,0 h 0.883 v -5.304 h 2.24 V -6.12 H 0 Z"
         style="fill:#000000;fill-opacity:1;fill-rule:nonzero;stroke:none"
         transform="matrix(1.3333333,0,0,-1.3333333,253.0604,111.65827)" />
      <path
         id="path78"
         d="M 0,0 H -0.883 V 5.304 H -2.002 V 6.12 H 1.12 V 5.304 H 0 Z"
         style="fill:#000000;fill-opacity:1;fill-rule:nonzero;stroke:none"
         transform="matrix(1.3333333,0,0,-1.3333333,263.974,119.81867)" />
      <path
         id="path79"
         d="M 0,0 V 4.342 H 0.878 V -0.06 c 0,-0.577 0.337,-0.967 0.857,-0.967 0.471,0 0.814,0.386 0.814,0.967 V 4.342 H 3.428 V -0.013 C 3.428,-1.405 2.353,-1.886 1.735,-1.886 1.169,-1.886 0,-1.518 0,0"
         style="fill:#000000;fill-opacity:1;fill-rule:nonzero;stroke:none"
         transform="matrix(1.3333333,0,0,-1.3333333,266.6096,117.44707)" />
      <path
         id="path80"
         d="m 0,0 v -1.546 h 0.899 c 0.516,0 0.794,0.279 0.794,0.773 C 1.693,-0.3 1.371,0 0.9,0 Z M 0.836,-2.384 H 0 v -2.877 h -0.878 v 6.12 h 1.821 c 0.96,0 1.607,-0.644 1.607,-1.632 0,-0.73 -0.301,-1.267 -0.879,-1.482 L 2.549,-5.261 H 1.651 Z"
         style="fill:#000000;fill-opacity:1;fill-rule:nonzero;stroke:none"
         transform="matrix(1.3333333,0,0,-1.3333333,274.14653,112.80387)" />
      <path
         id="path81"
         d="m 0,0 v -4.101 h -0.878 v 6.12 H 0 L 1.671,-1.653 V 2.019 H 2.55 v -6.12 H 1.886 Z"
         style="fill:#000000;fill-opacity:1;fill-rule:nonzero;stroke:none"
         transform="matrix(1.3333333,0,0,-1.3333333,280.10467,114.35027)" />
      <path
         id="path82"
         d="m 0,0 c 0.474,0 0.862,0.43 0.862,0.924 -0.001,1.304 -2.285,1.301 -2.285,2.965 0,0.88 0.69,1.588 1.574,1.588 0.862,0 1.531,-0.665 1.552,-1.589 H 0.861 C 0.84,4.317 0.538,4.596 0.15,4.596 c -0.41,0 -0.733,-0.3 -0.733,-0.707 0,-0.367 0.23,-0.513 0.516,-0.692 0.827,-0.499 1.77,-1.102 1.77,-2.274 0,-0.99 -0.755,-1.782 -1.704,-1.782 -1.077,0 -1.724,0.912 -1.724,1.912 h 0.864 C -0.861,0.532 -0.604,0 0,0"
         style="fill:#000000;fill-opacity:1;fill-rule:nonzero;stroke:none"
         transform="matrix(1.3333333,0,0,-1.3333333,287.19187,118.818)" />
      <path
         id="path83"
         d="m 0,0 -3.93,-3.93 2.028,-2.029 3.93,3.93 z"
         style="fill:#000000;fill-opacity:1;fill-rule:nonzero;stroke:none"
         transform="matrix(1.3333333,0,0,-1.3333333,297.76293,113.5184)" />
      <path
         id="path84"
         d="M 0,0 1.193,6.456 -5.262,5.263 C -5.812,5.161 -5.908,4.412 -5.4,4.176 l 2.942,-1.372 1.372,-2.942 C -0.85,-0.646 -0.102,-0.55 0,0"
         style="fill:#000000;fill-opacity:1;fill-rule:nonzero;stroke:none"
         transform="matrix(1.3333333,0,0,-1.3333333,302.38147,118.62093)" />
    </g>
  </g>
</svg>
