<?xml version="1.0" encoding="UTF-8" standalone="no"?>
<svg
   xmlns:dc="http://purl.org/dc/elements/1.1/"
   xmlns:cc="http://creativecommons.org/ns#"
   xmlns:rdf="http://www.w3.org/1999/02/22-rdf-syntax-ns#"
   xmlns:svg="http://www.w3.org/2000/svg"
   xmlns="http://www.w3.org/2000/svg"
   xmlns:sodipodi="http://sodipodi.sourceforge.net/DTD/sodipodi-0.dtd"
   xmlns:inkscape="http://www.inkscape.org/namespaces/inkscape"
   sodipodi:docname="R10-3dL.svg"
   inkscape:version="1.0rc1 (09960d6f05, 2020-04-09)"
   id="svg9406"
   version="1.1"
   viewBox="0 0 23.21172 30.89028"
   height="30.89028mm"
   width="23.21172mm">
  <defs
     id="defs9400">
    <clipPath
       clipPathUnits="userSpaceOnUse"
       id="clipPath1518">
      <path
         d="M 63.125,61.226 H 576.393 V 738 H 63.125 Z"
         id="path1516"
         inkscape:connector-curvature="0" />
    </clipPath>
    <clipPath
       clipPathUnits="userSpaceOnUse"
       id="clipPath1530">
      <path
         d="M 67.241,61.226 H 572.278 V 738 H 67.241 Z"
         id="path1528"
         inkscape:connector-curvature="0" />
    </clipPath>
  </defs>
  <sodipodi:namedview
     inkscape:window-maximized="1"
     inkscape:window-y="0"
     inkscape:window-x="0"
     inkscape:window-height="836"
     inkscape:window-width="1600"
     showgrid="false"
     inkscape:document-rotation="0"
     inkscape:current-layer="layer1"
     inkscape:document-units="mm"
     inkscape:cy="58.375332"
     inkscape:cx="43.864667"
     inkscape:zoom="5.6"
     inkscape:pageshadow="2"
     inkscape:pageopacity="0.0"
     borderopacity="1.0"
     bordercolor="#666666"
     pagecolor="#ffffff"
     id="base" />
  <metadata
     id="metadata9403">
    <rdf:RDF>
      <cc:Work
         rdf:about="">
        <dc:format>image/svg+xml</dc:format>
        <dc:type
           rdf:resource="http://purl.org/dc/dcmitype/StillImage" />
        <dc:title></dc:title>
      </cc:Work>
    </rdf:RDF>
  </metadata>
  <g
     transform="translate(-451.79295,-85.096525)"
     id="layer1"
     inkscape:groupmode="layer"
     inkscape:label="Layer 1">
    <g
       transform="matrix(0.35277777,0,0,-0.35277777,273.24764,190.364)"
       id="g1512">
      <g
         id="g1514"
         clip-path="url(#clipPath1518)">
        <g
           id="g1520"
           transform="translate(564.4037,298.146)">
          <path
             d="m 0,0 h -50.786 c -4.007,0 -7.255,-3.248 -7.255,-7.255 v -72.553 c 0,-4.006 3.248,-7.255 7.255,-7.255 H 0 c 4.008,0 7.256,3.249 7.256,7.255 V -7.255 C 7.256,-3.248 4.008,0 0,0"
             style="fill:#ffffff;fill-opacity:1;fill-rule:nonzero;stroke:none"
             id="path1522"
             inkscape:connector-curvature="0" />
        </g>
      </g>
    </g>
    <g
       transform="matrix(0.35277777,0,0,-0.35277777,273.24764,190.364)"
       id="g1524">
      <g
         id="g1526"
         clip-path="url(#clipPath1530)">
        <g
           id="g1532"
           transform="translate(564.4037,298.146)">
          <path
             d="m 0,0 h -50.786 c -4.007,0 -7.255,-3.248 -7.255,-7.255 v -72.553 c 0,-4.006 3.248,-7.255 7.255,-7.255 H 0 c 4.008,0 7.256,3.249 7.256,7.255 V -7.255 C 7.256,-3.248 4.008,0 0,0 Z"
             style="fill:none;stroke:#231f20;stroke-width:0.5;stroke-linecap:butt;stroke-linejoin:miter;stroke-miterlimit:4;stroke-dasharray:none;stroke-opacity:1"
             id="path1534"
             inkscape:connector-curvature="0" />
        </g>
      </g>
    </g>
    <g
       id="g1544"
       transform="matrix(0.35277777,0,0,-0.35277777,473.48808,86.613125)">
      <path
         d="m 0,0 c -0.857,0.857 -1.996,1.328 -3.207,1.328 h -50.786 c -1.212,0 -2.351,-0.471 -3.206,-1.328 -0.858,-0.856 -1.328,-1.995 -1.328,-3.206 v -72.553 c 0,-1.211 0.47,-2.349 1.328,-3.206 0.855,-0.856 1.994,-1.328 3.206,-1.328 h 50.786 c 1.211,0 2.35,0.472 3.207,1.328 0.856,0.857 1.328,1.995 1.328,3.206 V -3.206 C 1.328,-1.995 0.856,-0.856 0,0"
         style="fill:#231f20;fill-opacity:1;fill-rule:nonzero;stroke:none"
         id="path1546"
         inkscape:connector-curvature="0" />
    </g>
    <path
       d="m 453.80071,106.94018 h 19.19641 v -6.14257 h -19.19641 z"
       style="fill:#ffffff;fill-opacity:1;fill-rule:nonzero;stroke:none;stroke-width:0.352777"
       id="path1548"
       inkscape:connector-curvature="0" />
    <path
       d="m 453.80071,100.28573 h 19.19641 v -6.142565 h -19.19641 z"
       style="fill:#ffffff;fill-opacity:1;fill-rule:nonzero;stroke:none;stroke-width:0.352777"
       id="path1550"
       inkscape:connector-curvature="0" />
    <g
       id="g1552"
       transform="matrix(0.35277777,0,0,-0.35277777,472.99701,87.744094)">
      <path
         d="m 0,0 c 0,0.653 -0.334,1.084 -0.532,1.282 -0.199,0.199 -0.629,0.532 -1.283,0.532 h -50.786 c -0.653,0 -1.084,-0.333 -1.282,-0.532 C -54.082,1.084 -54.415,0.653 -54.415,0 V -16.687 H 0 Z"
         style="fill:#ffffff;fill-opacity:1;fill-rule:nonzero;stroke:none"
         id="path1554"
         inkscape:connector-curvature="0" />
    </g>
    <g
       id="g1556"
       transform="matrix(0.35277777,0,0,-0.35277777,453.80061,113.33921)">
      <path
         d="M 0,0 C 0,-0.653 0.333,-1.084 0.532,-1.282 0.73,-1.48 1.161,-1.813 1.814,-1.813 H 52.6 c 0.654,0 1.084,0.333 1.283,0.531 0.198,0.198 0.532,0.629 0.532,1.282 V 16.688 H 0 Z"
         style="fill:#ffffff;fill-opacity:1;fill-rule:nonzero;stroke:none"
         id="path1558"
         inkscape:connector-curvature="0" />
    </g>
    <path
       d="m 455.59247,88.403118 h 3.27625 v 4.095045 h -3.27625 z"
       style="fill:#231f20;fill-opacity:1;fill-rule:evenodd;stroke:none;stroke-width:0.352777"
       id="path1560"
       inkscape:connector-curvature="0" />
    <g
       id="g1562"
       transform="matrix(0.35277777,0,0,-0.35277777,457.41729,88.827158)">
      <path
         d="m 0,0 c -0.375,0 -0.679,-0.305 -0.679,-0.68 0,-0.374 0.304,-0.679 0.679,-0.679 0.373,0 0.679,0.305 0.679,0.679 C 0.679,-0.305 0.373,0 0,0 m 2.057,-4.284 -1.426,0.95 C 0.566,-3.056 0.293,-1.82 -0.255,-1.533 -0.798,-1.174 -2.8,-2.65 -2.812,-2.661 v -2.153 l 0.434,0.076 0.169,1.718 c 0.165,0.032 0.328,0.066 0.491,0.099 -0.358,-0.925 -0.489,-1.815 -0.284,-2.401 l -0.867,-3.549 0.584,-0.415 1.266,3.284 0.585,-0.623 0.811,-2.473 0.774,0.283 -0.698,2.605 -0.812,1.453 0.311,1.073 0.332,-0.43 1.547,-0.51 z"
         style="fill:#ffffff;fill-opacity:1;fill-rule:evenodd;stroke:none"
         id="path1564"
         inkscape:connector-curvature="0" />
    </g>
    <path
       d="m 455.59247,95.153168 h 3.27625 v 4.095044 h -3.27625 z"
       style="fill:#231f20;fill-opacity:1;fill-rule:evenodd;stroke:none;stroke-width:0.352777"
       id="path1566"
       inkscape:connector-curvature="0" />
    <g
       id="g1568"
       transform="matrix(0.35277777,0,0,-0.35277777,456.50394,99.06371)">
      <path
         d="m 0,0 c 0.097,0.117 0.207,0.244 0.217,0.45 v 1.51 c 0,0.657 -0.221,0.769 -0.437,0.97 -0.359,0.333 -0.304,0.804 -0.284,1.413 0.054,1.687 0.118,2.704 0.125,4.281 0,0.2 0.164,0.364 0.365,0.364 0.201,0 0.365,-0.164 0.365,-0.364 L 0.475,6.065 0.641,6.069 c 0.027,1.169 0.08,2.348 0.08,3.516 0,0.201 0.164,0.365 0.365,0.365 0.201,0 0.365,-0.164 0.365,-0.365 0,-0.003 0,-0.007 0.002,-0.011 l 0.05,-3.508 h 0.168 c 0.047,1.323 0.142,2.677 0.142,4 0,0.201 0.164,0.365 0.365,0.365 0.2,0 0.365,-0.164 0.365,-0.365 V 10.062 L 2.622,6.066 H 2.843 C 2.855,7.245 2.869,8.425 2.882,9.605 2.89,9.797 3.052,9.95 3.247,9.95 3.443,9.95 3.607,9.792 3.611,9.594 L 3.791,4.888 C 3.79,4.801 3.868,4.737 3.955,4.737 c 0.048,0 0.162,0.035 0.25,0.169 L 5.029,6.101 C 5.341,6.539 5.757,6.626 6.246,6.442 5.943,5.871 5.318,4.469 4.685,3.681 4.35,3.157 3.23,2.635 3.23,1.962 V 0.586 C 3.23,0.303 3.509,-0.016 3.497,0 Z"
         style="fill:#f48412;fill-opacity:1;fill-rule:evenodd;stroke:none"
         id="path1570"
         inkscape:connector-curvature="0" />
    </g>
    <path
       d="m 455.59247,102.1678 h 3.27625 v 4.09469 h -3.27625 z"
       style="fill:#231f20;fill-opacity:1;fill-rule:evenodd;stroke:none;stroke-width:0.352777"
       id="path1572"
       inkscape:connector-curvature="0" />
    <g
       id="g1574"
       transform="matrix(0.35277777,0,0,-0.35277777,456.50394,106.07831)">
      <path
         d="M 0,0 C 0.097,0.118 0.207,0.246 0.217,0.452 V 1.96 c 0,0.658 -0.221,0.77 -0.437,0.97 -0.359,0.333 -0.304,0.805 -0.284,1.414 0.054,1.687 0.118,2.704 0.125,4.28 0,0.202 0.164,0.366 0.365,0.366 0.201,0 0.365,-0.164 0.365,-0.366 L 0.475,6.066 0.641,6.07 c 0.027,1.169 0.08,2.347 0.08,3.515 0,0.202 0.164,0.366 0.365,0.366 0.201,0 0.365,-0.164 0.365,-0.366 0,-0.002 0,-0.006 0.002,-0.009 l 0.05,-3.51 h 0.168 c 0.047,1.324 0.142,2.679 0.142,4.001 0,0.2 0.164,0.364 0.365,0.364 0.2,0 0.365,-0.164 0.365,-0.364 V 10.062 L 2.622,6.066 h 0.221 c 0.012,1.18 0.026,2.36 0.039,3.539 0.008,0.193 0.17,0.346 0.365,0.346 0.196,0 0.36,-0.159 0.364,-0.357 L 3.791,4.889 C 3.79,4.802 3.868,4.738 3.955,4.738 c 0.048,0 0.162,0.035 0.25,0.169 L 5.029,6.101 C 5.341,6.54 5.757,6.626 6.246,6.442 5.943,5.872 5.318,4.469 4.685,3.681 4.35,3.159 3.23,2.635 3.23,1.962 V 0.586 C 3.23,0.304 3.509,-0.016 3.497,0 Z"
         style="fill:#f48412;fill-opacity:1;fill-rule:evenodd;stroke:none"
         id="path1576"
         inkscape:connector-curvature="0" />
    </g>
    <path
       d="m 457.16339,94.31779 h 0.12418 v 0.685095 h -0.12418 z"
       style="fill:#231f20;fill-opacity:1;fill-rule:evenodd;stroke:none;stroke-width:0.352777"
       id="path1578"
       inkscape:connector-curvature="0" />
    <g
       id="g1580"
       transform="matrix(0.35277777,0,0,-0.35277777,459.46304,94.480068)">
      <path
         d="m 0,0 0.245,-0.255 -1.397,-1.348 -0.244,0.254 z"
         style="fill:#231f20;fill-opacity:1;fill-rule:evenodd;stroke:none"
         id="path1582"
         inkscape:connector-curvature="0" />
    </g>
    <g
       id="g1584"
       transform="matrix(0.35277777,0,0,-0.35277777,454.94996,94.575318)">
      <path
         d="m 0,0 0.25,0.25 1.373,-1.373 -0.25,-0.25 z"
         style="fill:#231f20;fill-opacity:1;fill-rule:evenodd;stroke:none"
         id="path1586"
         inkscape:connector-curvature="0" />
    </g>
    <g
       id="g1588"
       transform="matrix(0.35277777,0,0,-0.35277777,459.46304,99.926958)">
      <path
         d="M 0,0 0.245,0.254 -1.152,1.603 -1.396,1.35 Z"
         style="fill:#231f20;fill-opacity:1;fill-rule:evenodd;stroke:none"
         id="path1590"
         inkscape:connector-curvature="0" />
    </g>
    <g
       id="g1592"
       transform="matrix(0.35277777,0,0,-0.35277777,454.94996,99.83206)">
      <path
         d="m 0,0 0.25,-0.249 1.373,1.373 -0.25,0.25 z"
         style="fill:#231f20;fill-opacity:1;fill-rule:evenodd;stroke:none"
         id="path1594"
         inkscape:connector-curvature="0" />
    </g>
    <path
       d="m 459.07827,97.089212 h 0.68545 v 0.124884 h -0.68545 z"
       style="fill:#231f20;fill-opacity:1;fill-rule:evenodd;stroke:none;stroke-width:0.352777"
       id="path1596"
       inkscape:connector-curvature="0" />
    <g
       id="g1598"
       transform="matrix(0.35277777,0,0,-0.35277777,458.24773,94.323435)">
      <path
         d="M 0,0 0.32,-0.149 -0.5,-1.909 -0.82,-1.76 Z"
         style="fill:#231f20;fill-opacity:1;fill-rule:evenodd;stroke:none"
         id="path1600"
         inkscape:connector-curvature="0" />
    </g>
    <g
       id="g1602"
       transform="matrix(0.35277777,0,0,-0.35277777,456.20267,94.323435)">
      <path
         d="M 0,0 -0.32,-0.149 0.5,-1.909 0.82,-1.76 Z"
         style="fill:#231f20;fill-opacity:1;fill-rule:evenodd;stroke:none"
         id="path1604"
         inkscape:connector-curvature="0" />
    </g>
    <g
       id="g1606"
       transform="matrix(0.35277777,0,0,-0.35277777,459.13637,96.221733)">
      <path
         d="M 0,0 -0.148,0.32 1.612,1.14 1.761,0.821 Z"
         style="fill:#231f20;fill-opacity:1;fill-rule:evenodd;stroke:none"
         id="path1608"
         inkscape:connector-curvature="0" />
    </g>
    <g
       id="g1610"
       transform="matrix(0.35277777,0,0,-0.35277777,459.08416,98.287917)">
      <path
         d="M 0,0 0.148,0.32 1.909,-0.501 1.76,-0.821 Z"
         style="fill:#231f20;fill-opacity:1;fill-rule:evenodd;stroke:none"
         id="path1612"
         inkscape:connector-curvature="0" />
    </g>
    <g
       id="g1614"
       transform="matrix(0.35277777,0,0,-0.35277777,455.34472,96.221733)">
      <path
         d="M 0,0 0.15,0.32 -1.611,1.14 -1.759,0.821 Z"
         style="fill:#231f20;fill-opacity:1;fill-rule:evenodd;stroke:none"
         id="path1616"
         inkscape:connector-curvature="0" />
    </g>
    <g
       id="g1618"
       transform="matrix(0.35277777,0,0,-0.35277777,455.39763,98.287917)">
      <path
         d="m 0,0 -0.15,0.32 -1.759,-0.821 0.148,-0.32 z"
         style="fill:#231f20;fill-opacity:1;fill-rule:evenodd;stroke:none"
         id="path1620"
         inkscape:connector-curvature="0" />
    </g>
    <path
       d="m 454.70277,97.089212 h 0.68509 v 0.124884 h -0.68509 z"
       style="fill:#231f20;fill-opacity:1;fill-rule:evenodd;stroke:none;stroke-width:0.352777"
       id="path1622"
       inkscape:connector-curvature="0" />
    <g
       id="g1624"
       transform="matrix(0.35277777,0,0,-0.35277777,462.16885,94.919628)">
      <path
         d="m 0,0 c -0.043,0.445 -0.129,0.588 -0.344,0.588 h -0.33 v -3.024 h 0.33 c 0.187,0 0.288,0.129 0.344,0.429 0.015,0.144 0.043,0.603 0.043,0.961 C 0.043,-0.745 0.015,-0.287 0,0 M 0.201,-2.766 C 0.086,-2.895 -0.114,-2.967 -0.344,-2.967 h -0.845 v 4.085 h 0.845 c 0.288,0 0.489,-0.1 0.618,-0.3 C 0.373,0.659 0.459,0.387 0.488,0.129 0.545,-0.2 0.574,-0.573 0.574,-0.917 c 0,-0.961 -0.129,-1.577 -0.373,-1.849"
         style="fill:#231f20;fill-opacity:1;fill-rule:nonzero;stroke:none"
         id="path1626"
         inkscape:connector-curvature="0" />
    </g>
    <g
       id="g1628"
       transform="matrix(0.35277777,0,0,-0.35277777,462.93226,94.692087)">
      <path
         d="m 0,0 c -0.472,0 -0.415,-1.276 -0.415,-1.562 0,-0.272 -0.057,-1.592 0.415,-1.592 0.459,0 0.403,1.32 0.403,1.592 C 0.403,-1.233 0.388,0 0,0 m 0,-3.683 c -1.017,0 -0.945,1.447 -0.945,2.121 0,0.702 -0.057,2.092 0.945,2.092 1.004,0 0.948,-1.404 0.948,-2.092 0,-0.674 0.056,-2.121 -0.948,-2.121"
         style="fill:#231f20;fill-opacity:1;fill-rule:nonzero;stroke:none"
         id="path1630"
         inkscape:connector-curvature="0" />
    </g>
    <g
       id="g1632"
       transform="matrix(0.35277777,0,0,-0.35277777,463.99977,95.96632)">
      <path
         d="M 0,0 -0.803,2.422 V 0 H -1.32 v 4.085 h 0.517 L -0.073,2.05 V 4.085 H 0.443 V 0 Z"
         style="fill:#231f20;fill-opacity:1;fill-rule:nonzero;stroke:none"
         id="path1634"
         inkscape:connector-curvature="0" />
    </g>
    <g
       id="g1636"
       transform="matrix(0.35277777,0,0,-0.35277777,464.52541,94.87412)">
      <path
         d="m 0,0 -0.158,0.129 c 0.1,0.086 0.201,0.23 0.229,0.33 H 0.028 c -0.186,0 -0.301,0.114 -0.301,0.301 0,0.172 0.129,0.301 0.301,0.301 0.187,0 0.316,-0.129 0.316,-0.344 C 0.344,0.459 0.215,0.187 0,0"
         style="fill:#231f20;fill-opacity:1;fill-rule:nonzero;stroke:none"
         id="path1638"
         inkscape:connector-curvature="0" />
    </g>
    <g
       id="g1640"
       transform="matrix(0.35277777,0,0,-0.35277777,465.16252,94.712195)">
      <path
         d="M 0,0 V -3.555 H -0.517 V 0 H -1.018 V 0.53 H 0.53 V 0 Z"
         style="fill:#231f20;fill-opacity:1;fill-rule:nonzero;stroke:none"
         id="path1642"
         inkscape:connector-curvature="0" />
    </g>
    <g
       id="g1644"
       transform="matrix(0.35277777,0,0,-0.35277777,466.6897,95.925751)">
      <path
         d="m 0,0 c -0.129,-0.115 -0.317,-0.186 -0.532,-0.186 -0.572,0 -0.874,0.372 -0.902,1.089 h 0.529 c 0,-0.158 0.016,-0.215 0.043,-0.301 0.043,-0.158 0.173,-0.259 0.33,-0.259 0.202,0 0.33,0.159 0.33,0.416 0,0.359 -0.128,0.66 -0.444,1.033 -0.186,0.215 -0.315,0.372 -0.358,0.429 -0.23,0.273 -0.33,0.56 -0.33,0.846 0,0.56 0.343,0.96 0.832,0.96 0.502,0 0.773,-0.314 0.831,-0.96 h -0.531 c -0.013,0.316 -0.1,0.444 -0.287,0.444 -0.2,0 -0.314,-0.171 -0.314,-0.444 0,-0.186 0.071,-0.329 0.286,-0.558 C -0.073,2.007 0,1.906 0.129,1.648 0.243,1.39 0.329,1.047 0.329,0.759 0.329,0.473 0.2,0.172 0,0"
         style="fill:#231f20;fill-opacity:1;fill-rule:nonzero;stroke:none"
         id="path1646"
         inkscape:connector-curvature="0" />
    </g>
    <g
       id="g1648"
       transform="matrix(0.35277777,0,0,-0.35277777,467.2806,94.712195)">
      <path
         d="M 0,0 V -3.555 H -0.515 V 0 H -1.017 V 0.53 H 0.532 V 0 Z"
         style="fill:#231f20;fill-opacity:1;fill-rule:nonzero;stroke:none"
         id="path1650"
         inkscape:connector-curvature="0" />
    </g>
    <g
       id="g1652"
       transform="matrix(0.35277777,0,0,-0.35277777,467.94841,95.01555)">
      <path
         d="M 0,0 -0.23,-1.075 H 0.215 Z M 0.559,-2.695 0.33,-1.606 h -0.674 l -0.23,-1.089 h -0.53 l 0.831,4.085 h 0.531 l 0.846,-4.085 z"
         style="fill:#231f20;fill-opacity:1;fill-rule:nonzero;stroke:none"
         id="path1654"
         inkscape:connector-curvature="0" />
    </g>
    <g
       id="g1656"
       transform="matrix(0.35277777,0,0,-0.35277777,468.80777,94.712195)">
      <path
         d="m 0,0 h -0.258 v -1.118 h 0.343 c 0.288,0 0.374,0.129 0.374,0.516 C 0.459,-0.143 0.359,0 0,0 M 0.56,-1.519 0.974,-3.555 H 0.445 l -0.459,1.907 H -0.258 V -3.555 H -0.774 V 0.53 h 0.803 c 0.631,0 0.961,-0.386 0.961,-1.146 0,-0.459 -0.129,-0.717 -0.43,-0.903"
         style="fill:#231f20;fill-opacity:1;fill-rule:nonzero;stroke:none"
         id="path1658"
         inkscape:connector-curvature="0" />
    </g>
    <g
       id="g1660"
       transform="matrix(0.35277777,0,0,-0.35277777,469.63151,94.712195)">
      <path
         d="M 0,0 V -3.555 H -0.515 V 0 H -1.017 V 0.53 H 0.532 V 0 Z"
         style="fill:#231f20;fill-opacity:1;fill-rule:nonzero;stroke:none"
         id="path1662"
         inkscape:connector-curvature="0" />
    </g>
    <g
       id="g1664"
       transform="matrix(0.35277777,0,0,-0.35277777,461.46894,96.8888)">
      <path
         d="M 0,0 V -1.046 H 0.601 V -1.591 H 0 V -3.554 H -0.516 V 0.531 H 1.047 V 0 Z"
         style="fill:#231f20;fill-opacity:1;fill-rule:nonzero;stroke:none"
         id="path1666"
         inkscape:connector-curvature="0" />
    </g>
    <path
       d="m 461.89344,97.090976 h 0.18238 v 1.051631 h -0.18238 z m 0.091,-0.23248 c -0.0505,0 -0.091,-0.04057 -0.091,-0.09631 0,-0.05045 0.0406,-0.09066 0.0963,-0.09066 0.0505,0 0.091,0.04022 0.091,0.09596 0,0.05045 -0.0406,0.09102 -0.0963,0.09102"
       style="fill:#231f20;fill-opacity:1;fill-rule:nonzero;stroke:none;stroke-width:0.352777"
       id="path1668"
       inkscape:connector-curvature="0" />
    <g
       id="g1670"
       transform="matrix(0.35277777,0,0,-0.35277777,462.64157,98.142608)">
      <path
         d="m 0,0 v 2.049 c 0,0.301 -0.027,0.473 -0.215,0.473 -0.185,0 -0.2,-0.243 -0.2,-0.473 V 0 h -0.517 v 2.981 h 0.517 V 2.852 C -0.258,3.125 0.029,3.053 0.029,3.053 0.416,3.009 0.517,2.58 0.517,1.519 V 0 Z"
         style="fill:#231f20;fill-opacity:1;fill-rule:nonzero;stroke:none"
         id="path1672"
         inkscape:connector-curvature="0" />
    </g>
    <path
       d="m 463.04138,97.090976 h 0.18168 v 1.051631 h -0.18168 z m 0.091,-0.23248 c -0.0505,0 -0.091,-0.04057 -0.091,-0.09631 0,-0.05045 0.0406,-0.09066 0.096,-0.09066 0.0508,0 0.091,0.04022 0.091,0.09596 0,0.05045 -0.0402,0.09102 -0.096,0.09102"
       style="fill:#231f20;fill-opacity:1;fill-rule:nonzero;stroke:none;stroke-width:0.352777"
       id="path1674"
       inkscape:connector-curvature="0" />
    <g
       id="g1676"
       transform="matrix(0.35277777,0,0,-0.35277777,463.79974,98.06182)">
      <path
         d="m 0,0 c -0.143,-0.186 -0.359,-0.286 -0.574,-0.286 -0.229,0 -0.415,0.057 -0.588,0.315 l 0.145,0.602 c 0.142,-0.316 0.271,-0.43 0.415,-0.43 0.186,0 0.258,0.129 0.258,0.372 0,0.116 -0.085,0.416 -0.359,0.631 -0.301,0.243 -0.459,0.444 -0.459,0.874 0,0.187 0.044,0.359 0.145,0.502 0.114,0.157 0.228,0.244 0.486,0.244 0.201,0 0.388,-0.115 0.588,-0.358 L -0.1,1.921 c -0.187,0.329 -0.273,0.43 -0.402,0.43 -0.1,0 -0.158,-0.129 -0.158,-0.258 0,-0.071 0.029,-0.172 0.086,-0.273 0.029,-0.043 0.072,-0.1 0.359,-0.386 C 0.029,1.176 0.157,0.889 0.157,0.56 0.157,0.358 0.1,0.144 0,0"
         style="fill:#231f20;fill-opacity:1;fill-rule:nonzero;stroke:none"
         id="path1678"
         inkscape:connector-curvature="0" />
    </g>
    <g
       id="g1680"
       transform="matrix(0.35277777,0,0,-0.35277777,464.32538,98.142608)">
      <path
         d="m 0,0 v 2.049 c 0,0.301 -0.029,0.473 -0.214,0.473 -0.187,0 -0.202,-0.243 -0.202,-0.473 V 0 h -0.515 v 3.827 l 0.515,0.33 V 2.938 C -0.143,3.21 0.516,3.082 0.516,2.064 V 0 Z"
         style="fill:#231f20;fill-opacity:1;fill-rule:nonzero;stroke:none"
         id="path1682"
         inkscape:connector-curvature="0" />
    </g>
    <g
       id="g1684"
       transform="matrix(0.35277777,0,0,-0.35277777,466.1309,97.995851)">
      <path
         d="m 0,0 c -0.073,-0.301 -0.359,-0.488 -0.717,-0.488 -0.416,0 -0.674,0.172 -0.803,0.545 -0.114,0.344 -0.172,0.903 -0.172,1.562 0,0.373 0.043,0.918 0.101,1.233 0.114,0.63 0.358,0.874 0.846,0.874 0.458,0 0.758,-0.287 0.801,-0.788 h -0.529 c -0.015,0.172 -0.115,0.258 -0.258,0.258 -0.187,0 -0.287,-0.129 -0.345,-0.402 -0.071,-0.33 -0.085,-0.63 -0.085,-1.175 0,-0.574 0.014,-0.817 0.085,-1.16 0.058,-0.273 0.158,-0.416 0.331,-0.416 0.186,0 0.272,0.143 0.272,0.501 H 0.056 C 0.056,0.229 0.043,0.143 0,0"
         style="fill:#231f20;fill-opacity:1;fill-rule:nonzero;stroke:none"
         id="path1686"
         inkscape:connector-curvature="0" />
    </g>
    <g
       id="g1688"
       transform="matrix(0.35277777,0,0,-0.35277777,466.63643,97.323421)">
      <path
         d="m 0,0 c -0.072,0.1 -0.129,0.172 -0.215,0.172 -0.201,0 -0.287,-0.215 -0.287,-0.588 v -1.906 h -0.515 v 2.981 h 0.515 V 0.515 c 0.086,0.144 0.144,0.216 0.273,0.216 C -0.1,0.731 0,0.644 0.057,0.53 Z"
         style="fill:#231f20;fill-opacity:1;fill-rule:nonzero;stroke:none"
         id="path1690"
         inkscape:connector-curvature="0" />
    </g>
    <g
       id="g1692"
       transform="matrix(0.35277777,0,0,-0.35277777,467.0259,97.257841)">
      <path
         d="m 0,0 c -0.316,0 -0.244,-0.802 -0.244,-1.004 0,-0.185 -0.014,-1.031 0.244,-1.031 0.229,0.014 0.215,0.831 0.215,1.031 C 0.215,-0.802 0.272,0 0,0 m 0,-2.565 c -0.616,0 -0.774,0.788 -0.774,1.548 0,0.831 0.072,1.562 0.774,1.562 0.616,0 0.73,-0.703 0.73,-1.549 0,-0.759 -0.157,-1.561 -0.73,-1.561"
         style="fill:#231f20;fill-opacity:1;fill-rule:nonzero;stroke:none"
         id="path1694"
         inkscape:connector-curvature="0" />
    </g>
    <g
       id="g1696"
       transform="matrix(0.35277777,0,0,-0.35277777,467.81471,98.06182)">
      <path
         d="m 0,0 c -0.144,-0.186 -0.359,-0.286 -0.574,-0.286 -0.229,0 -0.416,0.057 -0.588,0.315 l 0.145,0.602 c 0.142,-0.316 0.271,-0.43 0.415,-0.43 0.186,0 0.257,0.129 0.257,0.372 0,0.116 -0.086,0.416 -0.358,0.631 -0.301,0.243 -0.459,0.444 -0.459,0.874 0,0.187 0.043,0.359 0.145,0.502 0.114,0.157 0.228,0.244 0.486,0.244 0.201,0 0.387,-0.115 0.588,-0.358 L -0.101,1.921 c -0.186,0.329 -0.272,0.43 -0.401,0.43 -0.1,0 -0.158,-0.129 -0.158,-0.258 0,-0.071 0.029,-0.172 0.086,-0.273 0.029,-0.043 0.072,-0.1 0.359,-0.386 C 0.028,1.176 0.157,0.889 0.157,0.56 0.157,0.358 0.1,0.144 0,0"
         style="fill:#231f20;fill-opacity:1;fill-rule:nonzero;stroke:none"
         id="path1698"
         inkscape:connector-curvature="0" />
    </g>
    <g
       id="g1700"
       transform="matrix(0.35277777,0,0,-0.35277777,468.35093,98.06182)">
      <path
         d="m 0,0 c -0.145,-0.186 -0.36,-0.286 -0.575,-0.286 -0.228,0 -0.416,0.057 -0.587,0.315 l 0.142,0.602 c 0.145,-0.316 0.274,-0.43 0.416,-0.43 0.188,0 0.258,0.129 0.258,0.372 0,0.116 -0.086,0.416 -0.358,0.631 -0.3,0.243 -0.458,0.444 -0.458,0.874 0,0.187 0.042,0.359 0.142,0.502 0.115,0.157 0.231,0.244 0.488,0.244 0.202,0 0.387,-0.115 0.588,-0.358 L -0.102,1.921 c -0.185,0.329 -0.271,0.43 -0.4,0.43 -0.102,0 -0.159,-0.129 -0.159,-0.258 0,-0.071 0.03,-0.172 0.086,-0.273 0.03,-0.043 0.073,-0.1 0.358,-0.386 C 0.027,1.176 0.156,0.889 0.156,0.56 0.156,0.358 0.099,0.144 0,0"
         style="fill:#231f20;fill-opacity:1;fill-rule:nonzero;stroke:none"
         id="path1702"
         inkscape:connector-curvature="0" />
    </g>
    <path
       d="m 468.54788,97.090976 h 0.18204 v 1.051631 h -0.18204 z m 0.091,-0.23248 c -0.0511,0 -0.091,-0.04057 -0.091,-0.09631 0,-0.05045 0.0399,-0.09066 0.096,-0.09066 0.0501,0 0.091,0.04022 0.091,0.09596 0,0.05045 -0.0409,0.09102 -0.096,0.09102"
       style="fill:#231f20;fill-opacity:1;fill-rule:nonzero;stroke:none;stroke-width:0.352777"
       id="path1704"
       inkscape:connector-curvature="0" />
    <g
       id="g1706"
       transform="matrix(0.35277777,0,0,-0.35277777,469.29602,98.142608)">
      <path
         d="m 0,0 v 2.049 c 0,0.301 -0.029,0.473 -0.215,0.473 -0.187,0 -0.201,-0.243 -0.201,-0.473 V 0 h -0.515 v 2.981 h 0.515 V 2.852 C -0.258,3.125 0.028,3.053 0.028,3.053 0.414,3.009 0.516,2.58 0.516,1.519 V 0 Z"
         style="fill:#231f20;fill-opacity:1;fill-rule:nonzero;stroke:none"
         id="path1708"
         inkscape:connector-curvature="0" />
    </g>
    <g
       id="g1710"
       transform="matrix(0.35277777,0,0,-0.35277777,469.99875,97.389426)">
      <path
         d="m 0,0 c 0,0.129 -0.029,0.359 -0.214,0.359 -0.215,0 -0.274,-0.416 -0.274,-1.046 0,-0.359 0.016,-0.588 0.086,-0.803 0.043,-0.129 0.115,-0.201 0.201,-0.201 C -0.072,-1.676 0,-1.404 0,-1.146 Z M 0.258,-3.224 C 0.114,-3.425 -0.015,-3.525 -0.244,-3.611 l -0.185,0.487 c 0.242,0.115 0.414,0.286 0.414,0.559 v 0.502 c -0.057,-0.086 -0.143,-0.144 -0.199,-0.144 -0.647,0 -0.776,0.861 -0.776,1.52 0,0.831 0.129,1.591 0.76,1.605 0.086,0 0.158,-0.044 0.287,-0.143 v 0.086 h 0.445 v -3.039 c 0,-0.559 -0.058,-0.789 -0.244,-1.046"
         style="fill:#231f20;fill-opacity:1;fill-rule:nonzero;stroke:none"
         id="path1712"
         inkscape:connector-curvature="0" />
    </g>
    <path
       d="m 463.01845,98.538776 h 0.18203 v 1.440744 h -0.18203 z"
       style="fill:#231f20;fill-opacity:1;fill-rule:nonzero;stroke:none;stroke-width:0.352777"
       id="path1714"
       inkscape:connector-curvature="0" />
    <g
       id="g1716"
       transform="matrix(0.35277777,0,0,-0.35277777,463.66075,99.095108)">
      <path
         d="M 0,0 V -2.507 H -0.516 V 0 h -0.201 v 0.474 h 0.201 v 0.659 c 0,0.301 0.158,0.516 0.4,0.516 0.102,0 0.216,0 0.331,-0.072 V 1.104 C 0.158,1.204 0,1.204 0,0.947 V 0.474 H 0.229 V 0 Z"
         style="fill:#231f20;fill-opacity:1;fill-rule:nonzero;stroke:none"
         id="path1718"
         inkscape:connector-curvature="0" />
    </g>
    <g
       id="g1720"
       transform="matrix(0.35277777,0,0,-0.35277777,465.06621,99.939303)">
      <path
         d="m 0,0 c -0.129,-0.114 -0.314,-0.187 -0.53,-0.187 -0.573,0 -0.874,0.373 -0.904,1.09 h 0.532 c 0,-0.158 0.013,-0.215 0.043,-0.301 0.043,-0.158 0.172,-0.258 0.329,-0.258 0.2,0 0.329,0.158 0.329,0.416 0,0.358 -0.129,0.659 -0.443,1.032 -0.187,0.215 -0.316,0.372 -0.359,0.429 -0.229,0.273 -0.329,0.56 -0.329,0.846 0,0.56 0.344,0.96 0.83,0.96 0.502,0 0.775,-0.314 0.832,-0.96 h -0.531 c -0.014,0.316 -0.1,0.444 -0.286,0.444 -0.2,0 -0.316,-0.171 -0.316,-0.444 0,-0.186 0.073,-0.329 0.287,-0.558 C -0.071,2.007 0,1.906 0.129,1.648 0.244,1.39 0.33,1.047 0.33,0.76 0.33,0.473 0.201,0.172 0,0"
         style="fill:#231f20;fill-opacity:1;fill-rule:nonzero;stroke:none"
         id="path1722"
         inkscape:connector-curvature="0" />
    </g>
    <g
       id="g1724"
       transform="matrix(0.35277777,0,0,-0.35277777,465.66276,99.929074)">
      <path
         d="m 0,0 c -0.1,-0.129 -0.186,-0.186 -0.3,-0.186 -0.316,0 -0.545,0.329 -0.545,0.759 v 1.791 h -0.316 v 0.474 h 0.316 v 0.859 l 0.53,0.316 V 2.838 H 0.043 V 2.379 H -0.315 V 0.573 c 0,-0.143 0.071,-0.244 0.172,-0.244 0.086,0 0.13,0.058 0.2,0.158 z"
         style="fill:#231f20;fill-opacity:1;fill-rule:nonzero;stroke:none"
         id="path1726"
         inkscape:connector-curvature="0" />
    </g>
    <g
       id="g1728"
       transform="matrix(0.35277777,0,0,-0.35277777,466.07763,99.499391)">
      <path
         d="m 0,0 c 0,0 -0.029,0.1 -0.23,0.1 -0.129,0 -0.243,-0.115 -0.243,-0.472 0,-0.373 0.057,-0.545 0.272,-0.545 0.158,0 0.201,0.086 0.201,0.272 z m 0.043,-1.361 v 0.085 c -0.072,-0.085 -0.187,-0.128 -0.344,-0.128 -0.402,0 -0.689,0.444 -0.689,1.045 0,0.574 0.345,1.219 0.99,0.961 v 0.215 c 0,0.23 -0.058,0.316 -0.23,0.316 -0.215,0 -0.415,-0.273 -0.501,-0.431 l -0.13,0.646 c 0.201,0.229 0.388,0.343 0.617,0.343 0.631,0 0.76,-0.573 0.76,-1.06 v -1.992 z"
         style="fill:#231f20;fill-opacity:1;fill-rule:nonzero;stroke:none"
         id="path1730"
         inkscape:connector-curvature="0" />
    </g>
    <g
       id="g1732"
       transform="matrix(0.35277777,0,0,-0.35277777,466.83575,99.160687)">
      <path
         d="m 0,0 c -0.071,0.1 -0.129,0.173 -0.215,0.173 -0.2,0 -0.286,-0.216 -0.286,-0.588 V -2.321 H -1.018 V 0.66 h 0.517 V 0.516 c 0.086,0.144 0.143,0.215 0.272,0.215 0.129,0 0.229,-0.086 0.287,-0.2 z"
         style="fill:#231f20;fill-opacity:1;fill-rule:nonzero;stroke:none"
         id="path1734"
         inkscape:connector-curvature="0" />
    </g>
    <g
       id="g1736"
       transform="matrix(0.35277777,0,0,-0.35277777,467.29118,99.929074)">
      <path
         d="m 0,0 c -0.101,-0.129 -0.188,-0.186 -0.301,-0.186 -0.316,0 -0.545,0.329 -0.545,0.759 v 1.791 h -0.316 v 0.474 h 0.316 v 0.859 l 0.529,0.316 V 2.838 h 0.36 V 2.379 h -0.36 V 0.573 c 0,-0.143 0.073,-0.244 0.173,-0.244 0.086,0 0.129,0.058 0.2,0.158 z"
         style="fill:#231f20;fill-opacity:1;fill-rule:nonzero;stroke:none"
         id="path1738"
         inkscape:connector-curvature="0" />
    </g>
    <g
       id="g1740"
       transform="matrix(0.35277777,0,0,-0.35277777,467.64502,99.099693)">
      <path
         d="M 0,0 C -0.173,0 -0.244,-0.187 -0.244,-0.775 H 0.257 C 0.257,-0.173 0.172,0 0,0 m -0.244,-1.305 c 0.014,-0.573 0.086,-0.717 0.272,-0.717 0.115,0 0.201,0.086 0.287,0.387 l 0.33,-0.473 C 0.544,-2.38 0.343,-2.552 0.1,-2.552 c -0.66,0 -0.845,0.602 -0.845,1.533 0,0.946 0.171,1.577 0.759,1.577 0.744,0 0.731,-1.304 0.717,-1.863 z"
         style="fill:#231f20;fill-opacity:1;fill-rule:nonzero;stroke:none"
         id="path1742"
         inkscape:connector-curvature="0" />
    </g>
    <g
       id="g1744"
       transform="matrix(0.35277777,0,0,-0.35277777,468.36786,99.226341)">
      <path
         d="m 0,0 c 0,0.143 -0.015,0.372 -0.201,0.372 -0.215,0 -0.258,-0.229 -0.258,-0.988 0,-0.674 0.014,-1.032 0.258,-1.032 C 0,-1.648 0,-1.333 0,-1.176 Z m 0.014,-2.135 v 0.114 C -0.072,-2.15 -0.158,-2.208 -0.3,-2.208 c -0.532,0 -0.69,0.746 -0.69,1.592 0,0.372 0.03,1.877 0.99,1.447 v 0.874 l 0.516,0.316 v -4.156 z"
         style="fill:#231f20;fill-opacity:1;fill-rule:nonzero;stroke:none"
         id="path1746"
         inkscape:connector-curvature="0" />
    </g>
    <path
       d="m 461.70858,96.178693 h 8.05533 v 0.204611 h -8.05533 z"
       style="fill:#231f20;fill-opacity:1;fill-rule:evenodd;stroke:none;stroke-width:0.352777"
       id="path1748"
       inkscape:connector-curvature="0" />
    <g
       id="g1750"
       transform="matrix(0.35277777,0,0,-0.35277777,462.16885,103.37042)">
      <path
         d="m 0,0 c -0.043,0.445 -0.129,0.588 -0.344,0.588 h -0.33 v -3.024 h 0.33 c 0.187,0 0.288,0.129 0.344,0.43 0.015,0.143 0.043,0.602 0.043,0.96 C 0.043,-0.745 0.015,-0.286 0,0 M 0.201,-2.765 C 0.086,-2.894 -0.114,-2.967 -0.344,-2.967 h -0.845 v 4.085 h 0.845 c 0.288,0 0.489,-0.099 0.618,-0.3 C 0.373,0.66 0.459,0.388 0.488,0.13 0.545,-0.2 0.574,-0.573 0.574,-0.917 c 0,-0.96 -0.129,-1.576 -0.373,-1.848"
         style="fill:#231f20;fill-opacity:1;fill-rule:nonzero;stroke:none"
         id="path1752"
         inkscape:connector-curvature="0" />
    </g>
    <g
       id="g1754"
       transform="matrix(0.35277777,0,0,-0.35277777,462.93226,103.14253)">
      <path
         d="m 0,0 c -0.472,0 -0.415,-1.276 -0.415,-1.563 0,-0.272 -0.057,-1.591 0.415,-1.591 0.459,0 0.403,1.319 0.403,1.591 C 0.403,-1.233 0.388,0 0,0 m 0,-3.684 c -1.017,0 -0.945,1.447 -0.945,2.121 0,0.702 -0.057,2.093 0.945,2.093 1.004,0 0.948,-1.404 0.948,-2.093 0,-0.674 0.056,-2.121 -0.948,-2.121"
         style="fill:#231f20;fill-opacity:1;fill-rule:nonzero;stroke:none"
         id="path1756"
         inkscape:connector-curvature="0" />
    </g>
    <g
       id="g1758"
       transform="matrix(0.35277777,0,0,-0.35277777,463.99977,104.41711)">
      <path
         d="M 0,0 -0.803,2.423 V 0 H -1.32 v 4.085 h 0.517 L -0.073,2.05 V 4.085 H 0.443 V 0 Z"
         style="fill:#231f20;fill-opacity:1;fill-rule:nonzero;stroke:none"
         id="path1760"
         inkscape:connector-curvature="0" />
    </g>
    <g
       id="g1762"
       transform="matrix(0.35277777,0,0,-0.35277777,464.52541,103.32452)">
      <path
         d="m 0,0 -0.158,0.129 c 0.1,0.086 0.201,0.228 0.229,0.329 H 0.028 c -0.186,0 -0.301,0.115 -0.301,0.301 0,0.173 0.129,0.302 0.301,0.302 0.187,0 0.316,-0.129 0.316,-0.345 C 0.344,0.458 0.215,0.186 0,0"
         style="fill:#231f20;fill-opacity:1;fill-rule:nonzero;stroke:none"
         id="path1764"
         inkscape:connector-curvature="0" />
    </g>
    <g
       id="g1766"
       transform="matrix(0.35277777,0,0,-0.35277777,465.16252,103.16299)">
      <path
         d="M 0,0 V -3.555 H -0.517 V 0 H -1.018 V 0.53 H 0.53 V 0 Z"
         style="fill:#231f20;fill-opacity:1;fill-rule:nonzero;stroke:none"
         id="path1768"
         inkscape:connector-curvature="0" />
    </g>
    <g
       id="g1770"
       transform="matrix(0.35277777,0,0,-0.35277777,466.82587,104.27036)">
      <path
         d="m 0,0 c -0.072,-0.3 -0.359,-0.487 -0.716,-0.487 -0.416,0 -0.674,0.172 -0.803,0.545 -0.115,0.344 -0.172,0.902 -0.172,1.563 0,0.372 0.043,0.917 0.1,1.232 0.115,0.63 0.359,0.874 0.845,0.874 0.459,0 0.76,-0.287 0.803,-0.788 h -0.529 c -0.016,0.172 -0.116,0.258 -0.259,0.258 -0.187,0 -0.286,-0.129 -0.344,-0.402 -0.071,-0.33 -0.086,-0.631 -0.086,-1.174 0,-0.575 0.015,-0.818 0.086,-1.162 0.058,-0.272 0.157,-0.416 0.329,-0.416 0.188,0 0.274,0.144 0.274,0.502 H 0.057 C 0.057,0.23 0.043,0.144 0,0"
         style="fill:#231f20;fill-opacity:1;fill-rule:nonzero;stroke:none"
         id="path1772"
         inkscape:connector-curvature="0" />
    </g>
    <g
       id="g1774"
       transform="matrix(0.35277777,0,0,-0.35277777,467.28095,103.16299)">
      <path
         d="m 0,0 h -0.257 v -1.118 h 0.344 c 0.286,0 0.372,0.129 0.372,0.517 C 0.459,-0.143 0.359,0 0,0 M 0.56,-1.518 0.976,-3.555 H 0.445 l -0.459,1.907 H -0.257 V -3.555 H -0.774 V 0.53 h 0.803 c 0.631,0 0.961,-0.386 0.961,-1.146 0,-0.459 -0.129,-0.717 -0.43,-0.902"
         style="fill:#231f20;fill-opacity:1;fill-rule:nonzero;stroke:none"
         id="path1776"
         inkscape:connector-curvature="0" />
    </g>
    <g
       id="g1778"
       transform="matrix(0.35277777,0,0,-0.35277777,468.1509,103.14253)">
      <path
         d="m 0,0 c -0.472,0 -0.416,-1.276 -0.416,-1.563 0,-0.272 -0.056,-1.591 0.416,-1.591 0.459,0 0.401,1.319 0.401,1.591 C 0.401,-1.233 0.387,0 0,0 m 0,-3.684 c -1.017,0 -0.946,1.447 -0.946,2.121 0,0.702 -0.058,2.093 0.946,2.093 1.004,0 0.946,-1.404 0.946,-2.093 0,-0.674 0.058,-2.121 -0.946,-2.121"
         style="fill:#231f20;fill-opacity:1;fill-rule:nonzero;stroke:none"
         id="path1780"
         inkscape:connector-curvature="0" />
    </g>
    <g
       id="g1782"
       transform="matrix(0.35277777,0,0,-0.35277777,469.1722,104.37619)">
      <path
         d="m 0,0 c -0.129,-0.116 -0.315,-0.187 -0.53,-0.187 -0.574,0 -0.875,0.373 -0.904,1.089 h 0.531 c 0,-0.157 0.014,-0.215 0.043,-0.301 0.043,-0.157 0.172,-0.258 0.33,-0.258 0.2,0 0.329,0.158 0.329,0.416 0,0.359 -0.129,0.66 -0.444,1.032 -0.185,0.215 -0.314,0.373 -0.359,0.43 -0.229,0.273 -0.328,0.559 -0.328,0.846 0,0.559 0.343,0.96 0.83,0.96 0.502,0 0.775,-0.315 0.832,-0.96 h -0.531 c -0.014,0.314 -0.1,0.444 -0.286,0.444 -0.201,0 -0.316,-0.173 -0.316,-0.444 0,-0.187 0.072,-0.33 0.287,-0.56 C -0.073,2.006 0,1.906 0.129,1.648 0.244,1.389 0.33,1.046 0.33,0.759 0.33,0.472 0.201,0.172 0,0"
         style="fill:#231f20;fill-opacity:1;fill-rule:nonzero;stroke:none"
         id="path1784"
         inkscape:connector-curvature="0" />
    </g>
    <g
       id="g1786"
       transform="matrix(0.35277777,0,0,-0.35277777,469.93561,104.37619)">
      <path
         d="m 0,0 c -0.129,-0.116 -0.315,-0.187 -0.529,-0.187 -0.575,0 -0.875,0.373 -0.905,1.089 h 0.531 c 0,-0.157 0.014,-0.215 0.043,-0.301 0.043,-0.157 0.172,-0.258 0.331,-0.258 0.199,0 0.328,0.158 0.328,0.416 0,0.359 -0.129,0.66 -0.444,1.032 -0.185,0.215 -0.316,0.373 -0.359,0.43 -0.229,0.273 -0.328,0.559 -0.328,0.846 0,0.559 0.344,0.96 0.83,0.96 0.502,0 0.775,-0.315 0.832,-0.96 h -0.531 c -0.014,0.314 -0.1,0.444 -0.286,0.444 -0.201,0 -0.316,-0.173 -0.316,-0.444 0,-0.187 0.072,-0.33 0.287,-0.56 C -0.072,2.006 0,1.906 0.129,1.648 0.244,1.389 0.33,1.046 0.33,0.759 0.33,0.472 0.201,0.172 0,0"
         style="fill:#231f20;fill-opacity:1;fill-rule:nonzero;stroke:none"
         id="path1788"
         inkscape:connector-curvature="0" />
    </g>
    <g
       id="g1790"
       transform="matrix(0.35277777,0,0,-0.35277777,460.65261,111.64694)">
      <path
         d="M 0,0 V -3.54 H -0.588 V 0 H -1.333 V 0.545 H 0.745 V 0 Z"
         style="fill:#231f20;fill-opacity:1;fill-rule:nonzero;stroke:none"
         id="path1792"
         inkscape:connector-curvature="0" />
    </g>
    <g
       id="g1794"
       transform="matrix(0.35277777,0,0,-0.35277777,461.68875,111.81341)">
      <path
         d="m 0,0 c -0.099,0.358 -0.258,0.516 -0.501,0.516 -0.259,0 -0.415,-0.158 -0.516,-0.502 -0.1,-0.315 -0.129,-0.588 -0.129,-1.047 0,-0.444 0.043,-0.702 0.129,-1.031 0.101,-0.345 0.257,-0.502 0.516,-0.502 0.243,0 0.402,0.157 0.501,0.502 0.102,0.329 0.129,0.573 0.129,1.046 C 0.129,-0.559 0.086,-0.301 0,0 m 0.459,-2.437 c -0.2,-0.487 -0.502,-0.702 -0.96,-0.702 -0.487,0 -0.774,0.215 -0.974,0.702 -0.173,0.401 -0.23,0.788 -0.23,1.419 0,0.616 0.057,1.032 0.23,1.419 0.214,0.487 0.501,0.688 0.974,0.688 0.474,0 0.76,-0.201 0.96,-0.703 0.172,-0.401 0.23,-0.788 0.23,-1.404 0,-0.631 -0.058,-1.032 -0.23,-1.419"
         style="fill:#231f20;fill-opacity:1;fill-rule:nonzero;stroke:none"
         id="path1796"
         inkscape:connector-curvature="0" />
    </g>
    <g
       id="g1798"
       transform="matrix(0.35277777,0,0,-0.35277777,463.50908,111.83885)">
      <path
         d="m 0,0 c -0.056,0.402 -0.215,0.588 -0.486,0.588 -0.474,0 -0.646,-0.373 -0.646,-1.433 0,-1.176 0.201,-1.649 0.703,-1.649 0.343,0 0.429,0.287 0.429,0.588 H 0.588 C 0.575,-2.58 0.144,-3.067 -0.429,-3.067 c -0.875,0 -1.262,0.702 -1.262,2.207 0,1.318 0.416,2.021 1.219,2.021 0.33,0 0.616,-0.143 0.802,-0.416 C 0.489,0.544 0.545,0.372 0.588,0 Z"
         style="fill:#231f20;fill-opacity:1;fill-rule:nonzero;stroke:none"
         id="path1800"
         inkscape:connector-curvature="0" />
    </g>
    <g
       id="g1802"
       transform="matrix(0.35277777,0,0,-0.35277777,464.318,111.65682)">
      <path
         d="M 0,0 H -0.601 V -1.032 H 0 c 0.345,0 0.532,0.186 0.532,0.516 C 0.532,-0.2 0.317,0 0,0 m 0.502,-3.512 -0.545,1.921 H -0.601 V -3.512 H -1.189 V 0.573 H 0.03 c 0.644,0 1.075,-0.43 1.075,-1.089 0,-0.487 -0.2,-0.845 -0.588,-0.989 l 0.588,-2.007 z"
         style="fill:#231f20;fill-opacity:1;fill-rule:nonzero;stroke:none"
         id="path1804"
         inkscape:connector-curvature="0" />
    </g>
    <g
       id="g1806"
       transform="matrix(0.35277777,0,0,-0.35277777,465.52662,111.81341)">
      <path
         d="m 0,0 c -0.1,0.358 -0.258,0.516 -0.501,0.516 -0.259,0 -0.416,-0.158 -0.516,-0.502 -0.1,-0.315 -0.129,-0.588 -0.129,-1.047 0,-0.444 0.043,-0.702 0.129,-1.031 0.1,-0.345 0.257,-0.502 0.516,-0.502 0.243,0 0.401,0.157 0.501,0.502 0.101,0.329 0.129,0.573 0.129,1.046 C 0.129,-0.559 0.086,-0.301 0,0 m 0.459,-2.437 c -0.201,-0.487 -0.502,-0.702 -0.96,-0.702 -0.487,0 -0.774,0.215 -0.975,0.702 -0.172,0.401 -0.229,0.788 -0.229,1.419 0,0.616 0.057,1.032 0.229,1.419 0.215,0.487 0.501,0.688 0.975,0.688 0.473,0 0.759,-0.201 0.96,-0.703 0.172,-0.401 0.23,-0.788 0.23,-1.404 0,-0.631 -0.058,-1.032 -0.23,-1.419"
         style="fill:#231f20;fill-opacity:1;fill-rule:nonzero;stroke:none"
         id="path1808"
         inkscape:connector-curvature="0" />
    </g>
    <g
       id="g1810"
       transform="matrix(0.35277777,0,0,-0.35277777,466.39128,112.92082)">
      <path
         d="m 0,0 c -0.717,0 -1.146,0.601 -1.146,1.275 h 0.573 c 0,-0.343 0.172,-0.702 0.573,-0.702 0.316,0 0.574,0.287 0.574,0.616 0,0.23 -0.086,0.402 -0.33,0.588 -0.086,0.086 0.143,-0.072 -0.688,0.488 -0.329,0.229 -0.501,0.544 -0.501,0.902 0,0.588 0.458,1.061 1.046,1.061 0.573,0 1.017,-0.444 1.032,-1.061 H 0.574 C 0.559,3.454 0.359,3.641 0.101,3.641 -0.172,3.641 -0.386,3.439 -0.386,3.167 -0.386,2.967 -0.301,2.852 0,2.681 0.789,2.222 1.133,1.777 1.133,1.189 1.133,0.53 0.631,0 0,0"
         style="fill:#231f20;fill-opacity:1;fill-rule:nonzero;stroke:none"
         id="path1812"
         inkscape:connector-curvature="0" />
    </g>
    <g
       id="g1814"
       transform="matrix(0.35277777,0,0,-0.35277777,467.36706,112.92082)">
      <path
         d="m 0,0 c -0.716,0 -1.147,0.601 -1.147,1.275 h 0.575 c 0,-0.343 0.171,-0.702 0.572,-0.702 0.316,0 0.574,0.287 0.574,0.616 0,0.23 -0.086,0.402 -0.33,0.588 -0.086,0.086 0.144,-0.072 -0.687,0.488 -0.331,0.229 -0.502,0.544 -0.502,0.902 0,0.588 0.459,1.061 1.046,1.061 0.573,0 1.018,-0.444 1.032,-1.061 H 0.574 C 0.559,3.454 0.359,3.641 0.101,3.641 -0.172,3.641 -0.387,3.439 -0.387,3.167 -0.387,2.967 -0.301,2.852 0,2.681 0.789,2.222 1.133,1.777 1.133,1.189 1.133,0.53 0.631,0 0,0"
         style="fill:#231f20;fill-opacity:1;fill-rule:nonzero;stroke:none"
         id="path1816"
         inkscape:connector-curvature="0" />
    </g>
    <g
       id="g1818"
       transform="matrix(0.35277777,0,0,-0.35277777,458.97268,108.46171)">
      <path
         d="M 0,0 H -0.602 V -1.162 H 0 c 0.344,0 0.53,0.215 0.53,0.588 C 0.53,-0.23 0.315,0 0,0 m 0.028,-1.72 h -0.63 V -3.512 H -1.19 v 4.085 h 1.218 c 0.646,0 1.076,-0.458 1.076,-1.147 0,-0.745 -0.387,-1.146 -1.076,-1.146"
         style="fill:#231f20;fill-opacity:1;fill-rule:nonzero;stroke:none"
         id="path1820"
         inkscape:connector-curvature="0" />
    </g>
    <g
       id="g1822"
       transform="matrix(0.35277777,0,0,-0.35277777,460.31217,109.52357)">
      <path
         d="m 0,0 c -0.2,-0.33 -0.587,-0.573 -0.974,-0.573 -0.401,0 -0.803,0.229 -1.002,0.573 -0.115,0.215 -0.158,0.387 -0.158,0.717 v 2.866 h 0.587 V 0.644 C -1.547,0.258 -1.318,0 -0.974,0 c 0.316,0 0.545,0.258 0.545,0.644 V 3.583 H 0.159 V 0.717 C 0.159,0.387 0.116,0.215 0,0"
         style="fill:#231f20;fill-opacity:1;fill-rule:nonzero;stroke:none"
         id="path1824"
         inkscape:connector-curvature="0" />
    </g>
    <g
       id="g1826"
       transform="matrix(0.35277777,0,0,-0.35277777,461.01491,109.72571)">
      <path
         d="m 0,0 c -0.716,0 -1.146,0.601 -1.146,1.275 h 0.574 C -0.572,0.931 -0.4,0.573 0,0.573 c 0.317,0 0.575,0.287 0.575,0.616 0,0.23 -0.086,0.401 -0.33,0.588 -0.086,0.086 0.143,-0.072 -0.688,0.487 -0.33,0.23 -0.502,0.545 -0.502,0.903 0,0.587 0.459,1.06 1.047,1.06 0.572,0 1.018,-0.443 1.031,-1.06 H 0.575 C 0.56,3.454 0.36,3.64 0.102,3.64 -0.171,3.64 -0.386,3.439 -0.386,3.167 -0.386,2.966 -0.3,2.852 0,2.679 0.79,2.221 1.133,1.777 1.133,1.189 1.133,0.53 0.631,0 0,0"
         style="fill:#231f20;fill-opacity:1;fill-rule:nonzero;stroke:none"
         id="path1828"
         inkscape:connector-curvature="0" />
    </g>
    <g
       id="g1830"
       transform="matrix(0.35277777,0,0,-0.35277777,462.25915,109.70063)">
      <path
         d="M 0,0 V 1.849 H -1.118 V 0 h -0.588 v 4.085 h 0.588 V 2.423 H 0 V 4.085 H 0.588 V 0 Z"
         style="fill:#231f20;fill-opacity:1;fill-rule:nonzero;stroke:none"
         id="path1832"
         inkscape:connector-curvature="0" />
    </g>
    <g
       id="g1834"
       transform="matrix(0.35277777,0,0,-0.35277777,463.91227,109.04838)">
      <path
         d="M 0,0 H -0.588 V -1.276 H 0 c 0.33,0 0.545,0.23 0.545,0.588 C 0.545,-0.301 0.301,0 0,0 M 0.03,1.663 H -0.588 V 0.574 H 0.03 c 0.271,0 0.443,0.229 0.443,0.601 0,0.344 -0.129,0.488 -0.443,0.488 m 0,-3.512 h -1.205 v 4.085 h 1.291 c 0.545,0 0.931,-0.43 0.931,-1.061 0,-0.372 -0.1,-0.545 -0.429,-0.888 0.314,-0.258 0.501,-0.602 0.501,-1.018 0,-0.616 -0.488,-1.118 -1.089,-1.118"
         style="fill:#231f20;fill-opacity:1;fill-rule:nonzero;stroke:none"
         id="path1836"
         inkscape:connector-curvature="0" />
    </g>
    <g
       id="g1838"
       transform="matrix(0.35277777,0,0,-0.35277777,465.30292,109.52357)">
      <path
         d="m 0,0 c -0.201,-0.33 -0.588,-0.573 -0.975,-0.573 -0.4,0 -0.803,0.229 -1.004,0.573 -0.113,0.215 -0.156,0.387 -0.156,0.717 v 2.866 h 0.587 V 0.644 C -1.548,0.258 -1.319,0 -0.975,0 -0.659,0 -0.43,0.258 -0.43,0.644 V 3.583 H 0.158 V 0.717 C 0.158,0.387 0.115,0.215 0,0"
         style="fill:#231f20;fill-opacity:1;fill-rule:nonzero;stroke:none"
         id="path1840"
         inkscape:connector-curvature="0" />
    </g>
    <g
       id="g1842"
       transform="matrix(0.35277777,0,0,-0.35277777,466.03105,108.45183)">
      <path
         d="M 0,0 V -3.54 H -0.588 V 0 H -1.334 V 0.545 H 0.744 V 0 Z"
         style="fill:#231f20;fill-opacity:1;fill-rule:nonzero;stroke:none"
         id="path1844"
         inkscape:connector-curvature="0" />
    </g>
    <g
       id="g1846"
       transform="matrix(0.35277777,0,0,-0.35277777,466.8502,108.45183)">
      <path
         d="M 0,0 V -3.54 H -0.587 V 0 H -1.333 V 0.545 H 0.745 V 0 Z"
         style="fill:#231f20;fill-opacity:1;fill-rule:nonzero;stroke:none"
         id="path1848"
         inkscape:connector-curvature="0" />
    </g>
    <g
       id="g1850"
       transform="matrix(0.35277777,0,0,-0.35277777,467.88666,108.6187)">
      <path
         d="m 0,0 c -0.101,0.359 -0.258,0.516 -0.502,0.516 -0.258,0 -0.416,-0.157 -0.516,-0.501 -0.1,-0.316 -0.128,-0.588 -0.128,-1.047 0,-0.444 0.042,-0.702 0.128,-1.031 0.1,-0.345 0.258,-0.502 0.516,-0.502 0.244,0 0.401,0.157 0.502,0.502 0.1,0.329 0.129,0.573 0.129,1.046 C 0.129,-0.558 0.086,-0.301 0,0 m 0.458,-2.436 c -0.2,-0.488 -0.501,-0.702 -0.96,-0.702 -0.487,0 -0.773,0.214 -0.975,0.702 -0.171,0.401 -0.229,0.788 -0.229,1.419 0,0.616 0.058,1.032 0.229,1.419 0.215,0.487 0.502,0.687 0.975,0.687 0.473,0 0.76,-0.2 0.96,-0.702 0.173,-0.401 0.23,-0.788 0.23,-1.404 0,-0.631 -0.057,-1.033 -0.23,-1.419"
         style="fill:#231f20;fill-opacity:1;fill-rule:nonzero;stroke:none"
         id="path1852"
         inkscape:connector-curvature="0" />
    </g>
    <g
       id="g1854"
       transform="matrix(0.35277777,0,0,-0.35277777,469.06988,109.70063)">
      <path
         d="M 0,0 -1.262,2.738 V 0 H -1.85 v 4.085 h 0.588 L -0.143,1.634 V 4.085 H 0.445 V 0 Z"
         style="fill:#231f20;fill-opacity:1;fill-rule:nonzero;stroke:none"
         id="path1856"
         inkscape:connector-curvature="0" />
    </g>
    <g
       id="g1858"
       transform="matrix(-0.35277777,0,0,-0.35277777,457.53264,109.7165)">
      <path
         d="M 0,0 3.633,-2.456 0,-4.917 c -0.16,-0.108 -0.378,-0.067 -0.488,0.093 -0.072,0.107 -0.058,0.217 -0.025,0.349 l 0.32,1.067 h -37.822 v 1.902 h 37.822 l -0.312,1.049 c -0.041,0.145 -0.059,0.252 0.017,0.364 C -0.378,0.067 -0.16,0.109 0,0"
         style="fill:#231f20;fill-opacity:1;fill-rule:evenodd;stroke:none"
         id="path1860"
         inkscape:connector-curvature="0" />
    </g>
    <g
       id="g1862"
       transform="matrix(0.35277777,0,0,-0.35277777,456.38083,101.84039)">
      <path
         d="m 0,0 c 0,-0.123 -0.034,-0.225 -0.104,-0.307 -0.079,-0.094 -0.192,-0.141 -0.34,-0.141 -0.186,0 -0.312,0.088 -0.381,0.264 -0.029,0.073 -0.045,0.161 -0.049,0.264 h 0.264 c 0.008,-0.176 0.063,-0.263 0.165,-0.263 0.12,0 0.18,0.061 0.18,0.184 0,0.165 -0.049,0.314 -0.15,0.444 -0.092,0.106 -0.185,0.212 -0.277,0.318 -0.1,0.131 -0.151,0.28 -0.151,0.446 0,0.084 0.031,0.167 0.094,0.25 0.08,0.108 0.189,0.163 0.326,0.164 0.176,0.002 0.299,-0.076 0.37,-0.233 C -0.023,1.324 -0.005,1.247 0,1.156 h -0.265 c -0.009,0.135 -0.062,0.203 -0.158,0.203 -0.043,0 -0.08,-0.015 -0.11,-0.044 -0.031,-0.031 -0.044,-0.066 -0.044,-0.106 0,-0.118 0.049,-0.234 0.15,-0.35 C -0.245,0.649 -0.153,0.541 -0.15,0.536 -0.05,0.385 0,0.206 0,0"
         style="fill:#231f20;fill-opacity:1;fill-rule:nonzero;stroke:none"
         id="path1864"
         inkscape:connector-curvature="0" />
    </g>
    <g
       id="g1866"
       transform="matrix(0.35277777,0,0,-0.35277777,456.71067,101.36805)">
      <path
         d="M 0,0 H -0.253 V -1.767 H -0.518 V 0 H -0.772 V 0.265 H 0 Z"
         style="fill:#231f20;fill-opacity:1;fill-rule:nonzero;stroke:none"
         id="path1868"
         inkscape:connector-curvature="0" />
    </g>
    <g
       id="g1870"
       transform="matrix(0.35277777,0,0,-0.35277777,457.08321,101.99141)">
      <path
         d="M 0,0 H -0.771 V 2.032 H 0 V 1.767 H -0.508 V 1.219 h 0.326 V 0.971 H -0.508 V 0.265 H 0 Z"
         style="fill:#231f20;fill-opacity:1;fill-rule:nonzero;stroke:none"
         id="path1872"
         inkscape:connector-curvature="0" />
    </g>
    <g
       id="g1874"
       transform="matrix(0.35277777,0,0,-0.35277777,457.37531,101.71903)">
      <path
         d="M 0,0 -0.118,0.575 -0.238,0 Z M 0.43,-0.772 H 0.158 l -0.103,0.507 h -0.346 l -0.105,-0.507 h -0.27 L -0.25,1.26 h 0.264 z"
         style="fill:#231f20;fill-opacity:1;fill-rule:nonzero;stroke:none"
         id="path1876"
         inkscape:connector-curvature="0" />
    </g>
    <g
       id="g1878"
       transform="matrix(0.35277777,0,0,-0.35277777,457.84274,101.63299)">
      <path
         d="m 0,0 c 0,0.337 -0.03,0.561 -0.09,0.672 -0.031,0.053 -0.076,0.079 -0.137,0.079 h -0.117 v -1.502 h 0.117 c 0.062,0 0.107,0.025 0.137,0.077 C -0.03,-0.566 0,-0.342 0,0 M 0.265,0 C 0.265,-0.441 0.206,-0.738 0.086,-0.89 0.02,-0.974 -0.08,-1.016 -0.212,-1.016 h -0.397 v 2.032 h 0.397 c 0.131,0 0.23,-0.044 0.295,-0.131 C 0.205,0.732 0.265,0.437 0.265,0"
         style="fill:#231f20;fill-opacity:1;fill-rule:nonzero;stroke:none"
         id="path1880"
         inkscape:connector-curvature="0" />
    </g>
    <g
       id="g1882"
       transform="matrix(0.35277777,0,0,-0.35277777,458.40118,101.27457)">
      <path
         d="M 0,0 -0.416,-1.078 V -2.032 H -0.68 v 0.954 L -1.096,0 h 0.282 L -0.547,-0.685 -0.281,0 Z"
         style="fill:#231f20;fill-opacity:1;fill-rule:nonzero;stroke:none"
         id="path1884"
         inkscape:connector-curvature="0" />
    </g>
    <g
       id="g1886"
       transform="matrix(0.35277777,0,0,-0.35277777,455.72854,100.12734)">
      <path
         d="M 0,0 V 2.031 H 0.773 V 1.766 H 0.265 V 1.218 H 0.569 V 0.954 H 0.265 V 0 Z"
         style="fill:#231f20;fill-opacity:1;fill-rule:nonzero;stroke:none"
         id="path1888"
         inkscape:connector-curvature="0" />
    </g>
    <g
       id="g1890"
       transform="matrix(0.35277777,0,0,-0.35277777,456.37377,100.12734)">
      <path
         d="m 0,0 h -0.772 v 2.031 h 0.266 V 0.264 H 0 Z"
         style="fill:#231f20;fill-opacity:1;fill-rule:nonzero;stroke:none"
         id="path1892"
         inkscape:connector-curvature="0" />
    </g>
    <g
       id="g1894"
       transform="matrix(0.35277777,0,0,-0.35277777,456.65141,99.855309)">
      <path
         d="M 0,0 -0.118,0.575 -0.237,0 Z M 0.431,-0.771 H 0.159 L 0.055,-0.265 H -0.29 l -0.106,-0.506 h -0.27 l 0.417,2.031 h 0.264 z"
         style="fill:#231f20;fill-opacity:1;fill-rule:nonzero;stroke:none"
         id="path1896"
         inkscape:connector-curvature="0" />
    </g>
    <g
       id="g1898"
       transform="matrix(0.35277777,0,0,-0.35277777,457.16928,99.976345)">
      <path
         d="m 0,0 c 0,-0.123 -0.035,-0.225 -0.104,-0.306 -0.079,-0.095 -0.193,-0.143 -0.341,-0.143 -0.185,0 -0.312,0.088 -0.381,0.265 -0.027,0.072 -0.045,0.161 -0.049,0.263 h 0.265 c 0.008,-0.175 0.063,-0.263 0.165,-0.263 0.119,0 0.18,0.061 0.18,0.184 0,0.165 -0.05,0.314 -0.151,0.446 -0.092,0.105 -0.183,0.211 -0.276,0.316 -0.101,0.132 -0.151,0.28 -0.151,0.447 0,0.084 0.031,0.167 0.093,0.249 0.08,0.109 0.19,0.163 0.326,0.165 0.176,0.001 0.3,-0.077 0.371,-0.234 C -0.023,1.325 -0.006,1.246 0,1.156 h -0.265 c -0.01,0.135 -0.063,0.203 -0.159,0.203 -0.042,0 -0.08,-0.015 -0.109,-0.045 -0.03,-0.03 -0.045,-0.065 -0.045,-0.106 0,-0.117 0.05,-0.234 0.151,-0.349 C -0.246,0.648 -0.154,0.54 -0.151,0.536 -0.05,0.384 0,0.205 0,0"
         style="fill:#231f20;fill-opacity:1;fill-rule:nonzero;stroke:none"
         id="path1900"
         inkscape:connector-curvature="0" />
    </g>
    <g
       id="g1902"
       transform="matrix(0.35277777,0,0,-0.35277777,457.59262,100.12734)">
      <path
         d="M 0,0 H -0.266 V 0.954 H -0.61 V 0 H -0.875 V 2.031 H -0.61 V 1.218 h 0.344 V 2.031 H 0 Z"
         style="fill:#231f20;fill-opacity:1;fill-rule:nonzero;stroke:none"
         id="path1904"
         inkscape:connector-curvature="0" />
    </g>
    <path
       d="m 457.84319,100.12733 h -0.0931 v -0.716487 h 0.0931 z"
       style="fill:#231f20;fill-opacity:1;fill-rule:nonzero;stroke:none;stroke-width:0.352777"
       id="path1906"
       inkscape:connector-curvature="0" />
    <g
       id="g1908"
       transform="matrix(0.35277777,0,0,-0.35277777,458.30911,100.12734)">
      <path
         d="M 0,0 H -0.244 L -0.61,1.164 V 0 H -0.874 V 2.031 H -0.61 L -0.265,0.938 V 2.031 H 0 Z"
         style="fill:#231f20;fill-opacity:1;fill-rule:nonzero;stroke:none"
         id="path1910"
         inkscape:connector-curvature="0" />
    </g>
    <g
       id="g1912"
       transform="matrix(0.35277777,0,0,-0.35277777,458.60968,99.49692)">
      <path
         d="m 0,0 c -0.08,0 -0.135,-0.072 -0.167,-0.213 -0.023,-0.115 -0.036,-0.302 -0.036,-0.559 0,-0.211 0.006,-0.362 0.019,-0.455 0.027,-0.211 0.09,-0.316 0.183,-0.316 0.096,0 0.143,0.082 0.143,0.247 v 0.198 H 0 v 0.265 h 0.407 v -0.463 c 0,-0.145 -0.03,-0.262 -0.087,-0.352 -0.071,-0.106 -0.178,-0.16 -0.321,-0.16 -0.187,0 -0.318,0.106 -0.389,0.317 -0.052,0.153 -0.077,0.393 -0.077,0.719 0,0.341 0.029,0.591 0.089,0.75 0.072,0.191 0.198,0.286 0.377,0.286 0.241,0 0.376,-0.131 0.408,-0.391 H 0.142 C 0.111,-0.043 0.062,0 0,0"
         style="fill:#231f20;fill-opacity:1;fill-rule:nonzero;stroke:none"
         id="path1914"
         inkscape:connector-curvature="0" />
    </g>
    <g
       id="g1916"
       transform="matrix(0.35277777,0,0,-0.35277777,460.75068,89.147092)">
      <path
         d="m 0,0 c -0.133,-0.118 -0.324,-0.192 -0.545,-0.192 -0.589,0 -0.9,0.383 -0.929,1.12 h 0.545 c 0,-0.162 0.016,-0.221 0.045,-0.309 0.044,-0.162 0.177,-0.266 0.339,-0.266 0.206,0 0.339,0.162 0.339,0.428 0,0.368 -0.133,0.678 -0.457,1.06 -0.192,0.221 -0.325,0.383 -0.369,0.442 -0.235,0.28 -0.338,0.575 -0.338,0.869 0,0.575 0.353,0.987 0.854,0.987 C 0,4.139 0.28,3.815 0.339,3.152 h -0.545 c -0.016,0.324 -0.104,0.457 -0.295,0.457 -0.206,0 -0.325,-0.177 -0.325,-0.457 0,-0.191 0.075,-0.339 0.295,-0.574 C -0.074,2.062 0,1.959 0.132,1.694 0.251,1.429 0.339,1.075 0.339,0.781 0.339,0.486 0.206,0.176 0,0"
         style="fill:#231f20;fill-opacity:1;fill-rule:nonzero;stroke:none"
         id="path1918"
         inkscape:connector-curvature="0" />
    </g>
    <g
       id="g1920"
       transform="matrix(0.35277777,0,0,-0.35277777,461.35319,87.900058)">
      <path
         d="M 0,0 V -3.653 H -0.53 V 0 H -1.045 V 0.546 H 0.546 V 0 Z"
         style="fill:#231f20;fill-opacity:1;fill-rule:nonzero;stroke:none"
         id="path1922"
         inkscape:connector-curvature="0" />
    </g>
    <g
       id="g1924"
       transform="matrix(0.35277777,0,0,-0.35277777,462.03938,88.211912)">
      <path
         d="m 0,0 -0.236,-1.105 h 0.457 z m 0.574,-2.769 -0.235,1.12 h -0.693 l -0.236,-1.12 h -0.545 l 0.856,4.199 h 0.545 l 0.869,-4.199 z"
         style="fill:#231f20;fill-opacity:1;fill-rule:nonzero;stroke:none"
         id="path1926"
         inkscape:connector-curvature="0" />
    </g>
    <g
       id="g1928"
       transform="matrix(0.35277777,0,0,-0.35277777,462.92274,87.900058)">
      <path
         d="m 0,0 h -0.266 v -1.149 h 0.355 c 0.294,0 0.383,0.133 0.383,0.531 C 0.472,-0.147 0.369,0 0,0 M 0.574,-1.561 1.002,-3.653 H 0.457 l -0.471,1.959 h -0.252 v -1.959 h -0.529 v 4.199 h 0.824 c 0.649,0 0.988,-0.399 0.988,-1.179 0,-0.472 -0.132,-0.736 -0.443,-0.928"
         style="fill:#231f20;fill-opacity:1;fill-rule:nonzero;stroke:none"
         id="path1930"
         inkscape:connector-curvature="0" />
    </g>
    <g
       id="g1932"
       transform="matrix(0.35277777,0,0,-0.35277777,463.76482,87.900058)">
      <path
         d="M 0,0 V -3.653 H -0.531 V 0 H -1.046 V 0.546 H 0.545 V 0 Z"
         style="fill:#231f20;fill-opacity:1;fill-rule:nonzero;stroke:none"
         id="path1934"
         inkscape:connector-curvature="0" />
    </g>
    <g
       id="g1936"
       transform="matrix(0.35277777,0,0,-0.35277777,465.47403,89.038118)">
      <path
         d="m 0,0 c -0.072,-0.309 -0.367,-0.501 -0.736,-0.501 -0.427,0 -0.691,0.177 -0.824,0.56 -0.118,0.354 -0.178,0.928 -0.178,1.606 0,0.383 0.045,0.943 0.104,1.267 0.118,0.648 0.369,0.898 0.869,0.898 0.471,0 0.781,-0.295 0.825,-0.81 H -0.486 C -0.5,3.196 -0.603,3.285 -0.75,3.285 -0.941,3.285 -1.045,3.152 -1.103,2.873 -1.177,2.534 -1.192,2.225 -1.192,1.665 c 0,-0.59 0.015,-0.84 0.089,-1.193 0.058,-0.28 0.162,-0.428 0.338,-0.428 0.191,0 0.279,0.148 0.279,0.516 H 0.06 C 0.06,0.235 0.045,0.148 0,0"
         style="fill:#231f20;fill-opacity:1;fill-rule:nonzero;stroke:none"
         id="path1938"
         inkscape:connector-curvature="0" />
    </g>
    <g
       id="g1940"
       transform="matrix(0.35277777,0,0,-0.35277777,466.05117,87.900058)">
      <path
         d="m 0,0 h -0.265 v -1.149 h 0.354 c 0.294,0 0.383,0.133 0.383,0.531 C 0.472,-0.147 0.368,0 0,0 M 0.574,-1.561 1.001,-3.653 H 0.456 l -0.471,1.959 h -0.25 v -1.959 h -0.531 v 4.199 h 0.825 c 0.648,0 0.988,-0.399 0.988,-1.179 0,-0.472 -0.133,-0.736 -0.443,-0.928"
         style="fill:#231f20;fill-opacity:1;fill-rule:nonzero;stroke:none"
         id="path1942"
         inkscape:connector-curvature="0" />
    </g>
    <g
       id="g1944"
       transform="matrix(0.35277777,0,0,-0.35277777,466.93982,87.879209)">
      <path
         d="m 0,0 c -0.487,0 -0.427,-1.311 -0.427,-1.605 0,-0.28 -0.06,-1.636 0.427,-1.636 0.471,0 0.412,1.356 0.412,1.636 C 0.412,-1.266 0.398,0 0,0 m 0,-3.786 c -1.045,0 -0.972,1.488 -0.972,2.181 0,0.722 -0.06,2.15 0.972,2.15 1.031,0 0.972,-1.443 0.972,-2.15 0,-0.693 0.059,-2.181 -0.972,-2.181"
         style="fill:#231f20;fill-opacity:1;fill-rule:nonzero;stroke:none"
         id="path1946"
         inkscape:connector-curvature="0" />
    </g>
    <g
       id="g1948"
       transform="matrix(0.35277777,0,0,-0.35277777,467.98968,89.147092)">
      <path
         d="m 0,0 c -0.133,-0.118 -0.324,-0.192 -0.546,-0.192 -0.589,0 -0.898,0.383 -0.928,1.12 h 0.545 c 0,-0.162 0.015,-0.221 0.044,-0.309 0.045,-0.162 0.177,-0.266 0.339,-0.266 0.206,0 0.339,0.162 0.339,0.428 0,0.368 -0.133,0.678 -0.457,1.06 -0.191,0.221 -0.324,0.383 -0.367,0.442 -0.236,0.28 -0.34,0.575 -0.34,0.869 0,0.575 0.354,0.987 0.856,0.987 0.515,0 0.794,-0.324 0.853,-0.987 h -0.545 c -0.014,0.324 -0.103,0.457 -0.295,0.457 -0.206,0 -0.324,-0.177 -0.324,-0.457 0,-0.191 0.074,-0.339 0.295,-0.574 C -0.074,2.062 0,1.959 0.131,1.694 0.25,1.429 0.338,1.075 0.338,0.781 0.338,0.486 0.205,0.176 0,0"
         style="fill:#231f20;fill-opacity:1;fill-rule:nonzero;stroke:none"
         id="path1950"
         inkscape:connector-curvature="0" />
    </g>
    <g
       id="g1952"
       transform="matrix(0.35277777,0,0,-0.35277777,468.76897,89.147092)">
      <path
         d="m 0,0 c -0.133,-0.118 -0.324,-0.192 -0.545,-0.192 -0.59,0 -0.898,0.383 -0.927,1.12 h 0.544 c 0,-0.162 0.014,-0.221 0.045,-0.309 0.043,-0.162 0.176,-0.266 0.338,-0.266 0.207,0 0.338,0.162 0.338,0.428 0,0.368 -0.131,0.678 -0.455,1.06 -0.191,0.221 -0.324,0.383 -0.369,0.442 -0.236,0.28 -0.338,0.575 -0.338,0.869 0,0.575 0.354,0.987 0.854,0.987 C 0,4.139 0.279,3.815 0.34,3.152 h -0.547 c -0.014,0.324 -0.101,0.457 -0.293,0.457 -0.207,0 -0.324,-0.177 -0.324,-0.457 0,-0.191 0.072,-0.339 0.293,-0.574 C -0.074,2.062 0,1.959 0.133,1.694 0.25,1.429 0.34,1.075 0.34,0.781 0.34,0.486 0.207,0.176 0,0"
         style="fill:#231f20;fill-opacity:1;fill-rule:nonzero;stroke:none"
         id="path1954"
         inkscape:connector-curvature="0" />
    </g>
    <path
       d="m 469.11691,87.70744 h 0.18768 v 1.481314 h -0.18768 z"
       style="fill:#231f20;fill-opacity:1;fill-rule:nonzero;stroke:none;stroke-width:0.352777"
       id="path1956"
       inkscape:connector-curvature="0" />
    <g
       id="g1958"
       transform="matrix(0.35277777,0,0,-0.35277777,470.10423,89.188753)">
      <path
         d="M 0,0 -0.824,2.49 V 0 h -0.529 v 4.199 h 0.529 L -0.072,2.107 V 4.199 H 0.457 V 0 Z"
         style="fill:#231f20;fill-opacity:1;fill-rule:nonzero;stroke:none"
         id="path1960"
         inkscape:connector-curvature="0" />
    </g>
    <g
       id="g1962"
       transform="matrix(0.35277777,0,0,-0.35277777,471.15445,89.04341)">
      <path
         d="m 0,0 c -0.088,-0.294 -0.369,-0.486 -0.752,-0.486 -0.426,0 -0.678,0.162 -0.811,0.56 -0.132,0.384 -0.175,0.766 -0.175,1.621 0,0.839 0.043,1.208 0.191,1.605 0.133,0.383 0.383,0.545 0.795,0.545 0.473,0 0.752,-0.295 0.81,-0.81 H -0.471 C -0.5,3.211 -0.59,3.3 -0.736,3.3 -0.928,3.3 -1.061,3.167 -1.106,2.888 -1.164,2.549 -1.193,2.269 -1.193,1.695 c 0,-0.575 0.029,-0.855 0.074,-1.208 0.058,-0.28 0.162,-0.428 0.353,-0.428 0.192,0 0.295,0.177 0.295,0.457 v 0.56 H -0.723 V 1.621 H 0.058 V 0.545 C 0.058,0.354 0.029,0.133 0,0"
         style="fill:#231f20;fill-opacity:1;fill-rule:nonzero;stroke:none"
         id="path1964"
         inkscape:connector-curvature="0" />
    </g>
    <g
       id="g1966"
       transform="matrix(0.35277777,0,0,-0.35277777,460.53373,93.179025)">
      <path
         d="M 0,0 H -0.456 L -0.853,2.356 -1.236,0 h -0.457 l -0.486,4.198 h 0.545 l 0.22,-1.944 0.34,1.944 h 0.456 l 0.339,-1.944 0.221,1.944 h 0.545 z"
         style="fill:#231f20;fill-opacity:1;fill-rule:nonzero;stroke:none"
         id="path1968"
         inkscape:connector-curvature="0" />
    </g>
    <g
       id="g1970"
       transform="matrix(0.35277777,0,0,-0.35277777,461.1525,92.685487)">
      <path
         d="m 0,0 c 0,0 -0.029,0.103 -0.236,0.103 -0.133,0 -0.25,-0.117 -0.25,-0.486 0,-0.383 0.059,-0.56 0.279,-0.56 0.162,0 0.207,0.089 0.207,0.28 z m 0.044,-1.399 v 0.088 c -0.073,-0.088 -0.192,-0.133 -0.353,-0.133 -0.413,0 -0.708,0.457 -0.708,1.076 0,0.589 0.354,1.252 1.017,0.986 v 0.221 c 0,0.236 -0.059,0.324 -0.236,0.324 -0.221,0 -0.427,-0.279 -0.516,-0.441 l -0.132,0.663 c 0.207,0.235 0.398,0.354 0.634,0.354 0.648,0 0.781,-0.59 0.781,-1.09 v -2.048 z"
         style="fill:#231f20;fill-opacity:1;fill-rule:nonzero;stroke:none"
         id="path1972"
         inkscape:connector-curvature="0" />
    </g>
    <g
       id="g1974"
       transform="matrix(0.35277777,0,0,-0.35277777,461.8644,93.127166)">
      <path
         d="m 0,0 c -0.104,-0.132 -0.192,-0.192 -0.309,-0.192 -0.324,0 -0.56,0.339 -0.56,0.781 V 2.43 h -0.324 v 0.486 h 0.324 V 3.8 l 0.545,0.324 V 2.916 H 0.045 V 2.446 H -0.324 V 0.589 c 0,-0.147 0.074,-0.251 0.177,-0.251 0.088,0 0.132,0.06 0.205,0.162 z"
         style="fill:#231f20;fill-opacity:1;fill-rule:nonzero;stroke:none"
         id="path1976"
         inkscape:connector-curvature="0" />
    </g>
    <g
       id="g1978"
       transform="matrix(0.35277777,0,0,-0.35277777,462.22812,93.200191)">
      <path
         d="m 0,0 c -0.633,0 -0.781,0.752 -0.781,1.533 0,0.854 0.074,1.665 0.781,1.665 0.412,0 0.619,-0.325 0.707,-0.796 L 0.221,2.166 C 0.206,2.416 0.148,2.622 0,2.622 c -0.308,0 -0.25,-0.869 -0.25,-1.075 0,-0.191 -0.015,-1.046 0.266,-1.046 0.117,0.015 0.176,0.251 0.205,0.487 L 0.707,0.811 C 0.604,0.339 0.412,0 0,0"
         style="fill:#231f20;fill-opacity:1;fill-rule:nonzero;stroke:none"
         id="path1980"
         inkscape:connector-curvature="0" />
    </g>
    <g
       id="g1982"
       transform="matrix(0.35277777,0,0,-0.35277777,462.96084,93.179025)">
      <path
         d="m 0,0 v 2.106 c 0,0.31 -0.03,0.487 -0.221,0.487 -0.192,0 -0.205,-0.251 -0.205,-0.487 V 0 h -0.532 v 3.932 l 0.532,0.339 V 3.019 C -0.147,3.3 0.531,3.167 0.531,2.121 V 0 Z"
         style="fill:#231f20;fill-opacity:1;fill-rule:nonzero;stroke:none"
         id="path1984"
         inkscape:connector-curvature="0" />
    </g>
    <g
       id="g1986"
       transform="matrix(0.35277777,0,0,-0.35277777,464.33808,91.890327)">
      <path
         d="m 0,0 v -1.076 h 0.619 v -0.56 H 0 V -3.653 H -0.53 V 0.545 H 1.076 V 0 Z"
         style="fill:#231f20;fill-opacity:1;fill-rule:nonzero;stroke:none"
         id="path1988"
         inkscape:connector-curvature="0" />
    </g>
    <g
       id="g1990"
       transform="matrix(0.35277777,0,0,-0.35277777,465.11243,92.269879)">
      <path
         d="m 0,0 c -0.324,0 -0.25,-0.824 -0.25,-1.03 0,-0.193 -0.016,-1.062 0.25,-1.062 0.235,0.016 0.221,0.855 0.221,1.062 C 0.221,-0.824 0.279,0 0,0 m 0,-2.637 c -0.634,0 -0.796,0.811 -0.796,1.592 0,0.854 0.073,1.606 0.796,1.606 0.633,0 0.751,-0.722 0.751,-1.591 0,-0.782 -0.162,-1.607 -0.751,-1.607"
         style="fill:#231f20;fill-opacity:1;fill-rule:nonzero;stroke:none"
         id="path1992"
         inkscape:connector-curvature="0" />
    </g>
    <g
       id="g1994"
       transform="matrix(0.35277777,0,0,-0.35277777,465.93863,92.337295)">
      <path
         d="m 0,0 c -0.074,0.103 -0.133,0.176 -0.221,0.176 -0.207,0 -0.295,-0.22 -0.295,-0.603 v -1.959 h -0.53 v 3.063 h 0.53 V 0.531 c 0.088,0.146 0.148,0.221 0.279,0.221 0.133,0 0.237,-0.089 0.295,-0.207 z"
         style="fill:#231f20;fill-opacity:1;fill-rule:nonzero;stroke:none"
         id="path1996"
         inkscape:connector-curvature="0" />
    </g>
    <g
       id="g1998"
       transform="matrix(0.35277777,0,0,-0.35277777,467.19593,93.179025)">
      <path
         d="m 0,0 h -0.456 l -0.751,4.198 h 0.545 l 0.441,-2.387 0.428,2.387 h 0.545 z"
         style="fill:#231f20;fill-opacity:1;fill-rule:nonzero;stroke:none"
         id="path2000"
         inkscape:connector-curvature="0" />
    </g>
    <g
       id="g2002"
       transform="matrix(0.35277777,0,0,-0.35277777,467.84575,92.275208)">
      <path
         d="M 0,0 C -0.177,0 -0.25,-0.191 -0.25,-0.795 H 0.266 C 0.266,-0.176 0.177,0 0,0 m -0.25,-1.339 c 0.014,-0.59 0.088,-0.738 0.279,-0.738 0.118,0 0.207,0.089 0.295,0.399 l 0.338,-0.487 c -0.101,-0.28 -0.309,-0.457 -0.559,-0.457 -0.677,0 -0.869,0.619 -0.869,1.576 0,0.973 0.176,1.622 0.781,1.622 0.766,0 0.751,-1.341 0.737,-1.915 z"
         style="fill:#231f20;fill-opacity:1;fill-rule:nonzero;stroke:none"
         id="path2004"
         inkscape:connector-curvature="0" />
    </g>
    <g
       id="g2006"
       transform="matrix(0.35277777,0,0,-0.35277777,468.60987,93.179025)">
      <path
         d="m 0,0 v 2.106 c 0,0.31 -0.029,0.487 -0.221,0.487 -0.193,0 -0.207,-0.251 -0.207,-0.487 V 0 h -0.531 v 3.932 l 0.531,0.339 V 3.019 C -0.148,3.3 0.529,3.167 0.529,2.121 V 0 Z"
         style="fill:#231f20;fill-opacity:1;fill-rule:nonzero;stroke:none"
         id="path2008"
         inkscape:connector-curvature="0" />
    </g>
    <path
       d="m 469.0199,92.098465 h 0.18733 v 1.080559 h -0.18733 z m 0.0938,-0.239183 c -0.0519,0 -0.0938,-0.04163 -0.0938,-0.09878 0,-0.05221 0.042,-0.09349 0.0991,-0.09349 0.0519,0 0.0938,0.04127 0.0938,0.09843 0,0.05221 -0.042,0.09384 -0.0991,0.09384"
       style="fill:#231f20;fill-opacity:1;fill-rule:nonzero;stroke:none;stroke-width:0.352777"
       id="path2010"
       inkscape:connector-curvature="0" />
    <g
       id="g2012"
       transform="matrix(0.35277777,0,0,-0.35277777,469.67526,93.200191)">
      <path
         d="m 0,0 c -0.635,0 -0.782,0.752 -0.782,1.533 0,0.854 0.074,1.665 0.782,1.665 0.412,0 0.619,-0.325 0.707,-0.796 L 0.22,2.166 C 0.205,2.416 0.146,2.622 0,2.622 -0.311,2.622 -0.25,1.753 -0.25,1.547 -0.25,1.356 -0.266,0.501 0.013,0.501 0.132,0.516 0.191,0.752 0.22,0.988 L 0.707,0.811 C 0.603,0.339 0.412,0 0,0"
         style="fill:#231f20;fill-opacity:1;fill-rule:nonzero;stroke:none"
         id="path2014"
         inkscape:connector-curvature="0" />
    </g>
    <g
       id="g2016"
       transform="matrix(0.35277777,0,0,-0.35277777,470.07001,93.179025)">
      <path
         d="M 0,0 V 3.947 L 0.529,4.271 V 0 Z"
         style="fill:#231f20;fill-opacity:1;fill-rule:nonzero;stroke:none"
         id="path2018"
         inkscape:connector-curvature="0" />
    </g>
    <g
       id="g2020"
       transform="matrix(0.35277777,0,0,-0.35277777,470.71951,92.275208)">
      <path
         d="M 0,0 C -0.177,0 -0.25,-0.191 -0.25,-0.795 H 0.266 C 0.266,-0.176 0.176,0 0,0 m -0.25,-1.339 c 0.014,-0.59 0.088,-0.738 0.28,-0.738 0.117,0 0.207,0.089 0.295,0.399 l 0.338,-0.487 c -0.104,-0.28 -0.309,-0.457 -0.559,-0.457 -0.678,0 -0.869,0.619 -0.869,1.576 0,0.973 0.176,1.622 0.779,1.622 0.768,0 0.752,-1.341 0.736,-1.915 z"
         style="fill:#231f20;fill-opacity:1;fill-rule:nonzero;stroke:none"
         id="path2022"
         inkscape:connector-curvature="0" />
    </g>
    <g
       id="g2024"
       transform="matrix(0.35277777,0,0,-0.35277777,471.49418,93.09612)">
      <path
         d="m 0,0 c -0.149,-0.191 -0.369,-0.295 -0.59,-0.295 -0.236,0 -0.428,0.06 -0.604,0.325 l 0.147,0.619 c 0.146,-0.325 0.279,-0.443 0.428,-0.443 0.191,0 0.265,0.133 0.265,0.383 0,0.118 -0.09,0.428 -0.369,0.649 -0.308,0.25 -0.471,0.457 -0.471,0.898 0,0.191 0.043,0.368 0.147,0.516 0.117,0.162 0.236,0.251 0.502,0.251 0.205,0 0.396,-0.119 0.603,-0.369 l -0.162,-0.56 c -0.191,0.339 -0.281,0.442 -0.412,0.442 -0.103,0 -0.162,-0.133 -0.162,-0.265 0,-0.074 0.029,-0.177 0.088,-0.28 C -0.561,1.826 -0.516,1.768 -0.223,1.473 0.029,1.208 0.16,0.913 0.16,0.574 0.16,0.368 0.101,0.148 0,0"
         style="fill:#231f20;fill-opacity:1;fill-rule:nonzero;stroke:none"
         id="path2026"
         inkscape:connector-curvature="0" />
    </g>
    <path
       d="m 460.21774,91.150552 h 10.95269 v 0.2032 h -10.95269 z"
       style="fill:#231f20;fill-opacity:1;fill-rule:evenodd;stroke:none;stroke-width:0.352777"
       id="path2028"
       inkscape:connector-curvature="0" />
    <g
       id="g2030"
       transform="matrix(0.35277777,0,0,-0.35277777,463.29562,89.899567)">
      <path
         d="M 0,0 V -2.508 H -0.364 V 0 H -0.717 V 0.374 H 0.375 V 0 Z"
         style="fill:#231f20;fill-opacity:1;fill-rule:nonzero;stroke:none"
         id="path2032"
         inkscape:connector-curvature="0" />
    </g>
    <g
       id="g2034"
       transform="matrix(0.35277777,0,0,-0.35277777,463.77716,89.885491)">
      <path
         d="m 0,0 c -0.334,0 -0.293,-0.9 -0.293,-1.102 0,-0.192 -0.041,-1.122 0.293,-1.122 0.324,0 0.283,0.93 0.283,1.122 C 0.283,-0.869 0.273,0 0,0 m 0,-2.599 c -0.717,0 -0.667,1.022 -0.667,1.497 0,0.495 -0.04,1.476 0.667,1.476 0.708,0 0.668,-0.99 0.668,-1.476 0,-0.475 0.04,-1.497 -0.668,-1.497"
         style="fill:#231f20;fill-opacity:1;fill-rule:nonzero;stroke:none"
         id="path2036"
         inkscape:connector-curvature="0" />
    </g>
    <g
       id="g2038"
       transform="matrix(0.35277777,0,0,-0.35277777,465.0828,90.784368)">
      <path
         d="M 0,0 V 1.709 L -0.344,0.627 -0.698,1.709 V 0 h -0.365 v 2.882 h 0.365 L -0.344,1.86 0,2.882 H 0.363 V 0 Z"
         style="fill:#231f20;fill-opacity:1;fill-rule:nonzero;stroke:none"
         id="path2040"
         inkscape:connector-curvature="0" />
    </g>
    <g
       id="g2042"
       transform="matrix(0.35277777,0,0,-0.35277777,465.43205,90.784368)">
      <path
         d="M 0,0 V 2.882 H 1.062 V 2.508 H 0.363 V 1.769 H 0.829 V 1.386 H 0.363 V 0.374 H 1.102 V 0 Z"
         style="fill:#231f20;fill-opacity:1;fill-rule:nonzero;stroke:none"
         id="path2044"
         inkscape:connector-curvature="0" />
    </g>
    <g
       id="g2046"
       transform="matrix(0.35277777,0,0,-0.35277777,466.27765,90.046003)">
      <path
         d="m 0,0 c -0.032,0.313 -0.092,0.415 -0.243,0.415 h -0.233 v -2.134 h 0.233 c 0.131,0 0.202,0.091 0.243,0.304 0.009,0.1 0.029,0.424 0.029,0.677 C 0.029,-0.526 0.009,-0.202 0,0 M 0.14,-1.951 C 0.06,-2.042 -0.082,-2.093 -0.243,-2.093 H -0.84 v 2.882 h 0.597 c 0.202,0 0.343,-0.072 0.434,-0.212 0.07,-0.111 0.131,-0.304 0.152,-0.485 0.04,-0.234 0.061,-0.497 0.061,-0.739 0,-0.677 -0.092,-1.112 -0.264,-1.304"
         style="fill:#231f20;fill-opacity:1;fill-rule:nonzero;stroke:none"
         id="path2048"
         inkscape:connector-curvature="0" />
    </g>
    <path
       d="m 466.60902,89.767663 h 0.12841 v 1.016705 h -0.12841 z"
       style="fill:#231f20;fill-opacity:1;fill-rule:nonzero;stroke:none;stroke-width:0.352777"
       id="path2050"
       inkscape:connector-curvature="0" />
    <g
       id="g2052"
       transform="matrix(0.35277777,0,0,-0.35277777,467.15819,90.113702)">
      <path
         d="m 0,0 -0.161,-0.758 h 0.313 z m 0.394,-1.901 -0.162,0.769 h -0.474 l -0.163,-0.769 h -0.373 l 0.586,2.882 h 0.374 l 0.597,-2.882 z"
         style="fill:#231f20;fill-opacity:1;fill-rule:nonzero;stroke:none"
         id="path2054"
         inkscape:connector-curvature="0" />
    </g>
    <g
       id="g2056"
       transform="matrix(0.35277777,0,0,-0.35277777,467.90008,90.784368)">
      <path
         d="M 0,0 -0.566,1.709 V 0 h -0.363 v 2.882 h 0.363 L -0.051,1.446 V 2.882 H 0.315 V 0 Z"
         style="fill:#231f20;fill-opacity:1;fill-rule:nonzero;stroke:none"
         id="path2058"
         inkscape:connector-curvature="0" />
    </g>
  </g>
</svg>
