<?xml version="1.0" encoding="UTF-8" standalone="no"?>
<svg
   xmlns:dc="http://purl.org/dc/elements/1.1/"
   xmlns:cc="http://creativecommons.org/ns#"
   xmlns:rdf="http://www.w3.org/1999/02/22-rdf-syntax-ns#"
   xmlns:svg="http://www.w3.org/2000/svg"
   xmlns="http://www.w3.org/2000/svg"
   xmlns:sodipodi="http://sodipodi.sourceforge.net/DTD/sodipodi-0.dtd"
   xmlns:inkscape="http://www.inkscape.org/namespaces/inkscape"
   sodipodi:docname="R7-4R.svg"
   inkscape:version="1.0rc1 (09960d6f05, 2020-04-09)"
   id="svg4643"
   version="1.1"
   viewBox="0 0 24.306318 36.371037"
   height="36.371037mm"
   width="24.306318mm">
  <defs
     id="defs4637">
    <clipPath
       clipPathUnits="userSpaceOnUse"
       id="clipPath530">
      <path
         d="M 27,33.9 H 539.875 V 635.4 H 27 Z"
         id="path528"
         inkscape:connector-curvature="0" />
    </clipPath>
    <clipPath
       clipPathUnits="userSpaceOnUse"
       id="clipPath542">
      <path
         d="M 49.396,43.029 H 517.479 V 635.4 H 49.396 Z"
         id="path540"
         inkscape:connector-curvature="0" />
    </clipPath>
    <clipPath
       clipPathUnits="userSpaceOnUse"
       id="clipPath554">
      <path
         d="M 27,33.9 H 539.875 V 635.4 H 27 Z"
         id="path552"
         inkscape:connector-curvature="0" />
    </clipPath>
  </defs>
  <sodipodi:namedview
     inkscape:window-maximized="1"
     inkscape:window-y="0"
     inkscape:window-x="0"
     inkscape:window-height="836"
     inkscape:window-width="1600"
     showgrid="false"
     inkscape:document-rotation="0"
     inkscape:current-layer="g550"
     inkscape:document-units="mm"
     inkscape:cy="68.732667"
     inkscape:cx="45.9332"
     inkscape:zoom="2.8"
     inkscape:pageshadow="2"
     inkscape:pageopacity="0.0"
     borderopacity="1.0"
     bordercolor="#666666"
     pagecolor="#ffffff"
     id="base" />
  <metadata
     id="metadata4640">
    <rdf:RDF>
      <cc:Work
         rdf:about="">
        <dc:format>image/svg+xml</dc:format>
        <dc:type
           rdf:resource="http://purl.org/dc/dcmitype/StillImage" />
        <dc:title></dc:title>
      </cc:Work>
    </rdf:RDF>
  </metadata>
  <g
     transform="translate(-281.91232,-23.391868)"
     id="layer1"
     inkscape:groupmode="layer"
     inkscape:label="Layer 1">
    <g
       transform="matrix(0.35277777,0,0,-0.35277777,123.66355,239.73788)"
       id="g524">
      <g
         id="g526"
         clip-path="url(#clipPath530)">
        <g
           id="g532"
           transform="translate(457.3792,613.0143)">
          <path
             d="m 0,0 h 51.301 c 4.709,0 8.549,-3.841 8.549,-8.55 v -85.5 c 0,-4.709 -3.84,-8.549 -8.549,-8.549 H 0 c -4.709,0 -8.55,3.84 -8.55,8.549 v 85.5 C -8.55,-3.9 -4.65,0 0,0"
             style="fill:#ffffff;fill-opacity:1;fill-rule:nonzero;stroke:none"
             id="path534"
             inkscape:connector-curvature="0" />
        </g>
      </g>
    </g>
    <g
       transform="matrix(0.35277777,0,0,-0.35277777,123.66355,239.73788)"
       id="g536">
      <g
         id="g538"
         clip-path="url(#clipPath542)">
        <g
           id="g544"
           transform="translate(457.3792,613.0143)">
          <path
             d="m 0,0 h 51.301 c 4.709,0 8.549,-3.841 8.549,-8.55 v -85.5 c 0,-4.709 -3.84,-8.549 -8.549,-8.549 H 0 c -4.709,0 -8.55,3.84 -8.55,8.549 v 85.5 C -8.55,-3.9 -4.65,0 0,0"
             style="fill:none;stroke:#231f20;stroke-width:0.5;stroke-linecap:butt;stroke-linejoin:miter;stroke-miterlimit:4;stroke-dasharray:none;stroke-opacity:1"
             id="path546"
             inkscape:connector-curvature="0" />
        </g>
      </g>
    </g>
    <g
       transform="matrix(0.35277777,0,0,-0.35277777,123.66355,239.73788)"
       id="g548">
      <g
         id="g550"
         clip-path="url(#clipPath554)">
        <g
           id="g556"
           transform="translate(457.4062,610.8771)">
          <path
             d="m 0,0 h 51.245 c 3.533,-0.014 6.418,-2.914 6.441,-6.44 v -85.445 c -0.023,-3.528 -2.908,-6.422 -6.441,-6.44 H 0 c -3.523,0.018 -6.427,2.912 -6.439,6.44 V -6.44 C -6.427,-2.914 -3.523,-0.014 0,0"
             style="fill:#bf2519;fill-opacity:1;fill-rule:evenodd;stroke:none"
             id="path558"
             inkscape:connector-curvature="0" />
        </g>
        <g
           id="g560"
           transform="translate(457.4382,608.3804)">
          <path
             d="m 0,0 h 51.181 c 2.201,-0.013 3.963,-1.774 3.977,-3.975 v -85.382 c -0.014,-2.19 -1.776,-3.976 -3.977,-3.974 H 0 c -2.2,-0.002 -3.963,1.784 -3.975,3.974 V -3.975 C -3.963,-1.774 -2.2,-0.013 0,0"
             style="fill:#ffffff;fill-opacity:1;fill-rule:evenodd;stroke:none"
             id="path562"
             inkscape:connector-curvature="0" />
        </g>
        <g
           id="g564"
           transform="translate(489.4712,601.8936)">
          <path
             d="m 0,0 c -1.922,0 -3.1,-0.846 -3.973,-2.844 -0.691,-1.615 -0.974,-3.358 -0.974,-5.973 0,-2.614 0.257,-4.255 0.949,-5.92 0.845,-2.051 2.025,-2.927 3.998,-2.927 1.923,0 3.127,0.876 3.972,2.901 0.693,1.666 0.95,3.306 0.95,5.946 0,2.615 -0.257,4.23 -0.95,5.896 C 3.101,-0.846 1.949,0 0,0"
             style="fill:#bf2519;fill-opacity:1;fill-rule:evenodd;stroke:none"
             id="path566"
             inkscape:connector-curvature="0" />
        </g>
        <g
           id="g568"
           transform="translate(473.9652,595.9731)">
          <path
             d="m 0,0 5.126,-11.461 h 1.82 V 5.638 H 4.536 V -4.588 L 0,5.638 H -2.409 V -11.461 H 0 Z"
             style="fill:#bf2519;fill-opacity:1;fill-rule:evenodd;stroke:none"
             id="path570"
             inkscape:connector-curvature="0" />
        </g>
        <g
           id="g572"
           transform="translate(489.4712,599.5104)">
          <path
             d="m 0,0 c 1,0 1.64,-0.641 2.076,-2.128 0.385,-1.255 0.513,-2.383 0.513,-4.306 0,-1.947 -0.128,-2.998 -0.513,-4.357 C 1.667,-12.226 1,-12.892 0,-12.892 c -1.05,0 -1.692,0.666 -2.102,2.127 -0.385,1.333 -0.512,2.435 -0.512,4.306 0,1.922 0.127,3.05 0.512,4.383 C -1.692,-0.641 -1.025,0 0,0"
             style="fill:#ffffff;fill-opacity:1;fill-rule:evenodd;stroke:none"
             id="path574"
             inkscape:connector-curvature="0" />
        </g>
        <g
           id="g580"
           transform="translate(458.6232,567.1763)">
          <path
             d="m 0,0 c -1.997,0 -3.197,1.679 -3.197,3.558 h 1.599 c 0,-0.959 0.479,-1.959 1.598,-1.959 0.879,0 1.6,0.8 1.6,1.719 0,0.64 -0.241,1.12 -0.92,1.64 -0.24,0.239 0.4,-0.201 -1.917,1.358 -0.921,0.64 -1.4,1.52 -1.4,2.519 0,1.639 1.28,2.958 2.917,2.958 1.599,0 2.837,-1.239 2.877,-2.958 H 1.6 c -0.041,0.8 -0.6,1.319 -1.32,1.319 -0.758,0 -1.358,-0.559 -1.358,-1.319 0,-0.56 0.24,-0.879 1.078,-1.359 C 2.199,6.196 3.157,4.958 3.157,3.318 3.157,1.48 1.76,0 0,0"
             style="fill:#bf2519;fill-opacity:1;fill-rule:nonzero;stroke:none"
             id="path582"
             inkscape:connector-curvature="0" />
        </g>
        <g
           id="g584"
           transform="translate(465.9772,577.2505)">
          <path
             d="M 0,0 V -9.874 H -1.639 V 0 H -3.717 V 1.519 H 2.078 V 0 Z"
             style="fill:#bf2519;fill-opacity:1;fill-rule:nonzero;stroke:none"
             id="path586"
             inkscape:connector-curvature="0" />
        </g>
        <g
           id="g588"
           transform="translate(471.7702,575.3716)">
          <path
             d="M 0,0 -0.799,-3.278 H 0.839 Z M 2.038,-7.995 1.239,-4.877 H -1.2 L -1.958,-7.995 H -3.596 L -0.76,3.398 H 0.839 L 3.675,-7.995 Z"
             style="fill:#bf2519;fill-opacity:1;fill-rule:nonzero;stroke:none"
             id="path590"
             inkscape:connector-curvature="0" />
        </g>
        <g
           id="g592"
           transform="translate(481.6002,567.3766)">
          <path
             d="M 0,0 -3.516,7.636 V 0 h -1.639 v 11.393 h 1.639 l 3.115,-6.836 v 6.836 H 1.238 V 0 Z"
             style="fill:#bf2519;fill-opacity:1;fill-rule:nonzero;stroke:none"
             id="path594"
             inkscape:connector-curvature="0" />
        </g>
        <g
           id="g596"
           transform="translate(489.2302,576.0112)">
          <path
             d="m 0,0 c -0.279,0.8 -0.757,1.16 -1.477,1.16 h -1.358 v -8.196 h 1.358 c 0.958,0 1.477,0.76 1.638,1.64 0.08,0.719 0.16,1.519 0.16,2.398 C 0.321,-1.719 0.202,-0.479 0,0 m 0.282,-8.115 c -0.401,-0.36 -0.96,-0.52 -1.6,-0.52 H -4.474 V 2.759 h 2.916 c 0.96,0 1.439,-0.12 1.84,-0.44 C 0.96,1.839 1.44,0.96 1.639,-0.2 c 0.16,-0.839 0.28,-1.838 0.28,-2.718 0,-2.639 -0.519,-4.318 -1.637,-5.197"
             style="fill:#bf2519;fill-opacity:1;fill-rule:nonzero;stroke:none"
             id="path598"
             inkscape:connector-curvature="0" />
        </g>
        <path
           d="m 492.826,578.77 h 1.6 v -11.393 h -1.6 z"
           style="fill:#bf2519;fill-opacity:1;fill-rule:nonzero;stroke:none"
           id="path600"
           inkscape:connector-curvature="0" />
        <g
           id="g602"
           transform="translate(501.5382,567.3766)">
          <path
             d="M 0,0 -3.517,7.636 V 0 h -1.637 v 11.393 h 1.637 l 3.118,-6.836 v 6.836 H 1.239 V 0 Z"
             style="fill:#bf2519;fill-opacity:1;fill-rule:nonzero;stroke:none"
             id="path604"
             inkscape:connector-curvature="0" />
        </g>
        <g
           id="g606"
           transform="translate(510.4842,568.7755)">
          <path
             d="m 0,0 c -0.439,-0.999 -1.359,-1.599 -2.517,-1.599 -1.359,0 -2.358,0.68 -2.917,1.959 -0.361,0.84 -0.599,2.438 -0.599,3.918 0,1.598 0.119,2.758 0.52,3.837 0.398,1.2 1.558,2.079 2.876,2.079 1.638,0 2.877,-1.199 2.957,-2.878 h -1.639 c -0.04,0.759 -0.56,1.279 -1.358,1.279 -0.559,0 -0.999,-0.28 -1.278,-0.839 -0.32,-0.56 -0.519,-1.839 -0.519,-3.198 0,-0.96 0.079,-1.959 0.238,-2.839 C -3.996,0.6 -3.435,0 -2.557,0 c 0.839,0 1.238,0.56 1.238,1.759 v 0.759 h -1.278 v 1.6 H 0.32 V 1.759 C 0.32,0.96 0.24,0.48 0,0"
             style="fill:#bf2519;fill-opacity:1;fill-rule:nonzero;stroke:none"
             id="path608"
             inkscape:connector-curvature="0" />
        </g>
        <g
           id="g610"
           transform="translate(473.9712,558.3013)">
          <path
             d="M 0,0 -0.799,-3.278 H 0.84 Z m 2.038,-7.995 -0.8,3.118 H -1.2 L -1.959,-7.995 H -3.597 L -0.759,3.398 H 0.84 L 3.676,-7.995 Z"
             style="fill:#bf2519;fill-opacity:1;fill-rule:nonzero;stroke:none"
             id="path612"
             inkscape:connector-curvature="0" />
        </g>
        <g
           id="g614"
           transform="translate(485.0002,550.3062)">
          <path
             d="M 0,0 -3.518,7.635 V 0 h -1.638 v 11.394 h 1.638 L -0.4,4.557 v 6.837 H 1.238 V 0 Z"
             style="fill:#bf2519;fill-opacity:1;fill-rule:nonzero;stroke:none"
             id="path616"
             inkscape:connector-curvature="0" />
        </g>
        <g
           id="g618"
           transform="translate(492.9102,555.4634)">
          <path
             d="M 0,0 V -5.157 H -1.637 V 0 l -2.798,6.236 h 1.718 l 1.918,-4.117 1.878,4.117 h 1.759 z"
             style="fill:#bf2519;fill-opacity:1;fill-rule:nonzero;stroke:none"
             id="path620"
             inkscape:connector-curvature="0" />
        </g>
        <g
           id="g622"
           transform="translate(473.1642,543.0884)">
          <path
             d="M 0,0 V -9.874 H -1.639 V 0 H -3.717 V 1.519 H 2.078 V 0 Z"
             style="fill:#bf2519;fill-opacity:1;fill-rule:nonzero;stroke:none"
             id="path624"
             inkscape:connector-curvature="0" />
        </g>
        <path
           d="m 476.801,544.608 h 1.597 v -11.394 h -1.597 z"
           style="fill:#bf2519;fill-opacity:1;fill-rule:nonzero;stroke:none"
           id="path626"
           inkscape:connector-curvature="0" />
        <g
           id="g628"
           transform="translate(486.7902,533.214)">
          <path
             d="M 0,0 V 6.397 L -2.118,0 -4.235,6.397 V 0 h -1.639 v 11.394 h 1.639 L -2.118,4.997 0,11.394 H 1.639 V 0 Z"
             style="fill:#bf2519;fill-opacity:1;fill-rule:nonzero;stroke:none"
             id="path630"
             inkscape:connector-curvature="0" />
        </g>
        <g
           id="g632"
           transform="translate(490.9062,533.214)">
          <path
             d="m 0,0 v 11.394 h 5.354 v -1.6 H 1.638 V 6.916 H 3.996 V 5.357 H 1.638 V 1.6 H 5.794 V 0 Z"
             style="fill:#bf2519;fill-opacity:1;fill-rule:nonzero;stroke:none"
             id="path634"
             inkscape:connector-curvature="0" />
        </g>
        <g
           transform="matrix(-1,0,0,1,460.8812,522.562)"
           id="g326">
          <path
             inkscape:connector-curvature="0"
             id="path328"
             style="fill:#bf2519;fill-opacity:1;fill-rule:evenodd;stroke:none"
             d="m 0,0 h -35.708 l 0.713,-2.69 c 0.017,-0.018 0.034,-0.029 0.039,-0.052 0.017,-0.034 0.029,-0.069 0.041,-0.108 -0.018,-0.154 -0.052,-0.297 -0.149,-0.422 -0.17,-0.234 -0.404,-0.303 -0.684,-0.29 -0.091,0.005 -0.199,0.027 -0.273,0.08 l -8.157,5.62 8.157,5.546 c 0.113,0.079 0.193,0.118 0.336,0.148 0.239,0.05 0.501,-0.137 0.638,-0.331 0.08,-0.114 0.12,-0.234 0.132,-0.376 -0.012,-0.046 -0.012,-0.097 -0.035,-0.142 -0.011,-0.035 -0.028,-0.064 -0.045,-0.092 L -35.708,4.275 H 0 Z" />
        </g>
      </g>
    </g>
  </g>
</svg>
