<svg width="87.067" height="104.347" viewBox="0 0 23.036 27.608" xmlns="http://www.w3.org/2000/svg">
    <defs>
        <clipPath clipPathUnits="userSpaceOnUse" id="a">
            <path d="M30.17 41.388h506.66v700.52H30.17Z" transform="translate(-335.126 -597.888)"/>
        </clipPath>
    </defs>
    <path d="M0 0a4.18 4.18 0 0 0-4.175 4.175v69.66A4.18 4.18 0 0 0 0 78.01h56.7a4.18 4.18 0 0 0 4.175-4.175V4.175A4.18 4.18 0 0 0 56.7 0Z" style="fill:#fff;fill-opacity:1;fill-rule:nonzero;stroke:none" transform="matrix(.35278 0 0 -.35278 1.517 27.564)" clip-path="url(#a)"/>
    <path d="M0 0h-56.7A4.305 4.305 0 0 1-61-4.3v-69.66c0-2.371 1.929-4.3 4.3-4.3H0c2.371 0 4.3 1.929 4.3 4.3V-4.3C4.3-1.929 2.371 0 0 0m0-.25A4.05 4.05 0 0 0 4.05-4.3v-69.66A4.05 4.05 0 0 0 0-78.01h-56.7a4.05 4.05 0 0 0-4.05 4.05V-4.3A4.05 4.05 0 0 0-56.7-.25z" style="fill:#231f20;fill-opacity:1;fill-rule:nonzero;stroke:none" transform="matrix(.35278 0 0 -.35278 21.52 0)"/>
    <path d="M0 0h-56.7c-.744 0-1.35.606-1.35 1.35v34.02h59.4V1.35C1.35.606.744 0 0 0m-56.7 72.36H0c.744 0 1.35-.606 1.35-1.35V36.99h-59.4v34.02c0 .744.606 1.35 1.35 1.35M0 73.98h-56.7a2.973 2.973 0 0 1-2.97-2.97V1.35a2.973 2.973 0 0 1 2.97-2.97H0a2.973 2.973 0 0 1 2.97 2.97v69.66A2.973 2.973 0 0 1 0 73.98" style="fill:#231f20;fill-opacity:1;fill-rule:nonzero;stroke:none" transform="matrix(.35278 0 0 -.35278 21.52 26.568)"/>
    <path d="m0 0-1.712 6.935L-3.384 0h-1.522l-1.595 10.8h1.748l.837-5.685 1.367 5.685h1.674L.531 5.115l.836 5.685h1.749L1.519 0Z" style="fill:#231f20;fill-opacity:1;fill-rule:nonzero;stroke:none" transform="matrix(.35278 0 0 -.35278 4.332 6.47)"/>
    <path d="M0 0h2.172L1.104 3.031Zm2.781-1.743H-.61l-1.068-3.032h-1.829l3.735 10.8h1.716l3.734-10.8H3.849Z" style="fill:#231f20;fill-opacity:1;fill-rule:nonzero;stroke:none" transform="matrix(.35278 0 0 -.35278 6.851 4.785)"/>
    <path d="M357.221 668.483h1.728v-10.8h-1.728z" style="fill:#231f20;fill-opacity:1;fill-rule:nonzero;stroke:none" transform="matrix(.35278 0 0 -.35278 -116.708 238.486)"/>
    <path d="M0 0h-1.713v9.284h-2.473V10.8h6.698V9.284H0Z" style="fill:#231f20;fill-opacity:1;fill-rule:nonzero;stroke:none" transform="matrix(.35278 0 0 -.35278 11.855 6.47)"/>
    <path d="M0 0v-7.313h-1.704v10.8H0L3.942-3.41v6.897h1.706v-10.8H4.132Z" style="fill:#231f20;fill-opacity:1;fill-rule:nonzero;stroke:none" transform="matrix(.35278 0 0 -.35278 19.006 3.89)"/>
    <path d="M0 0c1.164 0 2.109 1.103 2.109 3.848 0 2.744-.945 3.847-2.109 3.847-1.164 0-2.109-1.102-2.109-3.847S-1.164 0 0 0m3.817 3.848c0-.388.083-5.59-3.836-5.59s-3.836 5.202-3.836 5.59c0 .387-.083 5.587 3.836 5.587s3.836-5.2 3.836-5.587" style="fill:#231f20;fill-opacity:1;fill-rule:nonzero;stroke:none" transform="matrix(.35278 0 0 -.35278 16.387 5.922)"/>
    <path d="m0 0 1.629.606C2.084-.417 2.917-.986 3.94-.986c.986 0 1.669.682 1.669 1.592 0 1.445-1.667 1.667-3.07 2.236-.644.266-2.084.91-2.084 2.69 0 2.124 1.439 2.916 3.372 2.916 1.516 0 2.539-.872 3.07-2.197l-1.516-.455c-.17.426-.787.947-1.592.947-1.54 0-1.671-.822-1.671-1.092 0-1.01.871-1.209 2.287-1.654C5.847 3.544 7.352 2.881 7.352.566c0-2.332-1.89-3.294-3.412-3.294C2.083-2.728.72-1.629 0 0" style="fill:#231f20;fill-opacity:1;fill-rule:nonzero;stroke:none" transform="matrix(.35278 0 0 -.35278 5.57 11.288)"/>
    <path d="M0 0h-1.713v9.284h-2.473V10.8h6.698V9.284H0Z" style="fill:#231f20;fill-opacity:1;fill-rule:nonzero;stroke:none" transform="matrix(.35278 0 0 -.35278 9.946 12.184)"/>
    <path d="M0 0h2.404c1.356 0 1.5.977 1.5 1.326 0 .506-.381 1.327-1.442 1.327H0Zm2.011-1.743H0v-4.699h-1.704v10.8h4.083c2.54 0 3.269-2.066 3.269-3.032 0-.671-.368-3.069-3.637-3.069" style="fill:#231f20;fill-opacity:1;fill-rule:nonzero;stroke:none" transform="matrix(.35278 0 0 -.35278 15.473 9.912)"/>
    <path d="M0 0c1.164 0 2.109 1.103 2.109 3.848 0 2.744-.945 3.847-2.109 3.847-1.164 0-2.109-1.102-2.109-3.847S-1.164 0 0 0m3.817 3.848c0-.388.083-5.59-3.836-5.59s-3.836 5.202-3.836 5.59c0 .387-.083 5.587 3.836 5.587s3.836-5.2 3.836-5.587" style="fill:#231f20;fill-opacity:1;fill-rule:nonzero;stroke:none" transform="matrix(.35278 0 0 -.35278 12.687 11.637)"/>
    <path d="M0 0c1.731 0 2.705-.656 3.437-2.387l-1.629-.642C1.353-2.082.899-1.742.065-1.742c-2.373 0-2.237-3.612-2.237-3.865 0-.406-.092-3.827 2.009-3.827 1.098 0 1.895.682 1.895 1.668v.453H-.239v1.706h3.675v-2.159c0-1.97-1.439-3.411-3.412-3.411-.391 0-3.939-.322-3.939 5.589C-3.915-4.76-3.869 0 0 0" style="fill:#231f20;fill-opacity:1;fill-rule:nonzero;stroke:none" transform="matrix(.35278 0 0 -.35278 5.275 15.357)"/>
    <path d="M0 0c1.164 0 2.109 1.103 2.109 3.847 0 2.745-.945 3.848-2.109 3.848-1.164 0-2.109-1.102-2.109-3.848C-2.109 1.103-1.164 0 0 0m3.817 3.847c0-.387.083-5.589-3.836-5.589S-3.855 3.46-3.855 3.847c0 .388-.083 5.588 3.836 5.588s3.836-5.2 3.836-5.588" style="fill:#231f20;fill-opacity:1;fill-rule:nonzero;stroke:none" transform="matrix(.35278 0 0 -.35278 8.61 18.685)"/>
    <path d="M0 0v-7.313h-1.704v10.8H0L3.942-3.41v6.897h1.706v-10.8H4.132Z" style="fill:#231f20;fill-opacity:1;fill-rule:nonzero;stroke:none" transform="matrix(.35278 0 0 -.35278 17.15 16.653)"/>
    <path d="M0 0c1.164 0 2.108 1.103 2.108 3.847 0 2.745-.944 3.848-2.108 3.848-1.164 0-2.109-1.102-2.109-3.848C-2.109 1.103-1.164 0 0 0m3.817 3.847c0-.387.083-5.589-3.836-5.589S-3.855 3.46-3.855 3.847c0 .388-.083 5.588 3.836 5.588s3.836-5.2 3.836-5.588" style="fill:#231f20;fill-opacity:1;fill-rule:nonzero;stroke:none" transform="matrix(.35278 0 0 -.35278 14.364 18.685)"/>
    <path d="m0 0 1.629.606C2.084-.417 2.917-.986 3.94-.986c.986 0 1.669.682 1.669 1.592 0 1.445-1.667 1.667-3.07 2.236-.644.266-2.084.91-2.084 2.69 0 2.124 1.439 2.916 3.372 2.916 1.516 0 2.539-.872 3.07-2.198l-1.516-.454c-.17.426-.787.947-1.592.947-1.54 0-1.671-.822-1.671-1.092 0-1.01.871-1.21 2.287-1.654C5.847 3.544 7.352 2.881 7.352.566c0-2.332-1.89-3.294-3.412-3.294C2.083-2.728.72-1.629 0 0" style="fill:#231f20;fill-opacity:1;fill-rule:nonzero;stroke:none" transform="matrix(.35278 0 0 -.35278 5.17 24.052)"/>
    <path d="M0 0h1.704v-9.208h4.994V-10.8H0Z" style="fill:#231f20;fill-opacity:1;fill-rule:nonzero;stroke:none" transform="matrix(.35278 0 0 -.35278 8.412 21.138)"/>
    <path d="m0 0-1.712 6.935L-3.384 0h-1.522l-1.595 10.8h1.748l.837-5.685 1.367 5.685h1.674L.531 5.115l.836 5.685h1.749L1.519 0Z" style="fill:#231f20;fill-opacity:1;fill-rule:nonzero;stroke:none" transform="matrix(.35278 0 0 -.35278 16.767 24.948)"/>
    <path d="M0 0c1.164 0 2.109 1.103 2.109 3.848 0 2.744-.945 3.847-2.109 3.847-1.164 0-2.108-1.102-2.108-3.847S-1.164 0 0 0m3.817 3.848c0-.388.083-5.59-3.836-5.59s-3.836 5.202-3.836 5.59c0 .387-.083 5.587 3.836 5.587s3.836-5.2 3.836-5.587" style="fill:#231f20;fill-opacity:1;fill-rule:nonzero;stroke:none" transform="matrix(.35278 0 0 -.35278 12.63 24.4)"/>
</svg>
