<?xml version="1.0" encoding="UTF-8" standalone="no"?>
<!-- Created with Inkscape (http://www.inkscape.org/) -->

<svg
   width="12in"
   height="18in"
   viewBox="0 0 304.8 457.20001"
   version="1.1"
   id="svg925"
   inkscape:version="1.1.1 (c3084ef, 2021-09-22)"
   sodipodi:docname="MUTCD R7-111a.svg"
   xmlns:inkscape="http://www.inkscape.org/namespaces/inkscape"
   xmlns:sodipodi="http://sodipodi.sourceforge.net/DTD/sodipodi-0.dtd"
   xmlns="http://www.w3.org/2000/svg"
   xmlns:svg="http://www.w3.org/2000/svg">
  <sodipodi:namedview
     id="namedview927"
     pagecolor="#ffffff"
     bordercolor="#666666"
     borderopacity="1.0"
     inkscape:pageshadow="2"
     inkscape:pageopacity="0.0"
     inkscape:pagecheckerboard="0"
     inkscape:document-units="in"
     showgrid="false"
     units="in"
     inkscape:zoom="0.36401473"
     inkscape:cx="575.52616"
     inkscape:cy="863.97603"
     inkscape:window-width="1440"
     inkscape:window-height="855"
     inkscape:window-x="0"
     inkscape:window-y="23"
     inkscape:window-maximized="1"
     inkscape:current-layer="layer2"
     inkscape:snap-bbox="true"
     inkscape:snap-bbox-edge-midpoints="true"
     inkscape:snap-bbox-midpoints="true"
     inkscape:snap-midpoints="true"
     inkscape:bbox-paths="true"
     inkscape:bbox-nodes="true" />
  <defs
     id="defs922" />
  <g
     inkscape:label="Sign Back"
     inkscape:groupmode="layer"
     id="layer1"
     sodipodi:insensitive="true">
    <rect
       style="fill:#ffffff;stroke:#000000;stroke-width:1.5748;stroke-linecap:square;stroke-miterlimit:10;stroke-dasharray:none"
       id="rect1008"
       width="303.21249"
       height="455.61252"
       x="0.7937547"
       y="0.79374337"
       rx="37.306252"
       ry="37.306252" />
    <rect
       style="fill:none;stroke:#bf2033;stroke-width:9.525;stroke-linecap:square;stroke-miterlimit:10;stroke-dasharray:none;stroke-opacity:1"
       id="rect1178"
       width="276.22501"
       height="428.625"
       x="14.287498"
       y="14.287502"
       rx="23.8125"
       ry="23.8125" />
    <rect
       style="fill:#bf2033;stroke:none;stroke-width:19.05"
       id="rect1426"
       width="285.75"
       height="9.5250006"
       x="9.5250015"
       y="117.475" />
    <path
       id="rect1582"
       style="fill:#bf2033;stroke:none;stroke-width:72"
       d="M 144,36 C 84.167999,36 36,84.167999 36,144 c 0,112 0,224 0,336 112,0 224,0 336,0 0,-148 0,-296 0,-444 -76,0 -152,0 -228,0 z"
       transform="scale(0.26458334)"
       sodipodi:nodetypes="cccccc" />
  </g>
  <g
     inkscape:groupmode="layer"
     id="layer2"
     inkscape:label="Legends">
    <g
       aria-label="NO"
       id="text3191"
       style="font-size:113.731px;line-height:1.25;font-family:'Roadgeek 2005 Series B';-inkscape-font-specification:'Roadgeek 2005 Series B';text-align:center;letter-spacing:-9.26042px;text-anchor:middle;fill:#ffffff;stroke-width:2.84329">
      <path
         d="M 41.855655,107.94978 26.956894,62.798575 V 107.94978 H 17.289759 V 31.750011 h 9.667135 L 40.490883,69.736166 V 31.750011 h 9.667135 v 76.199769 z"
         id="path18291" />
      <path
         d="m 90.660245,69.736166 q 0,3.070737 0,7.278785 0,4.094316 -0.454924,8.529825 -0.341193,4.435509 -1.364772,8.757287 -0.909848,4.208047 -2.957006,7.619977 -1.933427,3.2982 -5.117895,5.34536 -3.070737,2.04716 -7.733708,2.04716 -4.776702,0 -7.96117,-2.04716 -3.070737,-2.04716 -5.117895,-5.34536 -1.933427,-3.41193 -2.957006,-7.619977 -0.909848,-4.321778 -1.251041,-8.757287 -0.341193,-4.435509 -0.341193,-8.529825 0,-4.094317 0,-7.278785 0,-3.298199 0,-7.392515 0,-4.208047 0.341193,-8.529825 0.454924,-4.321778 1.478503,-8.416094 1.023579,-4.208047 2.957006,-7.392515 1.933427,-3.298199 5.004164,-5.231627 3.184468,-2.047158 7.847439,-2.047158 4.662971,0 7.733708,2.047158 3.184468,1.933428 5.117895,5.231627 2.047158,3.298199 2.957006,7.506246 1.023579,4.094316 1.364772,8.416094 0.454924,4.321778 0.454924,8.529825 0,4.094316 0,7.278784 z m -10.122059,0 q 0,-1.592234 -0.113731,-4.321778 0,-2.729544 -0.227462,-5.914012 -0.227462,-3.298199 -0.682386,-6.596398 -0.454924,-3.41193 -1.364772,-6.141474 -0.796117,-2.729544 -2.047158,-4.435509 -1.251041,-1.705965 -3.070737,-1.705965 -2.160889,0 -3.639392,1.819696 -1.364772,1.705965 -2.27462,4.54924 -0.796117,2.729544 -1.251041,6.141474 -0.341193,3.41193 -0.568655,6.710129 -0.113731,3.184468 -0.113731,5.914012 0.113731,2.615813 0.113731,3.980585 0,1.251041 -0.113731,3.980585 0,2.615814 0.113731,5.914013 0.227462,3.298199 0.568655,6.82386 0.454924,3.525661 1.251041,6.368936 0.909848,2.843275 2.27462,4.776702 1.478503,1.819696 3.639392,1.819696 2.160889,0 3.525661,-1.819696 1.364772,-1.933427 2.160889,-4.776702 0.909848,-2.843275 1.251041,-6.368936 0.341193,-3.525661 0.454924,-6.82386 0.227462,-3.298199 0.113731,-5.914013 0,-2.729544 0,-3.980585 z"
         id="path18293" />
    </g>
    <g
       aria-label="PARKING"
       id="text6246"
       style="font-size:75.8209px;line-height:1.25;font-family:'Roadgeek 2005 Series B';-inkscape-font-specification:'Roadgeek 2005 Series B';text-align:center;letter-spacing:-3.175px;text-anchor:middle;fill:#bf2033;stroke-width:1.89553">
      <path
         d="m 128.72494,59.235073 q 0,6.368955 -3.2603,10.16 -3.2603,3.715224 -8.64359,3.715224 h -3.56358 V 95.25 H 106.8127 V 44.449997 h 10.00835 q 2.12299,0 3.94269,0.530746 1.89552,0.530747 3.18448,1.592239 2.12298,1.743881 3.41194,5.155821 1.36478,3.33612 1.36478,7.50627 z m -6.59642,0 q 0,-4.321792 -1.36478,-6.217314 -1.28895,-1.971344 -3.94269,-1.971344 h -3.56358 V 66.5897 h 3.56358 q 2.8812,0 4.09433,-1.592239 1.21314,-1.66806 1.21314,-5.762388 z"
         id="path18276" />
      <path
         d="m 149.27122,95.25 -2.8812,-13.571941 h -8.3403 L 135.16853,95.25 h -6.59642 l 10.38746,-50.800003 h 6.5206 L 156.01928,95.25 Z m -6.97553,-33.512838 -2.80537,13.344479 h 5.4591 z"
         id="path18278" />
      <path
         d="m 181.7581,58.704326 q 0,4.321792 -1.28895,6.899702 -1.21314,2.577911 -4.01851,4.321791 L 181.60646,95.25 h -6.59642 l -5.76239,-23.731942 h -2.95701 V 95.25 h -6.44478 V 44.449997 h 10.00836 q 11.90388,0 11.90388,14.254329 z m -6.59642,-0.151642 q 0,-4.321791 -1.21313,-5.91403 -1.13732,-1.592239 -4.47343,-1.592239 h -3.18448 V 64.92164 h 4.24597 q 2.65373,0 3.6394,-1.364776 0.98567,-1.364776 0.98567,-5.00418 z"
         id="path18280" />
      <path
         d="m 202.2795,95.25 -6.82388,-24.035225 -2.42627,4.928358 V 95.25 h -6.44477 V 44.449997 h 6.44477 V 60.67567 l 7.9612,-16.225673 h 7.50627 l -8.3403,17.438807 9.02269,33.361196 z"
         id="path18282" />
      <path
         d="M 214.21182,95.25 V 44.449997 h 6.44478 V 95.25 Z"
         id="path18284" />
      <path
         d="M 245.03657,95.25 235.10403,65.149103 V 95.25 h -6.44478 V 44.449997 h 6.44478 l 9.02269,25.324181 V 44.449997 h 6.44477 V 95.25 Z"
         id="path18286" />
      <path
         d="m 278.82781,83.649402 q 0,1.743881 -0.22746,3.563583 -0.22746,1.819701 -0.53075,3.032836 -0.83403,2.653731 -3.18448,4.321791 -2.35044,1.592239 -5.8382,1.592239 -3.94269,0 -6.29314,-1.592239 -2.35045,-1.592239 -3.56358,-5.231642 -0.60657,-1.743881 -1.06149,-3.563582 -0.37911,-1.819702 -0.60657,-4.094329 -0.22746,-2.274627 -0.37911,-5.155821 -0.0758,-2.881194 -0.0758,-6.74806 0,-3.791045 0.0758,-6.596419 0.15165,-2.881194 0.37911,-5.08 0.30328,-2.274627 0.75821,-4.094329 0.45492,-1.819701 1.13731,-3.639403 1.21314,-3.563582 3.48776,-5.08 2.35045,-1.516418 6.1415,-1.516418 4.32179,0 6.74806,2.577911 2.42626,2.502089 3.03283,7.202985 h -6.44478 q -0.45492,-3.184478 -3.18447,-3.184478 -3.71523,0 -4.47344,4.928359 -0.22746,1.516418 -0.45492,3.032836 -0.22746,1.440597 -0.37911,3.108657 -0.0758,1.668059 -0.15164,3.715224 -0.0758,2.047164 -0.0758,4.625075 0,2.653731 0.0758,4.625075 0.0758,1.971343 0.15164,3.715224 0.15165,1.668059 0.30329,3.184477 0.15164,1.516418 0.3791,3.108657 0.53075,2.50209 1.51642,3.866866 0.98567,1.288956 2.72955,1.288956 1.74388,0 2.65373,-1.440598 0.90985,-1.516418 0.90985,-4.094328 v -6.74806 h -3.03283 v -6.596419 h 9.47761 v 12.965374 z"
         id="path18288" />
    </g>
    <g
       aria-label="7AM - 7PM"
       id="text11113"
       style="font-size:56.8657px;line-height:1.25;font-family:'Roadgeek 2005 Series C';-inkscape-font-specification:'Roadgeek 2005 Series C';text-align:center;text-anchor:middle;fill:#bf2033;stroke-width:1.42164">
      <path
         d="m 70.309031,151.39538 q -2.558957,2.90015 -4.549256,6.59642 -1.9903,3.63941 -3.582539,8.24553 -1.535374,4.37866 -2.217763,8.58672 -0.682388,4.1512 -0.909851,9.32597 h -5.345376 v -0.79612 q 0,-1.42164 0.170598,-3.29821 0.170597,-1.87656 0.454925,-3.86686 0.341194,-2.04717 0.739254,-4.09433 0.39806,-2.10403 0.909851,-3.9806 0.625523,-2.27463 1.307912,-4.3218 0.739254,-2.10403 1.592239,-4.09433 0.909851,-1.9903 1.9903,-3.9806 1.080448,-2.04716 2.50209,-4.32179 H 49.041259 v -5.34537 h 21.267772 v 5.34537 z"
         id="path18261" />
      <path
         d="M 93.799007,184.15002 91.126319,173.7436 h -8.18866 l -2.502091,10.40642 h -5.515973 l 9.496572,-38.10001 h 5.345376 l 9.496572,38.10001 z m -6.823884,-26.72687 -2.672688,10.97508 h 5.459108 z"
         id="path18263" />
      <path
         d="m 124.15108,184.15002 v -21.3815 l -7.05135,21.3815 -7.10821,-21.3815 v 21.3815 h -5.45911 v -38.10001 h 5.45911 l 7.10821,21.3815 7.05135,-21.3815 h 5.51597 v 38.10001 z"
         id="path18265" />
      <path
         d="m 145.66853,168.51196 v -5.06105 h 13.36343 v 5.06105 z"
         id="path18267" />
      <path
         d="m 193.36996,151.39538 q -2.55896,2.90015 -4.54926,6.59642 -1.9903,3.63941 -3.58254,8.24553 -1.53537,4.37866 -2.21776,8.58672 -0.68239,4.1512 -0.90985,9.32597 h -5.34538 v -0.79612 q 0,-1.42164 0.1706,-3.29821 0.1706,-1.87656 0.45493,-3.86686 0.34119,-2.04717 0.73925,-4.09433 0.39806,-2.10403 0.90985,-3.9806 0.62553,-2.27463 1.30791,-4.3218 0.73926,-2.10403 1.59224,-4.09433 0.90985,-1.9903 1.9903,-3.9806 1.08045,-2.04716 2.50209,-4.32179 h -14.33015 v -5.34537 h 21.26777 v 5.34537 z"
         id="path18269" />
      <path
         d="m 222.31905,156.74076 q 0,5.23164 -2.61582,7.9612 -2.55896,2.72955 -7.39254,2.72955 h -5.91404 v 16.71851 h -5.4591 v -38.10001 h 11.37314 q 2.21776,0 4.03746,0.79612 1.87657,0.73925 3.18448,2.16089 1.36478,1.36478 2.04716,3.35508 0.73926,1.9903 0.73926,4.37866 z m -5.34538,0 q 0,-2.38836 -1.36477,-3.86687 -1.36478,-1.47851 -3.58254,-1.47851 h -5.62971 v 10.80448 h 5.62971 q 2.38836,0 3.6394,-1.42164 1.30791,-1.42164 1.30791,-4.03746 z"
         id="path18271" />
      <path
         d="m 247.212,184.15002 v -21.3815 l -7.05134,21.3815 -7.10822,-21.3815 v 21.3815 h -5.4591 v -38.10001 h 5.4591 l 7.10822,21.3815 7.05134,-21.3815 h 5.51598 v 38.10001 z"
         id="path18273" />
    </g>
    <g
       aria-label="EXCEPT"
       id="text13315"
       style="font-size:56.8657px;line-height:1.25;font-family:'Roadgeek 2005 Series C';-inkscape-font-specification:'Roadgeek 2005 Series C';text-align:center;text-anchor:middle;fill:#bf2033;stroke-width:1.42164">
      <path
         d="M 80.153461,241.30002 V 203.2 h 17.912695 v 5.34538 H 85.612568 v 9.6103 H 93.5169 v 5.23164 h -7.904332 v 12.56732 h 13.932096 v 5.34538 z"
         id="path18248" />
      <path
         d="m 119.3979,241.30002 -5.34537,-12.96538 -5.34538,12.96538 h -5.74343 L 111.26611,221.51075 103.53237,203.2 h 5.74344 l 4.77672,11.48687 4.83358,-11.48687 h 5.74344 l -7.62001,18.31075 8.3024,19.78927 z"
         id="path18250" />
      <path
         d="m 145.70362,213.37896 q -0.85299,-5.51597 -4.54926,-5.51597 -1.6491,0 -2.84328,0.73925 -1.13732,0.68239 -1.87657,2.27463 -0.68239,1.53537 -1.02358,4.09433 -0.28433,2.55896 -0.28433,6.25523 0,8.24552 1.47851,11.82806 1.53537,3.58254 5.06104,3.58254 1.19418,0 1.93344,-0.45492 0.79612,-0.45493 1.25104,-1.19418 0.51179,-0.79612 0.68239,-1.76284 0.1706,-1.02358 0.1706,-2.10403 h 5.45911 q -0.0569,2.38836 -0.79612,4.37866 -0.73926,1.9903 -1.9903,3.4688 -1.25105,1.42165 -3.01389,2.21777 -1.70597,0.79612 -3.69627,0.79612 -6.14149,0 -8.98478,-5.00418 -2.78642,-5.00419 -2.78642,-15.58121 0,-9.32597 2.84329,-14.10269 2.84328,-4.77672 8.52985,-4.77672 2.3315,0 4.26493,1.02358 1.93344,0.96672 3.24135,2.84329 1.08044,1.42164 1.59224,2.90015 0.51179,1.47851 0.79612,4.09433 z"
         id="path18252" />
      <path
         d="M 158.78806,241.30002 V 203.2 h 17.91269 v 5.34538 h -12.45358 v 9.6103 h 7.90433 v 5.23164 h -7.90433 v 12.56732 h 13.93209 v 5.34538 z"
         id="path18254" />
      <path
         d="m 205.93683,213.89075 q 0,5.23165 -2.61582,7.9612 -2.55895,2.72955 -7.39254,2.72955 h -5.91403 v 16.71852 h -5.45911 V 203.2 h 11.37314 q 2.21776,0 4.03747,0.79612 1.87656,0.73925 3.18448,2.1609 1.36477,1.36477 2.04716,3.35507 0.73925,1.9903 0.73925,4.37866 z m -5.34537,0 q 0,-2.38836 -1.36478,-3.86687 -1.36477,-1.4785 -3.58254,-1.4785 h -5.6297 v 10.80448 h 5.6297 q 2.38836,0 3.63941,-1.42164 1.30791,-1.42165 1.30791,-4.03747 z"
         id="path18256" />
      <path
         d="m 220.7077,208.26105 v 33.03897 h -5.51598 v -33.03897 h -6.93761 V 203.2 h 19.3912 v 5.06105 z"
         id="path18258" />
    </g>
    <g
       aria-label="ELECTRIC"
       id="text13319"
       style="font-size:56.8657px;line-height:1.25;font-family:'Roadgeek 2005 Series C';-inkscape-font-specification:'Roadgeek 2005 Series C';text-align:center;text-anchor:middle;fill:#bf2033;stroke-width:1.42164">
      <path
         d="m 58.551159,298.45001 v -38.10002 h 17.912695 v 5.34538 H 64.010266 v 9.6103 h 7.904332 v 5.23165 h -7.904332 v 12.56732 h 13.932096 v 5.34537 z"
         id="path18231" />
      <path
         d="m 84.31843,298.45001 v -38.10002 h 5.459107 v 33.03897 h 13.932093 v 5.06105 z"
         id="path18233" />
      <path
         d="m 109.08611,298.45001 v -38.10002 h 17.91269 v 5.34538 h -12.45358 v 9.6103 h 7.90433 v 5.23165 h -7.90433 v 12.56732 h 13.93209 v 5.34537 z"
         id="path18235" />
      <path
         d="m 149.97965,270.52895 q -0.85298,-5.51597 -4.54926,-5.51597 -1.6491,0 -2.84328,0.73925 -1.13731,0.68239 -1.87657,2.27463 -0.68239,1.53538 -1.02358,4.09433 -0.28433,2.55896 -0.28433,6.25523 0,8.24553 1.47851,11.82807 1.53537,3.58253 5.06105,3.58253 1.19418,0 1.93343,-0.45492 0.79612,-0.45493 1.25105,-1.19418 0.51179,-0.79612 0.68238,-1.76284 0.1706,-1.02358 0.1706,-2.10403 h 5.45911 q -0.0569,2.38836 -0.79612,4.37866 -0.73926,1.9903 -1.9903,3.46881 -1.25105,1.42164 -3.01388,2.21776 -1.70597,0.79612 -3.69627,0.79612 -6.1415,0 -8.98478,-5.00418 -2.78642,-5.00418 -2.78642,-15.5812 0,-9.32598 2.84328,-14.1027 2.84329,-4.77672 8.52986,-4.77672 2.33149,0 4.26492,1.02359 1.93344,0.96671 3.24135,2.84328 1.08045,1.42165 1.59224,2.90015 0.51179,1.47851 0.79612,4.09433 z"
         id="path18237" />
      <path
         d="m 172.56067,265.41104 v 33.03897 h -5.51597 v -33.03897 h -6.93762 v -5.06105 h 19.39121 v 5.06105 z"
         id="path18239" />
      <path
         d="m 200.47373,298.45001 -5.06104,-17.91269 h -5.23165 v 17.91269 h -5.4591 v -38.10002 h 11.37314 q 2.21776,0 4.03746,0.73926 1.87657,0.73925 3.18448,2.04716 1.36478,1.30791 2.04716,3.24135 0.73926,1.87657 0.73926,4.15119 0,3.41195 -1.36478,5.8003 -1.36478,2.38836 -4.09433,3.41195 l 5.45911,18.70881 z m 0.28433,-27.92106 q 0,-2.21776 -1.36477,-3.52567 -1.36478,-1.30791 -3.58254,-1.30791 h -5.62971 v 9.6103 h 5.62971 q 2.38836,0 3.6394,-1.19418 1.30791,-1.25104 1.30791,-3.58254 z"
         id="path18241" />
      <path
         d="m 212.48838,298.45001 v -38.10002 h 5.34538 v 38.10002 z"
         id="path18243" />
      <path
         d="m 241.38682,270.52895 q -0.85299,-5.51597 -4.54926,-5.51597 -1.64911,0 -2.84328,0.73925 -1.13732,0.68239 -1.87657,2.27463 -0.68239,1.53538 -1.02359,4.09433 -0.28432,2.55896 -0.28432,6.25523 0,8.24553 1.4785,11.82807 1.53538,3.58253 5.06105,3.58253 1.19418,0 1.93344,-0.45492 0.79611,-0.45493 1.25104,-1.19418 0.51179,-0.79612 0.68239,-1.76284 0.1706,-1.02358 0.1706,-2.10403 h 5.4591 q -0.0569,2.38836 -0.79612,4.37866 -0.73925,1.9903 -1.9903,3.46881 -1.25104,1.42164 -3.01388,2.21776 -1.70597,0.79612 -3.69627,0.79612 -6.14149,0 -8.98478,-5.00418 -2.78642,-5.00418 -2.78642,-15.5812 0,-9.32598 2.84329,-14.1027 2.84328,-4.77672 8.52985,-4.77672 2.3315,0 4.26493,1.02359 1.93343,0.96671 3.24134,2.84328 1.08045,1.42165 1.59224,2.90015 0.51179,1.47851 0.79612,4.09433 z"
         id="path18245" />
    </g>
    <g
       aria-label="VEHICLES"
       id="text13323"
       style="font-size:56.8657px;line-height:1.25;font-family:'Roadgeek 2005 Series C';-inkscape-font-specification:'Roadgeek 2005 Series C';text-align:center;text-anchor:middle;fill:#bf2033;stroke-width:1.42164">
      <path
         d="M 67.523056,355.60004 H 63.37186 l -9.610304,-38.10002 h 5.515973 l 6.255227,24.73658 6.312093,-24.73658 h 5.459107 z"
         id="path18214" />
      <path
         d="M 82.596909,355.60004 V 317.50002 H 100.5096 v 5.34537 H 88.056016 v 9.61031 h 7.904332 v 5.23164 h -7.904332 v 12.56732 h 13.932094 v 5.34538 z"
         id="path18216" />
      <path
         d="m 124.28658,355.60004 v -17.23031 h -10.46329 v 17.23031 h -5.45911 v -38.10002 h 5.45911 v 15.52433 h 10.46329 v -15.52433 h 5.4591 v 38.10002 z"
         id="path18218" />
      <path
         d="m 138.01875,355.60004 v -38.10002 h 5.34538 v 38.10002 z"
         id="path18220" />
      <path
         d="m 166.91719,327.67898 q -0.85298,-5.51597 -4.54926,-5.51597 -1.6491,0 -2.84328,0.73925 -1.13731,0.68239 -1.87657,2.27463 -0.68239,1.53537 -1.02358,4.09433 -0.28433,2.55895 -0.28433,6.25522 0,8.24553 1.47851,11.82807 1.53537,3.58254 5.06105,3.58254 1.19418,0 1.93343,-0.45493 0.79612,-0.45492 1.25105,-1.19418 0.51179,-0.79612 0.68238,-1.76283 0.1706,-1.02359 0.1706,-2.10403 h 5.45911 q -0.0569,2.38836 -0.79612,4.37866 -0.73926,1.99029 -1.9903,3.4688 -1.25105,1.42165 -3.01388,2.21777 -1.70597,0.79612 -3.69627,0.79612 -6.1415,0 -8.98478,-5.00419 -2.78642,-5.00418 -2.78642,-15.5812 0,-9.32597 2.84328,-14.10269 2.84329,-4.77672 8.52986,-4.77672 2.33149,0 4.26492,1.02358 1.93344,0.96672 3.24135,2.84329 1.08045,1.42164 1.59224,2.90015 0.51179,1.47851 0.79612,4.09433 z"
         id="path18222" />
      <path
         d="m 180.00163,355.60004 v -38.10002 h 5.45911 v 33.03897 h 13.93209 v 5.06105 z"
         id="path18224" />
      <path
         d="M 204.76931,355.60004 V 317.50002 H 222.682 v 5.34537 h -12.45358 v 9.61031 h 7.90433 v 5.23164 h -7.90433 v 12.56732 h 13.93209 v 5.34538 z"
         id="path18226" />
      <path
         d="m 249.92778,345.19361 q 0,2.3315 -0.85298,4.37866 -0.79612,1.9903 -2.27463,3.46881 -1.42164,1.47851 -3.35507,2.38836 -1.87657,0.85299 -4.09434,0.85299 -2.50209,0 -4.49239,-0.96672 -1.9903,-0.96672 -3.35507,-2.61582 -1.36478,-1.64911 -2.10403,-3.81001 -0.73926,-2.16089 -0.73926,-4.49239 h 5.34538 q 0,1.19418 0.28433,2.38836 0.34119,1.13732 0.96671,2.10403 0.68239,0.90986 1.64911,1.47851 1.02358,0.56866 2.44522,0.56866 1.08045,0 2.04717,-0.45493 1.02358,-0.45492 1.70597,-1.25104 0.73925,-0.79612 1.13731,-1.8197 0.45493,-1.08045 0.45493,-2.21777 0,-1.6491 -0.68239,-2.90015 -0.68239,-1.30791 -2.38836,-2.61582 -0.28433,-0.28433 -0.22746,-0.28433 0.0569,-0.0569 -0.34119,-0.34119 -0.39806,-0.28433 -1.70598,-1.08045 -1.25104,-0.85299 -4.15119,-2.84329 -2.3315,-1.59223 -3.52567,-3.69627 -1.13732,-2.16089 -1.13732,-4.71985 0,-2.04716 0.73926,-3.81 0.73925,-1.8197 2.04716,-3.18448 1.36478,-1.36478 3.12761,-2.10403 1.76284,-0.79612 3.81001,-0.79612 2.04716,0 3.75313,0.73925 1.76284,0.73926 3.01388,2.04717 1.30792,1.30791 2.04717,3.12761 0.79612,1.8197 0.85298,3.9806 h -5.23164 q -0.11373,-1.9903 -1.36478,-3.18448 -1.25104,-1.19418 -3.07074,-1.19418 -1.87657,0 -3.18448,1.25105 -1.30791,1.25104 -1.30791,3.12761 0,1.42164 0.73925,2.38836 0.73925,0.96672 2.84328,2.1609 5.51598,3.18448 8.01807,6.48269 2.55895,3.29821 2.55895,7.4494 z"
         id="path18228" />
    </g>
    <g
       id="g18146">
      <path
         id="rect8051"
         style="fill:#bf2033;stroke-width:0.145639;stroke-linecap:square;stroke-miterlimit:10"
         d="m 212.65596,368.3 a 3.8171621,3.8171621 0 0 0 -3.81716,3.81716 3.8171621,3.8171621 0 0 0 0.18471,1.1684 l -10e-4,9e-4 6.56901,20.41354 -6.56901,20.41354 10e-4,9.2e-4 a 3.8171621,3.8171621 0 0 0 -0.18471,1.1684 3.8171621,3.8171621 0 0 0 3.81716,3.81716 3.8171621,3.8171621 0 0 0 2.16049,-0.67084 l 3.7e-4,2.8e-4 36.01075,-24.72945 -36.01075,-24.72945 -2.8e-4,1.9e-4 A 3.8171621,3.8171621 0 0 0 212.65592,368.3 Z" />
      <path
         id="path18053"
         style="fill:#bf2033;stroke-width:0.145639;stroke-linecap:square;stroke-miterlimit:10"
         d="m 92.144035,368.3 a 3.8171621,3.8171621 0 0 1 3.817162,3.81716 3.8171621,3.8171621 0 0 1 -0.184711,1.1684 l 0.0012,9e-4 -6.569015,20.41354 6.569015,20.41354 -0.0012,9.2e-4 a 3.8171621,3.8171621 0 0 1 0.184711,1.1684 3.8171621,3.8171621 0 0 1 -3.817162,3.81716 3.8171621,3.8171621 0 0 1 -2.160486,-0.67084 l -3.7e-4,2.8e-4 -36.01075,-24.72945 36.010749,-24.72945 2.77e-4,1.9e-4 A 3.8171621,3.8171621 0 0 1 92.14408,368.3 Z" />
      <rect
         style="fill:#bf2033;stroke-width:0.3777;stroke-linecap:square;stroke-miterlimit:10"
         id="rect18055"
         width="126.3904"
         height="19.050001"
         x="-215.5952"
         y="384.17502"
         transform="scale(-1,1)" />
    </g>
  </g>
</svg>
