<?xml version="1.0" encoding="UTF-8" standalone="no"?>
<!-- Created with Inkscape (http://www.inkscape.org/) -->

<svg
   width="68.756386mm"
   height="18.464388mm"
   viewBox="0 0 68.756386 18.464388"
   version="1.1"
   id="svg1"
   inkscape:version="1.3 (0e150ed, 2023-07-21)"
   sodipodi:docname="MUTCD_R1-9c.svg"
   xmlns:inkscape="http://www.inkscape.org/namespaces/inkscape"
   xmlns:sodipodi="http://sodipodi.sourceforge.net/DTD/sodipodi-0.dtd"
   xmlns="http://www.w3.org/2000/svg"
   xmlns:svg="http://www.w3.org/2000/svg">
  <sodipodi:namedview
     id="namedview1"
     pagecolor="#ffffff"
     bordercolor="#666666"
     borderopacity="1.0"
     inkscape:showpageshadow="2"
     inkscape:pageopacity="0.0"
     inkscape:pagecheckerboard="0"
     inkscape:deskcolor="#d1d1d1"
     inkscape:document-units="mm"
     inkscape:zoom="1"
     inkscape:cx="129"
     inkscape:cy="34"
     inkscape:window-width="1440"
     inkscape:window-height="431"
     inkscape:window-x="0"
     inkscape:window-y="23"
     inkscape:window-maximized="0"
     inkscape:current-layer="layer1" />
  <defs
     id="defs1">
    <clipPath
       clipPathUnits="userSpaceOnUse"
       id="clipPath316">
      <path
         d="M 20.194,43.94 H 526.773 V 738 H 20.194 Z"
         transform="translate(-310.13631,-164.25411)"
         id="path316" />
    </clipPath>
  </defs>
  <g
     inkscape:label="Layer 1"
     inkscape:groupmode="layer"
     id="layer1"
     transform="translate(-70.114587,-139.17083)">
    <g
       id="g315"
       transform="matrix(0.26458333,0,0,0.26458333,-37.777487,-63.863747)">
      <path
         id="path315"
         d="m 0,0 c -2.303,0 -4.176,1.873 -4.176,4.175 v 43.74 c 0,2.302 1.873,4.175 4.176,4.175 h 186.3 c 2.302,0 4.175,-1.873 4.175,-4.175 V 4.175 C 190.475,1.873 188.602,0 186.3,0 Z"
         style="fill:#ffffff;fill-opacity:1;fill-rule:nonzero;stroke:none"
         transform="matrix(1.3333333,0,0,-1.3333333,413.51507,836.99453)"
         clip-path="url(#clipPath316)" />
    </g>
    <g
       id="g316"
       transform="matrix(0.26458333,0,0,0.26458333,-37.777487,-63.863747)">
      <path
         id="path317"
         d="m 0,0 h -186.3 c -2.371,0 -4.3,-1.929 -4.3,-4.3 v -43.74 c 0,-2.371 1.929,-4.3 4.3,-4.3 H 0 c 2.371,0 4.3,1.929 4.3,4.3 V -4.3 C 4.3,-1.929 2.371,0 0,0 m 0,-0.25 c 2.237,0 4.05,-1.813 4.05,-4.05 v -43.74 c 0,-2.237 -1.813,-4.05 -4.05,-4.05 h -186.3 c -2.237,0 -4.05,1.813 -4.05,4.05 V -4.3 c 0,2.237 1.813,4.05 4.05,4.05 z"
         style="fill:#000000;fill-opacity:1;fill-rule:nonzero;stroke:none"
         transform="matrix(1.3333333,0,0,-1.3333333,661.9144,767.3748)" />
    </g>
    <g
       id="g317"
       transform="matrix(0.26458333,0,0,0.26458333,-37.777487,-63.863747)">
      <path
         id="path318"
         d="m 0,0 v -28.08 c 0,-2.237 1.813,-4.05 4.05,-4.05 h 186.3 c 2.237,0 4.05,1.813 4.05,4.05 V 0"
         style="fill:#ffffff;fill-opacity:1;fill-rule:nonzero;stroke:none"
         transform="matrix(1.3333333,0,0,-1.3333333,408.1144,793.98813)" />
    </g>
    <g
       id="g318"
       transform="matrix(0.26458333,0,0,0.26458333,-37.777487,-63.863747)">
      <path
         id="path319"
         d="m 0,0 v 15.66 c 0,2.237 -1.813,4.05 -4.05,4.05 h -186.3 c -2.237,0 -4.05,-1.813 -4.05,-4.05 V 0"
         style="fill:#c1d72f;fill-opacity:1;fill-rule:nonzero;stroke:none"
         transform="matrix(1.3333333,0,0,-1.3333333,667.31453,793.98813)" />
      <path
         id="path320"
         d="m 0,0 h -186.3 c -0.744,0 -1.35,0.606 -1.35,1.35 v 27.27 h 189 V 1.35 C 1.35,0.606 0.744,0 0,0 M -186.3,46.44 H 0 c 0.744,0 1.35,-0.606 1.35,-1.35 V 30.24 h -189 v 14.85 c 0,0.744 0.606,1.35 1.35,1.35 m 186.289,1.62 h -186.278 c -1.646,0 -2.981,-1.335 -2.981,-2.981 V 1.361 c 0,-1.647 1.335,-2.981 2.981,-2.981 H -0.011 c 1.647,0 2.981,1.334 2.981,2.981 v 43.718 c 0,1.646 -1.334,2.981 -2.981,2.981"
         style="fill:#000000;fill-opacity:1;fill-rule:nonzero;stroke:none"
         transform="matrix(1.3333333,0,0,-1.3333333,661.9144,833.22813)" />
      <path
         id="path321"
         d="m 0,0 1.303,0.485 c 0.364,-0.819 1.031,-1.273 1.849,-1.273 0.789,0 1.335,0.545 1.335,1.273 0,1.156 -1.334,1.334 -2.456,1.788 -0.515,0.213 -1.667,0.728 -1.667,2.153 0,1.699 1.151,2.333 2.698,2.333 C 4.274,6.759 5.093,6.061 5.517,5 L 4.305,4.636 C 4.169,4.978 3.675,5.395 3.031,5.395 1.799,5.395 1.694,4.737 1.694,4.521 1.694,3.713 2.391,3.553 3.524,3.198 4.677,2.835 5.881,2.305 5.881,0.452 5.881,-1.413 4.369,-2.183 3.152,-2.183 1.666,-2.183 0.576,-1.303 0,0"
         style="fill:#000000;fill-opacity:1;fill-rule:nonzero;stroke:none"
         transform="matrix(1.3333333,0,0,-1.3333333,496.10813,785.51947)" />
      <path
         id="path322"
         d="M 0,0 H -1.37 V 7.427 H -3.349 V 8.64 H 2.01 V 7.427 H 0 Z"
         style="fill:#000000;fill-opacity:1;fill-rule:nonzero;stroke:none"
         transform="matrix(1.3333333,0,0,-1.3333333,509.33733,788.22813)" />
      <path
         id="path323"
         d="M 0,0 H 1.738 L 0.883,2.425 Z M 2.225,-1.394 H -0.488 L -1.342,-3.82 H -2.806 L 0.183,4.82 H 1.555 L 4.542,-3.82 H 3.079 Z"
         style="fill:#000000;fill-opacity:1;fill-rule:nonzero;stroke:none"
         transform="matrix(1.3333333,0,0,-1.3333333,516.4496,783.13493)" />
      <path
         id="path324"
         d="M 0,0 H -1.371 V 7.427 H -3.349 V 8.64 H 2.01 V 7.427 H 0 Z"
         style="fill:#000000;fill-opacity:1;fill-rule:nonzero;stroke:none"
         transform="matrix(1.3333333,0,0,-1.3333333,527.66307,788.22813)" />
      <path
         id="path325"
         d="M 0,0 H 5.087 V -1.364 H 1.363 V -3.486 H 3.876 V -4.881 H 1.363 V -7.246 H 5.359 V -8.64 H 0 Z"
         style="fill:#000000;fill-opacity:1;fill-rule:nonzero;stroke:none"
         transform="matrix(1.3333333,0,0,-1.3333333,532.07093,776.70813)" />
      <path
         id="path326"
         d="M 0,0 H 1.363 V -7.367 H 5.359 V -8.64 H 0 Z"
         style="fill:#000000;fill-opacity:1;fill-rule:nonzero;stroke:none"
         transform="matrix(1.3333333,0,0,-1.3333333,550.73587,776.70813)" />
      <path
         id="path327"
         d="M 0,0 H 1.738 L 0.883,2.425 Z M 2.225,-1.394 H -0.488 L -1.342,-3.82 H -2.806 L 0.183,4.82 H 1.555 L 4.542,-3.82 H 3.079 Z"
         style="fill:#000000;fill-opacity:1;fill-rule:nonzero;stroke:none"
         transform="matrix(1.3333333,0,0,-1.3333333,562.31347,783.13493)" />
      <path
         id="path328"
         d="M 0,0 -1.369,5.548 -2.707,0 h -1.217 l -1.277,8.64 h 1.399 L -3.133,4.092 -2.039,8.64 H -0.7 L 0.424,4.092 1.094,8.64 H 2.493 L 1.215,0 Z"
         style="fill:#000000;fill-opacity:1;fill-rule:nonzero;stroke:none"
         transform="matrix(1.3333333,0,0,-1.3333333,575.9964,788.22813)" />
    </g>
    <g
       id="g328"
       transform="matrix(0.26458333,0,0,0.26458333,-37.777487,-63.863747)">
      <path
         id="path329"
         d="m 0,0 h 1.923 c 1.085,0 1.2,0.782 1.2,1.061 0,0.404 -0.304,1.061 -1.153,1.061 H 0 Z M 1.609,-1.394 H 0 v -3.76 h -1.363 v 8.64 h 3.266 c 2.032,0 2.615,-1.652 2.615,-2.425 0,-0.537 -0.294,-2.455 -2.909,-2.455"
         style="fill:#000000;fill-opacity:1;fill-rule:nonzero;stroke:none"
         transform="matrix(1.3333333,0,0,-1.3333333,533.87547,804.75573)" />
      <path
         id="path330"
         d="M 0,0 H 5.087 V -1.364 H 1.363 V -3.486 H 3.876 V -4.881 H 1.363 V -7.246 H 5.359 V -8.64 H 0 Z"
         style="fill:#000000;fill-opacity:1;fill-rule:nonzero;stroke:none"
         transform="matrix(1.3333333,0,0,-1.3333333,541.6284,800.10747)" />
      <path
         id="path331"
         d="m 0,0 h -1.546 v -5.881 h 1.45 c 1.257,0 1.67,1.523 1.67,3.15 C 1.574,-1.958 1.353,0 0,0 m -2.909,-7.276 v 8.64 h 3.116 c 2.181,0 2.765,-2.872 2.765,-4.126 0,-3.241 -1.666,-4.514 -2.759,-4.514 z"
         style="fill:#000000;fill-opacity:1;fill-rule:nonzero;stroke:none"
         transform="matrix(1.3333333,0,0,-1.3333333,554.61133,801.92613)" />
      <path
         id="path332"
         d="M 0,0 H 5.087 V -1.364 H 1.363 V -3.486 H 3.876 V -4.881 H 1.363 V -7.246 H 5.359 V -8.64 H 0 Z"
         style="fill:#000000;fill-opacity:1;fill-rule:nonzero;stroke:none"
         transform="matrix(1.3333333,0,0,-1.3333333,561.10907,800.10747)" />
      <path
         id="path333"
         d="m 0,0 1.303,0.485 c 0.364,-0.819 1.031,-1.273 1.849,-1.273 0.789,0 1.335,0.545 1.335,1.273 0,1.156 -1.334,1.334 -2.456,1.788 -0.515,0.213 -1.667,0.728 -1.667,2.153 0,1.699 1.151,2.333 2.698,2.333 C 4.274,6.759 5.093,6.061 5.517,5 L 4.305,4.636 C 4.169,4.978 3.675,5.395 3.031,5.395 1.799,5.395 1.694,4.737 1.694,4.521 1.694,3.713 2.391,3.553 3.524,3.198 4.677,2.835 5.881,2.305 5.881,0.452 5.881,-1.413 4.37,-2.183 3.152,-2.183 1.666,-2.183 0.576,-1.304 0,0"
         style="fill:#000000;fill-opacity:1;fill-rule:nonzero;stroke:none"
         transform="matrix(1.3333333,0,0,-1.3333333,569.40627,808.9188)" />
      <path
         id="path334"
         d="M 0,0 H -1.371 V 7.427 H -3.349 V 8.64 H 2.01 V 7.427 H 0 Z"
         style="fill:#000000;fill-opacity:1;fill-rule:nonzero;stroke:none"
         transform="matrix(1.3333333,0,0,-1.3333333,582.6356,811.62747)" />
      <path
         id="path335"
         d="m 0,0 c 1.084,0 1.255,0.782 1.255,1.061 0,0.376 -0.282,1.061 -1.189,1.061 H -1.716 V 0 Z m -1.716,-1.393 v -3.761 h -1.363 v 8.64 h 3.125 c 1.981,0 2.575,-1.584 2.575,-2.427 0,-0.32 -0.119,-1.584 -1.341,-2.163 l 1.522,-4.05 H 1.316 l -1.394,3.761 z"
         style="fill:#000000;fill-opacity:1;fill-rule:nonzero;stroke:none"
         transform="matrix(1.3333333,0,0,-1.3333333,591.14867,804.75573)" />
      <path
         id="path336"
         d="m 447.633,191.92 h 1.382 v -8.64 h -1.382 z"
         style="fill:#000000;fill-opacity:1;fill-rule:nonzero;stroke:none"
         transform="matrix(1.3333333,0,0,-1.3333333,0,1056)" />
      <path
         id="path337"
         d="M 0,0 H 1.738 L 0.883,2.425 Z M 2.225,-1.394 H -0.488 L -1.342,-3.82 H -2.806 L 0.183,4.82 H 1.555 L 4.542,-3.82 H 3.079 Z"
         style="fill:#000000;fill-opacity:1;fill-rule:nonzero;stroke:none"
         transform="matrix(1.3333333,0,0,-1.3333333,604.15627,806.53427)" />
      <path
         id="path338"
         d="M 0,0 V -5.85 H -1.363 V 2.79 H 0 L 3.153,-2.728 V 2.79 H 4.519 V -5.85 H 3.306 Z"
         style="fill:#000000;fill-opacity:1;fill-rule:nonzero;stroke:none"
         transform="matrix(1.3333333,0,0,-1.3333333,613.7584,803.82693)" />
      <path
         id="path339"
         d="m 0,0 1.303,0.485 c 0.364,-0.819 1.031,-1.273 1.849,-1.273 0.789,0 1.335,0.545 1.335,1.273 0,1.156 -1.334,1.334 -2.456,1.788 -0.515,0.213 -1.667,0.728 -1.667,2.153 0,1.699 1.151,2.333 2.698,2.333 C 4.274,6.759 5.093,6.061 5.517,5 L 4.305,4.636 C 4.169,4.978 3.675,5.395 3.031,5.395 1.799,5.395 1.694,4.737 1.694,4.521 1.694,3.713 2.391,3.553 3.524,3.198 4.677,2.835 5.881,2.305 5.881,0.452 5.881,-1.413 4.37,-2.183 3.152,-2.183 1.666,-2.183 0.576,-1.304 0,0"
         style="fill:#000000;fill-opacity:1;fill-rule:nonzero;stroke:none"
         transform="matrix(1.3333333,0,0,-1.3333333,621.74187,808.9188)" />
      <path
         id="path340"
         d="m 362.175,178.419 h 1.21 v -7.56 h -1.21 z"
         style="fill:#000000;fill-opacity:1;fill-rule:nonzero;stroke:none"
         transform="matrix(1.3333333,0,0,-1.3333333,0,1056)" />
      <path
         id="path341"
         d="m 0,0 v -5.119 h -1.193 v 7.56 H 0 l 2.76,-4.828 v 4.828 h 1.194 v -7.56 H 2.893 Z"
         style="fill:#000000;fill-opacity:1;fill-rule:nonzero;stroke:none"
         transform="matrix(1.3333333,0,0,-1.3333333,490.5792,821.36267)" />
    </g>
    <g
       id="g341"
       transform="matrix(0.26458333,0,0,0.26458333,-37.777487,-63.863747)">
      <path
         id="path342"
         d="m 0,0 1.303,0.485 c 0.365,-0.819 1.031,-1.273 1.849,-1.273 0.789,0 1.335,0.545 1.335,1.273 0,1.156 -1.333,1.334 -2.456,1.788 -0.515,0.213 -1.667,0.728 -1.667,2.153 0,1.699 1.151,2.333 2.698,2.333 C 4.275,6.759 5.093,6.061 5.517,5 L 4.305,4.636 C 4.169,4.978 3.675,5.395 3.031,5.395 1.799,5.395 1.694,4.737 1.694,4.521 1.694,3.713 2.391,3.553 3.524,3.198 4.677,2.835 5.881,2.305 5.881,0.452 5.881,-1.413 4.37,-2.183 3.152,-2.183 1.666,-2.183 0.576,-1.304 0,0"
         style="fill:#000000;fill-opacity:1;fill-rule:nonzero;stroke:none"
         transform="matrix(1.3333333,0,0,-1.3333333,445.8456,808.9196)" />
      <path
         id="path343"
         d="M 0,0 H -1.371 V 7.427 H -3.349 V 8.64 H 2.01 V 7.427 H 0 Z"
         style="fill:#000000;fill-opacity:1;fill-rule:nonzero;stroke:none"
         transform="matrix(1.3333333,0,0,-1.3333333,459.07493,811.62813)" />
    </g>
    <g
       id="g343"
       transform="matrix(0.26458333,0,0,0.26458333,-37.777487,-63.863747)">
      <path
         id="path344"
         d="m 0,0 h 1.923 c 1.085,0 1.2,0.782 1.2,1.061 0,0.404 -0.304,1.061 -1.153,1.061 H 0 Z M 1.609,-1.394 H 0 v -3.76 h -1.363 v 8.64 h 3.266 c 2.032,0 2.616,-1.652 2.616,-2.425 0,-0.537 -0.295,-2.455 -2.91,-2.455"
         style="fill:#000000;fill-opacity:1;fill-rule:nonzero;stroke:none"
         transform="matrix(1.3333333,0,0,-1.3333333,475.7892,804.75653)" />
    </g>
    <g
       id="g344"
       transform="matrix(0.26458333,0,0,0.26458333,-37.777487,-63.863747)">
      <path
         id="path345"
         d="M 0,0 C 0.931,0 1.687,0.882 1.687,3.078 1.687,5.274 0.931,6.156 0,6.156 -0.931,6.156 -1.687,5.275 -1.687,3.078 -1.687,0.882 -0.931,0 0,0 m 3.054,3.078 c 0,-0.31 0.066,-4.471 -3.069,-4.471 -3.135,0 -3.069,4.161 -3.069,4.471 0,0.31 -0.066,4.47 3.069,4.47 3.135,0 3.069,-4.16 3.069,-4.47"
         style="fill:#000000;fill-opacity:1;fill-rule:nonzero;stroke:none"
         transform="matrix(1.3333333,0,0,-1.3333333,467.36493,809.97213)" />
    </g>
    <g
       id="g345"
       transform="matrix(0.26458333,0,0,0.26458333,-37.777487,-63.863747)">
      <path
         id="path346"
         d="M 0,0 H 2.513 V -1.394 H 0 v -3.76 h -1.363 v 8.64 H 3.996 V 2.122 H 0 Z"
         style="fill:#000000;fill-opacity:1;fill-rule:nonzero;stroke:none"
         transform="matrix(1.3333333,0,0,-1.3333333,495.15093,804.75653)" />
    </g>
    <g
       id="g346"
       transform="matrix(0.26458333,0,0,0.26458333,-37.777487,-63.863747)">
      <path
         id="path347"
         d="m 0,0 c 1.084,0 1.255,0.782 1.255,1.061 0,0.376 -0.282,1.061 -1.189,1.061 H -1.716 V 0 Z m -1.716,-1.393 v -3.761 h -1.363 v 8.64 h 3.125 c 1.981,0 2.575,-1.584 2.575,-2.427 0,-0.32 -0.119,-1.584 -1.341,-2.163 l 1.523,-4.05 H 1.317 l -1.395,3.761 z"
         style="fill:#000000;fill-opacity:1;fill-rule:nonzero;stroke:none"
         transform="matrix(1.3333333,0,0,-1.3333333,516.8016,804.75653)" />
    </g>
    <g
       id="g347"
       transform="matrix(0.26458333,0,0,0.26458333,-37.777487,-63.863747)">
      <path
         id="path348"
         d="M 0,0 C 0.931,0 1.687,0.882 1.687,3.078 1.687,5.274 0.931,6.156 0,6.156 -0.931,6.156 -1.687,5.275 -1.687,3.078 -1.687,0.882 -0.931,0 0,0 m 3.054,3.078 c 0,-0.31 0.066,-4.471 -3.069,-4.471 -3.135,0 -3.07,4.161 -3.07,4.471 0,0.31 -0.065,4.47 3.07,4.47 3.135,0 3.069,-4.16 3.069,-4.47"
         style="fill:#000000;fill-opacity:1;fill-rule:nonzero;stroke:none"
         transform="matrix(1.3333333,0,0,-1.3333333,506.08933,809.97213)" />
    </g>
    <g
       id="g348"
       transform="matrix(0.26458333,0,0,0.26458333,-37.777487,-63.863747)">
      <path
         id="path349"
         d="m 0,0 c 0,1.063 0.214,3.898 2.785,3.898 1.096,0 1.843,-0.446 2.361,-1.538 L 4.032,1.882 C 3.646,2.438 3.453,2.678 2.786,2.678 c -1.582,0 -1.565,-2.205 -1.565,-2.679 0,-0.469 -0.029,-2.706 1.618,-2.706 0.577,0 0.909,0.348 1.167,0.876 l 1.14,-0.425 C 4.721,-3.307 4.007,-3.925 2.864,-3.925 0.144,-3.925 0,-0.921 0,0"
         style="fill:#000000;fill-opacity:1;fill-rule:nonzero;stroke:none"
         transform="matrix(1.3333333,0,0,-1.3333333,507.3712,823.1304)" />
      <path
         id="path350"
         d="M 0,0 V -3.29 H -1.193 V 4.27 H 1.542 C 3.275,4.27 3.795,2.883 3.795,2.146 3.795,1.865 3.691,0.76 2.621,0.253 L 3.954,-3.29 h -1.3 L 1.434,0 Z M 1.502,1.219 C 2.45,1.219 2.6,1.903 2.6,2.147 2.6,2.477 2.353,3.076 1.559,3.076 H 0 V 1.219 Z"
         style="fill:#000000;fill-opacity:1;fill-rule:nonzero;stroke:none"
         transform="matrix(1.3333333,0,0,-1.3333333,519.926,823.8008)" />
    </g>
    <g
       id="g350"
       transform="matrix(0.26458333,0,0,0.26458333,-37.777487,-63.863747)">
      <path
         id="path351"
         d="m 0,0 1.141,0.424 c 0.318,-0.716 0.901,-1.114 1.617,-1.114 0.69,0 1.168,0.477 1.168,1.114 0,1.011 -1.167,1.167 -2.149,1.565 -0.45,0.186 -1.459,0.637 -1.459,1.884 0,1.486 1.008,2.041 2.361,2.041 1.061,0 1.778,-0.611 2.149,-1.539 L 3.767,4.057 C 3.648,4.355 3.216,4.72 2.652,4.72 1.574,4.72 1.483,4.145 1.483,3.956 1.483,3.249 2.092,3.109 3.083,2.798 4.093,2.481 5.146,2.017 5.146,0.396 5.146,-1.236 3.823,-1.91 2.758,-1.91 1.458,-1.91 0.504,-1.141 0,0"
         style="fill:#000000;fill-opacity:1;fill-rule:nonzero;stroke:none"
         transform="matrix(1.3333333,0,0,-1.3333333,537.95347,825.818)" />
      <path
         id="path352"
         d="m 0,0 1.141,0.424 c 0.318,-0.716 0.901,-1.114 1.617,-1.114 0.69,0 1.168,0.477 1.168,1.114 0,1.011 -1.167,1.167 -2.149,1.565 -0.45,0.186 -1.459,0.637 -1.459,1.884 0,1.486 1.008,2.041 2.361,2.041 1.061,0 1.777,-0.611 2.149,-1.539 L 3.767,4.057 C 3.648,4.355 3.216,4.72 2.652,4.72 1.574,4.72 1.483,4.145 1.483,3.956 1.483,3.249 2.092,3.109 3.083,2.798 4.093,2.481 5.146,2.017 5.146,0.396 5.146,-1.236 3.823,-1.91 2.758,-1.91 1.458,-1.91 0.504,-1.141 0,0"
         style="fill:#000000;fill-opacity:1;fill-rule:nonzero;stroke:none"
         transform="matrix(1.3333333,0,0,-1.3333333,546.6804,825.818)" />
      <path
         id="path353"
         d="M 0,0 -1.198,4.854 -2.369,0 h -1.065 l -1.117,7.56 h 1.224 l 0.586,-3.979 0.957,3.979 h 1.172 L 0.371,3.581 0.957,7.56 H 2.181 L 1.063,0 Z"
         style="fill:#000000;fill-opacity:1;fill-rule:nonzero;stroke:none"
         transform="matrix(1.3333333,0,0,-1.3333333,561.1024,828.18813)" />
      <path
         id="path354"
         d="m 0,0 h -2.374 l -0.747,-2.122 h -1.281 l 2.615,7.559 h 1.201 L 2.028,-2.122 H 0.747 Z m -1.947,1.22 h 1.521 l -0.748,2.122 z"
         style="fill:#000000;fill-opacity:1;fill-rule:nonzero;stroke:none"
         transform="matrix(1.3333333,0,0,-1.3333333,570.9988,825.35813)" />
      <path
         id="path355"
         d="M 0,0 H 1.193 V -6.446 H 4.689 V -7.56 H 0 Z"
         style="fill:#000000;fill-opacity:1;fill-rule:nonzero;stroke:none"
         transform="matrix(1.3333333,0,0,-1.3333333,576.50027,818.10813)" />
      <path
         id="path356"
         d="m 0,0 -0.798,-0.982 v -2.599 h -1.198 v 7.56 h 1.198 V 0.982 L 1.597,3.979 H 3.14 L 0.799,1.035 3.3,-3.581 H 1.916 Z"
         style="fill:#000000;fill-opacity:1;fill-rule:nonzero;stroke:none"
         transform="matrix(1.3333333,0,0,-1.3333333,588.2108,823.414)" />
    </g>
    <g
       id="g356"
       transform="matrix(0.26458333,0,0,0.26458333,-37.777487,-63.863747)">
      <path
         id="path357"
         d="M 0,0 C 0.815,0 1.476,0.772 1.476,2.693 1.476,4.614 0.815,5.387 0,5.387 -0.815,5.387 -1.476,4.615 -1.476,2.693 -1.476,0.772 -0.815,0 0,0 m 2.672,2.693 c 0,-0.271 0.058,-3.912 -2.685,-3.912 -2.744,0 -2.686,3.641 -2.686,3.912 0,0.271 -0.058,3.912 2.686,3.912 2.743,0 2.685,-3.641 2.685,-3.912"
         style="fill:#000000;fill-opacity:1;fill-rule:nonzero;stroke:none"
         transform="matrix(1.3333333,0,0,-1.3333333,531.594,826.7392)" />
    </g>
    <g
       id="g357"
       transform="matrix(0.26458333,0,0,0.26458333,-37.777487,-63.863747)">
      <path
         id="path358"
         d="m 0,0 1.078,-1.648 -0.269,-1.018 -0.36,-0.09 z m -7.009,-3.686 -0.33,-0.058 0.299,1.348 0.27,-0.57 z M -8.074,0.62 C -8.319,0.489 -8.599,0.414 -8.895,0.414 c -0.14,0 -0.277,0.017 -0.407,0.048 l -0.912,-0.971 -0.93,-2.966 -1.766,-1.677 0.509,-0.479 2.096,1.378 0.27,1.106 0.33,-1.018 -1.348,-4.162 0.478,-0.151 -1.408,-5.301 0.751,-0.27 2.005,5.301 0.809,-0.06 2.217,-5.151 0.779,0.24 -1.587,5.001 c 0.16,0.036 0.319,0.081 0.48,0.117 0.142,0.032 0.281,0.078 0.419,0.123 l -0.809,2.486 2.006,0.479 -0.418,2.038 H -5.81 l 0.328,0.509 -0.059,0.119 1.736,0.481 0.449,0.779 0.66,-2.757 -1.287,-4.074 -0.361,-6.2 1.409,-0.121 0.509,5.152 0.869,1.918 0.658,-2.636 2.456,-4.583 1.288,0.63 -2.306,4.762 0.24,4.104 2.456,0.718 -0.66,2.396 -0.627,-0.088 0.209,1.288 -2.008,3.804 -1.079,0.479 -0.192,0.45 C -1.43,3.418 -1.816,3.276 -2.234,3.276 c -0.063,0 -0.124,0.004 -0.185,0.01 L -2.487,2.905 -3.326,2.127 -4.374,-1.408 -5.901,-2.038 -6.77,-0.121 Z m 5.84,6.092 c -0.889,0 -1.609,-0.72 -1.609,-1.609 0,-0.888 0.72,-1.609 1.609,-1.609 0.888,0 1.609,0.721 1.609,1.609 0,0.889 -0.721,1.609 -1.609,1.609 M -7.37,2.157 c 0,-0.842 -0.683,-1.525 -1.525,-1.525 -0.843,0 -1.525,0.683 -1.525,1.525 0,0.843 0.682,1.525 1.525,1.525 0.842,0 1.525,-0.682 1.525,-1.525"
         style="fill:#000000;fill-opacity:1;fill-rule:nonzero;stroke:none"
         transform="matrix(1.3333333,0,0,-1.3333333,434.68813,808.69733)" />
    </g>
    <g
       id="g358"
       transform="matrix(0.26458333,0,0,0.26458333,-37.777487,-63.863747)">
      <path
         id="path359"
         d="m 0,0 1.078,-1.648 -0.269,-1.018 -0.36,-0.09 z m -7.01,-3.686 -0.33,-0.058 0.3,1.348 0.27,-0.57 z M -8.075,0.62 c -0.244,-0.131 -0.524,-0.206 -0.82,-0.206 -0.141,0 -0.277,0.017 -0.408,0.048 l -0.911,-0.971 -0.93,-2.966 -1.766,-1.677 0.509,-0.479 2.096,1.378 0.27,1.106 0.33,-1.018 -1.348,-4.162 0.478,-0.151 -1.408,-5.301 0.751,-0.27 2.005,5.301 0.809,-0.06 2.217,-5.151 0.779,0.24 -1.588,5.001 c 0.161,0.036 0.32,0.081 0.481,0.117 0.142,0.032 0.281,0.078 0.419,0.123 l -0.809,2.486 2.006,0.479 -0.419,2.038 H -5.81 l 0.327,0.509 -0.058,0.119 1.736,0.481 0.449,0.779 0.66,-2.757 -1.288,-4.074 -0.36,-6.2 1.409,-0.121 0.509,5.152 0.869,1.918 0.658,-2.636 2.456,-4.583 1.288,0.63 -2.306,4.762 0.24,4.104 2.456,0.718 -0.66,2.396 -0.627,-0.088 0.209,1.288 -2.008,3.804 -1.079,0.479 -0.192,0.45 C -1.43,3.418 -1.816,3.276 -2.234,3.276 c -0.063,0 -0.125,0.004 -0.185,0.01 L -2.487,2.905 -3.326,2.127 -4.374,-1.408 -5.901,-2.038 -6.77,-0.121 Z m 5.841,6.092 c -0.889,0 -1.609,-0.72 -1.609,-1.609 0,-0.888 0.72,-1.609 1.609,-1.609 0.888,0 1.609,0.721 1.609,1.609 0,0.889 -0.721,1.609 -1.609,1.609 M -7.37,2.157 c 0,-0.842 -0.683,-1.525 -1.525,-1.525 -0.843,0 -1.525,0.683 -1.525,1.525 0,0.843 0.682,1.525 1.525,1.525 0.842,0 1.525,-0.682 1.525,-1.525"
         style="fill:#000000;fill-opacity:1;fill-rule:nonzero;stroke:none"
         transform="matrix(1.3333333,0,0,-1.3333333,653.60573,808.69733)" />
    </g>
  </g>
</svg>
