<?xml version="1.0" encoding="utf-8"?>
<!-- Generator: Adobe Illustrator 27.7.0, SVG Export Plug-In . SVG Version: 6.00 Build 0)  -->
<svg version="1.1" id="For_Sheets" xmlns="http://www.w3.org/2000/svg" xmlns:xlink="http://www.w3.org/1999/xlink" x="0px" y="0px"
	 viewBox="0 0 216.5 302.9" style="enable-background:new 0 0 216.5 302.9;" xml:space="preserve">
<style type="text/css">
	.st0{fill:#FFFFFF;}
</style>
<g>
	<g>
		<path class="st0" d="M13.7,302.8c-7.5,0-13.6-6.1-13.6-13.6V13.7c0-7.5,6.1-13.6,13.6-13.6h189c7.5,0,13.6,6.1,13.6,13.6v275.4
			c0,7.5-6.1,13.6-13.6,13.6H13.7z"/>
		<path d="M202.8,0.2c7.4,0,13.5,6.1,13.5,13.5v275.4c0,7.4-6.1,13.5-13.5,13.5h-189c-7.4,0-13.5-6.1-13.5-13.5V13.7
			c0-7.4,6.1-13.5,13.5-13.5H202.8 M202.8,0h-189C6.2,0,0,6.2,0,13.7v275.4c0,7.6,6.2,13.8,13.8,13.8h189c7.6,0,13.8-6.2,13.8-13.8
			V13.7C216.5,6.2,210.3,0,202.8,0L202.8,0z"/>
	</g>
	<path d="M202.8,299.1h-189c-5.4,0-9.9-4.5-9.9-9.9V13.8c0-5.4,4.5-9.9,9.9-9.9h189c5.4,0,9.9,4.5,9.9,9.9v275.4
		C212.6,294.6,208.2,299.1,202.8,299.1z M9.2,92.1v197.1c0,2.5,2,4.5,4.5,4.5h189c2.5,0,4.5-2,4.5-4.5V92.1H9.2z"/>
	<g>
		<path d="M19,236c0-5,2.8-10.1,7-12.9l1.5,2.4c-2.2,1.7-3.3,3.2-4.4,5.4c1-0.2,1.5-0.2,2.1-0.2c3.3,0,6.1,2.5,6.1,5.5
			c0,3.1-2.6,5.5-6.1,5.5C21.7,241.8,19,239.2,19,236z M21.9,236.2c0,1.4,1.5,2.7,3.2,2.7s3.3-1.2,3.3-2.7c0-1.4-1.5-2.6-3.3-2.6
			C23.4,233.6,21.9,234.8,21.9,236.2z"/>
		<path d="M33.8,228.8c0-0.9,0.8-1.6,1.7-1.6c0.8,0,1.6,0.7,1.6,1.6c0,0.9-0.7,1.6-1.6,1.6C34.5,230.5,33.8,229.7,33.8,228.8z
			 M33.8,236c0-0.8,0.8-1.6,1.7-1.6c0.8,0,1.6,0.8,1.6,1.6c0,0.9-0.7,1.6-1.6,1.6C34.5,237.7,33.8,236.9,33.8,236z"/>
		<path d="M45.8,233.1v-2.8h0.7c1.1,0,1.8-0.6,1.8-1.8c0-1.4-1.1-2.4-2.6-2.4c-1.2,0-2.1,0.6-2.7,1.8l-2.7-1c0.9-2.3,3-3.7,5.3-3.7
			c3,0,5.5,2.5,5.5,5.5c0,1.1-0.3,1.8-1,3c1.3,1.2,1.7,2.1,1.7,3.9c0,3.7-2.5,6.3-6.2,6.3c-2.9,0-5.3-1.9-6-4.8l2.8-0.8
			c0.4,1.8,1.6,2.7,3.4,2.7c1.9,0,3.2-1.3,3.2-3.2c0-0.7-0.3-2.7-2.4-2.7H45.8z"/>
		<path d="M81,236.4h-5.7l-1.8,5.1h-3l6.2-18h2.9l6.2,18h-3L81,236.4z M76.4,233.5H80l-1.8-5.1L76.4,233.5z"/>
		<path d="M99.7,231l-4.2,10.4L91.4,231v10.4h-2.8v-18h2.8l4.2,10.1l4.2-10.1h2.8v18h-2.8V231z"/>
		<path d="M105.3,231.2h6.3v2.8h-6.3V231.2z"/>
		<path d="M117.8,239.4c2.1-1.7,3.3-3.2,4.4-5.5c-1,0.2-1.5,0.2-2.1,0.2c-3.4,0-6.1-2.5-6.1-5.5c0-3.1,2.7-5.5,6.1-5.5
			c3.4,0,6.1,2.5,6.1,5.7c0,4.9-2.8,10-6.9,12.9L117.8,239.4z M116.8,228.6c0,1.5,1.4,2.6,3.2,2.6c1.8,0,3.3-1.1,3.3-2.6
			c0-1.4-1.5-2.6-3.3-2.6C118.3,226,116.8,227.2,116.8,228.6z"/>
		<path d="M128.7,228.8c0-0.9,0.8-1.6,1.7-1.6c0.8,0,1.6,0.7,1.6,1.6c0,0.9-0.7,1.6-1.6,1.6C129.5,230.5,128.7,229.7,128.7,228.8z
			 M128.7,236c0-0.8,0.8-1.6,1.7-1.6c0.8,0,1.6,0.8,1.6,1.6c0,0.9-0.7,1.6-1.6,1.6C129.5,237.7,128.7,236.9,128.7,236z"/>
		<path d="M140.7,233.1v-2.8h0.7c1.1,0,1.8-0.6,1.8-1.8c0-1.4-1.1-2.4-2.6-2.4c-1.2,0-2.1,0.6-2.7,1.8l-2.7-1c0.9-2.3,3-3.7,5.3-3.7
			c3,0,5.5,2.5,5.5,5.5c0,1.1-0.3,1.8-1,3c1.3,1.2,1.7,2.1,1.7,3.9c0,3.7-2.5,6.3-6.2,6.3c-2.9,0-5.3-1.9-6-4.8l2.8-0.8
			c0.4,1.8,1.6,2.7,3.4,2.7c1.9,0,3.2-1.3,3.2-3.2c0-0.7-0.3-2.7-2.4-2.7H140.7z"/>
		<path d="M175.9,236.4h-5.7l-1.8,5.1h-3l6.2-18h2.9l6.2,18h-3L175.9,236.4z M171.3,233.5h3.6l-1.8-5.1L171.3,233.5z"/>
		<path d="M194.7,231l-4.2,10.4l-4.2-10.4v10.4h-2.8v-18h2.8l4.2,10.1l4.2-10.1h2.8v18h-2.8V231z"/>
	</g>
	<g>
		<path d="M74.1,263.4l-4.2,10.4l-4.2-10.4v10.4h-2.8v-18h2.8l4.2,10.1l4.2-10.1h2.8v18h-2.8V263.4z"/>
		<path d="M100.5,261.7v12.2h-2.8v-18h2.8l6.6,11.5v-11.5h2.8v18h-2.5L100.5,261.7z"/>
		<path d="M112.6,263.6h6.3v2.8h-6.3V263.6z"/>
		<path d="M124.4,263.1h5.2v2.9h-5.2v7.8h-2.8v-18h11.2v2.8h-8.3V263.1z"/>
		<path d="M138.3,266v7.8h-2.8v-18h6.5c4.1,0,5.4,3.3,5.4,5.1c0,0.7-0.2,3.3-2.8,4.5l3.2,8.4h-3.1l-2.9-7.8H138.3z M141.9,263.1
			c2.3,0,2.6-1.6,2.6-2.2c0-0.8-0.6-2.2-2.5-2.2h-3.7v4.4H141.9z"/>
		<path d="M150.8,255.8h2.9v18h-2.9V255.8z"/>
	</g>
	<g>
		<path d="M86.4,177.5v24.4h-5.7v-36h5.7l13.1,23v-23h5.7v36h-5.1L86.4,177.5z"/>
		<path d="M113.8,165.9h5.7v30.7h16.6v5.3h-22.3V165.9z"/>
		<path d="M156.7,201.8H151v-15.7l-12.7-20.3h6.9l8.6,13.9l8.8-13.9h6.7l-12.6,20.3V201.8z"/>
	</g>
	<g>
		<g>
			<path class="st0" d="M73,31.3v9.4h-3.4V19.1h7.8c5,0,6.4,4,6.4,6.1c0,0.8-0.3,4-3.4,5.4l3.8,10.1h-3.7l-3.5-9.4H73z M77.3,27.9
				c2.7,0,3.1-2,3.1-2.7c0-0.9-0.7-2.7-3-2.7H73v5.3H77.3z"/>
			<path class="st0" d="M87.9,19.1h3.5v21.6h-3.5V19.1z"/>
			<path class="st0" d="M104,18.8c3.5,0,5.4,1.3,6.9,4.8l-3.3,1.3c-0.9-1.9-1.8-2.6-3.5-2.6c-4.7,0-4.5,7.2-4.5,7.7
				c0,0.8-0.2,7.7,4,7.7c2.2,0,3.8-1.4,3.8-3.3v-0.9h-3.9V30h7.3v4.3c0,3.9-2.9,6.8-6.8,6.8c-0.8,0-7.9,0.6-7.9-11.2
				C96.1,28.3,96.2,18.8,104,18.8z"/>
			<path class="st0" d="M126.9,31.4H119v9.4h-3.4V19.1h3.4v8.7h7.9v-8.7h3.4v21.6h-3.4V31.4z"/>
			<path class="st0" d="M141.9,40.7h-3.4V22.2h-4.9v-3h13.4v3h-5V40.7z"/>
		</g>
	</g>
	<g>
		<path class="st0" d="M73.5,55.2h3.4v18.4h10v3.2H73.5V55.2z"/>
		<path class="st0" d="M100.7,70.7h-6.8l-2.1,6.1h-3.7l7.5-21.6h3.4l7.5,21.6h-3.7L100.7,70.7z M95.2,67.2h4.3l-2.1-6.1L95.2,67.2z"
			/>
		<path class="st0" d="M113.2,62.1v14.6h-3.4V55.2h3.4l7.9,13.8V55.2h3.4v21.6h-3L113.2,62.1z"/>
		<path class="st0" d="M129.6,55.2h12.7v3.4h-9.3v5.3h6.3v3.5h-6.3v5.9h10v3.5h-13.4V55.2z"/>
	</g>
	<g>
		<path d="M37.1,148.7v-36h13.6c5.7,0,10,3.9,10,9.1c0,3.5-1.6,6.2-5,8.1c3.8,1.8,5.9,4.8,5.9,8.7c0,2.6-1.4,10.1-10.9,10.1H37.1z
			 M51.1,118.4h-8.3v8.8H50c3.2,0,5-2.8,5-5.2C55,119.7,53.7,118.4,51.1,118.4z M42.8,133.1v9.9h8.6c2.9,0,4.4-1.4,4.4-4.2
			s-1.9-5.7-4.9-5.7H42.8z"/>
		<path d="M67.7,135.9v-23.1h5.7v23.1c0,4.7,2.7,7.7,6.6,7.7s6.6-3,6.6-7.7v-23.1h5.7v23.1c0,11.4-8.7,13.5-12.3,13.5
			C76.8,149.4,67.7,147.5,67.7,135.9z"/>
		<path d="M98.3,140.3l5.4-2c1.5,3.4,4.3,5.3,7.7,5.3c3.3,0,5.6-2.3,5.6-5.3c0-4.8-5.6-5.6-10.2-7.5c-2.1-0.9-6.9-3-6.9-9
			c0-7.1,4.8-9.7,11.2-9.7c5.1,0,8.5,2.9,10.2,7.3l-5.1,1.5c-0.6-1.4-2.6-3.2-5.3-3.2c-5.1,0-5.6,2.7-5.6,3.6c0,3.4,2.9,4,7.6,5.5
			c4.8,1.5,9.8,3.7,9.8,11.4c0,7.8-6.3,11-11.4,11C105.3,149.4,100.7,145.7,98.3,140.3z"/>
		<path d="M129,112.8h21.2v5.7h-15.5v8.8h10.5v5.8h-10.5v9.9h16.6v5.8H129V112.8z"/>
		<path d="M154.9,140.3l5.4-2c1.5,3.4,4.3,5.3,7.7,5.3c3.3,0,5.6-2.3,5.6-5.3c0-4.8-5.6-5.6-10.2-7.5c-2.1-0.9-6.9-3-6.9-9
			c0-7.1,4.8-9.7,11.2-9.7c5.1,0,8.5,2.9,10.2,7.3l-5.1,1.5c-0.6-1.4-2.6-3.2-5.3-3.2c-5.1,0-5.6,2.7-5.6,3.6c0,3.4,2.9,4,7.6,5.5
			c4.8,1.5,9.8,3.7,9.8,11.4c0,7.8-6.3,11-11.4,11C161.8,149.4,157.3,145.7,154.9,140.3z"/>
	</g>
	<g>
		<path d="M72.8,183.9c0,1.3,0.3,18.6-12.8,18.6s-12.8-17.3-12.8-18.6c0-1.3-0.3-18.6,12.8-18.6S72.8,182.6,72.8,183.9z M60,196.7
			c3.9,0,7-3.7,7-12.8c0-9.1-3.1-12.8-7-12.8c-3.9,0-7,3.7-7,12.8C53,193,56.2,196.7,60,196.7z"/>
	</g>
	<g>
		<path d="M68.2,232.4c0,0.6,0.1,9.3-6.4,9.3s-6.4-8.7-6.4-9.3c0-0.6-0.1-9.3,6.4-9.3S68.2,231.8,68.2,232.4z M61.8,238.9
			c1.9,0,3.5-1.8,3.5-6.4c0-4.6-1.6-6.4-3.5-6.4c-1.9,0-3.5,1.8-3.5,6.4C58.3,237,59.9,238.9,61.8,238.9z"/>
	</g>
	<g>
		<path d="M163.1,232.4c0,0.6,0.1,9.3-6.4,9.3s-6.4-8.7-6.4-9.3c0-0.6-0.1-9.3,6.4-9.3S163.1,231.8,163.1,232.4z M156.7,238.9
			c1.9,0,3.5-1.8,3.5-6.4c0-4.6-1.6-6.4-3.5-6.4c-1.9,0-3.5,1.8-3.5,6.4C153.2,237,154.8,238.9,156.7,238.9z"/>
	</g>
	<g>
		<path d="M93.7,264.8c0,0.6,0.1,9.3-6.4,9.3c-6.5,0-6.4-8.7-6.4-9.3c0-0.6-0.1-9.3,6.4-9.3C93.8,255.5,93.7,264.2,93.7,264.8z
			 M87.3,271.3c1.9,0,3.5-1.8,3.5-6.4c0-4.6-1.6-6.4-3.5-6.4c-1.9,0-3.5,1.8-3.5,6.4C83.8,269.4,85.4,271.3,87.3,271.3z"/>
	</g>
</g>
</svg>
