<?xml version="1.0" encoding="UTF-8" standalone="no"?>
<!-- Created with Inkscape (http://www.inkscape.org/) -->
<svg width="21.329649mm" height="42.482555mm" viewBox="0 0 21.329649 42.482555" version="1.1" id="svg1" inkscape:version="1.3 (0e150ed, 2023-07-21)" sodipodi:docname="MUTCD_R3-1d.svg" xmlns:inkscape="http://www.inkscape.org/namespaces/inkscape" xmlns:sodipodi="http://sodipodi.sourceforge.net/DTD/sodipodi-0.dtd" xmlns="http://www.w3.org/2000/svg" xmlns:svg="http://www.w3.org/2000/svg">
  <sodipodi:namedview id="namedview1" pagecolor="#ffffff" bordercolor="#666666" borderopacity="1.0" inkscape:showpageshadow="2" inkscape:pageopacity="0.0" inkscape:pagecheckerboard="0" inkscape:deskcolor="#d1d1d1" inkscape:document-units="mm" inkscape:zoom="1.1893044" inkscape:cx="-19.339035" inkscape:cy="85.764418" inkscape:window-width="1440" inkscape:window-height="449" inkscape:window-x="0" inkscape:window-y="23" inkscape:window-maximized="0" inkscape:current-layer="layer1"/>
  <defs id="defs1">
    <clipPath clipPathUnits="userSpaceOnUse" id="clipPath786">
      <path d="M 21.29,60.838 H 545.711 V 743 H 21.29 Z" transform="translate(-256.6303,-594.56962)" id="path786"/>
    </clipPath>
    <clipPath clipPathUnits="userSpaceOnUse" id="clipPath788">
      <path d="M 21.29,60.838 H 545.711 V 743 H 21.29 Z" transform="translate(-309.09661,-714.86762)" id="path788"/>
    </clipPath>
    <clipPath clipPathUnits="userSpaceOnUse" id="clipPath790">
      <path d="M 21.29,60.838 H 545.711 V 743 H 21.29 Z" transform="translate(-256.63021,-595.63132)" id="path790"/>
    </clipPath>
    <clipPath clipPathUnits="userSpaceOnUse" id="clipPath792">
      <path d="M 21.29,60.838 H 545.711 V 743 H 21.29 Z" transform="translate(-256.63021,-597.19282)" id="path792"/>
    </clipPath>
    <clipPath clipPathUnits="userSpaceOnUse" id="clipPath794">
      <path d="M 21.29,60.838 H 545.711 V 743 H 21.29 Z" transform="translate(-287.63431,-640.77022)" id="path794"/>
    </clipPath>
    <clipPath clipPathUnits="userSpaceOnUse" id="clipPath796">
      <path d="M 21.29,60.838 H 545.711 V 743 H 21.29 Z" transform="translate(-277.86661,-637.32332)" id="path796"/>
    </clipPath>
    <clipPath clipPathUnits="userSpaceOnUse" id="clipPath798">
      <path d="M 21.29,60.838 H 545.711 V 743 H 21.29 Z" transform="translate(-261.62701,-626.54902)" id="path798"/>
    </clipPath>
    <clipPath clipPathUnits="userSpaceOnUse" id="clipPath800">
      <path d="M 21.29,60.838 H 545.711 V 743 H 21.29 Z" transform="translate(-263.09341,-695.25512)" id="path800"/>
    </clipPath>
    <clipPath clipPathUnits="userSpaceOnUse" id="clipPath802">
      <path d="M 21.29,60.838 H 545.711 V 743 H 21.29 Z" transform="translate(-270.17881,-701.21622)" id="path802"/>
    </clipPath>
    <clipPath clipPathUnits="userSpaceOnUse" id="clipPath804">
      <path d="M 21.29,60.838 H 545.711 V 743 H 21.29 Z" transform="translate(-274.77981,-698.83151)" id="path804"/>
    </clipPath>
    <clipPath clipPathUnits="userSpaceOnUse" id="clipPath806">
      <path d="M 21.29,60.838 H 545.711 V 743 H 21.29 Z" transform="translate(-283.342,-700.26932)" id="path806"/>
    </clipPath>
    <clipPath clipPathUnits="userSpaceOnUse" id="clipPath808">
      <path d="M 21.29,60.838 H 545.711 V 743 H 21.29 Z" transform="translate(-294.54231,-699.98822)" id="path808"/>
    </clipPath>
    <clipPath clipPathUnits="userSpaceOnUse" id="clipPath810">
      <path d="M 21.29,60.838 H 545.711 V 743 H 21.29 Z" transform="translate(-299.70421,-697.59982)" id="path810"/>
    </clipPath>
    <clipPath clipPathUnits="userSpaceOnUse" id="clipPath812">
      <path d="M 21.29,60.838 H 545.711 V 743 H 21.29 Z" transform="translate(-270.33141,-679.20292)" id="path812"/>
    </clipPath>
    <clipPath clipPathUnits="userSpaceOnUse" id="clipPath814">
      <path d="M 21.29,60.838 H 545.711 V 743 H 21.29 Z" transform="translate(-278.33011,-677.76632)" id="path814"/>
    </clipPath>
    <clipPath clipPathUnits="userSpaceOnUse" id="clipPath816">
      <path d="M 21.29,60.838 H 545.711 V 743 H 21.29 Z" transform="translate(-284.26281,-687.75982)" id="path816"/>
    </clipPath>
    <clipPath clipPathUnits="userSpaceOnUse" id="clipPath818">
      <path d="M 21.29,60.838 H 545.711 V 743 H 21.29 Z" transform="translate(-295.72161,-683.72741)" id="path818"/>
    </clipPath>
    <clipPath clipPathUnits="userSpaceOnUse" id="clipPath820">
      <path d="M 21.29,60.838 H 545.711 V 743 H 21.29 Z" transform="translate(-261.42711,-664.20512)" id="path820"/>
    </clipPath>
    <clipPath clipPathUnits="userSpaceOnUse" id="clipPath822">
      <path d="M 21.29,60.838 H 545.711 V 743 H 21.29 Z" transform="translate(-278.18371,-660.27761)" id="path822"/>
    </clipPath>
    <clipPath clipPathUnits="userSpaceOnUse" id="clipPath824">
      <path d="M 21.29,60.838 H 545.711 V 743 H 21.29 Z" transform="translate(-285.3754,-661.71422)" id="path824"/>
    </clipPath>
    <clipPath clipPathUnits="userSpaceOnUse" id="clipPath826">
      <path d="M 21.29,60.838 H 545.711 V 743 H 21.29 Z" transform="translate(-292.6834,-667.04452)" id="path826"/>
    </clipPath>
    <clipPath clipPathUnits="userSpaceOnUse" id="clipPath828">
      <path d="M 21.29,60.838 H 545.711 V 743 H 21.29 Z" transform="translate(-299.6092,-662.62241)" id="path828"/>
    </clipPath>
  </defs>
  <g inkscape:label="Layer 1" inkscape:groupmode="layer" id="layer1" transform="translate(-91.281249,-114.56458)">
    <path id="path785" d="M 0,0 C -2.136,0 -3.873,1.737 -3.873,3.873 V 116.3 c 0,2.136 1.737,3.873 3.873,3.873 h 52.466 c 2.136,0 3.873,-1.737 3.873,-3.873 V 3.873 C 56.339,1.737 54.602,0 52.466,0 Z" style="fill:#ffffff;fill-opacity:1;fill-rule:nonzero;stroke:none" transform="matrix(0.35277776,0,0,-0.35277776,92.691547,157.00304)" clip-path="url(#clipPath786)"/>
    <path id="path787" d="m 0,0 h -52.466 c -2.205,0 -3.998,-1.793 -3.998,-3.998 v -112.428 c 0,-2.204 1.793,-3.997 3.998,-3.997 H 0 c 2.204,0 3.998,1.793 3.998,3.997 V -3.998 C 3.998,-1.793 2.204,0 0,0 m 0,-0.25 c 2.061,0 3.748,-1.686 3.748,-3.748 v -112.428 c 0,-2.061 -1.687,-3.747 -3.748,-3.747 h -52.466 c -2.062,0 -3.748,1.686 -3.748,3.747 V -3.998 c 0,2.062 1.686,3.748 3.748,3.748 z" style="fill:#000000;fill-opacity:1;fill-rule:nonzero;stroke:none" transform="matrix(0.35277776,0,0,-0.35277776,111.20049,114.56458)" clip-path="url(#clipPath788)"/>
    <path id="path789" d="m 0,0 c -1.55,0 -2.811,1.261 -2.811,2.811 v 112.428 c 0,1.55 1.261,2.81 2.811,2.81 h 52.466 c 1.55,0 2.811,-1.26 2.811,-2.81 V 2.811 C 55.277,1.261 54.016,0 52.466,0 Z" style="fill:#000000;fill-opacity:1;fill-rule:nonzero;stroke:none" transform="matrix(0.35277776,0,0,-0.35277776,92.691513,156.6285)" clip-path="url(#clipPath790)"/>
    <path id="path791" d="m 0,0 c -0.689,0 -1.249,0.56 -1.249,1.249 v 112.428 c 0,0.689 0.56,1.249 1.249,1.249 h 52.466 c 0.689,0 1.25,-0.56 1.25,-1.249 V 1.249 C 53.716,0.56 53.155,0 52.466,0 Z" style="fill:#ffffff;fill-opacity:1;fill-rule:nonzero;stroke:none" transform="matrix(0.35277776,0,0,-0.35277776,92.691513,156.07764)" clip-path="url(#clipPath792)"/>
    <path id="path793" d="M 0,0 2.568,-6.726 0,-13.452 c -0.437,-1.145 0.86,-2.172 1.874,-1.484 l 12.093,8.21 -12.093,8.21 C 0.86,2.172 -0.437,1.145 0,0" style="fill:#000000;fill-opacity:1;fill-rule:nonzero;stroke:none" transform="matrix(0.35277776,0,0,-0.35277776,103.62907,140.7045)" clip-path="url(#clipPath794)"/>
    <path id="path795" d="m 0,0 c -2.76,0 -4.997,-2.237 -4.997,-4.997 v -21.08 H 1.405 V -6.402 H 12.336 V 0 Z" style="fill:#000000;fill-opacity:1;fill-rule:nonzero;stroke:none" transform="matrix(0.35277776,0,0,-0.35277776,100.18324,141.92049)" clip-path="url(#clipPath796)"/>
    <path id="path797" d="M 0,0 C 0,4.964 1.703,9.53 4.557,13.146 L 34.382,-16.679 C 30.766,-19.533 26.2,-21.236 21.236,-21.236 9.508,-21.236 0,-11.729 0,0 m 42.473,0 c 0,-4.964 -1.704,-9.53 -4.557,-13.146 L 8.09,16.679 c 3.616,2.854 8.182,4.557 13.146,4.557 11.729,0 21.237,-9.507 21.237,-21.236 M 21.236,26.233 C 6.748,26.233 -4.997,14.488 -4.997,0 c 0,-14.488 11.745,-26.233 26.233,-26.233 14.489,0 26.234,11.745 26.234,26.233 0,14.488 -11.745,26.233 -26.234,26.233" style="fill:#c0311a;fill-opacity:1;fill-rule:evenodd;stroke:none" transform="matrix(0.35277776,0,0,-0.35277776,94.454273,145.72142)" clip-path="url(#clipPath798)"/>
    <path id="path799" d="M 0,0 H -1.585 V 8.591 H -3.874 V 9.994 H 2.325 V 8.591 H 0 Z" style="fill:#000000;fill-opacity:1;fill-rule:nonzero;stroke:none" transform="matrix(0.35277776,0,0,-0.35277776,94.971586,121.48344)" clip-path="url(#clipPath800)"/>
    <path id="path801" d="m 0,0 c 1.254,0 1.452,0.904 1.452,1.227 0,0.436 -0.327,1.228 -1.376,1.228 H -1.985 V 0 Z m -1.985,-1.611 v -4.35 H -3.561 V 4.032 H 0.054 C 2.345,4.032 3.032,2.2 3.032,1.225 3.032,0.854 2.894,-0.607 1.48,-1.277 L 3.242,-5.961 H 1.523 l -1.613,4.35 z" style="fill:#000000;fill-opacity:1;fill-rule:nonzero;stroke:none" transform="matrix(0.35277776,0,0,-0.35277776,97.471157,119.38049)" clip-path="url(#clipPath802)"/>
    <path id="path803" d="M 0,0 V 6.417 H 1.576 V 0 c 0,-1.298 0.737,-2.139 1.824,-2.139 1.087,0 1.824,0.841 1.824,2.139 V 6.417 H 6.803 V 0 C 6.803,-3.16 4.378,-3.751 3.401,-3.751 2.512,-3.751 0,-3.228 0,0" style="fill:#000000;fill-opacity:1;fill-rule:nonzero;stroke:none" transform="matrix(0.35277776,0,0,-0.35277776,99.094289,120.22176)" clip-path="url(#clipPath804)"/>
    <path id="path805" d="m 0,0 c 0,1.405 0.282,5.153 3.681,5.153 1.449,0 2.436,-0.59 3.122,-2.034 L 5.33,2.488 C 4.819,3.223 4.564,3.54 3.682,3.54 1.591,3.54 1.614,0.626 1.614,-0.001 c 0,-0.62 -0.039,-3.578 2.138,-3.578 0.764,0 1.202,0.461 1.543,1.158 L 6.803,-2.982 C 6.241,-4.372 5.296,-5.189 3.786,-5.189 0.19,-5.189 0,-1.217 0,0" style="fill:#000000;fill-opacity:1;fill-rule:nonzero;stroke:none" transform="matrix(0.35277776,0,0,-0.35277776,102.11484,119.71454)" clip-path="url(#clipPath806)"/>
    <path id="path807" d="M 0,0 -1.056,-1.298 V -4.733 H -2.638 V 5.26 h 1.582 V 1.298 L 2.111,5.26 h 2.04 L 1.056,1.368 4.362,-4.733 H 2.533 Z" style="fill:#000000;fill-opacity:1;fill-rule:nonzero;stroke:none" transform="matrix(0.35277776,0,0,-0.35277776,106.06606,119.8137)" clip-path="url(#clipPath808)"/>
    <path id="path809" d="m 0,0 1.506,0.56 c 0.421,-0.946 1.195,-1.471 2.14,-1.471 0.911,0 1.545,0.63 1.545,1.471 0,1.335 -1.545,1.54 -2.84,2.066 -0.596,0.245 -1.926,0.84 -1.926,2.486 0,1.962 1.33,2.697 3.116,2.697 1.401,0 2.346,-0.806 2.837,-2.031 L 4.977,5.358 C 4.745,5.809 4.261,6.233 3.421,6.233 2.212,6.233 1.961,5.574 1.961,5.224 1.961,4.291 2.767,4.106 4.075,3.695 5.406,3.277 6.803,2.663 6.803,0.525 6.802,-1.631 5.052,-2.521 3.646,-2.521 1.93,-2.521 0.666,-1.507 0,0" style="fill:#000000;fill-opacity:1;fill-rule:nonzero;stroke:none" transform="matrix(0.35277776,0,0,-0.35277776,107.88706,120.65628)" clip-path="url(#clipPath810)"/>
    <path id="path811" d="M 0,0 C 1.077,0 1.951,1.021 1.951,3.56 1.951,6.1 1.077,7.12 0,7.12 -1.077,7.12 -1.951,6.101 -1.951,3.56 -1.951,1.021 -1.077,0 0,0 m 3.533,3.56 c 0,-0.358 0.076,-5.172 -3.55,-5.172 -3.627,0 -3.551,4.814 -3.551,5.172 0,0.359 -0.076,5.171 3.551,5.171 3.626,0 3.55,-4.812 3.55,-5.171" style="fill:#000000;fill-opacity:1;fill-rule:nonzero;stroke:none" transform="matrix(0.35277776,0,0,-0.35277776,97.524992,127.14629)" clip-path="url(#clipPath812)"/>
    <path id="path813" d="m 0,0 -3.167,9.994 h 1.654 L 0.633,3.332 2.744,9.994 H 4.433 L 1.232,0 Z" style="fill:#000000;fill-opacity:1;fill-rule:nonzero;stroke:none" transform="matrix(0.35277776,0,0,-0.35277776,100.34675,127.6531)" clip-path="url(#clipPath814)"/>
    <path id="path815" d="M 0,0 H 5.883 V -1.578 H 1.576 V -4.032 H 4.483 V -5.645 H 1.576 V -8.381 H 6.198 V -9.994 H 0 Z" style="fill:#000000;fill-opacity:1;fill-rule:nonzero;stroke:none" transform="matrix(0.35277776,0,0,-0.35277776,102.43968,124.12761)" clip-path="url(#clipPath816)"/>
    <path id="path817" d="m 0,0 c 1.254,0 1.451,0.904 1.451,1.227 0,0.436 -0.326,1.228 -1.375,1.228 H -1.985 V 0 Z m -1.985,-1.611 v -4.35 H -3.561 V 4.032 H 0.054 C 2.345,4.032 3.032,2.2 3.032,1.225 3.032,0.854 2.894,-0.607 1.48,-1.277 L 3.242,-5.961 H 1.523 l -1.613,4.35 z" style="fill:#000000;fill-opacity:1;fill-rule:nonzero;stroke:none" transform="matrix(0.35277776,0,0,-0.35277776,106.48209,125.55015)" clip-path="url(#clipPath818)"/>
    <path id="path819" d="M 0,0 H 2.852 V 3.753 Z M 4.437,-3.927 H 2.852 v 2.489 h -4.964 v 0.946 L 2.852,6.066 H 4.437 V 0 H 5.388 V -1.438 H 4.437 Z" style="fill:#000000;fill-opacity:1;fill-rule:nonzero;stroke:none" transform="matrix(0.35277776,0,0,-0.35277776,94.383753,132.43719)" clip-path="url(#clipPath820)"/>
    <path id="path821" d="M 0,0 H -1.585 V 8.591 H -3.874 V 9.994 H 2.325 V 8.591 H 0 Z" style="fill:#000000;fill-opacity:1;fill-rule:nonzero;stroke:none" transform="matrix(0.35277776,0,0,-0.35277776,100.29511,133.82272)" clip-path="url(#clipPath822)"/>
    <path id="path823" d="M 0,0 C 1.077,0 1.951,1.021 1.951,3.56 1.951,6.1 1.077,7.12 0,7.12 -1.077,7.12 -1.951,6.101 -1.951,3.56 -1.951,1.021 -1.077,0 0,0 m 3.533,3.56 c 0,-0.358 0.076,-5.171 -3.55,-5.171 -3.627,0 -3.551,4.813 -3.551,5.171 0,0.359 -0.076,5.171 3.551,5.171 3.626,0 3.55,-4.812 3.55,-5.171" style="fill:#000000;fill-opacity:1;fill-rule:nonzero;stroke:none" transform="matrix(0.35277776,0,0,-0.35277776,102.83218,133.31592)" clip-path="url(#clipPath824)"/>
    <path id="path825" d="M 0,0 V -6.767 H -1.576 V 3.227 H 0 L 3.648,-3.155 V 3.227 H 5.226 V -6.767 H 3.824 Z" style="fill:#000000;fill-opacity:1;fill-rule:nonzero;stroke:none" transform="matrix(0.35277776,0,0,-0.35277776,105.41028,131.43551)" clip-path="url(#clipPath826)"/>
    <path id="path827" d="m 0,0 1.506,0.56 c 0.421,-0.946 1.195,-1.471 2.14,-1.471 0.911,0 1.545,0.63 1.545,1.471 0,1.335 -1.545,1.54 -2.84,2.066 -0.596,0.245 -1.926,0.84 -1.926,2.486 0,1.962 1.33,2.697 3.116,2.697 1.401,0 2.346,-0.806 2.837,-2.032 L 4.977,5.358 C 4.746,5.809 4.261,6.233 3.421,6.233 2.212,6.233 1.961,5.574 1.961,5.224 1.961,4.291 2.767,4.106 4.075,3.695 5.406,3.277 6.803,2.663 6.803,0.525 6.802,-1.631 5.052,-2.521 3.646,-2.521 1.93,-2.521 0.666,-1.507 0,0" style="fill:#000000;fill-opacity:1;fill-rule:nonzero;stroke:none" transform="matrix(0.35277776,0,0,-0.35277776,107.85355,132.99553)" clip-path="url(#clipPath828)"/>
  </g>
</svg>
