<?xml version="1.0" encoding="UTF-8" standalone="no"?>
<!-- Created with Inkscape (http://www.inkscape.org/) -->

<svg
   width="19.226389mm"
   height="19.226389mm"
   viewBox="0 0 19.226389 19.226389"
   version="1.1"
   id="svg1"
   inkscape:version="1.3 (0e150ed, 2023-07-21)"
   sodipodi:docname="MUTCD_R9-15.svg"
   xmlns:inkscape="http://www.inkscape.org/namespaces/inkscape"
   xmlns:sodipodi="http://sodipodi.sourceforge.net/DTD/sodipodi-0.dtd"
   xmlns="http://www.w3.org/2000/svg"
   xmlns:svg="http://www.w3.org/2000/svg">
  <sodipodi:namedview
     id="namedview1"
     pagecolor="#ffffff"
     bordercolor="#666666"
     borderopacity="1.0"
     inkscape:showpageshadow="2"
     inkscape:pageopacity="0.0"
     inkscape:pagecheckerboard="0"
     inkscape:deskcolor="#d1d1d1"
     inkscape:document-units="mm"
     inkscape:zoom="2.8284271"
     inkscape:cx="-12.020815"
     inkscape:cy="36.062446"
     inkscape:window-width="1440"
     inkscape:window-height="431"
     inkscape:window-x="0"
     inkscape:window-y="23"
     inkscape:window-maximized="0"
     inkscape:current-layer="layer1" />
  <defs
     id="defs1">
    <clipPath
       clipPathUnits="userSpaceOnUse"
       id="clipPath707">
      <path
         d="M 67.248,40 H 571.752 V 505.4 H 67.248 Z"
         transform="translate(-335.99221,-59.372904)"
         id="path707" />
    </clipPath>
  </defs>
  <g
     inkscape:label="Layer 1"
     inkscape:groupmode="layer"
     id="layer1"
     transform="translate(-105.03958,-111.12499)">
    <g
       id="g705"
       transform="matrix(0.26458333,0,0,0.26458333,-11.815307,-128.14727)">
      <path
         id="path706"
         d="m 0,0 c -2.55,0 -4.625,2.075 -4.625,4.625 v 45 c 0,2.55 2.075,4.625 4.625,4.625 h 45 c 2.55,0 4.625,-2.075 4.625,-4.625 v -45 C 49.625,2.075 47.55,0 45,0 Z"
         style="fill:#ffffff;fill-opacity:1;fill-rule:nonzero;stroke:none"
         transform="matrix(1.3333333,0,0,-1.3333333,447.9896,976.83613)"
         clip-path="url(#clipPath707)" />
    </g>
    <g
       id="g707"
       transform="matrix(0.26458333,0,0,0.26458333,-11.815307,-128.14727)">
      <path
         id="path708"
         d="m 0,0 h -45 c -2.619,0 -4.75,-2.131 -4.75,-4.75 v -45 c 0,-2.619 2.131,-4.75 4.75,-4.75 H 0 c 2.619,0 4.75,2.131 4.75,4.75 v 45 C 4.75,-2.131 2.619,0 0,0 m 0,-0.25 c 2.485,0 4.5,-2.015 4.5,-4.5 v -45 c 0,-2.485 -2.015,-4.5 -4.5,-4.5 h -45 c -2.485,0 -4.5,2.015 -4.5,4.5 v 45 c 0,2.485 2.015,4.5 4.5,4.5 z"
         style="fill:#000000;fill-opacity:1;fill-rule:nonzero;stroke:none"
         transform="matrix(1.3333333,0,0,-1.3333333,507.9896,904.33613)" />
    </g>
    <g
       id="g708"
       transform="matrix(0.26458333,0,0,0.26458333,-11.815307,-128.14727)">
      <path
         id="path709"
         d="M 0,0 -1.736,2.836 2.357,4.437 3.1,2.712 Z m 19.983,-4.419 c -0.064,0.913 -0.308,1.793 -0.747,2.601 -0.214,0.394 -0.465,0.774 -0.752,1.122 -0.248,0.299 -0.524,0.558 -0.814,0.818 l 1.057,3.144 H 16.741 L 14.759,0.556 H 8.556 C 8.62,1.707 8.642,2.845 8.547,3.995 8.413,5.655 8.078,7.305 7.607,8.902 7.354,9.759 7.044,10.6 6.692,11.422 6.377,12.156 6.016,12.856 5.643,13.559 L 2.48,11.033 2.046,7.272 -2.542,4.745 -2.23,8.507 h -0.437 l -2.603,-3.762 -7.006,-3.266 -0.56,-3.081 c 0.504,-0.582 1.026,-1.137 1.595,-1.653 0.695,-0.629 1.429,-1.191 2.213,-1.705 0.534,-0.35 1.087,-0.661 1.65,-0.955 l -0.187,-0.618 -2.601,-1.048 c -0.369,-0.148 -0.726,-0.238 -1.119,-0.186 -0.838,0.115 -1.717,0.469 -2.231,1.171 l -0.994,1.357 -0.743,-0.432 c 0.351,-0.693 0.763,-1.356 1.355,-1.874 0.752,-0.657 1.727,-1.084 2.738,-1.084 H 1.18 v 0.987 h -4.715 l -1.92,0.677 0.062,0.679 h 25.236 c 0.115,0.622 0.185,1.231 0.14,1.867"
         style="fill:#000000;fill-opacity:1;fill-rule:evenodd;stroke:none"
         transform="matrix(1.3333333,0,0,-1.3333333,474.8268,940.01453)" />
      <path
         id="path710"
         d="m 0,0 c 0.303,-0.161 0.613,-0.339 0.941,-0.442 0.267,-0.084 0.545,-0.133 0.824,-0.133 h 9.86 c 0.423,0 0.642,0.184 0.967,0.427 0.26,0.193 0.545,0.372 0.784,0.588 0.177,0.159 0.333,0.339 0.479,0.526 H -1.086 C -0.786,0.582 -0.434,0.234 0,0"
         style="fill:#000000;fill-opacity:1;fill-rule:evenodd;stroke:none"
         transform="matrix(1.3333333,0,0,-1.3333333,479.66547,950.83613)" />
    </g>
    <g
       id="g710"
       transform="matrix(0.26458333,0,0,0.26458333,-11.815307,-128.14727)">
      <path
         id="path711"
         d="M 0,0 C 0.683,-1.348 -2.586,-0.944 -0.151,-1.888 0.678,-2.209 1.478,-1.977 2.133,-1.392 2.701,-0.885 2.906,0.001 2.731,0.716 2.483,1.74 1.608,2.39 0.554,2.313 -0.375,2.246 -1.225,1.519 -1.444,0.612 -1.544,0.199 -0.185,0.364 0,0"
         style="fill:#000000;fill-opacity:1;fill-rule:evenodd;stroke:none"
         transform="matrix(1.3333333,0,0,-1.3333333,477.42573,920.25413)" />
    </g>
    <g
       id="g711"
       transform="matrix(0.26458333,0,0,0.26458333,-11.815307,-128.14727)">
      <path
         id="path712"
         d="m 0,0 c 0,-0.827 -0.673,-1.5 -1.5,-1.5 h -45 c -0.827,0 -1.5,0.673 -1.5,1.5 v 45 c 0,0.827 0.673,1.5 1.5,1.5 h 45 C -0.673,46.5 0,45.827 0,45 Z m -1.5,48.375 h -45 c -1.86,0 -3.375,-1.515 -3.375,-3.375 V 0 c 0,-1.861 1.515,-3.375 3.375,-3.375 h 45 c 1.861,0 3.375,1.514 3.375,3.375 v 45 c 0,1.86 -1.514,3.375 -3.375,3.375"
         style="fill:#000000;fill-opacity:1;fill-rule:nonzero;stroke:none"
         transform="matrix(1.3333333,0,0,-1.3333333,509.9896,970.66947)" />
      <path
         id="path713"
         d="m 0,0 -26.86,26.859 c 3.256,2.571 7.369,4.105 11.839,4.105 10.562,0 19.125,-8.563 19.125,-19.125 C 4.104,7.368 2.57,3.256 0,0 m -15.021,-7.286 c -10.563,0 -19.125,8.562 -19.125,19.125 0,4.47 1.534,8.582 4.104,11.839 L -3.183,-3.183 c -3.255,-2.57 -7.368,-4.103 -11.838,-4.103 m 0,42.75 c -13.047,0 -23.625,-10.578 -23.625,-23.625 0,-13.048 10.578,-23.625 23.625,-23.625 13.047,0 23.625,10.577 23.625,23.625 0,13.047 -10.578,23.625 -23.625,23.625"
         style="fill:#c03019;fill-opacity:1;fill-rule:nonzero;stroke:none"
         transform="matrix(1.3333333,0,0,-1.3333333,498.01813,956.45467)" />
    </g>
  </g>
</svg>
