<svg xmlns="http://www.w3.org/2000/svg" width="2160" height="2160">
    <rect width="2160" height="2160" rx="135" style="fill:#fff"/>
    <path d="M2025 2.817c72.886 0 132.183 59.297 132.183 132.183v1890c0 72.886-59.297 132.183-132.183 132.183H135c-72.886 0-132.183-59.297-132.183-132.183V135C2.817 62.114 62.114 2.817 135 2.817h1890M2025 0H135A135 135 0 0 0 0 135v1890a135 135 0 0 0 135 135h1890a135 135 0 0 0 135-135V135A135 135 0 0 0 2025 0Z"/>
    <path d="M2025 90a45.051 45.051 0 0 1 45 45v1890a45.051 45.051 0 0 1-45 45H135a45.051 45.051 0 0 1-45-45V135a45.051 45.051 0 0 1 45-45h1890m0-56.25H135A101.37 101.37 0 0 0 33.75 135v1890A101.37 101.37 0 0 0 135 2126.25h1890A101.37 101.37 0 0 0 2126.25 2025V135A101.37 101.37 0 0 0 2025 33.75Z"/>
    <path d="m479.869 472.868-67.042 202.07-67.041-202.07v202.07h-51.834V314.983h51.834l67.041 202.07 67.042-202.07h51.833v359.955H479.87ZM603.994 494.196c0-188.482 87.423-185.467 106.816-185.467s105.647-2.88 105.647 185.601c0 189.831-86.254 186.862-105.647 186.862s-106.816 2.97-106.816-186.996Zm106.231-134.983c-10.259 0-56.648-2.115-56.648 135.252 0 138.358 46.39 136.243 56.648 136.243s56.603 2.115 56.603-136.243c0-137.367-46.344-135.252-56.603-135.252ZM941.645 433.723v241.215H889.99V314.983h51.654l98.312 215.973V314.983h51.7v359.955H1052.6ZM1144.395 479.168h126.074v48.009h-126.074ZM1370.113 456.445h72.216v49.27h-72.216v169.223h-51.923V314.983h183.667v50.528h-131.744ZM1652.92 505.714h-49.178v169.224h-51.654V314.983h107.13c56.47 0 94.535 37.885 94.535 95.973 0 42.925-17.684 74.51-51.7 87.154l51.654 176.828h-52.868Zm-49.178-140.203v90.934h52.912c30.327 0 46.66-16.423 46.66-45.49 0-27.806-18.897-45.444-46.615-45.444ZM1815.636 314.983h50.394v359.955h-50.394ZM259.371 1259.938c0-86.255 25.827-211.609 91.294-309.427H214.96v-50.528h201.666v50.529c-75.771 85.984-106.547 220.966-106.547 309.426ZM613.965 1161.445h-77.21l-24.073 98.493H460.76l89.898-359.955h50.709l89.854 359.955h-51.924Zm-64.567-50.528h51.923L574.73 1007.34ZM924.874 1057.868l-67.041 202.07-67.042-202.07v202.07h-51.834V899.983h51.834l67.042 202.069 67.041-202.07h51.834v359.956h-51.834ZM1028.2 1064.168h126.075v48.009H1028.2ZM1189.247 1005.99c0-68.122 39.236-112.261 101.462-112.261 65.737 0 100.203 43.87 100.203 128.864 0 88.368-45.58 175.477-124.319 237.345l-29.111-40.36c30.505-22.768 63.352-66.997 76.085-101.012a176.916 176.916 0 0 1-22.858 1.26c-62.137 0-101.462-43.105-101.462-113.837Zm50.71.09c0 39.1 18.627 63.126 50.752 63.126 30.507 0 50.755-22.766 50.755-58.132 0-40.765-20.384-66.862-50.755-66.862-31.63 0-50.753 23.983-50.753 61.868ZM1575.35 1161.445h-77.21l-24.072 98.493h-51.924l89.9-359.955h50.708l89.854 359.955h-51.924Zm-64.567-50.528h51.924l-26.591-103.577ZM1887.511 1057.868l-67.041 202.07-67.042-202.07v202.07h-51.834V899.983h51.834l67.042 202.069 67.041-202.07h51.834v359.956h-51.834ZM390.224 1844.938h-51.968v-87.155H188.559v-36.58l149.697-236.22h51.968v224.791h21.597v48.01h-21.597Zm-138.223-135.164h86.255v-135.118ZM529.66 1687.052v157.886h-51.653v-359.955h107.132c56.737 0 94.533 40.585 94.533 101.057 0 65.692-34.061 101.012-94.534 101.012Zm0-49.269h52.914c30.236 0 46.659-18.898 46.659-51.743 0-30.326-19.078-50.529-46.615-50.529H529.66ZM936.776 1642.867l-67.041 202.07-67.042-202.07v202.07h-51.834v-359.954h51.834l67.042 202.069 67.041-202.07h51.834v359.956h-51.834ZM1039.003 1649.168h126.074v48.009h-126.074ZM1234.209 1844.938c0-86.255 25.828-211.61 91.294-309.427H1189.8v-50.528h201.665v50.529c-75.77 85.983-106.547 220.966-106.547 309.426ZM1519.298 1687.052v157.886h-51.654v-359.955h107.131c56.739 0 94.534 40.585 94.534 101.057 0 65.692-34.061 101.012-94.534 101.012Zm0-49.269h52.913c30.237 0 46.659-18.898 46.659-51.743 0-30.326-19.077-50.529-46.614-50.529h-52.958ZM1927.664 1642.867l-67.041 202.07-67.043-202.07v202.07h-51.833v-359.954h51.833l67.042 202.069 67.041-202.07h51.834v359.956h-51.834Z"/>
</svg>
