<?xml version="1.0" encoding="UTF-8" standalone="no"?>
<svg
   xmlns:dc="http://purl.org/dc/elements/1.1/"
   xmlns:cc="http://creativecommons.org/ns#"
   xmlns:rdf="http://www.w3.org/1999/02/22-rdf-syntax-ns#"
   xmlns:svg="http://www.w3.org/2000/svg"
   xmlns="http://www.w3.org/2000/svg"
   xmlns:sodipodi="http://sodipodi.sourceforge.net/DTD/sodipodi-0.dtd"
   xmlns:inkscape="http://www.inkscape.org/namespaces/inkscape"
   width="61.070946mm"
   height="30.623932mm"
   viewBox="0 0 61.070946 30.623932"
   version="1.1"
   id="svg1412"
   inkscape:version="1.0rc1 (09960d6f05, 2020-04-09)"
   sodipodi:docname="R3-33L.svg">
  <defs
     id="defs1406">
    <clipPath
       id="clipPath1174"
       clipPathUnits="userSpaceOnUse">
      <path
         inkscape:connector-curvature="0"
         id="path1172"
         d="m 27.25,31.35 h 513 v 517.222 h -513 z" />
    </clipPath>
    <clipPath
       id="clipPath1186"
       clipPathUnits="userSpaceOnUse">
      <path
         inkscape:connector-curvature="0"
         id="path1184"
         d="M 31.361,31.35 H 536.138 V 536.227 H 31.361 Z" />
    </clipPath>
    <clipPath
       id="clipPath1198"
       clipPathUnits="userSpaceOnUse">
      <path
         inkscape:connector-curvature="0"
         id="path1196"
         d="m 27.25,31.35 h 513 v 517.222 h -513 z" />
    </clipPath>
  </defs>
  <sodipodi:namedview
     id="base"
     pagecolor="#ffffff"
     bordercolor="#666666"
     borderopacity="1.0"
     inkscape:pageopacity="0.0"
     inkscape:pageshadow="2"
     inkscape:zoom="2.8"
     inkscape:cx="115.40966"
     inkscape:cy="57.871991"
     inkscape:document-units="mm"
     inkscape:current-layer="layer1"
     inkscape:document-rotation="0"
     showgrid="false"
     inkscape:window-width="1600"
     inkscape:window-height="836"
     inkscape:window-x="0"
     inkscape:window-y="0"
     inkscape:window-maximized="1" />
  <metadata
     id="metadata1409">
    <rdf:RDF>
      <cc:Work
         rdf:about="">
        <dc:format>image/svg+xml</dc:format>
        <dc:type
           rdf:resource="http://purl.org/dc/dcmitype/StillImage" />
        <dc:title />
      </cc:Work>
    </rdf:RDF>
  </metadata>
  <g
     inkscape:label="Layer 1"
     inkscape:groupmode="layer"
     id="layer1"
     transform="translate(-62.446669,-243.9797)"
     style="display:inline">
    <g
       id="g1168"
       transform="matrix(0.35277777,0,0,-0.35277777,-65.619952,305.16763)">
      <g
         clip-path="url(#clipPath1174)"
         id="g1170">
        <g
           transform="translate(535.8885,92.2831)"
           id="g1176">
          <path
             inkscape:connector-curvature="0"
             id="path1178"
             style="fill:#ffffff;fill-opacity:1;fill-rule:nonzero;stroke:none"
             d="m 0,0 c 0,-2.98 -2.416,-5.395 -5.395,-5.395 h -161.827 c -2.979,0 -5.393,2.415 -5.393,5.395 v 75.519 c 0,2.979 2.414,5.394 5.393,5.394 H -5.395 C -2.416,80.913 0,78.498 0,75.519 Z" />
        </g>
      </g>
    </g>
    <g
       id="g1180"
       transform="matrix(0.35277777,0,0,-0.35277777,-65.619952,305.16763)">
      <g
         clip-path="url(#clipPath1186)"
         id="g1182">
        <g
           transform="translate(535.8885,92.2831)"
           id="g1188">
          <path
             inkscape:connector-curvature="0"
             id="path1190"
             style="fill:none;stroke:#231f20;stroke-width:0.5;stroke-linecap:butt;stroke-linejoin:miter;stroke-miterlimit:4;stroke-dasharray:none;stroke-opacity:1"
             d="m 0,0 c 0,-2.98 -2.416,-5.395 -5.395,-5.395 h -161.827 c -2.979,0 -5.393,2.415 -5.393,5.395 v 75.519 c 0,2.979 2.414,5.394 5.393,5.394 H -5.395 C -2.416,80.913 0,78.498 0,75.519 Z" />
        </g>
      </g>
    </g>
    <g
       id="g1192"
       transform="matrix(0.35277777,0,0,-0.35277777,-65.619952,305.16763)">
      <g
         clip-path="url(#clipPath1198)"
         id="g1194">
        <g
           transform="translate(532.2925,92.2831)"
           id="g1200">
          <path
             inkscape:connector-curvature="0"
             id="path1202"
             style="fill:#231f20;fill-opacity:1;fill-rule:nonzero;stroke:none"
             d="m 0,0 c 0,-0.993 -0.806,-1.799 -1.799,-1.799 h -161.827 c -0.991,0 -1.798,0.806 -1.798,1.799 v 75.519 c 0,0.991 0.807,1.798 1.798,1.798 H -1.799 C -0.806,77.317 0,76.51 0,75.519 Z m -1.799,79.415 h -161.827 c -2.147,0 -3.895,-1.748 -3.895,-3.896 V 0 c 0,-2.149 1.748,-3.897 3.895,-3.897 H -1.799 c 2.149,0 3.897,1.748 3.897,3.897 v 75.519 c 0,2.148 -1.748,3.896 -3.897,3.896" />
        </g>
        <g
           transform="translate(434.2885,104.6461)"
           id="g1204">
          <path
             inkscape:connector-curvature="0"
             id="path1206"
             style="fill:#231f20;fill-opacity:1;fill-rule:nonzero;stroke:none"
             d="m 0,0 c -1.076,-0.942 -2.556,-1.481 -4.172,-1.481 -3.297,0 -5.72,1.952 -6.998,4.846 l 2.893,1.076 c 0.808,-1.816 2.289,-2.826 4.105,-2.826 1.75,0 2.961,1.211 2.961,2.826 0,2.558 -2.961,2.961 -5.451,3.971 -1.144,0.471 -3.701,1.615 -3.701,4.778 0,3.769 2.557,5.182 5.99,5.182 2.692,0 4.508,-1.548 5.451,-3.903 l -2.693,-0.808 c 0,0 -0.672,1.615 -2.826,1.683 -1.412,0.067 -3.096,-0.471 -2.961,-2.221 C -7.133,9.557 1.885,11.911 1.885,4.374 1.885,2.625 1.211,1.077 0,0" />
        </g>
        <g
           transform="translate(418.9825,106.5641)"
           id="g1208">
          <path
             inkscape:connector-curvature="0"
             id="path1210"
             style="fill:#231f20;fill-opacity:1;fill-rule:nonzero;stroke:none"
             d="m 0,0 c -1.01,-1.885 -3.299,-3.231 -5.654,-3.231 -2.355,0 -4.643,1.346 -5.653,3.231 -0.538,1.143 -0.875,2.49 -0.875,3.971 v 12.315 h 3.029 V 3.971 c 0,-2.491 1.412,-4.106 3.499,-4.106 2.086,0 3.499,1.615 3.499,4.106 v 12.315 h 3.03 V 3.971 C 0.875,2.49 0.537,1.143 0,0" />
        </g>
        <g
           transform="translate(445.1365,120.1581)"
           id="g1212">
          <path
             inkscape:connector-curvature="0"
             id="path1214"
             style="fill:#231f20;fill-opacity:1;fill-rule:nonzero;stroke:none"
             d="M 0,0 V -16.488 H -3.027 V 0 H -7.402 V 2.692 H 4.441 V 0 Z" />
        </g>
        <g
           transform="translate(399.1535,103.67)"
           id="g1216">
          <path
             inkscape:connector-curvature="0"
             id="path1218"
             style="fill:#231f20;fill-opacity:1;fill-rule:nonzero;stroke:none"
             d="M 0,0 V 11.104 L -4.441,0 -8.882,11.104 V 0 h -3.029 v 19.18 h 3.029 L -4.441,8.412 0,19.18 H 3.03 V 0 Z" />
        </g>
        <g
           transform="translate(507.4765,120.1581)"
           id="g1220">
          <path
             inkscape:connector-curvature="0"
             id="path1222"
             style="fill:#231f20;fill-opacity:1;fill-rule:nonzero;stroke:none"
             d="M 0,0 V -16.488 H -3.028 V 0 H -7.403 V 2.692 H 4.441 V 0 Z" />
        </g>
        <path
           inkscape:connector-curvature="0"
           id="path1224"
           style="fill:#231f20;fill-opacity:1;fill-rule:nonzero;stroke:none"
           d="m 494.09,122.85 h 3.096 v -19.18 h -3.096 z" />
        <g
           transform="translate(463.9626,103.67)"
           id="g1226">
          <path
             inkscape:connector-curvature="0"
             id="path1228"
             style="fill:#231f20;fill-opacity:1;fill-rule:nonzero;stroke:none"
             d="M 0,0 V 19.18 H 11.307 V 16.152 H 3.029 V 11.441 H 8.615 V 8.345 H 3.029 V 3.096 h 8.883 V 0 Z" />
        </g>
        <g
           transform="translate(487.4095,103.67)"
           id="g1230">
          <path
             inkscape:connector-curvature="0"
             id="path1232"
             style="fill:#231f20;fill-opacity:1;fill-rule:nonzero;stroke:none"
             d="M 0,0 -3.095,6.393 -6.191,0 h -3.434 l 4.78,9.893 -4.442,9.287 h 3.432 l 2.76,-5.721 2.757,5.721 H 3.096 L -1.414,9.893 3.432,0 Z" />
        </g>
      </g>
    </g>
    <g
       transform="matrix(0.84125054,0,0,-0.72051206,116.55693,250.95229)"
       id="g322-3"
       style="display:inline">
      <path
         inkscape:connector-curvature="0"
         id="path324-6"
         style="fill:#231f20;fill-opacity:1;fill-rule:evenodd;stroke:none"
         d="M 0,0 V 1.338 H -4.418 V -8.26 h 4.793 v 1.338 h -3.441 v 3.166 h 1.943 v 1.338 H -3.066 V 0 Z M -10.349,-1.827 -7.47,-8.26 h 1.023 v 9.598 h -1.354 v -5.741 l -2.548,5.741 h -1.352 V -8.26 h 1.352 z m -5.311,-2.461 h -1.353 l 0.677,2.777 z m 0.332,-1.338 0.647,-2.634 h 1.353 l -2.346,9.598 h -1.31 L -19.33,-8.26 h 1.354 l 0.646,2.634 z m -7.974,6.964 h -1.354 V -8.26 h 4.793 v 1.281 h -3.439 z m -9.616,-1.281 v 1.281 h -4.793 V 0.057 h 1.742 V -8.26 h 1.354 V 0.057 Z M -38.789,0 v 1.338 h -4.793 V -8.26 h 1.352 v 4.504 h 1.871 v 1.338 H -42.23 V 0 Z m -6.795,0 v 1.338 h -4.418 V -8.26 h 4.793 v 1.338 h -3.439 v 3.166 h 1.941 v 1.338 h -1.941 V 0 Z m -9.484,1.338 h -1.354 V -8.26 h 4.793 v 1.281 h -3.439 z" />
    </g>
  </g>
</svg>
