<?xml version="1.0" encoding="UTF-8" standalone="no"?>
<!-- Created with Inkscape (http://www.inkscape.org/) -->

<svg
   version="1.1"
   id="svg2019"
   xml:space="preserve"
   width="746.70721"
   height="994.70709"
   viewBox="0 0 746.70721 994.70709"
   sodipodi:docname="MUTCD R10-10b.svg"
   inkscape:version="1.1 (c68e22c387, 2021-05-23)"
   xmlns:inkscape="http://www.inkscape.org/namespaces/inkscape"
   xmlns:sodipodi="http://sodipodi.sourceforge.net/DTD/sodipodi-0.dtd"
   xmlns="http://www.w3.org/2000/svg"
   xmlns:svg="http://www.w3.org/2000/svg"><defs
     id="defs2023" /><sodipodi:namedview
     id="namedview2021"
     pagecolor="#ffffff"
     bordercolor="#666666"
     borderopacity="1.0"
     inkscape:pageshadow="2"
     inkscape:pageopacity="0.0"
     inkscape:pagecheckerboard="0"
     showgrid="false"
     inkscape:zoom="0.75700677"
     inkscape:cx="373.18028"
     inkscape:cy="497.35355"
     inkscape:window-width="1920"
     inkscape:window-height="1001"
     inkscape:window-x="-9"
     inkscape:window-y="-9"
     inkscape:window-maximized="1"
     inkscape:current-layer="g2025" /><g
     id="g2025"
     inkscape:groupmode="layer"
     inkscape:label="MUTCD R10-10b"
     transform="matrix(1.3333333,0,0,1.3333333,0,2.2867678e-5)"><g
       id="g2027"><g
         id="g2029"><path
           d="m 559.84,699.238 c 0,25.633 -20.969,46.602 -46.602,46.602 H 46.793 C 21.16,745.84 0.188,724.871 0.188,699.238 V 46.789 C 0.188,21.156 21.16,0.188 46.793,0.188 h 466.445 c 25.633,0 46.602,20.968 46.602,46.601 z"
           style="fill:#ffffff;fill-opacity:1;fill-rule:nonzero;stroke:#000000;stroke-width:0.377197;stroke-linecap:butt;stroke-linejoin:miter;stroke-miterlimit:4;stroke-dasharray:none;stroke-opacity:1"
           id="path2031" /></g><path
         d="M 513.613,12.578 H 46.418 c -18.797,0 -34.18,15.379 -34.18,34.176 v 652.519 c 0,18.801 15.383,34.18 34.18,34.18 h 467.195 c 18.797,0 34.18,-15.379 34.18,-34.18 V 46.754 c 0,-18.797 -15.383,-34.176 -34.18,-34.176 m 15.535,686.695 c 0,8.547 -6.992,15.539 -15.535,15.539 H 46.418 c -8.543,0 -15.535,-6.992 -15.535,-15.539 V 46.754 c 0,-8.543 6.992,-15.531 15.535,-15.531 h 467.195 c 8.543,0 15.535,6.988 15.535,15.531 z"
         style="fill:#000000;fill-opacity:1;fill-rule:nonzero;stroke:none"
         id="path2033" /><path
         d="m 389.438,526.129 -8.762,35.84 h 17.965 z m 22.351,87.41 -8.766,-34.09 h -26.73 l -8.324,34.09 H 350 l 31.113,-124.562 h 17.528 l 31.113,124.562 z"
         style="fill:#000000;fill-opacity:1;fill-rule:nonzero;stroke:none"
         id="path2035" /><path
         d="m 139.961,488.977 h 17.438 v 124.562 h -17.438 z"
         style="fill:#000000;fill-opacity:1;fill-rule:nonzero;stroke:none"
         id="path2037" /><path
         d="M 444.344,613.539 V 488.977 h 17.972 v 107.957 h 45.59 v 16.605 z"
         style="fill:#000000;fill-opacity:1;fill-rule:nonzero;stroke:none"
         id="path2039" /><path
         d="m 323.098,613.539 -38.379,-83.477 v 83.477 H 266.832 V 488.977 h 17.887 l 34.015,74.738 v -74.738 h 17.887 v 124.562 z"
         style="fill:#000000;fill-opacity:1;fill-rule:nonzero;stroke:none"
         id="path2041" /><path
         d="m 213.438,131.469 -15.309,15.5 9.812,7.504 c -4.546,15.05 -15.281,50.414 -22.23,71.73 -12.082,-6.973 -26.098,-10.965 -41.051,-10.965 -45.406,0 -82.215,36.809 -82.215,82.215 0,45.406 36.809,82.219 82.215,82.219 45.406,0 82.219,-36.813 82.219,-82.219 0,-25.551 -11.656,-48.379 -29.941,-63.457 0.851,-2.566 1.773,-5.402 2.75,-8.437 l 88.468,96.289 c -0.019,0.254 -0.035,0.507 -0.035,0.765 0,5.215 4.141,9.457 9.313,9.625 l 6.195,23.555 h -6.32 V 362 h 19.972 v -6.207 h -7.949 L 302.77,330.84 c 1.339,-0.82 2.46,-1.957 3.265,-3.309 l 29.789,-6.418 c 10.164,33.875 41.578,58.559 78.754,58.559 45.41,0 82.219,-36.813 82.219,-82.219 0,-45.406 -36.809,-82.215 -82.219,-82.215 -16.199,0 -31.308,4.688 -44.043,12.782 l -28.816,-38.309 3.777,-13.523 c 18.07,-1.555 28.063,-8.422 27.449,-15.067 -0.593,-6.441 -18.519,-1.613 -38.453,-1.359 -5.469,0.07 -34.472,-0.063 -34.304,5.261 0.175,5.454 18.718,9.899 31.714,11.141 l -2.316,8.285 h -117.07 c 2.496,-8.14 4.777,-15.652 6.539,-21.476 1.507,-4.981 2.636,-8.727 3.195,-10.578 l -8.516,-6.512 4.024,-4.071 h 31.355 v -10.343 z m -4.954,66.082 h 117.438 l -29.996,107.273 -4.047,-15.39 h 6.32 v -6.204 h -19.972 v 6.204 h 7.949 l 4.015,15.269 -85.941,-93.539 c 1.395,-4.453 2.82,-9.043 4.234,-13.613 z m 128.789,8.043 22.805,30.308 c -17,15.063 -27.715,37.055 -27.715,61.551 0,3.68 0.246,7.301 0.715,10.856 l -26.094,5.617 z M 144.66,230.75 c 13.098,0 25.309,3.777 35.613,10.297 -8.191,17.769 -24.168,36.914 -35.679,47.703 -4.778,0.035 -8.641,3.918 -8.641,8.703 0,4.809 3.899,8.707 8.707,8.707 4.445,0 8.11,-3.332 8.637,-7.633 5.633,-5.277 12.984,-13.039 20.258,-22.339 5.41,-6.918 12.148,-16.485 17.289,-26.864 12.644,12.141 20.519,29.215 20.519,48.129 0,36.84 -29.863,66.703 -66.703,66.703 -36.84,0 -66.703,-29.863 -66.703,-66.703 0,-36.84 29.863,-66.703 66.703,-66.703 z m 269.918,0 c 36.84,0 66.707,29.863 66.707,66.703 0,36.84 -29.867,66.703 -66.707,66.703 -29.726,0 -54.914,-19.453 -63.527,-46.32 l 59.301,-12.774 c 1.25,0.7 2.695,1.098 4.226,1.098 4.813,0 8.707,-3.898 8.707,-8.707 0,-4.195 -2.969,-7.699 -6.922,-8.523 l -36.465,-48.465 c 10.106,-6.164 21.977,-9.715 34.68,-9.715 z m -45.14,17.598 33.75,44.859 -54.883,11.82 c -0.278,-2.488 -0.43,-5.011 -0.43,-7.574 0,-19.43 8.309,-36.914 21.563,-49.105 z"
         style="fill:#000000;fill-opacity:1;fill-rule:evenodd;stroke:none"
         id="path2043" /><path
         d="m 123.09,579.027 c 0,-17.738 -10.41,-31.164 -34.219,-45.035 -9.109,-5.18 -11.711,-8.656 -11.711,-14.722 0,-8.215 6.5,-14.293 14.735,-14.293 7.793,0 13.847,5.644 14.273,14.293 h 16.922 c -0.445,-18.618 -13.887,-32.043 -31.195,-32.043 -17.758,0 -31.606,14.293 -31.606,32.043 0,10.832 5.188,20.359 15.137,27.281 25.129,16.894 18.203,12.117 20.804,14.738 7.348,5.613 9.938,10.813 9.938,17.738 0,9.969 -7.773,18.618 -17.297,18.618 -12.133,0 -17.324,-10.825 -17.324,-21.219 H 54.211 c 0,20.359 13,38.613 34.66,38.613 19.059,0 34.219,-16.086 34.219,-36.012"
         style="fill:#000000;fill-opacity:1;fill-rule:evenodd;stroke:none"
         id="path2045" /><path
         d="m 242.5,597.668 c -4.859,10.785 -14.395,17.371 -26.812,17.371 -14.391,0 -25.184,-7.312 -31.126,-21.211 -3.777,-9.144 -6.292,-26.512 -6.292,-42.418 0,-17.375 1.433,-29.808 5.574,-41.691 4.316,-12.801 16.551,-22.492 30.586,-22.492 17.453,0 30.769,12.984 31.488,31.269 h -17.453 c -0.36,-8.23 -5.938,-13.898 -14.395,-13.898 -5.937,0 -10.617,3.109 -13.675,9.144 -3.235,6.031 -5.579,19.93 -5.579,34.555 0,10.422 0.723,21.215 2.524,30.719 2.519,12.25 8.633,18.652 17.988,18.652 9,0 13.137,-6.031 13.137,-19.016 v -8.23 h -13.676 v -17.371 h 31.129 v 25.601 c 0,8.594 -0.898,13.711 -3.418,19.016"
         style="fill:#000000;fill-opacity:1;fill-rule:nonzero;stroke:none"
         id="path2047" /></g></g></svg>
