<svg id="R3-51bP" xmlns="http://www.w3.org/2000/svg" width="66in" height="24in" viewBox="0 0 4752 1728">
  <g>
    <rect width="4752" height="1728" rx="135" fill="#fff"/>
    <path d="M4617,2.2535A132.7472,132.7472,0,0,1,4749.7466,135V1593A132.7474,132.7474,0,0,1,4617,1725.7465H135A132.7468,132.7468,0,0,1,2.2535,1593V135A132.7467,132.7467,0,0,1,135,2.2535H4617M4617,0H135A135,135,0,0,0,0,135V1593a135,135,0,0,0,135,135H4617a135,135,0,0,0,135-135V135A135,135,0,0,0,4617,0Z"/>
  </g>
  <path d="M4617,45H135a90.097,90.097,0,0,0-90,90V1593a90.097,90.097,0,0,0,90,90H4617a90.0971,90.0971,0,0,0,90-90V135A90.0971,90.0971,0,0,0,4617,45Zm36,1548a36.0413,36.0413,0,0,1-36,36H135a36.0414,36.0414,0,0,1-36-36V135a36.0414,36.0414,0,0,1,36-36H4617a36.0413,36.0413,0,0,1,36,36Z"/>
  <g id="NO TRUCKS">
    <path d="M573.1034,449.8942V747H497.016V315.0033h76.0332l199.5332,285.01v-285.01h74.5752V747H780.1425Z"/>
    <path d="M966.3764,530.2459c0-137.9153,69.8769-222.7483,183.8188-222.7483,107.57,0,179.2827,88.7753,179.2827,221.29,0,134.8373-69.3369,225.7727-179.2827,225.7727C1022.5912,754.5606,966.3764,638.6765,966.3764,530.2459Zm79.0034,0c0,92.4476,39.4746,146.9864,104.8154,146.9864,82.0273,0,101.7915-80.3507,101.7915-146.9864,0-91.7454-37.6382-145.5294-101.7915-145.5294C1084.8544,384.7165,1045.38,439.3105,1045.38,530.2459Z"/>
    <path d="M1889.3389,747h-75.71V390.8189H1689.48V315.0033h324.0086v75.8156h-124.15Z"/>
    <path d="M2372.9657,562.105,2451.7536,747h-86.3475L2295.69,577.2258H2178.9389V747h-77.33V315.0033H2305.842c89.2646,0,136.84,70.5233,136.84,131.8671C2442.6822,495.3619,2416.9232,537.86,2372.9657,562.105ZM2178.9389,392.3306V499.898h124.42c37.8549,0,62.1012-21.7617,62.1012-53.0276,0-33.3718-24.301-54.54-62.1559-54.54Z"/>
    <path d="M2730.28,675.5585c45.3071,0,97.6347-31.9133,97.6347-99.3591V315.0033h77.6532V572.69c0,106.1088-73.0633,181.8708-175.0721,181.8708s-175.072-75.762-175.072-181.8708V315.0033h77.6531V575.7678C2633.0767,640.8366,2681.624,675.5585,2730.28,675.5585Z"/>
    <path d="M3103.6292,528.7337c0,94.0135,39.3676,148.4986,104.5469,148.4986,39.4213,0,60.6442-13.6618,98.5527-54.5935l68.2038,36.3957c-31.8069,60.6421-97.041,95.4714-166.7565,95.4714-113.673,0-183.3885-90.18-183.3885-224.3142,0-137.8611,69.8776-222.6941,183.3885-222.6941,69.7155,0,133.4378,34.7756,166.7565,95.4172l-68.2038,36.3957c-15.0128-26.19-52.6509-54.594-98.5527-54.594C3129.3345,384.7165,3103.6292,462.0443,3103.6292,528.7337Z"/>
    <path d="M3653.7821,522.686,3571.7,625.7169V747h-77.5467V315.0033H3571.7V502.976l153.5259-187.9727H3825.56L3710.0512,455.9961,3852.9393,747h-88.1845Z"/>
    <path d="M4193.9993,725.4548c-30.4573,18.4136-69.8239,29.2132-109.5694,29.2132-74.576,0-130.9535-27.6478-179.6629-84.5088l62.4263-49.1942c31.9681,38.3937,66.9616,55.3493,115.6711,55.3493,54.8111,0,94.3945-25.7572,94.3945-56.861,0-43.9023-43.7954-46.8719-164.7048-80.838-60.8052-17.0635-88.0223-63.3413-88.0223-109.7269,0-72.3055,60.9674-121.3908,149.2056-121.3908,63.9381,0,117.3458,21.4375,161.4107,67.4994l-57.8892,52.2713c-27.3792-29.2137-62.4264-43.0376-103.5215-43.0376-47.3589,0-69.9851,19.2242-69.9851,44.0639,0,47.8974,58.8072,37.3136,166.27,75.1673,75.8718,26.784,84.89,91.5838,84.89,119.0148C4254.912,667.0265,4235.0944,700.8841,4193.9993,725.4548Z"/>
  </g>
  <g id="OR BUSES">
    <path d="M671.688,1196.19c0-137.9148,69.877-222.7478,183.8188-222.7478,107.57,0,179.2828,88.7753,179.2828,221.29,0,134.8377-69.337,225.7731-179.2828,225.7731C727.9028,1420.5056,671.688,1304.6216,671.688,1196.19Zm79.0034,0c0,92.4481,39.4746,146.9869,104.8154,146.9869,82.0274,0,101.7916-80.3507,101.7916-146.9869,0-91.7449-37.6387-145.5288-101.7916-145.5288C790.166,1050.6616,750.6914,1105.255,750.6914,1196.19Z"/>
    <path d="M1425.3643,1228.05l78.7871,184.8951h-86.3472l-69.7153-169.7744h-116.75v169.7744H1154.01V980.9483h204.2314c89.2632,0,136.8379,70.5238,136.8379,131.8671C1495.0791,1161.3075,1469.3208,1203.8045,1425.3643,1228.05Zm-194.0254-169.7745v107.5669h124.4179c37.855,0,62.1011-21.7612,62.1011-53.0271,0-33.3713-24.3-54.54-62.1548-54.54Z"/>
    <path d="M2265.9738,1184.0413c38.0707,27.2689,56.3233,60.6412,56.3233,101.5729,0,71.4954-61.8858,127.331-132.4657,127.331H1972.152V980.9483h214.3318c87.806,0,122.0969,68.85,122.0969,113.6693C2308.5807,1129.5015,2294.9184,1159.7948,2265.9738,1184.0413Zm-214.656-125.7657v86.3994h123.2855c33.4808,0,56.3233-18.1978,56.3233-43.956s-21.33-42.4434-56.3233-42.4434Zm0,163.673v113.6693h123.2855c41.0951,0,70.04-22.8959,70.04-54.54,0-33.3713-30.4568-59.13-70.04-59.13Z"/>
    <path d="M2600.8224,1341.5035c45.3071,0,97.6348-31.9133,97.6348-99.359V980.9483H2776.11v257.6865c0,106.1089-73.0632,181.8708-175.0721,181.8708s-175.072-75.7619-175.072-181.8708V980.9483h77.6531v260.7645C2503.6193,1306.7817,2552.1667,1341.5035,2600.8224,1341.5035Z"/>
    <path d="M3169.01,1391.4c-30.4573,18.4137-69.8239,29.2132-109.5695,29.2132-74.5759,0-130.9534-27.6478-179.6629-84.5088l62.4264-49.1942c31.9681,38.3937,66.9616,55.3494,115.6711,55.3494,54.8111,0,94.3945-25.7573,94.3945-56.861,0-43.9024-43.7954-46.872-164.7048-80.838-60.8053-17.0631-88.0224-63.3413-88.0224-109.727,0-72.305,60.9675-121.3908,149.2057-121.3908,63.9381,0,117.3459,21.438,161.4108,67.5l-57.8893,52.2712c-27.3792-29.2132-62.4264-43.0371-103.5215-43.0371-47.3589,0-69.9851,19.2232-69.9851,44.0635,0,47.8973,58.8072,37.3136,166.27,75.1672,75.8719,26.7835,84.89,91.5838,84.89,119.0148C3229.9225,1332.9715,3210.105,1366.8291,3169.01,1391.4Z"/>
    <path d="M3333.5925,980.9483h316.3948v77.3273H3412.7047v80.298h129.28v78.839h-129.28v118.2053h244.897v77.3273H3333.5925Z"/>
    <path d="M4019.3993,1391.4c-30.4574,18.4137-69.824,29.2132-109.57,29.2132-74.5759,0-130.9535-27.6478-179.6629-84.5088l62.4264-49.1942c31.9681,38.3937,66.9616,55.3494,115.6711,55.3494,54.8111,0,94.3945-25.7573,94.3945-56.861,0-43.9024-43.7954-46.872-164.7048-80.838-60.8053-17.0631-88.0224-63.3413-88.0224-109.727,0-72.305,60.9674-121.3908,149.2056-121.3908,63.9382,0,117.3459,21.438,161.4108,67.5l-57.8892,52.2712c-27.3792-29.2132-62.4264-43.0371-103.5216-43.0371-47.3589,0-69.9851,19.2232-69.9851,44.0635,0,47.8973,58.8073,37.3136,166.27,75.1672,75.8718,26.7835,84.8895,91.5838,84.8895,119.0148C4080.312,1332.9715,4060.4944,1366.8291,4019.3993,1391.4Z"/>
  </g>
</svg>
