<?xml version="1.0" encoding="UTF-8" standalone="no"?>
<!-- Created with Inkscape (http://www.inkscape.org/) -->

<svg
   width="22.409485mm"
   height="22.40897mm"
   viewBox="0 0 22.409485 22.40897"
   version="1.1"
   id="svg1"
   xml:space="preserve"
   inkscape:version="1.3.2 (091e20e, 2023-11-25, custom)"
   sodipodi:docname="MUTCDstyledraw.svg"
   xmlns:inkscape="http://www.inkscape.org/namespaces/inkscape"
   xmlns:sodipodi="http://sodipodi.sourceforge.net/DTD/sodipodi-0.dtd"
   xmlns="http://www.w3.org/2000/svg"
   xmlns:svg="http://www.w3.org/2000/svg"><sodipodi:namedview
     id="namedview1"
     pagecolor="#ffffff"
     bordercolor="#000000"
     borderopacity="0.25"
     inkscape:showpageshadow="2"
     inkscape:pageopacity="0.0"
     inkscape:pagecheckerboard="0"
     inkscape:deskcolor="#d1d1d1"
     inkscape:document-units="mm"
     inkscape:zoom="0.64"
     inkscape:cx="6479.6875"
     inkscape:cy="6149.2187"
     inkscape:window-width="1920"
     inkscape:window-height="1017"
     inkscape:window-x="-8"
     inkscape:window-y="-8"
     inkscape:window-maximized="1"
     inkscape:current-layer="layer1"
     showguides="true" /><defs
     id="defs1"><style
       id="style1">
	.a {
		fill: #fff;
	}

	.b {
		fill: #af1e2d;
	}
  </style><style
       id="style1-8">
	.a {
		fill: #fff;
	}

	.b {
		fill: #af1e2d;
	}
  </style></defs><g
     inkscape:label="Layer 1"
     inkscape:groupmode="layer"
     id="layer1"
     transform="translate(-2335.408,-1734.5096)"><g
       id="g613"><path
         fill="#cdff00"
         d="m 2335.8987,1744.6084 9.5915,-9.5911 c 0.2797,-0.3153 0.6947,-0.5077 1.1204,-0.5077 0.4261,0 0.8459,0.1865 1.1264,0.5077 l 9.5902,9.5911 c 0.3094,0.2799 0.4903,0.6885 0.4903,1.1088 v 9.7078 c 0,0.8226 -0.6711,1.4936 -1.4937,1.4936 h -19.4217 c -0.8225,0 -1.4939,-0.671 -1.4939,-1.4936 v -9.7078 c 0,-0.4203 0.1814,-0.8289 0.4905,-1.1088"
         id="path598"
         style="fill:#ffd033;fill-opacity:1;stroke-width:0.264584" /><path
         id="path600"
         style="stroke-width:0.264584"
         d="m 2346.5977,1734.8992 c -0.09,0 -0.1816,0.014 -0.2747,0.038 -0.028,0.013 -0.056,0.016 -0.084,0.027 -0.1602,0.061 -0.2962,0.147 -0.4186,0.2675 l -0.05,0.053 -9.6421,9.6271 c -0.056,0.055 -0.1029,0.1118 -0.1474,0.1751 -0.1092,0.1656 -0.1717,0.3419 -0.1905,0.5398 v 0.058 9.7322 l 0.013,0.1181 c 0.013,0.056 0.016,0.108 0.029,0.1625 0.025,0.089 0.056,0.1671 0.099,0.2499 0.028,0.046 0.056,0.09 0.086,0.1348 0.056,0.071 0.1143,0.1328 0.1833,0.1921 0.043,0.034 0.085,0.063 0.1304,0.093 0.08,0.046 0.1565,0.081 0.244,0.1105 0.053,0.015 0.1055,0.027 0.1596,0.037 0.058,0 0.1143,0.013 0.1732,0.013 h 19.4728 c 0.056,0 0.1106,-0.013 0.1658,-0.022 0.09,-0.02 0.1707,-0.048 0.2554,-0.086 0.048,-0.025 0.093,-0.051 0.1386,-0.08 0.075,-0.053 0.1382,-0.108 0.2014,-0.1742 0.036,-0.042 0.067,-0.081 0.099,-0.1258 0.05,-0.077 0.089,-0.1522 0.1219,-0.2378 0.017,-0.052 0.032,-0.1029 0.043,-0.157 0.013,-0.056 0.022,-0.1093 0.022,-0.1653 v -9.7619 -0.089 c -0.013,-0.098 -0.028,-0.1898 -0.06,-0.2831 -0.058,-0.1574 -0.1405,-0.291 -0.2571,-0.4118 l -0.05,-0.048 -9.6327,-9.6362 c -0.1392,-0.147 -0.302,-0.2457 -0.4946,-0.306 l -0.057,-0.016 c -0.094,-0.02 -0.1845,-0.031 -0.2753,-0.029 z m -0.037,0.5996 c 0.1569,-0.015 0.3169,0.044 0.4255,0.1581 l 9.6567,9.6616 0.041,0.038 c 0.098,0.1004 0.1464,0.2275 0.1483,0.3672 v 9.7276 l -0.013,0.051 c -0.023,0.1288 -0.081,0.229 -0.1808,0.3145 -0.061,0.048 -0.1207,0.079 -0.195,0.1004 -0.047,0.013 -0.089,0.015 -0.1386,0.016 l -19.4356,-10e-4 -0.051,-0.013 c -0.1288,-0.023 -0.2282,-0.081 -0.3142,-0.1799 -0.048,-0.061 -0.079,-0.1207 -0.1004,-0.1955 -0.013,-0.048 -0.015,-0.09 -0.017,-0.1392 v -9.7077 c 0.013,-0.1357 0.06,-0.2613 0.1571,-0.3569 l 9.6547,-9.6451 0.042,-0.046 c 0.086,-0.085 0.1949,-0.1396 0.3157,-0.1546 z" /><path
         id="path601"
         style="fill:#000000;fill-opacity:1;stroke:none;stroke-width:0.2;stroke-linejoin:miter;stroke-dasharray:none;stroke-opacity:1"
         d="m 2347.7144,1741.8446 c -0.1683,0.01 -0.2239,0.033 -0.2596,0.043 -0.5654,0.2212 -0.6648,0.7314 -0.765,0.902 -0.1,0.1705 -0.4189,0.1339 -0.3826,0.2676 0.036,0.1337 0.1696,0.078 0.3029,0.044 0.049,-0.014 0.1656,-0.044 0.303,-0.08 0.064,0.1659 0.1784,0.3116 0.3303,0.4135 0.2943,0.2008 0.6883,0.2075 0.9828,0.01 0.2538,-0.1722 0.3791,-0.4238 0.3873,-0.7233 0.01,-0.2864 -0.1467,-0.5624 -0.3857,-0.7232 -0.1996,-0.1338 -0.3728,-0.1511 -0.4588,-0.1514 v 0 c -0.028,-2e-4 -0.048,0 -0.055,0 z m -3.5533,1.6196 c -0.2119,0.01 -0.422,0.085 -0.576,0.2374 -0.2018,0.1992 -0.2816,0.4917 -0.2238,0.7602 -0.2243,0.2451 -0.423,0.5207 -0.5622,0.8062 a 0.12602837,0.12400779 0 0 0 -0.1141,0.1199 0.12602837,0.12400779 0 0 0 0.1229,0.1276 0.12602837,0.12400779 0 0 0 0.1291,-0.1209 0.12602837,0.12400779 0 0 0 -0.01,-0.052 c 0.3303,-0.2769 0.5722,-0.161 0.863,-0.3285 0.2122,0.1103 0.4682,0.1298 0.7016,0.032 0.1177,-0.049 0.2186,-0.1209 0.2999,-0.2079 0.3283,0.09 0.5305,-0.087 0.9254,0.096 a 0.12602837,0.12400779 0 0 0 0.01,0.052 0.12602837,0.12400779 0 0 0 0.1569,0.083 0.12602837,0.12400779 0 0 0 0.084,-0.1543 0.12602837,0.12400779 0 0 0 -0.1425,-0.086 c -0.2244,-0.2555 -0.51,-0.482 -0.8127,-0.6676 -0.037,-0.2277 -0.1818,-0.4426 -0.3739,-0.5668 -0.1423,-0.091 -0.308,-0.134 -0.4728,-0.1306 z m 4.2873,0.03 c -0.073,0.059 -0.1534,0.1105 -0.2407,0.1459 -0.088,0.036 -0.1817,0.056 -0.2777,0.062 -0.068,0 -0.1359,10e-5 -0.2032,-0.013 l -0.03,0.1944 -0.4624,0.4186 -0.5736,1.905 -0.8383,0.3396 -0.4748,-1.0315 -0.7278,-0.4064 c -0.059,0.033 -0.1137,0.067 -0.1786,0.085 -0.06,0.017 -0.1217,0.029 -0.1851,0.029 -0.091,0 -0.182,-0.01 -0.2711,-0.029 h -0.018 l -0.5118,0.5335 -0.5057,1.5958 -0.968,0.9039 0.2778,0.2606 1.1465,-0.746 0.1481,-0.5947 0.1847,0.5522 -0.7397,2.2447 0.2588,0.079 -0.7705,2.8636 0.4129,0.1459 1.0977,-2.8637 0.4439,0.029 1.2144,2.7785 0.4316,-0.1275 -0.8754,-2.6996 c 0.088,-0.019 0.1764,-0.041 0.2654,-0.062 0.077,-0.018 0.1524,-0.043 0.2279,-0.067 l -0.4439,-1.3412 1.1038,-0.2612 -0.2284,-1.0977 h -0.2649 l 0.179,-0.2728 -0.03,-0.067 0.949,-0.2545 0.2469,-0.4252 0.3637,1.4926 -0.7088,2.1965 -0.1976,3.3429 0.7768,0.067 0.2777,-2.7785 0.4748,-1.0376 0.3636,1.4258 1.3447,2.4694 0.7087,-0.3397 -1.2645,-2.5665 0.1298,-2.2143 1.3445,-0.3882 -0.358,-1.2926 -0.3451,0.048 0.1111,-0.698 -1.0977,-2.0503 -0.592,-0.2611 z m 0.6101,1.9537 0.5921,0.8918 -0.1482,0.5461 -0.197,0.048 z m -3.8598,1.2921 0.1482,0.3093 -0.1359,0.3887 -0.1785,0.029 z m -8.9038,3.8065 v 0.739 h 2.7561 l -2.3162,3.1658 h -0.4399 v 0.7389 h 20.5919 v -0.7389 h -1.5674 l 1.6039,-2.1926 v -1.2648 l -0.037,0.05 v -0.4975 h -7.4029 l 0.3636,0.7389 h 0.9758 l -0.5833,0.7971 0.3725,0.7562 1.1362,-1.5533 h 2.0184 l -2.3163,3.1658 h -2.0178 l 0.681,-0.9308 -0.2665,0.1276 -0.3209,-0.5897 -1.019,1.3929 h -2.0178 l 0.6924,-0.9465 -0.6549,-0.056 0.02,-0.3416 -0.9831,1.3437 h -2.0177 l 1.6295,-2.2279 -0.3457,-0.7921 -2.2092,3.02 h -2.0178 l 2.0842,-2.848 0.2845,-1.0567 z m 7.6893,0 -0.2833,0.739 h 1.0657 l -0.323,-0.739 z m 1.4876,0 0.2859,0.8817 0.1046,-0.1427 h 0.7926 l 0.044,-0.739 z m 2.4263,0 -0.049,0.1063 -0.064,0.6327 h 0.095 l -0.1095,0.1493 -0.1456,1.4642 1.0395,-1.4206 -0.231,-0.4242 -0.1285,-0.5077 z m -7.9224,0.739 h 2.019 l -2.3162,3.1658 h -2.0184 z m 14.7167,0 h 2.0173 l -2.3157,3.1658 h -2.0177 z" /><path
         d="m 2345.8885,1741.0747 v -1.4998 l -0.7924,0.2152 c -0.11,0.028 -0.191,0.039 -0.2753,-0.013 -0.121,-0.075 -0.1525,-0.2256 -0.069,-0.3361 l 1.8564,-2.5008 1.8591,2.5009 c 0.082,0.11 0.051,0.2607 -0.069,0.336 -0.081,0.05 -0.1647,0.042 -0.2642,0.017 l -0.8057,-0.2205 v 1.4997 0"
         style="fill:#000000;fill-opacity:1;fill-rule:evenodd;stroke:none;stroke-width:0.0937502"
         id="path603"
         sodipodi:nodetypes="cccscccccccc" /></g></g></svg>
