<?xml version="1.0" encoding="UTF-8" standalone="no"?>
<!-- Created with Inkscape (http://www.inkscape.org/) -->

<svg
   width="118.2316mm"
   height="118.22995mm"
   viewBox="0 0 118.2316 118.22995"
   version="1.1"
   id="svg1"
   xml:space="preserve"
   inkscape:version="1.3.2 (091e20e, 2023-11-25, custom)"
   sodipodi:docname="MUCTDolddraw.svg"
   xmlns:inkscape="http://www.inkscape.org/namespaces/inkscape"
   xmlns:sodipodi="http://sodipodi.sourceforge.net/DTD/sodipodi-0.dtd"
   xmlns="http://www.w3.org/2000/svg"
   xmlns:svg="http://www.w3.org/2000/svg"><sodipodi:namedview
     id="namedview1"
     pagecolor="#ffffff"
     bordercolor="#000000"
     borderopacity="0.25"
     inkscape:showpageshadow="2"
     inkscape:pageopacity="0.0"
     inkscape:pagecheckerboard="0"
     inkscape:deskcolor="#d1d1d1"
     inkscape:document-units="mm"
     inkscape:zoom="0.18284757"
     inkscape:cx="1668.056"
     inkscape:cy="407.44319"
     inkscape:window-width="1920"
     inkscape:window-height="1017"
     inkscape:window-x="-8"
     inkscape:window-y="-8"
     inkscape:window-maximized="1"
     inkscape:current-layer="layer1" /><defs
     id="defs1" /><g
     inkscape:label="Layer 1"
     inkscape:groupmode="layer"
     id="layer1"
     transform="translate(-362.32755,215.57359)"><g
       id="g38"
       inkscape:export-filename="..\..\..\MUTCD S2-1 (1971-2000).svg"
       inkscape:export-xdpi="96"
       inkscape:export-ydpi="96"><g
         id="g36"
         transform="matrix(1.3136843,0,0,1.3136843,362.32757,-215.57358)"
         style="stroke-width:0.201405"><g
           id="layer2"
           inkscape:label="Dessin"
           transform="translate(254.7134,-2.584729)"
           style="stroke-width:0.201405"><g
             id="g3485"
             transform="matrix(1.25,0,0,-1.25,-252.7434,43.143479)"
             style="stroke:none;stroke-width:0.201405"><path
               d="m 0,0 30.817,30.816 c 0.899,1.013 2.232,1.631 3.6,1.631 1.369,0 2.718,-0.599 3.619,-1.631 L 68.849,0 c 0.994,-0.899 1.575,-2.212 1.575,-3.562 v -31.191 c 0,-2.643 -2.156,-4.799 -4.799,-4.799 H 3.224 c -2.643,0 -4.8,2.156 -4.8,4.799 v 31.191 c 0,1.35 0.583,2.663 1.576,3.562"
               style="fill:#cdff00;fill-opacity:1;fill-rule:nonzero;stroke:none;stroke-width:0.201405"
               id="path3487"
               inkscape:connector-curvature="0" /></g><g
             id="g3493"
             transform="matrix(1.25,0,0,-1.25,-213.09465,5.7008544)"
             style="stroke:none;stroke-width:0.201405"><path
               id="path3495"
               style="fill:#000000;fill-opacity:1;fill-rule:evenodd;stroke:none;stroke-width:0.201405"
               d="M 2.6553771,1.2412469 C 2.3636274,1.2371219 2.0724686,1.1959418 1.7729689,1.1169419 1.681969,1.089942 1.5929595,1.0620857 1.5029596,1.0300858 0.98796011,0.83408597 0.55189173,0.55702067 0.15889212,0.17002106 L -2.9459735e-5,8.5110802e-5 -30.949142,-30.940845 c -0.178,-0.175 -0.331933,-0.358307 -0.473933,-0.563307 -0.351999,-0.531999 -0.552769,-1.097976 -0.611769,-1.733976 l -0.01007,-0.185985 -9.44e-4,-31.2679 0.01888,-0.378894 c 0.023,-0.177 0.05284,-0.345137 0.09284,-0.521137 0.082,-0.287 0.181214,-0.537105 0.317214,-0.803105 0.087,-0.15 0.176876,-0.290707 0.277876,-0.432707 0.181,-0.231 0.367112,-0.426064 0.589112,-0.618063 0.137,-0.107 0.27286,-0.205018 0.41886,-0.298018 0.257,-0.149 0.503224,-0.259921 0.784223,-0.355921 0.171,-0.049 0.336955,-0.08607 0.512955,-0.117067 0.188,-0.026 0.365754,-0.03722 0.555754,-0.04122 l 62.56601,0.0041 c 0.182,0.013 0.353151,0.03497 0.532151,0.06797 0.291,0.067 0.548043,0.153933 0.821043,0.276933 0.154,0.081 0.298924,0.163051 0.445924,0.258051 0.239,0.17 0.443072,0.346215 0.646071,0.559215 0.113,0.131 0.2159,0.261755 0.3169,0.403755 0.159999,0.248 0.283111,0.488083 0.392111,0.764082 0.056,0.168 0.102872,0.330144 0.142872,0.504144 0.032,0.177 0.05398,0.348892 0.06797,0.530892 l 0.0041,31.363882 c -0.001,0.097 -0.0041,0.191003 -0.01007,0.287003 -0.03,0.315 -0.0928,0.608214 -0.194797,0.908214 -0.185999,0.505999 -0.452022,0.935927 -0.827021,1.323927 L 36.263987,-30.852101 5.3139306,0.10991408 C 4.866931,0.58191361 4.3440289,0.89808112 3.7250295,1.0920809 l -0.1840973,0.050981 c -0.3014997,0.0695 -0.5938054,0.1023102 -0.8855551,0.098185 z M 2.5379954,-0.68406443 c 0.5039995,0.0489999 1.0170966,-0.14092004 1.3660962,-0.50791967 l 31.0268424,-31.0422629 0.130914,-0.122731 c 0.312999,-0.324 0.470135,-0.731111 0.476135,-1.180111 l -0.0028,-31.254053 -0.01699,-0.163957 c -0.074,-0.414 -0.2633,-0.73486 -0.5803,-1.00986 -0.194999,-0.154 -0.387819,-0.254249 -0.627818,-0.322249 -0.152,-0.036 -0.288037,-0.04698 -0.444037,-0.05098 l -62.446111,0.0022 -0.163013,0.01699 c -0.413999,0.075 -0.73386,0.261782 -1.00986,0.577782 -0.154,0.198 -0.252934,0.389078 -0.321934,0.629078 -0.035,0.153 -0.04824,0.288924 -0.05224,0.445924 l 0.0013,31.191114 c 0.018,0.436 0.192829,0.839124 0.503829,1.146124 l 31.0101635,31.0019812 0.1359487,0.1460191 c 0.2779998,0.27499969 0.6259516,0.44890532 1.0139512,0.49690527 z" /></g><g
             id="g3497"
             transform="matrix(1.25,0,0,-1.25,-211.35965,7.3597294)"
             style="stroke:none;stroke-width:0.201405" /><g
             id="g3501"
             transform="matrix(1.25,0,0,-1.25,-212.4009,47.565979)"
             style="stroke:none;stroke-width:0.201405" /><g
             id="g3505"
             transform="matrix(1.25,0,0,-1.25,-199.2509,25.588479)"
             style="stroke:none;stroke-width:0.201405" /><g
             id="g3509"
             transform="matrix(1.25,0,0,-1.25,-217.4834,33.662229)"
             style="stroke:none;stroke-width:0.201405" /></g><g
           inkscape:label="Calque 1"
           id="layer1-1"
           transform="translate(255.99913,-12.011568)"
           style="stroke-width:0.201405" /></g><path
         id="rect36"
         style="fill:#000000;fill-opacity:1;stroke:none;stroke-width:0.4;stroke-miterlimit:19.4;stroke-dasharray:none;stroke-dashoffset:402.406;stroke-opacity:1"
         d="m 427.91816,-187.11101 c -0.62087,0.018 -1.24191,0.15144 -1.82986,0.40204 -1.86438,0.80024 -3.10834,2.65291 -3.10834,4.68757 -0.005,1.67426 0.84528,3.26226 2.22725,4.20439 1.69271,1.1564 3.95875,1.19447 5.65289,0.0253 1.46001,-1.00741 2.18396,-2.47883 2.22932,-4.22971 0.0398,-1.67427 -0.84463,-3.28888 -2.2195,-4.22817 -0.88238,-0.60125 -1.91698,-0.89141 -2.95176,-0.86144 z m -20.44475,9.44386 c -1.2193,0.0259 -2.42603,0.49813 -3.31194,1.38803 -1.57353,1.57778 -1.86049,4.16329 -0.6289,6.03478 1.26136,1.91831 3.71888,2.73794 5.84719,1.82986 1.82324,-0.78038 2.95704,-2.47272 3.01377,-4.44211 0.0482,-1.58913 -0.89102,-3.18837 -2.1978,-4.04678 -0.81816,-0.53384 -1.77398,-0.78387 -2.72232,-0.76378 z m 24.66516,0.18242 c -0.42566,0.33911 -0.88109,0.64396 -1.38337,0.85111 -0.51079,0.20716 -1.04435,0.33039 -1.59629,0.3545 -0.39303,0.017 -0.78365,0.005 -1.17099,-0.0708 l -0.17725,1.13481 -2.6603,2.44791 -3.29902,11.13782 -4.824,1.98645 -2.7311,-6.03013 -4.18579,-2.3766 c -0.33627,0.19155 -0.6552,0.38876 -1.02836,0.49661 -0.34763,0.0993 -0.69988,0.17493 -1.06453,0.17777 -0.53066,0.009 -1.04842,-0.0359 -1.56063,-0.17777 h -0.10646 l -2.944,3.12178 -2.90887,9.32914 -5.56917,5.28495 1.59629,1.52549 6.59804,-4.36304 0.85111,-3.47627 1.06402,3.22822 -4.25659,13.12427 1.49035,0.46095 -4.43435,16.74265 2.3766,0.85163 6.31382,-16.74265 2.55437,0.17725 6.98769,16.24604 2.48305,-0.74518 -5.0369,-15.78508 c 0.50796,-0.11067 1.01417,-0.24384 1.52497,-0.3545 0.44552,-0.10217 0.8784,-0.24969 1.31258,-0.39016 l -2.55385,-7.83931 6.34948,-1.52549 -1.31258,-6.41977 h -1.52549 l 1.02888,-1.59628 -0.17725,-0.39016 5.46272,-1.48983 1.41903,-2.48305 2.09238,8.72608 -4.07882,12.84056 -1.13533,19.54454 4.46949,0.39068 1.59577,-16.24604 2.73162,-6.06578 2.09289,8.33593 7.73287,14.43684 4.07933,-1.98644 -7.2719,-15.00425 0.74465,-12.94753 7.73338,-2.27015 -2.05775,-7.55509 -1.98645,0.2837 0.63872,-4.07934 -6.31382,-11.98945 -3.40548,-1.52548 z m 3.51142,11.42153 3.40547,5.21466 -0.85111,3.19206 -1.13533,0.2837 z m -22.20485,7.55561 0.85111,1.80919 -0.78031,2.27014 -1.02888,0.17726 z m -38.75164,21.1832 v 1.757 h 24.79435 l 0.46509,-1.757 z m 41.52305,0 0.56069,1.757 h 4.26175 l 0.10232,-1.757 z m 23.50967,0 -0.0713,1.23507 0.25322,0.52193 h 28.28509 v -1.757 z m -31.65078,0.85886 -0.33848,0.89814 h 0.72502 z m 22.31854,0.42943 -0.10387,0.23048 -0.0233,0.23823 h 0.24495 z m -55.70048,21.09433 v 1.757 h 93.49972 v -1.757 z" /></g></g></svg>
