<?xml version="1.0" encoding="UTF-8" standalone="no"?>
<!-- Created with Inkscape (http://www.inkscape.org/) -->

<svg
   width="58.088387mm"
   height="39.800388mm"
   viewBox="0 0 58.088387 39.800388"
   version="1.1"
   id="svg1"
   inkscape:version="1.3 (0e150ed, 2023-07-21)"
   sodipodi:docname="MUTCD_D5-12.svg"
   xmlns:inkscape="http://www.inkscape.org/namespaces/inkscape"
   xmlns:sodipodi="http://sodipodi.sourceforge.net/DTD/sodipodi-0.dtd"
   xmlns="http://www.w3.org/2000/svg"
   xmlns:svg="http://www.w3.org/2000/svg">
  <sodipodi:namedview
     id="namedview1"
     pagecolor="#ffffff"
     bordercolor="#666666"
     borderopacity="1.0"
     inkscape:showpageshadow="2"
     inkscape:pageopacity="0.0"
     inkscape:pagecheckerboard="0"
     inkscape:deskcolor="#d1d1d1"
     inkscape:document-units="mm"
     inkscape:zoom="0.2102413"
     inkscape:cx="109.3981"
     inkscape:cy="76.103029"
     inkscape:window-width="1440"
     inkscape:window-height="431"
     inkscape:window-x="0"
     inkscape:window-y="23"
     inkscape:window-maximized="0"
     inkscape:current-layer="layer1" />
  <defs
     id="defs1">
    <clipPath
       clipPathUnits="userSpaceOnUse"
       id="clipPath169">
      <path
         d="M 109.617,45 H 529.382 V 296.438 H 109.617 Z"
         transform="translate(-122.82771,-157.6948)"
         id="path169" />
    </clipPath>
    <clipPath
       clipPathUnits="userSpaceOnUse"
       id="clipPath171">
      <path
         d="M 109.617,45 H 529.382 V 296.438 H 109.617 Z"
         transform="translate(-261.06771,-270.39001)"
         id="path171" />
    </clipPath>
    <clipPath
       clipPathUnits="userSpaceOnUse"
       id="clipPath173">
      <path
         d="M 109.617,45 H 529.382 V 296.438 H 109.617 Z"
         transform="translate(-122.8278,-267.26001)"
         id="path173" />
    </clipPath>
    <clipPath
       clipPathUnits="userSpaceOnUse"
       id="clipPath175">
      <path
         d="M 109.617,45 H 529.382 V 296.438 H 109.617 Z"
         transform="translate(-137.91891,-190.22001)"
         id="path175" />
    </clipPath>
    <clipPath
       clipPathUnits="userSpaceOnUse"
       id="clipPath177">
      <path
         d="M 109.617,45 H 529.382 V 296.438 H 109.617 Z"
         transform="translate(-157.3804,-180.9231)"
         id="path177" />
    </clipPath>
    <clipPath
       clipPathUnits="userSpaceOnUse"
       id="clipPath179">
      <path
         d="M 109.617,45 H 529.382 V 296.438 H 109.617 Z"
         id="path179" />
    </clipPath>
    <clipPath
       clipPathUnits="userSpaceOnUse"
       id="clipPath181">
      <path
         d="M 109.617,45 H 529.382 V 296.438 H 109.617 Z"
         transform="translate(-179.3208,-175.8201)"
         id="path181" />
    </clipPath>
    <clipPath
       clipPathUnits="userSpaceOnUse"
       id="clipPath183">
      <path
         d="M 109.617,45 H 529.382 V 296.438 H 109.617 Z"
         transform="translate(-213.8122,-182.0841)"
         id="path183" />
    </clipPath>
    <clipPath
       clipPathUnits="userSpaceOnUse"
       id="clipPath185">
      <path
         d="M 109.617,45 H 529.382 V 296.438 H 109.617 Z"
         transform="translate(-230.15631,-188.3751)"
         id="path185" />
    </clipPath>
    <clipPath
       clipPathUnits="userSpaceOnUse"
       id="clipPath187">
      <path
         d="M 109.617,45 H 529.382 V 296.438 H 109.617 Z"
         id="path187" />
    </clipPath>
    <clipPath
       clipPathUnits="userSpaceOnUse"
       id="clipPath189">
      <path
         d="M 109.617,45 H 529.382 V 296.438 H 109.617 Z"
         transform="translate(-136.4929,-246.92361)"
         id="path189" />
    </clipPath>
    <clipPath
       clipPathUnits="userSpaceOnUse"
       id="clipPath191">
      <path
         d="M 109.617,45 H 529.382 V 296.438 H 109.617 Z"
         transform="translate(-155.2273,-237.02001)"
         id="path191" />
    </clipPath>
    <clipPath
       clipPathUnits="userSpaceOnUse"
       id="clipPath193">
      <path
         d="M 109.617,45 H 529.382 V 296.438 H 109.617 Z"
         transform="translate(-162.30351,-251.42001)"
         id="path193" />
    </clipPath>
    <clipPath
       clipPathUnits="userSpaceOnUse"
       id="clipPath195">
      <path
         d="M 109.617,45 H 529.382 V 296.438 H 109.617 Z"
         transform="translate(-179.13711,-248.84241)"
         id="path195" />
    </clipPath>
    <clipPath
       clipPathUnits="userSpaceOnUse"
       id="clipPath197">
      <path
         d="M 109.617,45 H 529.382 V 296.438 H 109.617 Z"
         transform="translate(-200.29051,-237.73821)"
         id="path197" />
    </clipPath>
    <clipPath
       clipPathUnits="userSpaceOnUse"
       id="clipPath199">
      <path
         d="M 109.617,45 H 529.382 V 296.438 H 109.617 Z"
         transform="translate(-210.88381,-237.02001)"
         id="path199" />
    </clipPath>
    <clipPath
       clipPathUnits="userSpaceOnUse"
       id="clipPath201">
      <path
         d="M 109.617,45 H 529.382 V 296.438 H 109.617 Z"
         transform="translate(-221.75781,-242.98161)"
         id="path201" />
    </clipPath>
    <clipPath
       clipPathUnits="userSpaceOnUse"
       id="clipPath203">
      <path
         d="M 109.617,45 H 529.382 V 296.438 H 109.617 Z"
         transform="translate(-239.1478,-237.02001)"
         id="path203" />
    </clipPath>
    <clipPath
       clipPathUnits="userSpaceOnUse"
       id="clipPath205">
      <path
         d="M 109.617,45 H 529.382 V 296.438 H 109.617 Z"
         transform="translate(-246.22401,-251.42001)"
         id="path205" />
    </clipPath>
    <clipPath
       clipPathUnits="userSpaceOnUse"
       id="clipPath207">
      <path
         d="M 109.617,45 H 529.382 V 296.438 H 109.617 Z"
         transform="translate(-162.5965,-218.32521)"
         id="path207" />
    </clipPath>
    <clipPath
       clipPathUnits="userSpaceOnUse"
       id="clipPath209">
      <path
         d="M 109.617,45 H 529.382 V 296.438 H 109.617 Z"
         transform="translate(-179.839,-217.06161)"
         id="path209" />
    </clipPath>
    <clipPath
       clipPathUnits="userSpaceOnUse"
       id="clipPath211">
      <path
         d="M 109.617,45 H 529.382 V 296.438 H 109.617 Z"
         transform="translate(-200.72641,-211.81831)"
         id="path211" />
    </clipPath>
    <clipPath
       clipPathUnits="userSpaceOnUse"
       id="clipPath213">
      <path
         d="M 109.617,45 H 529.382 V 296.438 H 109.617 Z"
         id="path213" />
    </clipPath>
    <clipPath
       clipPathUnits="userSpaceOnUse"
       id="clipPath215">
      <path
         d="M 109.617,45 H 529.382 V 296.438 H 109.617 Z"
         transform="translate(-221.902,-211.81831)"
         id="path215" />
    </clipPath>
  </defs>
  <g
     inkscape:label="Layer 1"
     inkscape:groupmode="layer"
     id="layer1"
     transform="translate(-75.40625,-128.58749)">
    <path
       id="path168"
       d="m 0,0 c -7.215,0 -13.085,5.87 -13.085,13.085 v 86.4 c 0,7.215 5.87,13.085 13.085,13.085 h 138.24 c 7.215,0 13.085,-5.87 13.085,-13.085 v -86.4 C 151.325,5.87 145.455,0 138.24,0 Z"
       style="fill:#ffffff;fill-opacity:1;fill-rule:nonzero;stroke:none"
       transform="matrix(0.35277776,0,0,-0.35277776,80.066443,168.34386)"
       clip-path="url(#clipPath169)" />
    <path
       id="path170"
       d="m 0,0 h -138.24 c -7.284,0 -13.21,-5.926 -13.21,-13.21 v -86.4 c 0,-7.284 5.926,-13.21 13.21,-13.21 H 0 c 7.284,0 13.21,5.926 13.21,13.21 v 86.4 C 13.21,-5.926 7.284,0 0,0 m 0,-0.25 c 7.128,0 12.96,-5.832 12.96,-12.96 v -86.4 c 0,-7.128 -5.832,-12.96 -12.96,-12.96 h -138.24 c -7.128,0 -12.96,5.832 -12.96,12.96 v 86.4 c 0,7.128 5.832,12.96 12.96,12.96 z"
       style="fill:#000000;fill-opacity:1;fill-rule:nonzero;stroke:none"
       transform="matrix(0.35277776,0,0,-0.35277776,128.83444,128.58749)"
       clip-path="url(#clipPath171)" />
    <path
       id="path172"
       d="m 0,0 c -5.558,0 -10.08,-4.522 -10.08,-10.08 v -86.4 c 0,-5.558 4.522,-10.08 10.08,-10.08 h 138.24 c 5.558,0 10.08,4.522 10.08,10.08 v 86.4 C 148.32,-4.522 143.798,0 138.24,0 Z"
       style="fill:#005a9c;fill-opacity:1;fill-rule:nonzero;stroke:none"
       transform="matrix(0.35277776,0,0,-0.35277776,80.066478,129.69169)"
       clip-path="url(#clipPath173)" />
    <path
       id="path174"
       d="M 0,0 H 10.546 V -2.578 H 2.637 V -5.254 H 6.946 V -7.882 H 2.637 v -3.94 H 10.8 V -14.4 H 0 Z"
       style="fill:#ffffff;fill-opacity:1;fill-rule:nonzero;stroke:none"
       transform="matrix(0.35277776,0,0,-0.35277776,85.390283,156.86969)"
       clip-path="url(#clipPath175)" />
    <path
       id="path176"
       d="m 0,0 -3.197,-5.103 h -3.045 l 4.719,7.58 -4.312,6.82 h 3.094 L 0,4.901 2.739,9.297 h 3.096 l -4.262,-6.82 4.72,-7.58 H 3.249 Z"
       style="fill:#ffffff;fill-opacity:1;fill-rule:nonzero;stroke:none"
       transform="matrix(0.35277776,0,0,-0.35277776,92.255866,160.14943)"
       clip-path="url(#clipPath177)" />
    <path
       id="path178"
       d="m 167.13,190.22 h 2.592 v -14.4 h -2.592 z"
       style="fill:#ffffff;fill-opacity:1;fill-rule:nonzero;stroke:none"
       transform="matrix(0.35277776,0,0,-0.35277776,36.73556,223.97508)"
       clip-path="url(#clipPath179)" />
    <path
       id="path180"
       d="M 0,0 H -2.523 V 11.873 H -6.662 V 14.4 h 10.8 V 11.873 H 0 Z"
       style="fill:#ffffff;fill-opacity:1;fill-rule:nonzero;stroke:none"
       transform="matrix(0.35277776,0,0,-0.35277776,99.995953,161.94965)"
       clip-path="url(#clipPath181)" />
    <path
       id="path182"
       d="m 0,0 v 3.866 h 0.913 c 1.674,0 2.894,0.91 2.894,2.123 0,1.287 -1.523,2.273 -3.807,2.273 -1.828,0 -3.502,-0.759 -4.795,-2.122 l -2.892,2.651 c 2.13,2.198 4.795,3.332 7.917,3.332 4.338,0 7.535,-2.579 7.535,-6.064 0,-1.439 -0.459,-2.422 -1.752,-4.091 2.13,-1.895 2.74,-3.032 2.74,-5.078 0,-4.018 -3.731,-7.126 -8.602,-7.126 -1.76,0 -5.524,0.211 -8.904,4.396 l 3.121,2.349 c 1.523,-1.971 3.499,-2.803 6.013,-2.803 2.665,0 4.49,1.213 4.49,3.032 C 4.871,-2.743 4.547,0 1.067,0 Z"
       style="fill:#ffffff;fill-opacity:1;fill-rule:nonzero;stroke:none"
       transform="matrix(0.35277776,0,0,-0.35277776,112.16375,159.73985)"
       clip-path="url(#clipPath183)" />
    <path
       id="path184"
       d="m 0,0 c 0,-1.288 1.523,-2.047 4.188,-2.047 2.665,0 4.185,0.759 4.185,2.047 0,1.212 -1.52,1.971 -4.185,1.971 C 1.523,1.971 0,1.212 0,0 m -0.683,-9.247 c 0,-1.062 0.61,-2.123 1.598,-2.727 0.61,-0.378 1.979,-0.608 3.273,-0.608 1.849,0 2.967,0.224 3.728,0.91 0.762,0.686 1.142,1.515 1.142,2.425 0,2.16 -1.73,3.334 -4.87,3.334 -3.122,0 -4.871,-1.196 -4.871,-3.334 m -3.883,0 c 0,2.008 0.837,3.79 2.436,5.229 -1.372,1.593 -1.75,2.501 -1.75,3.942 0,3.599 3.273,5.908 8.068,5.908 4.87,0 8.067,-2.333 8.067,-5.908 0,-1.439 -0.38,-2.351 -1.674,-3.942 1.599,-1.439 2.36,-3.183 2.36,-5.229 0,-5.13 -4.263,-7.274 -8.753,-7.274 -5.4,0 -8.754,2.878 -8.754,7.274"
       style="fill:#ffffff;fill-opacity:1;fill-rule:nonzero;stroke:none"
       transform="matrix(0.35277776,0,0,-0.35277776,117.92959,157.52053)"
       clip-path="url(#clipPath185)" />
    <path
       id="path186"
       d="m 126.872,251.42 h 2.592 v -14.4 h -2.592 z"
       style="fill:#ffffff;fill-opacity:1;fill-rule:nonzero;stroke:none"
       transform="matrix(0.35277776,0,0,-0.35277776,36.73556,223.97508)"
       clip-path="url(#clipPath187)" />
    <path
       id="path188"
       d="m 0,0 v -9.904 h -2.536 v 14.4 h 2.534 l 6.651,-9.5 v 9.5 h 2.486 v -14.4 H 6.901 Z"
       style="fill:#ffffff;fill-opacity:1;fill-rule:nonzero;stroke:none"
       transform="matrix(0.35277776,0,0,-0.35277776,84.88722,136.86592)"
       clip-path="url(#clipPath189)" />
    <path
       id="path190"
       d="M 0,0 H -2.523 V 11.873 H -6.661 V 14.4 H 4.138 V 11.873 H 0 Z"
       style="fill:#ffffff;fill-opacity:1;fill-rule:nonzero;stroke:none"
       transform="matrix(0.35277776,0,0,-0.35277776,91.4963,140.35969)"
       clip-path="url(#clipPath191)" />
    <path
       id="path192"
       d="M 0,0 H 10.546 V -2.578 H 2.637 V -5.254 H 6.946 V -7.882 H 2.637 v -3.94 H 10.8 V -14.4 H 0 Z"
       style="fill:#ffffff;fill-opacity:1;fill-rule:nonzero;stroke:none"
       transform="matrix(0.35277776,0,0,-0.35277776,93.992628,135.27969)"
       clip-path="url(#clipPath193)" />
    <path
       id="path194"
       d="m 0,0 v -3.586 h 4.147 c 1.262,0 2.07,0.726 2.07,1.768 C 6.217,-0.706 5.407,0 4.145,0 Z m 6.467,-5.659 2.626,-6.163 H 6.215 L 3.891,-6.163 H 0 v -5.659 h -2.577 v 14.4 H 4.23 c 2.975,0 4.561,-2.351 4.561,-4.396 0,-1.616 -0.859,-3.033 -2.324,-3.841"
       style="fill:#ffffff;fill-opacity:1;fill-rule:nonzero;stroke:none"
       transform="matrix(0.35277776,0,0,-0.35277776,99.931148,136.18901)"
       clip-path="url(#clipPath195)" />
    <path
       id="path196"
       d="m 0,0 c -1.015,-0.614 -2.327,-0.974 -3.652,-0.974 -2.486,0 -4.365,0.922 -5.988,2.817 l 2.08,1.64 c 1.066,-1.28 2.232,-1.845 3.856,-1.845 1.827,0 3.146,0.859 3.146,1.895 0,1.464 -1.46,1.563 -5.49,2.695 -2.026,0.569 -2.934,2.111 -2.934,3.658 0,2.41 2.033,4.046 4.974,4.046 2.131,0 3.911,-0.715 5.38,-2.25 L -0.558,9.94 c -0.913,0.973 -2.081,1.434 -3.45,1.434 -1.579,0 -2.333,-0.641 -2.333,-1.469 0,-1.596 1.96,-1.243 5.542,-2.505 C 1.73,6.507 2.03,4.347 2.03,3.433 2.03,1.948 1.37,0.819 0,0"
       style="fill:#ffffff;fill-opacity:1;fill-rule:nonzero;stroke:none"
       transform="matrix(0.35277776,0,0,-0.35277776,107.3936,140.10632)"
       clip-path="url(#clipPath197)" />
    <path
       id="path198"
       d="M 0,0 H -2.523 V 11.873 H -6.661 V 14.4 H 4.138 V 11.873 H 0 Z"
       style="fill:#ffffff;fill-opacity:1;fill-rule:nonzero;stroke:none"
       transform="matrix(0.35277776,0,0,-0.35277776,111.13068,140.35969)"
       clip-path="url(#clipPath199)" />
    <path
       id="path200"
       d="m 0,0 h 4.041 l -2.02,4.851 z m 5.153,-2.576 h -6.264 l -1.414,-3.386 h -2.828 l 6.062,14.4 h 2.626 l 6.01,-14.4 H 6.566 Z"
       style="fill:#ffffff;fill-opacity:1;fill-rule:nonzero;stroke:none"
       transform="matrix(0.35277776,0,0,-0.35277776,114.96678,138.25657)"
       clip-path="url(#clipPath201)" />
    <path
       id="path202"
       d="M 0,0 H -2.523 V 11.873 H -6.662 V 14.4 h 10.8 V 11.873 H 0 Z"
       style="fill:#ffffff;fill-opacity:1;fill-rule:nonzero;stroke:none"
       transform="matrix(0.35277776,0,0,-0.35277776,121.10159,140.35969)"
       clip-path="url(#clipPath203)" />
    <path
       id="path204"
       d="M 0,0 H 10.546 V -2.578 H 2.637 V -5.254 H 6.946 V -7.882 H 2.637 v -3.94 H 10.8 V -14.4 H 0 Z"
       style="fill:#ffffff;fill-opacity:1;fill-rule:nonzero;stroke:none"
       transform="matrix(0.35277776,0,0,-0.35277776,123.59792,135.27969)"
       clip-path="url(#clipPath205)" />
    <path
       id="path206"
       d="m 0,0 c 0,-3.082 1.316,-4.9 3.494,-4.9 2.734,0 3.393,2.679 3.393,4.9 0,3.058 -1.255,4.851 -3.393,4.851 C 1.316,4.851 0,3.031 0,0 m -2.633,0 c 0,4.597 2.329,7.425 6.127,7.425 3.585,0 5.975,-2.959 5.975,-7.376 0,-4.495 -2.311,-7.526 -5.975,-7.526 -4.254,0 -6.127,3.863 -6.127,7.477"
       style="fill:#ffffff;fill-opacity:1;fill-rule:nonzero;stroke:none"
       transform="matrix(0.35277776,0,0,-0.35277776,94.09599,146.9548)"
       clip-path="url(#clipPath207)" />
    <path
       id="path208"
       d="m 0,0 h 4.041 l -2.02,4.851 z m 5.153,-2.576 h -6.264 l -1.414,-3.386 h -2.828 l 6.062,14.4 h 2.626 l 6.01,-14.4 H 6.566 Z"
       style="fill:#ffffff;fill-opacity:1;fill-rule:nonzero;stroke:none"
       transform="matrix(0.35277776,0,0,-0.35277776,100.17876,147.40057)"
       clip-path="url(#clipPath209)" />
    <path
       id="path210"
       d="m 0,0 c -1.015,-0.614 -2.327,-0.974 -3.652,-0.974 -2.486,0 -4.365,0.922 -5.988,2.817 l 2.08,1.64 c 1.066,-1.28 2.232,-1.845 3.856,-1.845 1.827,0 3.146,0.859 3.146,1.895 0,1.464 -1.46,1.563 -5.49,2.695 -2.027,0.569 -2.934,2.111 -2.934,3.658 0,2.41 2.032,4.046 4.974,4.046 2.131,0 3.911,-0.715 5.38,-2.25 L -0.558,9.94 c -0.913,0.973 -2.081,1.434 -3.45,1.434 -1.579,0 -2.333,-0.641 -2.333,-1.469 0,-1.596 1.96,-1.243 5.542,-2.505 C 1.73,6.507 2.03,4.347 2.03,3.433 2.03,1.948 1.37,0.819 0,0"
       style="fill:#ffffff;fill-opacity:1;fill-rule:nonzero;stroke:none"
       transform="matrix(0.35277776,0,0,-0.35277776,107.54737,149.25029)"
       clip-path="url(#clipPath211)" />
    <path
       id="path212"
       d="m 206.213,225.5 h 2.592 v -14.4 h -2.592 z"
       style="fill:#ffffff;fill-opacity:1;fill-rule:nonzero;stroke:none"
       transform="matrix(0.35277776,0,0,-0.35277776,36.73556,223.97508)"
       clip-path="url(#clipPath213)" />
    <path
       id="path214"
       d="m 0,0 c -1.015,-0.614 -2.327,-0.974 -3.652,-0.974 -2.486,0 -4.365,0.922 -5.988,2.817 l 2.08,1.64 c 1.066,-1.28 2.232,-1.845 3.856,-1.845 1.827,0 3.146,0.859 3.146,1.895 0,1.464 -1.46,1.563 -5.49,2.695 -2.027,0.569 -2.934,2.111 -2.934,3.658 0,2.41 2.032,4.046 4.974,4.046 2.131,0 3.911,-0.715 5.38,-2.25 L -0.558,9.94 c -0.913,0.973 -2.081,1.434 -3.45,1.434 -1.579,0 -2.333,-0.641 -2.333,-1.469 0,-1.596 1.96,-1.243 5.542,-2.505 C 1.73,6.507 2.03,4.347 2.03,3.433 2.03,1.948 1.37,0.819 0,0"
       style="fill:#ffffff;fill-opacity:1;fill-rule:nonzero;stroke:none"
       transform="matrix(0.35277776,0,0,-0.35277776,115.01765,149.25029)"
       clip-path="url(#clipPath215)" />
  </g>
</svg>
