<?xml version="1.0" encoding="UTF-8" standalone="no"?>
<!-- Created with Inkscape (http://www.inkscape.org/) -->

<svg
   width="45.896034mm"
   height="10.336389mm"
   viewBox="0 0 45.896034 10.336389"
   version="1.1"
   id="svg1"
   inkscape:version="1.3 (0e150ed, 2023-07-21)"
   sodipodi:docname="MUTCD_D1-1b.svg"
   xmlns:inkscape="http://www.inkscape.org/namespaces/inkscape"
   xmlns:sodipodi="http://sodipodi.sourceforge.net/DTD/sodipodi-0.dtd"
   xmlns="http://www.w3.org/2000/svg"
   xmlns:svg="http://www.w3.org/2000/svg">
  <sodipodi:namedview
     id="namedview1"
     pagecolor="#ffffff"
     bordercolor="#666666"
     borderopacity="1.0"
     inkscape:showpageshadow="2"
     inkscape:pageopacity="0.0"
     inkscape:pagecheckerboard="0"
     inkscape:deskcolor="#d1d1d1"
     inkscape:document-units="mm"
     inkscape:zoom="0.2102413"
     inkscape:cx="85.615908"
     inkscape:cy="19.025757"
     inkscape:window-width="1440"
     inkscape:window-height="431"
     inkscape:window-x="0"
     inkscape:window-y="23"
     inkscape:window-maximized="0"
     inkscape:current-layer="layer1" />
  <defs
     id="defs1">
    <clipPath
       clipPathUnits="userSpaceOnUse"
       id="clipPath124">
      <path
         d="M 40.252,158.535 H 526.749 V 746 H 40.252 Z"
         transform="translate(-355.49911,-688.26922)"
         id="path124" />
    </clipPath>
  </defs>
  <g
     inkscape:label="Layer 1"
     inkscape:groupmode="layer"
     id="layer1"
     transform="translate(-81.491671,-143.40416)">
    <g
       id="g122"
       transform="matrix(0.26458333,0,0,0.26458333,-42.562423,117.1025)">
      <path
         id="path123"
         d="m 0,0 c -2.054,0 -3.725,1.671 -3.725,3.725 v 21.6 c 0,2.054 1.671,3.725 3.725,3.725 h 122.399 c 2.054,0 3.725,-1.671 3.725,-3.725 V 3.725 C 126.124,1.671 124.453,0 122.399,0 Z"
         style="fill:#ffffff;fill-opacity:1;fill-rule:nonzero;stroke:none"
         transform="matrix(1.3333333,0,0,-1.3333333,473.9988,138.30773)"
         clip-path="url(#clipPath124)" />
    </g>
    <g
       id="g124"
       transform="matrix(0.26458333,0,0,0.26458333,-42.562423,117.1025)">
      <path
         id="path125"
         d="m 0,0 h -122.399 c -2.123,0 -3.85,-1.727 -3.85,-3.85 v -21.6 c 0,-2.123 1.727,-3.85 3.85,-3.85 L 0,-29.3 c 2.123,0 3.85,1.727 3.85,3.85 v 21.6 C 3.85,-1.727 2.123,0 0,0 m 0,-0.25 c 1.988,0 3.6,-1.612 3.6,-3.6 v -21.6 c 0,-1.988 -1.612,-3.6 -3.6,-3.6 h -122.399 c -1.988,0 -3.6,1.612 -3.6,3.6 v 21.6 c 0,1.988 1.612,3.6 3.6,3.6 z"
         style="fill:#000000;fill-opacity:1;fill-rule:nonzero;stroke:none"
         transform="matrix(1.3333333,0,0,-1.3333333,637.19787,99.407867)" />
    </g>
    <g
       id="g125"
       transform="matrix(0.26458333,0,0,0.26458333,-42.562423,117.1025)">
      <path
         id="path126"
         d="m 0,0 c -0.994,0 -1.8,0.806 -1.8,1.8 v 21.6 c 0,0.994 0.806,1.8 1.8,1.8 h 122.399 c 0.994,0 1.8,-0.806 1.8,-1.8 V 1.8 c 0,-0.994 -0.806,-1.8 -1.8,-1.8 z"
         style="fill:#006f53;fill-opacity:1;fill-rule:nonzero;stroke:none"
         transform="matrix(1.3333333,0,0,-1.3333333,473.9996,135.74093)" />
    </g>
    <g
       id="g126"
       transform="matrix(0.26458333,0,0,0.26458333,-42.562423,117.1025)">
      <path
         id="path127"
         d="m 0,0 c -1.725,0 -3.186,1.129 -3.686,2.688 l 3.441,0.74 C -0.173,3.388 -0.089,3.365 0,3.365 c 0.279,0 0.505,0.226 0.505,0.505 0,0.243 -0.172,0.447 -0.401,0.494 L -2.012,7.176 C -1.426,7.534 -0.737,7.74 0,7.74 2.137,7.74 3.87,6.007 3.87,3.87 3.87,1.733 2.137,0 0,0 m -3.87,3.87 c 0,1.127 0.482,2.142 1.251,2.849 L -0.661,4.116 -3.845,3.431 C -3.861,3.575 -3.87,3.721 -3.87,3.87 M -4.728,3.24 -6.242,2.914 -4.485,9.199 -3.162,7.441 C -4.148,6.567 -4.77,5.291 -4.77,3.87 c 0,-0.214 0.014,-0.424 0.042,-0.63 m -2.156,0.202 -0.235,0.893 h 0.367 v 0.36 h -1.159 v -0.36 h 0.461 l 0.233,-0.886 -4.986,5.427 c 0.081,0.259 0.164,0.525 0.246,0.79 h 6.813 z M -11.79,3.87 c 0,-2.137 -1.733,-3.87 -3.87,-3.87 -2.137,0 -3.87,1.733 -3.87,3.87 0,2.137 1.733,3.87 3.87,3.87 0.76,0 1.469,-0.219 2.066,-0.597 -0.475,-1.031 -1.402,-2.142 -2.07,-2.768 -0.277,-0.002 -0.501,-0.227 -0.501,-0.505 0,-0.279 0.226,-0.505 0.505,-0.505 0.258,0 0.471,0.193 0.501,0.443 0.327,0.306 0.754,0.756 1.176,1.296 0.313,0.401 0.704,0.956 1.003,1.558 0.733,-0.704 1.19,-1.695 1.19,-2.792 M 0,8.64 c -0.94,0 -1.816,-0.272 -2.555,-0.742 l -1.672,2.223 0.219,0.784 c 1.048,0.091 1.628,0.489 1.593,0.874 -0.035,0.374 -1.075,0.094 -2.231,0.079 -0.318,-0.004 -2,0.004 -1.991,-0.305 0.01,-0.316 1.086,-0.574 1.84,-0.646 l -0.134,-0.481 h -6.792 c 0.145,0.472 0.277,0.908 0.379,1.246 0.088,0.289 0.153,0.506 0.186,0.614 l -0.494,0.378 0.233,0.236 H -9.6 v 0.6 h -2.07 l -0.888,-0.899 0.57,-0.436 c -0.264,-0.873 -0.887,-2.925 -1.29,-4.161 -0.701,0.404 -1.514,0.636 -2.382,0.636 -2.634,0 -4.77,-2.136 -4.77,-4.77 0,-2.634 2.136,-4.77 4.77,-4.77 2.635,0 4.77,2.136 4.77,4.77 0,1.482 -0.676,2.807 -1.737,3.682 0.05,0.149 0.103,0.313 0.16,0.489 L -7.335,2.455 C -7.336,2.44 -7.337,2.425 -7.337,2.41 c 0,-0.302 0.241,-0.548 0.541,-0.558 l 0.359,-1.367 h -0.367 v -0.36 h 1.159 v 0.36 h -0.461 l -0.381,1.448 c 0.078,0.048 0.143,0.114 0.19,0.192 l 1.728,0.372 C -3.979,0.532 -2.157,-0.9 0,-0.9 2.634,-0.9 4.77,1.236 4.77,3.87 4.77,6.504 2.634,8.64 0,8.64"
         style="fill:#ffffff;fill-opacity:1;fill-rule:nonzero;stroke:none"
         transform="matrix(1.3333333,0,0,-1.3333333,545.5036,127.34107)" />
      <path
         id="path128"
         d="m 0,0 c 0,1.35 0.271,4.95 3.536,4.95 1.392,0 2.34,-0.566 2.999,-1.954 L 5.12,2.39 C 4.63,3.096 4.385,3.401 3.538,3.401 c -2.009,0 -1.988,-2.8 -1.988,-3.402 0,-0.595 -0.037,-3.437 2.055,-3.437 0.733,0 1.154,0.443 1.482,1.112 L 6.535,-2.864 C 5.995,-4.2 5.088,-4.985 3.637,-4.985 0.182,-4.985 0,-1.169 0,0"
         style="fill:#ffffff;fill-opacity:1;fill-rule:nonzero;stroke:none"
         transform="matrix(1.3333333,0,0,-1.3333333,564.66067,118.9204)" />
      <path
         id="path129"
         d="M 0,0 C 0.49,0 0.991,0.176 1.246,0.311 V 1.93 C 0.955,2.068 0.433,2.227 -0.059,2.227 -0.644,2.227 -1.174,1.997 -1.174,1.222 -1.174,0.268 -0.604,0 0,0 m -0.049,4.543 c -0.709,0 -1.351,-0.39 -1.728,-0.894 l -0.437,1.484 c 0.63,0.494 1.406,0.802 2.396,0.802 1.359,0 2.608,-0.829 2.608,-2.487 V -1.24 H 1.313 v 0.203 c -0.235,-0.203 -0.84,-0.302 -1.378,-0.302 -1.411,0 -2.619,0.905 -2.619,2.595 0,1.383 1.17,2.286 2.737,2.286 0.332,0 0.852,-0.105 1.159,-0.23 0,0.367 -0.157,1.231 -1.261,1.231"
         style="fill:#ffffff;fill-opacity:1;fill-rule:nonzero;stroke:none"
         transform="matrix(1.3333333,0,0,-1.3333333,578.87387,123.69)" />
      <path
         id="path130"
         d="M 0,0 C 0,0.925 -0.474,1.214 -1.283,1.214 -1.89,1.214 -2.395,0.821 -2.395,0 V -4.552 H -4.014 V 0 c 0,0.911 -0.474,1.216 -1.316,1.216 -0.608,0 -1.079,-0.406 -1.079,-1.215 v -4.553 h -1.585 v 7.013 h 1.551 V 2.158 c 0.438,0.336 0.983,0.5 1.529,0.5 0.715,0 1.434,-0.283 1.912,-0.838 0.423,0.558 1.125,0.828 1.851,0.828 1.291,0 2.668,-0.847 2.668,-2.446 V -4.552 H 0 Z"
         style="fill:#ffffff;fill-opacity:1;fill-rule:nonzero;stroke:none"
         transform="matrix(1.3333333,0,0,-1.3333333,595.6852,119.274)" />
      <path
         id="path131"
         d="m 0,0 v -3.54 c 0.367,-0.374 0.733,-0.473 1.273,-0.473 1.035,0 1.374,1.313 1.374,2.292 0,1.035 -0.308,2.227 -1.475,2.227 C 0.738,0.506 0.367,0.439 0,0 m 1.547,1.932 c 2.033,0 2.641,-1.906 2.641,-3.653 0,-1.987 -0.767,-3.705 -2.881,-3.705 -0.533,0 -0.875,0.098 -1.341,0.372 v -2.24 l -1.54,-0.679 V 1.74 h 1.54 V 1.512 c 0.334,0.247 0.988,0.42 1.581,0.42"
         style="fill:#ffffff;fill-opacity:1;fill-rule:nonzero;stroke:none"
         transform="matrix(1.3333333,0,0,-1.3333333,602.2396,118.306)" />
      <path
         id="path132"
         d="m 0,0 c -0.431,-0.251 -1.184,-0.457 -1.682,-0.457 -1.34,0 -2.492,0.903 -2.492,2.412 v 4.821 h 1.527 V 2.124 c 0,-0.9 0.617,-1.112 1.425,-1.112 0.614,0 1.188,0.302 1.188,1.112 V 6.776 H 1.493 V -0.236 H 0 Z"
         style="fill:#ffffff;fill-opacity:1;fill-rule:nonzero;stroke:none"
         transform="matrix(1.3333333,0,0,-1.3333333,615.3088,125.02747)" />
    </g>
    <g
       id="g132"
       transform="matrix(0.26458333,0,0,0.26458333,-42.562423,117.1025)">
      <path
         id="path133"
         d="m 370.868,704.595 h 8.23 v -3.6 h -8.23 z"
         style="fill:#ffffff;fill-opacity:1;fill-rule:nonzero;stroke:none"
         transform="matrix(1.3333333,0,0,-1.3333333,0,1056)" />
    </g>
    <g
       id="g133"
       transform="matrix(0.26458333,0,0,0.26458333,-42.562423,117.1025)">
      <path
         id="path134"
         d="M 0,0 C 0.331,0 0.6,0.269 0.6,0.6 0.6,0.672 0.587,0.74 0.564,0.804 L -0.9,4.8 0.564,8.796 C 0.587,8.859 0.6,8.928 0.6,9 0.6,9.331 0.331,9.6 0,9.6 -0.124,9.6 -0.239,9.562 -0.335,9.498 L -7.2,4.8 -0.335,0.102 C -0.239,0.038 -0.124,0 0,0"
         style="fill:#ffffff;fill-opacity:1;fill-rule:nonzero;stroke:none"
         transform="matrix(1.3333333,0,0,-1.3333333,495.86427,125.34107)" />
    </g>
    <g
       id="g134"
       transform="matrix(0.26458333,0,0,0.26458333,-42.562423,117.1025)">
      <path
         id="path135"
         d="m 0,0 c -0.995,0 -1.921,0.589 -2.397,1.796 l 1.306,0.512 C -0.844,1.683 -0.455,1.4 0,1.4 0.472,1.398 0.717,1.763 0.717,2.23 c 0,1.492 -2.899,0.742 -2.899,3.134 0,1.188 0.818,1.956 2.084,1.956 0.909,0 1.634,-0.522 1.981,-1.433 L 0.573,5.386 C 0.498,5.735 0.15,5.944 -0.184,5.944 -0.493,5.944 -0.778,5.762 -0.778,5.364 -0.779,4.258 2.119,4.831 2.119,2.23 2.119,1.056 1.318,0 0,0"
         style="fill:#ffffff;fill-opacity:1;fill-rule:nonzero;stroke:none"
         transform="matrix(1.3333333,0,0,-1.3333333,622.28693,125.51707)" />
    </g>
  </g>
</svg>
