<?xml version="1.0" encoding="UTF-8" standalone="no"?>
<!-- Created with Inkscape (http://www.inkscape.org/) -->

<svg
   width="55.040386mm"
   height="21.512388mm"
   viewBox="0 0 55.040386 21.512388"
   version="1.1"
   id="svg1"
   inkscape:version="1.3 (0e150ed, 2023-07-21)"
   sodipodi:docname="MUTCD_D9-18fP.svg"
   xmlns:inkscape="http://www.inkscape.org/namespaces/inkscape"
   xmlns:sodipodi="http://sodipodi.sourceforge.net/DTD/sodipodi-0.dtd"
   xmlns="http://www.w3.org/2000/svg"
   xmlns:svg="http://www.w3.org/2000/svg">
  <sodipodi:namedview
     id="namedview1"
     pagecolor="#ffffff"
     bordercolor="#666666"
     borderopacity="1.0"
     inkscape:showpageshadow="2"
     inkscape:pageopacity="0.0"
     inkscape:pagecheckerboard="0"
     inkscape:deskcolor="#d1d1d1"
     inkscape:document-units="mm"
     inkscape:zoom="0.2102413"
     inkscape:cx="104.64167"
     inkscape:cy="38.051515"
     inkscape:window-width="1440"
     inkscape:window-height="431"
     inkscape:window-x="0"
     inkscape:window-y="23"
     inkscape:window-maximized="0"
     inkscape:current-layer="layer1" />
  <defs
     id="defs1">
    <clipPath
       clipPathUnits="userSpaceOnUse"
       id="clipPath311">
      <path
         d="M 35.791,40 H 527.208 V 586.355 H 35.791 Z"
         transform="translate(-213.89941,-59.079804)"
         id="path311" />
    </clipPath>
    <clipPath
       clipPathUnits="userSpaceOnUse"
       id="clipPath313">
      <path
         d="M 35.791,40 H 527.208 V 586.355 H 35.791 Z"
         transform="translate(-352.13951,-119.9353)"
         id="path313" />
    </clipPath>
    <clipPath
       clipPathUnits="userSpaceOnUse"
       id="clipPath315">
      <path
         d="M 35.791,40 H 527.208 V 586.355 H 35.791 Z"
         transform="translate(-352.13951,-61.365302)"
         id="path315" />
    </clipPath>
    <clipPath
       clipPathUnits="userSpaceOnUse"
       id="clipPath317">
      <path
         d="M 35.791,40 H 527.208 V 586.355 H 35.791 Z"
         transform="translate(-312.11231,-100.1517)"
         id="path317" />
    </clipPath>
    <clipPath
       clipPathUnits="userSpaceOnUse"
       id="clipPath319">
      <path
         d="M 35.791,40 H 527.208 V 586.355 H 35.791 Z"
         transform="translate(-319.48211,-100.8069)"
         id="path319" />
    </clipPath>
    <clipPath
       clipPathUnits="userSpaceOnUse"
       id="clipPath321">
      <path
         d="M 35.791,40 H 527.208 V 586.355 H 35.791 Z"
         transform="translate(-340.05291,-95.563502)"
         id="path321" />
    </clipPath>
    <clipPath
       clipPathUnits="userSpaceOnUse"
       id="clipPath323">
      <path
         d="M 35.791,40 H 527.208 V 586.355 H 35.791 Z"
         id="path323" />
    </clipPath>
    <clipPath
       clipPathUnits="userSpaceOnUse"
       id="clipPath325">
      <path
         d="M 35.791,40 H 527.208 V 586.355 H 35.791 Z"
         transform="translate(-226.59271,-103.7373)"
         id="path325" />
    </clipPath>
    <clipPath
       clipPathUnits="userSpaceOnUse"
       id="clipPath327">
      <path
         d="M 35.791,40 H 527.208 V 586.355 H 35.791 Z"
         transform="translate(-239.40571,-102.0705)"
         id="path327" />
    </clipPath>
    <clipPath
       clipPathUnits="userSpaceOnUse"
       id="clipPath329">
      <path
         d="M 35.791,40 H 527.208 V 586.355 H 35.791 Z"
         transform="translate(-254.3896,-102.0705)"
         id="path329" />
    </clipPath>
    <clipPath
       clipPathUnits="userSpaceOnUse"
       id="clipPath331">
      <path
         d="M 35.791,40 H 527.208 V 586.355 H 35.791 Z"
         transform="translate(-269.7964,-106.6677)"
         id="path331" />
    </clipPath>
    <clipPath
       clipPathUnits="userSpaceOnUse"
       id="clipPath333">
      <path
         d="M 35.791,40 H 527.208 V 586.355 H 35.791 Z"
         transform="translate(-237.6415,-84.045205)"
         id="path333" />
    </clipPath>
    <clipPath
       clipPathUnits="userSpaceOnUse"
       id="clipPath335">
      <path
         d="M 35.791,40 H 527.208 V 586.355 H 35.791 Z"
         transform="translate(-253.0912,-76.870502)"
         id="path335" />
    </clipPath>
    <clipPath
       clipPathUnits="userSpaceOnUse"
       id="clipPath337">
      <path
         d="M 35.791,40 H 527.208 V 586.355 H 35.791 Z"
         transform="translate(-268.49781,-81.467605)"
         id="path337" />
    </clipPath>
    <clipPath
       clipPathUnits="userSpaceOnUse"
       id="clipPath339">
      <path
         d="M 35.791,40 H 527.208 V 586.355 H 35.791 Z"
         transform="translate(-292.09411,-74.951702)"
         id="path339" />
    </clipPath>
    <clipPath
       clipPathUnits="userSpaceOnUse"
       id="clipPath341">
      <path
         d="M 35.791,40 H 527.208 V 586.355 H 35.791 Z"
         id="path341" />
    </clipPath>
    <clipPath
       clipPathUnits="userSpaceOnUse"
       id="clipPath343">
      <path
         d="M 35.791,40 H 527.208 V 586.355 H 35.791 Z"
         transform="translate(-304.27911,-79.548902)"
         id="path343" />
    </clipPath>
    <clipPath
       clipPathUnits="userSpaceOnUse"
       id="clipPath345">
      <path
         d="M 35.791,40 H 527.208 V 586.355 H 35.791 Z"
         transform="translate(-328.39751,-74.951702)"
         id="path345" />
    </clipPath>
  </defs>
  <g
     inkscape:label="Layer 1"
     inkscape:groupmode="layer"
     id="layer1"
     transform="translate(-76.993749,-137.84792)">
    <path
       id="path310"
       d="m 0,0 c -4.833,0 -8.765,3.933 -8.765,8.766 v 43.2 c 0,4.833 3.932,8.764 8.765,8.764 h 138.24 c 4.833,0 8.765,-3.931 8.765,-8.764 V 8.766 C 147.005,3.933 143.073,0 138.24,0 Z"
       style="fill:#ffffff;fill-opacity:1;fill-rule:nonzero;stroke:none"
       transform="matrix(0.35277776,0,0,-0.35277776,80.129908,159.31638)"
       clip-path="url(#clipPath311)" />
    <path
       id="path312"
       d="m 0,0 h -138.24 c -4.902,0 -8.89,-3.988 -8.89,-8.89 v -43.2 c 0,-4.902 3.988,-8.89 8.89,-8.89 H 0 c 4.902,0 8.89,3.988 8.89,8.89 v 43.2 C 8.89,-3.988 4.902,0 0,0 m 0,-0.25 c 4.752,0 8.64,-3.888 8.64,-8.64 v -43.2 c 0,-4.752 -3.888,-8.64 -8.64,-8.64 h -138.24 c -4.752,0 -8.64,3.888 -8.64,8.64 v 43.2 c 0,4.752 3.888,8.64 8.64,8.64 z"
       style="fill:#000000;fill-opacity:1;fill-rule:nonzero;stroke:none"
       transform="matrix(0.35277776,0,0,-0.35277776,128.89794,137.84792)"
       clip-path="url(#clipPath313)" />
    <path
       id="path314"
       d="m 0,0 h -138.24 c -3.564,0 -6.48,2.916 -6.48,6.48 v 43.2 c 0,3.564 2.916,6.48 6.48,6.48 L 0,56.16 c 3.564,0 6.48,-2.916 6.48,-6.48 V 6.48 C 6.48,2.916 3.564,0 0,0"
       style="fill:#005a9c;fill-opacity:1;fill-rule:nonzero;stroke:none"
       transform="matrix(0.35277776,0,0,-0.35277776,128.89794,158.51011)"
       clip-path="url(#clipPath315)" />
    <path
       id="path316"
       d="m 0,0 c 0,-3.085 -2.527,-5.558 -5.709,-5.558 -4.22,0 -5.962,3.738 -5.962,7.477 0,4.395 2.374,7.425 5.96,7.425 2.575,0 4.345,-1.365 5.355,-3.588 L -2.981,4.849 c -0.556,1.213 -1.465,1.921 -2.728,1.921 -2.022,0 -3.386,-2.022 -3.386,-4.851 0,-2.319 0.705,-4.9 3.386,-4.9 1.414,0 2.676,0.961 3.031,2.275 H -5.052 V 1.868 H 0 Z"
       style="fill:#ffffff;fill-opacity:1;fill-rule:nonzero;stroke:none"
       transform="matrix(0.35277776,0,0,-0.35277776,114.77724,144.82713)"
       clip-path="url(#clipPath317)" />
    <path
       id="path318"
       d="m 0,0 h 4.041 l -2.02,4.851 z m 5.153,-2.576 h -6.264 l -1.414,-3.386 h -2.828 l 6.062,14.4 h 2.626 l 6.01,-14.4 H 6.566 Z"
       style="fill:#ffffff;fill-opacity:1;fill-rule:nonzero;stroke:none"
       transform="matrix(0.35277776,0,0,-0.35277776,117.37714,144.59599)"
       clip-path="url(#clipPath319)" />
    <path
       id="path320"
       d="m 0,0 c -1.015,-0.614 -2.327,-0.974 -3.652,-0.974 -2.486,0 -4.365,0.922 -5.989,2.817 l 2.081,1.64 c 1.066,-1.28 2.232,-1.845 3.856,-1.845 1.827,0 3.146,0.859 3.146,1.895 0,1.464 -1.46,1.563 -5.49,2.695 -2.027,0.569 -2.934,2.111 -2.934,3.658 0,2.41 2.032,4.046 4.973,4.046 2.132,0 3.912,-0.715 5.381,-2.25 L -0.558,9.94 c -0.913,0.973 -2.081,1.434 -3.451,1.434 -1.578,0 -2.332,-0.641 -2.332,-1.469 0,-1.596 1.96,-1.243 5.542,-2.505 C 1.73,6.507 2.03,4.347 2.03,3.433 2.03,1.948 1.37,0.819 0,0"
       style="fill:#ffffff;fill-opacity:1;fill-rule:nonzero;stroke:none"
       transform="matrix(0.35277776,0,0,-0.35277776,124.63406,146.44574)"
       clip-path="url(#clipPath321)" />
    <path
       id="path322"
       d="m 286.041,103.233 h 7.2 v -2.578 h -7.2 z"
       style="fill:#ffffff;fill-opacity:1;fill-rule:nonzero;stroke:none"
       transform="matrix(0.35277776,0,0,-0.35277776,4.670954,180.15842)"
       clip-path="url(#clipPath323)" />
    <path
       id="path324"
       d="M 0,0 H 4.513 V -2.626 H 0 v -6.266 h -2.637 v 14.4 h 10.8 V 2.93 H 0 Z"
       style="fill:#ffffff;fill-opacity:1;fill-rule:nonzero;stroke:none"
       transform="matrix(0.35277776,0,0,-0.35277776,84.607822,143.56221)"
       clip-path="url(#clipPath325)" />
    <path
       id="path326"
       d="m 0,0 c 0,-3.082 1.316,-4.9 3.494,-4.9 2.734,0 3.393,2.679 3.393,4.9 0,3.058 -1.255,4.851 -3.393,4.851 C 1.316,4.851 0,3.031 0,0 m -2.633,0 c 0,4.597 2.329,7.425 6.127,7.425 3.585,0 5.976,-2.959 5.976,-7.376 0,-4.495 -2.311,-7.526 -5.976,-7.526 -4.254,0 -6.127,3.863 -6.127,7.477"
       style="fill:#ffffff;fill-opacity:1;fill-rule:nonzero;stroke:none"
       transform="matrix(0.35277776,0,0,-0.35277776,89.127964,144.15022)"
       clip-path="url(#clipPath327)" />
    <path
       id="path328"
       d="m 0,0 c 0,-3.082 1.316,-4.9 3.494,-4.9 2.734,0 3.393,2.679 3.393,4.9 0,3.058 -1.255,4.851 -3.393,4.851 C 1.316,4.851 0,3.031 0,0 m -2.633,0 c 0,4.597 2.329,7.425 6.127,7.425 3.585,0 5.976,-2.959 5.976,-7.376 0,-4.495 -2.311,-7.526 -5.976,-7.526 -4.254,0 -6.127,3.863 -6.127,7.477"
       style="fill:#ffffff;fill-opacity:1;fill-rule:nonzero;stroke:none"
       transform="matrix(0.35277776,0,0,-0.35277776,94.41395,144.15022)"
       clip-path="url(#clipPath329)" />
    <path
       id="path330"
       d="m 0,0 v -9.245 h 1.996 c 2.308,0 4.477,1.523 4.477,4.648 C 6.473,-1.692 4.653,0 2.016,0 Z m -2.624,2.578 h 4.649 c 4.151,0 7.02,-3.017 7.02,-7.175 0,-3.957 -2.565,-7.225 -6.892,-7.225 h -4.777 z"
       style="fill:#ffffff;fill-opacity:1;fill-rule:nonzero;stroke:none"
       transform="matrix(0.35277776,0,0,-0.35277776,99.849126,142.52843)"
       clip-path="url(#clipPath331)" />
    <path
       id="path332"
       d="M 0,0 H 2.586 V -12.177 H 10.8 V -14.4 H 0 Z"
       style="fill:#ffffff;fill-opacity:1;fill-rule:nonzero;stroke:none"
       transform="matrix(0.35277776,0,0,-0.35277776,88.505592,150.50914)"
       clip-path="url(#clipPath333)" />
    <path
       id="path334"
       d="m 0,0 c 0,-3.082 1.316,-4.9 3.494,-4.9 2.734,0 3.393,2.679 3.393,4.9 0,3.058 -1.255,4.851 -3.393,4.851 C 1.316,4.851 0,3.031 0,0 m -2.633,0 c 0,4.597 2.329,7.425 6.127,7.425 3.585,0 5.976,-2.959 5.976,-7.376 0,-4.495 -2.312,-7.526 -5.976,-7.526 -4.254,0 -6.127,3.863 -6.127,7.477"
       style="fill:#ffffff;fill-opacity:1;fill-rule:nonzero;stroke:none"
       transform="matrix(0.35277776,0,0,-0.35277776,93.955903,153.04022)"
       clip-path="url(#clipPath335)" />
    <path
       id="path336"
       d="m 0,0 v -9.245 h 1.996 c 2.308,0 4.477,1.523 4.477,4.648 C 6.473,-1.692 4.653,0 2.016,0 Z m -2.624,2.578 h 4.649 c 4.151,0 7.02,-3.017 7.02,-7.175 0,-3.957 -2.565,-7.225 -6.892,-7.225 h -4.777 z"
       style="fill:#ffffff;fill-opacity:1;fill-rule:nonzero;stroke:none"
       transform="matrix(0.35277776,0,0,-0.35277776,99.391011,151.41846)"
       clip-path="url(#clipPath337)" />
    <path
       id="path338"
       d="m 0,0 c 0,-3.085 -2.527,-5.558 -5.709,-5.558 -4.22,0 -5.962,3.738 -5.962,7.477 0,4.395 2.374,7.425 5.96,7.425 2.575,0 4.345,-1.365 5.355,-3.588 L -2.981,4.849 c -0.556,1.213 -1.465,1.921 -2.728,1.921 -2.022,0 -3.386,-2.022 -3.386,-4.851 0,-2.319 0.705,-4.9 3.386,-4.9 1.414,0 2.676,0.961 3.031,2.275 H -5.052 V 1.868 H 0 Z"
       style="fill:#ffffff;fill-opacity:1;fill-rule:nonzero;stroke:none"
       transform="matrix(0.35277776,0,0,-0.35277776,107.71526,153.71713)"
       clip-path="url(#clipPath339)" />
    <path
       id="path340"
       d="m 295.406,84.045 h 2.592 v -14.4 h -2.592 z"
       style="fill:#ffffff;fill-opacity:1;fill-rule:nonzero;stroke:none"
       transform="matrix(0.35277776,0,0,-0.35277776,4.670954,180.15842)"
       clip-path="url(#clipPath341)" />
    <path
       id="path342"
       d="m 0,0 v -9.904 h -2.536 v 14.4 h 2.534 l 6.651,-9.5 v 9.5 h 2.486 v -14.4 H 6.901 Z"
       style="fill:#ffffff;fill-opacity:1;fill-rule:nonzero;stroke:none"
       transform="matrix(0.35277776,0,0,-0.35277776,112.01386,152.09534)"
       clip-path="url(#clipPath343)" />
    <path
       id="path344"
       d="m 0,0 c 0,-3.085 -2.527,-5.558 -5.709,-5.558 -4.22,0 -5.962,3.738 -5.962,7.477 0,4.395 2.374,7.425 5.96,7.425 2.575,0 4.345,-1.365 5.355,-3.588 L -2.981,4.849 c -0.556,1.213 -1.465,1.921 -2.728,1.921 -2.022,0 -3.386,-2.022 -3.386,-4.851 0,-2.319 0.705,-4.9 3.386,-4.9 1.414,0 2.676,0.961 3.031,2.275 H -5.052 V 1.868 H 0 Z"
       style="fill:#ffffff;fill-opacity:1;fill-rule:nonzero;stroke:none"
       transform="matrix(0.35277776,0,0,-0.35277776,120.52229,153.71713)"
       clip-path="url(#clipPath345)" />
  </g>
</svg>
