<?xml version="1.0" encoding="UTF-8" standalone="no"?>
<!-- Created with Inkscape (http://www.inkscape.org/) -->

<svg
   width="56.05674mm"
   height="10.336389mm"
   viewBox="0 0 56.05674 10.336389"
   version="1.1"
   id="svg1"
   inkscape:version="1.3 (0e150ed, 2023-07-21)"
   sodipodi:docname="MUTCD_D11-10a.svg"
   xmlns:inkscape="http://www.inkscape.org/namespaces/inkscape"
   xmlns:sodipodi="http://sodipodi.sourceforge.net/DTD/sodipodi-0.dtd"
   xmlns="http://www.w3.org/2000/svg"
   xmlns:svg="http://www.w3.org/2000/svg">
  <sodipodi:namedview
     id="namedview1"
     pagecolor="#ffffff"
     bordercolor="#666666"
     borderopacity="1.0"
     inkscape:showpageshadow="2"
     inkscape:pageopacity="0.0"
     inkscape:pagecheckerboard="0"
     inkscape:deskcolor="#d1d1d1"
     inkscape:document-units="mm"
     inkscape:zoom="0.2102413"
     inkscape:cx="104.64167"
     inkscape:cy="19.025757"
     inkscape:window-width="1440"
     inkscape:window-height="431"
     inkscape:window-x="0"
     inkscape:window-y="23"
     inkscape:window-maximized="0"
     inkscape:current-layer="layer1" />
  <defs
     id="defs1">
    <clipPath
       clipPathUnits="userSpaceOnUse"
       id="clipPath222">
      <path
         d="m 67.25,249.6 h 504.5 V 745.001 H 67.25 Z"
         transform="translate(-378.97681,-517.03291)"
         id="path222" />
    </clipPath>
  </defs>
  <g
     inkscape:label="Layer 1"
     inkscape:groupmode="layer"
     id="layer1"
     transform="translate(-76.464578,-143.40417)">
    <g
       id="g220"
       transform="matrix(0.26458333,0,0,0.26458333,-55.871857,56.694248)">
      <path
         id="path221"
         d="m 0,0 c -2.054,0 -3.725,1.671 -3.725,3.725 v 21.6 c 0,2.054 1.671,3.725 3.725,3.725 h 151.201 c 2.054,0 3.725,-1.671 3.725,-3.725 V 3.725 C 154.926,1.671 153.255,0 151.201,0 Z"
         style="fill:#ffffff;fill-opacity:1;fill-rule:nonzero;stroke:none"
         transform="matrix(1.3333333,0,0,-1.3333333,505.3024,366.6228)"
         clip-path="url(#clipPath222)" />
    </g>
    <g
       id="g222"
       transform="matrix(0.26458333,0,0,0.26458333,-55.871857,56.694248)">
      <path
         id="path223"
         d="m 0,0 h -151.201 c -2.123,0 -3.85,-1.727 -3.85,-3.85 v -21.6 c 0,-2.123 1.727,-3.85 3.85,-3.85 L 0,-29.3 c 2.123,0 3.85,1.727 3.85,3.85 v 21.6 C 3.85,-1.727 2.123,0 0,0 m 0,-0.25 c 1.988,0 3.6,-1.612 3.6,-3.6 v -21.6 c 0,-1.988 -1.612,-3.6 -3.6,-3.6 h -151.201 c -1.988,0 -3.6,1.612 -3.6,3.6 v 21.6 c 0,1.988 1.612,3.6 3.6,3.6 z"
         style="fill:#000000;fill-opacity:1;fill-rule:nonzero;stroke:none"
         transform="matrix(1.3333333,0,0,-1.3333333,706.90387,327.72253)" />
    </g>
    <g
       id="g223"
       transform="matrix(0.26458333,0,0,0.26458333,-55.871857,56.694248)">
      <path
         id="path224"
         d="m 0,0 h -151.201 c -0.994,0 -1.8,0.806 -1.8,1.8 v 21.6 c 0,0.994 0.806,1.8 1.8,1.8 L 0,25.2 c 0.994,0 1.8,-0.806 1.8,-1.8 V 1.8 C 1.8,0.806 0.994,0 0,0"
         style="fill:#006f53;fill-opacity:1;fill-rule:nonzero;stroke:none"
         transform="matrix(1.3333333,0,0,-1.3333333,706.90387,364.056)" />
    </g>
    <g
       id="g224"
       transform="matrix(0.26458333,0,0,0.26458333,-55.871857,56.694248)">
      <path
         id="path225"
         d="m 391.585,529.758 h 8.1 v 3.6 h -8.1 z"
         style="fill:#ffffff;fill-opacity:1;fill-rule:nonzero;stroke:none"
         transform="matrix(1.3333333,0,0,-1.3333333,0,1056)" />
    </g>
    <g
       id="g225"
       transform="matrix(0.26458333,0,0,0.26458333,-55.871857,56.694248)">
      <path
         id="path226"
         d="M 0,0 -1.462,-3.988 0,-7.976 c 0.202,-0.55 -0.422,-1.035 -0.905,-0.704 l -6.857,4.692 6.857,4.692 C -0.422,1.035 0.202,0.55 0,0"
         style="fill:#ffffff;fill-opacity:1;fill-rule:nonzero;stroke:none"
         transform="matrix(1.3333333,0,0,-1.3333333,524.06213,341.93867)" />
    </g>
    <g
       id="g226"
       transform="matrix(0.26458333,0,0,0.26458333,-55.871857,56.694248)">
      <path
         id="path227"
         d="m 0,0 c -1.725,0 -3.186,1.129 -3.686,2.688 l 3.441,0.74 C -0.173,3.388 -0.089,3.365 0,3.365 c 0.279,0 0.505,0.226 0.505,0.505 0,0.244 -0.172,0.447 -0.401,0.495 L -2.012,7.177 C -1.426,7.534 -0.737,7.74 0,7.74 2.137,7.74 3.87,6.007 3.87,3.87 3.87,1.733 2.137,0 0,0 m -3.87,3.87 c 0,1.127 0.482,2.142 1.251,2.849 L -0.661,4.116 -3.845,3.431 C -3.861,3.575 -3.87,3.721 -3.87,3.87 M -4.729,3.24 -6.242,2.914 -4.485,9.2 -3.162,7.441 C -4.148,6.567 -4.77,5.291 -4.77,3.87 c 0,-0.213 0.014,-0.424 0.041,-0.63 m -2.155,0.202 -0.235,0.893 h 0.367 v 0.36 h -1.159 v -0.36 h 0.461 l 0.233,-0.886 -4.986,5.427 c 0.081,0.259 0.164,0.525 0.246,0.79 h 6.813 z M -11.79,3.87 c 0,-2.137 -1.733,-3.87 -3.87,-3.87 -2.137,0 -3.87,1.733 -3.87,3.87 0,2.137 1.733,3.87 3.87,3.87 0.76,0 1.468,-0.219 2.066,-0.597 -0.475,-1.031 -1.402,-2.142 -2.07,-2.768 -0.277,-0.002 -0.501,-0.227 -0.501,-0.505 0,-0.279 0.226,-0.505 0.505,-0.505 0.258,0 0.47,0.193 0.501,0.443 0.327,0.306 0.753,0.756 1.175,1.296 0.314,0.401 0.705,0.956 1.003,1.558 0.734,-0.704 1.191,-1.695 1.191,-2.792 M 0,8.64 c -0.94,0 -1.816,-0.272 -2.555,-0.742 l -1.672,2.223 0.219,0.785 c 1.048,0.09 1.628,0.488 1.592,0.874 -0.034,0.373 -1.074,0.093 -2.23,0.079 -0.318,-0.004 -2,0.003 -1.991,-0.306 0.01,-0.316 1.086,-0.574 1.84,-0.646 l -0.134,-0.481 h -6.792 c 0.144,0.473 0.277,0.908 0.379,1.246 0.088,0.289 0.153,0.506 0.185,0.614 l -0.494,0.378 0.234,0.236 H -9.6 v 0.6 h -2.07 l -0.888,-0.899 0.569,-0.435 c -0.263,-0.874 -0.886,-2.925 -1.289,-4.162 -0.701,0.404 -1.515,0.636 -2.382,0.636 -2.634,0 -4.77,-2.136 -4.77,-4.77 0,-2.634 2.136,-4.77 4.77,-4.77 2.634,0 4.77,2.136 4.77,4.77 0,1.482 -0.676,2.807 -1.737,3.682 0.049,0.149 0.103,0.313 0.159,0.489 L -7.335,2.455 C -7.336,2.44 -7.337,2.425 -7.337,2.41 c 0,-0.302 0.24,-0.548 0.54,-0.558 l 0.36,-1.367 h -0.367 v -0.36 h 1.159 v 0.36 h -0.461 l -0.381,1.448 c 0.078,0.048 0.143,0.114 0.19,0.192 l 1.728,0.372 C -3.98,0.532 -2.157,-0.9 0,-0.9 2.634,-0.9 4.77,1.236 4.77,3.87 4.77,6.504 2.634,8.64 0,8.64"
         style="fill:#ffffff;fill-opacity:1;fill-rule:nonzero;stroke:none"
         transform="matrix(1.3333333,0,0,-1.3333333,572.95373,355.656)" />
      <path
         id="path228"
         d="m 0,0 c 0.677,0 1.229,-0.552 1.229,-1.229 0,-0.677 -0.552,-1.23 -1.229,-1.23 -0.677,0 -1.229,0.553 -1.229,1.23 C -1.229,-0.552 -0.677,0 0,0"
         style="fill:#ffffff;fill-opacity:1;fill-rule:evenodd;stroke:none"
         transform="matrix(1.3333333,0,0,-1.3333333,597.0764,336.05587)" />
    </g>
    <g
       id="g228"
       transform="matrix(0.26458333,0,0,0.26458333,-55.871857,56.694248)">
      <path
         id="path229"
         d="M 0,0 2.579,1.719 C 2.698,2.223 3.192,4.46 4.184,4.977 5.167,5.627 8.789,2.958 8.81,2.937 V -0.956 L 8.024,-0.82 7.717,2.288 C 7.421,2.347 7.125,2.407 6.829,2.466 7.476,0.795 7.714,-0.817 7.341,-1.878 L 8.912,-8.298 7.854,-9.049 5.566,-3.107 4.507,-4.234 3.039,-8.707 1.639,-8.195 2.902,-3.483 4.371,-0.854 3.808,1.087 3.21,0.307 0.41,-0.615 Z"
         style="fill:#ffffff;fill-opacity:1;fill-rule:evenodd;stroke:none"
         transform="matrix(1.3333333,0,0,-1.3333333,592.11387,346.39093)" />
      <path
         id="path230"
         d="m 0,0 1.448,0.538 c 0.404,-0.909 1.146,-1.413 2.056,-1.413 0.909,0 1.482,0.605 1.482,1.413 0,1.282 -1.482,1.479 -2.728,1.984 -0.572,0.236 -1.851,0.808 -1.851,2.39 0,1.885 1.279,2.589 2.996,2.589 1.346,0 2.256,-0.774 2.728,-1.951 L 4.784,5.147 C 4.562,5.581 4.097,5.988 3.289,5.988 2.481,5.988 1.884,5.652 1.884,5.018 1.884,4.122 2.66,3.944 3.917,3.55 5.197,3.148 6.535,2.558 6.535,0.504 6.535,-1.55 4.855,-2.422 3.504,-2.422 1.854,-2.422 0.641,-1.447 0,0"
         style="fill:#ffffff;fill-opacity:1;fill-rule:nonzero;stroke:none"
         transform="matrix(1.3333333,0,0,-1.3333333,616.79693,350.65267)" />
      <path
         id="path231"
         d="m 0,0 v -3.54 c 0.367,-0.374 0.733,-0.473 1.273,-0.473 1.034,0 1.374,1.313 1.374,2.292 0,1.035 -0.308,2.227 -1.475,2.227 C 0.738,0.506 0.367,0.439 0,0 m 1.547,1.932 c 2.032,0 2.641,-1.906 2.641,-3.653 0,-1.987 -0.767,-3.705 -2.881,-3.705 -0.533,0 -0.875,0.098 -1.341,0.372 v -2.24 l -1.54,-0.679 V 1.74 h 1.54 V 1.512 c 0.334,0.247 0.988,0.42 1.581,0.42"
         style="fill:#ffffff;fill-opacity:1;fill-rule:nonzero;stroke:none"
         transform="matrix(1.3333333,0,0,-1.3333333,629.52973,346.6192)" />
      <path
         id="path232"
         d="m 0,0 c -0.878,0 -0.979,-0.5 -0.979,-1.384 v -4.383 h -1.555 v 7.013 h 1.555 V 0.908 c 0.372,0.338 0.54,0.507 1.081,0.507 0.528,0 0.778,-0.203 1.014,-0.473 L 0.913,-0.406 C 0.608,-0.169 0.37,0 0,0"
         style="fill:#ffffff;fill-opacity:1;fill-rule:nonzero;stroke:none"
         transform="matrix(1.3333333,0,0,-1.3333333,640.54093,345.96627)" />
      <path
         id="path233"
         d="m 482.674,533.771 h 1.536 v -7.013 h -1.536 z m -0.041,1.956 c 0,0.441 0.368,0.803 0.809,0.809 0.44,0 0.808,-0.368 0.808,-0.809 0,-0.438 -0.369,-0.775 -0.808,-0.775 -0.438,0 -0.809,0.337 -0.809,0.775"
         style="fill:#ffffff;fill-opacity:1;fill-rule:nonzero;stroke:none"
         transform="matrix(1.3333333,0,0,-1.3333333,0,1056)" />
      <path
         id="path234"
         d="m 0,0 c 0,0.907 -0.606,1.112 -1.416,1.112 -0.215,0 -1.181,-0.123 -1.181,-1.18 V -4.654 H -4.148 V 2.359 H -2.63 V 2.124 c 0.383,0.239 1.058,0.433 1.509,0.433 h 0.018 c 1.321,0 2.621,-0.851 2.621,-2.388 V -4.654 H 0 Z"
         style="fill:#ffffff;fill-opacity:1;fill-rule:nonzero;stroke:none"
         transform="matrix(1.3333333,0,0,-1.3333333,653.70413,347.45107)" />
      <path
         id="path235"
         d="m 0,0 c -1.159,0 -1.48,-1.214 -1.48,-2.227 0,-0.979 0.335,-2.292 1.382,-2.292 0.54,0 0.912,0.098 1.279,0.473 v 3.54 C 0.775,-0.067 0.434,0 0,0 m -0.365,1.428 c 0.593,0 1.246,-0.173 1.579,-0.42 V 1.243 H 2.73 v -6.621 c 0,-0.9 0.258,-3.454 -3.188,-3.9 L -1.2,-8.134 c 0.874,0.2 2.414,0.548 2.414,1.721 v 0.84 c -0.472,-0.273 -0.806,-0.374 -1.346,-0.374 -2.126,0 -2.9,1.725 -2.9,3.72 0,1.833 0.601,3.655 2.667,3.655"
         style="fill:#ffffff;fill-opacity:1;fill-rule:nonzero;stroke:none"
         transform="matrix(1.3333333,0,0,-1.3333333,661.6916,345.9632)" />
      <path
         id="path236"
         d="M 0,0 H -1.543 V 5.63 H -2.45 v 1.383 h 0.907 v 1.214 c 0,0.707 0.294,1.551 1.375,1.551 0.47,0 0.704,-0.066 1.175,-0.168 V 8.294 C 0.836,8.328 0.576,8.418 0.367,8.418 0.158,8.418 0,8.33 0,8.024 V 7.013 H 1.008 V 5.63 H 0 Z"
         style="fill:#ffffff;fill-opacity:1;fill-rule:nonzero;stroke:none"
         transform="matrix(1.3333333,0,0,-1.3333333,670.39093,353.656)" />
      <path
         id="path237"
         d="m 504.953,533.771 h 1.536 v -7.013 h -1.536 z m -0.041,1.956 c 0,0.441 0.369,0.803 0.809,0.809 0.44,0 0.809,-0.368 0.809,-0.809 0,-0.438 -0.37,-0.775 -0.809,-0.775 -0.438,0 -0.809,0.337 -0.809,0.775"
         style="fill:#ffffff;fill-opacity:1;fill-rule:nonzero;stroke:none"
         transform="matrix(1.3333333,0,0,-1.3333333,0,1056)" />
      <path
         id="path238"
         d="M 0,0 H 2.613 C 2.613,0.677 2.479,1.484 1.34,1.484 0.174,1.484 0,0.695 0,0 m 0.034,-1.416 c 0.067,-0.775 0.367,-1.585 1.306,-1.585 0.617,0 1.139,0.371 1.307,0.978 L 3.885,-2.798 C 3.483,-3.709 2.747,-4.417 1.34,-4.417 c -2.418,0 -2.881,1.854 -2.881,3.675 0,1.551 0.469,3.641 2.881,3.641 2.525,0 2.785,-2.189 2.785,-3.882 v -0.433 z"
         style="fill:#ffffff;fill-opacity:1;fill-rule:nonzero;stroke:none"
         transform="matrix(1.3333333,0,0,-1.3333333,679.42133,347.94547)" />
      <path
         id="path239"
         d="M 0,0 1.536,0.742 V -9.036 H 0 Z"
         style="fill:#ffffff;fill-opacity:1;fill-rule:nonzero;stroke:none"
         transform="matrix(1.3333333,0,0,-1.3333333,686.71453,341.60787)" />
      <path
         id="path240"
         d="m 0,0 c 0.54,0 0.91,0.101 1.28,0.473 v 3.54 C 0.876,4.451 0.535,4.52 0.101,4.52 -1.056,4.52 -1.381,3.305 -1.381,2.293 -1.381,1.313 -1.049,0 0,0 m -0.265,5.95 c 0.593,0 1.249,-0.173 1.579,-0.419 V 7.789 L 2.831,8.531 V -1.247 H 1.314 v 0.203 c -0.472,-0.27 -0.809,-0.372 -1.348,-0.372 -2.127,0 -2.897,1.72 -2.897,3.709 0,1.834 0.597,3.657 2.666,3.657"
         style="fill:#ffffff;fill-opacity:1;fill-rule:nonzero;stroke:none"
         transform="matrix(1.3333333,0,0,-1.3333333,694.71907,351.99347)" />
    </g>
  </g>
</svg>
