<?xml version="1.0" encoding="UTF-8" standalone="no"?>
<!-- Created with Inkscape (http://www.inkscape.org/) -->

<svg
   width="23.036388mm"
   height="23.036388mm"
   viewBox="0 0 23.036388 23.036388"
   version="1.1"
   id="svg1"
   inkscape:version="1.3 (0e150ed, 2023-07-21)"
   sodipodi:docname="MUTCD_D9-16aP.svg"
   xmlns:inkscape="http://www.inkscape.org/namespaces/inkscape"
   xmlns:sodipodi="http://sodipodi.sourceforge.net/DTD/sodipodi-0.dtd"
   xmlns="http://www.w3.org/2000/svg"
   xmlns:svg="http://www.w3.org/2000/svg">
  <sodipodi:namedview
     id="namedview1"
     pagecolor="#ffffff"
     bordercolor="#666666"
     borderopacity="1.0"
     inkscape:showpageshadow="2"
     inkscape:pageopacity="0.0"
     inkscape:pagecheckerboard="0"
     inkscape:deskcolor="#d1d1d1"
     inkscape:document-units="mm"
     inkscape:zoom="0.2102413"
     inkscape:cx="42.807954"
     inkscape:cy="42.807954"
     inkscape:window-width="1440"
     inkscape:window-height="431"
     inkscape:window-x="0"
     inkscape:window-y="23"
     inkscape:window-maximized="0"
     inkscape:current-layer="layer1" />
  <defs
     id="defs1">
    <clipPath
       clipPathUnits="userSpaceOnUse"
       id="clipPath681">
      <path
         d="M 20.164,43.656 H 549.067 V 743 H 20.164 Z"
         transform="translate(-182.481,-215.28691)"
         id="path681" />
    </clipPath>
    <clipPath
       clipPathUnits="userSpaceOnUse"
       id="clipPath683">
      <path
         d="M 20.164,43.656 H 549.067 V 743 H 20.164 Z"
         transform="translate(-239.1811,-280.46191)"
         id="path683" />
    </clipPath>
    <clipPath
       clipPathUnits="userSpaceOnUse"
       id="clipPath685">
      <path
         d="M 20.164,43.656 H 549.067 V 743 H 20.164 Z"
         transform="translate(-182.481,-216.76191)"
         id="path685" />
    </clipPath>
    <clipPath
       clipPathUnits="userSpaceOnUse"
       id="clipPath687">
      <path
         d="M 20.164,43.656 H 549.067 V 743 H 20.164 Z"
         transform="translate(-217.52101,-267.25191)"
         id="path687" />
    </clipPath>
    <clipPath
       clipPathUnits="userSpaceOnUse"
       id="clipPath689">
      <path
         d="M 20.164,43.656 H 549.067 V 743 H 20.164 Z"
         transform="translate(-223.6297,-261.31191)"
         id="path689" />
    </clipPath>
    <clipPath
       clipPathUnits="userSpaceOnUse"
       id="clipPath691">
      <path
         d="M 20.164,43.656 H 549.067 V 743 H 20.164 Z"
         transform="translate(-204.43411,-268.2751)"
         id="path691" />
    </clipPath>
    <clipPath
       clipPathUnits="userSpaceOnUse"
       id="clipPath693">
      <path
         d="M 20.164,43.656 H 549.067 V 743 H 20.164 Z"
         transform="translate(-199.4637,-268.33191)"
         id="path693" />
    </clipPath>
    <clipPath
       clipPathUnits="userSpaceOnUse"
       id="clipPath695">
      <path
         d="M 20.164,43.656 H 549.067 V 743 H 20.164 Z"
         transform="translate(-212.22111,-262.3066)"
         id="path695" />
    </clipPath>
    <clipPath
       clipPathUnits="userSpaceOnUse"
       id="clipPath697">
      <path
         d="M 20.164,43.656 H 549.067 V 743 H 20.164 Z"
         transform="translate(-205.68841,-232.294)"
         id="path697" />
    </clipPath>
    <clipPath
       clipPathUnits="userSpaceOnUse"
       id="clipPath699">
      <path
         d="M 20.164,43.656 H 549.067 V 743 H 20.164 Z"
         transform="translate(-198.6396,-233.17501)"
         id="path699" />
    </clipPath>
    <clipPath
       clipPathUnits="userSpaceOnUse"
       id="clipPath701">
      <path
         d="M 20.164,43.656 H 549.067 V 743 H 20.164 Z"
         transform="translate(-215.32861,-226.21191)"
         id="path701" />
    </clipPath>
    <clipPath
       clipPathUnits="userSpaceOnUse"
       id="clipPath703">
      <path
         d="M 20.164,43.656 H 549.067 V 743 H 20.164 Z"
         transform="translate(-223.1926,-233.17501)"
         id="path703" />
    </clipPath>
    <clipPath
       clipPathUnits="userSpaceOnUse"
       id="clipPath705">
      <path
         d="M 20.164,43.656 H 549.067 V 743 H 20.164 Z"
         transform="translate(-212.88261,-226.21191)"
         id="path705" />
    </clipPath>
    <clipPath
       clipPathUnits="userSpaceOnUse"
       id="clipPath707">
      <path
         d="M 20.164,43.656 H 549.067 V 743 H 20.164 Z"
         transform="translate(-224.41551,-249.44611)"
         id="path707" />
    </clipPath>
    <clipPath
       clipPathUnits="userSpaceOnUse"
       id="clipPath709">
      <path
         d="M 20.164,43.656 H 549.067 V 743 H 20.164 Z"
         transform="translate(-189.35781,-243.76191)"
         id="path709" />
    </clipPath>
    <clipPath
       clipPathUnits="userSpaceOnUse"
       id="clipPath711">
      <path
         d="M 20.164,43.656 H 549.067 V 743 H 20.164 Z"
         transform="translate(-204.754,-243.76191)"
         id="path711" />
    </clipPath>
    <clipPath
       clipPathUnits="userSpaceOnUse"
       id="clipPath713">
      <path
         d="M 20.164,43.656 H 549.067 V 743 H 20.164 Z"
         transform="translate(-228.1711,-243.76191)"
         id="path713" />
    </clipPath>
    <clipPath
       clipPathUnits="userSpaceOnUse"
       id="clipPath715">
      <path
         d="M 20.164,43.656 H 549.067 V 743 H 20.164 Z"
         transform="translate(-219.83781,-243.76191)"
         id="path715" />
    </clipPath>
    <clipPath
       clipPathUnits="userSpaceOnUse"
       id="clipPath717">
      <path
         d="M 20.164,43.656 H 549.067 V 743 H 20.164 Z"
         transform="translate(-212.61811,-250.72501)"
         id="path717" />
    </clipPath>
    <clipPath
       clipPathUnits="userSpaceOnUse"
       id="clipPath719">
      <path
         d="M 20.164,43.656 H 549.067 V 743 H 20.164 Z"
         transform="translate(-202.13781,-250.78191)"
         id="path719" />
    </clipPath>
    <clipPath
       clipPathUnits="userSpaceOnUse"
       id="clipPath721">
      <path
         d="M 20.164,43.656 H 549.067 V 743 H 20.164 Z"
         transform="translate(-197.74131,-243.76191)"
         id="path721" />
    </clipPath>
  </defs>
  <g
     inkscape:label="Layer 1"
     inkscape:groupmode="layer"
     id="layer1"
     transform="translate(-92.868749,-137.05417)">
    <path
       id="path680"
       d="m 0,0 c -2.302,0 -4.175,1.873 -4.175,4.175 v 56.7 c 0,2.302 1.873,4.175 4.175,4.175 h 56.7 c 2.302,0 4.175,-1.873 4.175,-4.175 V 4.175 C 60.875,1.873 59.002,0 56.7,0 Z"
       style="fill:#ffffff;fill-opacity:1;fill-rule:nonzero;stroke:none"
       transform="matrix(0.35277776,0,0,-0.35277776,94.385659,160.04646)"
       clip-path="url(#clipPath681)" />
    <path
       id="path682"
       d="M 0,0 H -56.7 C -59.071,0 -61,-1.929 -61,-4.3 V -61 c 0,-2.371 1.929,-4.3 4.3,-4.3 H 0 c 2.371,0 4.3,1.929 4.3,4.3 V -4.3 C 4.3,-1.929 2.371,0 0,0 m 0,-0.25 c 2.237,0 4.05,-1.813 4.05,-4.05 V -61 c 0,-2.237 -1.813,-4.05 -4.05,-4.05 h -56.7 c -2.237,0 -4.05,1.813 -4.05,4.05 v 56.7 c 0,2.237 1.813,4.05 4.05,4.05 z"
       style="fill:#000000;fill-opacity:1;fill-rule:nonzero;stroke:none"
       transform="matrix(0.35277776,0,0,-0.35277776,114.38819,137.05417)"
       clip-path="url(#clipPath683)" />
    <path
       id="path684"
       d="m 0,0 c -1.489,0 -2.7,1.211 -2.7,2.7 v 56.7 c 0,1.489 1.211,2.7 2.7,2.7 h 56.7 c 1.489,0 2.7,-1.211 2.7,-2.7 V 2.7 C 59.4,1.211 58.189,0 56.7,0 Z"
       style="fill:#005a9c;fill-opacity:1;fill-rule:nonzero;stroke:none"
       transform="matrix(0.35277776,0,0,-0.35277776,94.385659,159.52611)"
       clip-path="url(#clipPath685)" />
    <path
       id="path686"
       d="m 0,0 c -0.114,0.796 -0.428,1.165 -0.97,1.165 -0.942,0 -1.285,-0.739 -1.285,-2.842 0,-2.33 0.4,-3.268 1.399,-3.268 0.685,0 0.856,0.568 0.856,1.165 h 1.17 c -0.028,-1.336 -0.885,-2.302 -2.026,-2.302 -1.741,0 -2.512,1.393 -2.512,4.377 0,2.614 0.828,4.007 2.426,4.007 0.657,0 1.227,-0.284 1.598,-0.824 C 0.97,1.08 1.085,0.739 1.17,0 Z"
       style="fill:#ffffff;fill-opacity:1;fill-rule:nonzero;stroke:none"
       transform="matrix(0.35277776,0,0,-0.35277776,106.74699,141.71436)"
       clip-path="url(#clipPath687)" />
    <path
       id="path688"
       d="M 0,0 -1.418,3.951 -2.156,2.586 V 0 h -1.162 v 8.1 h 1.162 V 4.86 L -0.312,8.1 H 1.021 L -0.652,5.258 1.22,0 Z"
       style="fill:#ffffff;fill-opacity:1;fill-rule:nonzero;stroke:none"
       transform="matrix(0.35277776,0,0,-0.35277776,108.902,143.80986)"
       clip-path="url(#clipPath689)" />
    <path
       id="path690"
       d="M 0,0 H -1.191 V -2.046 H 0 c 0.681,0 1.049,0.369 1.049,1.023 C 1.049,-0.398 0.624,0 0,0 m 0.993,-6.963 -1.078,3.808 h -1.106 v -3.808 h -1.163 v 8.1 h 2.411 c 1.276,0 2.127,-0.853 2.127,-2.16 0,-0.966 -0.397,-1.677 -1.163,-1.961 l 1.163,-3.979 z"
       style="fill:#ffffff;fill-opacity:1;fill-rule:nonzero;stroke:none"
       transform="matrix(0.35277776,0,0,-0.35277776,102.13022,141.3534)"
       clip-path="url(#clipPath691)" />
    <path
       id="path692"
       d="M 0,0 V -7.02 H -1.169 V 0 H -2.651 V 1.08 H 1.482 V 0 Z"
       style="fill:#ffffff;fill-opacity:1;fill-rule:nonzero;stroke:none"
       transform="matrix(0.35277776,0,0,-0.35277776,100.37678,141.33336)"
       clip-path="url(#clipPath693)" />
    <path
       id="path694"
       d="m 0,0 c -0.397,-0.654 -1.163,-1.137 -1.929,-1.137 -0.794,0 -1.588,0.455 -1.985,1.137 -0.227,0.426 -0.312,0.767 -0.312,1.421 v 5.684 h 1.163 V 1.279 C -3.063,0.512 -2.609,0 -1.929,0 c 0.624,0 1.078,0.512 1.078,1.279 V 7.105 H 0.312 V 1.421 C 0.312,0.767 0.227,0.426 0,0"
       style="fill:#ffffff;fill-opacity:1;fill-rule:nonzero;stroke:none"
       transform="matrix(0.35277776,0,0,-0.35277776,104.87731,143.45896)"
       clip-path="url(#clipPath695)" />
    <path
       id="path696"
       d="m 0,0 c -0.2,0.711 -0.515,1.023 -1.002,1.023 -0.515,0 -0.83,-0.312 -1.031,-0.995 -0.2,-0.625 -0.257,-1.165 -0.257,-2.074 0,-0.881 0.086,-1.393 0.257,-2.047 0.201,-0.682 0.516,-0.994 1.031,-0.994 0.487,0 0.802,0.312 1.002,0.994 0.2,0.654 0.258,1.137 0.258,2.075 C 0.258,-1.108 0.172,-0.597 0,0 m 0.916,-4.832 c -0.401,-0.966 -1.002,-1.392 -1.918,-1.392 -0.973,0 -1.546,0.426 -1.947,1.392 -0.343,0.796 -0.458,1.564 -0.458,2.814 0,1.222 0.115,2.046 0.458,2.814 0.43,0.966 1.002,1.364 1.947,1.364 0.945,0 1.517,-0.398 1.918,-1.393 0.344,-0.795 0.458,-1.563 0.458,-2.785 0,-1.25 -0.114,-2.046 -0.458,-2.814"
       style="fill:#ffffff;fill-opacity:1;fill-rule:nonzero;stroke:none"
       transform="matrix(0.35277776,0,0,-0.35277776,102.57271,154.04673)"
       clip-path="url(#clipPath697)" />
    <path
       id="path698"
       d="M 0,0 H -1.191 V -2.302 H 0 c 0.681,0 1.049,0.426 1.049,1.165 C 1.049,-0.455 0.624,0 0,0 m 0.057,-3.411 h -1.248 v -3.552 h -1.163 v 8.1 h 2.411 c 1.276,0 2.127,-0.91 2.127,-2.274 0,-1.478 -0.766,-2.274 -2.127,-2.274"
       style="fill:#ffffff;fill-opacity:1;fill-rule:nonzero;stroke:none"
       transform="matrix(0.35277776,0,0,-0.35277776,100.08605,153.73594)"
       clip-path="url(#clipPath699)" />
    <path
       id="path700"
       d="M 0,0 V 8.1 H 3.819 V 6.963 H 1.169 V 4.917 H 2.85 V 3.808 H 1.169 V 1.137 H 4.133 V 0 Z"
       style="fill:#ffffff;fill-opacity:1;fill-rule:nonzero;stroke:none"
       transform="matrix(0.35277776,0,0,-0.35277776,105.97356,156.19236)"
       clip-path="url(#clipPath701)" />
    <path
       id="path702"
       d="M 0,0 H -1.191 V -2.046 H 0 c 0.681,0 1.049,0.369 1.049,1.023 C 1.049,-0.398 0.624,0 0,0 m 0.993,-6.963 -1.078,3.808 h -1.106 v -3.808 h -1.163 v 8.1 h 2.411 c 1.276,0 2.127,-0.853 2.127,-2.16 0,-0.966 -0.397,-1.677 -1.163,-1.961 l 1.163,-3.979 z"
       style="fill:#ffffff;fill-opacity:1;fill-rule:nonzero;stroke:none"
       transform="matrix(0.35277776,0,0,-0.35277776,108.74781,153.73594)"
       clip-path="url(#clipPath703)" />
    <path
       id="path704"
       d="M 0,0 H -0.998 L -1.768,4.235 -2.538,0 h -1.027 l -1.283,8.1 h 1.141 l 0.684,-4.32 0.799,4.32 h 0.912 l 0.77,-4.32 0.713,4.32 h 1.141 z"
       style="fill:#ffffff;fill-opacity:1;fill-rule:nonzero;stroke:none"
       transform="matrix(0.35277776,0,0,-0.35277776,105.11067,156.19236)"
       clip-path="url(#clipPath705)" />
    <path
       id="path706"
       d="m 0,0 -0.57,-2.331 h 1.168 z m 1.453,-5.684 -0.57,2.217 h -1.738 l -0.541,-2.217 h -1.168 l 2.023,8.1 h 1.139 l 2.024,-8.1 z"
       style="fill:#ffffff;fill-opacity:1;fill-rule:nonzero;stroke:none"
       transform="matrix(0.35277776,0,0,-0.35277776,109.17922,147.99585)"
       clip-path="url(#clipPath707)" />
    <path
       id="path708"
       d="M 0,0 V 8.1 H 3.819 V 6.963 H 1.169 V 4.917 H 2.85 V 3.808 H 1.169 V 1.137 H 4.133 V 0 Z"
       style="fill:#ffffff;fill-opacity:1;fill-rule:nonzero;stroke:none"
       transform="matrix(0.35277776,0,0,-0.35277776,96.811642,150.00111)"
       clip-path="url(#clipPath709)" />
    <path
       id="path710"
       d="M 0,0 V 8.1 H 3.819 V 6.963 H 1.169 V 4.917 H 2.85 V 3.808 H 1.169 V 1.137 H 4.133 V 0 Z"
       style="fill:#ffffff;fill-opacity:1;fill-rule:nonzero;stroke:none"
       transform="matrix(0.35277776,0,0,-0.35277776,102.24308,150.00111)"
       clip-path="url(#clipPath711)" />
    <path
       id="path712"
       d="M 0,0 V 8.1 H 1.169 V 1.08 H 4.133 V 0 Z"
       style="fill:#ffffff;fill-opacity:1;fill-rule:nonzero;stroke:none"
       transform="matrix(0.35277776,0,0,-0.35277776,110.50411,150.00111)"
       clip-path="url(#clipPath713)" />
    <path
       id="path714"
       d="M 0,0 -2.496,5.428 V 0 h -1.163 v 8.1 h 1.163 L -0.284,3.24 V 8.1 H 0.879 V 0 Z"
       style="fill:#ffffff;fill-opacity:1;fill-rule:nonzero;stroke:none"
       transform="matrix(0.35277776,0,0,-0.35277776,107.56431,150.00111)"
       clip-path="url(#clipPath715)" />
    <path
       id="path716"
       d="M 0,0 H -1.191 V -2.046 H 0 c 0.681,0 1.049,0.369 1.049,1.023 C 1.049,-0.398 0.624,0 0,0 m 0.993,-6.963 -1.078,3.808 h -1.106 v -3.808 h -1.163 v 8.1 h 2.411 c 1.276,0 2.127,-0.853 2.127,-2.16 0,-0.966 -0.397,-1.677 -1.163,-1.961 l 1.163,-3.979 z"
       style="fill:#ffffff;fill-opacity:1;fill-rule:nonzero;stroke:none"
       transform="matrix(0.35277776,0,0,-0.35277776,105.01736,147.54469)"
       clip-path="url(#clipPath717)" />
    <path
       id="path718"
       d="M 0,0 V -7.02 H -1.169 V 0 H -2.651 V 1.08 H 1.482 V 0 Z"
       style="fill:#ffffff;fill-opacity:1;fill-rule:nonzero;stroke:none"
       transform="matrix(0.35277776,0,0,-0.35277776,101.32014,147.52461)"
       clip-path="url(#clipPath719)" />
    <path
       id="path720"
       d="M 0,0 -1.145,2.757 -2.29,0 H -3.521 L -1.746,4.206 -3.407,8.1 h 1.231 L -1.145,5.656 -0.115,8.1 H 1.117 L -0.515,4.206 1.26,0 Z"
       style="fill:#ffffff;fill-opacity:1;fill-rule:nonzero;stroke:none"
       transform="matrix(0.35277776,0,0,-0.35277776,99.769154,150.00111)"
       clip-path="url(#clipPath721)" />
  </g>
</svg>
