<?xml version="1.0" encoding="UTF-8" standalone="no"?>
<!-- Created with Inkscape (http://www.inkscape.org/) -->

<svg
   width="41.451035mm"
   height="47.347363mm"
   viewBox="0 0 41.451035 47.347363"
   version="1.1"
   id="svg1"
   inkscape:version="1.3 (0e150ed, 2023-07-21)"
   sodipodi:docname="MUTCD_D17-3.svg"
   xmlns:inkscape="http://www.inkscape.org/namespaces/inkscape"
   xmlns:sodipodi="http://sodipodi.sourceforge.net/DTD/sodipodi-0.dtd"
   xmlns="http://www.w3.org/2000/svg"
   xmlns:svg="http://www.w3.org/2000/svg">
  <sodipodi:namedview
     id="namedview1"
     pagecolor="#ffffff"
     bordercolor="#666666"
     borderopacity="1.0"
     inkscape:showpageshadow="2"
     inkscape:pageopacity="0.0"
     inkscape:pagecheckerboard="0"
     inkscape:deskcolor="#d1d1d1"
     inkscape:document-units="mm"
     inkscape:zoom="1"
     inkscape:cx="78.5"
     inkscape:cy="90"
     inkscape:window-width="1440"
     inkscape:window-height="431"
     inkscape:window-x="0"
     inkscape:window-y="23"
     inkscape:window-maximized="0"
     inkscape:current-layer="layer1" />
  <defs
     id="defs1">
    <clipPath
       clipPathUnits="userSpaceOnUse"
       id="clipPath125">
      <path
         d="m 67.25,184.126 h 504.5 V 363.401 H 67.25 Z"
         transform="translate(-331.76881,-203.3704)"
         id="path125" />
    </clipPath>
  </defs>
  <g
     inkscape:label="Layer 1"
     inkscape:groupmode="layer"
     id="layer1"
     transform="translate(-84.402083,-124.88333)">
    <g
       id="g123"
       transform="matrix(0.26458333,0,0,0.26458333,-30.339137,-35.469057)">
      <path
         id="path124"
         d="M 0,0 C -3.525,0 -6.393,2.868 -6.393,6.393 V 127.57 c 0,3.525 2.868,6.392 6.393,6.392 h 104.463 c 3.525,0 6.393,-2.867 6.393,-6.392 V 6.393 C 110.856,2.868 107.988,0 104.463,0 Z"
         style="fill:#ffffff;fill-opacity:1;fill-rule:nonzero;stroke:none"
         transform="matrix(1.3333333,0,0,-1.3333333,442.3584,784.83947)"
         clip-path="url(#clipPath125)" />
    </g>
    <g
       id="g125"
       transform="matrix(0.26458333,0,0,0.26458333,-30.339137,-35.469057)">
      <path
         id="path126"
         d="m 0,0 h -104.463 c -3.594,0 -6.518,-2.924 -6.518,-6.518 v -121.177 c 0,-3.594 2.924,-6.518 6.518,-6.518 H 0 c 3.594,0 6.518,2.924 6.518,6.518 V -6.518 C 6.518,-2.924 3.594,0 0,0 m 0,-0.25 c 3.462,0 6.268,-2.806 6.268,-6.268 v -121.177 c 0,-3.461 -2.806,-6.268 -6.268,-6.268 h -104.463 c -3.462,0 -6.268,2.807 -6.268,6.268 V -6.518 c 0,3.462 2.806,6.268 6.268,6.268 z"
         style="fill:#000000;fill-opacity:1;fill-rule:nonzero;stroke:none"
         transform="matrix(1.3333333,0,0,-1.3333333,581.64227,606.05627)" />
    </g>
    <g
       id="g126"
       transform="matrix(0.26458333,0,0,0.26458333,-30.339137,-35.469057)">
      <path
         id="path127"
         d="m 0,0 c -2.112,0 -3.83,1.718 -3.83,3.83 v 121.177 c 0,2.112 1.718,3.831 3.83,3.831 h 104.463 c 2.112,0 3.83,-1.719 3.83,-3.831 V 3.83 c 0,-2.112 -1.718,-3.83 -3.83,-3.83 z"
         style="fill:#006f51;fill-opacity:1;fill-rule:nonzero;stroke:none"
         transform="matrix(1.3333333,0,0,-1.3333333,442.35827,781.42307)" />
      <path
         id="path128"
         d="M 0,0 V -11.318 H -2.637 V 5.397 H 0 L 6.1,-5.277 V 5.397 H 8.741 V -11.318 H 6.395 Z"
         style="fill:#ffffff;fill-opacity:1;fill-rule:nonzero;stroke:none"
         transform="matrix(1.3333333,0,0,-1.3333333,481.84253,633.08467)" />
      <path
         id="path129"
         d="M 0,0 H 9.84 V -2.639 H 2.637 V -6.744 H 7.498 V -9.441 H 2.637 v -4.576 h 7.729 v -2.697 H 0 Z"
         style="fill:#ffffff;fill-opacity:1;fill-rule:nonzero;stroke:none"
         transform="matrix(1.3333333,0,0,-1.3333333,498.84653,625.8892)" />
      <path
         id="path130"
         d="m 0,0 -2.697,-5.572 h -2.992 l 4.164,8.62 -3.871,8.094 h 2.991 L 0,6.157 2.405,11.142 H 5.396 L 1.467,3.048 5.689,-5.572 H 2.697 Z"
         style="fill:#ffffff;fill-opacity:1;fill-rule:nonzero;stroke:none"
         transform="matrix(1.3333333,0,0,-1.3333333,522.48307,640.74507)" />
      <path
         id="path131"
         d="m 0,0 h -2.651 v 14.368 h -3.828 v 2.346 H 3.888 V 14.368 H 0 Z"
         style="fill:#ffffff;fill-opacity:1;fill-rule:nonzero;stroke:none"
         transform="matrix(1.3333333,0,0,-1.3333333,540.48987,648.17453)" />
    </g>
    <g
       id="g131"
       transform="matrix(0.26458333,0,0,0.26458333,-30.339137,-35.469057)">
      <path
         id="path132"
         d="m 0,0 h 2.637 v -14.251 h 7.73 v -2.463 H 0 Z"
         style="fill:#ffffff;fill-opacity:1;fill-rule:nonzero;stroke:none"
         transform="matrix(1.3333333,0,0,-1.3333333,476.10147,703.8884)" />
      <path
         id="path133"
         d="M 0,0 H 3.362 L 1.709,4.69 Z M 4.304,-2.697 H -0.944 L -2.597,-7.39 H -5.428 L 0.353,9.324 H 3.008 L 8.787,-7.39 H 5.956 Z"
         style="fill:#ffffff;fill-opacity:1;fill-rule:nonzero;stroke:none"
         transform="matrix(1.3333333,0,0,-1.3333333,498.4988,716.32093)" />
      <path
         id="path134"
         d="M 0,0 V -11.318 H -2.637 V 5.397 H 0 L 6.101,-5.277 V 5.397 h 2.64 V -11.318 H 6.395 Z"
         style="fill:#ffffff;fill-opacity:1;fill-rule:nonzero;stroke:none"
         transform="matrix(1.3333333,0,0,-1.3333333,517.07453,711.08387)" />
      <path
         id="path135"
         d="M 0,0 H 9.84 V -2.639 H 2.637 V -6.744 H 7.498 V -9.441 H 2.637 v -4.576 h 7.73 v -2.697 H 0 Z"
         style="fill:#ffffff;fill-opacity:1;fill-rule:nonzero;stroke:none"
         transform="matrix(1.3333333,0,0,-1.3333333,534.07907,703.8884)" />
    </g>
    <g
       id="g135"
       transform="matrix(0.26458333,0,0,0.26458333,-30.339137,-35.469057)">
      <path
         id="path136"
         d="M 0,0 -3.876,-9.677 -7.755,0 V -9.677 H -10.4 V 7.037 h 2.645 L -3.876,-2.346 0,7.037 H 2.645 V -9.677 H 0 Z"
         style="fill:#ffffff;fill-opacity:1;fill-rule:nonzero;stroke:none"
         transform="matrix(1.3333333,0,0,-1.3333333,506.48267,752.27)" />
      <path
         id="path137"
         d="m 386.519,234.835 h 2.674 v -16.714 h -2.674 z"
         style="fill:#ffffff;fill-opacity:1;fill-rule:nonzero;stroke:none"
         transform="matrix(1.3333333,0,0,-1.3333333,0,1056)" />
      <path
         id="path138"
         d="m 0,0 h 2.637 v -14.251 h 7.73 v -2.463 H 0 Z"
         style="fill:#ffffff;fill-opacity:1;fill-rule:nonzero;stroke:none"
         transform="matrix(1.3333333,0,0,-1.3333333,524.2732,742.88773)" />
      <path
         id="path139"
         d="M 0,0 H 9.84 V -2.639 H 2.637 V -6.744 H 7.498 V -9.441 H 2.637 v -4.576 h 7.73 v -2.697 H 0 Z"
         style="fill:#ffffff;fill-opacity:1;fill-rule:nonzero;stroke:none"
         transform="matrix(1.3333333,0,0,-1.3333333,541.43907,742.88773)" />
      <path
         id="path140"
         d="m 0,0 2.52,0.936 c 0.704,-1.582 1.997,-2.459 3.578,-2.459 1.523,0 2.585,1.053 2.585,2.459 0,2.233 -2.585,2.576 -4.751,3.456 C 2.935,4.801 0.71,5.798 0.71,8.549 c 0,3.282 2.225,4.511 5.213,4.511 2.342,0 3.924,-1.348 4.745,-3.397 L 8.323,8.961 C 7.937,9.715 7.126,10.425 5.722,10.425 3.7,10.425 3.28,9.322 3.28,8.737 3.28,7.177 4.628,6.867 6.815,6.18 9.042,5.48 11.378,4.454 11.378,0.878 11.376,-2.729 8.449,-4.216 6.098,-4.216 3.228,-4.216 1.114,-2.52 0,0"
         style="fill:#ffffff;fill-opacity:1;fill-rule:nonzero;stroke:none"
         transform="matrix(1.3333333,0,0,-1.3333333,557.49093,759.94453)" />
    </g>
    <g
       id="g140"
       transform="matrix(0.26458333,0,0,0.26458333,-30.339137,-35.469057)">
      <path
         id="path141"
         d="M 0,0 1.611,2.933 C 2.492,2.491 4.03,2.199 5.571,2.199 c 3.009,0 5.351,1.987 5.351,4.69 0,2.053 -1.663,3.667 -3.74,3.667 -1.465,0 -2.126,-0.439 -3.371,-2.199 L 0.512,9.31 1.029,20.086 H 13.051 V 16.787 H 4.252 L 4.035,13.343 c 1.541,0.438 2.199,0.584 3.226,0.584 3.821,0 6.963,-3.173 6.963,-7.035 0,-4.62 -3.808,-8.065 -9.092,-8.065 C 3.299,-1.173 1.465,-0.734 0,0"
         style="fill:#ffffff;fill-opacity:1;fill-rule:nonzero;stroke:none"
         transform="matrix(1.3333333,0,0,-1.3333333,451.33947,766.88293)" />
    </g>
    <g
       id="g141"
       transform="matrix(0.26458333,0,0,0.26458333,-30.339137,-35.469057)">
      <path
         id="path142"
         d="m 0,0 h 3.721 c 2.097,0 2.321,1.513 2.321,2.052 0,0.783 -0.589,2.053 -2.231,2.053 H 0 Z M 3.113,-2.697 H 0 V -9.97 H -2.636 V 6.744 h 6.317 c 3.932,0 5.06,-3.196 5.06,-4.692 0,-1.039 -0.57,-4.749 -5.628,-4.749"
         style="fill:#ffffff;fill-opacity:1;fill-rule:nonzero;stroke:none"
         transform="matrix(1.3333333,0,0,-1.3333333,456.63387,673.87627)" />
      <path
         id="path143"
         d="M 0,0 H 3.361 L 1.709,4.69 Z M 4.304,-2.697 H -0.944 L -2.597,-7.39 H -5.428 L 0.353,9.324 H 3.008 L 8.787,-7.39 H 5.956 Z"
         style="fill:#ffffff;fill-opacity:1;fill-rule:nonzero;stroke:none"
         transform="matrix(1.3333333,0,0,-1.3333333,476.86307,677.31667)" />
      <path
         id="path144"
         d="m 0,0 2.52,0.936 c 0.704,-1.582 1.997,-2.459 3.578,-2.459 1.523,0 2.584,1.053 2.584,2.459 0,2.233 -2.584,2.576 -4.75,3.456 C 2.935,4.801 0.71,5.798 0.71,8.549 c 0,3.282 2.225,4.511 5.213,4.511 2.342,0 3.923,-1.348 4.744,-3.397 L 8.323,8.961 C 7.937,9.715 7.126,10.425 5.722,10.425 3.7,10.425 3.28,9.322 3.28,8.737 3.28,7.177 4.627,6.867 6.815,6.18 9.042,5.48 11.377,4.454 11.377,0.878 11.375,-2.729 8.448,-4.216 6.098,-4.216 3.228,-4.216 1.113,-2.52 0,0"
         style="fill:#ffffff;fill-opacity:1;fill-rule:nonzero;stroke:none"
         transform="matrix(1.3333333,0,0,-1.3333333,490.3628,681.9408)" />
      <path
         id="path145"
         d="m 0,0 2.52,0.936 c 0.704,-1.582 1.997,-2.459 3.578,-2.459 1.523,0 2.584,1.053 2.584,2.459 0,2.233 -2.584,2.576 -4.75,3.456 C 2.935,4.801 0.71,5.798 0.71,8.549 c 0,3.282 2.225,4.511 5.213,4.511 2.342,0 3.923,-1.348 4.744,-3.397 L 8.323,8.961 C 7.937,9.715 7.126,10.425 5.722,10.425 3.7,10.425 3.28,9.322 3.28,8.737 3.28,7.177 4.627,6.867 6.815,6.18 9.042,5.48 11.377,4.454 11.377,0.878 11.375,-2.729 8.448,-4.216 6.098,-4.216 3.228,-4.216 1.114,-2.52 0,0"
         style="fill:#ffffff;fill-opacity:1;fill-rule:nonzero;stroke:none"
         transform="matrix(1.3333333,0,0,-1.3333333,507.76213,681.9408)" />
      <path
         id="path146"
         d="m 395.041,293.337 h 2.674 v -16.714 h -2.674 z"
         style="fill:#ffffff;fill-opacity:1;fill-rule:nonzero;stroke:none"
         transform="matrix(1.3333333,0,0,-1.3333333,0,1056)" />
      <path
         id="path147"
         d="M 0,0 V -11.317 H -2.636 V 5.397 H 0 L 6.1,-5.277 V 5.397 H 8.741 V -11.317 H 6.395 Z"
         style="fill:#ffffff;fill-opacity:1;fill-rule:nonzero;stroke:none"
         transform="matrix(1.3333333,0,0,-1.3333333,539.15053,672.07973)" />
      <path
         id="path148"
         d="M 0,0 C 2.678,0 4.187,-1.015 5.319,-3.694 L 2.797,-4.688 c -0.704,1.466 -1.406,1.993 -2.697,1.993 -3.672,0 -3.461,-5.591 -3.461,-5.982 0,-0.629 -0.142,-5.923 3.108,-5.923 1.701,0 2.933,1.055 2.933,2.581 v 0.702 h -3.05 v 2.64 h 5.687 v -3.342 c 0,-3.049 -2.227,-5.278 -5.279,-5.278 -0.606,0 -6.097,-0.499 -6.097,8.65 C -6.059,-7.367 -5.987,0 0,0"
         style="fill:#ffffff;fill-opacity:1;fill-rule:nonzero;stroke:none"
         transform="matrix(1.3333333,0,0,-1.3333333,563.78667,664.4972)" />
    </g>
  </g>
</svg>
