<?xml version="1.0" encoding="UTF-8" standalone="no"?>
<!-- Created with Inkscape (http://www.inkscape.org/) -->

<svg
   width="20.496387mm"
   height="30.656034mm"
   viewBox="0 0 20.496387 30.656034"
   version="1.1"
   id="svg1"
   inkscape:version="1.3 (0e150ed, 2023-07-21)"
   sodipodi:docname="MUTCD_D4-4.svg"
   xmlns:inkscape="http://www.inkscape.org/namespaces/inkscape"
   xmlns:sodipodi="http://sodipodi.sourceforge.net/DTD/sodipodi-0.dtd"
   xmlns="http://www.w3.org/2000/svg"
   xmlns:svg="http://www.w3.org/2000/svg">
  <sodipodi:namedview
     id="namedview1"
     pagecolor="#ffffff"
     bordercolor="#666666"
     borderopacity="1.0"
     inkscape:showpageshadow="2"
     inkscape:pageopacity="0.0"
     inkscape:pagecheckerboard="0"
     inkscape:deskcolor="#d1d1d1"
     inkscape:document-units="mm"
     inkscape:zoom="1"
     inkscape:cx="-13"
     inkscape:cy="82"
     inkscape:window-width="1440"
     inkscape:window-height="431"
     inkscape:window-x="0"
     inkscape:window-y="23"
     inkscape:window-maximized="0"
     inkscape:current-layer="layer1" />
  <defs
     id="defs1">
    <clipPath
       clipPathUnits="userSpaceOnUse"
       id="clipPath101">
      <path
         d="m 67.25,249.6 h 504.5 V 745.001 H 67.25 Z"
         transform="translate(-74.700002,-569.98211)"
         id="path101" />
    </clipPath>
  </defs>
  <g
     inkscape:label="Layer 1"
     inkscape:groupmode="layer"
     id="layer1"
     transform="translate(-315.64792,-275.43125)">
    <g
       id="g99"
       transform="matrix(0.26458333,0,0,0.26458333,291.92372,227.72021)">
      <path
         id="path100"
         d="m 0,0 c -4.039,0 -7.325,3.286 -7.325,7.325 v 71.999 c 0,4.039 3.286,7.325 7.325,7.325 h 43.2 c 4.039,0 7.325,-3.286 7.325,-7.325 V 7.325 C 50.525,3.286 47.239,0 43.2,0 Z"
         style="fill:#ffffff;fill-opacity:1;fill-rule:nonzero;stroke:none"
         transform="matrix(1.3333333,0,0,-1.3333333,99.6,296.02387)"
         clip-path="url(#clipPath101)" />
    </g>
    <g
       id="g101"
       transform="matrix(0.26458333,0,0,0.26458333,291.92372,227.72021)">
      <path
         id="path102"
         d="m 0,0 h -43.2 c -4.107,0 -7.45,-3.342 -7.45,-7.45 v -71.999 c 0,-4.108 3.343,-7.45 7.45,-7.45 H 0 c 4.108,0 7.45,3.342 7.45,7.45 V -7.45 C 7.45,-3.342 4.108,0 0,0 m 0,-0.25 c 3.96,0 7.2,-3.24 7.2,-7.2 v -71.999 c 0,-3.96 -3.24,-7.2 -7.2,-7.2 h -43.2 c -3.96,0 -7.2,3.24 -7.2,7.2 V -7.45 c 0,3.96 3.24,7.2 7.2,7.2 z"
         style="fill:#000000;fill-opacity:1;fill-rule:nonzero;stroke:none"
         transform="matrix(1.3333333,0,0,-1.3333333,157.1996,180.3252)" />
    </g>
    <g
       id="g102"
       transform="matrix(0.26458333,0,0,0.26458333,291.92372,227.72021)">
      <path
         id="path103"
         d="m 0,0 c -2.978,0 -5.4,2.422 -5.4,5.4 v 71.999 c 0,2.978 2.422,5.4 5.4,5.4 h 43.2 c 2.977,0 5.4,-2.422 5.4,-5.4 V 5.4 C 48.6,2.422 46.177,0 43.2,0 Z"
         style="fill:#006f53;fill-opacity:1;fill-rule:nonzero;stroke:none"
         transform="matrix(1.3333333,0,0,-1.3333333,99.600133,293.45733)" />
      <path
         id="path104"
         d="m 0,0 c -2.3,0 -4.248,1.505 -4.914,3.583 l 4.587,0.988 C -0.23,4.517 -0.119,4.486 0,4.486 c 0.372,0 0.674,0.302 0.674,0.674 0,0.324 -0.23,0.595 -0.536,0.659 l -2.821,3.749 c 0.782,0.477 1.7,0.752 2.683,0.752 2.85,0 5.16,-2.31 5.16,-5.16 C 5.16,2.31 2.85,0 0,0 m -5.16,5.16 c 0,1.503 0.643,2.856 1.668,3.799 L -0.881,5.488 -5.127,4.574 C -5.148,4.766 -5.16,4.962 -5.16,5.16 M -6.305,4.32 -8.323,3.886 -5.98,12.266 -4.216,9.921 C -5.531,8.756 -6.36,7.055 -6.36,5.16 c 0,-0.285 0.019,-0.565 0.055,-0.84 m -2.873,0.27 -0.314,1.19 h 0.489 v 0.48 h -1.545 V 5.78 h 0.615 l 0.311,-1.181 -6.648,7.236 c 0.108,0.344 0.218,0.7 0.327,1.053 h 9.085 z m -6.542,0.57 c 0,-2.85 -2.31,-5.16 -5.16,-5.16 -2.85,0 -5.16,2.31 -5.16,5.16 0,2.85 2.31,5.16 5.16,5.16 1.013,0 1.958,-0.292 2.755,-0.797 -0.634,-1.374 -1.87,-2.855 -2.76,-3.69 -0.369,-0.003 -0.668,-0.303 -0.668,-0.673 0,-0.372 0.301,-0.674 0.673,-0.674 0.344,0 0.627,0.258 0.668,0.591 0.436,0.408 1.005,1.008 1.567,1.728 0.419,0.535 0.94,1.275 1.338,2.078 0.978,-0.939 1.587,-2.26 1.587,-3.723 M 0,11.52 c -1.253,0 -2.422,-0.363 -3.407,-0.989 l -2.229,2.964 0.292,1.045 c 1.398,0.121 2.171,0.652 2.123,1.166 -0.046,0.498 -1.432,0.125 -2.974,0.105 -0.423,-0.005 -2.667,0.005 -2.654,-0.407 0.013,-0.422 1.448,-0.766 2.453,-0.862 l -0.179,-0.641 h -9.056 c 0.193,0.63 0.37,1.211 0.506,1.662 0.117,0.385 0.204,0.675 0.247,0.818 l -0.659,0.504 0.312,0.315 H -12.8 V 18 h -2.76 l -1.184,-1.199 0.759,-0.581 c -0.351,-1.164 -1.182,-3.9 -1.719,-5.548 -0.935,0.539 -2.019,0.848 -3.176,0.848 -3.512,0 -6.36,-2.848 -6.36,-6.36 0,-3.513 2.848,-6.36 6.36,-6.36 3.513,0 6.36,2.847 6.36,6.36 0,1.976 -0.901,3.742 -2.316,4.909 0.066,0.198 0.137,0.418 0.213,0.652 L -9.78,3.273 c -0.001,-0.02 -0.002,-0.039 -0.002,-0.059 0,-0.404 0.32,-0.732 0.72,-0.745 l 0.479,-1.822 h -0.489 v -0.48 h 1.546 v 0.48 h -0.616 l -0.507,1.93 c 0.103,0.064 0.19,0.152 0.252,0.256 L -6.092,3.33 C -5.306,0.709 -2.876,-1.2 0,-1.2 c 3.512,0 6.36,2.847 6.36,6.36 0,3.512 -2.848,6.36 -6.36,6.36"
         style="fill:#ffffff;fill-opacity:1;fill-rule:nonzero;stroke:none"
         transform="matrix(1.3333333,0,0,-1.3333333,142.31987,214.25813)" />
    </g>
    <g
       id="g104"
       transform="matrix(0.26458333,0,0,0.26458333,291.92372,227.72021)">
      <path
         id="path105"
         d="M 101.094,581.826 H 81.9 v 5.4 h 19.194 z"
         style="fill:#ffffff;fill-opacity:1;fill-rule:nonzero;stroke:none"
         transform="matrix(1.3333333,0,0,-1.3333333,0,1056)" />
      <path
         id="path106"
         d="m 0,0 c -0.145,0.099 -0.319,0.157 -0.507,0.157 -0.497,0 -0.9,-0.403 -0.9,-0.9 0,-0.103 0.018,-0.202 0.05,-0.294 l 2.05,-6.006 -2.05,-6.007 c -0.032,-0.092 -0.05,-0.19 -0.05,-0.293 0,-0.497 0.403,-0.9 0.9,-0.9 0.188,0 0.362,0.058 0.507,0.157 l 10.293,7.043 z"
         style="fill:#ffffff;fill-opacity:1;fill-rule:nonzero;stroke:none"
         transform="matrix(1.3333333,0,0,-1.3333333,133.87627,267.26667)" />
    </g>
    <g
       id="g106"
       transform="matrix(0.26458333,0,0,0.26458333,291.92372,227.72021)">
      <path
         id="path107"
         d="m 0,0 v -3.199 h 0.94 c 0.571,0 0.739,0.305 0.739,1.279 C 1.679,-0.404 1.51,0 0.905,0 Z M 0,3.907 V 1.28 h 0.838 c 0.54,0 0.672,0.304 0.672,1.314 0,0.944 -0.202,1.313 -0.807,1.313 z m 1.073,-8.353 h -2.284 v 9.6 h 1.746 c 1.686,0 2.217,-0.64 2.217,-2.56 0,-0.943 -0.133,-1.448 -0.471,-1.953 0.441,-0.484 0.639,-1.327 0.639,-2.46 0,-1.719 -0.637,-2.627 -1.847,-2.627"
         style="fill:#ffffff;fill-opacity:1;fill-rule:nonzero;stroke:none"
         transform="matrix(1.3333333,0,0,-1.3333333,96.93,230.72987)" />
      <path
         id="path108"
         d="m 77.153,624.107 h 1.248 v -9.6 h -1.248 z"
         style="fill:#ffffff;fill-opacity:1;fill-rule:nonzero;stroke:none"
         transform="matrix(1.3333333,0,0,-1.3333333,0,1056)" />
      <path
         id="path109"
         d="m 0,0 -0.421,-0.942 v -3.605 h -1.212 v 9.6 h 1.212 V 1.986 l 1.466,3.067 h 1.414 l -1.582,-3.3 1.716,-6.3 H 1.281 Z"
         style="fill:#ffffff;fill-opacity:1;fill-rule:nonzero;stroke:none"
         transform="matrix(1.3333333,0,0,-1.3333333,109.52987,230.59547)" />
      <path
         id="path110"
         d="M 0,0 H 3.516 V -1.247 H 1.206 V -3.706 H 2.747 V -4.985 H 1.206 V -8.353 H 3.651 V -9.6 H 0 Z"
         style="fill:#ffffff;fill-opacity:1;fill-rule:nonzero;stroke:none"
         transform="matrix(1.3333333,0,0,-1.3333333,115.0364,223.858)" />
      <path
         id="path111"
         d="m 0,0 c 0,2.406 -2.647,3.163 -2.647,5.424 0,1.314 0.8,2.256 1.947,2.256 1.18,0 1.812,-0.74 1.947,-2.256 L 0,5.424 c -0.034,0.742 -0.227,1.044 -0.666,1.044 -0.471,0 -0.733,-0.406 -0.733,-1.044 0,-0.722 0.406,-0.985 0.984,-1.674 C 0.01,3.244 1.248,2.012 1.248,0 c 0,-0.935 -0.602,-2.222 -2.015,-2.222 -1.348,0 -2.048,0.874 -2.115,2.559 h 1.247 c 0,-0.368 0.052,-1.314 0.868,-1.314 C -0.295,-0.977 0,-0.606 0,0"
         style="fill:#ffffff;fill-opacity:1;fill-rule:nonzero;stroke:none"
         transform="matrix(1.3333333,0,0,-1.3333333,129.34653,233.91867)" />
      <path
         id="path112"
         d="M 0,0 H -1.711 V -4.48 H -2.92 v 9.6 h 1.209 V 1.247 H 0.002 V 5.12 h 1.207 v -9.6 H 0 Z"
         style="fill:#ffffff;fill-opacity:1;fill-rule:nonzero;stroke:none"
         transform="matrix(1.3333333,0,0,-1.3333333,136.95253,230.68507)" />
      <path
         id="path113"
         d="M 0,0 H 1.044 L 0.539,2.527 Z m 1.313,-1.247 h -1.582 l -0.54,-2.559 h -1.245 l 1.953,9.6 h 1.246 l 1.987,-9.6 H 1.853 Z"
         style="fill:#ffffff;fill-opacity:1;fill-rule:nonzero;stroke:none"
         transform="matrix(1.3333333,0,0,-1.3333333,143.09587,231.58267)" />
      <path
         id="path114"
         d="m 0,0 c 0,1.087 -0.238,1.415 -1.079,1.415 h -0.59 v -2.627 h 0.793 C -0.203,-1.212 0,-0.91 0,0 m 0.238,-2.159 0.976,-4.779 h -1.315 l -0.915,4.479 h -0.653 v -4.479 h -1.213 v 9.6 h 1.871 c 1.486,0 2.259,-0.91 2.259,-2.696 0,-0.919 -0.273,-1.713 -1.01,-2.125"
         style="fill:#ffffff;fill-opacity:1;fill-rule:nonzero;stroke:none"
         transform="matrix(1.3333333,0,0,-1.3333333,152.90613,227.4068)" />
      <path
         id="path115"
         d="m 0,0 h 3.516 v -1.247 h -2.31 v -2.459 h 1.54 V -4.985 H 1.206 V -8.353 H 3.65 V -9.6 H 0 Z"
         style="fill:#ffffff;fill-opacity:1;fill-rule:nonzero;stroke:none"
         transform="matrix(1.3333333,0,0,-1.3333333,156.618,223.858)" />
      <path
         id="path116"
         d="m 0,0 c 0.744,0 1.352,0.674 1.352,1.45 -0.001,2.044 -3.584,2.04 -3.584,4.65 0,1.381 1.082,2.491 2.468,2.491 1.354,0 2.403,-1.043 2.436,-2.493 H 1.351 C 1.318,6.772 0.844,7.21 0.235,7.21 c -0.643,0 -1.149,-0.471 -1.149,-1.11 0,-0.575 0.361,-0.804 0.808,-1.085 1.299,-0.784 2.777,-1.729 2.777,-3.567 0,-1.554 -1.184,-2.796 -2.672,-2.796 -1.691,0 -2.705,1.431 -2.705,3 h 1.355 C -1.351,0.835 -0.947,0 0,0"
         style="fill:#ffffff;fill-opacity:1;fill-rule:nonzero;stroke:none"
         transform="matrix(1.3333333,0,0,-1.3333333,104.7344,257.488)" />
      <path
         id="path117"
         d="M 0,0 H -1.385 V 8.32 H -3.141 V 9.6 H 1.757 V 8.32 H 0 Z"
         style="fill:#ffffff;fill-opacity:1;fill-rule:nonzero;stroke:none"
         transform="matrix(1.3333333,0,0,-1.3333333,113.63827,259.0576)" />
      <path
         id="path118"
         d="M 0,0 H 1.385 L 0.676,2.762 Z m 1.722,-1.348 h -2.059 l -0.642,-2.626 h -1.385 l 2.398,9.6 h 1.352 l 2.396,-9.6 H 2.397 Z"
         style="fill:#ffffff;fill-opacity:1;fill-rule:nonzero;stroke:none"
         transform="matrix(1.3333333,0,0,-1.3333333,119.9008,253.7584)" />
      <path
         id="path119"
         d="M 0,0 H -1.385 V 8.32 H -3.141 V 9.6 H 1.757 V 8.32 H 0 Z"
         style="fill:#ffffff;fill-opacity:1;fill-rule:nonzero;stroke:none"
         transform="matrix(1.3333333,0,0,-1.3333333,129.9008,259.0576)" />
      <path
         id="path120"
         d="m 100.526,607.307 h 1.344 v -9.6 h -1.344 z"
         style="fill:#ffffff;fill-opacity:1;fill-rule:nonzero;stroke:none"
         transform="matrix(1.3333333,0,0,-1.3333333,0,1056)" />
      <path
         id="path121"
         d="m 0,0 c -0.274,0 -1.511,0.056 -1.511,-3.607 0,-3.69 1.237,-3.634 1.511,-3.634 0.274,0 1.51,-0.056 1.51,3.634 C 1.51,0.056 0.274,0 0,0 m -2.833,-3.6 c 0,5.027 2.331,4.946 2.849,4.946 0.517,0 2.817,0.077 2.817,-4.95 0,-5.062 -2.3,-4.983 -2.817,-4.983 -0.518,0 -2.849,-0.079 -2.849,4.987"
         style="fill:#ffffff;fill-opacity:1;fill-rule:nonzero;stroke:none"
         transform="matrix(1.3333333,0,0,-1.3333333,142.1648,247.83053)" />
      <path
         id="path122"
         d="m 0,0 v -6.433 h -1.378 v 9.6 H 0 l 2.622,-5.76 v 5.76 h 1.379 v -9.6 H 2.959 Z"
         style="fill:#ffffff;fill-opacity:1;fill-rule:nonzero;stroke:none"
         transform="matrix(1.3333333,0,0,-1.3333333,150.33907,250.48)" />
    </g>
  </g>
</svg>
