<?xml version="1.0" encoding="UTF-8" standalone="no"?>
<!-- Created with Inkscape (http://www.inkscape.org/) -->

<svg
   width="56.055679mm"
   height="20.496035mm"
   viewBox="0 0 56.055679 20.496035"
   version="1.1"
   id="svg1"
   inkscape:version="1.3 (0e150ed, 2023-07-21)"
   sodipodi:docname="MUTCD_D11-10b.svg"
   xmlns:inkscape="http://www.inkscape.org/namespaces/inkscape"
   xmlns:sodipodi="http://sodipodi.sourceforge.net/DTD/sodipodi-0.dtd"
   xmlns="http://www.w3.org/2000/svg"
   xmlns:svg="http://www.w3.org/2000/svg">
  <sodipodi:namedview
     id="namedview1"
     pagecolor="#ffffff"
     bordercolor="#666666"
     borderopacity="1.0"
     inkscape:showpageshadow="2"
     inkscape:pageopacity="0.0"
     inkscape:pagecheckerboard="0"
     inkscape:deskcolor="#d1d1d1"
     inkscape:document-units="mm"
     inkscape:zoom="0.2102413"
     inkscape:cx="104.64167"
     inkscape:cy="38.051515"
     inkscape:window-width="1440"
     inkscape:window-height="431"
     inkscape:window-x="0"
     inkscape:window-y="23"
     inkscape:window-maximized="0"
     inkscape:current-layer="layer1" />
  <defs
     id="defs1">
    <clipPath
       clipPathUnits="userSpaceOnUse"
       id="clipPath189">
      <path
         d="m 67.25,249.6 h 504.5 V 745.001 H 67.25 Z"
         transform="translate(-378.97871,-433.50111)"
         id="path189" />
    </clipPath>
  </defs>
  <g
     inkscape:label="Layer 1"
     inkscape:groupmode="layer"
     id="layer1"
     transform="translate(-76.464577,-138.37709)">
    <g
       id="g187"
       transform="matrix(0.26458333,0,0,0.26458333,-55.872527,32.358723)">
      <path
         id="path188"
         d="m 0,0 c -2.055,0 -3.726,1.671 -3.726,3.725 v 50.4 c 0,2.053 1.671,3.724 3.726,3.724 h 151.198 c 2.054,0 3.725,-1.671 3.725,-3.724 V 3.725 C 154.923,1.671 153.252,0 151.198,0 Z"
         style="fill:#ffffff;fill-opacity:1;fill-rule:nonzero;stroke:none"
         transform="matrix(1.3333333,0,0,-1.3333333,505.30493,477.99853)"
         clip-path="url(#clipPath189)" />
    </g>
    <g
       id="g189"
       transform="matrix(0.26458333,0,0,0.26458333,-55.872527,32.358723)">
      <path
         id="path190"
         d="m 0,0 h -151.198 c -2.123,0 -3.85,-1.727 -3.85,-3.85 v -50.399 c 0,-2.123 1.727,-3.85 3.85,-3.85 H 0 c 2.123,0 3.85,1.727 3.85,3.85 V -3.85 C 3.85,-1.727 2.123,0 0,0 m 0,-0.25 c 1.988,0 3.6,-1.612 3.6,-3.6 v -50.399 c 0,-1.989 -1.612,-3.6 -3.6,-3.6 h -151.198 c -1.989,0 -3.6,1.611 -3.6,3.6 V -3.85 c 0,1.988 1.611,3.6 3.6,3.6 z"
         style="fill:#000000;fill-opacity:1;fill-rule:nonzero;stroke:none"
         transform="matrix(1.3333333,0,0,-1.3333333,706.9024,400.69933)" />
    </g>
    <g
       id="g190"
       transform="matrix(0.26458333,0,0,0.26458333,-55.872527,32.358723)">
      <path
         id="path191"
         d="m 0,0 h -151.198 c -0.995,0 -1.8,0.806 -1.8,1.8 v 50.399 c 0,0.995 0.805,1.8 1.8,1.8 L 0,53.999 c 0.994,0 1.8,-0.805 1.8,-1.8 V 1.8 C 1.8,0.806 0.994,0 0,0"
         style="fill:#006f53;fill-opacity:1;fill-rule:nonzero;stroke:none"
         transform="matrix(1.3333333,0,0,-1.3333333,706.9024,475.43187)" />
    </g>
    <g
       id="g191"
       transform="matrix(0.26458333,0,0,0.26458333,-55.872527,32.358723)">
      <path
         id="path192"
         d="m 375.978,461.526 h 157.198 v 1.8 H 375.978 Z"
         style="fill:#ffffff;fill-opacity:1;fill-rule:nonzero;stroke:none"
         transform="matrix(1.3333333,0,0,-1.3333333,0,1056)" />
    </g>
    <g
       id="g192"
       transform="matrix(0.26458333,0,0,0.26458333,-55.872527,32.358723)">
      <path
         id="path193"
         d="m 514.883,446.826 h -8.1 v 3.6 h 8.1 z"
         style="fill:#ffffff;fill-opacity:1;fill-rule:nonzero;stroke:none"
         transform="matrix(1.3333333,0,0,-1.3333333,0,1056)" />
      <path
         id="path194"
         d="M 0,0 1.461,-3.988 0,-7.976 C -0.202,-8.526 0.422,-9.011 0.905,-8.68 L 7.761,-3.988 0.905,0.704 C 0.422,1.035 -0.202,0.55 0,0"
         style="fill:#ffffff;fill-opacity:1;fill-rule:nonzero;stroke:none"
         transform="matrix(1.3333333,0,0,-1.3333333,684.5628,452.51493)" />
    </g>
    <g
       id="g194"
       transform="matrix(0.26458333,0,0,0.26458333,-55.872527,32.358723)">
      <path
         id="path195"
         d="m 394.271,474.726 h 8.1 v 3.6 h -8.1 z"
         style="fill:#ffffff;fill-opacity:1;fill-rule:nonzero;stroke:none"
         transform="matrix(1.3333333,0,0,-1.3333333,0,1056)" />
    </g>
    <g
       id="g195"
       transform="matrix(0.26458333,0,0,0.26458333,-55.872527,32.358723)">
      <path
         id="path196"
         d="M 0,0 -1.461,-3.988 0,-7.976 c 0.202,-0.55 -0.422,-1.035 -0.905,-0.704 l -6.856,4.692 6.856,4.692 C -0.422,1.035 0.202,0.55 0,0"
         style="fill:#ffffff;fill-opacity:1;fill-rule:nonzero;stroke:none"
         transform="matrix(1.3333333,0,0,-1.3333333,527.644,415.3152)" />
    </g>
    <g
       id="g196"
       transform="matrix(0.26458333,0,0,0.26458333,-55.872527,32.358723)">
      <path
         id="path197"
         d="m 0,0 c -1.725,0 -3.186,1.129 -3.686,2.687 l 3.441,0.741 C -0.173,3.388 -0.089,3.365 0,3.365 c 0.279,0 0.505,0.226 0.505,0.505 0,0.243 -0.172,0.447 -0.401,0.494 L -2.012,7.176 C -1.426,7.534 -0.737,7.74 0,7.74 2.137,7.74 3.87,6.007 3.87,3.87 3.87,1.733 2.137,0 0,0 m -3.87,3.87 c 0,1.127 0.482,2.142 1.251,2.849 L -0.661,4.116 -3.845,3.431 C -3.861,3.575 -3.87,3.721 -3.87,3.87 M -4.729,3.24 -6.242,2.914 -4.485,9.199 -3.162,7.441 C -4.148,6.567 -4.77,5.291 -4.77,3.87 c 0,-0.214 0.014,-0.424 0.041,-0.63 m -2.155,0.202 -0.235,0.893 h 0.367 v 0.36 h -1.159 v -0.36 h 0.461 l 0.233,-0.886 -4.986,5.427 c 0.081,0.259 0.164,0.525 0.246,0.79 h 6.813 z M -11.79,3.87 c 0,-2.137 -1.733,-3.87 -3.87,-3.87 -2.137,0 -3.87,1.733 -3.87,3.87 0,2.137 1.733,3.87 3.87,3.87 0.76,0 1.469,-0.219 2.066,-0.597 -0.475,-1.032 -1.402,-2.142 -2.07,-2.768 -0.277,-0.002 -0.501,-0.227 -0.501,-0.505 0,-0.279 0.226,-0.505 0.505,-0.505 0.258,0 0.471,0.193 0.501,0.443 0.327,0.306 0.754,0.756 1.176,1.296 0.313,0.401 0.704,0.956 1.003,1.558 0.733,-0.704 1.19,-1.695 1.19,-2.792 M 0,8.64 c -0.94,0 -1.816,-0.272 -2.555,-0.742 l -1.672,2.223 0.219,0.784 c 1.048,0.091 1.628,0.489 1.592,0.874 -0.034,0.374 -1.074,0.094 -2.23,0.079 -0.318,-0.004 -2,0.004 -1.991,-0.305 0.01,-0.316 1.086,-0.574 1.84,-0.646 l -0.134,-0.481 h -6.792 c 0.145,0.472 0.277,0.908 0.379,1.246 0.088,0.289 0.153,0.506 0.186,0.614 l -0.494,0.378 0.233,0.236 H -9.6 v 0.6 h -2.07 l -0.888,-0.899 0.569,-0.436 c -0.263,-0.873 -0.886,-2.925 -1.289,-4.161 -0.701,0.404 -1.514,0.636 -2.382,0.636 -2.634,0 -4.77,-2.136 -4.77,-4.77 0,-2.634 2.136,-4.77 4.77,-4.77 2.635,0 4.77,2.136 4.77,4.77 0,1.482 -0.676,2.807 -1.737,3.682 0.049,0.148 0.103,0.313 0.16,0.489 L -7.335,2.455 C -7.336,2.44 -7.337,2.425 -7.337,2.41 c 0,-0.302 0.241,-0.548 0.541,-0.558 l 0.359,-1.367 h -0.367 v -0.36 h 1.159 v 0.36 h -0.461 l -0.381,1.448 c 0.078,0.048 0.143,0.114 0.19,0.192 l 1.728,0.372 C -3.979,0.532 -2.157,-0.9 0,-0.9 2.634,-0.9 4.77,1.236 4.77,3.87 4.77,6.504 2.634,8.64 0,8.64"
         style="fill:#ffffff;fill-opacity:1;fill-rule:nonzero;stroke:none"
         transform="matrix(1.3333333,0,0,-1.3333333,544.53507,466.232)" />
      <path
         id="path198"
         d="m 0,0 c 0.677,0 1.229,-0.552 1.229,-1.229 0,-0.677 -0.552,-1.23 -1.229,-1.23 -0.677,0 -1.229,0.553 -1.229,1.23 C -1.229,-0.552 -0.677,0 0,0"
         style="fill:#ffffff;fill-opacity:1;fill-rule:evenodd;stroke:none"
         transform="matrix(1.3333333,0,0,-1.3333333,568.65747,446.63227)" />
      <path
         id="path199"
         d="M 0,0 2.579,1.719 C 2.698,2.223 3.192,4.46 4.184,4.977 5.167,5.627 8.789,2.958 8.81,2.937 V -0.956 L 8.024,-0.82 7.717,2.288 C 7.421,2.347 7.125,2.407 6.829,2.466 7.476,0.795 7.713,-0.817 7.341,-1.878 L 8.912,-8.297 7.854,-9.049 5.566,-3.107 4.507,-4.234 3.039,-8.707 1.639,-8.195 2.902,-3.483 4.371,-0.854 3.808,1.087 3.21,0.307 0.41,-0.615 Z"
         style="fill:#ffffff;fill-opacity:1;fill-rule:evenodd;stroke:none"
         transform="matrix(1.3333333,0,0,-1.3333333,563.69493,456.96707)" />
      <path
         id="path200"
         d="m 0,0 v -2.628 h 2.291 c 0.78,0 1.179,0.371 1.179,1.112 C 3.47,-0.774 2.957,0 2.172,0 Z M 2.225,3.907 H 0 V 1.549 h 1.93 c 0.861,0 1.339,0.751 1.339,1.381 0,0.64 -0.353,0.977 -1.044,0.977 m -3.739,-8.084 v 9.6 h 3.638 c 1.516,0 2.66,-1.044 2.66,-2.425 0,-0.944 -0.436,-1.652 -1.346,-2.157 1.01,-0.471 1.583,-1.289 1.583,-2.323 0,-0.684 -0.385,-2.695 -2.897,-2.695 z"
         style="fill:#ffffff;fill-opacity:1;fill-rule:nonzero;stroke:none"
         transform="matrix(1.3333333,0,0,-1.3333333,590.3968,458.6624)" />
      <path
         id="path201"
         d="M 0,0 H 2.614 C 2.614,0.677 2.479,1.484 1.34,1.484 0.174,1.484 0,0.695 0,0 m 0.034,-1.416 c 0.067,-0.775 0.367,-1.585 1.306,-1.585 0.617,0 1.139,0.371 1.307,0.978 L 3.886,-2.798 C 3.484,-3.709 2.747,-4.417 1.34,-4.417 c -2.418,0 -2.881,1.854 -2.881,3.675 0,1.551 0.469,3.641 2.881,3.641 2.525,0 2.786,-2.189 2.786,-3.882 v -0.433 z"
         style="fill:#ffffff;fill-opacity:1;fill-rule:nonzero;stroke:none"
         transform="matrix(1.3333333,0,0,-1.3333333,600.55413,458.52173)" />
      <path
         id="path202"
         d="M 0,0 1.536,0.742 V -9.036 H 0 Z"
         style="fill:#ffffff;fill-opacity:1;fill-rule:nonzero;stroke:none"
         transform="matrix(1.3333333,0,0,-1.3333333,607.8472,452.18413)" />
      <path
         id="path203"
         d="m 0,0 -2.714,7.013 h 1.628 l 1.765,-4.72 1.697,4.72 h 1.73 L 1.357,0 Z"
         style="fill:#ffffff;fill-opacity:1;fill-rule:nonzero;stroke:none"
         transform="matrix(1.3333333,0,0,-1.3333333,615.05053,464.232)" />
      <path
         id="path204"
         d="M 0,0 H 2.614 C 2.614,0.677 2.479,1.484 1.34,1.484 0.174,1.484 0,0.695 0,0 m 0.034,-1.416 c 0.067,-0.775 0.367,-1.585 1.306,-1.585 0.617,0 1.139,0.371 1.307,0.978 L 3.886,-2.798 C 3.484,-3.709 2.747,-4.417 1.34,-4.417 c -2.418,0 -2.881,1.854 -2.881,3.675 0,1.551 0.469,3.641 2.881,3.641 2.525,0 2.786,-2.189 2.786,-3.882 v -0.433 z"
         style="fill:#ffffff;fill-opacity:1;fill-rule:nonzero;stroke:none"
         transform="matrix(1.3333333,0,0,-1.3333333,623.60453,458.52173)" />
      <path
         id="path205"
         d="m 0,0 c 0.54,0 0.91,0.101 1.28,0.473 v 3.54 C 0.876,4.451 0.535,4.52 0.101,4.52 -1.056,4.52 -1.381,3.305 -1.381,2.293 -1.381,1.313 -1.049,0 0,0 m -0.265,5.95 c 0.593,0 1.249,-0.173 1.579,-0.419 V 7.789 L 2.831,8.531 V -1.247 H 1.314 v 0.203 c -0.472,-0.27 -0.809,-0.372 -1.348,-0.372 -2.127,0 -2.898,1.72 -2.898,3.709 0,1.834 0.598,3.657 2.667,3.657"
         style="fill:#ffffff;fill-opacity:1;fill-rule:nonzero;stroke:none"
         transform="matrix(1.3333333,0,0,-1.3333333,634.29453,462.5696)" />
      <path
         id="path206"
         d="M 0,0 H 2.614 C 2.614,0.677 2.479,1.484 1.34,1.484 0.174,1.484 0,0.695 0,0 m 0.034,-1.416 c 0.067,-0.775 0.367,-1.585 1.306,-1.585 0.617,0 1.139,0.371 1.307,0.978 L 3.886,-2.798 C 3.484,-3.709 2.747,-4.417 1.34,-4.417 c -2.418,0 -2.881,1.854 -2.881,3.675 0,1.551 0.469,3.641 2.881,3.641 2.525,0 2.786,-2.189 2.786,-3.882 v -0.433 z"
         style="fill:#ffffff;fill-opacity:1;fill-rule:nonzero;stroke:none"
         transform="matrix(1.3333333,0,0,-1.3333333,642.17173,458.52173)" />
      <path
         id="path207"
         d="m 0,0 c -0.878,0 -0.979,-0.5 -0.979,-1.384 v -4.383 h -1.555 v 7.013 h 1.555 V 0.908 c 0.372,0.338 0.54,0.507 1.081,0.507 0.528,0 0.778,-0.203 1.014,-0.473 L 0.913,-0.406 C 0.608,-0.169 0.37,0 0,0"
         style="fill:#ffffff;fill-opacity:1;fill-rule:nonzero;stroke:none"
         transform="matrix(1.3333333,0,0,-1.3333333,652.84413,456.54253)" />
      <path
         id="path208"
         d="M 0,0 H 2.614 C 2.614,0.677 2.479,1.484 1.34,1.484 0.174,1.484 0,0.695 0,0 m 0.034,-1.416 c 0.067,-0.775 0.367,-1.585 1.306,-1.585 0.617,0 1.139,0.371 1.307,0.978 L 3.886,-2.798 C 3.484,-3.709 2.747,-4.417 1.34,-4.417 c -2.418,0 -2.881,1.854 -2.881,3.675 0,1.551 0.469,3.641 2.881,3.641 2.525,0 2.786,-2.189 2.786,-3.882 v -0.433 z"
         style="fill:#ffffff;fill-opacity:1;fill-rule:nonzero;stroke:none"
         transform="matrix(1.3333333,0,0,-1.3333333,657.41107,458.52173)" />
    </g>
    <g
       id="g208"
       transform="matrix(0.26458333,0,0,0.26458333,-55.872527,32.358723)">
      <path
         id="path209"
         d="M 0,0 -1.522,6.164 -3.008,0 h -1.353 l -1.418,9.6 h 1.554 L -3.481,4.547 -2.266,9.6 h 1.488 L 0.472,4.547 1.216,9.6 H 2.77 L 1.35,0 Z"
         style="fill:#ffffff;fill-opacity:1;fill-rule:nonzero;stroke:none"
         transform="matrix(1.3333333,0,0,-1.3333333,581.68333,427.0324)" />
      <path
         id="path210"
         d="M 0,0 C 0.49,0 0.991,0.176 1.246,0.311 V 1.93 C 0.955,2.068 0.433,2.227 -0.059,2.227 -0.644,2.227 -1.174,1.997 -1.174,1.222 -1.174,0.268 -0.604,0 0,0 m -0.049,4.543 c -0.709,0 -1.351,-0.39 -1.728,-0.894 l -0.437,1.485 c 0.63,0.493 1.406,0.801 2.396,0.801 1.359,0 2.608,-0.829 2.608,-2.487 V -1.24 H 1.313 v 0.203 c -0.235,-0.203 -0.84,-0.302 -1.378,-0.302 -1.411,0 -2.619,0.905 -2.619,2.595 0,1.383 1.17,2.286 2.737,2.286 0.332,0 0.852,-0.105 1.159,-0.23 0,0.367 -0.157,1.231 -1.261,1.231"
         style="fill:#ffffff;fill-opacity:1;fill-rule:nonzero;stroke:none"
         transform="matrix(1.3333333,0,0,-1.3333333,589.97973,425.3796)" />
      <path
         id="path211"
         d="M 0,0 V 3.911 H -1.02 V 5.327 H 0 V 7.35 L 1.496,8.091 V 5.327 H 2.72 V 3.944 H 1.496 V 0.236 c 0,-0.478 0.057,-0.674 0.51,-0.674 0.34,0 0.51,0.1 0.816,0.337 L 2.617,-1.517 C 2.012,-1.782 1.85,-1.825 1.328,-1.825 0.313,-1.825 0,-0.982 0,0"
         style="fill:#ffffff;fill-opacity:1;fill-rule:nonzero;stroke:none"
         transform="matrix(1.3333333,0,0,-1.3333333,596.34027,424.7844)" />
      <path
         id="path212"
         d="M 0,0 H 2.614 C 2.614,0.677 2.479,1.484 1.34,1.484 0.174,1.484 0,0.695 0,0 m 0.034,-1.416 c 0.067,-0.775 0.367,-1.585 1.306,-1.585 0.617,0 1.139,0.371 1.307,0.978 L 3.886,-2.798 C 3.484,-3.709 2.747,-4.417 1.34,-4.417 c -2.418,0 -2.881,1.854 -2.881,3.675 0,1.551 0.469,3.641 2.881,3.641 2.525,0 2.786,-2.189 2.786,-3.882 v -0.433 z"
         style="fill:#ffffff;fill-opacity:1;fill-rule:nonzero;stroke:none"
         transform="matrix(1.3333333,0,0,-1.3333333,603.05387,421.322)" />
      <path
         id="path213"
         d="m 0,0 c -0.878,0 -0.979,-0.5 -0.979,-1.384 v -4.383 h -1.555 v 7.013 h 1.555 V 0.908 c 0.372,0.338 0.54,0.507 1.081,0.507 0.528,0 0.778,-0.203 1.014,-0.473 L 0.913,-0.406 C 0.608,-0.169 0.37,0 0,0"
         style="fill:#ffffff;fill-opacity:1;fill-rule:nonzero;stroke:none"
         transform="matrix(1.3333333,0,0,-1.3333333,613.72613,419.34293)" />
      <path
         id="path214"
         d="M 0,0 H -1.543 V 5.63 H -2.45 v 1.383 h 0.907 v 1.214 c 0,0.707 0.294,1.55 1.375,1.55 0.47,0 0.704,-0.066 1.175,-0.168 V 8.294 C 0.836,8.328 0.576,8.418 0.367,8.418 0.158,8.418 0,8.33 0,8.024 V 7.013 H 1.008 V 5.63 H 0 Z"
         style="fill:#ffffff;fill-opacity:1;fill-rule:nonzero;stroke:none"
         transform="matrix(1.3333333,0,0,-1.3333333,619.24973,427.0324)" />
      <path
         id="path215"
         d="M 0,0 C 0.49,0 0.991,0.176 1.246,0.311 V 1.93 C 0.955,2.068 0.433,2.227 -0.059,2.227 -0.644,2.227 -1.174,1.997 -1.174,1.222 -1.174,0.268 -0.604,0 0,0 m -0.049,4.543 c -0.709,0 -1.351,-0.39 -1.728,-0.894 l -0.437,1.485 c 0.63,0.493 1.406,0.801 2.396,0.801 1.359,0 2.608,-0.829 2.608,-2.487 V -1.24 H 1.313 v 0.203 c -0.235,-0.203 -0.84,-0.302 -1.378,-0.302 -1.411,0 -2.619,0.905 -2.619,2.595 0,1.383 1.17,2.286 2.737,2.286 0.332,0 0.852,-0.105 1.159,-0.23 0,0.367 -0.157,1.231 -1.261,1.231"
         style="fill:#ffffff;fill-opacity:1;fill-rule:nonzero;stroke:none"
         transform="matrix(1.3333333,0,0,-1.3333333,625.06907,425.3796)" />
      <path
         id="path216"
         d="M 0,0 1.536,0.742 V -9.036 H 0 Z"
         style="fill:#ffffff;fill-opacity:1;fill-rule:nonzero;stroke:none"
         transform="matrix(1.3333333,0,0,-1.3333333,631.22133,414.98453)" />
      <path
         id="path217"
         d="M 0,0 1.536,0.742 V -9.036 H 0 Z"
         style="fill:#ffffff;fill-opacity:1;fill-rule:nonzero;stroke:none"
         transform="matrix(1.3333333,0,0,-1.3333333,635.82947,414.98453)" />
    </g>
    <g
       id="g217"
       transform="matrix(0.26458333,0,0,0.26458333,-55.872527,32.358723)">
      <path
         id="path218"
         d="m 0,0 c 0.677,0 1.229,-0.552 1.229,-1.229 0,-0.677 -0.552,-1.229 -1.229,-1.229 -0.677,0 -1.229,0.552 -1.229,1.229 C -1.229,-0.552 -0.677,0 0,0"
         style="fill:#ffffff;fill-opacity:1;fill-rule:evenodd;stroke:none"
         transform="matrix(1.3333333,0,0,-1.3333333,554.2576,409.43253)" />
    </g>
    <g
       id="g218"
       transform="matrix(0.26458333,0,0,0.26458333,-55.872527,32.358723)">
      <path
         id="path219"
         d="M 0,0 2.579,1.719 C 2.698,2.223 3.192,4.46 4.184,4.977 5.167,5.627 8.789,2.958 8.81,2.937 V -0.956 L 8.024,-0.82 7.717,2.288 C 7.421,2.347 7.125,2.407 6.829,2.466 7.476,0.795 7.713,-0.817 7.341,-1.878 L 8.912,-8.297 7.854,-9.049 5.566,-3.107 4.507,-4.234 3.039,-8.707 1.639,-8.195 2.902,-3.483 4.371,-0.854 3.808,1.087 3.21,0.307 0.41,-0.615 Z"
         style="fill:#ffffff;fill-opacity:1;fill-rule:evenodd;stroke:none"
         transform="matrix(1.3333333,0,0,-1.3333333,549.29507,419.76747)" />
    </g>
  </g>
</svg>
