<?xml version="1.0" encoding="UTF-8" standalone="no"?>
<!-- Created with Inkscape (http://www.inkscape.org/) -->
<svg width="56.055679mm" height="10.336389mm" viewBox="0 0 56.055679 10.336389" version="1.1" id="svg1" inkscape:version="1.3 (0e150ed, 2023-07-21)" sodipodi:docname="MUTCD_D11-10d.svg" xmlns:inkscape="http://www.inkscape.org/namespaces/inkscape" xmlns:sodipodi="http://sodipodi.sourceforge.net/DTD/sodipodi-0.dtd" xmlns="http://www.w3.org/2000/svg" xmlns:svg="http://www.w3.org/2000/svg">
  <sodipodi:namedview id="namedview1" pagecolor="#ffffff" bordercolor="#666666" borderopacity="1.0" inkscape:showpageshadow="2" inkscape:pageopacity="0.0" inkscape:pagecheckerboard="0" inkscape:deskcolor="#d1d1d1" inkscape:document-units="mm" inkscape:zoom="1" inkscape:cx="105" inkscape:cy="28" inkscape:window-width="1440" inkscape:window-height="431" inkscape:window-x="0" inkscape:window-y="23" inkscape:window-maximized="0" inkscape:current-layer="layer1"/>
  <defs id="defs1">
    <clipPath clipPathUnits="userSpaceOnUse" id="clipPath282">
      <path d="m 67.25,249.6 h 504.5 V 745.001 H 67.25 Z" transform="translate(-332.10081,-376.86781)" id="path282"/>
    </clipPath>
  </defs>
  <g inkscape:label="Layer 1" inkscape:groupmode="layer" id="layer1" transform="translate(-76.464582,-141.02292)">
    <g id="g280" transform="matrix(0.26458333,0,0,0.26458333,-39.335217,4.8657967)">
      <path id="path281" d="m 0,0 c -2.054,0 -3.725,1.671 -3.725,3.725 v 21.6 c 0,2.054 1.671,3.725 3.725,3.725 h 151.198 c 2.055,0 3.726,-1.671 3.726,-3.725 V 3.725 C 154.924,1.671 153.253,0 151.198,0 Z" style="fill:#ffffff;fill-opacity:1;fill-rule:nonzero;stroke:none" transform="matrix(1.3333333,0,0,-1.3333333,442.80107,553.5096)" clip-path="url(#clipPath282)"/>
    </g>
    <g id="g282" transform="matrix(0.26458333,0,0,0.26458333,-39.335217,4.8657967)">
      <path id="path283" d="m 0,0 h -151.198 c -2.123,0 -3.85,-1.727 -3.85,-3.85 v -21.6 c 0,-2.123 1.727,-3.85 3.85,-3.85 L 0,-29.3 c 2.123,0 3.85,1.727 3.85,3.85 v 21.6 C 3.85,-1.727 2.123,0 0,0 m 0,-0.25 c 1.988,0 3.6,-1.612 3.6,-3.6 v -21.6 c 0,-1.988 -1.612,-3.6 -3.6,-3.6 h -151.198 c -1.989,0 -3.6,1.612 -3.6,3.6 v 21.6 c 0,1.988 1.611,3.6 3.6,3.6 z" style="fill:#000000;fill-opacity:1;fill-rule:nonzero;stroke:none" transform="matrix(1.3333333,0,0,-1.3333333,644.3992,514.6096)"/>
    </g>
    <g id="g283" transform="matrix(0.26458333,0,0,0.26458333,-39.335217,4.8657967)">
      <path id="path284" d="m 0,0 h -151.198 c -0.995,0 -1.8,0.806 -1.8,1.8 v 21.6 c 0,0.994 0.805,1.8 1.8,1.8 L 0,25.2 c 0.994,0 1.8,-0.806 1.8,-1.8 V 1.8 C 1.8,0.806 0.994,0 0,0" style="fill:#006f53;fill-opacity:1;fill-rule:nonzero;stroke:none" transform="matrix(1.3333333,0,0,-1.3333333,644.3992,550.94267)"/>
    </g>
    <g id="g284" transform="matrix(0.26458333,0,0,0.26458333,-39.335217,4.8657967)">
      <path id="path285" d="m 344.401,389.593 h 8.1 v 3.6 h -8.1 z" style="fill:#ffffff;fill-opacity:1;fill-rule:nonzero;stroke:none" transform="matrix(1.3333333,0,0,-1.3333333,0,1056)"/>
    </g>
    <g id="g285" transform="matrix(0.26458333,0,0,0.26458333,-39.335217,4.8657967)">
      <path id="path286" d="M 0,0 -1.461,-3.988 0,-7.976 c 0.202,-0.55 -0.422,-1.035 -0.905,-0.704 l -6.856,4.692 6.856,4.692 C -0.422,1.035 0.202,0.55 0,0" style="fill:#ffffff;fill-opacity:1;fill-rule:nonzero;stroke:none" transform="matrix(1.3333333,0,0,-1.3333333,461.1496,528.8256)"/>
    </g>
    <g id="g286" transform="matrix(0.26458333,0,0,0.26458333,-39.335217,4.8657967)">
      <path id="path287" d="m 0,0 c -1.725,0 -3.186,1.129 -3.686,2.687 l 3.441,0.741 C -0.173,3.388 -0.089,3.365 0,3.365 c 0.279,0 0.505,0.226 0.505,0.505 0,0.243 -0.172,0.447 -0.401,0.494 L -2.012,7.176 C -1.426,7.534 -0.737,7.74 0,7.74 2.137,7.74 3.87,6.007 3.87,3.87 3.87,1.733 2.137,0 0,0 m -3.87,3.87 c 0,1.127 0.482,2.142 1.251,2.849 L -0.661,4.116 -3.845,3.431 C -3.861,3.575 -3.87,3.721 -3.87,3.87 M -4.729,3.24 -6.242,2.914 -4.485,9.199 -3.162,7.441 C -4.148,6.567 -4.77,5.291 -4.77,3.87 c 0,-0.214 0.014,-0.424 0.041,-0.63 m -2.155,0.202 -0.235,0.893 h 0.367 v 0.36 h -1.159 v -0.36 h 0.461 l 0.233,-0.886 -4.986,5.427 c 0.081,0.259 0.164,0.525 0.246,0.79 h 6.813 z M -11.79,3.87 c 0,-2.137 -1.732,-3.87 -3.87,-3.87 -2.137,0 -3.87,1.733 -3.87,3.87 0,2.137 1.733,3.87 3.87,3.87 0.76,0 1.469,-0.219 2.066,-0.597 -0.475,-1.032 -1.402,-2.142 -2.07,-2.768 -0.277,-0.002 -0.501,-0.227 -0.501,-0.505 0,-0.279 0.226,-0.505 0.505,-0.505 0.258,0 0.471,0.193 0.501,0.443 0.327,0.306 0.754,0.756 1.176,1.296 0.313,0.401 0.704,0.956 1.003,1.558 0.733,-0.704 1.19,-1.695 1.19,-2.792 M 0,8.64 c -0.94,0 -1.816,-0.272 -2.555,-0.742 l -1.672,2.223 0.219,0.784 c 1.048,0.091 1.628,0.489 1.593,0.874 -0.035,0.374 -1.075,0.094 -2.231,0.079 -0.318,-0.004 -2,0.004 -1.991,-0.305 0.01,-0.316 1.086,-0.574 1.84,-0.646 l -0.134,-0.481 h -6.792 c 0.145,0.472 0.277,0.908 0.379,1.246 0.088,0.289 0.153,0.506 0.186,0.614 l -0.494,0.378 0.233,0.236 H -9.6 v 0.6 h -2.07 l -0.888,-0.899 0.57,-0.436 c -0.264,-0.873 -0.887,-2.925 -1.29,-4.161 -0.701,0.404 -1.514,0.636 -2.382,0.636 -2.634,0 -4.77,-2.136 -4.77,-4.77 0,-2.634 2.136,-4.77 4.77,-4.77 2.635,0 4.77,2.136 4.77,4.77 0,1.482 -0.676,2.807 -1.737,3.682 0.05,0.148 0.103,0.313 0.16,0.489 L -7.335,2.455 C -7.336,2.44 -7.337,2.425 -7.337,2.41 c 0,-0.302 0.241,-0.548 0.541,-0.558 l 0.359,-1.367 h -0.367 v -0.36 h 1.159 v 0.36 h -0.461 l -0.381,1.448 c 0.078,0.048 0.143,0.114 0.19,0.192 l 1.728,0.372 C -3.979,0.532 -2.157,-0.9 0,-0.9 2.634,-0.9 4.77,1.236 4.77,3.87 4.77,6.504 2.634,8.64 0,8.64" style="fill:#ffffff;fill-opacity:1;fill-rule:nonzero;stroke:none" transform="matrix(1.3333333,0,0,-1.3333333,510.04067,542.54267)"/>
    </g>
    <g id="g287" transform="matrix(0.26458333,0,0,0.26458333,-39.335217,4.8657967)">
      <path id="path288" d="m 0,0 c 0.677,0 1.229,-0.552 1.229,-1.229 0,-0.677 -0.552,-1.23 -1.229,-1.23 -0.677,0 -1.229,0.553 -1.229,1.23 C -1.229,-0.552 -0.677,0 0,0" style="fill:#ffffff;fill-opacity:1;fill-rule:evenodd;stroke:none" transform="matrix(1.3333333,0,0,-1.3333333,534.1628,522.9428)"/>
    </g>
    <path id="path289" d="m 100.68235,145.96219 0.90981,-0.60642 c 0.042,-0.1778 0.21626,-0.96697 0.56621,-1.14935 0.34678,-0.22931 1.62454,0.71225 1.63195,0.71966 v 1.37337 l -0.27728,-0.0483 -0.1083,-1.09608 c -0.10443,-0.0208 -0.20885,-0.042 -0.31327,-0.0628 0.22825,0.58949 0.31185,1.15817 0.18062,1.53247 l 0.55422,2.26448 -0.37324,0.26529 -0.80716,-2.09621 -0.37359,0.39758 -0.51788,1.57798 -0.49389,-0.18063 0.44556,-1.66229 0.51823,-0.92745 -0.19861,-0.68474 -0.21096,0.27517 -0.98778,0.32526 z" style="fill:#ffffff;fill-opacity:1;fill-rule:evenodd;stroke:none;stroke-width:0.352778"/>
    <path id="path290" d="m 107.21297,144.49774 h 1.9939 v 0.53481 h -1.45979 v 0.83185 h 0.9853 v 0.54645 h -0.9853 v 0.9271 h 1.56633 v 0.54646 h -2.10044 z" style="fill:#ffffff;fill-opacity:1;fill-rule:evenodd;stroke:none;stroke-width:0.352778"/>
    <path id="path291" d="m 110.72043,147.44453 c 0.1905,0 0.32103,-0.0356 0.45156,-0.16686 v -1.24884 c -0.14253,-0.15451 -0.26282,-0.17886 -0.41593,-0.17886 -0.40816,0 -0.52282,0.42863 -0.52282,0.78564 0,0.34572 0.11713,0.80892 0.48719,0.80892 m -0.0935,-2.09903 c 0.2092,0 0.44062,0.061 0.55704,0.14782 v -0.79658 l 0.53516,-0.26176 v 3.44946 h -0.53516 v -0.0716 c -0.16651,0.0953 -0.2854,0.13123 -0.47554,0.13123 -0.75036,0 -1.02235,-0.60677 -1.02235,-1.30845 0,-0.64699 0.21096,-1.29011 0.94085,-1.29011" style="fill:#ffffff;fill-opacity:1;fill-rule:evenodd;stroke:none;stroke-width:0.352778"/>
    <path id="path292" d="m 113.03871,147.9301 c -0.35101,0 -0.67733,-0.20779 -0.84526,-0.63324 l 0.46038,-0.18097 c 0.0871,0.22084 0.22437,0.32067 0.38488,0.32067 0.16651,3.6e-4 0.25259,-0.12841 0.25259,-0.29315 0,-0.526 -1.02235,-0.26141 -1.02235,-1.10526 0,-0.41839 0.28892,-0.68968 0.73519,-0.68968 0.32067,0 0.57644,0.18415 0.69885,0.50553 l -0.46249,0.17674 c -0.0261,-0.12347 -0.14887,-0.19685 -0.2667,-0.19685 -0.10901,0 -0.20955,0.0642 -0.20955,0.20426 -3.5e-4,0.39053 1.02164,0.18803 1.02164,1.10526 0,0.41416 -0.28222,0.78669 -0.74718,0.78669" style="fill:#ffffff;fill-opacity:1;fill-rule:evenodd;stroke:none;stroke-width:0.352778"/>
    <path id="path293" d="m 115.00386,147.44707 c 0.17286,0 0.3496,-0.0621 0.43956,-0.10971 v -0.57115 c -0.10266,-0.0487 -0.28681,-0.10478 -0.46037,-0.10478 -0.20638,0 -0.39335,0.0811 -0.39335,0.35455 0,0.33655 0.20108,0.43109 0.41416,0.43109 m -0.0173,-1.60267 c -0.25012,0 -0.4766,0.13758 -0.6096,0.31538 l -0.15416,-0.52387 c 0.22225,-0.17392 0.49601,-0.28258 0.84526,-0.28258 0.47942,0 0.92004,0.29246 0.92004,0.87736 v 1.65382 h -0.52105 v -0.0716 c -0.0829,0.0716 -0.29634,0.10654 -0.48613,0.10654 -0.49777,0 -0.92393,-0.31926 -0.92393,-0.91546 0,-0.48789 0.41275,-0.80645 0.96556,-0.80645 0.11712,0 0.30056,0.037 0.40887,0.0811 0,-0.12947 -0.0554,-0.43427 -0.44486,-0.43427" style="fill:#ffffff;fill-opacity:1;fill-rule:evenodd;stroke:none;stroke-width:0.352778"/>
    <path id="path294" d="m 116.63168,144.69671 0.54187,-0.26176 v 3.44946 h -0.54187 z" style="fill:#ffffff;fill-opacity:1;fill-rule:evenodd;stroke:none;stroke-width:0.352778"/>
    <path id="path295" d="m 117.85092,144.69671 0.54187,-0.26176 v 3.44946 h -0.54187 z" style="fill:#ffffff;fill-opacity:1;fill-rule:evenodd;stroke:none;stroke-width:0.352778"/>
    <path id="path296" d="m 127.80186,146.30407 v -0.53481 h 0.13159 c 0.21519,0 0.33443,-0.11889 0.33443,-0.33267 0,-0.26317 -0.21378,-0.45156 -0.48966,-0.45156 -0.22683,0 -0.39405,0.1069 -0.51364,0.33267 l -0.50165,-0.19014 c 0.17886,-0.42792 0.56127,-0.68863 1.0033,-0.68863 0.57326,0 1.03928,0.46144 1.03928,1.03364 0,0.20214 -0.0476,0.34467 -0.1912,0.55845 0.25047,0.22578 0.32244,0.40358 0.32244,0.73695 0,0.68933 -0.47449,1.17616 -1.17052,1.17616 -0.54928,0 -0.99131,-0.35701 -1.13489,-0.90346 l 0.52564,-0.15452 c 0.084,0.33267 0.31045,0.51083 0.63289,0.51083 0.35842,0 0.60924,-0.25118 0.60924,-0.59373 0,-0.1397 -0.0575,-0.49918 -0.44661,-0.49918 z" style="fill:#ffffff;fill-opacity:1;fill-rule:nonzero;stroke:none;stroke-width:0.352778"/>
  </g>
</svg>
