<?xml version="1.0" encoding="UTF-8"?>
<svg id="D10-2" xmlns="http://www.w3.org/2000/svg" width="12in" height="36in" viewBox="0 0 864 2592">
  <defs>
    <style>
      .a {
        fill: #fff;
      }
    </style>
  </defs>
  <g>
    <rect class="a" width="864" height="2592" rx="108" ry="108"/>
    <path d="M756,.56c28.7,0,55.68,11.18,75.97,31.47,20.29,20.29,31.47,47.27,31.47,75.97v2376c0,28.7-11.18,55.68-31.47,75.97-20.29,20.29-47.27,31.47-75.97,31.47H108c-28.7,0-55.68-11.18-75.97-31.47-20.29-20.29-31.47-47.27-31.47-75.97V108c0-28.7,11.18-55.68,31.47-75.97C52.32,11.74,79.3.56,108,.56h648ZM108,0C48.35,0,0,48.35,0,108v2376c0,59.65,48.35,108,108,108h648c59.65,0,108-48.35,108-108V108c0-59.65-48.35-108-108-108H108Z"/>
  </g>
  <rect fill="#006b54" x="36" y="36" width="792" height="2520" rx="72" ry="72"/>
  <g id="MILE" class="a">
    <path d="M254.46,333.22l-33.34,108.14-35.14-108.14v170.78h-36.36V216h36.36l35.14,102.06,33.34-102.06h36.36v288h-36.36v-170.78Z"/>
    <path d="M354.2,216h37.44v288h-37.44V216Z"/>
    <path d="M455.01,216h36.18v254.66h73.33v33.34h-109.51V216Z"/>
    <path d="M604.86,216h105.48v37.4h-69.3v73.76h46.22v38.38h-46.22v101.05h73.33v37.4h-109.51V216Z"/>
  </g>
  <path id="digit_4-1" class="a" d="M633.69,1440h-114.21v-179.37H161.82v-68.13l357.66-472.5h114.21v437.04h68.49v103.59h-68.49v179.37ZM314.01,1157.04h205.47v-270.36l-205.47,270.36h0Z"/>
  <path id="digit_4-2" class="a" d="M633.69,2376h-114.21v-179.37H161.82v-68.13l357.66-472.5h114.21v437.04h68.49v103.59h-68.49v179.37ZM314.01,2093.04h205.47v-270.36l-205.47,270.36h0Z"/>
</svg>