<?xml version="1.0" encoding="UTF-8" standalone="no"?>
<!-- Created with Inkscape (http://www.inkscape.org/) -->

<svg
   width="49.706387mm"
   height="29.894388mm"
   viewBox="0 0 49.706387 29.894388"
   version="1.1"
   id="svg1"
   inkscape:version="1.3 (0e150ed, 2023-07-21)"
   sodipodi:docname="MUTCD_D17-5.svg"
   xmlns:inkscape="http://www.inkscape.org/namespaces/inkscape"
   xmlns:sodipodi="http://sodipodi.sourceforge.net/DTD/sodipodi-0.dtd"
   xmlns="http://www.w3.org/2000/svg"
   xmlns:svg="http://www.w3.org/2000/svg">
  <sodipodi:namedview
     id="namedview1"
     pagecolor="#ffffff"
     bordercolor="#666666"
     borderopacity="1.0"
     inkscape:showpageshadow="2"
     inkscape:pageopacity="0.0"
     inkscape:pagecheckerboard="0"
     inkscape:deskcolor="#d1d1d1"
     inkscape:document-units="mm"
     inkscape:zoom="1"
     inkscape:cx="93.5"
     inkscape:cy="57"
     inkscape:window-width="1440"
     inkscape:window-height="431"
     inkscape:window-x="0"
     inkscape:window-y="23"
     inkscape:window-maximized="0"
     inkscape:current-layer="layer1" />
  <defs
     id="defs1" />
  <g
     inkscape:label="Layer 1"
     inkscape:groupmode="layer"
     id="layer1"
     transform="translate(-80.16875,-133.61458)">
    <g
       id="g59"
       transform="matrix(0.26458333,0,0,0.26458333,67.95911,42.752044)">
      <path
         id="path60"
         d="M 0,0 C -2.972,0 -5.39,2.418 -5.39,5.39 V 79.1 c 0,2.972 2.418,5.39 5.39,5.39 h 129.87 c 2.972,0 5.39,-2.418 5.39,-5.39 V 5.39 C 135.26,2.418 132.842,0 129.87,0 Z"
         style="fill:#ffffff;fill-opacity:1;fill-rule:nonzero;stroke:none"
         transform="matrix(1.3333333,0,0,-1.3333333,53.5,456.23747)" />
    </g>
    <g
       id="g60"
       transform="matrix(0.26458333,0,0,0.26458333,67.95911,42.752044)">
      <path
         id="path61"
         d="m 0,0 h -129.87 c -3.041,0 -5.515,-2.474 -5.515,-5.515 v -73.71 c 0,-3.041 2.474,-5.515 5.515,-5.515 H 0 c 3.041,0 5.515,2.474 5.515,5.515 v 73.71 C 5.515,-2.474 3.041,0 0,0 m 0,-0.25 c 2.908,0 5.265,-2.357 5.265,-5.265 v -73.71 C 5.265,-82.133 2.908,-84.49 0,-84.49 h -129.87 c -2.908,0 -5.265,2.357 -5.265,5.265 v 73.71 c 0,2.908 2.357,5.265 5.265,5.265 z"
         style="fill:#000000;fill-opacity:1;fill-rule:nonzero;stroke:none"
         transform="matrix(1.3333333,0,0,-1.3333333,226.66,343.41747)" />
    </g>
    <g
       id="g61"
       transform="matrix(0.26458333,0,0,0.26458333,67.95911,42.752044)">
      <path
         id="path62"
         d="m 0,0 h -129.87 c -1.939,0 -3.51,1.571 -3.51,3.51 v 73.71 c 0,1.939 1.571,3.51 3.51,3.51 H 0 c 1.939,0 3.51,-1.571 3.51,-3.51 V 3.51 C 3.51,1.571 1.939,0 0,0"
         style="fill:#006f51;fill-opacity:1;fill-rule:nonzero;stroke:none"
         transform="matrix(1.3333333,0,0,-1.3333333,226.66,453.7308)" />
      <path
         id="path63"
         d="M 0,0 H 8.266 V -2.217 H 2.215 V -5.665 H 6.298 V -7.931 H 2.215 v -3.843 H 8.708 V -14.04 H 0 Z"
         style="fill:#ffffff;fill-opacity:1;fill-rule:nonzero;stroke:none"
         transform="matrix(1.3333333,0,0,-1.3333333,68.057867,359.3508)" />
      <path
         id="path64"
         d="M 0,0 -3.255,-8.129 -6.514,0 v -8.129 h -2.222 v 14.04 h 2.222 L -3.255,-1.971 0,5.911 H 2.222 V -8.129 H 0 Z"
         style="fill:#ffffff;fill-opacity:1;fill-rule:nonzero;stroke:none"
         transform="matrix(1.3333333,0,0,-1.3333333,94.4992,367.23187)" />
      <path
         id="path65"
         d="M 0,0 H 8.266 V -2.217 H 2.215 V -5.665 H 6.298 V -7.931 H 2.215 v -3.843 H 8.708 V -14.04 H 0 Z"
         style="fill:#ffffff;fill-opacity:1;fill-rule:nonzero;stroke:none"
         transform="matrix(1.3333333,0,0,-1.3333333,101.95493,359.3508)" />
      <path
         id="path66"
         d="m 0,0 c 1.762,0 2.039,1.271 2.039,1.723 0,0.613 -0.458,1.726 -1.932,1.726 H -2.789 V 0 Z M -2.789,-2.264 V -8.375 H -5.003 V 5.665 H 0.075 C 3.294,5.665 4.259,3.091 4.259,1.722 4.259,1.2 4.066,-0.853 2.08,-1.794 L 4.554,-8.375 H 2.139 l -2.265,6.111 z"
         style="fill:#ffffff;fill-opacity:1;fill-rule:nonzero;stroke:none"
         transform="matrix(1.3333333,0,0,-1.3333333,123.41933,366.90427)" />
      <path
         id="path67"
         d="M 0,0 C 2.25,0 3.517,-0.853 4.468,-3.103 L 2.35,-3.938 c -0.592,1.232 -1.181,1.674 -2.266,1.674 -3.085,0 -2.908,-4.696 -2.908,-5.024 0,-0.529 -0.119,-4.976 2.612,-4.976 1.428,0 2.464,0.886 2.464,2.168 v 0.589 h -2.563 v 2.219 h 4.777 v -2.808 c 0,-2.561 -1.871,-4.434 -4.434,-4.434 -0.509,0 -5.121,-0.419 -5.121,7.266 C -5.089,-6.188 -5.03,0 0,0"
         style="fill:#ffffff;fill-opacity:1;fill-rule:nonzero;stroke:none"
         transform="matrix(1.3333333,0,0,-1.3333333,139.0856,359.0256)" />
      <path
         id="path68"
         d="M 0,0 H 8.266 V -2.217 H 2.215 V -5.665 H 6.298 V -7.931 H 2.215 v -3.843 H 8.708 V -14.04 H 0 Z"
         style="fill:#ffffff;fill-opacity:1;fill-rule:nonzero;stroke:none"
         transform="matrix(1.3333333,0,0,-1.3333333,149.16187,359.3508)" />
      <path
         id="path69"
         d="M 0,0 V -9.507 H -2.215 V 4.533 H 0 l 5.124,-8.966 v 8.966 h 2.218 v -14.04 h -1.97 z"
         style="fill:#ffffff;fill-opacity:1;fill-rule:nonzero;stroke:none"
         transform="matrix(1.3333333,0,0,-1.3333333,166.90827,365.39507)" />
      <path
         id="path70"
         d="m 0,0 c 0,1.974 0.397,7.239 5.172,7.239 2.035,0 3.422,-0.828 4.385,-2.857 L 7.488,3.496 C 6.77,4.528 6.412,4.974 5.173,4.974 c -2.937,0 -2.906,-4.095 -2.906,-4.976 0,-0.87 -0.054,-5.026 3.005,-5.026 1.072,0 1.688,0.648 2.167,1.627 L 9.557,-4.189 C 8.767,-6.143 7.441,-7.29 5.319,-7.29 0.267,-7.29 0,-1.709 0,0"
         style="fill:#ffffff;fill-opacity:1;fill-rule:nonzero;stroke:none"
         transform="matrix(1.3333333,0,0,-1.3333333,180.81733,368.678)" />
      <path
         id="path71"
         d="m 0,0 h -2.229 v 6.109 l -4.95,7.931 h 2.674 L -1.139,8.621 2.278,14.04 H 4.901 L 0,6.109 Z"
         style="fill:#ffffff;fill-opacity:1;fill-rule:nonzero;stroke:none"
         transform="matrix(1.3333333,0,0,-1.3333333,205.5668,378.07067)" />
      <path
         id="path72"
         d="M 0,0 H -2.227 V 12.069 H -5.442 V 14.04 H 3.266 V 12.069 H 0 Z"
         style="fill:#ffffff;fill-opacity:1;fill-rule:nonzero;stroke:none"
         transform="matrix(1.3333333,0,0,-1.3333333,80.842667,409.2708)" />
      <path
         id="path73"
         d="M 0,0 V 9.015 H 2.215 V 0 c 0,-1.823 1.035,-3.005 2.562,-3.005 1.527,0 2.562,1.182 2.562,3.005 V 9.015 H 9.557 V 0 C 9.557,-4.44 6.151,-5.27 4.779,-5.27 3.529,-5.27 0,-4.535 0,0"
         style="fill:#ffffff;fill-opacity:1;fill-rule:nonzero;stroke:none"
         transform="matrix(1.3333333,0,0,-1.3333333,88.0056,402.57147)" />
      <path
         id="path74"
         d="m 0,0 c 1.762,0 2.039,1.271 2.039,1.723 0,0.613 -0.458,1.726 -1.932,1.726 H -2.789 V 0 Z M -2.789,-2.264 V -8.375 H -5.003 V 5.665 H 0.075 C 3.294,5.665 4.259,3.091 4.259,1.722 4.259,1.2 4.066,-0.853 2.08,-1.794 L 4.554,-8.375 H 2.139 l -2.265,6.111 z"
         style="fill:#ffffff;fill-opacity:1;fill-rule:nonzero;stroke:none"
         transform="matrix(1.3333333,0,0,-1.3333333,111.91333,398.1044)" />
      <path
         id="path75"
         d="M 0,0 V -9.507 H -2.215 V 4.533 H 0 L 5.124,-4.433 V 4.533 H 7.343 V -9.507 H 5.372 Z"
         style="fill:#ffffff;fill-opacity:1;fill-rule:nonzero;stroke:none"
         transform="matrix(1.3333333,0,0,-1.3333333,124.1216,396.59507)" />
      <path
         id="path76"
         d="m 107.454,493.078 h 7.02 v -2.218 h -7.02 z"
         style="fill:#ffffff;fill-opacity:1;fill-rule:nonzero;stroke:none"
         transform="matrix(1.3333333,0,0,-1.3333333,0,1056)" />
      <path
         id="path77"
         d="M 0,0 C 1.513,0 2.741,1.434 2.741,5.002 2.741,8.57 1.513,10.003 0,10.003 -1.513,10.003 -2.741,8.571 -2.741,5.002 -2.741,1.434 -1.513,0 0,0 m 4.963,5.002 c 0,-0.504 0.107,-7.266 -4.988,-7.266 -5.094,0 -4.987,6.762 -4.987,7.266 0,0.503 -0.107,7.264 4.987,7.264 5.095,0 4.988,-6.761 4.988,-7.264"
         style="fill:#ffffff;fill-opacity:1;fill-rule:nonzero;stroke:none"
         transform="matrix(1.3333333,0,0,-1.3333333,168.6748,406.57987)" />
      <path
         id="path78"
         d="M 0,0 V 9.015 H 2.215 V 0 c 0,-1.823 1.035,-3.005 2.562,-3.005 1.527,0 2.562,1.182 2.562,3.005 V 9.015 H 9.557 V 0 C 9.557,-4.44 6.151,-5.27 4.779,-5.27 3.529,-5.27 0,-4.535 0,0"
         style="fill:#ffffff;fill-opacity:1;fill-rule:nonzero;stroke:none"
         transform="matrix(1.3333333,0,0,-1.3333333,179.4112,402.57147)" />
      <path
         id="path79"
         d="M 0,0 H -2.227 V 12.069 H -5.442 V 14.04 H 3.266 V 12.069 H 0 Z"
         style="fill:#ffffff;fill-opacity:1;fill-rule:nonzero;stroke:none"
         transform="matrix(1.3333333,0,0,-1.3333333,202.21893,409.2708)" />
      <path
         id="path80"
         d="m 0,0 1.083,1.971 c 0.591,-0.297 1.625,-0.493 2.66,-0.493 2.022,0 3.596,1.335 3.596,3.152 0,1.379 -1.118,2.464 -2.513,2.464 C 3.841,7.094 3.397,6.799 2.56,5.616 L 0.344,6.257 0.691,13.498 H 8.769 V 11.281 H 2.857 L 2.711,8.966 c 1.036,0.295 1.478,0.393 2.168,0.393 2.567,0 4.678,-2.132 4.678,-4.728 0,-3.104 -2.559,-5.419 -6.109,-5.419 C 2.216,-0.788 0.984,-0.493 0,0"
         style="fill:#ffffff;fill-opacity:1;fill-rule:nonzero;stroke:none"
         transform="matrix(1.3333333,0,0,-1.3333333,80.3372,439.74773)" />
      <path
         id="path81"
         d="M 0,0 C 1.513,0 2.741,1.434 2.741,5.002 2.741,8.57 1.513,10.003 0,10.003 -1.513,10.003 -2.741,8.571 -2.741,5.002 -2.741,1.434 -1.513,0 0,0 m 4.963,5.002 c 0,-0.504 0.107,-7.266 -4.988,-7.266 -5.094,0 -4.987,6.762 -4.987,7.266 0,0.503 -0.107,7.264 4.987,7.264 5.095,0 4.988,-6.761 4.988,-7.264"
         style="fill:#ffffff;fill-opacity:1;fill-rule:nonzero;stroke:none"
         transform="matrix(1.3333333,0,0,-1.3333333,103.50693,437.77987)" />
      <path
         id="path82"
         d="M 0,0 C 1.513,0 2.741,1.434 2.741,5.002 2.741,8.57 1.513,10.003 0,10.003 -1.513,10.003 -2.741,8.571 -2.741,5.002 -2.741,1.434 -1.513,0 0,0 m 4.963,5.002 c 0,-0.504 0.107,-7.266 -4.988,-7.266 -5.094,0 -4.987,6.762 -4.987,7.266 0,0.503 -0.107,7.264 4.987,7.264 5.095,0 4.988,-6.761 4.988,-7.264"
         style="fill:#ffffff;fill-opacity:1;fill-rule:nonzero;stroke:none"
         transform="matrix(1.3333333,0,0,-1.3333333,120.5512,437.77987)" />
      <path
         id="path83"
         d="M 0,0 H 4.084 V -2.266 H 0 V -8.375 H -2.215 V 5.665 H 6.493 V 3.449 H 0 Z"
         style="fill:#ffffff;fill-opacity:1;fill-rule:nonzero;stroke:none"
         transform="matrix(1.3333333,0,0,-1.3333333,148.8416,429.3044)" />
      <path
         id="path84"
         d="M 0,0 H 8.266 V -2.217 H 2.215 V -5.665 H 6.298 V -7.931 H 2.215 v -3.843 H 8.708 V -14.04 H 0 Z"
         style="fill:#ffffff;fill-opacity:1;fill-rule:nonzero;stroke:none"
         transform="matrix(1.3333333,0,0,-1.3333333,160.30773,421.75093)" />
      <path
         id="path85"
         d="M 0,0 H 8.266 V -2.217 H 2.215 V -5.665 H 6.298 V -7.931 H 2.215 v -3.843 H 8.708 V -14.04 H 0 Z"
         style="fill:#ffffff;fill-opacity:1;fill-rule:nonzero;stroke:none"
         transform="matrix(1.3333333,0,0,-1.3333333,175.10147,421.75093)" />
      <path
         id="path86"
         d="M 0,0 H -2.227 V 12.069 H -5.442 V 14.04 H 3.266 V 12.069 H 0 Z"
         style="fill:#ffffff;fill-opacity:1;fill-rule:nonzero;stroke:none"
         transform="matrix(1.3333333,0,0,-1.3333333,195.4664,440.4708)" />
    </g>
  </g>
</svg>
