<?xml version="1.0" encoding="UTF-8" standalone="no"?>
<!-- Created with Inkscape (http://www.inkscape.org/) -->

<svg
   width="40.816387mm"
   height="30.656387mm"
   viewBox="0 0 40.816387 30.656387"
   version="1.1"
   id="svg1"
   inkscape:version="1.3 (0e150ed, 2023-07-21)"
   sodipodi:docname="MUTCD_D11-1c.svg"
   xmlns:inkscape="http://www.inkscape.org/namespaces/inkscape"
   xmlns:sodipodi="http://sodipodi.sourceforge.net/DTD/sodipodi-0.dtd"
   xmlns="http://www.w3.org/2000/svg"
   xmlns:svg="http://www.w3.org/2000/svg">
  <sodipodi:namedview
     id="namedview1"
     pagecolor="#ffffff"
     bordercolor="#666666"
     borderopacity="1.0"
     inkscape:showpageshadow="2"
     inkscape:pageopacity="0.0"
     inkscape:pagecheckerboard="0"
     inkscape:deskcolor="#d1d1d1"
     inkscape:document-units="mm"
     inkscape:zoom="0.2102413"
     inkscape:cx="76.103029"
     inkscape:cy="57.077272"
     inkscape:window-width="1440"
     inkscape:window-height="431"
     inkscape:window-x="0"
     inkscape:window-y="23"
     inkscape:window-maximized="0"
     inkscape:current-layer="layer1" />
  <defs
     id="defs1">
    <clipPath
       clipPathUnits="userSpaceOnUse"
       id="clipPath144">
      <path
         d="m 67.25,249.6 h 504.5 V 745.001 H 67.25 Z"
         transform="translate(-213.1867,-459.43331)"
         id="path144" />
    </clipPath>
  </defs>
  <g
     inkscape:label="Layer 1"
     inkscape:groupmode="layer"
     id="layer1"
     transform="translate(-84.137499,-133.08542)">
    <g
       id="g142"
       transform="matrix(0.26458333,0,0,0.26458333,11.558127,46.375498)">
      <path
         id="path143"
         d="m 0,0 c -4.039,0 -7.325,3.286 -7.325,7.325 v 72 c 0,4.039 3.286,7.325 7.325,7.325 h 100.8 c 4.039,0 7.325,-3.286 7.325,-7.325 v -72 C 108.125,3.286 104.839,0 100.8,0 Z"
         style="fill:#ffffff;fill-opacity:1;fill-rule:nonzero;stroke:none"
         transform="matrix(1.3333333,0,0,-1.3333333,284.24893,443.42227)"
         clip-path="url(#clipPath144)" />
    </g>
    <g
       id="g144"
       transform="matrix(0.26458333,0,0,0.26458333,11.558127,46.375498)">
      <path
         id="path145"
         d="m 0,0 h -100.8 c -4.108,0 -7.45,-3.342 -7.45,-7.45 v -72 c 0,-4.108 3.342,-7.45 7.45,-7.45 H 0 c 4.108,0 7.45,3.342 7.45,7.45 v 72 C 7.45,-3.342 4.108,0 0,0 m 0,-0.25 c 3.976,0 7.2,-3.224 7.2,-7.2 v -72 c 0,-3.976 -3.224,-7.2 -7.2,-7.2 h -100.8 c -3.976,0 -7.2,3.224 -7.2,7.2 v 72 c 0,3.976 3.224,7.2 7.2,7.2 z"
         style="fill:#000000;fill-opacity:1;fill-rule:nonzero;stroke:none"
         transform="matrix(1.3333333,0,0,-1.3333333,418.64907,327.72253)" />
    </g>
    <g
       id="g145"
       transform="matrix(0.26458333,0,0,0.26458333,11.558127,46.375498)">
      <path
         id="path146"
         d="m 0,0 c -2.647,0 -4.8,2.153 -4.8,4.8 v 72 c 0,2.647 2.153,4.8 4.8,4.8 h 100.8 c 2.647,0 4.8,-2.153 4.8,-4.8 V 4.8 C 105.6,2.153 103.447,0 100.8,0 Z"
         style="fill:#006f53;fill-opacity:1;fill-rule:nonzero;stroke:none"
         transform="matrix(1.3333333,0,0,-1.3333333,284.24907,440.05573)" />
      <path
         id="path147"
         d="m 0,0 c -6.325,0 -11.682,4.138 -13.514,9.854 l 12.615,2.717 c 0.266,-0.148 0.572,-0.233 0.899,-0.233 1.023,0 1.852,0.829 1.852,1.852 0,0.893 -0.632,1.638 -1.472,1.813 L -7.377,26.314 C -5.228,27.625 -2.702,28.38 0,28.38 7.837,28.38 14.19,22.027 14.19,14.19 14.19,6.353 7.837,0 0,0 m -14.19,14.19 c 0,4.133 1.768,7.853 4.587,10.446 l 7.18,-9.543 -11.675,-2.514 c -0.06,0.529 -0.092,1.066 -0.092,1.611 m -3.148,-2.309 -5.551,-1.195 6.444,23.045 4.851,-6.448 c -3.616,-3.204 -5.896,-7.882 -5.896,-13.093 0,-0.783 0.052,-1.553 0.152,-2.309 m -7.903,0.741 -0.861,3.274 h 1.344 v 1.32 h -4.249 v -1.32 h 1.692 l 0.854,-3.248 -18.283,19.899 c 0.297,0.947 0.601,1.923 0.902,2.896 H -18.86 Z M -43.23,14.19 C -43.23,6.353 -49.583,0 -57.42,0 c -7.837,0 -14.19,6.353 -14.19,14.19 0,7.837 6.353,14.19 14.19,14.19 2.786,0 5.384,-0.803 7.576,-2.19 -1.743,-3.781 -5.141,-7.853 -7.59,-10.148 -1.016,-0.008 -1.838,-0.834 -1.838,-1.852 0,-1.023 0.829,-1.852 1.852,-1.852 0.946,0 1.725,0.709 1.838,1.624 1.198,1.122 2.762,2.773 4.309,4.752 1.151,1.472 2.584,3.507 3.678,5.714 2.69,-2.582 4.365,-6.214 4.365,-10.238 M 0,31.68 c -3.447,0 -6.66,-0.998 -9.369,-2.719 l -6.131,8.149 0.804,2.877 c 3.844,0.33 5.969,1.791 5.839,3.205 -0.126,1.37 -3.94,0.344 -8.18,0.29 -1.163,-0.015 -7.333,0.012 -7.297,-1.12 0.036,-1.16 3.981,-2.106 6.746,-2.371 l -0.493,-1.762 h -24.904 c 0.531,1.732 1.016,3.33 1.391,4.569 0.321,1.059 0.561,1.856 0.68,2.25 l -1.812,1.386 0.856,0.866 h 6.67 v 2.2 h -7.589 l -3.257,-3.297 2.088,-1.596 c -0.967,-3.203 -3.251,-10.725 -4.729,-15.26 -2.57,1.484 -5.552,2.333 -8.733,2.333 -9.659,0 -17.49,-7.831 -17.49,-17.49 0,-9.659 7.831,-17.49 17.49,-17.49 9.66,0 17.49,7.831 17.49,17.49 0,5.435 -2.479,10.292 -6.369,13.499 0.181,0.546 0.377,1.15 0.585,1.795 l 18.82,-20.483 c -0.005,-0.054 -0.007,-0.109 -0.007,-0.164 0,-1.108 0.88,-2.011 1.98,-2.047 l 1.318,-5.011 h -1.344 v -1.32 h 4.249 v 1.32 h -1.691 l -1.397,5.309 c 0.286,0.174 0.524,0.416 0.695,0.704 l 6.338,1.364 C -14.592,1.951 -7.909,-3.3 0,-3.3 c 9.659,0 17.49,7.831 17.49,17.49 0,9.659 -7.831,17.49 -17.49,17.49"
         style="fill:#ffffff;fill-opacity:1;fill-rule:nonzero;stroke:none"
         transform="matrix(1.3333333,0,0,-1.3333333,389.7288,405.25587)" />
      <path
         id="path148"
         d="M 0,0 H -1.523 V 8.252 H -3.722 V 9.6 H 2.234 V 8.252 H 0 Z"
         style="fill:#ffffff;fill-opacity:1;fill-rule:nonzero;stroke:none"
         transform="matrix(1.3333333,0,0,-1.3333333,294.80173,433.65573)" />
      <path
         id="path149"
         d="M 0,0 C 1.035,0 1.875,0.98 1.875,3.42 1.875,5.86 1.035,6.84 0,6.84 -1.035,6.84 -1.875,5.861 -1.875,3.42 -1.875,0.98 -1.035,0 0,0 m 3.394,3.42 c 0,-0.344 0.073,-4.968 -3.411,-4.968 -3.484,0 -3.411,4.624 -3.411,4.968 0,0.344 -0.073,4.967 3.411,4.967 3.484,0 3.411,-4.623 3.411,-4.967"
         style="fill:#ffffff;fill-opacity:1;fill-rule:nonzero;stroke:none"
         transform="matrix(1.3333333,0,0,-1.3333333,304.01467,431.81573)" />
      <path
         id="path150"
         d="m 0,0 h -1.345 v -8.631 h 1.197 c 1.403,0 2.122,0.614 2.122,4.253 C 1.974,-0.162 0.922,0 0,0 M -3.067,-10.315 V 1.684 h 3.424 c 0.732,0 3.298,-0.036 3.298,-5.978 0,-5.438 -2.37,-6.021 -3.156,-6.021 z"
         style="fill:#ffffff;fill-opacity:1;fill-rule:nonzero;stroke:none"
         transform="matrix(1.3333333,0,0,-1.3333333,328.62987,419.90187)" />
      <path
         id="path151"
         d="m 0,0 c 0,-0.885 0.169,-2.991 1.402,-2.991 1.25,0 1.403,2.148 1.403,3.033 0,0.849 -0.176,2.944 -1.403,2.944 V 2.991 C 0.169,2.991 0,0.885 0,0 m -1.659,0.04 c 0,1.941 0.51,4.548 3.061,4.548 2.552,0 3.062,-2.442 3.062,-4.548 0,-2.093 -0.51,-4.591 -3.062,-4.591 -2.555,0 -3.061,2.316 -3.061,4.591"
         style="fill:#ffffff;fill-opacity:1;fill-rule:nonzero;stroke:none"
         transform="matrix(1.3333333,0,0,-1.3333333,338.11587,427.80973)" />
      <path
         id="path152"
         d="M 0,0 -1.81,5.812 -3.663,0 h -1.768 l -2.022,8.761 h 1.684 l 1.305,-5.602 1.73,5.602 h 1.81 L 0.76,3.117 2.107,8.761 H 3.832 L 1.81,0 Z"
         style="fill:#ffffff;fill-opacity:1;fill-rule:nonzero;stroke:none"
         transform="matrix(1.3333333,0,0,-1.3333333,355.28547,433.65573)" />
      <path
         id="path153"
         d="M 0,0 C 0,1.163 -0.643,1.389 -1.488,1.389 -2.127,1.389 -2.721,1.007 -2.721,0 v -5.982 h -1.701 v 8.76 h 1.659 V 2.4 c 0.273,0.346 0.923,0.58 1.644,0.58 1.294,0 2.82,-0.75 2.82,-2.938 V -5.982 H 0 Z"
         style="fill:#ffffff;fill-opacity:1;fill-rule:nonzero;stroke:none"
         transform="matrix(1.3333333,0,0,-1.3333333,368.05133,425.67987)" />
      <path
         id="path154"
         d="M 0,0 C -1.261,0 -1.636,1.041 -1.636,2.274 V 7.327 H -2.77 v 1.599 h 1.134 v 2.529 l 1.678,0.927 V 8.926 H 1.426 V 7.327 H 0.042 V 2.441 c 0,-0.584 0.083,-0.842 0.586,-0.842 0.378,0 0.546,0.125 0.924,0.422 L 1.3,0.375 C 0.756,0.084 0.42,0 0,0"
         style="fill:#ffffff;fill-opacity:1;fill-rule:nonzero;stroke:none"
         transform="matrix(1.3333333,0,0,-1.3333333,375.45347,433.87773)" />
      <path
         id="path155"
         d="m 0,0 c 0,-0.885 0.169,-2.991 1.402,-2.991 1.25,0 1.403,2.148 1.403,3.033 0,0.849 -0.176,2.944 -1.403,2.944 V 2.991 C 0.169,2.991 0,0.885 0,0 m -1.659,0.04 c 0,1.941 0.51,4.548 3.061,4.548 2.552,0 3.062,-2.442 3.062,-4.548 0,-2.093 -0.51,-4.591 -3.062,-4.591 -2.555,0 -3.061,2.316 -3.061,4.591"
         style="fill:#ffffff;fill-opacity:1;fill-rule:nonzero;stroke:none"
         transform="matrix(1.3333333,0,0,-1.3333333,380.8552,427.80973)" />
      <path
         id="path156"
         d="M 0,0 -1.81,5.812 -3.663,0 h -1.768 l -2.022,8.761 h 1.684 l 1.305,-5.602 1.73,5.602 h 1.81 L 0.76,3.117 2.107,8.761 H 3.832 L 1.81,0 Z"
         style="fill:#ffffff;fill-opacity:1;fill-rule:nonzero;stroke:none"
         transform="matrix(1.3333333,0,0,-1.3333333,398.0248,433.65573)" />
      <path
         id="path157"
         d="M 0,0 C 0,1.163 -0.643,1.389 -1.488,1.389 -2.127,1.389 -2.721,1.007 -2.721,0 v -5.982 h -1.701 v 8.76 h 1.659 V 2.4 c 0.273,0.346 0.923,0.58 1.644,0.58 1.294,0 2.82,-0.75 2.82,-2.938 V -5.982 H 0 Z"
         style="fill:#ffffff;fill-opacity:1;fill-rule:nonzero;stroke:none"
         transform="matrix(1.3333333,0,0,-1.3333333,410.79067,425.67987)" />
    </g>
  </g>
</svg>
