<?xml version="1.0" encoding="UTF-8" standalone="no"?>
<!-- Created with Inkscape (http://www.inkscape.org/) -->

<svg
   width="40.816387mm"
   height="20.496387mm"
   viewBox="0 0 40.816387 20.496387"
   version="1.1"
   id="svg1"
   inkscape:version="1.3 (0e150ed, 2023-07-21)"
   sodipodi:docname="MUTCD_D2-1a.svg"
   xmlns:inkscape="http://www.inkscape.org/namespaces/inkscape"
   xmlns:sodipodi="http://sodipodi.sourceforge.net/DTD/sodipodi-0.dtd"
   xmlns="http://www.w3.org/2000/svg"
   xmlns:svg="http://www.w3.org/2000/svg">
  <sodipodi:namedview
     id="namedview1"
     pagecolor="#ffffff"
     bordercolor="#666666"
     borderopacity="1.0"
     inkscape:showpageshadow="2"
     inkscape:pageopacity="0.0"
     inkscape:pagecheckerboard="0"
     inkscape:deskcolor="#d1d1d1"
     inkscape:document-units="mm"
     inkscape:zoom="0.2102413"
     inkscape:cx="76.103029"
     inkscape:cy="38.051515"
     inkscape:window-width="1440"
     inkscape:window-height="431"
     inkscape:window-x="0"
     inkscape:window-y="23"
     inkscape:window-maximized="0"
     inkscape:current-layer="layer1" />
  <defs
     id="defs1">
    <clipPath
       clipPathUnits="userSpaceOnUse"
       id="clipPath350">
      <path
         d="M 40.252,158.535 H 526.749 V 746 H 40.252 Z"
         transform="translate(-152.0997,-288.49581)"
         id="path350" />
    </clipPath>
  </defs>
  <g
     inkscape:label="Layer 1"
     inkscape:groupmode="layer"
     id="layer1"
     transform="translate(-84.137499,-138.37708)">
    <g
       id="g348"
       transform="matrix(0.26458333,0,0,0.26458333,33.108299,-18.795647)">
      <path
         id="path349"
         d="m 0,0 c -4.039,0 -7.325,3.286 -7.325,7.325 v 43.2 c 0,4.039 3.286,7.326 7.325,7.326 h 100.8 c 4.039,0 7.325,-3.287 7.325,-7.326 V 7.325 C 108.125,3.286 104.839,0 100.8,0 Z"
         style="fill:#ffffff;fill-opacity:1;fill-rule:nonzero;stroke:none"
         transform="matrix(1.3333333,0,0,-1.3333333,202.7996,671.33893)"
         clip-path="url(#clipPath350)" />
    </g>
    <g
       id="g350"
       transform="matrix(0.26458333,0,0,0.26458333,33.108299,-18.795647)">
      <path
         id="path351"
         d="m 0,0 h -100.8 c -4.108,0 -7.45,-3.342 -7.45,-7.45 v -43.2 c 0,-4.108 3.342,-7.45 7.45,-7.45 H 0 c 4.108,0 7.45,3.342 7.45,7.45 v 43.2 C 7.45,-3.342 4.108,0 0,0 m 0,-0.25 c 3.976,0 7.2,-3.224 7.2,-7.2 v -43.2 c 0,-3.976 -3.224,-7.2 -7.2,-7.2 h -100.8 c -3.976,0 -7.2,3.224 -7.2,7.2 v 43.2 c 0,3.976 3.224,7.2 7.2,7.2 z"
         style="fill:#000000;fill-opacity:1;fill-rule:nonzero;stroke:none"
         transform="matrix(1.3333333,0,0,-1.3333333,337.1996,594.03867)" />
    </g>
    <g
       id="g351"
       transform="matrix(0.26458333,0,0,0.26458333,33.108299,-18.795647)">
      <path
         id="path352"
         d="M 0,0 C -2.647,0 -4.8,2.153 -4.8,4.8 V 48 c 0,2.647 2.153,4.8 4.8,4.8 h 100.8 c 2.647,0 4.8,-2.153 4.8,-4.8 V 4.8 C 105.6,2.153 103.447,0 100.8,0 Z"
         style="fill:#006f53;fill-opacity:1;fill-rule:nonzero;stroke:none"
         transform="matrix(1.3333333,0,0,-1.3333333,202.79987,667.972)" />
      <path
         id="path353"
         d="m 0,0 c -2.875,0 -5.31,1.881 -6.143,4.479 l 5.734,1.235 C -0.288,5.647 -0.148,5.608 0,5.608 c 0.465,0 0.842,0.377 0.842,0.842 0,0.406 -0.287,0.744 -0.669,0.824 l -3.526,4.687 C -2.376,12.557 -1.228,12.9 0,12.9 3.562,12.9 6.45,10.012 6.45,6.45 6.45,2.888 3.562,0 0,0 m -6.45,6.45 c 0,1.879 0.803,3.57 2.085,4.748 L -1.101,6.861 -6.408,5.718 C -6.436,5.958 -6.45,6.202 -6.45,6.45 m -1.431,-1.049 -2.523,-0.544 2.929,10.475 2.205,-2.93 C -6.914,10.945 -7.95,8.819 -7.95,6.45 c 0,-0.356 0.024,-0.706 0.069,-1.049 m -3.592,0.336 -0.392,1.488 h 0.612 v 0.6 h -1.932 v -0.6 h 0.769 l 0.388,-1.476 -8.31,9.045 c 0.135,0.43 0.273,0.874 0.41,1.316 H -8.573 Z M -19.65,6.45 C -19.65,2.888 -22.538,0 -26.1,0 c -3.562,0 -6.45,2.888 -6.45,6.45 0,3.562 2.888,6.45 6.45,6.45 1.266,0 2.447,-0.365 3.444,-0.996 -0.792,-1.718 -2.337,-3.569 -3.45,-4.612 -0.462,-0.004 -0.836,-0.379 -0.836,-0.842 0,-0.465 0.377,-0.842 0.842,-0.842 0.43,0 0.784,0.322 0.835,0.738 0.545,0.51 1.256,1.261 1.959,2.16 0.523,0.669 1.175,1.594 1.672,2.598 1.223,-1.174 1.984,-2.825 1.984,-4.654 M 0,14.4 c -1.567,0 -3.027,-0.453 -4.259,-1.236 l -2.786,3.704 0.365,1.308 c 1.747,0.15 2.713,0.814 2.654,1.457 -0.057,0.623 -1.791,0.156 -3.718,0.131 -0.529,-0.006 -3.333,0.006 -3.317,-0.508 0.017,-0.528 1.81,-0.958 3.066,-1.078 l -0.224,-0.801 h -11.32 c 0.242,0.787 0.462,1.514 0.633,2.077 0.145,0.481 0.255,0.843 0.309,1.023 l -0.824,0.629 0.389,0.394 H -16 v 1 h -3.45 l -1.48,-1.499 0.949,-0.725 c -0.44,-1.456 -1.478,-4.875 -2.15,-6.936 -1.168,0.674 -2.523,1.06 -3.969,1.06 -4.391,0 -7.95,-3.559 -7.95,-7.95 0,-4.391 3.559,-7.95 7.95,-7.95 4.391,0 7.95,3.559 7.95,7.95 0,2.471 -1.127,4.678 -2.895,6.136 0.082,0.248 0.171,0.522 0.266,0.816 l 8.554,-9.311 c -0.002,-0.024 -0.003,-0.049 -0.003,-0.074 0,-0.504 0.4,-0.914 0.9,-0.931 l 0.6,-2.277 h -0.612 v -0.6 h 1.932 v 0.6 h -0.769 l -0.635,2.413 c 0.13,0.079 0.239,0.189 0.316,0.32 l 2.881,0.62 C -6.633,0.887 -3.595,-1.5 0,-1.5 c 4.391,0 7.95,3.559 7.95,7.95 0,4.391 -3.559,7.95 -7.95,7.95"
         style="fill:#ffffff;fill-opacity:1;fill-rule:nonzero;stroke:none"
         transform="matrix(1.3333333,0,0,-1.3333333,287.39987,635.572)" />
      <path
         id="path354"
         d="m 0,0 h -1.718 v -6.534 h 1.611 c 1.397,0 1.855,1.692 1.855,3.499 C 1.748,-2.176 1.504,0 0,0 m -3.233,-8.084 v 9.6 H 0.23 c 2.423,0 3.072,-3.191 3.072,-4.584 0,-3.602 -1.851,-5.016 -3.066,-5.016 z"
         style="fill:#ffffff;fill-opacity:1;fill-rule:nonzero;stroke:none"
         transform="matrix(1.3333333,0,0,-1.3333333,211.91013,649.1928)" />
      <path
         id="path355"
         d="m 0,0 c 0,-0.708 0.203,-2.258 1.388,-2.258 1.186,0 1.355,1.585 1.355,2.292 0,0.674 -0.204,2.227 -1.355,2.227 V 2.258 C 0.203,2.258 0,0.708 0,0 m -1.558,0.034 c 0,1.55 0.508,3.642 2.946,3.642 2.405,0 2.913,-1.956 2.913,-3.642 0,-1.686 -0.508,-3.675 -2.913,-3.675 -2.438,0 -2.946,1.854 -2.946,3.675"
         style="fill:#ffffff;fill-opacity:1;fill-rule:nonzero;stroke:none"
         transform="matrix(1.3333333,0,0,-1.3333333,220.4384,655.2968)" />
      <path
         id="path356"
         d="M 0,0 -1.792,4.822 -3.549,0 h -1.692 l -1.961,7.013 h 1.623 l 1.252,-4.686 1.69,4.686 h 1.759 L 0.71,2.293 2.029,7.013 H 3.653 L 1.726,0 Z"
         style="fill:#ffffff;fill-opacity:1;fill-rule:nonzero;stroke:none"
         transform="matrix(1.3333333,0,0,-1.3333333,236.7996,659.97187)" />
      <path
         id="path357"
         d="m 0,0 c 0,0.907 -0.606,1.112 -1.416,1.112 -0.215,0 -1.181,-0.123 -1.181,-1.18 V -4.654 H -4.148 V 2.359 H -2.63 V 2.124 c 0.383,0.239 1.058,0.433 1.509,0.433 h 0.018 c 1.321,0 2.621,-0.851 2.621,-2.388 V -4.654 H 0 Z"
         style="fill:#ffffff;fill-opacity:1;fill-rule:nonzero;stroke:none"
         transform="matrix(1.3333333,0,0,-1.3333333,248.73747,653.7672)" />
      <path
         id="path358"
         d="M 0,0 V 3.911 H -1.02 V 5.327 H 0 V 7.35 L 1.496,8.092 V 5.327 H 2.72 V 3.944 H 1.496 V 0.236 c 0,-0.478 0.057,-0.674 0.51,-0.674 0.34,0 0.51,0.1 0.816,0.337 L 2.617,-1.517 C 2.012,-1.782 1.85,-1.825 1.328,-1.825 0.313,-1.825 0,-0.982 0,0"
         style="fill:#ffffff;fill-opacity:1;fill-rule:nonzero;stroke:none"
         transform="matrix(1.3333333,0,0,-1.3333333,253.40173,657.724)" />
      <path
         id="path359"
         d="m 0,0 c 0,-0.708 0.203,-2.258 1.388,-2.258 1.186,0 1.355,1.585 1.355,2.292 0,0.674 -0.204,2.227 -1.355,2.227 V 2.258 C 0.203,2.258 0,0.708 0,0 m -1.558,0.034 c 0,1.55 0.508,3.642 2.946,3.642 2.405,0 2.913,-1.956 2.913,-3.642 0,-1.686 -0.508,-3.675 -2.913,-3.675 -2.438,0 -2.946,1.854 -2.946,3.675"
         style="fill:#ffffff;fill-opacity:1;fill-rule:nonzero;stroke:none"
         transform="matrix(1.3333333,0,0,-1.3333333,260.13747,655.2968)" />
      <path
         id="path360"
         d="M 0,0 -1.792,4.822 -3.549,0 h -1.692 l -1.961,7.013 h 1.623 l 1.252,-4.686 1.69,4.686 h 1.759 L 0.71,2.293 2.029,7.013 H 3.653 L 1.725,0 Z"
         style="fill:#ffffff;fill-opacity:1;fill-rule:nonzero;stroke:none"
         transform="matrix(1.3333333,0,0,-1.3333333,276.4988,659.97187)" />
      <path
         id="path361"
         d="m 0,0 c 0,0.907 -0.606,1.112 -1.416,1.112 -0.215,0 -1.181,-0.123 -1.181,-1.18 V -4.654 H -4.148 V 2.359 H -2.63 V 2.124 c 0.383,0.239 1.058,0.433 1.509,0.433 h 0.018 c 1.321,0 2.621,-0.851 2.621,-2.388 V -4.654 H 0 Z"
         style="fill:#ffffff;fill-opacity:1;fill-rule:nonzero;stroke:none"
         transform="matrix(1.3333333,0,0,-1.3333333,288.43667,653.7672)" />
      <path
         id="path362"
         d="m 0,0 h 4.716 v -1.549 h -6.535 c 0.033,1.111 0.267,2.023 0.809,2.93 C 0.674,4.196 3.2,3.914 3.2,5.389 3.2,6.096 2.394,6.67 1.448,6.67 0.472,6.67 -0.136,6.198 -0.304,5.322 l -1.515,0.337 c 0.337,1.583 1.583,2.56 3.266,2.56 1.821,0 3.267,-1.281 3.267,-2.863 C 4.714,4.207 4.055,3.476 3.199,2.945 1.907,2.141 0.719,1.786 0,0"
         style="fill:#ffffff;fill-opacity:1;fill-rule:nonzero;stroke:none"
         transform="matrix(1.3333333,0,0,-1.3333333,326.1116,657.90627)" />
    </g>
  </g>
</svg>
