<?xml version="1.0" encoding="UTF-8" standalone="no"?>
<!-- Created with Inkscape (http://www.inkscape.org/) -->

<svg
   width="50.976036mm"
   height="10.336389mm"
   viewBox="0 0 50.976036 10.336389"
   version="1.1"
   id="svg1"
   inkscape:version="1.3 (0e150ed, 2023-07-21)"
   sodipodi:docname="MUTCD_D1-1c.svg"
   xmlns:inkscape="http://www.inkscape.org/namespaces/inkscape"
   xmlns:sodipodi="http://sodipodi.sourceforge.net/DTD/sodipodi-0.dtd"
   xmlns="http://www.w3.org/2000/svg"
   xmlns:svg="http://www.w3.org/2000/svg">
  <sodipodi:namedview
     id="namedview1"
     pagecolor="#ffffff"
     bordercolor="#666666"
     borderopacity="1.0"
     inkscape:showpageshadow="2"
     inkscape:pageopacity="0.0"
     inkscape:pagecheckerboard="0"
     inkscape:deskcolor="#d1d1d1"
     inkscape:document-units="mm"
     inkscape:zoom="0.2102413"
     inkscape:cx="95.128787"
     inkscape:cy="19.025757"
     inkscape:window-width="1440"
     inkscape:window-height="431"
     inkscape:window-x="0"
     inkscape:window-y="23"
     inkscape:window-maximized="0"
     inkscape:current-layer="layer1" />
  <defs
     id="defs1">
    <clipPath
       clipPathUnits="userSpaceOnUse"
       id="clipPath19">
      <path
         d="M 40.252,158.535 H 526.749 V 746 H 40.252 Z"
         transform="translate(-87.073,-606.24671)"
         id="path19" />
    </clipPath>
  </defs>
  <g
     inkscape:label="Layer 1"
     inkscape:groupmode="layer"
     id="layer1"
     transform="translate(-78.845834,-143.40417)">
    <g
       id="g17"
       transform="matrix(0.26458333,0,0,0.26458333,49.48682,88.166681)">
      <path
         id="path18"
         d="m 0,0 c -2.054,0 -3.725,1.671 -3.725,3.725 v 21.6 c 0,2.054 1.671,3.725 3.725,3.725 h 136.798 c 2.055,0 3.725,-1.671 3.725,-3.725 V 3.725 C 140.523,1.671 138.853,0 136.798,0 Z"
         style="fill:#ffffff;fill-opacity:1;fill-rule:nonzero;stroke:none"
         transform="matrix(1.3333333,0,0,-1.3333333,116.09733,247.67107)"
         clip-path="url(#clipPath19)" />
    </g>
    <g
       id="g19"
       transform="matrix(0.26458333,0,0,0.26458333,49.48682,88.166681)">
      <path
         id="path20"
         d="m 0,0 h -136.799 c -2.123,0 -3.85,-1.727 -3.85,-3.85 v -21.6 c 0,-2.123 1.727,-3.85 3.85,-3.85 L 0,-29.3 c 2.123,0 3.85,1.727 3.85,3.85 v 21.6 C 3.85,-1.727 2.123,0 0,0 m 0,-0.25 c 1.988,0 3.6,-1.612 3.6,-3.6 v -21.6 c 0,-1.988 -1.612,-3.6 -3.6,-3.6 h -136.799 c -1.988,0 -3.6,1.612 -3.6,3.6 v 21.6 c 0,1.988 1.612,3.6 3.6,3.6 z"
         style="fill:#000000;fill-opacity:1;fill-rule:nonzero;stroke:none"
         transform="matrix(1.3333333,0,0,-1.3333333,298.4952,208.7716)" />
    </g>
    <g
       id="g20"
       transform="matrix(0.26458333,0,0,0.26458333,49.48682,88.166681)">
      <path
         id="path21"
         d="m 0,0 c -0.994,0 -1.8,0.806 -1.8,1.8 v 21.6 c 0,0.994 0.806,1.8 1.8,1.8 h 136.799 c 0.994,0 1.8,-0.806 1.8,-1.8 V 1.8 c 0,-0.994 -0.806,-1.8 -1.8,-1.8 z"
         style="fill:#006f53;fill-opacity:1;fill-rule:nonzero;stroke:none"
         transform="matrix(1.3333333,0,0,-1.3333333,116.09707,245.10453)" />
      <path
         id="path22"
         d="m 0,0 c -1.725,0 -3.186,1.129 -3.686,2.687 l 3.441,0.741 C -0.173,3.388 -0.089,3.365 0,3.365 c 0.279,0 0.505,0.226 0.505,0.505 0,0.243 -0.172,0.447 -0.401,0.494 L -2.012,7.176 C -1.426,7.534 -0.737,7.74 0,7.74 2.137,7.74 3.87,6.007 3.87,3.87 3.87,1.733 2.137,0 0,0 m -3.87,3.87 c 0,1.127 0.482,2.142 1.251,2.849 L -0.661,4.116 -3.845,3.431 C -3.861,3.575 -3.87,3.721 -3.87,3.87 M -4.729,3.24 -6.242,2.914 -4.485,9.199 -3.162,7.441 C -4.148,6.567 -4.77,5.291 -4.77,3.87 c 0,-0.214 0.014,-0.424 0.041,-0.63 m -2.155,0.202 -0.235,0.893 h 0.367 v 0.36 h -1.159 v -0.36 h 0.461 l 0.233,-0.886 -4.986,5.427 c 0.081,0.259 0.164,0.525 0.246,0.79 h 6.813 z M -11.79,3.87 c 0,-2.137 -1.733,-3.87 -3.87,-3.87 -2.137,0 -3.87,1.733 -3.87,3.87 0,2.137 1.733,3.87 3.87,3.87 0.76,0 1.468,-0.219 2.066,-0.597 -0.475,-1.031 -1.402,-2.142 -2.07,-2.768 -0.277,-0.002 -0.501,-0.227 -0.501,-0.505 0,-0.279 0.226,-0.505 0.505,-0.505 0.258,0 0.471,0.193 0.501,0.443 0.327,0.306 0.754,0.756 1.175,1.296 0.314,0.401 0.705,0.956 1.004,1.558 0.733,-0.704 1.19,-1.695 1.19,-2.792 M 0,8.64 c -0.94,0 -1.817,-0.272 -2.555,-0.742 l -1.672,2.223 0.219,0.784 c 1.048,0.091 1.628,0.489 1.592,0.874 -0.034,0.374 -1.074,0.094 -2.23,0.079 -0.318,-0.004 -2,0.004 -1.991,-0.305 0.01,-0.316 1.086,-0.574 1.84,-0.646 l -0.134,-0.481 h -6.792 c 0.145,0.472 0.277,0.908 0.379,1.246 0.088,0.289 0.153,0.506 0.186,0.614 l -0.494,0.378 0.233,0.236 H -9.6 v 0.6 h -2.07 l -0.888,-0.899 0.57,-0.436 c -0.264,-0.873 -0.887,-2.925 -1.29,-4.161 -0.701,0.404 -1.514,0.636 -2.382,0.636 -2.634,0 -4.77,-2.136 -4.77,-4.77 0,-2.634 2.136,-4.77 4.77,-4.77 2.635,0 4.77,2.136 4.77,4.77 0,1.482 -0.676,2.807 -1.737,3.682 0.049,0.148 0.103,0.313 0.16,0.489 L -7.335,2.455 C -7.336,2.44 -7.337,2.425 -7.337,2.41 c 0,-0.302 0.241,-0.548 0.541,-0.558 l 0.359,-1.367 h -0.367 v -0.36 h 1.159 v 0.36 h -0.461 l -0.381,1.448 c 0.078,0.048 0.143,0.114 0.19,0.192 l 1.728,0.372 C -3.98,0.532 -2.157,-0.9 0,-0.9 2.634,-0.9 4.77,1.236 4.77,3.87 4.77,6.504 2.634,8.64 0,8.64"
         style="fill:#ffffff;fill-opacity:1;fill-rule:nonzero;stroke:none"
         transform="matrix(1.3333333,0,0,-1.3333333,153.52387,236.70467)" />
    </g>
    <g
       id="g22"
       transform="matrix(0.26458333,0,0,0.26458333,49.48682,88.166681)">
      <path
         id="path23"
         d="m 0,0 c -0.943,0 -1.718,-0.64 -1.718,-1.381 0,-0.775 0.775,-1.415 1.718,-1.415 0.943,0 1.752,0.64 1.752,1.415 C 1.752,-0.64 0.977,0 0,0 m 0,-4.345 c -1.853,0 -3.268,1.347 -3.268,3.065 0,2.661 1.483,5.389 3.706,6.872 L 1.213,4.312 C 0.034,3.402 -0.573,2.627 -1.145,1.415 -0.606,1.516 -0.371,1.516 0,1.516 c 1.785,0 3.268,-1.314 3.268,-2.931 0,-1.65 -1.415,-2.93 -3.268,-2.93"
         style="fill:#ffffff;fill-opacity:1;fill-rule:nonzero;stroke:none"
         transform="matrix(1.3333333,0,0,-1.3333333,251.9516,229.13573)" />
    </g>
    <g
       id="g23"
       transform="matrix(0.26458333,0,0,0.26458333,49.48682,88.166681)">
      <path
         id="path24"
         d="m 0,0 1.448,0.539 c 0.405,-0.91 1.145,-1.415 2.055,-1.415 0.876,0 1.483,0.606 1.483,1.415 0,1.284 -1.482,1.482 -2.729,1.987 -0.572,0.236 -1.853,0.809 -1.853,2.392 0,1.887 1.28,2.592 2.998,2.592 1.348,0 2.257,-0.776 2.729,-1.954 L 4.783,5.152 C 4.632,5.531 4.084,5.994 3.368,5.994 1.999,5.994 1.883,5.263 1.883,5.023 1.883,4.126 2.657,3.948 3.916,3.553 5.197,3.15 6.535,2.561 6.535,0.503 6.535,-1.57 4.855,-2.425 3.503,-2.425 1.852,-2.425 0.64,-1.448 0,0"
         style="fill:#ffffff;fill-opacity:1;fill-rule:nonzero;stroke:none"
         transform="matrix(1.3333333,0,0,-1.3333333,172.68253,231.69813)" />
      <path
         id="path25"
         d="M 0,0 V 3.911 H -1.02 V 5.327 H 0 V 7.35 L 1.496,8.091 V 5.327 H 2.72 V 3.944 H 1.496 V 0.236 c 0,-0.478 0.057,-0.674 0.51,-0.674 0.34,0 0.51,0.1 0.816,0.337 L 2.617,-1.517 C 2.012,-1.782 1.85,-1.825 1.328,-1.825 0.313,-1.825 0,-0.982 0,0"
         style="fill:#ffffff;fill-opacity:1;fill-rule:nonzero;stroke:none"
         transform="matrix(1.3333333,0,0,-1.3333333,183.52453,232.4596)" />
      <path
         id="path26"
         d="M 0,0 C 0.49,0 0.991,0.176 1.246,0.311 V 1.93 C 0.955,2.068 0.433,2.227 -0.059,2.227 -0.644,2.227 -1.174,1.997 -1.174,1.222 -1.174,0.268 -0.604,0 0,0 m -0.049,4.543 c -0.709,0 -1.351,-0.39 -1.728,-0.894 l -0.437,1.485 c 0.63,0.493 1.406,0.801 2.396,0.801 1.359,0 2.608,-0.829 2.608,-2.487 V -1.24 H 1.313 v 0.203 c -0.235,-0.203 -0.84,-0.302 -1.378,-0.302 -1.411,0 -2.619,0.905 -2.619,2.595 0,1.383 1.17,2.286 2.737,2.286 0.332,0 0.852,-0.105 1.159,-0.23 0,0.367 -0.157,1.231 -1.261,1.231"
         style="fill:#ffffff;fill-opacity:1;fill-rule:nonzero;stroke:none"
         transform="matrix(1.3333333,0,0,-1.3333333,191.63507,233.05493)" />
      <path
         id="path27"
         d="m 0,0 c 0.54,0 0.91,0.101 1.28,0.473 v 3.54 C 0.876,4.451 0.535,4.52 0.101,4.52 -1.056,4.52 -1.381,3.305 -1.381,2.293 -1.381,1.313 -1.049,0 0,0 m -0.265,5.95 c 0.593,0 1.249,-0.173 1.579,-0.419 V 7.789 L 2.831,8.531 V -1.247 H 1.314 v 0.203 c -0.472,-0.27 -0.809,-0.372 -1.348,-0.372 -2.127,0 -2.898,1.72 -2.898,3.709 0,1.834 0.598,3.657 2.667,3.657"
         style="fill:#ffffff;fill-opacity:1;fill-rule:nonzero;stroke:none"
         transform="matrix(1.3333333,0,0,-1.3333333,201.184,233.04533)" />
      <path
         id="path28"
         d="m 155.639,622.982 h 1.536 v -7.013 h -1.536 z m -0.041,1.956 c 0,0.441 0.369,0.803 0.809,0.809 0.44,0 0.809,-0.368 0.809,-0.809 0,-0.438 -0.37,-0.775 -0.809,-0.775 -0.438,0 -0.809,0.337 -0.809,0.775"
         style="fill:#ffffff;fill-opacity:1;fill-rule:nonzero;stroke:none"
         transform="matrix(1.3333333,0,0,-1.3333333,0,1056)" />
      <path
         id="path29"
         d="m 0,0 c -0.431,-0.251 -1.184,-0.457 -1.682,-0.457 -1.34,0 -2.492,0.903 -2.492,2.412 v 4.821 h 1.527 V 2.124 c 0,-0.9 0.617,-1.112 1.425,-1.112 0.614,0 1.188,0.302 1.188,1.112 V 6.776 H 1.493 V -0.236 H 0 Z"
         style="fill:#ffffff;fill-opacity:1;fill-rule:nonzero;stroke:none"
         transform="matrix(1.3333333,0,0,-1.3333333,217.56387,234.3924)" />
      <path
         id="path30"
         d="M 0,0 C 0,0.925 -0.474,1.214 -1.283,1.214 -1.89,1.214 -2.395,0.821 -2.395,0 V -4.552 H -4.014 V 0 c 0,0.911 -0.474,1.216 -1.316,1.216 -0.607,0 -1.079,-0.406 -1.079,-1.215 v -4.553 h -1.585 v 7.013 h 1.551 V 2.158 c 0.438,0.336 0.983,0.5 1.529,0.5 0.715,0 1.434,-0.283 1.912,-0.838 0.423,0.558 1.125,0.828 1.851,0.828 1.291,0 2.668,-0.847 2.668,-2.446 V -4.552 H 0 Z"
         style="fill:#ffffff;fill-opacity:1;fill-rule:nonzero;stroke:none"
         transform="matrix(1.3333333,0,0,-1.3333333,232.77387,228.63893)" />
    </g>
    <g
       id="g30"
       transform="matrix(0.26458333,0,0,0.26458333,49.48682,88.166681)">
      <path
         id="path31"
         d="m 210.061,618.972 h -8.23 v 3.6 h 8.23 z"
         style="fill:#ffffff;fill-opacity:1;fill-rule:nonzero;stroke:none"
         transform="matrix(1.3333333,0,0,-1.3333333,0,1056)" />
      <path
         id="path32"
         d="m 0,0 c -0.331,0 -0.6,-0.269 -0.6,-0.6 0,-0.072 0.013,-0.14 0.036,-0.204 L 0.9,-4.8 -0.564,-8.796 C -0.587,-8.859 -0.6,-8.928 -0.6,-9 c 0,-0.331 0.269,-0.6 0.6,-0.6 0.124,0 0.239,0.038 0.335,0.102 L 7.2,-4.8 0.335,-0.102 C 0.239,-0.038 0.124,0 0,0"
         style="fill:#ffffff;fill-opacity:1;fill-rule:nonzero;stroke:none"
         transform="matrix(1.3333333,0,0,-1.3333333,278.70827,221.9048)" />
    </g>
  </g>
</svg>
