<?xml version="1.0" encoding="UTF-8" standalone="no"?>
<!-- Created with Inkscape (http://www.inkscape.org/) -->

<svg
   width="41.451035mm"
   height="41.451035mm"
   viewBox="0 0 41.451035 41.451035"
   version="1.1"
   id="svg1"
   inkscape:version="1.3 (0e150ed, 2023-07-21)"
   sodipodi:docname="MUTCD_D17-4.svg"
   xmlns:inkscape="http://www.inkscape.org/namespaces/inkscape"
   xmlns:sodipodi="http://sodipodi.sourceforge.net/DTD/sodipodi-0.dtd"
   xmlns="http://www.w3.org/2000/svg"
   xmlns:svg="http://www.w3.org/2000/svg">
  <sodipodi:namedview
     id="namedview1"
     pagecolor="#ffffff"
     bordercolor="#666666"
     borderopacity="1.0"
     inkscape:showpageshadow="2"
     inkscape:pageopacity="0.0"
     inkscape:pagecheckerboard="0"
     inkscape:deskcolor="#d1d1d1"
     inkscape:document-units="mm"
     inkscape:zoom="1"
     inkscape:cx="78.5"
     inkscape:cy="77"
     inkscape:window-width="1440"
     inkscape:window-height="431"
     inkscape:window-x="0"
     inkscape:window-y="23"
     inkscape:window-maximized="0"
     inkscape:current-layer="layer1" />
  <defs
     id="defs1">
    <clipPath
       clipPathUnits="userSpaceOnUse"
       id="clipPath151">
      <path
         d="m 67.25,184.126 h 504.5 V 363.401 H 67.25 Z"
         transform="translate(-460.76931,-202.99051)"
         id="path151" />
    </clipPath>
  </defs>
  <g
     inkscape:label="Layer 1"
     inkscape:groupmode="layer"
     id="layer1"
     transform="translate(-84.40208,-127.79374)">
    <g
       id="g149"
       transform="matrix(0.26458333,0,0,0.26458333,-75.847647,-38.58892)">
      <path
         id="path150"
         d="m 0,0 c -3.524,0 -6.393,2.868 -6.393,6.393 v 104.463 c 0,3.525 2.869,6.393 6.393,6.393 h 104.463 c 3.524,0 6.392,-2.868 6.392,-6.393 V 6.393 C 110.855,2.868 107.987,0 104.463,0 Z"
         style="fill:#ffffff;fill-opacity:1;fill-rule:nonzero;stroke:none"
         transform="matrix(1.3333333,0,0,-1.3333333,614.35907,785.346)"
         clip-path="url(#clipPath151)" />
    </g>
    <g
       id="g151"
       transform="matrix(0.26458333,0,0,0.26458333,-75.847647,-38.58892)">
      <path
         id="path152"
         d="m 0,0 h -104.463 c -3.594,0 -6.518,-2.924 -6.518,-6.518 v -104.463 c 0,-3.594 2.924,-6.518 6.518,-6.518 H 0 c 3.594,0 6.518,2.924 6.518,6.518 V -6.518 C 6.518,-2.924 3.594,0 0,0 m 0,-0.25 c 3.462,0 6.268,-2.806 6.268,-6.268 v -104.463 c 0,-3.461 -2.806,-6.268 -6.268,-6.268 h -104.463 c -3.462,0 -6.268,2.807 -6.268,6.268 V -6.518 c 0,3.462 2.806,6.268 6.268,6.268 z"
         style="fill:#000000;fill-opacity:1;fill-rule:nonzero;stroke:none"
         transform="matrix(1.3333333,0,0,-1.3333333,753.64293,628.84787)" />
    </g>
    <g
       id="g152"
       transform="matrix(0.26458333,0,0,0.26458333,-75.847647,-38.58892)">
      <path
         id="path153"
         d="m 0,0 c -2.112,0 -3.83,1.718 -3.83,3.83 v 104.463 c 0,2.112 1.718,3.831 3.83,3.831 h 104.463 c 2.112,0 3.83,-1.719 3.83,-3.831 V 3.83 c 0,-2.112 -1.718,-3.83 -3.83,-3.83 z"
         style="fill:#006f51;fill-opacity:1;fill-rule:nonzero;stroke:none"
         transform="matrix(1.3333333,0,0,-1.3333333,614.35893,781.92933)" />
    </g>
    <g
       id="g153"
       transform="matrix(0.26458333,0,0,0.26458333,-75.847647,-38.58892)">
      <path
         id="path154"
         d="m 0,0 -14.475,-25.071 h 3.088 L 3.088,0 Z"
         style="fill:#ffffff;fill-opacity:1;fill-rule:nonzero;stroke:none"
         transform="matrix(1.3333333,0,0,-1.3333333,645.79307,731.3228)" />
    </g>
    <g
       id="g154"
       transform="matrix(0.26458333,0,0,0.26458333,-75.847647,-38.58892)">
      <path
         id="path155"
         d="m 0,0 h 2.637 v -14.251 h 7.73 v -2.463 H 0 Z"
         style="fill:#ffffff;fill-opacity:1;fill-rule:nonzero;stroke:none"
         transform="matrix(1.3333333,0,0,-1.3333333,648.10213,696.03747)" />
      <path
         id="path156"
         d="M 0,0 H 3.362 L 1.709,4.69 Z M 4.304,-2.697 H -0.944 L -2.597,-7.39 H -5.428 L 0.353,9.324 H 3.008 L 8.787,-7.39 H 5.956 Z"
         style="fill:#ffffff;fill-opacity:1;fill-rule:nonzero;stroke:none"
         transform="matrix(1.3333333,0,0,-1.3333333,670.49933,708.46987)" />
      <path
         id="path157"
         d="M 0,0 V -11.318 H -2.637 V 5.397 H 0 L 6.101,-5.277 V 5.397 h 2.64 V -11.318 H 6.395 Z"
         style="fill:#ffffff;fill-opacity:1;fill-rule:nonzero;stroke:none"
         transform="matrix(1.3333333,0,0,-1.3333333,689.0752,703.2328)" />
      <path
         id="path158"
         d="M 0,0 H 9.84 V -2.639 H 2.637 V -6.744 H 7.498 V -9.441 H 2.637 v -4.576 h 7.73 v -2.697 H 0 Z"
         style="fill:#ffffff;fill-opacity:1;fill-rule:nonzero;stroke:none"
         transform="matrix(1.3333333,0,0,-1.3333333,706.07973,696.03747)" />
    </g>
    <g
       id="g158"
       transform="matrix(0.26458333,0,0,0.26458333,-75.847647,-38.58892)">
      <path
         id="path159"
         d="M 0,0 -3.875,-9.677 -7.755,0 V -9.677 H -10.4 V 7.037 h 2.645 L -3.875,-2.346 0,7.037 H 2.645 V -9.677 H 0 Z"
         style="fill:#ffffff;fill-opacity:1;fill-rule:nonzero;stroke:none"
         transform="matrix(1.3333333,0,0,-1.3333333,697.18773,746.276)" />
      <path
         id="path160"
         d="m 529.548,239.33 h 2.674 v -16.714 h -2.674 z"
         style="fill:#ffffff;fill-opacity:1;fill-rule:nonzero;stroke:none"
         transform="matrix(1.3333333,0,0,-1.3333333,0,1056)" />
      <path
         id="path161"
         d="m 0,0 h 2.637 v -14.251 h 7.73 v -2.463 H 0 Z"
         style="fill:#ffffff;fill-opacity:1;fill-rule:nonzero;stroke:none"
         transform="matrix(1.3333333,0,0,-1.3333333,714.97787,736.894)" />
      <path
         id="path162"
         d="M 0,0 H 9.84 V -2.639 H 2.637 V -6.744 H 7.498 V -9.441 H 2.637 v -4.576 h 7.73 v -2.697 H 0 Z"
         style="fill:#ffffff;fill-opacity:1;fill-rule:nonzero;stroke:none"
         transform="matrix(1.3333333,0,0,-1.3333333,732.14333,736.894)" />
    </g>
    <g
       id="g162"
       transform="matrix(0.26458333,0,0,0.26458333,-75.847647,-38.58892)">
      <path
         id="path163"
         d="m 0,0 h -1.508 v 2.112 h 0.173 c 0.696,0 1.452,0.41 1.916,1.055 H 2.67 V -13.547 H 0 Z"
         style="fill:#ffffff;fill-opacity:1;fill-rule:nonzero;stroke:none"
         transform="matrix(1.3333333,0,0,-1.3333333,624.04773,735.546)" />
    </g>
    <g
       id="g163"
       transform="matrix(0.26458333,0,0,0.26458333,-75.847647,-38.58892)">
      <path
         id="path164"
         d="M 0,0 H 8.211 V -2.697 H -3.167 c 0.058,1.934 0.466,3.522 1.408,5.102 2.933,4.901 7.331,4.41 7.331,6.978 0,1.23 -1.404,2.229 -3.05,2.229 -1.701,0 -2.758,-0.821 -3.051,-2.346 l -2.638,0.587 c 0.587,2.756 2.755,4.456 5.687,4.456 3.169,0 5.687,-2.229 5.687,-4.985 C 8.207,7.325 7.06,6.053 5.57,5.127 3.32,3.727 1.251,3.109 0,0"
         style="fill:#ffffff;fill-opacity:1;fill-rule:nonzero;stroke:none"
         transform="matrix(1.3333333,0,0,-1.3333333,650.08827,761.15467)" />
    </g>
    <g
       id="g164"
       transform="matrix(0.26458333,0,0,0.26458333,-75.847647,-38.58892)">
      <path
         id="path165"
         d="m 0,0 h 3.721 c 2.097,0 2.321,1.513 2.321,2.052 0,0.783 -0.589,2.053 -2.231,2.053 H 0 Z M 3.113,-2.697 H 0 V -9.97 H -2.637 V 6.744 h 6.318 c 3.932,0 5.06,-3.196 5.06,-4.692 0,-1.039 -0.57,-4.749 -5.628,-4.749"
         style="fill:#ffffff;fill-opacity:1;fill-rule:nonzero;stroke:none"
         transform="matrix(1.3333333,0,0,-1.3333333,628.63453,664.17307)" />
      <path
         id="path166"
         d="M 0,0 H 3.361 L 1.709,4.69 Z M 4.304,-2.697 H -0.944 L -2.597,-7.39 H -5.428 L 0.353,9.324 H 3.008 L 8.787,-7.39 H 5.956 Z"
         style="fill:#ffffff;fill-opacity:1;fill-rule:nonzero;stroke:none"
         transform="matrix(1.3333333,0,0,-1.3333333,648.86373,667.61333)" />
      <path
         id="path167"
         d="m 0,0 2.52,0.936 c 0.704,-1.582 1.997,-2.459 3.578,-2.459 1.523,0 2.584,1.053 2.584,2.459 0,2.233 -2.584,2.576 -4.75,3.456 C 2.935,4.801 0.71,5.798 0.71,8.549 c 0,3.282 2.225,4.511 5.213,4.511 2.342,0 3.923,-1.348 4.744,-3.397 L 8.323,8.961 C 7.937,9.715 7.126,10.425 5.722,10.425 3.7,10.425 3.28,9.322 3.28,8.737 3.28,7.177 4.627,6.867 6.815,6.18 9.042,5.48 11.377,4.454 11.377,0.878 11.375,-2.729 8.448,-4.216 6.098,-4.216 3.228,-4.216 1.113,-2.52 0,0"
         style="fill:#ffffff;fill-opacity:1;fill-rule:nonzero;stroke:none"
         transform="matrix(1.3333333,0,0,-1.3333333,662.36347,672.2376)" />
      <path
         id="path168"
         d="m 0,0 2.52,0.936 c 0.704,-1.582 1.997,-2.459 3.578,-2.459 1.523,0 2.584,1.053 2.584,2.459 0,2.233 -2.584,2.576 -4.75,3.456 C 2.935,4.801 0.71,5.798 0.71,8.549 c 0,3.282 2.225,4.511 5.213,4.511 2.342,0 3.923,-1.348 4.744,-3.397 L 8.323,8.961 C 7.937,9.715 7.126,10.425 5.722,10.425 3.7,10.425 3.28,9.322 3.28,8.737 3.28,7.177 4.627,6.867 6.815,6.18 9.042,5.48 11.377,4.454 11.377,0.878 11.375,-2.729 8.448,-4.216 6.098,-4.216 3.228,-4.216 1.114,-2.52 0,0"
         style="fill:#ffffff;fill-opacity:1;fill-rule:nonzero;stroke:none"
         transform="matrix(1.3333333,0,0,-1.3333333,679.7628,672.2376)" />
      <path
         id="path169"
         d="m 524.042,300.615 h 2.674 v -16.714 h -2.674 z"
         style="fill:#ffffff;fill-opacity:1;fill-rule:nonzero;stroke:none"
         transform="matrix(1.3333333,0,0,-1.3333333,0,1056)" />
      <path
         id="path170"
         d="M 0,0 V -11.317 H -2.636 V 5.397 H 0 L 6.1,-5.277 V 5.397 H 8.741 V -11.317 H 6.395 Z"
         style="fill:#ffffff;fill-opacity:1;fill-rule:nonzero;stroke:none"
         transform="matrix(1.3333333,0,0,-1.3333333,711.1512,662.37627)" />
      <path
         id="path171"
         d="M 0,0 C 2.678,0 4.187,-1.015 5.319,-3.694 L 2.797,-4.688 c -0.704,1.466 -1.406,1.993 -2.697,1.993 -3.672,0 -3.461,-5.591 -3.461,-5.982 0,-0.628 -0.142,-5.923 3.108,-5.923 1.701,0 2.933,1.055 2.933,2.581 v 0.702 h -3.05 v 2.64 h 5.687 v -3.342 c 0,-3.049 -2.227,-5.278 -5.279,-5.278 -0.606,0 -6.097,-0.499 -6.097,8.65 C -6.059,-7.367 -5.987,0 0,0"
         style="fill:#ffffff;fill-opacity:1;fill-rule:nonzero;stroke:none"
         transform="matrix(1.3333333,0,0,-1.3333333,735.78733,654.79373)" />
    </g>
  </g>
</svg>
