<?xml version="1.0" encoding="UTF-8" standalone="no"?>
<!-- Created with Inkscape (http://www.inkscape.org/) -->

<svg
   width="24.385763mm"
   height="8.1301165mm"
   viewBox="0 0 24.385763 8.1301165"
   version="1.1"
   id="svg1"
   inkscape:version="1.3 (0e150ed, 2023-07-21)"
   sodipodi:docname="MUTCD_I2-3a_(numbered_and_named).svg"
   xmlns:inkscape="http://www.inkscape.org/namespaces/inkscape"
   xmlns:sodipodi="http://sodipodi.sourceforge.net/DTD/sodipodi-0.dtd"
   xmlns="http://www.w3.org/2000/svg"
   xmlns:svg="http://www.w3.org/2000/svg">
  <sodipodi:namedview
     id="namedview1"
     pagecolor="#ffffff"
     bordercolor="#666666"
     borderopacity="1.0"
     inkscape:showpageshadow="2"
     inkscape:pageopacity="0.0"
     inkscape:pagecheckerboard="0"
     inkscape:deskcolor="#d1d1d1"
     inkscape:document-units="mm"
     inkscape:zoom="1"
     inkscape:cx="47"
     inkscape:cy="14"
     inkscape:window-width="1440"
     inkscape:window-height="431"
     inkscape:window-x="0"
     inkscape:window-y="23"
     inkscape:window-maximized="0"
     inkscape:current-layer="layer1" />
  <defs
     id="defs1" />
  <g
     inkscape:label="Layer 1"
     inkscape:groupmode="layer"
     id="layer1"
     transform="translate(-92.339579,-144.4625)">
    <g
       id="g562"
       transform="matrix(0.26458333,0,0,0.26458333,-41.709307,77.766863)">
      <path
         id="path563"
         d="m 0,0 c -1.192,0 -2.162,0.969 -2.162,2.161 v 18.72 c 0,1.192 0.97,2.161 2.162,2.161 h 64.798 c 1.192,0 2.162,-0.969 2.162,-2.161 V 2.161 C 66.96,0.969 65.99,0 64.798,0 Z"
         style="fill:#ffffff;fill-opacity:1;fill-rule:nonzero;stroke:none"
         transform="matrix(1.3333333,0,0,-1.3333333,509.5268,282.80333)" />
    </g>
    <g
       id="g563"
       transform="matrix(0.26458333,0,0,0.26458333,-41.709307,77.766863)">
      <path
         id="path564"
         d="m 0,0 h -64.798 c -1.193,0 -2.164,-0.97 -2.164,-2.163 v -18.72 c 0,-1.193 0.971,-2.163 2.164,-2.163 H 0 c 1.193,0 2.163,0.97 2.163,2.163 v 18.72 C 2.163,-0.97 1.193,0 0,0 m 0,-0.003 c 1.193,0 2.16,-0.967 2.16,-2.16 v -18.72 c 0,-1.193 -0.967,-2.16 -2.16,-2.16 h -64.798 c -1.193,0 -2.16,0.967 -2.16,2.16 v 18.72 c 0,1.193 0.967,2.16 2.16,2.16 z"
         style="fill:#000000;fill-opacity:1;fill-rule:nonzero;stroke:none"
         transform="matrix(1.3333333,0,0,-1.3333333,595.92413,252.078)" />
    </g>
    <g
       id="g564"
       transform="matrix(0.26458333,0,0,0.26458333,-41.709307,77.766863)">
      <path
         id="path565"
         d="m 0,0 h -64.798 c -0.796,0 -1.44,0.645 -1.44,1.44 v 18.719 c 0,0.796 0.644,1.44 1.44,1.44 H 0 c 0.795,0 1.44,-0.644 1.44,-1.44 V 1.44 C 1.44,0.645 0.795,0 0,0"
         style="fill:#006f51;fill-opacity:1;fill-rule:nonzero;stroke:none"
         transform="matrix(1.3333333,0,0,-1.3333333,595.92413,281.84173)" />
      <path
         id="path566"
         d="M 0,0 V 4.315 H 1.06 V 0 c 0,-0.873 0.496,-1.438 1.226,-1.438 0.731,0 1.227,0.565 1.227,1.438 V 4.315 H 4.575 V 0 C 4.575,-2.125 2.944,-2.522 2.287,-2.522 1.689,-2.522 0,-2.17 0,0"
         style="fill:#ffffff;fill-opacity:1;fill-rule:nonzero;stroke:none"
         transform="matrix(1.3333333,0,0,-1.3333333,534.25533,261.99573)" />
      <path
         id="path567"
         d="m 0,0 1.014,0.377 c 0.283,-0.637 0.801,-0.99 1.438,-0.99 0.613,0 1.038,0.424 1.038,0.99 0,0.899 -1.037,1.037 -1.91,1.391 -0.401,0.166 -1.297,0.566 -1.297,1.674 0,1.321 0.895,1.815 2.098,1.815 0.944,0 1.58,-0.543 1.91,-1.368 L 3.348,3.606 c -0.106,0.265 -0.49,0.59 -0.99,0.59 -0.959,0 -1.04,-0.512 -1.04,-0.68 0,-0.628 0.542,-0.753 1.423,-1.029 0.897,-0.282 1.833,-0.695 1.833,-2.135 0,-1.451 -1.175,-2.05 -2.122,-2.05 C 1.296,-1.698 0.448,-1.014 0,0"
         style="fill:#ffffff;fill-opacity:1;fill-rule:nonzero;stroke:none"
         transform="matrix(1.3333333,0,0,-1.3333333,541.87827,263.09533)" />
      <path
         id="path568"
         d="m 0,0 v 1.061 h 0.261 c 0.427,0 0.664,0.236 0.664,0.66 0,0.523 -0.424,0.896 -0.972,0.896 -0.45,0 -0.782,-0.212 -1.019,-0.66 l -0.995,0.377 c 0.354,0.85 1.113,1.367 1.99,1.367 1.138,0 2.063,-0.916 2.063,-2.051 0,-0.401 -0.095,-0.684 -0.38,-1.108 0.497,-0.448 0.64,-0.801 0.64,-1.463 0,-1.367 -0.942,-2.333 -2.323,-2.333 -1.09,0 -1.967,0.708 -2.252,1.792 l 1.044,0.307 c 0.166,-0.66 0.615,-1.014 1.255,-1.014 0.711,0 1.209,0.499 1.209,1.179 C 1.185,-0.713 1.071,0 0.299,0 Z"
         style="fill:#ffffff;fill-opacity:1;fill-rule:nonzero;stroke:none"
         transform="matrix(1.3333333,0,0,-1.3333333,560.034,261.02133)" />
      <path
         id="path569"
         d="M 0,0 C 0.724,0 1.312,0.686 1.312,2.394 1.312,4.102 0.724,4.788 0,4.788 -0.724,4.788 -1.312,4.102 -1.312,2.394 -1.312,0.686 -0.724,0 0,0 m 2.375,2.394 c 0,-0.241 0.052,-3.478 -2.387,-3.478 -2.438,0 -2.387,3.237 -2.387,3.478 0,0.241 -0.051,3.477 2.387,3.477 2.439,0 2.387,-3.236 2.387,-3.477"
         style="fill:#ffffff;fill-opacity:1;fill-rule:nonzero;stroke:none"
         transform="matrix(1.3333333,0,0,-1.3333333,568.02773,263.914)" />
    </g>
    <g
       id="g569"
       transform="matrix(0.26458333,0,0,0.26458333,-41.709307,77.766863)">
      <path
         id="path570"
         d="M 0,0 H 1.06 V -5.729 H 4.168 V -6.72 H 0 Z"
         style="fill:#ffffff;fill-opacity:1;fill-rule:nonzero;stroke:none"
         transform="matrix(1.3333333,0,0,-1.3333333,516.9152,269.682)" />
      <path
         id="path571"
         d="m 392.728,587.927 h 1.075 v -4.909 h -1.075 z m -0.028,1.37 c 0,0.308 0.258,0.562 0.566,0.566 0.308,0 0.566,-0.258 0.566,-0.566 0,-0.307 -0.259,-0.543 -0.566,-0.543 -0.307,0 -0.566,0.236 -0.566,0.543"
         style="fill:#ffffff;fill-opacity:1;fill-rule:nonzero;stroke:none"
         transform="matrix(1.3333333,0,0,-1.3333333,0,1056)" />
      <path
         id="path572"
         d="m 0,0 c 0,0.635 -0.424,0.779 -0.991,0.779 -0.151,0 -0.827,-0.087 -0.827,-0.827 v -3.209 h -1.086 v 4.908 h 1.063 V 1.487 C -1.573,1.654 -1.1,1.79 -0.785,1.79 h 0.013 c 0.925,0 1.835,-0.596 1.835,-1.672 V -3.257 H 0 Z"
         style="fill:#ffffff;fill-opacity:1;fill-rule:nonzero;stroke:none"
         transform="matrix(1.3333333,0,0,-1.3333333,530.7348,274.29853)" />
      <path
         id="path573"
         d="m 0,0 c 0,1.104 0.353,2.549 2.042,2.549 1.056,0 1.619,-0.519 1.854,-1.227 L 2.816,0.944 C 2.7,1.346 2.464,1.558 2.042,1.558 1.223,1.558 1.08,0.496 1.08,0 c 0,-0.496 0.14,-1.581 0.962,-1.581 0.538,0 0.774,0.425 0.845,0.921 L 3.966,-0.944 C 3.778,-1.818 3.262,-2.572 2.042,-2.572 0.359,-2.572 0,-1.27 0,0"
         style="fill:#ffffff;fill-opacity:1;fill-rule:nonzero;stroke:none"
         transform="matrix(1.3333333,0,0,-1.3333333,533.496,275.338)" />
      <path
         id="path574"
         d="m 0,0 c 0,-0.496 0.142,-1.581 0.972,-1.581 0.83,0 0.948,1.11 0.948,1.604 0,0.473 -0.143,1.56 -0.948,1.56 V 1.581 C 0.142,1.581 0,0.496 0,0 m -1.09,0.023 c 0,1.086 0.355,2.55 2.062,2.55 1.683,0 2.038,-1.369 2.038,-2.55 0,-1.18 -0.355,-2.572 -2.038,-2.572 -1.707,0 -2.062,1.298 -2.062,2.572"
         style="fill:#ffffff;fill-opacity:1;fill-rule:nonzero;stroke:none"
         transform="matrix(1.3333333,0,0,-1.3333333,541.04493,275.36933)" />
      <path
         id="path575"
         d="M 0,0 1.075,0.519 V -6.325 H 0 Z"
         style="fill:#ffffff;fill-opacity:1;fill-rule:nonzero;stroke:none"
         transform="matrix(1.3333333,0,0,-1.3333333,546.4928,270.20853)" />
      <path
         id="path576"
         d="m 0,0 c 0,0.635 -0.424,0.779 -0.991,0.779 -0.151,0 -0.827,-0.087 -0.827,-0.827 v -3.209 h -1.086 v 4.908 h 1.063 V 1.487 C -1.573,1.654 -1.1,1.79 -0.785,1.79 h 0.013 c 0.925,0 1.835,-0.596 1.835,-1.672 V -3.257 H 0 Z"
         style="fill:#ffffff;fill-opacity:1;fill-rule:nonzero;stroke:none"
         transform="matrix(1.3333333,0,0,-1.3333333,553.59013,274.29853)" />
      <path
         id="path577"
         d="m 0,0 h -2.454 v -2.924 h -1.06 v 6.72 h 1.06 V 1.084 h 2.453 v 2.712 h 1.062 v -6.72 H 0 Z"
         style="fill:#ffffff;fill-opacity:1;fill-rule:nonzero;stroke:none"
         transform="matrix(1.3333333,0,0,-1.3333333,568.65147,274.7432)" />
      <path
         id="path578"
         d="M 0,0 -1.254,3.375 -2.485,0 h -1.184 l -1.373,4.909 h 1.137 l 0.876,-3.28 1.183,3.28 h 1.231 L 0.497,1.605 1.42,4.909 H 2.557 L 1.208,0 Z"
         style="fill:#ffffff;fill-opacity:1;fill-rule:nonzero;stroke:none"
         transform="matrix(1.3333333,0,0,-1.3333333,578.0428,278.64187)" />
      <path
         id="path579"
         d="M 0,0 0.738,1.888 -1.165,6.797 H 0.002 L 1.357,3.352 2.665,6.797 H 3.878 L 1.19,0 Z"
         style="fill:#ffffff;fill-opacity:1;fill-rule:nonzero;stroke:none"
         transform="matrix(1.3333333,0,0,-1.3333333,583.36427,281.1596)" />
    </g>
  </g>
</svg>
