<?xml version="1.0" encoding="UTF-8" standalone="no"?>
<!-- Created with Inkscape (http://www.inkscape.org/) -->

<svg
   width="45.721058mm"
   height="6.0981164mm"
   viewBox="0 0 45.721058 6.0981164"
   version="1.1"
   id="svg1"
   inkscape:version="1.3 (0e150ed, 2023-07-21)"
   sodipodi:docname="MUTCD_I2-3_(numbered_and_named).svg"
   xmlns:inkscape="http://www.inkscape.org/namespaces/inkscape"
   xmlns:sodipodi="http://sodipodi.sourceforge.net/DTD/sodipodi-0.dtd"
   xmlns="http://www.w3.org/2000/svg"
   xmlns:svg="http://www.w3.org/2000/svg">
  <sodipodi:namedview
     id="namedview1"
     pagecolor="#ffffff"
     bordercolor="#666666"
     borderopacity="1.0"
     inkscape:showpageshadow="2"
     inkscape:pageopacity="0.0"
     inkscape:pagecheckerboard="0"
     inkscape:deskcolor="#d1d1d1"
     inkscape:document-units="mm"
     inkscape:zoom="1"
     inkscape:cx="86"
     inkscape:cy="10"
     inkscape:window-width="1440"
     inkscape:window-height="431"
     inkscape:window-x="0"
     inkscape:window-y="23"
     inkscape:window-maximized="0"
     inkscape:current-layer="layer1" />
  <defs
     id="defs1" />
  <g
     inkscape:label="Layer 1"
     inkscape:groupmode="layer"
     id="layer1"
     transform="translate(-81.491668,-145.52083)">
    <g
       id="g415"
       transform="matrix(0.26458333,0,0,0.26458333,29.306944,82.423494)">
      <path
         id="path416"
         d="m 0,0 c -0.994,0 -1.802,0.808 -1.802,1.801 v 13.68 c 0,0.994 0.808,1.802 1.802,1.802 h 125.997 c 0.993,0 1.801,-0.808 1.801,-1.802 V 1.801 C 127.798,0.808 126.99,0 125.997,0 Z"
         style="fill:#ffffff;fill-opacity:1;fill-rule:nonzero;stroke:none"
         transform="matrix(1.3333333,0,0,-1.3333333,199.638,261.52413)" />
    </g>
    <g
       id="g416"
       transform="matrix(0.26458333,0,0,0.26458333,29.306944,82.423494)">
      <path
         id="path417"
         d="m 0,0 h -125.997 c -0.994,0 -1.803,-0.809 -1.803,-1.803 v -13.68 c 0,-0.994 0.809,-1.803 1.803,-1.803 H 0 c 0.994,0 1.803,0.809 1.803,1.803 v 13.68 C 1.803,-0.809 0.994,0 0,0 m 0,-0.003 c 0.994,0 1.8,-0.806 1.8,-1.8 v -13.68 c 0,-0.994 -0.806,-1.8 -1.8,-1.8 h -125.997 c -0.994,0 -1.8,0.806 -1.8,1.8 v 13.68 c 0,0.994 0.806,1.8 1.8,1.8 z"
         style="fill:#000000;fill-opacity:1;fill-rule:nonzero;stroke:none"
         transform="matrix(1.3333333,0,0,-1.3333333,367.6336,238.47813)" />
    </g>
    <g
       id="g417"
       transform="matrix(0.26458333,0,0,0.26458333,29.306944,82.423494)">
      <path
         id="path418"
         d="m 0,0 h -125.997 c -0.596,0 -1.08,0.484 -1.08,1.08 v 13.68 c 0,0.596 0.484,1.08 1.08,1.08 H 0 c 0.596,0 1.08,-0.484 1.08,-1.08 V 1.08 C 1.08,0.484 0.596,0 0,0"
         style="fill:#006f51;fill-opacity:1;fill-rule:nonzero;stroke:none"
         transform="matrix(1.3333333,0,0,-1.3333333,367.6336,260.56213)" />
      <path
         id="path419"
         d="M 0,0 V 5.548 H 1.363 V 0 c 0,-1.122 0.637,-1.849 1.577,-1.849 0.939,0 1.576,0.727 1.576,1.849 V 5.548 H 5.882 V 0 C 5.882,-2.732 3.785,-3.243 2.941,-3.243 2.172,-3.243 0,-2.791 0,0"
         style="fill:#ffffff;fill-opacity:1;fill-rule:nonzero;stroke:none"
         transform="matrix(1.3333333,0,0,-1.3333333,205.20747,251.6396)" />
      <path
         id="path420"
         d="m 0,0 1.304,0.485 c 0.363,-0.819 1.03,-1.273 1.848,-1.273 0.789,0 1.335,0.545 1.335,1.273 0,1.156 -1.333,1.334 -2.456,1.788 -0.515,0.213 -1.667,0.728 -1.667,2.153 0,1.699 1.151,2.332 2.698,2.332 C 4.275,6.758 5.093,6.061 5.518,5 L 4.305,4.636 C 4.169,4.978 3.675,5.394 3.031,5.394 1.799,5.394 1.694,4.737 1.694,4.521 1.694,3.713 2.391,3.553 3.524,3.198 4.677,2.835 5.882,2.305 5.882,0.453 5.882,-1.413 4.37,-2.183 3.152,-2.183 1.666,-2.183 0.576,-1.304 0,0"
         style="fill:#ffffff;fill-opacity:1;fill-rule:nonzero;stroke:none"
         transform="matrix(1.3333333,0,0,-1.3333333,215.0084,253.05373)" />
      <path
         id="path421"
         d="m 0,0 v 1.364 h 0.336 c 0.548,0 0.853,0.303 0.853,0.849 0,0.672 -0.545,1.152 -1.249,1.152 -0.579,0 -1.006,-0.273 -1.31,-0.849 l -1.28,0.485 c 0.455,1.092 1.432,1.757 2.559,1.757 1.463,0 2.652,-1.177 2.652,-2.637 0,-0.515 -0.122,-0.879 -0.489,-1.424 0.64,-0.576 0.823,-1.03 0.823,-1.881 0,-1.758 -1.21,-3 -2.986,-3 -1.402,0 -2.529,0.911 -2.895,2.305 l 1.341,0.394 c 0.214,-0.849 0.792,-1.304 1.615,-1.304 0.913,0 1.554,0.642 1.554,1.516 C 1.524,-0.917 1.377,0 0.384,0 Z"
         style="fill:#ffffff;fill-opacity:1;fill-rule:nonzero;stroke:none"
         transform="matrix(1.3333333,0,0,-1.3333333,238.3516,250.38693)" />
      <path
         id="path422"
         d="M 0,0 C 0.931,0 1.687,0.882 1.687,3.078 1.687,5.273 0.931,6.156 0,6.156 -0.931,6.156 -1.687,5.275 -1.687,3.078 -1.687,0.882 -0.931,0 0,0 m 3.054,3.078 c 0,-0.31 0.066,-4.471 -3.069,-4.471 -3.135,0 -3.069,4.161 -3.069,4.471 0,0.31 -0.066,4.47 3.069,4.47 3.135,0 3.069,-4.16 3.069,-4.47"
         style="fill:#ffffff;fill-opacity:1;fill-rule:nonzero;stroke:none"
         transform="matrix(1.3333333,0,0,-1.3333333,248.62907,254.1064)" />
      <path
         id="path423"
         d="m 193.846,605.12 h 4.32 v -1.365 h -4.32 z"
         style="fill:#ffffff;fill-opacity:1;fill-rule:nonzero;stroke:none"
         transform="matrix(1.3333333,0,0,-1.3333333,0,1056)" />
      <path
         id="path424"
         d="M 0,0 H 1.363 V -7.366 H 5.359 V -8.64 H 0 Z"
         style="fill:#ffffff;fill-opacity:1;fill-rule:nonzero;stroke:none"
         transform="matrix(1.3333333,0,0,-1.3333333,269.98107,244.24253)" />
      <path
         id="path425"
         d="m 208.968,606.49 h 1.382 v -6.311 h -1.382 z m -0.036,1.76 c 0,0.396 0.331,0.722 0.728,0.728 0.396,0 0.727,-0.332 0.727,-0.728 0,-0.394 -0.332,-0.698 -0.727,-0.698 -0.395,0 -0.728,0.304 -0.728,0.698"
         style="fill:#ffffff;fill-opacity:1;fill-rule:nonzero;stroke:none"
         transform="matrix(1.3333333,0,0,-1.3333333,0,1056)" />
      <path
         id="path426"
         d="m 0,0 c 0,0.816 -0.545,1.001 -1.274,1.001 -0.194,0 -1.063,-0.111 -1.063,-1.063 v -4.126 h -1.396 v 6.311 h 1.366 V 1.912 c 0.344,0.214 0.952,0.389 1.358,0.389 h 0.017 c 1.189,0 2.358,-0.765 2.358,-2.149 v -4.34 H 0 Z"
         style="fill:#ffffff;fill-opacity:1;fill-rule:nonzero;stroke:none"
         transform="matrix(1.3333333,0,0,-1.3333333,287.7492,250.178)" />
      <path
         id="path427"
         d="M 0,0 C 0,1.419 0.454,3.278 2.625,3.278 3.983,3.278 4.708,2.61 5.009,1.7 L 3.621,1.214 C 3.471,1.73 3.169,2.003 2.625,2.003 1.572,2.003 1.389,0.637 1.389,0 c 0,-0.637 0.179,-2.032 1.236,-2.032 0.693,0 0.996,0.546 1.087,1.183 L 5.1,-1.214 C 4.858,-2.337 4.195,-3.307 2.625,-3.307 0.461,-3.307 0,-1.633 0,0"
         style="fill:#ffffff;fill-opacity:1;fill-rule:nonzero;stroke:none"
         transform="matrix(1.3333333,0,0,-1.3333333,291.29933,251.51427)" />
      <path
         id="path428"
         d="m 0,0 c 0,-0.637 0.183,-2.033 1.25,-2.033 1.067,0 1.219,1.427 1.219,2.063 0,0.607 -0.184,2.005 -1.219,2.005 V 2.032 C 0.183,2.032 0,0.637 0,0 m -1.402,0.03 c 0,1.396 0.457,3.278 2.652,3.278 2.164,0 2.621,-1.76 2.621,-3.278 0,-1.517 -0.457,-3.307 -2.621,-3.307 -2.195,0 -2.652,1.669 -2.652,3.307"
         style="fill:#ffffff;fill-opacity:1;fill-rule:nonzero;stroke:none"
         transform="matrix(1.3333333,0,0,-1.3333333,301.00493,251.5548)" />
      <path
         id="path429"
         d="M 0,0 1.382,0.667 V -8.132 H 0 Z"
         style="fill:#ffffff;fill-opacity:1;fill-rule:nonzero;stroke:none"
         transform="matrix(1.3333333,0,0,-1.3333333,308.00933,244.91947)" />
      <path
         id="path430"
         d="m 0,0 c 0,0.816 -0.545,1.001 -1.274,1.001 -0.194,0 -1.063,-0.111 -1.063,-1.063 v -4.126 h -1.396 v 6.311 h 1.366 V 1.912 c 0.344,0.214 0.952,0.389 1.358,0.389 h 0.016 c 1.19,0 2.359,-0.765 2.359,-2.149 v -4.34 H 0 Z"
         style="fill:#ffffff;fill-opacity:1;fill-rule:nonzero;stroke:none"
         transform="matrix(1.3333333,0,0,-1.3333333,317.13453,250.178)" />
      <path
         id="path431"
         d="M 0,0 H -3.155 V -3.759 H -4.518 V 4.88 h 1.363 V 1.394 h 3.154 V 4.88 H 1.364 V -3.759 H 0 Z"
         style="fill:#ffffff;fill-opacity:1;fill-rule:nonzero;stroke:none"
         transform="matrix(1.3333333,0,0,-1.3333333,336.4992,250.74987)" />
      <path
         id="path432"
         d="M 0,0 -1.612,4.339 -3.195,0 h -1.522 l -1.765,6.311 h 1.461 l 1.127,-4.217 1.52,4.217 h 1.583 L 0.639,2.064 1.826,6.311 H 3.287 L 1.553,0 Z"
         style="fill:#ffffff;fill-opacity:1;fill-rule:nonzero;stroke:none"
         transform="matrix(1.3333333,0,0,-1.3333333,348.57373,255.7624)" />
      <path
         id="path433"
         d="m 0,0 0.948,2.428 -2.446,6.311 h 1.5 l 1.742,-4.43 1.683,4.43 H 4.986 L 1.53,0 Z"
         style="fill:#ffffff;fill-opacity:1;fill-rule:nonzero;stroke:none"
         transform="matrix(1.3333333,0,0,-1.3333333,355.4156,258.99933)" />
    </g>
  </g>
</svg>
