<?xml version="1.0" encoding="UTF-8" standalone="no"?>
<!-- Created with Inkscape (http://www.inkscape.org/) -->

<svg
   width="16.257763mm"
   height="8.1301165mm"
   viewBox="0 0 16.257763 8.1301165"
   version="1.1"
   id="svg1"
   inkscape:version="1.3 (0e150ed, 2023-07-21)"
   sodipodi:docname="MUTCD_I2-3a.svg"
   xmlns:inkscape="http://www.inkscape.org/namespaces/inkscape"
   xmlns:sodipodi="http://sodipodi.sourceforge.net/DTD/sodipodi-0.dtd"
   xmlns="http://www.w3.org/2000/svg"
   xmlns:svg="http://www.w3.org/2000/svg">
  <sodipodi:namedview
     id="namedview1"
     pagecolor="#ffffff"
     bordercolor="#666666"
     borderopacity="1.0"
     inkscape:showpageshadow="2"
     inkscape:pageopacity="0.0"
     inkscape:pagecheckerboard="0"
     inkscape:deskcolor="#d1d1d1"
     inkscape:document-units="mm"
     inkscape:zoom="1"
     inkscape:cx="29"
     inkscape:cy="14"
     inkscape:window-width="1440"
     inkscape:window-height="431"
     inkscape:window-x="0"
     inkscape:window-y="23"
     inkscape:window-maximized="0"
     inkscape:current-layer="layer1" />
  <defs
     id="defs1" />
  <g
     inkscape:label="Layer 1"
     inkscape:groupmode="layer"
     id="layer1"
     transform="translate(-96.308331,-144.4625)">
    <g
       id="g514"
       transform="matrix(0.26458333,0,0,0.26458333,-37.740767,61.807442)">
      <path
         id="path515"
         d="m 0,0 c -1.192,0 -2.162,0.969 -2.162,2.161 v 18.72 c 0,1.192 0.97,2.161 2.162,2.161 h 41.759 c 1.192,0 2.162,-0.969 2.162,-2.161 V 2.161 C 43.921,0.969 42.951,0 41.759,0 Z"
         style="fill:#ffffff;fill-opacity:1;fill-rule:nonzero;stroke:none"
         transform="matrix(1.3333333,0,0,-1.3333333,509.5268,343.12227)" />
    </g>
    <g
       id="g515"
       transform="matrix(0.26458333,0,0,0.26458333,-37.740767,61.807442)">
      <path
         id="path516"
         d="m 0,0 h -41.759 c -1.193,0 -2.163,-0.97 -2.163,-2.163 v -18.72 c 0,-1.193 0.97,-2.163 2.163,-2.163 H 0 c 1.193,0 2.163,0.97 2.163,2.163 v 18.72 C 2.163,-0.97 1.193,0 0,0 m 0,-0.003 c 1.193,0 2.16,-0.967 2.16,-2.16 v -18.72 c 0,-1.193 -0.967,-2.16 -2.16,-2.16 h -41.759 c -1.193,0 -2.16,0.967 -2.16,2.16 v 18.72 c 0,1.193 0.967,2.16 2.16,2.16 z"
         style="fill:#000000;fill-opacity:1;fill-rule:nonzero;stroke:none"
         transform="matrix(1.3333333,0,0,-1.3333333,565.20493,312.39707)" />
    </g>
    <g
       id="g516"
       transform="matrix(0.26458333,0,0,0.26458333,-37.740767,61.807442)">
      <path
         id="path517"
         d="m 0,0 h -41.759 c -0.795,0 -1.44,0.645 -1.44,1.44 v 18.719 c 0,0.796 0.645,1.44 1.44,1.44 H 0 c 0.795,0 1.44,-0.644 1.44,-1.44 V 1.44 C 1.44,0.645 0.795,0 0,0"
         style="fill:#006f51;fill-opacity:1;fill-rule:nonzero;stroke:none"
         transform="matrix(1.3333333,0,0,-1.3333333,565.20493,342.16067)" />
    </g>
    <g
       id="g517"
       transform="matrix(0.26458333,0,0,0.26458333,-37.740767,61.807442)">
      <path
         id="path518"
         d="m 0,0 v -1.84 h 1.604 c 0.546,0 0.825,0.26 0.825,0.779 C 2.429,-0.542 2.07,0 1.52,0 Z M 1.557,2.735 H 0 V 1.084 h 1.351 c 0.603,0 0.937,0.526 0.937,0.967 0,0.448 -0.247,0.684 -0.731,0.684 M -1.06,-2.924 v 6.72 h 2.547 c 1.061,0 1.862,-0.731 1.862,-1.698 0,-0.66 -0.306,-1.155 -0.942,-1.509 0.707,-0.33 1.107,-0.902 1.107,-1.626 0,-0.479 -0.269,-1.887 -2.027,-1.887 z"
         style="fill:#ffffff;fill-opacity:1;fill-rule:nonzero;stroke:none"
         transform="matrix(1.3333333,0,0,-1.3333333,517.12773,321.62267)" />
      <path
         id="path519"
         d="m 0,0 c -0.615,0 -0.685,-0.35 -0.685,-0.968 v -3.069 h -1.089 v 4.909 h 1.089 V 0.636 c 0.26,0.236 0.378,0.354 0.756,0.354 0.37,0 0.545,-0.142 0.71,-0.331 L 0.639,-0.284 C 0.426,-0.118 0.259,0 0,0"
         style="fill:#ffffff;fill-opacity:1;fill-rule:nonzero;stroke:none"
         transform="matrix(1.3333333,0,0,-1.3333333,525.52347,320.13853)" />
      <path
         id="path520"
         d="m 0,0 c 0,-0.496 0.142,-1.581 0.972,-1.581 0.83,0 0.948,1.11 0.948,1.605 0,0.472 -0.143,1.559 -0.948,1.559 V 1.581 C 0.142,1.581 0,0.496 0,0 m -1.09,0.024 c 0,1.085 0.355,2.549 2.062,2.549 1.683,0 2.038,-1.369 2.038,-2.549 0,-1.181 -0.355,-2.572 -2.038,-2.572 -1.707,0 -2.062,1.297 -2.062,2.572"
         style="fill:#ffffff;fill-opacity:1;fill-rule:nonzero;stroke:none"
         transform="matrix(1.3333333,0,0,-1.3333333,528.73587,322.24867)" />
      <path
         id="path521"
         d="M 0,0 -1.254,3.375 -2.485,0 h -1.184 l -1.373,4.909 h 1.137 l 0.876,-3.28 1.183,3.28 h 1.231 L 0.497,1.605 1.42,4.909 H 2.557 L 1.208,0 Z"
         style="fill:#ffffff;fill-opacity:1;fill-rule:nonzero;stroke:none"
         transform="matrix(1.3333333,0,0,-1.3333333,540.18893,325.5212)" />
      <path
         id="path522"
         d="M 0,0 H 1.829 C 1.829,0.474 1.735,1.039 0.938,1.039 0.122,1.039 0,0.486 0,0 m 0.024,-0.991 c 0.047,-0.543 0.257,-1.11 0.914,-1.11 0.432,0 0.797,0.26 0.915,0.685 L 2.72,-1.959 C 2.438,-2.596 1.923,-3.092 0.938,-3.092 c -1.692,0 -2.017,1.298 -2.017,2.573 0,1.085 0.329,2.548 2.017,2.548 1.768,0 1.95,-1.532 1.95,-2.717 v -0.303 z"
         style="fill:#ffffff;fill-opacity:1;fill-rule:nonzero;stroke:none"
         transform="matrix(1.3333333,0,0,-1.3333333,545.75347,321.52387)" />
      <path
         id="path523"
         d="m 0,0 c -0.615,0 -0.685,-0.35 -0.685,-0.968 v -3.069 h -1.089 v 4.909 h 1.089 V 0.636 c 0.26,0.236 0.378,0.354 0.756,0.354 0.37,0 0.545,-0.142 0.71,-0.331 L 0.639,-0.284 C 0.426,-0.118 0.259,0 0,0"
         style="fill:#ffffff;fill-opacity:1;fill-rule:nonzero;stroke:none"
         transform="matrix(1.3333333,0,0,-1.3333333,553.224,320.13853)" />
      <path
         id="path524"
         d="m 0,0 c 0.269,0.27 0.648,0.402 1.113,0.402 0.748,0 1.199,-0.542 1.371,-1.034 l -0.99,-0.336 c -0.081,0.235 -0.297,0.374 -0.455,0.374 -0.257,0 -0.41,-0.133 -0.41,-0.361 0,-0.761 2.014,-0.403 2.014,-2.184 0,-1.008 -0.741,-1.583 -1.488,-1.583 -0.738,0 -1.365,0.474 -1.672,1.268 l 0.952,0.349 c 0.161,-0.432 0.455,-0.656 0.72,-0.656 0.265,0 0.485,0.254 0.485,0.534 0,1.02 -2.016,0.685 -2.016,2.19 0,0.536 0.198,0.858 0.376,1.037"
         style="fill:#ffffff;fill-opacity:1;fill-rule:nonzero;stroke:none"
         transform="matrix(1.3333333,0,0,-1.3333333,555.49333,319.3468)" />
    </g>
    <g
       id="g524"
       transform="matrix(0.26458333,0,0,0.26458333,-37.740767,61.807442)">
      <path
         id="path525"
         d="M 0,0 -1.558,-3.891 -3.118,0 v -3.891 h -1.063 v 6.72 h 1.063 L -1.558,-0.943 0,2.829 h 1.063 v -6.72 H 0 Z"
         style="fill:#ffffff;fill-opacity:1;fill-rule:nonzero;stroke:none"
         transform="matrix(1.3333333,0,0,-1.3333333,523.8044,333.77307)" />
      <path
         id="path526"
         d="m 395.396,542.688 h 1.075 v -4.909 h -1.075 z m -0.029,1.369 c 0,0.309 0.258,0.562 0.566,0.566 0.309,0 0.566,-0.257 0.566,-0.566 0,-0.306 -0.258,-0.542 -0.566,-0.542 -0.306,0 -0.566,0.236 -0.566,0.542"
         style="fill:#ffffff;fill-opacity:1;fill-rule:nonzero;stroke:none"
         transform="matrix(1.3333333,0,0,-1.3333333,0,1056)" />
      <path
         id="path527"
         d="M 0,0 1.075,0.519 V -6.325 H 0 Z"
         style="fill:#ffffff;fill-opacity:1;fill-rule:nonzero;stroke:none"
         transform="matrix(1.3333333,0,0,-1.3333333,530.41947,330.52747)" />
      <path
         id="path528"
         d="M 0,0 1.075,0.519 V -6.325 H 0 Z"
         style="fill:#ffffff;fill-opacity:1;fill-rule:nonzero;stroke:none"
         transform="matrix(1.3333333,0,0,-1.3333333,533.6452,330.52747)" />
      <path
         id="path529"
         d="m 0,0 c 0.843,0 0.976,0.608 0.976,0.825 0,0.293 -0.219,0.826 -0.925,0.826 H -1.335 V 0 Z m -1.335,-1.084 v -2.924 h -1.06 v 6.719 h 2.431 c 1.541,0 2.003,-1.232 2.003,-1.887 0,-0.249 -0.093,-1.232 -1.044,-1.682 L 2.18,-4.008 H 1.024 l -1.084,2.924 z"
         style="fill:#ffffff;fill-opacity:1;fill-rule:nonzero;stroke:none"
         transform="matrix(1.3333333,0,0,-1.3333333,547.23147,333.6164)" />
      <path
         id="path530"
         d="M 0,0 C 0.378,0 0.637,0.071 0.896,0.331 V 2.809 C 0.613,3.115 0.375,3.164 0.071,3.164 -0.739,3.164 -0.967,2.313 -0.967,1.605 -0.967,0.919 -0.734,0 0,0 m -0.186,4.165 c 0.415,0 0.875,-0.121 1.106,-0.294 V 5.452 L 1.982,5.971 V -0.873 H 0.92 v 0.142 c -0.33,-0.189 -0.566,-0.26 -0.944,-0.26 -1.489,0 -2.028,1.204 -2.028,2.596 0,1.284 0.418,2.56 1.866,2.56"
         style="fill:#ffffff;fill-opacity:1;fill-rule:nonzero;stroke:none"
         transform="matrix(1.3333333,0,0,-1.3333333,553.85987,337.79707)" />
    </g>
  </g>
</svg>
