<?xml version="1.0" encoding="UTF-8" standalone="no"?>
<!-- Created with Inkscape (http://www.inkscape.org/) -->

<svg
   width="68.756386mm"
   height="45.896389mm"
   viewBox="0 0 68.756386 45.896389"
   version="1.1"
   id="svg1"
   inkscape:version="1.3 (0e150ed, 2023-07-21)"
   sodipodi:docname="MUTCD_I2-4a.svg"
   xmlns:inkscape="http://www.inkscape.org/namespaces/inkscape"
   xmlns:sodipodi="http://sodipodi.sourceforge.net/DTD/sodipodi-0.dtd"
   xmlns="http://www.w3.org/2000/svg"
   xmlns:svg="http://www.w3.org/2000/svg">
  <sodipodi:namedview
     id="namedview1"
     pagecolor="#ffffff"
     bordercolor="#666666"
     borderopacity="1.0"
     inkscape:showpageshadow="2"
     inkscape:pageopacity="0.0"
     inkscape:pagecheckerboard="0"
     inkscape:deskcolor="#d1d1d1"
     inkscape:document-units="mm"
     inkscape:zoom="1"
     inkscape:cx="129"
     inkscape:cy="86"
     inkscape:window-width="1440"
     inkscape:window-height="431"
     inkscape:window-x="0"
     inkscape:window-y="23"
     inkscape:window-maximized="0"
     inkscape:current-layer="layer1" />
  <defs
     id="defs1">
    <clipPath
       clipPathUnits="userSpaceOnUse"
       id="clipPath103">
      <path
         d="m 112.85,45 h 413.3 v 166.2 h -413.3 z"
         transform="translate(-339.59961,-59.774799)"
         id="path103" />
    </clipPath>
  </defs>
  <g
     inkscape:label="Layer 1"
     inkscape:groupmode="layer"
     id="layer1"
     transform="translate(-70.114582,-125.67708)">
    <g
       id="g101"
       transform="matrix(0.26458333,0,0,0.26458333,-46.743057,-86.783367)">
      <path
         id="path102"
         d="m 0,0 c -4.535,0 -8.225,3.69 -8.225,8.225 v 113.4 c 0,4.535 3.69,8.225 8.225,8.225 h 178.2 c 4.535,0 8.226,-3.69 8.226,-8.225 V 8.225 C 186.426,3.69 182.735,0 178.2,0 Z"
         style="fill:#ffffff;fill-opacity:1;fill-rule:nonzero;stroke:none"
         transform="matrix(1.3333333,0,0,-1.3333333,452.79947,976.30027)"
         clip-path="url(#clipPath103)" />
    </g>
    <g
       id="g103"
       transform="matrix(0.26458333,0,0,0.26458333,-46.743057,-86.783367)">
      <path
         id="path104"
         d="m 0,0 h -178.2 c -4.604,0 -8.35,-3.746 -8.35,-8.35 v -113.4 c 0,-4.604 3.746,-8.35 8.35,-8.35 H 0 c 4.604,0 8.35,3.746 8.35,8.35 V -8.35 C 8.35,-3.746 4.604,0 0,0 m 0,-0.25 c 4.474,0 8.1,-3.626 8.1,-8.1 v -113.4 c 0,-4.474 -3.626,-8.1 -8.1,-8.1 h -178.2 c -4.473,0 -8.1,3.626 -8.1,8.1 v 113.4 c 0,4.474 3.627,8.1 8.1,8.1 z"
         style="fill:#000000;fill-opacity:1;fill-rule:nonzero;stroke:none"
         transform="matrix(1.3333333,0,0,-1.3333333,690.4,803.00013)" />
    </g>
    <g
       id="g104"
       transform="matrix(0.26458333,0,0,0.26458333,-46.743057,-86.783367)">
      <path
         id="path105"
         d="m 0,0 h -178.2 c -2.982,0 -5.4,2.418 -5.4,5.4 v 113.4 c 0,2.982 2.418,5.4 5.4,5.4 H 0 c 2.982,0 5.4,-2.418 5.4,-5.4 V 5.4 C 5.4,2.418 2.982,0 0,0"
         style="fill:#006f51;fill-opacity:1;fill-rule:nonzero;stroke:none"
         transform="matrix(1.3333333,0,0,-1.3333333,690.4,972.53347)" />
    </g>
    <g
       id="g105"
       transform="matrix(0.26458333,0,0,0.26458333,-46.743057,-86.783367)">
      <path
         id="path106"
         d="m 393.856,135.5 h 3.456 v -21.6 h -3.456 z"
         style="fill:#ffffff;fill-opacity:1;fill-rule:nonzero;stroke:none"
         transform="matrix(1.3333333,0,0,-1.3333333,0,1056)" />
      <path
         id="path107"
         d="m 408.112,126.255 h 10.8 v -3.413 h -10.8 z"
         style="fill:#ffffff;fill-opacity:1;fill-rule:nonzero;stroke:none"
         transform="matrix(1.3333333,0,0,-1.3333333,0,1056)" />
      <path
         id="path108"
         d="m 0,0 c -0.305,-1.82 -0.456,-3.183 -0.456,-5.305 h -3.505 c 0.076,5.003 0.991,9.171 3.124,13.718 0.594,1.277 1.687,3.281 2.438,4.471 H -8.761 v 3.41 H 5.943 v -3.41 C 5.181,11.899 4.728,11.443 4.039,10.306 2.133,7.123 0.686,3.483 0,0"
         style="fill:#ffffff;fill-opacity:1;fill-rule:nonzero;stroke:none"
         transform="matrix(1.3333333,0,0,-1.3333333,584.63133,897.05947)" />
      <path
         id="path109"
         d="M 0,0 H 6.164 V 8.111 Z M 9.59,-8.489 H 6.164 v 5.381 h -10.73 v 2.044 L 6.164,13.111 H 9.59 V 0 h 2.055 V -3.108 H 9.59 Z"
         style="fill:#ffffff;fill-opacity:1;fill-rule:nonzero;stroke:none"
         transform="matrix(1.3333333,0,0,-1.3333333,602.53173,892.81507)" />
    </g>
    <g
       id="g109"
       transform="matrix(0.26458333,0,0,0.26458333,-46.743057,-86.783367)">
      <path
         id="path110"
         d="M 0,0 H 6.283 V -3.486 H 0 v -9.398 h -3.407 v 21.6 H 9.989 V 5.305 H 0 Z"
         style="fill:#ffffff;fill-opacity:1;fill-rule:nonzero;stroke:none"
         transform="matrix(1.3333333,0,0,-1.3333333,505.07893,836.5544)" />
      <path
         id="path111"
         d="M 0,0 V 13.87 H 3.407 V 0 c 0,-2.805 1.593,-4.622 3.942,-4.622 2.349,0 3.942,1.817 3.942,4.622 v 13.87 h 3.412 V 0 c 0,-6.831 -5.24,-8.108 -7.351,-8.108 C 5.429,-8.108 0,-6.977 0,0"
         style="fill:#ffffff;fill-opacity:1;fill-rule:nonzero;stroke:none"
         transform="matrix(1.3333333,0,0,-1.3333333,523.5832,843.42653)" />
      <path
         id="path112"
         d="M 0,0 H -3.426 V 18.568 H -8.372 V 21.6 H 5.024 V 18.568 H 0 Z"
         style="fill:#ffffff;fill-opacity:1;fill-rule:nonzero;stroke:none"
         transform="matrix(1.3333333,0,0,-1.3333333,559.53613,853.73333)" />
      <path
         id="path113"
         d="M 0,0 V 13.87 H 3.407 V 0 c 0,-2.805 1.593,-4.622 3.942,-4.622 2.349,0 3.942,1.817 3.942,4.622 v 13.87 h 3.412 V 0 c 0,-6.831 -5.24,-8.108 -7.351,-8.108 C 5.429,-8.108 0,-6.977 0,0"
         style="fill:#ffffff;fill-opacity:1;fill-rule:nonzero;stroke:none"
         transform="matrix(1.3333333,0,0,-1.3333333,571.4204,843.42653)" />
      <path
         id="path114"
         d="m 0,0 c 2.711,0 3.137,1.955 3.137,2.651 0,0.943 -0.704,2.654 -2.972,2.654 H -4.29 V 0 Z m -4.29,-3.483 v -9.401 h -3.407 v 21.6 h 7.813 c 4.952,0 6.437,-3.961 6.437,-6.067 0,-0.802 -0.297,-3.961 -3.354,-5.408 L 7.006,-12.884 H 3.291 l -3.485,9.401 z"
         style="fill:#ffffff;fill-opacity:1;fill-rule:nonzero;stroke:none"
         transform="matrix(1.3333333,0,0,-1.3333333,609.58373,836.5544)" />
      <path
         id="path115"
         d="M 0,0 H 12.716 V -3.41 H 3.407 V -8.716 H 9.69 v -3.485 H 3.407 v -5.913 h 9.99 V -21.6 H 0 Z"
         style="fill:#ffffff;fill-opacity:1;fill-rule:nonzero;stroke:none"
         transform="matrix(1.3333333,0,0,-1.3333333,624.80173,824.93347)" />
    </g>
    <g
       id="g115"
       transform="matrix(0.26458333,0,0,0.26458333,-46.743057,-86.783367)">
      <path
         id="path116"
         d="m 0,0 c 0,3.038 0.61,11.137 7.957,11.137 3.132,0 5.265,-1.274 6.747,-4.395 L 11.521,5.378 C 10.416,6.966 9.866,7.652 7.959,7.652 3.44,7.652 3.488,1.353 3.488,-0.003 c 0,-1.339 -0.083,-7.732 4.623,-7.732 1.649,0 2.597,0.996 3.334,2.502 l 3.259,-1.212 C 13.489,-9.45 11.448,-11.216 8.183,-11.216 0.41,-11.216 0,-2.63 0,0"
         style="fill:#ffffff;fill-opacity:1;fill-rule:nonzero;stroke:none"
         transform="matrix(1.3333333,0,0,-1.3333333,475.2832,940.08307)" />
      <path
         id="path117"
         d="m 0,0 c 2.327,0 4.217,2.206 4.217,7.695 0,5.489 -1.89,7.695 -4.217,7.695 -2.327,0 -4.217,-2.203 -4.217,-7.695 C -4.217,2.206 -2.327,0 0,0 m 7.635,7.695 c 0,-0.775 0.165,-11.178 -7.673,-11.178 -7.838,0 -7.673,10.403 -7.673,11.178 0,0.775 -0.165,11.175 7.673,11.175 7.838,0 7.673,-10.4 7.673,-11.175"
         style="fill:#ffffff;fill-opacity:1;fill-rule:nonzero;stroke:none"
         transform="matrix(1.3333333,0,0,-1.3333333,512.08267,950.3932)" />
      <path
         id="path118"
         d="m 0,0 c 2.711,0 3.137,1.955 3.137,2.651 0,0.943 -0.704,2.654 -2.972,2.654 H -4.29 V 0 Z m -4.29,-3.483 v -9.401 h -3.408 v 21.6 h 7.814 c 4.952,0 6.437,-3.961 6.437,-6.067 0,-0.802 -0.297,-3.961 -3.354,-5.408 L 7.006,-12.884 H 3.291 l -3.485,9.401 z"
         style="fill:#ffffff;fill-opacity:1;fill-rule:nonzero;stroke:none"
         transform="matrix(1.3333333,0,0,-1.3333333,540.12773,937.35413)" />
      <path
         id="path119"
         d="m 0,0 c 2.711,0 3.137,1.955 3.137,2.651 0,0.943 -0.704,2.654 -2.972,2.654 H -4.29 V 0 Z m -4.29,-3.483 v -9.401 h -3.407 v 21.6 h 7.813 c 4.952,0 6.437,-3.961 6.437,-6.067 0,-0.802 -0.297,-3.961 -3.354,-5.408 L 7.006,-12.884 H 3.291 l -3.485,9.401 z"
         style="fill:#ffffff;fill-opacity:1;fill-rule:nonzero;stroke:none"
         transform="matrix(1.3333333,0,0,-1.3333333,565.60933,937.35413)" />
      <path
         id="path120"
         d="m 435.621,97.7 h 3.456 V 76.1 h -3.456 z"
         style="fill:#ffffff;fill-opacity:1;fill-rule:nonzero;stroke:none"
         transform="matrix(1.3333333,0,0,-1.3333333,0,1056)" />
      <path
         id="path121"
         d="m 0,0 h -3.866 v -14.701 h 3.626 c 3.142,0 4.174,3.807 4.174,7.873 C 3.934,-4.895 3.383,0 0,0 M -7.274,-18.19 V 3.41 H 0.518 C 5.97,3.41 7.43,-3.769 7.43,-6.904 7.43,-15.007 3.264,-18.19 0.532,-18.19 Z"
         style="fill:#ffffff;fill-opacity:1;fill-rule:nonzero;stroke:none"
         transform="matrix(1.3333333,0,0,-1.3333333,603.4284,930.2804)" />
      <path
         id="path122"
         d="m 0,0 c 2.327,0 4.217,2.206 4.217,7.695 0,5.489 -1.89,7.695 -4.217,7.695 -2.327,0 -4.217,-2.203 -4.217,-7.695 C -4.217,2.206 -2.327,0 0,0 m 7.635,7.695 c 0,-0.775 0.165,-11.178 -7.673,-11.178 -7.838,0 -7.673,10.403 -7.673,11.178 0,0.775 -0.165,11.175 7.673,11.175 7.838,0 7.673,-10.4 7.673,-11.175"
         style="fill:#ffffff;fill-opacity:1;fill-rule:nonzero;stroke:none"
         transform="matrix(1.3333333,0,0,-1.3333333,630.53,950.3932)" />
      <path
         id="path123"
         d="m 0,0 c 2.711,0 3.137,1.955 3.137,2.651 0,0.943 -0.704,2.654 -2.972,2.654 H -4.29 V 0 Z m -4.29,-3.483 v -9.401 h -3.407 v 21.6 h 7.813 c 4.952,0 6.437,-3.961 6.437,-6.067 0,-0.802 -0.297,-3.961 -3.354,-5.408 L 7.006,-12.884 H 3.291 l -3.485,9.401 z"
         style="fill:#ffffff;fill-opacity:1;fill-rule:nonzero;stroke:none"
         transform="matrix(1.3333333,0,0,-1.3333333,658.57507,937.35413)" />
    </g>
  </g>
</svg>
