<?xml version="1.0" encoding="UTF-8"?>
<svg id="I3-5" xmlns="http://www.w3.org/2000/svg" width="24in" height="24in" viewBox="0 0 1728 1728">
  <defs>
    <style>
      .a {
        fill: #fff;
      }
    </style>
  </defs>
  <g>
    <rect class="a" width="1728" height="1728" rx="108" ry="108"/>
    <path d="M1620,.56c28.7,0,55.68,11.18,75.97,31.47,20.29,20.29,31.47,47.27,31.47,75.97v1512c0,28.7-11.18,55.68-31.47,75.97-20.29,20.29-47.27,31.47-75.97,31.47H108c-28.7,0-55.68-11.18-75.97-31.47-20.29-20.29-31.47-47.27-31.47-75.97V108c0-28.7,11.18-55.68,31.47-75.97C52.32,11.74,79.3.56,108,.56h1512ZM108,0C48.35,0,0,48.35,0,108v1512c0,59.65,48.35,108,108,108h1512c59.65,0,108-48.35,108-108V108c0-59.65-48.35-108-108-108H108Z"/>
  </g>
  <rect fill="#006b54" x="36" y="36" width="1656" height="1656" rx="72" ry="72"/>
  <path id="airport_symbol" class="a" d="M945.01,1017.89v329.9c45.55,37.74,91.1,75.49,136.65,113.23v122.98c-72.55-22.02-145.11-44.05-217.66-66.07-72.55,22.02-145.11,44.05-217.66,66.07v-122.98c45.55-37.74,91.1-75.49,136.65-113.23v-329.9c-205.63,64.42-411.26,128.84-616.88,193.26-.65-50.76-1.3-101.51-1.95-152.27,206.27-122.98,412.55-245.98,618.83-368.96,0-145.11-.16-335.49,0-456.3.08-59.73,40.29-89.34,81.01-89.62,40.72.28,80.93,29.89,81.01,89.62.16,120.81,0,311.19,0,456.3,206.28,122.98,412.56,245.98,618.83,368.96-.65,50.76-1.3,101.51-1.95,152.27-205.62-64.42-411.25-128.84-616.88-193.26Z"/>
</svg>